<svg version="1.1" id="Layer_1" xmlns="http://www.w3.org/2000/svg" x="0" y="0" viewBox="0 0 230.2 281.5" xml:space="preserve"><style>.st2{fill-rule:evenodd;clip-rule:evenodd;fill:#fff}</style><path d="M162.9 78.1c-.3 0-.6 0-.8.2.3 0 .8.1.8-.2z" fill-rule="evenodd" clip-rule="evenodd" fill="#0f0b0b"/><path d="M227.1 192.1c-.6-6-.3-12.2-.5-18.3-.1-1.5-.4-3-.9-4.4-.3-1.1-.9-3.3-1.6-3.8-1.1-.8-4.2-.2-5.9.1-3.7.8-5.3 2.7-7.1 5.3-.7 1.1-1.6 2.2-2.2 3.3-1 1.6-3.5 5-5.5 5.6-1.5.3-3.1.4-4.7.2-3.4-.3-6.5-2-9.4-3.6-2.7-1.5-5-3.8-6.6-6.5-.8-1.8-1.4-3.6-1.8-5.5-1.4-5.4-3.8-10.5-7.3-14.9-4.3-5.2-9.4-10.8-14-15.5s-10.3-9.7-14.8-14.7c-3.4-3.8-5.9-8.5-8.7-13.3-.8-1.3-2.6-3.7-2.7-4.7.1-.9.4-1.8.7-2.7 1.3-6.2-.1-14.5.2-21 5-.1 11 .7 16.7.2 1.1-.1 2.2-.5 3.3-.6 4.1-.4 8.9-.2 11.3-1.5 2.3-1.1 3.5-3.6 4.9-5.5.4-.4-.5-.6-.1-1 .4-.9.7-1.8.7-2.8.3-6.1.2-12.2-.1-18.3-.5-14.6.4-30.1-.8-44 0-.3.4-.2.7-.2 0-.4-1-.9-1.3-1.3 0-.6-.3-1.4-.9-1.3-.9 0-.9 1.9-1 3-.4 3.8-.7 8.2-1.1 11-.7-.1-1.5-.1-2.2-.1-.4-4.6-1.1-8.8-1.7-13.2-.7-.4-1.3-1.4-2.2-1.2-.6.1-.6.8-1.2 1.2-.3 4.6-.7 9-1.1 13.4-.7-.1-1 .2-1.7.2-.4-3.2-1.3-7.8-1.7-11.4-.1-1.2-.1-3.1-.7-3.7s-1.7-.1-2.1-.8c-.2.1-.3.2-.3.3-.7 5.1-1.1 10.3-1.1 15.5-.5-.1-1.3.2-1.7-.1-.3-2.5-.4-5.1-.8-7.6s-.5-5-1.8-6.6c-.5 0-1.1 0-1.6.1-1.5 3.7-.8 9.6-1.5 14.1h-2.9c-.7-4.6-1.9-9.8-2-13.9-.7-.5-1.6.1-2.4.3-1.1 4-.9 9.2-1.4 13.8h-1.6c-.4-4.8-1.1-9.5-2-14.2-.4-.2-.5.1-.7.3s-.2-.6-.7-.3c-.8 4.8-1.2 9.7-1.2 14.6-.7 0-1.5.1-2.1.3-.6-4.2-.7-8.9-1.6-12.9 0-.3.6.1.4-.3-.4-.3-.3-1-.9-1.1-.3.1-.3-1-.9-.9-1.2 4.2-.9 9.9-1.8 14.4h-1.2c-.7-3.6-1.2-7.6-1.9-11.5-.2-.6.5-.2.6-.4-.8-.4-.7-2-1.7-1.7-.8.2-.8 1.7-1 2.9-.5 3.5-.8 8-1.1 10.9-.9.1-1.7 0-2.6-.1-.5-4.7-.8-9.6-1.9-13.7-.5-.2-1.1-.4-1.7-.4-1.5 3.7-.7 9.7-1.3 14.2h-1.1c-.9-3.4-.6-8.2-1.6-11.4-.2-.9-.7-1.7-1.5-2.3-1 .5-1 1.7-1.1 2.8-.5 3.4-1.1 7.3-1.2 10.9-.7-.1-1.7.1-2.1 0-.7-4.6-1-9.6-2-13.9-.4.1-.9 0-1.2-.2-1.1 4-.8 9.6-1 14.4-1-.1-1.8.1-2.7.1-.5-4.7-1.5-8.8-2-13.4-.5-.4-1.1-.5-1.6-.9-1.1 3.8-.4 9.6-1.1 13.8-.6 0-1.1 0-1.7-.1-.2-2-.4-4.1-.7-6.3-.3-2.7-.4-6.4-1.8-7.6-.9.8-.6 2.1-.8 3.3-.4 3.5-.8 7.4-.9 11.2-.7 0-1.6.3-2.2 0-.5-3.9-.8-7.8-.9-11.8-.2-.6.4-.3.3-.7-.2-.8-.5-1.5-1.1-2.1-.9.1-1.9.2-2.1 1-.4 4.3-.3 9-.6 13.4h-1.5c-.5-4.6-.7-9.4-2.1-13.1-.9-.1-.9-.9-1.8-.7-.7.2-.7 1.1-1.2 1.5.1 10.4-.4 21.8.1 32.3-.7 0-.4.9-.7 1.3-.4.2-.8-.3-1 0 .4.1 1 .2 1.1.6-.5 5.3-.7 10.6-.3 15.9.1 4.1.5 8.3 1.4 12.3.4 1.7 1.6 2.7 1.3 4.5 2.5 2.7 3.4 7.1 9 6.7.6-.1.4.5 1 .4.7-.6 2.5-.2 3.4 0 6.8-.2 14.7.3 22.1.2v6.6c0 2.3.3 4.6.2 6.5-.3 2.5-.9 5-2 7.3-.9 2.1-2.1 4.1-3.4 6-2.6 3.9-5.3 7.3-7.9 10.8-5.6 7.4-11.2 14.3-16.3 21.3-5.3 7.4-10.8 14.6-13.7 23.7-.7 2.2-1.8 4.4-2.6 6.7-1.5 4.8-3.2 9.3-4.9 13.9-.9 2.3-1.4 4.9-2.5 6.9-.9 1.6-2.4 2.5-3.7 3.7l-2.1 2.1c-2.9 2.9-6.3 5.3-10 7.1-1.9.8-3.7 1.8-5.6 2.9-3.6 2-6.9 4.8-10.6 6.4-3.1 1.3-6.2 2.4-9 3.8-1.5.8-3 1.5-4.5 2.2-3 1.6-7.2 6.2-7.2 10.4 0 2.7.9 5.6 2.5 6.9 1.1-.1 2.3.6 3.7.8 5.1.5 8.3-1.1 12-2.4 2.7-.9 5.3-2 7.6-3 4.8-2.1 9.4-4.6 13.7-7.5 2.6-1 4.1-3.7 6.4-4.6-.7 3.8-1.4 7.7-2 11.8-.6 3.8-1.7 7.6-2.2 11.5s-1.2 8.1-1.6 12.2c-.2 2.1-.1 4.3-.3 6.5-.4 3.7-1.2 7.4-.8 11.8.3 3.4 2.2 5.2 3.4 7.6.4.8.5 2.1 1.2 2.8 1.2 1 2.8.5 4.5.2 2.2-.4 3.5-.8 4.7-2.2 2.1-2.7 3.6-5.8 4.3-9.2.9-3.6 1-8.2 1.5-12.1 1-8.4 1.6-16.7 2.7-24.3.6-3.8 1.2-7.7 1.8-11.6s1.4-7.7 2.1-11.4c.3-1.9.6-3.8 1.1-5.6.6-1.6 1.2-3.2 2-4.7 1.5-3 3.1-6.2 5.1-8.4.8-.9 2.1-1.7 2.8-2.6 1.2-1.5 2.3-3.2 3.1-4.9.8-2 1.5-4 2.1-6 .6-1 1.1-2.1 1.5-3.3.6-2.6.6-5.7 2.2-6.8-1.1 6-2 16.1 1.2 20.4 2.5.9 5.5-.2 6.5-1.5 1 2.7 3.5 5.1 6.9 4.1 2-.5 3.3-2.6 3.7-4.7 2.7 2.7 7.9.5 8.2-2.9.5.8 1.2 1.4 2.1 1.7 1.7.5 3.6-.1 4.7-1.6.5-.5.7-1.4 1.2-1.6.3 2.1.7 4 2.1 5.2 2.9 2.3 7.6-.4 7.5-3.9.3 2.6 3.6 4.7 6.2 2.8 2.1-1.6 2.6-6.9 2.3-11-.3-3-1-6-2-8.9 1.2-2.4 2-5.2 4.5-6.4.2 1.1 1 2.9.9 4.5-.2 1-.5 1.9-.9 2.8-.3 1-.5 2.1-.7 3.1-.9 4.6-2.6 13.5 1.4 15.9 1.4.7 3.1.8 4.6.1 1.8-.9 2.3-3.1 2.9-5.1-.4 4.1.8 7.9 4.7 7.2s2.6-7.7 2.5-11.9c.6.1 1.3.2 1.9.2.2 3 1.5 5 2.6 7.1.6 1.1 1.3 2.2 2.1 3.1 1 1 2.4 1.5 3.5 2.4.7.6 1.3 1.3 1.9 2 .7.7 1.3 1.4 1.9 2.1.5.9.9 2 1.5 3 .4.5.8 1.1 1.1 1.7.5 1.7.9 3.5 1.1 5.3 2.7 12.5 4.9 25.4 7.7 37.6 2.4 10.3 4.4 21.5 8.5 30.4 1.4 3 2.8 6.3 4.7 8.3 1.1 1.1 2.6 1.8 4.2 1.7 1.4-.4 2.7-1.1 3.7-2.1 2.5-3 1.3-10.5.9-14.9-.6-6.6-1.3-12.9-2.5-19.2-3.4-18-7.5-36.4-11.6-53.2 2.7 2.3 5.6 4.3 8.6 6 3.1 1.8 6.9 2.3 9.8 5 2.4 2.3 4 5.6 6.3 8.5s4.6 5.5 8 6.8c.6.2 1.3.4 1.9.5 5 .5 6.4-2.4 6.7-6.7.1-2.5-.2-5-.9-7.4-.9-3.8-1.6-7.9-2-12.1zm-134.7-28c.7-.4 1.5-.7 2.2-.9-.5 2.1-1.2 4-1.6 6.3-.2-1.7-.2-3.7-.6-5.4zm9.5.3c-1.8-1.7.2-3.5 1.4-4.5.1 0 .1 0 .1.1-.3.7-.5 1.5-.7 2.2-.1.8-.1 1.8-.8 2.2zm10.2-3.6c-.2.5-.4 1-.6 1.6l-.9-2.7c.9-.7 1.1.6 1.5 1.1zm8.3 6.1c-.5-2-1.1-4-1.8-6 .4-1 1.3-1.7 2.4-2 .2.9.5 1.8.9 2.6-.8 1.7-1.3 3.6-1.5 5.4zm9.2 3.2c-.2-2.6-.7-5.2-1.4-7.7 1 2.2 2 4.5 1.4 7.7zm19 9.8c0-3.8.1-8.2-.6-11.6.1 0 .2.1.2.2.7.7.7 1.8.9 2.8.3.9.5 1.9.7 2.9 0 1.7-1.2 3.7-1.2 5.7zm9-9.1c-1.1-.2-2.2-.3-3.3-.3-1.3-5-2.1-10.5-8-11-.6-2.6-1.7-4.7-3.9-5.5-4.3-1.5-7.8 2.1-9.3 4.6-.8-.6-1.2-1.8-2.5-2.1-1.5-.3-3.1-.1-4.5.4-.6-1.6-1.3-3-2.8-3.6-2.8-1.1-5.9.8-7.5 2.1-1.4-1.7-3.6-2.4-5.7-1.8-1 .3-1.7 1.6-2.6 1.7s-1.8-1.5-2.7-1.7c-3.4-.8-5.3 2.3-7.1 3.6-1.9-1.1-5.1-.1-6.7.6-.7.4-1.5.8-2.2 1.1-.9.2-1.8-.1-2.6.2-2.4.9-3.1 3.3-4.3 5.5-.3-4.3.3-8.6 1.8-12.7 1.7-4.6 2.9-7.5 6.2-10.5 3.6-3.4 7.6-6.8 11.4-9.9 2.7-2.1 5.2-4.4 7.9-6.3 3-2 5.8-4.2 8.5-6.3h.2c5.2 8 11.3 14.3 18.5 20.9 3.3 3 7.3 5.7 10.8 9 2.3 2.2 5.1 4.7 7.4 7.4.8.8 1.6 1.6 2.2 2.6.5 1.9.7 3.8.7 5.7.2 2.2.1 4.4.1 6.3z" fill-rule="evenodd" clip-rule="evenodd" fill="#958961"/><path class="st2" d="M145.6 4.3c.7 4 1 8 1 12.1 1.2 1.6-.4 2.8-1.3 3.6-.1-.9 1.2-1.5 1.6-2.4-.7-.4-1 .6-1.6.7 0-4.8.2-9.4.3-14zm7.4 3.5c.9 3.2.8 7.4 1.3 11-.7.6-1.4 1.1-2.1 1.6.1-4.5.7-8.3.8-12.6zm-49.4.6c.5 3 1 7.2 1.5 10.8.2 1.2.7 2.8.4 3.6-.3 1-2.5 1.6-3.1 2.3.6-5.6.9-10.8 1.2-16.7zm-14.2.1c.8 6.3 1.6 13 2.5 19.5-.9.8-1.9 1.5-3 2 .3-6.9.4-14.2.5-21.5zm27.7.3c.5 3.3 1.1 7.7 1.6 11.4.3 2.2.9 4.3-.7 5.3.4.3.9-.8 1.2-.6.4 1.1-.8 1.8-1.5 2.3-.6.6-1.3 1.2-2 1.7.5-6.7.9-13.5 1.4-20.1zM96.6 9c.4 3.6.8 7.3 1 11.1-.3.4-.7.8-1.2 1-.1-4.1 0-8.2.2-12.1zm64.2.1c1.1 8.7 1.9 17.8 2.9 26.7h-4.9c1.2-8.3.9-18.2 2-26.7zm-23.3.3c1.1 5.5 1.9 11 2.5 16.6-1.5.4-2.6 1.4-3.9 2 .5-6 .9-12.3 1.4-18.6zm-53.8.8c.4 2.5.6 6.2 1 9.1-.4.6-1 1-1.7 1.2.1-3.5.4-6.9.7-10.3zm46.6 0c.4 1.8.5 3.9.9 5.8-.2.5-.8.7-1.3 1 0-2.3.2-4.6.4-6.8zm-20.4.2c.4 1.8.7 4.8 1 7.1.2.7.3 1.5.3 2.2-.2.7-1.2.8-1.7 1.2.1-3.5.2-7 .4-10.5zm-32.8.7c.6 3.6.8 7.7 1.2 11.5-.5.5-1.2 1-1.9 1.2.3-4.2.4-8.6.7-12.7zm-6.7 0c.1 1.8 2.6 8.2.2 8.7 0-2.9-.2-5.7-.2-8.7zm53.3 1c.6 4 1 8.2 1.6 12.2-.8.4-1.8 1.2-2.4 1.5 0-4.7.6-9.1.8-13.7zm44.9 1.3c.1 7.2-.3 15.7.5 22.6-1-.1-2-.2-3-.1 1.3-7 1.7-14.9 2.5-22.5zm-37.1 5.1c-.4.7-1.2.9-1.6 1.6-.3-.5 0-1.5-.1-2.1.4-.4.9-.6 1.2-1 .6.1.3 1.1.5 1.5zm15.5.5c1.2 2-1.3 3.1-2 3.8.1-.6.1-1.3.1-1.9.7-.6 1.3-1.3 1.9-1.9zm-15.5.6c.4.1.1.8.3 1.1-.7.5-1.3 1-1.9 1.7-.5-1.6 1-2.1 1.6-2.8zm-59.7.1c.9 1.4-.3 2.2-1 2.9-.5-1.3.4-2.2 1-2.9zm82.6 0c.1 0 .1.1.1.2-.6.9-1.4 1.6-2.3 2.1.3-1.2 1.6-1.3 2.2-2.3zm-69.8.7c.4 0 .1.6.3.8-.6.4-1.3.9-1.9 1.2-.2-1.3 1.1-1.3 1.6-2zm13 .8c.2.4.3.9.2 1.3-.5.5-1 1-1.6 1.3-.1-1 .4-2 1.4-2.6zm14 1.2c-.6.5-1.4.9-2 1.5-.3-.3 0-1-.1-1.5.6-.4 1.3-.8 1.8-1.2.4.1.1.9.3 1.2zm42.9-1c.2.3.3.7.2 1-1 .5-1.6 1.4-2.6 1.9.1-1.6 1.6-1.9 2.4-2.9zm-22.5.1c.6 2-1.5 2.5-2.1 3.2-.5-1.4.9-2.6 2.1-3.2zm15.2.3c.7 1.8-1.7 2.9-2.4 3.7-.3-2.4 1.6-2.6 2.4-3.7zm-74.9.4c.4 1.2-1 1.5-1.4 2.2-.4-1.1 1-1.5 1.4-2.2zm12.6.3c.4 1.7.4 3.8.7 5.5-.7.8-1.9 1.1-2.7 1.8-.3-1.8.2-3.9.1-5.9.7-.5 1.3-.8 1.9-1.4zm-6.4 1.9c-.8.6-1.5 1.2-2.1 1.9-.2-.3.6-1-.1-1.3.6-.4 2.4-2.8 2.2-.6zm76.1-1.1c1 1.7-1.8 2.2-2.5 3.4-.4-2 1.8-2.2 2.5-3.4zm-43.1.1c.4 0 .2.5.3.7-.8.4-1.6.9-2.2 1.5-.4-1.3 1.3-1.4 1.9-2.2zm-13.7.3c.3.2 0 .9.1 1.2-.6.4-1.1.8-1.6 1.3-.5-1.4.9-1.9 1.5-2.5zm34.4 0c.3 1.9-1.7 2.2-2.4 3.5-.4-2 1.4-2.6 2.4-3.5zm-59.7.4c1.2 1.3-.8 2-1.3 2.9-.9-1.5.7-2 1.3-2.9zm33.4 1c-1.2.9-2.3 1.8-3.6 2.6 0-2.2 2.4-2.1 3.3-3.5.3-.1.1.5.3.9zm41.5-1c.5 0 .1.9.2 1.2-1.2.8-2 2.1-3.3 2.9.2-2.2 2.2-2.7 3.1-4.1zm-34 11.9c-1.6-.1-2.8.2-4.4.1-.4-1.8.2-4.7.3-7.1-.1-.7-.1-1.4 0-2.1.4-1.1 1.9-1 2.4-1.8.8 3.4 1.1 7.3 1.7 10.9zm-3.6-7.5c.3-.1.8-.1.7-.7-.5 0-.8.2-.7.7zm15.3-3.4c.5 1.2-1.8 2-2.2 2.6.2-1.4 1.7-1.5 2.2-2.6zm29.8.2c.8 1.2-.7 1.8-1.6 2.5s-1.2 1.2-1.7 1.6c-.2-2.3 2.4-2.7 3.3-4.1zm-76.4.2c.4-.1.1.5.2.8-.7.5-1.4 1-2.1 1.6-.3 0 .1-.6-.3-.4.7-.9 1.6-1.3 2.2-2zm53.8.3c.7 1.4-2.1 3-2.6 3.6.2-1.9 1.8-2.3 2.6-3.6zm-34.2.4c-.2.9-1.3 1.1-1.8 1.8-.4-1 1.4-1.9 1.8-1.8zm7.8 0c.4.2.1 1.2.3 1.6-1.3 1.2-2.8 2.1-4 3.2-.3-.6.1-1.4 0-2.1 1.3-.8 2.5-1.7 3.7-2.7zm19.5 0c.2.2.1.6.2.9-1.1.6-1.7 1.7-2.8 2.3.4-1.5 1.9-1.9 2.6-3.2zm-52.4.4c1 1.3-1.2 2-1.7 3-.2-.5-.3-1-.2-1.4.7-.5 1.3-1.1 1.9-1.6zm46.3.1c.5-.1 0 .8.3.8-1.4 1.1-2.9 2.6-4 3.5.1-1.9 2.8-2.9 3.7-4.3zm20.5.1c.4.1.2 1 .3 1.3-1.4 1.1-2.8 2.2-4.4 3.1.2-.4.1-1.1.1-1.7 1.3-.9 2.9-1.6 4-2.7zm15.5.7c.5 2.7.8 5.6 1.3 8.3-1.9 0-3.9 0-5.7.1.4-1.7-.1-3.3.3-4.6.4-1.1 3.4-2.9 4.1-3.8zm-57.2.2c.3.1 0 .6.1.9-.8.5-1.3 1.3-2.1 1.7 0-1.6 1.4-1.7 2-2.6zm34.4.2c.1 0 .1.1.1.2-.9 1.2-1.9 2.3-3 3.2.5-1.6 2.1-2.1 2.9-3.4zm-5.8 7.7H123c-.5-1.4-.2-3-.2-4.8.8-1 1.9-1.8 2.7-2.8.7 2.3.7 5.2 1.2 7.6zm21.3-7.2c.7.8-1.1 2-1.9 2.8s-1.5 1.7-2.1 2V32c1.3-1.2 2.7-2.4 4-3.6zm-74.3.5c-.6.9-1.7 1.5-2.2 2.5-.2-1.3 1.6-2 2.2-2.5zm18.2 0c.4.3.3 1.2.4 1.7-1.3.9-2.4 2-3.7 2.9 0-2.6 2.1-3.2 3.3-4.6zm-12.7.2c-.2 1.6-1.8 1.9-2.7 2.9-.4-.2-.4-.8-.3-1.3 1.3.1 1.8-1.4 3-1.6zm27.2 0c.1 1.1-1.5 1.9-2.2 2.5-.7.6-1.5 1.2-2.4 1.8.2-.2.1-.7.1-1 1.6-1.2 2.9-2.4 4.5-3.3zm-20.9.2c1.2 2.2-2 2.5-2.8 3.7-.3-.6.1-1.3 0-2 1-.5 1.9-1.1 2.8-1.7zm54.8.1c.4 2 .8 4.6 1 6.5-1.7-.3-3.8 0-5.6-.1-.1-1.2.1-2.2.1-3.3 1.5-1 3-2 4.5-3.1zm-41.9.2c1 1.9-1.5 2.4-2.1 3.6-.3-.3 0-1.1-.1-1.7.7-.6 1.5-1.2 2.2-1.9zm34.5.1c0 1-1 1.4-1.6 1.9-.5.6-1.1 1.2-1.8 1.7.6-1.6 2.2-2.4 3.1-3.7.2 0 .2 0 .3.1zm-13 .7c.1 0 .1.1.1.2-1.6 1.7-3.3 3.2-4.9 4.9.3-1.1 1.4-1.8 2.1-2.6s1.8-1.6 2.7-2.5zm28.5.1c-.1 1.4-1.4 2-2.1 2.8-.7.9-1.5 1.8-2.3 2.6v-1.3c1.4-1.4 2.9-3.2 4.4-4.1zm-74.6 0c.2 0 0 .3.2.3-.8 1-1.7 1.8-2.7 2.6.2-1.6 1.9-1.8 2.5-2.9zm2.5 3.6c-.3-.1 0-.6-.1-.9 1-.7 2-1.5 2.9-2.4 1.1 1.1-2.3 2.3-2.8 3.3zm30.2-3.3c.2.3.2.7.2 1.1-1.8 1.2-3.3 2.6-5.1 3.7-.1-.5.2-.6.1-1.1 1.7-1.2 3.2-2.4 4.8-3.7zm26.6.8c-.9 1.6-2.5 2.5-3.5 4-.3-.2 0-.9-.1-1.3 1.4-.6 2.4-2.2 3.6-2.7zm-40.6.1c.6 1.6-.8 2.2-1.8 3-.7.6-1.4 1.1-2.2 1.5v-1.6c1.5-.8 2.5-2.1 4-2.9zm-6.7.1c.3.1 0 .8.1 1.1-1.1.9-2.4 1.6-3.5 2.5-.3-.3.1-.8 0-1.4 1.1-.7 2.4-1.4 3.4-2.2zm34.3 0c.6 1.1-.3 1.6-1.1 2.5s-1.4 1.8-2.9 1.6c1.2-1.5 2.5-2.8 4-4.1zm-21.4.4c.1 1.5-1.9 1.9-2.6 2.9-.1-1.4 2-1.9 2.6-2.9zm-24.8.1c.9 1.9-1.9 2.7-2.6 3.8-.2-2.4 1.9-2.4 2.6-3.8zm72.9 3.6h-1.5c1-1.1 2.2-2.2 3.1-3.4 1.1 1.5-1.3 2.2-1.6 3.4zm-67.3-3.2c-.6 1.3-2.4 2.2-3.3 2.9-.2-.8.9-1.1 1.5-1.6.6-.4 1.2-.9 1.8-1.3zm27.3.1c.2.4.3.8.2 1.2-1.6.7-2.3 2.3-4.7 2.1 1.4-1 3-2.1 4.5-3.3zm26.2.3c.5 0 .1.8.2 1.1-1 .3-1.4 1.3-2.5 1.5.7-1 1.5-1.8 2.3-2.6zm-46.8 1c-.4 1-1.7 1.1-2.2 2h-1c.9-.8 2-1.5 3.2-2zm34.1 0c.4.2.2 1 .2 1.6-.6 0-1.2 0-1.8.1.5-.7 1.2-1.1 1.6-1.7zm-40.8.1c.4.4.4 1.3.7 1.9h-2.9c.7-.7 1.6-1.2 2.2-1.9zm13.2.2c.5.2 0 1.4.4 1.7-.8.1-1.6.2-2.5.1.6-.7 1.5-1.1 2.1-1.8zm56.1 0c.2.5.3 1 .2 1.4h-1.5c.3-.5.9-.9 1.3-1.4zm-74.5.1c.4.2.3 1 .3 1.6h-1.9c.4-.7 1.2-.9 1.6-1.6zm58.8.2c.2.2.1.7.2.9h-.9c.2-.3.6-.4.7-.9zm-26.1.2c.2.4.3.9.2 1.3h-1.8c.4-.6 1.2-.8 1.6-1.3zm-20.8.2c.2.2 0 .8.2 1h-1.1c.2-.4.6-.6.9-1zm12.7.3c.3.3.1.4.2.8h-1c.3-.2.6-.5.8-.8zm-28.2 3.4h.8c0 .6-.2 1.1-.7 1.4-.1.4.4.4.6.6-.4 2 .2 4.4-.9 5.6 0 .5.6-.1.7.2-.5 1.6.3 4.2-.4 5.7.4.7.5 1.6.1 2.4.5.7.5 1.5.1 2.3-.7-6-1.1-12.3-.3-18.2zm2 .1H74c.1 1.1-.9 1.2-1.2 1.8-.2-.4 0-1.2-.1-1.8zm6.2 0c-1 .9-2 1.8-3.1 2.5.3-1.5 1.5-2.3 3.1-2.5zm89.7 1.6c.4.4-.6 1.4-.8 1.9-.3-.8.7-1.2.8-1.9zm-95.7 3.4c-.3-.1 0-.7-.1-1 .4-.2.7-.5 1-.8.8.8-.6 1.4-.9 1.8zm95.8-1.4c.3.9-.6 1.5-.8 2.2-.4-1 .6-1.5.8-2.2zm-46.7.2c-.6.6-1 1.6-2.2 1.2.5-.6.9-1.3 2.2-1.2zm3 0c-.8.7-1.2 1.8-2.9 1.6.7-.8 1.1-1.9 2.9-1.6zm3.6 0c-1.3.5-2.1 2.5-3.7 2 .9-1 1.4-2.4 3.7-2zm9.6 0c-1.3 1.5-3.2 2.5-4.4 4.1-.3.1-.8-.1-.9.1-.3-.4.4-.9.7-1.1 1.2-1 2.2-2 3.3-3.1h1.3zm2.6 0c-1.2 1.6-2.9 2.6-4.3 4-.4-.1-.6.2-1 .1-.2-.4.5-.7.8-1 1-.9 2.3-2.2 3.4-3.1h1.1zm2.4 0c-1.1 1.5-2.9 2.3-3.9 3.9-.4 0-.5.2-.9.1 1.3-1.4 2.7-2.6 3.9-4h.9zm2.2 0c-1.4 1.3-2.5 3-4.5 3.8-.2-.4.4-.6.7-.9.9-.9 2-2.1 2.9-2.9h.9zm2.4 0c-1 1.4-2.4 2.6-4 3.4-.1-.5.8-1 1.4-1.6s1.1-1.3 1.6-1.8h1zm2.5 0c-1.1 1.2-1.9 2.8-4.1 2.9 1.5-.9 1.5-3.2 4.1-2.9zm2.4.1c-.9 1-1.9 1.9-2.8 2.9-.4 0-.5-.3-1-.2 1.3-.8 1.4-2.9 3.8-2.7zm-33.7.1c-.8.9-1.9 1.4-3 1.5.5-1.2 1.7-1.8 3-1.5zm-38.2.7c.1 0 .1.1.1.1.1 3.8 0 8.9-.2 13.2 0 .9.3 2.3-.3 3 .1-5.7-.3-10.8 0-16.2.2.1.2-.1.4-.1zm-3.5.5c-.3.7-.9 1.3-1.6 1.6.1-.9.8-1.5 1.6-1.6zm4.9 15.4c.1-5.1-.1-10.5.1-15.5.1 0 .2 0 .2.1 2 .5 3.9 1.3 5.6 2.5 1.2.9 3.7 2.8 3.7 4.4 0 .9-1.4 2.2-2.1 3-2.1 2.3-4.6 4.2-7.5 5.5zm4.6-7.1c.6.2 1.2.1 1.7-.3 0-.5 0-1-.1-1.4-1.2-.9-2.3.7-1.6 1.7zm-13.9-6.2c-.3-.1 0-.7-.1-1 .3-.3.7-.5 1-.8.8.8-.6 1.3-.9 1.8zm95.8-1.3c.2.9-.2 1.7-.9 2.2 0-1 .6-1.4.9-2.2zm-91.3.7c.3.1 0 .6.1.9-.7.3-1.1.9-1.8 1.2 0-1.3 1.3-1.2 1.7-2.1zm-4.5 2.8c-.5-1 .6-1.3.9-1.8.8.8-.6 1.3-.9 1.8zm54.5 2.6c-.1.5-.3-.6-.9-.3 1 2 0 6.4-1.8 7.8-.7.4-1.4.7-2.1 1-.7.4-1.4.7-2.1 1-2.9.6-5.1-.8-6.8-1.9-.2-.9-.4-2-1.5-2-.3-2.7.2-5.4 1.5-7.8 3.3-2.9 11.6-2.8 13.7 1.1-.2.4-.1.7 0 1.1zm-3.9 5.8c.6-1 .4-2.2.4-3.9-1.1-1.8-2.6-3.1-5.3-2.8-2.3.3-2.7 2.8-3.9 3.3.4.1.5-.3.9-.2-1.5 5.3 5.8 7.4 7.9 3.6zm45.2-9.3c.6 1-.5 1.8-.7 2.8-.4-1.1.4-2 .7-2.8zm-91.4.2c.1 0 .1.2.1.3-.3.7-1.1.9-1.6 1.6-.3-1 1.1-1.2 1.5-1.9zm-3 .8c.1 1.1-.9 1.1-1.3 1.7-.3-.8.8-1.2 1.3-1.7zm3 .9c.6 1.8-.9 2.3-1.6 3.1-.4-1.4.9-2.3 1.6-3.1zm-3.1.9c.4 1-.8 1.6-1.3 2-.3-1.2.8-1.4 1.3-2zm94.6.4c.3.9-.6 1.4-.8 2.1-.2-.8.7-1.3.8-2.1zm-94.4 1.5c1.2 1.2-.8 2.1-1.6 2.7-.3-1.7 1-1.8 1.6-2.7zm2.8.2c.3.2 0 .8.1 1.1-.6.3-1 1-1.7 1.2.1-.4-.1-.5-.1-.8.5-.4 1.2-.8 1.7-1.5z"/><path class="st2" d="M121.3 53.3c.1 1.5-.1 2.7-1 3.1-1 .3-2.1-.2-2.6-1.2 0-.8-.1-1.8.2-2.3 1.2.1 2.3.3 3.4.4zm47.5-.2c.3 1.1.1 2.3-.5 3.3-.7-1.3.1-2.7.5-3.3zm-39.9 0c.8 2 1.1 4.1.8 6.2-.5 1.3-1.3 2.5-2.4 3.5-2.2 2.2-7.1 4.5-11.8 3.3-1-.3-1.8-.9-2.5-1.7 6.1 2 12.8.4 14.8-4.4 1.1-2.2 1.4-4.6 1.1-6.9zm-53.8 1.3c.7 1.4-1.5 1.7-1.9 2.7-.7-1.4 1.3-1.9 1.9-2.7zm2.1.4c.3.1 0 .6.1.9-1.5 1-2.7 2.3-4.1 3.4-.4-1.1.9-1.6 1.8-2.4.7-.6 1.5-1.2 2.2-1.9zm33.6 1.8c.3.3.2.9.6 1.1-.1.3-.5.4-.7.8-.4-.5-.4-1.6.1-1.9zm-33.6.3c.1 0 .1.1.1.2-1.2 1.4-2.5 2.6-4 3.7.1-1 1.1-1.6 1.8-2.1s1.4-1.1 2.1-1.8zm91.7 0c.3 1 .1 2.1-.5 2.9-.7-1.1.2-2.1.5-2.9zm-98.1.6c.1.1.3.2.3 0 .1 1.5.6 3.8.3 5.3-.3-1.8-.5-3.5-.6-5.3zm78.7.6c-2.3 1.8-3.9 4.3-6.6 5.6.8-1.1 1.7-2.1 2.8-2.9 1-1 2.4-2.4 3.8-2.7zm2.6 2.4c-1.5.9-2 2.9-4.4 3.1-.1-.3.4-.7.7-1 1.1-1 2.1-2.2 2.8-3.6-1.3 0-1.9 1.3-2.7 2.1s-1.8 1.7-2.6 2.5h-1c2-1.9 4-3.6 5.8-5.6 1 .4.6 2.1 1.4 2.5zm-5.2-2.3c.2.5-.8.9-1.4 1.3-1.5 1.3-3.2 3.1-5 4 1.2-1.4 2.4-2.7 3.8-3.8.7-.8 1.6-1.3 2.6-1.5zm-2.4.1c-2 1.6-3.8 3.4-5.7 5.1h-.9c-.2-.3.5-.9.9-1.2l4.3-3.9h1.4zm-3 .1c-2 1.6-3.6 3.7-5.8 5.2 1.3-1.8 2.8-3.5 4.3-5.2h1.5zm-29.8.2c.9.3.6 1.1-.2 1.4-.1-.4-.4-.5-.4-1 .3 0 .4-.3.6-.4zm-38.2 4c-.1-1 1-1.4 1.7-2 .7-.6 1.4-1.2 2-1.9.1 0 .2 0 .2.1.1 1-1.3 1.6-2 2.2s-1.3 1.5-1.9 1.6zm40.1-2.3c-.1.4-.7.5-.9.9-.2-.1-.4-.2-.4-.6.5-.1.7-.9 1.3-.3zm55.3-.1c.3.8.1 1.7-.5 2.4-.3-.9-.1-1.8.5-2.4zm-91.5.2c.6 2.4-2.5 3.3-3.7 4.9-.7-1.7.4-2.1 1.6-3 .7-.6 1.4-1.2 2.1-1.9zm17.9.1c-.3.6-1.5 1-.9 1.8-.3.3-.8 0-1.1 0 .8-.5 1-1.5 2-1.8zm2.4.1c-.8.7-1.1 1.9-2.7 1.8.9-.5 1.2-2.2 2.7-1.8zm1.9.5c-.7.5-.9 1.6-2.2 1.4.6-.5 1.1-2 2.2-1.4zm15.8.1c-.4.5-1 1.1-1.7.7.4-.6.9-1.2 1.7-.7zm37.2 0c.2.2.5.3.6.7-1.1.5-1.7 1.4-2.9 1.8.6-1 1.6-1.6 2.3-2.5zm-51.1.3c-.5.5-.9 1.6-2 1.1.5-.4.9-1.5 2-1.1zm2.7.1l-1.2 1.5c-.5 0-1-.2-1.5-.2.5-1 1.6-1.5 2.7-1.3z"/><path class="st2" d="M117.2 61.7c-.3.6-.9.9-1.6.8.4-.4.8-1 1.6-.8zm2.1.2c-.4.4-.6.9-1.5.9.5-.4.6-1 1.5-.9zm36.2 1.3c-.9.2-1.9.2-2.8.2.8-1.1 1.7-1 2.8-.2zm-78-.2c.4.6.8 1.1 1.4 1.6 4.9.8 11.1.5 17.1.8 2.4.1 5.2 0 6.5.7s1.7 2.7 1.9 4.1c-9.3 0-21.1.6-30.4-.3-.4-2.5 2.9-3.2 3.7-5.2-1.5.8-2.8 2.4-3.9 3.1-.7-1.4.5-2 1.6-2.9.8-.6 1.5-1.2 2.1-1.9zm91.4 0c.5.8-.2 1.5-.4 2-.4-.8.3-1.4.4-2zm-97.4.3c.6.6.3 2.2.6 3.3-.4-1.1-.5-2.2-.6-3.3zm97.4 2.4c.5 1.2-.3 3-.9 3.8-.1-1.4.2-2.7.9-3.8zM113 68.5c.1.1.2.1.2.2-.4 1.3-1.5 1.9-2 3-.3-1.6 1.3-2.1 1.8-3.2zm52.1 3c-.5 2.6-4 2.2-7 2.2.3-.7.9-1.2 1.2-1.8 1.6-.5 3.9-.3 5.8-.4zm-6.6.2c-.8.8-1 2.2-2.6 2.1.9-.7 1.1-2 2.6-2.1zm-4.7.1c-.6.7-1 1.7-2.1 1.9.7-.6.8-1.8 2.1-1.9zm2.5 0c-.9.6-1 2.1-2.7 1.9.9-.6.8-2.2 2.7-1.9zm-80.9.3c.3-.3 1.1 0 1.6-.1-.1.4-.4.7-.8.8-.3-.3-.5-.5-.8-.7zm3.7-.2c-.3.5-.4 1.1-1.3 1 0-.7.4-1.1 1.3-1zm1.3 0c.3.1.6.1.9.1-.5.4-.6 1.2-1.6 1.1.2-.4.4-.8.7-1.2zm32.8 0c.6 1.9-1.1 2.4-1.7 3.6-.6-1.8 1.1-2.4 1.7-3.6zm37.1 0h1.8c-1.1.6-1.6 1.8-3.1 1.9.2-.7 1.3-.8 1.3-1.9zm-60.7.2c-.3.4-.6.9-.9 1.2h-1.4c.3-1 1.3-1.5 2.3-1.2 0-.1 0 0 0 0zm2.3 0c-.4.6-.6 1.4-1.8 1.2.4-.6.5-1.5 1.8-1.2zm1 0c.5.1 1 .1 1.6.1-.3.4-.6.7-.9 1.1h-1.3c.1-.4.6-.6.6-1.2zm50.3 0c-.9.5-1.2 1.5-2.5 1.6.7-.7 1.1-1.6 2.5-1.6zm-46.6.1c-.1.5-.5.7-.6 1.1h-1.2c.2-.7.6-1.4 1.8-1.1zm1.3 0h.9c.2.4.5.7.8 1-.5.3-1.2.1-1.5-.4-.1-.2-.2-.4-.2-.6zm2.4.1c.4-.3 1.2 0 1.8-.1.2.3.4.6.7.9-.8.5-1.9.2-2.4-.6-.1-.1-.1-.2-.1-.2zm3.2-.1c1.2-.2 1.5.5 2 .9-.3.3-1 0-1.5.1 0-.4-.5-.5-.5-1zm36.1.1c.3-.3 1 0 1.5-.1-.8.5-1.2 1.3-2.2 1.5-.4-.6 1-.9.7-1.4zM77 74h.4c0 .2-.1.3-.1.4-.2-.1-.4-.1-.3-.4zm2.4.2c.2.3-.1.8-.7.7.1-.5.2-.8.7-.7zm2 .2c-.1.3-.2.7-.8.6 0-.5.4-.6.8-.6zm1.7 0c0 .4-.3.5-.4.7-.3-.2 0-.8.4-.7zm1.8.1c0 .3-.2.4-.2.6h-.8c.1-.4.4-.7 1-.6zm2.7.1c-.2.6-.9.6-1.7.6.1-.7 1-.6 1.7-.6zm2.1 0c-.3.3-.4.8-1.1.7.1-.5.6-.8 1.1-.7zm2.5 0c-.1.3-.5.3-.4.7h-1c.1-.5.6-.8 1.4-.7zm2.7 0c-.1.7-.9.7-1.8.7.2-.6.9-.8 1.8-.7zm18.4 0c.3 1.4-1.4 1.9-1.7 3.1-.3-1.4 1.1-2.1 1.7-3.1zm0 2c.5 1.8-1.2 2.4-1.7 3.6-.3-1.5 1.2-2.3 1.7-3.6zm0 2.2c.8 1.7-1.3 2.4-1.7 3.7-.4-1.8 1.2-2.4 1.7-3.7zm.1 2.3c.6 1.9-1.3 2.3-1.8 3.6-.4-1.6 1.3-2.3 1.8-3.6zm0 2.7c.1 1 .2 2 .1 3-.6.7-1.5 1.1-1.9 2-.5-1.7 2.3-2.2 1.6-3.8-.7.3-1 1.1-1.6 1.7-.2-1.3 1.3-1.9 1.8-2.9zm0 3.8c.3.7-.1 1.6 0 2.5-1 .2-1.5 1.4-2.1 1.6-.2-2.2 1.4-2.6 2.1-4.1zm-.5 3.5c.2 1.7-1.1 2.8-2.3 3.5.2-1.8 1.5-2.5 2.3-3.5zm18.5 1.5c.3 3.4-.3 6.9-1.6 10.1-.4-1.3-.3-2.9-.8-4 1-2 1.8-4 2.4-6.1zm-3.2 7.6c.4 1.8 1.2 4.9.1 6.4-.2-1.6-.6-3.2-1-4.8.1-.7.7-1 .9-1.6zm-1.9 2.6c.4 1.6 1.6 5.4-.3 6.2.1-2.1-.9-5 .3-6.2zm5.9 2.9c.1 0 .1.1.1.1 2.9 6.1 5.8 11.6 10.1 16.4 4.2 4.5 8.9 8.6 13.3 13 2.1 2.2 4.3 4.5 6.4 6.8 4.2 4.6 8.6 8.9 12.1 14.3.8 1.4 1.6 2.9 2.2 4.4.7 1.4 1.7 2.9 2.2 4.3.4 1 .5 2.2.8 3.4.8 3 1.9 6.2 2.8 9.4 1 3.8 2.2 7.5 3.3 11.1.1.3-.1.7 0 1s.4.3.4.6c.9 3.2 1.4 6.6 2.1 10s1.5 6.5 2.2 9.7c1.5 6.5 3.4 12.9 4.8 19.2.7 3.3 1.1 6.8 1.8 10.2 1.4 6.7 2.4 13 3.3 20.7.2 1.7.5 3.5.8 5.3.4 1.7.7 3.5.7 5.3-.2 1.4-1.3 2.1-1.8 3.5-.4 0-.9-.4-1.1-.7-2.5-2.5-3.9-6.4-5.1-10.4-1.4-4.5-2.8-9.4-3.8-14-1.9-8.7-3.1-17.5-5.3-25.9-.3-1-1.1-2.1-.7-3.3-.7-.7-.9-1.8-.5-2.8-.1-.2-.7.2-.6-.5-2.2-9.3-4.4-19.4-6.7-28.9-.6-2.4-1.4-4.5-2.1-6.8-.2-.6-.1-1.7-1-1.9.4 3.1 1 6.2 1.8 9.2.6 2.9 1.5 5.9 2.1 9 .9 4.4 1.9 9.1 3 13.7.3 1.3 1.1 3.5 1 4.5s-1.1 1.6-1.6 2.5c-3.8-17.6-6.4-36-13.9-50.1-2.5-4.7-4.6-9.5-8.4-12.9.7-1 1.6-1.8 2.2-2.9 5.8 5.6 8.8 14.6 12.5 21.8.6-.8 0-1.9-.2-2.6-.8-2.5-1.5-5.2-2.5-7.6-1.4-3-3-5.9-4.8-8.6-3.3-5.5-7.6-10.3-12.8-14.1-2.6-2-5.3-3.7-8-5.6s-5.3-3.6-7.7-5.7c-5-4.2-8.6-9.1-12.3-14.6 2.2-1.9 4.6-3.6 6.6-5.7 2.8 9.3 9.5 14.6 15.8 20.5 5.5 4.9 11 10.1 16.7 15 .8.6 1.5 1.3 2 2.2.9-1.2-.7-2.1-1.2-2.7-2.1-2.3-4.4-4.8-6.7-6.9-3.1-2.9-6.6-5.6-9.6-8.6s-6.4-5.7-9.3-9c-3-3.3-5.3-7.2-6.8-11.4.5-1.2 1-2 1.4-2.9zm34.9 45.8c.1 0 .2 0 .2.1 1 .1 1.3-1.2.7-1.7-1.1-.3-1.1.9-.9 1.6zm1.6 2.2c1.4.5 1.7-.8 1.9-1.8-.8-1.7-2.9.4-1.9 1.8zm7.3 10.7c.9 2 1.7 3.9 2.5 5.9 1.5 4.4 2.6 9 3.3 13.6 5.1 25.2 12 50 16.8 75.8.5 2.9 1.5 5.9 1.2 8.5 1-1 .6-2.5.5-3.7-.1-1.3-.2-2.5-.4-3.8-1.1-7.3-2.6-14.6-4.1-21.6-4.2-18.7-9-36.8-12.8-55.8-1-4.8-1.8-9.4-3.6-13.5-1.6-4-3.6-7.8-5.9-11.3-.1 0-.2-.1-.3-.1.9 2 1.9 4 2.8 6zm-53.7-57.7c.3 1 0 3.4.1 5-.4.5-.9.9-1.4 1.1.1-1.6-.2-3-.1-4.7.3-.6 1.1-.8 1.4-1.4zm-4.2 8.3c0-1.5 0-3-.1-4.5.5-.6 1.2-1 1.7-1.6.1 1.1.5 3.4.1 4.7-.3.9-1.3 1.1-1.7 1.4zm-1.3 1c-.5.5-1.2.9-1.8 1.5-.1-1.4-.2-2.8-.1-4.3.4-.7 1.3-1 1.7-1.7.5 1 .1 3 .2 4.5zm-3.2-1.8c0 1.5.5 3.2 0 4.3s-2.5 1.5-3.1 2.2c.3-1.4.5-2.9.6-4.4.8-.7 1.7-1.4 2.5-2.1zm-3.9 3.2c.4 1.2-.5 2.8-.5 4.4-.7.3-1 .9-1.8 1.1.3-1.3.5-2.6.6-3.9.6-.5 1.2-1 1.7-1.6zm12.9.7c.6.7-.6 1.4-.6 2.2-.5-.6.4-1.6.6-2.2zm.9 1.3c.3.7-.5 1.3-.4 2.1-.7-.6.3-1.4.4-2.1zm-16.7.5c.3 1.2-.6 2.7-.3 3.9-.4.1-.7.4-.9.7.3-1.2 0-3.9 1.2-4.6zm17.4.7c.3 0 .2.5.4.6-.3.6-.5 1.2-.7 1.8-.2 0-.2-.3-.5-.3.3-.8.6-1.5.8-2.1zm-19.2.9c-.4 1-.1 2.7-.9 3.4 0 .3.4.1.6.1-.3.5-.7.9-1.2 1.1.1-1.2.3-2.4.3-3.7.3-.3.6-.9 1.2-.9zm20.1.6c.3 0 .3.3.4.4-.2.5-.4 1.1-.6 1.7-.8-.5.2-1.5.2-2.1zm-22.6 1.1c0 1.5-.1 3.8-1.1 4.6-.1-1.5-.2-4 1.1-4.6zm23.6.3c.4 0 .3.3.4.4-.2.5-.4.9-.6 1.5-.3-.3.2-1.3.2-1.9zm1.1 1.2c.3.1.4.4.6.7-.1.5-.4.8-.4 1.3-1-.3-.5-1.3-.2-2zm-26.9.6c-.1 1.2.3 3.8-1 4.1.4-1.2-.1-3.5 1-4.1z"/><path class="st2" d="M128.4 126.2c.7.4.1 1.2-.1 1.7-.2 0-.2-.3-.5-.3.2-.5.4-1 .6-1.4zm-29.9.9c0 1.5-.1 4-1.7 4.4.3-1.8.4-3.8 1.7-4.4zm31 .3c.2.2.5.3.6.7-.2.3-.4.7-.4 1.1-.4 0-.5-.3-.7-.6.1-.4.3-.8.5-1.2zm1.1 1.1c.2.1.3.2.4.2-.2.5-.3 1.1-.8 1.4-.2-.6.4-1 .4-1.6zm.9.8c.2.1.4.4.7.4-.4.3-.7.7-.9 1.2-.7-.2.2-1 .2-1.6zm-35.5.2c0 1.4-.4 3.4-1.7 3.9.1-1.7.5-3.2 1.7-3.9zm36.4.6c1.1.5.1 1.1-.1 1.9-.8-.5.4-1 .1-1.9zm1 .9c.5.3.9.8 1.4 1.1-.2.5-.4 1.1-.6 1.7-.5-.3-1-.7-1.2-1.2.3-.5.4-1.1.4-1.6zm-40 .7c.2 1.9-.9 4.1-2.1 4.6-.1-1.1.1-1.9.1-2.9.7-.6 1.4-1.1 2-1.7zm42 1c1.4.5.7 1.4.1 2.4-.4-.1-.7-.4-.8-.8.3-.6.6-1.1.7-1.6zm1.6 1.2c.3.2.6.5.9.7-.3.7-.7 1.1-1 1.8-.4-.1-.6-.4-.8-.7.2-.8.7-1.1.9-1.8zm1.6 1.2c.4.1.5.4.9.6-.3.8-.9 1.2-1.1 2-.4-.2-.8-.3-.9-.8.4-.5.8-1.1 1.1-1.8zm1.8 1.3c2.3 1.7 4.7 3.4 7.2 4.9-.7.8-1.2 1.6-1.7 2.6-2.4-1.6-4.5-3.4-6.7-5.3.2-.8.6-1.6 1.2-2.2zm7.8 5.3c.3.2.7.5 1 .7-1 .6-1.5 2.1-2.6 2.2.1-.9 1.2-1.9 1.6-2.9zm1.6 1.4c.7.1.9.7 1.5.9-.7.9-1.6 1.6-2.3 2.6-.4-.2-.7-.5-1-.8.5-1.1 1.3-1.7 1.8-2.7zm2 1.5c.5.1.6.7 1.1.8-.8.9-1.7 1.7-2.5 2.6-1.5-1 1-2.2 1.4-3.4zm1.7 1.5c.7.3.9 1 1.6 1.2-.8.9-1.7 1.6-2.5 2.6-.5-.2-.8-.7-1.2-.9.5-1.1 1.5-1.8 2.1-2.9zm2.2 2c.5.1.6.6 1 .8-.7 1.1-1.8 1.7-2.5 2.8-.4-.2-.6-.7-1-.9.8-.9 1.6-1.8 2.5-2.7zm1.6 1.6c.6.3.9.9 1.3 1.4-.6 1.1-1.5 2.1-2.5 2.9-.3-.6-1-.9-1.2-1.6.9-.9 1.7-1.8 2.4-2.7zm-33.5 33.5c3.2 1.5 3.9-2.9 4.1-5.8.3 3.2-.2 8.2-4.1 7.3-2.6-.6-2.3-4.5-2.5-8.2-.2-5 .4-11.3 2-13.8 1.3 2 0 4.3-.1 7.1-.2 4-.7 9.3 1 11.6 2.9-.6 1.9-5.6 1.6-9.5-.3-4.3-.8-8.8-2.2-12-.7-1.5-1.9-3.5-4.1-3.3-1.6.2-2 2.1-3.3 2.5-1.1-.8-.2-1.4.6-2.1 1.1-1.1 2.1-2.3 4.4-1.9 2.8.5 4.1 3.8 5 7.1 1.1 4.5 1.5 9.2 1.1 13.8-.2 3.2-.6 7.3-3.5 7.2zm-16.2-22.5c-1-1.7-2-3.5-4.3-3.9.4.8 1.6 1.1 2.4 1.9.9 1.3 1.6 2.7 2.1 4.3 2.3 5.4 3.2 11.4 2.7 17.3-.2 2-1.4 5.1-3.7 4.8-1.6-.2-2.9-2.4-3.1-4.3-.5-6-.1-12.1 1.2-17.9 1.5 2 .3 4.6.1 7.5-.2 2.7-.2 5.3 0 8 .1 2.2.1 4.3 2 4.7 2.6-3.3 2.1-11.4.9-16.9-.3-1.6-.9-3.2-1.7-4.7-.7-1.3-1.9-3.1-3-3.3-2.1-.3-2.6 1.7-3.6 2.7-.6-.2-.9-.7-1.2-1.1.9-1 1.9-3.1 3.3-3.6 3.5-1.5 5 1.9 5.9 4.5zm34.5 11.3c-1.3 2.8-2.1 11.6 1.9 11.5 1 0 1.4-1.1 2-.9-.4 1.1-1.2 1.7-2.9 1.5-5.1-2.7-2.1-15.8.6-18.4.7 5.7-2.6 10.6 0 15.5.8-1.2 1.3-2.6 1.2-4 .4-5.7.4-14.3-1.6-17.6-1-1.7-3-2.4-4.8-1.8-2.6.7-3.3 3.6-4.3 6.2-.3-.8-.6-1.5-.9-2.4 1.1-3.6 6-7.6 9.8-4.7 2.4 1.8 3.3 7.7 3.6 12.1.2 2.7.3 5.4.2 8.1-.1 1.8-1.4 5.2-3 5.3-1.2 0-1.8-1.5-2-2.6-.5-2.6.4-5.7.2-7.8z"/><path class="st2" d="M95.6 174.8c-.4 3.3-.6 9.4 1.1 11.8s4.8-.1 5-2.5c.3 2.5-2.5 5.2-4.9 3.8-.7-.4-1.8-2.5-2.1-3.7-.7-2.7-.5-6.9-.3-10.3.2-3.1.7-6.3 1.6-9.3.3.7 1.2 1.5 1.2 2.4-.1.9-.3 1.7-.6 2.6-.2 2.8-.2 5.5-.1 8.3 0 3-.1 7.3 2.4 7 2.1-.3 1.6-3.5 1.6-6-.1-1.3.1-2.6 0-3.8-.3-3.7-1.3-7.2-3-10.5-.8-1.5-2.2-3.1-4.6-2.8-1.1.1-1.4 1-2.4 1.6-.2-.5-.5-1-.7-1.6 1.4-1.6 4.1-2 5.9-1.5.9.4 1.7 1 2.4 1.7 2.4 2.9 3.3 9.3 3.7 14.5.1.8.3 1.5.3 2.1-.1 1.7-.4 3.3-1 4.9-.4 1.3-1.2 3.4-2.7 3.3s-2-3.3-2.2-5c-.3-2.7-.4-4.9-.6-7zm-8.7-7.9c.5 1.2.9 2.4 1.1 3.7 0 1.1-.5 2.3-.6 3.5-.2 3.5-.3 7.3.9 9.9 2.1.6 1.5-4.7 1.5-6.6-.1-5-.9-10.9-3.4-13.7-1.2.2-1.4 1.8-2.7 1.6.6-1.4 1.2-4.3 3.5-3.7.8.2 2.1 2.9 2.6 4 1.3 3 1.5 7.6 1.9 11.3s.7 9-2.8 9.3c-4 .3-3.6-7.7-3.4-11.8.3-2.5.7-5 1.4-7.5zm73-4.1c.6 2 1 4.1 1.1 6.2.1 1.3.9 2.8.1 3.8.6.2 1 2.9.9 4-.1.6-.5 1.2-.5 1.7s.8.3 1 .3c.4 1.2 1 2.4.3 3.7-4.1-3.4-2.2-12.9-2.9-19.7zm2.3 4c.7.3.2.8.1 1.4-.2-.3 0-1-.1-1.4zm.9 1.7c1.2 1.3.1 2.6-.1 4.3-.6-1.3.1-2.9.1-4.3zm59.2 1.1c.8.9 1.9 1.5 1.8 2.8s-1.4 2.5-1.6 3.8c-.5-2 .4-3.5.5-5.3-.2-.3-.3.5-.7.5v-1.8zm-1.8.5c.1 0 .1 0 .1.1.1 2.9-.4 5.8-.6 8.6-.3 4.3.3 7.8.6 12.1.3 6.2 2.9 11.2 5 15.8.7 1.5 1.8 3.1 1.6 4.9-2.6.3-3.8-2.6-4.8-4.6-2.1-4.2-3.3-9.3-3.6-15.6-.1-1.6.1-3.3 0-4.8-.1-3.1-.5-6-.5-9.9 0-3.1-.3-6 2.2-6.6zm-113.7.6c.2 2.7.2 5.3-.1 8-.2-2.6-.2-5.3.1-8zm57.4.6c1.5 2.1.1 4.5-.2 7.1-1.2-2 .1-4.8.2-7.1zm-87.9.3c.5 0 .1 1 .3 1.2-2 .9-3.1 2.6-4.7 3.9.5-2.1 3-3.3 4.4-5.1zm80.4.8c-.1.8 0 1.5.2 2.2-.6.1-1.1.3-1.7.3-.2-.3-.2-.6-.2-.9-.2 0-.2.1-.2.2-.2-.3-.2-.7-.2-1.1.6-.3 1.4-.6 2.1-.7zm-80.3 1.8c.4.9-.2 1.8-.2 2.7-2.6 1.5-4.4 3.8-6.4 5.9.4-4.2 4.3-5.9 6.6-8.6zm89.1.7c.4.4.4 1.3.8 1.7-.8 1.2-.9 3-1.2 4.7-.8-1.7.6-4.1.4-6.4zm58.3 1.2c.4 1.8-1 2.8-1.4 4.3-.2-1.9 1.2-2.9 1.4-4.3zm-57.3 1.5c.5.6.6 1.6 1 2.4-.5 1.3-.9 2.6-1.2 3.9-1.3-1.7.3-4.1.2-6.3z"/><path class="st2" d="M223.7 180.2c.3 1.5-.7 2.7-1.2 3.8-.5-1.7.9-2.6 1.2-3.8zm-56 1.1c1.2 1.3.9 3.6.1 5-1.6-1-.1-3.1-.1-5zm-3.7 1.4c.4.3.5.8.3 1.2-.3-.3-.8-.4-.9-.9.4.1.5-.1.6-.3zm59.5 1.3c.6 1.5-.5 3-1 4.1-.6-1.8.5-3 1-4.1zM57 185c-.4 2.7-1.4 5.7-2 8.6-1-2.4 1.5-6 2-8.6zm112.1.3c.6 1.1.6 2.7 1 4-.7-.6-1.3-1.4-1.7-2.2.3-.6.5-1.2.7-1.8zm18.2 0c.3.2.6.5.8.8 0 .3-.2.6-.6.7.1-.6-.3-.9-.2-1.5zm1.1 1.1c.4 0 .4.3.8.3-.3.6-.8.9-.9 1.7-.7-.3 0-1.3.1-2zm2.5 1.2c-.2.8-.8 1.1-.7 2.2-.5-.1-.6-.4-1-.6.4-.7.6-2 1.7-1.6zm1.1.5c.3 0 .4.3.7.2-.6.6-.9 2-1.8 2 .4-.6.7-1.5 1.1-2.2zm31.7.1c.4 1.6-.7 2.5-1.1 3.7-.7-1.5.8-2.4 1.1-3.7zm-28.7 1c-.5.9-1.4 1.4-1.9 2.4-.4-.1-.7-.3-1-.6.8-.9 1.4-2.8 2.9-1.8zm2.2.9c-.7.9-1.4 1.8-2 2.7-.5 0-.7-.3-1.1-.5 1-.7 1.5-2.9 3.1-2.2zm26.7 1.6c.6 1.5-.2 2.8-.7 3.9-.7-1.4.2-2.9.7-3.9zm-16.4 1.4c1.2 1.9-.6 3.3-1.6 4.4-.5-.1-1-.3-1.5-.5.9-1.6 2.3-2.4 3.1-3.9zm-152.9 1.6c-.1 1.7-.9 3.6-1.1 5.5-.3 0 0-.6-.1-.8-.3-.1-.4-.1-.6.1 0-1.7.7-3.4 1.8-4.8zm169.8.9c.3.9.2 1.9-.2 2.8-.9-.7-.3-2.1.2-2.8zm-174.3.1c.1 0 .1.2.1.3-3.9 3.7-8.7 6.4-13.4 9.2s-9.7 5.4-14.5 8.2c-.1-1.5 1.6-2 2.6-2.6 5.5-3.3 11.3-6.6 16.9-10 2.9-1.7 6-2.8 8.3-5.1zm158 .5c.5.9.6 2.4 1 3.4-.9-.5-1.4-1.2-2.4-1.6.5-.7 1.1-1.2 1.4-1.8zm16.6 2.4c.6.9.5 2.4.9 3.5-.4-1-1.4-2.2-.9-3.5zM9 226.1c.8.3 1.6.5 2.5.3-.8 1.5-1.7 2.9-2.5 4.4-.7-.1-1.1.2-1.8.1.6-1.4 1.7-2.9 1.8-4.4-2 .7-1.6 4-3.8 4.5.1-1.6 1.4-3 1.6-4.9-1.4.5-1.4 2.3-2.1 3.5-.3-4.5 3.9-5.4 6.3-7.5h.7c.4-.1.4-.6.8-.8 2.7-.8 4.3-2.6 6.8-3.5 9.3-6.4 21.6-9.7 29.8-17.3.2.4-.4 3.2-.8 3.8-.5 1-2.5 2.6-3.7 3.7-3.9 3.5-9 5.9-13.4 8.5-5.6 3.3-10.3 6.5-17.4 8.4-1.7.6-3.2 1-4.8 1.2zm38.3-18.5c-.7 1.4-2.4 2.8-3.7 3.9.6-1.9 2.6-2.4 3.7-3.9zm-4.6 3.8c.3.8-1 1.9-1.7 2.5.1-1.1.8-2 1.7-2.5zm-20.7 1c.1.7-.6 1.5-1.1 1.9-.3-.8.2-1.6 1.1-1.9-.1 0-.1 0 0 0zm-1.7.8c-.3 1.1-.6 2.3-1.9 2.5.1-.7.4-1.3.6-2 .4-.3.8-.4 1.3-.5zm19.7 0c-.6 1.3-1.4 2.6-2.5 3.6.3-1.3 1.1-3 2.5-3.6zm-23.6 3.5c.2-.7.3-1.4.4-2.1 1.7-1.1.8.4.6 1.7-.4.1-.7.3-1 .4zm-.3-1.8c-1 .7-2.1 1.5-2.2 3-.2.2-.6.2-.8.4-.2-.9.5-1.9.7-2.8.7-.2 1.5-.5 2.3-.6zm21.1 0c-.7 1.9-1.9 3.6-3.6 4.8.8-1.5 1.5-4.2 3.6-4.8z"/><path class="st2" d="M16 215.2c0 .8-.4 2.1-1.2 2.4-.2-1 .7-1.7 1.2-2.4zm-3.4.9c-.1 1.2-.6 2.4-1.2 3.4 0-1.2 0-3.1 1.2-3.4zm21.6.4c-.6 1.9-2.3 3.6-3.5 5.4.3-1.3 1.6-2.6 1.8-4.4.5-.4 1.2-.6 1.7-1zm146.8.4c1.1 1.8-.2 3.4-.8 4.8-1-1.9 0-3.4.8-4.8zM8.9 218.1c-.1 1.1-.4 2.1-.8 3.1-.1-1 .1-2.6.8-3.1zm22.3 0c-.3 1.9-2.4 3.1-2.8 5.3-.6.1-.8.5-1.3.7 1.4-1.9 1.6-5 4.1-6zm-24 1c.3.7-.5 2.1-.6 3.1-.1-1 .1-2.1.6-3.1zm-1.6 1.3c0 1.1-.3 2.2-.7 3.3-.3-.6.2-1.4-.1-2-1.2.7-.4 3.4-1.6 4.1.1-2.1.9-4.4 2.4-5.4zm176.1 0c1.1 1.4-.4 3-.8 4.3-1-1.8.3-2.9.8-4.3zm-159.8 2.7c.2 0 .2.1.2.2-1.2 1.5-1.5 4-3.5 4.8.5-1.3 1.6-2.5 1.3-4 .5-.6 1.5-.6 2-1zm160.5.4c1.3 1.7-.2 3.6-.5 5.5-1.1-1.9-.2-3.7.5-5.5zm-162.9.7c-1.4 1.7-1.6 4.7-4 5.4.3-1.4 1.8-3 1.8-4.7.8-.2 1.4-.6 2.2-.7zm-2.8.9c-.8 1.7-1.8 3.4-2.8 5-.4 0-.8.2-1.2.2.4-1.3 1.3-2.1 1.3-3.7-1.7.9-1.1 4-3.7 4 .8-1.5 1.6-3 2.2-4.6 1.5-.2 2.9-.5 4.2-.9zm166.5 1.8c.9 1.3-.6 2.8-.8 4-.3-.4-.3-1-.5-1.6.8 0 .9-1.6 1.3-2.4zm.6 2.6c.9 1.6-.3 3-1 4.1-.3-1.7.7-2.8 1-4.1zm.6 2.9c1.3 1.7 0 3.4-.6 5-.9-1.8-.2-3.6.6-5zm.9 3.7c1 1.8-.2 3.1-.7 4.7-1-1.6.2-3.4.7-4.7zm.6 3.9c1.2 1.3-.1 3-.5 4.4-.8-1.5-.1-3.1.5-4.4zm.7 3.6c.3.9.5 1.9.7 2.9-.3.6-.9 1-1 1.8-.9-1.6 0-3.2.3-4.7zm.8 4.1c.8 1.2 0 2.5-.3 3.6-.9-1.1-.1-2.5.3-3.6zm.7 3.6c.6 1 .1 2.3-.2 3.3-.8-1 0-2.3.2-3.3zm.8 3.9c.5 1.2 1 3.1 0 4-.4-1.4-.7-2.7 0-4zm1 4.4c.7.6.3 1.5-.1 2.1-.6-.6 0-1.5.1-2.1zm.9 2.9c.9 2 1.4 4.2 2.2 6.3-.3.3-.6.7-.8 1.1-.9-1.9-1.3-4.3-2-6.4.1-.4.7-.4.6-1zM54.6 264c0 2.5-.6 5-1.7 7.3 0-3 1.5-4.5 1.7-7.3zm139 6.5c.5.6.9 1.4 1.1 2.1-.4.5-.7 1.1-.9 1.7-.6-1-1-2-1.2-3.1.4 0 .9-.3 1-.7zm-141.8 1.4c.8.3-.4 1.4.4 1.5-.4 1-1 2-1.7 2.8-.4-1.6.1-3.2 1.3-4.3zm143.6 1.6c.3.1.5.3.8.5-.3.9-1 1.4-1.4 2.2-.4-.1-.4-.6-.7-.8.4-.7.9-1.2 1.3-1.9zM44 274.7c.4.2.7.3 1.1.5v2c-.4-.8-.8-1.6-1.1-2.5zm5.3 0c-.2 1 .5 2.9-.6 3 .2-.9-.7-2.9.6-3zm-1.8 3.1c-.2.2-.7.1-1 .2 0-1-.2-1.8-.1-2.8 1.9-.6 1 1.5 1.1 2.6zm149.4-2.6c.8.3 1.1 1.1 1.7 1.7-.1.4-.4.8-.8 1-.2-.3.3-.8.2-1.3-.1-.2-.2-.3-.3-.3-.9.1-1.1 1-1.5 1.7-.5-.1-.6-.5-.8-.9.7-.6 1.2-1.2 1.5-1.9zm-49-248.9c0 1.1-1.1 1.6-1.7 2.1-.6.7-1.3 1.3-2 1.8.3-1.3 2.4-2.7 3.7-3.9zm-70.9 3c-.2-.3-.5.1-.8 0v-.7c1-.4 1.9-.9 2.7-1.4.1.1.1.5.1.8-.9.6-1.8 1.3-2.6 2-.3.1.6-.4.6-.7zm42.8-.6c-.3 1.2-1.4 1.7-2.1 2.5s-1.5 1.6-2.2 2.4c-.1-2 3.2-3.8 4.3-4.9zm-22.2 6.4c-.1.3-.6 1.1-1.2 1.1.3-.4.8-.7 1.2-1.1zM44.7 260.6c1.6-8.1 2-16.1 3.5-24s2.7-15.5 4.3-23.1c.8-3.9 1.3-7.8 2.1-11.5 2.6-10.8 5.5-22 8.7-32.3 2-6.7 4.7-13.2 8.1-19.3 1.6-2.9 3.5-5.6 5.4-8.3 3.7-5.4 7.7-10.5 11.8-15.6 2.1-2.5 3.9-5.3 5.8-7.8s4.3-4.9 6.3-7.4c1-1.3 2-2.6 3-3.8 1.7-2 3.2-4.1 4.5-6.4 1.2-2.2 1.7-5.2 3.9-6.4-.5 2.1-1.8 4.3-2.7 6.3 1.4-1.3 2.7-2.7 3.7-4.4 3.4-6.4 1.9-18.3 1.6-27.4 4.7.8 9.5-.1 13.6-2.6-.1 1.6 0 3.2.3 4.8.1.5.5.9.6 1.3.1.7-.2 1.4.2 2-1.1 8.2-1.6 16-5.2 21.9-1.4 2.2-3 4.2-4.9 6-5.4 5.4-12.5 9.4-17.1 15.7 3.1-2.3 6-4.9 9.1-7.2s6.3-4.7 9.2-7.2c1.4-1.3 2.6-2.9 3.7-4.5 1.2-1.5 2.3-3.2 3.1-5 2.6-6.2 3.6-13 2.7-19.8 0-.3-.1-.5-.4-.4 1.1-2.9 0-6.9.7-10.1.2-.6.6-1.2.9-1.8.4-1 .4-2.1 1.3-2.4.2.7-.6 1.4-.7 2.2.8-.2 1.1-1.1 1.6-1.7s.8-1.3 1.2-1.9 1.4-.9 1.6-1.8c-1.1-.5-1.9 1-2.6 1.6-.5.1-1.2 0-1.4.3.4-5-.8-9.5-3.5-11.8.9-1.5 2.5-2.3 3.1-4-.8.1-1.5.9-2.2 1.6s-1.2 1.9-2.2 1.4c-.2-.6.6-1.2 1.1-1.7.6-.5 1.1-1 1.6-1.6h3.3c.2.4-.5.7-.8 1l-1.1 1.1c-.7.7-1.8 1.3-2 2.4 1.3.4 2.2-1.3 3-2.1s1.7-2.3 3.3-2.4c.2.4-.5.7-.9 1-1.3 1-2.5 2.2-3.5 3.5 1.4.7 4.3-.2 5.5.8 1-.5 2.7-.3 3.9-.6.6-.1.5.4.9.4 1.2-1.1 2.9-.4 4.3-1.1.5 0-.1.8.5.8 1.1-.2 1.2-1.3 2.7-1 .6.1-.7.6-.1 1 2.1-.5 3.3-3.2 4.9-4.7-.5 1.4-2.3 3-2.9 4.8-.5 1-.4 2.2.1 3.1 1.3-1.4 2.1-3.9 3.9-5.5 1-.9 3.5-2.7 4.8-1.4 0 5.7.1 12-.7 17.4-1.8-.8-3.5-2-4.9-3.4-.3-.3.5-.3.3-.9s-1-.6-1.5-.9c-.2-.7-.6-1.3-1.1-1.8-.3.1-.7.1-1 .1-.5.6 0 1.3.1 1.9-3-.1-6.4.8-9.1.8-.5 0-.6 0-1-.2-.7.5-1.6.7-2.5.7-.4.5.2.7.3 1-1.3 1.3-2.5 2.6-3.7 4-.4.5-.5 1.5-1.5 1.1-.1-.4.6-.9.9-1.3 1.2-1.5 2.2-3 3.3-4.6-.5-.4-1.2.2-1.7.7s-1.4 1.7-2.1 2.6-3.2 2.6-1.5 3.5c-2 2.2-1.2 7.2-1 11.1.3 6 0 10.7-1.7 15.1-.8 2.2-1.7 4.3-2.8 6.3-2.1 3.6-5.6 6.9-8.6 9.6-3.3 2.9-6.8 5.4-10.1 8.2s-6.3 5.9-9.5 8.7-6.6 5.7-9.5 8.7c-7.4 7.7-12.8 17.6-17.3 28.5-.9 2.1-2.1 4.4-1.9 7 .1-.3.4-.2.3-.1.6-.2 1.2-2.8 1.8-4 4.3-9.3 9.7-19.1 15.7-26 .1.8-.1 1.5-.3 2.2.9-.6.8-2 1.2-3 .4-.9 1-1.7 1.7-2.4.1.9.1 1.8.1 2.7-.2 1.1-1.4 1.4-1.8 2.4-3.2 1.9-5.4 4.9-7.6 7.8s-3.7 6.5-5.2 10.3c-2.7 7.2-6.5 14.9-7.4 23.5-.2 1.6.1 3.2-.4 4.6.9 0 1.6-.9 2.1-1.5 1.8-1.8 3.6-4.1 5.6-5.5-.2 1-.5 1.7-.7 2.7-2.4 1.9-4.6 4.1-6.4 6.6-.2-.1-.1-.5-.3-.5-1.7 3.2-2.4 7-3.1 10.8s-1.4 7.8-2.2 11.6c-1.7 7.6-3.3 15.4-4.5 23.2 1.2-10.3 1.8-21 4.1-30.5 1.2-4.8 1.8-9.7 2.9-14.5 1.2-4.8 2.1-9.7 2.8-14.6-.8 1.7-1.4 3.4-1.7 5.3-3.1 12.9-6.8 25.2-8.5 39.9-.9 7.9-2.1 16.2-3 24.6s-1.4 17-4.8 22.7c-.5.9-1.7 2.4-3 2-1.3-.3-1.1-2.5-1.9-3.6-.9 1.5-.2 4.4 1.2 5 1.5.6 3.3.1 4.3-1.2-.1 2-3.4 5.9-5.9 3.7-1.3-1.1-2.3-5.6-2.4-7.6-.1-2.4.7-5.4.8-8.4 0-.9.1-2.3.2-3.2 1-7.5 2.5-17.3 3.3-25.7.3-3.2.3-6.3.9-8.7s1.8-4.9 2.4-7.7c.3-1.3.6-2.8.9-4.1.6-2.4 1-4.3 2.2-5.8 0-.3.1-.2.1 0-1.6 8.3-3.5 16.5-4.9 25-.7 4.2-1.2 8.6-2 13-1.7 7.4-2.3 14.7-2 22.1zm94.7-210.7c-1.1.2-2.3 0-3 .7.9.4 1.9.5 2.8.3-.1.5.3.4.4.7 2.1.1 5.3.5 7.4.1.6-.1 1.5-.3 1.7-.9-.7-.6-2.5-.1-3.5-.4 1.2.2 2.1-.4 2.9-.2-1.9-1.6-6.3-.7-8.7-.3zm-18.7 24.4c.5-.5.6-1.3.1-1.8-1.8-.5-2 2.2-.1 1.8zm-10.8 30.1c-.2-.5-.7-.8-1.3-.7-.1 0-.1.1-.2.1-2.1 1 2.2 3.3 1.5.6zM94.7 51.2c1.9.1 3.9-.2 5.4-.1.4 0 .1-.6.3-.7.6 0 1.3-.2 1.8-.6-2.6-1-5.3-1.4-8.1-1.1-1.7-2.5-4.3-4.4-7.2-5.3 7.4-.6 15.9 0 23.4-.3-.7 1-1 2.3-1.8 3.3 1-1 1.9-2.1 2.7-3.3.6 0 1.3 0 1.9-.1l-2.1 3c2.2.1 1.6-3.4 4.5-3 .5 0-.2.5-.3.6-3.1 3.8-8.9 6.3-8.2 13.6.2 1.1.4 2.1.8 3.1-5.3-.6-12.4-1.6-18-.8.3 1.1-.9 1.5-1.3 2.5h-1.9c.9-1.2 2.9-1.9 3-3.5-.9 0-2.1 1.1-2.7 1.9-.4.4-.6 1.1-1 1.4h-1.7c4.5-2.5 7.7-6.3 10.5-10.6z"/><path class="st2" d="M110.6 55.7c-.3-1.6.1-3.3 1-4.7-.4.7-.6 3.4-1 4.7zm13.6 4.4c.2.2-.4.6-.7.8-1.2.8-2.5 1.4-3.8 1.9 1.1-1.4 3.2-1.7 4.5-2.7zm-32.4.3c-.5.6-1.1 1.2-1.8 1.7.5-.6.8-1.5 1.8-1.7zm1.5 0c-.3.7-1.3.8-1.2 1.8h-.6c.6-.7 1.2-1.3 1.8-1.8zm12.8 3c-.5 0-1.1-.1-1.6-.2.2-.5.5-.9.9-1.2 2.1.1 3.5.9 3.7 3.2.5 4.6-.1 10-.1 15.4s0 10.7-.4 15c0 .4-.7.1-.7.6-.2.5-.7 1.8-.9 1.6 1.5-6.5 1.5-15.4 1.1-23.2 0-.5-.3-1.1-.3-1.7-.3-3.8.2-7.4-1.7-9.5zm6 4.4c-.1.5-.6.7-.8 1.2.1-.5.4-.9.8-1.2zm-25.2 4.1c-.2.6-.7.8-.9 1.3h-1c0-.4.4-.4.3-1-1.1-.1-.7 1.2-1.9 1 .1-.4.5-.9.1-1.2-.8.2-.8 1.3-1.9 1.2 0-.6.4-.6.3-1.2 1.7.1 3.3-.1 5-.1zm62.8 0c-1 .6-1.6 2.1-3 1.9.3-.5.9-.8 1.2-1.3-1-.8-2.1.8-3 1.1.4-.6.9-1.1 1.4-1.6 1.2.1 2.2 0 3.4-.1zm-5.6.2h.8c-.4.4-1 .7-1.5 1.1-.2 0 .8-.5.7-1.1zm-19.3 32.3c-.4 1.7.9 6-1.1 6.4.1-2.4-.8-5.6 1.1-6.4zm-11.5 57.1c.5.5.6 1.4 1.1 1.9-.5 4.2-1.3 10.8.3 14.3 2.7-.1 2.3-4.6 2.1-7.6-.2-2.5-.7-4.9-1.6-7.3-.6-1.6-2.1-4.7-3.8-4.9-1.4-.2-2.2.8-3.3 1.5-.2-.4-.3-.8-.6-1.2 1.5-2.2 5.3-1.6 6.7 0 1.2 1.8 2.2 3.7 2.9 5.7 1.4 3.6 2.3 9.6.6 13.3-.7 1.5-1.6 3-3 1.6-2.1-2.1-1.4-7.5-1.7-10.9-.4 2.6-.8 8.4.6 10.8 1.1 1.9 3.6 2.5 4.5 0-.1.9-.9 2.8-2.1 3.1-1.1.1-2.2-.2-3-1-1.7-2-1.6-9.7-1.3-13.5.2-2.1.7-4.1 1.6-5.8zm-34.4-3.2c.2 3.6-.9 8.3.3 11.6.2.5.8 1.1.9 1.8 0 1.5-.1 2.9-.4 4.4-.4 3.2-1.7 6.1-3.8 8.5.7-3.5 2.6-7.1 1.9-12-.2-1.8-1.1-3.3-1.2-5.5-.5 1.1-.5 2.2-.2 3.4-1.3.3-2 1.3-2.8 2.1.2-1.2 2-1.7 2.2-3.3-.6-.5-1 .7-1.4.5 1.4-3.9 3-7.7 4.5-11.5zm52.4 8.2c2.2 4.1-.6 11.7 2 15.8 1.6-1 1.2-4.6 1-7.2-.2-2-.9-4.4-1.3-6.7-.7-3.5-1.4-6.5-3.7-8.1-.9 0-1.7.1-2.6.3 0-.6-.5-1-.3-1.5 4.7-2.2 6 2.4 7.2 6 .4 1.2.7 2.7 1 4.1.7 3.1 1.9 5.2 1.8 8.9-.1 1.7-1.1 4.9-2.6 4.9-1.1 0-2.2-2.9-2.5-4-.5-1.9-.2-3.6-.6-5.4-.4 2-.2 4 .3 5.9.7 2.6 2.2 6.4 4.6 3.1-.4 1.2-1.6 2-2.9 1.7-2.4-.6-2.8-8.1-2.6-12.1.2-2.1 1.1-3.9 1.2-5.7zm23 17.5c-.1 1-1.3 2.3-2.6 1.9-2.3-.7-1.4-8.5-.3-10 .7 2 .5 4.9.7 7.4.9-.8.8-3.1.7-5.1-.2-3.9-1-7.6-2.5-11.2-.6-1.3-1.5-3.6-3.1-2.4-.2-.5-.3-1-.3-1.5 2.6-1.2 3.7 1.1 4.6 3.3 1 2.7 1.7 5.5 2.1 8.4.6 3 1.8 7.6-.8 9.4-.9-.2-.8-1.4-1.5-1.8-.5 2.3 2 3.4 3 1.6zm62.9-14.6c-3.9 3.6-6.9 8-8.6 13 1.6.6 1.9-2 3.4-2.2.5-1.4 1.3-2.7 2.3-3.8.8-1.2 1.4-2.7 2.5-3.4-1.6 13.7.2 27.8 4.6 37.3-1.2-1.2-2.2-2.6-3.1-4-1-1.4-1.6-3.1-2.8-4.4-.7 1 0 2.4.3 3.4.4 1 .9 2 1.5 2.9 1.4 2.5 3.3 4.7 5.6 6.5-7.4-3.1-10.2-12.7-12.9-21-.4-1.2-.7-2.5-.9-3.8-.2-1.2.1-2.8-.8-3.8-1.2.9-.9 4.4-.7 6-1.5 1.3-3 2.6-3.9 4.5-.3-.2-.6-.3-1-.3 1.2-2.1 3.5-3 4.1-5.6-1.2.2-2 1.4-2.8 2.2-.8.9-1.6 1.9-2.1 3-1.2-.4-2.4-.8-3.6-1.4l1.8-2.1c.6-.7 1-1.6 2-1.8.2 1.1-2.9 2.4-2.1 4.1.8-.6 1.5-1.3 2.1-2.1.6-.7 1.2-1.9 2-2.2 1-.4 2.2 0 2.9-1-2.8-1.4-6.1-.6-9.2-1.5-1.5-.5-2.9-1-4.4-1.7-2.6-1-4.2-1.6-5.8-3.5-1.3-1.4-2.1-3.1-2.4-5 .4-.2.8.3 1.1.6 2.9 2.2 6.3 3.7 9.9 4.5-3.4 0-5.8-2.1-8.6-3 .8 1.2 1.9 2.2 3.3 2.9.7.4 1.5.7 2.2.9.7.3 1.5.7 2.1.9.4.1 1 0 1.5.1.8.2 1.4.6 2.2.8 2.6.5 7.2 1.2 7.8-1.7-2.4.3-6.2.5-8.9-.3 1.8-.2 3.6.2 5.1-.1 1.7-.4 4.1-2.5 5.4-3.6 3.5-3 5.1-8.3 8.9-10.3zm-5.7 17.4c-.5 3.1-.1 6.2 1 9.1.7-.8.3-2.1.1-3.3s-.4-2.4-.5-3.5.2-2-.5-2.4h-.1zm-137.2-3.5c-.8 3.7-4.3 6.2-6.4 8.5.1-.7.3-1.3.3-2 2.1-2.1 4-4.4 6.1-6.5z"/><path class="st2" d="M196.2 193.4c.8-1.1 1.8-2 2.7-3 .5-.1.6.1 1 .1-.6 1.2-2.5 2.2-2 3.7-.5 0-1.2-.7-1.7-.8zm-128.1-.6c.1.3-.5.8-.6 1.2-.3-.4.4-.8.6-1.2zm-57.1 24c-.4.8-.4 3-1.6 3.5.3-.9.5-1.9.7-2.9.2-.3.7-.3.9-.6zm17.1 3c-.9 2-2.1 3.9-3.6 5.5.7-1.5 1.6-2.7 1.8-4.6.7-.2 1.3-.5 1.8-.9zm-4.7 2.5c.7-.4 1.4-.7 2.1-1-1.3 2-1.9 4.7-4.1 5.7.4-1.5 1.8-2.8 2-4.7zm142.5-184c.1 6.7 0 14.6.3 21.6.2 3.6 1.1 7.1-.5 10-10.8-.1-21.5.3-32.1 0-.1-.9-.1-1.8-.1-2.7 5.1-1.7 11.6-.8 18.2-1.1 2.8-.1 7 .3 8.8-.9 1.5-1 2.6-4.6 2.5-7.4 0-.6-.4-1.3-.5-2-.1-1.6-.1-3.1 0-4.7 0-1.6-.3-3.2-.2-4.5 0-.9.2-1.6.2-2.8.1-1.4.3-1.8-.9-2.7-.5-.4-1-.7-1.6-1-1.5-.5-4.4-.3-6.5-.3-4.4-.2-9.1-.1-13.6-.1-3.3 0-6.4.1-9.3-.1-7.5-.6-15.8.4-24 .4-8.7 0-17.6.5-26.4 1.5-.5-.1.8-.7.2-1.2-2.1.4-3.1 2.6-4.7 3.1.4-1.1 1.5-1.7 2.4-2.4.9-.6 1.7-1.3 2.5-2.1.5.4 1 0 1.2 0 8.3-.4 16.5.1 24.8-.2s16.6.1 25.2-.3c1-.1 2.4.2 3.7.2 9.1.4 19.9-.5 29 .1.6 0 .6-.5 1.4-.4z"/></svg>