<svg version="1.1" id="Layer_1" xmlns="http://www.w3.org/2000/svg" x="0" y="0" viewBox="0 0 216.8 209.8" xml:space="preserve"><style>.st1{fill-rule:evenodd;clip-rule:evenodd;fill:#fff}</style><path d="M2.4 156.9c4.5-3.7 14.8-4.3 21.6-4.8-6.2-10.5-11-21.8-14-33.6-1.7-6.4-3.3-13.1-4.7-19.9-3-13.9-5.3-28-5.1-41.2.1-6.6.1-12.8 1.3-18.6 1.2-5.5 2.3-11.1 4-16.6.8-2.4 1.5-5.1 2.5-7.7 1.6-3.9 2.9-8 6.4-9.9.9-.5 1.9-.7 1.8-1.6.8.3 1.4-.7 2.3-1.1 1-.5 2.1-.8 3.3-.9 2.5-2.1 5.1-.4 7.1.9 1.4.9 3.1 1.6 3.8 2.8.3.7.5 1.3.7 2 2 5.1 3.5 10.4 4.4 15.8 1.1 6.4 1.7 12.9 1.9 19.4 0 6-.4 12.3.5 18.7s2.4 13.3 3.4 20.1c2 13.8 4.2 27.6 7.2 39.6 3.1 12.3 7.4 23.9 9.8 36.2 3.8.4 7.4.9 11 1.4s6.9 1.4 10.5 2c4.9.8 10.5 2.7 16.2 2.4 2.5-.2 5-.6 7.4-1.4 0-.2.3-.9.4-.4 1.7-.9 4.6-2.4 6.9-3.5.9-.1 1.8-.1 2.7-.1.9 0 1.9-.1 2.9 0s1.8.6 2.8.8c2.9.5 5.8 1.2 8.6 2.1 7.7 2.1 15.2 4 22.8 6.1s14.9 4.3 22.4 6.4c3.8 1.1 7.5 2.3 11.3 3.2s7.3 2.4 11.1 3.5c2.8.8 5.8 1.5 8.4 2.5.8.4 1.7.8 2.6 1.1.5.1.5.3 1-.4.1.5.4 1 .8 1.3 2 1.4 4.8 1.7 6.7 3.3.6.5 1 1.3 1.6 1.9.6.7 1.1 1.5 1.4 2.3.1 1-.6 2.3-.2 3.5-.1.6-.8-.3-.7.4-.2 3.7-2.5 5.6-4.8 7.9-1.1 1.3-2.4 2.6-3.7 3.7-1.6 1.1-3.4 1.9-5.4 2.4.1.5.1 1-.6 1-.4-1-1.1-.5-2.7-.4-2.7.3-5.4.3-8.1.1-3.8-.2-7-.3-10.3-.6-6.9-.7-13.1-1.8-19.5-2.7-13.2-1.9-25.3-5-37.6-7.4-6.3-1.2-12.7-2.3-18.5-3.9s-11.6-3.6-17.8-5c-5.8-1.3-12-3.2-17.9-4.9-4.4-1.3-8.7-2.5-13.1-4.1-.9-.3-3.4-1.8-4.2-1.7s-1.2.6-2.1.8c-2.8.7-5.8.4-8.4-.9-2.2-1-3.7-3-5.5-4.9 0 0-.2-.1-.2-.2-1.7-1.1-3.5-2-5.4-2.6-3.9-1.6-8-2.8-12.2-3.4-2.3-.4-4.6-.7-6.9-.7-2.7.1-5.3 1-8.1.9s-6.1-3.4-6-7.3c-.3-1.2 1.4-3.5 2.2-4.1z" fill-rule="evenodd" clip-rule="evenodd" fill="#958961"/><path class="st1" d="M195.3 207.3c0-.4-.6-.3-.9-.4-2.8-.7-6.1-1.7-8.9-2.4.3.5.6 1.1.9 1.7 3 .2 5.8.8 8.9 1.1zm12.3-20.7c-1.9-.8-4-1.4-6.1-1.8-1.3 6.9-3.1 13.4-4.8 20 1 .4 2.1.6 3.1.6 1.4-5.9 2.2-12.1 4.2-17.5-.5 6.4-2.5 11.7-3.4 17.7.6-.3 2.5.6 3.2.3s1-3.8 1.1-4.7c.9-4.8 1.8-10.3 2.7-14.6zm-2.2 18.9c.5 0 1-.2 1.4-.4.4-3 .9-6.1 1.3-9.1s1.2-5.9 1.5-8.8c-.2-.1-.6-.1-.8-.3-1.4 6-2.3 12.4-3.4 18.6zm2.2-.8c1.4-.5 2.5-1.4 3.3-2.6.4-3.3 1.2-6.9 1.8-10.3.2-1 .8-2.5-.3-3-1.1 4.4-1.4 9.4-2.4 13.8-.7-.3-.3-1.3-.3-1.9.3-3.4.8-6.5 1.3-9.8.1-.9 1.2-2.9-.5-3.1-1 5.6-2 11.2-2.9 16.9zm-11.6.1c1.7-6.7 3.4-13.3 4.9-20.1-4.7-1.2-9-2.9-13.7-4.1-1.6 6.8-3.4 13.4-5 20.3 4.4 1.5 9.2 2.6 13.8 3.9zm-11 1.1c.2-.5-.5-.9-.5-1.7-.5-.2-1-.3-1.5-.4.1.8.4 1.1.6 1.7.4.2 1 .1 1.4.4zm26.9-5c2.2-2.5 4.9-5 4.3-9.3-.3-.1-.4-.4-.6-.5-.9 2.3-.8 5.2-2.1 7.2-.6-1.3.2-2.9.5-4.3.1-.7.3-1.5.4-2.2s.4-1.5-.4-1.9c-.8 3.6-1.4 7.3-2.1 11zm-29.6 4.2c-.3-.6-.4-1.2-.5-1.8-.5 0-1-.1-1.4-.3-.1.6.5 1.3.6 1.9.5-.1.7.3 1.3.2zm-3.1-2.4c-.6-.1-1.2-.3-1.8-.5-.1.7.5 1.4.7 2 .5.1 1 .2 1.4.3.5-.3-.3-1.1-.3-1.8zm-2.4 1.3c-.2-.7-.6-1.2-.7-2-.3-.1-.7-.2-1.1-.3.2.7.5 1.4.8 2.1.4.2.7.3 1 .2zm-3.6-2.6c.2.7.4 1.4.7 2.1.2.1.5.1.7.2 0-.4-.5-2.3-1.4-2.3zm-4.1 2.5c-.2-.5-.8-.4-1.2-.5.1.5.8.3 1.2.5zm3.7-.7c-.3-.7-.6-1.5-.9-2.2-.4-.1-.8-.2-1.2-.2l.6 2.1c.5.2 1 .3 1.5.3zm-2.5-.4c.3-.5-.5-1.4-.5-2.3-.5-.2-.9-.3-1.4-.4.3.8.6 1.5.8 2.3.3.2.8.1 1.1.4zm11.1-2.1c1.9-6.7 3.1-13.9 5.3-20.4-1-.1-1.8-.5-2.8-.5-1.7 6.6-2.8 13.6-4.5 20.2.6.3 1.3.5 2 .7zm-14-1c-.2 0-.5-.1-.7-.2-.1.8.5 1.7.7 2.5 1.7.8.2-1.4 0-2.3zm-1.6-.5c-.8-.1-1.5-.4-2.4-.5.4.8.6 1.8.9 2.6.7.1 1.5.3 2.2.5.3-.6-.6-1.7-.7-2.6zm17.1-19.7c-.5-.1-.9-.3-1.4-.3-1.8 6.6-3.3 13.4-5 20.1.7.3 1.5.4 2.2.6 1.4-6.8 2.6-13.7 4.2-20.4zm-20.2 19c-.7-.2-1.4-.3-2.2-.4.3.8.6 1.7.8 2.5.6.2 1.5.3 2.1.5.3-.6-.6-1.7-.7-2.6zm12.9.5h.2c1.4-6.8 2.9-13.5 4.5-20.1-.6-.2-1.1-.3-1.7-.3-1.8 6.5-3.4 13.1-4.9 19.9.4.4 1.3.3 1.9.5zm-15 1.5c.1-.8-.6-1.5-.7-2.5-7.6-2-15.6-3.4-23.4-5.1-.5-.1-.4.1-.7.3-.4-.7-1.9-1.1-2.4-.5 0-.2-.1-.4-.2-.6-2.4-.6-4.9-1.2-7.3-1.8-.1.8.6 1.4.7 2.2 10.6 3.6 22.8 5.2 34 8zm12.1-2.1c1.6-6.7 2.9-13.7 4.9-20.2-.7-.1-1.5-.2-2.2-.4-1.6 6.7-3.5 13.2-4.9 20 .7.3 1.5.4 2.2.6zm1.9-20.8c-3.3-.6-6.3-1.6-9.5-2.3-1.3 7-3.1 13.6-5 20.2 3.2.7 6.7 1.7 9.7 2.2 1.5-6.8 3.3-13.4 4.8-20.1zm-10.3-2.6c-.9-.1-1.6-.5-2.5-.6-.8 3.9-1.9 8.7-3 13-.3 1.2-1.3 3.3-1.1 4.3.1.7 1 1 1.2 1.6-.7.1-.9-1.1-1.5-.7-.1.8-.4 1.4-.4 2.2.8.1 1.5.3 2.3.5 2.1-6.5 3.6-13.4 5-20.3zm-8 19.6c.3-.9.5-1.8.7-2.7-.8-.5-1.3-1.4-2.2-1.9-.1.8-.3 1.7-.6 2.5.7.7 1.4 1.3 2.1 2.1zm-2.8-1.8c-.4-.6-1-1.2-1.6-1.6 0 .8-.4 1.3-.3 2.1.8.3 2 .9 1.9-.5zm-2.6.5c.1 0 .1 0 .1-.1-2-1.8-3.9-3.8-5.5-6-.5-.6-1.5-1.6-.9-2.5.7.1.6.8.8 1.3 1.5 2.6 4.1 4.3 5.6 6.8 1.1-2.4-1.2-4-2.5-5.5-1-1.1-1.9-2.3-2.7-3.5.7 0 1 .9 1.5 1.4 1.4 1.6 2.8 3.1 4.4 4.5-.2-.9.6-1.7.5-2.5-.1-.6-1.2-1.4-1.7-2-1.6-1.8-3.7-3.9-4.7-6.2 1.3.8 2.2 2.3 3.3 3.5s2.2 2.4 3.3 3.5c1.2-4.4 2.1-9 3.6-13.2-3.9-1.5-8.7-1.9-12.8-3.1-2.1 6.9-4.1 13.9-6.1 20.9 4.3.9 9.1 1.8 13.8 2.7zm2.7-1.4c.5-1.5.9-3.5-.9-4.1-.5 1.8-.7 3 .9 4.1zm3.5-.8c1.4-5.6 2.6-11.3 3.9-16.9-.7 0-1.1-.4-1.9-.4-1.4 5-2.8 10-4 15.2.6.7 1.3 1.4 2 2.1zm-2.7-2.8c1.3-4.9 2.4-10 3.9-14.7-.4-.5-1.2-.5-1.9-.7-.6 3.5-1.5 6.9-2.5 10.3-.6 2-1.4 4 .5 5.1zm-28.8 3.9c.2-.4-.5-1.4-.6-2.1-.4-.1-.8-.2-1.3-.3.2.7.4 1.3.6 1.9l1.3.5zm16.5-22.6c-.6-.2-1.1-.4-1.8-.4-2 7-4.3 13.8-6.1 20.9.6.2 1.2.3 1.9.4 2-7 3.7-14.2 6-20.9zm-19 21.9c.1-.5-.4-1.1-.4-1.8-.3-.1-.7-.1-1-.2.5.7.6 1.8 1.4 2zm16.5-22.5c-.4-.5-1.2-.5-1.9-.8-2 7.2-4.6 14-6.6 21.1.8.2 1.7.4 2.5.5 1.8-7 3.7-14 6-20.8zm-18 22c-.3-.6-.6-1.2-.8-1.8-.5-.1-1.1-.2-1.5-.4-.2.6.4 1.1.5 1.7.5.2 1.1.4 1.8.5zm8.9-1.7c1.8-6.3 3.9-12.6 5.8-18.9.2-.8.9-1.7.5-2.5-.5 0-.6.7-.7 1-2.3 6.5-4.8 13.4-6.9 20.1.4.1.8.3 1.3.3zm-12.2.9h.2c-.2-.6-.4-1.1-.6-1.7-6.2-.8-10.6-4-16.2-5.5.1 1.3.9 2.5 1.3 3.7 5.1 1.2 10.4 2.1 15.3 3.5zm10.1-1.5c.1-.4.2-.7.3-1.1-.2-.3-.5-.5-.7-.7-.3.6-.4 1.2-.5 1.8.4-.2.5.2.9 0zm-1.9-.6c.5-.3.3-1.2.7-1.7-.3-.5-.9-.7-1.2-1.1-.4.4-.4 1-.6 1.6.2.5.8.6 1.1 1.2zm-2.2-.3c.3 0-.1-.5.1-.4-.6-.5-1.2-1-1.9-1.3 0 .5-.3.8-.3 1.3.7.1 1.4.2 2.1.4zm4.4-.6c.4-.7.7-1.5.8-2.3-.4-.1-.5-.4-.7-.6-.4.8-1.2 2.2-.1 2.9zm-7.1.1c.4-.4.3-1.1.5-1.5-.5-.6-1.2-1.1-1.9-1.4-.6.9-.4 2 .5 2.6.3.1.6.3.9.3zm3-1c.4-.4.4-1.1.6-1.6-.5-.5-1-1-1.6-1.5-.4.4-.4 1.1-.6 1.6.4.8 1.1 1 1.6 1.5zm2.6-.6c.3-.6.6-1.3.8-2-.3-.5-.7-.9-1.2-1.1-.1.7-.4 1.3-.7 1.9.3.5.8.7 1.1 1.2zm-8.4.7c.1-.7-1.4-1.4-2.1-1.8 0 .3-.1.6-.3.9.7.5 1.7.5 2.4.9zm10.8-1.8c2.1-5.7 4.2-11.3 6-17.2-.5 0-.8-.4-1.3-.3-1.2 3.7-2.6 8.2-4 12.4-.5 1.7-2 3.9-.7 5.1zm-10.4.7c.3-.5.3-1.1.5-1.6-.5-.7-1.2-1.2-2-1.6-.1.5-.3 1-.5 1.5.6.6 1.3 1.2 2 1.7zm3.8-2.5c-.5-.5-1.1-.9-1.6-1.5-.3.5-.5 1.1-.7 1.7.5.5 1 1 1.6 1.5.6-.3.3-1.2.7-1.7zm2.4 1.2c.3-.6.6-1.3.8-1.9-.4-.7-1.2-1-1.6-1.7-.4.7-.6 1.4-.7 2.1l1.5 1.5zm40-10.4c0 .2 0 .5-.1.6 2.9 1.2 6.4 1.6 9.6 2.5.2 0 .2-.1.2-.2-3.5-.8-6.3-2.2-9.7-2.9zm-49.3 10.5c-.2-.4-.7-.5-1-.9-.4.4-.3 1.1-.7 1.5.7.8 1.6.5 1.7-.6z"/><path class="st1" d="M128.2 182.9c.1 0 .1 0 .1-.1 1-2.9 2-5.9 3-8.9s1.6-6.1 3.2-8.7c.4.5 0 1.1 0 1.6.5 0 .8.2 1.3.2.5-.4.4-1.1.8-1.5-1.4-.6-2.9-1-4.4-1.4-.9 5.2-2.6 9.8-4.1 14.5 0 .3-.1.4.2.5-.7.4-.8 1.6-1.2 2.5.3.6.7 1 1.1 1.3zm-27.6-.2c-.5-.3-1.1-.5-1.7-.6.5 1.6 1.3 2.7 1.8 4.3.3.2.9 0 1.2.2.1-1-1-2.6-1.3-3.9zm13.3 1.8c.3-.5.2-1.3.6-1.8-4.1-3.4-7.9-7.3-11.9-10.9-.1.5-.3 1-.5 1.5 3.6 4.1 7.9 7.4 11.8 11.2zm-13.9 1.7c-.8-1.5-1.5-3.1-2.1-4.6-.6-.2-1.2-.4-1.8-.5.6 1.6 1.3 3 1.8 4.8.7.1 1.3.3 2.1.3zm19.8-3.6c.6-.4.4-1.3.8-1.8-.6-.6-1.2-1-1.8-1.6-.3.6-.5 1.2-.7 1.8.4.8 1.3.8 1.7 1.6zm-3.5.4c.4-.4.3-1 .6-1.5-.2-.5-.7-.5-.9-.9-.3.5-.5 1-.6 1.6.2.4.7.4.9.8zm-19.6 2.8c-.3-1.6-1.3-3.3-1.8-5-6.4-2.8-12.7-5.6-19.6-7.7 1.4 2.6 2.9 4.9 4.1 7.8-.8.1-1.1-1-1.5-1.6-1.2-2-2.6-4.4-3.7-6.5-.7-.2-1.4-.5-2.1-.6 1.6 2.7 3.1 5.7 4.5 8.6 6.9 1.3 13.4 3.2 20.1 5zm26.4-3.9c.5-.5.4-1.4.8-2-.5-.5-1-.8-1.5-1.4-.4.7-.6 1.4-.7 2.1.4.5.9.9 1.4 1.3zm3.3-.8c.4-.7.7-1.4.9-2.1-.5-.7-1.1-1.2-1.8-1.7-.1.8-.5 1.5-.6 2.3.4.5.9 1 1.5 1.5zm-11.2-.9c-3.9-3.7-7.9-7.3-11.6-11.3-.3.6-.5 1.2-.7 1.8 3.6 3.9 7.5 7.6 11.6 11 .5-.4.5-1 .7-1.5zm49.3-6c.2-.3.3-.6.3-.9-.9-.3-1.8-.4-2.7-.5.1.2 0 .5-.1.6.8.4 1.7.6 2.5.8zm-47.3 6.1c.4-.8 1.2-2.3-.2-2.6-.2.6-.4 1.3-.7 1.9.2.3.6.4.9.7zm3.4-.5c.4-.6.7-1.4.8-2.1-.6-.4-1.1-.9-1.6-1.5-.4.6-.6 1.3-.8 2 .5.7 1.2 1 1.6 1.6zm3.3-.9c.6-.6.5-1.6.8-2.3-.4-.6-.9-1.1-1.5-1.4-.1 1-.6 1.6-.7 2.5.5.4 1 .8 1.4 1.2zm4.1-4.4c-.5-.3-1-.7-1.4-1.2-.4 1-.6 2-.9 3 .5.8 1.2 1.1 1.7 2 1.7-4.8 3.2-9.6 4.3-14.5-1.6-.6-3.3-1.2-5-1.6.2.5.1 1-.1 1.4.1.3.6.1.6.5s-.5.3-.8.3c-.4 2.2-1.2 4-1.6 6.1.5.4.9.8 1.3 1.3 1.1-2.6 1.5-5.6 2.9-7.9-.2 3.3-1.4 5.8-2.2 8.7.4.7.8 1.3 1.2 1.9zm33.5-1.8c-.4-.4-1.3-.3-1.8-.6-.2.1-.1.5-.3.7.6.2 2 1 2.1-.1zm-45.2 4.4c-2.9-3-6.1-5.6-8.9-8.7-1 .1-2 .1-3.1 0-.1.4.6.9 1 1.3 3.1 3 6.8 6.3 10.1 9.3.4-.6.7-1.2.9-1.9zm42.4-5.3c-6.2-1.3-11.7-3.4-17.7-4.9l-.3 1.5c.6.1 1.1.2 1.6.4.4-.3.5-.9.8-1.3v1.4c5.1 1.2 10.5 2 15.2 3.7.3-.1.3-.5.4-.8zm-40.6 5.8c.3-.6.6-1.3.8-2-.2-.3-.5-.6-.8-.7-.2.7-.5 1.3-.7 2 .1.4.5.3.7.7zm3.5-.7c.7-1.5 1.2-3.1-.6-4-.4.8-.7 1.7-1 2.6.6.4 1.2.9 1.6 1.4z"/><path class="st1" d="M124.9 175.7c.4-.9.6-2 .9-3-.3-.6-.9-.8-1.3-1.4-.5.9-.6 2.1-1 3l1.4 1.4zm-8.3.5c.3-.7.6-1.5.7-2.2-2.2-1.9-4.3-4-6.4-6l-2.4.4c0 .4.4.7.7 1 2.3 2.1 5 4.6 7.4 6.8zm2.6-1.5c.2-1 1.7-2.8.1-3.3-.2 1.1-1.6 2.6-.1 3.3zm-19.3 2.6c.5-1.3 1-2.6 1.3-4l-1.3-1.3c-.7 1.1-.8 2.7-1.6 3.7 0-1.2.3-2.4.6-3.5.4-1.5 1.9-3.6-.1-4-1.2 1.9-1.1 4.8-2.5 6.5-.1-2.2 1.1-4.2 1.4-6.5-.5.1-.7-.1-1.2 0-.6 1.8-1.2 3.7-1.9 5.4 1.9 1.3 3.6 2.5 5.3 3.7zm-28.8-5.6c-.7-.1-1.4-.4-2.1-.5 1.8 2.9 3.4 5.9 4.8 9 .6.1 1.2.2 1.8.4.1 0 .2-.1.2-.1-1.6-3-3.2-5.8-4.7-8.8zm51.5 1.8c.4-1 .7-2 .9-3.1-.4-.5-.7-1-1.3-1.2-.3.9-.6 1.9-1 2.8.4.7 1 1 1.4 1.5zM72.8 180h.2c-1.6-3-3.3-6-4.9-9-1.3-.5-2.6-.8-4-1 1.8 2.9 3.3 5.8 4.7 8.9.5.1 1 .3 1.6.5-1.1-3-3.2-5.5-4.4-8.6 1.4.6 2.1 2.5 3 4s1.7 3.4 2.4 4.9c.5 0 1 .1 1.4.3zm44.7-6.8c.4-.8.8-1.7 1-2.6-1.4-1.5-2.8-3-4.3-4.3-.9.4-1.5 1-2.4 1.3 1.8 2 3.8 3.7 5.7 5.6zm-26.9 3.1c.2-.7-.1-1.5-.8-1.9-.2.4.1 1.1.1 1.6.2.1.5.1.7.3zm29.7-5c.5-.9.8-1.9 1.2-2.9-.3-.4-.5-.7-1-.8-.2 1-.6 2-.9 2.9.1.3.5.4.7.8zm20-4.7c-.7 0-1.2-.4-2-.5 0 .6-.4.9-.3 1.5.7 0 1.1.5 1.9.5.2-.5.3-1 .4-1.5zm-77.2 3.2c-.5-.2-1.1-.3-1.6-.3 1.8 2.8 3.3 5.7 4.7 8.7.5 0 1.1.2 1.5.4.1 0 .2 0 .2-.1-1.5-3.1-3.2-5.9-4.8-8.7zm25.7 5.7c.4-.4 0-1.8-.3-2.1-.1.8 0 1.5.3 2.1zm-2-3.5c0 .9 0 1.8.2 2.6l.6.3c.2-.7-.1-2.7-.8-2.9zm36.8-2.3c.7-1.8 1.3-3.6 1.7-5.5-.5 0-.9-.2-1.4-.1-.4 1.5-.9 2.9-1.4 4.3.3.6.9.7 1.1 1.3z"/><path class="st1" d="M101.4 172.7c.4-.4.3-1.2.6-1.7-.3-.6-.8-1.1-1.4-1.4-.1.5-.3 1.1-.5 1.6.4.6.9.9 1.3 1.5zm-36.2 5.2c-1.5-2.7-2.8-5.7-4.6-7.9-.2 1.6 1 2.8 1.8 4.3.6 1.2 1 2.3 1.7 3.4.3.1.7.2 1.1.2zm72.5-12.1c-.9-.3-.7.9-1 1.3.7.8.9-.8 1-1.3zm-19.1 4c.4-.9.8-1.9 1.1-2.9-.9-1-1.8-2-2.7-2.9-.9-.9-2.2-1.6-2.4-3 .3-.1.4 0 .6 0 .1 1.1 1.8 2.1 2.6 3.1.1-1.2 1.8-1.3 3.3-1.5.1-.5.4-.8.3-1.4-1.1-.1-2.3-.3-3.4-.6-1.4-.3-2.6-1-4.3-.5-1.2.3-2.4.9-3.3 1.8 1 1.2 2.3 2.1 3.3 3.3.6-.4 1.3-.6 2-.8.1.5-.8 1.1-1 1.6 1.3 1.3 2.7 2.4 3.9 3.8zM94 173.2c.7-1.7 1.2-3.4 1.7-5.2-3.8-.3-7.4-.9-10.2-2.4.8-.1 1.6.1 2.4.4 2.6.7 5.3 1.2 8 1.4.3-.4.5-.9.5-1.5-5.1-.8-9.8-2-15.1-2.4 0 .5.8.7 1.3 1.1 3.8 2.5 7.8 5.7 11.4 8.6zm-31.2 4.2c-.5-1.6-1.4-3.2-2.5-4.5.1 1.3-.5 2.6-1.6 3.3 1.2.6 2.8.7 4.1 1.2zm22-6.6c.3 1.2-.1 2.7 1 2.9.3-.8-.2-3.2-1-2.9zm36.8-3.2c.5-1.2.9-2.5 1.4-3.7-.2-.3-.8-.2-1.2-.3-.4 1-.6 2.1-1 3 .2.6.6.7.8 1zM84 172.8c0-1-.1-3.5-1-3.2.1 1 .3 2 .4 3 .4 0 .5.1.6.2zm18.1-2.7c.4-.5.6-1.1.6-1.7-.6.1-1.3-.2-1.8 0 0 .8.9 1.1 1.2 1.7zm-20.3 2.2c.1-.2.5-.2.8-.2-.2-1.7-.5-4-1.6-4 .2 1.4.6 2.7.8 4.2z"/><path class="st1" d="M119.8 166c.5-.6.8-1.4.8-2.2-1 .1-1.5.5-2.4.6.5.5 1.1 1 1.6 1.6zm-9.9.9c-.8-.9-1.7-1.8-2.6-2.7-.8.2-1.5.6-2.3.8.7.8 1.6 1.4 2.2 2.3.9 0 1.6-.2 2.7-.4zm3.4-1.4c-.9-1.2-2.1-2-2.9-3.4-.7.7-1.6 1.3-2.5 1.8.9 1.1 1.9 1.8 2.9 2.9.8-.4 1.7-.8 2.5-1.3zm-6.9 1.8c-.6-.6-1.1-1.3-1.8-1.9-.3.6-.4 1.3-.6 2 .9-.1 1.5.1 2.4-.1zm-4.2.2c.2-.1 0-.5.1-.5.4 0 .5.2.7.4.4-.5.3-1.3.7-1.8-.4-.1-1.2.3-1.9.3-.3.4-.2 1.1-.5 1.5.1.3.7-.1.9.1zm-1.6-.2c.1-.5.4-.8.3-1.3l-1.4.2c-.1.3-.4.7-.1 1.1.3.1.8.1 1.2 0zm25-3.8c.3-.4.6-.9.7-1.5-1.4-.1-2.6-.4-3.9-.6 0 .4-.2.8-.3 1.2.7-.1 1.2.3 1.6-.1.5.5 1.3.6 1.9 1zM98.3 167c-.1-.6-.5-.7-.8-1-.3.4-.5.9-.6 1.4.6-.2 1.3.3 1.4-.4zM75 168.8c.1 0 .1 0 .1-.1-.3-.7-.6-1.5-.9-2.2s-.7-1.5-1.5-1.5c.8 1.2.9 3.4 2.3 3.8zm-2.2-1c.2-.9-.9-2-1.2-3.1-.3 0-.6-.1-.9-.2.2.8.9 2 1.3 3 .2.1.6.1.8.3zm-2-.4c0-.9-.9-1.8-1.1-3-1-.3-2.2-.5-3.3-.7.9 1 1.1 2.9 2.5 3.2-.3-.9-.7-1.7-1.1-2.5 1.5-.6 1.6 1.9 2.3 2.8.3 0 .5.1.7.2zm-30.5 3.9c-1.7-3.1-4.2-6.4-6.2-9.7-.2.4-.4.9-.4 1.4.7.3 1.4.5 1.7 1.2.2.3-.3.2-.5.3 1.7 2.5 3.2 5.1 5.4 6.8zm24.5-7.9c.6 1 .9 2.6 1.9 3.1.1 0 .2 0 .2-.1-.4-.8-.9-1.6-1.5-2.3-.1-.3 0-1-.6-.7zm-6.8 3.7c.6-2.3-1.8-3.3-3-4.4l.1 1c1.5.7 1.5 2.3 2.9 3.4zm5.3-4c.7.9.8 2.5 1.7 3 .1 0 .2 0 .2-.1-.7-1-.9-2.5-1.9-2.9zm-14.7 5.3c-.5-.8-1.6-.8-2.3-1.3 0 1.1 1 1.8 2.3 1.3zm23.9-4.2c-.6-1.3-1.6-3.1-3.5-3 .9 1.3 1.9 2.6 3.5 3zm-10.3 1.4h.3c-.4-1-.9-1.8-1.3-2.8-.3 1.2.8 2.1 1 2.8zM35 169.5c.2-.6-.9-1.5-1.2-2.3-6.8-3.2-15-4.1-24.2-4.3-1.4.1-2.8.2-4.2.5-.8.4-1 1.3-.7 2.5 1.9-.2 3.9-.5 5.8-1 4.2-.6 8.5-.7 12.8-.2 1.9.2 4 1.3 5.9 2 2 .7 3.9 1.6 5.8 2.8zm19.4-4.2c.5-.3-.3-.8-.2-1.4-4.8-2-9.4-4.2-14.1-6.3-.1.7.2 1.4.8 1.8.8-.5 2.5-.4 2.7 1.1 1 .4 2.1 1.4 3.2 1.4.5 0 .9-.1 1.4-.2 1.1 0 1.6.7 2.5 1.2.3.1.6 0 .9.2.9.7 1.4 2 2.8 2.2zm14.8-2.1c-.5-1-1.3-2.6-2.9-2.4.5.6 1 1.3 1.4 2 .5 0 1 .2 1.5.4zm-22.6 3.2c-.2-.1-.3-.4-.6-.3 0 .3.3.3.6.3zm11.1-2.2c0-.8-.1-1.5-.2-2.3-1.1-.5-2.1-1.2-2.9-2.1 0 2.5 2.2 2.9 3.1 4.4zm8.6-1.6c.1-.6-1-1.5-1.5-2.1-.3.1-.3-.1-.6 0 .5.9.9 2 2.1 2.1zm-4.5-2.5c.4.5.7 1.1 1.1 1.8.3 0 .6.1.9.2 0-.6-.8-2.3-2-2zm-16.7 2.5c-.4-.4-1-.4-1.4-.8-.5.6-1.2.9-2 .9-.7-.3-1-1.2-1.1-2.3-.6-.1-1.1-.4-1.6-.7-.6.6-1.6.7-2.2.1-.4-.4-.6-.9-.5-1.4-.9-.3-1.6-.9-2.5-1.1 1.1 1.5 1.2 3.3 2.3 4.4.8.8 2.4 1.1 3.4 1.6 1.2.6 2.3 1.1 3.4 1.6.5-1 1.2-1.9 2.2-2.3zm8.8.2c-.1-3-2.5-2.9-4.2-3.7.1.9-.6 1-.8 1.6 1.6.6 3.2 1.4 4.7 2.3.1-.1.1-.2.3-.2zm7.7-1.2c-.1-.3-.4-.4-.5-.8-.2.1 0 .5 0 .7.2 0 .3.2.5.1zm-4.3-.2c.3-3.2-2.4-3.4-3.5-5.1 0 2.9 2.7 3.1 3.5 5.1zm-4.1-1.8c-.1-.8-.3-1.5-.6-2.2-.8-.3-1.6-.7-2.4-1-1.3.9-2.4 0-2.6-1.3-3-1.4-6-2.9-9-4.4-.3.4 0 1.3.1 1.9.7.4 1.5.7 2.3 1 0-.2.1-.4.2-.6 1.5.4 3.4-.1 3.5 2.5.9.3 1.6 1.1 2.6.9 1.6 1.4 3.9 2 5.9 3.2zm-6 .2c.9-1.7-1.1-2.7-2.3-3.2-.3.5-.5 1.2-1.2 1.4 1.1.8 2.4 1.2 3.5 1.8zm-14.3 2c.2-.1.2-.4.3-.6-.2-.5-.7-.6-1.2-.8.4.5.7 1 .9 1.4zm23.7-4.3c-.2-2.1-2.3-2.7-3.4-3.9.7 1.8 2 2.6 3.4 3.9zm-29.2 3.8c-1-1.4-2.1-2.7-3.2-4-.3.1-.4-.1-.7 0 1 1.3 2.1 2.5 3 3.9.4-.1.5.2.9.1zm5.6-1.2c0-.6-.8-1.3-1-2-.5 0-.6.4-.7.8.3.7 1.1.8 1.7 1.2zm19.4-2.9c.1-1.4-.7-3.7-2.1-3.8-.2.3 0 1.2-.4 1.1.1 1.9 1.7 1.7 2.5 2.7zM25 160.8c-.6-1.2-2-2.4-2.9-3.6-.4.1-.5-.1-.8 0 1.3 1.2 2 3.2 3.7 3.6zm-2.5-.6c-.8-1-1.7-1.8-2.5-2.8-.4 0-.8 0-1.2.1 1.3.8 1.6 2.9 3.7 2.7zM3 162.8c1.4-2.1 5.9-2 9.1-2.8-.4-.8-1-1.3-1.4-2-3.7.6-9.6.2-7.7 4.8zm37.8-8c-1.2-.3-2.2-1.4-3.4-1.6-.3 0-.6.1-.9 0-.8-.2-.9-.8-1.6-1.4-1.4-1.1-3.8-1.4-5-2.5.1 1 1.1 2 1.5 3 1.6.7 3.1 1.5 4.6 2.3.3 0 .2-.3.5-.3 1.4 1 2.9 1.9 4.5 2.6.4-.3-.2-1.5-.2-2.1zm-21.2 5c-1-.8-1.3-2.4-3-2.3 1 .8 1.3 2.6 3 2.3zm16.7-2.4c.2-.4.4-.9.6-1.3-1.5-.8-3.1-1.5-4.6-2.4 0 .7.8 1.4 1 2.3.9.4 2 .9 3 1.4zm19.5-3.1c-.6-1.4-2.1-2.2-3-2.8.7 1.1 1.7 2.1 3 2.8zm-25.2 3.6c.3-.2.5-.4.9-.5-.4-1.1-1.2-2.1-2.3-2.7.1-.3.4-.3.7-.2-.5-1-.8-2.3-1.8-2.8-.2 1.1 1.1 1.6.6 2.8.8 1 1.3 2.3 1.9 3.4zm-13.2 1.9c-1-.8-1.3-2.6-3.3-2.1.9 1 1.3 2.6 3.3 2.1zm-3 0c.1-.5-1.2-1.4-1.7-2.1l-1.2.2c.5.7 1 1.3 1.6 2 .4-.1.9-.1 1.3-.1zm33-5.6c.5-.8 1.5-1.1 2.3-.7-.5-.9-1.6-1-2.3-1.5-.6.4-1 1-2.1.9.7.6 1.5.8 2.1 1.3zm-8-45.6c1.9 14.5 6.4 28 10 41.1.5 1.8.5 3.1 2 3.4-.5-2.2-1-5.5-2-7.4.4-1.6-.6-4-1.2-6.2-.5-1.6-1-3.3-1.4-4.9-.8-3.2-1.8-6.5-3-9.6-.5-2.8-1.1-5.5-2-8.1-.9-2.7-1.8-5.6-2.4-8.3zM55 151.8c0-1.7-2-2-2.7-3.2.1 1.6 1.9 2.1 2.7 3.2zm-35.4-34.7c-.3-.8-.5-1.7-.8-2.5 2 1.1 3.9 2.4 5.6 3.8 1.4.6 2.7 1.4 3.9 2.3 3.9 2.4 7.7 4.8 12.2 6.3-4.7-3.1-9.9-5.7-14.6-8.8.2-.5.3-1.1.1-1.6-.3-.5-.7-.2-1.1-.5s-.4-.9-.8-.6.1.9-.4 1.2c-.9-.5-1.8-1-2.7-1.6-.7-.4-2.3-.9-2.7-1.6-.3-.6-.5-1.3-.6-2-.7-2.1-1.2-4-1.8-6.1 7.9 4.5 15.6 9.4 23.8 13.5 2.4 12.1 6.3 22.1 9.5 33-.6-.1-1.2-.4-1.6-.8.6-1.6-.1-3.9-1.8-4.1-1.4-.2-2.7.6-3 2-.6-.4-1.3-.6-1.9-1-.2-.9-.5-1.8-1.5-1.7-.1.7.8.7.3 1.1-3.2-1.6-6.5-3.2-9.7-4.9-.3-1-.8-1.8-1.1-2.7.3-1.1-.1-3.1-1.4-3.1-2.9-5.6-5.1-12.1-7.4-18.4.4-.1.7.2 1 .4 5.8 3.7 11.8 7.6 18 10.5-6.1-4.5-13-8.1-19.5-12.1zm24.9 28.7c.2-.9-.2-1.9-1-2.4-2.1.5-1.1 4.3 1 2.4zm-8.4-2.1c1.1.4 1.3-2.8.1-2.6-.8.2-.8 2.4-.1 2.6zm4.8-3.4c.1-1 0-1.9-.5-2.8-.4-.8-1-1.3-1.7-1.7.7 1.2.2 5.1 2.2 4.5zm-7.9-4.5c0-.2.1-.3.3-.4-.1-.9-.4-1.7-.9-2.4-1.2 0-.7 2.1-.4 2.7.3.2.7.2 1 .1zm2.6-2.6c-.2.5-.3 1.1-.2 1.7 1.5 1.4 2.3-2.2.2-1.7zm-2.1-16.4c-.4 0-.3.3-.4.5-.4 0-.6-.4-1.2-.1-.6.7-.6 1.8-.1 2.5 1.2 1.6 3.7-.1 2.7-2.3-.2-.5-.4-.6-1-.6zm7.9 32.4c-.4.1-.2.6-.8.6s-.8-.6-.8-1.4c-3-1.5-6-2.9-8.9-4.6.1.8.9 1.7 1.1 2.7 4.1 1.9 8 3.9 12 6 .2-1.6-1.4-2.9-2.6-3.3zm12.9.1c.1-2.5-2-3.1-3-4.5-.1 2.4 1.9 3.2 3 4.5zm-18 .3c-3.1-1.7-6.3-3.2-9.4-4.9.6.9.9 2.2 1.7 2.9 1 .6 2 1.1 3 1.5 1.1.5 2.2 1 3.2 1.6.6-.2.7-.9 1.5-1.1zm-8.8.7c.1-.3-.2-1-.6-1.1.1.4-.1.5-.1.9.3 0 .4.2.7.2zm25.9-4.2c-1-4.8-2.9-9.5-4-14.5-.3-.3-.8-.7-1.2-1.1s-.8-1-1.1-.7c.5 1.6 1.7 2.2 2.3 3.6-.7-.3-1-1-1.6-1.5.8 3.5 2.1 7.3 2.9 11.2.9.9 1.9 1.9 2.7 3zm-27.5 2.8c.2-.5.3-.9.3-1.4-.4 0-.4-.4-.9-.3-.1.7.3 1.2.6 1.7zm5.4-2.7c.2-.2-1-2.4-1.4-2.8-1.1-1.1-3.9-1.7-5.1-2.9.3 1 .8 2 1.3 3 1.8 1 3.6 1.7 5.2 2.7zm-6.6-.4c.2-.7.1-1.5-.3-2.2-.3.6-.4 1.3-.3 2.1.3-.1.3.3.6.1zm-1.4-1.7c.3-.2.1-.7.3-.9-.2-.2-.5-.4-.8-.4.1.5.3.9.5 1.3zm.3-1.6c.5-.3-.3-.8-.3-1.3-.2.2-.3.5-.3.8 0 .4.5.2.6.5zm-1.6-1.2c.5-.1.3-1 .9-.8-.1-.5-.4-.8-.5-1.3-.5.4-.4 1.3-.4 2.1zm-1-2.1c.3-.1.4-.5.3-.8 0 0 0-.1-.1-.1.1-.1.3-.2.6-.2-.3-.7-.7-1.4-.9-2.2-1.1.7-.3 2.2.1 3.3zm26.8-12.7c.1-1.9-1.6-2.4-2.4-3.4-.1 1.7 1.5 2.4 2.4 3.4zm-.9-3.3c.1-2.1-1.5-2.9-2.5-4-.2 2.2 1.5 3 2.5 4zm-1-3.6c.1-1.7-1.5-2.2-2.2-3.1-.1 1.7 1.5 2.1 2.2 3.1zm-6.3-.9c0-1.1-.6-2.6-.7-4-3.4-1.4-6.2-3.5-9.4-5.2.4.7.5 2.1-.3 2.3 3.5 2.3 7.2 4.3 10.4 6.9zm5.6-2.2c.2-1.8-1.5-2.1-2.2-3.2-.4 2 1.4 2.2 2.2 3.2zm-.7-2.9c.2-2-1.6-2.3-2.3-3.5-.2 2.1 1.5 2.6 2.3 3.5zm-5.8.6c-.2-2.5-1.1-4.9-1.5-7.5-2.3-.9-4.5-2-6.5-3.4 0 .5.8 1.5.6 2.3 2.1 1.4 4.6 2.2 6.3 4.1-.9.3-1.5-.7-2.3-.8.2 1.1.1 2-.7 2.2 1.1 1.3 2.8 1.9 4.1 3.1zm-26.1 1.2c0-.9-.2-1.8-.6-2.7 0-.1-.2-.6-.2-.4.2 1 .5 2.1.8 3.1zm31.3-4.6c.3-2.2-1.7-2.8-2.5-3.4.1 2.1 1.6 2.3 2.5 3.4z"/><path class="st1" d="M31.8 109.8c.1-.8.4-1.6.9-2.3-.8-.3-1.5-.7-2.2-1.2-1.1.6-1.8-.4-2.2-1.3-2.5-1.3-4.8-2.8-7.4-4-.5.3-.8.8-1.3 1.1 4.1 2.7 8.2 5.1 12.2 7.7zm11.6-2c.3-2.5-1.8-2.7-2.7-4.1-.3 2.4 1.6 3.1 2.7 4.1zm-17.6 2c.4-.3.2-1 .6-1.3.3-.1.7-.2 1-.3.1-.5-.5-.5-.9-.7-2.5-1.6-5.4-3.5-8-4.9-2 .3-2.6-1.4-3.7-2.3.2 1.2.4 2.4.8 3.6 3.5 1.9 6.9 3.9 10.2 5.9zM37 106c.2-1.7-1.8-2.3-3.1-3.1-6.9-4.2-14.4-8.7-21.3-12.6l.3 1.8c.8.6 1.7 1.1 2.6 1.5.8.6 1.6 1.1 2.5 1.5.6.2 1 0 1.5.2.8.3.9 1 1.6 1.6.7.4 1.4.8 2.1 1.1 4.2 2.4 9.6 5.4 13.8 8zm5.8-1.5c.2-2.3-1.9-2.7-3-3.7.2 2.4 2 2.5 3 3.7zM31.9 75.3c1 9.4 2.9 19.4 4.5 28.1-.2 0-.3-.2-.4-.3-3.4-2.4-7.5-4.7-11.8-7.3-2.8-1.6-6-3.5-9-5.2-1-.6-2.6-1.3-2.9-1.9-.9-1.6-.8-4.9-1.1-7-1.1-6.8-1.8-13.7-2-20.7 7.3 4.7 15 9.9 22.7 14.3zm-5.6 19.9c.1 1 .4 1.7 1.5 1.4 1-1-.8-2.8-1.5-1.4zm-6.1-10.1c-.5-.1-.9 0-1.3.2-.4.7-.5 1.6-.3 2.4.3.7 1 1 1.7.8.3-.1.6-.4.8-.8 0-1-.3-1.9-.9-2.6zm6.3-.5c-.1.2-.1.3-.3.4.1 1.5 2.4 1.8 2.3.4 0-.8-1.2-1-2-.8zM23 83.1c.7.2 1.4-.2 1.7-.9 0-.1.1-.3.1-.4-.4-2.5-4.4.7-1.8 1.3zm-4.6-3.9c-2.8-1.3-2.8 3.5-.9 3.7 2.4.4 1.9-2.4.9-3.7zm-5-12.8c-.1-1.4-.6-2.4-1.5-2.4-3.1.1 0 5.5 1.5 2.4zM29.9 103c-2.8-1.7-5.6-3.3-8.5-4.9.2.7.2 1.4.1 2.1 2.2 1.3 4.5 2.4 6.7 3.8.4-.3.7-.9 1.7-1zm12.2-1.7c-.6-3.2-1.7-10.8-2.5-14.7-.1-.8-.2-1.5-.3-2.3-.4-.9-1.9-1.5-2.5-2 .6 5.7 1.6 11.6 2.7 17 .8.9 1.9 1.1 2.6 2zm-28.5 1.5c-.3-1.1-.2-2.4-.7-3.4s-1.6-1-2.2-1.5c.3 1.1.5 2.4.7 3.6.7.4 1.4.8 2.2 1.3zm4-2.7l.6-.1c-.1-.7-.7-.6-1-1-.2.3.3.7.4 1.1zm1.5-1.1c.4-.7-.2-2.6-1.1-1.8.4.6.7 1.2 1.1 1.8zm-4.6.3c.2-.5-.2-1.3.2-1.6-.1-.4-.4-.4-.6-.6 0 .8.1 1.6.4 2.2zm-5.5.3c.2.2 0-.8 0-1-.3-.2 0 .7 0 1zm3.3-1.5c.3-.4-.3-1.5-.3-2.2-.7-.3-1.3-.6-1.9-1.1-.2.7.3 1.6.3 2.3.8.2 1.4.6 1.9 1zm-3.7 0c-.1-1.6-.4-3.2-.8-4.7-.1 1.6.7 3 .8 4.7zm8-2.7c-1.1-.8-2.3-1.4-3.5-2 .2.8.4 1.8.6 2.6.4.3.9.4 1.3.8.7-.3.8-1.1 1.6-1.4zm-5-.5c0-.8-.1-1.7-.4-2.5-.4-.8-1.4-.8-1.8-1.3 0 .8.1 1.7.3 2.5.5.8 1.6.8 1.9 1.3zm-4-2.2c-.2-2.3-.5-4.6-1.1-6.8.2 2.3.6 4.6 1.1 6.8zm3.3-1.7c.3-1.4-.5-2.8-1.9-3.1-.1 2.1.8 2.5 1.9 3.1zm-.5-3.3C9 79.5 8.1 71.3 7.6 63.1c-.1-2.4.1-4.1-1.7-4.4.3 7.2 1 15.8 2.3 24.3.4 2.5.3 4.2 2.2 4.7zm28.7-4.9c-.1-.5-.2-1-.3-1.4-1-.1-1.6-1.3-2.3-1.4.2 1.8 1.6 2.1 2.6 2.8zm-.4-2.1c-.1-2-1.9-2.3-2.6-2.9.2 1.9 1.7 2 2.6 2.9zM6.6 85.3c0-2.6-.5-5.6-.8-8.1-.1-.2-.7-.1-.7-.9.3 3 .7 6 1.5 9zm31.7-7.1c-.2-.9-1.8-1.8-2.4-2.2.5 1.2 1.7 1.4 2.4 2.2zm-.4-1.9c.1-.1.2-.1.2-.2-.4-1.4-1.8-1.7-2.5-2.7-.2 1.7 1.6 1.9 2.3 2.9zm-.4-2.6c.4-1.7-1.9-2-2.5-3.2-.1 1.9 1.8 2.1 2.5 3.2zm-.3-2.6c.4-1.7-1.8-1.9-2.4-3-.4 1.7 1.7 2 2.4 3zm-5.7-1c.7-2.5-1.3-2.9-2.9-3.9-6.5-3.9-13.5-8.7-19.6-12.3.1.7-.2 1.5 0 2.1s1.5 1 2.3 1.6c1.2.8 2 1.5 3.2 1.6.3.2.5.5.6.9 5.7 3.2 11 6.6 16.4 10zm3.3-4.3c-.3.2-.1.8-.1 1.2.9.5 1.6 1 2.4 1.7.6-1.7-1.8-1.8-2.3-2.9zm2 .4c.4-.3.1-1.1.1-1.8-.8-.2-1.5-.6-2.1-1.2-.7 1.7 1.3 2.1 2 3zm-5.4.6c0-1-1-1.5-1.6-1.9-2-1.3-4.1-2.5-6-3.9-1 .4-1.9.1-1.9-1.2-1.1-.7-2.2-1.4-3.3-2.2-.5.4-1.3.4-1.8-.2-.3-.3-.3-.7-.2-1.1-2.5-1.6-5-3.3-7.5-5-.7 2.1 1 2.3 2.7 3.3 2.8 1.6 5.6 3.5 8.1 5.1 4.6 2.9 7.8 4.7 11.2 7 .1.1.3 0 .3.1zm-.3-2.2c.6-2-1.4-2.7-2.7-3.6-6.3-4.3-12.9-9.3-19.3-13.1.1.8 0 1.6-.1 2.3 2.7 1.9 5.5 3.5 8.2 5.4.6.1.5-.4.9-.4.6.4 1 1 1.1 1.7 1.2.4 1.9 1.8 3.2 2.1.4.1.7-.1 1.1.1.6.3.4.6.8 1.1 1.1.8 2.2 1.5 3.4 2.1 1.2.8 2.4 1.7 3.4 2.3zm5.6-1.4c0-.9-1.5-1.6-2-1.9 0 1.1 1.4 1.3 2 1.9zm-.1-1.6c.5-1.4-1.4-1.4-1.8-2.4-.3 1.2 1.4 1.6 1.8 2.4zM21.8 44.5c-4.3-1.9-8-5.3-11.8-7.5-.3 2.3-.6 4.6-.7 7.2-.1.8-.2 1.7-.1 2.5.2.5 2 1.4 2.7 1.9 4.7 3 9.5 6 13.8 9.3 1.7 1.4 3.4 2.6 5.3 3.7.1-1.8-1.4-2.2-2.6-3.1-5.5-4.1-11.4-8.3-16.7-12.4 1.7.9 3.3 1.9 4.9 3 4.7 3.2 9.4 6.9 14.1 10.1-.1-1.1-.1-2.1-.1-3.1s.2-2.4-.1-3.1c-.3-.6-1.8-1.1-2.4-1.5-.8-.4-1.6-1.1-2.1-1.9.9-.1 1.6.8 2.3 1.2.8.5 1.5 1 2.1 1.7.1-.6.1-1.3-.1-1.9-1.4-1.3-3.4-1.9-4.5-3.6.8-.1 1.6.6 2.3 1.1s1.4 1.1 2.1 1.5c.5-3-2.5-2.7-3.4-4.6 1.2.4 2.3 1.7 3.3 2-.1-2.1-.2-4.1-.4-6.3-4.5-1.4-8-4.2-11.9-6.6-.1.6-.3 1.1-.6 1.6 1.1.7 1.9 1.2 3.1 2 .2.1.9.7.9.7.4 0 .8-.8 1.3-.8 1.3 0 .6 1 1.2 2.1.4 1 2.4 1.2 2.9 2.3-1.3.2-2.4-1.2-3.5-1.5-.7-.2-1.7.1-1.8-1-3.6-2.1-7.3-4.9-10.6-6.9-.2.4-.1 1-.2 1.3 2.2 1.5 4.4 2.9 6.6 4.4.6-.3 1.4-.3 1.9.1.2.4.4.9.4 1.4 1.6 1 3.1 2.1 4.5 3.4-1.8-.4-2.9-1.6-4.5-2.3 0 .6-.2 1-.9 1.1 1 .8 2.4 1.3 3.3 2.5zm14.8 15.1c.4-1.3-1.3-1.7-1.9-2.4-.1 1.4 1.3 1.5 1.9 2.4zm-.1-1.9c.7-1.8-.7-3.1-1.8-3.8-.4 2.1 1.1 2.6 1.8 3.8zm.1-3.4c.5-1.4-1.3-1.7-1.7-2.7-.4 1.3 1.2 1.8 1.7 2.7zM7.3 58.5c.4-.5.1-1.5.1-2.3-.5-.4-1.2-1.2-1.7-1.1.2.9 0 1.5.2 2.4.5.2 1 .6 1.4 1zm29.2-6.7c.5-1.3-1-1.9-1.7-2.4.2 1.4 1.2 1.6 1.7 2.4zM4.1 56.3c.1-.6.5-2.2-.2-2.5.3.9-.1 1.8.2 2.5zm3.1-1.2c.4-1.2.4-3.2-1.1-3.2.3-.3 1 0 1.2.3.2-.5 0-1.3.2-1.8-.4-.5-1-.9-1.5-1.1l-.3 4.8c.3.4 1.1.5 1.5 1zm29.2-5.7c.4-1.1-1-1.7-1.6-2.2.1 1.4 1.1 1.4 1.6 2.2zM4.2 53.2c.1 0 .1-.1.1-.1s0-.1.1-.1c0-2.1.1-4.3.3-6.4.3-2.1.3-4.2.6-6.2.5-2.9 1.1-5.7 1.9-8.5.2-.7.9-2.1-.5-2.4-1.4 7.3-3.4 14.9-2.5 23.7zm32.2-6c.7-1.2-.8-1.8-1.3-2.4-.7 1.2.9 1.6 1.3 2.4zm-3.6-1c.1-.3.2-.6.1-.9-.4 0 0 .6-.1.9zM7.3 49.3c.6-1.5.2-3.5-1.3-3.5-.1 1.6-.1 3 1.3 3.5zm29.1-4.5c.4-1-1.1-1.7-1.5-1.8.5.7 1.1 1.1 1.5 1.8zm-3.6-.9c.3-.2.2-1 0-1.4-.3.2.1 1 0 1.4zm3.6-1.2c.4-.2 0-1 .2-1.4-.3-.6-1-.8-1.4-1.3-.7 1.4.6 1.8 1.2 2.7zM7.5 45.8c.5-3.3.7-6.7 1.4-9.8 0-.3-.3-.2-.4-.5.1-.3.4.1.5-.2-.1-.7.6-1.5 0-2 .5-.1.5-1.1.7-1.7-.3-.4-.9-1-1.3-.9-.8 4.6-2.3 8.7-2.3 13.9.4.5.9.9 1.4 1.2zm25.6-4.5c.1-.5-.4-.4-.4-.8-.3.2 0 .9.4.8zm3.4-1.4c.1-.6.1-1.1.1-1.7-.6.4-.9-.6-1.5-.6-.2 1.2 1 1.5 1.4 2.3z"/><path class="st1" d="M29.6 40.4c0-2.1.1-4.2-.1-6.4-1.2-.8-2.5-1.5-3.9-2.1.2.6.6 1.8.1 2.2 1.1 1 2.7 1.2 3.7 2.3-1.6-.2-3-.7-4.4-1.6-1.6 0-2.8-.3-3.2-1.9-.9-.4-1.8-1-2.7-1.6-1.4.8-2.7-.1-2.8-1.8-2.9-1.8-5.5-4-8.2-6-.4 1.8-1.1 3.4-1.3 5.4.4-.1.5.3.9.3.1-.8.7-1.6.5-2.3.6-.4.8-1 .7-1.7.4.4-.1.9.1 1.5.4.4.9.8 1.5 1 .1-.4.3-.8.4-1.2.3.3 0 1 0 1.4 5.8 4.9 12.6 8.3 18.7 12.5zm3.3-1c.5-.5 0-1.6-.5-1.8-.4.5.1 1.5.5 1.8zm3.6-1.3c.1-.6.2-1.1.2-1.7-.5-.4-1.1-1.1-1.6-1 .1 1.4 1.3 1.3 1.4 2.7zM16 40.3c0-.6 0-1.3.3-1.8-2.1-1.2-3.9-2.8-6-4 0 .6-.1 1.1-.2 1.7 1.9 1.5 4 2.6 5.9 4.1zm17-3.7c.7-.9-.6-1.4-1-2-.4 1.1.6 1.6 1 2zm3.5-1.4c.2-.4 0-1.1 0-1.7-.5-.2-1-.6-1.3-1-.6 1.3 1 1.7 1.3 2.7zm-3.3-.8c.7-1-.8-1.8-1.4-2.2.1.3.1.7.1 1.1.4.3 1 .5 1.3 1.1zm3.2-2.2c.3-1.2-1.1-1.7-1.6-1.9.2 1.1 1.1 1.2 1.6 1.9zM12.6 18.4c-.4.9-.8 1.8-1.2 2.8.3.4.9.3 1.4.3.3.2.5.6.5 1 5.2 3.8 10.6 7.2 16.3 10.2-.4-.9.4-2.5-.1-3.6-.1-.2-.1-.2-.3-.3-1.4-.6-2.7-1.2-4-1.9-1.1-.6-2.9-2.1-3.7-2.2-1.2-.1-1.7.6-2.8.5-1.6-.2-3-1.5-3.3-3.1 0-.6-.1-1.1-.2-1.7-.4-1-1.6-1.2-2.6-2zm20.9 13.7c.7-1.3-1-1.8-1.6-2.6-.6 1.3 1.1 1.8 1.6 2.6z"/><path class="st1" d="M15.1 34.1c.4-.4.2-1.2.9-1.4-1.6-1.2-3.3-2.4-4.9-3.6-.3.5-.1 1.4-.4 2 1.4 1.1 3 1.9 4.4 3zm6.8-2.1c.2-.8.9-1.4 1.7-1.3-3.5-2.3-7.1-4.4-10.3-7 0 .6-.5 1-1 1-.3 0-.6-.2-.8-.4-.1-.9.6-1.9-.3-2.3-.6.4-.7 1.2-1 1.8 1.9 1.9 4.4 3.2 6.5 4.9 1.5-1.5 3.3-.2 3.2 1.9.5.7 1.4.9 2 1.4zm11.9-2.2c.1-.1 0-.3.2-.3-.6-.9-1.5-1.3-2.1-2.2-.4 1.3 1.4 1.6 1.9 2.5zm-4.4-1c0-2-.1-4-.4-5.9-1.9-.5-3.5-2-5-2.6.5 2-.1 3.1-1.2 3.9 2 1.5 4.6 2.6 6.6 4.6zm6.5-1.7c.2-.1-.1-.6 0-.9-.9-.6-1.4-1.7-2.5-2-.4-1.2-1.4-1.5-1.9-2.4-.2.4.1 1.2 0 1.6 1.6 1.1 3 2.4 4.4 3.7zm-25.5 1.6c-.4-.5-.9-.9-1.4-1.2l-.3 2.1c.2.5.8.4 1.1.9.5-.3.3-1.2.6-1.8zm25.1-4.4c.2-1.3-1.2-1.6-1.6-2.5-.5 1.4 1 1.7 1.6 2.5zm-2.6-2.1c.1-1.1-.4-2.1-1.3-2.7-.3-.4.1-1-.4-.9.2.8.2 1.7.3 2.5.3.5 1.1.5 1.4 1.1zm-4.1.4c.2-1 .1-2-.2-3-.3-.6-2.3-1.5-3-2-3-2-6.1-4.3-8.7-6.2-.1.6-.7.9-.9 1.5 1.1 1.1 2.4 2 3.6 3.1 2.3-.2 3.4 1.2 4.2 3 1.4 1.3 3.3 2.3 5 3.6zm-7.8.2c1.1.1 1.6-1 1.1-2.4-.1.9-.5 1.7-1.1 2.4zm13.7-2.6c.2-1.1-.4-2.2-1.4-2.8-.3 1.5.8 2.1 1.4 2.8zm-24.5 1.2c-.2-.4-.6-.6-1-.7l-.6 2.1c.2.5.7.5 1 .9.4-.6.2-1.7.6-2.3zm10.2.6c.3-.3.5-.7.6-1.1-1.1-.6-1.8-1.6-3-2 .3 1.2 1.8 1.9 2.4 3.1zm.5-1.7c.4-.1 0-.9 0-1.4-.5-.2-.8-.7-1.6-.6.5.8 1.3 1.1 1.6 2zm7.4-1.8c.4-2-1.4-2.6-2.6-3.5-2.2-1.6-4.1-2.8-6.3-4.6-.3-.2-.9-1-1.1-1s-.7 1-.8 1.2c3.4 2.8 7.2 5.2 10.8 7.9zm3.8-.7c.1-1.1-.3-2.1-1.1-2.8-.3 1 .2 2.1 1.1 2.8zm-21.7 2.6c.5-.9.8-1.9 1.1-2.9-.1-.4-.4-.7-.9-.8-.4 1-.7 2.1-1 3.2.3.2.6.2.8.5zm4.7-1.3c.5-1.5 1.8-2.6 3.4-2.9-1-.9-2.1-1.6-3-2.6-.9 1.2-1.8 2.5-2.4 3.8.5.7 1.4 1 2 1.7zm18.7-2.8c-.1-1.9-1.2-3.7-1.7-5.6.3 2 .5 4.6 1.7 5.6zm-6.2-1.1c.1 0 .1-.1.1-.2-.3-.8-.9-1.6-1.6-2.1-2-1.6-4-3.3-5.8-5.1-.5.2-.9.4-1.4.6 2.4 2.6 5.9 4.6 8.7 6.8zm3.6-1.2c.3-.6-.4-.9-.5-1.3-.3.6.3.9.5 1.3zm-17.1-1.5c-.3-.6-.8-.8-1.1-1.2-.3.5-.7 1.3-1.1 2.2-.4 1.2-1.3 2.4-.2 3.1 1.1-1.2 1.1-3.2 2.4-4.1zm13.3 1.4c.1 0 .2 0 .2-.1-.7-4-2.5-6.5-4.2-9.2-1.6.3-3.1 0-4.5.3.2.4.5.7.9.8 1.8-1.7 3.9.5 1.6 1.6 2.1 2 4.2 4.2 6 6.6zm-12.2-3.2c-.5-.1-.4-.8-.3-1.1-.3-.2-.5-.6-1-.7l-.9 1.8c.3.6.9.7 1.3 1.2.6-.2.6-.8.9-1.2zm.1-1.8c.5-.3.8-.7 1-1.2-.4-.3-.7-.6-1-.9-.4.3-.5.9-.9 1.2.2.4.8.4.9.9zm3.3-2.5c-.1-.6-.6-.6-.8-1-.6.2-1.2.6-1.8.8.6 1.1 1.5.9 2.6.2zm152 197.7c-.3-.2-.7-.3-1.1-.3.2.3.7.2 1.1.3zm-3.2-.5c.1-.1 0-.1 0-.2-7-2.1-14.4-3.4-21.7-4.8-3.7-.7-7.2-1.8-10.8-2.5s-6.9-2.2-10.4-2.7c-1.6-.8-3.3-1.3-5-1.5-7.5-2.5-15.5-3.4-23.6-5.1-2.6-.5-5-1.4-7.5-2.2-5.2-1.4-10.4-2.6-15.7-3.5-2.6-.5-5.1-1.5-7.6-2-1.4-.3-2.7-.5-3.9-.9-1.1-.5-2.4-.9-3.6-1 .2.5.9.5 1.4.6 3.8 1.1 7.9 2.2 11.8 3.2 4.5 1.2 9 2.6 13.5 3.6s8.9 2.8 13.4 3.7 9.3 2 14 2.9c9.2 1.9 18.3 4.5 27.6 6.3s18.6 4.1 27.9 6c.1 0 .1 0 .2.1zm-12.6-9.4c.1-.2-.4-.7-.7-.7.1.2-.1.3 0 .5.2 0 .5 0 .7.2zm21.7-17.2c-.3-.2-.6-.3-.9-.3.1.3.5.3.9.3zm-64.7 6.7c-3.1-3-6.8-6.3-10.1-9.5-.3 1.2-.9 2.2-1.2 3.4 3.4 2.5 7.4 4.2 11.3 6.1zm-14.1-4.6c-1.7-1.2-4.2-2.3-6.2-3.4.1.4.1.8.2 1.1 2 .7 4 1.6 6 2.3zm-11.3-3.5c-.7-.8-1.9-2.3-3.1-1.9-.4-.5-.9-.8-1.4-1.1-.2 0 0 .4-.1.4-1.3-1.3-1-4.7-2.1-6.2.5-.1 1.1.2 1.4.6 1.6.7 3.1 1.7 4.4 2.7l.7-.1c.4.2.4.8.7 1.1 1.5.2 2.2 1.5 3.5 2.1-4.5-3.9-9.6-8.3-15.2-11.2-.1.5.8 1 .9 1.8-1.4 0-1.7-2.5-3.8-2 1.4 2.4 3 4.4 3.9 7.5.5.3 1.1.6 1.7.8-.8-1.7-1.4-3.7-2.7-4.7 2.1-.3 2.7 3.3 3.5 5.3.3-.1.4.2.6.1-.6-1.6-.8-3.3-.7-5 .5.2.6 1 .7 1.6.3 1.4.5 3.1.6 4.2-1.4-.8-3.4-.8-4.9-1.4-.4-.1-.3.1-.6.2-1.5-1.2-4.6-1.3-6.8-1.9-2-.6-4-1-6.1-1.1-.1.4-.1.8 0 1.2 4.6.3 8.8 1.7 12.9 2.9 4.1 1.1 8.1 2.4 12 4.1zm-47.6-9.9c.3-.1.8.5.9 1 3.1 3.9 6.6 7.4 11 9.5.6-.3 1.1-.6 1.6-1 .2-.8-.7-1.5-.6-2.4.1-.6.7-1 1.3-.8.5.1.8.5.8.9.8-.7.6-2 1-3 .4-.1.5.3.5.7.2 0 0-.4 0-.6.6 2 .2 4.2-1 5.9-.9.2-1.5.8-1.8 1.6.6 0 1-.3 1.6-.3 0-.2-.1-.4-.1-.5.6-.1.9.2 1.6 0 1.3-2.6 3.4-4.6 2.4-8.9-.5-.1-1.1-.3-1.6-.5.3.7.6 1.3 1.1 1.8-1.3-.8-2.4-3-4.6-3.1.1 1.3.4 2.8-.5 3.3-.6-.8.2-4.1-1.4-4.1.5 1.1.5 2.4 0 3.6.2-.1.2.1.3 0 .1.2-.3 0-.3 0-.9 1.4-2.5 2.1-4.2 1.9-1.9-.4-3.1-2.5-3.6-4.5-2.2-.9-4.2-2-6.4-2.9.7 1.3 1.6 2.4 2.3 3.7.5-.5-.1-.9-.3-1.3zm24.9.2c.1-.5-.5-.9-.6-1.5-.2 0 .1 1.4.6 1.5z"/><path class="st1" d="M49.3 167.6c-.1-1.5-1.6-1.4-2.2-2.2.5.9 1.3 1.6 2.2 2.2zm7.5-1.1c-.4-.5-.9-1-1.5-1.4 0 .2.1.5.1.7.5.2 1 .4 1.4.7zm-24.9-1.9c.1-.3-.5-.5-.6-1-6.5-1.7-13.2-3.9-21.9-2.3 5.1.1 9.9-.1 14.3 1 2.9.6 5.6 1.3 8.2 2.3zm-2.7-22.4c.1-.4-.6-1-.7-1.7-2 1.1-3.1-2.5-1.7-3.7-3-4.9-5.1-11.2-7.5-17.1-.6-1.6-.8-3-2-3.7.2-.3.4.2.8.1-.5-1.1-.5-3-1.7-3.4.1-.1.6 0 .5-.2-1-2.8-1.9-5.7-2.8-8.6-.8-.5-1.6-.9-2.4-1.3 2.9 14.2 7.9 25.7 12.9 37.2 1.5.8 3.1 1.6 4.6 2.4zm-9.6-6.3c.3-.2.4-.6.8-.8-2.7-5.8-5.3-12.6-7.5-18.9 1.7 6.8 3.9 13.3 6.7 19.7zm29.1-6c.1-2-1.6-2.6-2.4-3.6 0 1.9 1.6 2.5 2.4 3.6zm-29.8-64c4.2 2.9 8.5 5.5 12.9 7.9-.3-.6.1-1.7-.1-2.4s-3.4-2.1-4.2-2.6c-4.1-2.5-8.6-5.4-12.3-7.8-.4.5-1.2.6-1.7.1-.4-.3-.6-.9-.3-1.4-1.3-.7-2.8-1.9-3.9-2.4.1.7-.2 1.4.1 2.1.2.4 1.4 1.1 1.9 1.4 1.9 1.2 4.3 2.7 6 3.9.2-.6.3-1.3.9-1.6 1 .2 2.3 2.2.7 2.8zM4.1 59c.1-.7.1-1.3 0-2-.2.5 0 1.4 0 2zm32.1-28.8c.1-.5.1-1 0-1.5-1.6-1.3-3.1-2.7-4.4-4.3-.8 2.1 1.4 2.6 2.2 3.7.3-.1.1-.6.1-.9h.2c.5.2.1.9.3 1.4l1.6 1.6zm-1.1-8.1c.3-.7-.7-.9-1-1.2-.1 0 .8.7 1 1.2z"/></svg>