<svg width="292" height="263" fill="none" xmlns="http://www.w3.org/2000/svg"><mask id="path-1-inside-1_12_140725" fill="#fff"><path d="M75.5 40.498a275.28 275.28 0 00-2.47-.702c-32.867-9.185-49.3-13.777-61.165-4.773C0 44.026 0 61.748 0 97.19v105.324c0 28.284 0 42.426 8.787 51.213 8.787 8.787 22.929 8.787 51.213 8.787h172c28.284 0 42.426 0 51.213-8.787C292 244.94 292 230.798 292 202.514V49.991c0-13.854 0-20.78-4.621-28.111-4.621-7.331-9.199-9.52-18.356-13.898C261.627 4.446 253 1.419 244 .512 175.245-6.414 141 59.499 75.5 40.499z"/></mask><path d="M75.5 40.498a275.28 275.28 0 00-2.47-.702c-32.867-9.185-49.3-13.777-61.165-4.773C0 44.026 0 61.748 0 97.19v105.324c0 28.284 0 42.426 8.787 51.213 8.787 8.787 22.929 8.787 51.213 8.787h172c28.284 0 42.426 0 51.213-8.787C292 244.94 292 230.798 292 202.514V49.991c0-13.854 0-20.78-4.621-28.111-4.621-7.331-9.199-9.52-18.356-13.898C261.627 4.446 253 1.419 244 .512 175.245-6.414 141 59.499 75.5 40.499z" fill="#E2FCFF"/><path d="M73.03 39.796l2.153-7.705-2.153 7.705zm2.47.702l-2.229 7.684 2.229-7.684zM244 .513l.802-7.96L244 .513zm25.023 7.469l-3.45 7.217 3.45-7.217zM8.787 253.727l-5.657 5.657 5.657-5.657zM287.379 21.88l-6.768 4.265 6.768-4.265zm-4.166 231.847l-5.657-5.657 5.657 5.657zM11.865 35.023l4.836 6.372-4.836-6.372zM70.877 47.5c.846.237 1.645.464 2.394.682l4.458-15.367c-.807-.234-1.657-.476-2.546-.724L70.877 47.5zm2.394.682c36.052 10.457 63.561-2.79 88.962-16.058 25.788-13.47 49.376-26.834 80.965-23.652l1.604-15.92c-37.166-3.744-65.078 12.384-89.976 25.39-25.285 13.207-47.649 23.415-77.097 14.873L73.27 48.182zm169.927-39.71c7.793.785 15.503 3.442 22.375 6.727L272.474.764c-7.921-3.787-17.466-7.183-27.672-8.211l-1.604 15.92zM-8 97.19v105.324H8V97.19H-8zm68 173.324h172v-16H60v16zm240-68V49.991h-16v152.523h16zm-308 0c0 13.916-.017 25.157 1.17 33.984 1.217 9.056 3.832 16.758 9.96 22.886l11.314-11.314c-2.66-2.659-4.438-6.422-5.417-13.704C8.017 226.853 8 216.882 8 202.514H-8zm68 52c-14.368 0-24.34-.017-31.852-1.027-7.282-.979-11.045-2.758-13.704-5.417L3.13 259.384c6.127 6.127 13.83 8.742 22.886 9.96 8.826 1.187 20.068 1.17 33.984 1.17v-16zM265.573 15.199c9.18 4.39 11.768 5.758 15.038 10.946l13.536-8.531C288.175 8.14 281.607 5.13 272.474.764L265.573 15.2zM300 49.991c0-13.271.228-22.73-5.853-32.377l-13.536 8.531c3.161 5.015 3.389 9.41 3.389 23.846h16zm-68 220.523c13.916 0 25.158.017 33.984-1.17 9.057-1.218 16.759-3.833 22.886-9.96l-11.314-11.314c-2.659 2.659-6.422 4.438-13.704 5.417-7.512 1.01-17.484 1.027-31.852 1.027v16zm52-68c0 14.368-.017 24.339-1.027 31.852-.979 7.282-2.757 11.045-5.417 13.704l11.314 11.314c6.128-6.128 8.743-13.83 9.96-22.886 1.187-8.827 1.17-20.068 1.17-33.984h-16zM75.183 32.091c-16.178-4.52-29.2-8.183-39.653-9.445-10.75-1.297-20.25-.258-28.501 6.004L16.7 41.395c3.612-2.741 8.261-3.908 16.912-2.864 8.947 1.08 20.575 4.306 37.264 8.97l4.306-15.41zM8 97.19c0-17.98.021-30.563 1.396-39.824 1.34-9.022 3.754-13.277 7.305-15.972L7.029 28.65c-8.315 6.31-11.833 15.417-13.46 26.367C-8.02 65.728-8 79.727-8 97.19H8z" fill="#fff" mask="url(#path-1-inside-1_12_140725)"/></svg>