<svg width="535" height="422" viewBox="0 0 535 422" fill="none" xmlns="http://www.w3.org/2000/svg">
<g clip-path="url(#clip0_862_35096)">
<g filter="url(#filter0_f_862_35096)">
<path d="M9.63897 254.554C-2.62966 247.6 -2.62966 235.866 9.63897 228.912L244.496 230.215C256.764 223.262 276.92 223.262 289.627 230.215L525.798 228.912C538.066 235.866 538.066 247.6 525.798 254.554L290.941 389.723C278.673 396.677 258.517 396.677 245.81 389.723L9.63897 254.554Z" fill="#C5D9EF"/>
</g>
<path d="M535 210.157C535 210.592 535 211.027 535 211.027C535 211.461 535 211.461 535 211.896C535 212.331 535 212.765 534.562 212.765C534.562 213.2 534.562 213.2 534.124 213.634C534.124 214.069 533.686 214.069 533.686 214.504C533.248 214.938 533.248 215.373 532.809 215.808C532.371 216.242 532.371 216.677 531.933 217.111C531.933 217.111 531.933 217.111 531.495 217.546C531.057 217.981 530.619 218.415 530.18 218.85C529.742 219.285 529.304 219.285 529.304 219.719C528.866 220.154 528.866 220.154 528.428 220.588C527.99 221.023 527.551 221.023 527.113 221.458C526.675 221.892 526.237 221.892 525.799 222.327L290.942 357.061L290.504 387.05L525.361 251.447C525.361 251.447 525.799 251.447 525.799 251.012C526.237 251.012 526.237 250.578 526.675 250.578C527.113 250.143 527.551 250.143 527.99 249.708C528.428 249.274 528.428 249.274 528.866 248.839C529.304 248.404 529.742 248.404 529.742 247.97C530.18 247.535 530.619 247.101 531.057 246.666C531.057 246.666 531.057 246.666 531.057 246.231C531.057 245.797 531.495 245.797 531.495 245.362L531.933 244.927C531.933 244.927 531.933 244.927 531.933 244.493C532.371 244.058 532.371 243.624 532.809 243.624C532.809 243.624 532.809 243.624 532.809 243.189C532.809 242.754 533.248 242.754 533.248 242.32C533.248 242.32 533.248 241.885 533.686 241.885C533.686 241.885 533.686 241.885 533.686 241.45C533.686 241.016 533.686 241.016 534.124 240.581V240.147C534.124 239.712 534.124 239.277 534.124 239.277C534.124 238.843 534.124 238.843 534.124 238.408C534.124 238.408 534.124 238.408 534.124 237.973L534.562 207.984C535 209.288 535 209.723 535 210.157Z" fill="#E1EDFF"/>
<path d="M9.63964 221.89C3.50532 218.413 0.438165 213.632 0.438165 208.852L0 238.841C0 243.622 3.06716 248.402 9.20147 251.879L245.811 387.048L246.249 357.059L9.63964 221.89Z" fill="#EFF1FE"/>
<path d="M525.798 196.248C538.066 203.202 538.066 214.937 525.798 221.891L290.941 357.059C278.673 364.013 258.517 364.013 245.81 357.059L9.63897 221.891C-2.62966 214.937 -2.62966 203.202 9.63897 196.248L244.496 60.6452C256.764 53.6912 276.92 53.6912 289.627 60.6452L525.798 196.248Z" fill="white"/>
<path d="M9.63897 211.461C-2.62966 204.507 -2.62966 192.772 9.63897 185.818L244.496 50.2155C256.764 43.2615 276.92 43.2615 289.627 50.2155L525.798 185.818C538.066 192.772 538.066 204.507 525.798 211.461L290.941 347.064C278.673 354.018 258.517 354.018 245.81 347.064L9.63897 211.461Z" fill="url(#paint0_linear_862_35096)"/>
<path d="M268.595 333.589C261.146 333.589 254.136 331.851 248.439 328.809L42.0634 210.591C36.8054 207.548 33.7383 203.202 33.7383 198.856C33.7383 194.51 36.8054 190.163 42.0634 187.121L247.125 68.4684C252.383 65.426 259.394 63.6875 266.842 63.6875C274.291 63.6875 281.302 65.426 286.998 68.4684L493.812 186.686C499.07 189.729 502.137 194.075 502.137 198.421C502.137 202.767 499.07 207.114 493.812 210.156L288.312 328.809C283.054 331.851 276.044 333.589 268.595 333.589ZM267.28 64.9914C259.832 64.9914 253.259 66.7299 248.001 69.7722L42.5016 187.99C37.6818 191.033 34.6146 194.51 34.6146 198.856C34.6146 202.767 37.2436 206.679 42.5016 209.721L249.316 327.939C254.574 330.982 261.146 332.72 268.595 332.72C276.044 332.72 282.616 330.982 287.874 327.939L493.374 209.721C498.194 206.679 501.261 203.202 501.261 198.856C501.261 194.944 498.632 191.033 493.374 187.99L286.56 69.3376C281.302 66.2952 274.291 64.9914 267.28 64.9914Z" fill="url(#paint1_linear_862_35096)"/>
<path d="M287.875 388.786C288.751 388.351 292.694 386.178 293.571 385.743V355.754C292.694 356.189 289.189 357.927 288.313 358.362C287.875 358.362 287.875 358.796 287.436 358.796C286.56 359.231 285.684 359.666 284.807 359.666C284.369 359.666 284.369 360.1 283.931 360.1C283.493 360.1 283.055 360.535 282.178 360.535C281.74 360.535 281.302 360.97 280.864 360.97C280.426 360.97 279.549 361.404 279.111 361.404C278.673 361.404 278.235 361.404 277.797 361.839C276.482 361.839 275.606 362.274 274.291 362.274C273.853 362.274 273.415 362.274 272.977 362.274C272.101 362.274 271.662 362.274 270.786 362.274C270.348 362.274 269.91 362.274 269.472 362.274C269.033 362.274 268.157 362.274 267.719 362.274C267.281 362.274 266.843 362.274 266.404 362.274C265.966 362.274 265.528 362.274 264.652 362.274C264.214 362.274 263.775 362.274 263.337 362.274C262.899 362.274 262.461 362.274 261.585 362.274C261.146 362.274 260.708 362.274 260.27 361.839C259.832 361.839 258.956 361.839 258.517 361.404C258.079 361.404 257.641 361.404 257.203 360.97C256.327 360.97 255.888 360.535 255.012 360.535C254.574 360.535 254.136 360.535 254.136 360.1C252.821 359.666 251.945 359.231 250.63 358.796C250.192 358.796 249.754 358.362 248.878 357.927C248.44 357.927 248.44 357.493 248.001 357.493C247.125 357.058 242.744 354.45 241.867 354.016V384.439C242.744 384.874 246.687 387.047 247.125 387.482C247.563 387.482 247.563 387.916 248.001 387.916C248.44 387.916 248.878 388.351 249.316 388.351C250.63 388.786 251.507 389.22 252.821 389.655C252.821 389.655 252.821 389.655 253.259 389.655C253.698 389.655 253.698 389.655 254.136 390.089C254.574 390.089 255.45 390.524 255.888 390.524H256.327C256.765 390.524 256.765 390.524 257.203 390.524C257.641 390.524 258.079 390.524 258.956 390.959C259.394 390.959 259.394 390.959 259.832 390.959C260.27 390.959 260.27 390.959 260.708 390.959C261.146 390.959 261.585 390.959 262.023 390.959C262.461 390.959 262.461 390.959 262.899 390.959C263.337 390.959 263.337 390.959 263.775 390.959C264.214 390.959 264.652 390.959 265.09 390.959C265.528 390.959 265.528 390.959 265.966 390.959C265.966 390.959 266.404 390.959 266.843 390.959C267.281 390.959 268.157 390.959 268.595 390.959C269.033 390.959 269.033 390.959 269.472 390.959H269.91C270.786 390.959 271.224 390.959 272.101 390.959C272.539 390.959 272.539 390.959 272.977 390.959C272.977 390.959 272.977 390.959 273.415 390.959C274.73 390.959 275.606 390.524 276.92 390.524C277.359 390.524 277.797 390.524 277.797 390.089C278.235 390.089 279.111 389.655 279.549 389.655C279.988 389.655 280.426 389.22 280.864 389.22C281.302 389.22 281.74 388.786 282.617 388.786H283.055H283.493C284.369 388.351 285.246 388.351 286.122 387.916C286.998 389.22 287.436 389.22 287.875 388.786Z" fill="url(#paint2_linear_862_35096)"/>
<g clip-path="url(#clip1_862_35096)">
<path d="M288.713 278.318C133.491 246.496 110.099 184.635 93.7531 145.828C92.7707 143.409 86.3986 142.014 85.832 146.744C82.8738 164.524 87.8108 214.348 147.354 248.725C206.938 283.126 274.897 284.82 285.002 284.106C295.03 283.402 295.021 279.815 288.712 278.318L288.713 278.318ZM334.561 285.954C335.415 282.2 321.751 273.519 311.612 268.946C301.49 264.346 282.387 259.7 280.248 262.297C279.611 263.365 281.405 263.757 288.176 267.021C295.028 270.259 314.684 279.064 313.567 283.909C312.433 288.782 280.409 296.624 275.047 297.775C269.743 298.959 271.043 300.805 276.549 301.156C282.011 301.482 293.809 300.971 306.444 297.905C319.103 294.795 333.907 288.809 334.56 285.953L334.561 285.954Z" fill="url(#paint3_linear_862_35096)"/>
<path fill-rule="evenodd" clip-rule="evenodd" d="M320.129 178.524C306.996 186.106 296.376 192.621 278.075 195.522C263.234 197.904 248.916 196.371 239.434 190.896C226.49 183.423 228.814 173.377 243.369 164.974C272.101 148.385 303.06 160.238 327.43 174.308L320.129 178.524ZM271.958 245.588C267.738 245.451 264.372 243.672 263.187 241.454C261.29 229.63 263.613 225.989 266.316 217.311C228.956 217.531 210.228 213.233 186.238 199.382C157.886 183.013 153.287 160.156 188.324 139.927C215.68 124.133 249.154 121.943 279.353 128.868C305.716 134.781 332.693 148.714 354.455 158.706L358.817 156.187C366.83 151.561 376.928 146.442 379.156 139.736C381.242 133.768 375.932 127.746 369.01 123.749C356.162 116.331 338.098 113.512 321.646 119.78C318.041 121.204 312.826 121.642 309.65 119.972L280.444 99.0592C278.312 97.1153 277.505 94.0775 282.484 92.0788C329.658 73.5475 377.401 87.3151 409.451 105.819C425.856 115.291 442.924 130.182 443.445 144.827C444.537 163.139 422.537 174.034 400.301 186.872L347.769 217.201C331.981 226.317 331.602 234.09 329.23 242.576C328.377 245.587 325.2 247.969 320.175 247.695C307.564 247.037 284.663 246.134 271.957 245.697L271.957 245.587" fill="url(#paint4_linear_862_35096)"/>
<path d="M288.713 278.318C133.491 246.496 110.099 184.635 93.7531 145.828C92.7707 143.409 86.3986 142.014 85.832 146.744C82.8738 164.524 87.8108 214.348 147.354 248.725C206.938 283.126 274.897 284.82 285.002 284.106C295.03 283.402 295.021 279.815 288.712 278.318L288.713 278.318ZM334.561 285.954C335.415 282.2 321.751 273.519 311.612 268.946C301.49 264.346 282.387 259.7 280.248 262.297C279.611 263.365 281.405 263.757 288.176 267.021C295.028 270.259 314.684 279.064 313.567 283.909C312.433 288.782 280.409 296.624 275.047 297.775C269.743 298.959 271.043 300.805 276.549 301.156C282.011 301.482 293.809 300.971 306.444 297.905C319.103 294.795 333.907 288.809 334.56 285.953L334.561 285.954Z" fill="url(#paint5_linear_862_35096)"/>
<path fill-rule="evenodd" clip-rule="evenodd" d="M320.129 178.524C306.996 186.106 296.376 192.621 278.075 195.522C263.234 197.904 248.916 196.371 239.434 190.896C226.49 183.423 228.814 173.377 243.369 164.974C272.101 148.385 303.06 160.238 327.43 174.308L320.129 178.524ZM271.958 245.588C267.738 245.451 264.372 243.672 263.187 241.454C261.29 229.63 263.613 225.989 266.316 217.311C228.956 217.531 210.228 213.233 186.238 199.382C157.886 183.013 153.287 160.156 188.324 139.927C215.68 124.133 249.154 121.943 279.353 128.868C305.716 134.781 332.693 148.714 354.455 158.706L358.817 156.187C366.83 151.561 376.928 146.442 379.156 139.736C381.242 133.768 375.932 127.746 369.01 123.749C356.162 116.331 338.098 113.512 321.646 119.78C318.041 121.204 312.826 121.642 309.65 119.972L280.444 99.0592C278.312 97.1153 277.505 94.0775 282.484 92.0788C329.658 73.5475 377.401 87.3151 409.451 105.819C425.856 115.291 442.924 130.182 443.445 144.827C444.537 163.139 422.537 174.034 400.301 186.872L347.769 217.201C331.981 226.317 331.602 234.09 329.23 242.576C328.377 245.587 325.2 247.969 320.175 247.695C307.564 247.037 284.663 246.134 271.957 245.697L271.957 245.587" fill="url(#paint6_linear_862_35096)"/>
<path d="M288.713 260.236C133.491 228.414 110.099 166.553 93.7531 127.746C92.7707 125.327 86.3986 123.932 85.832 128.662C82.8738 146.442 87.8108 196.266 147.354 230.643C206.938 265.044 274.897 266.738 285.002 266.024C295.03 265.32 295.021 261.733 288.712 260.236L288.713 260.236ZM334.561 267.871C335.415 264.118 321.751 255.437 311.612 250.864C301.49 246.264 282.387 241.618 280.248 244.215C279.611 245.283 281.405 245.675 288.176 248.939C295.028 252.177 314.684 260.982 313.567 265.827C312.433 270.7 280.409 278.542 275.047 279.693C269.743 280.877 271.043 282.723 276.549 283.073C282.011 283.4 293.809 282.889 306.444 279.823C319.103 276.713 333.907 270.727 334.56 267.871L334.561 267.871Z" fill="#FF9900"/>
<path fill-rule="evenodd" clip-rule="evenodd" d="M320.129 160.442C306.996 168.024 296.376 174.539 278.075 177.44C263.234 179.822 248.916 178.289 239.434 172.814C226.49 165.341 228.814 155.295 243.369 146.892C272.101 130.303 303.06 142.156 327.43 156.226L320.129 160.442ZM271.958 227.506C267.738 227.369 264.372 225.59 263.187 223.372C261.29 211.548 263.613 207.907 266.316 199.229C228.956 199.449 210.228 195.151 186.238 181.3C157.886 164.931 153.287 142.074 188.324 121.845C215.68 106.051 249.154 103.861 279.353 110.786C305.716 116.699 332.693 130.632 354.455 140.624L358.817 138.105C366.83 133.479 376.928 128.36 379.156 121.654C381.242 115.686 375.932 109.664 369.01 105.667C356.162 98.2494 338.098 95.4297 321.646 101.698C318.041 103.122 312.826 103.56 309.65 101.89L280.444 80.9772C278.312 79.0333 277.505 75.9954 282.484 73.9967C329.658 55.4655 377.401 69.2331 409.451 87.7372C425.856 97.2085 442.924 112.1 443.445 126.745C444.537 145.057 422.537 155.952 400.301 168.79L347.769 199.119C331.981 208.234 331.602 216.008 329.23 224.494C328.377 227.505 325.2 229.887 320.175 229.613C307.564 228.955 284.663 228.052 271.957 227.615L271.957 227.505" fill="black"/>
<path d="M288.713 260.236C133.491 228.414 110.099 166.553 93.7531 127.746C92.7707 125.327 86.3986 123.932 85.832 128.662C82.8738 146.442 87.8108 196.266 147.354 230.643C206.938 265.044 274.897 266.738 285.002 266.024C295.03 265.32 295.021 261.733 288.712 260.236L288.713 260.236ZM334.561 267.871C335.415 264.118 321.751 255.437 311.612 250.864C301.49 246.264 282.387 241.618 280.248 244.215C279.611 245.283 281.405 245.675 288.176 248.939C295.028 252.177 314.684 260.982 313.567 265.827C312.433 270.7 280.409 278.542 275.047 279.693C269.743 280.877 271.043 282.723 276.549 283.073C282.011 283.4 293.809 282.889 306.444 279.823C319.103 276.713 333.907 270.727 334.56 267.871L334.561 267.871Z" fill="#FF9900"/>
<path fill-rule="evenodd" clip-rule="evenodd" d="M320.129 160.442C306.996 168.024 296.376 174.539 278.075 177.44C263.234 179.822 248.916 178.289 239.434 172.814C226.49 165.341 228.814 155.295 243.369 146.892C272.101 130.303 303.06 142.156 327.43 156.226L320.129 160.442ZM271.958 227.506C267.738 227.369 264.372 225.59 263.187 223.372C261.29 211.548 263.613 207.907 266.316 199.229C228.956 199.449 210.228 195.151 186.238 181.3C157.886 164.931 153.287 142.074 188.324 121.845C215.68 106.051 249.154 103.861 279.353 110.786C305.716 116.699 332.693 130.632 354.455 140.624L358.817 138.105C366.83 133.479 376.928 128.36 379.156 121.654C381.242 115.686 375.932 109.664 369.01 105.667C356.162 98.2494 338.098 95.4297 321.646 101.698C318.041 103.122 312.826 103.56 309.65 101.89L280.444 80.9772C278.312 79.0333 277.505 75.9954 282.484 73.9967C329.658 55.4655 377.401 69.2331 409.451 87.7372C425.856 97.2085 442.924 112.1 443.445 126.745C444.537 145.057 422.537 155.952 400.301 168.79L347.769 199.119C331.981 208.234 331.602 216.008 329.23 224.494C328.377 227.505 325.2 229.887 320.175 229.613C307.564 228.955 284.663 228.052 271.957 227.615L271.957 227.505" fill="black"/>
</g>
<circle cx="34" cy="44.332" r="27" fill="url(#paint7_linear_862_35096)"/>
<circle cx="34" cy="44.332" r="27" fill="url(#paint8_radial_862_35096)"/>
<circle cx="34" cy="44.332" r="27" fill="url(#paint9_radial_862_35096)"/>
<circle cx="34" cy="44.332" r="27" fill="url(#paint10_radial_862_35096)"/>
<circle cx="34" cy="44.332" r="27" fill="url(#paint11_radial_862_35096)"/>
<g style="mix-blend-mode:lighten">
<ellipse cx="32.5362" cy="37.499" rx="16.753" ry="14.9639" fill="url(#paint12_linear_862_35096)"/>
</g>
<g style="mix-blend-mode:lighten">
<path d="M22.7426 36.0324C21.6586 35.6956 21.0381 34.5327 21.5491 33.519C22.4382 31.7552 23.7404 30.2199 25.3568 29.0507C26.9732 27.8814 28.8391 27.1252 30.7925 26.8329C31.9152 26.6649 32.8254 27.6182 32.806 28.7532C32.7866 29.8882 31.8374 30.7672 30.7323 31.0267C29.6702 31.2761 28.661 31.7341 27.7661 32.3814C26.8712 33.0287 26.1203 33.8438 25.551 34.7745C24.9586 35.7429 23.8267 36.3692 22.7426 36.0324Z" fill="url(#paint13_linear_862_35096)"/>
</g>
<circle cx="469.5" cy="65.5" r="43.5" fill="url(#paint14_linear_862_35096)"/>
<circle cx="469.5" cy="65.5" r="43.5" fill="url(#paint15_radial_862_35096)"/>
<circle cx="469.5" cy="65.5" r="43.5" fill="url(#paint16_radial_862_35096)"/>
<circle cx="469.5" cy="65.5" r="43.5" fill="url(#paint17_radial_862_35096)"/>
<circle cx="469.5" cy="65.5" r="43.5" fill="url(#paint18_radial_862_35096)"/>
<g style="mix-blend-mode:lighten">
<ellipse cx="467.141" cy="54.4951" rx="26.991" ry="24.1084" fill="url(#paint19_linear_862_35096)"/>
</g>
<g style="mix-blend-mode:lighten">
<path d="M451.363 52.126C449.616 51.5833 448.617 49.7098 449.44 48.0766C450.872 45.235 452.97 42.7614 455.574 40.8776C458.179 38.9939 461.185 37.7756 464.332 37.3046C466.141 37.0339 467.607 38.5698 467.576 40.3984C467.545 42.227 466.015 43.6432 464.235 44.0612C462.524 44.463 460.898 45.2009 459.456 46.2438C458.014 47.2867 456.804 48.6 455.887 50.0994C454.933 51.6596 453.109 52.6686 451.363 52.126Z" fill="url(#paint20_linear_862_35096)"/>
</g>
</g>
<defs>
<filter id="filter0_f_862_35096" x="-10.5625" y="214" width="556.562" height="191.938" filterUnits="userSpaceOnUse" color-interpolation-filters="sRGB">
<feFlood flood-opacity="0" result="BackgroundImageFix"/>
<feBlend mode="normal" in="SourceGraphic" in2="BackgroundImageFix" result="shape"/>
<feGaussianBlur stdDeviation="5.5" result="effect1_foregroundBlur_862_35096"/>
</filter>
<linearGradient id="paint0_linear_862_35096" x1="267.84" y1="352.232" x2="267.84" y2="44.9975" gradientUnits="userSpaceOnUse">
<stop stop-color="#F1F4FE"/>
<stop offset="0.5797" stop-color="#F7F9FE"/>
<stop offset="1" stop-color="white"/>
</linearGradient>
<linearGradient id="paint1_linear_862_35096" x1="33.3838" y1="198.619" x2="502.289" y2="198.619" gradientUnits="userSpaceOnUse">
<stop stop-color="#3A98FF"/>
<stop offset="0.6277" stop-color="#00F0FF"/>
<stop offset="1" stop-color="#00FFAC"/>
</linearGradient>
<linearGradient id="paint2_linear_862_35096" x1="242.582" y1="373.936" x2="293.464" y2="373.936" gradientUnits="userSpaceOnUse">
<stop stop-color="#EFF1FE"/>
<stop offset="1" stop-color="#E4E7FB"/>
</linearGradient>
<linearGradient id="paint3_linear_862_35096" x1="215.512" y1="212.904" x2="182.961" y2="269.283" gradientUnits="userSpaceOnUse">
<stop stop-color="#C3DAFD" stop-opacity="0.76"/>
<stop offset="1" stop-color="#E1EDFF" stop-opacity="0"/>
</linearGradient>
<linearGradient id="paint4_linear_862_35096" x1="409.003" y1="105.56" x2="312.686" y2="272.387" gradientUnits="userSpaceOnUse">
<stop stop-color="#C3DAFD" stop-opacity="0.76"/>
<stop offset="1" stop-color="#E1EDFF" stop-opacity="0"/>
</linearGradient>
<linearGradient id="paint5_linear_862_35096" x1="215.512" y1="212.904" x2="182.961" y2="269.283" gradientUnits="userSpaceOnUse">
<stop stop-color="#C3DAFD" stop-opacity="0.76"/>
<stop offset="1" stop-color="#E1EDFF" stop-opacity="0"/>
</linearGradient>
<linearGradient id="paint6_linear_862_35096" x1="409.003" y1="105.56" x2="312.686" y2="272.387" gradientUnits="userSpaceOnUse">
<stop stop-color="#C3DAFD" stop-opacity="0.76"/>
<stop offset="1" stop-color="#E1EDFF" stop-opacity="0"/>
</linearGradient>
<linearGradient id="paint7_linear_862_35096" x1="34" y1="17.332" x2="34" y2="71.332" gradientUnits="userSpaceOnUse">
<stop stop-color="#40FFC6"/>
<stop offset="0.492708" stop-color="#4AE6FF"/>
<stop offset="1" stop-color="#2595FF"/>
</linearGradient>
<radialGradient id="paint8_radial_862_35096" cx="0" cy="0" r="1" gradientUnits="userSpaceOnUse" gradientTransform="translate(22.9107 27.9392) rotate(62.6223) scale(60.8112)">
<stop offset="0.462106" stop-color="#2AA8FF" stop-opacity="0"/>
<stop offset="0.894737" stop-color="#2595FF"/>
</radialGradient>
<radialGradient id="paint9_radial_862_35096" cx="0" cy="0" r="1" gradientUnits="userSpaceOnUse" gradientTransform="translate(20.9821 28.9035) rotate(56.6259) scale(72.7461)">
<stop stop-color="#6EFFCE"/>
<stop offset="0.570035" stop-color="#A5FFFD" stop-opacity="0"/>
</radialGradient>
<radialGradient id="paint10_radial_862_35096" cx="0" cy="0" r="1" gradientUnits="userSpaceOnUse" gradientTransform="translate(28.6964 33.7249) rotate(63.4349) scale(38.7826)">
<stop offset="0.672439" stop-color="#9EC6FD" stop-opacity="0"/>
<stop offset="1" stop-color="white"/>
</radialGradient>
<radialGradient id="paint11_radial_862_35096" cx="0" cy="0" r="1" gradientUnits="userSpaceOnUse" gradientTransform="translate(31.0811 38.4942) rotate(62.0378) scale(33.4603)">
<stop offset="0.961458" stop-color="#2AA8FF" stop-opacity="0"/>
<stop offset="1" stop-color="#058AFF" stop-opacity="0.26"/>
</radialGradient>
<linearGradient id="paint12_linear_862_35096" x1="22.9631" y1="26.3968" x2="35.0417" y2="39.8115" gradientUnits="userSpaceOnUse">
<stop stop-color="white" stop-opacity="0.86"/>
<stop offset="1" stop-color="#D9D9D9" stop-opacity="0"/>
</linearGradient>
<linearGradient id="paint13_linear_862_35096" x1="32.5414" y1="27.9144" x2="25.2442" y2="36.3063" gradientUnits="userSpaceOnUse">
<stop stop-color="white"/>
<stop offset="1" stop-color="#FFFFE9" stop-opacity="0.38"/>
</linearGradient>
<linearGradient id="paint14_linear_862_35096" x1="469.5" y1="22" x2="469.5" y2="109" gradientUnits="userSpaceOnUse">
<stop stop-color="#40FFC6"/>
<stop offset="0.492708" stop-color="#4AE6FF"/>
<stop offset="1" stop-color="#2595FF"/>
</linearGradient>
<radialGradient id="paint15_radial_862_35096" cx="0" cy="0" r="1" gradientUnits="userSpaceOnUse" gradientTransform="translate(451.634 39.0893) rotate(62.6223) scale(97.9736)">
<stop offset="0.462106" stop-color="#2AA8FF" stop-opacity="0"/>
<stop offset="0.894737" stop-color="#2595FF"/>
</radialGradient>
<radialGradient id="paint16_radial_862_35096" cx="0" cy="0" r="1" gradientUnits="userSpaceOnUse" gradientTransform="translate(448.527 40.6429) rotate(56.6259) scale(117.202)">
<stop stop-color="#6EFFCE"/>
<stop offset="0.570035" stop-color="#A5FFFD" stop-opacity="0"/>
</radialGradient>
<radialGradient id="paint17_radial_862_35096" cx="0" cy="0" r="1" gradientUnits="userSpaceOnUse" gradientTransform="translate(460.955 48.4107) rotate(63.4349) scale(62.4831)">
<stop offset="0.672439" stop-color="#9EC6FD" stop-opacity="0"/>
<stop offset="1" stop-color="white"/>
</radialGradient>
<radialGradient id="paint18_radial_862_35096" cx="0" cy="0" r="1" gradientUnits="userSpaceOnUse" gradientTransform="translate(464.797 56.0946) rotate(62.0378) scale(53.9083)">
<stop offset="0.961458" stop-color="#2AA8FF" stop-opacity="0"/>
<stop offset="1" stop-color="#058AFF" stop-opacity="0.26"/>
</radialGradient>
<linearGradient id="paint19_linear_862_35096" x1="451.718" y1="36.6082" x2="471.178" y2="58.2208" gradientUnits="userSpaceOnUse">
<stop stop-color="white" stop-opacity="0.86"/>
<stop offset="1" stop-color="#D9D9D9" stop-opacity="0"/>
</linearGradient>
<linearGradient id="paint20_linear_862_35096" x1="467.15" y1="39.047" x2="455.393" y2="52.5673" gradientUnits="userSpaceOnUse">
<stop stop-color="white"/>
<stop offset="1" stop-color="#FFFFE9" stop-opacity="0.38"/>
</linearGradient>
<clipPath id="clip0_862_35096">
<rect width="535" height="422" fill="white"/>
</clipPath>
<clipPath id="clip1_862_35096">
<rect width="316.125" height="333.707" fill="white" transform="matrix(0.866025 0.5 -0.866025 0.5 274.807 10)"/>
</clipPath>
</defs>
</svg>
