<svg width="535" height="422" viewBox="0 0 535 422" fill="none" xmlns="http://www.w3.org/2000/svg">
<g clip-path="url(#clip0_862_31683)">
<g filter="url(#filter0_f_862_31683)">
<path d="M9.63897 254.554C-2.62966 247.6 -2.62966 235.866 9.63897 228.912L244.496 230.215C256.764 223.262 276.92 223.262 289.627 230.215L525.798 228.912C538.066 235.866 538.066 247.6 525.798 254.554L290.941 389.723C278.673 396.677 258.517 396.677 245.81 389.723L9.63897 254.554Z" fill="#C5D9EF"/>
</g>
<path d="M535 210.157C535 210.592 535 211.027 535 211.027C535 211.461 535 211.461 535 211.896C535 212.331 535 212.765 534.562 212.765C534.562 213.2 534.562 213.2 534.124 213.634C534.124 214.069 533.686 214.069 533.686 214.504C533.248 214.938 533.248 215.373 532.809 215.808C532.371 216.242 532.371 216.677 531.933 217.111C531.933 217.111 531.933 217.111 531.495 217.546C531.057 217.981 530.619 218.415 530.18 218.85C529.742 219.285 529.304 219.285 529.304 219.719C528.866 220.154 528.866 220.154 528.428 220.588C527.99 221.023 527.551 221.023 527.113 221.458C526.675 221.892 526.237 221.892 525.799 222.327L290.942 357.061L290.504 387.05L525.361 251.447C525.361 251.447 525.799 251.447 525.799 251.012C526.237 251.012 526.237 250.578 526.675 250.578C527.113 250.143 527.551 250.143 527.99 249.708C528.428 249.274 528.428 249.274 528.866 248.839C529.304 248.404 529.742 248.404 529.742 247.97C530.18 247.535 530.619 247.101 531.057 246.666C531.057 246.666 531.057 246.666 531.057 246.231C531.057 245.797 531.495 245.797 531.495 245.362L531.933 244.927C531.933 244.927 531.933 244.927 531.933 244.493C532.371 244.058 532.371 243.624 532.809 243.624C532.809 243.624 532.809 243.624 532.809 243.189C532.809 242.754 533.248 242.754 533.248 242.32C533.248 242.32 533.248 241.885 533.686 241.885C533.686 241.885 533.686 241.885 533.686 241.45C533.686 241.016 533.686 241.016 534.124 240.581V240.147C534.124 239.712 534.124 239.277 534.124 239.277C534.124 238.843 534.124 238.843 534.124 238.408C534.124 238.408 534.124 238.408 534.124 237.973L534.562 207.984C535 209.288 535 209.723 535 210.157Z" fill="#E1EDFF"/>
<path d="M9.63964 221.892C3.50532 218.415 0.438165 213.634 0.438165 208.854L0 238.843C0 243.623 3.06716 248.404 9.20147 251.881L245.811 387.05L246.249 357.061L9.63964 221.892Z" fill="#EFF1FE"/>
<path d="M525.798 196.25C538.066 203.204 538.066 214.939 525.798 221.893L290.941 357.061C278.673 364.015 258.517 364.015 245.81 357.061L9.63897 221.893C-2.62966 214.939 -2.62966 203.204 9.63897 196.25L244.496 60.6471C256.764 53.6931 276.92 53.6931 289.627 60.6471L525.798 196.25Z" fill="white"/>
<path d="M9.63897 211.461C-2.62966 204.507 -2.62966 192.772 9.63897 185.818L244.496 50.2155C256.764 43.2615 276.92 43.2615 289.627 50.2155L525.798 185.818C538.066 192.772 538.066 204.507 525.798 211.461L290.941 347.064C278.673 354.018 258.517 354.018 245.81 347.064L9.63897 211.461Z" fill="url(#paint0_linear_862_31683)"/>
<path d="M268.595 333.591C261.146 333.591 254.136 331.853 248.439 328.811L42.0634 210.593C36.8054 207.55 33.7383 203.204 33.7383 198.858C33.7383 194.512 36.8054 190.165 42.0634 187.123L247.125 68.4703C252.383 65.428 259.394 63.6895 266.842 63.6895C274.291 63.6895 281.302 65.428 286.998 68.4703L493.812 186.688C499.07 189.731 502.137 194.077 502.137 198.423C502.137 202.769 499.07 207.116 493.812 210.158L288.312 328.811C283.054 331.853 276.044 333.591 268.595 333.591ZM267.28 64.9933C259.832 64.9933 253.259 66.7318 248.001 69.7742L42.5016 187.992C37.6818 191.035 34.6146 194.512 34.6146 198.858C34.6146 202.769 37.2436 206.681 42.5016 209.723L249.316 327.941C254.574 330.984 261.146 332.722 268.595 332.722C276.044 332.722 282.616 330.984 287.874 327.941L493.374 209.723C498.194 206.681 501.261 203.204 501.261 198.858C501.261 194.946 498.632 191.035 493.374 187.992L286.56 69.3396C281.302 66.2972 274.291 64.9933 267.28 64.9933Z" fill="url(#paint1_linear_862_31683)"/>
<path d="M287.875 388.788C288.751 388.353 292.694 386.18 293.571 385.745V355.756C292.694 356.191 289.189 357.929 288.313 358.364C287.875 358.364 287.875 358.798 287.436 358.798C286.56 359.233 285.684 359.668 284.807 359.668C284.369 359.668 284.369 360.102 283.931 360.102C283.493 360.102 283.055 360.537 282.178 360.537C281.74 360.537 281.302 360.972 280.864 360.972C280.426 360.972 279.549 361.406 279.111 361.406C278.673 361.406 278.235 361.406 277.797 361.841C276.482 361.841 275.606 362.275 274.291 362.275C273.853 362.275 273.415 362.275 272.977 362.275C272.101 362.275 271.662 362.275 270.786 362.275C270.348 362.275 269.91 362.275 269.472 362.275C269.033 362.275 268.157 362.275 267.719 362.275C267.281 362.275 266.843 362.275 266.404 362.275C265.966 362.275 265.528 362.275 264.652 362.275C264.214 362.275 263.775 362.275 263.337 362.275C262.899 362.275 262.461 362.275 261.585 362.275C261.146 362.275 260.708 362.275 260.27 361.841C259.832 361.841 258.956 361.841 258.517 361.406C258.079 361.406 257.641 361.406 257.203 360.972C256.327 360.972 255.888 360.537 255.012 360.537C254.574 360.537 254.136 360.537 254.136 360.102C252.821 359.668 251.945 359.233 250.63 358.798C250.192 358.798 249.754 358.364 248.878 357.929C248.44 357.929 248.44 357.495 248.001 357.495C247.125 357.06 242.744 354.452 241.867 354.018V384.441C242.744 384.876 246.687 387.049 247.125 387.484C247.563 387.484 247.563 387.918 248.001 387.918C248.44 387.918 248.878 388.353 249.316 388.353C250.63 388.788 251.507 389.222 252.821 389.657C252.821 389.657 252.821 389.657 253.259 389.657C253.698 389.657 253.698 389.657 254.136 390.091C254.574 390.091 255.45 390.526 255.888 390.526H256.327C256.765 390.526 256.765 390.526 257.203 390.526C257.641 390.526 258.079 390.526 258.956 390.961C259.394 390.961 259.394 390.961 259.832 390.961C260.27 390.961 260.27 390.961 260.708 390.961C261.146 390.961 261.585 390.961 262.023 390.961C262.461 390.961 262.461 390.961 262.899 390.961C263.337 390.961 263.337 390.961 263.775 390.961C264.214 390.961 264.652 390.961 265.09 390.961C265.528 390.961 265.528 390.961 265.966 390.961C265.966 390.961 266.404 390.961 266.843 390.961C267.281 390.961 268.157 390.961 268.595 390.961C269.033 390.961 269.033 390.961 269.472 390.961H269.91C270.786 390.961 271.224 390.961 272.101 390.961C272.539 390.961 272.539 390.961 272.977 390.961C272.977 390.961 272.977 390.961 273.415 390.961C274.73 390.961 275.606 390.526 276.92 390.526C277.359 390.526 277.797 390.526 277.797 390.091C278.235 390.091 279.111 389.657 279.549 389.657C279.988 389.657 280.426 389.222 280.864 389.222C281.302 389.222 281.74 388.788 282.617 388.788H283.055H283.493C284.369 388.353 285.246 388.353 286.122 387.918C286.998 389.222 287.436 389.222 287.875 388.788Z" fill="url(#paint2_linear_862_31683)"/>
<path fill-rule="evenodd" clip-rule="evenodd" d="M313.516 118.61C310.333 120.447 310.333 125.041 313.516 126.879L383.533 167.303C387.964 169.861 393.423 169.861 397.855 167.303C421.144 153.857 421.144 132.056 397.855 118.61C374.565 105.163 336.805 105.163 313.516 118.61ZM417.118 198.494C416.937 192.301 417.95 185.1 423.315 182.003C460.667 160.438 460.667 125.475 423.315 103.91C385.964 82.3451 325.406 82.3451 288.055 103.91C281.636 107.616 274.061 108.521 266.68 107.848C250.976 106.417 234.344 109.195 222.242 116.182L113.58 178.918C93.4916 190.516 93.4916 209.32 113.58 220.918L220.651 282.736C240.739 294.334 273.309 294.334 293.397 282.736L402.059 219.999C412.326 214.072 417.346 206.262 417.118 198.494ZM253.842 180.624C263.509 175.043 279.183 175.043 288.85 180.624C298.518 186.206 298.518 195.255 288.85 200.837L260.207 217.374C250.54 222.955 234.866 222.955 225.198 217.374C215.531 211.792 215.531 202.743 225.198 197.162L253.842 180.624Z" fill="url(#paint3_linear_862_31683)"/>
<path d="M263.876 82.8695C277.597 83.3083 291.185 85.4658 303.587 89.3418L313.516 83.6095C336.806 70.1633 374.565 70.1633 397.855 83.6095C421.145 97.0558 421.145 118.856 397.855 132.303L387.926 138.035C394.64 145.196 398.377 153.04 399.137 160.962L423.316 147.003C460.667 125.438 460.667 90.4744 423.316 68.9097C385.965 47.345 325.406 47.345 288.055 68.9097L263.876 82.8695Z" fill="url(#paint4_linear_862_31683)"/>
<path fill-rule="evenodd" clip-rule="evenodd" d="M294.988 81.1816C274.9 69.5837 242.33 69.5836 222.242 81.1816L113.58 143.918C93.4915 155.516 93.4915 174.32 113.58 185.918L220.651 247.735C240.739 259.333 273.309 259.333 293.397 247.735L402.059 184.999C422.148 173.401 422.148 154.597 402.059 142.999L294.988 81.1816ZM288.85 145.624C279.183 140.043 263.509 140.043 253.842 145.624L225.198 162.161C215.531 167.743 215.531 176.792 225.198 182.374C234.866 187.955 250.539 187.955 260.207 182.374L288.85 165.836C298.518 160.255 298.518 151.206 288.85 145.624Z" fill="url(#paint5_linear_862_31683)"/>
<circle cx="40.6667" cy="37.6667" r="33.6667" fill="url(#paint6_linear_862_31683)"/>
<circle cx="40.6667" cy="37.6667" r="33.6667" fill="url(#paint7_radial_862_31683)"/>
<circle cx="40.6667" cy="37.6667" r="33.6667" fill="url(#paint8_radial_862_31683)"/>
<circle cx="40.6667" cy="37.6667" r="33.6667" fill="url(#paint9_radial_862_31683)"/>
<circle cx="40.6667" cy="37.6667" r="33.6667" fill="url(#paint10_radial_862_31683)"/>
<g style="mix-blend-mode:lighten">
<ellipse cx="38.8427" cy="29.1489" rx="20.8896" ry="18.6586" fill="url(#paint11_linear_862_31683)"/>
</g>
<g style="mix-blend-mode:lighten">
<path d="M26.6283 27.3152C25.2766 26.8953 24.5029 25.4452 25.14 24.1813C26.2487 21.982 27.8724 20.0675 29.888 18.6096C31.9035 17.1517 34.23 16.2088 36.6658 15.8443C38.0657 15.6348 39.2007 16.8235 39.1764 18.2387C39.1522 19.6539 37.9687 20.75 36.5907 21.0736C35.2663 21.3846 34.0079 21.9556 32.8921 22.7628C31.7762 23.5699 30.84 24.5863 30.1301 25.7468C29.3914 26.9543 27.98 27.7352 26.6283 27.3152Z" fill="url(#paint12_linear_862_31683)"/>
</g>
<circle cx="485.5" cy="49.5" r="49.5" fill="url(#paint13_linear_862_31683)"/>
<circle cx="485.5" cy="49.5" r="49.5" fill="url(#paint14_radial_862_31683)"/>
<circle cx="485.5" cy="49.5" r="49.5" fill="url(#paint15_radial_862_31683)"/>
<circle cx="485.5" cy="49.5" r="49.5" fill="url(#paint16_radial_862_31683)"/>
<circle cx="485.5" cy="49.5" r="49.5" fill="url(#paint17_radial_862_31683)"/>
<g style="mix-blend-mode:lighten">
<ellipse cx="482.817" cy="36.9767" rx="30.7139" ry="27.4337" fill="url(#paint18_linear_862_31683)"/>
</g>
<g style="mix-blend-mode:lighten">
<path d="M464.86 34.2807C462.873 33.6632 461.735 31.5312 462.672 29.6729C464.302 26.4393 466.689 23.6245 469.653 21.4809C472.616 19.3373 476.037 17.951 479.618 17.415C481.676 17.107 483.345 18.8547 483.31 20.9355C483.274 23.0163 481.534 24.6279 479.508 25.1036C477.561 25.5609 475.71 26.4005 474.07 27.5873C472.429 28.774 471.053 30.2684 470.009 31.9747C468.923 33.75 466.848 34.8982 464.86 34.2807Z" fill="url(#paint19_linear_862_31683)"/>
</g>
</g>
<defs>
<filter id="filter0_f_862_31683" x="-10.5625" y="214" width="556.562" height="191.938" filterUnits="userSpaceOnUse" color-interpolation-filters="sRGB">
<feFlood flood-opacity="0" result="BackgroundImageFix"/>
<feBlend mode="normal" in="SourceGraphic" in2="BackgroundImageFix" result="shape"/>
<feGaussianBlur stdDeviation="5.5" result="effect1_foregroundBlur_862_31683"/>
</filter>
<linearGradient id="paint0_linear_862_31683" x1="267.84" y1="352.232" x2="267.84" y2="44.9975" gradientUnits="userSpaceOnUse">
<stop stop-color="#F1F4FE"/>
<stop offset="0.5797" stop-color="#F7F9FE"/>
<stop offset="1" stop-color="white"/>
</linearGradient>
<linearGradient id="paint1_linear_862_31683" x1="33.3838" y1="198.621" x2="502.289" y2="198.621" gradientUnits="userSpaceOnUse">
<stop stop-color="#3A98FF"/>
<stop offset="0.6277" stop-color="#00F0FF"/>
<stop offset="1" stop-color="#00FFAC"/>
</linearGradient>
<linearGradient id="paint2_linear_862_31683" x1="242.582" y1="373.938" x2="293.464" y2="373.938" gradientUnits="userSpaceOnUse">
<stop stop-color="#EFF1FE"/>
<stop offset="1" stop-color="#E4E7FB"/>
</linearGradient>
<linearGradient id="paint3_linear_862_31683" x1="408" y1="-73.5" x2="170.5" y2="310.5" gradientUnits="userSpaceOnUse">
<stop stop-color="#00CBFF" stop-opacity="0.44"/>
<stop offset="0.971308" stop-color="#3A98FF" stop-opacity="0"/>
</linearGradient>
<linearGradient id="paint4_linear_862_31683" x1="400.837" y1="32.2176" x2="405.107" y2="179.563" gradientUnits="userSpaceOnUse">
<stop stop-color="#40FFC6"/>
<stop offset="0.503125" stop-color="#00DBFF"/>
<stop offset="1" stop-color="#2595FF"/>
</linearGradient>
<linearGradient id="paint5_linear_862_31683" x1="311.875" y1="67.2173" x2="302.908" y2="236.268" gradientUnits="userSpaceOnUse">
<stop stop-color="#40FFC6"/>
<stop offset="0.503125" stop-color="#00DBFF"/>
<stop offset="1" stop-color="#2595FF"/>
</linearGradient>
<linearGradient id="paint6_linear_862_31683" x1="40.6667" y1="4" x2="40.6667" y2="71.3333" gradientUnits="userSpaceOnUse">
<stop stop-color="#40FFC6"/>
<stop offset="0.492708" stop-color="#4AE6FF"/>
<stop offset="1" stop-color="#2595FF"/>
</linearGradient>
<radialGradient id="paint7_radial_862_31683" cx="0" cy="0" r="1" gradientUnits="userSpaceOnUse" gradientTransform="translate(26.8393 17.2262) rotate(62.6223) scale(75.8263)">
<stop offset="0.462106" stop-color="#2AA8FF" stop-opacity="0"/>
<stop offset="0.894737" stop-color="#2595FF"/>
</radialGradient>
<radialGradient id="paint8_radial_862_31683" cx="0" cy="0" r="1" gradientUnits="userSpaceOnUse" gradientTransform="translate(24.4345 18.4286) rotate(56.6259) scale(90.7081)">
<stop stop-color="#6EFFCE"/>
<stop offset="0.570035" stop-color="#A5FFFD" stop-opacity="0"/>
</radialGradient>
<radialGradient id="paint9_radial_862_31683" cx="0" cy="0" r="1" gradientUnits="userSpaceOnUse" gradientTransform="translate(34.0536 24.4405) rotate(63.4349) scale(48.3586)">
<stop offset="0.672439" stop-color="#9EC6FD" stop-opacity="0"/>
<stop offset="1" stop-color="white"/>
</radialGradient>
<radialGradient id="paint10_radial_862_31683" cx="0" cy="0" r="1" gradientUnits="userSpaceOnUse" gradientTransform="translate(37.027 30.3874) rotate(62.0378) scale(41.7221)">
<stop offset="0.961458" stop-color="#2AA8FF" stop-opacity="0"/>
<stop offset="1" stop-color="#058AFF" stop-opacity="0.26"/>
</radialGradient>
<linearGradient id="paint11_linear_862_31683" x1="26.9058" y1="15.3054" x2="41.9669" y2="32.0323" gradientUnits="userSpaceOnUse">
<stop stop-color="white" stop-opacity="0.86"/>
<stop offset="1" stop-color="#D9D9D9" stop-opacity="0"/>
</linearGradient>
<linearGradient id="paint12_linear_862_31683" x1="38.8466" y1="17.1928" x2="29.7475" y2="27.6568" gradientUnits="userSpaceOnUse">
<stop stop-color="white"/>
<stop offset="1" stop-color="#FFFFE9" stop-opacity="0.38"/>
</linearGradient>
<linearGradient id="paint13_linear_862_31683" x1="485.5" y1="0" x2="485.5" y2="99" gradientUnits="userSpaceOnUse">
<stop stop-color="#40FFC6"/>
<stop offset="0.492708" stop-color="#4AE6FF"/>
<stop offset="1" stop-color="#2595FF"/>
</linearGradient>
<radialGradient id="paint14_radial_862_31683" cx="0" cy="0" r="1" gradientUnits="userSpaceOnUse" gradientTransform="translate(465.17 19.4464) rotate(62.6223) scale(111.487)">
<stop offset="0.462106" stop-color="#2AA8FF" stop-opacity="0"/>
<stop offset="0.894737" stop-color="#2595FF"/>
</radialGradient>
<radialGradient id="paint15_radial_862_31683" cx="0" cy="0" r="1" gradientUnits="userSpaceOnUse" gradientTransform="translate(461.634 21.2143) rotate(56.6259) scale(133.368)">
<stop stop-color="#6EFFCE"/>
<stop offset="0.570035" stop-color="#A5FFFD" stop-opacity="0"/>
</radialGradient>
<radialGradient id="paint16_radial_862_31683" cx="0" cy="0" r="1" gradientUnits="userSpaceOnUse" gradientTransform="translate(475.777 30.0536) rotate(63.4349) scale(71.1015)">
<stop offset="0.672439" stop-color="#9EC6FD" stop-opacity="0"/>
<stop offset="1" stop-color="white"/>
</radialGradient>
<radialGradient id="paint17_radial_862_31683" cx="0" cy="0" r="1" gradientUnits="userSpaceOnUse" gradientTransform="translate(480.149 38.7973) rotate(62.0378) scale(61.3439)">
<stop offset="0.961458" stop-color="#2AA8FF" stop-opacity="0"/>
<stop offset="1" stop-color="#058AFF" stop-opacity="0.26"/>
</radialGradient>
<linearGradient id="paint18_linear_862_31683" x1="465.267" y1="16.6226" x2="487.411" y2="41.2162" gradientUnits="userSpaceOnUse">
<stop stop-color="white" stop-opacity="0.86"/>
<stop offset="1" stop-color="#D9D9D9" stop-opacity="0"/>
</linearGradient>
<linearGradient id="paint19_linear_862_31683" x1="482.825" y1="19.3978" x2="469.446" y2="34.7829" gradientUnits="userSpaceOnUse">
<stop stop-color="white"/>
<stop offset="1" stop-color="#FFFFE9" stop-opacity="0.38"/>
</linearGradient>
<clipPath id="clip0_862_31683">
<rect width="535" height="422" fill="white"/>
</clipPath>
</defs>
</svg>
