<svg width="535" height="422" viewBox="0 0 535 422" fill="none" xmlns="http://www.w3.org/2000/svg">
<g clip-path="url(#clip0_862_32870)">
<g filter="url(#filter0_f_862_32870)">
<path d="M9.63897 254.554C-2.62966 247.6 -2.62966 235.866 9.63897 228.912L244.496 230.215C256.764 223.262 276.92 223.262 289.627 230.215L525.798 228.912C538.066 235.866 538.066 247.6 525.798 254.554L290.941 389.723C278.673 396.677 258.517 396.677 245.81 389.723L9.63897 254.554Z" fill="#C5D9EF"/>
</g>
<path d="M534.998 210.157C534.998 210.592 534.998 211.027 534.998 211.027C534.998 211.461 534.998 211.461 534.998 211.896C534.998 212.331 534.998 212.765 534.56 212.765C534.56 213.2 534.56 213.2 534.122 213.634C534.122 214.069 533.684 214.069 533.684 214.504C533.246 214.938 533.246 215.373 532.807 215.808C532.369 216.242 532.369 216.677 531.931 217.111C531.931 217.111 531.931 217.111 531.493 217.546C531.055 217.981 530.617 218.415 530.178 218.85C529.74 219.285 529.302 219.285 529.302 219.719C528.864 220.154 528.864 220.154 528.426 220.588C527.988 221.023 527.549 221.023 527.111 221.458C526.673 221.892 526.235 221.892 525.797 222.327L290.94 357.061L290.502 387.05L525.359 251.447C525.359 251.447 525.797 251.447 525.797 251.012C526.235 251.012 526.235 250.578 526.673 250.578C527.111 250.143 527.549 250.143 527.988 249.708C528.426 249.274 528.426 249.274 528.864 248.839C529.302 248.404 529.74 248.404 529.74 247.97C530.178 247.535 530.617 247.101 531.055 246.666C531.055 246.666 531.055 246.666 531.055 246.231C531.055 245.797 531.493 245.797 531.493 245.362L531.931 244.927C531.931 244.927 531.931 244.927 531.931 244.493C532.369 244.058 532.369 243.624 532.807 243.624C532.807 243.624 532.807 243.624 532.807 243.189C532.807 242.754 533.246 242.754 533.246 242.32C533.246 242.32 533.246 241.885 533.684 241.885C533.684 241.885 533.684 241.885 533.684 241.45C533.684 241.016 533.684 241.016 534.122 240.581V240.147C534.122 239.712 534.122 239.277 534.122 239.277C534.122 238.843 534.122 238.843 534.122 238.408C534.122 238.408 534.122 238.408 534.122 237.973L534.56 207.984C534.998 209.288 534.998 209.723 534.998 210.157Z" fill="#E1EDFF"/>
<path d="M9.63964 221.89C3.50532 218.413 0.438165 213.632 0.438165 208.852L0 238.841C0 243.622 3.06716 248.402 9.20147 251.879L245.811 387.048L246.249 357.059L9.63964 221.89Z" fill="#EFF1FE"/>
<path d="M525.798 196.248C538.066 203.202 538.066 214.937 525.798 221.891L290.941 357.059C278.673 364.013 258.517 364.013 245.81 357.059L9.63897 221.891C-2.62966 214.937 -2.62966 203.202 9.63897 196.248L244.496 60.6452C256.764 53.6912 276.92 53.6912 289.627 60.6452L525.798 196.248Z" fill="white"/>
<path d="M9.63897 211.461C-2.62966 204.507 -2.62966 192.772 9.63897 185.818L244.496 50.2155C256.764 43.2615 276.92 43.2615 289.627 50.2155L525.798 185.818C538.066 192.772 538.066 204.507 525.798 211.461L290.941 347.064C278.673 354.018 258.517 354.018 245.81 347.064L9.63897 211.461Z" fill="url(#paint0_linear_862_32870)"/>
<path d="M268.595 333.589C261.146 333.589 254.136 331.851 248.439 328.809L42.0634 210.591C36.8054 207.548 33.7383 203.202 33.7383 198.856C33.7383 194.51 36.8054 190.163 42.0634 187.121L247.125 68.4684C252.383 65.426 259.394 63.6875 266.842 63.6875C274.291 63.6875 281.302 65.426 286.998 68.4684L493.812 186.686C499.07 189.729 502.137 194.075 502.137 198.421C502.137 202.767 499.07 207.114 493.812 210.156L288.312 328.809C283.054 331.851 276.044 333.589 268.595 333.589ZM267.28 64.9914C259.832 64.9914 253.259 66.7299 248.001 69.7722L42.5016 187.99C37.6818 191.033 34.6146 194.51 34.6146 198.856C34.6146 202.767 37.2436 206.679 42.5016 209.721L249.316 327.939C254.574 330.982 261.146 332.72 268.595 332.72C276.044 332.72 282.616 330.982 287.874 327.939L493.374 209.721C498.194 206.679 501.261 203.202 501.261 198.856C501.261 194.944 498.632 191.033 493.374 187.99L286.56 69.3376C281.302 66.2952 274.291 64.9914 267.28 64.9914Z" fill="url(#paint1_linear_862_32870)"/>
<path d="M287.875 388.786C288.751 388.351 292.694 386.178 293.571 385.743V355.754C292.694 356.189 289.189 357.927 288.313 358.362C287.875 358.362 287.875 358.796 287.436 358.796C286.56 359.231 285.684 359.666 284.807 359.666C284.369 359.666 284.369 360.1 283.931 360.1C283.493 360.1 283.055 360.535 282.178 360.535C281.74 360.535 281.302 360.97 280.864 360.97C280.426 360.97 279.549 361.404 279.111 361.404C278.673 361.404 278.235 361.404 277.797 361.839C276.482 361.839 275.606 362.274 274.291 362.274C273.853 362.274 273.415 362.274 272.977 362.274C272.101 362.274 271.662 362.274 270.786 362.274C270.348 362.274 269.91 362.274 269.472 362.274C269.033 362.274 268.157 362.274 267.719 362.274C267.281 362.274 266.843 362.274 266.404 362.274C265.966 362.274 265.528 362.274 264.652 362.274C264.214 362.274 263.775 362.274 263.337 362.274C262.899 362.274 262.461 362.274 261.585 362.274C261.146 362.274 260.708 362.274 260.27 361.839C259.832 361.839 258.956 361.839 258.517 361.404C258.079 361.404 257.641 361.404 257.203 360.97C256.327 360.97 255.888 360.535 255.012 360.535C254.574 360.535 254.136 360.535 254.136 360.1C252.821 359.666 251.945 359.231 250.63 358.796C250.192 358.796 249.754 358.362 248.878 357.927C248.44 357.927 248.44 357.493 248.001 357.493C247.125 357.058 242.744 354.45 241.867 354.016V384.439C242.744 384.874 246.687 387.047 247.125 387.482C247.563 387.482 247.563 387.916 248.001 387.916C248.44 387.916 248.878 388.351 249.316 388.351C250.63 388.786 251.507 389.22 252.821 389.655C252.821 389.655 252.821 389.655 253.259 389.655C253.698 389.655 253.698 389.655 254.136 390.089C254.574 390.089 255.45 390.524 255.888 390.524H256.327C256.765 390.524 256.765 390.524 257.203 390.524C257.641 390.524 258.079 390.524 258.956 390.959C259.394 390.959 259.394 390.959 259.832 390.959C260.27 390.959 260.27 390.959 260.708 390.959C261.146 390.959 261.585 390.959 262.023 390.959C262.461 390.959 262.461 390.959 262.899 390.959C263.337 390.959 263.337 390.959 263.775 390.959C264.214 390.959 264.652 390.959 265.09 390.959C265.528 390.959 265.528 390.959 265.966 390.959C265.966 390.959 266.404 390.959 266.843 390.959C267.281 390.959 268.157 390.959 268.595 390.959C269.033 390.959 269.033 390.959 269.472 390.959H269.91C270.786 390.959 271.224 390.959 272.101 390.959C272.539 390.959 272.539 390.959 272.977 390.959C272.977 390.959 272.977 390.959 273.415 390.959C274.73 390.959 275.606 390.524 276.92 390.524C277.359 390.524 277.797 390.524 277.797 390.089C278.235 390.089 279.111 389.655 279.549 389.655C279.988 389.655 280.426 389.22 280.864 389.22C281.302 389.22 281.74 388.786 282.617 388.786H283.055H283.493C284.369 388.351 285.246 388.351 286.122 387.916C286.998 389.22 287.436 389.22 287.875 388.786Z" fill="url(#paint2_linear_862_32870)"/>
<g opacity="0.48">
<path d="M4.56357 184.169C1.20182 186.11 1.2018 189.257 4.56356 191.198C7.92531 193.139 13.3758 193.139 16.7375 191.198L246.826 58.3563C250.188 56.4154 250.188 53.2685 246.826 51.3276C243.464 49.3867 238.014 49.3867 234.652 51.3276L4.56357 184.169Z" fill="url(#paint3_linear_862_32870)"/>
<path d="M120.216 203.146C116.854 205.087 116.854 208.234 120.216 210.174C123.578 212.115 129.028 212.115 132.39 210.174L362.478 77.3329C365.84 75.392 365.84 72.2451 362.478 70.3042C359.117 68.3633 353.666 68.3633 350.304 70.3042L120.216 203.146Z" fill="url(#paint4_linear_862_32870)"/>
<path d="M174.999 257.267C171.637 259.208 171.637 262.355 174.999 264.296C178.361 266.236 183.811 266.236 187.173 264.296L417.262 131.454C420.623 129.513 420.623 126.366 417.262 124.425C413.9 122.484 408.449 122.484 405.088 124.425L174.999 257.267Z" fill="url(#paint5_linear_862_32870)"/>
<path d="M241.956 295.923C238.594 297.864 238.594 301.011 241.956 302.952C245.318 304.893 250.768 304.893 254.13 302.952L484.219 170.11C487.58 168.169 487.58 165.022 484.219 163.082C480.857 161.141 475.406 161.141 472.045 163.082L241.956 295.923Z" fill="url(#paint6_linear_862_32870)"/>
<path d="M176.078 62.6523C180.861 59.8909 188.616 59.8909 193.399 62.6523L227.209 82.1727C231.992 84.9341 231.992 89.4113 227.209 92.1727L80.1804 177.06C75.3975 179.821 67.6428 179.821 62.8599 177.06L29.0496 157.539C24.2667 154.778 24.2667 150.301 29.0497 147.539L176.078 62.6523Z" fill="url(#paint7_linear_862_32870)"/>
<path d="M302.687 75.3047C307.47 72.5433 315.225 72.5433 320.008 75.3047L353.818 94.8251C358.601 97.5865 358.601 102.064 353.818 104.825L248.181 165.814C243.398 168.576 235.644 168.576 230.861 165.814L197.051 146.294C192.268 143.533 192.268 139.056 197.051 136.294L302.687 75.3047Z" fill="url(#paint8_linear_862_32870)"/>
<path d="M269.818 180.031C274.601 177.27 282.356 177.27 287.139 180.031L320.949 199.552C325.732 202.313 325.732 206.79 320.949 209.552L264.008 242.426C259.225 245.188 251.471 245.188 246.688 242.426L212.877 222.906C208.094 220.145 208.094 215.667 212.877 212.906L269.818 180.031Z" fill="url(#paint9_linear_862_32870)"/>
<path d="M250.34 275.621C255.123 272.86 262.877 272.86 267.66 275.621L301.471 295.141C306.253 297.903 306.253 302.38 301.471 305.141L284.704 314.822C279.921 317.583 272.166 317.583 267.383 314.822L233.573 295.301C228.79 292.54 228.79 288.063 233.573 285.301L250.34 275.621Z" fill="url(#paint10_linear_862_32870)"/>
</g>
<path d="M4.56357 166.501C1.20182 168.442 1.2018 171.589 4.56356 173.53C7.92531 175.471 13.3758 175.471 16.7375 173.53L246.826 40.6883C250.188 38.7474 250.188 35.6006 246.826 33.6597C243.464 31.7188 238.014 31.7188 234.652 33.6597L4.56357 166.501Z" fill="url(#paint11_linear_862_32870)"/>
<path d="M120.216 185.478C116.854 187.419 116.854 190.566 120.216 192.507C123.578 194.447 129.028 194.447 132.39 192.507L362.478 59.6649C365.84 57.724 365.84 54.5771 362.478 52.6362C359.117 50.6953 353.666 50.6953 350.304 52.6362L120.216 185.478Z" fill="url(#paint12_linear_862_32870)"/>
<path d="M174.999 239.599C171.637 241.54 171.637 244.687 174.999 246.628C178.361 248.569 183.811 248.569 187.173 246.628L417.262 113.786C420.623 111.845 420.623 108.698 417.262 106.757C413.9 104.816 408.449 104.816 405.088 106.757L174.999 239.599Z" fill="url(#paint13_linear_862_32870)"/>
<path d="M241.956 278.255C238.594 280.196 238.594 283.343 241.956 285.284C245.318 287.225 250.768 287.225 254.13 285.284L484.219 152.442C487.58 150.501 487.58 147.354 484.219 145.414C480.857 143.473 475.406 143.473 472.045 145.414L241.956 278.255Z" fill="url(#paint14_linear_862_32870)"/>
<path d="M176.078 44.9844C180.861 42.2229 188.616 42.223 193.399 44.9844L227.209 64.5047C231.992 67.2662 231.992 71.7433 227.209 74.5047L80.1804 159.392C75.3975 162.153 67.6428 162.153 62.8599 159.392L29.0496 139.871C24.2667 137.11 24.2667 132.633 29.0497 129.871L176.078 44.9844Z" fill="url(#paint15_linear_862_32870)"/>
<path d="M302.687 57.6367C307.47 54.8753 315.225 54.8753 320.008 57.6367L353.818 77.1571C358.601 79.9185 358.601 84.3957 353.818 87.1571L248.181 148.147C243.398 150.908 235.644 150.908 230.861 148.147L197.051 128.626C192.268 125.865 192.268 121.388 197.051 118.626L302.687 57.6367Z" fill="url(#paint16_linear_862_32870)"/>
<path d="M269.818 162.363C274.601 159.602 282.356 159.602 287.139 162.363L320.949 181.884C325.732 184.645 325.732 189.122 320.949 191.884L264.008 224.758C259.225 227.52 251.471 227.52 246.688 224.758L212.877 205.238C208.094 202.477 208.094 198 212.877 195.238L269.818 162.363Z" fill="url(#paint17_linear_862_32870)"/>
<path d="M247.34 258.953C252.123 256.192 259.877 256.192 264.66 258.953L298.471 278.473C303.253 281.235 303.253 285.712 298.471 288.473L281.704 298.154C276.921 300.915 269.166 300.915 264.383 298.154L230.573 278.633C225.79 275.872 225.79 271.395 230.573 268.633L247.34 258.953Z" fill="url(#paint18_linear_862_32870)"/>
<circle cx="40.6667" cy="37.6667" r="33.6667" fill="url(#paint19_linear_862_32870)"/>
<circle cx="40.6667" cy="37.6667" r="33.6667" fill="url(#paint20_radial_862_32870)"/>
<circle cx="40.6667" cy="37.6667" r="33.6667" fill="url(#paint21_radial_862_32870)"/>
<circle cx="40.6667" cy="37.6667" r="33.6667" fill="url(#paint22_radial_862_32870)"/>
<circle cx="40.6667" cy="37.6667" r="33.6667" fill="url(#paint23_radial_862_32870)"/>
<g style="mix-blend-mode:lighten">
<ellipse cx="38.8427" cy="29.1508" rx="20.8896" ry="18.6586" fill="url(#paint24_linear_862_32870)"/>
</g>
<g style="mix-blend-mode:lighten">
<path d="M26.6283 27.3172C25.2766 26.8972 24.5029 25.4472 25.14 24.1832C26.2487 21.984 27.8724 20.0695 29.888 18.6116C31.9035 17.1537 34.23 16.2108 36.6658 15.8462C38.0657 15.6368 39.2007 16.8254 39.1764 18.2407C39.1522 19.6559 37.9687 20.752 36.5907 21.0755C35.2663 21.3865 34.0079 21.9576 32.8921 22.7647C31.7762 23.5719 30.84 24.5883 30.1301 25.7488C29.3914 26.9562 27.98 27.7372 26.6283 27.3172Z" fill="url(#paint25_linear_862_32870)"/>
</g>
<circle cx="467.5" cy="61.5" r="41.5" fill="url(#paint26_linear_862_32870)"/>
<circle cx="467.5" cy="61.5" r="41.5" fill="url(#paint27_radial_862_32870)"/>
<circle cx="467.5" cy="61.5" r="41.5" fill="url(#paint28_radial_862_32870)"/>
<circle cx="467.5" cy="61.5" r="41.5" fill="url(#paint29_radial_862_32870)"/>
<circle cx="467.5" cy="61.5" r="41.5" fill="url(#paint30_radial_862_32870)"/>
<g style="mix-blend-mode:lighten">
<ellipse cx="465.25" cy="51" rx="25.75" ry="23" fill="url(#paint31_linear_862_32870)"/>
</g>
<g style="mix-blend-mode:lighten">
<path d="M450.196 48.7397C448.53 48.222 447.576 46.4346 448.362 44.8766C449.728 42.1656 451.73 39.8057 454.214 38.0086C456.699 36.2114 459.567 35.0491 462.569 34.5998C464.295 34.3416 465.694 35.8068 465.664 37.5513C465.634 39.2959 464.175 40.647 462.477 41.0458C460.844 41.4291 459.293 42.1331 457.917 43.128C456.542 44.123 455.388 45.3759 454.513 46.8064C453.602 48.2948 451.862 49.2574 450.196 48.7397Z" fill="url(#paint32_linear_862_32870)"/>
</g>
</g>
<defs>
<filter id="filter0_f_862_32870" x="-10.5625" y="214" width="556.562" height="191.938" filterUnits="userSpaceOnUse" color-interpolation-filters="sRGB">
<feFlood flood-opacity="0" result="BackgroundImageFix"/>
<feBlend mode="normal" in="SourceGraphic" in2="BackgroundImageFix" result="shape"/>
<feGaussianBlur stdDeviation="5.5" result="effect1_foregroundBlur_862_32870"/>
</filter>
<linearGradient id="paint0_linear_862_32870" x1="267.84" y1="352.232" x2="267.84" y2="44.9975" gradientUnits="userSpaceOnUse">
<stop stop-color="#F1F4FE"/>
<stop offset="0.5797" stop-color="#F7F9FE"/>
<stop offset="1" stop-color="white"/>
</linearGradient>
<linearGradient id="paint1_linear_862_32870" x1="33.3838" y1="198.619" x2="502.289" y2="198.619" gradientUnits="userSpaceOnUse">
<stop stop-color="#3A98FF"/>
<stop offset="0.6277" stop-color="#00F0FF"/>
<stop offset="1" stop-color="#00FFAC"/>
</linearGradient>
<linearGradient id="paint2_linear_862_32870" x1="242.582" y1="373.936" x2="293.464" y2="373.936" gradientUnits="userSpaceOnUse">
<stop stop-color="#EFF1FE"/>
<stop offset="1" stop-color="#E4E7FB"/>
</linearGradient>
<linearGradient id="paint3_linear_862_32870" x1="4.56356" y1="191.198" x2="125.695" y2="-18.6075" gradientUnits="userSpaceOnUse">
<stop stop-color="#00CBFF"/>
<stop offset="1" stop-color="#3A98FF" stop-opacity="0"/>
</linearGradient>
<linearGradient id="paint4_linear_862_32870" x1="120.216" y1="210.174" x2="241.347" y2="0.369062" gradientUnits="userSpaceOnUse">
<stop stop-color="#00CBFF"/>
<stop offset="1" stop-color="#3A98FF" stop-opacity="0"/>
</linearGradient>
<linearGradient id="paint5_linear_862_32870" x1="174.999" y1="264.296" x2="296.13" y2="54.4902" gradientUnits="userSpaceOnUse">
<stop stop-color="#00CBFF"/>
<stop offset="1" stop-color="#3A98FF" stop-opacity="0"/>
</linearGradient>
<linearGradient id="paint6_linear_862_32870" x1="241.956" y1="302.952" x2="363.087" y2="93.1464" gradientUnits="userSpaceOnUse">
<stop stop-color="#00CBFF"/>
<stop offset="1" stop-color="#3A98FF" stop-opacity="0"/>
</linearGradient>
<linearGradient id="paint7_linear_862_32870" x1="210.304" y1="72.4125" x2="128.129" y2="214.743" gradientUnits="userSpaceOnUse">
<stop stop-color="#00CBFF"/>
<stop offset="1" stop-color="#3A98FF" stop-opacity="0"/>
</linearGradient>
<linearGradient id="paint8_linear_862_32870" x1="336.913" y1="85.0649" x2="275.434" y2="191.549" gradientUnits="userSpaceOnUse">
<stop stop-color="#00CBFF"/>
<stop offset="1" stop-color="#3A98FF" stop-opacity="0"/>
</linearGradient>
<linearGradient id="paint9_linear_862_32870" x1="304.044" y1="189.791" x2="266.913" y2="254.104" gradientUnits="userSpaceOnUse">
<stop stop-color="#00CBFF"/>
<stop offset="1" stop-color="#3A98FF" stop-opacity="0"/>
</linearGradient>
<linearGradient id="paint10_linear_862_32870" x1="284.565" y1="285.381" x2="267.522" y2="314.902" gradientUnits="userSpaceOnUse">
<stop stop-color="#00CBFF"/>
<stop offset="1" stop-color="#3A98FF" stop-opacity="0"/>
</linearGradient>
<linearGradient id="paint11_linear_862_32870" x1="4.56356" y1="173.53" x2="125.695" y2="-36.2755" gradientUnits="userSpaceOnUse">
<stop stop-color="#3A98FF"/>
<stop offset="0.45625" stop-color="#00CBFF"/>
<stop offset="1" stop-color="#48FAC9"/>
</linearGradient>
<linearGradient id="paint12_linear_862_32870" x1="120.216" y1="192.507" x2="241.347" y2="-17.2989" gradientUnits="userSpaceOnUse">
<stop stop-color="#3A98FF"/>
<stop offset="0.45625" stop-color="#00CBFF"/>
<stop offset="1" stop-color="#48FAC9"/>
</linearGradient>
<linearGradient id="paint13_linear_862_32870" x1="174.999" y1="246.628" x2="296.13" y2="36.8222" gradientUnits="userSpaceOnUse">
<stop stop-color="#3A98FF"/>
<stop offset="0.45625" stop-color="#00CBFF"/>
<stop offset="1" stop-color="#48FAC9"/>
</linearGradient>
<linearGradient id="paint14_linear_862_32870" x1="241.956" y1="285.284" x2="363.087" y2="75.4784" gradientUnits="userSpaceOnUse">
<stop stop-color="#3A98FF"/>
<stop offset="0.45625" stop-color="#00CBFF"/>
<stop offset="1" stop-color="#48FAC9"/>
</linearGradient>
<linearGradient id="paint15_linear_862_32870" x1="210.304" y1="54.7446" x2="104.39" y2="238.192" gradientUnits="userSpaceOnUse">
<stop stop-color="#3A98FF"/>
<stop offset="0.45625" stop-color="#00CBFF"/>
<stop offset="1" stop-color="#48FAC9"/>
</linearGradient>
<linearGradient id="paint16_linear_862_32870" x1="336.913" y1="67.3969" x2="275.434" y2="173.881" gradientUnits="userSpaceOnUse">
<stop stop-color="#3A98FF"/>
<stop offset="0.45625" stop-color="#00CBFF"/>
<stop offset="1" stop-color="#48FAC9"/>
</linearGradient>
<linearGradient id="paint17_linear_862_32870" x1="395.958" y1="119.057" x2="312.87" y2="262.969" gradientUnits="userSpaceOnUse">
<stop stop-color="#3A98FF"/>
<stop offset="0.45625" stop-color="#00CBFF"/>
<stop offset="1" stop-color="#48FAC9"/>
</linearGradient>
<linearGradient id="paint18_linear_862_32870" x1="425.827" y1="185.424" x2="336.653" y2="339.878" gradientUnits="userSpaceOnUse">
<stop stop-color="#3A98FF"/>
<stop offset="0.45625" stop-color="#00CBFF"/>
<stop offset="1" stop-color="#48FAC9"/>
</linearGradient>
<linearGradient id="paint19_linear_862_32870" x1="40.6667" y1="4" x2="40.6667" y2="71.3333" gradientUnits="userSpaceOnUse">
<stop stop-color="#40FFC6"/>
<stop offset="0.492708" stop-color="#4AE6FF"/>
<stop offset="1" stop-color="#2595FF"/>
</linearGradient>
<radialGradient id="paint20_radial_862_32870" cx="0" cy="0" r="1" gradientUnits="userSpaceOnUse" gradientTransform="translate(26.8393 17.2262) rotate(62.6223) scale(75.8263)">
<stop offset="0.462106" stop-color="#2AA8FF" stop-opacity="0"/>
<stop offset="0.894737" stop-color="#2595FF"/>
</radialGradient>
<radialGradient id="paint21_radial_862_32870" cx="0" cy="0" r="1" gradientUnits="userSpaceOnUse" gradientTransform="translate(24.4345 18.4286) rotate(56.6259) scale(90.7081)">
<stop stop-color="#6EFFCE"/>
<stop offset="0.570035" stop-color="#A5FFFD" stop-opacity="0"/>
</radialGradient>
<radialGradient id="paint22_radial_862_32870" cx="0" cy="0" r="1" gradientUnits="userSpaceOnUse" gradientTransform="translate(34.0536 24.4405) rotate(63.4349) scale(48.3586)">
<stop offset="0.672439" stop-color="#9EC6FD" stop-opacity="0"/>
<stop offset="1" stop-color="white"/>
</radialGradient>
<radialGradient id="paint23_radial_862_32870" cx="0" cy="0" r="1" gradientUnits="userSpaceOnUse" gradientTransform="translate(37.027 30.3874) rotate(62.0378) scale(41.7221)">
<stop offset="0.961458" stop-color="#2AA8FF" stop-opacity="0"/>
<stop offset="1" stop-color="#058AFF" stop-opacity="0.26"/>
</radialGradient>
<linearGradient id="paint24_linear_862_32870" x1="26.9058" y1="15.3073" x2="41.9669" y2="32.0343" gradientUnits="userSpaceOnUse">
<stop stop-color="white" stop-opacity="0.86"/>
<stop offset="1" stop-color="#D9D9D9" stop-opacity="0"/>
</linearGradient>
<linearGradient id="paint25_linear_862_32870" x1="38.8466" y1="17.1948" x2="29.7475" y2="27.6587" gradientUnits="userSpaceOnUse">
<stop stop-color="white"/>
<stop offset="1" stop-color="#FFFFE9" stop-opacity="0.38"/>
</linearGradient>
<linearGradient id="paint26_linear_862_32870" x1="467.5" y1="20" x2="467.5" y2="103" gradientUnits="userSpaceOnUse">
<stop stop-color="#40FFC6"/>
<stop offset="0.492708" stop-color="#4AE6FF"/>
<stop offset="1" stop-color="#2595FF"/>
</linearGradient>
<radialGradient id="paint27_radial_862_32870" cx="0" cy="0" r="1" gradientUnits="userSpaceOnUse" gradientTransform="translate(450.455 36.3036) rotate(62.6223) scale(93.4691)">
<stop offset="0.462106" stop-color="#2AA8FF" stop-opacity="0"/>
<stop offset="0.894737" stop-color="#2595FF"/>
</radialGradient>
<radialGradient id="paint28_radial_862_32870" cx="0" cy="0" r="1" gradientUnits="userSpaceOnUse" gradientTransform="translate(447.491 37.7857) rotate(56.6259) scale(111.813)">
<stop stop-color="#6EFFCE"/>
<stop offset="0.570035" stop-color="#A5FFFD" stop-opacity="0"/>
</radialGradient>
<radialGradient id="paint29_radial_862_32870" cx="0" cy="0" r="1" gradientUnits="userSpaceOnUse" gradientTransform="translate(459.348 45.1964) rotate(63.4349) scale(59.6103)">
<stop offset="0.672439" stop-color="#9EC6FD" stop-opacity="0"/>
<stop offset="1" stop-color="white"/>
</radialGradient>
<radialGradient id="paint30_radial_862_32870" cx="0" cy="0" r="1" gradientUnits="userSpaceOnUse" gradientTransform="translate(463.014 52.527) rotate(62.0378) scale(51.4297)">
<stop offset="0.961458" stop-color="#2AA8FF" stop-opacity="0"/>
<stop offset="1" stop-color="#058AFF" stop-opacity="0.26"/>
</radialGradient>
<linearGradient id="paint31_linear_862_32870" x1="450.536" y1="33.9355" x2="469.101" y2="54.5543" gradientUnits="userSpaceOnUse">
<stop stop-color="white" stop-opacity="0.86"/>
<stop offset="1" stop-color="#D9D9D9" stop-opacity="0"/>
</linearGradient>
<linearGradient id="paint32_linear_862_32870" x1="465.257" y1="36.2621" x2="454.041" y2="49.1607" gradientUnits="userSpaceOnUse">
<stop stop-color="white"/>
<stop offset="1" stop-color="#FFFFE9" stop-opacity="0.38"/>
</linearGradient>
<clipPath id="clip0_862_32870">
<rect width="535" height="422" fill="white"/>
</clipPath>
</defs>
</svg>
