<svg width="535" height="436" viewBox="0 0 535 436" fill="none" xmlns="http://www.w3.org/2000/svg">
<g clip-path="url(#clip0_822_17809)">
<g filter="url(#filter0_f_822_17809)">
<path d="M9.63995 268.554C-2.62868 261.6 -2.62868 249.866 9.63995 242.912L244.497 244.215C256.765 237.262 276.921 237.262 289.628 244.215L525.799 242.912C538.067 249.866 538.067 261.6 525.799 268.554L290.942 403.723C278.674 410.677 258.518 410.677 245.811 403.723L9.63995 268.554Z" fill="#C5D9EF"/>
</g>
<path d="M535 224.157C535 224.592 535 225.027 535 225.027C535 225.461 535 225.461 535 225.896C535 226.331 535 226.765 534.562 226.765C534.562 227.2 534.562 227.2 534.124 227.634C534.124 228.069 533.686 228.069 533.686 228.504C533.248 228.938 533.248 229.373 532.809 229.808C532.371 230.242 532.371 230.677 531.933 231.111C531.933 231.111 531.933 231.111 531.495 231.546C531.057 231.981 530.619 232.415 530.18 232.85C529.742 233.285 529.304 233.285 529.304 233.719C528.866 234.154 528.866 234.154 528.428 234.588C527.99 235.023 527.551 235.023 527.113 235.458C526.675 235.892 526.237 235.892 525.799 236.327L290.942 371.061L290.504 401.05L525.361 265.447C525.361 265.447 525.799 265.447 525.799 265.012C526.237 265.012 526.237 264.578 526.675 264.578C527.113 264.143 527.551 264.143 527.99 263.708C528.428 263.274 528.428 263.274 528.866 262.839C529.304 262.404 529.742 262.404 529.742 261.97C530.18 261.535 530.619 261.101 531.057 260.666C531.057 260.666 531.057 260.666 531.057 260.231C531.057 259.797 531.495 259.797 531.495 259.362L531.933 258.927C531.933 258.927 531.933 258.927 531.933 258.493C532.371 258.058 532.371 257.624 532.809 257.624C532.809 257.624 532.809 257.624 532.809 257.189C532.809 256.754 533.248 256.754 533.248 256.32C533.248 256.32 533.248 255.885 533.686 255.885C533.686 255.885 533.686 255.885 533.686 255.45C533.686 255.016 533.686 255.016 534.124 254.581V254.147C534.124 253.712 534.124 253.277 534.124 253.277C534.124 252.843 534.124 252.843 534.124 252.408C534.124 252.408 534.124 252.408 534.124 251.973L534.562 221.984C535 223.288 535 223.723 535 224.157Z" fill="#E1EDFF"/>
<path d="M9.63964 235.892C3.50532 232.415 0.438165 227.634 0.438165 222.854L0 252.843C0 257.623 3.06716 262.404 9.20147 265.881L245.811 401.05L246.249 371.061L9.63964 235.892Z" fill="#EFF1FE"/>
<path d="M525.799 210.25C538.067 217.204 538.067 228.939 525.799 235.893L290.942 371.061C278.674 378.015 258.518 378.015 245.811 371.061L9.63995 235.893C-2.62868 228.939 -2.62868 217.204 9.63995 210.25L244.497 74.6471C256.765 67.6931 276.921 67.6931 289.628 74.6471L525.799 210.25Z" fill="white"/>
<path d="M9.63995 225.461C-2.62868 218.507 -2.62868 206.772 9.63995 199.818L244.497 64.2155C256.765 57.2615 276.921 57.2615 289.628 64.2155L525.799 199.818C538.067 206.772 538.067 218.507 525.799 225.461L290.942 361.064C278.674 368.018 258.518 368.018 245.811 361.064L9.63995 225.461Z" fill="url(#paint0_linear_822_17809)"/>
<path d="M268.596 347.591C261.147 347.591 254.136 345.853 248.44 342.811L42.0644 224.593C36.8064 221.55 33.7393 217.204 33.7393 212.858C33.7393 208.512 36.8064 204.165 42.0644 201.123L247.126 82.4703C252.384 79.428 259.394 77.6895 266.843 77.6895C274.292 77.6895 281.303 79.428 286.999 82.4703L493.813 200.688C499.071 203.731 502.138 208.077 502.138 212.423C502.138 216.769 499.071 221.116 493.813 224.158L288.313 342.811C283.055 345.853 276.045 347.591 268.596 347.591ZM267.281 78.9933C259.833 78.9933 253.26 80.7318 248.002 83.7742L42.5026 201.992C37.6827 205.035 34.6156 208.512 34.6156 212.858C34.6156 216.769 37.2446 220.681 42.5026 223.723L249.317 341.941C254.575 344.984 261.147 346.722 268.596 346.722C276.045 346.722 282.617 344.984 287.875 341.941L493.375 223.723C498.195 220.681 501.262 217.204 501.262 212.858C501.262 208.946 498.633 205.035 493.375 201.992L286.561 83.3396C281.303 80.2972 274.292 78.9933 267.281 78.9933Z" fill="url(#paint1_linear_822_17809)"/>
<path d="M287.875 402.788C288.751 402.353 292.694 400.18 293.571 399.745V369.756C292.694 370.191 289.189 371.929 288.313 372.364C287.875 372.364 287.875 372.798 287.436 372.798C286.56 373.233 285.684 373.668 284.807 373.668C284.369 373.668 284.369 374.102 283.931 374.102C283.493 374.102 283.055 374.537 282.178 374.537C281.74 374.537 281.302 374.972 280.864 374.972C280.426 374.972 279.549 375.406 279.111 375.406C278.673 375.406 278.235 375.406 277.797 375.841C276.482 375.841 275.606 376.275 274.291 376.275C273.853 376.275 273.415 376.275 272.977 376.275C272.101 376.275 271.662 376.275 270.786 376.275C270.348 376.275 269.91 376.275 269.472 376.275C269.033 376.275 268.157 376.275 267.719 376.275C267.281 376.275 266.843 376.275 266.404 376.275C265.966 376.275 265.528 376.275 264.652 376.275C264.214 376.275 263.775 376.275 263.337 376.275C262.899 376.275 262.461 376.275 261.585 376.275C261.146 376.275 260.708 376.275 260.27 375.841C259.832 375.841 258.956 375.841 258.517 375.406C258.079 375.406 257.641 375.406 257.203 374.972C256.327 374.972 255.888 374.537 255.012 374.537C254.574 374.537 254.136 374.537 254.136 374.102C252.821 373.668 251.945 373.233 250.63 372.798C250.192 372.798 249.754 372.364 248.878 371.929C248.44 371.929 248.44 371.495 248.001 371.495C247.125 371.06 242.744 368.452 241.867 368.018V398.441C242.744 398.876 246.687 401.049 247.125 401.484C247.563 401.484 247.563 401.918 248.001 401.918C248.44 401.918 248.878 402.353 249.316 402.353C250.63 402.788 251.507 403.222 252.821 403.657C252.821 403.657 252.821 403.657 253.259 403.657C253.698 403.657 253.698 403.657 254.136 404.091C254.574 404.091 255.45 404.526 255.888 404.526H256.327C256.765 404.526 256.765 404.526 257.203 404.526C257.641 404.526 258.079 404.526 258.956 404.961C259.394 404.961 259.394 404.961 259.832 404.961C260.27 404.961 260.27 404.961 260.708 404.961C261.146 404.961 261.585 404.961 262.023 404.961C262.461 404.961 262.461 404.961 262.899 404.961C263.337 404.961 263.337 404.961 263.775 404.961C264.214 404.961 264.652 404.961 265.09 404.961C265.528 404.961 265.528 404.961 265.966 404.961C265.966 404.961 266.404 404.961 266.843 404.961C267.281 404.961 268.157 404.961 268.595 404.961C269.033 404.961 269.033 404.961 269.472 404.961H269.91C270.786 404.961 271.224 404.961 272.101 404.961C272.539 404.961 272.539 404.961 272.977 404.961C272.977 404.961 272.977 404.961 273.415 404.961C274.73 404.961 275.606 404.526 276.92 404.526C277.359 404.526 277.797 404.526 277.797 404.091C278.235 404.091 279.111 403.657 279.549 403.657C279.988 403.657 280.426 403.222 280.864 403.222C281.302 403.222 281.74 402.788 282.617 402.788H283.055H283.493C284.369 402.353 285.246 402.353 286.122 401.918C286.998 403.222 287.436 403.222 287.875 402.788Z" fill="url(#paint2_linear_822_17809)"/>
<g opacity="0.48">
<path d="M4.56552 198.169C1.20377 200.11 1.20376 203.257 4.56551 205.198V205.198C7.92727 207.139 13.3777 207.139 16.7395 205.198L246.828 72.3563C250.19 70.4154 250.19 67.2685 246.828 65.3276V65.3276C243.466 63.3867 238.016 63.3867 234.654 65.3276L4.56552 198.169Z" fill="url(#paint3_linear_822_17809)"/>
<path d="M120.219 217.146C116.857 219.087 116.857 222.234 120.219 224.174V224.174C123.581 226.115 129.031 226.115 132.393 224.174L362.481 91.3329C365.843 89.392 365.843 86.2451 362.481 84.3042V84.3042C359.12 82.3633 353.669 82.3633 350.307 84.3042L120.219 217.146Z" fill="url(#paint4_linear_822_17809)"/>
<path d="M175.001 271.266C171.639 273.207 171.639 276.354 175.001 278.295V278.295C178.363 280.236 183.813 280.236 187.175 278.295L417.263 145.453C420.625 143.512 420.625 140.365 417.263 138.424V138.424C413.902 136.483 408.451 136.483 405.089 138.424L175.001 271.266Z" fill="url(#paint5_linear_822_17809)"/>
<path d="M241.958 309.925C238.596 311.866 238.596 315.013 241.958 316.954V316.954C245.32 318.895 250.77 318.895 254.132 316.954L484.22 184.112C487.582 182.171 487.582 179.024 484.221 177.083V177.083C480.859 175.143 475.408 175.143 472.047 177.083L241.958 309.925Z" fill="url(#paint6_linear_822_17809)"/>
<path d="M176.08 76.6523C180.863 73.8909 188.618 73.8909 193.4 76.6523L227.211 96.1727C231.994 98.9341 231.994 103.411 227.211 106.173L80.1824 191.06C75.3994 193.821 67.6448 193.821 62.8619 191.06L29.0516 171.539C24.2687 168.778 24.2687 164.301 29.0516 161.539L176.08 76.6523Z" fill="url(#paint7_linear_822_17809)"/>
<path d="M302.69 89.3047C307.473 86.5433 315.228 86.5433 320.011 89.3047L353.821 108.825C358.604 111.586 358.604 116.064 353.821 118.825L248.184 179.814C243.401 182.576 235.647 182.576 230.864 179.814L197.054 160.294C192.271 157.533 192.271 153.056 197.054 150.294L302.69 89.3047Z" fill="url(#paint8_linear_822_17809)"/>
<path d="M269.82 194.031C274.603 191.27 282.358 191.27 287.141 194.031L320.951 213.552C325.734 216.313 325.734 220.79 320.951 223.552L264.01 256.426C259.227 259.188 251.473 259.188 246.69 256.426L212.879 236.906C208.096 234.145 208.096 229.667 212.879 226.906L269.82 194.031Z" fill="url(#paint9_linear_822_17809)"/>
<path d="M250.342 289.622C255.125 286.861 262.879 286.861 267.662 289.622L301.472 309.142C306.255 311.904 306.255 316.381 301.472 319.142L284.706 328.823C279.923 331.584 272.168 331.584 267.385 328.823L233.575 309.302C228.792 306.541 228.792 302.064 233.575 299.302L250.342 289.622Z" fill="url(#paint10_linear_822_17809)"/>
</g>
<path d="M4.56552 180.501C1.20377 182.442 1.20376 185.589 4.56551 187.53V187.53C7.92727 189.471 13.3777 189.471 16.7395 187.53L246.828 54.6883C250.19 52.7474 250.19 49.6006 246.828 47.6597V47.6597C243.466 45.7188 238.016 45.7188 234.654 47.6597L4.56552 180.501Z" fill="url(#paint11_linear_822_17809)"/>
<path d="M120.219 199.478C116.857 201.419 116.857 204.566 120.219 206.507V206.507C123.581 208.447 129.031 208.447 132.393 206.507L362.481 73.6649C365.843 71.724 365.843 68.5771 362.481 66.6362V66.6362C359.12 64.6953 353.669 64.6953 350.307 66.6362L120.219 199.478Z" fill="url(#paint12_linear_822_17809)"/>
<path d="M175.001 253.598C171.639 255.539 171.639 258.686 175.001 260.627V260.627C178.363 262.568 183.813 262.568 187.175 260.627L417.263 127.785C420.625 125.844 420.625 122.697 417.263 120.756V120.756C413.902 118.815 408.451 118.815 405.089 120.756L175.001 253.598Z" fill="url(#paint13_linear_822_17809)"/>
<path d="M241.958 292.257C238.596 294.198 238.596 297.345 241.958 299.286V299.286C245.32 301.227 250.77 301.227 254.132 299.286L484.22 166.444C487.582 164.503 487.582 161.356 484.221 159.416V159.416C480.859 157.475 475.408 157.475 472.047 159.416L241.958 292.257Z" fill="url(#paint14_linear_822_17809)"/>
<path d="M176.08 58.9844C180.863 56.2229 188.618 56.223 193.4 58.9844L227.211 78.5047C231.994 81.2662 231.994 85.7433 227.211 88.5047L80.1824 173.392C75.3994 176.153 67.6448 176.153 62.8619 173.392L29.0516 153.871C24.2687 151.11 24.2687 146.633 29.0516 143.871L176.08 58.9844Z" fill="url(#paint15_linear_822_17809)"/>
<path d="M302.69 71.6367C307.473 68.8753 315.228 68.8753 320.011 71.6367L353.821 91.1571C358.604 93.9185 358.604 98.3957 353.821 101.157L248.184 162.147C243.401 164.908 235.647 164.908 230.864 162.147L197.054 142.626C192.271 139.865 192.271 135.388 197.054 132.626L302.69 71.6367Z" fill="url(#paint16_linear_822_17809)"/>
<path d="M269.82 176.363C274.603 173.602 282.358 173.602 287.141 176.363L320.951 195.884C325.734 198.645 325.734 203.122 320.951 205.884L264.01 238.758C259.227 241.52 251.473 241.52 246.69 238.758L212.879 219.238C208.096 216.477 208.096 212 212.879 209.238L269.82 176.363Z" fill="url(#paint17_linear_822_17809)"/>
<path d="M247.342 272.954C252.125 270.193 259.879 270.193 264.662 272.954L298.472 292.474C303.255 295.236 303.255 299.713 298.472 302.474L281.706 312.155C276.923 314.916 269.168 314.916 264.385 312.155L230.575 292.634C225.792 289.873 225.792 285.396 230.575 282.634L247.342 272.954Z" fill="url(#paint18_linear_822_17809)"/>
<circle cx="40.6667" cy="51.6667" r="33.6667" fill="url(#paint19_linear_822_17809)"/>
<circle cx="40.6667" cy="51.6667" r="33.6667" fill="url(#paint20_radial_822_17809)"/>
<circle cx="40.6667" cy="51.6667" r="33.6667" fill="url(#paint21_radial_822_17809)"/>
<circle cx="40.6667" cy="51.6667" r="33.6667" fill="url(#paint22_radial_822_17809)"/>
<circle cx="40.6667" cy="51.6667" r="33.6667" fill="url(#paint23_radial_822_17809)"/>
<g style="mix-blend-mode:lighten">
<ellipse cx="38.8417" cy="43.1489" rx="20.8896" ry="18.6586" fill="url(#paint24_linear_822_17809)"/>
</g>
<g style="mix-blend-mode:lighten">
<path d="M26.6293 41.3162C25.2776 40.8962 24.5039 39.4462 25.141 38.1823C26.2496 35.983 27.8734 34.0685 29.8889 32.6106C31.9045 31.1527 34.231 30.2098 36.6668 29.8453C38.0666 29.6358 39.2016 30.8245 39.1774 32.2397V32.2397C39.1532 33.6549 37.9697 34.751 36.5917 35.0746C35.2673 35.3855 34.0089 35.9566 32.8931 36.7638C31.7772 37.5709 30.8409 38.5873 30.131 39.7478C29.3924 40.9552 27.981 41.7362 26.6293 41.3162V41.3162Z" fill="url(#paint25_linear_822_17809)"/>
</g>
<circle cx="467.5" cy="75.5" r="41.5" fill="url(#paint26_linear_822_17809)"/>
<circle cx="467.5" cy="75.5" r="41.5" fill="url(#paint27_radial_822_17809)"/>
<circle cx="467.5" cy="75.5" r="41.5" fill="url(#paint28_radial_822_17809)"/>
<circle cx="467.5" cy="75.5" r="41.5" fill="url(#paint29_radial_822_17809)"/>
<circle cx="467.5" cy="75.5" r="41.5" fill="url(#paint30_radial_822_17809)"/>
<g style="mix-blend-mode:lighten">
<ellipse cx="465.25" cy="65.001" rx="25.75" ry="23" fill="url(#paint31_linear_822_17809)"/>
</g>
<g style="mix-blend-mode:lighten">
<path d="M450.196 62.7407C448.53 62.223 447.576 60.4356 448.362 58.8776C449.728 56.1666 451.73 53.8067 454.214 52.0095C456.699 50.2124 459.567 49.0501 462.569 48.6008C464.295 48.3426 465.694 49.8078 465.664 51.5523V51.5523C465.634 53.2968 464.175 54.648 462.477 55.0468C460.844 55.4301 459.293 56.1341 457.917 57.129C456.542 58.124 455.388 59.3769 454.513 60.8074C453.602 62.2958 451.862 63.2584 450.196 62.7407V62.7407Z" fill="url(#paint32_linear_822_17809)"/>
</g>
</g>
<defs>
<filter id="filter0_f_822_17809" x="-10.5615" y="228" width="556.562" height="191.938" filterUnits="userSpaceOnUse" color-interpolation-filters="sRGB">
<feFlood flood-opacity="0" result="BackgroundImageFix"/>
<feBlend mode="normal" in="SourceGraphic" in2="BackgroundImageFix" result="shape"/>
<feGaussianBlur stdDeviation="5.5" result="effect1_foregroundBlur_822_17809"/>
</filter>
<linearGradient id="paint0_linear_822_17809" x1="267.841" y1="366.232" x2="267.841" y2="58.9975" gradientUnits="userSpaceOnUse">
<stop stop-color="#F1F4FE"/>
<stop offset="0.5797" stop-color="#F7F9FE"/>
<stop offset="1" stop-color="white"/>
</linearGradient>
<linearGradient id="paint1_linear_822_17809" x1="33.3848" y1="212.621" x2="502.29" y2="212.621" gradientUnits="userSpaceOnUse">
<stop stop-color="#3A98FF"/>
<stop offset="0.6277" stop-color="#00F0FF"/>
<stop offset="1" stop-color="#00FFAC"/>
</linearGradient>
<linearGradient id="paint2_linear_822_17809" x1="242.582" y1="387.938" x2="293.464" y2="387.938" gradientUnits="userSpaceOnUse">
<stop stop-color="#EFF1FE"/>
<stop offset="1" stop-color="#E4E7FB"/>
</linearGradient>
<linearGradient id="paint3_linear_822_17809" x1="4.56551" y1="205.198" x2="125.697" y2="-4.6075" gradientUnits="userSpaceOnUse">
<stop stop-color="#00CBFF"/>
<stop offset="1" stop-color="#3A98FF" stop-opacity="0"/>
</linearGradient>
<linearGradient id="paint4_linear_822_17809" x1="120.219" y1="224.174" x2="241.35" y2="14.3691" gradientUnits="userSpaceOnUse">
<stop stop-color="#00CBFF"/>
<stop offset="1" stop-color="#3A98FF" stop-opacity="0"/>
</linearGradient>
<linearGradient id="paint5_linear_822_17809" x1="175.001" y1="278.295" x2="296.132" y2="68.4892" gradientUnits="userSpaceOnUse">
<stop stop-color="#00CBFF"/>
<stop offset="1" stop-color="#3A98FF" stop-opacity="0"/>
</linearGradient>
<linearGradient id="paint6_linear_822_17809" x1="241.958" y1="316.954" x2="363.089" y2="107.148" gradientUnits="userSpaceOnUse">
<stop stop-color="#00CBFF"/>
<stop offset="1" stop-color="#3A98FF" stop-opacity="0"/>
</linearGradient>
<linearGradient id="paint7_linear_822_17809" x1="210.306" y1="86.4125" x2="128.131" y2="228.743" gradientUnits="userSpaceOnUse">
<stop stop-color="#00CBFF"/>
<stop offset="1" stop-color="#3A98FF" stop-opacity="0"/>
</linearGradient>
<linearGradient id="paint8_linear_822_17809" x1="336.916" y1="99.0649" x2="275.437" y2="205.549" gradientUnits="userSpaceOnUse">
<stop stop-color="#00CBFF"/>
<stop offset="1" stop-color="#3A98FF" stop-opacity="0"/>
</linearGradient>
<linearGradient id="paint9_linear_822_17809" x1="304.046" y1="203.791" x2="266.915" y2="268.104" gradientUnits="userSpaceOnUse">
<stop stop-color="#00CBFF"/>
<stop offset="1" stop-color="#3A98FF" stop-opacity="0"/>
</linearGradient>
<linearGradient id="paint10_linear_822_17809" x1="284.567" y1="299.382" x2="267.524" y2="328.903" gradientUnits="userSpaceOnUse">
<stop stop-color="#00CBFF"/>
<stop offset="1" stop-color="#3A98FF" stop-opacity="0"/>
</linearGradient>
<linearGradient id="paint11_linear_822_17809" x1="4.56551" y1="187.53" x2="125.697" y2="-22.2755" gradientUnits="userSpaceOnUse">
<stop stop-color="#3A98FF"/>
<stop offset="0.45625" stop-color="#00CBFF"/>
<stop offset="1" stop-color="#48FAC9"/>
</linearGradient>
<linearGradient id="paint12_linear_822_17809" x1="120.219" y1="206.507" x2="241.35" y2="-3.29891" gradientUnits="userSpaceOnUse">
<stop stop-color="#3A98FF"/>
<stop offset="0.45625" stop-color="#00CBFF"/>
<stop offset="1" stop-color="#48FAC9"/>
</linearGradient>
<linearGradient id="paint13_linear_822_17809" x1="175.001" y1="260.627" x2="296.132" y2="50.8212" gradientUnits="userSpaceOnUse">
<stop stop-color="#3A98FF"/>
<stop offset="0.45625" stop-color="#00CBFF"/>
<stop offset="1" stop-color="#48FAC9"/>
</linearGradient>
<linearGradient id="paint14_linear_822_17809" x1="241.958" y1="299.286" x2="363.089" y2="89.4804" gradientUnits="userSpaceOnUse">
<stop stop-color="#3A98FF"/>
<stop offset="0.45625" stop-color="#00CBFF"/>
<stop offset="1" stop-color="#48FAC9"/>
</linearGradient>
<linearGradient id="paint15_linear_822_17809" x1="210.306" y1="68.7446" x2="104.392" y2="252.192" gradientUnits="userSpaceOnUse">
<stop stop-color="#3A98FF"/>
<stop offset="0.45625" stop-color="#00CBFF"/>
<stop offset="1" stop-color="#48FAC9"/>
</linearGradient>
<linearGradient id="paint16_linear_822_17809" x1="336.916" y1="81.3969" x2="275.437" y2="187.881" gradientUnits="userSpaceOnUse">
<stop stop-color="#3A98FF"/>
<stop offset="0.45625" stop-color="#00CBFF"/>
<stop offset="1" stop-color="#48FAC9"/>
</linearGradient>
<linearGradient id="paint17_linear_822_17809" x1="395.959" y1="133.057" x2="312.872" y2="276.969" gradientUnits="userSpaceOnUse">
<stop stop-color="#3A98FF"/>
<stop offset="0.45625" stop-color="#00CBFF"/>
<stop offset="1" stop-color="#48FAC9"/>
</linearGradient>
<linearGradient id="paint18_linear_822_17809" x1="425.829" y1="199.425" x2="336.655" y2="353.879" gradientUnits="userSpaceOnUse">
<stop stop-color="#3A98FF"/>
<stop offset="0.45625" stop-color="#00CBFF"/>
<stop offset="1" stop-color="#48FAC9"/>
</linearGradient>
<linearGradient id="paint19_linear_822_17809" x1="40.6667" y1="18" x2="40.6667" y2="85.3333" gradientUnits="userSpaceOnUse">
<stop stop-color="#40FFC6"/>
<stop offset="0.492708" stop-color="#4AE6FF"/>
<stop offset="1" stop-color="#2595FF"/>
</linearGradient>
<radialGradient id="paint20_radial_822_17809" cx="0" cy="0" r="1" gradientUnits="userSpaceOnUse" gradientTransform="translate(26.8393 31.2262) rotate(62.6223) scale(75.8263)">
<stop offset="0.462106" stop-color="#2AA8FF" stop-opacity="0"/>
<stop offset="0.894737" stop-color="#2595FF"/>
</radialGradient>
<radialGradient id="paint21_radial_822_17809" cx="0" cy="0" r="1" gradientUnits="userSpaceOnUse" gradientTransform="translate(24.4345 32.4286) rotate(56.6259) scale(90.7081)">
<stop stop-color="#6EFFCE"/>
<stop offset="0.570035" stop-color="#A5FFFD" stop-opacity="0"/>
</radialGradient>
<radialGradient id="paint22_radial_822_17809" cx="0" cy="0" r="1" gradientUnits="userSpaceOnUse" gradientTransform="translate(34.0536 38.4405) rotate(63.4349) scale(48.3586)">
<stop offset="0.672439" stop-color="#9EC6FD" stop-opacity="0"/>
<stop offset="1" stop-color="white"/>
</radialGradient>
<radialGradient id="paint23_radial_822_17809" cx="0" cy="0" r="1" gradientUnits="userSpaceOnUse" gradientTransform="translate(37.027 44.3874) rotate(62.0378) scale(41.7221)">
<stop offset="0.961458" stop-color="#2AA8FF" stop-opacity="0"/>
<stop offset="1" stop-color="#058AFF" stop-opacity="0.26"/>
</radialGradient>
<linearGradient id="paint24_linear_822_17809" x1="26.9048" y1="29.3054" x2="41.9659" y2="46.0323" gradientUnits="userSpaceOnUse">
<stop stop-color="white" stop-opacity="0.86"/>
<stop offset="1" stop-color="#D9D9D9" stop-opacity="0"/>
</linearGradient>
<linearGradient id="paint25_linear_822_17809" x1="38.8476" y1="31.1938" x2="29.7485" y2="41.6578" gradientUnits="userSpaceOnUse">
<stop stop-color="white"/>
<stop offset="1" stop-color="#FFFFE9" stop-opacity="0.38"/>
</linearGradient>
<linearGradient id="paint26_linear_822_17809" x1="467.5" y1="34" x2="467.5" y2="117" gradientUnits="userSpaceOnUse">
<stop stop-color="#40FFC6"/>
<stop offset="0.492708" stop-color="#4AE6FF"/>
<stop offset="1" stop-color="#2595FF"/>
</linearGradient>
<radialGradient id="paint27_radial_822_17809" cx="0" cy="0" r="1" gradientUnits="userSpaceOnUse" gradientTransform="translate(450.455 50.3036) rotate(62.6223) scale(93.4691)">
<stop offset="0.462106" stop-color="#2AA8FF" stop-opacity="0"/>
<stop offset="0.894737" stop-color="#2595FF"/>
</radialGradient>
<radialGradient id="paint28_radial_822_17809" cx="0" cy="0" r="1" gradientUnits="userSpaceOnUse" gradientTransform="translate(447.491 51.7857) rotate(56.6259) scale(111.813)">
<stop stop-color="#6EFFCE"/>
<stop offset="0.570035" stop-color="#A5FFFD" stop-opacity="0"/>
</radialGradient>
<radialGradient id="paint29_radial_822_17809" cx="0" cy="0" r="1" gradientUnits="userSpaceOnUse" gradientTransform="translate(459.348 59.1964) rotate(63.4349) scale(59.6103)">
<stop offset="0.672439" stop-color="#9EC6FD" stop-opacity="0"/>
<stop offset="1" stop-color="white"/>
</radialGradient>
<radialGradient id="paint30_radial_822_17809" cx="0" cy="0" r="1" gradientUnits="userSpaceOnUse" gradientTransform="translate(463.014 66.527) rotate(62.0378) scale(51.4297)">
<stop offset="0.961458" stop-color="#2AA8FF" stop-opacity="0"/>
<stop offset="1" stop-color="#058AFF" stop-opacity="0.26"/>
</radialGradient>
<linearGradient id="paint31_linear_822_17809" x1="450.536" y1="47.9365" x2="469.101" y2="68.5553" gradientUnits="userSpaceOnUse">
<stop stop-color="white" stop-opacity="0.86"/>
<stop offset="1" stop-color="#D9D9D9" stop-opacity="0"/>
</linearGradient>
<linearGradient id="paint32_linear_822_17809" x1="465.257" y1="50.2631" x2="454.041" y2="63.1617" gradientUnits="userSpaceOnUse">
<stop stop-color="white"/>
<stop offset="1" stop-color="#FFFFE9" stop-opacity="0.38"/>
</linearGradient>
<clipPath id="clip0_822_17809">
<rect width="535" height="436" fill="white"/>
</clipPath>
</defs>
</svg>
