<svg width="535" height="422" viewBox="0 0 535 422" fill="none" xmlns="http://www.w3.org/2000/svg">
<g clip-path="url(#clip0_862_35419)">
<g filter="url(#filter0_f_862_35419)">
<path d="M9.63897 254.554C-2.62966 247.6 -2.62966 235.866 9.63897 228.912L244.496 230.215C256.764 223.262 276.92 223.262 289.627 230.215L525.798 228.912C538.066 235.866 538.066 247.6 525.798 254.554L290.941 389.723C278.673 396.677 258.517 396.677 245.81 389.723L9.63897 254.554Z" fill="#C5D9EF"/>
</g>
<path d="M535 210.157C535 210.592 535 211.027 535 211.027C535 211.461 535 211.461 535 211.896C535 212.331 535 212.765 534.562 212.765C534.562 213.2 534.562 213.2 534.124 213.634C534.124 214.069 533.686 214.069 533.686 214.504C533.248 214.938 533.248 215.373 532.809 215.808C532.371 216.242 532.371 216.677 531.933 217.111C531.933 217.111 531.933 217.111 531.495 217.546C531.057 217.981 530.619 218.415 530.18 218.85C529.742 219.285 529.304 219.285 529.304 219.719C528.866 220.154 528.866 220.154 528.428 220.588C527.99 221.023 527.551 221.023 527.113 221.458C526.675 221.892 526.237 221.892 525.799 222.327L290.942 357.061L290.504 387.05L525.361 251.447C525.361 251.447 525.799 251.447 525.799 251.012C526.237 251.012 526.237 250.578 526.675 250.578C527.113 250.143 527.551 250.143 527.99 249.708C528.428 249.274 528.428 249.274 528.866 248.839C529.304 248.404 529.742 248.404 529.742 247.97C530.18 247.535 530.619 247.101 531.057 246.666C531.057 246.666 531.057 246.666 531.057 246.231C531.057 245.797 531.495 245.797 531.495 245.362L531.933 244.927C531.933 244.927 531.933 244.927 531.933 244.493C532.371 244.058 532.371 243.624 532.809 243.624C532.809 243.624 532.809 243.624 532.809 243.189C532.809 242.754 533.248 242.754 533.248 242.32C533.248 242.32 533.248 241.885 533.686 241.885C533.686 241.885 533.686 241.885 533.686 241.45C533.686 241.016 533.686 241.016 534.124 240.581V240.147C534.124 239.712 534.124 239.277 534.124 239.277C534.124 238.843 534.124 238.843 534.124 238.408C534.124 238.408 534.124 238.408 534.124 237.973L534.562 207.984C535 209.288 535 209.723 535 210.157Z" fill="#E1EDFF"/>
<path d="M9.63964 221.89C3.50532 218.413 0.438165 213.632 0.438165 208.852L0 238.841C0 243.622 3.06716 248.402 9.20147 251.879L245.811 387.048L246.249 357.059L9.63964 221.89Z" fill="#EFF1FE"/>
<path d="M525.798 196.248C538.066 203.202 538.066 214.937 525.798 221.891L290.941 357.059C278.673 364.013 258.517 364.013 245.81 357.059L9.63897 221.891C-2.62966 214.937 -2.62966 203.202 9.63897 196.248L244.496 60.6452C256.764 53.6912 276.92 53.6912 289.627 60.6452L525.798 196.248Z" fill="white"/>
<path d="M9.63897 211.461C-2.62966 204.507 -2.62966 192.772 9.63897 185.818L244.496 50.2155C256.764 43.2615 276.92 43.2615 289.627 50.2155L525.798 185.818C538.066 192.772 538.066 204.507 525.798 211.461L290.941 347.064C278.673 354.018 258.517 354.018 245.81 347.064L9.63897 211.461Z" fill="url(#paint0_linear_862_35419)"/>
<path d="M268.595 333.589C261.146 333.589 254.136 331.851 248.439 328.809L42.0634 210.591C36.8054 207.548 33.7383 203.202 33.7383 198.856C33.7383 194.51 36.8054 190.163 42.0634 187.121L247.125 68.4684C252.383 65.426 259.394 63.6875 266.842 63.6875C274.291 63.6875 281.302 65.426 286.998 68.4684L493.812 186.686C499.07 189.729 502.137 194.075 502.137 198.421C502.137 202.767 499.07 207.114 493.812 210.156L288.312 328.809C283.054 331.851 276.044 333.589 268.595 333.589ZM267.28 64.9914C259.832 64.9914 253.259 66.7299 248.001 69.7722L42.5016 187.99C37.6818 191.033 34.6146 194.51 34.6146 198.856C34.6146 202.767 37.2436 206.679 42.5016 209.721L249.316 327.939C254.574 330.982 261.146 332.72 268.595 332.72C276.044 332.72 282.616 330.982 287.874 327.939L493.374 209.721C498.194 206.679 501.261 203.202 501.261 198.856C501.261 194.944 498.632 191.033 493.374 187.99L286.56 69.3376C281.302 66.2952 274.291 64.9914 267.28 64.9914Z" fill="url(#paint1_linear_862_35419)"/>
<path d="M287.875 388.786C288.751 388.351 292.694 386.178 293.571 385.743V355.754C292.694 356.189 289.189 357.927 288.313 358.362C287.875 358.362 287.875 358.796 287.436 358.796C286.56 359.231 285.684 359.666 284.807 359.666C284.369 359.666 284.369 360.1 283.931 360.1C283.493 360.1 283.055 360.535 282.178 360.535C281.74 360.535 281.302 360.97 280.864 360.97C280.426 360.97 279.549 361.404 279.111 361.404C278.673 361.404 278.235 361.404 277.797 361.839C276.482 361.839 275.606 362.274 274.291 362.274C273.853 362.274 273.415 362.274 272.977 362.274C272.101 362.274 271.662 362.274 270.786 362.274C270.348 362.274 269.91 362.274 269.472 362.274C269.033 362.274 268.157 362.274 267.719 362.274C267.281 362.274 266.843 362.274 266.404 362.274C265.966 362.274 265.528 362.274 264.652 362.274C264.214 362.274 263.775 362.274 263.337 362.274C262.899 362.274 262.461 362.274 261.585 362.274C261.146 362.274 260.708 362.274 260.27 361.839C259.832 361.839 258.956 361.839 258.517 361.404C258.079 361.404 257.641 361.404 257.203 360.97C256.327 360.97 255.888 360.535 255.012 360.535C254.574 360.535 254.136 360.535 254.136 360.1C252.821 359.666 251.945 359.231 250.63 358.796C250.192 358.796 249.754 358.362 248.878 357.927C248.44 357.927 248.44 357.493 248.001 357.493C247.125 357.058 242.744 354.45 241.867 354.016V384.439C242.744 384.874 246.687 387.047 247.125 387.482C247.563 387.482 247.563 387.916 248.001 387.916C248.44 387.916 248.878 388.351 249.316 388.351C250.63 388.786 251.507 389.22 252.821 389.655C252.821 389.655 252.821 389.655 253.259 389.655C253.698 389.655 253.698 389.655 254.136 390.089C254.574 390.089 255.45 390.524 255.888 390.524H256.327C256.765 390.524 256.765 390.524 257.203 390.524C257.641 390.524 258.079 390.524 258.956 390.959C259.394 390.959 259.394 390.959 259.832 390.959C260.27 390.959 260.27 390.959 260.708 390.959C261.146 390.959 261.585 390.959 262.023 390.959C262.461 390.959 262.461 390.959 262.899 390.959C263.337 390.959 263.337 390.959 263.775 390.959C264.214 390.959 264.652 390.959 265.09 390.959C265.528 390.959 265.528 390.959 265.966 390.959C265.966 390.959 266.404 390.959 266.843 390.959C267.281 390.959 268.157 390.959 268.595 390.959C269.033 390.959 269.033 390.959 269.472 390.959H269.91C270.786 390.959 271.224 390.959 272.101 390.959C272.539 390.959 272.539 390.959 272.977 390.959C272.977 390.959 272.977 390.959 273.415 390.959C274.73 390.959 275.606 390.524 276.92 390.524C277.359 390.524 277.797 390.524 277.797 390.089C278.235 390.089 279.111 389.655 279.549 389.655C279.988 389.655 280.426 389.22 280.864 389.22C281.302 389.22 281.74 388.786 282.617 388.786H283.055H283.493C284.369 388.351 285.246 388.351 286.122 387.916C286.998 389.22 287.436 389.22 287.875 388.786Z" fill="url(#paint2_linear_862_35419)"/>
<g clip-path="url(#clip1_862_35419)">
<path fill-rule="evenodd" clip-rule="evenodd" d="M413.304 115.258C352.665 80.2475 254.349 80.2475 193.71 115.258C133.071 150.268 133.071 207.03 193.71 242.04C254.349 277.05 352.665 277.05 413.304 242.04C473.943 207.03 473.943 150.268 413.304 115.258ZM383.078 121.281C333.099 98.115 259.866 99.916 213.502 126.684C192.212 138.976 180.041 154.538 176.987 170.569L297.71 170.569L383.078 121.281ZM176.987 186.729C179.561 200.242 188.613 213.421 204.143 224.589L269.72 186.729L176.987 186.729ZM223.935 236.016C243.279 244.983 266.107 250.209 289.512 251.695L289.512 198.155L223.935 236.016ZM317.502 251.695C345.269 249.932 372.223 242.905 393.512 230.613C439.876 203.845 442.996 161.564 402.87 132.708L317.502 181.996L317.502 251.695Z" fill="url(#paint3_linear_862_35419)"/>
<path fill-rule="evenodd" clip-rule="evenodd" d="M413.304 90.6404C352.665 55.6303 254.349 55.6303 193.71 90.6404C133.071 125.65 133.071 182.413 193.71 217.423C254.349 252.433 352.665 252.433 413.304 217.423C473.943 182.413 473.943 125.65 413.304 90.6404ZM383.078 96.6642C333.099 73.4978 259.866 75.2988 213.502 102.067C192.212 114.358 180.041 129.92 176.987 145.952L297.71 145.952L383.078 96.6642ZM176.987 162.112C179.561 175.624 188.613 188.804 204.143 199.972L269.72 162.112L176.987 162.112ZM223.935 211.399C243.279 220.365 266.107 225.592 289.512 227.078L289.512 173.538L223.935 211.399ZM317.502 227.078C345.269 225.315 372.223 218.288 393.512 205.996C439.876 179.228 442.996 136.947 402.87 108.091L317.502 157.378L317.502 227.078Z" fill="#800080"/>
</g>
<g clip-path="url(#clip2_862_35419)">
<path d="M118.058 211.309C115.039 212.462 112.109 212.997 109.266 212.916C106.423 212.834 104.097 212.271 102.287 211.226C100.132 209.982 99.1606 208.373 99.3729 206.4C99.5852 204.427 101.236 202.549 104.325 200.765C107.318 199.038 110.637 198.146 114.282 198.091C117.928 198.037 120.994 198.727 123.481 200.163C125.346 201.239 126.384 202.411 126.595 203.677C126.806 204.942 126.379 205.883 125.312 206.499C124.785 206.803 124.19 206.951 123.526 206.944C122.862 206.936 122.226 206.757 121.618 206.406C120.803 205.936 120.452 205.429 120.564 204.886C120.62 204.582 121.019 204.172 121.76 203.657C122.501 203.141 122.845 202.619 122.791 202.092C122.723 201.573 122.261 201.066 121.404 200.572C120.023 199.774 118.398 199.428 116.53 199.533C114.054 199.671 111.7 200.384 109.47 201.672C107.198 202.983 105.748 204.462 105.122 206.108C104.495 207.754 105.128 209.123 107.021 210.216C108.375 210.998 110.055 211.432 112.06 211.518C113.457 211.589 115.353 211.347 117.748 210.794L118.058 211.309ZM138.67 208.932L134.389 211.404C138.832 210.673 141.889 210.791 143.56 211.756C144.32 212.194 144.717 212.691 144.75 213.246C144.783 213.802 144.495 214.255 143.885 214.607C143.345 214.919 142.708 215.079 141.975 215.088C141.242 215.096 140.627 214.957 140.129 214.67C139.646 214.391 139.343 213.94 139.22 213.317C139.097 212.694 138.89 212.299 138.6 212.131C138.351 211.988 137.943 211.912 137.376 211.905C136.186 211.874 134.609 212.043 132.644 212.412L123.521 217.679C122.468 218.287 121.803 218.822 121.525 219.286C121.33 219.605 121.336 219.969 121.543 220.376C121.749 220.783 122.281 221.234 123.137 221.728L122.389 222.16L112.671 216.549L113.419 216.117C114.386 216.676 115.256 217.002 116.031 217.098C116.598 217.169 117.193 217.105 117.816 216.905C118.121 216.808 118.827 216.44 119.935 215.801L127.313 211.541C129.529 210.262 130.804 209.474 131.137 209.178C131.469 208.882 131.612 208.609 131.564 208.357C131.516 208.105 131.313 207.876 130.954 207.669C130.525 207.421 129.938 207.202 129.191 207.011L129.732 206.46L137.8 208.43L138.67 208.932ZM141.192 229.849C137.734 229.596 135.639 229.394 134.906 229.243C133.814 229.012 132.846 228.654 132.003 228.167C130.691 227.409 130.06 226.525 130.111 225.515C130.162 224.504 130.922 223.575 132.39 222.727C133.318 222.191 134.329 221.847 135.422 221.695C136.931 221.478 138.802 221.534 141.035 221.864C143.269 222.193 146.611 222.955 151.063 224.15L151.811 223.718C153.709 222.622 154.711 221.697 154.816 220.942C154.922 220.187 154.401 219.479 153.255 218.817C152.384 218.314 151.458 218.051 150.476 218.028C149.48 217.997 148.677 218.157 148.068 218.509L146.904 219.229C146.267 219.597 145.612 219.787 144.942 219.8C144.27 219.812 143.673 219.667 143.148 219.364C142.636 219.069 142.399 218.724 142.434 218.328C142.47 217.933 142.799 217.555 143.423 217.195C144.614 216.507 146.316 216.226 148.53 216.352C150.743 216.478 152.948 217.175 155.144 218.444C156.83 219.417 157.927 220.378 158.437 221.328C158.822 222.047 158.751 222.782 158.224 223.533C157.877 224.021 156.782 224.796 154.939 225.86L148.476 229.591C146.662 230.639 145.584 231.301 145.245 231.577C144.905 231.853 144.746 232.076 144.766 232.248C144.786 232.42 144.9 232.565 145.107 232.685C145.328 232.813 145.57 232.896 145.833 232.936C146.303 233 147.368 233.031 149.028 233.029L147.865 233.701C144.239 234.008 141.722 233.754 140.313 232.941C139.636 232.55 139.333 232.103 139.403 231.599C139.474 231.096 140.07 230.513 141.192 229.849ZM142.543 229.069L149.795 224.882C146.878 224.157 144.942 223.72 143.988 223.569C142.287 223.29 140.869 223.208 139.735 223.32C138.6 223.433 137.638 223.718 136.848 224.173C135.851 224.749 135.32 225.399 135.256 226.122C135.192 226.845 135.547 227.429 136.32 227.876C137.37 228.482 139.444 228.88 142.543 229.069ZM180.888 221.813C181.469 222.148 181.758 222.551 181.757 223.023C181.756 223.494 181.464 223.898 180.883 224.233C180.301 224.569 179.598 224.74 178.775 224.744C177.952 224.749 177.25 224.584 176.67 224.249C176.09 223.914 175.8 223.507 175.801 223.028C175.803 222.548 176.094 222.141 176.676 221.805C177.258 221.469 177.957 221.301 178.773 221.3C179.589 221.299 180.294 221.47 180.888 221.813ZM172.654 228.553L157.36 237.384C156.168 238.071 155.462 238.579 155.239 238.907C155.017 239.235 154.978 239.552 155.123 239.859C155.268 240.167 155.789 240.58 156.687 241.098L155.939 241.53L146.717 236.206L147.465 235.774C148.391 236.309 149.103 236.616 149.6 236.695C150.098 236.774 150.648 236.748 151.25 236.616C151.852 236.484 152.742 236.077 153.92 235.398L161.256 231.162C163.32 229.971 164.594 229.163 165.08 228.739C165.426 228.427 165.583 228.162 165.549 227.942C165.514 227.722 165.318 227.509 164.959 227.302C164.572 227.078 163.998 226.867 163.238 226.668L163.696 226.069L171.743 228.027L172.654 228.553ZM170.298 241.806C169.705 240.808 169.608 239.836 170.004 238.889C170.401 237.942 171.216 237.113 172.449 236.401C174.333 235.313 176.662 234.786 179.435 234.82C182.209 234.853 184.701 235.508 186.911 236.784C188.721 237.829 189.846 238.991 190.285 240.268L194.305 242.589C194.899 242.932 195.228 243.142 195.29 243.217C195.352 243.293 195.362 243.367 195.32 243.439C195.278 243.559 195.098 243.711 194.78 243.895C194.419 244.103 194.135 244.227 193.928 244.267C193.817 244.283 193.689 244.273 193.544 244.237C193.399 244.201 193.029 244.012 192.435 243.669L189.969 242.245C189.745 243.268 188.858 244.227 187.306 245.123C185.533 246.147 183.339 246.632 180.724 246.578C178.11 246.524 175.663 245.839 173.383 244.523C172.444 243.981 171.622 243.346 170.919 242.62C169.784 242.573 168.913 242.602 168.304 242.706C167.695 242.811 167.252 242.943 166.975 243.103C166.739 243.239 166.624 243.436 166.631 243.696C166.637 243.956 166.923 244.305 167.489 244.744C167.821 244.999 168.739 245.585 170.245 246.503C173.022 248.186 174.769 249.306 175.487 249.865C176.592 250.711 177.139 251.579 177.13 252.469C177.121 253.36 176.549 254.133 175.413 254.789C173.847 255.693 171.646 256.118 168.811 256.064C164.633 255.988 160.81 254.949 157.343 252.947C154.676 251.407 153.027 249.759 152.395 248.003C152.052 247.005 152.254 246.29 153.002 245.858C153.335 245.666 153.743 245.518 154.228 245.413C154.975 245.253 156.172 245.12 157.818 245.015C158.04 244.999 159.493 244.974 162.176 244.94C161.888 244.277 161.764 243.762 161.807 243.394C161.849 243.027 162.085 242.719 162.515 242.471C162.999 242.191 163.764 241.977 164.809 241.828C165.854 241.68 167.684 241.672 170.298 241.806ZM185.562 237.157C184.539 236.567 183.274 236.308 181.766 236.381C180.258 236.454 178.659 236.979 176.969 237.955C174.78 239.218 173.552 240.469 173.286 241.708C173.09 242.65 173.545 243.441 174.65 244.079C175.7 244.685 176.958 244.956 178.425 244.89C179.892 244.825 181.47 244.305 183.16 243.329C185.363 242.057 186.611 240.786 186.905 239.516C187.114 238.581 186.667 237.795 185.562 237.157ZM163.15 245.694C161.794 245.727 160.646 245.823 159.704 245.984C158.763 246.144 158.037 246.373 157.524 246.669C156.859 247.053 156.678 247.62 156.98 248.37C157.503 249.664 159.07 251.064 161.681 252.572C164.167 254.007 166.441 254.812 168.502 254.986C170.563 255.16 172.092 254.96 173.089 254.384C173.81 253.968 173.97 253.468 173.57 252.886C173.157 252.295 171.914 251.369 169.842 250.109C166.817 248.266 164.586 246.795 163.15 245.694ZM211.364 250.902L204.88 254.645L204.196 254.25C205.708 252.772 206.42 251.583 206.332 250.684C206.244 249.786 205.565 248.97 204.294 248.236C203.327 247.678 202.29 247.375 201.183 247.328C200.077 247.281 199.212 247.437 198.588 247.797C197.812 248.245 197.369 248.757 197.256 249.332C197.117 249.907 197.384 250.758 198.06 251.883L199.61 254.482C201.042 256.893 200.637 258.746 198.392 260.042C196.661 261.042 194.612 261.471 192.247 261.329C189.881 261.187 187.891 260.65 186.274 259.716C185.114 259.046 183.995 258.161 182.919 257.059C182.602 256.716 182.298 256.461 182.008 256.293C181.69 256.11 181.261 256.07 180.722 256.175L180.038 255.78L186.833 251.856L187.517 252.251C185.964 253.594 185.242 254.865 185.349 256.063C185.457 257.261 186.188 258.251 187.542 259.032C188.495 259.583 189.553 259.869 190.715 259.892C191.877 259.915 192.853 259.699 193.642 259.243C194.598 258.691 195.067 258.034 195.048 257.271C195.029 256.508 194.517 255.261 193.511 253.528C192.505 251.796 192.093 250.518 192.275 249.695C192.443 248.881 193.13 248.125 194.335 247.429C195.901 246.526 197.745 246.079 199.869 246.089C201.992 246.099 203.904 246.595 205.603 247.576C206.349 248.007 207.094 248.621 207.839 249.419C208.336 249.946 208.702 250.277 208.937 250.413C209.158 250.54 209.379 250.612 209.6 250.628C209.822 250.644 210.181 250.603 210.68 250.507L211.364 250.902ZM232.072 251.364L206.824 265.942C205.632 266.63 204.929 267.135 204.714 267.459C204.499 267.783 204.47 268.106 204.628 268.429C204.787 268.753 205.356 269.198 206.337 269.764L205.589 270.196L196.285 264.824L197.033 264.392C197.903 264.895 198.587 265.186 199.085 265.265C199.583 265.345 200.13 265.316 200.725 265.18C201.32 265.044 202.206 264.635 203.384 263.956L220.674 253.974C222.821 252.734 224.092 251.944 224.487 251.604C224.882 251.264 225.063 250.981 225.029 250.753C224.995 250.526 224.812 250.316 224.48 250.125C224.121 249.917 223.555 249.718 222.78 249.527L223.155 248.904L231.14 250.826L232.072 251.364ZM242.143 257.179C242.724 257.514 243.013 257.917 243.012 258.388C243.011 258.86 242.719 259.263 242.138 259.599C241.556 259.935 240.853 260.105 240.03 260.11C239.207 260.115 238.505 259.949 237.925 259.614C237.345 259.279 237.055 258.872 237.056 258.393C237.057 257.914 237.349 257.506 237.931 257.17C238.513 256.834 239.212 256.666 240.028 256.665C240.844 256.665 241.549 256.836 242.143 257.179ZM233.909 263.919L218.615 272.749C217.423 273.437 216.717 273.945 216.494 274.272C216.272 274.6 216.233 274.918 216.378 275.225C216.522 275.532 217.044 275.945 217.942 276.464L217.194 276.896L207.972 271.572L208.72 271.14C209.646 271.674 210.358 271.981 210.855 272.061C211.353 272.14 211.903 272.114 212.505 271.981C213.107 271.849 213.997 271.443 215.175 270.763L222.511 266.528C224.575 265.336 225.849 264.528 226.335 264.105C226.681 263.793 226.838 263.527 226.804 263.308C226.769 263.088 226.573 262.874 226.214 262.667C225.827 262.444 225.253 262.233 224.493 262.033L224.951 261.434L232.998 263.392L233.909 263.919ZM251.399 274.016L244.915 277.76L244.232 277.365C245.743 275.886 246.455 274.697 246.367 273.799C246.28 272.9 245.6 272.084 244.329 271.35C243.362 270.792 242.325 270.489 241.219 270.442C240.112 270.395 239.247 270.552 238.624 270.912C237.848 271.36 237.404 271.871 237.292 272.446C237.152 273.022 237.42 273.872 238.095 274.998L239.645 277.596C241.078 280.007 240.672 281.861 238.428 283.156C236.696 284.156 234.648 284.585 232.282 284.443C229.917 284.302 227.926 283.764 226.31 282.831C225.149 282.161 224.031 281.275 222.954 280.174C222.637 279.831 222.333 279.575 222.043 279.408C221.726 279.224 221.297 279.185 220.757 279.289L220.073 278.894L226.868 274.971L227.552 275.366C226 276.709 225.277 277.979 225.385 279.177C225.493 280.375 226.223 281.365 227.577 282.147C228.53 282.697 229.588 282.984 230.75 283.007C231.912 283.03 232.888 282.813 233.678 282.358C234.634 281.806 235.102 281.148 235.083 280.386C235.064 279.623 234.552 278.375 233.546 276.643C232.541 274.91 232.129 273.633 232.311 272.81C232.479 271.995 233.165 271.24 234.371 270.544C235.936 269.64 237.78 269.193 239.904 269.203C242.028 269.214 243.939 269.709 245.638 270.69C246.384 271.121 247.13 271.736 247.875 272.534C248.372 273.06 248.737 273.392 248.972 273.527C249.193 273.655 249.414 273.727 249.636 273.742C249.857 273.758 250.217 273.718 250.715 273.622L251.399 274.016ZM266.832 276.352L260.577 279.963L265.012 282.524L263.557 283.364L259.123 280.803L246.779 287.93C245.546 288.642 244.891 289.223 244.814 289.675C244.736 290.126 244.974 290.511 245.527 290.83C245.983 291.094 246.567 291.267 247.279 291.35C247.991 291.433 248.742 291.383 249.531 291.198L250.339 291.665C248.498 292.17 246.792 292.365 245.222 292.25C243.653 292.136 242.398 291.807 241.458 291.265C240.823 290.898 240.378 290.437 240.123 289.882C239.869 289.327 239.925 288.776 240.293 288.229C240.661 287.681 241.531 287.012 242.903 286.22L255.704 278.829L252.699 277.094L253.385 276.699C254.449 276.961 255.742 277.112 257.264 277.151C258.786 277.189 260.356 277.1 261.975 276.883C262.819 276.763 264.224 276.462 266.19 275.981L266.832 276.352Z" fill="#800080"/>
</g>
<circle cx="40.6667" cy="145.667" r="33.6667" fill="url(#paint4_linear_862_35419)"/>
<circle cx="40.6667" cy="145.667" r="33.6667" fill="url(#paint5_radial_862_35419)"/>
<circle cx="40.6667" cy="145.667" r="33.6667" fill="url(#paint6_radial_862_35419)"/>
<circle cx="40.6667" cy="145.667" r="33.6667" fill="url(#paint7_radial_862_35419)"/>
<circle cx="40.6667" cy="145.667" r="33.6667" fill="url(#paint8_radial_862_35419)"/>
<g style="mix-blend-mode:lighten">
<ellipse cx="38.8427" cy="137.151" rx="20.8896" ry="18.6586" fill="url(#paint9_linear_862_35419)"/>
</g>
<g style="mix-blend-mode:lighten">
<path d="M26.6283 135.317C25.2766 134.897 24.5029 133.447 25.14 132.183C26.2487 129.984 27.8724 128.069 29.888 126.612C31.9035 125.154 34.23 124.211 36.6658 123.846C38.0657 123.637 39.2007 124.825 39.1764 126.241C39.1522 127.656 37.9687 128.752 36.5907 129.076C35.2663 129.387 34.0079 129.958 32.8921 130.765C31.7762 131.572 30.84 132.588 30.1301 133.749C29.3914 134.956 27.98 135.737 26.6283 135.317Z" fill="url(#paint10_linear_862_35419)"/>
</g>
<circle cx="419.667" cy="46.6689" r="46.333" fill="url(#paint11_linear_862_35419)"/>
<circle cx="419.667" cy="46.6689" r="46.333" fill="url(#paint12_radial_862_35419)"/>
<circle cx="419.667" cy="46.6689" r="46.333" fill="url(#paint13_radial_862_35419)"/>
<circle cx="419.667" cy="46.6689" r="46.333" fill="url(#paint14_radial_862_35419)"/>
<circle cx="419.667" cy="46.6689" r="46.333" fill="url(#paint15_radial_862_35419)"/>
<g style="mix-blend-mode:lighten">
<ellipse cx="417.155" cy="34.9481" rx="28.7488" ry="25.6785" fill="url(#paint16_linear_862_35419)"/>
</g>
<g style="mix-blend-mode:lighten">
<path d="M400.348 32.4247C398.487 31.8467 397.423 29.8512 398.3 28.1117C399.825 25.085 402.06 22.4502 404.834 20.4438C407.608 18.4374 410.809 17.1397 414.162 16.6381C416.088 16.3498 417.65 17.9857 417.617 19.9333C417.583 21.881 415.955 23.3895 414.058 23.8348C412.236 24.2627 410.504 25.0487 408.968 26.1595C407.432 27.2703 406.144 28.6691 405.167 30.2662C404.15 31.9279 402.208 33.0027 400.348 32.4247Z" fill="url(#paint17_linear_862_35419)"/>
</g>
</g>
<defs>
<filter id="filter0_f_862_35419" x="-10.5625" y="214" width="556.562" height="191.938" filterUnits="userSpaceOnUse" color-interpolation-filters="sRGB">
<feFlood flood-opacity="0" result="BackgroundImageFix"/>
<feBlend mode="normal" in="SourceGraphic" in2="BackgroundImageFix" result="shape"/>
<feGaussianBlur stdDeviation="5.5" result="effect1_foregroundBlur_862_35419"/>
</filter>
<linearGradient id="paint0_linear_862_35419" x1="267.84" y1="352.232" x2="267.84" y2="44.9975" gradientUnits="userSpaceOnUse">
<stop stop-color="#F1F4FE"/>
<stop offset="0.5797" stop-color="#F7F9FE"/>
<stop offset="1" stop-color="white"/>
</linearGradient>
<linearGradient id="paint1_linear_862_35419" x1="33.3838" y1="198.619" x2="502.289" y2="198.619" gradientUnits="userSpaceOnUse">
<stop stop-color="#3A98FF"/>
<stop offset="0.6277" stop-color="#00F0FF"/>
<stop offset="1" stop-color="#00FFAC"/>
</linearGradient>
<linearGradient id="paint2_linear_862_35419" x1="242.582" y1="373.936" x2="293.464" y2="373.936" gradientUnits="userSpaceOnUse">
<stop stop-color="#EFF1FE"/>
<stop offset="1" stop-color="#E4E7FB"/>
</linearGradient>
<linearGradient id="paint3_linear_862_35419" x1="303.507" y1="89" x2="303.507" y2="268.298" gradientUnits="userSpaceOnUse">
<stop stop-color="#C3DAFD" stop-opacity="0.76"/>
<stop offset="1" stop-color="#E1EDFF" stop-opacity="0"/>
</linearGradient>
<linearGradient id="paint4_linear_862_35419" x1="40.6667" y1="112" x2="40.6667" y2="179.333" gradientUnits="userSpaceOnUse">
<stop stop-color="#40FFC6"/>
<stop offset="0.492708" stop-color="#4AE6FF"/>
<stop offset="1" stop-color="#2595FF"/>
</linearGradient>
<radialGradient id="paint5_radial_862_35419" cx="0" cy="0" r="1" gradientUnits="userSpaceOnUse" gradientTransform="translate(26.8393 125.226) rotate(62.6223) scale(75.8263)">
<stop offset="0.462106" stop-color="#2AA8FF" stop-opacity="0"/>
<stop offset="0.894737" stop-color="#2595FF"/>
</radialGradient>
<radialGradient id="paint6_radial_862_35419" cx="0" cy="0" r="1" gradientUnits="userSpaceOnUse" gradientTransform="translate(24.4345 126.429) rotate(56.6259) scale(90.7081)">
<stop stop-color="#6EFFCE"/>
<stop offset="0.570035" stop-color="#A5FFFD" stop-opacity="0"/>
</radialGradient>
<radialGradient id="paint7_radial_862_35419" cx="0" cy="0" r="1" gradientUnits="userSpaceOnUse" gradientTransform="translate(34.0536 132.44) rotate(63.4349) scale(48.3586)">
<stop offset="0.672439" stop-color="#9EC6FD" stop-opacity="0"/>
<stop offset="1" stop-color="white"/>
</radialGradient>
<radialGradient id="paint8_radial_862_35419" cx="0" cy="0" r="1" gradientUnits="userSpaceOnUse" gradientTransform="translate(37.027 138.387) rotate(62.0378) scale(41.7221)">
<stop offset="0.961458" stop-color="#2AA8FF" stop-opacity="0"/>
<stop offset="1" stop-color="#058AFF" stop-opacity="0.26"/>
</radialGradient>
<linearGradient id="paint9_linear_862_35419" x1="26.9058" y1="123.307" x2="41.9669" y2="140.034" gradientUnits="userSpaceOnUse">
<stop stop-color="white" stop-opacity="0.86"/>
<stop offset="1" stop-color="#D9D9D9" stop-opacity="0"/>
</linearGradient>
<linearGradient id="paint10_linear_862_35419" x1="38.8466" y1="125.195" x2="29.7475" y2="135.659" gradientUnits="userSpaceOnUse">
<stop stop-color="white"/>
<stop offset="1" stop-color="#FFFFE9" stop-opacity="0.38"/>
</linearGradient>
<linearGradient id="paint11_linear_862_35419" x1="419.667" y1="0.335937" x2="419.667" y2="93.002" gradientUnits="userSpaceOnUse">
<stop stop-color="#40FFC6"/>
<stop offset="0.492708" stop-color="#4AE6FF"/>
<stop offset="1" stop-color="#2595FF"/>
</linearGradient>
<radialGradient id="paint12_radial_862_35419" cx="0" cy="0" r="1" gradientUnits="userSpaceOnUse" gradientTransform="translate(400.637 18.5382) rotate(62.6223) scale(104.354)">
<stop offset="0.462106" stop-color="#2AA8FF" stop-opacity="0"/>
<stop offset="0.894737" stop-color="#2595FF"/>
</radialGradient>
<radialGradient id="paint13_radial_862_35419" cx="0" cy="0" r="1" gradientUnits="userSpaceOnUse" gradientTransform="translate(397.328 20.1929) rotate(56.6259) scale(124.835)">
<stop stop-color="#6EFFCE"/>
<stop offset="0.570035" stop-color="#A5FFFD" stop-opacity="0"/>
</radialGradient>
<radialGradient id="paint14_radial_862_35419" cx="0" cy="0" r="1" gradientUnits="userSpaceOnUse" gradientTransform="translate(410.566 28.4667) rotate(63.4349) scale(66.5524)">
<stop offset="0.672439" stop-color="#9EC6FD" stop-opacity="0"/>
<stop offset="1" stop-color="white"/>
</radialGradient>
<radialGradient id="paint15_radial_862_35419" cx="0" cy="0" r="1" gradientUnits="userSpaceOnUse" gradientTransform="translate(414.658 36.651) rotate(62.0378) scale(57.4192)">
<stop offset="0.961458" stop-color="#2AA8FF" stop-opacity="0"/>
<stop offset="1" stop-color="#058AFF" stop-opacity="0.26"/>
</radialGradient>
<linearGradient id="paint16_linear_862_35419" x1="400.727" y1="15.8962" x2="421.455" y2="38.9163" gradientUnits="userSpaceOnUse">
<stop stop-color="white" stop-opacity="0.86"/>
<stop offset="1" stop-color="#D9D9D9" stop-opacity="0"/>
</linearGradient>
<linearGradient id="paint17_linear_862_35419" x1="417.163" y1="18.494" x2="404.64" y2="32.8948" gradientUnits="userSpaceOnUse">
<stop stop-color="white"/>
<stop offset="1" stop-color="#FFFFE9" stop-opacity="0.38"/>
</linearGradient>
<clipPath id="clip0_862_35419">
<rect width="535" height="422" fill="white"/>
</clipPath>
<clipPath id="clip1_862_35419">
<rect width="272.066" height="272.066" fill="white" transform="matrix(0.866025 0.5 -0.866025 0.5 303.506 18)"/>
</clipPath>
<clipPath id="clip2_862_35419">
<rect width="207.659" height="53.0139" fill="white" transform="matrix(0.866025 0.5 -0.866025 0.5 113.912 179)"/>
</clipPath>
</defs>
</svg>
