<svg width="222" height="170" viewBox="0 0 222 170" fill="none" xmlns="http://www.w3.org/2000/svg">
<circle cx="116.025" cy="87.6217" r="67.6056" fill="url(#paint0_linear_575_14186)" stroke="#CFE8FF" stroke-width="2" stroke-linecap="round" stroke-dasharray="7 0"/>
<circle cx="116.024" cy="87.6217" r="37.1536" fill="url(#paint1_linear_575_14186)" stroke="#CFE8FF" stroke-width="2" stroke-linecap="square" stroke-dasharray="1 10"/>
<path d="M77.536 114.409L102.209 101.007C103.725 100.183 105.557 100.199 107.058 101.048L150.614 125.691C152.182 126.579 153.151 128.241 153.151 130.043V146.751C153.151 148.491 152.247 150.105 150.765 151.014L127.901 165.03C127.239 165.435 126.388 164.965 126.379 164.189L126.174 146.873L124.391 142.188L77.536 114.409Z" fill="url(#paint2_linear_575_14186)"/>
<path d="M76.5322 117.92C76.5322 115.159 78.4709 114.039 80.8624 115.42L123.729 140.169C126.121 141.55 128.059 144.908 128.059 147.669L128.059 161.961C128.059 164.722 126.121 165.841 123.729 164.461L80.8624 139.711C78.4709 138.331 76.5322 134.973 76.5322 132.211L76.5322 117.92Z" fill="url(#paint3_linear_575_14186)"/>
<rect width="35.3033" height="3.92259" rx="1.9613" transform="matrix(-0.866025 -0.5 2.20305e-08 -1 114.424 148.686)" fill="white"/>
<circle r="1.9613" transform="matrix(-0.866025 -0.5 2.20305e-08 -1 119.52 149.666)" fill="white"/>
<path d="M77.536 87.2933L102.209 73.8906C103.725 73.0675 105.557 73.0833 107.058 73.9325L150.614 98.5754C152.182 99.4627 153.151 101.125 153.151 102.927V119.635C153.151 121.375 152.247 122.989 150.765 123.898L127.901 137.914C127.239 138.319 126.388 137.849 126.379 137.073L126.174 119.757L124.391 115.072L77.536 87.2933Z" fill="url(#paint4_linear_575_14186)"/>
<path d="M76.5322 90.8044C76.5322 88.043 78.4709 86.9237 80.8624 88.3044L123.729 113.054C126.121 114.434 128.059 117.792 128.059 120.554L128.059 134.845C128.059 137.606 126.121 138.726 123.729 137.345L80.8624 112.596C78.4709 111.215 76.5322 107.857 76.5322 105.096L76.5322 90.8044Z" fill="url(#paint5_linear_575_14186)"/>
<rect width="35.3033" height="3.92259" rx="1.9613" transform="matrix(-0.866025 -0.5 2.20305e-08 -1 114.424 121.57)" fill="white"/>
<circle r="1.9613" transform="matrix(-0.866025 -0.5 2.20305e-08 -1 119.52 122.55)" fill="white"/>
<path d="M77.536 60.1779L102.209 46.7752C103.725 45.952 105.557 45.9678 107.058 46.817L150.614 71.4599C152.182 72.3472 153.151 74.0097 153.151 75.8116V92.5198C153.151 94.2591 152.247 95.8735 150.765 96.7826L127.901 110.798C127.239 111.204 126.388 110.734 126.379 109.957L126.174 92.6419L124.391 87.9564L77.536 60.1779Z" fill="url(#paint6_linear_575_14186)"/>
<path d="M76.5322 63.6887C76.5322 60.9273 78.4709 59.808 80.8624 61.1887L123.729 85.938C126.121 87.3187 128.059 90.6766 128.059 93.438L128.059 107.729C128.059 110.491 126.121 111.61 123.729 110.229L80.8624 85.48C78.4709 84.0992 76.5322 80.7414 76.5322 77.98L76.5322 63.6887Z" fill="url(#paint7_linear_575_14186)"/>
<rect width="35.3033" height="3.92259" rx="1.9613" transform="matrix(-0.866025 -0.5 2.20305e-08 -1 114.424 94.4546)" fill="white"/>
<circle r="1.9613" transform="matrix(-0.866025 -0.5 2.20305e-08 -1 119.52 95.4348)" fill="white"/>
<path d="M202.124 80.2695C204.807 81.8642 206.757 83.7653 207.867 85.9689L206.974 86.419C207.253 86.9726 207.473 87.5454 207.632 88.1383C207.79 88.7311 207.887 89.337 207.922 89.9559L208.92 89.8992C209.06 92.3629 208.323 94.984 206.796 97.7068L205.924 97.2177C205.324 98.2876 204.592 99.3822 203.731 100.498L204.522 101.109C203.009 103.069 201.127 105.067 198.905 107.085L198.233 106.344C197.276 107.213 196.254 108.088 195.168 108.965L195.797 109.743C193.795 111.361 191.587 112.986 189.187 114.608L188.627 113.78C187.53 114.522 186.392 115.263 185.214 116.004L185.746 116.85C183.528 118.245 181.173 119.635 178.691 121.012L178.206 120.138C177.038 120.786 175.842 121.432 174.618 122.074L175.083 122.96C172.734 124.193 170.284 125.415 167.743 126.62L167.314 125.717C166.1 126.293 164.864 126.865 163.608 127.433L164.02 128.344C161.582 129.446 159.068 130.531 156.484 131.597L156.103 130.672C154.856 131.187 153.593 131.696 152.313 132.201L152.68 133.131C150.183 134.116 147.626 135.081 145.014 136.024L144.675 135.084C143.403 135.543 142.119 135.997 140.822 136.445L141.148 137.39C138.598 138.271 136 139.131 133.357 139.966L133.056 139.013C131.763 139.421 130.459 139.824 129.145 140.221L129.434 141.178C126.847 141.959 124.221 142.716 121.56 143.447L121.295 142.483C120.637 142.663 119.977 142.842 119.315 143.02C118.653 143.197 117.992 143.372 117.331 143.545L117.584 144.512C114.914 145.21 112.262 145.867 109.631 146.484L109.403 145.511C108.066 145.824 106.736 146.127 105.412 146.42L105.627 147.396C102.921 147.994 100.241 148.549 97.5919 149.061L97.4021 148.079C96.0547 148.34 94.7155 148.589 93.385 148.827L93.5612 149.811C90.8272 150.3 88.13 150.743 85.4753 151.138L85.3279 150.149C83.9678 150.352 82.619 150.542 81.2823 150.721L81.4144 151.712C78.6432 152.081 75.9233 152.398 73.2617 152.662L73.1628 151.667C71.7908 151.804 70.4346 151.926 69.095 152.035L69.1757 153.031C66.3719 153.258 63.64 153.425 60.9886 153.531L60.9485 152.532C59.5674 152.587 58.2086 152.626 56.8734 152.649L56.8903 153.649C54.0519 153.697 51.3176 153.671 48.6991 153.572L48.7368 152.573C47.3466 152.52 45.9901 152.447 44.6691 152.353L44.5983 153.351C41.7091 153.146 38.9841 152.842 36.4416 152.442L36.5972 151.454C35.2181 151.237 33.8956 150.991 32.6324 150.717L32.4202 151.694C29.4876 151.057 26.8581 150.268 24.5678 149.328L24.9477 148.403C23.6441 147.867 22.4629 147.285 21.4085 146.658L20.8976 147.518C18.2143 145.923 16.2649 144.022 15.1542 141.819L16.0472 141.369C15.7682 140.815 15.5487 140.242 15.3899 139.649C15.231 139.056 15.1347 138.451 15.0995 137.832L14.1011 137.888C13.9612 135.425 14.6988 132.804 16.2253 130.081L17.0976 130.57C17.6974 129.5 18.4293 128.405 19.2906 127.29L18.4991 126.679C20.0122 124.719 21.8948 122.721 24.1162 120.703L24.7886 121.443C25.7454 120.574 26.7678 119.7 27.8535 118.822L27.2249 118.045C29.2265 116.427 31.4348 114.801 33.8343 113.179L34.3944 114.008C35.4915 113.266 36.6297 112.524 37.8073 111.784L37.275 110.937C39.4933 109.542 41.8484 108.153 44.3305 106.775L44.8158 107.649C45.9834 107.001 47.1796 106.356 48.4034 105.713L47.9385 104.828C50.2878 103.594 52.737 102.372 55.2788 101.167L55.7072 102.071C56.9216 101.495 58.1573 100.923 59.4137 100.355L59.0018 99.4437C61.4391 98.342 63.953 97.2564 66.5375 96.1906L66.9187 97.1151C68.1654 96.601 69.4287 96.0915 70.708 95.587L70.3411 94.6567C72.8379 93.672 75.3949 92.7065 78.0072 91.7631L78.3468 92.7036C79.6181 92.2446 80.9025 91.7907 82.1996 91.3425L81.8729 90.3974C84.423 89.5162 87.0216 88.6566 89.6643 87.8215L89.9656 88.775C91.2588 88.3663 92.5627 87.9635 93.8767 87.5668L93.5877 86.6094C96.1744 85.8286 98.8002 85.0715 101.461 84.3407L101.726 85.305C102.384 85.1243 103.044 84.9452 103.706 84.7678C104.369 84.5903 105.03 84.4154 105.69 84.2429L105.437 83.2754C108.107 82.5777 110.76 81.9205 113.39 81.3034L113.619 82.277C114.955 81.9635 116.286 81.6604 117.61 81.3677L117.394 80.3913C120.1 79.7932 122.78 79.2383 125.43 78.7264L125.619 79.7083C126.967 79.4479 128.306 79.1987 129.636 78.9607L129.46 77.9763C132.194 77.4871 134.891 77.0448 137.546 76.6492L137.693 77.6383C139.054 77.4356 140.402 77.2452 141.739 77.0671L141.607 76.0758C144.378 75.7065 147.098 75.3897 149.76 75.1252L149.859 76.1203C151.231 75.9839 152.587 75.8615 153.926 75.7529L153.846 74.7562C156.649 74.5291 159.381 74.3625 162.033 74.2562L162.073 75.2554C163.454 75.2001 164.813 75.1612 166.148 75.1386L166.131 74.1388C168.97 74.0909 171.704 74.1166 174.322 74.2154L174.285 75.2147C175.675 75.2672 177.031 75.3404 178.352 75.4342L178.423 74.4367C181.312 74.6419 184.037 74.9451 186.58 75.3456L186.424 76.3334C187.803 76.5507 189.126 76.7966 190.389 77.0708L190.601 76.0936C193.534 76.7302 196.163 77.5194 198.454 78.46L198.074 79.385C199.377 79.9204 200.558 80.5025 201.613 81.1291L202.124 80.2695Z" stroke="url(#paint8_linear_575_14186)" stroke-opacity="0.72" stroke-width="2" stroke-dasharray="4 8"/>
<path d="M210.971 134.531C209.983 138.217 206.492 141.254 200.556 143.45C194.65 145.635 186.546 146.899 176.78 147.184C157.261 147.755 131.342 144.412 103.665 136.996C75.9891 129.58 51.8707 119.515 35.2525 109.262C26.9377 104.132 20.5509 98.9853 16.5289 94.14C12.4864 89.27 10.9811 84.8947 11.9687 81.2089C12.9563 77.5231 16.4476 74.4866 22.3835 72.2903C28.2893 70.1052 36.3937 68.8416 46.1596 68.5561C65.678 67.9857 91.5976 71.3282 119.274 78.7441C146.95 86.16 171.069 96.2251 187.687 106.478C196.002 111.608 202.389 116.755 206.411 121.6C210.453 126.47 211.958 130.846 210.971 134.531Z" stroke="url(#paint9_linear_575_14186)" stroke-width="2"/>
<path d="M205.05 39.4277L206.677 43.8249L211.074 45.452L206.677 47.0791L205.05 51.4763L203.423 47.0791L199.025 45.452L203.423 43.8249L205.05 39.4277Z" fill="#2595FF"/>
<path d="M192.332 119.751L193.416 122.683L196.348 123.767L193.416 124.852L192.332 127.784L191.247 124.852L188.315 123.767L191.247 122.683L192.332 119.751Z" fill="#CFE8FF"/>
<path d="M40.3863 16L41.471 18.9314L44.4025 20.0162L41.471 21.1009L40.3863 24.0323L39.3016 21.1009L36.3701 20.0162L39.3016 18.9314L40.3863 16Z" fill="#CFE8FF"/>
<circle cx="138.448" cy="23.6976" r="3.68149" fill="#2595FF"/>
<circle cx="11.9383" cy="85.2789" r="3.68149" fill="#40FFC6"/>
<circle cx="193.224" cy="148.757" r="17.6265" fill="url(#paint10_linear_575_14186)"/>
<circle cx="193.224" cy="148.757" r="17.6265" fill="url(#paint11_radial_575_14186)"/>
<circle cx="193.224" cy="148.757" r="17.6265" fill="url(#paint12_radial_575_14186)"/>
<circle cx="193.224" cy="148.757" r="17.6265" fill="url(#paint13_radial_575_14186)"/>
<circle cx="193.224" cy="148.757" r="17.6265" fill="url(#paint14_radial_575_14186)"/>
<g style="mix-blend-mode:lighten">
<ellipse cx="192.268" cy="144.297" rx="10.9369" ry="9.76892" fill="url(#paint15_linear_575_14186)"/>
</g>
<g style="mix-blend-mode:lighten">
<path d="M185.874 143.338C185.167 143.118 184.762 142.359 185.095 141.697C185.676 140.545 186.526 139.543 187.581 138.78C188.636 138.017 189.854 137.523 191.13 137.332C191.863 137.222 192.457 137.845 192.444 138.586C192.431 139.327 191.812 139.9 191.09 140.07C190.397 140.233 189.738 140.532 189.154 140.954C188.57 141.377 188.079 141.909 187.708 142.517C187.321 143.149 186.582 143.558 185.874 143.338Z" fill="url(#paint16_linear_575_14186)"/>
</g>
<path fill-rule="evenodd" clip-rule="evenodd" d="M12.9452 62.5391C14.5476 66.4735 18.2244 68.5963 19.8267 66.5121C23.3231 61.9643 28.228 54.7183 28.228 49.858C28.228 42.3061 22.9262 33.123 16.386 29.347C9.84581 25.571 4.54395 28.6321 4.54395 36.184C4.54394 41.0443 9.44882 53.9539 12.9452 62.5391ZM16.3093 49.064C19.6849 51.0129 22.4213 49.433 22.4213 45.5352C22.4213 41.6374 19.6849 36.8978 16.3093 34.9489C12.9338 33 10.1973 34.5799 10.1973 38.4776C10.1973 42.3754 12.9338 47.1151 16.3093 49.064Z" fill="url(#paint17_linear_575_14186)" fill-opacity="0.2"/>
<path fill-rule="evenodd" clip-rule="evenodd" d="M10.6738 63.9019C12.2761 67.8363 15.9529 69.9591 17.5552 67.8749C21.0517 63.3271 25.9565 56.0811 25.9565 51.2208C25.9565 43.6689 20.6547 34.4858 14.1145 30.7098C7.57432 26.9338 2.27246 29.9949 2.27246 37.5468C2.27246 42.4071 7.17733 55.3167 10.6738 63.9019ZM14.0383 50.4267C17.4139 52.3756 20.1503 50.7957 20.1503 46.8979C20.1503 43.0002 17.4139 38.2605 14.0383 36.3116C10.6627 34.3627 7.9263 35.9426 7.9263 39.8404C7.9263 43.7382 10.6627 48.4778 14.0383 50.4267Z" fill="url(#paint18_linear_575_14186)" fill-opacity="0.5"/>
<path fill-rule="evenodd" clip-rule="evenodd" d="M8.6259 66.1204C10.2282 70.0548 13.905 72.1776 15.5074 70.0934C19.0038 65.5456 23.9087 58.2996 23.9087 53.4393C23.9087 45.8874 18.6068 36.7043 12.0666 32.9283C5.52647 29.1523 0.224609 32.2134 0.224609 39.7653C0.224609 44.6256 5.12948 57.5352 8.6259 66.1204ZM11.9905 52.6454C15.3661 54.5943 18.1025 53.0144 18.1025 49.1166C18.1025 45.2188 15.3661 40.4792 11.9905 38.5303C8.6149 36.5814 5.87846 38.1613 5.87846 42.059C5.87846 45.9568 8.6149 50.6965 11.9905 52.6454Z" fill="#3A98FF"/>
<defs>
<linearGradient id="paint0_linear_575_14186" x1="116.025" y1="20.0161" x2="116.025" y2="155.227" gradientUnits="userSpaceOnUse">
<stop stop-color="#FEFDFF"/>
<stop offset="1" stop-color="#F2F8FF"/>
</linearGradient>
<linearGradient id="paint1_linear_575_14186" x1="116.024" y1="49.468" x2="116.024" y2="125.775" gradientUnits="userSpaceOnUse">
<stop stop-color="#FEFDFF"/>
<stop offset="1" stop-color="#F2F8FF"/>
</linearGradient>
<linearGradient id="paint2_linear_575_14186" x1="116.748" y1="116.062" x2="141.883" y2="156.279" gradientUnits="userSpaceOnUse">
<stop offset="0.524251" stop-color="#1681E5"/>
<stop offset="0.63761" stop-color="#479FFF"/>
<stop offset="0.73254" stop-color="#2595FF"/>
</linearGradient>
<linearGradient id="paint3_linear_575_14186" x1="102.296" y1="127.795" x2="91.7774" y2="146.013" gradientUnits="userSpaceOnUse">
<stop stop-color="#3AE6D5"/>
<stop offset="1" stop-color="#279BFC"/>
</linearGradient>
<linearGradient id="paint4_linear_575_14186" x1="116.748" y1="88.9463" x2="141.883" y2="129.163" gradientUnits="userSpaceOnUse">
<stop offset="0.524251" stop-color="#1681E5"/>
<stop offset="0.63761" stop-color="#479FFF"/>
<stop offset="0.73254" stop-color="#2595FF"/>
</linearGradient>
<linearGradient id="paint5_linear_575_14186" x1="102.296" y1="100.679" x2="91.7774" y2="118.897" gradientUnits="userSpaceOnUse">
<stop stop-color="#3AE6D5"/>
<stop offset="1" stop-color="#279BFC"/>
</linearGradient>
<linearGradient id="paint6_linear_575_14186" x1="116.748" y1="61.8308" x2="141.883" y2="102.047" gradientUnits="userSpaceOnUse">
<stop offset="0.524251" stop-color="#1681E5"/>
<stop offset="0.63761" stop-color="#479FFF"/>
<stop offset="0.73254" stop-color="#2595FF"/>
</linearGradient>
<linearGradient id="paint7_linear_575_14186" x1="102.296" y1="73.5633" x2="91.7774" y2="91.7818" gradientUnits="userSpaceOnUse">
<stop stop-color="#3AE6D5"/>
<stop offset="1" stop-color="#279BFC"/>
</linearGradient>
<linearGradient id="paint8_linear_575_14186" x1="82.2985" y1="151.093" x2="82.1237" y2="103.58" gradientUnits="userSpaceOnUse">
<stop stop-color="#CDE7FF"/>
<stop offset="1" stop-color="#E3EDFF" stop-opacity="0"/>
</linearGradient>
<linearGradient id="paint9_linear_575_14186" x1="66.2988" y1="125.139" x2="74.5493" y2="74.0359" gradientUnits="userSpaceOnUse">
<stop stop-color="#CDE7FF"/>
<stop offset="1" stop-color="#E3EDFF" stop-opacity="0"/>
</linearGradient>
<linearGradient id="paint10_linear_575_14186" x1="193.224" y1="131.13" x2="193.224" y2="166.383" gradientUnits="userSpaceOnUse">
<stop stop-color="#40FFC6"/>
<stop offset="0.492708" stop-color="#4AE6FF"/>
<stop offset="1" stop-color="#2595FF"/>
</linearGradient>
<radialGradient id="paint11_radial_575_14186" cx="0" cy="0" r="1" gradientUnits="userSpaceOnUse" gradientTransform="translate(185.985 138.055) rotate(62.6223) scale(39.6997)">
<stop offset="0.462106" stop-color="#2AA8FF" stop-opacity="0"/>
<stop offset="0.894737" stop-color="#2595FF"/>
</radialGradient>
<radialGradient id="paint12_radial_575_14186" cx="0" cy="0" r="1" gradientUnits="userSpaceOnUse" gradientTransform="translate(184.726 138.685) rotate(56.6259) scale(47.4912)">
<stop stop-color="#6EFFCE"/>
<stop offset="0.570035" stop-color="#A5FFFD" stop-opacity="0"/>
</radialGradient>
<radialGradient id="paint13_radial_575_14186" cx="0" cy="0" r="1" gradientUnits="userSpaceOnUse" gradientTransform="translate(189.762 141.832) rotate(63.4349) scale(25.3186)">
<stop offset="0.672439" stop-color="#9EC6FD" stop-opacity="0"/>
<stop offset="1" stop-color="white"/>
</radialGradient>
<radialGradient id="paint14_radial_575_14186" cx="0" cy="0" r="1" gradientUnits="userSpaceOnUse" gradientTransform="translate(191.319 144.946) rotate(62.0378) scale(21.8441)">
<stop offset="0.961458" stop-color="#2AA8FF" stop-opacity="0"/>
<stop offset="1" stop-color="#058AFF" stop-opacity="0.26"/>
</radialGradient>
<linearGradient id="paint15_linear_575_14186" x1="186.019" y1="137.049" x2="193.904" y2="145.807" gradientUnits="userSpaceOnUse">
<stop stop-color="white" stop-opacity="0.86"/>
<stop offset="1" stop-color="#D9D9D9" stop-opacity="0"/>
</linearGradient>
<linearGradient id="paint16_linear_575_14186" x1="192.271" y1="138.038" x2="187.507" y2="143.517" gradientUnits="userSpaceOnUse">
<stop stop-color="white"/>
<stop offset="1" stop-color="#FFFFE9" stop-opacity="0.38"/>
</linearGradient>
<linearGradient id="paint17_linear_575_14186" x1="16.386" y1="29.347" x2="0.175896" y2="57.4237" gradientUnits="userSpaceOnUse">
<stop stop-color="#2595FF"/>
<stop offset="1" stop-color="#3A98FF" stop-opacity="0"/>
</linearGradient>
<linearGradient id="paint18_linear_575_14186" x1="14.1145" y1="30.7098" x2="1.38484" y2="52.7582" gradientUnits="userSpaceOnUse">
<stop stop-color="#2595FF"/>
<stop offset="1" stop-color="#3A98FF" stop-opacity="0"/>
</linearGradient>
</defs>
</svg>
