<svg width="535" height="436" viewBox="0 0 535 436" fill="none" xmlns="http://www.w3.org/2000/svg">
<g clip-path="url(#clip0_822_17490)">
<g filter="url(#filter0_f_822_17490)">
<path d="M9.63995 268.554C-2.62868 261.6 -2.62868 249.866 9.63995 242.912L244.497 244.215C256.765 237.262 276.921 237.262 289.628 244.215L525.799 242.912C538.067 249.866 538.067 261.6 525.799 268.554L290.942 403.723C278.674 410.677 258.518 410.677 245.811 403.723L9.63995 268.554Z" fill="#C5D9EF"/>
</g>
<path d="M535 224.157C535 224.592 535 225.027 535 225.027C535 225.461 535 225.461 535 225.896C535 226.331 535 226.765 534.562 226.765C534.562 227.2 534.562 227.2 534.124 227.634C534.124 228.069 533.686 228.069 533.686 228.504C533.248 228.938 533.248 229.373 532.809 229.808C532.371 230.242 532.371 230.677 531.933 231.111C531.933 231.111 531.933 231.111 531.495 231.546C531.057 231.981 530.619 232.415 530.18 232.85C529.742 233.285 529.304 233.285 529.304 233.719C528.866 234.154 528.866 234.154 528.428 234.588C527.99 235.023 527.551 235.023 527.113 235.458C526.675 235.892 526.237 235.892 525.799 236.327L290.942 371.061L290.504 401.05L525.361 265.447C525.361 265.447 525.799 265.447 525.799 265.012C526.237 265.012 526.237 264.578 526.675 264.578C527.113 264.143 527.551 264.143 527.99 263.708C528.428 263.274 528.428 263.274 528.866 262.839C529.304 262.404 529.742 262.404 529.742 261.97C530.18 261.535 530.619 261.101 531.057 260.666C531.057 260.666 531.057 260.666 531.057 260.231C531.057 259.797 531.495 259.797 531.495 259.362L531.933 258.927C531.933 258.927 531.933 258.927 531.933 258.493C532.371 258.058 532.371 257.624 532.809 257.624C532.809 257.624 532.809 257.624 532.809 257.189C532.809 256.754 533.248 256.754 533.248 256.32C533.248 256.32 533.248 255.885 533.686 255.885C533.686 255.885 533.686 255.885 533.686 255.45C533.686 255.016 533.686 255.016 534.124 254.581V254.147C534.124 253.712 534.124 253.277 534.124 253.277C534.124 252.843 534.124 252.843 534.124 252.408C534.124 252.408 534.124 252.408 534.124 251.973L534.562 221.984C535 223.288 535 223.723 535 224.157Z" fill="#E1EDFF"/>
<path d="M9.63964 235.892C3.50532 232.415 0.438165 227.634 0.438165 222.854L0 252.843C0 257.623 3.06716 262.404 9.20147 265.881L245.811 401.05L246.249 371.061L9.63964 235.892Z" fill="#EFF1FE"/>
<path d="M525.799 210.25C538.067 217.204 538.067 228.939 525.799 235.893L290.942 371.061C278.674 378.015 258.518 378.015 245.811 371.061L9.63995 235.893C-2.62868 228.939 -2.62868 217.204 9.63995 210.25L244.497 74.6471C256.765 67.6931 276.921 67.6931 289.628 74.6471L525.799 210.25Z" fill="white"/>
<path d="M9.63995 225.461C-2.62868 218.507 -2.62868 206.772 9.63995 199.818L244.497 64.2155C256.765 57.2615 276.921 57.2615 289.628 64.2155L525.799 199.818C538.067 206.772 538.067 218.507 525.799 225.461L290.942 361.064C278.674 368.018 258.518 368.018 245.811 361.064L9.63995 225.461Z" fill="url(#paint0_linear_822_17490)"/>
<path d="M268.595 347.591C261.146 347.591 254.136 345.853 248.439 342.811L42.0634 224.593C36.8054 221.55 33.7383 217.204 33.7383 212.858C33.7383 208.512 36.8054 204.165 42.0634 201.123L247.125 82.4703C252.383 79.428 259.394 77.6895 266.842 77.6895C274.291 77.6895 281.302 79.428 286.998 82.4703L493.812 200.688C499.07 203.731 502.137 208.077 502.137 212.423C502.137 216.769 499.07 221.116 493.812 224.158L288.312 342.811C283.054 345.853 276.044 347.591 268.595 347.591ZM267.28 78.9933C259.832 78.9933 253.259 80.7318 248.001 83.7742L42.5016 201.992C37.6818 205.035 34.6146 208.512 34.6146 212.858C34.6146 216.769 37.2436 220.681 42.5016 223.723L249.316 341.941C254.574 344.984 261.146 346.722 268.595 346.722C276.044 346.722 282.616 344.984 287.874 341.941L493.374 223.723C498.194 220.681 501.261 217.204 501.261 212.858C501.261 208.946 498.632 205.035 493.374 201.992L286.56 83.3396C281.302 80.2972 274.291 78.9933 267.28 78.9933Z" fill="url(#paint1_linear_822_17490)"/>
<path d="M287.875 402.788C288.751 402.353 292.694 400.18 293.571 399.745V369.756C292.694 370.191 289.189 371.929 288.313 372.364C287.875 372.364 287.875 372.798 287.436 372.798C286.56 373.233 285.684 373.668 284.807 373.668C284.369 373.668 284.369 374.102 283.931 374.102C283.493 374.102 283.055 374.537 282.178 374.537C281.74 374.537 281.302 374.972 280.864 374.972C280.426 374.972 279.549 375.406 279.111 375.406C278.673 375.406 278.235 375.406 277.797 375.841C276.482 375.841 275.606 376.275 274.291 376.275C273.853 376.275 273.415 376.275 272.977 376.275C272.101 376.275 271.662 376.275 270.786 376.275C270.348 376.275 269.91 376.275 269.472 376.275C269.033 376.275 268.157 376.275 267.719 376.275C267.281 376.275 266.843 376.275 266.404 376.275C265.966 376.275 265.528 376.275 264.652 376.275C264.214 376.275 263.775 376.275 263.337 376.275C262.899 376.275 262.461 376.275 261.585 376.275C261.146 376.275 260.708 376.275 260.27 375.841C259.832 375.841 258.956 375.841 258.517 375.406C258.079 375.406 257.641 375.406 257.203 374.972C256.327 374.972 255.888 374.537 255.012 374.537C254.574 374.537 254.136 374.537 254.136 374.102C252.821 373.668 251.945 373.233 250.63 372.798C250.192 372.798 249.754 372.364 248.878 371.929C248.44 371.929 248.44 371.495 248.001 371.495C247.125 371.06 242.744 368.452 241.867 368.018V398.441C242.744 398.876 246.687 401.049 247.125 401.484C247.563 401.484 247.563 401.918 248.001 401.918C248.44 401.918 248.878 402.353 249.316 402.353C250.63 402.788 251.507 403.222 252.821 403.657C252.821 403.657 252.821 403.657 253.259 403.657C253.698 403.657 253.698 403.657 254.136 404.091C254.574 404.091 255.45 404.526 255.888 404.526H256.327C256.765 404.526 256.765 404.526 257.203 404.526C257.641 404.526 258.079 404.526 258.956 404.961C259.394 404.961 259.394 404.961 259.832 404.961C260.27 404.961 260.27 404.961 260.708 404.961C261.146 404.961 261.585 404.961 262.023 404.961C262.461 404.961 262.461 404.961 262.899 404.961C263.337 404.961 263.337 404.961 263.775 404.961C264.214 404.961 264.652 404.961 265.09 404.961C265.528 404.961 265.528 404.961 265.966 404.961C265.966 404.961 266.404 404.961 266.843 404.961C267.281 404.961 268.157 404.961 268.595 404.961C269.033 404.961 269.033 404.961 269.472 404.961H269.91C270.786 404.961 271.224 404.961 272.101 404.961C272.539 404.961 272.539 404.961 272.977 404.961C272.977 404.961 272.977 404.961 273.415 404.961C274.73 404.961 275.606 404.526 276.92 404.526C277.359 404.526 277.797 404.526 277.797 404.091C278.235 404.091 279.111 403.657 279.549 403.657C279.988 403.657 280.426 403.222 280.864 403.222C281.302 403.222 281.74 402.788 282.617 402.788H283.055H283.493C284.369 402.353 285.246 402.353 286.122 401.918C286.998 403.222 287.436 403.222 287.875 402.788Z" fill="url(#paint2_linear_822_17490)"/>
<g opacity="0.48">
<path d="M145.84 112.76L165.077 101.778C174.974 107.429 183.786 110.224 191.512 110.164C199.296 110.137 207.443 107.694 215.955 102.835L232.042 93.6507C243.448 87.1394 254.092 82.979 263.974 81.1694C273.912 79.3924 283.343 79.3014 292.266 80.8967C301.246 82.5244 310.001 85.3196 318.531 89.2822C327.118 93.2124 335.762 97.6616 344.465 102.63L313.908 120.074C307.082 116.178 301.14 113.725 296.082 112.716C291.08 111.74 286.336 111.882 281.851 113.144C277.365 114.406 272.569 116.495 267.462 119.41L245.672 131.85C241.359 134.312 236.335 136.173 230.599 137.434C224.864 138.695 218.075 138.869 210.233 137.956C202.391 137.042 193.182 134.603 182.607 130.64C172.088 126.708 159.833 120.748 145.84 112.76ZM129.882 225.13C121.18 220.162 113.386 215.227 106.501 210.324C99.5601 205.455 94.6639 200.457 91.8126 195.33C89.0181 190.237 89.1774 184.853 92.2903 179.179C95.4601 173.538 102.748 167.462 114.154 160.95L130.156 151.815C138.724 146.924 143.004 142.272 142.995 137.861C143.099 133.451 138.203 128.42 128.306 122.77L147.628 111.74C161.62 119.728 172.032 126.74 178.862 132.778C185.805 138.815 190.077 144.072 191.677 148.549C193.334 152.993 193.058 156.852 190.849 160.127C188.64 163.401 185.38 166.269 181.067 168.731L159.277 181.171C154.17 184.086 150.511 186.824 148.3 189.385C146.09 191.946 145.84 194.654 147.55 197.509C149.318 200.397 153.614 203.789 160.44 207.685L129.882 225.13ZM128.306 122.77L165.077 101.778L199.12 121.213L162.349 142.204L128.306 122.77Z" fill="url(#paint3_linear_822_17490)"/>
<path d="M389.362 249.74L370.04 260.77C360.2 255.153 351.388 252.357 343.605 252.385C335.878 252.379 327.731 254.822 319.162 259.714L303.16 268.849C291.754 275.361 281.082 279.505 271.143 281.282C261.262 283.091 251.831 283.182 242.851 281.555C233.928 279.959 225.202 277.18 216.671 273.218C208.141 269.32 199.497 264.871 190.737 259.87L221.294 242.426C228.12 246.322 234.034 248.759 239.035 249.735C244.094 250.744 248.866 250.618 253.351 249.356C257.837 248.094 262.633 246.005 267.74 243.09L289.53 230.65C293.843 228.188 298.867 226.327 304.603 225.066C310.338 223.805 317.099 223.647 324.884 224.593C332.726 225.506 341.906 227.929 352.425 231.86C363.057 235.792 375.369 241.752 389.362 249.74ZM405.32 137.37C414.079 142.371 421.873 147.306 428.701 152.176C435.642 157.045 440.51 162.027 443.304 167.121C446.155 172.247 445.996 177.631 442.826 183.272C439.714 188.946 432.454 195.038 421.048 201.55L404.961 210.733C396.449 215.593 392.17 220.244 392.122 224.687C392.074 229.13 396.971 234.161 406.811 239.778L387.574 250.76C373.582 242.772 363.114 235.76 356.17 229.722C349.283 223.718 345.04 218.477 343.44 214C341.84 209.523 342.144 205.648 344.353 202.373C346.562 199.099 349.822 196.231 354.135 193.769L375.925 181.329C381.032 178.414 384.691 175.676 386.902 173.115C389.112 170.554 389.334 167.83 387.566 164.942C385.856 162.087 381.588 158.711 374.762 154.815L405.32 137.37ZM406.811 239.778L370.04 260.77L335.997 241.336L372.768 220.344L406.811 239.778Z" fill="url(#paint4_linear_822_17490)"/>
</g>
<path d="M145.84 92.7602L165.077 81.7785C174.974 87.4285 183.786 90.2237 191.512 90.1641C199.296 90.1369 207.443 87.6938 215.955 82.8346L232.042 73.6507C243.448 67.1394 254.092 62.979 263.974 61.1694C273.912 59.3924 283.343 59.3014 292.266 60.8967C301.246 62.5244 310.001 65.3196 318.531 69.2822C327.118 73.2124 335.762 77.6616 344.465 82.6298L313.908 100.074C307.082 96.1776 301.14 93.7249 296.082 92.7161C291.08 91.7397 286.336 91.8824 281.851 93.1443C277.365 94.4061 272.569 96.4948 267.462 99.4103L245.672 111.85C241.359 114.312 236.335 116.173 230.599 117.434C224.864 118.695 218.075 118.869 210.233 117.956C202.391 117.042 193.182 114.603 182.607 110.64C172.088 106.708 159.833 100.748 145.84 92.7602ZM129.882 205.13C121.18 200.162 113.386 195.227 106.501 190.324C99.5601 185.455 94.6639 180.457 91.8126 175.33C89.0181 170.237 89.1774 164.853 92.2903 159.179C95.4601 153.538 102.748 147.462 114.154 140.95L130.156 131.815C138.724 126.924 143.004 122.272 142.995 117.861C143.099 113.451 138.203 108.42 128.306 102.77L147.628 91.7398C161.62 99.7278 172.032 106.74 178.862 112.778C185.805 118.815 190.077 124.072 191.677 128.549C193.334 132.993 193.058 136.852 190.849 140.127C188.64 143.401 185.38 146.269 181.067 148.731L159.277 161.171C154.17 164.086 150.511 166.824 148.3 169.385C146.09 171.946 145.84 174.654 147.55 177.509C149.318 180.397 153.614 183.789 160.44 187.685L129.882 205.13ZM128.306 102.77L165.077 81.7785L199.12 101.213L162.349 122.204L128.306 102.77Z" fill="url(#paint5_linear_822_17490)"/>
<path d="M389.362 229.74L370.04 240.77C360.2 235.153 351.388 232.357 343.605 232.385C335.878 232.379 327.731 234.822 319.162 239.714L303.16 248.849C291.754 255.361 281.082 259.505 271.143 261.282C261.262 263.091 251.831 263.182 242.851 261.555C233.928 259.959 225.202 257.18 216.671 253.218C208.141 249.32 199.497 244.871 190.737 239.87L221.294 222.426C228.12 226.322 234.034 228.759 239.035 229.735C244.094 230.744 248.866 230.618 253.351 229.356C257.837 228.094 262.633 226.005 267.74 223.09L289.53 210.65C293.843 208.188 298.867 206.327 304.603 205.066C310.338 203.805 317.099 203.647 324.884 204.593C332.726 205.506 341.906 207.929 352.425 211.86C363.057 215.792 375.369 221.752 389.362 229.74ZM405.32 117.37C414.079 122.371 421.873 127.306 428.701 132.176C435.642 137.045 440.51 142.027 443.304 147.121C446.155 152.247 445.996 157.631 442.826 163.272C439.714 168.946 432.454 175.038 421.048 181.55L404.961 190.733C396.449 195.593 392.17 200.244 392.122 204.687C392.074 209.13 396.971 214.161 406.811 219.778L387.574 230.76C373.582 222.772 363.114 215.76 356.17 209.722C349.283 203.718 345.04 198.477 343.44 194C341.84 189.523 342.144 185.648 344.353 182.373C346.562 179.099 349.822 176.231 354.135 173.769L375.925 161.329C381.032 158.414 384.691 155.676 386.902 153.115C389.112 150.554 389.334 147.83 387.566 144.942C385.856 142.087 381.588 138.711 374.762 134.815L405.32 117.37ZM406.811 219.778L370.04 240.77L335.997 221.336L372.768 200.344L406.811 219.778Z" fill="url(#paint6_linear_822_17490)"/>
<circle cx="40.6667" cy="51.6667" r="33.6667" fill="url(#paint7_linear_822_17490)"/>
<circle cx="40.6667" cy="51.6667" r="33.6667" fill="url(#paint8_radial_822_17490)"/>
<circle cx="40.6667" cy="51.6667" r="33.6667" fill="url(#paint9_radial_822_17490)"/>
<circle cx="40.6667" cy="51.6667" r="33.6667" fill="url(#paint10_radial_822_17490)"/>
<circle cx="40.6667" cy="51.6667" r="33.6667" fill="url(#paint11_radial_822_17490)"/>
<g style="mix-blend-mode:lighten">
<ellipse cx="38.8417" cy="43.1489" rx="20.8896" ry="18.6586" fill="url(#paint12_linear_822_17490)"/>
</g>
<g style="mix-blend-mode:lighten">
<path d="M26.6293 41.3162C25.2776 40.8962 24.5039 39.4462 25.141 38.1823C26.2496 35.983 27.8734 34.0685 29.8889 32.6106C31.9045 31.1527 34.231 30.2098 36.6668 29.8453C38.0666 29.6358 39.2016 30.8245 39.1774 32.2397V32.2397C39.1532 33.6549 37.9697 34.751 36.5917 35.0746C35.2673 35.3855 34.0089 35.9566 32.8931 36.7638C31.7772 37.5709 30.8409 38.5873 30.131 39.7478C29.3924 40.9552 27.981 41.7362 26.6293 41.3162V41.3162Z" fill="url(#paint13_linear_822_17490)"/>
</g>
<circle cx="485.5" cy="63.5" r="49.5" fill="url(#paint14_linear_822_17490)"/>
<circle cx="485.5" cy="63.5" r="49.5" fill="url(#paint15_radial_822_17490)"/>
<circle cx="485.5" cy="63.5" r="49.5" fill="url(#paint16_radial_822_17490)"/>
<circle cx="485.5" cy="63.5" r="49.5" fill="url(#paint17_radial_822_17490)"/>
<circle cx="485.5" cy="63.5" r="49.5" fill="url(#paint18_radial_822_17490)"/>
<g style="mix-blend-mode:lighten">
<ellipse cx="482.816" cy="50.9777" rx="30.7139" ry="27.4337" fill="url(#paint19_linear_822_17490)"/>
</g>
<g style="mix-blend-mode:lighten">
<path d="M464.861 48.2817C462.874 47.6642 461.736 45.5322 462.673 43.6739C464.303 40.4403 466.69 37.6254 469.654 35.4819C472.617 33.3383 476.038 31.9519 479.619 31.416C481.677 31.108 483.346 32.8557 483.311 34.9365V34.9365C483.275 37.0173 481.535 38.6289 479.509 39.1046C477.562 39.5618 475.711 40.4015 474.071 41.5882C472.43 42.775 471.054 44.2694 470.01 45.9757C468.924 47.751 466.849 48.8992 464.861 48.2817V48.2817Z" fill="url(#paint20_linear_822_17490)"/>
</g>
</g>
<defs>
<filter id="filter0_f_822_17490" x="-10.5615" y="228" width="556.562" height="191.938" filterUnits="userSpaceOnUse" color-interpolation-filters="sRGB">
<feFlood flood-opacity="0" result="BackgroundImageFix"/>
<feBlend mode="normal" in="SourceGraphic" in2="BackgroundImageFix" result="shape"/>
<feGaussianBlur stdDeviation="5.5" result="effect1_foregroundBlur_822_17490"/>
</filter>
<linearGradient id="paint0_linear_822_17490" x1="267.841" y1="366.232" x2="267.841" y2="58.9975" gradientUnits="userSpaceOnUse">
<stop stop-color="#F1F4FE"/>
<stop offset="0.5797" stop-color="#F7F9FE"/>
<stop offset="1" stop-color="white"/>
</linearGradient>
<linearGradient id="paint1_linear_822_17490" x1="33.3838" y1="212.621" x2="502.289" y2="212.621" gradientUnits="userSpaceOnUse">
<stop stop-color="#3A98FF"/>
<stop offset="0.6277" stop-color="#00F0FF"/>
<stop offset="1" stop-color="#00FFAC"/>
</linearGradient>
<linearGradient id="paint2_linear_822_17490" x1="242.582" y1="387.938" x2="293.464" y2="387.938" gradientUnits="userSpaceOnUse">
<stop stop-color="#EFF1FE"/>
<stop offset="1" stop-color="#E4E7FB"/>
</linearGradient>
<linearGradient id="paint3_linear_822_17490" x1="374.892" y1="120" x2="269.406" y2="304.78" gradientUnits="userSpaceOnUse">
<stop stop-color="#00CBFF"/>
<stop offset="1" stop-color="#3A98FF" stop-opacity="0"/>
</linearGradient>
<linearGradient id="paint4_linear_822_17490" x1="374.892" y1="120" x2="269.406" y2="304.78" gradientUnits="userSpaceOnUse">
<stop stop-color="#00CBFF"/>
<stop offset="1" stop-color="#3A98FF" stop-opacity="0"/>
</linearGradient>
<linearGradient id="paint5_linear_822_17490" x1="374.892" y1="100" x2="269.406" y2="284.78" gradientUnits="userSpaceOnUse">
<stop stop-color="#3A98FF"/>
<stop offset="0.45625" stop-color="#00CBFF"/>
<stop offset="1" stop-color="#48FAC9"/>
</linearGradient>
<linearGradient id="paint6_linear_822_17490" x1="374.892" y1="100" x2="269.406" y2="284.78" gradientUnits="userSpaceOnUse">
<stop stop-color="#3A98FF"/>
<stop offset="0.45625" stop-color="#00CBFF"/>
<stop offset="1" stop-color="#48FAC9"/>
</linearGradient>
<linearGradient id="paint7_linear_822_17490" x1="40.6667" y1="18" x2="40.6667" y2="85.3333" gradientUnits="userSpaceOnUse">
<stop stop-color="#40FFC6"/>
<stop offset="0.492708" stop-color="#4AE6FF"/>
<stop offset="1" stop-color="#2595FF"/>
</linearGradient>
<radialGradient id="paint8_radial_822_17490" cx="0" cy="0" r="1" gradientUnits="userSpaceOnUse" gradientTransform="translate(26.8393 31.2262) rotate(62.6223) scale(75.8263)">
<stop offset="0.462106" stop-color="#2AA8FF" stop-opacity="0"/>
<stop offset="0.894737" stop-color="#2595FF"/>
</radialGradient>
<radialGradient id="paint9_radial_822_17490" cx="0" cy="0" r="1" gradientUnits="userSpaceOnUse" gradientTransform="translate(24.4345 32.4286) rotate(56.6259) scale(90.7081)">
<stop stop-color="#6EFFCE"/>
<stop offset="0.570035" stop-color="#A5FFFD" stop-opacity="0"/>
</radialGradient>
<radialGradient id="paint10_radial_822_17490" cx="0" cy="0" r="1" gradientUnits="userSpaceOnUse" gradientTransform="translate(34.0536 38.4405) rotate(63.4349) scale(48.3586)">
<stop offset="0.672439" stop-color="#9EC6FD" stop-opacity="0"/>
<stop offset="1" stop-color="white"/>
</radialGradient>
<radialGradient id="paint11_radial_822_17490" cx="0" cy="0" r="1" gradientUnits="userSpaceOnUse" gradientTransform="translate(37.027 44.3874) rotate(62.0378) scale(41.7221)">
<stop offset="0.961458" stop-color="#2AA8FF" stop-opacity="0"/>
<stop offset="1" stop-color="#058AFF" stop-opacity="0.26"/>
</radialGradient>
<linearGradient id="paint12_linear_822_17490" x1="26.9048" y1="29.3054" x2="41.9659" y2="46.0323" gradientUnits="userSpaceOnUse">
<stop stop-color="white" stop-opacity="0.86"/>
<stop offset="1" stop-color="#D9D9D9" stop-opacity="0"/>
</linearGradient>
<linearGradient id="paint13_linear_822_17490" x1="38.8476" y1="31.1938" x2="29.7485" y2="41.6578" gradientUnits="userSpaceOnUse">
<stop stop-color="white"/>
<stop offset="1" stop-color="#FFFFE9" stop-opacity="0.38"/>
</linearGradient>
<linearGradient id="paint14_linear_822_17490" x1="485.5" y1="14" x2="485.5" y2="113" gradientUnits="userSpaceOnUse">
<stop stop-color="#40FFC6"/>
<stop offset="0.492708" stop-color="#4AE6FF"/>
<stop offset="1" stop-color="#2595FF"/>
</linearGradient>
<radialGradient id="paint15_radial_822_17490" cx="0" cy="0" r="1" gradientUnits="userSpaceOnUse" gradientTransform="translate(465.17 33.4464) rotate(62.6223) scale(111.487)">
<stop offset="0.462106" stop-color="#2AA8FF" stop-opacity="0"/>
<stop offset="0.894737" stop-color="#2595FF"/>
</radialGradient>
<radialGradient id="paint16_radial_822_17490" cx="0" cy="0" r="1" gradientUnits="userSpaceOnUse" gradientTransform="translate(461.634 35.2143) rotate(56.6259) scale(133.368)">
<stop stop-color="#6EFFCE"/>
<stop offset="0.570035" stop-color="#A5FFFD" stop-opacity="0"/>
</radialGradient>
<radialGradient id="paint17_radial_822_17490" cx="0" cy="0" r="1" gradientUnits="userSpaceOnUse" gradientTransform="translate(475.777 44.0536) rotate(63.4349) scale(71.1015)">
<stop offset="0.672439" stop-color="#9EC6FD" stop-opacity="0"/>
<stop offset="1" stop-color="white"/>
</radialGradient>
<radialGradient id="paint18_radial_822_17490" cx="0" cy="0" r="1" gradientUnits="userSpaceOnUse" gradientTransform="translate(480.149 52.7973) rotate(62.0378) scale(61.3439)">
<stop offset="0.961458" stop-color="#2AA8FF" stop-opacity="0"/>
<stop offset="1" stop-color="#058AFF" stop-opacity="0.26"/>
</radialGradient>
<linearGradient id="paint19_linear_822_17490" x1="465.266" y1="30.6236" x2="487.41" y2="55.2172" gradientUnits="userSpaceOnUse">
<stop stop-color="white" stop-opacity="0.86"/>
<stop offset="1" stop-color="#D9D9D9" stop-opacity="0"/>
</linearGradient>
<linearGradient id="paint20_linear_822_17490" x1="482.826" y1="33.3987" x2="469.447" y2="48.7839" gradientUnits="userSpaceOnUse">
<stop stop-color="white"/>
<stop offset="1" stop-color="#FFFFE9" stop-opacity="0.38"/>
</linearGradient>
<clipPath id="clip0_822_17490">
<rect width="535" height="436" fill="white"/>
</clipPath>
</defs>
</svg>
