<svg width="535" height="422" viewBox="0 0 535 422" fill="none" xmlns="http://www.w3.org/2000/svg">
<g clip-path="url(#clip0_862_30926)">
<g filter="url(#filter0_f_862_30926)">
<path d="M9.63897 254.554C-2.62966 247.6 -2.62966 235.866 9.63897 228.912L244.496 230.215C256.764 223.262 276.92 223.262 289.627 230.215L525.798 228.912C538.066 235.866 538.066 247.6 525.798 254.554L290.941 389.723C278.673 396.677 258.517 396.677 245.81 389.723L9.63897 254.554Z" fill="#C5D9EF"/>
</g>
<path d="M535 210.157C535 210.592 535 211.027 535 211.027C535 211.461 535 211.461 535 211.896C535 212.331 535 212.765 534.562 212.765C534.562 213.2 534.562 213.2 534.124 213.634C534.124 214.069 533.686 214.069 533.686 214.504C533.248 214.938 533.248 215.373 532.809 215.808C532.371 216.242 532.371 216.677 531.933 217.111C531.933 217.111 531.933 217.111 531.495 217.546C531.057 217.981 530.619 218.415 530.18 218.85C529.742 219.285 529.304 219.285 529.304 219.719C528.866 220.154 528.866 220.154 528.428 220.588C527.99 221.023 527.551 221.023 527.113 221.458C526.675 221.892 526.237 221.892 525.799 222.327L290.942 357.061L290.504 387.05L525.361 251.447C525.361 251.447 525.799 251.447 525.799 251.012C526.237 251.012 526.237 250.578 526.675 250.578C527.113 250.143 527.551 250.143 527.99 249.708C528.428 249.274 528.428 249.274 528.866 248.839C529.304 248.404 529.742 248.404 529.742 247.97C530.18 247.535 530.619 247.101 531.057 246.666C531.057 246.666 531.057 246.666 531.057 246.231C531.057 245.797 531.495 245.797 531.495 245.362L531.933 244.927C531.933 244.927 531.933 244.927 531.933 244.493C532.371 244.058 532.371 243.624 532.809 243.624C532.809 243.624 532.809 243.624 532.809 243.189C532.809 242.754 533.248 242.754 533.248 242.32C533.248 242.32 533.248 241.885 533.686 241.885C533.686 241.885 533.686 241.885 533.686 241.45C533.686 241.016 533.686 241.016 534.124 240.581V240.147C534.124 239.712 534.124 239.277 534.124 239.277C534.124 238.843 534.124 238.843 534.124 238.408C534.124 238.408 534.124 238.408 534.124 237.973L534.562 207.984C535 209.288 535 209.723 535 210.157Z" fill="#E1EDFF"/>
<path d="M9.63964 221.89C3.50532 218.413 0.438165 213.632 0.438165 208.852L0 238.841C0 243.622 3.06716 248.402 9.20147 251.879L245.811 387.048L246.249 357.059L9.63964 221.89Z" fill="#EFF1FE"/>
<path d="M525.798 196.248C538.066 203.202 538.066 214.937 525.798 221.891L290.941 357.059C278.673 364.013 258.517 364.013 245.81 357.059L9.63897 221.891C-2.62966 214.937 -2.62966 203.202 9.63897 196.248L244.496 60.6452C256.764 53.6912 276.92 53.6912 289.627 60.6452L525.798 196.248Z" fill="white"/>
<path d="M9.63897 211.461C-2.62966 204.507 -2.62966 192.772 9.63897 185.818L244.496 50.2155C256.764 43.2615 276.92 43.2615 289.627 50.2155L525.798 185.818C538.066 192.772 538.066 204.507 525.798 211.461L290.941 347.064C278.673 354.018 258.517 354.018 245.81 347.064L9.63897 211.461Z" fill="url(#paint0_linear_862_30926)"/>
<path d="M268.595 333.589C261.146 333.589 254.136 331.851 248.439 328.809L42.0634 210.591C36.8054 207.548 33.7383 203.202 33.7383 198.856C33.7383 194.51 36.8054 190.163 42.0634 187.121L247.125 68.4684C252.383 65.426 259.394 63.6875 266.842 63.6875C274.291 63.6875 281.302 65.426 286.998 68.4684L493.812 186.686C499.07 189.729 502.137 194.075 502.137 198.421C502.137 202.767 499.07 207.114 493.812 210.156L288.312 328.809C283.054 331.851 276.044 333.589 268.595 333.589ZM267.28 64.9914C259.832 64.9914 253.259 66.7299 248.001 69.7722L42.5016 187.99C37.6818 191.033 34.6146 194.51 34.6146 198.856C34.6146 202.767 37.2436 206.679 42.5016 209.721L249.316 327.939C254.574 330.982 261.146 332.72 268.595 332.72C276.044 332.72 282.616 330.982 287.874 327.939L493.374 209.721C498.194 206.679 501.261 203.202 501.261 198.856C501.261 194.944 498.632 191.033 493.374 187.99L286.56 69.3376C281.302 66.2952 274.291 64.9914 267.28 64.9914Z" fill="url(#paint1_linear_862_30926)"/>
<path d="M287.875 388.786C288.751 388.351 292.694 386.178 293.571 385.743V355.754C292.694 356.189 289.189 357.927 288.313 358.362C287.875 358.362 287.875 358.796 287.436 358.796C286.56 359.231 285.684 359.666 284.807 359.666C284.369 359.666 284.369 360.1 283.931 360.1C283.493 360.1 283.055 360.535 282.178 360.535C281.74 360.535 281.302 360.97 280.864 360.97C280.426 360.97 279.549 361.404 279.111 361.404C278.673 361.404 278.235 361.404 277.797 361.839C276.482 361.839 275.606 362.274 274.291 362.274C273.853 362.274 273.415 362.274 272.977 362.274C272.101 362.274 271.662 362.274 270.786 362.274C270.348 362.274 269.91 362.274 269.472 362.274C269.033 362.274 268.157 362.274 267.719 362.274C267.281 362.274 266.843 362.274 266.404 362.274C265.966 362.274 265.528 362.274 264.652 362.274C264.214 362.274 263.775 362.274 263.337 362.274C262.899 362.274 262.461 362.274 261.585 362.274C261.146 362.274 260.708 362.274 260.27 361.839C259.832 361.839 258.956 361.839 258.517 361.404C258.079 361.404 257.641 361.404 257.203 360.97C256.327 360.97 255.888 360.535 255.012 360.535C254.574 360.535 254.136 360.535 254.136 360.1C252.821 359.666 251.945 359.231 250.63 358.796C250.192 358.796 249.754 358.362 248.878 357.927C248.44 357.927 248.44 357.493 248.001 357.493C247.125 357.058 242.744 354.45 241.867 354.016V384.439C242.744 384.874 246.687 387.047 247.125 387.482C247.563 387.482 247.563 387.916 248.001 387.916C248.44 387.916 248.878 388.351 249.316 388.351C250.63 388.786 251.507 389.22 252.821 389.655C252.821 389.655 252.821 389.655 253.259 389.655C253.698 389.655 253.698 389.655 254.136 390.089C254.574 390.089 255.45 390.524 255.888 390.524H256.327C256.765 390.524 256.765 390.524 257.203 390.524C257.641 390.524 258.079 390.524 258.956 390.959C259.394 390.959 259.394 390.959 259.832 390.959C260.27 390.959 260.27 390.959 260.708 390.959C261.146 390.959 261.585 390.959 262.023 390.959C262.461 390.959 262.461 390.959 262.899 390.959C263.337 390.959 263.337 390.959 263.775 390.959C264.214 390.959 264.652 390.959 265.09 390.959C265.528 390.959 265.528 390.959 265.966 390.959C265.966 390.959 266.404 390.959 266.843 390.959C267.281 390.959 268.157 390.959 268.595 390.959C269.033 390.959 269.033 390.959 269.472 390.959H269.91C270.786 390.959 271.224 390.959 272.101 390.959C272.539 390.959 272.539 390.959 272.977 390.959C272.977 390.959 272.977 390.959 273.415 390.959C274.73 390.959 275.606 390.524 276.92 390.524C277.359 390.524 277.797 390.524 277.797 390.089C278.235 390.089 279.111 389.655 279.549 389.655C279.988 389.655 280.426 389.22 280.864 389.22C281.302 389.22 281.74 388.786 282.617 388.786H283.055H283.493C284.369 388.351 285.246 388.351 286.122 387.916C286.998 389.22 287.436 389.22 287.875 388.786Z" fill="url(#paint2_linear_862_30926)"/>
<g opacity="0.48">
<path d="M145.84 98.7602L165.077 87.7785C174.974 93.4285 183.786 96.2237 191.512 96.1641C199.296 96.1369 207.443 93.6938 215.955 88.8346L232.042 79.6507C243.448 73.1394 254.092 68.979 263.974 67.1694C273.912 65.3924 283.343 65.3014 292.266 66.8967C301.246 68.5244 310.001 71.3196 318.531 75.2822C327.118 79.2124 335.762 83.6616 344.465 88.6298L313.908 106.074C307.082 102.178 301.14 99.7249 296.082 98.7161C291.08 97.7397 286.336 97.8824 281.851 99.1443C277.365 100.406 272.569 102.495 267.462 105.41L245.672 117.85C241.359 120.312 236.335 122.173 230.599 123.434C224.864 124.695 218.075 124.869 210.233 123.956C202.391 123.042 193.182 120.603 182.607 116.64C172.088 112.708 159.833 106.748 145.84 98.7602ZM129.882 211.13C121.18 206.162 113.386 201.227 106.501 196.324C99.5602 191.455 94.6639 186.457 91.8126 181.33C89.0181 176.237 89.1774 170.853 92.2903 165.179C95.4601 159.538 102.748 153.462 114.154 146.95L130.156 137.815C138.724 132.924 143.004 128.272 142.995 123.861C143.099 119.451 138.203 114.42 128.306 108.77L147.628 97.7398C161.62 105.728 172.032 112.74 178.862 118.778C185.805 124.815 190.077 130.072 191.677 134.549C193.334 138.993 193.058 142.852 190.849 146.127C188.64 149.401 185.38 152.269 181.067 154.731L159.277 167.171C154.17 170.086 150.511 172.824 148.3 175.385C146.09 177.946 145.84 180.654 147.55 183.509C149.318 186.397 153.614 189.789 160.44 193.685L129.882 211.13ZM128.306 108.77L165.077 87.7785L199.12 107.213L162.349 128.204L128.306 108.77Z" fill="url(#paint3_linear_862_30926)"/>
<path d="M389.362 235.74L370.04 246.77C360.2 241.153 351.388 238.357 343.605 238.385C335.878 238.379 327.731 240.822 319.162 245.714L303.16 254.849C291.754 261.361 281.082 265.505 271.143 267.282C261.262 269.091 251.831 269.182 242.851 267.555C233.928 265.959 225.202 263.18 216.671 259.218C208.141 255.32 199.497 250.871 190.737 245.87L221.294 228.426C228.12 232.322 234.034 234.759 239.035 235.735C244.094 236.744 248.866 236.618 253.351 235.356C257.837 234.094 262.633 232.005 267.74 229.09L289.53 216.65C293.843 214.188 298.867 212.327 304.603 211.066C310.338 209.805 317.099 209.647 324.884 210.593C332.726 211.506 341.906 213.929 352.425 217.86C363.057 221.792 375.369 227.752 389.362 235.74ZM405.32 123.37C414.079 128.371 421.873 133.306 428.701 138.176C435.642 143.045 440.51 148.027 443.304 153.121C446.155 158.247 445.996 163.631 442.826 169.272C439.714 174.946 432.454 181.038 421.048 187.55L404.961 196.733C396.449 201.593 392.17 206.244 392.122 210.687C392.074 215.13 396.971 220.161 406.811 225.778L387.574 236.76C373.582 228.772 363.114 221.76 356.17 215.722C349.283 209.718 345.04 204.477 343.44 200C341.84 195.523 342.144 191.648 344.353 188.373C346.562 185.099 349.822 182.231 354.135 179.769L375.925 167.329C381.032 164.414 384.691 161.676 386.902 159.115C389.112 156.554 389.334 153.83 387.566 150.942C385.856 148.087 381.588 144.711 374.762 140.815L405.32 123.37ZM406.811 225.778L370.04 246.77L335.997 227.336L372.768 206.344L406.811 225.778Z" fill="url(#paint4_linear_862_30926)"/>
</g>
<path d="M145.84 78.7602L165.077 67.7785C174.974 73.4285 183.786 76.2237 191.512 76.1641C199.296 76.1369 207.443 73.6938 215.955 68.8346L232.042 59.6507C243.448 53.1394 254.092 48.979 263.974 47.1694C273.912 45.3924 283.343 45.3014 292.266 46.8967C301.246 48.5244 310.001 51.3196 318.531 55.2822C327.118 59.2124 335.762 63.6616 344.465 68.6298L313.908 86.0742C307.082 82.1776 301.14 79.7249 296.082 78.7161C291.08 77.7397 286.336 77.8824 281.851 79.1443C277.365 80.4061 272.569 82.4948 267.462 85.4103L245.672 97.8498C241.359 100.312 236.335 102.173 230.599 103.434C224.864 104.695 218.075 104.869 210.233 103.956C202.391 103.042 193.182 100.603 182.607 96.6395C172.088 92.708 159.833 86.7482 145.84 78.7602ZM129.882 191.13C121.18 186.162 113.386 181.227 106.501 176.324C99.5602 171.455 94.6639 166.457 91.8126 161.33C89.0181 156.237 89.1774 150.853 92.2903 145.179C95.4601 139.538 102.748 133.462 114.154 126.95L130.156 117.815C138.724 112.924 143.004 108.272 142.995 103.861C143.099 99.4506 138.203 94.4202 128.306 88.7701L147.628 77.7398C161.62 85.7278 172.032 92.7404 178.862 98.7775C185.805 104.815 190.077 110.072 191.677 114.549C193.334 118.993 193.058 122.852 190.849 126.127C188.64 129.401 185.38 132.269 181.067 134.731L159.277 147.171C154.17 150.086 150.511 152.824 148.3 155.385C146.09 157.946 145.84 160.654 147.55 163.509C149.318 166.397 153.614 169.789 160.44 173.685L129.882 191.13ZM128.306 88.7701L165.077 67.7785L199.12 87.2127L162.349 108.204L128.306 88.7701Z" fill="url(#paint5_linear_862_30926)"/>
<path d="M389.362 215.74L370.04 226.77C360.2 221.153 351.388 218.357 343.605 218.385C335.878 218.379 327.731 220.822 319.162 225.714L303.16 234.849C291.754 241.361 281.082 245.505 271.143 247.282C261.262 249.091 251.831 249.182 242.851 247.555C233.928 245.959 225.202 243.18 216.671 239.218C208.141 235.32 199.497 230.871 190.737 225.87L221.294 208.426C228.12 212.322 234.034 214.759 239.035 215.735C244.094 216.744 248.866 216.618 253.351 215.356C257.837 214.094 262.633 212.005 267.74 209.09L289.53 196.65C293.843 194.188 298.867 192.327 304.603 191.066C310.338 189.805 317.099 189.647 324.884 190.593C332.726 191.506 341.906 193.929 352.425 197.86C363.057 201.792 375.369 207.752 389.362 215.74ZM405.32 103.37C414.079 108.371 421.873 113.306 428.701 118.176C435.642 123.045 440.51 128.027 443.304 133.121C446.155 138.247 445.996 143.631 442.826 149.272C439.714 154.946 432.454 161.038 421.048 167.55L404.961 176.733C396.449 181.593 392.17 186.244 392.122 190.687C392.074 195.13 396.971 200.161 406.811 205.778L387.574 216.76C373.582 208.772 363.114 201.76 356.17 195.722C349.283 189.718 345.04 184.477 343.44 180C341.84 175.523 342.144 171.648 344.353 168.373C346.562 165.099 349.822 162.231 354.135 159.769L375.925 147.329C381.032 144.414 384.691 141.676 386.902 139.115C389.112 136.554 389.334 133.83 387.566 130.942C385.856 128.087 381.588 124.711 374.762 120.815L405.32 103.37ZM406.811 205.778L370.04 226.77L335.997 207.336L372.768 186.344L406.811 205.778Z" fill="url(#paint6_linear_862_30926)"/>
<circle cx="40.6667" cy="37.6667" r="33.6667" fill="url(#paint7_linear_862_30926)"/>
<circle cx="40.6667" cy="37.6667" r="33.6667" fill="url(#paint8_radial_862_30926)"/>
<circle cx="40.6667" cy="37.6667" r="33.6667" fill="url(#paint9_radial_862_30926)"/>
<circle cx="40.6667" cy="37.6667" r="33.6667" fill="url(#paint10_radial_862_30926)"/>
<circle cx="40.6667" cy="37.6667" r="33.6667" fill="url(#paint11_radial_862_30926)"/>
<g style="mix-blend-mode:lighten">
<ellipse cx="38.8427" cy="29.1508" rx="20.8896" ry="18.6586" fill="url(#paint12_linear_862_30926)"/>
</g>
<g style="mix-blend-mode:lighten">
<path d="M26.6283 27.3172C25.2766 26.8972 24.5029 25.4472 25.14 24.1832C26.2487 21.984 27.8724 20.0695 29.888 18.6116C31.9035 17.1537 34.23 16.2108 36.6658 15.8462C38.0657 15.6368 39.2007 16.8254 39.1764 18.2407C39.1522 19.6559 37.9687 20.752 36.5907 21.0755C35.2663 21.3865 34.0079 21.9576 32.8921 22.7647C31.7762 23.5719 30.84 24.5883 30.1301 25.7488C29.3914 26.9562 27.98 27.7372 26.6283 27.3172Z" fill="url(#paint13_linear_862_30926)"/>
</g>
<circle cx="485.5" cy="49.5" r="49.5" fill="url(#paint14_linear_862_30926)"/>
<circle cx="485.5" cy="49.5" r="49.5" fill="url(#paint15_radial_862_30926)"/>
<circle cx="485.5" cy="49.5" r="49.5" fill="url(#paint16_radial_862_30926)"/>
<circle cx="485.5" cy="49.5" r="49.5" fill="url(#paint17_radial_862_30926)"/>
<circle cx="485.5" cy="49.5" r="49.5" fill="url(#paint18_radial_862_30926)"/>
<g style="mix-blend-mode:lighten">
<ellipse cx="482.817" cy="36.9767" rx="30.7139" ry="27.4337" fill="url(#paint19_linear_862_30926)"/>
</g>
<g style="mix-blend-mode:lighten">
<path d="M464.86 34.2807C462.873 33.6632 461.735 31.5312 462.672 29.6729C464.302 26.4393 466.689 23.6245 469.653 21.4809C472.616 19.3373 476.037 17.951 479.618 17.415C481.676 17.107 483.345 18.8547 483.31 20.9355C483.274 23.0163 481.534 24.6279 479.508 25.1036C477.561 25.5609 475.71 26.4005 474.07 27.5873C472.429 28.774 471.053 30.2684 470.009 31.9747C468.923 33.75 466.848 34.8982 464.86 34.2807Z" fill="url(#paint20_linear_862_30926)"/>
</g>
</g>
<defs>
<filter id="filter0_f_862_30926" x="-10.5625" y="214" width="556.562" height="191.938" filterUnits="userSpaceOnUse" color-interpolation-filters="sRGB">
<feFlood flood-opacity="0" result="BackgroundImageFix"/>
<feBlend mode="normal" in="SourceGraphic" in2="BackgroundImageFix" result="shape"/>
<feGaussianBlur stdDeviation="5.5" result="effect1_foregroundBlur_862_30926"/>
</filter>
<linearGradient id="paint0_linear_862_30926" x1="267.84" y1="352.232" x2="267.84" y2="44.9975" gradientUnits="userSpaceOnUse">
<stop stop-color="#F1F4FE"/>
<stop offset="0.5797" stop-color="#F7F9FE"/>
<stop offset="1" stop-color="white"/>
</linearGradient>
<linearGradient id="paint1_linear_862_30926" x1="33.3838" y1="198.619" x2="502.289" y2="198.619" gradientUnits="userSpaceOnUse">
<stop stop-color="#3A98FF"/>
<stop offset="0.6277" stop-color="#00F0FF"/>
<stop offset="1" stop-color="#00FFAC"/>
</linearGradient>
<linearGradient id="paint2_linear_862_30926" x1="242.582" y1="373.936" x2="293.464" y2="373.936" gradientUnits="userSpaceOnUse">
<stop stop-color="#EFF1FE"/>
<stop offset="1" stop-color="#E4E7FB"/>
</linearGradient>
<linearGradient id="paint3_linear_862_30926" x1="374.892" y1="106" x2="269.406" y2="290.78" gradientUnits="userSpaceOnUse">
<stop stop-color="#00CBFF"/>
<stop offset="1" stop-color="#3A98FF" stop-opacity="0"/>
</linearGradient>
<linearGradient id="paint4_linear_862_30926" x1="374.892" y1="106" x2="269.406" y2="290.78" gradientUnits="userSpaceOnUse">
<stop stop-color="#00CBFF"/>
<stop offset="1" stop-color="#3A98FF" stop-opacity="0"/>
</linearGradient>
<linearGradient id="paint5_linear_862_30926" x1="374.892" y1="86" x2="269.406" y2="270.78" gradientUnits="userSpaceOnUse">
<stop stop-color="#3A98FF"/>
<stop offset="0.45625" stop-color="#00CBFF"/>
<stop offset="1" stop-color="#48FAC9"/>
</linearGradient>
<linearGradient id="paint6_linear_862_30926" x1="374.892" y1="86" x2="269.406" y2="270.78" gradientUnits="userSpaceOnUse">
<stop stop-color="#3A98FF"/>
<stop offset="0.45625" stop-color="#00CBFF"/>
<stop offset="1" stop-color="#48FAC9"/>
</linearGradient>
<linearGradient id="paint7_linear_862_30926" x1="40.6667" y1="4" x2="40.6667" y2="71.3333" gradientUnits="userSpaceOnUse">
<stop stop-color="#40FFC6"/>
<stop offset="0.492708" stop-color="#4AE6FF"/>
<stop offset="1" stop-color="#2595FF"/>
</linearGradient>
<radialGradient id="paint8_radial_862_30926" cx="0" cy="0" r="1" gradientUnits="userSpaceOnUse" gradientTransform="translate(26.8393 17.2262) rotate(62.6223) scale(75.8263)">
<stop offset="0.462106" stop-color="#2AA8FF" stop-opacity="0"/>
<stop offset="0.894737" stop-color="#2595FF"/>
</radialGradient>
<radialGradient id="paint9_radial_862_30926" cx="0" cy="0" r="1" gradientUnits="userSpaceOnUse" gradientTransform="translate(24.4345 18.4286) rotate(56.6259) scale(90.7081)">
<stop stop-color="#6EFFCE"/>
<stop offset="0.570035" stop-color="#A5FFFD" stop-opacity="0"/>
</radialGradient>
<radialGradient id="paint10_radial_862_30926" cx="0" cy="0" r="1" gradientUnits="userSpaceOnUse" gradientTransform="translate(34.0536 24.4405) rotate(63.4349) scale(48.3586)">
<stop offset="0.672439" stop-color="#9EC6FD" stop-opacity="0"/>
<stop offset="1" stop-color="white"/>
</radialGradient>
<radialGradient id="paint11_radial_862_30926" cx="0" cy="0" r="1" gradientUnits="userSpaceOnUse" gradientTransform="translate(37.027 30.3874) rotate(62.0378) scale(41.7221)">
<stop offset="0.961458" stop-color="#2AA8FF" stop-opacity="0"/>
<stop offset="1" stop-color="#058AFF" stop-opacity="0.26"/>
</radialGradient>
<linearGradient id="paint12_linear_862_30926" x1="26.9058" y1="15.3073" x2="41.9669" y2="32.0343" gradientUnits="userSpaceOnUse">
<stop stop-color="white" stop-opacity="0.86"/>
<stop offset="1" stop-color="#D9D9D9" stop-opacity="0"/>
</linearGradient>
<linearGradient id="paint13_linear_862_30926" x1="38.8466" y1="17.1948" x2="29.7475" y2="27.6587" gradientUnits="userSpaceOnUse">
<stop stop-color="white"/>
<stop offset="1" stop-color="#FFFFE9" stop-opacity="0.38"/>
</linearGradient>
<linearGradient id="paint14_linear_862_30926" x1="485.5" y1="0" x2="485.5" y2="99" gradientUnits="userSpaceOnUse">
<stop stop-color="#40FFC6"/>
<stop offset="0.492708" stop-color="#4AE6FF"/>
<stop offset="1" stop-color="#2595FF"/>
</linearGradient>
<radialGradient id="paint15_radial_862_30926" cx="0" cy="0" r="1" gradientUnits="userSpaceOnUse" gradientTransform="translate(465.17 19.4464) rotate(62.6223) scale(111.487)">
<stop offset="0.462106" stop-color="#2AA8FF" stop-opacity="0"/>
<stop offset="0.894737" stop-color="#2595FF"/>
</radialGradient>
<radialGradient id="paint16_radial_862_30926" cx="0" cy="0" r="1" gradientUnits="userSpaceOnUse" gradientTransform="translate(461.634 21.2143) rotate(56.6259) scale(133.368)">
<stop stop-color="#6EFFCE"/>
<stop offset="0.570035" stop-color="#A5FFFD" stop-opacity="0"/>
</radialGradient>
<radialGradient id="paint17_radial_862_30926" cx="0" cy="0" r="1" gradientUnits="userSpaceOnUse" gradientTransform="translate(475.777 30.0536) rotate(63.4349) scale(71.1015)">
<stop offset="0.672439" stop-color="#9EC6FD" stop-opacity="0"/>
<stop offset="1" stop-color="white"/>
</radialGradient>
<radialGradient id="paint18_radial_862_30926" cx="0" cy="0" r="1" gradientUnits="userSpaceOnUse" gradientTransform="translate(480.149 38.7973) rotate(62.0378) scale(61.3439)">
<stop offset="0.961458" stop-color="#2AA8FF" stop-opacity="0"/>
<stop offset="1" stop-color="#058AFF" stop-opacity="0.26"/>
</radialGradient>
<linearGradient id="paint19_linear_862_30926" x1="465.267" y1="16.6226" x2="487.411" y2="41.2162" gradientUnits="userSpaceOnUse">
<stop stop-color="white" stop-opacity="0.86"/>
<stop offset="1" stop-color="#D9D9D9" stop-opacity="0"/>
</linearGradient>
<linearGradient id="paint20_linear_862_30926" x1="482.825" y1="19.3978" x2="469.446" y2="34.7829" gradientUnits="userSpaceOnUse">
<stop stop-color="white"/>
<stop offset="1" stop-color="#FFFFE9" stop-opacity="0.38"/>
</linearGradient>
<clipPath id="clip0_862_30926">
<rect width="535" height="422" fill="white"/>
</clipPath>
</defs>
</svg>
