<svg width="535" height="422" viewBox="0 0 535 422" fill="none" xmlns="http://www.w3.org/2000/svg">
<g clip-path="url(#clip0_862_32578)">
<g filter="url(#filter0_f_862_32578)">
<path d="M9.63897 254.554C-2.62966 247.6 -2.62966 235.866 9.63897 228.912L244.496 230.215C256.764 223.262 276.92 223.262 289.627 230.215L525.798 228.912C538.066 235.866 538.066 247.6 525.798 254.554L290.941 389.723C278.673 396.677 258.517 396.677 245.81 389.723L9.63897 254.554Z" fill="#C5D9EF"/>
</g>
<path d="M535 210.157C535 210.592 535 211.027 535 211.027C535 211.461 535 211.461 535 211.896C535 212.331 535 212.765 534.562 212.765C534.562 213.2 534.562 213.2 534.124 213.634C534.124 214.069 533.686 214.069 533.686 214.504C533.248 214.938 533.248 215.373 532.809 215.808C532.371 216.242 532.371 216.677 531.933 217.111C531.933 217.111 531.933 217.111 531.495 217.546C531.057 217.981 530.619 218.415 530.18 218.85C529.742 219.285 529.304 219.285 529.304 219.719C528.866 220.154 528.866 220.154 528.428 220.588C527.99 221.023 527.551 221.023 527.113 221.458C526.675 221.892 526.237 221.892 525.799 222.327L290.942 357.061L290.504 387.05L525.361 251.447C525.361 251.447 525.799 251.447 525.799 251.012C526.237 251.012 526.237 250.578 526.675 250.578C527.113 250.143 527.551 250.143 527.99 249.708C528.428 249.274 528.428 249.274 528.866 248.839C529.304 248.404 529.742 248.404 529.742 247.97C530.18 247.535 530.619 247.101 531.057 246.666C531.057 246.666 531.057 246.666 531.057 246.231C531.057 245.797 531.495 245.797 531.495 245.362L531.933 244.927C531.933 244.927 531.933 244.927 531.933 244.493C532.371 244.058 532.371 243.624 532.809 243.624C532.809 243.624 532.809 243.624 532.809 243.189C532.809 242.754 533.248 242.754 533.248 242.32C533.248 242.32 533.248 241.885 533.686 241.885C533.686 241.885 533.686 241.885 533.686 241.45C533.686 241.016 533.686 241.016 534.124 240.581V240.147C534.124 239.712 534.124 239.277 534.124 239.277C534.124 238.843 534.124 238.843 534.124 238.408C534.124 238.408 534.124 238.408 534.124 237.973L534.562 207.984C535 209.288 535 209.723 535 210.157Z" fill="#E1EDFF"/>
<path d="M9.63964 221.89C3.50532 218.413 0.438165 213.632 0.438165 208.852L0 238.841C0 243.622 3.06716 248.402 9.20147 251.879L245.811 387.048L246.249 357.059L9.63964 221.89Z" fill="#EFF1FE"/>
<path d="M525.798 196.248C538.066 203.202 538.066 214.937 525.798 221.891L290.941 357.059C278.673 364.013 258.517 364.013 245.81 357.059L9.63897 221.891C-2.62966 214.937 -2.62966 203.202 9.63897 196.248L244.496 60.6452C256.764 53.6912 276.92 53.6912 289.627 60.6452L525.798 196.248Z" fill="white"/>
<path d="M9.63897 211.461C-2.62966 204.507 -2.62966 192.772 9.63897 185.818L244.496 50.2155C256.764 43.2615 276.92 43.2615 289.627 50.2155L525.798 185.818C538.066 192.772 538.066 204.507 525.798 211.461L290.941 347.064C278.673 354.018 258.517 354.018 245.81 347.064L9.63897 211.461Z" fill="url(#paint0_linear_862_32578)"/>
<path d="M268.595 333.589C261.146 333.589 254.136 331.851 248.439 328.809L42.0634 210.591C36.8054 207.548 33.7383 203.202 33.7383 198.856C33.7383 194.51 36.8054 190.163 42.0634 187.121L247.125 68.4684C252.383 65.426 259.394 63.6875 266.842 63.6875C274.291 63.6875 281.302 65.426 286.998 68.4684L493.812 186.686C499.07 189.729 502.137 194.075 502.137 198.421C502.137 202.767 499.07 207.114 493.812 210.156L288.312 328.809C283.054 331.851 276.044 333.589 268.595 333.589ZM267.28 64.9914C259.832 64.9914 253.259 66.7299 248.001 69.7722L42.5016 187.99C37.6818 191.033 34.6146 194.51 34.6146 198.856C34.6146 202.767 37.2436 206.679 42.5016 209.721L249.316 327.939C254.574 330.982 261.146 332.72 268.595 332.72C276.044 332.72 282.616 330.982 287.874 327.939L493.374 209.721C498.194 206.679 501.261 203.202 501.261 198.856C501.261 194.944 498.632 191.033 493.374 187.99L286.56 69.3376C281.302 66.2952 274.291 64.9914 267.28 64.9914Z" fill="url(#paint1_linear_862_32578)"/>
<path d="M287.875 388.786C288.751 388.351 292.694 386.178 293.571 385.743V355.754C292.694 356.189 289.189 357.927 288.313 358.362C287.875 358.362 287.875 358.796 287.436 358.796C286.56 359.231 285.684 359.666 284.807 359.666C284.369 359.666 284.369 360.1 283.931 360.1C283.493 360.1 283.055 360.535 282.178 360.535C281.74 360.535 281.302 360.97 280.864 360.97C280.426 360.97 279.549 361.404 279.111 361.404C278.673 361.404 278.235 361.404 277.797 361.839C276.482 361.839 275.606 362.274 274.291 362.274C273.853 362.274 273.415 362.274 272.977 362.274C272.101 362.274 271.662 362.274 270.786 362.274C270.348 362.274 269.91 362.274 269.472 362.274C269.033 362.274 268.157 362.274 267.719 362.274C267.281 362.274 266.843 362.274 266.404 362.274C265.966 362.274 265.528 362.274 264.652 362.274C264.214 362.274 263.775 362.274 263.337 362.274C262.899 362.274 262.461 362.274 261.585 362.274C261.146 362.274 260.708 362.274 260.27 361.839C259.832 361.839 258.956 361.839 258.517 361.404C258.079 361.404 257.641 361.404 257.203 360.97C256.327 360.97 255.888 360.535 255.012 360.535C254.574 360.535 254.136 360.535 254.136 360.1C252.821 359.666 251.945 359.231 250.63 358.796C250.192 358.796 249.754 358.362 248.878 357.927C248.44 357.927 248.44 357.493 248.001 357.493C247.125 357.058 242.744 354.45 241.867 354.016V384.439C242.744 384.874 246.687 387.047 247.125 387.482C247.563 387.482 247.563 387.916 248.001 387.916C248.44 387.916 248.878 388.351 249.316 388.351C250.63 388.786 251.507 389.22 252.821 389.655C252.821 389.655 252.821 389.655 253.259 389.655C253.698 389.655 253.698 389.655 254.136 390.089C254.574 390.089 255.45 390.524 255.888 390.524H256.327C256.765 390.524 256.765 390.524 257.203 390.524C257.641 390.524 258.079 390.524 258.956 390.959C259.394 390.959 259.394 390.959 259.832 390.959C260.27 390.959 260.27 390.959 260.708 390.959C261.146 390.959 261.585 390.959 262.023 390.959C262.461 390.959 262.461 390.959 262.899 390.959C263.337 390.959 263.337 390.959 263.775 390.959C264.214 390.959 264.652 390.959 265.09 390.959C265.528 390.959 265.528 390.959 265.966 390.959C265.966 390.959 266.404 390.959 266.843 390.959C267.281 390.959 268.157 390.959 268.595 390.959C269.033 390.959 269.033 390.959 269.472 390.959H269.91C270.786 390.959 271.224 390.959 272.101 390.959C272.539 390.959 272.539 390.959 272.977 390.959C272.977 390.959 272.977 390.959 273.415 390.959C274.73 390.959 275.606 390.524 276.92 390.524C277.359 390.524 277.797 390.524 277.797 390.089C278.235 390.089 279.111 389.655 279.549 389.655C279.988 389.655 280.426 389.22 280.864 389.22C281.302 389.22 281.74 388.786 282.617 388.786H283.055H283.493C284.369 388.351 285.246 388.351 286.122 387.916C286.998 389.22 287.436 389.22 287.875 388.786Z" fill="url(#paint2_linear_862_32578)"/>
<path d="M430.894 192.962C422.675 180.166 411.527 167.794 397.446 156.259C397.193 156.047 396.742 155.95 396.299 156.021C390.486 156.962 383.315 158.427 377.878 159.693C362.313 147.53 344.105 137.003 323.44 128.222C325.715 125.03 328.08 120.884 329.697 117.518C329.812 117.268 329.644 117.007 329.286 116.855C309.353 108.715 287.951 102.27 265.798 97.5189C265.61 97.4756 265.403 97.4651 265.205 97.4928C188.254 106.287 134.849 127.383 94.6058 155.444C94.4074 155.581 94.3216 155.771 94.3586 155.945C99.7808 176.359 110.437 193.01 123.786 207.68C124.001 207.914 124.443 208.038 124.895 208.005C135.725 207.04 146.398 205.591 156.828 203.608C157.441 203.493 157.725 203.101 157.463 202.764C153.442 197.601 150.268 192.306 147.735 186.912C147.539 186.482 148.172 186.073 148.925 186.137C151.108 186.318 153.329 186.478 155.503 186.599C155.898 186.62 156.236 186.772 156.376 186.984C177.568 219.79 219.758 244.18 276.045 256.165C276.421 256.241 276.684 256.437 276.729 256.67C276.94 257.927 277.206 259.217 277.529 260.484C277.64 260.919 276.941 261.29 276.198 261.177C266.802 259.751 257.708 257.878 248.778 255.542C248.195 255.391 247.516 255.566 247.317 255.92C243.973 261.988 241.466 268.158 239.711 274.37C239.635 274.632 239.859 274.893 240.264 275.017C265.734 282.789 294.536 288.949 329.848 292.084C330.158 292.11 330.469 292.061 330.705 291.946C386.992 265.147 418.291 231.697 430.92 193.305C430.987 193.191 430.969 193.071 430.894 192.962ZM200.223 185.25C188.49 178.467 189.586 166.657 202.803 159.016C216.02 151.375 236.263 150.633 248.183 157.524C260.196 164.469 258.913 176.28 245.602 183.758C232.385 191.399 212.143 192.141 200.223 185.25ZM279.345 230.991C267.613 224.209 268.708 212.398 281.925 204.757C295.143 197.116 315.385 196.374 327.305 203.265C339.319 210.211 338.035 222.021 324.725 229.5C311.507 237.141 291.359 237.936 279.345 230.991Z" fill="url(#paint3_linear_862_32578)"/>
<path d="M432.894 152.224C424.675 139.428 413.527 127.055 399.446 115.521C399.193 115.309 398.742 115.212 398.299 115.283C392.486 116.223 385.315 117.689 379.878 118.955C364.313 106.791 346.105 96.2651 325.44 87.4841C327.715 84.2913 330.08 80.146 331.697 76.7802C331.812 76.5296 331.644 76.2688 331.286 76.1169C311.353 67.977 289.951 61.532 267.798 56.7806C267.61 56.7374 267.403 56.7268 267.205 56.7545C190.254 65.5483 136.849 86.6446 96.6058 114.706C96.4074 114.842 96.3216 115.033 96.3586 115.207C101.781 135.621 112.437 152.272 125.786 166.942C126.001 167.176 126.443 167.3 126.895 167.267C137.725 166.302 148.398 164.852 158.828 162.87C159.441 162.755 159.725 162.362 159.463 162.026C155.442 156.863 152.268 151.567 149.735 146.173C149.539 145.744 150.172 145.335 150.925 145.398C153.108 145.58 155.329 145.739 157.503 145.861C157.898 145.882 158.236 146.034 158.376 146.246C179.568 179.052 221.758 203.442 278.045 215.427C278.421 215.503 278.684 215.698 278.729 215.932C278.94 217.189 279.206 218.478 279.529 219.746C279.64 220.181 278.941 220.552 278.198 220.439C268.802 219.013 259.708 217.14 250.778 214.804C250.195 214.653 249.516 214.828 249.317 215.182C245.973 221.25 243.466 227.42 241.711 233.632C241.635 233.894 241.859 234.154 242.264 234.279C267.734 242.05 296.536 248.211 331.848 251.345C332.158 251.372 332.469 251.323 332.705 251.208C388.992 224.409 420.291 190.959 432.92 152.567C432.987 152.452 432.969 152.333 432.894 152.224ZM202.223 144.512C190.49 137.729 191.586 125.919 204.803 118.277C218.02 110.636 238.263 109.895 250.183 116.786C262.196 123.731 260.913 135.542 247.602 143.02C234.385 150.661 214.143 151.403 202.223 144.512ZM281.345 190.253C269.613 183.47 270.708 171.66 283.925 164.019C297.143 156.378 317.385 155.636 329.305 162.527C341.319 169.472 340.035 181.283 326.725 188.761C313.507 196.402 293.359 197.198 281.345 190.253Z" fill="#5865F2"/>
<circle cx="37" cy="34" r="30" fill="url(#paint4_linear_862_32578)"/>
<circle cx="37" cy="34" r="30" fill="url(#paint5_radial_862_32578)"/>
<circle cx="37" cy="34" r="30" fill="url(#paint6_radial_862_32578)"/>
<circle cx="37" cy="34" r="30" fill="url(#paint7_radial_862_32578)"/>
<circle cx="37" cy="34" r="30" fill="url(#paint8_radial_862_32578)"/>
<g style="mix-blend-mode:lighten">
<ellipse cx="35.3742" cy="26.4117" rx="18.6145" ry="16.6265" fill="url(#paint9_linear_862_32578)"/>
</g>
<g style="mix-blend-mode:lighten">
<path d="M24.4914 24.7777C23.2869 24.4035 22.5975 23.1114 23.1652 21.9851C24.1531 20.0254 25.6 18.3194 27.396 17.0203C29.1921 15.7211 31.2652 14.8809 33.4357 14.5561C34.6831 14.3694 35.6945 15.4286 35.6729 16.6897C35.6513 17.9508 34.5967 18.9276 33.3688 19.2159C32.1886 19.493 31.0673 20.0019 30.073 20.7211C29.0786 21.4403 28.2443 22.346 27.6118 23.3801C26.9536 24.4561 25.6958 25.152 24.4914 24.7777Z" fill="url(#paint10_linear_862_32578)"/>
</g>
<circle cx="500.5" cy="43.5" r="34.5" fill="url(#paint11_linear_862_32578)"/>
<circle cx="500.5" cy="43.5" r="34.5" fill="url(#paint12_radial_862_32578)"/>
<circle cx="500.5" cy="43.5" r="34.5" fill="url(#paint13_radial_862_32578)"/>
<circle cx="500.5" cy="43.5" r="34.5" fill="url(#paint14_radial_862_32578)"/>
<circle cx="500.5" cy="43.5" r="34.5" fill="url(#paint15_radial_862_32578)"/>
<g style="mix-blend-mode:lighten">
<ellipse cx="498.629" cy="34.7728" rx="21.4066" ry="19.1205" fill="url(#paint16_linear_862_32578)"/>
</g>
<g style="mix-blend-mode:lighten">
<path d="M486.114 32.8938C484.729 32.4634 483.937 30.9775 484.589 29.6823C485.725 27.4286 487.389 25.4667 489.455 23.9727C491.52 22.4787 493.904 21.5125 496.4 21.1389C497.835 20.9243 498.998 22.1424 498.973 23.5926C498.948 25.0429 497.736 26.1661 496.324 26.4977C494.966 26.8163 493.677 27.4015 492.533 28.2287C491.39 29.0558 490.43 30.0973 489.703 31.2866C488.946 32.5239 487.5 33.3242 486.114 32.8938Z" fill="url(#paint17_linear_862_32578)"/>
</g>
</g>
<defs>
<filter id="filter0_f_862_32578" x="-10.5625" y="214" width="556.562" height="191.938" filterUnits="userSpaceOnUse" color-interpolation-filters="sRGB">
<feFlood flood-opacity="0" result="BackgroundImageFix"/>
<feBlend mode="normal" in="SourceGraphic" in2="BackgroundImageFix" result="shape"/>
<feGaussianBlur stdDeviation="5.5" result="effect1_foregroundBlur_862_32578"/>
</filter>
<linearGradient id="paint0_linear_862_32578" x1="267.84" y1="352.232" x2="267.84" y2="44.9975" gradientUnits="userSpaceOnUse">
<stop stop-color="#F1F4FE"/>
<stop offset="0.5797" stop-color="#F7F9FE"/>
<stop offset="1" stop-color="white"/>
</linearGradient>
<linearGradient id="paint1_linear_862_32578" x1="33.3838" y1="198.619" x2="502.289" y2="198.619" gradientUnits="userSpaceOnUse">
<stop stop-color="#3A98FF"/>
<stop offset="0.6277" stop-color="#00F0FF"/>
<stop offset="1" stop-color="#00FFAC"/>
</linearGradient>
<linearGradient id="paint2_linear_862_32578" x1="242.582" y1="373.936" x2="293.464" y2="373.936" gradientUnits="userSpaceOnUse">
<stop stop-color="#EFF1FE"/>
<stop offset="1" stop-color="#E4E7FB"/>
</linearGradient>
<linearGradient id="paint3_linear_862_32578" x1="363.409" y1="136.567" x2="272.556" y2="293.723" gradientUnits="userSpaceOnUse">
<stop stop-color="#C3DAFD" stop-opacity="0.76"/>
<stop offset="1" stop-color="#E1EDFF" stop-opacity="0"/>
</linearGradient>
<linearGradient id="paint4_linear_862_32578" x1="37" y1="4" x2="37" y2="64" gradientUnits="userSpaceOnUse">
<stop stop-color="#40FFC6"/>
<stop offset="0.492708" stop-color="#4AE6FF"/>
<stop offset="1" stop-color="#2595FF"/>
</linearGradient>
<radialGradient id="paint5_radial_862_32578" cx="0" cy="0" r="1" gradientUnits="userSpaceOnUse" gradientTransform="translate(24.6786 15.7857) rotate(62.6223) scale(67.568)">
<stop offset="0.462106" stop-color="#2AA8FF" stop-opacity="0"/>
<stop offset="0.894737" stop-color="#2595FF"/>
</radialGradient>
<radialGradient id="paint6_radial_862_32578" cx="0" cy="0" r="1" gradientUnits="userSpaceOnUse" gradientTransform="translate(22.5357 16.8571) rotate(56.6259) scale(80.829)">
<stop stop-color="#6EFFCE"/>
<stop offset="0.570035" stop-color="#A5FFFD" stop-opacity="0"/>
</radialGradient>
<radialGradient id="paint7_radial_862_32578" cx="0" cy="0" r="1" gradientUnits="userSpaceOnUse" gradientTransform="translate(31.1071 22.2143) rotate(63.4349) scale(43.0918)">
<stop offset="0.672439" stop-color="#9EC6FD" stop-opacity="0"/>
<stop offset="1" stop-color="white"/>
</radialGradient>
<radialGradient id="paint8_radial_862_32578" cx="0" cy="0" r="1" gradientUnits="userSpaceOnUse" gradientTransform="translate(33.7568 27.5135) rotate(62.0378) scale(37.1781)">
<stop offset="0.961458" stop-color="#2AA8FF" stop-opacity="0"/>
<stop offset="1" stop-color="#058AFF" stop-opacity="0.26"/>
</radialGradient>
<linearGradient id="paint9_linear_862_32578" x1="24.7374" y1="14.0759" x2="38.1581" y2="28.9811" gradientUnits="userSpaceOnUse">
<stop stop-color="white" stop-opacity="0.86"/>
<stop offset="1" stop-color="#D9D9D9" stop-opacity="0"/>
</linearGradient>
<linearGradient id="paint10_linear_862_32578" x1="35.379" y1="15.7578" x2="27.2708" y2="25.0821" gradientUnits="userSpaceOnUse">
<stop stop-color="white"/>
<stop offset="1" stop-color="#FFFFE9" stop-opacity="0.38"/>
</linearGradient>
<linearGradient id="paint11_linear_862_32578" x1="500.5" y1="9" x2="500.5" y2="78" gradientUnits="userSpaceOnUse">
<stop stop-color="#40FFC6"/>
<stop offset="0.492708" stop-color="#4AE6FF"/>
<stop offset="1" stop-color="#2595FF"/>
</linearGradient>
<radialGradient id="paint12_radial_862_32578" cx="0" cy="0" r="1" gradientUnits="userSpaceOnUse" gradientTransform="translate(486.33 22.5536) rotate(62.6223) scale(77.7032)">
<stop offset="0.462106" stop-color="#2AA8FF" stop-opacity="0"/>
<stop offset="0.894737" stop-color="#2595FF"/>
</radialGradient>
<radialGradient id="paint13_radial_862_32578" cx="0" cy="0" r="1" gradientUnits="userSpaceOnUse" gradientTransform="translate(483.866 23.7857) rotate(56.6259) scale(92.9533)">
<stop stop-color="#6EFFCE"/>
<stop offset="0.570035" stop-color="#A5FFFD" stop-opacity="0"/>
</radialGradient>
<radialGradient id="paint14_radial_862_32578" cx="0" cy="0" r="1" gradientUnits="userSpaceOnUse" gradientTransform="translate(493.723 29.9464) rotate(63.4349) scale(49.5556)">
<stop offset="0.672439" stop-color="#9EC6FD" stop-opacity="0"/>
<stop offset="1" stop-color="white"/>
</radialGradient>
<radialGradient id="paint15_radial_862_32578" cx="0" cy="0" r="1" gradientUnits="userSpaceOnUse" gradientTransform="translate(496.77 36.0405) rotate(62.0378) scale(42.7548)">
<stop offset="0.961458" stop-color="#2AA8FF" stop-opacity="0"/>
<stop offset="1" stop-color="#058AFF" stop-opacity="0.26"/>
</radialGradient>
<linearGradient id="paint16_linear_862_32578" x1="486.397" y1="20.5867" x2="501.831" y2="37.7276" gradientUnits="userSpaceOnUse">
<stop stop-color="white" stop-opacity="0.86"/>
<stop offset="1" stop-color="#D9D9D9" stop-opacity="0"/>
</linearGradient>
<linearGradient id="paint17_linear_862_32578" x1="498.635" y1="22.5208" x2="489.311" y2="33.2438" gradientUnits="userSpaceOnUse">
<stop stop-color="white"/>
<stop offset="1" stop-color="#FFFFE9" stop-opacity="0.38"/>
</linearGradient>
<clipPath id="clip0_862_32578">
<rect width="535" height="422" fill="white"/>
</clipPath>
</defs>
</svg>
