<svg width="535" height="422" viewBox="0 0 535 422" fill="none" xmlns="http://www.w3.org/2000/svg">
<g clip-path="url(#clip0_862_35202)">
<g filter="url(#filter0_f_862_35202)">
<path d="M9.63897 254.554C-2.62966 247.6 -2.62966 235.866 9.63897 228.912L244.496 230.215C256.764 223.262 276.92 223.262 289.627 230.215L525.798 228.912C538.066 235.866 538.066 247.6 525.798 254.554L290.941 389.723C278.673 396.677 258.517 396.677 245.81 389.723L9.63897 254.554Z" fill="#C5D9EF"/>
</g>
<path d="M535 210.157C535 210.592 535 211.027 535 211.027C535 211.461 535 211.461 535 211.896C535 212.331 535 212.765 534.562 212.765C534.562 213.2 534.562 213.2 534.124 213.634C534.124 214.069 533.686 214.069 533.686 214.504C533.248 214.938 533.248 215.373 532.809 215.808C532.371 216.242 532.371 216.677 531.933 217.111C531.933 217.111 531.933 217.111 531.495 217.546C531.057 217.981 530.619 218.415 530.18 218.85C529.742 219.285 529.304 219.285 529.304 219.719C528.866 220.154 528.866 220.154 528.428 220.588C527.99 221.023 527.551 221.023 527.113 221.458C526.675 221.892 526.237 221.892 525.799 222.327L290.942 357.061L290.504 387.05L525.361 251.447C525.361 251.447 525.799 251.447 525.799 251.012C526.237 251.012 526.237 250.578 526.675 250.578C527.113 250.143 527.551 250.143 527.99 249.708C528.428 249.274 528.428 249.274 528.866 248.839C529.304 248.404 529.742 248.404 529.742 247.97C530.18 247.535 530.619 247.101 531.057 246.666C531.057 246.666 531.057 246.666 531.057 246.231C531.057 245.797 531.495 245.797 531.495 245.362L531.933 244.927C531.933 244.927 531.933 244.927 531.933 244.493C532.371 244.058 532.371 243.624 532.809 243.624C532.809 243.624 532.809 243.624 532.809 243.189C532.809 242.754 533.248 242.754 533.248 242.32C533.248 242.32 533.248 241.885 533.686 241.885C533.686 241.885 533.686 241.885 533.686 241.45C533.686 241.016 533.686 241.016 534.124 240.581V240.147C534.124 239.712 534.124 239.277 534.124 239.277C534.124 238.843 534.124 238.843 534.124 238.408C534.124 238.408 534.124 238.408 534.124 237.973L534.562 207.984C535 209.288 535 209.723 535 210.157Z" fill="#E1EDFF"/>
<path d="M9.63964 221.89C3.50532 218.413 0.438165 213.632 0.438165 208.852L0 238.841C0 243.622 3.06716 248.402 9.20147 251.879L245.811 387.048L246.249 357.059L9.63964 221.89Z" fill="#EFF1FE"/>
<path d="M525.798 196.248C538.066 203.202 538.066 214.937 525.798 221.891L290.941 357.059C278.673 364.013 258.517 364.013 245.81 357.059L9.63897 221.891C-2.62966 214.937 -2.62966 203.202 9.63897 196.248L244.496 60.6452C256.764 53.6912 276.92 53.6912 289.627 60.6452L525.798 196.248Z" fill="white"/>
<path d="M9.63897 211.461C-2.62966 204.507 -2.62966 192.772 9.63897 185.818L244.496 50.2155C256.764 43.2615 276.92 43.2615 289.627 50.2155L525.798 185.818C538.066 192.772 538.066 204.507 525.798 211.461L290.941 347.064C278.673 354.018 258.517 354.018 245.81 347.064L9.63897 211.461Z" fill="url(#paint0_linear_862_35202)"/>
<path d="M268.595 333.589C261.146 333.589 254.136 331.851 248.439 328.809L42.0634 210.591C36.8054 207.548 33.7383 203.202 33.7383 198.856C33.7383 194.51 36.8054 190.163 42.0634 187.121L247.125 68.4684C252.383 65.426 259.394 63.6875 266.842 63.6875C274.291 63.6875 281.302 65.426 286.998 68.4684L493.812 186.686C499.07 189.729 502.137 194.075 502.137 198.421C502.137 202.767 499.07 207.114 493.812 210.156L288.312 328.809C283.054 331.851 276.044 333.589 268.595 333.589ZM267.28 64.9914C259.832 64.9914 253.259 66.7299 248.001 69.7722L42.5016 187.99C37.6818 191.033 34.6146 194.51 34.6146 198.856C34.6146 202.767 37.2436 206.679 42.5016 209.721L249.316 327.939C254.574 330.982 261.146 332.72 268.595 332.72C276.044 332.72 282.616 330.982 287.874 327.939L493.374 209.721C498.194 206.679 501.261 203.202 501.261 198.856C501.261 194.944 498.632 191.033 493.374 187.99L286.56 69.3376C281.302 66.2952 274.291 64.9914 267.28 64.9914Z" fill="url(#paint1_linear_862_35202)"/>
<path d="M287.875 388.786C288.751 388.351 292.694 386.178 293.571 385.743V355.754C292.694 356.189 289.189 357.927 288.313 358.362C287.875 358.362 287.875 358.796 287.436 358.796C286.56 359.231 285.684 359.666 284.807 359.666C284.369 359.666 284.369 360.1 283.931 360.1C283.493 360.1 283.055 360.535 282.178 360.535C281.74 360.535 281.302 360.97 280.864 360.97C280.426 360.97 279.549 361.404 279.111 361.404C278.673 361.404 278.235 361.404 277.797 361.839C276.482 361.839 275.606 362.274 274.291 362.274C273.853 362.274 273.415 362.274 272.977 362.274C272.101 362.274 271.662 362.274 270.786 362.274C270.348 362.274 269.91 362.274 269.472 362.274C269.033 362.274 268.157 362.274 267.719 362.274C267.281 362.274 266.843 362.274 266.404 362.274C265.966 362.274 265.528 362.274 264.652 362.274C264.214 362.274 263.775 362.274 263.337 362.274C262.899 362.274 262.461 362.274 261.585 362.274C261.146 362.274 260.708 362.274 260.27 361.839C259.832 361.839 258.956 361.839 258.517 361.404C258.079 361.404 257.641 361.404 257.203 360.97C256.327 360.97 255.888 360.535 255.012 360.535C254.574 360.535 254.136 360.535 254.136 360.1C252.821 359.666 251.945 359.231 250.63 358.796C250.192 358.796 249.754 358.362 248.878 357.927C248.44 357.927 248.44 357.493 248.001 357.493C247.125 357.058 242.744 354.45 241.867 354.016V384.439C242.744 384.874 246.687 387.047 247.125 387.482C247.563 387.482 247.563 387.916 248.001 387.916C248.44 387.916 248.878 388.351 249.316 388.351C250.63 388.786 251.507 389.22 252.821 389.655C252.821 389.655 252.821 389.655 253.259 389.655C253.698 389.655 253.698 389.655 254.136 390.089C254.574 390.089 255.45 390.524 255.888 390.524H256.327C256.765 390.524 256.765 390.524 257.203 390.524C257.641 390.524 258.079 390.524 258.956 390.959C259.394 390.959 259.394 390.959 259.832 390.959C260.27 390.959 260.27 390.959 260.708 390.959C261.146 390.959 261.585 390.959 262.023 390.959C262.461 390.959 262.461 390.959 262.899 390.959C263.337 390.959 263.337 390.959 263.775 390.959C264.214 390.959 264.652 390.959 265.09 390.959C265.528 390.959 265.528 390.959 265.966 390.959C265.966 390.959 266.404 390.959 266.843 390.959C267.281 390.959 268.157 390.959 268.595 390.959C269.033 390.959 269.033 390.959 269.472 390.959H269.91C270.786 390.959 271.224 390.959 272.101 390.959C272.539 390.959 272.539 390.959 272.977 390.959C272.977 390.959 272.977 390.959 273.415 390.959C274.73 390.959 275.606 390.524 276.92 390.524C277.359 390.524 277.797 390.524 277.797 390.089C278.235 390.089 279.111 389.655 279.549 389.655C279.988 389.655 280.426 389.22 280.864 389.22C281.302 389.22 281.74 388.786 282.617 388.786H283.055H283.493C284.369 388.351 285.246 388.351 286.122 387.916C286.998 389.22 287.436 389.22 287.875 388.786Z" fill="url(#paint2_linear_862_35202)"/>
<g clip-path="url(#clip1_862_35202)">
<path d="M187.035 101.205C162.679 87.1436 132.052 81.3904 100.884 99.3853C76.1916 113.641 74.2894 130.498 105.923 148.762C143.156 170.259 170.065 157.479 170.065 157.479L152.024 147.062C152.024 147.062 134.951 152.453 116.14 141.592C100.819 132.746 100.147 120.409 114.651 112.035L183.6 151.843L192.702 146.588C207.051 138.304 220.06 120.273 187.035 101.205ZM174.773 107.558C189.358 115.979 190.367 126.876 176.979 134.606L126.667 105.559C140.881 97.3526 161.966 100.164 174.773 107.558Z" fill="url(#paint3_linear_862_35202)"/>
<path d="M259.339 108.1L163.07 163.681C157.605 166.836 149.542 171.041 149.542 171.041L166.75 180.976C166.75 180.976 172.878 178.151 177.915 175.243C177.915 175.243 173.119 187.829 196.235 201.176C220.579 215.23 254.011 215.021 278.22 201.044C300.741 188.042 303.666 168.815 278.016 154.006C253.995 140.137 233.563 143.315 233.563 143.315L276.948 118.267L259.339 108.1ZM261.667 158.316C278.197 167.86 276.443 181.011 259.982 190.515C242.331 200.706 218.642 200.363 203.859 191.828C186.215 181.641 190.471 168.195 205.74 159.379C219.967 151.165 243.164 147.634 261.667 158.316Z" fill="url(#paint4_linear_862_35202)"/>
<path d="M361.855 202.135C325.213 180.98 302.804 191.205 299.599 193.055L317.837 203.585C317.837 203.585 330.504 197.376 349.043 208.08C361.091 215.035 364.913 223.608 354.313 229.727L350.541 231.905L329.158 219.56C300.771 203.171 277.462 199.3 260.613 209.028C244.032 218.601 248.876 231.815 267.615 242.634C293.152 257.378 315.487 253.982 315.487 253.982C309.875 257.222 304.778 260.664 304.778 260.664L320.992 270.025C320.992 270.025 327.217 265.705 331.602 263.173L369.506 241.289C394.358 226.941 379.539 212.345 361.855 202.135ZM339.223 238.44L334.193 241.344C327.632 245.132 307.272 252.211 283.433 238.448C270.379 230.911 271.296 223.919 278.851 219.557C292.596 211.622 311.532 222.453 339.223 238.44Z" fill="url(#paint5_linear_862_35202)"/>
<path d="M386.621 220.07L407.139 231.916L377.603 282.97L465.963 265.879L484.549 276.609L326.032 306.339L306.536 295.083L351.249 287.098L386.621 220.07Z" fill="url(#paint6_linear_862_35202)"/>
<path d="M187.035 86.3383C162.679 72.2764 132.052 66.5232 100.884 84.5182C76.1916 98.7741 74.2894 115.631 105.923 133.894C143.156 155.391 170.065 142.611 170.065 142.611L152.024 132.195C152.024 132.195 134.951 137.585 116.14 126.725C100.819 117.879 100.147 105.542 114.651 97.1681L183.6 136.976L192.702 131.721C207.051 123.436 220.06 105.405 187.035 86.3383ZM174.773 92.6911C189.358 101.111 190.367 112.009 176.979 119.739L126.667 90.6916C140.881 82.4854 161.966 85.297 174.773 92.6911Z" fill="#E53238"/>
<path d="M259.339 93.233L163.07 148.814C157.605 151.969 149.542 156.174 149.542 156.174L166.75 166.109C166.75 166.109 172.878 163.284 177.915 160.376C177.915 160.376 173.119 172.962 196.235 186.309C220.579 200.363 254.011 200.154 278.22 186.177C300.741 173.175 303.666 153.948 278.016 139.138C253.995 125.27 233.563 128.448 233.563 128.448L276.948 103.4L259.339 93.233ZM261.667 143.449C278.197 152.993 276.443 166.144 259.982 175.647C242.331 185.838 218.642 185.496 203.859 176.96C186.215 166.774 190.471 153.327 205.74 144.512C219.967 136.298 243.164 132.766 261.667 143.449Z" fill="#0064D2"/>
<path d="M361.855 187.268C325.213 166.113 302.804 176.337 299.599 178.188L317.837 188.718C317.837 188.718 330.504 182.509 349.043 193.212C361.091 200.168 364.913 208.741 354.313 214.86L350.541 217.038L329.158 204.693C300.771 188.304 277.462 184.433 260.613 194.16C244.032 203.734 248.876 216.948 267.615 227.766C293.152 242.51 315.487 239.115 315.487 239.115C309.875 242.355 304.778 245.797 304.778 245.797L320.992 255.158C320.992 255.158 327.217 250.837 331.602 248.306L369.506 226.422C394.358 212.073 379.539 197.478 361.855 187.268ZM339.223 223.573L334.193 226.477C327.632 230.265 307.272 237.344 283.433 223.581C270.379 216.044 271.296 209.052 278.851 204.69C292.596 196.755 311.532 207.586 339.223 223.573Z" fill="#F5AF02"/>
<path d="M386.621 205.203L407.139 217.049L377.603 268.103L465.963 251.011L484.549 261.742L326.032 291.472L306.536 280.216L351.249 272.231L386.621 205.203Z" fill="#86B817"/>
</g>
<circle cx="60.6667" cy="108.667" r="33.6667" fill="url(#paint7_linear_862_35202)"/>
<circle cx="60.6667" cy="108.667" r="33.6667" fill="url(#paint8_radial_862_35202)"/>
<circle cx="60.6667" cy="108.667" r="33.6667" fill="url(#paint9_radial_862_35202)"/>
<circle cx="60.6667" cy="108.667" r="33.6667" fill="url(#paint10_radial_862_35202)"/>
<circle cx="60.6667" cy="108.667" r="33.6667" fill="url(#paint11_radial_862_35202)"/>
<g style="mix-blend-mode:lighten">
<ellipse cx="58.8427" cy="100.151" rx="20.8896" ry="18.6586" fill="url(#paint12_linear_862_35202)"/>
</g>
<g style="mix-blend-mode:lighten">
<path d="M46.6283 98.3172C45.2766 97.8972 44.5029 96.4472 45.14 95.1832C46.2487 92.984 47.8724 91.0695 49.888 89.6116C51.9035 88.1537 54.23 87.2108 56.6658 86.8462C58.0657 86.6368 59.2007 87.8254 59.1764 89.2407C59.1522 90.6559 57.9687 91.752 56.5907 92.0755C55.2663 92.3865 54.0079 92.9576 52.8921 93.7647C51.7762 94.5719 50.84 95.5883 50.1301 96.7488C49.3914 97.9562 47.98 98.7372 46.6283 98.3172Z" fill="url(#paint13_linear_862_35202)"/>
</g>
<circle cx="480.5" cy="60.5" r="54.5" fill="url(#paint14_linear_862_35202)"/>
<circle cx="480.5" cy="60.5" r="54.5" fill="url(#paint15_radial_862_35202)"/>
<circle cx="480.5" cy="60.5" r="54.5" fill="url(#paint16_radial_862_35202)"/>
<circle cx="480.5" cy="60.5" r="54.5" fill="url(#paint17_radial_862_35202)"/>
<circle cx="480.5" cy="60.5" r="54.5" fill="url(#paint18_radial_862_35202)"/>
<g style="mix-blend-mode:lighten">
<ellipse cx="477.545" cy="46.7126" rx="33.8163" ry="30.2048" fill="url(#paint19_linear_862_35202)"/>
</g>
<g style="mix-blend-mode:lighten">
<path d="M457.775 43.7443C455.587 43.0645 454.335 40.7171 455.366 38.6711C457.161 35.1108 459.789 32.0117 463.052 29.6516C466.315 27.2915 470.081 25.7651 474.024 25.175C476.29 24.8359 478.128 26.7601 478.088 29.0511C478.049 31.3421 476.133 33.1165 473.903 33.6403C471.759 34.1437 469.722 35.0681 467.915 36.3748C466.109 37.6814 464.593 39.3267 463.444 41.2054C462.248 43.16 459.964 44.4242 457.775 43.7443Z" fill="url(#paint20_linear_862_35202)"/>
</g>
</g>
<defs>
<filter id="filter0_f_862_35202" x="-10.5625" y="214" width="556.562" height="191.938" filterUnits="userSpaceOnUse" color-interpolation-filters="sRGB">
<feFlood flood-opacity="0" result="BackgroundImageFix"/>
<feBlend mode="normal" in="SourceGraphic" in2="BackgroundImageFix" result="shape"/>
<feGaussianBlur stdDeviation="5.5" result="effect1_foregroundBlur_862_35202"/>
</filter>
<linearGradient id="paint0_linear_862_35202" x1="267.84" y1="352.232" x2="267.84" y2="44.9975" gradientUnits="userSpaceOnUse">
<stop stop-color="#F1F4FE"/>
<stop offset="0.5797" stop-color="#F7F9FE"/>
<stop offset="1" stop-color="white"/>
</linearGradient>
<linearGradient id="paint1_linear_862_35202" x1="33.3838" y1="198.619" x2="502.289" y2="198.619" gradientUnits="userSpaceOnUse">
<stop stop-color="#3A98FF"/>
<stop offset="0.6277" stop-color="#00F0FF"/>
<stop offset="1" stop-color="#00FFAC"/>
</linearGradient>
<linearGradient id="paint2_linear_862_35202" x1="242.582" y1="373.936" x2="293.464" y2="373.936" gradientUnits="userSpaceOnUse">
<stop stop-color="#EFF1FE"/>
<stop offset="1" stop-color="#E4E7FB"/>
</linearGradient>
<linearGradient id="paint3_linear_862_35202" x1="185.777" y1="100.479" x2="144.906" y2="171.269" gradientUnits="userSpaceOnUse">
<stop stop-color="#C3DAFD" stop-opacity="0.76"/>
<stop offset="1" stop-color="#E1EDFF" stop-opacity="0"/>
</linearGradient>
<linearGradient id="paint4_linear_862_35202" x1="304.11" y1="133.949" x2="248.032" y2="231.08" gradientUnits="userSpaceOnUse">
<stop stop-color="#C3DAFD" stop-opacity="0.76"/>
<stop offset="1" stop-color="#E1EDFF" stop-opacity="0"/>
</linearGradient>
<linearGradient id="paint5_linear_862_35202" x1="358.71" y1="200.32" x2="317.614" y2="271.501" gradientUnits="userSpaceOnUse">
<stop stop-color="#C3DAFD" stop-opacity="0.76"/>
<stop offset="1" stop-color="#E1EDFF" stop-opacity="0"/>
</linearGradient>
<linearGradient id="paint6_linear_862_35202" x1="435.585" y1="248.34" x2="383.083" y2="339.277" gradientUnits="userSpaceOnUse">
<stop stop-color="#C3DAFD" stop-opacity="0.76"/>
<stop offset="1" stop-color="#E1EDFF" stop-opacity="0"/>
</linearGradient>
<linearGradient id="paint7_linear_862_35202" x1="60.6667" y1="75" x2="60.6667" y2="142.333" gradientUnits="userSpaceOnUse">
<stop stop-color="#40FFC6"/>
<stop offset="0.492708" stop-color="#4AE6FF"/>
<stop offset="1" stop-color="#2595FF"/>
</linearGradient>
<radialGradient id="paint8_radial_862_35202" cx="0" cy="0" r="1" gradientUnits="userSpaceOnUse" gradientTransform="translate(46.8393 88.2262) rotate(62.6223) scale(75.8263)">
<stop offset="0.462106" stop-color="#2AA8FF" stop-opacity="0"/>
<stop offset="0.894737" stop-color="#2595FF"/>
</radialGradient>
<radialGradient id="paint9_radial_862_35202" cx="0" cy="0" r="1" gradientUnits="userSpaceOnUse" gradientTransform="translate(44.4345 89.4286) rotate(56.6259) scale(90.7081)">
<stop stop-color="#6EFFCE"/>
<stop offset="0.570035" stop-color="#A5FFFD" stop-opacity="0"/>
</radialGradient>
<radialGradient id="paint10_radial_862_35202" cx="0" cy="0" r="1" gradientUnits="userSpaceOnUse" gradientTransform="translate(54.0536 95.4405) rotate(63.4349) scale(48.3586)">
<stop offset="0.672439" stop-color="#9EC6FD" stop-opacity="0"/>
<stop offset="1" stop-color="white"/>
</radialGradient>
<radialGradient id="paint11_radial_862_35202" cx="0" cy="0" r="1" gradientUnits="userSpaceOnUse" gradientTransform="translate(57.027 101.387) rotate(62.0378) scale(41.7221)">
<stop offset="0.961458" stop-color="#2AA8FF" stop-opacity="0"/>
<stop offset="1" stop-color="#058AFF" stop-opacity="0.26"/>
</radialGradient>
<linearGradient id="paint12_linear_862_35202" x1="46.9058" y1="86.3073" x2="61.9669" y2="103.034" gradientUnits="userSpaceOnUse">
<stop stop-color="white" stop-opacity="0.86"/>
<stop offset="1" stop-color="#D9D9D9" stop-opacity="0"/>
</linearGradient>
<linearGradient id="paint13_linear_862_35202" x1="58.8466" y1="88.1948" x2="49.7475" y2="98.6587" gradientUnits="userSpaceOnUse">
<stop stop-color="white"/>
<stop offset="1" stop-color="#FFFFE9" stop-opacity="0.38"/>
</linearGradient>
<linearGradient id="paint14_linear_862_35202" x1="480.5" y1="6" x2="480.5" y2="115" gradientUnits="userSpaceOnUse">
<stop stop-color="#40FFC6"/>
<stop offset="0.492708" stop-color="#4AE6FF"/>
<stop offset="1" stop-color="#2595FF"/>
</linearGradient>
<radialGradient id="paint15_radial_862_35202" cx="0" cy="0" r="1" gradientUnits="userSpaceOnUse" gradientTransform="translate(458.116 27.4107) rotate(62.6223) scale(122.749)">
<stop offset="0.462106" stop-color="#2AA8FF" stop-opacity="0"/>
<stop offset="0.894737" stop-color="#2595FF"/>
</radialGradient>
<radialGradient id="paint16_radial_862_35202" cx="0" cy="0" r="1" gradientUnits="userSpaceOnUse" gradientTransform="translate(454.223 29.3572) rotate(56.6259) scale(146.839)">
<stop stop-color="#6EFFCE"/>
<stop offset="0.570035" stop-color="#A5FFFD" stop-opacity="0"/>
</radialGradient>
<radialGradient id="paint17_radial_862_35202" cx="0" cy="0" r="1" gradientUnits="userSpaceOnUse" gradientTransform="translate(469.795 39.0893) rotate(63.4349) scale(78.2834)">
<stop offset="0.672439" stop-color="#9EC6FD" stop-opacity="0"/>
<stop offset="1" stop-color="white"/>
</radialGradient>
<radialGradient id="paint18_radial_862_35202" cx="0" cy="0" r="1" gradientUnits="userSpaceOnUse" gradientTransform="translate(474.608 48.7162) rotate(62.0378) scale(67.5403)">
<stop offset="0.961458" stop-color="#2AA8FF" stop-opacity="0"/>
<stop offset="1" stop-color="#058AFF" stop-opacity="0.26"/>
</radialGradient>
<linearGradient id="paint19_linear_862_35202" x1="458.221" y1="24.3026" x2="482.602" y2="51.3804" gradientUnits="userSpaceOnUse">
<stop stop-color="white" stop-opacity="0.86"/>
<stop offset="1" stop-color="#D9D9D9" stop-opacity="0"/>
</linearGradient>
<linearGradient id="paint20_linear_862_35202" x1="477.555" y1="27.358" x2="462.825" y2="44.2972" gradientUnits="userSpaceOnUse">
<stop stop-color="white"/>
<stop offset="1" stop-color="#FFFFE9" stop-opacity="0.38"/>
</linearGradient>
<clipPath id="clip0_862_35202">
<rect width="535" height="422" fill="white"/>
</clipPath>
<clipPath id="clip1_862_35202">
<rect width="399" height="160" fill="white" transform="matrix(0.866025 0.5 -0.866025 0.5 172.564 43)"/>
</clipPath>
</defs>
</svg>
