<svg width="766" height="615" viewBox="0 0 766 615" fill="none" xmlns="http://www.w3.org/2000/svg">
<g clip-path="url(#clip0_862_27475)">
<rect x="1.73205" width="243.268" height="275.814" rx="29" transform="matrix(0.866025 -0.5 0.866025 0.5 134.847 264.3)" stroke="#D8ECFF" stroke-width="2"/>
<rect x="1.73205" width="298.96" height="275.814" rx="29" transform="matrix(0.866025 -0.5 0.866025 0.5 181.319 434.011)" stroke="#D8ECFF" stroke-width="2"/>
<rect x="1.73205" width="268.832" height="287.318" rx="29" transform="matrix(0.866025 -0.5 0.866025 0.5 14.6207 385.436)" stroke="#D8ECFF" stroke-width="2"/>
<circle r="3.69433" transform="matrix(0.866025 -0.5 0.866025 0.5 49.4808 364.309)" fill="#23FBB2"/>
<ellipse rx="5.91092" ry="5.91093" transform="matrix(0.866025 -0.5 0.866025 0.5 393.094 310.742)" fill="#23FBB2"/>
<ellipse rx="5.91093" ry="5.91092" transform="matrix(0.866025 -0.5 0.866025 0.5 330.238 489.906)" fill="#23FBB2"/>
<ellipse rx="3.69434" ry="3.69433" transform="matrix(0.866025 -0.5 0.866025 0.5 420.61 183.285)" fill="#3A98FF"/>
<ellipse rx="5.91093" ry="5.91092" transform="matrix(0.866025 -0.5 0.866025 0.5 489.076 533.141)" fill="#3A98FF"/>
<ellipse rx="5.91092" ry="5.91093" transform="matrix(0.866025 -0.5 0.866025 0.5 222.887 212.473)" fill="#3A98FF"/>
<path d="M382.804 39.4479L320.079 2.95312L257 39.4479L257.354 322.548L319.961 359.043L383.041 322.548L382.804 39.4479Z" fill="url(#paint0_linear_862_27475)"/>
<path d="M464.193 173.259L401.468 136.883L338.389 173.259L338.625 369.67L401.35 406.047L464.429 369.67L464.193 173.259Z" fill="url(#paint1_linear_862_27475)"/>
<path d="M546.763 307.076L484.038 270.699L420.959 307.076L421.195 417.623L483.92 454L547 417.623L546.763 307.076Z" fill="url(#paint2_linear_862_27475)"/>
<path d="M257 36.3767L319.607 72.8715L382.804 36.3767L320.079 0L257 36.3767Z" fill="white"/>
<path d="M260.78 36.3749L320.08 2.24219L379.025 36.3749L319.607 70.6256L260.78 36.3749Z" fill="url(#paint3_linear_862_27475)"/>
<path d="M257 36.375L257.354 319.594L319.961 355.97L319.607 72.8698L257 36.375Z" fill="#D8ECFF"/>
<path d="M259.127 318.528L258.891 39.6797L317.836 73.9305L318.072 352.661L259.127 318.528Z" fill="url(#paint4_linear_862_27475)"/>
<path d="M319.607 72.8698L319.962 355.97L383.041 319.594L382.805 36.375L319.607 72.8698Z" fill="white"/>
<path d="M321.615 73.9305L380.915 39.6797L381.151 318.528L321.851 352.661L321.615 73.9305Z" fill="#EFF1FE"/>
<path d="M338.389 170.307L400.996 206.684L464.193 170.307L401.468 133.812L338.389 170.307Z" fill="white"/>
<path d="M342.169 170.305L401.468 136.055L460.413 170.305L400.996 204.556L342.169 170.305Z" fill="url(#paint5_linear_862_27475)"/>
<path d="M338.389 170.305L338.625 366.597L401.35 403.092L400.996 206.681L338.389 170.305Z" fill="#D8ECFF"/>
<path d="M340.516 365.533L340.279 173.492L399.224 207.743L399.461 399.784L340.516 365.533Z" fill="url(#paint6_linear_862_27475)"/>
<path d="M400.996 206.681L401.35 403.092L464.43 366.597L464.194 170.305L400.996 206.681Z" fill="white"/>
<path d="M402.887 207.743L462.304 173.492L462.54 365.533L403.241 399.784L402.887 207.743Z" fill="#EFF1FE"/>
<path d="M420.959 302.588L483.684 338.964L546.763 302.588L484.038 266.211L420.959 302.588Z" fill="white"/>
<path d="M424.739 302.587L484.039 268.336L542.984 302.587L483.684 336.838L424.739 302.587Z" fill="url(#paint7_linear_862_27475)"/>
<path d="M420.959 302.586L421.195 414.669L483.92 451.045L483.684 338.963L420.959 302.586Z" fill="#D8ECFF"/>
<path d="M423.086 413.485L422.85 305.891L481.795 340.023L482.031 447.736L423.086 413.485Z" fill="url(#paint8_linear_862_27475)"/>
<path d="M483.684 338.963L483.92 451.045L546.999 414.669L546.763 302.586L483.684 338.963Z" fill="white"/>
<path d="M485.574 340.024L544.874 305.773L545.11 413.486L485.81 447.737L485.574 340.024Z" fill="#EFF1FE"/>
<g filter="url(#filter0_b_862_27475)">
<rect width="286" height="285" rx="10" transform="matrix(0.866025 0.5 -2.20305e-08 1 50.124 32)" fill="white" fill-opacity="0.58"/>
</g>
<g filter="url(#filter1_b_862_27475)">
<rect width="282" height="285" rx="10" transform="matrix(0.866025 0.5 -2.20305e-08 1 40.0625 37.5)" fill="white" fill-opacity="0.58"/>
</g>
<rect width="278" height="285" rx="10" transform="matrix(0.866025 0.5 -2.20305e-08 1 28 42)" fill="white"/>
<path fill-rule="evenodd" clip-rule="evenodd" d="M221.334 229.633C215.525 234.891 208.277 241.454 195.33 243.409C179.966 245.729 165.506 235.867 151.609 224.583C148.92 222.399 146.272 220.185 143.644 217.987C132.487 208.657 121.704 199.64 109.783 194.669C89.6088 186.257 78.3191 197.871 74.0373 207.128C73.2012 208.935 71.0403 209.049 68.9763 207.152C66.9124 205.256 65.7261 202.068 66.5312 200.228C71.2896 189.354 84.3699 174.986 108.71 185.135C122.171 190.748 134.62 201.182 145.859 210.601C148.354 212.692 150.788 214.732 153.161 216.659C166.436 227.438 178.39 235.326 191.172 233.396C202.904 231.624 209.348 225.811 215.147 220.58C215.971 219.838 216.781 219.106 217.592 218.4C220.817 215.592 224.192 213.059 228.483 212.245C231.989 211.58 235.982 212.08 240.822 214.18C242.958 215.106 244.74 218.145 244.779 220.653C244.819 223.16 243.095 224.168 240.969 223.328C237.667 222.023 235.066 221.801 232.795 222.232C229.589 222.84 226.848 224.776 223.686 227.53C222.922 228.195 222.142 228.901 221.334 229.633Z" fill="#48FAC9"/>
<path d="M120.072 195.156C120.072 203.164 114.45 206.41 107.514 202.406C100.579 198.402 94.957 188.664 94.957 180.656C94.957 172.648 100.579 169.402 107.514 173.406C114.45 177.41 120.072 187.148 120.072 195.156Z" fill="white"/>
<path fill-rule="evenodd" clip-rule="evenodd" d="M107.514 196.406C111.58 198.753 114.876 196.851 114.876 192.156C114.876 187.462 111.58 181.753 107.514 179.406C103.449 177.059 100.153 178.962 100.153 183.656C100.153 188.351 103.449 194.059 107.514 196.406ZM107.514 202.406C114.45 206.41 120.072 203.164 120.072 195.156C120.072 187.148 114.45 177.41 107.514 173.406C100.579 169.402 94.957 172.648 94.957 180.656C94.957 188.664 100.579 198.402 107.514 202.406Z" fill="#48FAC9"/>
<path d="M231.79 230.656C231.79 238.664 226.167 241.91 219.232 237.906C212.297 233.902 206.675 224.164 206.675 216.156C206.675 208.148 212.297 204.902 219.232 208.906C226.167 212.91 231.79 222.648 231.79 230.656Z" fill="white"/>
<path fill-rule="evenodd" clip-rule="evenodd" d="M219.232 231.906C223.298 234.253 226.593 232.351 226.593 227.656C226.593 222.962 223.298 217.253 219.232 214.906C215.167 212.559 211.871 214.462 211.871 219.156C211.871 223.851 215.167 229.559 219.232 231.906ZM219.232 237.906C226.167 241.91 231.79 238.664 231.79 230.656C231.79 222.648 226.167 212.91 219.232 208.906C212.297 204.902 206.675 208.148 206.675 216.156C206.675 224.164 212.297 233.902 219.232 237.906Z" fill="#48FAC9"/>
<rect width="141" height="12" rx="6" transform="matrix(0.866025 0.5 -2.20305e-08 1 41.8564 236)" fill="#3A98FF"/>
<rect width="66" height="8" rx="4" transform="matrix(0.866025 0.5 -2.20305e-08 1 41.8564 261)" fill="#CFE8FF"/>
<rect width="30" height="8" rx="4" transform="matrix(0.866025 0.5 -2.20305e-08 1 102.478 296)" fill="#CFE8FF"/>
<rect width="121" height="8" rx="4" transform="matrix(0.866025 0.5 -2.20305e-08 1 41.8564 278)" fill="#CFE8FF"/>
<rect width="88" height="8" rx="4" transform="matrix(0.866025 0.5 -2.20305e-08 1 41.8564 295)" fill="#CFE8FF"/>
<path fill-rule="evenodd" clip-rule="evenodd" d="M54.4139 88.25C55.1313 88.6642 55.7129 89.6716 55.7129 90.5L55.7129 228.5C55.7129 229.328 55.1313 229.664 54.4138 229.25C53.6964 228.836 53.1148 227.828 53.1148 227L53.1148 89C53.1148 88.1716 53.6964 87.8358 54.4139 88.25Z" fill="#CFE8FF"/>
<path fill-rule="evenodd" clip-rule="evenodd" d="M247.104 325C247.104 325.828 246.523 326.164 245.805 325.75L43.1555 208.75C42.4381 208.336 41.8565 207.328 41.8565 206.5C41.8565 205.672 42.4381 205.336 43.1555 205.75L245.805 322.75C246.523 323.164 247.104 324.172 247.104 325Z" fill="#CFE8FF"/>
</g>
<defs>
<filter id="filter0_b_862_27475" x="47.124" y="32.8164" width="253.684" height="426.367" filterUnits="userSpaceOnUse" color-interpolation-filters="sRGB">
<feFlood flood-opacity="0" result="BackgroundImageFix"/>
<feGaussianBlur in="BackgroundImage" stdDeviation="1.5"/>
<feComposite in2="SourceAlpha" operator="in" result="effect1_backgroundBlur_862_27475"/>
<feBlend mode="normal" in="SourceGraphic" in2="effect1_backgroundBlur_862_27475" result="shape"/>
</filter>
<filter id="filter1_b_862_27475" x="37.0625" y="38.3164" width="250.219" height="424.367" filterUnits="userSpaceOnUse" color-interpolation-filters="sRGB">
<feFlood flood-opacity="0" result="BackgroundImageFix"/>
<feGaussianBlur in="BackgroundImage" stdDeviation="1.5"/>
<feComposite in2="SourceAlpha" operator="in" result="effect1_backgroundBlur_862_27475"/>
<feBlend mode="normal" in="SourceGraphic" in2="effect1_backgroundBlur_862_27475" result="shape"/>
</filter>
<linearGradient id="paint0_linear_862_27475" x1="320.047" y1="358.997" x2="320.047" y2="2.98843" gradientUnits="userSpaceOnUse">
<stop stop-color="#CDE8FF"/>
<stop offset="1" stop-color="#FDFEFF"/>
</linearGradient>
<linearGradient id="paint1_linear_862_27475" x1="401.419" y1="406.077" x2="401.419" y2="136.865" gradientUnits="userSpaceOnUse">
<stop stop-color="#CDE8FF"/>
<stop offset="1" stop-color="#E4E7FB"/>
</linearGradient>
<linearGradient id="paint2_linear_862_27475" x1="483.967" y1="454.035" x2="483.967" y2="270.752" gradientUnits="userSpaceOnUse">
<stop stop-color="#CDE8FF"/>
<stop offset="1" stop-color="#E4E7FB"/>
</linearGradient>
<linearGradient id="paint3_linear_862_27475" x1="378.99" y1="36.413" x2="260.763" y2="36.413" gradientUnits="userSpaceOnUse">
<stop stop-color="#F1F4FE"/>
<stop offset="0.5797" stop-color="#F7F9FE"/>
<stop offset="1" stop-color="white"/>
</linearGradient>
<linearGradient id="paint4_linear_862_27475" x1="288.483" y1="39.6927" x2="288.483" y2="352.713" gradientUnits="userSpaceOnUse">
<stop stop-color="#3A98FF"/>
<stop offset="1" stop-color="#4AE6FF"/>
</linearGradient>
<linearGradient id="paint5_linear_862_27475" x1="460.39" y1="170.268" x2="342.124" y2="170.268" gradientUnits="userSpaceOnUse">
<stop stop-color="#F1F4FE"/>
<stop offset="0.5797" stop-color="#F7F9FE"/>
<stop offset="1" stop-color="white"/>
</linearGradient>
<linearGradient id="paint6_linear_862_27475" x1="369.889" y1="173.53" x2="369.889" y2="399.774" gradientUnits="userSpaceOnUse">
<stop stop-color="#48FAC9"/>
<stop offset="1" stop-color="#437FEC"/>
</linearGradient>
<linearGradient id="paint7_linear_862_27475" x1="542.95" y1="302.565" x2="424.684" y2="302.565" gradientUnits="userSpaceOnUse">
<stop stop-color="#F1F4FE"/>
<stop offset="0.5797" stop-color="#F7F9FE"/>
<stop offset="1" stop-color="white"/>
</linearGradient>
<linearGradient id="paint8_linear_862_27475" x1="452.433" y1="305.856" x2="452.433" y2="447.738" gradientUnits="userSpaceOnUse">
<stop stop-color="#5FEFC0"/>
<stop offset="1" stop-color="#25D8FF"/>
</linearGradient>
<clipPath id="clip0_862_27475">
<rect width="766" height="615" fill="white"/>
</clipPath>
</defs>
</svg>
