<svg width="535" height="422" viewBox="0 0 535 422" fill="none" xmlns="http://www.w3.org/2000/svg">
<g clip-path="url(#clip0_862_32189)">
<g filter="url(#filter0_f_862_32189)">
<path d="M9.63897 254.554C-2.62966 247.6 -2.62966 235.866 9.63897 228.912L244.496 230.215C256.764 223.262 276.92 223.262 289.627 230.215L525.798 228.912C538.066 235.866 538.066 247.6 525.798 254.554L290.941 389.723C278.673 396.677 258.517 396.677 245.81 389.723L9.63897 254.554Z" fill="#C5D9EF"/>
</g>
<path d="M535 210.157C535 210.592 535 211.027 535 211.027C535 211.461 535 211.461 535 211.896C535 212.331 535 212.765 534.562 212.765C534.562 213.2 534.562 213.2 534.124 213.634C534.124 214.069 533.686 214.069 533.686 214.504C533.248 214.938 533.248 215.373 532.809 215.808C532.371 216.242 532.371 216.677 531.933 217.111C531.933 217.111 531.933 217.111 531.495 217.546C531.057 217.981 530.619 218.415 530.18 218.85C529.742 219.285 529.304 219.285 529.304 219.719C528.866 220.154 528.866 220.154 528.428 220.588C527.99 221.023 527.551 221.023 527.113 221.458C526.675 221.892 526.237 221.892 525.799 222.327L290.942 357.061L290.504 387.05L525.361 251.447C525.361 251.447 525.799 251.447 525.799 251.012C526.237 251.012 526.237 250.578 526.675 250.578C527.113 250.143 527.551 250.143 527.99 249.708C528.428 249.274 528.428 249.274 528.866 248.839C529.304 248.404 529.742 248.404 529.742 247.97C530.18 247.535 530.619 247.101 531.057 246.666C531.057 246.666 531.057 246.666 531.057 246.231C531.057 245.797 531.495 245.797 531.495 245.362L531.933 244.927C531.933 244.927 531.933 244.927 531.933 244.493C532.371 244.058 532.371 243.624 532.809 243.624C532.809 243.624 532.809 243.624 532.809 243.189C532.809 242.754 533.248 242.754 533.248 242.32C533.248 242.32 533.248 241.885 533.686 241.885C533.686 241.885 533.686 241.885 533.686 241.45C533.686 241.016 533.686 241.016 534.124 240.581V240.147C534.124 239.712 534.124 239.277 534.124 239.277C534.124 238.843 534.124 238.843 534.124 238.408C534.124 238.408 534.124 238.408 534.124 237.973L534.562 207.984C535 209.288 535 209.723 535 210.157Z" fill="#E1EDFF"/>
<path d="M9.63964 221.89C3.50532 218.413 0.438165 213.632 0.438165 208.852L0 238.841C0 243.622 3.06716 248.402 9.20147 251.879L245.811 387.048L246.249 357.059L9.63964 221.89Z" fill="#EFF1FE"/>
<path d="M525.798 196.248C538.066 203.202 538.066 214.937 525.798 221.891L290.941 357.059C278.673 364.013 258.517 364.013 245.81 357.059L9.63897 221.891C-2.62966 214.937 -2.62966 203.202 9.63897 196.248L244.496 60.6452C256.764 53.6912 276.92 53.6912 289.627 60.6452L525.798 196.248Z" fill="white"/>
<path d="M9.63897 211.461C-2.62966 204.507 -2.62966 192.772 9.63897 185.818L244.496 50.2155C256.764 43.2615 276.92 43.2615 289.627 50.2155L525.798 185.818C538.066 192.772 538.066 204.507 525.798 211.461L290.941 347.064C278.673 354.018 258.517 354.018 245.81 347.064L9.63897 211.461Z" fill="url(#paint0_linear_862_32189)"/>
<path d="M268.595 333.589C261.146 333.589 254.136 331.851 248.439 328.809L42.0634 210.591C36.8054 207.548 33.7383 203.202 33.7383 198.856C33.7383 194.51 36.8054 190.163 42.0634 187.121L247.125 68.4684C252.383 65.426 259.394 63.6875 266.842 63.6875C274.291 63.6875 281.302 65.426 286.998 68.4684L493.812 186.686C499.07 189.729 502.137 194.075 502.137 198.421C502.137 202.767 499.07 207.114 493.812 210.156L288.312 328.809C283.054 331.851 276.044 333.589 268.595 333.589ZM267.28 64.9914C259.832 64.9914 253.259 66.7299 248.001 69.7722L42.5016 187.99C37.6818 191.033 34.6146 194.51 34.6146 198.856C34.6146 202.767 37.2436 206.679 42.5016 209.721L249.316 327.939C254.574 330.982 261.146 332.72 268.595 332.72C276.044 332.72 282.616 330.982 287.874 327.939L493.374 209.721C498.194 206.679 501.261 203.202 501.261 198.856C501.261 194.944 498.632 191.033 493.374 187.99L286.56 69.3376C281.302 66.2952 274.291 64.9914 267.28 64.9914Z" fill="url(#paint1_linear_862_32189)"/>
<path d="M287.875 388.786C288.751 388.351 292.694 386.178 293.571 385.743V355.754C292.694 356.189 289.189 357.927 288.313 358.362C287.875 358.362 287.875 358.796 287.436 358.796C286.56 359.231 285.684 359.666 284.807 359.666C284.369 359.666 284.369 360.1 283.931 360.1C283.493 360.1 283.055 360.535 282.178 360.535C281.74 360.535 281.302 360.97 280.864 360.97C280.426 360.97 279.549 361.404 279.111 361.404C278.673 361.404 278.235 361.404 277.797 361.839C276.482 361.839 275.606 362.274 274.291 362.274C273.853 362.274 273.415 362.274 272.977 362.274C272.101 362.274 271.662 362.274 270.786 362.274C270.348 362.274 269.91 362.274 269.472 362.274C269.033 362.274 268.157 362.274 267.719 362.274C267.281 362.274 266.843 362.274 266.404 362.274C265.966 362.274 265.528 362.274 264.652 362.274C264.214 362.274 263.775 362.274 263.337 362.274C262.899 362.274 262.461 362.274 261.585 362.274C261.146 362.274 260.708 362.274 260.27 361.839C259.832 361.839 258.956 361.839 258.517 361.404C258.079 361.404 257.641 361.404 257.203 360.97C256.327 360.97 255.888 360.535 255.012 360.535C254.574 360.535 254.136 360.535 254.136 360.1C252.821 359.666 251.945 359.231 250.63 358.796C250.192 358.796 249.754 358.362 248.878 357.927C248.44 357.927 248.44 357.493 248.001 357.493C247.125 357.058 242.744 354.45 241.867 354.016V384.439C242.744 384.874 246.687 387.047 247.125 387.482C247.563 387.482 247.563 387.916 248.001 387.916C248.44 387.916 248.878 388.351 249.316 388.351C250.63 388.786 251.507 389.22 252.821 389.655C252.821 389.655 252.821 389.655 253.259 389.655C253.698 389.655 253.698 389.655 254.136 390.089C254.574 390.089 255.45 390.524 255.888 390.524H256.327C256.765 390.524 256.765 390.524 257.203 390.524C257.641 390.524 258.079 390.524 258.956 390.959C259.394 390.959 259.394 390.959 259.832 390.959C260.27 390.959 260.27 390.959 260.708 390.959C261.146 390.959 261.585 390.959 262.023 390.959C262.461 390.959 262.461 390.959 262.899 390.959C263.337 390.959 263.337 390.959 263.775 390.959C264.214 390.959 264.652 390.959 265.09 390.959C265.528 390.959 265.528 390.959 265.966 390.959C265.966 390.959 266.404 390.959 266.843 390.959C267.281 390.959 268.157 390.959 268.595 390.959C269.033 390.959 269.033 390.959 269.472 390.959H269.91C270.786 390.959 271.224 390.959 272.101 390.959C272.539 390.959 272.539 390.959 272.977 390.959C272.977 390.959 272.977 390.959 273.415 390.959C274.73 390.959 275.606 390.524 276.92 390.524C277.359 390.524 277.797 390.524 277.797 390.089C278.235 390.089 279.111 389.655 279.549 389.655C279.988 389.655 280.426 389.22 280.864 389.22C281.302 389.22 281.74 388.786 282.617 388.786H283.055H283.493C284.369 388.351 285.246 388.351 286.122 387.916C286.998 389.22 287.436 389.22 287.875 388.786Z" fill="url(#paint2_linear_862_32189)"/>
<path d="M361.191 134.784C389.883 151.349 393.795 153.608 405.533 160.385C415.966 166.408 418.575 170.926 421.183 173.938C423.792 178.456 426.4 181.468 426.4 185.986C426.4 190.504 425.096 194.268 421.183 198.033C418.575 201.045 414.662 204.81 405.533 211.587C393.795 218.364 391.187 219.869 361.191 237.188C331.194 254.506 328.586 256.012 316.848 262.789C306.415 268.813 298.59 270.319 293.373 271.825C285.548 273.331 280.331 274.836 272.506 274.836C264.681 274.836 258.16 274.083 251.639 271.825C246.422 270.319 239.901 268.06 228.163 262.789C216.426 256.012 213.817 254.506 183.821 237.188C153.825 219.869 151.216 218.364 139.479 211.587C129.045 205.563 126.437 201.045 123.829 198.033C121.22 193.515 118.612 190.504 118.612 185.986C118.612 181.468 119.916 177.703 123.829 173.938C126.437 170.926 130.349 167.161 139.479 160.385C151.216 153.608 153.825 152.102 183.821 134.784C213.817 117.465 216.426 115.959 228.163 109.182C238.597 103.159 246.422 101.653 251.639 100.147C259.464 98.6408 264.681 97.1349 272.506 97.1349C280.331 97.1349 286.852 97.8879 293.373 100.147C298.59 101.653 305.111 103.912 316.848 109.182C328.586 115.959 332.498 118.218 361.191 134.784ZM380.753 123.489C350.757 106.171 348.149 104.665 336.411 97.8879C324.673 91.1111 314.24 88.0992 305.111 85.8403C295.981 83.5814 285.548 82.0754 272.506 82.0754C259.464 82.0754 251.639 83.5814 239.901 85.8403C230.772 88.0992 221.643 91.8641 208.601 97.8879C196.863 104.665 192.95 106.924 164.258 123.489C134.262 140.807 131.654 142.313 119.916 149.09C108.178 155.867 102.962 161.891 99.049 167.161C95.1364 172.432 92.528 178.456 92.528 185.986C92.528 193.515 95.1364 198.033 99.049 204.81C102.962 210.081 109.482 215.352 119.916 222.881C131.654 229.658 135.566 231.917 164.258 248.482C192.95 265.048 196.863 267.307 208.601 274.083C220.338 280.86 230.772 283.872 239.901 286.131C249.03 288.39 259.464 289.896 272.506 289.896C285.548 289.896 293.373 288.39 305.111 286.131C314.24 283.872 323.369 280.107 336.411 274.083C348.149 267.307 352.061 265.048 380.753 248.482C409.445 231.917 413.358 229.658 425.096 222.881C436.833 216.105 442.05 210.081 445.963 204.81C449.875 199.539 452.484 193.515 452.484 185.986C452.484 178.456 449.875 173.938 445.963 167.161C442.05 161.891 435.529 156.62 425.096 149.09C413.358 142.313 410.75 140.807 380.753 123.489Z" fill="url(#paint3_linear_862_32189)"/>
<path d="M328.586 153.608C297.285 135.536 247.726 135.537 216.426 153.608C185.125 171.679 185.125 200.292 216.426 218.364C247.726 236.435 297.285 236.435 328.586 218.364C359.886 200.292 359.886 171.679 328.586 153.608ZM235.989 207.069C216.426 195.774 215.122 176.95 235.989 164.902C255.551 153.608 288.156 152.855 309.023 164.902C328.586 176.197 329.89 195.021 309.023 207.069C289.46 218.364 255.551 218.364 235.989 207.069Z" fill="url(#paint4_linear_862_32189)"/>
<path d="M374.232 193.515C381.435 197.674 393.113 197.674 400.316 193.515C407.519 189.357 407.519 182.615 400.316 178.456C393.113 174.297 381.435 174.297 374.232 178.456C367.03 182.615 367.03 189.357 374.232 193.515Z" fill="url(#paint5_linear_862_32189)"/>
<path d="M361.191 117.791C389.883 134.357 393.795 136.616 405.533 143.392C414.046 148.307 417.349 152.22 419.694 155.13C420.672 156.343 421.545 157.585 422.323 158.846C424.501 162.38 426.4 165.138 426.4 168.993C426.4 173.511 425.096 177.276 421.183 181.041C418.575 184.053 414.662 187.818 405.533 194.595C393.795 201.371 391.187 202.877 361.191 220.196C331.194 237.514 328.586 239.02 316.848 245.797C308.335 250.712 301.559 252.619 296.519 253.973C294.417 254.537 292.266 255.042 290.082 255.49C283.961 256.748 279.183 257.844 272.506 257.844C264.681 257.844 258.16 257.091 251.639 254.832C246.422 253.326 239.901 251.068 228.163 245.797C216.426 239.02 213.817 237.514 183.821 220.196C153.825 202.877 151.216 201.371 139.479 194.595C130.966 189.68 127.662 185.767 125.318 182.857C124.34 181.644 123.466 180.402 122.689 179.141C120.511 175.607 118.612 172.849 118.612 168.993C118.612 164.476 119.916 160.711 123.829 156.946C126.437 153.934 130.349 150.169 139.479 143.392C151.216 136.616 153.825 135.11 183.821 117.791C213.817 100.473 216.426 98.967 228.163 92.1903C236.676 87.2753 243.453 85.368 248.493 84.0144C250.595 83.4499 252.746 82.9455 254.93 82.4968C261.05 81.2393 265.828 80.1427 272.506 80.1427C280.331 80.1427 286.852 80.8957 293.373 83.1546C298.59 84.6605 305.111 86.9195 316.848 92.1903C328.586 98.967 332.498 101.226 361.191 117.791ZM380.753 106.497C350.757 89.1784 348.149 87.6724 336.411 80.8957C324.673 74.1189 314.24 71.107 305.111 68.8481C295.981 66.5892 285.548 65.0832 272.506 65.0832C259.464 65.0832 251.639 66.5892 239.901 68.8481C230.772 71.107 221.643 74.8719 208.601 80.8957C196.863 87.6724 192.95 89.9313 164.258 106.497C134.262 123.815 131.654 125.321 119.916 132.098C108.178 138.875 102.962 144.898 99.049 150.169C95.1364 155.44 92.528 161.464 92.528 168.994C92.528 176.523 95.1364 181.041 99.049 187.818C102.962 193.089 109.482 198.359 119.916 205.889C131.654 212.666 135.566 214.925 164.258 231.49C192.95 248.056 196.863 250.315 208.601 257.091C220.338 263.868 230.772 266.88 239.901 269.139C249.03 271.398 259.464 272.904 272.506 272.904C285.548 272.904 293.373 271.398 305.111 269.139C314.24 266.88 323.369 263.115 336.411 257.091C348.149 250.315 352.061 248.056 380.753 231.49C409.445 214.925 413.358 212.666 425.096 205.889C436.833 199.112 442.05 193.089 445.963 187.818C449.875 182.547 452.484 176.523 452.484 168.993C452.484 161.464 449.875 156.946 445.963 150.169C442.05 144.898 435.529 139.628 425.096 132.098C413.358 125.321 410.75 123.815 380.753 106.497Z" fill="url(#paint6_radial_862_32189)"/>
<path d="M328.586 136.616C297.285 118.544 247.726 118.544 216.426 136.616C185.125 154.687 185.125 183.3 216.426 201.371C247.726 219.443 297.285 219.443 328.586 201.371C359.886 183.3 359.886 154.687 328.586 136.616ZM235.989 190.077C216.426 178.782 215.122 159.958 235.989 147.91C255.551 136.616 288.156 135.863 309.023 147.91C328.586 159.205 329.89 178.029 309.023 190.077C289.46 201.371 255.551 201.371 235.989 190.077Z" fill="url(#paint7_radial_862_32189)"/>
<path d="M374.232 176.523C381.435 180.682 393.113 180.682 400.316 176.523C407.519 172.365 407.519 165.622 400.316 161.464C393.113 157.305 381.435 157.305 374.232 161.464C367.03 165.622 367.03 172.365 374.232 176.523Z" fill="url(#paint8_radial_862_32189)"/>
<circle cx="41" cy="38" r="34" fill="url(#paint9_linear_862_32189)"/>
<circle cx="41" cy="38" r="34" fill="url(#paint10_radial_862_32189)"/>
<circle cx="41" cy="38" r="34" fill="url(#paint11_radial_862_32189)"/>
<circle cx="41" cy="38" r="34" fill="url(#paint12_radial_862_32189)"/>
<circle cx="41" cy="38" r="34" fill="url(#paint13_radial_862_32189)"/>
<g style="mix-blend-mode:lighten">
<ellipse cx="39.1569" cy="29.402" rx="21.0964" ry="18.8434" fill="url(#paint14_linear_862_32189)"/>
</g>
<g style="mix-blend-mode:lighten">
<path d="M26.8243 27.5502C25.4592 27.126 24.6779 25.6617 25.3214 24.3852C26.441 22.1642 28.0808 20.2307 30.1163 18.7584C32.1518 17.286 34.5013 16.3338 36.9612 15.9657C38.3749 15.7541 39.5212 16.9545 39.4967 18.3838C39.4722 19.813 38.277 20.92 36.8854 21.2467C35.5479 21.5608 34.2771 22.1375 33.1501 22.9526C32.0232 23.7678 31.0777 24.7943 30.3608 25.9662C29.6148 27.1856 28.1894 27.9743 26.8243 27.5502Z" fill="url(#paint15_linear_862_32189)"/>
</g>
<circle cx="413.5" cy="71.5" r="53.5" fill="url(#paint16_linear_862_32189)"/>
<circle cx="413.5" cy="71.5" r="53.5" fill="url(#paint17_radial_862_32189)"/>
<circle cx="413.5" cy="71.5" r="53.5" fill="url(#paint18_radial_862_32189)"/>
<circle cx="413.5" cy="71.5" r="53.5" fill="url(#paint19_radial_862_32189)"/>
<circle cx="413.5" cy="71.5" r="53.5" fill="url(#paint20_radial_862_32189)"/>
<g style="mix-blend-mode:lighten">
<ellipse cx="410.6" cy="57.967" rx="33.1958" ry="29.6506" fill="url(#paint21_linear_862_32189)"/>
</g>
<g style="mix-blend-mode:lighten">
<path d="M391.193 55.0532C389.045 54.3858 387.816 52.0815 388.828 50.073C390.59 46.5781 393.17 43.5358 396.373 41.219C399.576 38.9022 403.273 37.4038 407.144 36.8246C409.368 36.4917 411.172 38.3806 411.133 40.6296C411.095 42.8785 409.214 44.6203 407.025 45.1345C404.92 45.6287 402.92 46.5362 401.147 47.8188C399.374 49.1014 397.886 50.7166 396.758 52.5608C395.584 54.4796 393.341 55.7206 391.193 55.0532Z" fill="url(#paint22_linear_862_32189)"/>
</g>
</g>
<defs>
<filter id="filter0_f_862_32189" x="-10.5625" y="214" width="556.562" height="191.938" filterUnits="userSpaceOnUse" color-interpolation-filters="sRGB">
<feFlood flood-opacity="0" result="BackgroundImageFix"/>
<feBlend mode="normal" in="SourceGraphic" in2="BackgroundImageFix" result="shape"/>
<feGaussianBlur stdDeviation="5.5" result="effect1_foregroundBlur_862_32189"/>
</filter>
<linearGradient id="paint0_linear_862_32189" x1="267.84" y1="352.232" x2="267.84" y2="44.9975" gradientUnits="userSpaceOnUse">
<stop stop-color="#F1F4FE"/>
<stop offset="0.5797" stop-color="#F7F9FE"/>
<stop offset="1" stop-color="white"/>
</linearGradient>
<linearGradient id="paint1_linear_862_32189" x1="33.3838" y1="198.619" x2="502.289" y2="198.619" gradientUnits="userSpaceOnUse">
<stop stop-color="#3A98FF"/>
<stop offset="0.6277" stop-color="#00F0FF"/>
<stop offset="1" stop-color="#00FFAC"/>
</linearGradient>
<linearGradient id="paint2_linear_862_32189" x1="242.582" y1="373.936" x2="293.464" y2="373.936" gradientUnits="userSpaceOnUse">
<stop stop-color="#EFF1FE"/>
<stop offset="1" stop-color="#E4E7FB"/>
</linearGradient>
<linearGradient id="paint3_linear_862_32189" x1="380.753" y1="123.489" x2="272.506" y2="310.979" gradientUnits="userSpaceOnUse">
<stop stop-color="#C3DAFD" stop-opacity="0.76"/>
<stop offset="1" stop-color="#E1EDFF" stop-opacity="0"/>
</linearGradient>
<linearGradient id="paint4_linear_862_32189" x1="380.753" y1="123.489" x2="272.506" y2="310.979" gradientUnits="userSpaceOnUse">
<stop stop-color="#C3DAFD" stop-opacity="0.76"/>
<stop offset="1" stop-color="#E1EDFF" stop-opacity="0"/>
</linearGradient>
<linearGradient id="paint5_linear_862_32189" x1="380.753" y1="123.489" x2="272.506" y2="310.979" gradientUnits="userSpaceOnUse">
<stop stop-color="#C3DAFD" stop-opacity="0.76"/>
<stop offset="1" stop-color="#E1EDFF" stop-opacity="0"/>
</linearGradient>
<radialGradient id="paint6_radial_862_32189" cx="0" cy="0" r="1" gradientUnits="userSpaceOnUse" gradientTransform="translate(488.959 174.047) rotate(30) scale(577.294 499.951)">
<stop stop-color="#F9ED32"/>
<stop offset="0.36" stop-color="#EE2A7B"/>
<stop offset="0.44" stop-color="#D22A8A"/>
<stop offset="0.6" stop-color="#8B2AB2"/>
<stop offset="0.83" stop-color="#1B2AF0"/>
<stop offset="0.88" stop-color="#002AFF"/>
</radialGradient>
<radialGradient id="paint7_radial_862_32189" cx="0" cy="0" r="1" gradientUnits="userSpaceOnUse" gradientTransform="translate(488.959 174.047) rotate(30) scale(577.294 499.951)">
<stop stop-color="#F9ED32"/>
<stop offset="0.36" stop-color="#EE2A7B"/>
<stop offset="0.44" stop-color="#D22A8A"/>
<stop offset="0.6" stop-color="#8B2AB2"/>
<stop offset="0.83" stop-color="#1B2AF0"/>
<stop offset="0.88" stop-color="#002AFF"/>
</radialGradient>
<radialGradient id="paint8_radial_862_32189" cx="0" cy="0" r="1" gradientUnits="userSpaceOnUse" gradientTransform="translate(488.959 174.047) rotate(30) scale(577.294 499.951)">
<stop stop-color="#F9ED32"/>
<stop offset="0.36" stop-color="#EE2A7B"/>
<stop offset="0.44" stop-color="#D22A8A"/>
<stop offset="0.6" stop-color="#8B2AB2"/>
<stop offset="0.83" stop-color="#1B2AF0"/>
<stop offset="0.88" stop-color="#002AFF"/>
</radialGradient>
<linearGradient id="paint9_linear_862_32189" x1="41" y1="4" x2="41" y2="72" gradientUnits="userSpaceOnUse">
<stop stop-color="#40FFC6"/>
<stop offset="0.492708" stop-color="#4AE6FF"/>
<stop offset="1" stop-color="#2595FF"/>
</linearGradient>
<radialGradient id="paint10_radial_862_32189" cx="0" cy="0" r="1" gradientUnits="userSpaceOnUse" gradientTransform="translate(27.0357 17.3571) rotate(62.6223) scale(76.5771)">
<stop offset="0.462106" stop-color="#2AA8FF" stop-opacity="0"/>
<stop offset="0.894737" stop-color="#2595FF"/>
</radialGradient>
<radialGradient id="paint11_radial_862_32189" cx="0" cy="0" r="1" gradientUnits="userSpaceOnUse" gradientTransform="translate(24.6071 18.5714) rotate(56.6259) scale(91.6062)">
<stop stop-color="#6EFFCE"/>
<stop offset="0.570035" stop-color="#A5FFFD" stop-opacity="0"/>
</radialGradient>
<radialGradient id="paint12_radial_862_32189" cx="0" cy="0" r="1" gradientUnits="userSpaceOnUse" gradientTransform="translate(34.3214 24.6429) rotate(63.4349) scale(48.8374)">
<stop offset="0.672439" stop-color="#9EC6FD" stop-opacity="0"/>
<stop offset="1" stop-color="white"/>
</radialGradient>
<radialGradient id="paint13_radial_862_32189" cx="0" cy="0" r="1" gradientUnits="userSpaceOnUse" gradientTransform="translate(37.3243 30.6486) rotate(62.0378) scale(42.1352)">
<stop offset="0.961458" stop-color="#2AA8FF" stop-opacity="0"/>
<stop offset="1" stop-color="#058AFF" stop-opacity="0.26"/>
</radialGradient>
<linearGradient id="paint14_linear_862_32189" x1="27.1019" y1="15.4214" x2="42.312" y2="32.314" gradientUnits="userSpaceOnUse">
<stop stop-color="white" stop-opacity="0.86"/>
<stop offset="1" stop-color="#D9D9D9" stop-opacity="0"/>
</linearGradient>
<linearGradient id="paint15_linear_862_32189" x1="39.1636" y1="17.3275" x2="29.9744" y2="27.8951" gradientUnits="userSpaceOnUse">
<stop stop-color="white"/>
<stop offset="1" stop-color="#FFFFE9" stop-opacity="0.38"/>
</linearGradient>
<linearGradient id="paint16_linear_862_32189" x1="413.5" y1="18" x2="413.5" y2="125" gradientUnits="userSpaceOnUse">
<stop stop-color="#40FFC6"/>
<stop offset="0.492708" stop-color="#4AE6FF"/>
<stop offset="1" stop-color="#2595FF"/>
</linearGradient>
<radialGradient id="paint17_radial_862_32189" cx="0" cy="0" r="1" gradientUnits="userSpaceOnUse" gradientTransform="translate(391.527 39.0179) rotate(62.6223) scale(120.496)">
<stop offset="0.462106" stop-color="#2AA8FF" stop-opacity="0"/>
<stop offset="0.894737" stop-color="#2595FF"/>
</radialGradient>
<radialGradient id="paint18_radial_862_32189" cx="0" cy="0" r="1" gradientUnits="userSpaceOnUse" gradientTransform="translate(387.705 40.9286) rotate(56.6259) scale(144.145)">
<stop stop-color="#6EFFCE"/>
<stop offset="0.570035" stop-color="#A5FFFD" stop-opacity="0"/>
</radialGradient>
<radialGradient id="paint19_radial_862_32189" cx="0" cy="0" r="1" gradientUnits="userSpaceOnUse" gradientTransform="translate(402.991 50.4821) rotate(63.4349) scale(76.847)">
<stop offset="0.672439" stop-color="#9EC6FD" stop-opacity="0"/>
<stop offset="1" stop-color="white"/>
</radialGradient>
<radialGradient id="paint20_radial_862_32189" cx="0" cy="0" r="1" gradientUnits="userSpaceOnUse" gradientTransform="translate(407.716 59.9324) rotate(62.0378) scale(66.301)">
<stop offset="0.961458" stop-color="#2AA8FF" stop-opacity="0"/>
<stop offset="1" stop-color="#058AFF" stop-opacity="0.26"/>
</radialGradient>
<linearGradient id="paint21_linear_862_32189" x1="391.631" y1="35.9682" x2="415.565" y2="62.5491" gradientUnits="userSpaceOnUse">
<stop stop-color="white" stop-opacity="0.86"/>
<stop offset="1" stop-color="#D9D9D9" stop-opacity="0"/>
</linearGradient>
<linearGradient id="paint22_linear_862_32189" x1="410.609" y1="38.9675" x2="396.15" y2="55.5959" gradientUnits="userSpaceOnUse">
<stop stop-color="white"/>
<stop offset="1" stop-color="#FFFFE9" stop-opacity="0.38"/>
</linearGradient>
<clipPath id="clip0_862_32189">
<rect width="535" height="422" fill="white"/>
</clipPath>
</defs>
</svg>
