<svg width="766" height="615" viewBox="0 0 766 615" fill="none" xmlns="http://www.w3.org/2000/svg">
<g clip-path="url(#clip0_862_26404)">
<rect x="1.73205" width="243.268" height="275.814" rx="29" transform="matrix(0.866025 -0.5 0.866025 0.5 134.847 264.3)" stroke="#D8ECFF" stroke-width="2"/>
<rect x="1.73205" width="298.96" height="275.814" rx="29" transform="matrix(0.866025 -0.5 0.866025 0.5 181.319 434.011)" stroke="#D8ECFF" stroke-width="2"/>
<rect x="1.73205" width="268.832" height="264.592" rx="29" transform="matrix(0.866025 -0.5 0.866025 0.5 34.3024 396.8)" stroke="#D8ECFF" stroke-width="2"/>
<circle r="3.69433" transform="matrix(0.866025 -0.5 0.866025 0.5 72.3988 375.693)" fill="#23FBB2"/>
<ellipse rx="5.91092" ry="5.91093" transform="matrix(0.866025 -0.5 0.866025 0.5 393.094 310.742)" fill="#23FBB2"/>
<ellipse rx="9.28449" ry="9.28448" transform="matrix(0.866025 -0.5 0.866025 0.5 336.081 487.285)" fill="#23FBB2"/>
<ellipse rx="3.69434" ry="3.69433" transform="matrix(0.866025 -0.5 0.866025 0.5 420.61 183.285)" fill="#3A98FF"/>
<ellipse rx="5.91093" ry="5.91092" transform="matrix(0.866025 -0.5 0.866025 0.5 489.076 533.141)" fill="#3A98FF"/>
<g clip-path="url(#clip1_862_26404)">
<g filter="url(#filter0_f_862_26404)">
<path d="M691.539 293.704C693.899 266.43 677.191 238.689 641.08 217.853C573.445 178.858 464.358 178.825 397.241 217.786C363.775 237.217 347.101 262.651 347.117 288.102C347.117 288.018 347.101 287.951 347.101 287.868L347 323.017C346.933 348.702 363.892 374.437 397.877 394.035L508.371 329.89L493.103 386.945L493.002 422.094C494.023 422.194 495.028 422.278 496.049 422.362C501.356 422.796 506.596 423.03 511.82 423.214C512.59 423.231 513.377 423.315 514.13 423.331C514.197 423.331 514.281 423.348 514.348 423.348C520.374 423.499 526.334 423.482 532.227 423.281C532.612 423.265 532.964 423.231 533.349 423.214C535.71 423.131 538.003 422.897 540.33 422.746C543.779 422.529 547.244 422.395 550.626 422.061C551.195 422.01 551.748 421.877 552.317 421.826C556.687 421.375 560.939 420.706 565.208 420.037C567.267 419.72 569.41 419.536 571.453 419.168C571.821 419.101 572.156 419 572.524 418.934C574.081 418.649 575.588 418.265 577.128 417.947C581.363 417.077 585.566 416.158 589.667 415.088C591.676 414.569 593.635 413.967 595.61 413.399C597.686 412.797 599.829 412.278 601.872 411.626C602.926 411.292 603.897 410.823 604.952 410.456C609.439 408.951 613.792 407.262 618.077 405.489C620.053 404.67 622.079 403.917 624.004 403.048C630.098 400.305 636.024 397.362 641.683 394.085C642.386 393.667 643.089 393.266 643.792 392.848C645.366 391.894 646.722 390.874 648.229 389.888C650.338 388.517 652.498 387.162 654.457 385.741C656.164 384.503 657.688 383.216 659.278 381.945C661.086 380.49 662.928 379.052 664.585 377.564C664.92 377.263 665.322 376.978 665.657 376.677C667.866 374.637 669.926 372.547 671.851 370.424C672.253 369.989 672.604 369.537 672.989 369.102C674.144 367.798 675.316 366.511 676.354 365.173C677.175 364.119 677.911 363.066 678.665 362.012C678.933 361.628 679.234 361.26 679.502 360.875C680.875 358.902 682.164 356.896 683.302 354.872C683.536 354.437 683.687 354.003 683.905 353.568C684.859 351.795 685.646 349.989 686.416 348.2C686.868 347.147 687.487 346.127 687.889 345.073C688.023 344.722 688.073 344.354 688.191 344.003C688.793 342.297 689.212 340.575 689.664 338.853C689.965 337.682 690.434 336.545 690.668 335.375C690.735 335.074 690.718 334.756 690.769 334.438C691.104 332.632 691.221 330.826 691.388 329.02C691.489 327.833 691.756 326.662 691.79 325.475C691.807 324.974 691.807 324.472 691.807 323.953L691.907 288.804C691.941 290.476 691.689 292.082 691.539 293.704Z" fill="#C7DEF3"/>
</g>
<path d="M691.539 290.704C693.899 263.43 677.191 235.689 641.08 214.853C573.445 175.858 464.358 175.825 397.241 214.786C363.775 234.217 347.101 259.651 347.117 285.102C347.117 285.018 347.101 284.951 347.101 284.868L347 320.017C346.933 345.702 363.892 371.437 397.877 391.035L508.371 326.89L493.103 383.945L493.002 419.094C494.023 419.194 495.028 419.278 496.049 419.362C501.356 419.796 506.596 420.03 511.82 420.214C512.59 420.231 513.377 420.315 514.13 420.331C514.197 420.331 514.281 420.348 514.348 420.348C520.374 420.499 526.334 420.482 532.227 420.281C532.612 420.265 532.964 420.231 533.349 420.214C535.71 420.131 538.003 419.897 540.33 419.746C543.779 419.529 547.244 419.395 550.626 419.061C551.195 419.01 551.748 418.877 552.317 418.826C556.687 418.375 560.939 417.706 565.208 417.037C567.267 416.72 569.41 416.536 571.453 416.168C571.821 416.101 572.156 416 572.524 415.934C574.081 415.649 575.588 415.265 577.128 414.947C581.363 414.077 585.566 413.158 589.667 412.088C591.676 411.569 593.635 410.967 595.61 410.399C597.686 409.797 599.829 409.278 601.872 408.626C602.926 408.292 603.897 407.823 604.952 407.456C609.439 405.951 613.792 404.262 618.077 402.489C620.053 401.67 622.079 400.917 624.004 400.048C630.098 397.305 636.024 394.362 641.683 391.085C642.386 390.667 643.089 390.266 643.792 389.848C645.366 388.894 646.722 387.874 648.229 386.888C650.338 385.517 652.498 384.162 654.457 382.741C656.164 381.503 657.688 380.216 659.278 378.945C661.086 377.49 662.928 376.052 664.585 374.564C664.92 374.263 665.322 373.978 665.657 373.677C667.866 371.637 669.926 369.547 671.851 367.424C672.253 366.989 672.604 366.537 672.989 366.102C674.144 364.798 675.316 363.511 676.354 362.173C677.175 361.119 677.911 360.066 678.665 359.012C678.933 358.628 679.234 358.26 679.502 357.875C680.875 355.902 682.164 353.896 683.302 351.872C683.536 351.437 683.687 351.003 683.905 350.568C684.859 348.795 685.646 346.989 686.416 345.2C686.868 344.147 687.487 343.127 687.889 342.073C688.023 341.722 688.073 341.354 688.191 341.003C688.793 339.297 689.212 337.575 689.664 335.853C689.965 334.682 690.434 333.545 690.668 332.375C690.735 332.074 690.718 331.756 690.769 331.438C691.104 329.632 691.221 327.826 691.388 326.02C691.489 324.833 691.756 323.662 691.79 322.475C691.807 321.974 691.807 321.472 691.807 320.953L691.907 285.804C691.941 287.476 691.689 289.082 691.539 290.704Z" fill="white"/>
<path d="M519.503 285.844L519.403 320.993L397.877 391.526L397.977 356.393L519.503 285.844Z" fill="url(#paint0_linear_862_26404)"/>
<path d="M641.064 212.678C708.632 251.639 708.933 314.815 641.8 353.777C601.537 377.154 549.555 386.953 493.086 381.769L519.471 283.177L397.945 353.71C330.376 314.748 330.075 251.573 397.208 212.611C464.358 173.649 573.445 173.682 641.064 212.678Z" fill="url(#paint1_linear_862_26404)"/>
<path d="M347.101 285.375L347 320.524C346.933 346.209 363.892 371.927 397.877 391.525L397.978 356.376C363.993 336.795 347.034 311.06 347.101 285.375Z" fill="#DFF0FF"/>
<path d="M691.522 291.396C691.355 293.202 691.238 295.025 690.903 296.831C690.635 298.302 690.183 299.774 689.798 301.245C689.346 302.967 688.927 304.69 688.325 306.395C687.823 307.8 687.153 309.205 686.55 310.593C685.763 312.382 684.993 314.188 684.039 315.96C682.716 318.418 681.293 320.86 679.636 323.251C679.368 323.636 679.067 324.02 678.799 324.405C677.075 326.796 675.183 329.171 673.124 331.495C672.739 331.93 672.387 332.381 672.002 332.816C669.775 335.241 667.331 337.615 664.736 339.939C663.079 341.428 661.237 342.866 659.429 344.321C657.839 345.591 656.315 346.879 654.608 348.116C652.649 349.538 650.506 350.892 648.396 352.263C646.237 353.668 644.178 355.123 641.851 356.461C636.209 359.738 630.265 362.681 624.172 365.424C622.246 366.293 620.221 367.046 618.245 367.865C613.959 369.637 609.59 371.326 605.12 372.831C602.039 373.868 598.942 374.855 595.778 375.774C593.803 376.343 591.844 376.928 589.835 377.463C585.717 378.534 581.531 379.47 577.296 380.323C575.755 380.64 574.249 381.025 572.692 381.309C570.298 381.744 567.82 382.028 565.409 382.396C561.14 383.065 556.871 383.734 552.485 384.185C548.551 384.604 544.549 384.854 540.548 385.105C538.188 385.256 535.877 385.49 533.5 385.573C527.172 385.807 520.777 385.874 514.298 385.707C513.494 385.69 512.674 385.607 511.87 385.573C505.676 385.373 499.448 385.038 493.153 384.47L493.053 419.619C494.074 419.719 495.078 419.803 496.1 419.887C501.407 420.321 506.647 420.555 511.87 420.739C512.64 420.756 513.427 420.84 514.18 420.856C514.247 420.856 514.331 420.873 514.398 420.873C520.425 421.024 526.385 420.99 532.278 420.79C532.663 420.773 533.015 420.739 533.4 420.723C535.76 420.639 538.054 420.405 540.381 420.255C543.829 420.037 547.295 419.903 550.677 419.569C551.246 419.502 551.798 419.385 552.368 419.335C556.737 418.883 560.989 418.214 565.259 417.546C567.318 417.228 569.461 417.044 571.503 416.676C571.871 416.609 572.206 416.509 572.575 416.442C574.131 416.158 575.638 415.773 577.178 415.455C581.414 414.586 585.616 413.666 589.718 412.596C591.727 412.078 593.685 411.492 595.661 410.907C597.737 410.305 599.88 409.787 601.922 409.134C602.977 408.8 603.948 408.332 605.003 407.964C609.489 406.459 613.842 404.77 618.128 402.998C620.103 402.178 622.129 401.426 624.054 400.556C630.148 397.814 636.075 394.871 641.733 391.593C642.437 391.175 643.14 390.774 643.843 390.356C645.416 389.403 646.773 388.383 648.279 387.396C650.389 386.025 652.548 384.67 654.507 383.249C656.215 382.012 657.738 380.724 659.329 379.453C661.137 377.998 662.978 376.56 664.636 375.072C664.97 374.771 665.372 374.487 665.707 374.186C667.917 372.146 669.976 370.056 671.901 367.932C672.303 367.497 672.655 367.046 673.04 366.611C674.195 365.307 675.367 364.019 676.405 362.681C677.225 361.628 677.962 360.574 678.715 359.521C678.983 359.136 679.284 358.768 679.552 358.384C680.925 356.41 682.214 354.404 683.353 352.381C683.587 351.946 683.738 351.511 683.955 351.076C684.91 349.304 685.696 347.498 686.466 345.709C686.918 344.655 687.538 343.635 687.94 342.582C688.074 342.23 688.124 341.862 688.241 341.511C688.844 339.806 689.262 338.083 689.714 336.361C690.016 335.19 690.484 334.053 690.719 332.883C690.786 332.582 690.769 332.264 690.819 331.946C691.154 330.14 691.271 328.335 691.439 326.529C691.539 325.341 691.807 324.171 691.84 322.984C691.857 322.482 691.857 321.98 691.857 321.462L691.958 286.312C691.941 288.035 691.673 289.724 691.522 291.396Z" fill="url(#paint2_linear_862_26404)"/>
<path d="M520.341 187.329L520.24 223.315L664.719 196.142L664.819 160.156L520.341 187.329Z" fill="white"/>
<path d="M627.285 123.302C643.959 132.917 656.934 144.956 664.836 158.869L520.341 186.042L520.843 273.999C478.839 274.016 440.735 264.166 413.112 248.231C385.505 232.311 368.362 210.322 368.228 186.042C367.876 137.448 435.729 98.0684 519.788 98.0684C561.709 98.0684 599.594 107.349 627.285 123.302Z" fill="url(#paint3_linear_862_26404)"/>
<path d="M664.819 158.869L664.719 194.855L520.24 222.044L520.341 186.042L664.819 158.869Z" fill="url(#paint4_linear_862_26404)"/>
<path d="M520.826 274C516.993 274 513.243 273.833 509.476 273.665C507.065 273.565 504.654 273.448 502.277 273.281C499.665 273.097 497.104 272.863 494.542 272.595C492.132 272.344 489.738 272.094 487.377 271.793C484.983 271.475 482.622 271.107 480.262 270.739C477.65 270.321 475.039 269.886 472.477 269.385C470.368 268.983 468.292 268.532 466.233 268.064C463.085 267.361 460.005 266.609 456.958 265.789C455.2 265.321 453.442 264.836 451.718 264.335C446.109 262.679 440.635 260.89 435.445 258.85C432.783 257.813 430.272 256.659 427.727 255.522C426.455 254.954 425.099 254.435 423.86 253.85C420.127 252.078 416.544 250.188 413.129 248.232C399.317 240.272 388.134 230.791 380.383 220.273C372.631 209.755 368.312 198.183 368.245 186.043L368.145 222.028C368.278 246.308 385.422 268.281 413.028 284.217C416.444 286.19 420.026 288.063 423.76 289.852C424.998 290.437 426.354 290.956 427.627 291.524C430.105 292.628 432.549 293.765 435.144 294.785C435.211 294.819 435.278 294.819 435.345 294.852C440.534 296.892 446.009 298.681 451.617 300.337C452.27 300.537 452.856 300.788 453.526 300.972C454.614 301.273 455.769 301.491 456.874 301.792C459.921 302.611 463.001 303.363 466.132 304.066C467.254 304.317 468.308 304.651 469.447 304.885C470.401 305.086 471.406 305.203 472.377 305.387C474.938 305.888 477.55 306.323 480.161 306.741C481.584 306.975 482.957 307.276 484.397 307.477C485.335 307.611 486.322 307.678 487.277 307.795C489.654 308.096 492.048 308.347 494.459 308.597C495.999 308.748 497.489 308.982 499.046 309.116C500.084 309.199 501.155 309.216 502.193 309.283C504.57 309.45 506.981 309.567 509.392 309.668C510.932 309.734 512.422 309.868 513.979 309.918C516.222 309.969 518.483 310.002 520.743 310.002L520.826 274Z" fill="url(#paint5_linear_862_26404)"/>
<path d="M609.171 48.0361C632.893 61.7146 647.073 80.8109 645.784 101.663C643.424 141.377 585.816 172.33 517.176 170.774C489.721 170.189 466.617 165.24 444.971 155.407L521.563 98.8705L525.849 27C558.461 27.7358 587.708 35.6619 609.171 48.0361Z" fill="url(#paint6_linear_862_26404)"/>
<path d="M645.851 99.1543C645.851 99.9904 645.818 100.826 645.768 101.679C645.634 103.92 645.265 106.127 644.797 108.301C644.546 109.422 644.177 110.525 643.842 111.646C643.474 112.883 643.123 114.12 642.637 115.324C642.152 116.562 641.515 117.782 640.913 119.003C640.377 120.073 639.891 121.16 639.272 122.214C638.284 123.903 637.112 125.541 635.924 127.18C635.438 127.832 635.053 128.501 634.534 129.153C632.475 131.728 630.131 134.22 627.586 136.611C626.682 137.464 625.695 138.283 624.74 139.12C623.451 140.24 622.129 141.344 620.739 142.414C619.634 143.267 618.462 144.086 617.274 144.905C615.817 145.925 614.327 146.929 612.77 147.898C611.749 148.534 610.694 149.136 609.64 149.738C605.973 151.862 602.14 153.902 598.055 155.741C597.82 155.841 597.619 155.958 597.402 156.059C593.099 157.965 588.529 159.654 583.808 161.226C582.418 161.694 581.029 162.145 579.622 162.58C577.697 163.166 575.722 163.717 573.729 164.252C571.988 164.721 570.247 165.155 568.472 165.573C566.43 166.058 564.354 166.493 562.261 166.911C560.571 167.246 558.88 167.563 557.155 167.864C553.188 168.55 549.153 169.118 545.035 169.553C544.281 169.637 543.545 169.771 542.774 169.838C538.472 170.256 534.102 170.557 529.666 170.707C525.531 170.858 521.345 170.891 517.127 170.791C510.899 170.657 504.956 170.222 499.146 169.637C497.924 169.52 496.719 169.386 495.53 169.236C489.972 168.567 484.548 167.747 479.291 166.644C478.621 166.51 478.002 166.309 477.349 166.175C472.929 165.189 468.643 164.002 464.408 162.681C462.148 161.978 459.921 161.209 457.694 160.406C453.392 158.868 449.106 157.313 444.921 155.423L444.82 191.409C447.415 192.579 450.027 193.7 452.672 194.736C454.279 195.372 455.97 195.823 457.594 196.392C459.804 197.178 462.047 197.964 464.307 198.649C465.462 199.017 466.584 199.485 467.756 199.82C470.87 200.706 474.051 201.425 477.248 202.144C477.901 202.295 478.538 202.479 479.19 202.629C479.408 202.679 479.609 202.729 479.81 202.78C483.51 203.549 487.293 204.201 491.161 204.753C492.55 204.953 494.007 205.054 495.43 205.221C496.618 205.371 497.824 205.505 499.046 205.622C500.352 205.756 501.59 205.94 502.913 206.057C507.216 206.408 511.619 206.642 516.122 206.759C516.423 206.759 516.725 206.776 517.026 206.776C521.195 206.876 525.313 206.843 529.398 206.709C529.465 206.709 529.515 206.709 529.582 206.692C534.019 206.542 538.388 206.241 542.691 205.823C542.841 205.806 542.992 205.806 543.143 205.79C543.762 205.723 544.331 205.606 544.934 205.539C549.052 205.087 553.104 204.519 557.072 203.85C557.674 203.749 558.327 203.699 558.93 203.599C560.035 203.398 561.073 203.131 562.161 202.913C564.254 202.495 566.33 202.061 568.372 201.592C570.147 201.174 571.905 200.723 573.646 200.271C575.638 199.736 577.597 199.184 579.539 198.599C580.376 198.348 581.246 198.148 582.067 197.88C582.636 197.696 583.138 197.445 583.707 197.261C588.428 195.69 592.999 194.001 597.301 192.078C597.519 191.977 597.72 191.86 597.937 191.777C602.039 189.92 605.89 187.897 609.556 185.757C610.058 185.472 610.627 185.238 611.113 184.954C611.665 184.62 612.134 184.252 612.67 183.917C614.227 182.947 615.717 181.944 617.173 180.924C618.345 180.105 619.517 179.302 620.622 178.449C622.028 177.379 623.334 176.259 624.64 175.138C625.36 174.52 626.163 173.951 626.833 173.332C627.067 173.115 627.235 172.864 627.469 172.647C630.014 170.239 632.375 167.764 634.417 165.172C634.467 165.105 634.551 165.038 634.618 164.955C635.053 164.403 635.371 163.801 635.773 163.232C636.978 161.594 638.15 159.938 639.138 158.233C639.255 158.015 639.439 157.831 639.557 157.614C640.025 156.778 640.343 155.892 640.762 155.039C641.365 153.818 642.001 152.597 642.486 151.36C642.587 151.109 642.754 150.858 642.855 150.591C643.206 149.638 643.407 148.651 643.692 147.681C644.027 146.577 644.412 145.474 644.646 144.337C644.696 144.086 644.813 143.852 644.864 143.601C645.249 141.661 645.517 139.688 645.634 137.715C645.667 137.263 645.684 136.829 645.701 136.377C645.717 135.993 645.717 135.591 645.717 135.207L645.851 99.1543Z" fill="url(#paint7_linear_862_26404)"/>
</g>
<path d="M134.234 164.409C134.234 159.697 137.542 157.787 141.623 160.143L278.167 238.976C282.248 241.332 285.556 247.062 285.556 251.774L285.556 363.237C285.556 367.949 282.248 369.859 278.167 367.503L141.623 288.669C137.542 286.313 134.234 280.583 134.234 275.871L134.234 164.409Z" fill="url(#paint8_linear_862_26404)" fill-opacity="0.29"/>
<path d="M124 169.469C124 164.757 127.308 162.847 131.389 165.203L267.933 244.037C272.013 246.393 275.321 252.123 275.321 256.835L275.321 368.297C275.321 373.009 272.013 374.919 267.933 372.563L131.389 293.73C127.308 291.374 124 285.644 124 280.932L124 169.469Z" fill="#3A98FF"/>
<path d="M202.707 345.591C202.707 347.455 201.397 348.21 199.782 347.278C198.168 346.345 196.858 344.079 196.858 342.215C196.858 340.351 198.168 339.596 199.782 340.528C201.397 341.46 202.707 343.727 202.707 345.591Z" fill="#3A98FF"/>
<path d="M202.707 362.466C202.707 364.33 201.397 365.085 199.782 364.153C198.168 363.22 196.858 360.954 196.858 359.09C196.858 357.226 198.168 356.471 199.782 357.403C201.397 358.335 202.707 360.602 202.707 362.466Z" fill="#3A98FF"/>
<path d="M202.707 379.339C202.707 381.203 201.397 381.958 199.782 381.026C198.168 380.093 196.858 377.827 196.858 375.963C196.858 374.099 198.168 373.344 199.782 374.276C201.397 375.208 202.707 377.475 202.707 379.339Z" fill="#3A98FF"/>
<path d="M202.707 396.214C202.707 398.078 201.397 398.833 199.782 397.901C198.168 396.968 196.858 394.702 196.858 392.838C196.858 390.974 198.168 390.219 199.782 391.151C201.397 392.083 202.707 394.35 202.707 396.214Z" fill="#3A98FF"/>
<path d="M202.707 413.089C202.707 414.953 201.397 415.708 199.782 414.776C198.168 413.843 196.858 411.577 196.858 409.713C196.858 407.849 198.168 407.094 199.782 408.026C201.397 408.958 202.707 411.225 202.707 413.089Z" fill="#3A98FF"/>
<path d="M205.387 434.604C205.387 438.177 202.878 439.624 199.782 437.837C196.687 436.05 194.178 431.705 194.178 428.133C194.178 424.56 196.687 423.113 199.782 424.9C202.878 426.687 205.387 431.032 205.387 434.604Z" fill="#3A98FF"/>
<path fill-rule="evenodd" clip-rule="evenodd" d="M256.457 259.398C257.179 260.648 257.179 261.998 256.457 262.415L233.38 275.738L213.789 264.427L188.934 289.432L163.414 255.77L136.02 271.586C135.298 272.003 134.129 271.328 133.407 270.078C132.686 268.829 132.686 267.478 133.407 267.062L162.907 250.03L188 283.13L211.911 259.077L231.85 270.589L253.845 257.89C254.566 257.473 255.736 258.149 256.457 259.398Z" fill="white"/>
<path d="M171.289 260.792C171.289 266.093 167.567 268.242 162.976 265.592C158.386 262.941 154.664 256.495 154.664 251.194C154.664 245.893 158.386 243.744 162.976 246.395C167.567 249.045 171.289 255.491 171.289 260.792Z" fill="#3A98FF"/>
<path fill-rule="evenodd" clip-rule="evenodd" d="M162.976 261.326C165.527 262.798 167.594 261.604 167.594 258.659C167.594 255.714 165.527 252.133 162.976 250.661C160.426 249.188 158.358 250.382 158.358 253.327C158.358 256.272 160.426 259.853 162.976 261.326ZM162.976 265.592C167.567 268.242 171.289 266.093 171.289 260.792C171.289 255.491 167.567 249.045 162.976 246.395C158.386 243.744 154.664 245.893 154.664 251.194C154.664 256.495 158.386 262.941 162.976 265.592Z" fill="white"/>
<path d="M221.532 267.191C221.532 272.492 217.81 274.641 213.22 271.99C208.629 269.34 204.907 262.894 204.907 257.592C204.907 252.291 208.629 250.143 213.22 252.793C217.81 255.444 221.532 261.89 221.532 267.191Z" fill="#3A98FF"/>
<path fill-rule="evenodd" clip-rule="evenodd" d="M213.22 267.724C215.77 269.197 217.838 268.003 217.838 265.058C217.838 262.113 215.77 258.532 213.22 257.059C210.669 255.587 208.602 256.78 208.602 259.725C208.602 262.67 210.669 266.252 213.22 267.724ZM213.22 271.99C217.81 274.641 221.532 272.492 221.532 267.191C221.532 261.89 217.81 255.444 213.22 252.793C208.629 250.143 204.907 252.291 204.907 257.592C204.907 262.894 208.629 269.34 213.22 271.99Z" fill="white"/>
<path d="M312.987 540.163C325.796 532.877 338.526 525.512 351.335 518.226C358.3 514.223 365.265 510.301 372.231 506.298C373.672 505.417 375.193 504.456 376.794 503.896C378.475 503.255 380.397 503.015 382.158 503.095C383.279 503.175 385.2 503.976 386.161 503.415C387.282 502.775 388.082 502.855 387.522 501.574C386.801 499.973 386.161 498.292 385.841 496.53C385.12 492.928 385.44 489.165 385.44 485.562C385.44 481.559 385.2 478.197 385.681 474.674C386.641 467.789 390.964 461.865 396.168 457.541C407.297 448.255 422.428 444.172 436.598 442.891C451.249 441.61 466.54 443.131 480.231 448.655C492.48 453.539 506.97 463.386 506.57 478.197C506.57 477.076 506.57 480.438 506.57 480.919C506.57 483.481 506.57 485.963 506.57 488.524C506.57 493.088 506.49 497.411 504.569 501.734C498.084 516.065 480.551 522.95 466.14 525.832C451.329 528.874 435.557 528.474 420.907 524.631C419.145 524.151 417.384 523.67 415.703 523.11C414.982 522.87 411.139 520.948 410.579 521.269C408.898 522.229 407.216 523.19 405.535 524.151C404.014 525.031 402.493 525.832 401.052 526.713C400.812 526.873 401.052 528.554 400.972 528.794C400.972 530.155 400.812 531.276 399.771 532.317C398.57 533.518 396.729 534.318 395.288 535.119C392.406 536.8 389.523 538.401 386.561 540.083C378.075 544.966 369.509 549.85 361.022 554.733C353.897 558.816 346.772 562.899 339.566 566.983C334.763 569.785 329.879 571.786 324.275 569.384C321.393 568.103 318.671 566.182 315.949 564.581C314.188 563.54 310.905 562.259 310.265 560.017C309.784 557.536 310.105 554.894 310.105 552.412C310.105 550.49 310.105 548.569 310.105 546.647C310.105 546.247 310.025 543.285 310.185 544.406C310.105 542.484 311.466 541.043 312.987 540.163Z" fill="#B7C0EB"/>
<path d="M481.832 497.093C461.817 508.541 429.553 508.381 409.698 496.772C389.924 485.164 390.084 466.43 410.098 454.981C430.113 443.533 462.377 443.693 482.152 455.302C502.007 466.91 501.846 485.644 481.832 497.093Z" fill="url(#paint9_linear_862_26404)"/>
<path d="M410.179 454.978C411.38 454.258 412.661 453.617 413.942 453.057C414.342 452.817 414.822 452.657 415.303 452.497C416.103 452.176 416.824 451.776 417.625 451.536C417.785 451.456 417.945 451.456 418.025 451.376C418.345 451.296 418.585 451.136 418.905 451.056C419.946 450.655 420.907 450.335 422.028 450.015C422.428 449.935 422.748 449.775 423.149 449.694C423.389 449.614 423.629 449.534 423.869 449.454C424.269 449.374 424.75 449.214 425.15 449.134C426.191 448.894 427.232 448.574 428.352 448.333C428.593 448.253 428.913 448.173 429.153 448.093C429.553 448.013 429.954 447.933 430.434 447.853C431.315 447.693 432.275 447.533 433.156 447.373C433.476 447.293 433.877 447.213 434.197 447.213C434.597 447.133 434.997 447.133 435.398 447.053C436.278 446.972 437.159 446.812 438.04 446.732C438.44 446.732 438.84 446.652 439.241 446.572C439.641 446.572 439.961 446.572 440.361 446.492C441.242 446.412 442.123 446.412 443.003 446.332C443.404 446.332 443.884 446.252 444.284 446.252C444.605 446.252 445.005 446.252 445.325 446.252C446.286 446.252 447.246 446.252 448.207 446.252C448.688 446.252 449.088 446.252 449.568 446.252C449.808 446.252 450.129 446.332 450.369 446.332C451.57 446.412 452.771 446.492 453.891 446.572C454.372 446.572 454.772 446.652 455.172 446.652C455.413 446.652 455.573 446.732 455.813 446.732C456.213 446.732 456.533 446.812 456.934 446.892C458.054 447.053 459.255 447.213 460.376 447.373C460.696 447.453 461.017 447.453 461.337 447.533C461.497 447.533 461.577 447.533 461.737 447.613C462.298 447.693 462.778 447.853 463.258 447.933C464.219 448.173 465.18 448.333 466.14 448.574C466.781 448.734 467.421 448.974 468.062 449.134C468.943 449.374 469.823 449.614 470.704 449.935C470.864 450.015 471.104 450.015 471.264 450.095C472.305 450.415 473.346 450.815 474.307 451.216C474.467 451.296 474.627 451.376 474.787 451.456C475.908 451.936 476.948 452.336 477.989 452.817C478.309 452.977 478.63 453.137 478.95 453.297C480.151 453.858 481.272 454.498 482.393 455.139C482.633 455.219 482.793 455.379 483.033 455.459C483.193 455.539 483.353 455.699 483.593 455.779C483.914 455.939 484.234 456.179 484.554 456.339C484.794 456.5 485.115 456.74 485.355 456.9C485.675 457.14 485.995 457.3 486.235 457.54C486.476 457.7 486.716 457.861 486.956 458.101C487.276 458.341 487.516 458.581 487.837 458.741C488.077 458.901 488.237 459.061 488.477 459.302C488.717 459.542 489.037 459.782 489.278 460.022C489.358 460.102 489.438 460.182 489.518 460.262C489.598 460.342 489.678 460.422 489.758 460.502C490.158 460.903 490.559 461.303 490.959 461.703C491.039 461.864 491.199 461.944 491.279 462.104C491.759 462.584 492.16 463.144 492.64 463.705C492.64 463.705 492.64 463.705 492.72 463.785C492.8 463.945 492.88 464.025 492.96 464.105C493.201 464.425 493.441 464.746 493.681 465.066C493.841 465.226 493.921 465.466 494.001 465.626C494.161 465.947 494.401 466.267 494.562 466.507C494.642 466.587 494.642 466.667 494.722 466.747C494.802 466.907 494.802 466.987 494.882 467.147C495.042 467.388 495.122 467.628 495.282 467.868C495.362 468.108 495.522 468.268 495.602 468.508C495.682 468.749 495.842 468.989 495.923 469.309C496.003 469.389 496.003 469.549 496.083 469.629C496.083 469.709 496.163 469.869 496.163 469.949C496.243 470.19 496.323 470.43 496.403 470.67C496.483 470.91 496.563 471.15 496.563 471.31C496.643 471.551 496.643 471.791 496.723 472.031C496.723 472.191 496.803 472.271 496.803 472.431C496.803 472.511 496.803 472.591 496.883 472.672C496.963 472.912 496.963 473.152 496.963 473.472C496.963 473.712 497.043 473.952 497.043 474.113C497.043 474.353 497.123 474.593 497.123 474.913C497.123 475.073 497.123 475.233 497.123 475.394C497.123 475.554 497.123 475.714 497.123 475.874V491.005C497.123 490.685 497.123 490.445 497.123 490.124C497.123 489.884 497.123 489.564 497.043 489.324C497.043 489.084 496.963 488.843 496.963 488.683C496.963 488.443 496.883 488.203 496.883 487.883C496.803 487.643 496.803 487.402 496.723 487.162C496.643 486.922 496.643 486.682 496.563 486.442C496.483 486.202 496.403 485.961 496.403 485.721C496.323 485.481 496.243 485.241 496.163 485.001C496.083 484.76 496.003 484.52 495.923 484.36C495.842 484.12 495.682 483.88 495.602 483.56C495.522 483.319 495.442 483.159 495.282 482.919C495.122 482.679 495.042 482.439 494.882 482.118C494.802 481.878 494.642 481.718 494.562 481.478C494.401 481.158 494.161 480.918 494.001 480.597C493.921 480.437 493.761 480.197 493.681 480.037C493.441 479.717 493.201 479.396 492.96 479.076C492.88 478.916 492.72 478.756 492.64 478.596C492.24 478.035 491.759 477.555 491.359 477.075C491.199 476.915 491.119 476.835 490.959 476.674C490.559 476.274 490.238 475.874 489.838 475.554C489.678 475.394 489.438 475.233 489.278 475.073C489.037 474.833 488.797 474.673 488.557 474.433C488.317 474.273 488.077 474.033 487.837 473.872C487.596 473.632 487.276 473.472 487.036 473.232C486.796 473.072 486.556 472.832 486.315 472.672C485.995 472.431 485.755 472.271 485.435 472.031C485.195 471.871 484.874 471.631 484.634 471.471C484.314 471.311 484.074 471.07 483.754 470.91C483.353 470.67 482.953 470.43 482.553 470.19C481.432 469.549 480.311 468.909 479.11 468.348C478.79 468.188 478.47 468.028 478.149 467.948C477.109 467.468 475.988 466.987 474.867 466.507C474.707 466.427 474.547 466.347 474.467 466.347C473.266 465.866 472.065 465.466 470.784 465.066C469.903 464.826 469.023 464.505 468.142 464.265C467.501 464.105 466.861 463.865 466.14 463.705C465.18 463.465 464.219 463.305 463.258 463.064C462.618 462.904 461.977 462.744 461.257 462.664C460.937 462.584 460.616 462.584 460.296 462.504C459.175 462.344 457.974 462.104 456.774 462.024C456.453 461.944 456.053 461.944 455.733 461.864C455.092 461.783 454.372 461.703 453.731 461.703C452.61 461.623 451.41 461.543 450.289 461.463C449.568 461.463 448.848 461.383 448.127 461.383C447.166 461.383 446.206 461.303 445.245 461.383C444.524 461.383 443.724 461.383 442.923 461.463C442.043 461.463 441.162 461.543 440.281 461.623C439.481 461.703 438.76 461.703 437.96 461.783C437.079 461.864 436.278 461.944 435.398 462.024C434.597 462.104 433.877 462.264 433.076 462.344C432.195 462.504 431.315 462.664 430.434 462.824C429.713 462.984 428.993 463.064 428.352 463.225C427.312 463.465 426.271 463.705 425.15 463.945C424.51 464.105 423.789 464.265 423.149 464.505C422.828 464.586 422.428 464.746 422.028 464.826C420.987 465.146 419.946 465.466 418.905 465.866C418.585 465.947 418.345 466.107 418.025 466.187C417.064 466.507 416.183 466.987 415.303 467.308C414.903 467.468 414.422 467.708 414.022 467.868C412.741 468.508 411.46 469.149 410.259 469.789C400.172 475.554 395.128 483.159 395.128 490.765V475.634C395.048 468.348 400.092 460.743 410.179 454.978Z" fill="url(#paint10_linear_862_26404)"/>
<path d="M385.441 475.957C385.441 476.758 385.521 477.638 385.602 478.439C385.602 478.599 385.682 478.759 385.682 478.919C385.762 479.56 385.922 480.28 386.082 480.921C386.082 481.081 386.162 481.241 386.162 481.401C386.402 482.202 386.642 482.922 386.882 483.643C386.963 483.803 387.043 483.963 387.123 484.123C387.363 484.764 387.683 485.404 388.003 486.045C388.083 486.205 388.163 486.365 388.243 486.525C388.644 487.325 389.124 488.046 389.604 488.767C389.685 488.927 389.845 489.087 389.925 489.247C390.325 489.807 390.725 490.368 391.206 490.928C391.446 491.248 391.686 491.489 391.926 491.809C392.326 492.289 392.807 492.769 393.207 493.25C393.447 493.49 393.768 493.81 394.008 494.05C394.728 494.691 395.449 495.411 396.249 496.052V511.183C395.609 510.703 394.968 510.142 394.408 509.582C394.248 509.422 394.168 509.342 394.008 509.182C393.687 508.861 393.447 508.621 393.207 508.301C392.727 507.821 392.326 507.34 391.926 506.94C391.686 506.62 391.446 506.38 391.206 506.059C391.046 505.899 390.885 505.739 390.725 505.499C390.405 505.099 390.165 504.698 389.925 504.298C389.765 504.138 389.685 503.978 389.604 503.818C389.124 503.177 388.724 502.537 388.404 501.816C388.324 501.736 388.324 501.656 388.243 501.576C388.163 501.416 388.083 501.256 388.003 501.096C387.683 500.455 387.363 499.815 387.123 499.174C387.043 499.014 386.963 498.854 386.882 498.694C386.882 498.614 386.802 498.534 386.802 498.374C386.562 497.733 386.322 497.093 386.162 496.372C386.082 496.212 386.082 496.052 386.002 495.892C385.922 495.572 385.842 495.251 385.762 494.931C385.682 494.611 385.682 494.211 385.602 493.89C385.602 493.73 385.521 493.57 385.521 493.41C385.441 492.769 385.361 492.129 385.361 491.408C385.361 491.248 385.361 491.088 385.361 490.928C385.361 486.045 385.361 481.001 385.441 475.957Z" fill="url(#paint11_linear_862_26404)"/>
<path d="M385.681 502.215V517.346H385.761V502.215C385.761 502.295 385.681 502.215 385.681 502.215Z" fill="#26262E"/>
<path d="M385.761 502.295V517.426C386.481 517.666 387.122 517.987 387.762 518.307V503.176C387.122 502.775 386.481 502.455 385.761 502.295Z" fill="#27272F"/>
<path d="M387.764 503.18V518.231L398.412 524.556L398.492 509.424L387.764 503.18Z" fill="#2A2A32"/>
<path d="M398.489 509.42V524.551C398.569 524.551 398.569 524.631 398.649 524.631V509.5C398.569 509.5 398.489 509.42 398.489 509.42Z" fill="#27272F"/>
<path d="M398.569 509.5V524.631C398.97 524.871 399.37 525.192 399.69 525.432V510.301C399.37 510.06 399.05 509.74 398.569 509.5Z" fill="#26262E"/>
<path d="M399.689 510.303V525.434C399.77 525.514 399.93 525.674 400.01 525.754V510.623C399.93 510.543 399.77 510.463 399.689 510.303Z" fill="#25252C"/>
<path d="M400.013 510.62V525.751L410.661 519.666V504.535L400.013 510.62Z" fill="url(#paint12_linear_862_26404)"/>
<path d="M385.682 502.216L396.33 496.131C380.078 482.681 381.919 463.948 402.254 451.698C402.654 451.458 403.055 451.218 403.375 451.058C426.592 437.768 464.22 437.608 487.997 450.818C512.095 464.268 512.896 486.524 489.759 500.455C489.358 500.695 489.038 500.935 488.638 501.095C467.422 513.184 434.358 514.465 410.66 504.538L400.012 510.622C399.612 510.222 399.132 509.821 398.491 509.421L387.763 503.097C387.123 502.776 386.402 502.456 385.682 502.216ZM481.833 497.092C501.848 485.644 502.008 466.99 482.233 455.381C462.458 443.773 430.195 443.613 410.18 455.061C390.165 466.509 390.005 485.163 409.78 496.852C429.554 508.38 461.818 508.541 481.833 497.092Z" fill="#FDFCFF"/>
<path d="M410.66 504.536C412.341 505.257 414.023 505.817 415.784 506.458C416.344 506.618 416.985 506.778 417.545 507.018C418.666 507.338 419.867 507.739 420.988 508.059C421.628 508.219 422.349 508.379 422.989 508.539C424.11 508.779 425.311 509.1 426.432 509.26C427.232 509.42 428.113 509.58 428.994 509.74C429.474 509.82 430.034 509.9 430.515 509.98C431.796 510.14 432.997 510.301 434.278 510.461C434.598 510.461 434.838 510.541 435.158 510.541C436.679 510.701 438.201 510.861 439.642 510.941C440.042 510.941 440.362 511.021 440.762 511.021C441.643 511.101 442.524 511.101 443.404 511.101C444.685 511.101 445.886 511.181 447.087 511.101C447.808 511.101 448.528 511.101 449.249 511.101C450.45 511.101 451.57 511.021 452.771 510.941C453.492 510.861 454.212 510.861 454.933 510.781C456.214 510.701 457.495 510.541 458.696 510.381C459.256 510.301 459.897 510.22 460.457 510.14C462.298 509.9 464.22 509.58 465.981 509.18C467.422 508.859 468.863 508.539 470.224 508.219C470.544 508.139 470.945 508.059 471.265 507.979C472.386 507.659 473.507 507.338 474.547 507.018C474.948 506.938 475.348 506.778 475.748 506.618C477.189 506.137 478.55 505.657 479.911 505.097C480.792 504.696 481.673 504.296 482.633 503.896C483.194 503.656 483.754 503.415 484.315 503.175C485.756 502.535 487.117 501.814 488.478 501.014C488.878 500.773 489.278 500.533 489.599 500.373C500.887 493.568 506.411 484.842 506.491 476.115V491.246C506.491 499.973 500.887 508.699 489.599 515.504C489.198 515.745 488.878 515.985 488.478 516.145C487.117 516.945 485.756 517.666 484.315 518.306C483.914 518.467 483.514 518.627 483.114 518.867C482.073 519.347 481.032 519.828 479.911 520.228C479.911 520.228 479.831 520.228 479.831 520.308C478.55 520.788 477.189 521.269 475.828 521.749C475.428 521.909 475.028 521.989 474.627 522.149C473.907 522.389 473.266 522.63 472.546 522.79C472.146 522.87 471.745 523.03 471.345 523.11C471.025 523.19 470.625 523.27 470.304 523.35C468.943 523.67 467.582 523.991 466.221 524.311C466.141 524.311 466.141 524.311 466.061 524.311C464.22 524.711 462.378 525.031 460.457 525.272C460.377 525.272 460.297 525.272 460.217 525.272C459.736 525.352 459.336 525.352 458.856 525.432C457.575 525.592 456.214 525.752 454.933 525.832C454.693 525.832 454.533 525.912 454.292 525.912C453.812 525.912 453.332 525.912 452.851 525.992C451.65 526.072 450.45 526.152 449.249 526.152C448.928 526.152 448.608 526.232 448.288 526.232C447.888 526.232 447.487 526.232 447.087 526.232C445.806 526.232 444.605 526.232 443.324 526.232C442.924 526.232 442.444 526.232 442.043 526.232C441.563 526.232 441.163 526.152 440.762 526.152C440.362 526.152 440.042 526.152 439.642 526.072C438.201 525.992 436.759 525.912 435.318 525.752C435.238 525.752 435.158 525.752 435.158 525.752C434.838 525.752 434.598 525.672 434.278 525.672C432.997 525.512 431.716 525.352 430.435 525.192C429.954 525.111 429.474 525.031 428.994 524.951C428.513 524.871 428.033 524.791 427.473 524.711C427.072 524.631 426.672 524.551 426.352 524.471C425.231 524.231 424.11 523.991 422.989 523.751C422.269 523.59 421.548 523.43 420.908 523.27C419.787 522.95 418.666 522.63 417.545 522.309C417.065 522.149 416.585 522.069 416.104 521.909C415.944 521.829 415.784 521.829 415.624 521.749C413.863 521.189 412.181 520.548 410.58 519.828L410.66 504.536Z" fill="#E4E7FB"/>
<path d="M398.41 516.708C400.171 515.667 401.052 514.386 401.052 513.025V528.157C401.052 529.518 400.171 530.799 398.41 531.839L336.204 567.386V552.254L398.41 516.708Z" fill="#E4E7FB"/>
<path d="M312.988 538.639C309.465 540.64 309.465 543.923 312.908 545.924L323.636 552.169C327.078 554.17 332.763 554.25 336.205 552.249L398.411 516.703C401.293 515.101 401.774 512.539 400.012 510.618C399.612 510.218 399.132 509.817 398.491 509.417L387.763 503.092C387.123 502.692 386.402 502.452 385.682 502.212C382.319 501.171 377.996 501.411 375.194 503.092L312.988 538.639Z" fill="#FDFCFF"/>
<path d="M310.426 543.205V543.285C310.506 543.605 310.666 543.845 310.826 544.086C310.826 544.166 310.906 544.166 310.906 544.246C311.066 544.486 311.306 544.806 311.627 545.046C311.787 545.206 312.027 545.366 312.267 545.527C312.427 545.687 312.587 545.767 312.828 545.927L323.555 552.171C324.116 552.492 324.676 552.732 325.317 552.972C325.557 553.052 325.797 553.132 325.957 553.212C326.277 553.292 326.518 553.372 326.838 553.452C327.158 553.532 327.558 553.613 327.959 553.613C328.039 553.613 328.119 553.613 328.199 553.613C328.679 553.693 329.16 553.693 329.72 553.693C329.8 553.693 329.88 553.693 329.96 553.693C330.441 553.693 330.921 553.693 331.401 553.613C331.481 553.613 331.561 553.613 331.641 553.613C332.122 553.532 332.602 553.452 333.083 553.372C333.163 553.372 333.243 553.372 333.323 553.292C333.723 553.212 334.123 553.052 334.524 552.892C334.604 552.892 334.684 552.812 334.764 552.812C335.244 552.652 335.724 552.412 336.125 552.171V567.303C335.724 567.543 335.324 567.703 334.844 567.863H334.764C334.684 567.863 334.604 567.943 334.524 567.943C334.283 568.023 334.043 568.103 333.803 568.183C333.643 568.263 333.483 568.263 333.323 568.263C333.243 568.263 333.163 568.343 333.083 568.343C333.002 568.343 332.922 568.423 332.842 568.423C332.522 568.504 332.282 568.504 331.962 568.584C331.882 568.584 331.722 568.584 331.641 568.584C331.561 568.584 331.481 568.584 331.401 568.584C331.321 568.584 331.161 568.584 331.081 568.584C330.761 568.584 330.521 568.584 330.2 568.664C330.12 568.664 330.04 568.664 329.96 568.664C329.88 568.664 329.8 568.664 329.72 568.664C329.56 568.664 329.48 568.664 329.32 568.664C329 568.664 328.679 568.664 328.359 568.584H328.279C328.199 568.584 328.119 568.584 328.039 568.504C327.799 568.504 327.558 568.423 327.318 568.423C327.238 568.423 327.078 568.343 326.998 568.343C326.678 568.263 326.358 568.183 326.117 568.103C325.957 568.023 325.797 568.023 325.637 568.023C325.557 568.023 325.477 567.943 325.477 567.943C324.836 567.703 324.276 567.463 323.716 567.143L312.988 560.898C312.908 560.898 312.908 560.818 312.908 560.818C312.747 560.738 312.587 560.578 312.507 560.498C312.267 560.338 312.027 560.177 311.867 560.017H311.787C311.547 559.777 311.386 559.617 311.226 559.377C311.146 559.297 311.146 559.297 311.146 559.217C311.066 559.137 311.066 559.137 311.066 559.057C310.986 558.976 310.906 558.896 310.906 558.816C310.826 558.656 310.746 558.496 310.666 558.336V558.256V558.176C310.666 558.096 310.586 557.936 310.586 557.856C310.506 557.696 310.506 557.535 310.506 557.375V557.295V542.164C310.266 542.644 310.346 542.965 310.426 543.205Z" fill="#EFF1FE"/>
<path opacity="0.3" d="M481.832 496.928C461.817 508.377 429.553 508.217 409.698 496.608C389.924 485 390.084 466.266 410.098 454.817C430.113 443.369 462.377 443.529 482.152 455.138C502.007 466.746 501.846 485.48 481.832 496.928Z" fill="#F5F5FF"/>
</g>
<defs>
<filter id="filter0_f_862_26404" x="336" y="177.586" width="366.91" height="256.863" filterUnits="userSpaceOnUse" color-interpolation-filters="sRGB">
<feFlood flood-opacity="0" result="BackgroundImageFix"/>
<feBlend mode="normal" in="SourceGraphic" in2="BackgroundImageFix" result="shape"/>
<feGaussianBlur stdDeviation="5.5" result="effect1_foregroundBlur_862_26404"/>
</filter>
<linearGradient id="paint0_linear_862_26404" x1="502.638" y1="297.148" x2="412.434" y2="378.976" gradientUnits="userSpaceOnUse">
<stop stop-color="#9ED3FC"/>
<stop offset="1" stop-color="#D2E6F8"/>
</linearGradient>
<linearGradient id="paint1_linear_862_26404" x1="364.277" y1="225.281" x2="675.638" y2="338.74" gradientUnits="userSpaceOnUse">
<stop stop-color="#40FFC6"/>
<stop offset="0.482292" stop-color="#00DFFF"/>
<stop offset="1" stop-color="#2595FF"/>
</linearGradient>
<linearGradient id="paint2_linear_862_26404" x1="504.862" y1="401.563" x2="700.326" y2="361.415" gradientUnits="userSpaceOnUse">
<stop stop-color="#DEEFFF"/>
<stop offset="0.951042" stop-color="#E4EBF9"/>
</linearGradient>
<linearGradient id="paint3_linear_862_26404" x1="626" y1="170" x2="374.881" y2="25.6866" gradientUnits="userSpaceOnUse">
<stop stop-color="#40FFC6"/>
<stop offset="0.482292" stop-color="#00DFFF"/>
<stop offset="1" stop-color="#2595FF"/>
</linearGradient>
<linearGradient id="paint4_linear_862_26404" x1="520.233" y1="190.454" x2="664.827" y2="190.454" gradientUnits="userSpaceOnUse">
<stop stop-color="#4CD9ED"/>
<stop offset="0.2713" stop-color="#4AC5ED"/>
<stop offset="0.8256" stop-color="#4591EC"/>
<stop offset="1" stop-color="#437FEC"/>
</linearGradient>
<linearGradient id="paint5_linear_862_26404" x1="368.105" y1="248.019" x2="520.831" y2="248.019" gradientUnits="userSpaceOnUse">
<stop stop-color="#9ED3FC"/>
<stop offset="0.386072" stop-color="white"/>
<stop offset="1" stop-color="#EEF5FB"/>
</linearGradient>
<linearGradient id="paint6_linear_862_26404" x1="454.998" y1="57.1553" x2="644.029" y2="112.868" gradientUnits="userSpaceOnUse">
<stop stop-color="#40FFC6"/>
<stop offset="0.482292" stop-color="#00DFFF"/>
<stop offset="1" stop-color="#2595FF"/>
</linearGradient>
<linearGradient id="paint7_linear_862_26404" x1="444.843" y1="152.985" x2="645.856" y2="152.985" gradientUnits="userSpaceOnUse">
<stop stop-color="#F3F8FC"/>
<stop offset="0.6277" stop-color="#EEF5FB"/>
<stop offset="1" stop-color="#96CFFC"/>
</linearGradient>
<linearGradient id="paint8_linear_862_26404" x1="209.895" y1="199.56" x2="154.242" y2="295.954" gradientUnits="userSpaceOnUse">
<stop offset="0.51875" stop-color="#1383FE"/>
<stop offset="1" stop-color="#3A98FF" stop-opacity="0"/>
</linearGradient>
<linearGradient id="paint9_linear_862_26404" x1="496.973" y1="476.257" x2="395.038" y2="475.827" gradientUnits="userSpaceOnUse">
<stop stop-color="#B7C0EB"/>
<stop offset="1" stop-color="#E4E7FB"/>
</linearGradient>
<linearGradient id="paint10_linear_862_26404" x1="445.963" y1="491.301" x2="446.157" y2="446.536" gradientUnits="userSpaceOnUse">
<stop stop-color="#B7C0EB"/>
<stop offset="0.7274" stop-color="#E4E7FB"/>
</linearGradient>
<linearGradient id="paint11_linear_862_26404" x1="390.791" y1="511.228" x2="390.944" y2="475.966" gradientUnits="userSpaceOnUse">
<stop stop-color="#F1F4FE"/>
<stop offset="0.5797" stop-color="#F7F9FE"/>
<stop offset="1" stop-color="white"/>
</linearGradient>
<linearGradient id="paint12_linear_862_26404" x1="405.281" y1="525.768" x2="405.373" y2="504.512" gradientUnits="userSpaceOnUse">
<stop stop-color="#B7C0EB"/>
<stop offset="0.5324" stop-color="#E4E7FB"/>
<stop offset="1" stop-color="#E4E7FB"/>
</linearGradient>
<clipPath id="clip0_862_26404">
<rect width="766" height="615" fill="white"/>
</clipPath>
<clipPath id="clip1_862_26404">
<rect width="418" height="399" fill="white" transform="translate(347 27)"/>
</clipPath>
</defs>
</svg>
