<svg width="900" height="655" viewBox="0 0 900 655" fill="none" xmlns="http://www.w3.org/2000/svg">
<g clip-path="url(#clip0_778_14530)">
<path fill-rule="evenodd" clip-rule="evenodd" d="M446.496 125.998L213.713 260.396C200.321 268.128 200.321 280.664 213.713 288.396L402.345 397.303C415.737 405.035 437.45 405.035 450.842 397.303L683.626 262.905C697.018 255.173 697.018 242.637 683.626 234.905L494.994 125.998C481.602 118.266 459.889 118.266 446.496 125.998ZM211.981 259.396C197.632 267.68 197.632 281.112 211.981 289.396L400.613 398.303C414.962 406.587 438.226 406.587 452.574 398.303L685.358 263.905C699.707 255.621 699.707 242.189 685.358 233.905L496.726 124.998C482.377 116.714 459.113 116.714 444.764 124.998L211.981 259.396Z" fill="#F5F8FE"/>
<path fill-rule="evenodd" clip-rule="evenodd" d="M590.496 269.998L357.713 404.396C344.321 412.128 344.321 424.664 357.713 432.396L546.345 541.303C559.737 549.035 581.45 549.035 594.842 541.303L827.626 406.905C841.018 399.173 841.018 386.637 827.626 378.905L638.994 269.998C625.602 262.266 603.889 262.266 590.496 269.998ZM355.981 403.396C341.632 411.68 341.632 425.112 355.981 433.396L544.613 542.303C558.962 550.587 582.226 550.587 596.574 542.303L829.358 407.905C843.707 399.621 843.707 386.189 829.358 377.905L640.726 268.998C626.377 260.714 603.113 260.714 588.764 268.998L355.981 403.396Z" fill="#F5F8FE"/>
<path fill-rule="evenodd" clip-rule="evenodd" d="M156.354 334.998L15.7128 416.198C2.32062 423.93 2.32062 436.466 15.7128 444.198L192.827 546.455C206.219 554.187 227.932 554.187 241.325 546.455L381.966 465.255C395.358 457.523 395.358 444.987 381.966 437.255L204.852 334.998C191.459 327.266 169.746 327.266 156.354 334.998ZM13.9808 415.198C-0.368016 423.482 -0.36802 436.913 13.9808 445.198L191.095 547.455C205.444 555.739 228.708 555.739 243.057 547.455L383.698 466.255C398.047 457.971 398.047 444.54 383.698 436.255L206.584 333.998C192.235 325.714 168.971 325.714 154.622 333.998L13.9808 415.198Z" fill="#F5F8FE"/>
<circle r="3.69433" transform="matrix(0.866025 -0.5 0.866025 0.5 206.399 333.692)" fill="#40FFC6"/>
<ellipse rx="5.91092" ry="5.91093" transform="matrix(0.866025 -0.5 0.866025 0.5 553.094 275.739)" fill="#40FFC6"/>
<ellipse rx="5.91093" ry="5.91092" transform="matrix(0.866025 -0.5 0.866025 0.5 505.238 518.909)" fill="#40FFC6"/>
<ellipse rx="5.91093" ry="5.91092" transform="matrix(0.866025 -0.5 0.866025 0.5 775.238 348.909)" fill="#2595FF"/>
<ellipse rx="3.69434" ry="3.69433" transform="matrix(0.866025 -0.5 0.866025 0.5 580.609 148.285)" fill="#2595FF"/>
<ellipse rx="5.91093" ry="5.91092" transform="matrix(0.866025 -0.5 0.866025 0.5 649.076 498.137)" fill="#2595FF"/>
<ellipse rx="5.91092" ry="5.91093" transform="matrix(0.866025 -0.5 0.866025 0.5 382.887 177.469)" fill="#2595FF"/>
<g clip-path="url(#clip1_778_14530)">
<g opacity="0.3" filter="url(#filter0_f_778_14530)">
<path d="M15.8457 388.851C12.2407 386.756 12.0509 383.137 15.8457 381.042L85.6691 340.282C89.2741 338.187 95.3457 338.187 98.9507 340.282L169.154 381.042C172.759 383.137 172.948 386.756 169.154 388.851L99.5199 429.612C95.9149 431.707 89.8433 431.707 86.2383 429.612L15.8457 388.851Z" fill="#96AEE5"/>
</g>
<path d="M172 331.52C172 331.71 172 331.71 172 331.901L172 332.091C172 332.282 172 332.282 172 332.472L172 332.663C172 332.853 172 332.853 171.81 333.043C171.81 333.234 171.621 333.234 171.621 333.424C171.621 333.615 171.431 333.615 171.241 333.805C171.051 333.996 171.051 333.996 170.862 334.186C170.862 334.186 170.672 334.377 170.482 334.377L170.292 334.567C170.103 334.567 170.103 334.758 169.913 334.758C169.723 334.758 169.723 334.948 169.533 334.948L99.5203 375.899L99.3306 426.183L169.154 385.422C169.154 385.422 169.154 385.422 169.344 385.422L169.533 385.232C169.723 385.232 169.723 385.041 169.913 385.041L170.103 384.851C170.292 384.851 170.292 384.66 170.482 384.66C170.672 384.47 170.672 384.47 170.862 384.279L171.051 384.089C171.051 384.089 171.051 383.899 171.241 383.899C171.241 383.708 171.431 383.708 171.431 383.518C171.431 383.327 171.431 383.327 171.621 383.137L171.621 382.946C171.621 382.946 171.621 382.756 171.621 382.565L171.621 382.375C171.621 382.375 171.621 382.184 171.621 381.994L171.621 381.803L171.81 331.52C172 331.329 172 331.52 172 331.52Z" fill="#E4E7FB"/>
<path d="M15.8461 335.139C13.9487 333.996 13 332.663 13 331.139L13 381.423C13 382.756 13.9487 384.28 15.8461 385.423L86.0489 426.183L86.2387 375.899L15.8461 335.139Z" fill="#EFF1FE"/>
<path d="M169.154 327.33C172.759 329.425 172.949 333.044 169.154 335.139L99.5201 375.9C95.9151 377.995 89.8435 377.995 86.2385 375.9L16.0356 335.139C12.4306 333.044 12.2409 329.425 16.0356 327.33L85.6693 286.76C89.2743 284.665 95.3459 284.665 98.9509 286.76L169.154 327.33Z" fill="white"/>
<path d="M15.8462 332.092C12.2412 329.996 12.0514 326.377 15.8462 324.282L85.6696 283.522C89.2746 281.427 95.3462 281.427 98.9512 283.522L169.154 324.282C172.759 326.377 172.949 329.996 169.154 332.092L99.5204 372.852C95.9154 374.947 89.8438 374.947 86.2388 372.852L15.8462 332.092Z" fill="url(#paint0_linear_778_14530)"/>
<path d="M98.3817 426.565C98.7612 426.374 99.8996 425.803 100.089 425.612L100.089 375.519C99.8996 375.71 98.7612 376.281 98.5715 376.281C98.5715 376.281 98.3817 376.281 98.3817 376.471C98.192 376.662 97.8125 376.662 97.6228 376.662C97.6228 376.662 97.433 376.662 97.433 376.852C97.2433 376.852 97.0536 376.852 96.8638 377.043C96.6741 377.043 96.6741 377.043 96.4843 377.233C96.2946 377.233 96.1049 377.233 95.9151 377.424C95.7254 377.424 95.7254 377.424 95.5357 377.424C95.1562 377.424 94.7767 377.614 94.3972 377.614C94.2075 377.614 94.2075 377.614 94.0178 377.614C93.828 377.614 93.6383 377.614 93.4485 377.614C93.2588 377.614 93.2588 377.614 93.0691 377.614C92.8793 377.614 92.6896 377.614 92.4999 377.614C92.3101 377.614 92.1204 377.614 92.1204 377.614C91.9306 377.614 91.7409 377.614 91.7409 377.614C91.5512 377.614 91.3614 377.614 91.3614 377.614C91.1717 377.614 90.982 377.614 90.982 377.614C90.7922 377.614 90.6025 377.614 90.6025 377.614C90.4127 377.614 90.223 377.614 90.0333 377.614C89.8435 377.614 89.8435 377.614 89.6538 377.614C89.4641 377.614 89.2743 377.614 89.0846 377.424C88.8948 377.424 88.8948 377.424 88.7051 377.424C88.3256 377.233 87.9462 377.233 87.7564 377.043C87.5667 377.043 87.3769 376.852 87.3769 376.852C87.3769 376.852 87.1872 376.852 87.1872 376.662C86.618 376.09 85.2898 375.329 85.1001 375.329L85.1001 425.612C85.2898 425.803 86.4283 426.374 86.8077 426.565C86.8077 426.565 86.9975 426.565 86.9975 426.755C87.1872 426.755 87.1872 426.946 87.3769 426.946C87.7564 427.136 87.9462 427.136 88.3256 427.327H88.5154C88.7051 427.327 88.8948 427.517 89.0846 427.517H89.2743H89.4641C89.6538 427.517 89.8435 427.517 90.0333 427.517H90.223H90.4127C90.6025 427.517 90.7922 427.517 90.7922 427.517H90.982H91.1717C91.3614 427.517 91.5512 427.517 91.5512 427.517H91.7409H91.9306C92.1204 427.517 92.3101 427.517 92.4999 427.517H92.6896H92.8793C93.0691 427.517 93.2588 427.517 93.4485 427.517H93.6383C94.0178 427.517 94.3972 427.517 94.7767 427.327C94.9664 427.327 94.9664 427.327 95.1562 427.327C95.3459 427.327 95.5357 427.327 95.7254 427.136C95.9151 427.136 95.9151 427.136 96.1049 426.946C96.2946 426.946 96.4843 426.946 96.6741 426.755C96.6741 426.755 96.6741 426.755 96.8638 426.755H97.0536C97.2433 426.755 97.6228 426.565 97.8125 426.374C98.3817 426.565 98.3817 426.565 98.3817 426.565Z" fill="url(#paint1_linear_778_14530)"/>
<path d="M68.0237 377.614L64.4187 375.518C63.2802 374.947 62.3315 375.328 62.3315 376.661C62.3315 377.994 63.2802 379.518 64.4187 380.09L67.8339 382.185C68.9724 382.756 69.921 382.375 69.921 381.042C69.921 379.709 69.1621 378.185 68.0237 377.614Z" fill="#96AEE5"/>
<path d="M68.0237 385.042L64.4187 382.947C63.2802 382.376 62.3315 382.757 62.3315 384.09C62.3315 385.423 63.2802 386.947 64.4187 387.518L67.8339 389.613C68.9724 390.185 69.921 389.804 69.921 388.471C69.921 387.328 69.1621 385.804 68.0237 385.042Z" fill="#96AEE5"/>
<path d="M68.0237 392.66L64.4187 390.565C63.2802 389.994 62.3315 390.375 62.3315 391.708C62.3315 393.041 63.2802 394.565 64.4187 395.136L67.8339 397.232C68.9724 397.803 69.921 397.422 69.921 396.089C69.921 394.756 69.1621 393.232 68.0237 392.66Z" fill="#40FFC6"/>
<path d="M68.0237 400.089L64.4187 397.994C63.2802 397.423 62.3315 397.803 62.3315 399.137C62.3315 400.47 63.2802 401.994 64.4187 402.565L67.8339 404.66C68.9724 405.232 69.921 404.851 69.921 403.518C69.921 402.375 69.1621 400.661 68.0237 400.089Z" fill="#96AEE5"/>
<path d="M78.0798 382.947L74.4748 380.851C73.3364 380.28 72.3877 380.661 72.3877 381.994C72.3877 383.327 73.3364 384.851 74.4748 385.423L78.0798 387.518C79.2182 388.089 80.1669 387.708 80.1669 386.375C80.1669 385.042 79.2182 383.518 78.0798 382.947Z" fill="#2595FF"/>
<path d="M78.0798 390.375L74.4748 388.28C73.3364 387.709 72.3877 388.09 72.3877 389.423C72.3877 390.756 73.3364 392.28 74.4748 392.851L78.0798 394.946C79.2182 395.518 80.1669 395.137 80.1669 393.804C80.1669 392.661 79.2182 390.947 78.0798 390.375Z" fill="#96AEE5"/>
<path d="M78.0798 397.803L74.4748 395.708C73.3364 395.136 72.3877 395.517 72.3877 396.851C72.3877 398.184 73.3364 399.708 74.4748 400.279L78.0798 402.374C79.2182 402.946 80.1669 402.565 80.1669 401.231C80.1669 400.089 79.2182 398.565 78.0798 397.803Z" fill="#96AEE5"/>
<path d="M78.0798 405.422L74.4748 403.327C73.3364 402.756 72.3877 403.136 72.3877 404.47C72.3877 405.803 73.3364 407.327 74.4748 407.898L78.0798 409.993C79.2182 410.565 80.1669 410.184 80.1669 408.851C80.1669 407.708 79.2182 405.994 78.0798 405.422Z" fill="#96AEE5"/>
<path d="M54.9318 392.47L19.4509 371.899C18.3125 371.328 17.3638 371.709 17.3638 373.042C17.3638 374.375 18.3125 375.899 19.4509 376.47L54.9318 397.041C56.0702 397.612 57.0189 397.232 57.0189 395.898C57.0189 394.755 56.0702 393.232 54.9318 392.47Z" fill="url(#paint2_linear_778_14530)"/>
<path d="M54.9318 381.994L19.4509 361.424C18.3125 360.852 17.3638 361.233 17.3638 362.566C17.3638 363.9 18.3125 365.423 19.4509 365.995L54.9318 386.565C56.0702 387.137 57.0189 386.756 57.0189 385.423C57.0189 384.089 56.0702 382.566 54.9318 381.994Z" fill="url(#paint3_linear_778_14530)"/>
<path d="M54.9318 371.328L19.4509 350.758C18.3125 350.186 17.3638 350.567 17.3638 351.9C17.3638 353.234 18.3125 354.757 19.4509 355.329L54.9318 375.899C56.0702 376.471 57.0189 376.09 57.0189 374.757C57.0189 373.423 56.0702 371.9 54.9318 371.328Z" fill="url(#paint4_linear_778_14530)"/>
<path d="M156.441 383.327L111.853 409.421L111.853 377.804L156.441 351.709L156.441 383.327Z" fill="url(#paint5_linear_778_14530)"/>
<path d="M75.993 329.044C75.2341 328.663 75.2341 327.901 75.993 327.33L91.172 318.568C91.931 318.187 93.2591 318.187 94.0181 318.568L109.197 327.33C109.956 327.711 109.956 328.473 109.197 329.044L94.0181 337.806C93.2591 338.187 91.931 338.187 91.172 337.806L75.993 329.044Z" fill="url(#paint6_linear_778_14530)"/>
<path d="M92.6901 345.615C91.7415 345.615 90.7928 345.425 90.0338 345.044L64.2295 329.997C63.4706 329.616 62.9014 328.854 62.9014 328.092C62.9014 327.33 63.2808 326.759 64.2295 326.187L89.8441 311.331C91.362 310.569 93.8286 310.569 95.1567 311.331L120.961 326.187C121.72 326.568 122.289 327.33 122.289 328.092C122.289 328.854 121.91 329.425 120.961 329.997L95.3465 344.853C94.5875 345.425 93.6388 345.615 92.6901 345.615ZM92.5004 311.712C91.7415 311.712 90.7928 311.902 90.4133 312.283L64.7987 327.14C64.4193 327.33 64.0398 327.711 64.0398 328.092C64.0398 328.473 64.2295 328.854 64.7987 329.044L90.603 343.901C91.7415 344.472 93.8286 344.472 94.967 343.901L120.582 329.044C120.961 328.854 121.34 328.473 121.34 328.092C121.34 327.711 121.151 327.33 120.582 327.14L94.5875 312.283C94.0183 311.902 93.2594 311.712 92.5004 311.712Z" fill="url(#paint7_linear_778_14530)"/>
</g>
<path d="M72.3333 183.665C72.3333 202.259 57.2602 217.332 38.6667 217.332C20.0731 217.332 5 202.259 5 183.665C5 165.072 20.0731 149.999 38.6667 149.999C57.2603 149.999 72.3333 165.072 72.3333 183.665Z" fill="url(#paint8_linear_778_14530)"/>
<path d="M72.3333 183.665C72.3333 202.259 57.2602 217.332 38.6667 217.332C20.0731 217.332 5 202.259 5 183.665C5 165.072 20.0731 149.999 38.6667 149.999C57.2603 149.999 72.3333 165.072 72.3333 183.665Z" fill="url(#paint9_radial_778_14530)"/>
<path d="M72.3333 183.665C72.3333 202.259 57.2602 217.332 38.6667 217.332C20.0731 217.332 5 202.259 5 183.665C5 165.072 20.0731 149.999 38.6667 149.999C57.2603 149.999 72.3333 165.072 72.3333 183.665Z" fill="url(#paint10_radial_778_14530)"/>
<path d="M72.3333 183.665C72.3333 202.259 57.2602 217.332 38.6667 217.332C20.0731 217.332 5 202.259 5 183.665C5 165.072 20.0731 149.999 38.6667 149.999C57.2603 149.999 72.3333 165.072 72.3333 183.665Z" fill="url(#paint11_radial_778_14530)"/>
<path d="M72.3333 183.665C72.3333 202.259 57.2602 217.332 38.6667 217.332C20.0731 217.332 5 202.259 5 183.665C5 165.072 20.0731 149.999 38.6667 149.999C57.2603 149.999 72.3333 165.072 72.3333 183.665Z" fill="url(#paint12_radial_778_14530)"/>
<g style="mix-blend-mode:lighten">
<path d="M57.7313 175.147C57.7313 185.452 48.3787 193.806 36.8417 193.806C25.3047 193.806 15.9521 185.452 15.9521 175.147C15.9521 164.843 25.3047 156.489 36.8417 156.489C48.3787 156.489 57.7313 164.843 57.7313 175.147Z" fill="url(#paint13_linear_778_14530)"/>
</g>
<g style="mix-blend-mode:lighten">
<path d="M24.6293 173.314C23.2776 172.894 22.5039 171.444 23.141 170.18C24.2497 167.981 25.8734 166.067 27.889 164.609C29.9045 163.151 32.231 162.208 34.6668 161.843C36.0666 161.634 37.2016 162.823 37.1774 164.238C37.1532 165.653 35.9697 166.749 34.5917 167.073C33.2673 167.384 32.0089 167.955 30.8931 168.762C29.7772 169.569 28.8409 170.585 28.1311 171.746C27.3924 172.953 25.981 173.734 24.6293 173.314Z" fill="url(#paint14_linear_778_14530)"/>
</g>
<g clip-path="url(#clip2_778_14530)">
<g opacity="0.3" filter="url(#filter1_f_778_14530)">
<path d="M252.703 209.301C249.279 207.315 249.099 203.884 252.703 201.898L319.013 163.255C322.437 161.269 328.203 161.269 331.626 163.255L398.297 201.898C401.721 203.884 401.901 207.315 398.297 209.301L332.167 247.944C328.743 249.93 322.977 249.93 319.553 247.944L252.703 209.301Z" fill="#96AEE5"/>
</g>
<path d="M401 154.948C401 155.129 401 155.129 401 155.309L401 155.49C401 155.67 401 155.67 401 155.851L401 156.031C401 156.212 401 156.212 400.82 156.393C400.82 156.573 400.64 156.573 400.64 156.754C400.64 156.934 400.459 156.934 400.279 157.115C400.099 157.295 400.099 157.295 399.919 157.476C399.919 157.476 399.739 157.657 399.558 157.657L399.378 157.837C399.198 157.837 399.198 158.018 399.018 158.018C398.838 158.018 398.838 158.198 398.657 158.198L332.167 197.022L331.987 244.693L398.297 206.05C398.297 206.05 398.297 206.05 398.477 206.05L398.657 205.87C398.838 205.87 398.838 205.689 399.018 205.689L399.198 205.509C399.378 205.509 399.378 205.328 399.558 205.328C399.739 205.148 399.739 205.148 399.919 204.967L400.099 204.786C400.099 204.786 400.099 204.606 400.279 204.606C400.279 204.425 400.459 204.425 400.459 204.245C400.459 204.064 400.459 204.064 400.64 203.883L400.64 203.703C400.64 203.703 400.64 203.522 400.64 203.342L400.64 203.161C400.64 203.161 400.64 202.981 400.64 202.8L400.64 202.619L400.82 154.948C401 154.767 401 154.948 401 154.948Z" fill="#E4E7FB"/>
<path d="M252.703 158.379C250.901 157.296 250 156.032 250 154.587L250 202.259C250 203.523 250.901 204.968 252.703 206.051L319.373 244.694L319.554 197.022L252.703 158.379Z" fill="#EFF1FE"/>
<path d="M398.297 150.975C401.721 152.961 401.901 156.392 398.297 158.378L332.167 197.021C328.744 199.008 322.978 199.008 319.554 197.021L252.883 158.378C249.46 156.392 249.279 152.961 252.883 150.975L319.013 112.513C322.437 110.526 328.203 110.526 331.627 112.513L398.297 150.975Z" fill="white"/>
<path d="M252.703 155.49C249.279 153.503 249.099 150.073 252.703 148.086L319.013 109.443C322.437 107.457 328.203 107.457 331.626 109.443L398.297 148.086C401.721 150.073 401.901 153.503 398.297 155.49L332.167 194.133C328.743 196.119 322.977 196.119 319.553 194.133L252.703 155.49Z" fill="url(#paint15_linear_778_14530)"/>
<path d="M331.086 245.054C331.446 244.874 332.527 244.332 332.707 244.152L332.707 196.661C332.527 196.841 331.446 197.383 331.266 197.383C331.266 197.383 331.086 197.383 331.086 197.563C330.905 197.744 330.545 197.744 330.365 197.744C330.365 197.744 330.185 197.744 330.185 197.925C330.004 197.925 329.824 197.925 329.644 198.105C329.464 198.105 329.464 198.105 329.284 198.286C329.103 198.286 328.923 198.286 328.743 198.466C328.563 198.466 328.563 198.466 328.383 198.466C328.022 198.466 327.662 198.647 327.302 198.647C327.121 198.647 327.121 198.647 326.941 198.647C326.761 198.647 326.581 198.647 326.401 198.647C326.22 198.647 326.22 198.647 326.04 198.647C325.86 198.647 325.68 198.647 325.5 198.647C325.319 198.647 325.139 198.647 325.139 198.647C324.959 198.647 324.779 198.647 324.779 198.647C324.599 198.647 324.418 198.647 324.418 198.647C324.238 198.647 324.058 198.647 324.058 198.647C323.878 198.647 323.698 198.647 323.698 198.647C323.518 198.647 323.337 198.647 323.157 198.647C322.977 198.647 322.977 198.647 322.797 198.647C322.617 198.647 322.436 198.647 322.256 198.466C322.076 198.466 322.076 198.466 321.896 198.466C321.535 198.286 321.175 198.286 320.995 198.105C320.815 198.105 320.634 197.925 320.634 197.925C320.634 197.925 320.454 197.925 320.454 197.744C319.914 197.202 318.652 196.48 318.472 196.48L318.472 244.152C318.652 244.332 319.734 244.874 320.094 245.054C320.094 245.054 320.274 245.054 320.274 245.235C320.454 245.235 320.454 245.416 320.634 245.416C320.995 245.596 321.175 245.596 321.535 245.777H321.716C321.896 245.777 322.076 245.957 322.256 245.957H322.436H322.617C322.797 245.957 322.977 245.957 323.157 245.957H323.337H323.518C323.698 245.957 323.878 245.957 323.878 245.957H324.058H324.238C324.418 245.957 324.599 245.957 324.599 245.957H324.779H324.959C325.139 245.957 325.319 245.957 325.5 245.957H325.68H325.86C326.04 245.957 326.22 245.957 326.401 245.957H326.581C326.941 245.957 327.302 245.957 327.662 245.777C327.842 245.777 327.842 245.777 328.022 245.777C328.202 245.777 328.383 245.777 328.563 245.596C328.743 245.596 328.743 245.596 328.923 245.416C329.103 245.416 329.284 245.416 329.464 245.235C329.464 245.235 329.464 245.235 329.644 245.235H329.824C330.004 245.235 330.365 245.054 330.545 244.874C331.086 245.054 331.086 245.054 331.086 245.054Z" fill="url(#paint16_linear_778_14530)"/>
<path d="M302.255 198.647L298.832 196.66C297.751 196.119 296.85 196.48 296.85 197.744C296.85 199.008 297.751 200.452 298.832 200.994L302.075 202.98C303.156 203.522 304.057 203.161 304.057 201.897C304.057 200.633 303.336 199.188 302.255 198.647Z" fill="#96AEE5"/>
<path d="M302.255 205.69L298.832 203.703C297.751 203.162 296.85 203.523 296.85 204.787C296.85 206.051 297.751 207.495 298.832 208.037L302.075 210.023C303.156 210.565 304.057 210.204 304.057 208.94C304.057 207.856 303.336 206.412 302.255 205.69Z" fill="#96AEE5"/>
<path d="M302.255 212.912L298.832 210.926C297.751 210.384 296.85 210.745 296.85 212.009C296.85 213.273 297.751 214.718 298.832 215.26L302.075 217.246C303.156 217.788 304.057 217.427 304.057 216.163C304.057 214.899 303.336 213.454 302.255 212.912Z" fill="#40FFC6"/>
<path d="M302.255 219.954L298.832 217.968C297.751 217.426 296.85 217.787 296.85 219.051C296.85 220.315 297.751 221.76 298.832 222.302L302.075 224.288C303.156 224.83 304.057 224.469 304.057 223.205C304.057 222.121 303.336 220.496 302.255 219.954Z" fill="#96AEE5"/>
<path d="M311.806 203.703L308.382 201.717C307.301 201.175 306.4 201.536 306.4 202.8C306.4 204.064 307.301 205.509 308.382 206.051L311.806 208.037C312.887 208.579 313.788 208.218 313.788 206.954C313.788 205.69 312.887 204.245 311.806 203.703Z" fill="#2595FF"/>
<path d="M311.806 210.745L308.382 208.759C307.301 208.217 306.4 208.578 306.4 209.842C306.4 211.106 307.301 212.551 308.382 213.093L311.806 215.079C312.887 215.621 313.788 215.26 313.788 213.996C313.788 212.912 312.887 211.287 311.806 210.745Z" fill="#96AEE5"/>
<path d="M311.806 217.787L308.382 215.801C307.301 215.259 306.4 215.62 306.4 216.884C306.4 218.148 307.301 219.593 308.382 220.135L311.806 222.121C312.887 222.663 313.788 222.302 313.788 221.038C313.788 219.954 312.887 218.51 311.806 217.787Z" fill="#96AEE5"/>
<path d="M311.806 225.011L308.382 223.025C307.301 222.483 306.4 222.844 306.4 224.108C306.4 225.372 307.301 226.817 308.382 227.358L311.806 229.345C312.887 229.886 313.788 229.525 313.788 228.261C313.788 227.178 312.887 225.553 311.806 225.011Z" fill="#96AEE5"/>
<path d="M289.822 212.732L256.126 193.23C255.045 192.688 254.144 193.049 254.144 194.313C254.144 195.577 255.045 197.022 256.126 197.563L289.822 217.065C290.903 217.607 291.804 217.246 291.804 215.982C291.804 214.898 290.903 213.454 289.822 212.732Z" fill="url(#paint17_linear_778_14530)"/>
<path d="M289.822 202.8L256.126 183.298C255.045 182.756 254.144 183.117 254.144 184.381C254.144 185.645 255.045 187.09 256.126 187.632L289.822 207.134C290.903 207.675 291.804 207.314 291.804 206.05C291.804 204.786 290.903 203.342 289.822 202.8Z" fill="url(#paint18_linear_778_14530)"/>
<path d="M289.822 192.688L256.126 173.186C255.045 172.644 254.144 173.005 254.144 174.269C254.144 175.533 255.045 176.978 256.126 177.519L289.822 197.021C290.903 197.563 291.804 197.202 291.804 195.938C291.804 194.674 290.903 193.229 289.822 192.688Z" fill="url(#paint19_linear_778_14530)"/>
<path d="M386.224 204.064L343.879 228.802L343.879 198.827L386.224 174.088L386.224 204.064Z" fill="url(#paint20_linear_778_14530)"/>
<path d="M309.823 152.6C309.103 152.239 309.103 151.517 309.823 150.975L324.239 142.669C324.959 142.308 326.221 142.308 326.941 142.669L341.357 150.975C342.077 151.336 342.077 152.059 341.357 152.6L326.941 160.907C326.221 161.268 324.959 161.268 324.239 160.907L309.823 152.6Z" fill="url(#paint21_linear_778_14530)"/>
<path d="M325.681 168.31C324.78 168.31 323.879 168.13 323.158 167.768L298.652 153.503C297.931 153.142 297.391 152.42 297.391 151.697C297.391 150.975 297.751 150.433 298.652 149.892L322.978 135.807C324.419 135.085 326.762 135.085 328.023 135.807L352.529 149.892C353.25 150.253 353.79 150.975 353.79 151.697C353.79 152.42 353.43 152.961 352.529 153.503L328.203 167.588C327.483 168.13 326.582 168.31 325.681 168.31ZM325.5 136.168C324.78 136.168 323.879 136.349 323.518 136.71L299.193 150.795C298.832 150.975 298.472 151.336 298.472 151.697C298.472 152.059 298.652 152.42 299.193 152.6L323.699 166.685C324.78 167.227 326.762 167.227 327.843 166.685L352.169 152.6C352.529 152.42 352.889 152.059 352.889 151.697C352.889 151.336 352.709 150.975 352.169 150.795L327.483 136.71C326.942 136.349 326.221 136.168 325.5 136.168Z" fill="url(#paint22_linear_778_14530)"/>
</g>
<g filter="url(#filter2_f_778_14530)">
<path d="M755.49 272.603C764.829 278.245 764.691 287.082 755.2 292.335L411.525 483.032C402.034 488.277 386.746 487.997 377.41 482.368L238.306 398.582C228.975 392.967 229.1 384.117 238.569 378.845L582.266 188.184C591.743 182.917 607.054 183.211 616.372 188.83L755.49 272.603Z" fill="#345CA6" fill-opacity="0.13"/>
</g>
<g clip-path="url(#clip3_778_14530)">
<g opacity="0.3" filter="url(#filter3_f_778_14530)">
<path d="M596.526 496.83C592.059 494.245 591.824 489.781 596.526 487.196L683.037 436.907C687.503 434.322 695.026 434.322 699.493 436.907L786.474 487.196C790.94 489.781 791.175 494.245 786.474 496.83L700.198 547.119C695.731 549.704 688.209 549.704 683.742 547.119L596.526 496.83Z" fill="#96AEE5"/>
</g>
<path d="M790 426.097C790 426.332 790 426.332 790 426.567L790 426.802C790 427.037 790 427.037 790 427.272L790 427.507C790 427.742 790 427.742 789.765 427.977C789.765 428.212 789.53 428.212 789.53 428.447C789.53 428.682 789.295 428.682 789.06 428.917C788.824 429.152 788.824 429.152 788.589 429.387C788.589 429.387 788.354 429.622 788.119 429.622L787.884 429.857C787.649 429.857 787.649 430.092 787.414 430.092C787.179 430.092 787.179 430.327 786.944 430.327L700.198 480.851L699.963 542.889L786.474 492.6C786.474 492.6 786.474 492.6 786.709 492.6L786.944 492.365C787.179 492.365 787.179 492.13 787.414 492.13L787.649 491.895C787.884 491.895 787.884 491.66 788.119 491.66C788.354 491.425 788.354 491.425 788.589 491.19L788.824 490.955C788.824 490.955 788.824 490.72 789.06 490.72C789.06 490.485 789.295 490.485 789.295 490.25C789.295 490.015 789.295 490.015 789.53 489.78L789.53 489.545C789.53 489.545 789.53 489.31 789.53 489.075L789.53 488.84C789.53 488.84 789.53 488.605 789.53 488.37L789.53 488.135L789.765 426.097C790 425.862 790 426.097 790 426.097Z" fill="#E4E7FB"/>
<path d="M596.526 430.562C594.175 429.152 593 427.507 593 425.627L593 487.666C593 489.311 594.175 491.191 596.526 492.601L683.507 542.889L683.742 480.851L596.526 430.562Z" fill="#EFF1FE"/>
<path d="M786.474 420.927C790.94 423.512 791.175 427.977 786.474 430.562L700.198 480.851C695.732 483.436 688.209 483.436 683.742 480.851L596.761 430.562C592.295 427.977 592.06 423.512 596.761 420.927L683.037 370.874C687.504 368.289 695.026 368.289 699.493 370.874L786.474 420.927Z" fill="white"/>
<path d="M596.526 426.802C592.059 424.217 591.824 419.752 596.526 417.167L683.037 366.879C687.503 364.294 695.026 364.294 699.493 366.879L786.474 417.167C790.94 419.752 791.175 424.217 786.474 426.802L700.198 477.091C695.731 479.676 688.209 479.676 683.742 477.091L596.526 426.802Z" fill="url(#paint23_linear_778_14530)"/>
<path d="M698.787 543.359C699.258 543.124 700.668 542.419 700.903 542.184L700.903 480.381C700.668 480.616 699.258 481.321 699.022 481.321C699.022 481.321 698.787 481.321 698.787 481.556C698.552 481.791 698.082 481.791 697.847 481.791C697.847 481.791 697.612 481.791 697.612 482.026C697.377 482.026 697.142 482.026 696.907 482.261C696.672 482.261 696.672 482.261 696.437 482.496C696.201 482.496 695.966 482.496 695.731 482.731C695.496 482.731 695.496 482.731 695.261 482.731C694.791 482.731 694.321 482.966 693.851 482.966C693.616 482.966 693.616 482.966 693.38 482.966C693.145 482.966 692.91 482.966 692.675 482.966C692.44 482.966 692.44 482.966 692.205 482.966C691.97 482.966 691.735 482.966 691.5 482.966C691.265 482.966 691.03 482.966 691.03 482.966C690.795 482.966 690.559 482.966 690.559 482.966C690.324 482.966 690.089 482.966 690.089 482.966C689.854 482.966 689.619 482.966 689.619 482.966C689.384 482.966 689.149 482.966 689.149 482.966C688.914 482.966 688.679 482.966 688.444 482.966C688.209 482.966 688.209 482.966 687.974 482.966C687.738 482.966 687.503 482.966 687.268 482.731C687.033 482.731 687.033 482.731 686.798 482.731C686.328 482.496 685.858 482.496 685.623 482.261C685.388 482.261 685.153 482.026 685.153 482.026C685.153 482.026 684.917 482.026 684.917 481.791C684.212 481.086 682.567 480.146 682.332 480.146L682.332 542.184C682.567 542.419 683.977 543.124 684.447 543.359C684.447 543.359 684.682 543.359 684.682 543.594C684.917 543.594 684.917 543.829 685.153 543.829C685.623 544.064 685.858 544.064 686.328 544.299H686.563C686.798 544.299 687.033 544.534 687.268 544.534H687.503H687.738C687.974 544.534 688.209 544.534 688.444 544.534H688.679H688.914C689.149 544.534 689.384 544.534 689.384 544.534H689.619H689.854C690.089 544.534 690.324 544.534 690.324 544.534H690.559H690.795C691.03 544.534 691.265 544.534 691.5 544.534H691.735H691.97C692.205 544.534 692.44 544.534 692.675 544.534H692.91C693.38 544.534 693.851 544.534 694.321 544.299C694.556 544.299 694.556 544.299 694.791 544.299C695.026 544.299 695.261 544.299 695.496 544.064C695.731 544.064 695.731 544.064 695.966 543.829C696.201 543.829 696.437 543.829 696.672 543.594C696.672 543.594 696.672 543.594 696.907 543.594H697.142C697.377 543.594 697.847 543.359 698.082 543.124C698.787 543.359 698.787 543.359 698.787 543.359Z" fill="url(#paint24_linear_778_14530)"/>
<path d="M661.174 482.965L656.708 480.38C655.297 479.675 654.122 480.145 654.122 481.79C654.122 483.435 655.297 485.315 656.708 486.02L660.939 488.605C662.35 489.31 663.525 488.84 663.525 487.195C663.525 485.55 662.585 483.67 661.174 482.965Z" fill="#96AEE5"/>
<path d="M661.174 492.13L656.708 489.545C655.297 488.84 654.122 489.31 654.122 490.955C654.122 492.6 655.297 494.48 656.708 495.185L660.939 497.77C662.35 498.475 663.525 498.005 663.525 496.36C663.525 494.95 662.585 493.07 661.174 492.13Z" fill="#96AEE5"/>
<path d="M661.174 501.53L656.708 498.945C655.297 498.24 654.122 498.71 654.122 500.355C654.122 502 655.297 503.88 656.708 504.585L660.939 507.169C662.35 507.874 663.525 507.404 663.525 505.76C663.525 504.115 662.585 502.235 661.174 501.53Z" fill="#40FFC6"/>
<path d="M661.174 510.695L656.708 508.11C655.297 507.405 654.122 507.875 654.122 509.52C654.122 511.165 655.297 513.045 656.708 513.75L660.939 516.334C662.35 517.039 663.525 516.569 663.525 514.925C663.525 513.515 662.585 511.4 661.174 510.695Z" fill="#96AEE5"/>
<path d="M673.634 489.545L669.167 486.96C667.756 486.255 666.581 486.725 666.581 488.37C666.581 490.015 667.756 491.895 669.167 492.6L673.634 495.185C675.044 495.89 676.219 495.42 676.219 493.775C676.219 492.13 675.044 490.25 673.634 489.545Z" fill="#2595FF"/>
<path d="M673.634 498.71L669.167 496.125C667.756 495.42 666.581 495.89 666.581 497.535C666.581 499.18 667.756 501.06 669.167 501.765L673.634 504.35C675.044 505.055 676.219 504.585 676.219 502.94C676.219 501.53 675.044 499.415 673.634 498.71Z" fill="#96AEE5"/>
<path d="M673.634 507.874L669.167 505.289C667.756 504.584 666.581 505.054 666.581 506.699C666.581 508.344 667.756 510.224 669.167 510.929L673.634 513.514C675.044 514.219 676.219 513.749 676.219 512.104C676.219 510.694 675.044 508.814 673.634 507.874Z" fill="#96AEE5"/>
<path d="M673.634 517.275L669.167 514.69C667.756 513.985 666.581 514.455 666.581 516.1C666.581 517.745 667.756 519.625 669.167 520.33L673.634 522.915C675.044 523.62 676.219 523.15 676.219 521.505C676.219 520.095 675.044 517.98 673.634 517.275Z" fill="#96AEE5"/>
<path d="M644.953 501.295L600.993 475.915C599.582 475.21 598.407 475.68 598.407 477.325C598.407 478.97 599.582 480.85 600.993 481.555L644.953 506.935C646.364 507.64 647.539 507.17 647.539 505.525C647.539 504.115 646.364 502.235 644.953 501.295Z" fill="url(#paint25_linear_778_14530)"/>
<path d="M644.953 488.37L600.993 462.991C599.582 462.286 598.407 462.756 598.407 464.401C598.407 466.045 599.582 467.925 600.993 468.63L644.953 494.01C646.364 494.715 647.539 494.245 647.539 492.6C647.539 490.955 646.364 489.075 644.953 488.37Z" fill="url(#paint26_linear_778_14530)"/>
<path d="M644.953 475.211L600.993 449.831C599.582 449.126 598.407 449.596 598.407 451.241C598.407 452.886 599.582 454.766 600.993 455.471L644.953 480.851C646.364 481.556 647.539 481.086 647.539 479.441C647.539 477.796 646.364 475.916 644.953 475.211Z" fill="url(#paint27_linear_778_14530)"/>
<path d="M770.723 490.015L715.479 522.209L715.479 483.2L770.723 451.006L770.723 490.015Z" fill="url(#paint28_linear_778_14530)"/>
<path d="M671.048 423.042C670.107 422.572 670.107 421.632 671.048 420.927L689.854 410.118C690.795 409.648 692.44 409.648 693.38 410.118L712.187 420.927C713.127 421.397 713.127 422.337 712.187 423.042L693.38 433.852C692.44 434.322 690.795 434.322 689.854 433.852L671.048 423.042Z" fill="url(#paint29_linear_778_14530)"/>
<path d="M691.735 443.487C690.56 443.487 689.384 443.252 688.444 442.782L656.473 424.217C655.532 423.747 654.827 422.807 654.827 421.867C654.827 420.927 655.297 420.222 656.473 419.517L688.209 401.188C690.09 400.248 693.146 400.248 694.791 401.188L726.763 419.517C727.703 419.987 728.408 420.927 728.408 421.867C728.408 422.807 727.938 423.512 726.763 424.217L695.026 442.547C694.086 443.252 692.911 443.487 691.735 443.487ZM691.5 401.658C690.56 401.658 689.384 401.893 688.914 402.363L657.178 420.692C656.708 420.927 656.238 421.397 656.238 421.867C656.238 422.337 656.473 422.807 657.178 423.042L689.149 441.372C690.56 442.077 693.146 442.077 694.556 441.372L726.293 423.042C726.763 422.807 727.233 422.337 727.233 421.867C727.233 421.397 726.998 420.927 726.293 420.692L694.086 402.363C693.381 401.893 692.441 401.658 691.5 401.658Z" fill="url(#paint30_linear_778_14530)"/>
</g>
<g opacity="0.55" filter="url(#filter4_f_778_14530)">
<path d="M242.844 382.953C237.958 380.443 235.416 376.97 235.271 373.365C235.438 377.54 235.633 381.709 235.823 385.888C235.982 389.501 238.537 392.965 243.41 395.489L387.772 469.787L387.233 457.268L242.844 382.953Z" fill="#A2C4E7"/>
</g>
<g opacity="0.55" filter="url(#filter5_f_778_14530)">
<path d="M757.993 233.049C757.973 233.277 757.984 233.522 757.968 233.75C757.934 233.971 757.87 234.21 757.823 234.44C757.765 234.648 757.723 234.886 757.658 235.116C757.592 235.329 757.504 235.534 757.429 235.738C757.342 235.988 757.242 236.233 757.121 236.493C757.035 236.667 756.924 236.855 756.825 237.038C756.66 237.327 756.496 237.625 756.3 237.915C756.173 238.077 756.048 238.253 755.931 238.423C755.64 238.798 755.314 239.175 754.975 239.543C754.847 239.683 754.721 239.841 754.563 239.991C754.366 240.183 754.148 240.381 753.912 240.58C753.688 240.769 753.457 240.976 753.216 241.17C752.955 241.397 752.652 241.603 752.362 241.8C752.086 242.022 751.806 242.228 751.493 242.421L421.315 455.643C420.288 456.29 419.176 456.86 418.021 457.379C417.719 457.514 417.405 457.667 417.098 457.784C416.374 458.068 415.614 458.332 414.862 458.577C414.083 458.824 413.305 459.084 412.488 459.288C411.535 459.53 410.567 459.75 409.587 459.904C409.353 459.955 409.115 460.024 408.858 460.068C407.545 460.264 406.206 460.39 404.848 460.482C404.612 460.502 404.394 460.512 404.162 460.523C402.829 460.578 401.501 460.552 400.171 460.482C399.969 460.46 399.763 460.457 399.575 460.43C398.23 460.334 396.928 460.19 395.643 459.948C395.427 459.927 395.197 459.867 394.99 459.832C393.817 459.598 392.691 459.318 391.572 458.979C391.385 458.912 391.174 458.877 390.969 458.798C389.649 458.37 388.391 457.846 387.228 457.255L387.767 469.774C388.902 470.34 390.082 470.828 391.331 471.254C391.399 471.278 391.457 471.288 391.521 471.316C391.73 471.382 391.969 471.429 392.196 471.507C392.894 471.719 393.578 471.927 394.293 472.112C394.694 472.182 395.117 472.26 395.523 472.339C395.749 472.386 395.979 472.433 396.218 472.484C396.43 472.518 396.619 472.563 396.831 472.589C397.632 472.715 398.437 472.824 399.231 472.893C399.545 472.923 399.831 472.923 400.127 472.958C400.333 472.975 400.535 472.983 400.745 472.986C401.041 473.021 401.319 473.03 401.605 473.048C402.397 473.068 403.197 473.074 403.992 473.068C404.246 473.056 404.53 473.029 404.767 473.017C404.976 473.007 405.163 472.998 405.377 472.988C405.734 472.971 406.1 472.967 406.469 472.936C407.359 472.867 408.239 472.763 409.126 472.631C409.232 472.604 409.333 472.572 409.454 472.567C409.684 472.524 409.896 472.487 410.112 472.428C410.818 472.323 411.518 472.214 412.19 472.061C412.746 471.923 413.265 471.756 413.772 471.611C413.923 471.591 414.056 471.567 414.188 471.516C415.043 471.279 415.883 471.002 416.708 470.687C417.042 470.573 417.347 470.415 417.679 470.266C417.973 470.145 418.289 470.023 418.577 469.884C419.744 469.351 420.847 468.786 421.862 468.131L752.054 254.921C752.158 254.854 752.253 254.787 752.344 254.729C752.529 254.595 752.693 254.463 752.879 254.329C753.198 254.1 753.501 253.885 753.789 253.657C754.005 253.491 754.201 253.294 754.398 253.124C754.646 252.898 754.913 252.693 755.148 252.45C755.177 252.404 755.238 252.379 755.262 252.329C755.361 252.235 755.41 252.152 755.505 252.072C755.852 251.681 756.186 251.273 756.481 250.902C756.548 250.818 756.629 250.73 756.683 250.651C756.747 250.573 756.774 250.486 756.86 250.429C757.024 250.109 757.22 249.814 757.371 249.517C757.424 249.407 757.543 249.277 757.582 249.159C757.619 249.104 757.629 249.032 757.663 248.99C757.784 248.726 757.897 248.457 757.991 248.185C758.052 248.062 758.125 247.911 758.163 247.762C758.183 247.721 758.18 247.659 758.18 247.659C758.278 247.369 758.324 247.108 758.392 246.851C758.42 246.693 758.479 246.534 758.495 246.386C758.502 246.341 758.5 246.306 758.511 246.265C758.543 245.992 758.543 245.719 758.548 245.447C758.554 245.286 758.592 245.151 758.585 245.004C758.581 244.924 758.586 244.843 758.585 244.803C758.386 240.634 758.209 236.45 758.01 232.272C758.027 232.543 758.008 232.794 757.993 233.049Z" fill="#A2C4E7"/>
</g>
<path d="M406.011 471.67C406.181 471.662 406.345 471.646 406.528 471.633C407.418 471.563 408.342 471.466 409.273 471.314L409.508 471.272L409.659 471.265L409.747 471.229C410 471.19 410.221 471.14 410.459 471.075C411.019 471.008 411.745 470.88 412.452 470.726C412.943 470.604 413.343 470.487 413.731 470.379L414.181 470.251C414.296 470.236 414.518 470.19 414.724 470.109C415.491 469.903 416.406 469.605 417.288 469.264C417.53 469.186 417.849 469.037 418.176 468.883L418.377 468.784C418.605 468.698 418.973 468.546 419.319 468.392C420.713 467.75 421.846 467.143 422.829 466.507L752.156 254.079C752.434 253.897 752.576 253.787 752.718 253.669L752.985 253.473C753.279 253.268 753.569 253.062 753.853 252.835C754.029 252.701 754.209 252.537 754.376 252.377L754.753 252.051C754.955 251.877 755.152 251.702 755.331 251.511L755.465 251.415C755.465 251.415 755.693 251.155 755.735 251.095C756.198 250.591 756.561 250.15 756.881 249.738L757.088 249.487L757.231 249.391L757.464 248.947C757.464 248.947 757.889 248.209 757.983 248.031C758.013 247.998 758.11 247.864 758.203 247.664L758.32 247.417C758.463 247.125 758.587 246.82 758.702 246.511C758.754 246.38 758.814 246.243 758.861 246.107L759.041 245.755L759.038 245.514C759.076 245.37 759.194 244.851 759.194 244.851C759.27 244.562 759.322 244.341 759.338 244.126C759.386 243.714 759.405 243.37 759.407 243.026C759.434 242.86 759.447 242.663 759.438 242.467L759.08 231.201L754.713 229.938C754.721 230.093 754.706 230.259 754.692 230.425C754.692 230.425 754.673 230.974 754.669 231.064L754.55 231.578L754.446 232.02C754.393 232.205 754.344 232.306 754.308 232.41C754.173 232.764 754.115 232.95 754.017 233.146C753.968 233.229 753.894 233.371 753.807 233.508C753.638 233.811 753.515 234.044 753.369 234.256L753.017 234.737C752.807 235.019 752.523 235.34 752.225 235.658L751.848 236.077C751.737 236.189 751.557 236.345 751.368 236.506L751.153 236.694C751.008 236.822 750.854 236.963 750.694 237.091C750.437 237.313 750.203 237.467 749.978 237.62C749.62 237.887 749.427 238.048 749.192 238.188L420.027 450.541C419.172 451.077 418.144 451.617 417.012 452.135L416.172 452.505C415.497 452.778 414.771 453.013 414.067 453.247L413.667 453.369C413.077 453.566 412.474 453.756 411.852 453.906C410.815 454.187 409.931 454.381 409.115 454.509L408.364 454.67C407.206 454.841 405.912 454.969 404.576 455.06C404.345 455.08 403.935 455.099 403.917 455.1C402.785 455.145 401.574 455.14 400.136 455.066C400.015 455.045 399.773 455.039 399.527 455.024C398.132 454.916 396.955 454.767 395.869 454.569L395.188 454.446C394.147 454.237 393.089 453.971 392.014 453.647C392.005 453.643 391.828 453.585 391.657 453.548C390.236 453.081 389.079 452.601 388.026 452.067L384.854 450.457L385.602 467.742L386.695 468.288C387.935 468.902 389.22 469.438 390.509 469.867L390.651 469.932L391.425 470.14C392.168 470.368 392.88 470.588 393.644 470.775L394.978 471.024C395.195 471.076 395.447 471.117 395.731 471.166C395.88 471.204 396.101 471.251 396.335 471.289C397.217 471.425 398.058 471.537 398.892 471.613L399.766 471.669C400.045 471.696 400.3 471.711 400.568 471.711C400.734 471.735 401.062 471.764 401.397 471.766C402.198 471.799 403.02 471.8 403.842 471.796L403.882 471.794L406.011 471.67Z" fill="white"/>
<path d="M386.177 456.855L241.792 382.531C236.398 379.76 233.317 375.76 233.097 371.252C232.871 366.777 235.522 362.507 240.566 359.243L570.861 148.384C575.572 145.345 581.911 143.486 588.726 143.161C595.523 142.837 602.019 144.08 607.011 146.651L750.415 220.268C755.801 223.053 758.892 227.066 759.107 231.578C759.32 236.055 756.664 240.311 751.623 243.552L422.332 455.131C417.612 458.157 411.272 460.016 404.475 460.34C397.678 460.659 391.177 459.417 386.177 456.855ZM573.65 159.297L259.713 361.996C258.192 362.974 257.35 364.156 257.402 365.233C257.454 366.327 258.423 367.45 260.058 368.295L404.455 442.573C406.447 443.607 409.205 444.117 412.022 443.983C414.857 443.848 417.554 443.073 419.425 441.855L733.371 239.156C734.897 238.173 735.734 236.983 735.683 235.915C735.627 234.829 734.654 233.725 733.023 232.875L588.63 158.583C586.629 157.559 583.862 157.044 581.036 157.179C578.206 157.31 575.509 158.08 573.65 159.297Z" fill="white"/>
<path d="M750.353 220.459C760.048 225.464 760.5 234.291 751.382 240.166L421.208 453.388C412.089 459.255 396.816 459.996 387.126 455.004L242.737 380.694C233.051 375.715 232.585 366.876 241.681 360.983L571.878 147.796C580.983 141.908 596.279 141.179 605.951 146.163L750.353 220.459ZM420.549 443.595L734.509 240.895C739.036 237.949 738.795 233.533 733.972 231.046L589.583 156.741C584.739 154.256 577.077 154.612 572.518 157.554L258.586 360.262C254.031 363.2 254.296 367.647 259.11 370.138L403.493 444.408C408.325 446.916 415.991 446.55 420.549 443.595Z" fill="url(#paint31_linear_778_14530)"/>
<path d="M733.972 231.046C738.799 233.532 739.041 237.949 734.508 240.894L420.549 443.595C415.995 446.55 408.329 446.915 403.492 444.408L259.11 370.137C254.296 367.646 254.035 363.195 258.585 360.262L572.517 157.554C577.077 154.612 584.738 154.256 589.583 156.741L733.972 231.046Z" fill="url(#paint32_linear_778_14530)"/>
<path d="M496.889 311.482L544.938 280.601C554.92 274.185 571.704 273.236 582.321 278.709L516 321.334L496.889 311.482Z" fill="white"/>
<path fill-rule="evenodd" clip-rule="evenodd" d="M517.159 320.588C536.28 308.299 535.298 289.92 514.959 279.436C494.62 268.951 462.775 270.407 443.654 282.697C424.533 294.986 425.516 313.365 445.855 323.849C466.194 334.334 498.038 332.877 517.159 320.588ZM497.356 310.379C506.078 304.774 505.629 296.384 496.352 291.601C487.074 286.819 472.358 287.392 463.636 292.997C454.914 298.603 455.363 306.993 464.64 311.776C473.918 316.558 488.634 315.985 497.356 310.379Z" fill="white"/>
<path d="M389.092 452.605L243.641 377.739C239.598 375.67 237.312 372.903 237.188 369.921L233.046 370.078L235.004 370.011L233.046 370.091C233.186 373.675 233.352 377.248 233.505 380.826L233.589 382.606C233.782 387.123 236.878 391.155 242.292 393.951L386.694 468.27L389.092 452.605Z" fill="white"/>
<path d="M643.263 175.093C644.304 174.428 646.015 174.347 647.11 174.91L684.741 194.424C685.841 195.01 685.917 196.027 684.873 196.71C684.864 196.72 684.864 196.72 684.851 196.725C683.806 197.395 682.072 197.477 680.973 196.91L643.359 177.394C642.237 176.815 642.198 175.795 643.242 175.108C643.25 175.103 643.255 175.103 643.263 175.093Z" fill="url(#paint33_linear_778_14530)"/>
<path d="M242.736 380.693C237.851 378.192 235.309 374.719 235.163 371.109C235.331 375.284 235.525 379.453 235.715 383.627C235.875 387.25 238.43 390.714 243.303 393.233L387.664 467.531L387.126 455.012L242.736 380.693Z" fill="#D8EBFF"/>
<path d="M757.886 230.798C757.866 231.031 757.877 231.267 757.861 231.5C757.827 231.715 757.762 231.955 757.715 232.184C757.658 232.397 757.616 232.635 757.551 232.866C757.485 233.078 757.397 233.279 757.322 233.483C757.235 233.737 757.135 233.978 757.014 234.243C756.928 234.416 756.816 234.6 756.718 234.778C756.553 235.072 756.389 235.374 756.192 235.655C756.066 235.822 755.94 235.993 755.824 236.168C755.533 236.539 755.207 236.924 754.867 237.288C754.74 237.428 754.614 237.586 754.456 237.745C754.259 237.928 754.041 238.126 753.805 238.329C753.581 238.518 753.35 238.725 753.109 238.924C752.848 239.151 752.545 239.361 752.255 239.553C751.98 239.776 751.699 239.981 751.387 240.179L421.208 453.388C420.18 454.034 419.069 454.609 417.914 455.128C417.612 455.267 417.298 455.416 416.991 455.533C416.267 455.818 415.507 456.077 414.755 456.322C413.976 456.569 413.197 456.829 412.381 457.033C411.428 457.279 410.46 457.499 409.48 457.657C409.246 457.704 409.008 457.774 408.751 457.817C407.438 458.018 406.099 458.144 404.741 458.236C404.505 458.251 404.287 458.262 404.055 458.273C402.722 458.332 401.394 458.306 400.064 458.231C399.862 458.209 399.656 458.206 399.468 458.188C398.123 458.092 396.821 457.949 395.536 457.702C395.321 457.686 395.09 457.616 394.883 457.582C393.71 457.348 392.584 457.067 391.465 456.732C391.279 456.665 391.067 456.631 390.862 456.551C389.542 456.124 388.284 455.604 387.121 455.008L387.66 467.528C388.795 468.093 389.975 468.581 391.224 469.012C391.292 469.036 391.351 469.046 391.415 469.075C391.623 469.136 391.862 469.187 392.089 469.261C392.787 469.477 393.472 469.681 394.186 469.861C394.587 469.936 395.011 470.014 395.416 470.088C395.642 470.135 395.872 470.187 396.111 470.233C396.323 470.268 396.512 470.312 396.724 470.338C397.525 470.465 398.33 470.573 399.124 470.643C399.438 470.672 399.724 470.676 400.02 470.702C400.226 470.724 400.427 470.728 400.638 470.735C400.934 470.761 401.212 470.779 401.498 470.792C402.29 470.817 403.09 470.824 403.885 470.817C404.139 470.805 404.423 470.778 404.66 470.767C404.869 470.757 405.056 470.748 405.27 470.738C405.627 470.721 405.993 470.716 406.362 470.685C407.252 470.607 408.132 470.512 409.019 470.376C409.125 470.358 409.226 470.326 409.347 470.32C409.577 470.274 409.789 470.237 410.006 470.182C410.711 470.072 411.412 469.968 412.083 469.811C412.639 469.673 413.159 469.51 413.665 469.365C413.816 469.34 413.949 469.32 414.081 469.27C414.936 469.033 415.776 468.752 416.601 468.44C416.935 468.326 417.24 468.169 417.573 468.019C417.866 467.903 418.182 467.772 418.47 467.642C419.637 467.105 420.741 466.539 421.755 465.885L751.947 252.675C752.051 252.612 752.146 252.541 752.237 252.478C752.423 252.354 752.586 252.221 752.772 252.083C753.092 251.862 753.394 251.643 753.683 251.419C753.898 251.249 754.094 251.052 754.291 250.878C754.54 250.656 754.807 250.452 755.041 250.213C755.07 250.167 755.131 250.137 755.156 250.092C755.254 249.998 755.304 249.915 755.398 249.835C755.746 249.444 756.08 249.035 756.375 248.664C756.442 248.581 756.523 248.492 756.577 248.414C756.64 248.34 756.667 248.245 756.754 248.187C756.917 247.867 757.113 247.572 757.264 247.275C757.317 247.17 757.436 247.035 757.475 246.926C757.513 246.871 757.523 246.795 757.557 246.757C757.678 246.493 757.79 246.224 757.885 245.952C757.946 245.829 758.019 245.678 758.056 245.525C758.077 245.488 758.074 245.43 758.074 245.43C758.172 245.131 758.218 244.875 758.286 244.626C758.314 244.465 758.374 244.306 758.389 244.153C758.395 244.108 758.394 244.082 758.405 244.032C758.437 243.767 758.437 243.487 758.442 243.21C758.448 243.053 758.486 242.913 758.479 242.771C758.475 242.695 758.481 242.615 758.478 242.57C758.28 238.401 758.103 234.217 757.904 230.044C757.92 230.293 757.9 230.539 757.886 230.798Z" fill="url(#paint34_linear_778_14530)"/>
<path d="M322.083 428.093L304.375 419.086C303.565 418.678 302.945 419.065 302.988 419.972C303.031 420.871 303.716 421.94 304.522 422.352L322.23 431.359C323.031 431.771 323.661 431.38 323.622 430.477C323.579 429.574 322.885 428.51 322.083 428.093Z" fill="url(#paint35_linear_778_14530)"/>
<path d="M858 409.499C858 434.075 838.077 453.999 813.5 453.999C788.923 453.999 769 434.075 769 409.499C769 384.922 788.923 364.999 813.5 364.999C838.077 364.999 858 384.922 858 409.499Z" fill="url(#paint36_linear_778_14530)"/>
<path d="M858 409.499C858 434.075 838.077 453.999 813.5 453.999C788.923 453.999 769 434.075 769 409.499C769 384.922 788.923 364.999 813.5 364.999C838.077 364.999 858 384.922 858 409.499Z" fill="url(#paint37_radial_778_14530)"/>
<path d="M858 409.499C858 434.075 838.077 453.999 813.5 453.999C788.923 453.999 769 434.075 769 409.499C769 384.922 788.923 364.999 813.5 364.999C838.077 364.999 858 384.922 858 409.499Z" fill="url(#paint38_radial_778_14530)"/>
<path d="M858 409.499C858 434.075 838.077 453.999 813.5 453.999C788.923 453.999 769 434.075 769 409.499C769 384.922 788.923 364.999 813.5 364.999C838.077 364.999 858 384.922 858 409.499Z" fill="url(#paint39_radial_778_14530)"/>
<path d="M858 409.499C858 434.075 838.077 453.999 813.5 453.999C788.923 453.999 769 434.075 769 409.499C769 384.922 788.923 364.999 813.5 364.999C838.077 364.999 858 384.922 858 409.499Z" fill="url(#paint40_radial_778_14530)"/>
<g style="mix-blend-mode:lighten">
<path d="M838.699 398.239C838.699 411.86 826.337 422.902 811.088 422.902C795.839 422.902 783.477 411.86 783.477 398.239C783.477 384.619 795.839 373.577 811.088 373.577C826.337 373.577 838.699 384.619 838.699 398.239Z" fill="url(#paint41_linear_778_14530)"/>
</g>
<g style="mix-blend-mode:lighten">
<path d="M794.945 395.818C793.159 395.263 792.136 393.346 792.978 391.675C794.443 388.768 796.59 386.238 799.254 384.311C801.918 382.384 804.993 381.137 808.213 380.656C810.063 380.379 811.563 381.95 811.531 383.821C811.499 385.691 809.935 387.14 808.113 387.568C806.363 387.979 804.7 388.733 803.225 389.8C801.75 390.867 800.512 392.211 799.574 393.745C798.598 395.341 796.732 396.373 794.945 395.818Z" fill="url(#paint42_linear_778_14530)"/>
</g>
<path d="M159.732 130.626C159.732 127.865 161.671 126.746 164.062 128.126L254.938 180.594C257.329 181.974 259.268 185.332 259.268 188.094L259.268 245.364C259.268 248.126 257.329 249.245 254.938 247.864L164.062 195.397C161.671 194.016 159.732 190.659 159.732 187.897L159.732 130.626Z" fill="url(#paint43_linear_778_14530)" fill-opacity="0.29"/>
<path d="M153 132.48C153 129.719 154.939 128.599 157.33 129.98L248.206 182.447C250.598 183.828 252.536 187.186 252.536 189.947L252.536 247.218C252.536 249.979 250.598 251.099 248.206 249.718L157.33 197.251C154.939 195.87 153 192.512 153 189.751L153 132.48Z" fill="#2595FF"/>
<path d="M184.256 194.69L184.256 163.778L190.892 167.609L190.892 198.521L184.256 194.69Z" fill="white"/>
<path d="M197.122 171.206L209.673 178.452C212.878 180.303 215.603 182.877 217.847 186.175C220.059 189.454 221.165 192.55 221.165 195.465C221.165 198.38 220.059 200.199 217.847 200.924C215.603 201.63 212.878 201.058 209.673 199.207L203.758 195.793L203.758 205.95L197.122 202.118L197.122 171.206ZM203.758 190.096L209.673 193.511C211.083 194.325 212.253 194.559 213.183 194.213C214.112 193.837 214.577 192.986 214.577 191.662C214.577 190.307 214.112 188.92 213.183 187.5C212.253 186.08 211.083 184.963 209.673 184.149L203.758 180.734L203.758 190.096Z" fill="white"/>
<path d="M204.771 230.235C204.771 231.21 203.909 231.504 202.847 230.891C201.785 230.278 200.924 228.99 200.924 228.014C200.924 227.038 201.785 226.745 202.847 227.358C203.909 227.971 204.771 229.259 204.771 230.235Z" fill="#2595FF"/>
<path d="M204.771 239.067C204.771 240.043 203.909 240.336 202.847 239.723C201.785 239.11 200.924 237.822 200.924 236.846C200.924 235.87 201.785 235.577 202.847 236.19C203.909 236.803 204.771 238.091 204.771 239.067Z" fill="#2595FF"/>
<path d="M204.771 247.899C204.771 248.875 203.909 249.168 202.847 248.555C201.785 247.942 200.924 246.654 200.924 245.678C200.924 244.702 201.785 244.409 202.847 245.022C203.909 245.635 204.771 246.923 204.771 247.899Z" fill="#2595FF"/>
<path d="M204.771 256.731C204.771 257.707 203.909 258 202.847 257.387C201.785 256.774 200.924 255.486 200.924 254.51C200.924 253.535 201.785 253.241 202.847 253.854C203.909 254.467 204.771 255.755 204.771 256.731Z" fill="#2595FF"/>
<path d="M204.771 265.563C204.771 266.539 203.909 266.832 202.847 266.219C201.785 265.606 200.924 264.318 200.924 263.342C200.924 262.367 201.785 262.073 202.847 262.686C203.909 263.299 204.771 264.587 204.771 265.563Z" fill="#2595FF"/>
<path d="M206.536 277.033C206.536 278.902 204.885 279.465 202.849 278.29C200.813 277.114 199.163 274.646 199.163 272.776C199.163 270.906 200.813 270.343 202.849 271.519C204.885 272.694 206.536 275.163 206.536 277.033Z" fill="#2595FF"/>
<path d="M709.357 273.293C709.357 267.771 713.235 261.055 718.018 258.293L806.606 207.147C811.389 204.385 815.266 206.624 815.266 212.147L815.266 282.144C815.266 287.666 811.389 294.382 806.606 297.144L718.018 348.29C713.235 351.052 709.357 348.813 709.357 343.29L709.357 273.293Z" fill="url(#paint44_linear_778_14530)" fill-opacity="0.29"/>
<path d="M716.519 276.838C716.519 271.316 720.396 264.6 725.179 261.838L813.768 210.692C818.551 207.93 822.428 210.169 822.428 215.692L822.428 285.689C822.428 291.211 818.551 297.927 813.768 300.689L725.179 351.835C720.396 354.597 716.519 352.358 716.519 346.835L716.519 276.838Z" fill="url(#paint45_linear_778_14530)" fill-opacity="0.72"/>
<path d="M723 280.777C723 275.254 726.877 268.538 731.66 265.777L820.249 214.63C825.032 211.869 828.909 214.107 828.909 219.63L828.909 289.627C828.909 295.15 825.032 301.866 820.249 304.627L731.66 355.774C726.877 358.535 723 356.296 723 350.774L723 280.777Z" fill="#E7F3FF"/>
<path d="M810.489 286.039C810.489 275.488 806.86 267.466 800.399 263.736C793.938 260.006 785.176 260.874 776.039 266.149C766.902 271.424 758.14 280.674 751.679 291.864C745.218 303.054 741.589 315.268 741.589 325.818L749.213 321.417C749.213 313.201 752.039 303.69 757.07 294.977C762.101 286.263 768.924 279.06 776.039 274.952C783.154 270.844 789.977 270.168 795.008 273.073C800.039 275.978 802.866 282.225 802.866 290.44L810.489 286.039Z" fill="url(#paint46_angular_778_14530)"/>
<path fill-rule="evenodd" clip-rule="evenodd" d="M776.04 305.929C778.96 304.243 781.327 300.143 781.327 296.772C781.327 293.4 776.04 283.282 776.04 283.282C776.04 283.282 770.753 299.505 770.753 302.877C770.753 306.248 773.12 307.615 776.04 305.929ZM775.954 302.237C777.037 301.611 777.915 300.09 777.915 298.84C777.915 297.589 777.037 297.082 775.954 297.707C774.871 298.333 773.993 299.853 773.993 301.104C773.993 302.355 774.871 302.862 775.954 302.237Z" fill="#2595FF"/>
</g>
<defs>
<filter id="filter0_f_778_14530" x="9.07031" y="334.71" width="166.858" height="100.473" filterUnits="userSpaceOnUse" color-interpolation-filters="sRGB">
<feFlood flood-opacity="0" result="BackgroundImageFix"/>
<feBlend mode="normal" in="SourceGraphic" in2="BackgroundImageFix" result="shape"/>
<feGaussianBlur stdDeviation="2" result="effect1_foregroundBlur_778_14530"/>
</filter>
<filter id="filter1_f_778_14530" x="246.067" y="157.765" width="158.866" height="95.6685" filterUnits="userSpaceOnUse" color-interpolation-filters="sRGB">
<feFlood flood-opacity="0" result="BackgroundImageFix"/>
<feBlend mode="normal" in="SourceGraphic" in2="BackgroundImageFix" result="shape"/>
<feGaussianBlur stdDeviation="2" result="effect1_foregroundBlur_778_14530"/>
</filter>
<filter id="filter2_f_778_14530" x="220.387" y="173.417" width="553.021" height="324.368" filterUnits="userSpaceOnUse" color-interpolation-filters="sRGB">
<feFlood flood-opacity="0" result="BackgroundImageFix"/>
<feBlend mode="normal" in="SourceGraphic" in2="BackgroundImageFix" result="shape"/>
<feGaussianBlur stdDeviation="5.5" result="effect1_foregroundBlur_778_14530"/>
</filter>
<filter id="filter3_f_778_14530" x="589.087" y="430.968" width="204.825" height="122.089" filterUnits="userSpaceOnUse" color-interpolation-filters="sRGB">
<feFlood flood-opacity="0" result="BackgroundImageFix"/>
<feBlend mode="normal" in="SourceGraphic" in2="BackgroundImageFix" result="shape"/>
<feGaussianBlur stdDeviation="2" result="effect1_foregroundBlur_778_14530"/>
</filter>
<filter id="filter4_f_778_14530" x="231.271" y="369.365" width="160.501" height="104.422" filterUnits="userSpaceOnUse" color-interpolation-filters="sRGB">
<feFlood flood-opacity="0" result="BackgroundImageFix"/>
<feBlend mode="normal" in="SourceGraphic" in2="BackgroundImageFix" result="shape"/>
<feGaussianBlur stdDeviation="2" result="effect1_foregroundBlur_778_14530"/>
</filter>
<filter id="filter5_f_778_14530" x="383.228" y="228.272" width="379.358" height="248.798" filterUnits="userSpaceOnUse" color-interpolation-filters="sRGB">
<feFlood flood-opacity="0" result="BackgroundImageFix"/>
<feBlend mode="normal" in="SourceGraphic" in2="BackgroundImageFix" result="shape"/>
<feGaussianBlur stdDeviation="2" result="effect1_foregroundBlur_778_14530"/>
</filter>
<linearGradient id="paint0_linear_778_14530" x1="92.5703" y1="374.362" x2="92.5703" y2="281.998" gradientUnits="userSpaceOnUse">
<stop stop-color="#F1F4FE"/>
<stop offset="0.5797" stop-color="#F7F9FE"/>
<stop offset="1" stop-color="white"/>
</linearGradient>
<linearGradient id="paint1_linear_778_14530" x1="85.0685" y1="401.457" x2="100.184" y2="401.457" gradientUnits="userSpaceOnUse">
<stop stop-color="#EFF1FE"/>
<stop offset="1" stop-color="#E4E7FB"/>
</linearGradient>
<linearGradient id="paint2_linear_778_14530" x1="17.4283" y1="384.492" x2="56.9286" y2="384.492" gradientUnits="userSpaceOnUse">
<stop stop-color="#48FAC9"/>
<stop offset="0.505208" stop-color="#4AE6FF"/>
<stop offset="1" stop-color="#2595FF"/>
</linearGradient>
<linearGradient id="paint3_linear_778_14530" x1="17.4283" y1="374.016" x2="56.9286" y2="374.016" gradientUnits="userSpaceOnUse">
<stop stop-color="#48FAC9"/>
<stop offset="0.505208" stop-color="#4AE6FF"/>
<stop offset="1" stop-color="#2595FF"/>
</linearGradient>
<linearGradient id="paint4_linear_778_14530" x1="17.4283" y1="363.35" x2="56.9286" y2="363.35" gradientUnits="userSpaceOnUse">
<stop stop-color="#48FAC9"/>
<stop offset="0.505208" stop-color="#4AE6FF"/>
<stop offset="1" stop-color="#2595FF"/>
</linearGradient>
<linearGradient id="paint5_linear_778_14530" x1="95.3247" y1="353.729" x2="156.423" y2="380.424" gradientUnits="userSpaceOnUse">
<stop stop-color="#48FAC9"/>
<stop offset="0.505208" stop-color="#4AE6FF"/>
<stop offset="1" stop-color="#2595FF"/>
</linearGradient>
<linearGradient id="paint6_linear_778_14530" x1="61.0232" y1="318.472" x2="109.704" y2="328.125" gradientUnits="userSpaceOnUse">
<stop stop-color="#48FAC9"/>
<stop offset="0.505208" stop-color="#4AE6FF"/>
<stop offset="1" stop-color="#2595FF"/>
</linearGradient>
<linearGradient id="paint7_linear_778_14530" x1="62.998" y1="328.216" x2="122.154" y2="328.216" gradientUnits="userSpaceOnUse">
<stop stop-color="#48FAC9"/>
<stop offset="0.505208" stop-color="#4AE6FF"/>
<stop offset="1" stop-color="#2595FF"/>
</linearGradient>
<linearGradient id="paint8_linear_778_14530" x1="38.6667" y1="149.999" x2="38.6667" y2="217.332" gradientUnits="userSpaceOnUse">
<stop stop-color="#40FFC6"/>
<stop offset="0.492708" stop-color="#4AE6FF"/>
<stop offset="1" stop-color="#2595FF"/>
</linearGradient>
<radialGradient id="paint9_radial_778_14530" cx="0" cy="0" r="1" gradientUnits="userSpaceOnUse" gradientTransform="translate(24.8393 163.225) rotate(62.6223) scale(75.8263)">
<stop offset="0.462106" stop-color="#2AA8FF" stop-opacity="0"/>
<stop offset="0.894737" stop-color="#2595FF"/>
</radialGradient>
<radialGradient id="paint10_radial_778_14530" cx="0" cy="0" r="1" gradientUnits="userSpaceOnUse" gradientTransform="translate(22.4345 164.427) rotate(56.6259) scale(90.7081)">
<stop stop-color="#6EFFCE"/>
<stop offset="0.570035" stop-color="#A5FFFD" stop-opacity="0"/>
</radialGradient>
<radialGradient id="paint11_radial_778_14530" cx="0" cy="0" r="1" gradientUnits="userSpaceOnUse" gradientTransform="translate(32.0536 170.439) rotate(63.4349) scale(48.3586)">
<stop offset="0.672439" stop-color="#9EC6FD" stop-opacity="0"/>
<stop offset="1" stop-color="white"/>
</radialGradient>
<radialGradient id="paint12_radial_778_14530" cx="0" cy="0" r="1" gradientUnits="userSpaceOnUse" gradientTransform="translate(35.027 176.386) rotate(62.0378) scale(41.7221)">
<stop offset="0.961458" stop-color="#2AA8FF" stop-opacity="0"/>
<stop offset="1" stop-color="#058AFF" stop-opacity="0.26"/>
</radialGradient>
<linearGradient id="paint13_linear_778_14530" x1="24.9048" y1="161.304" x2="39.9659" y2="178.031" gradientUnits="userSpaceOnUse">
<stop stop-color="white" stop-opacity="0.86"/>
<stop offset="1" stop-color="#D9D9D9" stop-opacity="0"/>
</linearGradient>
<linearGradient id="paint14_linear_778_14530" x1="36.8476" y1="163.192" x2="27.7485" y2="173.656" gradientUnits="userSpaceOnUse">
<stop stop-color="white"/>
<stop offset="1" stop-color="#FFFFE9" stop-opacity="0.38"/>
</linearGradient>
<linearGradient id="paint15_linear_778_14530" x1="325.566" y1="195.565" x2="325.566" y2="107.999" gradientUnits="userSpaceOnUse">
<stop stop-color="#F1F4FE"/>
<stop offset="0.5797" stop-color="#F7F9FE"/>
<stop offset="1" stop-color="white"/>
</linearGradient>
<linearGradient id="paint16_linear_778_14530" x1="318.442" y1="221.251" x2="332.797" y2="221.251" gradientUnits="userSpaceOnUse">
<stop stop-color="#EFF1FE"/>
<stop offset="1" stop-color="#E4E7FB"/>
</linearGradient>
<linearGradient id="paint17_linear_778_14530" x1="254.205" y1="205.168" x2="291.718" y2="205.168" gradientUnits="userSpaceOnUse">
<stop stop-color="#48FAC9"/>
<stop offset="0.505208" stop-color="#4AE6FF"/>
<stop offset="1" stop-color="#2595FF"/>
</linearGradient>
<linearGradient id="paint18_linear_778_14530" x1="254.205" y1="195.236" x2="291.718" y2="195.236" gradientUnits="userSpaceOnUse">
<stop stop-color="#48FAC9"/>
<stop offset="0.505208" stop-color="#4AE6FF"/>
<stop offset="1" stop-color="#2595FF"/>
</linearGradient>
<linearGradient id="paint19_linear_778_14530" x1="254.205" y1="185.124" x2="291.718" y2="185.124" gradientUnits="userSpaceOnUse">
<stop stop-color="#48FAC9"/>
<stop offset="0.505208" stop-color="#4AE6FF"/>
<stop offset="1" stop-color="#2595FF"/>
</linearGradient>
<linearGradient id="paint20_linear_778_14530" x1="328.183" y1="176.003" x2="386.175" y2="201.384" gradientUnits="userSpaceOnUse">
<stop stop-color="#48FAC9"/>
<stop offset="0.505208" stop-color="#4AE6FF"/>
<stop offset="1" stop-color="#2595FF"/>
</linearGradient>
<linearGradient id="paint21_linear_778_14530" x1="295.607" y1="142.577" x2="341.832" y2="151.759" gradientUnits="userSpaceOnUse">
<stop stop-color="#48FAC9"/>
<stop offset="0.505208" stop-color="#4AE6FF"/>
<stop offset="1" stop-color="#2595FF"/>
</linearGradient>
<linearGradient id="paint22_linear_778_14530" x1="297.482" y1="151.815" x2="353.662" y2="151.815" gradientUnits="userSpaceOnUse">
<stop stop-color="#48FAC9"/>
<stop offset="0.505208" stop-color="#4AE6FF"/>
<stop offset="1" stop-color="#2595FF"/>
</linearGradient>
<linearGradient id="paint23_linear_778_14530" x1="691.587" y1="478.954" x2="691.587" y2="364.999" gradientUnits="userSpaceOnUse">
<stop stop-color="#F1F4FE"/>
<stop offset="0.5797" stop-color="#F7F9FE"/>
<stop offset="1" stop-color="white"/>
</linearGradient>
<linearGradient id="paint24_linear_778_14530" x1="682.292" y1="512.382" x2="701.02" y2="512.382" gradientUnits="userSpaceOnUse">
<stop stop-color="#EFF1FE"/>
<stop offset="1" stop-color="#E4E7FB"/>
</linearGradient>
<linearGradient id="paint25_linear_778_14530" x1="598.487" y1="491.452" x2="647.427" y2="491.452" gradientUnits="userSpaceOnUse">
<stop stop-color="#48FAC9"/>
<stop offset="0.505208" stop-color="#4AE6FF"/>
<stop offset="1" stop-color="#2595FF"/>
</linearGradient>
<linearGradient id="paint26_linear_778_14530" x1="598.487" y1="478.527" x2="647.427" y2="478.527" gradientUnits="userSpaceOnUse">
<stop stop-color="#48FAC9"/>
<stop offset="0.505208" stop-color="#4AE6FF"/>
<stop offset="1" stop-color="#2595FF"/>
</linearGradient>
<linearGradient id="paint27_linear_778_14530" x1="598.487" y1="465.368" x2="647.427" y2="465.368" gradientUnits="userSpaceOnUse">
<stop stop-color="#48FAC9"/>
<stop offset="0.505208" stop-color="#4AE6FF"/>
<stop offset="1" stop-color="#2595FF"/>
</linearGradient>
<linearGradient id="paint28_linear_778_14530" x1="695" y1="453.499" x2="770.597" y2="486.668" gradientUnits="userSpaceOnUse">
<stop stop-color="#48FAC9"/>
<stop offset="0.505208" stop-color="#4AE6FF"/>
<stop offset="1" stop-color="#2595FF"/>
</linearGradient>
<linearGradient id="paint29_linear_778_14530" x1="652.5" y1="409.999" x2="712.795" y2="422.005" gradientUnits="userSpaceOnUse">
<stop stop-color="#48FAC9"/>
<stop offset="0.505208" stop-color="#4AE6FF"/>
<stop offset="1" stop-color="#2595FF"/>
</linearGradient>
<linearGradient id="paint30_linear_778_14530" x1="654.947" y1="422.021" x2="728.241" y2="422.021" gradientUnits="userSpaceOnUse">
<stop stop-color="#48FAC9"/>
<stop offset="0.505208" stop-color="#4AE6FF"/>
<stop offset="1" stop-color="#2595FF"/>
</linearGradient>
<linearGradient id="paint31_linear_778_14530" x1="760.688" y1="287.996" x2="232.402" y2="313.178" gradientUnits="userSpaceOnUse">
<stop stop-color="#F1F4FE"/>
<stop offset="0.5797" stop-color="#F7F9FE"/>
<stop offset="1" stop-color="white"/>
</linearGradient>
<linearGradient id="paint32_linear_778_14530" x1="740.282" y1="288.961" x2="252.802" y2="312.199" gradientUnits="userSpaceOnUse">
<stop stop-color="#2595FF"/>
<stop offset="0.246" stop-color="#23A9FF"/>
<stop offset="0.5075" stop-color="#2595FF"/>
<stop offset="0.7751" stop-color="#2DC8FF"/>
<stop offset="1" stop-color="#2AC1FF"/>
</linearGradient>
<linearGradient id="paint33_linear_778_14530" x1="642.994" y1="186.916" x2="685.103" y2="184.908" gradientUnits="userSpaceOnUse">
<stop stop-color="#5FEFC0"/>
<stop offset="0.6277" stop-color="#4DA6DD"/>
<stop offset="1" stop-color="#437FEC"/>
</linearGradient>
<linearGradient id="paint34_linear_778_14530" x1="567.554" y1="239.117" x2="578.203" y2="462.508" gradientUnits="userSpaceOnUse">
<stop stop-color="#89C1FF"/>
<stop offset="1" stop-color="#DAECFF"/>
</linearGradient>
<linearGradient id="paint35_linear_778_14530" x1="303.257" y1="425.703" x2="323.343" y2="424.746" gradientUnits="userSpaceOnUse">
<stop stop-color="#5FEFC0"/>
<stop offset="0.6277" stop-color="#4DA6DD"/>
<stop offset="1" stop-color="#437FEC"/>
</linearGradient>
<linearGradient id="paint36_linear_778_14530" x1="813.5" y1="364.999" x2="813.5" y2="453.999" gradientUnits="userSpaceOnUse">
<stop stop-color="#40FFC6"/>
<stop offset="0.492708" stop-color="#4AE6FF"/>
<stop offset="1" stop-color="#2595FF"/>
</linearGradient>
<radialGradient id="paint37_radial_778_14530" cx="0" cy="0" r="1" gradientUnits="userSpaceOnUse" gradientTransform="translate(795.223 382.481) rotate(62.6223) scale(100.226)">
<stop offset="0.462106" stop-color="#2AA8FF" stop-opacity="0"/>
<stop offset="0.894737" stop-color="#2595FF"/>
</radialGradient>
<radialGradient id="paint38_radial_778_14530" cx="0" cy="0" r="1" gradientUnits="userSpaceOnUse" gradientTransform="translate(792.045 384.07) rotate(56.6259) scale(119.896)">
<stop stop-color="#6EFFCE"/>
<stop offset="0.570035" stop-color="#A5FFFD" stop-opacity="0"/>
</radialGradient>
<radialGradient id="paint39_radial_778_14530" cx="0" cy="0" r="1" gradientUnits="userSpaceOnUse" gradientTransform="translate(804.759 392.016) rotate(63.4349) scale(63.9195)">
<stop offset="0.672439" stop-color="#9EC6FD" stop-opacity="0"/>
<stop offset="1" stop-color="white"/>
</radialGradient>
<radialGradient id="paint40_radial_778_14530" cx="0" cy="0" r="1" gradientUnits="userSpaceOnUse" gradientTransform="translate(808.689 399.877) rotate(62.0378) scale(55.1476)">
<stop offset="0.961458" stop-color="#2AA8FF" stop-opacity="0"/>
<stop offset="1" stop-color="#058AFF" stop-opacity="0.26"/>
</radialGradient>
<linearGradient id="paint41_linear_778_14530" x1="795.31" y1="379.941" x2="815.217" y2="402.051" gradientUnits="userSpaceOnUse">
<stop stop-color="white" stop-opacity="0.86"/>
<stop offset="1" stop-color="#D9D9D9" stop-opacity="0"/>
</linearGradient>
<linearGradient id="paint42_linear_778_14530" x1="811.095" y1="382.438" x2="799.068" y2="396.269" gradientUnits="userSpaceOnUse">
<stop stop-color="white"/>
<stop offset="1" stop-color="#FFFFE9" stop-opacity="0.38"/>
</linearGradient>
<linearGradient id="paint43_linear_778_14530" x1="209.5" y1="154.36" x2="180.371" y2="204.813" gradientUnits="userSpaceOnUse">
<stop offset="0.51875" stop-color="#2595FF"/>
<stop offset="1" stop-color="#3A98FF" stop-opacity="0"/>
</linearGradient>
<linearGradient id="paint44_linear_778_14530" x1="762.312" y1="232.72" x2="801.282" y2="300.218" gradientUnits="userSpaceOnUse">
<stop offset="0.773958" stop-color="#2087F8" stop-opacity="0.43"/>
<stop offset="1" stop-color="#3A98FF" stop-opacity="0"/>
</linearGradient>
<linearGradient id="paint45_linear_778_14530" x1="769.474" y1="236.265" x2="808.443" y2="303.763" gradientUnits="userSpaceOnUse">
<stop offset="0.51875" stop-color="#2595FF"/>
<stop offset="1" stop-color="#3A98FF" stop-opacity="0"/>
</linearGradient>
<radialGradient id="paint46_angular_778_14530" cx="0" cy="0" r="1" gradientUnits="userSpaceOnUse" gradientTransform="translate(776.039 305.928) rotate(-48.9885) scale(46.9111 29.0603)">
<stop stop-color="#47B8EF"/>
<stop offset="0.435317" stop-color="#6CDEA5"/>
<stop offset="0.435417" stop-color="#1400FF"/>
<stop offset="0.76865" stop-color="#54C5D6"/>
<stop offset="0.76875" stop-color="#4EFD92"/>
<stop offset="1" stop-color="#23FBB2"/>
</radialGradient>
<clipPath id="clip0_778_14530">
<rect width="900" height="655" fill="white"/>
</clipPath>
<clipPath id="clip1_778_14530">
<rect width="159" height="154" fill="white" transform="translate(13 281.999)"/>
</clipPath>
<clipPath id="clip2_778_14530">
<rect width="151" height="146" fill="white" transform="translate(250 107.999)"/>
</clipPath>
<clipPath id="clip3_778_14530">
<rect width="197" height="190" fill="white" transform="translate(593 364.999)"/>
</clipPath>
</defs>
</svg>
