<svg width="220" height="170" viewBox="0 0 220 170" fill="none" xmlns="http://www.w3.org/2000/svg">
<g clip-path="url(#clip0_575_14068)">
<circle cx="102.946" cy="92.9507" r="64.5115" fill="url(#paint0_linear_575_14068)" stroke="#CFE8FF" stroke-width="2" stroke-linecap="round" stroke-dasharray="7 0"/>
<circle cx="102.945" cy="92.9507" r="35.4075" fill="url(#paint1_linear_575_14068)" stroke="#CFE8FF" stroke-width="2" stroke-linecap="square" stroke-dasharray="1 10"/>
<rect width="55.2561" height="86.1557" rx="10" transform="matrix(0.866025 0.5 -2.20305e-08 1 83.6138 52.9751)" fill="url(#paint2_linear_575_14068)" fill-opacity="0.29"/>
<rect width="55.2561" height="86.1557" rx="10" transform="matrix(0.866025 0.5 -2.20305e-08 1 80.6357 54.1021)" fill="url(#paint3_linear_575_14068)" fill-opacity="0.72"/>
<rect x="1.73205" y="3" width="51.2561" height="82.1557" rx="8" transform="matrix(0.866025 0.5 -2.20305e-08 1 76.8961 54.5488)" fill="url(#paint4_linear_575_14068)" stroke="#EBF4FF" stroke-width="4"/>
<path d="M108.409 125.436C109.371 126.164 110.305 126.089 110.377 125.186C110.529 123.255 110.272 121.072 109.613 118.758C108.769 115.794 107.292 112.71 105.32 109.794C103.348 106.877 100.945 104.222 98.332 102.073C96.2932 100.397 94.1785 99.0713 92.1084 98.1662C91.1406 97.743 90.573 98.3611 90.819 99.4192V99.4192C91.0651 100.477 92.0323 101.572 93.0041 102.027C94.4918 102.724 96.0025 103.693 97.4632 104.895C99.4982 106.568 101.37 108.636 102.906 110.908C104.442 113.18 105.592 115.581 106.25 117.891C106.722 119.548 106.929 121.119 106.867 122.531C106.826 123.454 107.448 124.708 108.409 125.436V125.436Z" fill="white"/>
<path d="M101.357 120.033C102.349 120.782 103.322 120.71 103.299 119.729C103.28 118.881 103.131 117.962 102.856 117.003C102.389 115.374 101.573 113.679 100.483 112.075C99.3923 110.47 98.0635 109.008 96.619 107.823C95.7674 107.124 94.8919 106.535 94.0212 106.073C93.0138 105.538 92.4247 106.175 92.6785 107.258V107.258C92.9322 108.342 93.9452 109.456 94.949 110.129C95.2092 110.303 95.4679 110.496 95.723 110.705C96.5717 111.401 97.3525 112.261 97.993 113.203C98.6336 114.146 99.1132 115.142 99.3875 116.099C99.4699 116.386 99.533 116.667 99.5765 116.94C99.7447 117.992 100.366 119.283 101.357 120.033V120.033Z" fill="white"/>
<path d="M96.0244 115.874C96.0244 117.222 94.8463 117.634 93.393 116.795C91.9398 115.956 90.7617 114.183 90.7617 112.835C90.7617 111.487 91.9398 111.075 93.393 111.914C94.8463 112.753 96.0244 114.526 96.0244 115.874Z" fill="white"/>
<path d="M85.4014 60.459L115.98 78.1134V78.1134C115.98 80.6288 114.214 81.6484 112.035 80.3907L89.3457 67.2907C87.1673 66.033 85.4014 62.9744 85.4014 60.459V60.459Z" fill="#F2F7FF"/>
<rect width="16.9666" height="1.13862" rx="0.569311" transform="matrix(0.866025 0.5 -2.20305e-08 1 93.3438 66.7524)" fill="#40FFC6"/>
<path d="M187.168 92.1699C189.614 93.87 191.341 95.8119 192.248 97.9847L191.325 98.3701C191.552 98.9131 191.721 99.4703 191.832 100.042C191.942 100.614 191.992 101.194 191.984 101.783L192.984 101.797C192.949 104.152 192.069 106.596 190.431 109.084L189.596 108.534C188.954 109.51 188.184 110.5 187.29 111.502L188.036 112.168C186.463 113.931 184.535 115.705 182.284 117.474L181.666 116.688C180.697 117.45 179.665 118.212 178.573 118.973L179.145 119.793C177.129 121.198 174.917 122.594 172.523 123.976L172.023 123.109C170.929 123.741 169.796 124.369 168.625 124.994L169.096 125.876C166.89 127.053 164.554 128.215 162.098 129.358L161.676 128.452C160.521 128.989 159.339 129.522 158.131 130.051L158.531 130.967C156.211 131.981 153.797 132.978 151.296 133.952L150.933 133.021C149.738 133.486 148.524 133.947 147.29 134.402L147.636 135.34C145.241 136.223 142.774 137.086 140.242 137.925L139.928 136.975C138.706 137.38 137.469 137.779 136.218 138.172L136.518 139.126C134.074 139.894 131.575 140.639 129.024 141.36L128.752 140.397C127.512 140.748 126.258 141.093 124.994 141.431L125.252 142.397C122.765 143.063 120.233 143.704 117.661 144.32L117.429 143.347C116.17 143.648 114.902 143.943 113.624 144.232L113.845 145.207C111.329 145.775 108.779 146.317 106.196 146.832L106.001 145.851C105.362 145.978 104.722 146.104 104.08 146.228C103.437 146.352 102.796 146.473 102.156 146.593L102.34 147.576C99.751 148.058 97.1816 148.504 94.6359 148.913L94.4774 147.925C93.1844 148.133 91.8975 148.331 90.6173 148.519L90.7631 149.509C88.1466 149.894 85.5579 150.24 83.0017 150.548L82.8824 149.555C81.5824 149.711 80.291 149.857 79.0087 149.994L79.1143 150.988C76.4788 151.268 73.8816 151.506 71.328 151.702L71.2513 150.705C69.9432 150.805 68.6467 150.895 67.3626 150.974L67.4238 151.972C64.761 152.135 62.1507 152.252 59.5994 152.323L59.5715 151.323C58.2567 151.36 56.9578 151.385 55.6757 151.397L55.6853 152.397C53.0011 152.423 50.3895 152.396 47.8586 152.317L47.8898 151.317C46.5718 151.276 45.2762 151.221 44.0042 151.152L43.9498 152.15C41.2449 152.003 38.6441 151.793 36.1585 151.521L36.2673 150.527C34.9482 150.383 33.6625 150.221 32.412 150.042L32.2704 151.032C29.5344 150.64 26.9613 150.167 24.5685 149.613L24.794 148.638C23.4969 148.338 22.2556 148.015 21.0728 147.668L20.7917 148.628C18.0436 147.823 15.5944 146.893 13.4783 145.842L13.9231 144.946C12.7204 144.349 11.6376 143.716 10.6787 143.049L10.1079 143.871C7.66215 142.17 5.93578 140.228 5.02832 138.056L5.95108 137.67C5.72428 137.127 5.55521 136.57 5.44488 135.998C5.33455 135.426 5.28423 134.846 5.29275 134.258L4.29286 134.243C4.32697 131.889 5.2071 129.444 6.84496 126.956L7.6802 127.506C8.32237 126.531 9.09192 125.54 9.9862 124.538L9.24019 123.872C10.8135 122.11 12.7411 120.336 14.9925 118.566L15.6105 119.352C16.5795 118.591 17.6113 117.829 18.7036 117.067L18.1319 116.247C20.147 114.843 22.3592 113.446 24.7533 112.065L25.253 112.931C26.3472 112.3 27.4804 111.671 28.6512 111.047L28.1805 110.164C30.3866 108.987 32.7226 107.825 35.1786 106.682L35.6005 107.589C36.7555 107.051 37.9376 106.518 39.1457 105.99L38.745 105.074C41.0649 104.059 43.4791 103.062 45.9802 102.088L46.3432 103.02C47.5379 102.554 48.7527 102.094 49.9868 101.639L49.6409 100.7C52.0356 99.8173 54.502 98.9547 57.0344 98.1158L57.3488 99.0651C58.5701 98.6605 59.8069 98.2614 61.0586 97.8682L60.7588 96.9142C63.2022 96.1465 65.7016 95.4011 68.2521 94.6806L68.5239 95.6429C69.7648 95.2924 71.018 94.9477 72.2828 94.6092L72.0243 93.6432C74.5113 92.9776 77.043 92.336 79.6151 91.7206L79.8479 92.6931C81.1063 92.392 82.3745 92.0971 83.652 91.8089L83.4318 90.8334C85.9469 90.2658 88.4976 89.7236 91.0801 89.2087L91.2756 90.1894C91.914 90.0621 92.5544 89.9365 93.1967 89.8126C93.8389 89.6887 94.4801 89.5671 95.12 89.4478L94.9367 88.4647C97.5254 87.982 100.095 87.5365 102.64 87.1278L102.799 88.1152C104.092 87.9076 105.379 87.7096 106.659 87.5209L106.513 86.5316C109.13 86.1461 111.719 85.8 114.275 85.4927L114.394 86.4855C115.694 86.3292 116.985 86.183 118.268 86.0468L118.162 85.0524C120.798 84.7725 123.395 84.5347 125.948 84.3384L126.025 85.3355C127.333 85.2349 128.63 85.1453 129.914 85.0666L129.853 84.0685C132.515 83.9052 135.126 83.7883 137.677 83.7173L137.705 84.7169C139.02 84.6803 140.319 84.6559 141.601 84.6435L141.591 83.6436C144.275 83.6178 146.887 83.6448 149.418 83.7237L149.387 84.7233C150.705 84.7643 152 84.8196 153.272 84.8888L153.327 83.8903C156.031 84.0374 158.632 84.2476 161.118 84.5195L161.009 85.5136C162.328 85.6578 163.614 85.8196 164.864 85.9985L165.006 85.0086C167.742 85.4001 170.315 85.8738 172.708 86.4277L172.482 87.4019C173.779 87.7022 175.021 88.0258 176.204 88.3723L176.485 87.4127C179.233 88.2178 181.682 89.1476 183.798 90.1984L183.353 91.094C184.556 91.6913 185.639 92.3244 186.598 92.991L187.168 92.1699Z" stroke="url(#paint5_linear_575_14068)" stroke-opacity="0.72" stroke-width="2" stroke-dasharray="4 8"/>
<path d="M192.366 141.619C191.285 145.073 187.853 147.823 182.112 149.68C176.402 151.527 168.63 152.411 159.311 152.296C140.685 152.067 116.109 147.854 90.0192 139.689C63.929 131.523 41.3373 120.973 25.904 110.543C18.1819 105.324 12.301 100.167 8.66249 95.3938C5.0045 90.5949 3.75328 86.3797 4.83424 82.9259C5.9152 79.4721 9.34631 76.7223 15.0875 74.8652C20.7981 73.018 28.5694 72.1343 37.8891 72.249C56.5152 72.4782 81.0904 76.6906 107.181 84.8563C133.271 93.0219 155.862 103.572 171.296 114.002C179.018 119.221 184.899 124.378 188.537 129.151C192.195 133.95 193.446 138.165 192.366 141.619Z" stroke="url(#paint6_linear_575_14068)" stroke-width="2"/>
<path d="M210.251 85.9248L211.804 90.1207L216 91.6734L211.804 93.226L210.251 97.4219L208.699 93.226L204.503 91.6734L208.699 90.1207L210.251 85.9248Z" fill="#2595FF"/>
<path d="M198.116 104.448L199.151 107.245L201.948 108.28L199.151 109.315L198.116 112.112L197.08 109.315L194.283 108.28L197.08 107.245L198.116 104.448Z" fill="#CFE8FF"/>
<path d="M7.13608 60.3757L8.17116 63.173L10.9684 64.2081L8.17116 65.2432L7.13608 68.0405L6.10099 65.2432L3.30371 64.2081L6.10099 63.173L7.13608 60.3757Z" fill="#CFE8FF"/>
<circle cx="124.343" cy="31.9522" r="3.513" fill="#2595FF"/>
<circle cx="188.854" cy="146.284" r="3.513" fill="#40FFC6"/>
<rect width="54.1303" height="39.835" rx="10" transform="matrix(0.866025 -0.5 2.20305e-08 1 135.23 47.3225)" fill="url(#paint7_linear_575_14068)" fill-opacity="0.29"/>
<rect width="54.1303" height="39.835" rx="10" transform="matrix(0.866025 -0.5 2.20305e-08 1 138.4 48.8916)" fill="url(#paint8_linear_575_14068)" fill-opacity="0.72"/>
<rect width="54.1303" height="39.835" rx="10" transform="matrix(0.866025 -0.5 2.20305e-08 1 141.269 50.635)" fill="#E7F3FF"/>
<path d="M179.994 57.3904C179.994 52.7206 178.388 49.1695 175.528 47.5185C172.668 45.8675 168.79 46.2517 164.746 48.5866C160.702 50.9215 156.823 55.0159 153.963 59.969C151.104 64.922 149.497 70.3281 149.497 74.998L152.872 73.0497C152.872 69.4133 154.123 65.2036 156.349 61.3466C158.576 57.4896 161.596 54.3013 164.746 52.4831C167.895 50.6649 170.915 50.3658 173.142 51.6514C175.369 52.9371 176.62 55.7023 176.62 59.3387L179.994 57.3904Z" fill="url(#paint9_angular_575_14068)"/>
<path fill-rule="evenodd" clip-rule="evenodd" d="M164.746 66.194C166.038 65.4479 167.086 63.6332 167.086 62.1408C167.086 60.6485 164.746 56.1699 164.746 56.1699C164.746 56.1699 162.406 63.3506 162.406 64.843C162.406 66.3353 163.453 66.9402 164.746 66.194ZM164.708 64.5597C165.187 64.2829 165.576 63.6097 165.576 63.0561C165.576 62.5025 165.187 62.2781 164.708 62.5549C164.228 62.8317 163.84 63.5049 163.84 64.0585C163.84 64.6121 164.228 64.8365 164.708 64.5597Z" fill="#2595FF"/>
<rect width="42.4471" height="24.8441" rx="5" transform="matrix(0.866025 0.5 -2.20305e-08 1 27.5068 11.5557)" fill="url(#paint10_linear_575_14068)" fill-opacity="0.29"/>
<rect width="42.4471" height="24.8441" rx="5" transform="matrix(0.866025 0.5 -2.20305e-08 1 25.0205 12.2405)" fill="#2595FF"/>
<path d="M36.564 37.0621L36.564 25.6458L39.0147 27.0607L39.0147 38.477L36.564 37.0621Z" fill="white"/>
<path d="M41.3158 28.3892L45.9508 31.0652C47.1347 31.7488 48.141 32.6994 48.9697 33.9172C49.7866 35.1282 50.1951 36.2719 50.1951 37.3483C50.1951 38.4247 49.7866 39.0968 48.9697 39.3645C48.141 39.6253 47.1347 39.414 45.9508 38.7305L43.7665 37.4694L43.7665 41.2205L41.3158 39.8056L41.3158 28.3892ZM43.7665 35.3655L45.9508 36.6266C46.4717 36.9274 46.9038 37.0138 47.2472 36.8858C47.5905 36.747 47.7622 36.4329 47.7622 35.9437C47.7622 35.4435 47.5905 34.9312 47.2472 34.4068C46.9038 33.8824 46.4717 33.4699 45.9508 33.1691L43.7665 31.908L43.7665 35.3655Z" fill="white"/>
<ellipse rx="0.820234" ry="0.652362" transform="matrix(0.866025 0.5 -2.20305e-08 1 43.4301 49.7793)" fill="#2595FF"/>
<ellipse rx="0.820234" ry="0.652363" transform="matrix(0.866025 0.5 -2.20305e-08 1 43.4301 53.041)" fill="#2595FF"/>
<ellipse rx="0.820234" ry="0.652363" transform="matrix(0.866025 0.5 -2.20305e-08 1 43.4301 56.303)" fill="#2595FF"/>
<ellipse rx="0.820234" ry="0.652363" transform="matrix(0.866025 0.5 -2.20305e-08 1 43.4301 59.5647)" fill="#2595FF"/>
<ellipse rx="0.820234" ry="0.652363" transform="matrix(0.866025 0.5 -2.20305e-08 1 43.4301 62.8264)" fill="#2595FF"/>
<ellipse rx="1.57212" ry="1.25036" transform="matrix(0.866025 0.5 -2.20305e-08 1 43.4303 66.6863)" fill="#2595FF"/>
<circle cx="34.1758" cy="114.242" r="16.8198" fill="url(#paint11_linear_575_14068)"/>
<circle cx="34.1758" cy="114.242" r="16.8198" fill="url(#paint12_radial_575_14068)"/>
<circle cx="34.1758" cy="114.242" r="16.8198" fill="url(#paint13_radial_575_14068)"/>
<circle cx="34.1758" cy="114.242" r="16.8198" fill="url(#paint14_radial_575_14068)"/>
<circle cx="34.1758" cy="114.242" r="16.8198" fill="url(#paint15_radial_575_14068)"/>
<g style="mix-blend-mode:lighten">
<ellipse cx="33.264" cy="109.986" rx="10.4364" ry="9.32183" fill="url(#paint16_linear_575_14068)"/>
</g>
<g style="mix-blend-mode:lighten">
<path d="M27.163 109.071C26.4877 108.861 26.1012 108.136 26.4195 107.505C26.9734 106.406 27.7846 105.45 28.7915 104.721C29.7985 103.993 30.9608 103.522 32.1777 103.34C32.8771 103.235 33.4442 103.829 33.432 104.536V104.536C33.4199 105.243 32.8287 105.791 32.1402 105.952C31.4786 106.108 30.8499 106.393 30.2924 106.796C29.7349 107.2 29.2672 107.707 28.9125 108.287C28.5435 108.89 27.8383 109.281 27.163 109.071V109.071Z" fill="url(#paint17_linear_575_14068)"/>
</g>
</g>
<defs>
<linearGradient id="paint0_linear_575_14068" x1="102.946" y1="28.4392" x2="102.946" y2="157.462" gradientUnits="userSpaceOnUse">
<stop stop-color="#FEFDFF"/>
<stop offset="1" stop-color="#F2F8FF"/>
</linearGradient>
<linearGradient id="paint1_linear_575_14068" x1="102.945" y1="56.5432" x2="102.945" y2="129.358" gradientUnits="userSpaceOnUse">
<stop stop-color="#FEFDFF"/>
<stop offset="1" stop-color="#F2F8FF"/>
</linearGradient>
<linearGradient id="paint2_linear_575_14068" x1="27.6281" y1="0" x2="27.6281" y2="86.1557" gradientUnits="userSpaceOnUse">
<stop offset="0.773958" stop-color="#2087F8" stop-opacity="0.43"/>
<stop offset="1" stop-color="#3A98FF" stop-opacity="0"/>
</linearGradient>
<linearGradient id="paint3_linear_575_14068" x1="27.6281" y1="0" x2="27.6281" y2="86.1557" gradientUnits="userSpaceOnUse">
<stop offset="0.51875" stop-color="#2595FF"/>
<stop offset="1" stop-color="#3A98FF" stop-opacity="0"/>
</linearGradient>
<linearGradient id="paint4_linear_575_14068" x1="27.6281" y1="0" x2="27.6281" y2="86.1557" gradientUnits="userSpaceOnUse">
<stop stop-color="#40FFC6"/>
<stop offset="1" stop-color="#2595FF"/>
</linearGradient>
<linearGradient id="paint5_linear_575_14068" x1="68.3073" y1="151.443" x2="71.3677" y2="106.207" gradientUnits="userSpaceOnUse">
<stop stop-color="#CDE7FF"/>
<stop offset="1" stop-color="#E3EDFF" stop-opacity="0"/>
</linearGradient>
<linearGradient id="paint6_linear_575_14068" x1="54.8495" y1="126.947" x2="64.7397" y2="78.5522" gradientUnits="userSpaceOnUse">
<stop stop-color="#CDE7FF"/>
<stop offset="1" stop-color="#E3EDFF" stop-opacity="0"/>
</linearGradient>
<linearGradient id="paint7_linear_575_14068" x1="27.0651" y1="0" x2="27.0651" y2="39.835" gradientUnits="userSpaceOnUse">
<stop offset="0.773958" stop-color="#2087F8" stop-opacity="0.43"/>
<stop offset="1" stop-color="#3A98FF" stop-opacity="0"/>
</linearGradient>
<linearGradient id="paint8_linear_575_14068" x1="27.0651" y1="0" x2="27.0651" y2="39.835" gradientUnits="userSpaceOnUse">
<stop offset="0.51875" stop-color="#2595FF"/>
<stop offset="1" stop-color="#3A98FF" stop-opacity="0"/>
</linearGradient>
<radialGradient id="paint9_angular_575_14068" cx="0" cy="0" r="1" gradientUnits="userSpaceOnUse" gradientTransform="translate(164.746 66.1942) rotate(-48.9885) scale(20.7641 12.8629)">
<stop stop-color="#47B8EF"/>
<stop offset="0.435317" stop-color="#6CDEA5"/>
<stop offset="0.435417" stop-color="#1400FF"/>
<stop offset="0.76865" stop-color="#54C5D6"/>
<stop offset="0.76875" stop-color="#4EFD92"/>
<stop offset="1" stop-color="#23FBB2"/>
</radialGradient>
<linearGradient id="paint10_linear_575_14068" x1="21.2236" y1="0" x2="21.2236" y2="24.8441" gradientUnits="userSpaceOnUse">
<stop offset="0.51875" stop-color="#2595FF"/>
<stop offset="1" stop-color="#3A98FF" stop-opacity="0"/>
</linearGradient>
<linearGradient id="paint11_linear_575_14068" x1="34.1758" y1="97.4219" x2="34.1758" y2="131.062" gradientUnits="userSpaceOnUse">
<stop stop-color="#40FFC6"/>
<stop offset="0.492708" stop-color="#4AE6FF"/>
<stop offset="1" stop-color="#2595FF"/>
</linearGradient>
<radialGradient id="paint12_radial_575_14068" cx="0" cy="0" r="1" gradientUnits="userSpaceOnUse" gradientTransform="translate(27.2676 104.03) rotate(62.6223) scale(37.8827)">
<stop offset="0.462106" stop-color="#2AA8FF" stop-opacity="0"/>
<stop offset="0.894737" stop-color="#2595FF"/>
</radialGradient>
<radialGradient id="paint13_radial_575_14068" cx="0" cy="0" r="1" gradientUnits="userSpaceOnUse" gradientTransform="translate(26.0662 104.63) rotate(56.6259) scale(45.3177)">
<stop stop-color="#6EFFCE"/>
<stop offset="0.570035" stop-color="#A5FFFD" stop-opacity="0"/>
</radialGradient>
<radialGradient id="paint14_radial_575_14068" cx="0" cy="0" r="1" gradientUnits="userSpaceOnUse" gradientTransform="translate(30.8719 107.634) rotate(63.4349) scale(24.1599)">
<stop offset="0.672439" stop-color="#9EC6FD" stop-opacity="0"/>
<stop offset="1" stop-color="white"/>
</radialGradient>
<radialGradient id="paint15_radial_575_14068" cx="0" cy="0" r="1" gradientUnits="userSpaceOnUse" gradientTransform="translate(32.3574 110.605) rotate(62.0378) scale(20.8443)">
<stop offset="0.961458" stop-color="#2AA8FF" stop-opacity="0"/>
<stop offset="1" stop-color="#058AFF" stop-opacity="0.26"/>
</radialGradient>
<linearGradient id="paint16_linear_575_14068" x1="27.3004" y1="103.07" x2="34.8249" y2="111.426" gradientUnits="userSpaceOnUse">
<stop stop-color="white" stop-opacity="0.86"/>
<stop offset="1" stop-color="#D9D9D9" stop-opacity="0"/>
</linearGradient>
<linearGradient id="paint17_linear_575_14068" x1="33.2673" y1="104.014" x2="28.7214" y2="109.241" gradientUnits="userSpaceOnUse">
<stop stop-color="white"/>
<stop offset="1" stop-color="#FFFFE9" stop-opacity="0.38"/>
</linearGradient>
<clipPath id="clip0_575_14068">
<rect width="219" height="170" fill="white" transform="translate(0.5)"/>
</clipPath>
</defs>
</svg>
