<svg width="340" height="323" viewBox="0 0 340 323" fill="none" xmlns="http://www.w3.org/2000/svg">
<circle cx="163" cy="141" r="101" fill="url(#paint0_linear_876_33842)" stroke="#CFE8FF" stroke-width="2" stroke-linecap="round" stroke-dasharray="7 0"/>
<circle cx="163" cy="141" r="56" fill="url(#paint1_linear_876_33842)" stroke="#CFE8FF" stroke-width="2" stroke-linecap="square" stroke-dasharray="1 10"/>
<rect width="86.5097" height="134.886" rx="10" transform="matrix(0.866025 0.5 -2.20305e-08 1 132.734 78.4135)" fill="url(#paint2_linear_876_33842)" fill-opacity="0.29"/>
<rect width="86.5097" height="134.886" rx="10" transform="matrix(0.866025 0.5 -2.20305e-08 1 128.072 80.1779)" fill="url(#paint3_linear_876_33842)" fill-opacity="0.72"/>
<rect x="1.73205" y="3" width="82.5097" height="130.886" rx="8" transform="matrix(0.866025 0.5 -2.20305e-08 1 122.086 81.3673)" fill="url(#paint4_linear_876_33842)" stroke="#EBF4FF" stroke-width="4"/>
<path d="M171.555 191.86C173.06 192.999 174.524 192.881 174.635 191.468C174.874 188.444 174.471 185.027 173.44 181.405C172.118 176.763 169.806 171.936 166.719 167.369C163.632 162.803 159.868 158.646 155.778 155.282C152.586 152.657 149.275 150.582 146.034 149.165C144.519 148.503 143.63 149.47 144.016 151.127V151.127C144.401 152.784 145.915 154.498 147.436 155.21C149.766 156.301 152.131 157.819 154.418 159.699C157.604 162.319 160.535 165.557 162.94 169.114C165.344 172.671 167.145 176.431 168.174 180.046C168.913 182.641 169.238 185.101 169.141 187.312C169.077 188.756 170.05 190.72 171.555 191.86V191.86Z" fill="white"/>
<path d="M160.514 183.399C162.067 184.573 163.59 184.461 163.554 182.924C163.523 181.596 163.291 180.158 162.86 178.656C162.129 176.107 160.851 173.453 159.145 170.941C157.438 168.429 155.357 166.139 153.096 164.284C151.762 163.19 150.392 162.268 149.028 161.544C147.451 160.706 146.529 161.703 146.926 163.4V163.4C147.324 165.097 148.91 166.841 150.481 167.894C150.888 168.167 151.294 168.469 151.693 168.796C153.022 169.886 154.244 171.232 155.247 172.708C156.25 174.184 157.001 175.743 157.43 177.241C157.559 177.691 157.658 178.131 157.726 178.558C157.989 180.205 158.962 182.226 160.514 183.399V183.399Z" fill="white"/>
<path d="M152.165 176.889C152.165 178.999 150.321 179.645 148.045 178.332C145.77 177.018 143.926 174.242 143.926 172.132C143.926 170.021 145.77 169.375 148.045 170.689C150.321 172.002 152.165 174.778 152.165 176.889Z" fill="white"/>
<path d="M135.533 90.1304L183.407 117.77V117.77C183.407 121.708 180.642 123.305 177.232 121.336L141.708 100.826C138.298 98.8572 135.533 94.0685 135.533 90.1304V90.1304Z" fill="#F2F7FF"/>
<rect width="26.5631" height="1.78264" rx="0.891321" transform="matrix(0.866025 0.5 -2.20305e-08 1 147.968 99.9836)" fill="#40FFC6"/>
<path d="M299.036 143.287C300.997 145.32 302.4 147.527 303.197 149.902L302.249 150.22C302.445 150.801 302.601 151.393 302.717 151.996C302.833 152.598 302.908 153.205 302.943 153.818L303.942 153.76C304.085 156.261 303.603 158.832 302.54 161.448L301.613 161.072C301.162 162.181 300.599 163.306 299.925 164.444L300.786 164.953C299.553 167.035 297.975 169.139 296.071 171.253L295.328 170.583C294.494 171.509 293.596 172.438 292.634 173.371L293.329 174.089C291.553 175.81 289.569 177.534 287.389 179.256L286.769 178.471C285.777 179.256 284.742 180.04 283.666 180.823L284.255 181.632C282.225 183.111 280.053 184.586 277.747 186.053L277.21 185.21C276.129 185.898 275.018 186.584 273.878 187.268L274.392 188.126C272.211 189.435 269.926 190.735 267.54 192.025L267.064 191.146C265.935 191.757 264.782 192.365 263.608 192.971L264.066 193.86C261.786 195.036 259.424 196.202 256.983 197.356L256.556 196.452C255.393 197.002 254.212 197.549 253.014 198.093L253.427 199.003C251.08 200.069 248.667 201.122 246.191 202.163L245.804 201.241C244.614 201.74 243.41 202.237 242.192 202.73L242.567 203.657C240.172 204.626 237.722 205.583 235.22 206.526L234.868 205.59C233.655 206.047 232.43 206.5 231.193 206.95L231.535 207.89C229.103 208.775 226.624 209.646 224.102 210.503L223.781 209.556C222.547 209.975 221.304 210.39 220.05 210.802L220.361 211.752C217.898 212.56 215.396 213.354 212.857 214.133L212.564 213.176C211.315 213.559 210.058 213.938 208.791 214.313L209.075 215.272C206.583 216.011 204.057 216.734 201.499 217.442L201.233 216.478C199.981 216.824 198.721 217.166 197.454 217.505L197.712 218.471C195.198 219.142 192.654 219.798 190.083 220.438L189.842 219.467C188.574 219.783 187.299 220.094 186.018 220.401L186.251 221.374C183.718 221.981 181.159 222.572 178.578 223.146L178.36 222.17C177.087 222.453 175.807 222.732 174.522 223.007L174.731 223.985C172.18 224.531 169.607 225.059 167.014 225.57L166.821 224.589C166.176 224.716 165.53 224.842 164.883 224.967C164.236 225.092 163.59 225.215 162.944 225.337L163.13 226.32C160.532 226.81 157.948 227.276 155.377 227.719L155.207 226.733C153.912 226.956 152.621 227.173 151.333 227.384L151.494 228.371C148.884 228.798 146.289 229.201 143.712 229.58L143.567 228.591C142.263 228.782 140.964 228.967 139.67 229.146L139.807 230.137C137.183 230.499 134.577 230.837 131.994 231.149L131.874 230.156C130.572 230.313 129.275 230.464 127.985 230.608L128.096 231.602C125.458 231.897 122.844 232.165 120.256 232.406L120.163 231.411C118.848 231.534 117.54 231.649 116.238 231.759L116.322 232.755C113.675 232.977 111.057 233.171 108.47 233.337L108.406 232.339C107.089 232.423 105.78 232.5 104.48 232.57L104.533 233.569C101.874 233.712 99.2488 233.825 96.6617 233.909L96.6295 232.909C95.3141 232.951 94.0085 232.986 92.7131 233.013L92.7339 234.013C90.0609 234.069 87.431 234.092 84.8472 234.083L84.8507 233.083C83.5362 233.078 82.2339 233.065 80.944 233.044L80.9275 234.044C78.2419 233.999 75.61 233.919 73.0354 233.803L73.0804 232.804C71.7657 232.745 70.4662 232.676 69.1823 232.598L69.1219 233.597C66.427 233.433 63.8002 233.23 61.2461 232.986L61.3411 231.99C60.0255 231.865 58.7296 231.729 57.454 231.582L57.3397 232.575C54.6452 232.265 52.0395 231.908 49.5285 231.504L49.6872 230.517C48.3739 230.306 47.0871 230.082 45.8278 229.846L45.6433 230.829C42.957 230.324 40.3923 229.763 37.9574 229.145L38.2034 228.176C36.9136 227.848 35.6615 227.505 34.4483 227.147L34.1649 228.106C31.5008 227.318 29.0178 226.456 26.7288 225.519L27.1075 224.593C25.8675 224.086 24.6876 223.558 23.5697 223.008L23.1288 223.906C20.5755 222.652 18.3276 221.286 16.409 219.813L17.0182 219.02C15.9696 218.214 15.0287 217.38 14.1972 216.517L13.4774 217.212C11.5168 215.179 10.1131 212.972 9.31612 210.597L10.2642 210.279C10.069 209.697 9.91301 209.105 9.79681 208.503C9.68061 207.901 9.60527 207.293 9.5701 206.681L8.57175 206.738C8.42811 204.237 8.91022 201.667 9.97388 199.05L10.9003 199.427C11.3513 198.317 11.9144 197.193 12.588 196.055L11.7276 195.545C12.9602 193.464 14.539 191.36 16.4426 189.246L17.1857 189.915C18.0191 188.99 18.9177 188.06 19.88 187.128L19.1842 186.41C20.9605 184.689 22.9444 182.964 25.1244 181.242L25.7443 182.027C26.737 181.243 27.7717 180.459 28.8472 179.675L28.2583 178.867C30.2886 177.388 32.4604 175.913 34.7664 174.445L35.3032 175.289C36.3843 174.601 37.4955 173.915 38.636 173.23L38.1215 172.373C40.3021 171.064 42.588 169.763 44.9738 168.473L45.4494 169.353C46.5789 168.742 47.7311 168.134 48.9056 167.528L48.4471 166.639C50.7272 165.463 53.0897 164.296 55.5306 163.142L55.958 164.046C57.1208 163.497 58.3016 162.95 59.4999 162.406L59.0866 161.495C61.4333 160.43 63.8464 159.376 66.3227 158.336L66.71 159.258C67.8994 158.758 69.1035 158.262 70.3219 157.769L69.9467 156.842C72.3416 155.872 74.7914 154.915 77.2934 153.973L77.6459 154.909C78.8584 154.452 80.0832 153.998 81.32 153.548L80.9781 152.609C83.4106 151.724 85.8891 150.852 88.4113 149.996L88.7328 150.943C89.9661 150.524 91.2099 150.109 92.4639 149.697L92.1521 148.747C94.6152 147.939 97.1174 147.145 99.6567 146.366L99.9499 147.322C101.198 146.939 102.456 146.56 103.722 146.185L103.438 145.226C105.931 144.488 108.457 143.764 111.014 143.057L111.281 144.021C112.533 143.675 113.792 143.332 115.059 142.994L114.801 142.028C117.316 141.356 119.859 140.7 122.43 140.061L122.672 141.031C123.94 140.716 125.214 140.405 126.495 140.097L126.262 139.125C128.796 138.518 131.354 137.926 133.936 137.352L134.153 138.329C135.427 138.045 136.706 137.766 137.991 137.491L137.782 136.514C140.333 135.968 142.906 135.439 145.499 134.928L145.693 135.91C146.337 135.783 146.983 135.657 147.63 135.532C148.277 135.407 148.924 135.284 149.57 135.162L149.384 134.179C151.981 133.689 154.566 133.223 157.137 132.78L157.307 133.765C158.602 133.542 159.893 133.326 161.181 133.115L161.019 132.128C163.629 131.7 166.224 131.297 168.802 130.919L168.947 131.908C170.25 131.717 171.549 131.532 172.844 131.353L172.707 130.362C175.331 129.999 177.936 129.662 180.52 129.35L180.64 130.343C181.942 130.186 183.238 130.035 184.529 129.891L184.418 128.897C187.055 128.602 189.669 128.334 192.257 128.092L192.35 129.088C193.665 128.965 194.974 128.849 196.275 128.74L196.191 127.744C198.838 127.522 201.456 127.328 204.043 127.162L204.107 128.16C205.424 128.076 206.733 127.998 208.034 127.928L207.98 126.93C210.64 126.787 213.265 126.673 215.852 126.59L215.884 127.59C217.199 127.547 218.505 127.513 219.8 127.486L219.78 126.486C222.453 126.43 225.083 126.407 227.666 126.416L227.663 127.416C228.977 127.421 230.28 127.434 231.57 127.455L231.586 126.455C234.272 126.5 236.904 126.58 239.478 126.696L239.433 127.695C240.748 127.754 242.047 127.823 243.331 127.9L243.392 126.902C246.087 127.065 248.713 127.269 251.267 127.513L251.172 128.508C252.488 128.634 253.784 128.77 255.06 128.917L255.174 127.923C257.868 128.234 260.474 128.591 262.985 128.994L262.826 129.982C264.14 130.193 265.426 130.417 266.686 130.653L266.87 129.67C269.557 130.174 272.121 130.736 274.556 131.354L274.31 132.323C275.6 132.65 276.852 132.993 278.065 133.352L278.349 132.393C281.013 133.18 283.496 134.043 285.785 134.98L285.406 135.905C286.646 136.413 287.826 136.941 288.944 137.49L289.385 136.593C291.938 137.847 294.186 139.212 296.105 140.686L295.495 141.479C296.544 142.285 297.485 143.119 298.316 143.981L299.036 143.287Z" stroke="url(#paint5_linear_876_33842)" stroke-opacity="0.72" stroke-width="2" stroke-dasharray="4 8"/>
<path d="M303.537 217.365C301.763 223.034 296.172 227.425 287.119 230.354C278.096 233.272 265.861 234.657 251.239 234.477C222.009 234.118 183.478 227.509 142.594 214.713C101.709 201.917 66.2861 185.38 42.0666 169.011C29.9513 160.822 20.6886 152.709 14.9399 145.168C9.17173 137.601 7.08199 130.805 8.85638 125.136C10.6308 119.467 16.2216 115.075 25.2747 112.147C34.2972 109.228 46.5325 107.844 61.1542 108.023C90.3843 108.383 128.915 114.991 169.8 127.787C210.684 140.583 246.108 157.121 270.327 173.49C282.442 181.678 291.705 189.791 297.454 197.333C303.222 204.9 305.312 211.695 303.537 217.365Z" stroke="url(#paint6_linear_876_33842)" stroke-width="2"/>
<path d="M331 130L333.431 136.569L340 139L333.431 141.431L331 148L328.569 141.431L322 139L328.569 136.569L331 130Z" fill="#2595FF"/>
<path d="M312 159L313.621 163.379L318 165L313.621 166.621L312 171L310.379 166.621L306 165L310.379 163.379L312 159Z" fill="#CFE8FF"/>
<path d="M13 90L14.6205 94.3795L19 96L14.6205 97.6205L13 102L11.3795 97.6205L7 96L11.3795 94.3795L13 90Z" fill="#CFE8FF"/>
<circle cx="196.5" cy="45.5" r="5.5" fill="#2595FF"/>
<circle cx="297.5" cy="224.5" r="5.5" fill="#40FFC6"/>
<rect width="84.747" height="62.3661" rx="10" transform="matrix(0.866025 -0.5 2.20305e-08 1 213.546 69.564)" fill="url(#paint7_linear_876_33842)" fill-opacity="0.29"/>
<rect width="84.747" height="62.3661" rx="10" transform="matrix(0.866025 -0.5 2.20305e-08 1 218.509 72.0204)" fill="url(#paint8_linear_876_33842)" fill-opacity="0.72"/>
<rect width="84.747" height="62.3661" rx="10" transform="matrix(0.866025 -0.5 2.20305e-08 1 223 74.7498)" fill="#E7F3FF"/>
<path d="M283.629 85.3261C283.629 81.0226 282.756 77.2827 281.081 74.4058L276.362 79.8726C277.666 82.1129 278.345 85.0252 278.345 88.3763L283.629 85.3261Z" fill="#47B8EF"/>
<path d="M281.119 74.4722C278.537 69.9845 274.163 67.8178 268.81 68.3747C263.456 68.9317 257.488 72.1745 252.015 77.5003L253.728 82.2824C257.99 78.1352 262.637 75.61 266.806 75.1763C270.975 74.7426 274.381 76.4299 276.391 79.9244L281.119 74.4722Z" fill="#23FBB2"/>
<path d="M252.106 77.4124C247.428 81.9399 243.357 87.7474 240.451 94.0351C237.546 100.323 235.95 106.781 235.884 112.521L241.167 109.553C241.218 105.083 242.461 100.054 244.723 95.1581C246.986 90.2618 250.156 85.7395 253.799 82.214L252.106 77.4124Z" fill="#2595FF"/>
<path fill-rule="evenodd" clip-rule="evenodd" d="M259.756 99.1094C261.779 97.9412 263.419 95.1001 263.419 92.7636C263.419 90.4271 259.756 83.4155 259.756 83.4155C259.756 83.4155 256.092 94.6577 256.092 96.9941C256.092 99.3306 257.732 100.278 259.756 99.1094ZM259.696 96.5506C260.447 96.1172 261.055 95.0633 261.055 94.1965C261.055 93.3298 260.447 92.9785 259.696 93.4118C258.945 93.8452 258.337 94.8992 258.337 95.7659C258.337 96.6327 258.945 96.984 259.696 96.5506Z" fill="#2595FF"/>
<rect width="66.4558" height="38.8963" rx="5" transform="matrix(0.866025 0.5 -2.20305e-08 1 44.8923 13.5667)" fill="url(#paint9_linear_876_33842)" fill-opacity="0.29"/>
<rect width="66.4558" height="38.8963" rx="5" transform="matrix(0.866025 0.5 -2.20305e-08 1 41 14.6388)" fill="#2595FF"/>
<path d="M59.0723 53.5L59.0723 35.6265L62.9091 37.8417L62.9091 55.7152L59.0723 53.5Z" fill="white"/>
<path d="M66.5118 39.9217L73.7684 44.1113C75.6219 45.1814 77.1974 46.6698 78.4949 48.5764C79.7738 50.4723 80.4133 52.2629 80.4133 53.9481C80.4133 55.6334 79.7738 56.6855 78.4949 57.1047C77.1974 57.5131 75.6219 57.1822 73.7684 56.1121L70.3486 54.1377L70.3486 60.0104L66.5118 57.7952L66.5118 39.9217ZM70.3486 50.8438L73.7684 52.8182C74.5839 53.2891 75.2605 53.4244 75.798 53.224C76.3355 53.0067 76.6043 52.515 76.6043 51.749C76.6043 50.966 76.3355 50.1639 75.798 49.3429C75.2605 48.5219 74.5839 47.876 73.7684 47.4051L70.3486 45.4307L70.3486 50.8438Z" fill="white"/>
<ellipse rx="1.28417" ry="1.02135" transform="matrix(0.866025 0.5 -2.20305e-08 1 69.8221 73.41)" fill="#2595FF"/>
<ellipse rx="1.28417" ry="1.02135" transform="matrix(0.866025 0.5 -2.20305e-08 1 69.8221 78.5167)" fill="#2595FF"/>
<ellipse rx="1.28417" ry="1.02135" transform="matrix(0.866025 0.5 -2.20305e-08 1 69.8221 83.6235)" fill="#2595FF"/>
<ellipse rx="1.28417" ry="1.02135" transform="matrix(0.866025 0.5 -2.20305e-08 1 69.8221 88.7302)" fill="#2595FF"/>
<ellipse rx="1.28417" ry="1.02135" transform="matrix(0.866025 0.5 -2.20305e-08 1 69.8221 93.8369)" fill="#2595FF"/>
<ellipse rx="2.46133" ry="1.95758" transform="matrix(0.866025 0.5 -2.20305e-08 1 69.823 99.8799)" fill="#2595FF"/>
<circle cx="55.3333" cy="174.333" r="26.3333" fill="url(#paint10_linear_876_33842)"/>
<circle cx="55.3333" cy="174.333" r="26.3333" fill="url(#paint11_radial_876_33842)"/>
<circle cx="55.3333" cy="174.333" r="26.3333" fill="url(#paint12_radial_876_33842)"/>
<circle cx="55.3333" cy="174.333" r="26.3333" fill="url(#paint13_radial_876_33842)"/>
<circle cx="55.3333" cy="174.333" r="26.3333" fill="url(#paint14_radial_876_33842)"/>
<g style="mix-blend-mode:lighten">
<ellipse cx="53.9055" cy="167.671" rx="16.3394" ry="14.5944" fill="url(#paint15_linear_876_33842)"/>
</g>
<g style="mix-blend-mode:lighten">
<path d="M44.3535 166.237C43.2962 165.909 42.691 164.775 43.1894 163.786C44.0565 162.066 45.3266 160.568 46.9031 159.428C48.4796 158.288 50.2994 157.55 52.2046 157.265C53.2995 157.101 54.1873 158.031 54.1683 159.138V159.138C54.1494 160.245 53.2237 161.102 52.1459 161.355C51.11 161.598 50.1257 162.045 49.2529 162.676C48.3801 163.308 47.6477 164.103 47.0925 165.011C46.5147 165.955 45.4107 166.566 44.3535 166.237V166.237Z" fill="url(#paint16_linear_876_33842)"/>
</g>
<defs>
<linearGradient id="paint0_linear_876_33842" x1="163" y1="40" x2="163" y2="242" gradientUnits="userSpaceOnUse">
<stop stop-color="#FEFDFF"/>
<stop offset="1" stop-color="#F2F8FF"/>
</linearGradient>
<linearGradient id="paint1_linear_876_33842" x1="163" y1="84" x2="163" y2="198" gradientUnits="userSpaceOnUse">
<stop stop-color="#FEFDFF"/>
<stop offset="1" stop-color="#F2F8FF"/>
</linearGradient>
<linearGradient id="paint2_linear_876_33842" x1="43.2548" y1="0" x2="43.2548" y2="134.886" gradientUnits="userSpaceOnUse">
<stop offset="0.773958" stop-color="#2087F8" stop-opacity="0.43"/>
<stop offset="1" stop-color="#3A98FF" stop-opacity="0"/>
</linearGradient>
<linearGradient id="paint3_linear_876_33842" x1="43.2548" y1="0" x2="43.2548" y2="134.886" gradientUnits="userSpaceOnUse">
<stop offset="0.51875" stop-color="#2595FF"/>
<stop offset="1" stop-color="#3A98FF" stop-opacity="0"/>
</linearGradient>
<linearGradient id="paint4_linear_876_33842" x1="43.2548" y1="0" x2="43.2548" y2="134.886" gradientUnits="userSpaceOnUse">
<stop stop-color="#40FFC6"/>
<stop offset="1" stop-color="#2595FF"/>
</linearGradient>
<linearGradient id="paint5_linear_876_33842" x1="108.77" y1="232.577" x2="113.562" y2="161.755" gradientUnits="userSpaceOnUse">
<stop stop-color="#CDE7FF"/>
<stop offset="1" stop-color="#E3EDFF" stop-opacity="0"/>
</linearGradient>
<linearGradient id="paint6_linear_876_33842" x1="87.7006" y1="194.225" x2="103.185" y2="118.457" gradientUnits="userSpaceOnUse">
<stop stop-color="#CDE7FF"/>
<stop offset="1" stop-color="#E3EDFF" stop-opacity="0"/>
</linearGradient>
<linearGradient id="paint7_linear_876_33842" x1="42.3735" y1="0" x2="42.3735" y2="62.3661" gradientUnits="userSpaceOnUse">
<stop offset="0.773958" stop-color="#2087F8" stop-opacity="0.43"/>
<stop offset="1" stop-color="#3A98FF" stop-opacity="0"/>
</linearGradient>
<linearGradient id="paint8_linear_876_33842" x1="42.3735" y1="0" x2="42.3735" y2="62.3661" gradientUnits="userSpaceOnUse">
<stop offset="0.51875" stop-color="#2595FF"/>
<stop offset="1" stop-color="#3A98FF" stop-opacity="0"/>
</linearGradient>
<linearGradient id="paint9_linear_876_33842" x1="33.2279" y1="0" x2="33.2279" y2="38.8963" gradientUnits="userSpaceOnUse">
<stop offset="0.51875" stop-color="#2595FF"/>
<stop offset="1" stop-color="#3A98FF" stop-opacity="0"/>
</linearGradient>
<linearGradient id="paint10_linear_876_33842" x1="55.3333" y1="148" x2="55.3333" y2="200.667" gradientUnits="userSpaceOnUse">
<stop stop-color="#40FFC6"/>
<stop offset="0.492708" stop-color="#4AE6FF"/>
<stop offset="1" stop-color="#2595FF"/>
</linearGradient>
<radialGradient id="paint11_radial_876_33842" cx="0" cy="0" r="1" gradientUnits="userSpaceOnUse" gradientTransform="translate(44.5179 158.345) rotate(62.6223) scale(59.3097)">
<stop offset="0.462106" stop-color="#2AA8FF" stop-opacity="0"/>
<stop offset="0.894737" stop-color="#2595FF"/>
</radialGradient>
<radialGradient id="paint12_radial_876_33842" cx="0" cy="0" r="1" gradientUnits="userSpaceOnUse" gradientTransform="translate(42.6369 159.286) rotate(56.6259) scale(70.9499)">
<stop stop-color="#6EFFCE"/>
<stop offset="0.570035" stop-color="#A5FFFD" stop-opacity="0"/>
</radialGradient>
<radialGradient id="paint13_radial_876_33842" cx="0" cy="0" r="1" gradientUnits="userSpaceOnUse" gradientTransform="translate(50.1607 163.988) rotate(63.4349) scale(37.825)">
<stop offset="0.672439" stop-color="#9EC6FD" stop-opacity="0"/>
<stop offset="1" stop-color="white"/>
</radialGradient>
<radialGradient id="paint14_radial_876_33842" cx="0" cy="0" r="1" gradientUnits="userSpaceOnUse" gradientTransform="translate(52.4865 168.64) rotate(62.0378) scale(32.6341)">
<stop offset="0.961458" stop-color="#2AA8FF" stop-opacity="0"/>
<stop offset="1" stop-color="#058AFF" stop-opacity="0.26"/>
</radialGradient>
<linearGradient id="paint15_linear_876_33842" x1="44.5687" y1="156.843" x2="56.3492" y2="169.926" gradientUnits="userSpaceOnUse">
<stop stop-color="white" stop-opacity="0.86"/>
<stop offset="1" stop-color="#D9D9D9" stop-opacity="0"/>
</linearGradient>
<linearGradient id="paint16_linear_876_33842" x1="53.9103" y1="158.32" x2="46.7932" y2="166.504" gradientUnits="userSpaceOnUse">
<stop stop-color="white"/>
<stop offset="1" stop-color="#FFFFE9" stop-opacity="0.38"/>
</linearGradient>
</defs>
</svg>
