<svg width="900" height="655" viewBox="0 0 900 655" fill="none" xmlns="http://www.w3.org/2000/svg">
<path fill-rule="evenodd" clip-rule="evenodd" d="M446.495 125.997L213.712 260.395C200.32 268.127 200.32 280.663 213.712 288.395L402.344 397.302C415.736 405.034 437.45 405.034 450.842 397.302L683.625 262.904C697.017 255.172 697.017 242.636 683.625 234.904L494.993 125.997C481.601 118.265 459.888 118.265 446.495 125.997ZM211.981 259.395C197.632 267.679 197.632 281.111 211.981 289.395L400.613 398.302C414.962 406.586 438.226 406.586 452.574 398.302L685.357 263.904C699.706 255.62 699.706 242.188 685.357 233.904L496.726 124.997C482.377 116.713 459.113 116.713 444.764 124.997L211.981 259.395Z" fill="#F5F8FE"/>
<path fill-rule="evenodd" clip-rule="evenodd" d="M590.495 269.997L357.713 404.395C344.321 412.127 344.321 424.663 357.713 432.395L546.344 541.302C559.736 549.034 581.449 549.034 594.841 541.302L827.625 406.904C841.017 399.172 841.017 386.636 827.625 378.904L638.994 269.997C625.602 262.265 603.888 262.265 590.495 269.997ZM355.981 403.395C341.632 411.679 341.632 425.111 355.981 433.395L544.612 542.302C558.961 550.586 582.225 550.586 596.573 542.302L829.357 407.904C843.706 399.62 843.706 386.188 829.357 377.904L640.726 268.997C626.377 260.713 603.112 260.713 588.763 268.997L355.981 403.395Z" fill="#F5F8FE"/>
<path fill-rule="evenodd" clip-rule="evenodd" d="M156.354 334.997L15.7124 416.197C2.32018 423.929 2.32018 436.465 15.7124 444.197L192.827 546.454C206.219 554.186 227.932 554.186 241.325 546.454L381.966 465.254C395.358 457.522 395.358 444.986 381.966 437.254L204.852 334.997C191.459 327.265 169.746 327.265 156.354 334.997ZM13.9804 415.197C-0.368452 423.481 -0.368456 436.912 13.9804 445.197L191.095 547.454C205.444 555.738 228.708 555.738 243.057 547.454L383.698 466.254C398.047 457.97 398.047 444.539 383.698 436.254L206.584 333.997C192.235 325.713 168.971 325.713 154.622 333.997L13.9804 415.197Z" fill="#F5F8FE"/>
<path d="M209.598 335.539C211.365 334.518 211.365 332.864 209.598 331.844C207.831 330.824 204.966 330.824 203.199 331.844C201.432 332.864 201.432 334.518 203.199 335.539C204.966 336.559 207.831 336.559 209.598 335.539Z" fill="#40FFC6"/>
<path d="M558.212 278.694C561.04 277.061 561.04 274.415 558.212 272.783C555.385 271.151 550.802 271.151 547.974 272.783C545.147 274.415 545.147 277.061 547.974 278.694C550.802 280.326 555.385 280.326 558.212 278.694Z" fill="#40FFC6"/>
<path d="M510.357 521.864C513.184 520.231 513.184 517.585 510.357 515.953C507.53 514.32 502.946 514.32 500.119 515.953C497.292 517.585 497.292 520.231 500.119 521.864C502.946 523.496 507.53 523.496 510.357 521.864Z" fill="#40FFC6"/>
<path d="M780.357 351.864C783.184 350.231 783.184 347.585 780.357 345.953C777.53 344.32 772.946 344.32 770.119 345.953C767.292 347.585 767.292 350.231 770.119 351.864C772.946 353.496 777.53 353.496 780.357 351.864Z" fill="#2595FF"/>
<path d="M583.808 150.131C585.575 149.111 585.575 147.457 583.808 146.437C582.041 145.417 579.176 145.417 577.409 146.437C575.642 147.457 575.642 149.111 577.409 150.131C579.176 151.152 582.041 151.152 583.808 150.131Z" fill="#2595FF"/>
<path d="M654.195 501.092C657.022 499.46 657.022 496.814 654.195 495.181C651.368 493.549 646.784 493.549 643.957 495.181C641.13 496.814 641.13 499.46 643.957 501.092C646.784 502.724 651.368 502.724 654.195 501.092Z" fill="#2595FF"/>
<path d="M388.005 180.424C390.833 178.792 390.833 176.146 388.005 174.513C385.178 172.881 380.595 172.881 377.767 174.513C374.94 176.146 374.94 178.792 377.767 180.424C380.595 182.056 385.178 182.056 388.005 180.424Z" fill="#2595FF"/>
<g opacity="0.3" filter="url(#filter0_f_877_35132)">
<path d="M15.8457 388.85C12.2407 386.755 12.0509 383.136 15.8457 381.041L85.6691 340.281C89.2741 338.186 95.3457 338.186 98.9507 340.281L169.154 381.041C172.759 383.136 172.948 386.755 169.154 388.85L99.5199 429.611C95.9149 431.706 89.8433 431.706 86.2383 429.611L15.8457 388.85Z" fill="#96AEE5"/>
</g>
<path d="M172 331.519C172 331.709 172 331.709 172 331.9V332.09C172 332.281 172 332.281 172 332.471V332.662C172 332.852 172 332.852 171.81 333.042C171.81 333.233 171.621 333.233 171.621 333.423C171.621 333.614 171.431 333.614 171.241 333.804C171.051 333.995 171.051 333.995 170.862 334.185C170.862 334.185 170.672 334.376 170.482 334.376L170.292 334.566C170.103 334.566 170.103 334.757 169.913 334.757C169.723 334.757 169.723 334.947 169.533 334.947L99.5208 375.898L99.3311 426.182L169.154 385.421C169.154 385.421 169.154 385.421 169.344 385.421L169.533 385.231C169.723 385.231 169.723 385.04 169.913 385.04L170.103 384.85C170.292 384.85 170.292 384.659 170.482 384.659C170.672 384.469 170.672 384.469 170.862 384.278L171.051 384.088C171.051 384.088 171.051 383.898 171.241 383.898C171.241 383.707 171.431 383.707 171.431 383.517C171.431 383.326 171.431 383.326 171.621 383.136V382.945C171.621 382.945 171.621 382.755 171.621 382.564V382.374C171.621 382.374 171.621 382.183 171.621 381.993V381.802L171.81 331.519C172 331.328 172 331.519 172 331.519Z" fill="#E4E7FB"/>
<path d="M15.8461 335.139C13.9487 333.996 13 332.663 13 331.139V381.423C13 382.756 13.9487 384.28 15.8461 385.423L86.0489 426.183L86.2387 375.899L15.8461 335.139Z" fill="#EFF1FE"/>
<path d="M169.154 327.33C172.759 329.425 172.949 333.044 169.154 335.139L99.5206 375.9C95.9156 377.995 89.844 377.995 86.239 375.9L16.0361 335.139C12.4311 333.044 12.2414 329.425 16.0361 327.33L85.6698 286.76C89.2748 284.665 95.3464 284.665 98.9514 286.76L169.154 327.33Z" fill="white"/>
<path d="M15.8467 332.091C12.2417 329.995 12.0519 326.376 15.8467 324.281L85.6701 283.521C89.2751 281.426 95.3467 281.426 98.9517 283.521L169.154 324.281C172.759 326.376 172.949 329.995 169.154 332.091L99.5209 372.851C95.9159 374.946 89.8443 374.946 86.2393 372.851L15.8467 332.091Z" fill="url(#paint0_linear_877_35132)"/>
<path d="M98.3812 426.564C98.7607 426.373 99.8991 425.802 100.089 425.611V375.518C99.8991 375.709 98.7607 376.28 98.571 376.28C98.571 376.28 98.3812 376.28 98.3812 376.47C98.1915 376.661 97.812 376.661 97.6223 376.661C97.6223 376.661 97.4325 376.661 97.4325 376.851C97.2428 376.851 97.0531 376.851 96.8633 377.042C96.6736 377.042 96.6736 377.042 96.4838 377.232C96.2941 377.232 96.1044 377.232 95.9146 377.423C95.7249 377.423 95.7249 377.423 95.5352 377.423C95.1557 377.423 94.7762 377.613 94.3967 377.613C94.207 377.613 94.207 377.613 94.0173 377.613C93.8275 377.613 93.6378 377.613 93.448 377.613C93.2583 377.613 93.2583 377.613 93.0686 377.613C92.8788 377.613 92.6891 377.613 92.4994 377.613C92.3096 377.613 92.1199 377.613 92.1199 377.613C91.9301 377.613 91.7404 377.613 91.7404 377.613C91.5507 377.613 91.3609 377.613 91.3609 377.613C91.1712 377.613 90.9815 377.613 90.9815 377.613C90.7917 377.613 90.602 377.613 90.602 377.613C90.4122 377.613 90.2225 377.613 90.0328 377.613C89.843 377.613 89.843 377.613 89.6533 377.613C89.4636 377.613 89.2738 377.613 89.0841 377.423C88.8943 377.423 88.8943 377.423 88.7046 377.423C88.3251 377.232 87.9457 377.232 87.7559 377.042C87.5662 377.042 87.3764 376.851 87.3764 376.851C87.3764 376.851 87.1867 376.851 87.1867 376.661C86.6175 376.089 85.2893 375.328 85.0996 375.328V425.611C85.2893 425.802 86.4278 426.373 86.8072 426.564C86.8072 426.564 86.997 426.564 86.997 426.754C87.1867 426.754 87.1867 426.945 87.3764 426.945C87.7559 427.135 87.9457 427.135 88.3251 427.326H88.5149C88.7046 427.326 88.8943 427.516 89.0841 427.516H89.2738H89.4636C89.6533 427.516 89.843 427.516 90.0328 427.516H90.2225H90.4122C90.602 427.516 90.7917 427.516 90.7917 427.516H90.9815H91.1712C91.3609 427.516 91.5507 427.516 91.5507 427.516H91.7404H91.9301C92.1199 427.516 92.3096 427.516 92.4994 427.516H92.6891H92.8788C93.0686 427.516 93.2583 427.516 93.448 427.516H93.6378C94.0173 427.516 94.3967 427.516 94.7762 427.326C94.9659 427.326 94.9659 427.326 95.1557 427.326C95.3454 427.326 95.5352 427.326 95.7249 427.135C95.9146 427.135 95.9146 427.135 96.1044 426.945C96.2941 426.945 96.4838 426.945 96.6736 426.754C96.6736 426.754 96.6736 426.754 96.8633 426.754H97.0531C97.2428 426.754 97.6223 426.564 97.812 426.373C98.3812 426.564 98.3812 426.564 98.3812 426.564Z" fill="url(#paint1_linear_877_35132)"/>
<path d="M68.0233 377.614L64.4183 375.518C63.2798 374.947 62.3311 375.328 62.3311 376.661C62.3311 377.994 63.2798 379.518 64.4183 380.09L67.8335 382.185C68.972 382.756 69.9206 382.375 69.9206 381.042C69.9206 379.709 69.1617 378.185 68.0233 377.614Z" fill="#96AEE5"/>
<path d="M68.0233 385.041L64.4183 382.946C63.2798 382.375 62.3311 382.756 62.3311 384.089C62.3311 385.422 63.2798 386.946 64.4183 387.517L67.8335 389.612C68.972 390.184 69.9206 389.803 69.9206 388.47C69.9206 387.327 69.1617 385.803 68.0233 385.041Z" fill="#96AEE5"/>
<path d="M68.0233 392.659L64.4183 390.564C63.2798 389.993 62.3311 390.374 62.3311 391.707C62.3311 393.04 63.2798 394.564 64.4183 395.135L67.8335 397.231C68.972 397.802 69.9206 397.421 69.9206 396.088C69.9206 394.755 69.1617 393.231 68.0233 392.659Z" fill="#40FFC6"/>
<path d="M68.0233 400.088L64.4183 397.993C63.2798 397.422 62.3311 397.802 62.3311 399.136C62.3311 400.469 63.2798 401.993 64.4183 402.564L67.8335 404.659C68.972 405.231 69.9206 404.85 69.9206 403.517C69.9206 402.374 69.1617 400.66 68.0233 400.088Z" fill="#96AEE5"/>
<path d="M78.0798 382.947L74.4748 380.851C73.3364 380.28 72.3877 380.661 72.3877 381.994C72.3877 383.327 73.3364 384.851 74.4748 385.423L78.0798 387.518C79.2182 388.089 80.1669 387.708 80.1669 386.375C80.1669 385.042 79.2182 383.518 78.0798 382.947Z" fill="#2595FF"/>
<path d="M78.0798 390.374L74.4748 388.279C73.3364 387.708 72.3877 388.089 72.3877 389.422C72.3877 390.755 73.3364 392.279 74.4748 392.85L78.0798 394.945C79.2182 395.517 80.1669 395.136 80.1669 393.803C80.1669 392.66 79.2182 390.946 78.0798 390.374Z" fill="#96AEE5"/>
<path d="M78.0798 397.803L74.4748 395.708C73.3364 395.136 72.3877 395.517 72.3877 396.851C72.3877 398.184 73.3364 399.708 74.4748 400.279L78.0798 402.374C79.2182 402.946 80.1669 402.565 80.1669 401.231C80.1669 400.089 79.2182 398.565 78.0798 397.803Z" fill="#96AEE5"/>
<path d="M78.0798 405.421L74.4748 403.326C73.3364 402.755 72.3877 403.135 72.3877 404.469C72.3877 405.802 73.3364 407.326 74.4748 407.897L78.0798 409.992C79.2182 410.564 80.1669 410.183 80.1669 408.85C80.1669 407.707 79.2182 405.993 78.0798 405.421Z" fill="#96AEE5"/>
<path d="M54.9323 392.469L19.4514 371.898C18.313 371.327 17.3643 371.708 17.3643 373.041C17.3643 374.374 18.313 375.898 19.4514 376.469L54.9323 397.04C56.0707 397.611 57.0194 397.231 57.0194 395.897C57.0194 394.754 56.0707 393.231 54.9323 392.469Z" fill="url(#paint2_linear_877_35132)"/>
<path d="M54.9323 381.994L19.4514 361.424C18.313 360.852 17.3643 361.233 17.3643 362.566C17.3643 363.9 18.313 365.423 19.4514 365.995L54.9323 386.565C56.0707 387.137 57.0194 386.756 57.0194 385.423C57.0194 384.089 56.0707 382.566 54.9323 381.994Z" fill="url(#paint3_linear_877_35132)"/>
<path d="M54.9323 371.328L19.4514 350.758C18.313 350.186 17.3643 350.567 17.3643 351.9C17.3643 353.234 18.313 354.757 19.4514 355.329L54.9323 375.899C56.0707 376.471 57.0194 376.09 57.0194 374.757C57.0194 373.423 56.0707 371.9 54.9323 371.328Z" fill="url(#paint4_linear_877_35132)"/>
<path d="M156.441 383.326L111.853 409.42V377.803L156.441 351.708V383.326Z" fill="url(#paint5_linear_877_35132)"/>
<path d="M75.993 329.043C75.2341 328.662 75.2341 327.9 75.993 327.329L91.172 318.567C91.931 318.186 93.2591 318.186 94.0181 318.567L109.197 327.329C109.956 327.71 109.956 328.472 109.197 329.043L94.0181 337.805C93.2591 338.186 91.931 338.186 91.172 337.805L75.993 329.043Z" fill="url(#paint6_linear_877_35132)"/>
<path d="M92.6901 345.614C91.7415 345.614 90.7928 345.424 90.0338 345.043L64.2295 329.996C63.4706 329.615 62.9014 328.853 62.9014 328.091C62.9014 327.329 63.2808 326.758 64.2295 326.186L89.8441 311.33C91.362 310.568 93.8286 310.568 95.1567 311.33L120.961 326.186C121.72 326.567 122.289 327.329 122.289 328.091C122.289 328.853 121.91 329.424 120.961 329.996L95.3465 344.852C94.5875 345.424 93.6388 345.614 92.6901 345.614ZM92.5004 311.711C91.7415 311.711 90.7928 311.901 90.4133 312.282L64.7987 327.139C64.4193 327.329 64.0398 327.71 64.0398 328.091C64.0398 328.472 64.2295 328.853 64.7987 329.043L90.603 343.9C91.7415 344.471 93.8286 344.471 94.967 343.9L120.582 329.043C120.961 328.853 121.34 328.472 121.34 328.091C121.34 327.71 121.151 327.329 120.582 327.139L94.5875 312.282C94.0183 311.901 93.2594 311.711 92.5004 311.711Z" fill="url(#paint7_linear_877_35132)"/>
<path d="M72.3333 183.665C72.3333 202.259 57.2602 217.332 38.6667 217.332C20.0731 217.332 5 202.259 5 183.665C5 165.072 20.0731 149.999 38.6667 149.999C57.2603 149.999 72.3333 165.072 72.3333 183.665Z" fill="url(#paint8_linear_877_35132)"/>
<path d="M72.3333 183.665C72.3333 202.259 57.2602 217.332 38.6667 217.332C20.0731 217.332 5 202.259 5 183.665C5 165.072 20.0731 149.999 38.6667 149.999C57.2603 149.999 72.3333 165.072 72.3333 183.665Z" fill="url(#paint9_radial_877_35132)"/>
<path d="M72.3333 183.665C72.3333 202.259 57.2602 217.332 38.6667 217.332C20.0731 217.332 5 202.259 5 183.665C5 165.072 20.0731 149.999 38.6667 149.999C57.2603 149.999 72.3333 165.072 72.3333 183.665Z" fill="url(#paint10_radial_877_35132)"/>
<path d="M72.3333 183.665C72.3333 202.259 57.2602 217.332 38.6667 217.332C20.0731 217.332 5 202.259 5 183.665C5 165.072 20.0731 149.999 38.6667 149.999C57.2603 149.999 72.3333 165.072 72.3333 183.665Z" fill="url(#paint11_radial_877_35132)"/>
<path d="M72.3333 183.665C72.3333 202.259 57.2602 217.332 38.6667 217.332C20.0731 217.332 5 202.259 5 183.665C5 165.072 20.0731 149.999 38.6667 149.999C57.2603 149.999 72.3333 165.072 72.3333 183.665Z" fill="url(#paint12_radial_877_35132)"/>
<g style="mix-blend-mode:lighten">
<path style="mix-blend-mode:lighten" d="M57.7313 175.146C57.7313 185.451 48.3788 193.805 36.8418 193.805C25.3048 193.805 15.9521 185.451 15.9521 175.146C15.9521 164.842 25.3048 156.488 36.8418 156.488C48.3788 156.488 57.7313 164.842 57.7313 175.146Z" fill="url(#paint13_linear_877_35132)"/>
</g>
<g style="mix-blend-mode:lighten">
<path style="mix-blend-mode:lighten" d="M24.6288 173.313C23.2771 172.893 22.5034 171.443 23.1405 170.179C24.2492 167.98 25.8729 166.066 27.8885 164.608C29.904 163.15 32.2305 162.207 34.6663 161.842C36.0661 161.633 37.2011 162.822 37.1769 164.237C37.1527 165.652 35.9692 166.748 34.5912 167.072C33.2668 167.383 32.0084 167.954 30.8926 168.761C29.7767 169.568 28.8404 170.584 28.1306 171.745C27.3919 172.952 25.9805 173.733 24.6288 173.313Z" fill="url(#paint14_linear_877_35132)"/>
</g>
<g opacity="0.3" filter="url(#filter1_f_877_35132)">
<path d="M252.703 209.3C249.279 207.314 249.099 203.883 252.703 201.897L319.013 163.254C322.437 161.268 328.203 161.268 331.626 163.254L398.297 201.897C401.721 203.883 401.901 207.314 398.297 209.3L332.167 247.943C328.743 249.929 322.977 249.929 319.553 247.943L252.703 209.3Z" fill="#96AEE5"/>
</g>
<path d="M401 154.948C401 155.129 401 155.129 401 155.309V155.49C401 155.67 401 155.67 401 155.851V156.031C401 156.212 401 156.212 400.82 156.393C400.82 156.573 400.64 156.573 400.64 156.754C400.64 156.934 400.459 156.934 400.279 157.115C400.099 157.295 400.099 157.295 399.919 157.476C399.919 157.476 399.739 157.657 399.558 157.657L399.378 157.837C399.198 157.837 399.198 158.018 399.018 158.018C398.838 158.018 398.838 158.198 398.657 158.198L332.167 197.022L331.987 244.693L398.297 206.05C398.297 206.05 398.297 206.05 398.477 206.05L398.657 205.87C398.838 205.87 398.838 205.689 399.018 205.689L399.198 205.509C399.378 205.509 399.378 205.328 399.558 205.328C399.739 205.148 399.739 205.148 399.919 204.967L400.099 204.786C400.099 204.786 400.099 204.606 400.279 204.606C400.279 204.425 400.459 204.425 400.459 204.245C400.459 204.064 400.459 204.064 400.64 203.883V203.703C400.64 203.703 400.64 203.522 400.64 203.342V203.161C400.64 203.161 400.64 202.981 400.64 202.8V202.619L400.82 154.948C401 154.767 401 154.948 401 154.948Z" fill="#E4E7FB"/>
<path d="M252.703 158.379C250.901 157.296 250 156.032 250 154.587V202.259C250 203.523 250.901 204.968 252.703 206.051L319.373 244.694L319.554 197.022L252.703 158.379Z" fill="#EFF1FE"/>
<path d="M398.297 150.975C401.721 152.961 401.901 156.392 398.297 158.378L332.167 197.021C328.744 199.008 322.978 199.008 319.554 197.021L252.883 158.378C249.46 156.392 249.279 152.961 252.883 150.975L319.013 112.513C322.437 110.526 328.203 110.526 331.627 112.513L398.297 150.975Z" fill="white"/>
<path d="M252.703 155.49C249.279 153.503 249.099 150.073 252.703 148.086L319.013 109.443C322.437 107.457 328.203 107.457 331.626 109.443L398.297 148.086C401.721 150.073 401.901 153.503 398.297 155.49L332.167 194.133C328.743 196.119 322.977 196.119 319.553 194.133L252.703 155.49Z" fill="url(#paint15_linear_877_35132)"/>
<path d="M331.086 245.053C331.446 244.873 332.527 244.331 332.707 244.151V196.66C332.527 196.84 331.446 197.382 331.266 197.382C331.266 197.382 331.086 197.382 331.086 197.562C330.905 197.743 330.545 197.743 330.365 197.743C330.365 197.743 330.185 197.743 330.185 197.924C330.004 197.924 329.824 197.924 329.644 198.104C329.464 198.104 329.464 198.104 329.284 198.285C329.103 198.285 328.923 198.285 328.743 198.465C328.563 198.465 328.563 198.465 328.383 198.465C328.022 198.465 327.662 198.646 327.302 198.646C327.121 198.646 327.121 198.646 326.941 198.646C326.761 198.646 326.581 198.646 326.401 198.646C326.22 198.646 326.22 198.646 326.04 198.646C325.86 198.646 325.68 198.646 325.5 198.646C325.319 198.646 325.139 198.646 325.139 198.646C324.959 198.646 324.779 198.646 324.779 198.646C324.599 198.646 324.418 198.646 324.418 198.646C324.238 198.646 324.058 198.646 324.058 198.646C323.878 198.646 323.698 198.646 323.698 198.646C323.518 198.646 323.337 198.646 323.157 198.646C322.977 198.646 322.977 198.646 322.797 198.646C322.617 198.646 322.436 198.646 322.256 198.465C322.076 198.465 322.076 198.465 321.896 198.465C321.535 198.285 321.175 198.285 320.995 198.104C320.815 198.104 320.634 197.924 320.634 197.924C320.634 197.924 320.454 197.924 320.454 197.743C319.914 197.201 318.652 196.479 318.472 196.479V244.151C318.652 244.331 319.734 244.873 320.094 245.053C320.094 245.053 320.274 245.053 320.274 245.234C320.454 245.234 320.454 245.415 320.634 245.415C320.995 245.595 321.175 245.595 321.535 245.776H321.716C321.896 245.776 322.076 245.956 322.256 245.956H322.436H322.617C322.797 245.956 322.977 245.956 323.157 245.956H323.337H323.518C323.698 245.956 323.878 245.956 323.878 245.956H324.058H324.238C324.418 245.956 324.599 245.956 324.599 245.956H324.779H324.959C325.139 245.956 325.319 245.956 325.5 245.956H325.68H325.86C326.04 245.956 326.22 245.956 326.401 245.956H326.581C326.941 245.956 327.302 245.956 327.662 245.776C327.842 245.776 327.842 245.776 328.022 245.776C328.202 245.776 328.383 245.776 328.563 245.595C328.743 245.595 328.743 245.595 328.923 245.415C329.103 245.415 329.284 245.415 329.464 245.234C329.464 245.234 329.464 245.234 329.644 245.234H329.824C330.004 245.234 330.365 245.053 330.545 244.873C331.086 245.053 331.086 245.053 331.086 245.053Z" fill="url(#paint16_linear_877_35132)"/>
<path d="M302.255 198.646L298.832 196.659C297.751 196.118 296.85 196.479 296.85 197.743C296.85 199.007 297.751 200.451 298.832 200.993L302.075 202.979C303.156 203.521 304.057 203.16 304.057 201.896C304.057 200.632 303.336 199.187 302.255 198.646Z" fill="#96AEE5"/>
<path d="M302.255 205.689L298.832 203.702C297.751 203.161 296.85 203.522 296.85 204.786C296.85 206.05 297.751 207.494 298.832 208.036L302.075 210.022C303.156 210.564 304.057 210.203 304.057 208.939C304.057 207.855 303.336 206.411 302.255 205.689Z" fill="#96AEE5"/>
<path d="M302.255 212.912L298.832 210.926C297.751 210.384 296.85 210.745 296.85 212.009C296.85 213.273 297.751 214.718 298.832 215.26L302.075 217.246C303.156 217.788 304.057 217.427 304.057 216.163C304.057 214.899 303.336 213.454 302.255 212.912Z" fill="#40FFC6"/>
<path d="M302.255 219.954L298.832 217.968C297.751 217.426 296.85 217.787 296.85 219.051C296.85 220.315 297.751 221.76 298.832 222.302L302.075 224.288C303.156 224.83 304.057 224.469 304.057 223.205C304.057 222.121 303.336 220.496 302.255 219.954Z" fill="#96AEE5"/>
<path d="M311.806 203.703L308.382 201.717C307.301 201.175 306.4 201.536 306.4 202.8C306.4 204.064 307.301 205.509 308.382 206.051L311.806 208.037C312.887 208.579 313.788 208.218 313.788 206.954C313.788 205.69 312.887 204.245 311.806 203.703Z" fill="#2595FF"/>
<path d="M311.806 210.745L308.382 208.759C307.301 208.217 306.4 208.578 306.4 209.842C306.4 211.106 307.301 212.551 308.382 213.093L311.806 215.079C312.887 215.621 313.788 215.26 313.788 213.996C313.788 212.912 312.887 211.287 311.806 210.745Z" fill="#96AEE5"/>
<path d="M311.806 217.787L308.382 215.801C307.301 215.259 306.4 215.62 306.4 216.884C306.4 218.148 307.301 219.593 308.382 220.135L311.806 222.121C312.887 222.663 313.788 222.302 313.788 221.038C313.788 219.954 312.887 218.51 311.806 217.787Z" fill="#96AEE5"/>
<path d="M311.806 225.01L308.382 223.024C307.301 222.482 306.4 222.843 306.4 224.107C306.4 225.371 307.301 226.816 308.382 227.357L311.806 229.344C312.887 229.885 313.788 229.524 313.788 228.26C313.788 227.177 312.887 225.552 311.806 225.01Z" fill="#96AEE5"/>
<path d="M289.822 212.731L256.126 193.229C255.045 192.687 254.144 193.048 254.144 194.312C254.144 195.576 255.045 197.021 256.126 197.562L289.822 217.064C290.903 217.606 291.804 217.245 291.804 215.981C291.804 214.897 290.903 213.453 289.822 212.731Z" fill="url(#paint17_linear_877_35132)"/>
<path d="M289.822 202.8L256.126 183.298C255.045 182.756 254.144 183.117 254.144 184.381C254.144 185.645 255.045 187.09 256.126 187.632L289.822 207.134C290.903 207.675 291.804 207.314 291.804 206.05C291.804 204.786 290.903 203.342 289.822 202.8Z" fill="url(#paint18_linear_877_35132)"/>
<path d="M289.822 192.687L256.126 173.185C255.045 172.643 254.144 173.004 254.144 174.268C254.144 175.532 255.045 176.977 256.126 177.518L289.822 197.02C290.903 197.562 291.804 197.201 291.804 195.937C291.804 194.673 290.903 193.228 289.822 192.687Z" fill="url(#paint19_linear_877_35132)"/>
<path d="M386.224 204.064L343.879 228.802V198.827L386.224 174.088V204.064Z" fill="url(#paint20_linear_877_35132)"/>
<path d="M309.823 152.599C309.103 152.238 309.103 151.516 309.823 150.974L324.239 142.668C324.959 142.307 326.221 142.307 326.941 142.668L341.357 150.974C342.077 151.335 342.077 152.058 341.357 152.599L326.941 160.906C326.221 161.267 324.959 161.267 324.239 160.906L309.823 152.599Z" fill="url(#paint21_linear_877_35132)"/>
<path d="M325.681 168.309C324.78 168.309 323.879 168.129 323.158 167.767L298.652 153.502C297.931 153.141 297.391 152.419 297.391 151.696C297.391 150.974 297.751 150.432 298.652 149.891L322.978 135.806C324.419 135.084 326.762 135.084 328.023 135.806L352.529 149.891C353.25 150.252 353.79 150.974 353.79 151.696C353.79 152.419 353.43 152.96 352.529 153.502L328.203 167.587C327.483 168.129 326.582 168.309 325.681 168.309ZM325.5 136.167C324.78 136.167 323.879 136.348 323.518 136.709L299.193 150.794C298.832 150.974 298.472 151.335 298.472 151.696C298.472 152.058 298.652 152.419 299.193 152.599L323.699 166.684C324.78 167.226 326.762 167.226 327.843 166.684L352.169 152.599C352.529 152.419 352.889 152.058 352.889 151.696C352.889 151.335 352.709 150.974 352.169 150.794L327.483 136.709C326.942 136.348 326.221 136.167 325.5 136.167Z" fill="url(#paint22_linear_877_35132)"/>
<g filter="url(#filter2_f_877_35132)">
<path d="M755.49 272.603C764.829 278.245 764.691 287.082 755.2 292.335L411.525 483.032C402.034 488.277 386.746 487.997 377.41 482.368L238.306 398.582C228.975 392.967 229.1 384.117 238.569 378.845L582.266 188.184C591.743 182.917 607.054 183.211 616.372 188.83L755.49 272.603Z" fill="#345CA6" fill-opacity="0.13"/>
</g>
<g opacity="0.3" filter="url(#filter3_f_877_35132)">
<path d="M596.526 496.829C592.059 494.244 591.824 489.781 596.526 487.196L683.037 436.907C687.503 434.322 695.026 434.322 699.493 436.907L786.474 487.196C790.94 489.781 791.175 494.244 786.474 496.829L700.198 547.119C695.731 549.704 688.209 549.704 683.742 547.119L596.526 496.829Z" fill="#96AEE5"/>
</g>
<path d="M790 426.097C790 426.332 790 426.332 790 426.567V426.802C790 427.037 790 427.037 790 427.272V427.507C790 427.742 790 427.742 789.765 427.977C789.765 428.212 789.53 428.212 789.53 428.447C789.53 428.682 789.295 428.682 789.06 428.917C788.824 429.152 788.824 429.152 788.589 429.387C788.589 429.387 788.354 429.622 788.119 429.622L787.884 429.857C787.649 429.857 787.649 430.092 787.414 430.092C787.179 430.092 787.179 430.327 786.944 430.327L700.198 480.851L699.963 542.889L786.474 492.6C786.474 492.6 786.474 492.6 786.709 492.6L786.944 492.365C787.179 492.365 787.179 492.13 787.414 492.13L787.649 491.895C787.884 491.895 787.884 491.66 788.119 491.66C788.354 491.425 788.354 491.425 788.589 491.19L788.824 490.955C788.824 490.955 788.824 490.72 789.06 490.72C789.06 490.485 789.295 490.485 789.295 490.25C789.295 490.015 789.295 490.015 789.53 489.78V489.545C789.53 489.545 789.53 489.31 789.53 489.075V488.84C789.53 488.84 789.53 488.605 789.53 488.37V488.135L789.765 426.097C790 425.862 790 426.097 790 426.097Z" fill="#E4E7FB"/>
<path d="M596.526 430.561C594.175 429.151 593 427.506 593 425.626V487.665C593 489.31 594.175 491.19 596.526 492.6L683.507 542.888L683.742 480.85L596.526 430.561Z" fill="#EFF1FE"/>
<path d="M786.474 420.926C790.94 423.511 791.175 427.976 786.474 430.561L700.198 480.85C695.732 483.435 688.209 483.435 683.742 480.85L596.761 430.561C592.295 427.976 592.06 423.511 596.761 420.926L683.037 370.873C687.504 368.288 695.026 368.288 699.493 370.873L786.474 420.926Z" fill="white"/>
<path d="M596.526 426.801C592.059 424.216 591.824 419.751 596.526 417.166L683.037 366.878C687.503 364.293 695.026 364.293 699.493 366.878L786.474 417.166C790.94 419.751 791.175 424.216 786.474 426.801L700.198 477.09C695.731 479.675 688.209 479.675 683.742 477.09L596.526 426.801Z" fill="url(#paint23_linear_877_35132)"/>
<path d="M698.787 543.359C699.258 543.124 700.668 542.419 700.903 542.184V480.381C700.668 480.616 699.258 481.321 699.022 481.321C699.022 481.321 698.787 481.321 698.787 481.556C698.552 481.791 698.082 481.79 697.847 481.79C697.847 481.79 697.612 481.791 697.612 482.026C697.377 482.026 697.142 482.025 696.907 482.26C696.672 482.26 696.672 482.261 696.437 482.496C696.201 482.496 695.966 482.495 695.731 482.73C695.496 482.73 695.496 482.73 695.261 482.73C694.791 482.73 694.321 482.966 693.851 482.966C693.616 482.966 693.616 482.966 693.38 482.966C693.145 482.966 692.91 482.966 692.675 482.966C692.44 482.966 692.44 482.966 692.205 482.966C691.97 482.966 691.735 482.966 691.5 482.966C691.265 482.966 691.03 482.966 691.03 482.966C690.795 482.966 690.559 482.966 690.559 482.966C690.324 482.966 690.089 482.966 690.089 482.966C689.854 482.966 689.619 482.966 689.619 482.966C689.384 482.966 689.149 482.966 689.149 482.966C688.914 482.966 688.679 482.966 688.444 482.966C688.209 482.966 688.209 482.966 687.974 482.966C687.738 482.966 687.503 482.965 687.268 482.73C687.033 482.73 687.033 482.73 686.798 482.73C686.328 482.495 685.858 482.495 685.623 482.26C685.388 482.26 685.153 482.026 685.153 482.026C685.153 482.026 684.917 482.025 684.917 481.79C684.212 481.085 682.567 480.146 682.332 480.146V542.184C682.567 542.419 683.977 543.124 684.447 543.359C684.447 543.359 684.682 543.359 684.682 543.594C684.917 543.594 684.917 543.828 685.153 543.828C685.623 544.063 685.858 544.064 686.328 544.299H686.563C686.798 544.299 687.033 544.534 687.268 544.534H687.503H687.738C687.974 544.534 688.209 544.534 688.444 544.534H688.679H688.914C689.149 544.534 689.384 544.534 689.384 544.534H689.619H689.854C690.089 544.534 690.324 544.534 690.324 544.534H690.559H690.795C691.03 544.534 691.265 544.534 691.5 544.534H691.735H691.97C692.205 544.534 692.44 544.534 692.675 544.534H692.91C693.38 544.534 693.851 544.534 694.321 544.299C694.556 544.299 694.556 544.299 694.791 544.299C695.026 544.299 695.261 544.299 695.496 544.064C695.731 544.064 695.731 544.063 695.966 543.828C696.201 543.828 696.437 543.829 696.672 543.594C696.672 543.594 696.672 543.594 696.907 543.594H697.142C697.377 543.594 697.847 543.359 698.082 543.124C698.787 543.359 698.787 543.359 698.787 543.359Z" fill="url(#paint24_linear_877_35132)"/>
<path d="M661.174 482.964L656.708 480.379C655.297 479.674 654.122 480.144 654.122 481.789C654.122 483.434 655.297 485.314 656.708 486.019L660.939 488.604C662.35 489.309 663.525 488.839 663.525 487.194C663.525 485.549 662.585 483.669 661.174 482.964Z" fill="#96AEE5"/>
<path d="M661.174 492.129L656.708 489.544C655.297 488.839 654.122 489.309 654.122 490.954C654.122 492.599 655.297 494.479 656.708 495.184L660.939 497.769C662.35 498.474 663.525 498.004 663.525 496.359C663.525 494.949 662.585 493.069 661.174 492.129Z" fill="#96AEE5"/>
<path d="M661.174 501.529L656.708 498.944C655.297 498.239 654.122 498.709 654.122 500.354C654.122 501.999 655.297 503.879 656.708 504.584L660.939 507.168C662.35 507.873 663.525 507.403 663.525 505.759C663.525 504.114 662.585 502.234 661.174 501.529Z" fill="#40FFC6"/>
<path d="M661.174 510.694L656.708 508.109C655.297 507.404 654.122 507.874 654.122 509.519C654.122 511.164 655.297 513.044 656.708 513.749L660.939 516.333C662.35 517.038 663.525 516.568 663.525 514.924C663.525 513.514 662.585 511.399 661.174 510.694Z" fill="#96AEE5"/>
<path d="M673.634 489.544L669.167 486.959C667.756 486.254 666.581 486.724 666.581 488.369C666.581 490.014 667.756 491.894 669.167 492.599L673.634 495.184C675.044 495.889 676.219 495.419 676.219 493.774C676.219 492.129 675.044 490.249 673.634 489.544Z" fill="#2595FF"/>
<path d="M673.634 498.709L669.167 496.124C667.756 495.419 666.581 495.889 666.581 497.534C666.581 499.179 667.756 501.059 669.167 501.764L673.634 504.349C675.044 505.054 676.219 504.584 676.219 502.939C676.219 501.529 675.044 499.414 673.634 498.709Z" fill="#96AEE5"/>
<path d="M673.634 507.873L669.167 505.288C667.756 504.583 666.581 505.053 666.581 506.698C666.581 508.343 667.756 510.223 669.167 510.928L673.634 513.513C675.044 514.218 676.219 513.748 676.219 512.103C676.219 510.693 675.044 508.813 673.634 507.873Z" fill="#96AEE5"/>
<path d="M673.634 517.274L669.167 514.689C667.756 513.984 666.581 514.454 666.581 516.099C666.581 517.744 667.756 519.624 669.167 520.329L673.634 522.914C675.044 523.619 676.219 523.149 676.219 521.504C676.219 520.094 675.044 517.979 673.634 517.274Z" fill="#96AEE5"/>
<path d="M644.953 501.294L600.993 475.914C599.582 475.209 598.407 475.679 598.407 477.324C598.407 478.969 599.582 480.849 600.993 481.554L644.953 506.934C646.364 507.639 647.539 507.169 647.539 505.524C647.539 504.114 646.364 502.234 644.953 501.294Z" fill="url(#paint25_linear_877_35132)"/>
<path d="M644.953 488.369L600.993 462.99C599.582 462.285 598.407 462.755 598.407 464.4C598.407 466.044 599.582 467.924 600.993 468.629L644.953 494.009C646.364 494.714 647.539 494.244 647.539 492.599C647.539 490.954 646.364 489.074 644.953 488.369Z" fill="url(#paint26_linear_877_35132)"/>
<path d="M644.953 475.21L600.993 449.83C599.582 449.125 598.407 449.595 598.407 451.24C598.407 452.885 599.582 454.765 600.993 455.47L644.953 480.85C646.364 481.555 647.539 481.085 647.539 479.44C647.539 477.795 646.364 475.915 644.953 475.21Z" fill="url(#paint27_linear_877_35132)"/>
<path d="M770.723 490.014L715.479 522.208V483.199L770.723 451.005V490.014Z" fill="url(#paint28_linear_877_35132)"/>
<path d="M671.048 423.041C670.107 422.571 670.107 421.631 671.048 420.926L689.854 410.117C690.795 409.647 692.44 409.647 693.38 410.117L712.187 420.926C713.127 421.396 713.127 422.336 712.187 423.041L693.38 433.851C692.44 434.321 690.795 434.321 689.854 433.851L671.048 423.041Z" fill="url(#paint29_linear_877_35132)"/>
<path d="M691.735 443.486C690.56 443.486 689.384 443.251 688.444 442.781L656.473 424.216C655.532 423.746 654.827 422.806 654.827 421.866C654.827 420.926 655.297 420.221 656.473 419.516L688.209 401.187C690.09 400.247 693.146 400.247 694.791 401.187L726.763 419.516C727.703 419.986 728.408 420.926 728.408 421.866C728.408 422.806 727.938 423.511 726.763 424.216L695.026 442.546C694.086 443.251 692.911 443.486 691.735 443.486ZM691.5 401.657C690.56 401.657 689.384 401.892 688.914 402.362L657.178 420.691C656.708 420.926 656.238 421.396 656.238 421.866C656.238 422.336 656.473 422.806 657.178 423.041L689.149 441.371C690.56 442.076 693.146 442.076 694.556 441.371L726.293 423.041C726.763 422.806 727.233 422.336 727.233 421.866C727.233 421.396 726.998 420.926 726.293 420.691L694.086 402.362C693.381 401.892 692.441 401.657 691.5 401.657Z" fill="url(#paint30_linear_877_35132)"/>
<g opacity="0.55" filter="url(#filter4_f_877_35132)">
<path d="M242.844 382.952C237.958 380.442 235.416 376.969 235.271 373.364C235.438 377.539 235.633 381.708 235.823 385.887C235.982 389.5 238.537 392.964 243.41 395.488L387.772 469.786L387.233 457.267L242.844 382.952Z" fill="#A2C4E7"/>
</g>
<g opacity="0.55" filter="url(#filter5_f_877_35132)">
<path d="M757.993 233.048C757.973 233.276 757.984 233.521 757.968 233.749C757.934 233.97 757.87 234.209 757.823 234.439C757.765 234.647 757.723 234.885 757.658 235.115C757.592 235.328 757.504 235.533 757.429 235.737C757.342 235.987 757.242 236.232 757.121 236.492C757.035 236.666 756.924 236.854 756.825 237.037C756.66 237.326 756.496 237.624 756.3 237.914C756.173 238.076 756.048 238.252 755.931 238.422C755.64 238.797 755.314 239.174 754.975 239.542C754.847 239.682 754.721 239.84 754.563 239.99C754.366 240.182 754.148 240.38 753.912 240.579C753.688 240.768 753.457 240.975 753.216 241.169C752.955 241.396 752.652 241.602 752.362 241.799C752.086 242.021 751.806 242.227 751.493 242.42L421.315 455.642C420.288 456.289 419.176 456.859 418.021 457.378C417.719 457.513 417.405 457.666 417.098 457.783C416.374 458.067 415.614 458.331 414.862 458.576C414.083 458.823 413.305 459.083 412.488 459.287C411.535 459.529 410.567 459.749 409.587 459.903C409.353 459.954 409.115 460.023 408.858 460.067C407.545 460.263 406.206 460.389 404.848 460.481C404.612 460.501 404.394 460.511 404.162 460.522C402.829 460.577 401.501 460.551 400.171 460.481C399.969 460.459 399.763 460.456 399.575 460.429C398.23 460.333 396.928 460.189 395.643 459.947C395.427 459.926 395.197 459.866 394.99 459.831C393.817 459.597 392.691 459.317 391.572 458.978C391.385 458.911 391.174 458.876 390.969 458.797C389.649 458.369 388.391 457.845 387.228 457.254L387.767 469.773C388.902 470.339 390.082 470.827 391.331 471.253C391.399 471.277 391.457 471.287 391.521 471.315C391.73 471.381 391.969 471.428 392.196 471.506C392.894 471.718 393.578 471.926 394.293 472.111C394.694 472.181 395.117 472.259 395.523 472.338C395.749 472.385 395.979 472.432 396.218 472.483C396.43 472.517 396.619 472.562 396.831 472.588C397.632 472.714 398.437 472.823 399.231 472.892C399.545 472.922 399.831 472.922 400.127 472.957C400.333 472.974 400.535 472.982 400.745 472.985C401.041 473.02 401.319 473.029 401.605 473.047C402.397 473.067 403.197 473.073 403.992 473.067C404.246 473.055 404.53 473.028 404.767 473.016C404.976 473.006 405.163 472.997 405.377 472.987C405.734 472.97 406.1 472.966 406.469 472.935C407.359 472.866 408.239 472.762 409.126 472.63C409.232 472.603 409.333 472.571 409.454 472.566C409.684 472.523 409.896 472.486 410.112 472.427C410.818 472.322 411.518 472.213 412.19 472.06C412.746 471.922 413.265 471.755 413.772 471.61C413.923 471.59 414.056 471.566 414.188 471.515C415.043 471.278 415.883 471.001 416.708 470.686C417.042 470.572 417.347 470.414 417.679 470.265C417.973 470.144 418.289 470.022 418.577 469.883C419.744 469.35 420.847 468.785 421.862 468.13L752.054 254.92C752.158 254.853 752.253 254.786 752.344 254.728C752.529 254.594 752.693 254.462 752.879 254.328C753.198 254.099 753.501 253.884 753.789 253.656C754.005 253.49 754.201 253.293 754.398 253.123C754.646 252.897 754.913 252.692 755.148 252.449C755.177 252.403 755.238 252.378 755.262 252.328C755.361 252.234 755.41 252.151 755.505 252.071C755.852 251.68 756.186 251.272 756.481 250.901C756.548 250.817 756.629 250.729 756.683 250.65C756.747 250.572 756.774 250.485 756.86 250.428C757.024 250.108 757.22 249.813 757.371 249.516C757.424 249.406 757.543 249.276 757.582 249.158C757.619 249.103 757.629 249.031 757.663 248.989C757.784 248.725 757.897 248.456 757.991 248.184C758.052 248.061 758.125 247.91 758.163 247.761C758.183 247.72 758.18 247.658 758.18 247.658C758.278 247.368 758.324 247.107 758.392 246.85C758.42 246.692 758.479 246.533 758.495 246.385C758.502 246.34 758.5 246.305 758.511 246.264C758.543 245.991 758.543 245.718 758.548 245.446C758.554 245.285 758.592 245.15 758.585 245.003C758.581 244.923 758.586 244.842 758.585 244.802C758.386 240.633 758.209 236.449 758.01 232.271C758.027 232.542 758.008 232.793 757.993 233.048Z" fill="#A2C4E7"/>
</g>
<path d="M406.01 471.67C406.18 471.662 406.345 471.645 406.528 471.632C407.418 471.562 408.342 471.465 409.273 471.313L409.508 471.271L409.659 471.265L409.747 471.229C410 471.19 410.221 471.14 410.459 471.075C411.019 471.008 411.745 470.88 412.452 470.726C412.943 470.604 413.342 470.486 413.73 470.378L414.181 470.251C414.296 470.236 414.518 470.19 414.724 470.109C415.491 469.903 416.406 469.605 417.288 469.264C417.53 469.186 417.849 469.036 418.176 468.882L418.377 468.783C418.605 468.697 418.973 468.545 419.319 468.391C420.713 467.749 421.846 467.142 422.829 466.506L752.156 254.078C752.434 253.896 752.576 253.787 752.718 253.669L752.984 253.473C753.278 253.268 753.569 253.062 753.853 252.835C754.029 252.701 754.208 252.536 754.375 252.376L754.753 252.05C754.955 251.876 755.152 251.701 755.331 251.51L755.465 251.414C755.465 251.414 755.692 251.154 755.734 251.094C756.197 250.59 756.56 250.15 756.88 249.738L757.088 249.486L757.231 249.391L757.464 248.947C757.464 248.947 757.888 248.209 757.982 248.031C758.012 247.998 758.11 247.863 758.203 247.663L758.32 247.417C758.463 247.125 758.587 246.819 758.702 246.51C758.754 246.379 758.814 246.242 758.861 246.106L759.041 245.755L759.038 245.514C759.076 245.37 759.193 244.85 759.193 244.85C759.269 244.561 759.322 244.341 759.338 244.126C759.386 243.714 759.404 243.369 759.406 243.025C759.433 242.859 759.446 242.662 759.438 242.466L759.08 231.201L754.713 229.938C754.721 230.093 754.706 230.258 754.692 230.424C754.692 230.424 754.673 230.973 754.669 231.063L754.549 231.577L754.445 232.02C754.392 232.205 754.343 232.306 754.307 232.41C754.172 232.764 754.115 232.949 754.017 233.145C753.968 233.228 753.894 233.37 753.807 233.507C753.638 233.81 753.515 234.043 753.369 234.255L753.017 234.736C752.807 235.018 752.522 235.34 752.224 235.658L751.848 236.076C751.737 236.188 751.556 236.344 751.367 236.505L751.153 236.693C751.008 236.821 750.853 236.962 750.693 237.09C750.436 237.312 750.203 237.466 749.978 237.619C749.62 237.886 749.427 238.047 749.192 238.188L420.027 450.54C419.172 451.076 418.144 451.617 417.012 452.135L416.172 452.505C415.497 452.778 414.77 453.013 414.066 453.247L413.667 453.368C413.077 453.565 412.474 453.756 411.852 453.906C410.815 454.187 409.931 454.38 409.115 454.508L408.364 454.67C407.206 454.841 405.912 454.968 404.576 455.059C404.345 455.079 403.935 455.099 403.917 455.1C402.785 455.145 401.573 455.14 400.135 455.066C400.014 455.045 399.773 455.038 399.527 455.023C398.132 454.915 396.954 454.766 395.868 454.568L395.188 454.446C394.146 454.237 393.089 453.97 392.014 453.646C392.005 453.642 391.828 453.585 391.657 453.548C390.236 453.081 389.079 452.6 388.026 452.066L384.854 450.456L385.602 467.742L386.695 468.287C387.935 468.901 389.22 469.438 390.509 469.867L390.651 469.932L391.424 470.14C392.167 470.368 392.88 470.587 393.644 470.774L394.978 471.023C395.195 471.075 395.446 471.116 395.73 471.165C395.879 471.203 396.101 471.25 396.335 471.288C397.217 471.424 398.058 471.537 398.892 471.613L399.766 471.669C400.045 471.696 400.3 471.71 400.568 471.71C400.734 471.734 401.062 471.763 401.397 471.765C402.198 471.798 403.02 471.799 403.842 471.795L403.882 471.794L406.01 471.67Z" fill="white"/>
<path d="M386.176 456.855L241.791 382.531C236.397 379.76 233.316 375.76 233.096 371.252C232.87 366.777 235.521 362.507 240.565 359.243L570.86 148.384C575.571 145.345 581.91 143.486 588.725 143.161C595.522 142.837 602.018 144.08 607.01 146.651L750.414 220.268C755.8 223.053 758.891 227.066 759.106 231.578C759.319 236.055 756.663 240.311 751.622 243.552L422.331 455.131C417.611 458.157 411.271 460.016 404.474 460.34C397.677 460.659 391.176 459.417 386.176 456.855ZM573.649 159.297L259.712 361.996C258.191 362.974 257.349 364.156 257.401 365.233C257.453 366.327 258.422 367.45 260.057 368.295L404.454 442.573C406.446 443.607 409.204 444.117 412.021 443.983C414.856 443.848 417.553 443.073 419.424 441.855L733.37 239.156C734.896 238.173 735.733 236.983 735.682 235.915C735.626 234.829 734.653 233.725 733.022 232.875L588.629 158.583C586.628 157.559 583.861 157.044 581.035 157.179C578.205 157.31 575.508 158.08 573.649 159.297Z" fill="white"/>
<path d="M750.352 220.459C760.047 225.464 760.499 234.291 751.381 240.166L421.207 453.388C412.088 459.255 396.815 459.996 387.125 455.004L242.736 380.694C233.05 375.715 232.584 366.876 241.68 360.983L571.877 147.796C580.982 141.908 596.278 141.179 605.95 146.163L750.352 220.459ZM420.548 443.595L734.508 240.895C739.035 237.949 738.794 233.533 733.971 231.046L589.582 156.741C584.738 154.256 577.076 154.612 572.517 157.554L258.585 360.262C254.03 363.2 254.295 367.647 259.109 370.138L403.492 444.408C408.324 446.916 415.99 446.55 420.548 443.595Z" fill="url(#paint31_linear_877_35132)"/>
<path d="M733.971 231.046C738.798 233.532 739.04 237.949 734.507 240.894L420.548 443.595C415.994 446.55 408.328 446.915 403.491 444.408L259.109 370.137C254.295 367.646 254.034 363.195 258.584 360.262L572.516 157.554C577.076 154.612 584.737 154.256 589.582 156.741L733.971 231.046Z" fill="url(#paint32_linear_877_35132)"/>
<path d="M496.889 311.482L544.938 280.601C554.92 274.185 571.704 273.236 582.321 278.709L516 321.334L496.889 311.482Z" fill="white"/>
<path fill-rule="evenodd" clip-rule="evenodd" d="M517.159 320.587C536.28 308.298 535.298 289.919 514.959 279.435C494.62 268.95 462.775 270.406 443.654 282.696C424.533 294.985 425.516 313.364 445.855 323.848C466.194 334.333 498.038 332.876 517.159 320.587ZM497.356 310.378C506.078 304.773 505.629 296.383 496.352 291.6C487.074 286.818 472.358 287.391 463.636 292.996C454.914 298.602 455.363 306.992 464.64 311.775C473.918 316.557 488.634 315.984 497.356 310.378Z" fill="white"/>
<path d="M389.092 452.605L243.641 377.739C239.598 375.67 237.312 372.903 237.188 369.921L233.046 370.078L235.004 370.011L233.046 370.091C233.186 373.675 233.352 377.248 233.505 380.826L233.589 382.606C233.782 387.123 236.878 391.155 242.292 393.951L386.694 468.27L389.092 452.605Z" fill="white"/>
<path d="M643.262 175.092C644.303 174.427 646.014 174.346 647.109 174.909L684.74 194.423C685.84 195.009 685.916 196.026 684.872 196.709C684.863 196.719 684.863 196.719 684.85 196.724C683.805 197.394 682.071 197.476 680.972 196.909L643.358 177.393C642.236 176.814 642.197 175.794 643.241 175.107C643.249 175.102 643.254 175.102 643.262 175.092Z" fill="url(#paint33_linear_877_35132)"/>
<path d="M242.735 380.692C237.85 378.191 235.308 374.718 235.162 371.108C235.33 375.283 235.524 379.452 235.714 383.626C235.874 387.249 238.429 390.713 243.302 393.232L387.663 467.53L387.125 455.011L242.735 380.692Z" fill="#D8EBFF"/>
<path d="M757.885 230.798C757.865 231.031 757.876 231.267 757.86 231.5C757.826 231.715 757.761 231.955 757.714 232.184C757.657 232.397 757.615 232.635 757.55 232.866C757.484 233.078 757.396 233.279 757.321 233.483C757.234 233.737 757.134 233.978 757.013 234.243C756.927 234.416 756.815 234.6 756.717 234.778C756.552 235.072 756.388 235.374 756.191 235.655C756.065 235.822 755.939 235.993 755.823 236.168C755.532 236.539 755.206 236.924 754.866 237.288C754.739 237.428 754.613 237.586 754.455 237.745C754.258 237.928 754.04 238.126 753.804 238.329C753.58 238.518 753.349 238.725 753.108 238.924C752.847 239.151 752.544 239.361 752.254 239.553C751.979 239.776 751.698 239.981 751.386 240.179L421.207 453.388C420.179 454.034 419.068 454.609 417.913 455.128C417.611 455.267 417.297 455.416 416.99 455.533C416.266 455.818 415.506 456.077 414.754 456.322C413.975 456.569 413.196 456.829 412.38 457.033C411.427 457.279 410.459 457.499 409.479 457.657C409.245 457.704 409.007 457.774 408.75 457.817C407.437 458.018 406.098 458.144 404.74 458.236C404.504 458.251 404.286 458.262 404.054 458.273C402.721 458.332 401.393 458.306 400.063 458.231C399.861 458.209 399.655 458.206 399.467 458.188C398.122 458.092 396.82 457.949 395.535 457.702C395.32 457.686 395.089 457.616 394.882 457.582C393.709 457.348 392.583 457.067 391.464 456.732C391.278 456.665 391.066 456.631 390.861 456.551C389.541 456.124 388.283 455.604 387.12 455.008L387.659 467.528C388.794 468.093 389.974 468.581 391.223 469.012C391.291 469.036 391.35 469.046 391.414 469.075C391.622 469.136 391.861 469.187 392.088 469.261C392.786 469.477 393.471 469.681 394.185 469.861C394.586 469.936 395.01 470.014 395.415 470.088C395.641 470.135 395.871 470.187 396.11 470.233C396.322 470.268 396.511 470.312 396.723 470.338C397.524 470.465 398.329 470.573 399.123 470.643C399.437 470.672 399.723 470.676 400.019 470.702C400.225 470.724 400.426 470.728 400.637 470.735C400.933 470.761 401.211 470.779 401.497 470.792C402.289 470.817 403.089 470.824 403.884 470.817C404.138 470.805 404.422 470.778 404.659 470.767C404.868 470.757 405.055 470.748 405.269 470.738C405.626 470.721 405.992 470.716 406.361 470.685C407.251 470.607 408.131 470.512 409.018 470.376C409.124 470.358 409.225 470.326 409.346 470.32C409.576 470.274 409.788 470.237 410.005 470.182C410.71 470.072 411.411 469.968 412.082 469.811C412.638 469.673 413.158 469.51 413.664 469.365C413.815 469.34 413.948 469.32 414.08 469.27C414.935 469.033 415.775 468.752 416.6 468.44C416.934 468.326 417.239 468.169 417.572 468.019C417.865 467.903 418.181 467.772 418.469 467.642C419.636 467.105 420.74 466.539 421.754 465.885L751.946 252.675C752.05 252.612 752.145 252.541 752.236 252.478C752.422 252.354 752.585 252.221 752.771 252.083C753.091 251.862 753.393 251.643 753.682 251.419C753.897 251.249 754.093 251.052 754.29 250.878C754.539 250.656 754.806 250.452 755.04 250.213C755.069 250.167 755.13 250.137 755.155 250.092C755.253 249.998 755.303 249.915 755.397 249.835C755.745 249.444 756.079 249.035 756.374 248.664C756.441 248.581 756.522 248.492 756.576 248.414C756.639 248.34 756.666 248.245 756.753 248.187C756.916 247.867 757.112 247.572 757.263 247.275C757.316 247.17 757.435 247.035 757.474 246.926C757.512 246.871 757.522 246.795 757.556 246.757C757.677 246.493 757.789 246.224 757.884 245.952C757.945 245.829 758.018 245.678 758.055 245.525C758.076 245.488 758.073 245.43 758.073 245.43C758.171 245.131 758.217 244.875 758.285 244.626C758.313 244.465 758.373 244.306 758.388 244.153C758.394 244.108 758.393 244.082 758.404 244.032C758.436 243.767 758.436 243.487 758.441 243.21C758.447 243.053 758.485 242.913 758.478 242.771C758.474 242.695 758.48 242.615 758.477 242.57C758.279 238.401 758.102 234.217 757.903 230.044C757.919 230.293 757.899 230.539 757.885 230.798Z" fill="url(#paint34_linear_877_35132)"/>
<path d="M322.082 428.093L304.374 419.086C303.564 418.678 302.944 419.065 302.987 419.972C303.03 420.871 303.715 421.94 304.521 422.352L322.229 431.359C323.03 431.771 323.66 431.38 323.621 430.477C323.578 429.574 322.884 428.51 322.082 428.093Z" fill="url(#paint35_linear_877_35132)"/>
<path d="M858 409.499C858 434.075 838.077 453.999 813.5 453.999C788.923 453.999 769 434.075 769 409.499C769 384.922 788.923 364.999 813.5 364.999C838.077 364.999 858 384.922 858 409.499Z" fill="url(#paint36_linear_877_35132)"/>
<path d="M858 409.499C858 434.075 838.077 453.999 813.5 453.999C788.923 453.999 769 434.075 769 409.499C769 384.922 788.923 364.999 813.5 364.999C838.077 364.999 858 384.922 858 409.499Z" fill="url(#paint37_radial_877_35132)"/>
<path d="M858 409.499C858 434.075 838.077 453.999 813.5 453.999C788.923 453.999 769 434.075 769 409.499C769 384.922 788.923 364.999 813.5 364.999C838.077 364.999 858 384.922 858 409.499Z" fill="url(#paint38_radial_877_35132)"/>
<path d="M858 409.499C858 434.075 838.077 453.999 813.5 453.999C788.923 453.999 769 434.075 769 409.499C769 384.922 788.923 364.999 813.5 364.999C838.077 364.999 858 384.922 858 409.499Z" fill="url(#paint39_radial_877_35132)"/>
<path d="M858 409.499C858 434.075 838.077 453.999 813.5 453.999C788.923 453.999 769 434.075 769 409.499C769 384.922 788.923 364.999 813.5 364.999C838.077 364.999 858 384.922 858 409.499Z" fill="url(#paint40_radial_877_35132)"/>
<g style="mix-blend-mode:lighten">
<path style="mix-blend-mode:lighten" d="M838.699 398.238C838.699 411.859 826.337 422.901 811.088 422.901C795.839 422.901 783.477 411.859 783.477 398.238C783.477 384.618 795.839 373.576 811.088 373.576C826.337 373.576 838.699 384.618 838.699 398.238Z" fill="url(#paint41_linear_877_35132)"/>
</g>
<g style="mix-blend-mode:lighten">
<path style="mix-blend-mode:lighten" d="M794.945 395.818C793.159 395.263 792.136 393.346 792.978 391.675C794.443 388.768 796.59 386.238 799.254 384.311C801.918 382.384 804.993 381.137 808.213 380.656C810.063 380.379 811.563 381.95 811.531 383.821C811.499 385.691 809.935 387.14 808.113 387.568C806.363 387.979 804.7 388.733 803.225 389.8C801.75 390.867 800.512 392.211 799.574 393.745C798.598 395.341 796.732 396.373 794.945 395.818Z" fill="url(#paint42_linear_877_35132)"/>
</g>
<path d="M159.731 130.625C159.731 127.864 161.67 126.745 164.061 128.125L254.937 180.593C257.328 181.973 259.267 185.331 259.267 188.093V245.363C259.267 248.125 257.328 249.244 254.937 247.863L164.061 195.396C161.67 194.015 159.731 190.658 159.731 187.896V130.625Z" fill="url(#paint43_linear_877_35132)" fill-opacity="0.29"/>
<path d="M153 132.479C153 129.718 154.939 128.598 157.33 129.979L248.206 182.446C250.598 183.827 252.536 187.185 252.536 189.946V247.217C252.536 249.978 250.598 251.098 248.206 249.717L157.33 197.25C154.939 195.869 153 192.511 153 189.75V132.479Z" fill="#2595FF"/>
<path d="M184.256 194.689V163.777L190.892 167.608V198.52L184.256 194.689Z" fill="white"/>
<path d="M197.121 171.206L209.672 178.452C212.877 180.303 215.602 182.877 217.846 186.175C220.058 189.454 221.164 192.55 221.164 195.465C221.164 198.38 220.058 200.199 217.846 200.924C215.602 201.63 212.877 201.058 209.672 199.207L203.757 195.793V205.95L197.121 202.118V171.206ZM203.757 190.096L209.672 193.511C211.082 194.325 212.252 194.559 213.182 194.213C214.111 193.837 214.576 192.986 214.576 191.662C214.576 190.307 214.111 188.92 213.182 187.5C212.252 186.08 211.082 184.963 209.672 184.149L203.757 180.734V190.096Z" fill="white"/>
<path d="M204.771 230.234C204.771 231.209 203.909 231.503 202.847 230.89C201.785 230.277 200.924 228.989 200.924 228.013C200.924 227.037 201.785 226.744 202.847 227.357C203.909 227.97 204.771 229.258 204.771 230.234Z" fill="#2595FF"/>
<path d="M204.771 239.066C204.771 240.042 203.909 240.335 202.847 239.722C201.785 239.109 200.924 237.821 200.924 236.845C200.924 235.869 201.785 235.576 202.847 236.189C203.909 236.802 204.771 238.09 204.771 239.066Z" fill="#2595FF"/>
<path d="M204.771 247.898C204.771 248.874 203.909 249.167 202.847 248.554C201.785 247.941 200.924 246.653 200.924 245.677C200.924 244.701 201.785 244.408 202.847 245.021C203.909 245.634 204.771 246.922 204.771 247.898Z" fill="#2595FF"/>
<path d="M204.771 256.73C204.771 257.706 203.909 257.999 202.847 257.386C201.785 256.773 200.924 255.485 200.924 254.509C200.924 253.534 201.785 253.24 202.847 253.853C203.909 254.466 204.771 255.754 204.771 256.73Z" fill="#2595FF"/>
<path d="M204.771 265.562C204.771 266.538 203.909 266.831 202.847 266.218C201.785 265.605 200.924 264.317 200.924 263.341C200.924 262.366 201.785 262.072 202.847 262.685C203.909 263.298 204.771 264.586 204.771 265.562Z" fill="#2595FF"/>
<path d="M206.535 277.033C206.535 278.902 204.884 279.465 202.848 278.29C200.812 277.114 199.162 274.646 199.162 272.776C199.162 270.906 200.812 270.343 202.848 271.519C204.884 272.694 206.535 275.163 206.535 277.033Z" fill="#2595FF"/>
<rect width="124.089" height="91.318" rx="10" transform="matrix(0.866025 -0.5 2.20305e-08 1 710.157 260.2)" fill="url(#paint44_linear_877_35132)" fill-opacity="0.29"/>
<rect width="124.089" height="91.318" rx="10" transform="matrix(0.866025 -0.5 2.20305e-08 1 717.424 263.797)" fill="url(#paint45_linear_877_35132)" fill-opacity="0.72"/>
<rect width="124.089" height="91.318" rx="10" transform="matrix(0.866025 -0.5 2.20305e-08 1 724 267.793)" fill="#E7F3FF"/>
<path d="M812.774 283.279C812.774 276.978 811.497 271.502 809.044 267.29L802.134 275.294C804.044 278.575 805.039 282.839 805.039 287.746L812.774 283.279Z" fill="#47B8EF"/>
<path d="M809.1 267.387C805.32 260.816 798.915 257.643 791.076 258.459C783.238 259.274 774.499 264.023 766.485 271.821L768.993 278.823C775.234 272.75 782.038 269.053 788.142 268.418C794.246 267.783 799.234 270.253 802.178 275.37L809.1 267.387Z" fill="#23FBB2"/>
<path d="M766.618 271.692C759.769 278.321 753.807 286.825 749.553 296.031C745.299 305.238 742.963 314.695 742.865 323.098L750.601 318.753C750.676 312.209 752.496 304.845 755.808 297.676C759.121 290.506 763.763 283.885 769.097 278.722L766.618 271.692Z" fill="#2595FF"/>
<path fill-rule="evenodd" clip-rule="evenodd" d="M777.819 303.461C780.781 301.751 783.183 297.591 783.183 294.17C783.183 290.748 777.819 280.482 777.819 280.482C777.819 280.482 772.454 296.943 772.454 300.364C772.454 303.785 774.856 305.172 777.819 303.461ZM777.732 299.715C778.831 299.08 779.722 297.537 779.722 296.268C779.722 294.999 778.831 294.484 777.732 295.119C776.632 295.753 775.741 297.297 775.741 298.566C775.741 299.835 776.632 300.349 777.732 299.715Z" fill="#2595FF"/>
<defs>
<filter id="filter0_f_877_35132" x="9.07031" y="334.71" width="166.858" height="100.473" filterUnits="userSpaceOnUse" color-interpolation-filters="sRGB">
<feFlood flood-opacity="0" result="BackgroundImageFix"/>
<feBlend mode="normal" in="SourceGraphic" in2="BackgroundImageFix" result="shape"/>
<feGaussianBlur stdDeviation="2" result="effect1_foregroundBlur_877_35132"/>
</filter>
<filter id="filter1_f_877_35132" x="246.067" y="157.765" width="158.866" height="95.668" filterUnits="userSpaceOnUse" color-interpolation-filters="sRGB">
<feFlood flood-opacity="0" result="BackgroundImageFix"/>
<feBlend mode="normal" in="SourceGraphic" in2="BackgroundImageFix" result="shape"/>
<feGaussianBlur stdDeviation="2" result="effect1_foregroundBlur_877_35132"/>
</filter>
<filter id="filter2_f_877_35132" x="220.387" y="173.417" width="553.021" height="324.368" filterUnits="userSpaceOnUse" color-interpolation-filters="sRGB">
<feFlood flood-opacity="0" result="BackgroundImageFix"/>
<feBlend mode="normal" in="SourceGraphic" in2="BackgroundImageFix" result="shape"/>
<feGaussianBlur stdDeviation="5.5" result="effect1_foregroundBlur_877_35132"/>
</filter>
<filter id="filter3_f_877_35132" x="589.087" y="430.968" width="204.825" height="122.09" filterUnits="userSpaceOnUse" color-interpolation-filters="sRGB">
<feFlood flood-opacity="0" result="BackgroundImageFix"/>
<feBlend mode="normal" in="SourceGraphic" in2="BackgroundImageFix" result="shape"/>
<feGaussianBlur stdDeviation="2" result="effect1_foregroundBlur_877_35132"/>
</filter>
<filter id="filter4_f_877_35132" x="231.271" y="369.364" width="160.501" height="104.422" filterUnits="userSpaceOnUse" color-interpolation-filters="sRGB">
<feFlood flood-opacity="0" result="BackgroundImageFix"/>
<feBlend mode="normal" in="SourceGraphic" in2="BackgroundImageFix" result="shape"/>
<feGaussianBlur stdDeviation="2" result="effect1_foregroundBlur_877_35132"/>
</filter>
<filter id="filter5_f_877_35132" x="383.228" y="228.271" width="379.357" height="248.798" filterUnits="userSpaceOnUse" color-interpolation-filters="sRGB">
<feFlood flood-opacity="0" result="BackgroundImageFix"/>
<feBlend mode="normal" in="SourceGraphic" in2="BackgroundImageFix" result="shape"/>
<feGaussianBlur stdDeviation="2" result="effect1_foregroundBlur_877_35132"/>
</filter>
<linearGradient id="paint0_linear_877_35132" x1="92.5708" y1="374.361" x2="92.5708" y2="281.997" gradientUnits="userSpaceOnUse">
<stop stop-color="#F1F4FE"/>
<stop offset="0.5797" stop-color="#F7F9FE"/>
<stop offset="1" stop-color="white"/>
</linearGradient>
<linearGradient id="paint1_linear_877_35132" x1="85.068" y1="401.456" x2="100.184" y2="401.456" gradientUnits="userSpaceOnUse">
<stop stop-color="#EFF1FE"/>
<stop offset="1" stop-color="#E4E7FB"/>
</linearGradient>
<linearGradient id="paint2_linear_877_35132" x1="17.4288" y1="384.491" x2="56.9291" y2="384.491" gradientUnits="userSpaceOnUse">
<stop stop-color="#48FAC9"/>
<stop offset="0.505208" stop-color="#4AE6FF"/>
<stop offset="1" stop-color="#2595FF"/>
</linearGradient>
<linearGradient id="paint3_linear_877_35132" x1="17.4288" y1="374.016" x2="56.9291" y2="374.016" gradientUnits="userSpaceOnUse">
<stop stop-color="#48FAC9"/>
<stop offset="0.505208" stop-color="#4AE6FF"/>
<stop offset="1" stop-color="#2595FF"/>
</linearGradient>
<linearGradient id="paint4_linear_877_35132" x1="17.4288" y1="363.35" x2="56.9291" y2="363.35" gradientUnits="userSpaceOnUse">
<stop stop-color="#48FAC9"/>
<stop offset="0.505208" stop-color="#4AE6FF"/>
<stop offset="1" stop-color="#2595FF"/>
</linearGradient>
<linearGradient id="paint5_linear_877_35132" x1="95.3242" y1="353.728" x2="156.423" y2="380.423" gradientUnits="userSpaceOnUse">
<stop stop-color="#48FAC9"/>
<stop offset="0.505208" stop-color="#4AE6FF"/>
<stop offset="1" stop-color="#2595FF"/>
</linearGradient>
<linearGradient id="paint6_linear_877_35132" x1="61.0232" y1="318.471" x2="109.704" y2="328.124" gradientUnits="userSpaceOnUse">
<stop stop-color="#48FAC9"/>
<stop offset="0.505208" stop-color="#4AE6FF"/>
<stop offset="1" stop-color="#2595FF"/>
</linearGradient>
<linearGradient id="paint7_linear_877_35132" x1="62.998" y1="328.215" x2="122.154" y2="328.215" gradientUnits="userSpaceOnUse">
<stop stop-color="#48FAC9"/>
<stop offset="0.505208" stop-color="#4AE6FF"/>
<stop offset="1" stop-color="#2595FF"/>
</linearGradient>
<linearGradient id="paint8_linear_877_35132" x1="38.6667" y1="149.999" x2="38.6667" y2="217.332" gradientUnits="userSpaceOnUse">
<stop stop-color="#40FFC6"/>
<stop offset="0.492708" stop-color="#4AE6FF"/>
<stop offset="1" stop-color="#2595FF"/>
</linearGradient>
<radialGradient id="paint9_radial_877_35132" cx="0" cy="0" r="1" gradientUnits="userSpaceOnUse" gradientTransform="translate(24.8393 163.225) rotate(62.6223) scale(75.8263 75.8263)">
<stop offset="0.462106" stop-color="#2AA8FF" stop-opacity="0"/>
<stop offset="0.894737" stop-color="#2595FF"/>
</radialGradient>
<radialGradient id="paint10_radial_877_35132" cx="0" cy="0" r="1" gradientUnits="userSpaceOnUse" gradientTransform="translate(22.4345 164.427) rotate(56.6259) scale(90.7081 90.7081)">
<stop stop-color="#6EFFCE"/>
<stop offset="0.570035" stop-color="#A5FFFD" stop-opacity="0"/>
</radialGradient>
<radialGradient id="paint11_radial_877_35132" cx="0" cy="0" r="1" gradientUnits="userSpaceOnUse" gradientTransform="translate(32.0536 170.439) rotate(63.4349) scale(48.3586 48.3586)">
<stop offset="0.672439" stop-color="#9EC6FD" stop-opacity="0"/>
<stop offset="1" stop-color="white"/>
</radialGradient>
<radialGradient id="paint12_radial_877_35132" cx="0" cy="0" r="1" gradientUnits="userSpaceOnUse" gradientTransform="translate(35.027 176.386) rotate(62.0378) scale(41.7221 41.7221)">
<stop offset="0.961458" stop-color="#2AA8FF" stop-opacity="0"/>
<stop offset="1" stop-color="#058AFF" stop-opacity="0.26"/>
</radialGradient>
<linearGradient id="paint13_linear_877_35132" x1="24.9048" y1="161.303" x2="39.966" y2="178.03" gradientUnits="userSpaceOnUse">
<stop stop-color="white" stop-opacity="0.86"/>
<stop offset="1" stop-color="#D9D9D9" stop-opacity="0"/>
</linearGradient>
<linearGradient id="paint14_linear_877_35132" x1="36.8471" y1="163.191" x2="27.748" y2="173.655" gradientUnits="userSpaceOnUse">
<stop stop-color="white"/>
<stop offset="1" stop-color="#FFFFE9" stop-opacity="0.38"/>
</linearGradient>
<linearGradient id="paint15_linear_877_35132" x1="325.566" y1="195.565" x2="325.566" y2="107.999" gradientUnits="userSpaceOnUse">
<stop stop-color="#F1F4FE"/>
<stop offset="0.5797" stop-color="#F7F9FE"/>
<stop offset="1" stop-color="white"/>
</linearGradient>
<linearGradient id="paint16_linear_877_35132" x1="318.442" y1="221.25" x2="332.797" y2="221.25" gradientUnits="userSpaceOnUse">
<stop stop-color="#EFF1FE"/>
<stop offset="1" stop-color="#E4E7FB"/>
</linearGradient>
<linearGradient id="paint17_linear_877_35132" x1="254.205" y1="205.167" x2="291.718" y2="205.167" gradientUnits="userSpaceOnUse">
<stop stop-color="#48FAC9"/>
<stop offset="0.505208" stop-color="#4AE6FF"/>
<stop offset="1" stop-color="#2595FF"/>
</linearGradient>
<linearGradient id="paint18_linear_877_35132" x1="254.205" y1="195.236" x2="291.718" y2="195.236" gradientUnits="userSpaceOnUse">
<stop stop-color="#48FAC9"/>
<stop offset="0.505208" stop-color="#4AE6FF"/>
<stop offset="1" stop-color="#2595FF"/>
</linearGradient>
<linearGradient id="paint19_linear_877_35132" x1="254.205" y1="185.123" x2="291.718" y2="185.123" gradientUnits="userSpaceOnUse">
<stop stop-color="#48FAC9"/>
<stop offset="0.505208" stop-color="#4AE6FF"/>
<stop offset="1" stop-color="#2595FF"/>
</linearGradient>
<linearGradient id="paint20_linear_877_35132" x1="328.183" y1="176.003" x2="386.175" y2="201.384" gradientUnits="userSpaceOnUse">
<stop stop-color="#48FAC9"/>
<stop offset="0.505208" stop-color="#4AE6FF"/>
<stop offset="1" stop-color="#2595FF"/>
</linearGradient>
<linearGradient id="paint21_linear_877_35132" x1="295.607" y1="142.576" x2="341.832" y2="151.758" gradientUnits="userSpaceOnUse">
<stop stop-color="#48FAC9"/>
<stop offset="0.505208" stop-color="#4AE6FF"/>
<stop offset="1" stop-color="#2595FF"/>
</linearGradient>
<linearGradient id="paint22_linear_877_35132" x1="297.482" y1="151.814" x2="353.662" y2="151.814" gradientUnits="userSpaceOnUse">
<stop stop-color="#48FAC9"/>
<stop offset="0.505208" stop-color="#4AE6FF"/>
<stop offset="1" stop-color="#2595FF"/>
</linearGradient>
<linearGradient id="paint23_linear_877_35132" x1="691.587" y1="478.953" x2="691.587" y2="364.998" gradientUnits="userSpaceOnUse">
<stop stop-color="#F1F4FE"/>
<stop offset="0.5797" stop-color="#F7F9FE"/>
<stop offset="1" stop-color="white"/>
</linearGradient>
<linearGradient id="paint24_linear_877_35132" x1="682.292" y1="512.382" x2="701.02" y2="512.382" gradientUnits="userSpaceOnUse">
<stop stop-color="#EFF1FE"/>
<stop offset="1" stop-color="#E4E7FB"/>
</linearGradient>
<linearGradient id="paint25_linear_877_35132" x1="598.487" y1="491.451" x2="647.427" y2="491.451" gradientUnits="userSpaceOnUse">
<stop stop-color="#48FAC9"/>
<stop offset="0.505208" stop-color="#4AE6FF"/>
<stop offset="1" stop-color="#2595FF"/>
</linearGradient>
<linearGradient id="paint26_linear_877_35132" x1="598.487" y1="478.526" x2="647.427" y2="478.526" gradientUnits="userSpaceOnUse">
<stop stop-color="#48FAC9"/>
<stop offset="0.505208" stop-color="#4AE6FF"/>
<stop offset="1" stop-color="#2595FF"/>
</linearGradient>
<linearGradient id="paint27_linear_877_35132" x1="598.487" y1="465.367" x2="647.427" y2="465.367" gradientUnits="userSpaceOnUse">
<stop stop-color="#48FAC9"/>
<stop offset="0.505208" stop-color="#4AE6FF"/>
<stop offset="1" stop-color="#2595FF"/>
</linearGradient>
<linearGradient id="paint28_linear_877_35132" x1="695" y1="453.498" x2="770.597" y2="486.667" gradientUnits="userSpaceOnUse">
<stop stop-color="#48FAC9"/>
<stop offset="0.505208" stop-color="#4AE6FF"/>
<stop offset="1" stop-color="#2595FF"/>
</linearGradient>
<linearGradient id="paint29_linear_877_35132" x1="652.5" y1="409.998" x2="712.795" y2="422.004" gradientUnits="userSpaceOnUse">
<stop stop-color="#48FAC9"/>
<stop offset="0.505208" stop-color="#4AE6FF"/>
<stop offset="1" stop-color="#2595FF"/>
</linearGradient>
<linearGradient id="paint30_linear_877_35132" x1="654.947" y1="422.02" x2="728.241" y2="422.02" gradientUnits="userSpaceOnUse">
<stop stop-color="#48FAC9"/>
<stop offset="0.505208" stop-color="#4AE6FF"/>
<stop offset="1" stop-color="#2595FF"/>
</linearGradient>
<linearGradient id="paint31_linear_877_35132" x1="760.687" y1="287.996" x2="232.401" y2="313.178" gradientUnits="userSpaceOnUse">
<stop stop-color="#F1F4FE"/>
<stop offset="0.5797" stop-color="#F7F9FE"/>
<stop offset="1" stop-color="white"/>
</linearGradient>
<linearGradient id="paint32_linear_877_35132" x1="740.281" y1="288.961" x2="252.801" y2="312.199" gradientUnits="userSpaceOnUse">
<stop stop-color="#2595FF"/>
<stop offset="0.246" stop-color="#23A9FF"/>
<stop offset="0.5075" stop-color="#2595FF"/>
<stop offset="0.7751" stop-color="#2DC8FF"/>
<stop offset="1" stop-color="#2AC1FF"/>
</linearGradient>
<linearGradient id="paint33_linear_877_35132" x1="642.993" y1="186.915" x2="685.102" y2="184.907" gradientUnits="userSpaceOnUse">
<stop stop-color="#5FEFC0"/>
<stop offset="0.6277" stop-color="#4DA6DD"/>
<stop offset="1" stop-color="#437FEC"/>
</linearGradient>
<linearGradient id="paint34_linear_877_35132" x1="567.553" y1="239.117" x2="578.202" y2="462.508" gradientUnits="userSpaceOnUse">
<stop stop-color="#89C1FF"/>
<stop offset="1" stop-color="#DAECFF"/>
</linearGradient>
<linearGradient id="paint35_linear_877_35132" x1="303.256" y1="425.703" x2="323.342" y2="424.746" gradientUnits="userSpaceOnUse">
<stop stop-color="#5FEFC0"/>
<stop offset="0.6277" stop-color="#4DA6DD"/>
<stop offset="1" stop-color="#437FEC"/>
</linearGradient>
<linearGradient id="paint36_linear_877_35132" x1="813.5" y1="364.999" x2="813.5" y2="453.999" gradientUnits="userSpaceOnUse">
<stop stop-color="#40FFC6"/>
<stop offset="0.492708" stop-color="#4AE6FF"/>
<stop offset="1" stop-color="#2595FF"/>
</linearGradient>
<radialGradient id="paint37_radial_877_35132" cx="0" cy="0" r="1" gradientUnits="userSpaceOnUse" gradientTransform="translate(795.223 382.481) rotate(62.6223) scale(100.226)">
<stop offset="0.462106" stop-color="#2AA8FF" stop-opacity="0"/>
<stop offset="0.894737" stop-color="#2595FF"/>
</radialGradient>
<radialGradient id="paint38_radial_877_35132" cx="0" cy="0" r="1" gradientUnits="userSpaceOnUse" gradientTransform="translate(792.045 384.07) rotate(56.6259) scale(119.896)">
<stop stop-color="#6EFFCE"/>
<stop offset="0.570035" stop-color="#A5FFFD" stop-opacity="0"/>
</radialGradient>
<radialGradient id="paint39_radial_877_35132" cx="0" cy="0" r="1" gradientUnits="userSpaceOnUse" gradientTransform="translate(804.759 392.016) rotate(63.4349) scale(63.9195)">
<stop offset="0.672439" stop-color="#9EC6FD" stop-opacity="0"/>
<stop offset="1" stop-color="white"/>
</radialGradient>
<radialGradient id="paint40_radial_877_35132" cx="0" cy="0" r="1" gradientUnits="userSpaceOnUse" gradientTransform="translate(808.689 399.877) rotate(62.0378) scale(55.1476)">
<stop offset="0.961458" stop-color="#2AA8FF" stop-opacity="0"/>
<stop offset="1" stop-color="#058AFF" stop-opacity="0.26"/>
</radialGradient>
<linearGradient id="paint41_linear_877_35132" x1="795.31" y1="379.94" x2="815.217" y2="402.05" gradientUnits="userSpaceOnUse">
<stop stop-color="white" stop-opacity="0.86"/>
<stop offset="1" stop-color="#D9D9D9" stop-opacity="0"/>
</linearGradient>
<linearGradient id="paint42_linear_877_35132" x1="811.095" y1="382.438" x2="799.068" y2="396.269" gradientUnits="userSpaceOnUse">
<stop stop-color="white"/>
<stop offset="1" stop-color="#FFFFE9" stop-opacity="0.38"/>
</linearGradient>
<linearGradient id="paint43_linear_877_35132" x1="209.499" y1="154.359" x2="180.37" y2="204.812" gradientUnits="userSpaceOnUse">
<stop offset="0.51875" stop-color="#2595FF"/>
<stop offset="1" stop-color="#3A98FF" stop-opacity="0"/>
</linearGradient>
<linearGradient id="paint44_linear_877_35132" x1="62.0443" y1="0" x2="62.0443" y2="91.318" gradientUnits="userSpaceOnUse">
<stop offset="0.773958" stop-color="#2087F8" stop-opacity="0.43"/>
<stop offset="1" stop-color="#3A98FF" stop-opacity="0"/>
</linearGradient>
<linearGradient id="paint45_linear_877_35132" x1="62.0443" y1="0" x2="62.0443" y2="91.318" gradientUnits="userSpaceOnUse">
<stop offset="0.51875" stop-color="#2595FF"/>
<stop offset="1" stop-color="#3A98FF" stop-opacity="0"/>
</linearGradient>
</defs>
</svg>
