<svg width="535" height="422" viewBox="0 0 535 422" fill="none" xmlns="http://www.w3.org/2000/svg">
<g clip-path="url(#clip0_862_31811)">
<g filter="url(#filter0_f_862_31811)">
<path d="M9.63897 254.554C-2.62966 247.6 -2.62966 235.866 9.63897 228.912L244.496 230.215C256.764 223.262 276.92 223.262 289.627 230.215L525.798 228.912C538.066 235.866 538.066 247.6 525.798 254.554L290.941 389.723C278.673 396.677 258.517 396.677 245.81 389.723L9.63897 254.554Z" fill="#C5D9EF"/>
</g>
<path d="M535 210.157C535 210.592 535 211.027 535 211.027C535 211.461 535 211.461 535 211.896C535 212.331 535 212.765 534.562 212.765C534.562 213.2 534.562 213.2 534.124 213.634C534.124 214.069 533.686 214.069 533.686 214.504C533.248 214.938 533.248 215.373 532.809 215.808C532.371 216.242 532.371 216.677 531.933 217.111C531.933 217.111 531.933 217.111 531.495 217.546C531.057 217.981 530.619 218.415 530.18 218.85C529.742 219.285 529.304 219.285 529.304 219.719C528.866 220.154 528.866 220.154 528.428 220.588C527.99 221.023 527.551 221.023 527.113 221.458C526.675 221.892 526.237 221.892 525.799 222.327L290.942 357.061L290.504 387.05L525.361 251.447C525.361 251.447 525.799 251.447 525.799 251.012C526.237 251.012 526.237 250.578 526.675 250.578C527.113 250.143 527.551 250.143 527.99 249.708C528.428 249.274 528.428 249.274 528.866 248.839C529.304 248.404 529.742 248.404 529.742 247.97C530.18 247.535 530.619 247.101 531.057 246.666C531.057 246.666 531.057 246.666 531.057 246.231C531.057 245.797 531.495 245.797 531.495 245.362L531.933 244.927C531.933 244.927 531.933 244.927 531.933 244.493C532.371 244.058 532.371 243.624 532.809 243.624C532.809 243.624 532.809 243.624 532.809 243.189C532.809 242.754 533.248 242.754 533.248 242.32C533.248 242.32 533.248 241.885 533.686 241.885C533.686 241.885 533.686 241.885 533.686 241.45C533.686 241.016 533.686 241.016 534.124 240.581V240.147C534.124 239.712 534.124 239.277 534.124 239.277C534.124 238.843 534.124 238.843 534.124 238.408C534.124 238.408 534.124 238.408 534.124 237.973L534.562 207.984C535 209.288 535 209.723 535 210.157Z" fill="#E1EDFF"/>
<path d="M9.63964 221.892C3.50532 218.415 0.438165 213.634 0.438165 208.854L0 238.843C0 243.623 3.06716 248.404 9.20147 251.881L245.811 387.05L246.249 357.061L9.63964 221.892Z" fill="#EFF1FE"/>
<path d="M525.798 196.25C538.066 203.204 538.066 214.939 525.798 221.893L290.941 357.061C278.673 364.015 258.517 364.015 245.81 357.061L9.63897 221.893C-2.62966 214.939 -2.62966 203.204 9.63897 196.25L244.496 60.6471C256.764 53.6931 276.92 53.6931 289.627 60.6471L525.798 196.25Z" fill="white"/>
<path d="M9.63897 211.461C-2.62966 204.507 -2.62966 192.772 9.63897 185.818L244.496 50.2155C256.764 43.2615 276.92 43.2615 289.627 50.2155L525.798 185.818C538.066 192.772 538.066 204.507 525.798 211.461L290.941 347.064C278.673 354.018 258.517 354.018 245.81 347.064L9.63897 211.461Z" fill="url(#paint0_linear_862_31811)"/>
<path d="M268.595 333.591C261.146 333.591 254.136 331.853 248.439 328.811L42.0634 210.593C36.8054 207.55 33.7383 203.204 33.7383 198.858C33.7383 194.512 36.8054 190.165 42.0634 187.123L247.125 68.4703C252.383 65.428 259.394 63.6895 266.842 63.6895C274.291 63.6895 281.302 65.428 286.998 68.4703L493.812 186.688C499.07 189.731 502.137 194.077 502.137 198.423C502.137 202.769 499.07 207.116 493.812 210.158L288.312 328.811C283.054 331.853 276.044 333.591 268.595 333.591ZM267.28 64.9933C259.832 64.9933 253.259 66.7318 248.001 69.7742L42.5016 187.992C37.6818 191.035 34.6146 194.512 34.6146 198.858C34.6146 202.769 37.2436 206.681 42.5016 209.723L249.316 327.941C254.574 330.984 261.146 332.722 268.595 332.722C276.044 332.722 282.616 330.984 287.874 327.941L493.374 209.723C498.194 206.681 501.261 203.204 501.261 198.858C501.261 194.946 498.632 191.035 493.374 187.992L286.56 69.3396C281.302 66.2972 274.291 64.9933 267.28 64.9933Z" fill="url(#paint1_linear_862_31811)"/>
<path d="M287.875 388.788C288.751 388.353 292.694 386.18 293.571 385.745V355.756C292.694 356.191 289.189 357.929 288.313 358.364C287.875 358.364 287.875 358.798 287.436 358.798C286.56 359.233 285.684 359.668 284.807 359.668C284.369 359.668 284.369 360.102 283.931 360.102C283.493 360.102 283.055 360.537 282.178 360.537C281.74 360.537 281.302 360.972 280.864 360.972C280.426 360.972 279.549 361.406 279.111 361.406C278.673 361.406 278.235 361.406 277.797 361.841C276.482 361.841 275.606 362.275 274.291 362.275C273.853 362.275 273.415 362.275 272.977 362.275C272.101 362.275 271.662 362.275 270.786 362.275C270.348 362.275 269.91 362.275 269.472 362.275C269.033 362.275 268.157 362.275 267.719 362.275C267.281 362.275 266.843 362.275 266.404 362.275C265.966 362.275 265.528 362.275 264.652 362.275C264.214 362.275 263.775 362.275 263.337 362.275C262.899 362.275 262.461 362.275 261.585 362.275C261.146 362.275 260.708 362.275 260.27 361.841C259.832 361.841 258.956 361.841 258.517 361.406C258.079 361.406 257.641 361.406 257.203 360.972C256.327 360.972 255.888 360.537 255.012 360.537C254.574 360.537 254.136 360.537 254.136 360.102C252.821 359.668 251.945 359.233 250.63 358.798C250.192 358.798 249.754 358.364 248.878 357.929C248.44 357.929 248.44 357.495 248.001 357.495C247.125 357.06 242.744 354.452 241.867 354.018V384.441C242.744 384.876 246.687 387.049 247.125 387.484C247.563 387.484 247.563 387.918 248.001 387.918C248.44 387.918 248.878 388.353 249.316 388.353C250.63 388.788 251.507 389.222 252.821 389.657C252.821 389.657 252.821 389.657 253.259 389.657C253.698 389.657 253.698 389.657 254.136 390.091C254.574 390.091 255.45 390.526 255.888 390.526H256.327C256.765 390.526 256.765 390.526 257.203 390.526C257.641 390.526 258.079 390.526 258.956 390.961C259.394 390.961 259.394 390.961 259.832 390.961C260.27 390.961 260.27 390.961 260.708 390.961C261.146 390.961 261.585 390.961 262.023 390.961C262.461 390.961 262.461 390.961 262.899 390.961C263.337 390.961 263.337 390.961 263.775 390.961C264.214 390.961 264.652 390.961 265.09 390.961C265.528 390.961 265.528 390.961 265.966 390.961C265.966 390.961 266.404 390.961 266.843 390.961C267.281 390.961 268.157 390.961 268.595 390.961C269.033 390.961 269.033 390.961 269.472 390.961H269.91C270.786 390.961 271.224 390.961 272.101 390.961C272.539 390.961 272.539 390.961 272.977 390.961C272.977 390.961 272.977 390.961 273.415 390.961C274.73 390.961 275.606 390.526 276.92 390.526C277.359 390.526 277.797 390.526 277.797 390.091C278.235 390.091 279.111 389.657 279.549 389.657C279.988 389.657 280.426 389.222 280.864 389.222C281.302 389.222 281.74 388.788 282.617 388.788H283.055H283.493C284.369 388.353 285.246 388.353 286.122 387.918C286.998 389.222 287.436 389.222 287.875 388.788Z" fill="url(#paint2_linear_862_31811)"/>
<path opacity="0.48" d="M308.258 252.573C291.647 262.164 272.62 267.014 251.177 267.124C229.928 267.122 209.354 262.604 189.454 253.568L173.666 262.684C168.305 265.779 159.611 265.779 154.25 262.684C148.888 259.588 148.888 254.569 154.25 251.473L169.748 242.525C154.678 232.487 145.306 221.835 141.633 210.57C139.431 203.816 139.417 197.162 141.589 190.609C144.165 182.84 158.549 179.1 171.787 181.133C188.404 183.686 195.815 194.48 197.787 204.342C198.879 209.803 202.667 214.948 209.151 219.776L259.274 190.837L258.984 190.67L258.695 190.168C251.159 180.91 245.651 171.932 242.172 163.232C236.373 148.509 243.614 134.624 263.895 121.577C281.086 111.652 300.21 106.969 321.266 107.528C343.288 108.199 362.897 112.717 380.092 121.083L395.59 112.135C400.952 109.04 409.645 109.04 415.007 112.135C420.368 115.231 420.368 120.25 415.007 123.346L398.929 132.628C416.718 145.833 423.695 159.938 419.859 174.943C417.863 182.752 403.683 186.827 390.455 184.834C374.635 182.45 367.858 172.065 364.589 162.816C363.673 160.223 361.985 157.744 359.526 155.378L311.141 183.313C322.348 198.482 328.726 208.743 330.272 214.097C334.332 228.931 326.994 241.756 308.258 252.573ZM303.309 144.667C299.059 147.12 296.645 150.075 296.066 153.533C295.681 156.879 297.131 161.396 300.416 167.084L340.978 143.666C326.682 138.088 314.125 138.422 303.309 144.667ZM270.868 206.564L229.147 230.652C244.023 236.341 256.966 236.007 267.976 229.651C276.668 224.632 277.632 216.937 270.868 206.564Z" fill="url(#paint3_linear_862_31811)"/>
<path d="M308.258 233.573C291.647 243.164 272.62 248.014 251.177 248.124C229.928 248.122 209.354 243.604 189.454 234.568L173.666 243.684C168.305 246.779 159.611 246.779 154.25 243.684C148.888 240.588 148.888 235.569 154.25 232.473L169.748 223.525C154.678 213.487 145.306 202.835 141.633 191.57C139.431 184.816 139.417 178.162 141.589 171.609C144.165 163.84 158.549 160.1 171.787 162.133C188.404 164.686 195.815 175.48 197.787 185.342C198.879 190.803 202.667 195.948 209.151 200.776L259.274 171.837L258.984 171.67L258.695 171.168C251.159 161.91 245.651 152.932 242.172 144.232C236.373 129.509 243.614 115.624 263.895 102.577C281.086 92.6517 300.21 87.9687 321.266 88.5279C343.288 89.1987 362.897 93.7172 380.092 102.083L395.59 93.1355C400.952 90.0398 409.645 90.0398 415.007 93.1355C420.368 96.2311 420.368 101.25 415.007 104.346L398.929 113.628C416.718 126.833 423.695 140.938 419.859 155.943C417.863 163.752 403.683 167.827 390.455 165.834C374.635 163.45 367.858 153.065 364.589 143.816C363.673 141.223 361.985 138.744 359.526 136.378L311.141 164.313C322.348 179.482 328.726 189.743 330.272 195.097C334.332 209.931 326.994 222.756 308.258 233.573ZM303.309 125.667C299.059 128.12 296.645 131.075 296.066 134.533C295.681 137.879 297.131 142.396 300.416 148.084L340.978 124.666C326.682 119.088 314.125 119.422 303.309 125.667ZM270.868 187.564L229.147 211.652C244.023 217.341 256.966 217.007 267.976 210.651C276.668 205.632 277.632 197.937 270.868 187.564Z" fill="url(#paint4_linear_862_31811)"/>
<circle cx="70.5" cy="87.5" r="47.5" fill="url(#paint5_linear_862_31811)"/>
<circle cx="70.5" cy="87.5" r="47.5" fill="url(#paint6_radial_862_31811)"/>
<circle cx="70.5" cy="87.5" r="47.5" fill="url(#paint7_radial_862_31811)"/>
<circle cx="70.5" cy="87.5" r="47.5" fill="url(#paint8_radial_862_31811)"/>
<circle cx="70.5" cy="87.5" r="47.5" fill="url(#paint9_radial_862_31811)"/>
<g style="mix-blend-mode:lighten">
<ellipse cx="67.926" cy="75.4815" rx="29.4729" ry="26.3253" fill="url(#paint10_linear_862_31811)"/>
</g>
<g style="mix-blend-mode:lighten">
<path d="M50.6956 72.8945C48.7885 72.302 47.697 70.2561 48.5959 68.4728C50.16 65.3699 52.451 62.6688 55.2947 60.6118C58.1384 58.5549 61.4209 57.2245 64.8575 56.7102C66.8325 56.4147 68.4339 58.0918 68.3997 60.0885C68.3655 62.0852 66.6957 63.6317 64.7516 64.0882C62.883 64.5269 61.1075 65.3327 59.5332 66.4715C57.9588 67.6103 56.6378 69.0443 55.6362 70.6816C54.5942 72.3852 52.6027 73.487 50.6956 72.8945Z" fill="url(#paint11_linear_862_31811)"/>
</g>
<circle cx="485.5" cy="49.5" r="49.5" fill="url(#paint12_linear_862_31811)"/>
<circle cx="485.5" cy="49.5" r="49.5" fill="url(#paint13_radial_862_31811)"/>
<circle cx="485.5" cy="49.5" r="49.5" fill="url(#paint14_radial_862_31811)"/>
<circle cx="485.5" cy="49.5" r="49.5" fill="url(#paint15_radial_862_31811)"/>
<circle cx="485.5" cy="49.5" r="49.5" fill="url(#paint16_radial_862_31811)"/>
<g style="mix-blend-mode:lighten">
<ellipse cx="482.817" cy="36.9767" rx="30.7139" ry="27.4337" fill="url(#paint17_linear_862_31811)"/>
</g>
<g style="mix-blend-mode:lighten">
<path d="M464.86 34.2807C462.873 33.6632 461.735 31.5312 462.672 29.6729C464.302 26.4393 466.689 23.6245 469.653 21.4809C472.616 19.3373 476.037 17.951 479.618 17.415C481.676 17.107 483.345 18.8547 483.31 20.9355C483.274 23.0163 481.534 24.6279 479.508 25.1036C477.561 25.5609 475.71 26.4005 474.07 27.5873C472.429 28.774 471.053 30.2684 470.009 31.9747C468.923 33.75 466.848 34.8982 464.86 34.2807Z" fill="url(#paint18_linear_862_31811)"/>
</g>
</g>
<defs>
<filter id="filter0_f_862_31811" x="-10.5625" y="214" width="556.562" height="191.938" filterUnits="userSpaceOnUse" color-interpolation-filters="sRGB">
<feFlood flood-opacity="0" result="BackgroundImageFix"/>
<feBlend mode="normal" in="SourceGraphic" in2="BackgroundImageFix" result="shape"/>
<feGaussianBlur stdDeviation="5.5" result="effect1_foregroundBlur_862_31811"/>
</filter>
<linearGradient id="paint0_linear_862_31811" x1="267.84" y1="352.232" x2="267.84" y2="44.9975" gradientUnits="userSpaceOnUse">
<stop stop-color="#F1F4FE"/>
<stop offset="0.5797" stop-color="#F7F9FE"/>
<stop offset="1" stop-color="white"/>
</linearGradient>
<linearGradient id="paint1_linear_862_31811" x1="33.3838" y1="198.621" x2="502.289" y2="198.621" gradientUnits="userSpaceOnUse">
<stop stop-color="#3A98FF"/>
<stop offset="0.6277" stop-color="#00F0FF"/>
<stop offset="1" stop-color="#00FFAC"/>
</linearGradient>
<linearGradient id="paint2_linear_862_31811" x1="242.582" y1="373.938" x2="293.464" y2="373.938" gradientUnits="userSpaceOnUse">
<stop stop-color="#EFF1FE"/>
<stop offset="1" stop-color="#E4E7FB"/>
</linearGradient>
<linearGradient id="paint3_linear_862_31811" x1="413.507" y1="111.269" x2="283.128" y2="337.092" gradientUnits="userSpaceOnUse">
<stop stop-color="#00CBFF"/>
<stop offset="1" stop-color="#3A98FF" stop-opacity="0"/>
</linearGradient>
<linearGradient id="paint4_linear_862_31811" x1="413.507" y1="92.2694" x2="283.128" y2="318.092" gradientUnits="userSpaceOnUse">
<stop stop-color="#3A98FF"/>
<stop offset="0.45625" stop-color="#00CBFF"/>
<stop offset="1" stop-color="#48FAC9"/>
</linearGradient>
<linearGradient id="paint5_linear_862_31811" x1="70.5" y1="40" x2="70.5" y2="135" gradientUnits="userSpaceOnUse">
<stop stop-color="#40FFC6"/>
<stop offset="0.492708" stop-color="#4AE6FF"/>
<stop offset="1" stop-color="#2595FF"/>
</linearGradient>
<radialGradient id="paint6_radial_862_31811" cx="0" cy="0" r="1" gradientUnits="userSpaceOnUse" gradientTransform="translate(50.9911 58.6607) rotate(62.6223) scale(106.983)">
<stop offset="0.462106" stop-color="#2AA8FF" stop-opacity="0"/>
<stop offset="0.894737" stop-color="#2595FF"/>
</radialGradient>
<radialGradient id="paint7_radial_862_31811" cx="0" cy="0" r="1" gradientUnits="userSpaceOnUse" gradientTransform="translate(47.5982 60.3571) rotate(56.6259) scale(127.979)">
<stop stop-color="#6EFFCE"/>
<stop offset="0.570035" stop-color="#A5FFFD" stop-opacity="0"/>
</radialGradient>
<radialGradient id="paint8_radial_862_31811" cx="0" cy="0" r="1" gradientUnits="userSpaceOnUse" gradientTransform="translate(61.1696 68.8393) rotate(63.4349) scale(68.2287)">
<stop offset="0.672439" stop-color="#9EC6FD" stop-opacity="0"/>
<stop offset="1" stop-color="white"/>
</radialGradient>
<radialGradient id="paint9_radial_862_31811" cx="0" cy="0" r="1" gradientUnits="userSpaceOnUse" gradientTransform="translate(65.3649 77.2297) rotate(62.0378) scale(58.8654)">
<stop offset="0.961458" stop-color="#2AA8FF" stop-opacity="0"/>
<stop offset="1" stop-color="#058AFF" stop-opacity="0.26"/>
</radialGradient>
<linearGradient id="paint10_linear_862_31811" x1="51.0844" y1="55.9499" x2="72.3339" y2="79.5498" gradientUnits="userSpaceOnUse">
<stop stop-color="white" stop-opacity="0.86"/>
<stop offset="1" stop-color="#D9D9D9" stop-opacity="0"/>
</linearGradient>
<linearGradient id="paint11_linear_862_31811" x1="67.9343" y1="58.6129" x2="55.0965" y2="73.3764" gradientUnits="userSpaceOnUse">
<stop stop-color="white"/>
<stop offset="1" stop-color="#FFFFE9" stop-opacity="0.38"/>
</linearGradient>
<linearGradient id="paint12_linear_862_31811" x1="485.5" y1="0" x2="485.5" y2="99" gradientUnits="userSpaceOnUse">
<stop stop-color="#40FFC6"/>
<stop offset="0.492708" stop-color="#4AE6FF"/>
<stop offset="1" stop-color="#2595FF"/>
</linearGradient>
<radialGradient id="paint13_radial_862_31811" cx="0" cy="0" r="1" gradientUnits="userSpaceOnUse" gradientTransform="translate(465.17 19.4464) rotate(62.6223) scale(111.487)">
<stop offset="0.462106" stop-color="#2AA8FF" stop-opacity="0"/>
<stop offset="0.894737" stop-color="#2595FF"/>
</radialGradient>
<radialGradient id="paint14_radial_862_31811" cx="0" cy="0" r="1" gradientUnits="userSpaceOnUse" gradientTransform="translate(461.634 21.2143) rotate(56.6259) scale(133.368)">
<stop stop-color="#6EFFCE"/>
<stop offset="0.570035" stop-color="#A5FFFD" stop-opacity="0"/>
</radialGradient>
<radialGradient id="paint15_radial_862_31811" cx="0" cy="0" r="1" gradientUnits="userSpaceOnUse" gradientTransform="translate(475.777 30.0536) rotate(63.4349) scale(71.1015)">
<stop offset="0.672439" stop-color="#9EC6FD" stop-opacity="0"/>
<stop offset="1" stop-color="white"/>
</radialGradient>
<radialGradient id="paint16_radial_862_31811" cx="0" cy="0" r="1" gradientUnits="userSpaceOnUse" gradientTransform="translate(480.149 38.7973) rotate(62.0378) scale(61.3439)">
<stop offset="0.961458" stop-color="#2AA8FF" stop-opacity="0"/>
<stop offset="1" stop-color="#058AFF" stop-opacity="0.26"/>
</radialGradient>
<linearGradient id="paint17_linear_862_31811" x1="465.267" y1="16.6226" x2="487.411" y2="41.2162" gradientUnits="userSpaceOnUse">
<stop stop-color="white" stop-opacity="0.86"/>
<stop offset="1" stop-color="#D9D9D9" stop-opacity="0"/>
</linearGradient>
<linearGradient id="paint18_linear_862_31811" x1="482.825" y1="19.3978" x2="469.446" y2="34.7829" gradientUnits="userSpaceOnUse">
<stop stop-color="white"/>
<stop offset="1" stop-color="#FFFFE9" stop-opacity="0.38"/>
</linearGradient>
<clipPath id="clip0_862_31811">
<rect width="535" height="422" fill="white"/>
</clipPath>
</defs>
</svg>
