<svg width="535" height="422" viewBox="0 0 535 422" fill="none" xmlns="http://www.w3.org/2000/svg">
<g clip-path="url(#clip0_862_32481)">
<g filter="url(#filter0_f_862_32481)">
<path d="M9.63897 254.554C-2.62966 247.6 -2.62966 235.866 9.63897 228.912L244.496 230.215C256.764 223.262 276.92 223.262 289.627 230.215L525.798 228.912C538.066 235.866 538.066 247.6 525.798 254.554L290.941 389.723C278.673 396.677 258.517 396.677 245.81 389.723L9.63897 254.554Z" fill="#C5D9EF"/>
</g>
<path d="M535 210.157C535 210.592 535 211.027 535 211.027C535 211.461 535 211.461 535 211.896C535 212.331 535 212.765 534.562 212.765C534.562 213.2 534.562 213.2 534.124 213.634C534.124 214.069 533.686 214.069 533.686 214.504C533.248 214.938 533.248 215.373 532.809 215.808C532.371 216.242 532.371 216.677 531.933 217.111C531.933 217.111 531.933 217.111 531.495 217.546C531.057 217.981 530.619 218.415 530.18 218.85C529.742 219.285 529.304 219.285 529.304 219.719C528.866 220.154 528.866 220.154 528.428 220.588C527.99 221.023 527.551 221.023 527.113 221.458C526.675 221.892 526.237 221.892 525.799 222.327L290.942 357.061L290.504 387.05L525.361 251.447C525.361 251.447 525.799 251.447 525.799 251.012C526.237 251.012 526.237 250.578 526.675 250.578C527.113 250.143 527.551 250.143 527.99 249.708C528.428 249.274 528.428 249.274 528.866 248.839C529.304 248.404 529.742 248.404 529.742 247.97C530.18 247.535 530.619 247.101 531.057 246.666C531.057 246.666 531.057 246.666 531.057 246.231C531.057 245.797 531.495 245.797 531.495 245.362L531.933 244.927C531.933 244.927 531.933 244.927 531.933 244.493C532.371 244.058 532.371 243.624 532.809 243.624C532.809 243.624 532.809 243.624 532.809 243.189C532.809 242.754 533.248 242.754 533.248 242.32C533.248 242.32 533.248 241.885 533.686 241.885C533.686 241.885 533.686 241.885 533.686 241.45C533.686 241.016 533.686 241.016 534.124 240.581V240.147C534.124 239.712 534.124 239.277 534.124 239.277C534.124 238.843 534.124 238.843 534.124 238.408C534.124 238.408 534.124 238.408 534.124 237.973L534.562 207.984C535 209.288 535 209.723 535 210.157Z" fill="#E1EDFF"/>
<path d="M9.63964 221.89C3.50532 218.413 0.438165 213.632 0.438165 208.852L0 238.841C0 243.622 3.06716 248.402 9.20147 251.879L245.811 387.048L246.249 357.059L9.63964 221.89Z" fill="#EFF1FE"/>
<path d="M525.798 196.248C538.066 203.202 538.066 214.937 525.798 221.891L290.941 357.059C278.673 364.013 258.517 364.013 245.81 357.059L9.63897 221.891C-2.62966 214.937 -2.62966 203.202 9.63897 196.248L244.496 60.6452C256.764 53.6912 276.92 53.6912 289.627 60.6452L525.798 196.248Z" fill="white"/>
<path d="M9.63897 211.461C-2.62966 204.507 -2.62966 192.772 9.63897 185.818L244.496 50.2155C256.764 43.2615 276.92 43.2615 289.627 50.2155L525.798 185.818C538.066 192.772 538.066 204.507 525.798 211.461L290.941 347.064C278.673 354.018 258.517 354.018 245.81 347.064L9.63897 211.461Z" fill="url(#paint0_linear_862_32481)"/>
<path d="M268.595 333.589C261.146 333.589 254.136 331.851 248.439 328.809L42.0634 210.591C36.8054 207.548 33.7383 203.202 33.7383 198.856C33.7383 194.51 36.8054 190.163 42.0634 187.121L247.125 68.4684C252.383 65.426 259.394 63.6875 266.842 63.6875C274.291 63.6875 281.302 65.426 286.998 68.4684L493.812 186.686C499.07 189.729 502.137 194.075 502.137 198.421C502.137 202.767 499.07 207.114 493.812 210.156L288.312 328.809C283.054 331.851 276.044 333.589 268.595 333.589ZM267.28 64.9914C259.832 64.9914 253.259 66.7299 248.001 69.7722L42.5016 187.99C37.6818 191.033 34.6146 194.51 34.6146 198.856C34.6146 202.767 37.2436 206.679 42.5016 209.721L249.316 327.939C254.574 330.982 261.146 332.72 268.595 332.72C276.044 332.72 282.616 330.982 287.874 327.939L493.374 209.721C498.194 206.679 501.261 203.202 501.261 198.856C501.261 194.944 498.632 191.033 493.374 187.99L286.56 69.3376C281.302 66.2952 274.291 64.9914 267.28 64.9914Z" fill="url(#paint1_linear_862_32481)"/>
<path d="M287.875 388.786C288.751 388.351 292.694 386.178 293.571 385.743V355.754C292.694 356.189 289.189 357.927 288.313 358.362C287.875 358.362 287.875 358.796 287.436 358.796C286.56 359.231 285.684 359.666 284.807 359.666C284.369 359.666 284.369 360.1 283.931 360.1C283.493 360.1 283.055 360.535 282.178 360.535C281.74 360.535 281.302 360.97 280.864 360.97C280.426 360.97 279.549 361.404 279.111 361.404C278.673 361.404 278.235 361.404 277.797 361.839C276.482 361.839 275.606 362.274 274.291 362.274C273.853 362.274 273.415 362.274 272.977 362.274C272.101 362.274 271.662 362.274 270.786 362.274C270.348 362.274 269.91 362.274 269.472 362.274C269.033 362.274 268.157 362.274 267.719 362.274C267.281 362.274 266.843 362.274 266.404 362.274C265.966 362.274 265.528 362.274 264.652 362.274C264.214 362.274 263.775 362.274 263.337 362.274C262.899 362.274 262.461 362.274 261.585 362.274C261.146 362.274 260.708 362.274 260.27 361.839C259.832 361.839 258.956 361.839 258.517 361.404C258.079 361.404 257.641 361.404 257.203 360.97C256.327 360.97 255.888 360.535 255.012 360.535C254.574 360.535 254.136 360.535 254.136 360.1C252.821 359.666 251.945 359.231 250.63 358.796C250.192 358.796 249.754 358.362 248.878 357.927C248.44 357.927 248.44 357.493 248.001 357.493C247.125 357.058 242.744 354.45 241.867 354.016V384.439C242.744 384.874 246.687 387.047 247.125 387.482C247.563 387.482 247.563 387.916 248.001 387.916C248.44 387.916 248.878 388.351 249.316 388.351C250.63 388.786 251.507 389.22 252.821 389.655C252.821 389.655 252.821 389.655 253.259 389.655C253.698 389.655 253.698 389.655 254.136 390.089C254.574 390.089 255.45 390.524 255.888 390.524H256.327C256.765 390.524 256.765 390.524 257.203 390.524C257.641 390.524 258.079 390.524 258.956 390.959C259.394 390.959 259.394 390.959 259.832 390.959C260.27 390.959 260.27 390.959 260.708 390.959C261.146 390.959 261.585 390.959 262.023 390.959C262.461 390.959 262.461 390.959 262.899 390.959C263.337 390.959 263.337 390.959 263.775 390.959C264.214 390.959 264.652 390.959 265.09 390.959C265.528 390.959 265.528 390.959 265.966 390.959C265.966 390.959 266.404 390.959 266.843 390.959C267.281 390.959 268.157 390.959 268.595 390.959C269.033 390.959 269.033 390.959 269.472 390.959H269.91C270.786 390.959 271.224 390.959 272.101 390.959C272.539 390.959 272.539 390.959 272.977 390.959C272.977 390.959 272.977 390.959 273.415 390.959C274.73 390.959 275.606 390.524 276.92 390.524C277.359 390.524 277.797 390.524 277.797 390.089C278.235 390.089 279.111 389.655 279.549 389.655C279.988 389.655 280.426 389.22 280.864 389.22C281.302 389.22 281.74 388.786 282.617 388.786H283.055H283.493C284.369 388.351 285.246 388.351 286.122 387.916C286.998 389.22 287.436 389.22 287.875 388.786Z" fill="url(#paint2_linear_862_32481)"/>
<path fill-rule="evenodd" clip-rule="evenodd" d="M289.544 215.395C279.348 209.509 278.959 199.84 289.042 194.019C299.126 188.197 316.142 188.266 326.337 194.152C336.533 200.039 336.354 209.691 326.271 215.512C316.187 221.334 299.74 221.282 289.544 215.395ZM258.43 238.359C239.549 238.294 220.342 232.472 199.712 220.561C199.669 220.536 199.627 220.502 199.576 220.472C199.533 220.448 199.473 220.423 199.422 220.394C178.792 208.483 168.716 197.398 168.611 186.502C168.579 183.154 173.242 180.463 179.032 180.486C184.814 180.504 189.529 183.226 189.569 186.569C189.641 194.088 197.681 202.371 214.16 211.885C214.211 211.914 214.254 211.949 214.296 211.973C214.347 212.003 214.407 212.027 214.45 212.052C230.928 221.566 245.283 226.213 258.314 226.259C264.113 226.278 268.819 229.005 268.851 232.343C268.875 235.686 264.212 238.378 258.43 238.359ZM208.183 147.335C218.259 141.518 235.265 141.572 245.453 147.454C255.649 153.34 255.461 162.997 245.386 168.814C235.303 174.635 218.855 174.583 208.659 168.696C198.472 162.815 198.1 153.156 208.183 147.335ZM474.47 166.746C481.375 170.732 481.437 177.184 474.616 181.122C467.787 185.065 456.613 185.029 449.707 181.042C442.802 177.055 442.74 170.604 449.57 166.661C456.39 162.723 467.565 162.759 474.47 166.746ZM423.684 248.593C441.566 238.269 441.404 221.382 423.323 210.942C415.497 206.424 405.579 203.852 395.391 203.218C387.827 184.501 369.944 165.531 344.335 148.915L402.876 131.496L432.78 159.246C419.766 167.941 420.52 181.208 434.97 189.551C450.085 198.277 474.552 198.356 489.509 189.72C504.457 181.09 504.322 166.963 489.207 158.237C478.636 152.134 463.494 150.265 450.224 152.64L415.47 120.396C412.561 117.694 406.567 116.726 401.714 118.169L329.046 139.786C299.038 123.279 263.982 111.713 229.372 106.919C228.114 101.217 223.694 95.6869 216.099 91.3015C198.017 80.8622 168.768 80.7688 150.886 91.0932C139.832 97.4748 135.687 106.365 138.404 114.69C135.474 115.968 132.698 117.354 130.076 118.868C107.725 131.772 100.071 151.36 108.528 174.02C116.629 195.744 138.765 217.909 170.845 236.43C202.924 254.951 241.315 267.731 278.942 272.408C318.19 277.291 352.118 272.872 374.469 259.968C376.855 258.59 379.062 257.129 381.116 255.599C396.013 257.55 412.2 255.223 423.684 248.593Z" fill="url(#paint3_linear_862_32481)"/>
<path fill-rule="evenodd" clip-rule="evenodd" d="M289.544 188.395C279.348 182.509 278.959 172.84 289.042 167.019C299.126 161.197 316.142 161.266 326.337 167.152C336.533 173.039 336.354 182.691 326.271 188.512C316.187 194.334 299.74 194.282 289.544 188.395ZM258.43 211.359C239.549 211.294 220.342 205.472 199.712 193.561C199.669 193.536 199.627 193.502 199.576 193.472C199.533 193.448 199.473 193.423 199.422 193.394C178.792 181.483 168.716 170.398 168.611 159.502C168.579 156.154 173.242 153.463 179.032 153.486C184.814 153.504 189.529 156.226 189.569 159.569C189.641 167.088 197.681 175.371 214.16 184.885C214.211 184.914 214.254 184.949 214.296 184.973C214.347 185.003 214.407 185.027 214.45 185.052C230.928 194.566 245.283 199.213 258.314 199.259C264.113 199.278 268.819 202.005 268.851 205.343C268.875 208.686 264.212 211.378 258.43 211.359ZM208.183 120.335C218.259 114.518 235.265 114.572 245.453 120.454C255.649 126.34 255.461 135.997 245.386 141.814C235.303 147.635 218.855 147.583 208.659 141.696C198.472 135.815 198.1 126.156 208.183 120.335ZM474.47 139.746C481.375 143.732 481.437 150.184 474.616 154.122C467.787 158.065 456.613 158.029 449.707 154.042C442.802 150.055 442.74 143.604 449.57 139.661C456.39 135.723 467.565 135.759 474.47 139.746ZM423.684 221.593C441.566 211.269 441.404 194.382 423.323 183.942C415.497 179.424 405.579 176.852 395.391 176.218C387.827 157.501 369.944 138.531 344.335 121.915L402.876 104.496L432.78 132.246C419.766 140.941 420.52 154.208 434.97 162.551C450.085 171.277 474.552 171.356 489.509 162.72C504.457 154.09 504.322 139.963 489.207 131.237C478.636 125.134 463.494 123.265 450.224 125.64L415.47 93.3958C412.561 90.6944 406.567 89.7257 401.714 91.1688L329.046 112.786C299.038 96.2789 263.982 84.7134 229.372 79.9187C228.114 74.2173 223.694 68.6869 216.099 64.3015C198.017 53.8622 168.768 53.7688 150.886 64.0932C139.832 70.4748 135.687 79.3649 138.404 87.6896C135.474 88.9676 132.698 90.3537 130.076 91.8675C107.725 104.772 100.071 124.36 108.528 147.02C116.629 168.744 138.765 190.909 170.845 209.43C202.924 227.951 241.315 240.731 278.942 245.408C318.19 250.291 352.118 245.872 374.469 232.968C376.855 231.59 379.062 230.129 381.116 228.599C396.013 230.55 412.2 228.223 423.684 221.593Z" fill="#FF5700"/>
<circle cx="59.5" cy="56.5" r="52.5" fill="url(#paint4_linear_862_32481)"/>
<circle cx="59.5" cy="56.5" r="52.5" fill="url(#paint5_radial_862_32481)"/>
<circle cx="59.5" cy="56.5" r="52.5" fill="url(#paint6_radial_862_32481)"/>
<circle cx="59.5" cy="56.5" r="52.5" fill="url(#paint7_radial_862_32481)"/>
<circle cx="59.5" cy="56.5" r="52.5" fill="url(#paint8_radial_862_32481)"/>
<g style="mix-blend-mode:lighten">
<ellipse cx="56.6534" cy="43.2214" rx="32.5753" ry="29.0964" fill="url(#paint9_linear_862_32481)"/>
</g>
<g style="mix-blend-mode:lighten">
<path d="M37.6109 40.362C35.503 39.7071 34.2966 37.4459 35.2901 35.4749C37.0189 32.0453 39.551 29.0599 42.694 26.7864C45.8371 24.513 49.4651 23.0426 53.2634 22.4742C55.4464 22.1475 57.2163 24.0011 57.1785 26.208C57.1407 28.4149 55.2952 30.1242 53.1464 30.6287C51.0811 31.1137 49.1187 32.0042 47.3787 33.2629C45.6386 34.5215 44.1786 36.1065 43.0715 37.9162C41.9198 39.7991 39.7187 41.0169 37.6109 40.362Z" fill="url(#paint10_linear_862_32481)"/>
</g>
<circle cx="501" cy="53" r="34" fill="url(#paint11_linear_862_32481)"/>
<circle cx="501" cy="53" r="34" fill="url(#paint12_radial_862_32481)"/>
<circle cx="501" cy="53" r="34" fill="url(#paint13_radial_862_32481)"/>
<circle cx="501" cy="53" r="34" fill="url(#paint14_radial_862_32481)"/>
<circle cx="501" cy="53" r="34" fill="url(#paint15_radial_862_32481)"/>
<g style="mix-blend-mode:lighten">
<ellipse cx="499.157" cy="44.3981" rx="21.0964" ry="18.8434" fill="url(#paint16_linear_862_32481)"/>
</g>
<g style="mix-blend-mode:lighten">
<path d="M486.824 42.5463C485.459 42.1221 484.678 40.6577 485.321 39.3813C486.441 37.1602 488.081 35.2268 490.116 33.7545C492.152 32.2821 494.501 31.3299 496.961 30.9618C498.375 30.7502 499.521 31.9506 499.497 33.3799C499.472 34.8091 498.277 35.9161 496.885 36.2428C495.548 36.5569 494.277 37.1336 493.15 37.9487C492.023 38.7639 491.078 39.7903 490.361 40.9623C489.615 42.1817 488.189 42.9704 486.824 42.5463Z" fill="url(#paint17_linear_862_32481)"/>
</g>
</g>
<defs>
<filter id="filter0_f_862_32481" x="-10.5625" y="214" width="556.562" height="191.938" filterUnits="userSpaceOnUse" color-interpolation-filters="sRGB">
<feFlood flood-opacity="0" result="BackgroundImageFix"/>
<feBlend mode="normal" in="SourceGraphic" in2="BackgroundImageFix" result="shape"/>
<feGaussianBlur stdDeviation="5.5" result="effect1_foregroundBlur_862_32481"/>
</filter>
<linearGradient id="paint0_linear_862_32481" x1="267.84" y1="352.232" x2="267.84" y2="44.9975" gradientUnits="userSpaceOnUse">
<stop stop-color="#F1F4FE"/>
<stop offset="0.5797" stop-color="#F7F9FE"/>
<stop offset="1" stop-color="white"/>
</linearGradient>
<linearGradient id="paint1_linear_862_32481" x1="33.3838" y1="198.619" x2="502.289" y2="198.619" gradientUnits="userSpaceOnUse">
<stop stop-color="#3A98FF"/>
<stop offset="0.6277" stop-color="#00F0FF"/>
<stop offset="1" stop-color="#00FFAC"/>
</linearGradient>
<linearGradient id="paint2_linear_862_32481" x1="242.582" y1="373.936" x2="293.464" y2="373.936" gradientUnits="userSpaceOnUse">
<stop stop-color="#EFF1FE"/>
<stop offset="1" stop-color="#E4E7FB"/>
</linearGradient>
<linearGradient id="paint3_linear_862_32481" x1="398.297" y1="105.75" x2="284.848" y2="302.25" gradientUnits="userSpaceOnUse">
<stop stop-color="#C3DAFD" stop-opacity="0.76"/>
<stop offset="1" stop-color="#E1EDFF" stop-opacity="0"/>
</linearGradient>
<linearGradient id="paint4_linear_862_32481" x1="59.5" y1="4" x2="59.5" y2="109" gradientUnits="userSpaceOnUse">
<stop stop-color="#40FFC6"/>
<stop offset="0.492708" stop-color="#4AE6FF"/>
<stop offset="1" stop-color="#2595FF"/>
</linearGradient>
<radialGradient id="paint5_radial_862_32481" cx="0" cy="0" r="1" gradientUnits="userSpaceOnUse" gradientTransform="translate(37.9375 24.625) rotate(62.6223) scale(118.244)">
<stop offset="0.462106" stop-color="#2AA8FF" stop-opacity="0"/>
<stop offset="0.894737" stop-color="#2595FF"/>
</radialGradient>
<radialGradient id="paint6_radial_862_32481" cx="0" cy="0" r="1" gradientUnits="userSpaceOnUse" gradientTransform="translate(34.1875 26.5) rotate(56.6259) scale(141.451)">
<stop stop-color="#6EFFCE"/>
<stop offset="0.570035" stop-color="#A5FFFD" stop-opacity="0"/>
</radialGradient>
<radialGradient id="paint7_radial_862_32481" cx="0" cy="0" r="1" gradientUnits="userSpaceOnUse" gradientTransform="translate(49.1875 35.875) rotate(63.4349) scale(75.4106)">
<stop offset="0.672439" stop-color="#9EC6FD" stop-opacity="0"/>
<stop offset="1" stop-color="white"/>
</radialGradient>
<radialGradient id="paint8_radial_862_32481" cx="0" cy="0" r="1" gradientUnits="userSpaceOnUse" gradientTransform="translate(53.8243 45.1486) rotate(62.0378) scale(65.0617)">
<stop offset="0.961458" stop-color="#2AA8FF" stop-opacity="0"/>
<stop offset="1" stop-color="#058AFF" stop-opacity="0.26"/>
</radialGradient>
<linearGradient id="paint9_linear_862_32481" x1="38.039" y1="21.6337" x2="61.5253" y2="47.7178" gradientUnits="userSpaceOnUse">
<stop stop-color="white" stop-opacity="0.86"/>
<stop offset="1" stop-color="#D9D9D9" stop-opacity="0"/>
</linearGradient>
<linearGradient id="paint10_linear_862_32481" x1="56.6641" y1="24.5771" x2="42.475" y2="40.8946" gradientUnits="userSpaceOnUse">
<stop stop-color="white"/>
<stop offset="1" stop-color="#FFFFE9" stop-opacity="0.38"/>
</linearGradient>
<linearGradient id="paint11_linear_862_32481" x1="501" y1="19" x2="501" y2="87" gradientUnits="userSpaceOnUse">
<stop stop-color="#40FFC6"/>
<stop offset="0.492708" stop-color="#4AE6FF"/>
<stop offset="1" stop-color="#2595FF"/>
</linearGradient>
<radialGradient id="paint12_radial_862_32481" cx="0" cy="0" r="1" gradientUnits="userSpaceOnUse" gradientTransform="translate(487.036 32.3571) rotate(62.6223) scale(76.5771)">
<stop offset="0.462106" stop-color="#2AA8FF" stop-opacity="0"/>
<stop offset="0.894737" stop-color="#2595FF"/>
</radialGradient>
<radialGradient id="paint13_radial_862_32481" cx="0" cy="0" r="1" gradientUnits="userSpaceOnUse" gradientTransform="translate(484.607 33.5714) rotate(56.6259) scale(91.6062)">
<stop stop-color="#6EFFCE"/>
<stop offset="0.570035" stop-color="#A5FFFD" stop-opacity="0"/>
</radialGradient>
<radialGradient id="paint14_radial_862_32481" cx="0" cy="0" r="1" gradientUnits="userSpaceOnUse" gradientTransform="translate(494.321 39.6429) rotate(63.4349) scale(48.8374)">
<stop offset="0.672439" stop-color="#9EC6FD" stop-opacity="0"/>
<stop offset="1" stop-color="white"/>
</radialGradient>
<radialGradient id="paint15_radial_862_32481" cx="0" cy="0" r="1" gradientUnits="userSpaceOnUse" gradientTransform="translate(497.324 45.6486) rotate(62.0378) scale(42.1352)">
<stop offset="0.961458" stop-color="#2AA8FF" stop-opacity="0"/>
<stop offset="1" stop-color="#058AFF" stop-opacity="0.26"/>
</radialGradient>
<linearGradient id="paint16_linear_862_32481" x1="487.102" y1="30.4175" x2="502.312" y2="47.3101" gradientUnits="userSpaceOnUse">
<stop stop-color="white" stop-opacity="0.86"/>
<stop offset="1" stop-color="#D9D9D9" stop-opacity="0"/>
</linearGradient>
<linearGradient id="paint17_linear_862_32481" x1="499.164" y1="32.3236" x2="489.974" y2="42.8912" gradientUnits="userSpaceOnUse">
<stop stop-color="white"/>
<stop offset="1" stop-color="#FFFFE9" stop-opacity="0.38"/>
</linearGradient>
<clipPath id="clip0_862_32481">
<rect width="535" height="422" fill="white"/>
</clipPath>
</defs>
</svg>
