<svg width="340" height="325" viewBox="0 0 340 325" fill="none" xmlns="http://www.w3.org/2000/svg">
<circle cx="163" cy="141" r="101" fill="url(#paint0_linear_876_33902)" stroke="#CFE8FF" stroke-width="2" stroke-linecap="round" stroke-dasharray="7 0"/>
<circle cx="163" cy="141" r="56" fill="url(#paint1_linear_876_33902)" stroke="#CFE8FF" stroke-width="2" stroke-linecap="square" stroke-dasharray="1 10"/>
<path d="M299.847 213.926C300.637 216.637 300.853 219.244 300.454 221.717L299.467 221.558C299.37 222.163 299.232 222.76 299.055 223.347C298.878 223.934 298.662 224.507 298.409 225.066L299.319 225.479C298.283 227.76 296.661 229.811 294.502 231.633L293.858 230.869C292.942 231.641 291.921 232.375 290.795 233.069L291.32 233.92C289.261 235.19 286.885 236.318 284.216 237.304L283.87 236.366C282.702 236.798 281.474 237.203 280.188 237.581L280.47 238.54C278.097 239.238 275.539 239.842 272.809 240.352L272.625 239.369C271.381 239.602 270.101 239.815 268.784 240.009L268.929 240.998C266.444 241.363 263.835 241.659 261.112 241.886L261.029 240.889C259.752 240.996 258.449 241.086 257.121 241.162L257.178 242.16C254.639 242.305 252.01 242.393 249.298 242.426L249.286 241.426C248.002 241.442 246.699 241.444 245.377 241.435L245.37 242.435C242.804 242.416 240.17 242.35 237.473 242.236L237.515 241.237C236.23 241.183 234.93 241.118 233.616 241.042L233.559 242.04C230.986 241.892 228.36 241.703 225.684 241.472L225.77 240.476C224.484 240.365 223.187 240.245 221.879 240.115L221.781 241.11C219.209 240.854 216.596 240.562 213.942 240.233L214.065 239.241C212.78 239.081 211.484 238.913 210.18 238.736L210.046 239.727C207.481 239.379 204.882 238.998 202.25 238.584L202.406 237.596C201.119 237.393 199.825 237.182 198.524 236.963L198.358 237.949C195.801 237.52 193.217 237.059 190.607 236.567L190.792 235.585C189.509 235.343 188.219 235.094 186.924 234.837L186.729 235.818C184.179 235.312 181.607 234.778 179.013 234.215L179.226 233.238C177.956 232.962 176.682 232.679 175.403 232.39L175.182 233.365C172.644 232.79 170.087 232.188 167.514 231.558L167.751 230.587C166.482 230.277 165.209 229.959 163.932 229.636L163.686 230.605C161.161 229.965 158.621 229.298 156.068 228.606L156.33 227.641C155.071 227.299 153.808 226.951 152.543 226.597L152.273 227.56C149.761 226.856 147.237 226.128 144.704 225.374L144.989 224.416C144.359 224.228 143.729 224.039 143.098 223.849C142.467 223.658 141.838 223.467 141.209 223.275L140.916 224.231C138.389 223.457 135.884 222.668 133.402 221.864L133.71 220.913C132.46 220.508 131.216 220.099 129.978 219.687L129.662 220.636C127.153 219.801 124.668 218.951 122.21 218.087L122.542 217.144C121.299 216.707 120.063 216.267 118.834 215.823L118.494 216.764C116.002 215.865 113.539 214.952 111.107 214.026L111.462 213.092C110.236 212.625 109.019 212.156 107.809 211.683L107.445 212.615C104.973 211.649 102.534 210.671 100.131 209.682L100.511 208.757C99.29 208.254 98.0779 207.748 96.8751 207.24L96.4856 208.161C94.0394 207.126 91.6315 206.08 89.2641 205.024L89.6716 204.111C88.4663 203.573 87.2715 203.033 86.0876 202.49L85.6708 203.399C83.2495 202.289 80.8732 201.168 78.5442 200.039L78.9805 199.139C77.7962 198.565 76.6242 197.988 75.4649 197.41L75.0184 198.305C72.6261 197.111 70.2871 195.908 68.004 194.699L68.4721 193.815C67.3106 193.2 66.1637 192.583 65.0317 191.964L64.5521 192.841C62.1952 191.553 59.9026 190.258 57.6773 188.958L58.1817 188.095C57.0453 187.431 55.9267 186.766 54.8263 186.1L54.3086 186.955C51.9987 185.558 49.768 184.156 47.6202 182.752L48.1673 181.915C47.061 181.192 45.9771 180.469 44.9161 179.746L44.3529 180.572C42.1117 179.044 39.971 177.516 37.9358 175.991L38.5354 175.191C37.4709 174.394 36.4359 173.597 35.4309 172.802L34.8105 173.586C32.6668 171.891 30.6575 170.201 28.7893 168.522L29.4578 167.778C28.4681 166.888 27.5192 166.002 26.6119 165.121L25.915 165.838C23.9227 163.902 22.1258 161.984 20.5349 160.09L21.3006 159.447C20.4388 158.421 19.6401 157.404 18.9058 156.398L18.098 156.988C16.4209 154.69 15.0657 152.436 14.0527 150.239L14.9608 149.82C14.4071 148.619 13.9621 147.443 13.627 146.293L12.6669 146.573C11.8767 143.861 11.6603 141.255 12.0592 138.782L13.0464 138.941C13.1441 138.335 13.2812 137.739 13.4584 137.152C13.6357 136.564 13.8515 135.992 14.1051 135.433L13.1946 135.02C14.2305 132.739 15.8527 130.687 18.0111 128.866L18.6561 129.63C19.5714 128.857 20.5929 128.123 21.7184 127.43L21.1936 126.578C23.2529 125.309 25.6289 124.181 28.2971 123.194L28.6438 124.132C29.8121 123.7 31.0398 123.296 32.3253 122.918L32.0433 121.958C34.4162 121.261 36.9745 120.657 39.7051 120.146L39.8889 121.129C41.1324 120.897 42.413 120.684 43.7296 120.49L43.5842 119.501C46.0695 119.135 48.6782 118.839 51.402 118.613L51.4849 119.609C52.7618 119.503 54.0647 119.412 55.3928 119.337L55.336 118.338C57.8751 118.194 60.5036 118.105 63.2157 118.073L63.2278 119.073C64.5117 119.057 65.8148 119.054 67.1363 119.064L67.1437 118.064C69.7093 118.083 72.3432 118.149 75.0406 118.263L74.9985 119.262C76.2836 119.316 77.5833 119.381 78.8972 119.457L78.9547 118.458C81.5276 118.606 84.1539 118.796 86.8299 119.027L86.744 120.023C88.0293 120.134 89.3262 120.254 90.6342 120.384L90.7331 119.389C93.3042 119.644 95.918 119.937 98.5712 120.266L98.4482 121.258C99.734 121.417 101.029 121.586 102.333 121.762L102.468 120.771C105.033 121.119 107.632 121.5 110.263 121.915L110.108 122.903C111.394 123.106 112.688 123.317 113.99 123.535L114.156 122.549C116.712 122.979 119.297 123.44 121.907 123.931L121.722 124.914C123.005 125.156 124.294 125.405 125.59 125.662L125.784 124.681C128.334 125.186 130.907 125.721 133.5 126.284L133.288 127.261C134.557 127.537 135.832 127.819 137.111 128.109L137.331 127.134C139.87 127.709 142.427 128.311 145 128.94L144.762 129.912C146.032 130.222 147.305 130.539 148.582 130.863L148.828 129.894C151.353 130.534 153.893 131.201 156.446 131.893L156.184 132.858C157.443 133.2 158.706 133.548 159.971 133.902L160.241 132.939C162.753 133.643 165.276 134.371 167.809 135.125L167.524 136.083C168.154 136.27 168.785 136.459 169.416 136.65C170.046 136.84 170.676 137.032 171.304 137.224L171.597 136.268C174.124 137.042 176.629 137.831 179.111 138.635L178.803 139.586C180.053 139.991 181.298 140.399 182.536 140.811L182.851 139.863C185.361 140.698 187.846 141.548 190.303 142.411L189.972 143.355C191.215 143.792 192.451 144.232 193.68 144.675L194.019 143.735C196.511 144.634 198.975 145.547 201.407 146.472L201.052 147.407C202.277 147.873 203.495 148.343 204.705 148.815L205.069 147.884C207.541 148.849 209.979 149.827 212.383 150.817L212.002 151.742C213.224 152.245 214.436 152.75 215.639 153.259L216.028 152.338C218.474 153.372 220.882 154.418 223.249 155.475L222.842 156.388C224.047 156.926 225.242 157.466 226.426 158.009L226.843 157.1C229.264 158.21 231.64 159.33 233.969 160.46L233.533 161.36C234.717 161.934 235.889 162.51 237.049 163.089L237.495 162.194C239.888 163.388 242.227 164.59 244.51 165.8L244.041 166.684C245.203 167.299 246.35 167.916 247.482 168.535L247.962 167.657C250.318 168.946 252.611 170.241 254.836 171.541L254.332 172.404C255.468 173.068 256.587 173.733 257.687 174.399L258.205 173.543C260.515 174.941 262.746 176.343 264.893 177.746L264.346 178.584C265.453 179.307 266.536 180.03 267.598 180.753L268.161 179.927C270.402 181.454 272.543 182.982 274.578 184.507L273.978 185.307C275.043 186.105 276.078 186.902 277.083 187.697L277.703 186.912C279.847 188.608 281.856 190.298 283.724 191.977L283.056 192.721C284.045 193.61 284.994 194.496 285.902 195.378L286.599 194.661C288.591 196.597 290.388 198.515 291.979 200.409L291.213 201.052C292.075 202.078 292.874 203.095 293.608 204.101L294.416 203.511C296.093 205.809 297.448 208.063 298.461 210.26L297.553 210.679C298.107 211.879 298.551 213.056 298.887 214.206L299.847 213.926Z" stroke="url(#paint2_linear_876_33902)" stroke-opacity="0.72" stroke-width="2" stroke-dasharray="4 8"/>
<path d="M317 65L319.431 71.5692L326 74L319.431 76.4308L317 83L314.569 76.4308L308 74L314.569 71.5692L317 65Z" fill="#2595FF"/>
<path d="M298 94L299.621 98.3795L304 100L299.621 101.621L298 106L296.38 101.621L292 100L296.38 98.3795L298 94Z" fill="#CFE8FF"/>
<path d="M13 90L14.6205 94.3795L19 96L14.6205 97.6205L13 102L11.3795 97.6205L7 96L11.3795 94.3795L13 90Z" fill="#CFE8FF"/>
<circle cx="70.5" cy="104.5" r="5.5" fill="#2595FF"/>
<circle cx="272.5" cy="239.5" r="5.5" fill="#40FFC6"/>
<path d="M122.61 69.0727C122.61 64.9398 125.511 63.2647 129.09 65.3311L233.34 125.519C236.919 127.586 239.82 132.611 239.82 136.744L239.82 221.378C239.82 225.511 236.919 227.186 233.339 225.12L129.09 164.931C125.511 162.865 122.61 157.839 122.61 153.707L122.61 69.0727Z" fill="url(#paint3_linear_876_33902)" fill-opacity="0.29"/>
<path d="M114.682 72.9958C114.682 68.8629 117.584 67.1878 121.163 69.2542L225.412 129.443C228.991 131.509 231.893 136.534 231.893 140.667L231.893 225.301C231.893 229.434 228.991 231.109 225.412 229.043L121.163 168.854C117.584 166.788 114.682 161.762 114.682 157.63L114.682 72.9958Z" fill="url(#paint4_linear_876_33902)" fill-opacity="0.72"/>
<path d="M112.481 73.7413L216.73 133.93C219.831 135.72 222.345 140.074 222.345 143.654L222.345 228.288C222.345 231.869 219.831 233.32 216.73 231.53L112.481 171.342C109.38 169.551 106.866 165.197 106.866 161.617L106.866 76.9829C106.866 73.4023 109.38 71.951 112.481 73.7413Z" fill="url(#paint5_linear_876_33902)" stroke="#F6FAFF" stroke-width="2"/>
<path d="M106 78.9996C106 73.4768 109.877 71.2382 114.66 73.9996L214.55 131.671C219.333 134.433 223.211 141.148 223.211 146.671L223.211 151.055L106 83.3839L106 78.9996Z" fill="#F6FAFF"/>
<path d="M253 153.864C253 148.942 256.455 142.958 260.717 140.497L304.517 115.209C308.779 112.748 312.234 114.743 312.234 119.665L312.234 148.057C312.234 152.979 308.779 158.963 304.517 161.424L260.717 186.712C256.455 189.172 253 187.177 253 182.256L253 153.864Z" fill="#1681E6"/>
<path d="M292.223 119.83C292.223 117.37 293.95 114.377 296.081 113.147L308.376 106.049C310.507 104.819 312.234 105.816 312.234 108.277L312.234 137.493C312.234 139.954 310.507 142.946 308.376 144.176L296.081 151.274C293.95 152.505 292.223 151.507 292.223 149.046L292.223 119.83Z" fill="#1681E6"/>
<path d="M258.192 157.257C258.896 152.661 262.073 147.802 265.768 145.668L309.28 120.547C314.132 117.745 317.78 120.747 316.857 126.78L313.446 149.054C312.743 153.65 309.566 158.509 305.87 160.643L262.358 185.764C257.506 188.565 253.858 185.564 254.782 179.531L258.192 157.257Z" fill="#2595FF"/>
<ellipse rx="1.96149" ry="1.96149" transform="matrix(0.866025 0.5 -2.20305e-08 1 113.172 80.3327)" fill="#23FBB2"/>
<ellipse rx="1.96149" ry="1.96149" transform="matrix(0.866025 0.5 -2.20305e-08 1 119.023 83.7108)" fill="#8BFF6A"/>
<ellipse rx="1.96149" ry="1.96149" transform="matrix(0.866025 0.5 -2.20305e-08 1 124.874 87.089)" fill="#4BC1EA"/>
<rect width="39.9202" height="5.39463" rx="2.69731" transform="matrix(0.866025 0.5 -2.20305e-08 1 117.227 103.365)" fill="white"/>
<rect width="25.8942" height="5.39463" rx="2.69731" transform="matrix(0.866025 0.5 -2.20305e-08 1 156.471 126.023)" fill="white"/>
<rect width="25.8942" height="5.39463" rx="2.69731" transform="matrix(0.866025 0.5 -2.20305e-08 1 117.227 124.944)" fill="white"/>
<rect width="25.8942" height="5.39463" rx="2.69731" transform="matrix(0.866025 0.5 -2.20305e-08 1 145.258 141.128)" fill="white"/>
<rect width="18.3417" height="5.39463" rx="2.69731" transform="matrix(0.866025 0.5 -2.20305e-08 1 184.502 142.207)" fill="white"/>
<rect width="18.3417" height="5.39463" rx="2.69731" transform="matrix(0.866025 0.5 -2.20305e-08 1 117.227 143.286)" fill="white"/>
<rect width="18.3417" height="5.39463" rx="2.69731" transform="matrix(0.866025 0.5 -2.20305e-08 1 137.783 155.154)" fill="white"/>
<rect width="18.3417" height="5.39463" rx="2.69731" transform="matrix(0.866025 0.5 -2.20305e-08 1 117.227 114.155)" fill="white"/>
<rect width="18.3417" height="5.39463" rx="2.69731" transform="matrix(0.866025 0.5 -2.20305e-08 1 137.783 126.023)" fill="white"/>
<rect width="47.4727" height="5.39463" rx="2.69731" transform="matrix(0.866025 0.5 -2.20305e-08 1 157.405 137.352)" fill="white"/>
<path d="M310.228 181.736C309.825 187.663 305.412 193.237 297.291 198.196C289.198 203.138 277.623 207.338 263.362 210.572C234.854 217.038 195.844 219.597 153.103 216.687C110.362 213.777 72.0589 205.956 44.6901 195.685C30.9994 190.548 20.1002 184.818 12.7515 178.825C5.3778 172.812 1.76116 166.691 2.16465 160.764C2.56813 154.837 6.98091 149.263 15.1016 144.305C23.1948 139.363 34.7699 135.163 49.0305 131.929C77.5387 125.462 116.548 122.904 159.29 125.813C202.031 128.723 240.334 136.545 267.703 146.815C281.393 151.953 292.292 157.682 299.641 163.676C307.015 169.689 310.632 175.81 310.228 181.736Z" stroke="url(#paint6_linear_876_33902)" stroke-width="2"/>
<path d="M39.9144 117.271L39.9144 194.971C39.9144 194.971 27.9348 179.977 22.94 168.562C18.4651 158.335 17.0088 151.961 15.5766 141.783C14.5243 134.306 15.0914 124.546 15.4088 120.443C15.5038 119.215 16.1246 118.465 17.034 118.419L39.9144 117.271Z" fill="url(#paint7_linear_876_33902)" fill-opacity="0.29"/>
<path d="M62.8013 144.843L39.9144 117.271L39.9144 194.971C39.9144 194.971 51.9008 193.814 56.8955 188.166C61.3704 183.106 62.8268 178.414 64.259 169.89C65.3113 163.628 64.7442 153.213 64.4268 148.744C64.3318 147.406 63.7108 145.939 62.8013 144.843Z" fill="url(#paint8_linear_876_33902)" fill-opacity="0.29"/>
<path d="M34.9457 121.335L57.2874 147C57.2874 147 61.5 148.5 59.2902 170.513C58.3958 173.938 57 179.283 57 179.283C57 179.283 55.5 183.5 51.9268 186.779C48.6344 190 47.0661 189.794 43.5 190.838C40.3498 191.761 34.9457 192.102 34.9457 192.102C34.9457 192.102 22.966 177.829 17.9713 167.175C13.4964 157.63 12.04 151.749 10.6078 142.406C9.55551 135.542 10.1226 126.682 10.44 122.962C10.535 121.848 11.1559 121.197 12.0653 121.202L34.9457 121.335Z" fill="#2595FF"/>
<path d="M57.8325 147.626L34.9457 121.335L57.2874 147C57.2874 147 61.5 148.5 59.2902 170.513C58.3958 173.938 57 179.283 57 179.283C57 179.283 55.5 183.5 51.9268 186.779C48.6344 190 47.0661 189.794 43.5 190.838C40.3498 191.761 34.9457 192.102 34.9457 192.102C34.9457 192.102 46.932 191.665 51.9268 186.779C56.4017 182.401 57.5232 180 59.2902 170.513C60.3425 164.864 59.7754 155.349 59.458 151.262C59.363 150.039 58.7421 148.671 57.8325 147.626Z" fill="#2595FF"/>
<path fill-rule="evenodd" clip-rule="evenodd" d="M39.0236 160.312C41.2416 159.031 41.2416 154.879 39.0236 151.037C36.8056 147.195 33.2095 145.119 30.9915 146.4C28.7734 147.68 28.7734 151.833 30.9915 155.674C33.2095 159.516 36.8056 161.592 39.0236 160.312ZM41.4035 164.434C44.9359 162.394 44.9359 155.781 41.4035 149.663C37.8711 143.545 32.144 140.238 28.6116 142.277C25.0792 144.317 25.0792 150.93 28.6116 157.048C32.144 163.167 37.8711 166.473 41.4035 164.434Z" fill="white"/>
<path fill-rule="evenodd" clip-rule="evenodd" d="M39.47 161.07C40.1272 160.691 41.1927 161.306 41.8499 162.444L45.0794 168.038C45.7366 169.176 45.7366 170.407 45.0794 170.786C44.4222 171.166 43.3567 170.55 42.6995 169.412L39.47 163.818C38.8128 162.68 38.8128 161.45 39.47 161.07Z" fill="white"/>
<circle cx="225.333" cy="57.3333" r="26.3333" fill="url(#paint9_linear_876_33902)"/>
<circle cx="225.333" cy="57.3333" r="26.3333" fill="url(#paint10_radial_876_33902)"/>
<circle cx="225.333" cy="57.3333" r="26.3333" fill="url(#paint11_radial_876_33902)"/>
<circle cx="225.333" cy="57.3333" r="26.3333" fill="url(#paint12_radial_876_33902)"/>
<circle cx="225.333" cy="57.3333" r="26.3333" fill="url(#paint13_radial_876_33902)"/>
<g style="mix-blend-mode:lighten">
<ellipse cx="223.906" cy="50.6707" rx="16.3394" ry="14.5944" fill="url(#paint14_linear_876_33902)"/>
</g>
<g style="mix-blend-mode:lighten">
<path d="M214.353 49.2373C213.296 48.9088 212.691 47.7746 213.189 46.786C214.056 45.0658 215.326 43.5683 216.903 42.428C218.479 41.2876 220.299 40.5501 222.204 40.265C223.299 40.1011 224.187 41.0309 224.168 42.1378V42.1378C224.149 43.2448 223.223 44.1021 222.145 44.3552C221.109 44.5984 220.125 45.0451 219.252 45.6765C218.38 46.3078 217.647 47.1028 217.092 48.0105C216.514 48.955 215.41 49.5658 214.353 49.2373V49.2373Z" fill="url(#paint15_linear_876_33902)"/>
</g>
<defs>
<linearGradient id="paint0_linear_876_33902" x1="163" y1="40" x2="163" y2="242" gradientUnits="userSpaceOnUse">
<stop stop-color="#FEFDFF"/>
<stop offset="1" stop-color="#F2F8FF"/>
</linearGradient>
<linearGradient id="paint1_linear_876_33902" x1="163" y1="84" x2="163" y2="198" gradientUnits="userSpaceOnUse">
<stop stop-color="#FEFDFF"/>
<stop offset="1" stop-color="#F2F8FF"/>
</linearGradient>
<linearGradient id="paint2_linear_876_33902" x1="89.8832" y1="204.491" x2="82.0661" y2="156.677" gradientUnits="userSpaceOnUse">
<stop stop-color="#CDE7FF"/>
<stop offset="1" stop-color="#E3EDFF" stop-opacity="0"/>
</linearGradient>
<linearGradient id="paint3_linear_876_33902" x1="181.215" y1="95.4253" x2="138.087" y2="170.125" gradientUnits="userSpaceOnUse">
<stop offset="0.773958" stop-color="#2087F8" stop-opacity="0.43"/>
<stop offset="1" stop-color="#3A98FF" stop-opacity="0"/>
</linearGradient>
<linearGradient id="paint4_linear_876_33902" x1="173.288" y1="99.3484" x2="130.159" y2="174.049" gradientUnits="userSpaceOnUse">
<stop offset="0.51875" stop-color="#1383FE"/>
<stop offset="1" stop-color="#3A98FF" stop-opacity="0"/>
</linearGradient>
<linearGradient id="paint5_linear_876_33902" x1="164.605" y1="102.835" x2="121.477" y2="177.536" gradientUnits="userSpaceOnUse">
<stop stop-color="#3EF7CB"/>
<stop offset="1" stop-color="#2595FF"/>
</linearGradient>
<linearGradient id="paint6_linear_876_33902" x1="122" y1="219" x2="143.775" y2="104.54" gradientUnits="userSpaceOnUse">
<stop stop-color="#CDE7FF"/>
<stop offset="0.578693" stop-color="#E3EDFF" stop-opacity="0"/>
</linearGradient>
<linearGradient id="paint7_linear_876_33902" x1="39.9178" y1="117.273" x2="6.27282" y2="175.548" gradientUnits="userSpaceOnUse">
<stop offset="0.51875" stop-color="#1383FE"/>
<stop offset="1" stop-color="#3A98FF" stop-opacity="0"/>
</linearGradient>
<linearGradient id="paint8_linear_876_33902" x1="39.9178" y1="117.273" x2="6.27282" y2="175.548" gradientUnits="userSpaceOnUse">
<stop offset="0.51875" stop-color="#1383FE"/>
<stop offset="1" stop-color="#3A98FF" stop-opacity="0"/>
</linearGradient>
<linearGradient id="paint9_linear_876_33902" x1="225.333" y1="31" x2="225.333" y2="83.6667" gradientUnits="userSpaceOnUse">
<stop stop-color="#40FFC6"/>
<stop offset="0.492708" stop-color="#4AE6FF"/>
<stop offset="1" stop-color="#2595FF"/>
</linearGradient>
<radialGradient id="paint10_radial_876_33902" cx="0" cy="0" r="1" gradientUnits="userSpaceOnUse" gradientTransform="translate(214.518 41.3452) rotate(62.6223) scale(59.3097)">
<stop offset="0.462106" stop-color="#2AA8FF" stop-opacity="0"/>
<stop offset="0.894737" stop-color="#2595FF"/>
</radialGradient>
<radialGradient id="paint11_radial_876_33902" cx="0" cy="0" r="1" gradientUnits="userSpaceOnUse" gradientTransform="translate(212.637 42.2857) rotate(56.6259) scale(70.9499)">
<stop stop-color="#6EFFCE"/>
<stop offset="0.570035" stop-color="#A5FFFD" stop-opacity="0"/>
</radialGradient>
<radialGradient id="paint12_radial_876_33902" cx="0" cy="0" r="1" gradientUnits="userSpaceOnUse" gradientTransform="translate(220.161 46.9881) rotate(63.4349) scale(37.825)">
<stop offset="0.672439" stop-color="#9EC6FD" stop-opacity="0"/>
<stop offset="1" stop-color="white"/>
</radialGradient>
<radialGradient id="paint13_radial_876_33902" cx="0" cy="0" r="1" gradientUnits="userSpaceOnUse" gradientTransform="translate(222.486 51.6396) rotate(62.0378) scale(32.6341)">
<stop offset="0.961458" stop-color="#2AA8FF" stop-opacity="0"/>
<stop offset="1" stop-color="#058AFF" stop-opacity="0.26"/>
</radialGradient>
<linearGradient id="paint14_linear_876_33902" x1="214.569" y1="39.8426" x2="226.349" y2="52.926" gradientUnits="userSpaceOnUse">
<stop stop-color="white" stop-opacity="0.86"/>
<stop offset="1" stop-color="#D9D9D9" stop-opacity="0"/>
</linearGradient>
<linearGradient id="paint15_linear_876_33902" x1="223.91" y1="41.3198" x2="216.793" y2="49.5045" gradientUnits="userSpaceOnUse">
<stop stop-color="white"/>
<stop offset="1" stop-color="#FFFFE9" stop-opacity="0.38"/>
</linearGradient>
</defs>
</svg>
