<svg width="766" height="615" viewBox="0 0 766 615" fill="none" xmlns="http://www.w3.org/2000/svg">
<g clip-path="url(#clip0_862_34935)">
<rect x="1.73205" width="306.912" height="275.814" rx="29" transform="matrix(0.866025 -0.5 0.866025 0.5 174.729 266.12)" stroke="#D8ECFF" stroke-width="2"/>
<rect x="1.73205" width="349.561" height="275.814" rx="29" transform="matrix(0.866025 -0.5 0.866025 0.5 232.497 429.311)" stroke="#D8ECFF" stroke-width="2"/>
<rect x="1.73205" width="361.288" height="287.318" rx="29" transform="matrix(0.866025 -0.5 0.866025 0.5 29.5524 401.663)" stroke="#D8ECFF" stroke-width="2"/>
<circle r="3.69433" transform="matrix(0.866025 -0.5 0.866025 0.5 144.481 334.309)" fill="#23FBB2"/>
<ellipse rx="5.91092" ry="5.91093" transform="matrix(0.866025 -0.5 0.866025 0.5 488.094 280.742)" fill="#23FBB2"/>
<ellipse rx="5.91093" ry="5.91092" transform="matrix(0.866025 -0.5 0.866025 0.5 425.238 459.906)" fill="#23FBB2"/>
<ellipse rx="3.69434" ry="3.69433" transform="matrix(0.866025 -0.5 0.866025 0.5 515.61 153.285)" fill="#3A98FF"/>
<ellipse rx="5.91093" ry="5.91092" transform="matrix(0.866025 -0.5 0.866025 0.5 584.076 503.141)" fill="#3A98FF"/>
<ellipse rx="5.91092" ry="5.91093" transform="matrix(0.866025 -0.5 0.866025 0.5 317.887 182.473)" fill="#3A98FF"/>
<g filter="url(#filter0_f_862_34935)">
<path d="M672.744 369.173L645.764 133.656L606.509 176.398L584.957 172.288H583.417L399.841 58.8594L387.91 304.621L590.388 421.499L625.878 375.088L672.744 369.173Z" fill="#D8ECFF"/>
</g>
<path d="M595.796 168.588L597.44 168.999L590.453 410.14L588.809 411.783L387 301.277L399.33 55.6172L595.796 168.588Z" fill="white"/>
<path d="M389.877 299.223L402.207 60.957L592.508 170.231L585.931 406.442L389.877 299.223Z" fill="#F1F7FF"/>
<path d="M595.796 168.584L620.457 172.692L661.969 129.969L677.588 364.126L621.69 371.521L588.809 411.779L595.385 173.514L595.796 168.584Z" fill="white"/>
<path d="M598.673 172.282L621.69 175.979L659.503 137.363L673.889 361.251L620.046 368.645L592.508 402.742L598.673 172.282Z" fill="#EAF4FF"/>
<path d="M399.33 55.6155H439.199L465.915 17L661.969 129.971L620.457 172.694L595.796 168.586L399.33 55.6155Z" fill="white"/>
<path d="M595.795 168.588L405.084 58.9032L440.842 58.4924L467.147 21.1094L659.914 132.026L620.456 172.696L595.795 168.588Z" fill="#40FFC6"/>
<path d="M595.796 168.588L465.915 93.8215L467.148 21.1094L659.914 132.026L620.457 172.696L595.796 168.588Z" fill="url(#paint0_linear_862_34935)"/>
<path d="M526.237 146.935C525.415 145.703 524.182 146.114 523.771 147.757C523.36 149.4 523.771 151.454 524.593 152.276C525.415 153.508 526.648 153.097 527.059 151.454C527.881 149.811 527.47 147.757 526.237 146.935Z" fill="#283160"/>
<path d="M452.525 106.9C451.703 105.668 450.47 106.079 450.059 107.722C449.648 109.365 450.059 111.419 450.881 112.241C451.703 113.473 452.936 113.062 453.347 111.419C454.169 109.776 453.758 107.722 452.525 106.9Z" fill="#283160"/>
<path d="M500.44 249.106C495.508 249.106 489.753 246.641 483.177 242.122C463.037 227.744 451.118 200.631 448.241 163.248C446.186 135.313 449.885 111.076 449.885 111.076C449.885 110.254 450.707 109.433 451.529 109.844C452.351 109.844 453.173 110.665 452.762 111.487C452.762 112.308 438.376 205.971 484.821 239.247C493.041 245.409 500.029 247.052 505.372 244.176C520.99 236.371 523.457 192.826 523.868 151.335C523.868 150.513 524.69 149.691 525.512 149.691C526.334 149.691 527.156 150.513 527.156 151.335C526.745 196.112 523.868 238.425 506.605 247.052C504.961 248.695 502.906 249.106 500.44 249.106Z" fill="#B7C0EB"/>
<path d="M500.03 248.694C495.098 248.694 489.343 246.64 483.178 242.122C463.449 227.743 451.53 200.631 448.653 163.658C446.598 135.724 450.297 111.897 450.297 111.486C450.297 110.665 451.119 110.254 451.941 110.254C452.763 110.254 453.585 111.075 453.174 111.897C453.174 112.719 438.788 205.971 484.822 239.246C493.043 244.997 500.03 246.64 505.373 244.176C520.992 236.37 523.458 192.825 523.869 151.745C523.869 150.923 524.691 150.102 525.513 150.102C526.335 150.102 527.157 150.923 527.157 151.745C526.746 196.112 523.869 238.424 507.017 247.051C504.551 248.284 502.085 248.694 500.03 248.694Z" fill="url(#paint1_linear_862_34935)"/>
<g opacity="0.5" filter="url(#filter1_f_862_34935)">
<rect width="196.219" height="196.219" transform="matrix(0.866025 0.5 -0.866025 0.5 418.931 409)" fill="#C2D5E7" fill-opacity="0.56"/>
</g>
<rect width="194.14" height="26.9762" transform="matrix(0.866025 0.5 -3.0016e-08 1 250.8 444.613)" fill="#E6ECF3"/>
<rect width="194.14" height="26.9762" transform="matrix(0.866025 0.5 -3.0016e-08 1 250.8 444.613)" fill="url(#paint2_linear_862_34935)"/>
<rect width="194.14" height="26.7703" transform="matrix(0.866025 -0.5 1.4045e-08 1 418.999 541.684)" fill="#FAFDFF"/>
<rect width="194.14" height="26.7703" transform="matrix(0.866025 -0.5 1.4045e-08 1 418.999 541.684)" fill="url(#paint3_linear_862_34935)"/>
<rect width="194.14" height="194.14" transform="matrix(0.866025 0.5 -0.866025 0.5 418.931 347.543)" fill="url(#paint4_linear_862_34935)"/>
<circle r="75.7024" transform="matrix(0.866025 -0.5 0.866025 0.5 418.614 438.309)" fill="#EAF2FF"/>
<mask id="mask0_862_34935" style="mask-type:alpha" maskUnits="userSpaceOnUse" x="321" y="381" width="196" height="114">
<circle r="79.6791" transform="matrix(0.866025 -0.5 0.866025 0.5 418.614 438.309)" fill="#D9D9D9"/>
</mask>
<g mask="url(#mask0_862_34935)">
<path d="M383.913 392.346C386.698 388.741 402.124 383.865 409.488 381.878L476.97 373.836L518.635 393.593C513.072 398.1 500.168 407.361 493.06 408.36C484.174 409.607 477.69 401.288 461.84 396.436C445.991 391.583 444.07 397.545 449.473 401.08C454.876 404.616 452.955 406.973 439.627 409.261C426.299 411.549 431.102 415.708 441.188 418.065C451.274 420.422 459.319 421.046 477.93 431.375C496.542 441.705 487.776 448.429 475.529 452.727C463.281 457.025 466.523 445.032 447.071 438.793C427.62 432.554 408.288 439.556 393.399 431.375C378.509 423.195 424.017 411.618 417.773 408.013C411.53 404.408 393.639 415.153 392.918 410.717C392.198 406.28 400.243 401.774 390.036 400.873C379.83 399.971 380.431 396.852 383.913 392.346Z" fill="#D4E3FF"/>
<path d="M309.947 429.781C319.193 425.136 330.48 424.027 334.202 430.335C337.925 436.644 330.48 446.627 342.848 453.767C355.215 460.908 356.656 462.294 372.746 457.58C388.836 452.866 396.52 445.656 406.366 456.332C416.213 467.008 415.612 468.048 425.458 470.544C435.304 473.039 455.236 466.107 442.989 480.665C434.951 490.22 425.609 496.384 419.949 499.311C418.896 499.957 417.78 500.448 416.813 500.769C417.647 500.437 418.71 499.952 419.949 499.311C423.21 497.307 425.853 493.804 421.496 489.192C414.291 481.566 407.687 476.922 390.397 476.228C373.106 475.535 376.228 470.821 368.783 468.741C361.339 466.662 354.615 475.535 337.324 471.237C320.034 466.939 310.187 456.956 312.349 449.33C314.078 443.23 311.468 433.755 309.947 429.781Z" fill="#D4E3FF"/>
<path d="M347.53 408.082C336.484 404.893 330.83 415.49 334.202 421.046C336.11 424.189 339.269 423.971 344.649 427.077C351.373 430.959 356.416 427.493 364.101 421.254C371.723 415.065 358.789 411.332 347.798 408.159L347.53 408.082Z" fill="#D4E3FF"/>
</g>
<path fill-rule="evenodd" clip-rule="evenodd" d="M405.873 466.197C405.873 466.197 429.861 439.231 429.861 423.933C429.861 408.636 419.121 390.034 405.873 382.385C392.625 374.736 381.885 380.936 381.885 396.234C381.885 411.532 405.873 466.197 405.873 466.197ZM405.718 422.325C412.556 426.273 418.099 423.073 418.099 415.177C418.099 407.281 412.556 397.68 405.718 393.732C398.88 389.785 393.337 392.985 393.337 400.881C393.337 408.776 398.88 418.377 405.718 422.325Z" fill="url(#paint5_linear_862_34935)" fill-opacity="0.8"/>
<path fill-rule="evenodd" clip-rule="evenodd" d="M403.707 467.091C403.707 467.091 427.695 440.126 427.695 424.828C427.695 409.53 416.955 390.928 403.707 383.279C390.459 375.63 379.719 381.831 379.719 397.129C379.719 412.427 403.707 467.091 403.707 467.091ZM403.552 423.22C410.39 427.167 415.933 423.967 415.933 416.071C415.933 408.176 410.39 398.575 403.552 394.627C396.714 390.679 391.171 393.879 391.171 401.775C391.171 409.671 396.714 419.272 403.552 423.22Z" fill="url(#paint6_linear_862_34935)" fill-opacity="0.8"/>
<path fill-rule="evenodd" clip-rule="evenodd" d="M401.849 468.876C401.849 468.876 425.838 441.911 425.838 426.613C425.838 411.315 415.098 392.713 401.849 385.064C388.601 377.415 377.861 383.616 377.861 398.914C377.861 414.212 401.849 468.876 401.849 468.876ZM401.695 425.005C408.532 428.952 414.076 425.752 414.076 417.856C414.076 409.961 408.532 400.36 401.695 396.412C394.857 392.464 389.314 395.665 389.314 403.56C389.314 411.456 394.857 421.057 401.695 425.005Z" fill="#3A98FF"/>
<path fill-rule="evenodd" clip-rule="evenodd" d="M435.948 381.834C435.948 381.834 454.862 360.573 454.862 348.511C454.862 336.45 446.394 321.783 435.948 315.752C425.502 309.721 417.034 314.61 417.034 326.672C417.034 338.733 435.948 381.834 435.948 381.834ZM435.826 347.244C441.217 350.356 445.588 347.833 445.588 341.607C445.588 335.382 441.217 327.812 435.826 324.699C430.434 321.587 426.064 324.11 426.064 330.335C426.064 336.561 430.434 344.131 435.826 347.244Z" fill="url(#paint7_linear_862_34935)" fill-opacity="0.8"/>
<path fill-rule="evenodd" clip-rule="evenodd" d="M434.239 382.538C434.239 382.538 453.153 361.276 453.153 349.214C453.153 337.153 444.685 322.486 434.239 316.455C423.793 310.424 415.325 315.313 415.325 327.375C415.325 339.437 434.239 382.538 434.239 382.538ZM434.117 347.947C439.508 351.059 443.879 348.536 443.879 342.311C443.879 336.085 439.508 328.515 434.117 325.402C428.725 322.29 424.355 324.813 424.355 331.038C424.355 337.264 428.725 344.834 434.117 347.947Z" fill="url(#paint8_linear_862_34935)" fill-opacity="0.8"/>
<path fill-rule="evenodd" clip-rule="evenodd" d="M432.775 383.948C432.775 383.948 451.689 362.686 451.689 350.625C451.689 338.563 443.221 323.896 432.775 317.865C422.329 311.834 413.861 316.723 413.861 328.785C413.861 340.847 432.775 383.948 432.775 383.948ZM432.653 349.356C438.044 352.469 442.415 349.946 442.415 343.72C442.415 337.495 438.044 329.925 432.653 326.812C427.262 323.699 422.891 326.223 422.891 332.448C422.891 338.674 427.262 346.244 432.653 349.356Z" fill="#3A98FF"/>
<path fill-rule="evenodd" clip-rule="evenodd" d="M490.948 430.045C490.948 430.045 509.862 408.784 509.862 396.722C509.862 384.661 501.394 369.994 490.948 363.963C480.502 357.932 472.034 362.821 472.034 374.883C472.034 386.944 490.948 430.045 490.948 430.045ZM490.826 395.454C496.217 398.567 500.588 396.044 500.588 389.818C500.588 383.593 496.217 376.023 490.826 372.91C485.434 369.798 481.064 372.321 481.064 378.546C481.064 384.772 485.434 392.342 490.826 395.454Z" fill="url(#paint9_linear_862_34935)" fill-opacity="0.8"/>
<path fill-rule="evenodd" clip-rule="evenodd" d="M489.239 430.748C489.239 430.748 508.153 409.487 508.153 397.425C508.153 385.364 499.685 370.697 489.239 364.666C478.793 358.635 470.325 363.524 470.325 375.586C470.325 387.647 489.239 430.748 489.239 430.748ZM489.117 396.158C494.508 399.27 498.879 396.747 498.879 390.521C498.879 384.296 494.508 376.726 489.117 373.613C483.725 370.501 479.355 373.024 479.355 379.249C479.355 385.475 483.725 393.045 489.117 396.158Z" fill="url(#paint10_linear_862_34935)" fill-opacity="0.8"/>
<path fill-rule="evenodd" clip-rule="evenodd" d="M487.775 432.159C487.775 432.159 506.689 410.897 506.689 398.836C506.689 386.774 498.221 372.107 487.775 366.076C477.329 360.045 468.861 364.934 468.861 376.996C468.861 389.058 487.775 432.159 487.775 432.159ZM487.653 397.567C493.044 400.68 497.415 398.157 497.415 391.931C497.415 385.706 493.044 378.136 487.653 375.023C482.262 371.91 477.891 374.434 477.891 380.659C477.891 386.884 482.262 394.454 487.653 397.567Z" fill="#3A98FF"/>
<g clip-path="url(#clip1_862_34935)">
<path d="M94.012 504.113C94.012 504.294 93.952 504.535 93.952 504.717C93.8919 504.898 93.8919 505.018 93.8319 505.199C93.7718 505.381 93.7118 505.562 93.6517 505.803C93.5917 505.984 93.5316 506.105 93.4716 506.286C93.4115 506.467 93.2914 506.709 93.1713 506.89C93.1113 507.01 92.9912 507.191 92.9311 507.312C92.811 507.554 92.6309 507.735 92.5108 507.976C92.3306 508.218 92.2105 508.399 92.0304 508.64C91.9703 508.701 91.9703 508.761 91.9103 508.761C91.6701 509.063 91.3698 509.304 91.1296 509.546C90.9494 509.727 90.7693 509.848 90.5291 510.029C90.3489 510.149 90.1688 510.33 89.9886 510.451C89.8085 510.572 89.5683 510.753 89.3281 510.874C89.0879 511.055 88.8477 511.176 88.6075 511.357C88.067 511.658 87.4065 511.96 86.806 512.262C86.6258 512.323 86.4457 512.443 86.2655 512.504C85.7851 512.685 85.3047 512.926 84.7642 513.047C84.5841 513.107 84.4039 513.168 84.2238 513.228C83.9235 513.349 83.5632 513.409 83.263 513.53C83.0228 513.59 82.7826 513.651 82.4823 513.711C82.122 513.771 81.7617 513.832 81.4615 513.952C81.2213 514.013 80.9811 514.073 80.7409 514.073C80.0202 514.194 79.2996 514.315 78.579 514.375C78.3388 514.375 78.1587 514.435 77.9185 514.435C77.4981 514.496 77.0778 514.496 76.6574 514.496C76.3572 514.496 76.117 514.496 75.8167 514.496C75.4564 514.496 75.0961 514.496 74.7958 514.496C74.4956 514.496 74.2554 514.496 73.9551 514.496C73.6549 514.496 73.2946 514.435 72.9943 514.435C72.6941 514.435 72.3938 514.375 72.0936 514.375C71.7933 514.315 71.4931 514.315 71.1328 514.254C70.8325 514.194 70.5323 514.194 70.2921 514.133C69.9918 514.073 69.6315 514.013 69.3312 513.952C69.031 513.892 68.7908 513.832 68.5506 513.771C68.1302 513.711 67.7699 513.59 67.3496 513.469C67.1094 513.409 66.9292 513.349 66.689 513.288C65.9684 513.107 65.3079 512.866 64.6473 512.564C64.287 512.443 63.9867 512.323 63.6865 512.141C63.5063 512.081 63.3262 512.021 63.2061 511.96C62.7257 511.719 62.2453 511.477 61.8249 511.236C58.1018 509.063 56.1802 506.226 56.1802 503.328C56.1802 509.123 56.1201 514.918 56.1201 520.774C56.1201 523.611 57.9817 526.508 61.7048 528.681C62.1252 528.923 62.6056 529.164 63.086 529.406C63.2661 529.466 63.4463 529.587 63.6264 529.647C63.9267 529.768 64.1669 529.889 64.4671 530.009C64.5272 530.009 64.5272 530.009 64.5872 530.07C65.2478 530.311 65.9084 530.553 66.629 530.794C66.689 530.794 66.7491 530.855 66.8091 530.855C66.9893 530.915 67.1094 530.915 67.2895 530.975C67.7099 531.096 68.0702 531.156 68.4905 531.277C68.6106 531.277 68.6707 531.337 68.7908 531.337C68.9709 531.398 69.091 531.398 69.2712 531.398C69.6315 531.458 69.9317 531.519 70.2921 531.579C70.4122 531.579 70.5323 531.639 70.7124 531.639C70.8325 531.639 71.0127 531.639 71.1328 531.7C71.433 531.76 71.7933 531.76 72.0936 531.82C72.2137 531.82 72.3938 531.881 72.5139 531.881C72.634 531.881 72.8142 531.881 72.9343 531.881C73.2345 531.881 73.5948 531.941 73.8951 531.941C74.0752 531.941 74.1953 531.941 74.3755 532.001C74.4956 532.001 74.6157 532.001 74.7958 532.001C75.1561 532.001 75.4564 532.001 75.8167 532.001C75.9969 532.001 76.177 532.001 76.3572 532.001C76.4773 532.001 76.5373 532.001 76.6574 532.001C77.0778 532.001 77.4981 531.941 77.9185 531.941C78.0986 531.941 78.2788 531.941 78.4589 531.881C78.519 531.881 78.579 531.881 78.6391 531.881C79.3597 531.82 80.0803 531.7 80.8009 531.579C80.861 531.579 80.861 531.579 80.921 531.579C81.1612 531.519 81.3414 531.458 81.5816 531.458C81.9419 531.398 82.2421 531.337 82.6024 531.277C82.8426 531.217 83.1429 531.156 83.3831 531.096C83.6833 530.975 84.0436 530.915 84.3439 530.794C84.4039 530.794 84.464 530.734 84.5841 530.734C84.7042 530.673 84.8243 530.613 84.9444 530.613C85.4248 530.432 85.9652 530.251 86.4457 530.07C86.6258 530.009 86.806 529.889 86.9861 529.828C87.5866 529.527 88.1871 529.225 88.7876 528.923C88.8477 528.863 88.9678 528.802 89.0278 528.802C89.208 528.681 89.3281 528.561 89.5082 528.44C89.7484 528.259 89.9886 528.138 90.1688 527.957C90.3489 527.836 90.5291 527.655 90.7092 527.534C90.8894 527.353 91.1296 527.233 91.3097 527.052C91.3698 526.991 91.3698 526.991 91.4299 526.931C91.6701 526.689 91.9103 526.448 92.0904 526.206C92.1505 526.146 92.1505 526.086 92.2105 526.086C92.3306 525.965 92.4507 525.784 92.5708 525.663C92.6309 525.603 92.6309 525.542 92.6909 525.482C92.8711 525.241 92.9912 525.06 93.1113 524.818C93.1713 524.697 93.2314 524.637 93.2914 524.516C93.3515 524.456 93.3515 524.396 93.3515 524.396C93.4716 524.214 93.5316 523.973 93.6517 523.792C93.7118 523.671 93.7718 523.55 93.8319 523.43C93.8319 523.369 93.8319 523.369 93.8919 523.309C93.952 523.128 94.012 522.947 94.0721 522.766C94.1321 522.645 94.1321 522.524 94.1922 522.403C94.1922 522.343 94.1922 522.343 94.1922 522.283C94.2522 522.102 94.2522 521.86 94.2522 521.679C94.2522 521.558 94.3123 521.438 94.3123 521.317C94.3123 521.257 94.3123 521.196 94.3123 521.136L94.3723 503.69C94.0721 503.751 94.0721 503.932 94.012 504.113Z" fill="#A4CCF1"/>
<path d="M169.856 503.507C169.856 503.628 169.856 503.688 169.796 503.809C169.796 503.929 169.736 503.99 169.736 504.11C169.736 504.231 169.676 504.292 169.676 504.412C169.616 504.473 169.616 504.593 169.556 504.654C169.496 504.774 169.496 504.835 169.436 504.956C169.376 505.016 169.376 505.076 169.316 505.197C169.256 505.318 169.196 505.439 169.076 505.499C169.016 505.559 168.956 505.62 168.956 505.68C168.835 505.801 168.715 505.982 168.595 506.103C168.535 506.163 168.475 506.223 168.475 506.284C168.355 506.344 168.295 506.465 168.175 506.525C168.115 506.585 167.995 506.646 167.935 506.706C167.815 506.767 167.754 506.827 167.634 506.887C167.514 506.948 167.454 507.008 167.334 507.068C167.094 507.249 166.794 507.37 166.493 507.491C166.433 507.551 166.373 507.551 166.253 507.612C166.013 507.732 165.713 507.853 165.473 507.913C165.413 507.913 165.352 507.974 165.292 507.974C164.752 508.155 164.212 508.276 163.671 508.396C163.611 508.396 163.551 508.396 163.551 508.457C163.191 508.517 162.83 508.577 162.47 508.638C162.35 508.638 162.23 508.638 162.11 508.698C161.87 508.698 161.689 508.759 161.449 508.759C161.209 508.759 160.909 508.759 160.669 508.759H141.813C141.572 508.759 141.332 508.759 141.092 508.759C140.912 508.759 140.732 508.759 140.552 508.759C140.371 508.759 140.251 508.759 140.071 508.698C139.891 508.698 139.711 508.638 139.591 508.638C139.471 508.638 139.291 508.577 139.17 508.577C138.99 508.577 138.81 508.517 138.63 508.457C138.51 508.457 138.39 508.396 138.27 508.396C138.09 508.336 137.849 508.276 137.669 508.276C137.549 508.276 137.489 508.215 137.369 508.215C137.009 508.095 136.708 507.974 136.408 507.853C136.348 507.853 136.348 507.853 136.288 507.793C135.868 507.612 135.447 507.431 135.027 507.189C133.346 506.223 132.325 504.835 132.325 503.265C131.604 495.056 126.2 486.424 115.39 480.146C114.73 479.783 114.009 479.361 113.349 478.999C113.048 478.878 112.748 478.697 112.448 478.576C112.028 478.395 111.607 478.154 111.187 477.972C110.827 477.791 110.466 477.61 110.106 477.49C109.746 477.308 109.385 477.127 109.025 477.007C108.605 476.825 108.184 476.644 107.764 476.463C107.464 476.343 107.163 476.222 106.803 476.041C105.842 475.618 104.821 475.256 103.801 474.894C103.56 474.833 103.26 474.713 103.02 474.652C102.119 474.351 101.279 474.109 100.378 473.807C100.258 473.747 100.138 473.747 99.9574 473.687C99.8974 473.687 99.8373 473.687 99.7773 473.626C98.8765 473.385 97.9757 473.143 97.075 472.902C96.9549 472.902 96.8348 472.841 96.7147 472.841C95.874 472.66 95.0933 472.479 94.2526 472.298C94.1926 472.298 94.1325 472.238 94.0725 472.238C93.7722 472.177 93.4719 472.117 93.1717 472.057C92.6913 471.936 92.2109 471.876 91.6704 471.755C91.2501 471.694 90.8297 471.634 90.4094 471.574C89.929 471.513 89.4486 471.393 88.9682 471.332C88.8481 471.332 88.7279 471.272 88.6078 471.272C88.2475 471.212 87.8872 471.212 87.587 471.151C87.1666 471.091 86.7463 471.03 86.3259 470.97C85.8455 470.91 85.4252 470.849 84.9448 470.849C84.5244 470.789 84.044 470.729 83.6236 470.729C83.5035 470.729 83.4435 470.729 83.3234 470.729C82.9631 470.729 82.6028 470.668 82.2425 470.668C81.8221 470.608 81.4018 470.608 80.9814 470.608C80.501 470.548 79.9606 470.548 79.4802 470.548C79.0598 470.548 78.6995 470.487 78.2791 470.487C78.2191 470.487 78.099 470.487 78.0389 470.487C77.2583 470.487 76.4776 470.427 75.697 470.427C75.4568 470.427 75.2166 470.427 74.9764 470.427C74.7962 470.427 74.6761 470.427 74.496 470.427C74.3158 470.427 74.1957 470.427 74.0156 470.366C73.8354 470.366 73.7153 470.306 73.5352 470.306C73.355 470.306 73.2349 470.246 73.0547 470.246C72.8746 470.246 72.7545 470.185 72.5743 470.185C72.3942 470.185 72.2741 470.125 72.154 470.065C71.9738 470.004 71.7937 470.004 71.6135 469.944C71.4934 469.884 71.3733 469.884 71.2532 469.823C70.8929 469.702 70.5927 469.642 70.2924 469.521C70.2324 469.521 70.2324 469.461 70.1723 469.461C69.752 469.28 69.3316 469.099 68.9713 468.857C67.2899 467.891 66.269 466.503 66.269 464.934L66.209 482.379C66.209 483.949 67.2298 485.337 68.9113 486.303C69.2716 486.544 69.6919 486.725 70.1123 486.906H70.1723C70.1723 486.906 70.1723 486.906 70.2324 486.906C70.5326 487.027 70.8929 487.148 71.1932 487.208C71.2532 487.208 71.2532 487.208 71.2532 487.269C71.3133 487.269 71.4334 487.329 71.4934 487.329C71.6736 487.389 71.8537 487.45 72.0339 487.45C72.0939 487.45 72.154 487.51 72.214 487.51C72.2741 487.51 72.3942 487.51 72.4542 487.57C72.6344 487.631 72.7545 487.631 72.9346 487.631C72.9947 487.631 73.0547 487.691 73.1749 487.691C73.2349 487.691 73.355 487.691 73.4151 487.691C73.5352 487.691 73.7153 487.752 73.8955 487.752C73.9555 487.752 74.0756 487.752 74.1357 487.752C74.1957 487.752 74.3158 487.752 74.3759 487.752C74.556 487.752 74.7362 487.752 74.9163 487.752C74.9764 487.752 75.0965 487.752 75.1565 487.752C75.3367 487.752 75.4568 487.752 75.6369 487.752C76.4776 487.752 77.3183 487.752 78.2191 487.812C78.6395 487.812 78.9998 487.872 79.4201 487.872C79.9005 487.872 80.441 487.933 80.9214 487.933C81.3417 487.933 81.702 487.993 82.1224 487.993C82.6028 488.053 83.0832 488.053 83.5636 488.114C83.984 488.174 84.4043 488.174 84.8247 488.234C85.3051 488.295 85.7254 488.355 86.2058 488.355C86.6262 488.416 87.0465 488.476 87.5269 488.536C87.9473 488.597 88.4277 488.657 88.848 488.717C89.3285 488.778 89.8689 488.898 90.3493 488.959C90.7697 489.019 91.13 489.08 91.5503 489.14C92.0307 489.2 92.5712 489.321 93.0516 489.442C93.4119 489.502 93.8322 489.563 94.1925 489.683C95.0333 489.864 95.874 490.045 96.7147 490.227C96.8348 490.227 96.8948 490.287 97.0149 490.287C97.9157 490.528 98.8164 490.77 99.7172 491.011C99.8974 491.072 100.138 491.132 100.318 491.192C101.218 491.434 102.059 491.736 102.96 492.037C103.26 492.158 103.5 492.219 103.801 492.339C104.821 492.701 105.842 493.064 106.803 493.426C107.224 493.607 107.584 493.728 107.944 493.909C108.304 494.09 108.665 494.211 109.025 494.392C109.385 494.512 109.686 494.694 110.046 494.875C110.466 495.056 110.827 495.237 111.247 495.418C111.547 495.539 111.847 495.72 112.148 495.901C112.568 496.082 112.988 496.323 113.349 496.504C114.069 496.867 114.73 497.229 115.39 497.651C126.2 503.929 131.604 512.501 132.325 520.771C132.325 522.341 133.346 523.729 135.027 524.695C135.387 524.936 135.808 525.118 136.228 525.299C136.228 525.299 136.288 525.299 136.288 525.359H136.348C136.648 525.48 136.949 525.6 137.309 525.661C137.369 525.661 137.369 525.661 137.429 525.721C137.549 525.721 137.609 525.782 137.729 525.782C137.909 525.842 138.09 525.842 138.27 525.902C138.33 525.902 138.39 525.963 138.45 525.963C138.51 525.963 138.63 526.023 138.69 526.023C138.87 526.023 138.99 526.083 139.17 526.083C139.23 526.083 139.291 526.083 139.411 526.144C139.471 526.144 139.591 526.144 139.651 526.144C139.831 526.144 139.951 526.204 140.131 526.204C140.191 526.204 140.311 526.204 140.371 526.204C140.431 526.204 140.552 526.204 140.612 526.204C140.672 526.204 140.732 526.204 140.792 526.204L140.792 526.264H160.669C160.849 526.264 161.089 526.264 161.269 526.264C161.329 526.264 161.389 526.264 161.449 526.264C161.689 526.264 161.87 526.264 162.11 526.204C162.23 526.204 162.29 526.204 162.41 526.204C162.47 526.204 162.47 526.204 162.53 526.204C162.89 526.144 163.251 526.144 163.611 526.023H163.671C163.731 526.023 163.731 526.023 163.731 526.023C164.332 525.902 164.872 525.782 165.352 525.6H165.413C165.473 525.6 165.533 525.54 165.593 525.54C165.893 525.419 166.133 525.359 166.373 525.238C166.433 525.178 166.493 525.178 166.614 525.118C166.914 524.997 167.214 524.816 167.454 524.695H167.514C167.574 524.635 167.634 524.574 167.694 524.574C167.815 524.514 167.935 524.453 168.055 524.333C168.115 524.272 168.235 524.212 168.295 524.152C168.415 524.091 168.475 523.971 168.595 523.91L168.655 523.85C168.715 523.789 168.715 523.789 168.715 523.729C168.835 523.608 169.016 523.427 169.136 523.307C169.136 523.246 169.196 523.246 169.196 523.186C169.196 523.125 169.256 523.125 169.256 523.065C169.316 522.944 169.436 522.824 169.496 522.763C169.496 522.703 169.556 522.643 169.616 522.643C169.616 522.643 169.616 522.582 169.676 522.582C169.736 522.461 169.796 522.401 169.796 522.28C169.796 522.22 169.856 522.16 169.856 522.099L169.856 522.039C169.916 521.918 169.916 521.858 169.916 521.737C169.916 521.677 169.976 521.616 169.976 521.556L169.976 521.496C169.976 521.375 169.976 521.254 170.036 521.194C170.036 521.133 170.036 521.073 170.036 521.013C170.036 520.952 170.036 520.952 170.036 520.892L170.096 503.446C169.856 503.265 169.856 503.386 169.856 503.507Z" fill="#A4CCF1"/>
<path d="M245.94 504.532C245.94 504.593 245.94 504.593 245.88 504.653C245.88 504.774 245.82 504.834 245.76 504.895C245.76 504.955 245.699 505.015 245.699 505.015C245.639 505.076 245.639 505.136 245.579 505.196C245.519 505.257 245.459 505.377 245.399 505.438C245.339 505.498 245.339 505.559 245.279 505.619C245.159 505.8 244.979 505.981 244.799 506.102L244.739 506.162C244.559 506.343 244.318 506.524 244.138 506.645C244.078 506.705 244.018 506.705 243.958 506.766C243.778 506.887 243.598 507.007 243.358 507.128C243.237 507.188 243.177 507.249 243.057 507.309C242.757 507.49 242.397 507.671 242.096 507.792C241.976 507.852 241.916 507.852 241.856 507.913C241.616 508.034 241.376 508.094 241.076 508.215C241.016 508.215 240.955 508.275 240.835 508.275C240.415 508.396 239.995 508.516 239.574 508.577C239.454 508.577 239.394 508.637 239.274 508.637C239.034 508.698 238.794 508.698 238.493 508.758C238.433 508.758 238.373 508.758 238.253 508.818C237.893 508.879 237.533 508.879 237.172 508.879C236.872 508.879 236.572 508.879 236.272 508.879H217.476C217.236 508.879 216.995 508.879 216.755 508.879C216.575 508.879 216.455 508.879 216.275 508.879C216.095 508.879 215.974 508.879 215.794 508.818C215.614 508.818 215.494 508.758 215.314 508.758C215.134 508.758 215.014 508.698 214.833 508.698C214.653 508.698 214.533 508.637 214.353 508.637C214.233 508.637 214.053 508.577 213.933 508.577C213.753 508.516 213.572 508.516 213.392 508.456C213.272 508.456 213.152 508.396 213.032 508.396C212.672 508.275 212.371 508.154 212.071 508.094C212.011 508.094 212.011 508.034 211.951 508.034C211.531 507.852 211.11 507.671 210.75 507.43C209.069 506.464 208.048 505.076 208.048 503.506C207.928 483.948 195.077 463.967 168.775 448.695C167.213 447.789 165.592 446.884 163.971 446.039C163.43 445.737 162.83 445.495 162.289 445.194C161.208 444.65 160.127 444.107 158.986 443.564C158.326 443.262 157.605 442.96 156.945 442.598C155.924 442.115 154.903 441.632 153.822 441.209C153.102 440.908 152.381 440.606 151.6 440.304C150.88 440.002 150.219 439.7 149.498 439.399C149.138 439.217 148.718 439.097 148.358 438.976C147.877 438.795 147.457 438.614 146.976 438.433C145.535 437.889 144.154 437.406 142.713 436.863C142.413 436.742 142.172 436.682 141.872 436.561C140.191 435.958 138.509 435.414 136.768 434.932C136.347 434.811 135.867 434.69 135.447 434.509C134.786 434.328 134.126 434.086 133.465 433.905C132.564 433.664 131.724 433.422 130.823 433.181C130.643 433.121 130.462 433.06 130.282 433.06C128.541 432.577 126.739 432.155 124.998 431.732C124.638 431.672 124.337 431.551 123.977 431.491C122.476 431.129 120.974 430.827 119.473 430.525C119.293 430.464 119.113 430.464 118.933 430.404C117.612 430.163 116.291 429.921 114.969 429.68C114.189 429.559 113.408 429.378 112.567 429.257C111.006 429.016 109.385 428.714 107.763 428.472C107.283 428.412 106.742 428.291 106.262 428.231C106.202 428.231 106.202 428.231 106.142 428.231C104.461 427.99 102.779 427.808 101.098 427.567C100.677 427.507 100.197 427.446 99.7766 427.386C97.6748 427.144 95.513 426.963 93.4113 426.782H93.3512C92.7507 426.722 92.1502 426.722 91.6097 426.661C90.1085 426.541 88.5472 426.42 87.0459 426.36C86.2052 426.299 85.3044 426.299 84.4637 426.239C83.2027 426.179 81.8815 426.118 80.6205 426.118C80.5004 426.118 80.4403 426.118 80.3202 426.118C78.3986 426.058 76.477 426.058 74.5554 426.058C74.3152 426.058 74.075 426.058 73.8348 426.058C73.6546 426.058 73.5345 426.058 73.3544 426.058C73.1742 426.058 72.9941 426.058 72.874 425.997C72.6938 425.997 72.5737 425.937 72.3936 425.937C72.2134 425.937 72.0933 425.877 71.9131 425.877C71.733 425.877 71.6129 425.816 71.4327 425.816C71.3126 425.816 71.1325 425.756 71.0124 425.756C70.8322 425.696 70.6521 425.696 70.4719 425.635C70.3518 425.575 70.2317 425.575 70.1116 425.515C69.7513 425.394 69.4511 425.333 69.1508 425.213C69.0908 425.213 69.0908 425.213 69.0307 425.152C68.6104 424.971 68.19 424.79 67.8297 424.549C66.1483 423.583 65.1274 422.194 65.1274 420.625L65.0674 438.07C65.0674 439.64 66.0882 441.028 67.7697 441.994C68.13 442.236 68.5503 442.417 68.9707 442.598C68.9707 442.598 69.0307 442.598 69.0307 442.658C69.331 442.779 69.6913 442.9 69.9915 443.02C70.0516 443.02 70.0516 443.02 70.1116 443.081C70.1717 443.081 70.2918 443.141 70.3518 443.141C70.532 443.202 70.7121 443.262 70.9523 443.262C71.0124 443.262 71.0724 443.262 71.1325 443.322C71.1925 443.322 71.3126 443.322 71.3727 443.383C71.5528 443.443 71.733 443.443 71.8531 443.503C71.9131 443.503 71.9732 443.503 72.0933 443.564C72.1533 443.564 72.2735 443.564 72.3335 443.564C72.5137 443.564 72.6938 443.624 72.8139 443.624C72.874 443.624 72.934 443.624 73.0541 443.624C73.1142 443.624 73.1742 443.624 73.2343 443.624C73.4144 443.624 73.5946 443.624 73.7747 443.684C73.8348 443.684 73.9549 443.684 74.0149 443.684C74.135 443.684 74.3152 443.684 74.4953 443.684C76.477 443.684 78.5187 443.745 80.5004 443.745C81.8215 443.805 83.1426 443.866 84.4637 443.926C85.3044 443.986 86.0851 443.986 86.9258 444.047C88.367 444.107 89.8082 444.228 91.1894 444.348C91.91 444.409 92.6306 444.409 93.3512 444.469C95.513 444.65 97.6148 444.831 99.7166 445.073C100.077 445.133 100.437 445.194 100.858 445.194C102.599 445.375 104.34 445.616 106.082 445.858C106.682 445.918 107.283 446.039 107.823 446.159C109.385 446.401 110.946 446.642 112.447 446.884C113.228 447.005 114.009 447.186 114.849 447.306C116.17 447.548 117.492 447.789 118.813 448.091C120.494 448.453 122.175 448.815 123.857 449.178C124.217 449.238 124.517 449.359 124.878 449.419C126.679 449.842 128.421 450.264 130.162 450.747C130.342 450.807 130.523 450.868 130.703 450.928C132.264 451.351 133.765 451.773 135.327 452.256C135.807 452.377 136.227 452.498 136.708 452.679C138.449 453.222 140.131 453.765 141.812 454.309C142.112 454.429 142.352 454.49 142.593 454.61C144.034 455.093 145.475 455.637 146.916 456.18C147.397 456.361 147.817 456.542 148.297 456.723C149.378 457.146 150.459 457.629 151.54 458.051C152.261 458.353 153.041 458.655 153.762 458.957C154.843 459.44 155.864 459.862 156.885 460.345C157.545 460.647 158.206 460.949 158.866 461.251C160.007 461.794 161.148 462.398 162.289 462.941C162.83 463.182 163.37 463.484 163.911 463.726C165.532 464.571 167.153 465.476 168.775 466.382C195.077 481.654 207.988 501.635 208.048 521.193C208.048 522.763 209.069 524.151 210.75 525.117C211.11 525.358 211.531 525.539 211.951 525.72C211.951 525.72 212.011 525.72 212.011 525.781C212.011 525.781 212.011 525.781 212.071 525.781C212.371 525.902 212.732 526.022 213.032 526.083C213.032 526.083 213.092 526.083 213.092 526.143C213.152 526.143 213.272 526.203 213.332 526.203C213.512 526.264 213.753 526.324 213.933 526.324C213.993 526.324 214.053 526.384 214.113 526.384C214.173 526.384 214.293 526.384 214.353 526.445C214.533 526.505 214.653 526.505 214.833 526.505C214.894 526.505 214.954 526.505 215.074 526.566C215.134 526.566 215.254 526.566 215.314 526.566C215.494 526.566 215.674 526.626 215.854 526.626C215.914 526.626 215.974 526.626 216.095 526.626C216.155 526.626 216.215 526.626 216.275 526.626C216.335 526.626 216.395 526.626 216.455 526.626L216.455 526.686H217.536H236.332C236.632 526.686 236.872 526.686 237.172 526.686H237.232C237.593 526.686 237.953 526.626 238.313 526.626H238.373C238.433 526.626 238.493 526.626 238.553 526.626C238.794 526.566 239.094 526.566 239.334 526.505C239.394 526.505 239.454 526.505 239.454 526.505C239.514 526.505 239.514 526.505 239.574 526.445C239.995 526.384 240.475 526.264 240.895 526.143H240.956C241.016 526.143 241.076 526.083 241.076 526.083C241.316 525.962 241.616 525.902 241.856 525.781C241.976 525.72 242.036 525.72 242.157 525.66C242.457 525.539 242.817 525.358 243.117 525.177C243.177 525.117 243.237 525.117 243.297 525.056C243.358 525.056 243.358 524.996 243.418 524.996C243.598 524.875 243.778 524.755 243.958 524.634C244.018 524.574 244.078 524.574 244.138 524.513C244.378 524.332 244.559 524.211 244.739 524.03L244.799 523.97C244.979 523.789 245.099 523.608 245.279 523.487L245.339 523.427C245.339 523.427 245.339 523.366 245.399 523.366C245.459 523.306 245.519 523.185 245.579 523.125C245.639 523.064 245.639 523.004 245.699 523.004C245.699 523.004 245.699 522.944 245.76 522.944C245.76 522.883 245.82 522.883 245.82 522.823C245.82 522.763 245.88 522.702 245.88 522.702C245.88 522.642 245.88 522.642 245.94 522.581C245.94 522.521 245.94 522.521 246 522.461L246 522.4C246 522.34 246 522.219 246.06 522.159C246.06 522.159 246.06 522.159 246.06 522.099C246.06 516.304 246.12 510.508 246.12 504.653C246 504.291 246 504.412 245.94 504.532Z" fill="#A4CCF1"/>
<path d="M66.0889 463.668L66.0889 481.114L65.9687 470.127L66.0288 452.742L66.0889 463.668Z" fill="#808080"/>
<path d="M169.856 502.421C169.856 502.541 169.856 502.602 169.796 502.723C169.796 502.843 169.736 502.904 169.736 503.024C169.736 503.145 169.676 503.205 169.676 503.326C169.616 503.447 169.616 503.507 169.556 503.568C169.496 503.688 169.496 503.749 169.436 503.87C169.376 503.93 169.376 504.051 169.316 504.111C169.255 504.232 169.195 504.352 169.075 504.413C169.015 504.473 168.955 504.534 168.955 504.594C168.835 504.715 168.715 504.896 168.595 505.016C168.535 505.077 168.475 505.137 168.475 505.198C168.355 505.258 168.295 505.379 168.175 505.439C168.115 505.499 167.994 505.56 167.934 505.62C167.814 505.68 167.754 505.741 167.634 505.801C167.514 505.862 167.454 505.922 167.334 505.982C167.094 506.163 166.793 506.284 166.493 506.405C166.433 506.465 166.373 506.465 166.253 506.526C166.013 506.646 165.712 506.707 165.472 506.827C165.412 506.827 165.352 506.888 165.292 506.888C164.752 507.069 164.211 507.19 163.671 507.31C163.611 507.31 163.551 507.31 163.551 507.31C163.19 507.371 162.83 507.431 162.47 507.491C162.35 507.491 162.23 507.491 162.109 507.552C161.869 507.552 161.689 507.612 161.449 507.612C161.209 507.612 160.908 507.612 160.668 507.612H140.791L140.731 525.058H160.608C160.788 525.058 161.029 525.058 161.209 525.058C161.269 525.058 161.329 525.058 161.389 525.058C161.629 525.058 161.809 525.058 162.049 524.997C162.169 524.997 162.23 524.997 162.35 524.997C162.41 524.997 162.41 524.997 162.47 524.997C162.83 524.937 163.19 524.937 163.551 524.816H163.611C163.671 524.816 163.671 524.816 163.671 524.816C164.271 524.695 164.812 524.575 165.292 524.394H165.352C165.412 524.394 165.472 524.333 165.532 524.333C165.833 524.213 166.073 524.152 166.313 524.031C166.373 524.031 166.433 523.971 166.553 523.971C166.853 523.85 167.154 523.669 167.394 523.548H167.454C167.514 523.488 167.574 523.428 167.634 523.428C167.754 523.367 167.874 523.307 167.994 523.186C168.054 523.126 168.175 523.066 168.235 523.005C168.355 522.945 168.415 522.824 168.535 522.764C168.535 522.764 168.595 522.764 168.595 522.703C168.655 522.643 168.655 522.643 168.655 522.583C168.775 522.462 168.955 522.281 169.075 522.16C169.075 522.1 169.135 522.1 169.135 522.039C169.135 521.979 169.195 521.979 169.195 521.919C169.255 521.798 169.376 521.677 169.436 521.617C169.436 521.556 169.496 521.496 169.556 521.496C169.556 521.496 169.556 521.436 169.616 521.436C169.676 521.315 169.736 521.255 169.736 521.134C169.736 521.074 169.796 521.013 169.796 520.953L169.796 520.892C169.856 520.772 169.856 520.711 169.856 520.591C169.856 520.53 169.916 520.47 169.916 520.41L169.916 520.349C169.916 520.228 169.916 520.168 169.976 520.047C169.976 519.987 169.976 519.927 169.976 519.866C169.976 519.806 169.976 519.806 169.976 519.745L170.036 502.3C169.856 502.179 169.856 502.3 169.856 502.421Z" fill="url(#paint11_linear_862_34935)"/>
<path d="M142.053 463.305C160.969 474.291 169.736 487.994 169.856 502.059C169.856 505.198 165.833 507.552 160.488 507.552H141.632C138.93 507.552 136.588 506.949 134.907 505.983C133.225 505.017 132.205 503.629 132.205 502.059C131.484 493.85 126.079 485.217 115.27 478.939C104.461 472.662 90.3493 469.16 75.5769 469.16C72.8746 469.16 70.5326 468.557 68.8512 467.591C67.1698 466.625 66.1489 465.237 66.1489 463.667L66.0889 452.681C66.0889 449.542 70.1123 447.188 75.4568 447.188C99.5971 447.248 123.197 452.319 142.053 463.305Z" fill="url(#paint12_linear_862_34935)"/>
<path d="M140.972 507.489C140.792 507.489 140.612 507.489 140.431 507.489C140.251 507.489 140.131 507.489 139.951 507.429C139.771 507.429 139.591 507.368 139.471 507.368C139.351 507.368 139.17 507.308 139.05 507.308C138.87 507.248 138.69 507.248 138.51 507.187C138.39 507.187 138.27 507.127 138.15 507.127C137.969 507.066 137.729 507.006 137.549 507.006C137.429 507.006 137.369 506.946 137.249 506.946C136.888 506.825 136.588 506.765 136.288 506.584C136.228 506.584 136.228 506.584 136.168 506.523C135.748 506.342 135.327 506.161 134.907 505.92C133.225 504.954 132.205 503.565 132.205 501.996C131.484 493.786 126.079 485.154 115.27 478.876C114.61 478.514 113.889 478.091 113.229 477.729C112.928 477.548 112.628 477.427 112.328 477.307C111.907 477.125 111.487 476.884 111.067 476.703C110.706 476.522 110.346 476.341 109.986 476.22C109.626 476.039 109.265 475.858 108.905 475.737C108.485 475.556 108.064 475.375 107.644 475.194C107.344 475.073 107.043 474.952 106.683 474.771C105.722 474.349 104.701 473.986 103.681 473.624C103.44 473.564 103.14 473.443 102.9 473.383C101.999 473.081 101.158 472.84 100.258 472.538C100.138 472.477 100.017 472.477 99.8373 472.417C99.7772 472.417 99.7172 472.417 99.6571 472.357C98.7564 472.115 97.8556 471.874 96.9549 471.632C96.8348 471.632 96.7147 471.572 96.5946 471.572C95.7538 471.391 94.9732 471.21 94.1325 471.029C94.0724 471.029 94.0124 470.968 93.9523 470.968C93.6521 470.908 93.3518 470.847 93.0516 470.787C92.5712 470.666 92.0908 470.606 91.5503 470.485C91.13 470.425 90.7096 470.365 90.2892 470.304C89.8088 470.244 89.3284 470.123 88.848 470.063C88.7279 470.063 88.6078 470.002 88.4877 470.002C88.1274 469.942 87.7671 469.942 87.4669 469.882C87.0465 469.821 86.6262 469.761 86.2058 469.701C85.7254 469.64 85.305 469.58 84.8246 469.58C84.4043 469.519 83.9239 469.459 83.5035 469.459C83.3834 469.459 83.3234 469.459 83.2033 469.459C82.843 469.459 82.4827 469.399 82.1224 469.399C81.702 469.338 81.2817 469.338 80.8613 469.278C80.3809 469.278 79.8404 469.218 79.36 469.218C78.9397 469.218 78.5794 469.157 78.159 469.157C78.099 469.157 77.9789 469.157 77.9188 469.157C77.1382 469.157 76.3575 469.097 75.5769 469.097C75.3367 469.097 75.0965 469.097 74.8563 469.097C74.6761 469.097 74.556 469.097 74.3758 469.097C74.1957 469.097 74.0756 469.097 73.8954 469.037C73.7153 469.037 73.5952 468.976 73.415 468.976C73.2349 468.976 73.1148 468.916 72.9346 468.916C72.7545 468.916 72.6344 468.855 72.4542 468.855C72.2741 468.795 72.154 468.795 72.0339 468.795C71.8537 468.735 71.6736 468.735 71.4934 468.674C71.3733 468.614 71.2532 468.614 71.1331 468.554C70.7728 468.433 70.4726 468.373 70.1723 468.252C70.1123 468.252 70.1123 468.191 70.0522 468.191C69.6319 468.01 69.2115 467.829 68.8512 467.588C67.1698 466.622 66.1489 465.234 66.1489 463.664L66.0889 481.11C66.0889 482.679 67.1097 484.067 68.7911 485.033C69.1514 485.275 69.5718 485.456 69.9922 485.637H70.0522C70.0522 485.637 70.0522 485.637 70.1123 485.637C70.4125 485.758 70.7728 485.878 71.0731 485.939C71.1331 485.939 71.1331 485.939 71.1331 485.999C71.1932 485.999 71.3133 486.059 71.3733 486.059C71.5535 486.12 71.7336 486.18 71.9138 486.18C71.9738 486.18 72.0339 486.18 72.0939 486.241C72.154 486.241 72.2741 486.241 72.3341 486.301C72.5143 486.301 72.6344 486.361 72.8145 486.361C72.8746 486.361 72.9346 486.422 73.0547 486.422C73.1148 486.422 73.2349 486.422 73.2949 486.422C73.415 486.422 73.5952 486.482 73.7753 486.482C73.8354 486.482 73.9555 486.482 74.0155 486.482C74.0756 486.482 74.1957 486.482 74.2557 486.482C74.4359 486.482 74.616 486.482 74.7962 486.542C74.8563 486.542 74.9764 486.542 75.0364 486.542C75.2166 486.542 75.3367 486.542 75.5168 486.542C76.3575 486.542 77.1982 486.542 78.099 486.603C78.5193 486.603 78.8796 486.603 79.3 486.663C79.7804 486.663 80.3209 486.723 80.8013 486.723C81.2216 486.723 81.5819 486.784 82.0023 486.784C82.4827 486.844 82.9631 486.844 83.4435 486.905C83.8638 486.965 84.2842 486.965 84.7045 487.025C85.1849 487.086 85.6053 487.146 86.0857 487.146C86.5061 487.206 86.9264 487.267 87.4068 487.327C87.8272 487.388 88.3076 487.448 88.7279 487.508C89.2083 487.569 89.7488 487.689 90.2292 487.75C90.6496 487.81 91.0099 487.87 91.4302 487.931C91.9106 488.052 92.4511 488.112 92.9315 488.233C93.2918 488.293 93.7121 488.353 94.0724 488.474C94.9131 488.655 95.7538 488.836 96.5946 489.017C96.7147 489.017 96.7747 489.078 96.8948 489.078C97.7956 489.319 98.6963 489.561 99.5971 489.802C99.7772 489.862 100.017 489.923 100.198 489.983C101.098 490.225 101.939 490.526 102.84 490.828C103.14 490.949 103.38 491.009 103.681 491.13C104.701 491.492 105.722 491.855 106.683 492.217C107.103 492.398 107.464 492.519 107.824 492.7C108.184 492.881 108.545 493.001 108.905 493.183C109.265 493.303 109.565 493.484 109.926 493.665C110.346 493.847 110.706 494.028 111.127 494.209C111.427 494.329 111.727 494.511 112.028 494.692C112.448 494.873 112.868 495.114 113.229 495.295C113.949 495.658 114.61 496.02 115.27 496.442C126.079 502.72 131.484 511.292 132.205 519.562C132.205 521.132 133.225 522.52 134.907 523.486C135.267 523.727 135.687 523.908 136.108 524.089C136.108 524.089 136.168 524.089 136.168 524.15H136.228C136.528 524.271 136.828 524.391 137.189 524.452C137.249 524.452 137.249 524.452 137.309 524.512C137.429 524.512 137.489 524.572 137.609 524.572C137.789 524.633 137.969 524.633 138.15 524.693C138.21 524.693 138.27 524.753 138.33 524.753C138.39 524.753 138.51 524.753 138.57 524.814C138.75 524.874 138.87 524.874 139.05 524.874C139.11 524.874 139.17 524.935 139.291 524.935C139.351 524.935 139.471 524.935 139.531 524.935C139.711 524.935 139.831 524.995 140.011 524.995C140.071 524.995 140.191 524.995 140.251 524.995C140.311 524.995 140.431 524.995 140.492 524.995C140.672 524.995 140.852 524.995 140.972 524.995C141.032 524.995 141.152 524.995 141.212 524.995C141.392 524.995 141.512 524.995 141.693 524.995L141.753 507.549C141.392 507.549 141.152 507.549 140.972 507.489Z" fill="url(#paint13_linear_862_34935)"/>
<path d="M245.94 503.507C245.94 503.567 245.94 503.567 245.88 503.628C245.88 503.748 245.82 503.809 245.76 503.93C245.76 503.99 245.7 504.05 245.7 504.05C245.64 504.111 245.64 504.171 245.58 504.231C245.52 504.292 245.459 504.413 245.399 504.473C245.339 504.533 245.339 504.594 245.279 504.654C245.159 504.835 244.979 505.016 244.799 505.137L244.739 505.197C244.559 505.378 244.319 505.559 244.138 505.68C244.078 505.741 244.018 505.741 243.958 505.801C243.778 505.922 243.598 506.042 243.358 506.163C243.238 506.223 243.178 506.284 243.057 506.344C242.757 506.525 242.397 506.706 242.097 506.827C241.977 506.887 241.917 506.887 241.856 506.948C241.616 507.069 241.376 507.129 241.076 507.25C241.016 507.25 240.956 507.31 240.836 507.31C240.415 507.431 239.995 507.551 239.575 507.612C239.454 507.612 239.394 507.672 239.274 507.672C239.034 507.733 238.794 507.733 238.494 507.793C238.434 507.793 238.374 507.793 238.253 507.793C237.893 507.853 237.533 507.853 237.173 507.853C236.872 507.853 236.572 507.853 236.272 507.853H216.395L216.335 525.299H236.212C236.512 525.299 236.752 525.299 237.052 525.299H237.112C237.473 525.299 237.833 525.238 238.193 525.238H238.253C238.313 525.238 238.374 525.238 238.434 525.238C238.674 525.178 238.974 525.178 239.214 525.118C239.274 525.118 239.334 525.118 239.334 525.118C239.394 525.118 239.394 525.118 239.454 525.118C239.875 525.057 240.355 524.937 240.776 524.816H240.836C240.896 524.816 240.956 524.756 240.956 524.756C241.196 524.695 241.496 524.574 241.736 524.454C241.856 524.393 241.916 524.393 242.037 524.333C242.337 524.212 242.697 524.031 242.997 523.85C243.057 523.79 243.118 523.79 243.178 523.729C243.238 523.729 243.238 523.669 243.298 523.669C243.478 523.548 243.658 523.427 243.838 523.307C243.898 523.246 243.958 523.246 244.018 523.186C244.258 523.005 244.439 522.884 244.619 522.703L244.679 522.643C244.859 522.462 244.979 522.341 245.159 522.16L245.219 522.099C245.219 522.099 245.219 522.039 245.279 522.039C245.339 521.979 245.399 521.858 245.459 521.798C245.52 521.737 245.52 521.677 245.58 521.677C245.58 521.677 245.58 521.617 245.64 521.617C245.64 521.556 245.7 521.556 245.7 521.496C245.7 521.435 245.76 521.375 245.76 521.375C245.76 521.315 245.76 521.315 245.82 521.254C245.82 521.194 245.82 521.194 245.88 521.134L245.88 521.073C245.88 521.013 245.88 520.892 245.94 520.832C245.94 520.832 245.94 520.832 245.94 520.771C245.94 514.976 246 509.181 246 503.326C246 503.205 246 503.326 245.94 503.507Z" fill="url(#paint14_linear_862_34935)"/>
<path d="M216.875 507.915C216.695 507.915 216.575 507.915 216.395 507.915C216.215 507.915 216.095 507.915 215.914 507.855C215.734 507.855 215.614 507.794 215.434 507.794C215.254 507.794 215.134 507.734 214.954 507.734C214.773 507.734 214.653 507.674 214.473 507.674C214.353 507.674 214.173 507.613 214.053 507.613C213.873 507.553 213.693 507.553 213.512 507.493C213.392 507.493 213.272 507.432 213.152 507.432C212.792 507.312 212.492 507.251 212.191 507.13C212.131 507.13 212.131 507.13 212.071 507.07C211.651 506.889 211.23 506.708 210.87 506.466C209.189 505.501 208.168 504.112 208.168 502.543C208.048 482.984 195.197 463.004 168.895 447.731C167.334 446.826 165.712 445.92 164.091 445.075C163.55 444.773 162.95 444.532 162.409 444.23C161.328 443.687 160.248 443.144 159.107 442.6C158.446 442.298 157.725 441.997 157.065 441.634C156.044 441.152 155.023 440.669 153.942 440.246C153.222 439.944 152.501 439.642 151.72 439.341C151 439.039 150.339 438.737 149.619 438.435C149.258 438.254 148.838 438.133 148.478 438.013C147.997 437.831 147.577 437.65 147.096 437.469C145.655 436.926 144.274 436.443 142.833 435.9C142.533 435.779 142.292 435.719 141.992 435.598C140.311 435.055 138.629 434.451 136.888 433.968C136.468 433.847 135.987 433.727 135.567 433.546C134.906 433.364 134.246 433.123 133.585 432.942C132.684 432.7 131.844 432.459 130.943 432.217C130.763 432.157 130.583 432.097 130.402 432.097C128.661 431.614 126.859 431.191 125.118 430.769C124.758 430.708 124.457 430.588 124.097 430.527C122.596 430.165 121.095 429.863 119.593 429.501C119.413 429.441 119.233 429.441 119.053 429.38C117.732 429.139 116.411 428.897 115.09 428.656C114.309 428.475 113.528 428.354 112.687 428.233C111.126 427.932 109.505 427.69 107.883 427.449C107.403 427.388 106.863 427.268 106.382 427.207C106.322 427.207 106.322 427.207 106.262 427.207C104.581 426.966 102.899 426.785 101.218 426.543C100.797 426.483 100.317 426.422 99.8967 426.362C97.795 426.121 95.6331 425.94 93.5314 425.758H93.4713C92.8708 425.698 92.2703 425.698 91.7299 425.638C90.2286 425.517 88.6673 425.396 87.166 425.336C86.3253 425.276 85.4245 425.276 84.5838 425.215C83.3228 425.155 82.0017 425.094 80.7406 425.034C80.6205 425.034 80.5604 425.034 80.4403 425.034C78.5187 424.974 76.5971 424.974 74.6755 424.974C74.4353 424.974 74.1951 424.974 73.9549 424.974C73.7747 424.974 73.6546 424.974 73.4745 424.974C73.2943 424.974 73.1142 424.974 72.9941 424.913C72.8139 424.913 72.6938 424.853 72.5137 424.853C72.3335 424.853 72.2134 424.793 72.0333 424.793C71.8531 424.793 71.733 424.732 71.5529 424.732C71.4328 424.672 71.2526 424.672 71.1325 424.611C70.9524 424.551 70.7722 424.551 70.5921 424.491C70.4719 424.43 70.3518 424.43 70.2317 424.37C69.8714 424.249 69.5712 424.189 69.2709 424.068C69.2109 424.068 69.2109 424.068 69.1508 424.008C68.7305 423.827 68.3101 423.646 67.9498 423.404C66.2684 422.438 65.2476 421.05 65.2476 419.48L65.1875 436.926C65.1875 438.495 66.2084 439.884 67.8898 440.85C68.2501 441.091 68.6704 441.272 69.0908 441.453C69.0908 441.453 69.1508 441.453 69.1508 441.514C69.1508 441.514 69.1508 441.514 69.2109 441.514C69.5111 441.634 69.8714 441.755 70.1717 441.876C70.2317 441.876 70.2317 441.876 70.2918 441.876C70.3518 441.876 70.472 441.936 70.532 441.936C70.7122 441.997 70.8923 442.057 71.1325 442.057C71.1926 442.057 71.2526 442.057 71.3127 442.117C71.3727 442.117 71.4928 442.117 71.5529 442.178C71.733 442.238 71.9132 442.238 72.0333 442.238C72.0933 442.238 72.1534 442.238 72.2735 442.298C72.3335 442.298 72.4536 442.298 72.5137 442.298C72.6938 442.298 72.874 442.359 72.9941 442.359C73.0541 442.359 73.1142 442.359 73.2343 442.359C73.2943 442.359 73.3544 442.359 73.4144 442.359C73.5946 442.359 73.7747 442.359 73.9549 442.359C74.0149 442.359 74.135 442.359 74.1951 442.359C74.3152 442.359 74.4953 442.359 74.6755 442.359C76.6572 442.359 78.6989 442.419 80.6805 442.419C82.0017 442.48 83.3228 442.54 84.6439 442.6C85.4846 442.661 86.2653 442.661 87.106 442.721C88.5472 442.781 89.9884 442.902 91.3696 443.023C92.0902 443.083 92.8108 443.144 93.5314 443.144C95.6932 443.325 97.795 443.506 99.8967 443.747C100.257 443.808 100.617 443.868 101.038 443.868C102.779 444.049 104.521 444.29 106.262 444.532C106.863 444.592 107.463 444.713 108.004 444.834C109.565 445.075 111.126 445.317 112.627 445.558C113.408 445.679 114.189 445.86 115.029 445.981C116.351 446.222 117.672 446.464 118.993 446.765C120.674 447.128 122.356 447.49 124.037 447.852C124.397 447.912 124.698 448.033 125.058 448.093C126.859 448.516 128.601 448.939 130.342 449.422C130.523 449.482 130.703 449.542 130.883 449.603C132.444 450.025 133.945 450.448 135.507 450.931C135.987 451.051 136.407 451.172 136.888 451.353C138.629 451.896 140.311 452.44 141.992 452.983C142.292 453.104 142.533 453.164 142.773 453.285C144.214 453.768 145.655 454.311 147.096 454.854C147.577 455.035 147.997 455.217 148.478 455.398C149.559 455.82 150.639 456.243 151.72 456.726C152.441 457.027 153.222 457.329 153.942 457.631C155.023 458.114 156.044 458.597 157.065 459.02C157.725 459.321 158.386 459.623 159.047 459.925C160.188 460.468 161.328 461.012 162.469 461.615C163.01 461.857 163.55 462.159 164.091 462.4C165.712 463.245 167.334 464.151 168.955 465.056C195.257 480.328 208.168 500.309 208.228 519.867C208.228 521.437 209.249 522.825 210.93 523.791C211.291 524.033 211.711 524.214 212.131 524.395C212.131 524.395 212.191 524.395 212.191 524.455C212.191 524.455 212.191 524.455 212.251 524.455C212.552 524.576 212.912 524.697 213.212 524.757C213.212 524.757 213.272 524.757 213.272 524.817C213.332 524.817 213.452 524.878 213.512 524.878C213.693 524.938 213.933 524.998 214.113 524.998C214.173 524.998 214.233 524.998 214.293 525.059C214.353 525.059 214.473 525.059 214.533 525.119C214.713 525.119 214.834 525.18 215.014 525.18C215.074 525.18 215.134 525.18 215.254 525.24C215.314 525.24 215.434 525.24 215.494 525.24C215.674 525.24 215.854 525.3 216.035 525.3C216.095 525.3 216.155 525.3 216.275 525.3C216.335 525.3 216.395 525.3 216.455 525.3C216.635 525.3 216.815 525.3 216.995 525.361C217.055 525.361 217.175 525.361 217.236 525.361C217.356 525.361 217.536 525.361 217.656 525.361L217.716 507.915C217.356 507.915 217.115 507.915 216.875 507.915Z" fill="url(#paint15_linear_862_34935)"/>
<path d="M195.678 431.977C229.426 451.535 245.7 476.587 245.82 502.423C246.481 503.63 245.16 505.139 243.178 506.347C241.136 507.494 239.154 507.916 236.452 507.916H217.656C214.954 507.916 212.612 507.313 210.931 506.347C209.249 505.381 208.228 503.993 208.228 502.423C208.108 482.865 195.258 462.884 168.955 447.612C142.593 432.339 108.244 424.914 74.6159 424.914C71.9136 424.914 69.5717 424.311 67.8903 423.345C66.2088 422.379 65.188 420.991 65.188 419.421L65.1279 408.495C65.1279 406.926 65.7885 405.779 67.7702 404.571C69.8119 403.424 71.7935 403.002 74.4958 403.002C118.213 402.64 161.99 412.419 195.678 431.977Z" fill="url(#paint16_linear_862_34935)"/>
<path d="M94.012 503.023C94.012 503.204 93.952 503.446 93.952 503.627C93.8919 503.808 93.8919 503.929 93.8319 504.11C93.7718 504.291 93.7118 504.472 93.6517 504.713C93.5917 504.894 93.5316 505.015 93.4716 505.196C93.4115 505.377 93.2914 505.619 93.1713 505.8C93.1113 505.921 92.9912 506.102 92.9311 506.222C92.811 506.464 92.6309 506.645 92.5108 506.886C92.3306 507.067 92.2105 507.309 92.0304 507.55C91.9703 507.611 91.9703 507.671 91.9103 507.671C91.6701 507.913 91.3698 508.214 91.1296 508.456C90.9494 508.637 90.7693 508.758 90.5291 508.939C90.3489 509.06 90.1688 509.241 89.9886 509.361C89.8085 509.482 89.5683 509.663 89.3281 509.784C89.0879 509.965 88.8477 510.086 88.6075 510.267C88.067 510.569 87.4065 510.87 86.806 511.172C86.6258 511.233 86.4457 511.353 86.2655 511.414C85.7851 511.595 85.3047 511.776 84.7642 511.957C84.5841 512.017 84.4039 512.078 84.2238 512.138C83.9235 512.259 83.5632 512.319 83.263 512.44C83.0228 512.5 82.7826 512.561 82.4823 512.621C82.122 512.681 81.7617 512.742 81.4615 512.863C81.2213 512.923 80.9811 512.983 80.7409 512.983C80.0202 513.104 79.2996 513.225 78.579 513.285C78.3388 513.285 78.1587 513.345 77.9185 513.345C77.4981 513.406 77.0778 513.406 76.6574 513.406C76.3572 513.406 76.117 513.406 75.8167 513.406C75.4564 513.406 75.0961 513.406 74.7958 513.406C74.4956 513.406 74.2554 513.406 73.9551 513.406C73.6549 513.406 73.2946 513.345 72.9943 513.345C72.6941 513.345 72.3938 513.285 72.0936 513.285C71.7933 513.225 71.4931 513.225 71.1328 513.164C70.8325 513.104 70.5323 513.104 70.2921 513.044C69.9918 512.983 69.6315 512.923 69.3312 512.863C69.031 512.802 68.7908 512.742 68.5506 512.681C68.1302 512.621 67.7699 512.5 67.3496 512.38C67.1094 512.319 66.9292 512.259 66.689 512.199C65.9684 512.017 65.3079 511.776 64.6473 511.534C64.287 511.414 63.9867 511.293 63.6865 511.112C63.5063 511.052 63.3262 510.991 63.2061 510.87C62.7257 510.629 62.2453 510.388 61.8249 510.146C58.1018 507.973 56.1802 505.136 56.1802 502.238C56.1802 508.033 56.1201 513.828 56.1201 519.684C56.1201 522.521 57.9817 525.418 61.7048 527.592C62.1252 527.833 62.6056 528.075 63.086 528.316C63.2661 528.376 63.4463 528.497 63.6264 528.557C63.9267 528.678 64.1669 528.799 64.4671 528.92C64.5272 528.92 64.5272 528.92 64.5872 528.98C65.2478 529.221 65.9084 529.463 66.629 529.644C66.689 529.644 66.7491 529.704 66.8091 529.704C66.9893 529.765 67.1094 529.765 67.2895 529.825C67.7099 529.946 68.0702 530.006 68.4905 530.127C68.6106 530.127 68.6707 530.187 68.7908 530.187C68.9709 530.248 69.091 530.248 69.2712 530.248C69.6315 530.308 69.9317 530.368 70.2921 530.429C70.4122 530.429 70.5323 530.489 70.7124 530.489C70.8325 530.489 71.0127 530.549 71.1328 530.549C71.433 530.61 71.7933 530.61 72.0936 530.67C72.2137 530.67 72.3938 530.731 72.5139 530.731C72.634 530.731 72.8142 530.731 72.9343 530.731C73.2345 530.731 73.5948 530.791 73.8951 530.791C74.0752 530.791 74.1953 530.791 74.3755 530.791C74.4956 530.791 74.6157 530.791 74.7958 530.791C75.1561 530.791 75.4564 530.791 75.8167 530.791C75.9969 530.791 76.177 530.791 76.3572 530.791C76.4773 530.791 76.5373 530.791 76.6574 530.791C77.0778 530.791 77.4981 530.731 77.9185 530.731C78.0986 530.731 78.2788 530.731 78.4589 530.67C78.519 530.67 78.579 530.67 78.6391 530.67C79.3597 530.61 80.0803 530.489 80.8009 530.368C80.861 530.368 80.861 530.368 80.921 530.368C81.1612 530.308 81.3414 530.248 81.5816 530.248C81.9419 530.187 82.2421 530.127 82.6024 530.006C82.8426 529.946 83.1429 529.885 83.3831 529.765C83.6833 529.704 84.0436 529.584 84.3439 529.523C84.4039 529.523 84.464 529.463 84.5841 529.463C84.7042 529.403 84.8243 529.403 84.9444 529.342C85.4248 529.161 85.9652 528.98 86.4457 528.799C86.6258 528.739 86.806 528.618 86.9861 528.557C87.5866 528.256 88.1871 527.954 88.7876 527.652C88.8477 527.592 88.9678 527.531 89.0278 527.531C89.208 527.41 89.3281 527.29 89.5082 527.169C89.7484 526.988 89.9886 526.867 90.1688 526.686C90.3489 526.565 90.5291 526.384 90.7092 526.264C90.8894 526.082 91.1296 525.962 91.3097 525.781C91.3698 525.72 91.3698 525.72 91.4299 525.66C91.6701 525.418 91.9103 525.177 92.0904 524.936C92.1505 524.875 92.1505 524.875 92.2105 524.815C92.3306 524.634 92.4507 524.513 92.5708 524.392C92.6309 524.332 92.6309 524.272 92.6909 524.211C92.8711 523.97 92.9912 523.789 93.1113 523.547C93.1713 523.426 93.2314 523.366 93.2914 523.245C93.3515 523.185 93.3515 523.125 93.3515 523.125C93.4716 522.943 93.5316 522.702 93.6517 522.521C93.7118 522.4 93.7718 522.279 93.8319 522.159C93.8319 522.098 93.8319 522.098 93.8919 522.038C93.952 521.857 94.012 521.676 94.0721 521.495C94.1321 521.374 94.1321 521.253 94.1922 521.133C94.1922 521.072 94.1922 521.072 94.1922 521.012C94.2522 520.831 94.2522 520.589 94.2522 520.408C94.2522 520.287 94.3123 520.167 94.3123 520.046C94.3123 519.986 94.3123 519.925 94.3123 519.865L94.3723 502.419C94.0721 502.661 94.0721 502.842 94.012 503.023Z" fill="url(#paint17_linear_862_34935)"/>
<path d="M88.4876 494.635C95.9338 498.981 95.9939 505.983 88.5476 510.269C81.1614 514.616 69.0912 514.616 61.645 510.269C54.1987 505.923 54.1987 498.921 61.5849 494.635C68.9711 490.288 81.0413 490.288 88.4876 494.635Z" fill="url(#paint18_linear_862_34935)"/>
<path d="M217.596 506.888C215.194 506.888 212.973 506.405 211.411 505.439C210.631 504.956 209.249 503.93 209.249 502.421C209.129 481.353 194.957 461.553 169.436 446.704C144.035 431.975 110.346 423.886 74.6161 423.886C72.214 423.886 69.9922 423.403 68.4309 422.437C67.5901 421.954 66.269 420.928 66.269 419.419L66.209 408.493C66.209 407.406 66.5693 406.561 68.3708 405.535C70.1123 404.508 71.9138 404.086 74.556 404.086C75.3967 404.086 76.2374 404.086 77.0781 404.086C121.215 404.086 163.191 414.348 195.198 432.94C227.024 451.412 244.679 476.101 244.799 502.481L244.799 502.783L244.919 503.024C245.1 503.386 244.439 504.413 242.638 505.499C240.896 506.525 239.095 506.948 236.452 506.948H217.596L217.596 506.888Z" fill="url(#paint19_linear_862_34935)"/>
<path d="M141.632 506.465C139.23 506.465 137.008 505.982 135.446 505.017C134.606 504.534 133.285 503.507 133.285 501.998C132.504 492.702 126.139 483.949 115.81 477.973C104.761 471.574 90.4686 468.013 75.576 468.013C73.174 468.013 70.9521 467.53 69.3908 466.624C68.6102 466.141 67.229 465.115 67.229 463.606L67.1689 452.62C67.1689 451.895 67.4692 451.171 68.1298 450.567C69.571 449.119 72.3333 448.273 75.516 448.273C100.857 448.273 123.677 453.767 141.632 464.21C159.407 474.532 168.835 487.571 168.895 502.059C168.895 502.783 168.594 503.507 167.934 504.111C166.493 505.56 163.73 506.465 160.548 506.465H141.632Z" fill="url(#paint20_linear_862_34935)"/>
<path d="M75.1558 512.442C70.2316 512.442 65.6678 511.355 62.2449 509.363C58.9421 507.431 57.1406 505.017 57.1406 502.421C57.1406 499.886 58.8821 497.411 62.1248 495.54C65.5477 493.548 70.1115 492.461 75.0357 492.461C79.9598 492.461 84.5237 493.548 87.9466 495.54C91.2493 497.471 93.0509 499.886 93.0509 502.482C93.0509 505.017 91.2493 507.492 88.0667 509.363C84.5837 511.355 80.0199 512.442 75.1558 512.442Z" fill="url(#paint21_linear_862_34935)"/>
</g>
</g>
<defs>
<filter id="filter0_f_862_34935" x="383.91" y="54.8594" width="292.834" height="370.641" filterUnits="userSpaceOnUse" color-interpolation-filters="sRGB">
<feFlood flood-opacity="0" result="BackgroundImageFix"/>
<feBlend mode="normal" in="SourceGraphic" in2="BackgroundImageFix" result="shape"/>
<feGaussianBlur stdDeviation="2" result="effect1_foregroundBlur_862_34935"/>
</filter>
<filter id="filter1_f_862_34935" x="214" y="374" width="409.861" height="266.219" filterUnits="userSpaceOnUse" color-interpolation-filters="sRGB">
<feFlood flood-opacity="0" result="BackgroundImageFix"/>
<feBlend mode="normal" in="SourceGraphic" in2="BackgroundImageFix" result="shape"/>
<feGaussianBlur stdDeviation="17.5" result="effect1_foregroundBlur_862_34935"/>
</filter>
<linearGradient id="paint0_linear_862_34935" x1="465.756" y1="96.8865" x2="659.916" y2="96.8865" gradientUnits="userSpaceOnUse">
<stop stop-color="#2595FF"/>
<stop offset="1" stop-color="#40FFC6"/>
</linearGradient>
<linearGradient id="paint1_linear_862_34935" x1="515.659" y1="243.928" x2="465.18" y2="105.169" gradientUnits="userSpaceOnUse">
<stop stop-color="#2595FF"/>
<stop offset="1" stop-color="#437FEC"/>
</linearGradient>
<linearGradient id="paint2_linear_862_34935" x1="97.0701" y1="0" x2="97.0701" y2="26.9762" gradientUnits="userSpaceOnUse">
<stop stop-color="#E5F2FF" stop-opacity="0"/>
<stop offset="1" stop-color="#C9DAEC" stop-opacity="0.89"/>
</linearGradient>
<linearGradient id="paint3_linear_862_34935" x1="97.0701" y1="0" x2="97.0701" y2="26.7703" gradientUnits="userSpaceOnUse">
<stop offset="0.442975" stop-color="#E5F2FF" stop-opacity="0"/>
<stop offset="1" stop-color="#D4E4F3" stop-opacity="0.47"/>
</linearGradient>
<linearGradient id="paint4_linear_862_34935" x1="97.0701" y1="0" x2="97.0701" y2="194.14" gradientUnits="userSpaceOnUse">
<stop stop-color="#E9F3FF"/>
<stop offset="1" stop-color="#F4F7FF"/>
</linearGradient>
<linearGradient id="paint5_linear_862_34935" x1="405.873" y1="382.385" x2="369.581" y2="445.244" gradientUnits="userSpaceOnUse">
<stop stop-color="#A4CFFF"/>
<stop offset="1" stop-color="#A3C6FF" stop-opacity="0.4"/>
</linearGradient>
<linearGradient id="paint6_linear_862_34935" x1="403.707" y1="383.279" x2="367.415" y2="446.138" gradientUnits="userSpaceOnUse">
<stop stop-color="#A4CFFF"/>
<stop offset="1" stop-color="#A3C6FF" stop-opacity="0.4"/>
</linearGradient>
<linearGradient id="paint7_linear_862_34935" x1="435.948" y1="315.752" x2="407.333" y2="365.314" gradientUnits="userSpaceOnUse">
<stop stop-color="#A4CFFF"/>
<stop offset="1" stop-color="#A3C6FF" stop-opacity="0.4"/>
</linearGradient>
<linearGradient id="paint8_linear_862_34935" x1="434.239" y1="316.455" x2="405.624" y2="366.017" gradientUnits="userSpaceOnUse">
<stop stop-color="#A4CFFF"/>
<stop offset="1" stop-color="#A3C6FF" stop-opacity="0.4"/>
</linearGradient>
<linearGradient id="paint9_linear_862_34935" x1="490.948" y1="363.963" x2="462.333" y2="413.525" gradientUnits="userSpaceOnUse">
<stop stop-color="#A4CFFF"/>
<stop offset="1" stop-color="#A3C6FF" stop-opacity="0.4"/>
</linearGradient>
<linearGradient id="paint10_linear_862_34935" x1="489.239" y1="364.666" x2="460.624" y2="414.228" gradientUnits="userSpaceOnUse">
<stop stop-color="#A4CFFF"/>
<stop offset="1" stop-color="#A3C6FF" stop-opacity="0.4"/>
</linearGradient>
<linearGradient id="paint11_linear_862_34935" x1="169.811" y1="513.768" x2="140.639" y2="513.768" gradientUnits="userSpaceOnUse">
<stop stop-color="#9CCCFF"/>
<stop offset="0.1327" stop-color="#B2D7FF"/>
<stop offset="0.2537" stop-color="#DFEEFF"/>
<stop offset="1" stop-color="#F9FAFF"/>
</linearGradient>
<linearGradient id="paint12_linear_862_34935" x1="66.0396" y1="477.389" x2="169.858" y2="477.389" gradientUnits="userSpaceOnUse">
<stop stop-color="#F1F4FE"/>
<stop offset="0.5797" stop-color="#F7F9FE"/>
<stop offset="1" stop-color="white"/>
</linearGradient>
<linearGradient id="paint13_linear_862_34935" x1="141.651" y1="494.319" x2="66.0599" y2="494.319" gradientUnits="userSpaceOnUse">
<stop stop-color="#EEF5FF"/>
<stop offset="0.2537" stop-color="#EAF4FF"/>
<stop offset="1" stop-color="#E0EFFF"/>
</linearGradient>
<linearGradient id="paint14_linear_862_34935" x1="245.772" y1="514.399" x2="216.242" y2="514.399" gradientUnits="userSpaceOnUse">
<stop stop-color="#9CCCFF"/>
<stop offset="0.1327" stop-color="#B2D7FF"/>
<stop offset="0.2537" stop-color="#DFEEFF"/>
<stop offset="1" stop-color="#F9FAFF"/>
</linearGradient>
<linearGradient id="paint15_linear_862_34935" x1="65.1351" y1="472.402" x2="217.621" y2="472.402" gradientUnits="userSpaceOnUse">
<stop stop-color="#EDF5FF"/>
<stop offset="0.2537" stop-color="#E3F0FF"/>
<stop offset="1" stop-color="#F1F6FF"/>
</linearGradient>
<linearGradient id="paint16_linear_862_34935" x1="65.1255" y1="455.465" x2="246.01" y2="455.465" gradientUnits="userSpaceOnUse">
<stop stop-color="#F1F4FE"/>
<stop offset="0.5797" stop-color="#F7F9FE"/>
<stop offset="1" stop-color="white"/>
</linearGradient>
<linearGradient id="paint17_linear_862_34935" x1="94.0789" y1="516.658" x2="56" y2="516.658" gradientUnits="userSpaceOnUse">
<stop stop-color="#9CCCFF"/>
<stop offset="0.1327" stop-color="#B2D7FF"/>
<stop offset="0.2537" stop-color="#DFEEFF"/>
<stop offset="1" stop-color="#F9FAFF"/>
</linearGradient>
<linearGradient id="paint18_linear_862_34935" x1="56.0471" y1="502.446" x2="94.0802" y2="502.446" gradientUnits="userSpaceOnUse">
<stop stop-color="#F1F4FE"/>
<stop offset="0.5797" stop-color="#F7F9FE"/>
<stop offset="1" stop-color="white"/>
</linearGradient>
<linearGradient id="paint19_linear_862_34935" x1="155.558" y1="404.061" x2="155.558" y2="506.949" gradientUnits="userSpaceOnUse">
<stop stop-color="#5FEFC0"/>
<stop offset="1" stop-color="#25D8FF"/>
</linearGradient>
<linearGradient id="paint20_linear_862_34935" x1="118.064" y1="448.283" x2="118.064" y2="506.463" gradientUnits="userSpaceOnUse">
<stop stop-color="#48FAC9"/>
<stop offset="1" stop-color="#437FEC"/>
</linearGradient>
<linearGradient id="paint21_linear_862_34935" x1="75.0967" y1="492.462" x2="75.0967" y2="512.445" gradientUnits="userSpaceOnUse">
<stop stop-color="#3A98FF"/>
<stop offset="1" stop-color="#4AE6FF"/>
</linearGradient>
<clipPath id="clip0_862_34935">
<rect width="766" height="615" fill="white"/>
</clipPath>
<clipPath id="clip1_862_34935">
<rect width="190" height="129" fill="white" transform="translate(56 403)"/>
</clipPath>
</defs>
</svg>
