<svg width="792" height="655" viewBox="0 0 792 655" fill="none" xmlns="http://www.w3.org/2000/svg">
<g filter="url(#filter0_f_862_34750)">
<path d="M166.63 484.619C154.3 477.706 154.3 465.983 166.329 459.07L397.288 481.313C409.318 474.399 429.166 474.399 441.495 481.313L673.657 459.07C685.687 465.983 685.987 477.706 673.657 484.619L442.999 618.674C430.97 625.587 411.122 625.587 398.792 618.674L166.63 484.619Z" fill="#B5D0EA"/>
</g>
<path d="M682.679 458.768C682.679 459.069 682.679 459.369 682.679 459.67C682.679 459.971 682.679 460.271 682.378 460.572C682.378 460.872 682.078 461.173 682.078 461.473C682.078 461.774 681.777 462.075 681.777 462.075C681.777 462.375 681.476 462.676 681.175 462.976C680.875 463.277 680.574 463.878 680.273 464.179C680.273 464.179 680.273 464.179 679.973 464.479C679.672 464.78 679.371 465.381 679.07 465.681C679.07 465.681 679.07 465.982 678.77 465.982C678.469 466.283 677.867 466.884 677.567 467.184C677.266 467.485 676.965 467.785 676.665 468.086C676.364 468.387 676.063 468.687 675.762 468.687C675.462 468.988 675.161 469.288 674.559 469.288C674.259 469.589 673.657 469.889 673.357 470.19L442.698 604.245L442.097 613.262L672.755 479.207C672.755 479.207 673.056 479.207 673.056 478.907C673.357 478.606 673.657 478.606 673.958 478.305C674.259 478.005 674.86 477.704 675.161 477.404C675.462 477.103 675.762 477.103 676.063 476.803C676.364 476.502 676.665 476.201 676.965 475.901C676.965 475.901 676.965 475.901 677.266 475.6C677.567 475.3 678.168 474.999 678.469 474.398C678.469 474.398 678.469 474.097 678.77 474.097C679.07 473.797 679.07 473.797 679.371 473.496C679.672 473.196 679.672 473.196 679.672 472.895C679.672 472.895 679.672 472.895 679.672 472.595C679.973 472.294 680.273 471.993 680.273 471.693V471.392C680.574 471.092 680.574 470.791 680.875 470.491C680.875 470.19 681.175 470.19 681.175 469.889C681.175 469.889 681.175 469.889 681.175 469.589C681.175 469.288 681.476 468.988 681.476 468.687C681.476 468.387 681.476 468.387 681.777 468.086C681.777 468.086 681.777 468.086 681.777 467.785C681.777 467.485 681.777 467.184 681.777 466.884C681.777 466.583 681.777 466.283 681.777 466.283V465.982L682.378 456.965C682.98 458.167 682.679 458.468 682.679 458.768Z" fill="#D8EBFF"/>
<path d="M166.629 470.491C160.615 466.884 157.307 462.376 157.607 457.566L157.006 466.584C157.006 471.393 160.013 475.901 166.328 479.508L398.49 613.563L399.092 604.546L166.629 470.491Z" fill="#D8EBFF"/>
<path d="M673.657 444.943C685.986 451.856 685.987 463.579 673.957 470.492L443.299 604.547C431.27 611.46 411.422 611.46 399.092 604.547L166.93 470.492C154.901 463.579 154.6 451.856 166.93 444.943L397.288 310.888C409.317 303.975 429.165 303.975 441.495 310.888L673.657 444.943Z" fill="white"/>
<path d="M166.63 460.273C154.3 453.36 154.3 441.638 166.329 434.724L397.288 300.669C409.318 293.756 429.166 293.756 441.495 300.669L673.657 434.724C685.687 441.638 685.987 453.36 673.657 460.273L442.999 594.328C430.97 601.241 411.122 601.241 398.792 594.328L166.63 460.273Z" fill="url(#paint0_linear_862_34750)"/>
<g clip-path="url(#clip0_862_34750)">
<path d="M434.635 545.282C427.478 541.162 420.367 536.996 413.21 532.876C409.335 530.633 405.415 528.39 401.54 526.147C400.72 525.69 399.899 525.095 398.987 524.774C398.03 524.408 396.982 524.316 395.979 524.316C395.34 524.362 394.246 524.82 393.745 524.499C393.107 524.133 392.651 524.179 393.016 523.447C393.426 522.531 393.791 521.57 393.973 520.609C394.383 518.594 394.201 516.489 394.201 514.429C394.201 512.14 394.383 510.309 394.11 508.295C393.608 504.404 391.192 501.108 388.229 498.636C382.029 493.418 373.55 491.083 365.619 490.351C357.413 489.573 348.843 490.442 341.185 493.509C334.347 496.21 326.187 501.749 326.369 510.034C326.369 509.439 326.369 511.316 326.369 511.591C326.369 513.01 326.369 514.429 326.369 515.848C326.369 518.411 326.369 520.837 327.463 523.264C331.065 531.32 340.865 535.211 348.934 536.905C357.231 538.644 366.074 538.415 374.28 536.31C375.237 536.035 376.24 535.76 377.197 535.44C377.608 535.303 379.75 534.204 380.069 534.387C381.027 534.936 381.938 535.486 382.896 535.989C383.716 536.493 384.582 536.95 385.403 537.454C385.54 537.546 385.403 538.461 385.403 538.644C385.403 539.422 385.494 540.017 386.041 540.613C386.679 541.299 387.728 541.757 388.548 542.215C390.189 543.13 391.785 544.091 393.426 545.007C398.167 547.754 402.953 550.5 407.694 553.247C411.706 555.581 415.672 557.87 419.683 560.159C422.373 561.715 425.062 562.905 428.208 561.532C429.849 560.845 431.353 559.747 432.858 558.831C433.86 558.236 435.684 557.55 436.049 556.314C436.322 554.94 436.14 553.43 436.14 552.011C436.14 550.912 436.14 549.859 436.14 548.761C436.14 548.532 436.231 546.838 436.094 547.479C436.276 546.563 435.502 545.739 434.635 545.282Z" fill="#C5D9EF"/>
<path d="M340.181 520.469C351.395 526.924 369.447 526.924 380.57 520.423C391.693 513.923 391.602 503.441 380.433 496.941C369.174 490.486 351.122 490.486 339.999 496.986C328.921 503.486 328.967 513.969 340.181 520.469Z" fill="url(#paint1_linear_862_34750)"/>
<path d="M380.388 496.943C379.704 496.577 379.021 496.211 378.291 495.845C378.063 495.707 377.79 495.616 377.562 495.524C377.152 495.341 376.696 495.158 376.285 494.975C376.194 494.929 376.149 494.929 376.057 494.883C375.921 494.837 375.738 494.746 375.556 494.7C375.009 494.471 374.416 494.288 373.824 494.105C373.596 494.059 373.413 493.968 373.186 493.922C373.049 493.876 372.912 493.83 372.775 493.785C372.547 493.693 372.274 493.647 372.046 493.602C371.453 493.464 370.861 493.281 370.268 493.19C370.131 493.144 369.949 493.098 369.812 493.052C369.584 493.006 369.356 492.961 369.128 492.915C368.627 492.823 368.126 492.732 367.578 492.64C367.396 492.594 367.168 492.549 366.986 492.549C366.758 492.503 366.53 492.503 366.348 492.457C365.846 492.411 365.39 492.32 364.889 492.274C364.661 492.274 364.433 492.228 364.205 492.182C364.023 492.182 363.795 492.182 363.567 492.137C363.111 492.228 362.61 492.182 362.108 492.182C361.88 492.182 361.652 492.137 361.379 492.137C361.196 492.137 361.014 492.137 360.832 492.137C360.285 492.137 359.783 492.137 359.236 492.137C358.963 492.137 358.735 492.137 358.461 492.137C358.325 492.137 358.142 492.137 358.005 492.182C357.322 492.228 356.683 492.274 356 492.32C355.772 492.32 355.498 492.366 355.27 492.366C355.134 492.366 355.042 492.411 354.906 492.411C354.678 492.411 354.495 492.457 354.267 492.503C353.675 492.549 353.037 492.64 352.398 492.778C352.216 492.823 352.034 492.823 351.897 492.869C351.806 492.869 351.76 492.915 351.669 492.915C351.396 492.961 351.076 493.052 350.803 493.098C350.256 493.235 349.709 493.327 349.162 493.464C348.797 493.556 348.432 493.647 348.068 493.739C347.566 493.876 347.065 494.014 346.563 494.197C346.472 494.242 346.336 494.242 346.244 494.288C345.652 494.471 345.105 494.7 344.512 494.883C344.421 494.929 344.33 494.975 344.239 494.975C343.6 495.204 343.008 495.478 342.415 495.753C342.233 495.845 342.05 495.936 341.868 496.028C341.23 496.348 340.546 496.669 339.954 497.035C339.817 497.126 339.726 497.172 339.589 497.264C339.498 497.309 339.406 497.401 339.27 497.447C339.087 497.538 338.905 497.676 338.723 497.767C338.586 497.859 338.404 497.95 338.267 498.088C338.085 498.179 337.948 498.316 337.765 498.454C337.629 498.545 337.492 498.637 337.355 498.774C337.218 498.912 337.036 499.003 336.899 499.14C336.763 499.232 336.671 499.324 336.535 499.461C336.398 499.598 336.215 499.735 336.079 499.873C336.033 499.919 335.988 499.964 335.942 500.01C335.896 500.056 335.851 500.102 335.805 500.147C335.577 500.376 335.349 500.605 335.121 500.834C335.076 500.88 334.985 500.971 334.939 501.017C334.666 501.292 334.438 501.612 334.21 501.887C334.21 501.887 334.21 501.887 334.164 501.933C334.119 501.978 334.073 502.07 334.027 502.116C333.891 502.299 333.754 502.482 333.617 502.665C333.526 502.757 333.48 502.894 333.435 502.986C333.344 503.169 333.207 503.306 333.116 503.489C333.07 503.535 333.07 503.581 333.024 503.626C332.979 503.718 332.933 503.764 332.933 503.855C332.842 503.993 332.797 504.13 332.705 504.267C332.66 504.405 332.614 504.496 332.523 504.633C332.477 504.771 332.386 504.908 332.341 505.045C332.295 505.091 332.295 505.183 332.25 505.229C332.25 505.274 332.204 505.32 332.204 505.412C332.158 505.549 332.113 505.686 332.067 505.824C332.022 505.961 331.976 506.098 331.976 506.19C331.93 506.327 331.885 506.465 331.885 506.602C331.885 506.693 331.839 506.739 331.839 506.831C331.839 506.876 331.839 506.922 331.794 506.968C331.748 507.105 331.748 507.243 331.702 507.38C331.702 507.517 331.657 507.609 331.657 507.746C331.657 507.884 331.611 508.021 331.611 508.158C331.611 508.25 331.611 508.341 331.611 508.433C331.611 508.524 331.611 508.616 331.611 508.662V517.176C331.611 516.993 331.611 516.856 331.611 516.672C331.611 516.535 331.611 516.398 331.657 516.215C331.657 516.077 331.702 515.986 331.702 515.849C331.702 515.711 331.748 515.574 331.748 515.437C331.794 515.299 331.794 515.162 331.839 515.07C331.885 514.933 331.885 514.796 331.93 514.658C331.976 514.521 332.022 514.384 332.022 514.292C332.067 514.155 332.113 514.018 332.158 513.88C332.204 513.743 332.25 513.606 332.295 513.514C332.341 513.377 332.386 513.239 332.477 513.102C332.523 512.965 332.569 512.873 332.66 512.736C332.751 512.598 332.797 512.461 332.888 512.324C332.933 512.232 333.024 512.095 333.07 511.958C333.161 511.774 333.252 511.637 333.389 511.454C333.435 511.363 333.526 511.271 333.572 511.134C333.708 510.951 333.845 510.767 333.982 510.584C334.027 510.493 334.119 510.401 334.164 510.31C334.392 510.035 334.666 509.715 334.894 509.44C334.939 509.348 335.03 509.303 335.121 509.211C335.349 508.982 335.532 508.753 335.76 508.57C335.851 508.479 335.942 508.387 336.079 508.296C336.215 508.158 336.352 508.067 336.489 507.929C336.626 507.838 336.763 507.7 336.899 507.609C337.036 507.472 337.218 507.38 337.355 507.243C337.492 507.151 337.629 507.014 337.765 506.922C337.902 506.831 338.085 506.693 338.267 506.602C338.404 506.51 338.586 506.373 338.723 506.281C338.905 506.19 339.042 506.053 339.224 505.961C339.452 505.824 339.68 505.686 339.908 505.549C340.501 505.183 341.184 504.862 341.823 504.542C342.005 504.45 342.187 504.359 342.324 504.313C342.917 504.038 343.509 503.764 344.147 503.535C344.239 503.489 344.33 503.443 344.375 503.443C345.059 503.169 345.743 502.94 346.427 502.757C346.928 502.619 347.43 502.482 347.931 502.345C348.296 502.253 348.66 502.116 349.025 502.024C349.572 501.887 350.119 501.795 350.621 501.658C350.985 501.567 351.35 501.521 351.715 501.429C351.897 501.383 352.079 501.383 352.216 501.338C352.854 501.246 353.538 501.155 354.176 501.063C354.359 501.017 354.541 501.017 354.769 501.017C355.134 500.971 355.544 500.926 355.909 500.926C356.547 500.88 357.185 500.834 357.869 500.788C358.279 500.788 358.689 500.743 359.1 500.743C359.647 500.743 360.148 500.743 360.695 500.743C361.105 500.743 361.561 500.743 361.971 500.788C362.473 500.788 362.974 500.834 363.43 500.88C363.84 500.926 364.296 500.926 364.707 500.971C365.162 501.017 365.664 501.063 366.12 501.109C366.576 501.155 366.986 501.246 367.396 501.292C367.898 501.383 368.399 501.475 368.9 501.567C369.311 501.658 369.675 501.704 370.086 501.795C370.678 501.933 371.271 502.07 371.864 502.207C372.228 502.299 372.639 502.39 373.003 502.528C373.186 502.574 373.413 502.665 373.596 502.711C374.188 502.894 374.735 503.077 375.328 503.306C375.51 503.352 375.647 503.443 375.83 503.489C376.377 503.672 376.878 503.901 377.379 504.13C377.607 504.222 377.881 504.359 378.109 504.45C378.838 504.817 379.522 505.137 380.206 505.549C385.813 508.799 388.639 513.102 388.639 517.359V508.891C388.821 504.496 385.995 500.239 380.388 496.943Z" fill="url(#paint2_linear_862_34750)"/>
<path d="M394.2 508.754C394.2 509.212 394.155 509.669 394.109 510.173C394.109 510.265 394.064 510.356 394.064 510.402C394.018 510.768 393.927 511.134 393.836 511.546C393.836 511.638 393.79 511.729 393.79 511.821C393.653 512.233 393.517 512.691 393.38 513.103C393.334 513.194 393.289 513.286 393.243 513.377C393.106 513.743 392.924 514.11 392.742 514.43C392.696 514.522 392.65 514.613 392.605 514.705C392.377 515.117 392.103 515.574 391.83 515.986C391.784 516.078 391.693 516.17 391.647 516.261C391.42 516.582 391.192 516.902 390.918 517.222C390.781 517.406 390.645 517.543 390.508 517.726C390.28 518.001 390.006 518.229 389.778 518.504C389.642 518.641 389.459 518.825 389.323 518.962C388.912 519.328 388.502 519.74 388.092 520.061V528.575C388.456 528.3 388.776 527.98 389.095 527.659C389.186 527.568 389.231 527.522 389.323 527.43C389.459 527.293 389.642 527.11 389.778 526.973C390.052 526.698 390.28 526.469 390.508 526.194C390.645 526.011 390.781 525.874 390.918 525.691C391.009 525.599 391.1 525.508 391.192 525.37C391.374 525.142 391.511 524.913 391.647 524.73C391.739 524.638 391.784 524.547 391.83 524.455C392.058 524.089 392.331 523.723 392.514 523.356C392.559 523.311 392.559 523.265 392.605 523.219C392.65 523.127 392.696 523.036 392.742 522.944C392.924 522.578 393.106 522.212 393.243 521.892C393.289 521.8 393.334 521.708 393.38 521.617C393.38 521.571 393.425 521.525 393.471 521.434C393.608 521.068 393.699 520.701 393.836 520.335C393.836 520.244 393.881 520.152 393.881 520.061C393.927 519.877 393.972 519.694 394.018 519.511C394.064 519.328 394.064 519.099 394.109 518.916C394.109 518.825 394.155 518.733 394.155 518.641C394.2 518.275 394.246 517.909 394.246 517.543C394.246 517.451 394.246 517.36 394.246 517.268C394.2 514.43 394.2 511.592 394.2 508.754Z" fill="url(#paint3_linear_862_34750)"/>
<path d="M394.018 523.539V532.008H393.973V523.539C393.973 523.539 393.973 523.539 394.018 523.539Z" fill="#26262E"/>
<path d="M393.973 523.586V532.054C393.563 532.192 393.198 532.329 392.879 532.558V524.044C393.152 523.861 393.563 523.677 393.973 523.586Z" fill="#27272F"/>
<path d="M392.833 524.043V532.557L386.815 536.036V527.568L392.833 524.043Z" fill="#2A2A32"/>
<path d="M386.816 527.566V536.035C386.77 536.035 386.77 536.081 386.725 536.081V527.612C386.77 527.612 386.816 527.566 386.816 527.566Z" fill="#27272F"/>
<path d="M386.77 527.613V536.082C386.542 536.219 386.314 536.402 386.132 536.54V528.071C386.314 527.888 386.542 527.751 386.77 527.613Z" fill="#26262E"/>
<path d="M386.132 528.07V536.539C386.086 536.585 385.995 536.63 385.949 536.722V528.208C386.04 528.208 386.086 528.116 386.132 528.07Z" fill="#25252C"/>
<path d="M385.949 528.252V536.721L379.978 533.288L380.023 524.773L385.949 528.252Z" fill="url(#paint4_linear_862_34750)"/>
<path d="M392.833 524.042L386.816 527.567C386.451 527.75 386.178 527.979 385.95 528.253L379.978 524.82C366.758 530.313 348.205 529.535 336.352 522.714C336.125 522.577 335.942 522.485 335.714 522.348C322.814 514.429 323.269 501.932 336.808 494.425C350.119 487.009 371.18 487.192 384.172 494.7C384.4 494.837 384.582 494.974 384.81 495.066C396.207 501.978 397.164 512.506 388.047 520.059L394.018 523.492C393.563 523.676 393.198 523.859 392.833 524.042ZM340.182 520.471C351.396 526.926 369.448 526.926 380.571 520.426C391.694 513.925 391.602 503.443 380.434 496.943C369.174 490.488 351.122 490.488 339.999 496.988C328.922 503.489 328.968 513.971 340.182 520.471Z" fill="url(#paint5_linear_862_34750)"/>
<path d="M380.023 524.773C379.112 525.139 378.154 525.506 377.151 525.826C376.832 525.918 376.513 526.009 376.194 526.146C375.556 526.33 374.918 526.513 374.234 526.696C373.869 526.787 373.505 526.879 373.094 526.97C372.456 527.108 371.818 527.245 371.18 527.382C370.724 527.474 370.222 527.566 369.766 527.657C369.493 527.703 369.219 527.749 368.9 527.794C368.217 527.886 367.487 527.978 366.803 528.069C366.621 528.069 366.484 528.115 366.348 528.115C365.527 528.206 364.661 528.252 363.795 528.298C363.567 528.298 363.384 528.344 363.157 528.344C362.655 528.389 362.154 528.389 361.698 528.389C361.014 528.389 360.285 528.435 359.601 528.389C359.191 528.389 358.78 528.389 358.37 528.344C357.732 528.344 357.048 528.298 356.41 528.252C356 528.206 355.589 528.206 355.179 528.161C354.45 528.115 353.766 528.023 353.036 527.932C352.717 527.886 352.398 527.886 352.079 527.84C351.031 527.703 349.982 527.52 348.979 527.291C348.159 527.154 347.384 526.925 346.609 526.742C346.427 526.696 346.244 526.65 346.016 526.604C345.378 526.421 344.785 526.238 344.147 526.055C343.919 525.963 343.691 525.918 343.463 525.826C342.689 525.551 341.914 525.277 341.139 525.002C340.637 524.773 340.136 524.544 339.634 524.315C339.315 524.178 338.996 524.041 338.677 523.903C337.856 523.537 337.081 523.125 336.352 522.668C336.124 522.53 335.942 522.439 335.714 522.301C329.469 518.502 326.323 513.558 326.323 508.66V517.174C326.323 522.072 329.423 526.97 335.714 530.816C335.942 530.953 336.124 531.09 336.352 531.182C337.081 531.64 337.902 532.052 338.677 532.418C338.905 532.509 339.133 532.601 339.361 532.738C339.953 533.013 340.546 533.287 341.139 533.516C341.184 533.516 341.184 533.516 341.184 533.562C341.914 533.837 342.689 534.111 343.418 534.386C343.646 534.478 343.874 534.523 344.102 534.615C344.512 534.752 344.877 534.89 345.287 534.981C345.515 535.027 345.743 535.073 345.971 535.164C346.153 535.21 346.381 535.256 346.563 535.302C347.338 535.485 348.068 535.668 348.843 535.851C348.888 535.851 348.888 535.851 348.934 535.851C349.982 536.034 351.031 536.263 352.079 536.4C352.125 536.4 352.17 536.4 352.216 536.4C352.444 536.446 352.717 536.446 352.945 536.492C353.675 536.583 354.404 536.675 355.133 536.721C355.27 536.721 355.361 536.766 355.498 536.766C355.772 536.812 356.045 536.812 356.319 536.812C357.002 536.858 357.641 536.904 358.324 536.904C358.507 536.904 358.689 536.904 358.871 536.95C359.099 536.95 359.327 536.95 359.51 536.95C360.239 536.95 360.923 536.95 361.607 536.95C361.835 536.95 362.062 536.95 362.336 536.95C362.61 536.95 362.837 536.904 363.065 536.904C363.293 536.904 363.476 536.904 363.704 536.858C364.524 536.812 365.299 536.766 366.12 536.675C366.165 536.675 366.211 536.675 366.211 536.675C366.393 536.675 366.53 536.629 366.667 536.629C367.396 536.538 368.08 536.446 368.809 536.354C369.083 536.309 369.356 536.263 369.584 536.217C369.858 536.171 370.131 536.126 370.45 536.08C370.678 536.034 370.861 535.988 371.088 535.942C371.727 535.805 372.319 535.668 372.957 535.53C373.368 535.439 373.732 535.347 374.143 535.256C374.781 535.073 375.419 534.89 376.012 534.707C376.285 534.615 376.559 534.569 376.832 534.478C376.923 534.432 377.015 534.432 377.06 534.386C378.017 534.066 378.975 533.699 379.887 533.333L380.023 524.773Z" fill="#D8EBFF"/>
<path d="M386.861 531.642C385.858 531.093 385.402 530.314 385.402 529.582V538.096C385.402 538.829 385.904 539.607 386.861 540.156L421.643 560.252V551.737L386.861 531.642Z" fill="#D8EBFF"/>
<path d="M434.635 544.138C436.596 545.283 436.596 547.114 434.681 548.258L428.664 551.783C426.749 552.927 423.558 552.927 421.598 551.783L386.816 531.687C385.22 530.772 384.901 529.353 385.904 528.254C386.132 528.025 386.406 527.796 386.77 527.567L392.788 524.043C393.152 523.86 393.517 523.677 393.973 523.539C395.842 522.944 398.258 523.127 399.853 524.043L434.635 544.138Z" fill="url(#paint6_linear_862_34750)"/>
<path d="M436.048 546.747V546.793C436.002 546.976 435.911 547.113 435.82 547.25C435.82 547.25 435.774 547.296 435.774 547.342C435.683 547.479 435.546 547.662 435.364 547.8C435.273 547.891 435.136 547.983 434.999 548.074C434.908 548.166 434.817 548.212 434.68 548.303L428.663 551.828C428.344 552.011 428.025 552.148 427.705 552.286C427.569 552.331 427.478 552.377 427.341 552.377C427.204 552.423 427.022 552.469 426.839 552.515C426.657 552.56 426.429 552.606 426.247 552.652C426.201 552.652 426.156 552.652 426.11 552.652C425.836 552.698 425.563 552.698 425.289 552.698C425.244 552.698 425.198 552.698 425.153 552.698C424.879 552.698 424.606 552.698 424.332 552.652C424.287 552.652 424.241 552.652 424.195 552.652C423.922 552.606 423.648 552.56 423.375 552.515C423.329 552.515 423.284 552.469 423.238 552.469C423.01 552.423 422.782 552.331 422.554 552.24C422.509 552.24 422.463 552.194 422.418 552.194C422.144 552.103 421.871 551.965 421.643 551.828V560.342C421.871 560.48 422.098 560.571 422.372 560.708H422.418C422.463 560.708 422.509 560.754 422.554 560.754C422.691 560.8 422.828 560.846 422.965 560.892C423.056 560.937 423.147 560.937 423.192 560.937C423.238 560.937 423.284 560.983 423.329 560.983C423.375 560.983 423.42 561.029 423.466 561.029C423.648 561.075 423.785 561.075 423.967 561.12C424.013 561.12 424.104 561.12 424.15 561.12C424.195 561.12 424.241 561.12 424.287 561.12C424.332 561.12 424.423 561.12 424.469 561.12C424.651 561.12 424.788 561.166 424.97 561.166C425.016 561.166 425.062 561.166 425.107 561.166C425.153 561.166 425.198 561.166 425.244 561.166C425.335 561.166 425.381 561.166 425.472 561.166C425.654 561.166 425.836 561.166 426.019 561.12H426.064C426.11 561.12 426.156 561.12 426.201 561.075C426.338 561.075 426.475 561.029 426.611 561.029C426.657 561.029 426.748 560.983 426.794 560.983C426.976 560.937 427.113 560.892 427.295 560.846C427.386 560.846 427.478 560.8 427.569 560.8C427.614 560.8 427.66 560.754 427.66 560.754C428.025 560.617 428.344 560.48 428.663 560.342L434.68 556.817L434.726 556.772C434.817 556.726 434.862 556.634 434.954 556.589C435.09 556.497 435.227 556.405 435.318 556.314C435.318 556.314 435.318 556.314 435.364 556.268C435.501 556.177 435.592 556.039 435.683 555.948C435.729 555.902 435.729 555.902 435.729 555.856C435.729 555.81 435.774 555.81 435.774 555.765C435.82 555.719 435.82 555.673 435.865 555.627C435.911 555.536 435.957 555.444 436.002 555.353V555.307V555.261C436.002 555.215 436.048 555.124 436.048 555.078C436.048 554.986 436.093 554.895 436.093 554.803V554.758V546.289C436.139 546.381 436.093 546.564 436.048 546.747Z" fill="url(#paint7_linear_862_34750)"/>
<path opacity="0.3" d="M340.181 520.379C351.395 526.834 369.447 526.834 380.57 520.334C391.693 513.833 391.602 503.351 380.433 496.851C369.174 490.396 351.122 490.396 339.999 496.896C328.921 503.397 328.967 513.879 340.181 520.379Z" fill="#E9F3FF"/>
</g>
<path d="M439.691 615.069C440.593 614.769 444.503 612.665 445.405 612.063V603.347C444.503 603.948 441.195 605.751 440.293 606.052C439.992 606.052 439.691 606.353 439.391 606.353C438.488 606.653 437.887 606.954 436.985 607.254C436.684 607.254 436.383 607.555 436.083 607.555C435.481 607.855 435.18 607.855 434.579 608.156C434.278 608.156 433.677 608.457 433.376 608.457C432.775 608.457 432.173 608.757 431.572 608.757C431.271 608.757 430.669 608.757 430.369 609.058C429.166 609.358 427.963 609.358 426.76 609.659C426.459 609.659 425.858 609.659 425.557 609.659C424.956 609.659 424.053 609.659 423.452 609.659C422.851 609.659 422.55 609.659 421.948 609.659C421.347 609.659 420.745 609.659 420.144 609.659C419.543 609.659 419.242 609.659 418.64 609.659C418.039 609.659 417.738 609.659 417.137 609.659C416.535 609.659 416.235 609.659 415.633 609.659C415.032 609.659 414.731 609.659 414.129 609.358C413.528 609.358 413.227 609.358 412.626 609.058C412.024 609.058 411.423 608.757 410.821 608.757C410.521 608.757 409.919 608.457 409.619 608.457C409.017 608.156 408.416 608.156 407.513 607.855C407.213 607.855 406.912 607.555 406.31 607.555C405.108 607.254 403.905 606.954 403.002 606.353C402.401 606.052 402.1 606.052 401.499 605.751C401.198 605.751 400.897 605.451 400.597 605.451C399.694 605.15 395.484 602.746 394.883 602.145V611.462C395.484 611.763 399.394 614.167 400.296 614.468C400.597 614.468 400.897 614.769 401.198 614.769C401.8 615.069 402.1 615.069 402.702 615.37C402.702 615.37 402.702 615.37 403.002 615.37C404.205 615.67 405.108 616.271 406.31 616.572H406.611C406.912 616.572 407.213 616.572 407.513 616.873C408.115 617.173 408.716 617.173 409.318 617.474C409.618 617.474 409.618 617.474 409.919 617.474C410.22 617.474 410.521 617.474 410.821 617.774C411.423 617.774 412.024 618.075 412.325 618.075C412.626 618.075 412.926 618.075 412.926 618.075C413.227 618.075 413.528 618.075 413.829 618.075C414.43 618.075 414.731 618.075 415.332 618.375C415.633 618.375 415.934 618.375 416.235 618.375C416.535 618.375 416.836 618.375 417.137 618.375C417.738 618.375 418.039 618.375 418.64 618.375C418.941 618.375 419.242 618.375 419.542 618.375C419.843 618.375 419.843 618.375 420.144 618.375C420.745 618.375 421.347 618.375 421.948 618.375C422.249 618.375 422.55 618.375 422.851 618.375C423.151 618.375 423.151 618.375 423.452 618.375C424.053 618.375 424.956 618.375 425.557 618.375C425.858 618.375 426.159 618.375 426.459 618.375H426.76C427.963 618.375 429.166 618.075 430.369 617.774C430.369 617.774 430.369 617.774 430.669 617.774C430.97 617.774 431.271 617.474 431.872 617.474C432.474 617.474 433.075 617.173 433.376 617.173C433.677 617.173 434.278 616.873 434.579 616.873C435.18 616.873 435.782 616.572 436.083 616.271H436.383C436.684 616.271 436.684 616.271 436.985 615.971C437.887 615.67 438.488 615.37 439.391 615.069C439.09 615.37 439.391 615.37 439.691 615.069Z" fill="url(#paint8_linear_862_34750)"/>
<path d="M524.496 161.206C524.496 161.206 524.195 161.206 524.496 161.206C524.496 161.507 524.496 161.507 524.195 161.807V162.108C524.195 162.108 524.195 162.408 523.895 162.408L523.594 162.709C523.594 162.709 523.594 163.009 523.293 163.009C522.992 163.31 522.992 163.611 522.692 163.911C522.692 163.911 522.391 163.911 522.391 164.212C522.09 164.512 522.09 164.512 521.789 164.813C521.789 164.813 521.489 164.813 521.489 165.113C521.188 165.113 521.188 165.414 520.887 165.414L520.587 165.715L518.782 166.616C518.181 166.917 517.88 167.217 517.278 167.518C516.978 167.518 516.978 167.518 516.677 167.819C516.376 167.819 516.076 168.119 515.474 168.119C515.173 168.119 515.173 168.119 514.873 168.119C514.271 168.42 513.971 168.42 513.369 168.42C513.068 168.42 513.068 168.42 512.768 168.42H512.467C512.166 168.42 511.565 168.42 511.264 168.42C510.963 168.42 510.362 168.42 510.061 168.42C509.159 168.42 508.557 168.119 507.956 167.819L507.054 511.373C507.054 521.592 499.536 525.8 490.814 520.69C490.814 521.592 491.115 522.193 491.717 522.494C492.017 522.794 492.318 522.794 492.619 523.095C492.619 523.095 492.619 523.095 492.92 523.095C493.22 523.396 493.521 523.396 493.822 523.696C494.423 523.997 495.025 524.297 495.626 524.297L497.13 524.898C497.43 524.898 497.731 524.898 498.032 525.199C498.333 525.199 498.934 525.5 499.235 525.5H499.536H500.137C500.438 525.5 500.438 525.5 500.738 525.5H501.039C501.34 525.5 501.34 525.5 501.641 525.5C501.941 525.5 502.242 525.5 502.242 525.5H502.543H502.844C503.144 525.5 504.347 525.5 505.55 525.199H505.851C506.152 525.199 506.152 525.199 506.452 525.199H506.753H507.054H507.354C507.655 525.199 507.956 525.199 507.956 524.898L509.159 524.598C509.159 524.598 509.159 524.598 509.46 524.598C509.46 524.598 509.76 524.598 509.76 524.297C510.061 524.297 510.061 523.997 510.362 523.997L510.662 523.696L511.264 523.396L511.565 523.095C511.865 522.794 512.166 522.794 512.467 522.494L514.271 521.592C514.572 521.292 515.173 520.991 515.474 520.991L515.775 520.69L516.076 520.39C516.376 520.39 516.376 520.089 516.677 519.789C516.677 519.789 516.677 519.789 516.978 519.488C516.978 519.488 516.978 519.488 517.278 519.188L517.88 518.586C518.181 518.286 518.181 518.286 518.481 517.985L518.782 517.685L519.083 517.384L519.384 517.084C519.684 516.783 519.985 516.482 520.286 516.182L520.887 515.28V514.98V514.679C521.188 514.078 521.489 513.176 521.789 512.575C522.09 512.274 522.09 511.974 522.09 511.673C522.391 511.072 522.391 510.471 522.391 510.17C522.391 509.87 522.692 509.269 522.692 508.968V508.668C522.692 508.066 522.692 507.766 522.692 507.165C522.692 507.165 522.692 507.165 522.692 506.864C522.692 506.564 522.692 505.962 522.692 505.361C522.692 493.94 522.692 482.518 522.692 471.096C522.692 459.674 522.692 448.253 522.692 437.131V436.831V436.53C522.692 425.108 522.692 413.687 522.692 402.566C522.692 391.144 522.692 379.722 522.692 368.3V334.035C522.692 295.862 522.992 257.69 522.992 219.517V213.806V205.09C522.992 190.662 522.992 176.535 522.992 162.108C524.496 160.905 524.496 160.905 524.496 161.206Z" fill="url(#paint9_linear_862_34750)"/>
<path d="M492.018 138.963C436.083 106.802 380.147 74.3404 324.212 42.1792C315.19 37.0694 307.973 41.2774 307.973 51.4969C307.672 166.316 307.371 280.834 307.07 395.652C307.07 405.872 314.288 418.796 323.31 423.906C379.245 456.067 435.18 488.529 491.116 520.69C500.138 525.8 507.355 521.592 507.656 511.372C507.957 396.554 508.257 282.036 508.558 167.217C508.558 156.697 501.04 144.073 492.018 138.963Z" fill="#EDF3FF"/>
<path d="M429.466 109.204L384.056 83.0545C383.154 82.4533 382.553 83.0545 382.553 83.9562C382.553 84.8579 383.154 86.0602 384.056 86.6613L429.466 112.811C430.368 113.412 430.97 112.811 430.97 111.909C430.97 110.707 430.368 109.805 429.466 109.204Z" fill="url(#paint10_linear_862_34750)"/>
<path d="M323.31 423.906L490.815 520.691C490.815 521.592 491.116 522.193 491.717 522.494L483.297 517.685L474.876 512.876L466.456 508.066L458.036 503.257L449.615 498.448L441.195 493.639L432.775 488.83L424.354 484.021L415.934 479.212L407.513 474.402L399.093 469.593L390.673 464.784L382.252 459.975L373.832 455.166L365.411 450.357L356.991 445.547L348.571 440.738L340.15 435.929L331.73 431.12L323.31 426.311C323.61 425.409 323.31 424.808 323.31 423.906Z" fill="#C5D9EF"/>
<path d="M323.31 423.908C314.288 418.798 307.07 406.174 307.07 395.654L307.972 52.1003C307.07 51.7997 306.769 50.898 306.769 50.2969V67.4295V84.5621C306.769 95.9839 306.769 107.406 306.769 118.827C306.769 130.249 306.769 141.671 306.769 153.093V187.358C306.769 205.693 306.769 224.028 306.469 242.363V256.189V273.321V279.032C306.469 285.044 306.469 291.055 306.469 297.067V307.587V324.719C306.469 336.141 306.469 347.563 306.469 358.985V376.117V393.25C306.469 393.851 306.469 394.753 306.469 395.654C306.469 395.955 306.469 396.556 306.469 396.857C306.469 397.157 306.469 397.157 306.469 397.458C307.07 401.065 307.972 404.07 309.175 406.776C310.378 409.481 311.882 412.186 313.686 414.59C313.987 415.192 314.288 415.492 314.588 415.793C315.791 417.296 316.694 418.197 316.994 418.798C318.799 420.602 319.701 421.203 321.204 422.706C322.107 423.307 322.708 423.908 324.212 424.81C323.61 425.411 323.31 424.81 323.31 423.908Z" fill="#DDEDFF"/>
<path d="M422.851 80.9525L422.249 80.652L421.347 80.3514C415.934 77.3457 410.821 74.34 405.408 71.0337C394.281 64.7216 383.155 58.1091 372.028 51.797C360.901 45.485 349.774 38.8724 338.647 32.5604C338.346 32.2598 337.745 31.9593 336.842 31.6587H336.542H336.241C335.639 31.3581 335.038 31.0575 334.437 31.0575C334.136 31.0575 333.835 30.757 333.835 30.757C333.534 30.757 333.234 30.757 333.234 30.4564C332.933 30.4564 332.933 30.4564 332.632 30.1558H332.331C332.031 30.1558 331.73 30.1558 331.429 29.8553C331.429 29.8553 331.429 29.8553 331.129 29.8553C330.527 29.8553 329.926 29.8553 329.625 29.5547C329.625 29.5547 329.625 29.5547 329.324 29.5547H328.723H328.422C328.121 29.5547 328.121 29.5547 327.821 29.5547C327.219 29.5547 326.618 29.5547 325.715 29.8553H325.415H325.114C324.813 29.8553 324.813 29.8553 324.513 29.8553C324.212 29.8553 324.212 29.8553 323.911 29.8553L322.708 30.1558C322.407 30.1558 322.107 30.4564 321.806 30.4564H321.505C321.205 30.4564 321.205 30.757 320.904 30.757L320.302 31.0575C319.701 31.3581 319.701 31.3581 319.099 31.6587C318.799 31.9593 318.498 31.9593 318.197 32.2598C317.596 32.5604 316.994 32.861 316.393 33.1616H316.092L315.19 33.7627L314.889 34.0633C314.589 34.0633 314.589 34.3638 314.288 34.3638L313.386 35.2656C313.085 35.5661 312.784 35.8667 312.483 36.1673L312.183 36.4678L311.882 36.7684C311.882 37.069 311.581 37.069 311.281 37.3696L310.98 37.6701L310.679 37.9707L310.078 38.8724C309.777 39.173 309.476 39.7741 309.175 40.3753C308.875 40.6759 308.875 40.9764 308.574 41.277C308.273 41.8781 307.972 42.7799 307.672 43.381C307.371 43.9822 307.371 44.5833 307.371 44.5833C307.371 45.485 307.07 46.6873 307.07 47.2885C307.07 47.589 307.07 47.8896 307.07 48.1902C307.07 48.4907 307.07 48.4907 307.07 48.7913C307.07 49.3925 307.07 49.9936 307.07 50.2942C307.07 50.8953 307.371 51.4965 308.273 52.0976C308.273 41.8781 315.791 37.6701 324.513 42.7799C324.513 43.381 324.513 44.2827 324.513 44.2827L492.018 141.067C492.018 140.766 492.018 138.963 492.018 138.662C492.018 138.362 492.319 138.061 492.319 137.46C492.62 137.16 492.62 136.859 492.92 136.258C493.221 135.957 493.522 135.657 493.822 135.056C493.822 135.056 493.822 135.056 493.822 134.755C494.123 134.454 494.424 134.154 494.424 133.853L494.725 133.553L495.025 133.252C495.326 132.952 495.928 132.35 496.228 132.05L496.529 131.749C497.13 131.449 497.732 130.848 498.333 130.547L500.138 129.645C500.438 129.345 500.739 129.345 501.04 129.044H501.341C501.641 129.044 501.641 128.744 501.942 128.744C502.243 128.744 502.544 128.443 502.844 128.443H503.145H503.446C503.746 128.443 503.746 128.443 504.047 128.443C504.348 128.443 504.348 128.443 504.649 128.443C504.949 128.443 504.949 128.443 505.25 128.443C505.551 128.443 505.551 128.443 505.852 128.744C478.485 112.813 450.518 96.8829 422.851 80.9525Z" fill="url(#paint11_linear_862_34750)"/>
<path d="M524.496 162.105C524.496 161.805 524.496 160.302 524.496 160.302C524.496 161.805 524.496 159.701 524.496 159.4C524.496 159.099 524.496 158.498 524.496 158.198C524.496 157.296 524.196 156.394 524.196 155.492C524.196 156.094 524.196 155.192 524.196 154.891C524.196 154.29 523.895 153.689 523.895 153.388C523.594 152.186 523.293 150.984 522.692 149.782C521.79 146.776 519.985 143.77 518.482 140.764C516.978 138.36 515.174 135.955 513.069 133.851C512.167 132.95 511.264 132.348 510.362 131.447C509.761 130.846 509.159 130.545 508.558 129.944C508.257 129.643 505.851 128.14 507.054 128.742C506.753 128.742 506.753 128.441 506.453 128.441C506.453 128.441 505.851 128.14 505.55 127.84C505.55 127.84 505.55 128.14 505.25 128.14C504.949 128.14 504.348 128.14 504.047 128.14C502.844 127.84 500.137 129.643 499.235 130.244C497.431 131.447 495.326 132.95 494.123 134.753C493.521 135.655 492.92 136.556 492.619 137.759C492.318 138.36 490.514 138.66 491.416 138.961C495.326 141.366 499.837 144.972 502.242 148.579C504.648 152.186 506.753 156.394 507.656 160.602C508.257 162.706 508.558 166.313 508.558 168.417C508.558 169.018 508.859 168.417 509.46 168.718C513.069 169.319 516.377 168.417 519.685 166.614C521.188 166.013 524.496 164.51 524.496 162.105Z" fill="url(#paint12_linear_862_34750)"/>
<path d="M317.294 60.8125C313.986 60.8125 313.685 64.4194 313.685 65.9222L312.783 399.557C312.783 405.268 316.993 412.783 322.106 415.488L492.017 513.474C493.22 514.075 494.423 514.677 495.626 514.677C498.934 514.677 499.235 511.07 499.235 509.567L500.137 175.932C500.137 170.221 495.927 162.706 490.814 160.001L320.903 62.0148C319.399 61.1131 318.196 60.8125 317.294 60.8125Z" fill="url(#paint13_linear_862_34750)"/>
<path d="M413.829 341.845L359.397 310.585C357.593 309.684 356.39 310.285 356.39 312.389C356.39 314.192 357.893 316.597 359.397 317.799L413.829 349.059C415.633 349.96 416.836 349.359 416.836 347.255C416.836 345.151 415.332 342.747 413.829 341.845Z" fill="white"/>
<path d="M373.531 405.264L327.519 379.415C326.918 379.114 326.316 379.415 326.316 380.016C326.316 380.918 326.918 381.819 327.519 382.12L373.531 407.969C374.132 408.27 374.734 407.969 374.734 407.368C374.734 406.767 374.132 405.865 373.531 405.264Z" fill="white"/>
<path d="M373.531 397.752L327.519 371.903C326.918 371.603 326.316 371.903 326.316 372.504C326.316 373.406 326.918 374.308 327.519 374.608L373.531 400.457C374.132 400.758 374.734 400.457 374.734 399.856C374.734 399.255 374.132 398.353 373.531 397.752Z" fill="white"/>
<path d="M373.531 390.428L327.519 364.579C326.918 364.278 326.316 364.579 326.316 365.18C326.316 366.082 326.918 366.983 327.519 367.284L373.531 393.133C374.132 393.434 374.734 393.133 374.734 392.532C374.734 391.931 374.132 391.029 373.531 390.428Z" fill="white"/>
<path d="M396.687 347.852L359.397 326.511C357.593 325.61 356.39 326.211 356.39 328.315C356.39 330.118 357.893 332.523 359.397 333.725L396.687 355.066C398.492 355.967 399.695 355.366 399.695 353.262C399.695 351.158 398.492 348.754 396.687 347.852Z" fill="white"/>
<path d="M437.471 346.162C437.353 345.518 436.958 344.959 436.39 344.635L434.581 343.602C433.91 343.219 433.076 343.703 433.076 344.476C433.076 345.21 432.312 345.699 431.613 345.474C428.247 344.391 425.257 345.149 425.257 349.355C425.257 355.667 430.068 359.574 434.88 362.881C437.887 364.985 440.895 367.69 440.895 370.094C440.895 373.1 438.188 372.799 435.181 370.996C432.824 369.687 430.239 367.011 429.014 364.356C428.697 363.667 428.066 363.143 427.309 363.085C426.027 362.986 425.053 364.202 425.581 365.374C427.093 368.734 429.469 371.574 431.981 373.581C432.825 374.256 433.376 375.252 433.376 376.333V376.988C433.376 377.743 433.781 378.441 434.437 378.816L435.837 379.615C436.616 380.06 437.587 379.497 437.587 378.599C437.587 377.73 438.509 377.162 439.341 377.415C442.822 378.473 445.706 377.188 445.706 372.799C445.706 365.886 440.594 361.979 435.481 358.372C432.775 356.268 430.068 354.465 430.068 351.759C430.068 349.054 432.775 349.655 435.481 351.158C437.554 352.194 439.627 354.568 440.738 356.551C441.047 357.103 441.589 357.503 442.22 357.556C443.443 357.657 444.364 356.473 443.818 355.374C442.544 352.81 440.841 350.939 439.061 349.41C438.321 348.774 437.791 347.923 437.616 346.963L437.471 346.162Z" fill="white"/>
<path fill-rule="evenodd" clip-rule="evenodd" d="M467.056 430.515L476.078 435.624C476.764 435.853 477.102 436.429 477.49 437.088C477.612 437.296 477.738 437.512 477.882 437.728C477.882 438.329 477.281 438.63 476.68 438.33L468.259 433.52L461.944 438.931L466.154 441.335C467.658 442.538 468.56 444.341 467.958 445.844L464.049 455.162C463.448 456.664 461.643 456.965 459.839 456.063L439.69 444.341C437.886 443.439 436.081 440.734 435.48 438.63L431.57 424.804C430.969 422.7 431.871 421.798 433.675 422.7L458.636 437.127V436.827L466.154 430.515C466.455 430.214 466.756 430.214 467.056 430.515ZM440.291 446.745C437.885 445.242 435.78 446.444 435.78 449.149C435.78 451.854 437.885 455.461 440.291 456.664C442.697 458.166 444.802 456.964 444.802 454.259C444.501 451.554 442.697 448.247 440.291 446.745ZM459.238 457.867C456.832 456.364 454.727 457.567 454.727 460.272C454.727 462.977 456.832 466.584 459.238 467.786C461.643 469.289 463.749 468.087 463.749 465.381C463.749 462.676 461.643 459.37 459.238 457.867Z" fill="white"/>
<path d="M430.97 180.437C429.165 179.535 427.962 180.437 427.662 183.142C427.662 183.142 426.459 195.466 403.904 182.24C381.349 169.316 380.147 155.489 380.147 155.489C379.846 152.183 378.643 149.779 376.839 148.877C375.936 148.276 374.734 148.276 373.531 148.576L343.157 158.796C339.849 159.998 340.15 164.507 343.458 169.015L354.585 183.743C356.389 186.148 358.494 187.951 360.9 189.454C363.005 190.656 365.411 191.558 366.915 191.258L370.223 190.656C371.425 190.656 372.328 190.656 373.23 191.258C375.335 192.46 376.538 195.165 376.538 198.471L376.237 265.799C376.237 270.609 379.545 276.32 383.755 278.724L396.085 285.637C400.295 288.042 403.603 289.845 403.603 289.845C403.603 289.845 406.911 291.949 411.122 294.053L423.451 300.966C427.662 303.371 430.97 301.267 430.97 296.758L431.27 229.43C431.27 226.124 432.774 225.222 434.578 226.124C435.481 226.725 436.383 227.627 437.586 228.829L443.299 236.343C444.803 238.447 446.908 239.95 448.713 241.153C451.118 242.655 453.524 243.257 455.329 242.655L464.651 239.65C467.959 238.447 467.959 233.939 464.651 229.13L434.578 184.044C433.075 181.94 431.872 181.038 430.97 180.437Z" fill="#2595FF"/>
<path d="M366.614 215.605C364.81 214.703 363.607 215.605 363.306 218.31C363.306 218.31 362.103 230.634 339.549 217.408C316.994 204.484 315.791 190.657 315.791 190.657C315.49 187.351 314.288 184.947 312.483 184.045C311.581 183.444 310.378 183.444 309.175 183.744L278.802 193.964C275.494 195.166 275.794 199.675 279.102 204.183L290.229 218.911C292.034 221.316 294.139 223.119 296.545 224.622C298.65 225.824 301.055 226.726 302.559 226.426L305.867 225.824C307.07 225.824 307.972 225.824 308.874 226.426C310.979 227.628 312.182 230.333 312.182 233.639L311.882 300.967C311.882 305.777 315.19 311.488 319.4 313.892L331.73 320.805C335.94 323.21 339.248 325.013 339.248 325.013C339.248 325.013 342.556 327.117 346.766 329.221L359.096 336.134C363.306 338.539 366.614 336.435 366.614 331.926L366.915 264.598C366.915 261.292 368.419 260.39 370.223 261.292C371.125 261.893 372.027 262.795 373.23 263.997L378.944 271.511C380.448 273.615 382.553 275.118 384.357 276.321C386.763 277.823 389.169 278.425 390.973 277.823L400.296 274.818C403.604 273.615 403.604 269.107 400.296 264.298L370.223 219.212C368.719 217.108 367.817 216.206 366.614 215.605Z" fill="#2595FF" fill-opacity="0.82"/>
<path d="M302.558 250.773C300.754 249.871 299.551 250.773 299.25 253.478C299.25 253.478 298.048 265.802 275.493 252.576C252.938 239.652 251.735 225.825 251.735 225.825C251.435 222.519 250.232 220.115 248.427 219.213C247.525 218.612 246.322 218.612 245.119 218.912L214.746 229.132C211.438 230.334 211.739 234.843 215.047 239.351L226.174 254.079C227.978 256.484 230.384 258.287 232.489 259.79C234.594 260.992 237 261.894 238.503 261.594L241.811 260.992C243.014 260.992 243.917 260.992 244.819 261.594C246.924 262.796 248.127 265.501 248.127 268.807V335.835C248.127 340.644 251.435 346.355 255.645 348.76L267.975 355.673C272.185 358.077 275.493 359.881 275.493 359.881C275.493 359.881 278.801 361.985 283.011 364.089L295.341 371.002C299.551 373.406 302.859 371.302 302.859 366.794L303.16 299.466C303.16 296.159 304.664 295.258 306.468 296.159C307.37 296.761 308.272 297.662 309.475 298.864L315.189 306.379C316.693 308.483 318.798 309.986 320.602 311.188C323.008 312.691 325.414 313.292 327.218 312.691L336.541 309.685C339.849 308.483 339.849 303.974 336.541 299.165L306.468 254.079C304.664 252.576 303.461 251.374 302.558 250.773Z" fill="#48ACED" fill-opacity="0.84"/>
<path d="M238.204 285.937C236.4 285.035 235.197 285.937 234.896 288.642C234.896 288.642 233.693 300.966 211.138 287.74C188.584 274.816 187.381 260.989 187.381 260.989C187.08 257.683 185.877 255.279 184.073 254.377C183.171 253.776 181.968 253.776 180.765 254.076L150.391 264.296C147.083 265.498 147.384 270.007 150.692 274.515L161.819 289.243C163.623 291.648 166.029 293.451 168.134 294.954C170.239 296.156 172.645 297.058 174.149 296.758L177.457 296.156C178.66 296.156 179.562 296.156 180.464 296.758C182.569 297.96 183.772 300.665 183.772 303.971V370.999C183.772 375.808 187.08 381.519 191.29 383.924L203.62 390.837C207.83 393.241 211.138 395.045 211.138 395.045C211.138 395.045 214.446 397.149 218.657 399.253L230.987 406.166C235.197 408.57 238.505 406.466 238.505 401.958L238.805 334.63C238.805 331.323 240.309 330.422 242.113 331.323C243.016 331.925 243.918 332.826 245.121 334.029L250.835 341.543C252.338 343.647 254.443 345.15 256.248 346.352C258.653 347.855 261.059 348.456 262.864 347.855L272.186 344.849C275.494 343.647 275.494 339.138 272.186 334.329L242.113 289.243C240.309 287.74 239.407 286.538 238.204 285.937Z" fill="#4AC3ED" fill-opacity="0.74"/>
<path d="M174.148 321.105C172.344 320.203 171.141 321.105 170.84 323.81C170.84 323.81 169.637 336.134 147.083 322.908C124.528 309.984 123.325 296.157 123.325 296.157C123.025 292.851 121.822 290.447 120.017 289.545C119.115 288.944 117.912 288.944 116.709 289.244L86.3358 299.764C83.0277 300.967 83.3285 305.475 86.6365 309.984L97.7634 324.712C99.5678 327.116 101.974 328.92 104.079 330.423C106.184 331.625 108.59 332.527 110.093 332.226L113.401 331.625C114.604 331.625 115.506 331.625 116.409 332.226C118.514 333.428 119.717 336.134 119.717 339.44L119.416 406.768C119.416 411.577 122.724 417.288 126.934 419.693L139.264 426.606C143.474 429.01 146.782 430.814 146.782 430.814C146.782 430.814 150.09 432.918 154.3 435.022L166.63 441.935C170.84 444.34 174.148 442.236 174.148 437.727L174.449 370.399C174.449 367.093 175.953 366.191 177.757 367.093C178.659 367.694 179.561 368.595 180.764 369.798L186.478 377.312C187.982 379.416 190.087 380.919 191.891 382.121C194.297 383.624 196.703 384.225 198.507 383.624L207.83 380.618C211.138 379.416 211.138 374.907 207.83 370.098L177.757 325.012C176.253 322.908 175.051 321.706 174.148 321.105Z" fill="#4CD9ED" fill-opacity="0.44"/>
<path d="M426.159 310.885C423.452 310.885 421.046 310.284 418.34 308.781L405.709 301.567C402.401 299.764 400.296 298.562 399.093 297.66C397.89 297.059 395.785 295.856 391.575 293.452L379.245 286.238C372.328 282.331 367.216 273.314 367.517 265.799L367.817 200.274C367.517 200.274 366.915 200.274 366.615 200.274C362.404 200.274 358.495 198.471 356.69 197.269C353.382 195.165 350.074 192.46 347.669 189.153L336.542 174.425C332.632 169.015 331.129 163.304 332.632 158.194C333.835 154.287 336.542 151.582 340.451 150.079L370.825 139.859C374.133 138.657 378.042 138.958 381.35 141.062C385.56 143.466 388.568 148.576 389.169 154.588C389.47 155.489 391.876 164.807 408.416 174.425C414.13 177.732 417.738 178.934 419.543 179.234C421.347 173.524 425.858 171.119 430.068 171.119C432.173 171.119 433.978 171.72 435.782 172.622C437.887 173.824 439.992 175.928 441.797 178.633L471.869 223.719C475.478 229.129 476.681 235.141 474.877 239.95C473.674 243.557 470.666 246.563 467.058 247.765L457.735 250.771C453.525 252.273 448.412 251.372 443.601 248.667C442.097 247.765 440.894 246.863 439.391 245.661V296.458C439.391 304.874 433.978 310.885 426.159 310.885ZM368.72 198.471V199.072L368.419 265.198C368.419 272.712 373.231 280.828 379.546 284.735L391.876 291.949C396.086 294.354 398.191 295.556 399.394 296.157C400.897 297.059 403.003 298.261 406.01 300.064L418.64 307.278C421.046 308.48 423.452 309.382 425.858 309.382C432.775 309.382 437.586 303.972 437.586 296.458V242.956L438.789 243.857C440.293 245.36 441.796 246.563 443.601 247.464C448.112 250.169 452.623 250.771 456.532 249.568L465.855 246.563C469.163 245.36 471.869 242.956 472.771 239.649C474.275 235.141 473.373 229.731 469.764 224.32L439.691 179.234C437.887 176.529 436.083 174.726 433.978 173.524C432.173 172.622 430.67 172.021 428.865 172.021C425.256 172.021 420.746 174.425 419.543 179.836V180.437H418.941C416.836 180.136 413.227 179.234 406.912 175.628C389.771 165.709 387.064 156.09 387.064 154.888C386.463 149.177 383.756 144.669 379.847 142.264C376.839 140.761 373.531 140.16 370.223 141.362L339.85 151.582C336.542 152.784 333.835 155.189 332.933 158.796C331.429 163.304 332.933 168.714 336.542 173.824L347.669 188.552C350.074 191.558 353.082 194.263 356.39 196.367C358.194 197.269 361.803 199.072 365.712 199.072C366.314 199.072 366.915 199.072 367.517 199.072L368.72 198.471Z" fill="white"/>
<path d="M426.159 306.677C424.355 306.677 422.25 306.076 420.445 305.174L408.115 297.96C404.807 296.157 402.702 294.654 401.199 293.752C399.996 293.151 398.191 292.249 393.38 289.544L381.05 282.631C375.637 279.325 371.126 272.111 371.126 265.799L371.427 198.471C371.427 196.667 370.825 195.765 370.524 195.465L367.216 195.765C363.608 196.367 359.698 194.563 357.894 193.361C354.887 191.557 352.18 189.153 350.075 186.448L338.948 171.72C335.64 167.512 334.738 163.003 335.64 159.396C336.542 156.992 338.347 154.888 340.752 153.986L371.126 143.766C373.532 142.865 376.238 143.165 378.343 144.368C381.651 146.171 383.757 150.079 384.057 154.888C384.057 154.888 385.862 166.61 405.409 177.731C413.228 182.24 417.438 183.141 419.844 183.141C420.746 183.141 421.949 182.841 422.25 181.939C422.851 176.829 426.159 174.725 429.166 174.725C430.369 174.725 431.572 175.026 432.775 175.928C434.58 176.829 436.083 178.633 437.587 180.737L467.66 225.823C470.667 230.331 471.569 234.84 470.366 238.447C469.464 240.851 467.66 242.655 465.254 243.556L455.931 246.562C452.924 247.464 449.014 246.863 445.406 244.759C442.699 243.256 440.594 241.152 438.489 238.747L434.88 234.239L435.181 296.758C435.181 302.469 431.572 306.677 426.159 306.677ZM370.825 193.962C371.126 193.962 371.126 193.962 371.427 193.962C372.329 194.263 372.93 195.765 372.93 197.869L372.63 265.198C372.63 271.209 376.539 278.122 381.651 281.128L393.981 288.041C398.492 290.746 400.597 291.949 401.8 292.249C403.304 293.151 405.409 294.353 408.717 296.457L421.047 303.671C422.851 304.573 424.355 305.174 426.159 305.174C430.67 305.174 433.677 301.567 433.677 296.457L433.978 230.932L439.692 238.447C441.496 240.851 443.601 242.655 446.007 244.158C449.315 246.262 452.924 246.863 455.63 245.961L464.953 242.955C467.058 242.354 468.562 240.851 469.464 238.447C470.667 235.14 469.765 230.932 467.058 227.025L436.985 181.939C435.482 179.835 433.978 178.332 432.775 177.431C431.873 176.829 430.67 176.529 429.768 176.529C427.362 176.529 424.655 178.032 424.054 182.841C423.753 183.743 423.152 184.945 420.445 184.945C418.039 184.945 413.529 184.043 405.409 179.535C385.26 167.812 383.456 155.789 383.456 155.789C383.155 151.581 381.05 147.975 378.343 146.472C376.539 145.269 374.133 145.269 372.329 145.87L341.955 155.489C339.85 156.09 338.347 157.893 337.745 159.997C336.843 163.304 337.745 167.211 340.752 171.119L351.879 185.847C353.984 188.552 356.39 190.656 359.398 192.459C360.901 193.361 364.51 195.164 367.818 194.563L370.825 193.962Z" fill="white"/>
<path d="M765.565 439.558C769.756 441.952 769.756 445.844 765.565 448.238C744.013 460.81 722.611 473.232 701.059 485.804C696.868 488.199 690.133 488.199 686.092 485.804C664.391 473.382 642.839 460.81 621.137 448.238C616.946 445.844 616.946 441.952 621.137 439.558C642.689 427.135 664.241 414.563 685.643 401.991C689.834 399.597 696.569 399.597 700.61 401.991C722.162 414.563 743.864 426.986 765.565 439.558Z" fill="url(#paint14_linear_862_34750)"/>
<g filter="url(#filter1_f_862_34750)">
<path d="M772 447.643C772 447.793 772 447.942 772 448.092C772 448.242 772 448.391 771.85 448.391C771.85 448.541 771.701 448.691 771.701 448.84C771.701 448.99 771.551 449.139 771.551 449.289C771.551 449.439 771.401 449.589 771.401 449.738C771.401 449.888 771.252 449.888 771.252 450.037C771.102 450.187 771.102 450.337 770.952 450.636C770.952 450.786 770.803 450.786 770.653 450.935C770.503 451.235 770.204 451.384 770.054 451.684C769.905 451.833 769.905 451.834 769.755 451.983C769.605 452.133 769.456 452.282 769.306 452.432C769.156 452.582 769.007 452.732 768.857 452.732C768.707 452.881 768.558 453.031 768.258 453.031C768.109 453.18 767.809 453.33 767.66 453.48C767.66 453.48 702.854 490.896 702.704 491.046C702.255 491.196 700.459 491.794 700.31 491.944C700.16 491.944 699.861 492.094 699.711 492.094C699.412 492.094 698.514 492.393 698.214 492.393C697.616 492.543 696.119 492.692 695.969 492.692C695.67 492.692 695.221 492.692 694.922 492.842C694.772 492.842 693.725 492.842 693.425 492.842C693.126 492.842 691.48 492.692 691.18 492.692C690.881 492.692 690.582 492.692 690.432 492.543C690.133 492.543 688.486 492.243 688.336 492.243C688.037 492.094 686.989 491.944 686.84 491.794C686.241 491.645 685.643 491.495 685.194 491.196C685.194 491.196 685.044 491.196 685.044 491.046C684.296 490.747 683.547 490.447 682.949 489.998L619.64 453.33C616.646 451.534 615 449.289 615 446.895C615 446.895 615 538.79 615 539.089V539.388C615 539.538 615 539.688 615 539.688C615 539.987 615.15 540.137 615.15 540.286C615.449 541.184 615.898 541.783 616.048 542.082C616.646 542.831 617.245 543.429 617.844 544.028C618.143 544.327 677.561 578.601 682.949 581.744C683.248 581.894 687.439 583.54 687.439 583.54C687.588 583.54 688.935 583.839 688.935 583.839C688.935 583.839 689.983 583.989 690.282 583.989H690.581C692.677 584.288 694.772 584.288 696.867 583.989C697.017 583.989 698.065 583.839 698.214 583.839C698.514 583.839 701.058 583.091 701.058 583.091C701.208 583.091 701.357 582.941 701.507 582.941H701.657C701.806 582.941 703.153 582.343 703.453 582.193C703.453 582.193 704.201 581.744 704.351 581.744L768.258 544.477C768.258 544.477 768.408 544.477 768.408 544.327C768.558 544.178 768.857 544.028 768.857 544.028C768.857 544.028 770.653 542.382 771.102 541.633V541.484V541.334C771.102 541.184 771.252 541.184 771.252 541.035C771.252 540.885 771.401 540.885 771.401 540.885V540.735C771.401 540.586 771.401 540.586 771.551 540.436C771.551 540.286 771.551 540.286 771.551 540.137C771.551 539.837 771.701 539.688 771.701 539.538V539.688V539.538C771.701 539.388 771.701 539.239 771.701 539.089V538.939V538.79V447.344C772 447.344 772 447.493 772 447.643Z" fill="#C0D8EF"/>
</g>
<path d="M754.189 440.156C757.632 442.251 757.781 445.394 754.189 447.49C736.08 457.966 717.97 468.593 699.861 479.069C696.418 481.165 690.731 481.165 687.139 479.069C668.88 468.593 650.62 457.966 632.361 447.49C628.919 445.394 628.919 442.251 632.361 440.156C650.471 429.679 668.58 419.053 686.69 408.576C690.132 406.631 695.82 406.631 699.262 408.576C717.671 419.203 735.93 429.679 754.189 440.156Z" fill="#FDFCFF"/>
<path d="M692.266 449.665L710.909 438.902C714.782 436.666 721.153 436.63 725.097 438.907L699.364 453.764L692.266 449.665Z" fill="url(#paint15_linear_862_34750)"/>
<path fill-rule="evenodd" clip-rule="evenodd" d="M699.757 453.536C707.24 449.215 707.232 442.237 699.739 437.911C692.246 433.585 680.16 433.58 672.677 437.901C665.193 442.222 665.201 449.199 672.694 453.526C680.187 457.852 692.273 457.856 699.757 453.536ZM692.461 449.323C695.874 447.353 695.871 444.167 692.453 442.194C689.035 440.22 683.452 440.18 680.038 442.151C676.625 444.122 676.628 447.308 680.046 449.281C683.464 451.254 689.047 451.294 692.461 449.323Z" fill="url(#paint16_radial_862_34750)"/>
<path d="M771.999 445.243C771.999 445.093 771.999 445.093 771.999 444.943C771.999 444.794 771.999 444.794 771.999 444.794V444.644V444.494C771.999 444.345 771.999 444.195 771.849 444.045C771.849 443.896 771.7 443.746 771.7 443.596C771.7 443.447 771.7 443.447 771.7 443.447C771.4 442.698 770.951 442.1 770.502 441.501C770.502 441.501 770.502 441.351 770.353 441.351L770.203 441.202C770.053 441.052 770.053 441.052 770.053 440.903C770.053 440.903 770.053 440.902 769.904 440.753C769.754 440.753 769.754 440.603 769.604 440.453L769.006 439.855C768.856 439.705 768.557 439.555 768.257 439.256C768.257 439.256 768.257 439.256 768.108 439.256C767.958 439.256 767.958 439.106 767.808 438.957C767.659 438.957 767.659 438.807 767.509 438.807C767.509 438.807 767.509 438.807 767.359 438.658H767.21L764.067 436.861L760.924 435.065L759.277 434.168C756.583 432.671 754.039 431.174 751.345 429.528L748.202 427.732L745.059 425.936L743.413 425.038C742.515 424.589 741.617 423.99 740.719 423.541L738.623 422.344L735.63 420.548L734.732 419.949L732.337 418.602L729.194 416.806L726.051 415.01L722.908 413.214L720.813 412.017L713.629 407.976L713.33 407.826L710.187 406.03L707.044 404.234L705.846 403.486L703.901 402.289C703.601 402.139 703.302 401.989 703.152 401.84L702.703 401.69C702.703 401.69 702.554 401.69 702.404 401.54L702.105 401.391C701.805 401.241 701.506 401.091 701.207 401.091H701.057H700.907L700.159 400.792C700.009 400.792 699.86 400.642 699.71 400.642H699.56C699.411 400.642 699.261 400.493 699.111 400.493L698.363 400.343H698.213H698.064H698.213H698.064C697.914 400.343 697.914 400.343 697.764 400.343C697.615 400.343 697.315 400.343 697.166 400.193H697.016H696.717C694.621 399.894 692.526 399.894 690.431 400.193C690.281 400.193 690.281 400.193 690.281 400.193H690.58H690.131L689.533 400.343C689.383 400.343 689.233 400.343 689.084 400.493C689.084 400.493 688.934 400.493 688.784 400.493C688.485 400.493 688.186 400.642 687.886 400.642C687.587 400.792 687.138 400.792 686.839 400.942H686.689C686.539 400.942 686.39 401.091 686.09 401.091C686.09 401.091 686.09 401.091 685.941 401.091H686.09H685.941H685.791L686.09 400.942H685.941H685.791L685.192 401.091H685.043L684.743 401.241C684.444 401.391 684.145 401.54 683.845 401.69H683.696C683.396 401.84 683.097 401.989 682.798 402.139L679.655 403.935L676.512 405.731L673.369 407.527L670.226 409.323L667.083 411.119L663.94 412.915L660.797 414.711L657.654 416.507L651.368 420.099L648.225 421.895L645.082 423.691L641.939 425.487L639.395 426.984C638.946 427.283 638.347 427.582 637.898 427.882L635.653 429.229L633.109 430.725C628.768 433.269 624.278 435.814 619.938 438.358C619.639 438.508 619.339 438.657 619.19 438.807L619.04 438.957C619.04 438.957 618.89 438.957 618.89 439.106L618.441 439.406C618.292 439.556 618.142 439.555 618.142 439.705C617.992 439.855 617.843 440.004 617.843 440.004L617.394 440.453V440.603C617.244 440.753 617.094 440.902 616.945 441.052C616.795 441.202 616.795 441.202 616.645 441.351C616.496 441.501 616.496 441.651 616.346 441.8V441.95C616.196 442.249 616.047 442.549 616.047 442.549L615.747 443.147V443.297C615.747 443.447 615.598 443.596 615.598 443.896V444.045C615.598 444.195 615.598 444.494 615.598 444.794C615.598 447.039 617.094 449.433 620.237 451.229L683.546 487.898C683.845 488.047 684.294 488.347 684.594 488.496C684.743 488.496 684.743 488.496 684.743 488.646C684.743 488.646 684.743 488.646 684.893 488.646C684.893 488.646 685.043 488.646 685.043 488.796H685.192C685.192 488.796 685.192 488.796 685.342 488.796H685.492H685.342C685.492 488.796 685.492 488.945 685.641 488.945C685.641 488.945 685.791 488.945 685.791 489.095H685.941H686.09C686.24 489.095 686.39 489.245 686.39 489.245H686.539H686.689C686.839 489.245 686.839 489.245 686.988 489.394H687.138C687.288 489.394 687.288 489.394 687.437 489.394C687.587 489.394 687.587 489.394 687.737 489.544C687.886 489.544 687.886 489.544 688.036 489.544C688.186 489.544 688.186 489.544 688.335 489.544C688.335 489.544 688.335 489.544 688.485 489.544C688.485 489.544 688.485 489.544 688.635 489.544H688.784C688.784 489.544 688.784 489.544 688.934 489.544H689.084C689.233 489.544 689.383 489.544 689.533 489.694H689.682C689.832 489.694 689.982 489.694 689.982 489.694C690.131 489.694 690.281 489.694 690.281 489.694C690.281 489.694 690.281 489.694 690.431 489.694H690.58C690.73 489.694 690.88 489.694 690.88 489.694C691.029 489.694 691.029 489.694 691.179 489.694C691.329 489.694 691.329 489.694 691.478 489.694C691.628 489.694 691.628 489.694 691.778 489.694C691.778 489.694 691.778 489.694 691.927 489.694C692.077 489.694 692.077 489.694 692.227 489.694H692.376C692.526 489.694 692.676 489.694 692.676 489.694C692.825 489.694 692.975 489.694 692.975 489.694H693.125C693.274 489.694 693.274 489.694 693.424 489.694C693.574 489.694 693.873 489.694 694.023 489.694H694.172H694.322H694.472H694.621C695.07 489.694 695.37 489.694 695.819 489.544H695.968H696.118H696.268H696.417C697.016 489.544 697.465 489.394 698.064 489.245C698.064 489.245 698.064 489.245 698.213 489.245C698.363 489.245 698.513 489.245 698.662 489.095C698.812 489.095 698.962 489.095 699.111 488.945C699.71 488.796 700.458 488.646 701.057 488.496C702.404 488.047 703.452 487.598 704.649 487L767.659 450.331C767.808 450.182 768.108 450.032 768.257 449.882C768.108 450.032 767.958 450.032 767.808 450.182C767.958 450.182 768.108 450.032 768.108 450.032C768.108 450.032 768.257 450.032 768.257 449.882C768.407 449.733 768.557 449.733 768.706 449.583C768.856 449.433 768.856 449.433 769.006 449.284L769.155 449.134C769.305 448.984 769.455 448.984 769.604 448.835C769.754 448.835 769.754 448.685 769.754 448.685L769.904 448.535L770.053 448.386C770.203 448.236 770.203 448.236 770.353 448.086C770.502 447.937 770.502 447.787 770.652 447.787C770.652 447.787 770.652 447.787 770.802 447.637L770.951 447.488C770.951 447.488 770.951 447.338 771.101 447.338C771.101 447.188 771.251 447.188 771.251 447.039C771.251 446.889 771.4 446.889 771.4 446.739V446.889C771.4 446.889 771.4 446.739 771.55 446.739C771.55 446.739 771.55 446.739 771.55 446.59C771.55 446.59 771.55 446.59 771.55 446.44C771.55 446.29 771.7 446.141 771.7 446.141V445.991V445.841C771.7 445.692 771.7 445.692 771.7 445.542V445.392C771.7 445.392 771.7 445.392 771.7 445.243C771.7 445.093 771.7 444.943 771.7 444.943V444.794C771.999 445.392 771.999 445.392 771.999 445.243C771.999 445.392 771.999 445.392 771.999 445.392C771.999 445.392 771.999 445.392 771.999 445.243ZM763.767 448.086L700.758 484.755C696.717 487.149 690.131 487.149 686.09 484.755C685.791 484.904 685.791 484.904 686.09 484.755L622.782 448.086C622.482 448.236 622.482 448.236 622.782 448.086C618.741 445.692 618.741 441.95 622.782 439.555L685.791 402.887C689.832 400.493 696.417 400.493 700.458 402.887L763.767 439.406C767.808 441.95 767.808 445.692 763.767 448.086C764.067 448.236 763.917 448.086 763.767 448.086Z" fill="#FDFCFF"/>
<path d="M772 445.838C772 445.988 772 446.137 772 446.287C772 446.437 772 446.587 771.85 446.587C771.85 446.736 771.701 446.886 771.701 447.035C771.701 447.185 771.551 447.335 771.551 447.485C771.551 447.634 771.401 447.784 771.401 447.933C771.401 448.083 771.252 448.083 771.252 448.233C771.102 448.383 771.102 448.532 770.952 448.832C770.952 448.981 770.803 448.981 770.653 449.131C770.503 449.43 770.204 449.58 770.054 449.879C769.905 450.029 769.905 450.029 769.755 450.178C769.605 450.328 769.456 450.478 769.306 450.628C769.156 450.777 769.007 450.927 768.857 450.927C768.707 451.076 768.558 451.226 768.258 451.226C768.109 451.376 767.809 451.525 767.66 451.675C767.66 451.675 702.854 489.092 702.704 489.241C702.255 489.391 700.459 489.99 700.31 490.139C700.16 490.139 699.861 490.289 699.711 490.289C699.412 490.289 698.514 490.588 698.214 490.588C697.616 490.738 696.119 490.888 695.969 490.888C695.67 490.888 695.221 490.888 694.922 491.037C694.772 491.037 693.725 491.037 693.425 491.037C693.126 491.037 691.48 490.888 691.18 490.888C690.881 490.888 690.582 490.888 690.432 490.738C690.133 490.738 688.486 490.439 688.336 490.439C688.037 490.289 686.989 490.139 686.84 489.99C686.241 489.84 685.643 489.69 685.194 489.391C685.194 489.391 685.044 489.391 685.044 489.241C684.296 488.942 683.547 488.643 682.949 488.194L619.64 451.525C616.646 449.729 615 447.485 615 445.09C615 445.09 615 536.985 615 537.284V537.584C615 537.733 615 537.883 615 537.883C615 538.033 615.15 538.332 615.15 538.482C615.449 539.38 615.898 539.978 616.048 540.278C616.646 541.026 617.245 541.625 617.844 542.223C618.143 542.523 677.561 576.796 682.949 579.939C683.248 580.089 687.439 581.735 687.439 581.735C687.588 581.735 688.935 582.035 688.935 582.035C688.935 582.035 689.983 582.184 690.282 582.334H690.581C692.677 582.633 694.772 582.633 696.867 582.334C697.017 582.334 698.065 582.184 698.214 582.184C698.514 582.184 701.058 581.436 701.058 581.436C701.208 581.436 701.357 581.286 701.507 581.286H701.657C701.806 581.286 703.153 580.688 703.453 580.538C703.453 580.538 704.201 580.089 704.351 580.089L768.258 542.822C768.258 542.822 768.408 542.822 768.408 542.672C768.558 542.523 768.857 542.373 768.857 542.373C768.857 542.373 770.653 540.727 771.102 539.978V539.829V539.679C771.102 539.529 771.252 539.529 771.252 539.38C771.252 539.23 771.401 539.23 771.401 539.23V539.08C771.401 538.931 771.401 538.931 771.551 538.781C771.551 538.631 771.551 538.631 771.551 538.482C771.551 538.182 771.701 538.033 771.701 537.883V538.033V537.883C771.701 537.733 771.701 537.584 771.701 537.434V537.284V537.135V445.688C772 445.539 772 445.689 772 445.838Z" fill="url(#paint17_linear_862_34750)"/>
<path d="M741.168 471.135C741.168 471.285 741.168 471.285 741.168 471.434V471.584C741.168 471.734 741.168 471.734 741.018 471.883C741.018 471.883 741.018 472.033 740.869 472.183C740.869 472.332 740.719 472.332 740.719 472.482L740.569 472.632C740.569 472.781 740.42 472.781 740.42 472.931L740.27 473.081C740.12 473.23 739.971 473.38 739.821 473.53L739.671 473.679C739.522 473.829 739.522 473.829 739.372 473.979C739.222 473.979 739.222 474.128 739.073 474.128C738.923 474.128 738.923 474.278 738.773 474.278C738.624 474.428 738.474 474.428 738.474 474.577L699.112 497.327C698.812 497.476 697.765 497.776 697.615 497.776C697.465 497.776 697.316 497.776 697.166 497.925C697.016 497.925 696.418 498.075 696.268 498.075C695.969 498.075 694.921 498.225 694.921 498.225C694.771 498.225 694.472 498.225 694.322 498.225C694.173 498.225 693.574 498.225 693.424 498.225C693.275 498.225 692.227 498.225 692.077 498.075C691.928 498.075 691.778 498.075 691.628 498.075C691.479 498.075 690.431 497.925 690.281 497.776C690.132 497.776 689.533 497.626 689.383 497.476C689.084 497.327 688.635 497.327 688.336 497.177H688.186C687.737 497.027 687.288 496.728 686.839 496.578L648.375 474.278C646.579 473.23 645.531 471.734 645.531 470.387C645.531 470.387 645.531 526.212 645.531 526.362V526.512V526.661C645.531 526.811 645.531 526.961 645.681 526.961C645.831 527.559 646.13 527.859 646.28 528.008C646.579 528.457 647.028 528.757 647.327 529.206C647.477 529.355 683.546 550.159 686.839 552.105C686.989 552.254 689.533 553.152 689.533 553.152C689.683 553.152 690.431 553.302 690.431 553.302C690.431 553.302 691.03 553.452 691.179 553.452H691.329C692.676 553.601 693.873 553.601 695.22 553.452L695.969 553.302C696.118 553.302 697.615 552.853 697.615 552.853C697.765 552.853 697.765 552.853 697.914 552.703H698.064C698.214 552.703 698.962 552.404 699.112 552.254C699.112 552.254 699.561 551.955 699.71 551.955L738.624 529.355C738.773 529.355 738.923 529.206 738.923 529.206C738.923 529.206 739.971 528.158 740.27 527.709C740.27 527.709 740.27 527.709 740.27 527.559V527.41C740.27 527.26 740.27 527.26 740.27 527.26V527.11V526.961C740.27 526.811 740.27 526.661 740.42 526.512V526.362C740.42 526.212 740.42 526.212 740.42 526.063C740.42 526.063 740.42 526.063 740.42 525.913V470.387C741.168 470.836 741.168 470.985 741.168 471.135Z" fill="url(#paint18_linear_862_34750)"/>
<path d="M718.868 498.075C718.868 498.075 694.921 512.892 694.772 512.892H694.622C694.472 512.892 694.173 513.042 694.173 513.042C694.023 513.042 693.125 513.192 692.976 513.192H691.778C691.629 513.192 691.629 513.192 691.479 513.192L690.282 512.892C690.132 512.892 689.683 512.743 689.683 512.743C689.384 512.593 666.186 498.824 666.186 497.926V528.757V528.907V529.056C666.186 529.206 666.186 529.206 666.186 529.206C666.335 529.505 666.485 529.655 666.485 529.805C666.635 530.104 666.934 530.254 667.084 530.403C667.233 530.553 686.989 541.928 688.935 542.975C689.085 542.975 690.432 543.574 690.432 543.574L690.88 543.724C690.88 543.724 691.18 543.724 691.329 543.724H691.479C692.227 543.873 692.826 543.873 693.574 543.724H694.023C694.173 543.724 694.921 543.424 694.921 543.424H695.071C695.071 543.424 695.52 543.275 695.67 543.125L695.969 542.975L717.371 530.553L717.521 530.403C717.521 530.403 718.12 529.805 718.269 529.505V529.356C718.269 529.356 718.269 529.356 718.269 529.206C718.269 529.056 718.269 529.056 718.269 529.056V528.907V498.225C718.868 498.075 718.868 498.075 718.868 498.075Z" fill="url(#paint19_linear_862_34750)"/>
<path d="M620.24 461.706C619.491 461.257 618.893 461.557 618.893 462.455C618.893 463.353 619.491 464.251 620.24 464.7C620.988 465.149 621.587 464.849 621.587 463.951C621.587 463.203 620.988 462.155 620.24 461.706Z" fill="#2595FF"/>
<path d="M630.566 467.695C629.817 467.246 629.219 467.545 629.219 468.443C629.219 469.341 629.817 470.239 630.566 470.688C631.314 471.137 631.913 470.838 631.913 469.94C631.913 469.191 631.314 468.144 630.566 467.695Z" fill="#2595FF"/>
<path d="M635.804 470.687C635.056 470.238 634.457 470.537 634.457 471.435C634.457 472.333 635.056 473.231 635.804 473.68C636.552 474.129 637.151 473.83 637.151 472.932C637.001 472.183 636.403 471.136 635.804 470.687Z" fill="#2595FF"/>
<path d="M620.24 467.097C619.491 466.648 618.893 466.947 618.893 467.845C618.893 468.743 619.491 469.641 620.24 470.09C620.988 470.539 621.587 470.24 621.587 469.342C621.587 468.444 620.988 467.546 620.24 467.097Z" fill="#2595FF"/>
<path d="M630.566 473.085C629.817 472.636 629.219 472.936 629.219 473.834C629.219 474.732 629.817 475.63 630.566 476.079C631.314 476.528 631.913 476.228 631.913 475.33C631.913 474.582 631.314 473.534 630.566 473.085Z" fill="#2595FF"/>
<path d="M635.654 476.074C634.905 475.625 634.307 476.074 634.307 476.822C634.307 477.72 634.905 478.618 635.654 479.067C636.402 479.516 637.001 479.217 637.001 478.319C637.001 477.421 636.402 476.523 635.654 476.074Z" fill="#2595FF"/>
<path d="M620.24 472.484C619.491 472.035 618.893 472.484 618.893 473.232C618.893 474.13 619.491 475.028 620.24 475.477C620.988 475.926 621.587 475.627 621.587 474.729C621.587 473.98 620.988 472.933 620.24 472.484Z" fill="#2595FF"/>
<path d="M630.566 478.468C629.817 478.019 629.219 478.318 629.219 479.216C629.219 480.114 629.817 481.012 630.566 481.461C631.314 481.91 631.913 481.611 631.913 480.713C631.913 479.815 631.314 478.917 630.566 478.468Z" fill="#2595FF"/>
<path d="M635.654 481.46C634.905 481.011 634.307 481.311 634.307 482.209C634.307 483.107 634.905 484.005 635.654 484.454C636.402 484.903 637.001 484.603 637.001 483.705C637.001 482.807 636.402 481.76 635.654 481.46Z" fill="#2595FF"/>
<path d="M620.24 477.87C619.491 477.421 618.893 477.721 618.893 478.619C618.893 479.517 619.491 480.415 620.24 480.864C620.988 481.313 621.587 481.013 621.587 480.115C621.587 479.367 620.988 478.319 620.24 477.87Z" fill="#2595FF"/>
<path d="M630.566 483.855C629.817 483.406 629.219 483.705 629.219 484.603C629.219 485.501 629.817 486.399 630.566 486.848C631.314 487.297 631.913 486.998 631.913 486.1C631.913 485.202 631.314 484.154 630.566 483.855Z" fill="#2595FF"/>
<path d="M635.654 486.851C634.905 486.402 634.307 486.701 634.307 487.599C634.307 488.497 634.905 489.395 635.654 489.844C636.402 490.293 637.001 489.994 637.001 489.096C637.001 488.198 636.402 487.15 635.654 486.851Z" fill="#2595FF"/>
<path d="M620.24 483.253C619.491 482.804 618.893 483.103 618.893 484.001C618.893 484.899 619.491 485.797 620.24 486.246C620.988 486.695 621.587 486.396 621.587 485.498C621.587 484.6 620.988 483.702 620.24 483.253Z" fill="#2595FF"/>
<path d="M630.566 489.097C629.817 488.648 629.219 488.947 629.219 489.845C629.219 490.743 629.817 491.641 630.566 492.09C631.314 492.539 631.913 492.24 631.913 491.342C631.913 490.594 631.314 489.546 630.566 489.097Z" fill="#2595FF"/>
<path d="M635.654 492.093C634.905 491.644 634.307 491.943 634.307 492.841C634.307 493.739 634.905 494.637 635.654 495.086C636.402 495.535 637.001 495.236 637.001 494.338C637.001 493.59 636.402 492.542 635.654 492.093Z" fill="#2595FF"/>
<path d="M620.24 488.644C619.491 488.195 618.893 488.494 618.893 489.392C618.893 490.29 619.491 491.188 620.24 491.637C620.988 492.086 621.587 491.787 621.587 490.889C621.587 489.991 620.988 488.943 620.24 488.644Z" fill="#2595FF"/>
<path d="M630.566 494.484C629.817 494.035 629.219 494.334 629.219 495.232C629.219 496.13 629.817 497.028 630.566 497.477C631.314 497.926 631.913 497.627 631.913 496.729C631.763 495.98 631.314 494.933 630.566 494.484Z" fill="#2595FF"/>
<path d="M635.654 497.476C634.905 497.027 634.307 497.476 634.307 498.224C634.307 499.122 634.905 500.02 635.654 500.469C636.402 500.918 637.001 500.619 637.001 499.721C637.001 498.973 636.402 497.925 635.654 497.476Z" fill="#2595FF"/>
<path d="M620.24 493.886C619.491 493.437 618.893 493.736 618.893 494.634C618.893 495.532 619.491 496.43 620.24 496.879C620.988 497.328 621.587 497.029 621.587 496.131C621.587 495.383 620.988 494.335 620.24 493.886Z" fill="#2595FF"/>
<path d="M630.566 499.87C629.817 499.421 629.219 499.721 629.219 500.619C629.219 501.517 629.817 502.415 630.566 502.864C631.314 503.313 631.913 503.013 631.913 502.115C631.763 501.367 631.164 500.319 630.566 499.87Z" fill="#2595FF"/>
<path d="M635.654 502.863C634.905 502.414 634.307 502.713 634.307 503.611C634.307 504.509 634.905 505.407 635.654 505.856C636.402 506.305 637.001 506.006 637.001 505.108C637.001 504.359 636.402 503.312 635.654 502.863Z" fill="#2595FF"/>
<path d="M620.24 499.273C619.491 498.824 618.893 499.273 618.893 500.021C618.893 500.919 619.491 501.817 620.24 502.266C620.988 502.715 621.587 502.416 621.587 501.518C621.437 500.77 620.838 499.722 620.24 499.273Z" fill="#2595FF"/>
<path d="M630.415 505.261C629.667 504.812 629.068 505.261 629.068 506.01C629.068 506.908 629.667 507.806 630.415 508.254C631.164 508.703 631.762 508.404 631.762 507.506C631.762 506.758 631.164 505.71 630.415 505.261Z" fill="#2595FF"/>
<path d="M635.654 508.253C634.905 507.804 634.307 508.103 634.307 509.001C634.307 509.899 634.905 510.797 635.654 511.246C636.402 511.695 637.001 511.396 637.001 510.498C637.001 509.75 636.402 508.702 635.654 508.253Z" fill="#2595FF"/>
<path d="M620.24 504.66C619.491 504.211 618.893 504.66 618.893 505.408C618.893 506.306 619.491 507.204 620.24 507.653C620.988 508.102 621.587 507.803 621.587 506.905C621.437 506.156 620.838 505.109 620.24 504.66Z" fill="#2595FF"/>
<path d="M630.415 510.644C629.667 510.195 629.068 510.494 629.068 511.392C629.068 512.29 629.667 513.188 630.415 513.637C631.164 514.086 631.762 513.787 631.762 512.889C631.762 512.14 631.164 511.093 630.415 510.644Z" fill="#2595FF"/>
<path d="M635.654 513.64C634.905 513.191 634.307 513.49 634.307 514.388C634.307 515.286 634.905 516.184 635.654 516.633C636.402 517.082 637.001 516.783 637.001 515.885C637.001 514.987 636.402 514.089 635.654 513.64Z" fill="#2595FF"/>
<path d="M620.089 510.046C619.341 509.597 618.742 509.896 618.742 510.794C618.742 511.692 619.341 512.59 620.089 513.039C620.838 513.488 621.436 513.189 621.436 512.291C621.436 511.543 620.838 510.495 620.089 510.046Z" fill="#2595FF"/>
<path d="M630.415 516.035C629.667 515.586 629.068 516.035 629.068 516.783C629.068 517.681 629.667 518.579 630.415 519.028C631.164 519.477 631.762 519.178 631.762 518.28C631.762 517.382 631.164 516.484 630.415 516.035Z" fill="#2595FF"/>
<path d="M635.654 519.031C634.905 518.582 634.307 518.881 634.307 519.779C634.307 520.677 634.905 521.575 635.654 522.024C636.402 522.473 637.001 522.173 637.001 521.275C636.851 520.377 636.402 519.33 635.654 519.031Z" fill="#2595FF"/>
<path d="M620.089 515.429C619.341 514.98 618.742 515.279 618.742 516.177C618.742 517.075 619.341 517.973 620.089 518.422C620.838 518.871 621.436 518.572 621.436 517.674C621.436 516.776 620.838 515.878 620.089 515.429Z" fill="#2595FF"/>
<path d="M630.415 521.421C629.667 520.972 629.068 521.271 629.068 522.169C629.068 523.067 629.667 523.965 630.415 524.414C631.164 524.863 631.762 524.564 631.762 523.666C631.762 522.768 631.164 521.72 630.415 521.421Z" fill="#2595FF"/>
<path d="M635.654 524.265C634.905 523.816 634.307 524.115 634.307 525.013C634.307 525.911 634.905 526.809 635.654 527.258C636.402 527.707 637.001 527.408 637.001 526.51C636.851 525.762 636.252 524.714 635.654 524.265Z" fill="#2595FF"/>
<path d="M620.089 520.827C619.341 520.378 618.742 520.678 618.742 521.576C618.742 522.474 619.341 523.372 620.089 523.821C620.838 524.27 621.436 523.821 621.436 523.072C621.436 522.174 620.838 521.276 620.089 520.827Z" fill="#2595FF"/>
<path d="M630.415 526.656C629.667 526.207 629.068 526.506 629.068 527.404C629.068 528.302 629.667 529.2 630.415 529.649C631.164 530.098 631.762 529.798 631.762 528.9C631.762 528.152 631.164 527.105 630.415 526.656Z" fill="#2595FF"/>
<path d="M635.505 529.652C634.757 529.203 634.158 529.502 634.158 530.4C634.158 531.298 634.757 532.196 635.505 532.645C636.254 533.094 636.852 532.795 636.852 531.897C636.852 531.148 636.254 530.101 635.505 529.652Z" fill="#2595FF"/>
<path d="M620.089 526.214C619.341 525.765 618.742 526.064 618.742 526.962C618.742 527.86 619.341 528.758 620.089 529.207C620.838 529.656 621.436 529.357 621.436 528.459C621.436 527.561 620.838 526.513 620.089 526.214Z" fill="#2595FF"/>
<path d="M630.415 532.046C629.667 531.597 629.068 531.896 629.068 532.794C629.068 533.692 629.667 534.59 630.415 535.039C631.164 535.488 631.762 535.189 631.762 534.291C631.762 533.543 631.164 532.495 630.415 532.046Z" fill="#2595FF"/>
<path d="M635.505 535.042C634.757 534.593 634.158 534.893 634.158 535.791C634.158 536.689 634.757 537.587 635.505 538.036C636.254 538.485 636.852 538.185 636.852 537.287C636.852 536.539 636.254 535.491 635.505 535.042Z" fill="#2595FF"/>
<path d="M620.089 531.456C619.341 531.007 618.742 531.307 618.742 532.205C618.742 533.103 619.341 534.001 620.089 534.45C620.838 534.899 621.436 534.599 621.436 533.701C621.436 532.953 620.838 531.905 620.089 531.456Z" fill="#2595FF"/>
<path d="M630.415 537.437C629.667 536.988 629.068 537.287 629.068 538.185C629.068 539.083 629.667 539.981 630.415 540.43C631.164 540.879 631.762 540.58 631.762 539.682C631.762 538.933 631.164 537.886 630.415 537.437Z" fill="#2595FF"/>
<path d="M635.505 540.433C634.757 539.984 634.158 540.283 634.158 541.181C634.158 542.079 634.757 542.977 635.505 543.426C636.254 543.875 636.852 543.576 636.852 542.678C636.852 541.93 636.254 540.882 635.505 540.433Z" fill="#2595FF"/>
<path d="M764.367 461.866C765.115 461.417 765.714 461.717 765.714 462.615C765.714 463.513 765.115 464.411 764.367 464.86C763.618 465.309 763.02 464.86 763.02 464.111C763.169 463.363 763.618 462.315 764.367 461.866Z" fill="#2595FF"/>
<path d="M754.189 467.855C754.937 467.406 755.536 467.705 755.536 468.603C755.536 469.501 754.937 470.399 754.189 470.848C753.44 471.297 752.842 470.998 752.842 470.1C752.842 469.202 753.44 468.154 754.189 467.855Z" fill="#2595FF"/>
<path d="M748.951 470.698C749.699 470.249 750.298 470.549 750.298 471.447C750.298 472.345 749.699 473.243 748.951 473.692C748.202 474.141 747.604 473.841 747.604 472.943C747.604 472.195 748.202 471.147 748.951 470.698Z" fill="#2595FF"/>
<path d="M764.367 467.257C765.115 466.808 765.714 467.107 765.714 468.005C765.714 468.903 765.115 469.801 764.367 470.25C763.618 470.699 763.02 470.4 763.02 469.502C763.169 468.604 763.768 467.706 764.367 467.257Z" fill="#2595FF"/>
<path d="M754.189 473.093C754.937 472.644 755.536 472.943 755.536 473.841C755.536 474.739 754.937 475.637 754.189 476.086C753.44 476.535 752.842 476.236 752.842 475.338C752.842 474.59 753.44 473.542 754.189 473.093Z" fill="#2595FF"/>
<path d="M748.951 476.085C749.699 475.636 750.298 475.936 750.298 476.834C750.298 477.732 749.699 478.63 748.951 479.079C748.202 479.528 747.604 479.228 747.604 478.33C747.604 477.582 748.202 476.534 748.951 476.085Z" fill="#2595FF"/>
<path d="M764.515 472.644C765.263 472.195 765.862 472.494 765.862 473.392C765.862 474.29 765.263 475.188 764.515 475.637C763.767 476.086 763.168 475.637 763.168 474.889C763.168 473.991 763.767 472.943 764.515 472.644Z" fill="#2595FF"/>
<path d="M754.189 478.484C754.937 478.035 755.536 478.334 755.536 479.232C755.536 480.13 754.937 481.028 754.189 481.477C753.44 481.926 752.842 481.627 752.842 480.729C752.842 479.98 753.44 478.933 754.189 478.484Z" fill="#2595FF"/>
<path d="M748.951 481.476C749.699 481.027 750.298 481.326 750.298 482.224C750.298 483.122 749.699 484.02 748.951 484.469C748.202 484.918 747.604 484.619 747.604 483.721C747.753 482.972 748.202 481.925 748.951 481.476Z" fill="#2595FF"/>
<path d="M764.515 477.878C765.263 477.429 765.862 477.728 765.862 478.626C765.862 479.524 765.263 480.422 764.515 480.871C763.767 481.32 763.168 481.021 763.168 480.123C763.168 479.375 763.767 478.327 764.515 477.878Z" fill="#2595FF"/>
<path d="M754.189 483.867C754.937 483.418 755.536 483.867 755.536 484.615C755.536 485.513 754.937 486.411 754.189 486.86C753.44 487.309 752.842 487.01 752.842 486.112C752.842 485.363 753.44 484.316 754.189 483.867Z" fill="#2595FF"/>
<path d="M748.951 486.863C749.699 486.414 750.298 486.713 750.298 487.611C750.298 488.509 749.699 489.407 748.951 489.856C748.202 490.305 747.604 490.006 747.604 489.108C747.753 488.359 748.352 487.312 748.951 486.863Z" fill="#2595FF"/>
<path d="M764.515 483.269C765.263 482.82 765.862 483.119 765.862 484.017C765.862 484.915 765.263 485.813 764.515 486.262C763.767 486.711 763.168 486.412 763.168 485.514C763.168 484.765 763.767 483.718 764.515 483.269Z" fill="#2595FF"/>
<path d="M754.189 489.257C754.937 488.808 755.536 489.107 755.536 490.005C755.536 490.903 754.937 491.801 754.189 492.25C753.44 492.699 752.842 492.4 752.842 491.502C752.842 490.754 753.44 489.706 754.189 489.257Z" fill="#2595FF"/>
<path d="M749.101 492.253C749.849 491.804 750.448 492.103 750.448 493.001C750.448 493.899 749.849 494.797 749.101 495.246C748.353 495.695 747.754 495.396 747.754 494.498C747.754 493.75 748.353 492.702 749.101 492.253Z" fill="#2595FF"/>
<path d="M764.515 488.656C765.263 488.207 765.862 488.506 765.862 489.404C765.862 490.302 765.263 491.2 764.515 491.649C763.767 492.098 763.168 491.798 763.168 490.9C763.168 490.152 763.767 489.105 764.515 488.656Z" fill="#2595FF"/>
<path d="M754.189 494.644C754.937 494.195 755.536 494.494 755.536 495.392C755.536 496.29 754.937 497.188 754.189 497.637C753.44 498.086 752.842 497.787 752.842 496.889C752.842 495.991 753.44 495.093 754.189 494.644Z" fill="#2595FF"/>
<path d="M749.101 497.632C749.849 497.183 750.448 497.482 750.448 498.38C750.448 499.278 749.849 500.176 749.101 500.625C748.353 501.074 747.754 500.775 747.754 499.877C747.754 498.979 748.353 498.081 749.101 497.632Z" fill="#2595FF"/>
<path d="M764.515 494.046C765.263 493.597 765.862 493.896 765.862 494.794C765.862 495.692 765.263 496.59 764.515 497.039C763.767 497.488 763.168 497.189 763.168 496.291C763.168 495.543 763.767 494.495 764.515 494.046Z" fill="#2595FF"/>
<path d="M754.189 500.031C754.937 499.582 755.536 499.881 755.536 500.779C755.536 501.677 754.937 502.575 754.189 503.024C753.44 503.473 752.842 503.173 752.842 502.275C752.842 501.377 753.44 500.48 754.189 500.031Z" fill="#2595FF"/>
<path d="M749.101 503.023C749.849 502.574 750.448 502.873 750.448 503.771C750.448 504.669 749.849 505.567 749.101 506.016C748.353 506.465 747.754 506.166 747.754 505.268C747.754 504.37 748.353 503.322 749.101 503.023Z" fill="#2595FF"/>
<path d="M764.515 499.433C765.263 498.984 765.862 499.283 765.862 500.181C765.862 501.079 765.263 501.977 764.515 502.426C763.767 502.875 763.168 502.576 763.168 501.678C763.168 500.78 763.767 499.882 764.515 499.433Z" fill="#2595FF"/>
<path d="M754.189 505.417C754.937 504.968 755.536 505.268 755.536 506.166C755.536 507.064 754.937 507.962 754.189 508.411C753.44 508.86 752.842 508.56 752.842 507.662C752.842 506.764 753.44 505.717 754.189 505.417Z" fill="#2595FF"/>
<path d="M749.101 508.265C749.849 507.816 750.448 508.115 750.448 509.013C750.448 509.911 749.849 510.809 749.101 511.258C748.353 511.707 747.754 511.408 747.754 510.51C747.754 509.762 748.353 508.714 749.101 508.265Z" fill="#2595FF"/>
<path d="M764.515 504.82C765.263 504.371 765.862 504.67 765.862 505.568C765.862 506.466 765.263 507.364 764.515 507.813C763.767 508.262 763.168 507.963 763.168 507.065C763.168 506.167 763.767 505.269 764.515 504.82Z" fill="#2595FF"/>
<path d="M754.189 510.659C754.937 510.21 755.536 510.51 755.536 511.408C755.536 512.306 754.937 513.204 754.189 513.653C753.44 514.102 752.842 513.802 752.842 512.904C752.991 512.156 753.44 511.108 754.189 510.659Z" fill="#2595FF"/>
<path d="M749.101 513.656C749.849 513.207 750.448 513.506 750.448 514.404C750.448 515.302 749.849 516.2 749.101 516.649C748.353 517.098 747.754 516.798 747.754 515.9C747.754 515.002 748.353 514.105 749.101 513.656Z" fill="#2595FF"/>
<path d="M764.515 510.206C765.263 509.757 765.862 510.057 765.862 510.955C765.862 511.853 765.263 512.751 764.515 513.2C763.767 513.649 763.168 513.349 763.168 512.451C763.168 511.553 763.767 510.506 764.515 510.206Z" fill="#2595FF"/>
<path d="M754.189 516.046C754.937 515.597 755.536 515.896 755.536 516.794C755.536 517.692 754.937 518.59 754.189 519.039C753.44 519.488 752.842 519.189 752.842 518.291C752.991 517.543 753.59 516.495 754.189 516.046Z" fill="#2595FF"/>
<path d="M749.101 519.034C749.849 518.585 750.448 518.885 750.448 519.783C750.448 520.681 749.849 521.579 749.101 522.028C748.353 522.477 747.754 522.177 747.754 521.279C747.754 520.531 748.353 519.483 749.101 519.034Z" fill="#2595FF"/>
<path d="M764.515 515.448C765.263 514.999 765.862 515.299 765.862 516.197C765.862 517.095 765.263 517.993 764.515 518.442C763.767 518.891 763.168 518.591 763.168 517.693C763.318 516.945 763.916 515.897 764.515 515.448Z" fill="#2595FF"/>
<path d="M754.339 521.437C755.088 520.988 755.686 521.287 755.686 522.185C755.686 523.083 755.088 523.981 754.339 524.43C753.591 524.879 752.992 524.58 752.992 523.682C752.992 522.933 753.591 521.886 754.339 521.437Z" fill="#2595FF"/>
<path d="M749.101 524.425C749.849 523.976 750.448 524.275 750.448 525.173C750.448 526.071 749.849 526.969 749.101 527.418C748.353 527.867 747.754 527.568 747.754 526.67C747.754 525.922 748.353 524.874 749.101 524.425Z" fill="#2595FF"/>
<path d="M764.515 520.831C765.263 520.382 765.862 520.682 765.862 521.58C765.862 522.478 765.263 523.376 764.515 523.825C763.767 524.274 763.168 523.974 763.168 523.076C763.318 522.328 763.916 521.28 764.515 520.831Z" fill="#2595FF"/>
<path d="M754.339 526.816C755.088 526.367 755.686 526.666 755.686 527.564C755.686 528.462 755.088 529.36 754.339 529.809C753.591 530.258 752.992 529.959 752.992 529.061C752.992 528.312 753.591 527.265 754.339 526.816Z" fill="#2595FF"/>
<path d="M749.101 529.812C749.849 529.363 750.448 529.662 750.448 530.56C750.448 531.458 749.849 532.356 749.101 532.805C748.353 533.254 747.754 532.955 747.754 532.057C747.754 531.308 748.353 530.261 749.101 529.812Z" fill="#2595FF"/>
<path d="M764.665 526.222C765.414 525.773 766.012 526.072 766.012 526.97C766.012 527.868 765.414 528.766 764.665 529.215C763.917 529.664 763.318 529.365 763.318 528.467C763.318 527.719 763.917 526.671 764.665 526.222Z" fill="#2595FF"/>
<path d="M754.339 532.206C755.088 531.757 755.686 532.057 755.686 532.955C755.686 533.853 755.088 534.751 754.339 535.2C753.591 535.649 752.992 535.349 752.992 534.451C752.992 533.553 753.591 532.655 754.339 532.206Z" fill="#2595FF"/>
<path d="M749.101 535.202C749.849 534.753 750.448 535.053 750.448 535.951C750.448 536.849 749.849 537.747 749.101 538.196C748.353 538.645 747.754 538.345 747.754 537.447C747.904 536.549 748.353 535.651 749.101 535.202Z" fill="#2595FF"/>
<path d="M764.665 531.616C765.414 531.167 766.012 531.467 766.012 532.365C766.012 533.263 765.414 534.161 764.665 534.61C763.917 535.059 763.318 534.759 763.318 533.861C763.318 533.113 763.917 532.065 764.665 531.616Z" fill="#2595FF"/>
<path d="M754.339 537.597C755.088 537.148 755.686 537.447 755.686 538.345C755.686 539.243 755.088 540.141 754.339 540.59C753.591 541.039 752.992 540.74 752.992 539.842C752.992 538.944 753.591 537.896 754.339 537.597Z" fill="#2595FF"/>
<path d="M749.101 540.593C749.849 540.144 750.448 540.443 750.448 541.341C750.448 542.239 749.849 543.137 749.101 543.586C748.353 544.035 747.754 543.736 747.754 542.838C747.904 541.94 748.502 540.892 749.101 540.593Z" fill="#2595FF"/>
<circle cx="634.667" cy="189.667" r="33.6667" fill="url(#paint20_linear_862_34750)"/>
<circle cx="634.667" cy="189.667" r="33.6667" fill="url(#paint21_radial_862_34750)"/>
<circle cx="634.667" cy="189.667" r="33.6667" fill="url(#paint22_radial_862_34750)"/>
<circle cx="634.667" cy="189.667" r="33.6667" fill="url(#paint23_radial_862_34750)"/>
<circle cx="634.667" cy="189.667" r="33.6667" fill="url(#paint24_radial_862_34750)"/>
<g style="mix-blend-mode:lighten">
<ellipse cx="632.843" cy="181.151" rx="20.8896" ry="18.6586" fill="url(#paint25_linear_862_34750)"/>
</g>
<g style="mix-blend-mode:lighten">
<path d="M620.628 179.317C619.277 178.897 618.503 177.447 619.14 176.183C620.249 173.984 621.872 172.069 623.888 170.612C625.904 169.154 628.23 168.211 630.666 167.846C632.066 167.637 633.201 168.825 633.176 170.241C633.152 171.656 631.969 172.752 630.591 173.076C629.266 173.387 628.008 173.958 626.892 174.765C625.776 175.572 624.84 176.588 624.13 177.749C623.391 178.956 621.98 179.737 620.628 179.317Z" fill="url(#paint26_linear_862_34750)"/>
</g>
<circle cx="93" cy="143" r="65" fill="url(#paint27_linear_862_34750)"/>
<circle cx="93" cy="143" r="65" fill="url(#paint28_radial_862_34750)"/>
<circle cx="93" cy="143" r="65" fill="url(#paint29_radial_862_34750)"/>
<circle cx="93" cy="143" r="65" fill="url(#paint30_radial_862_34750)"/>
<circle cx="93" cy="143" r="65" fill="url(#paint31_radial_862_34750)"/>
<g style="mix-blend-mode:lighten">
<ellipse cx="89.4768" cy="126.555" rx="40.3313" ry="36.0241" fill="url(#paint32_linear_862_34750)"/>
</g>
<g style="mix-blend-mode:lighten">
<path d="M65.898 123.015C63.2882 122.204 61.7945 119.405 63.0246 116.964C65.165 112.718 68.3 109.022 72.1914 106.207C76.0828 103.393 80.5746 101.572 85.2773 100.868C87.98 100.464 90.1713 102.759 90.1246 105.491C90.0778 108.224 87.7928 110.34 85.1324 110.964C82.5754 111.565 80.1458 112.667 77.9914 114.226C75.8371 115.784 74.0294 117.746 72.6588 119.987C71.2328 122.318 68.5077 123.826 65.898 123.015Z" fill="url(#paint33_linear_862_34750)"/>
</g>
<defs>
<filter id="filter0_f_862_34750" x="141.345" y="443.07" width="557.448" height="196.789" filterUnits="userSpaceOnUse" color-interpolation-filters="sRGB">
<feFlood flood-opacity="0" result="BackgroundImageFix"/>
<feBlend mode="normal" in="SourceGraphic" in2="BackgroundImageFix" result="shape"/>
<feGaussianBlur stdDeviation="8" result="effect1_foregroundBlur_862_34750"/>
</filter>
<filter id="filter1_f_862_34750" x="611" y="442.895" width="165" height="145.32" filterUnits="userSpaceOnUse" color-interpolation-filters="sRGB">
<feFlood flood-opacity="0" result="BackgroundImageFix"/>
<feBlend mode="normal" in="SourceGraphic" in2="BackgroundImageFix" result="shape"/>
<feGaussianBlur stdDeviation="2" result="effect1_foregroundBlur_862_34750"/>
</filter>
<linearGradient id="paint0_linear_862_34750" x1="420.098" y1="599.711" x2="420.098" y2="295.481" gradientUnits="userSpaceOnUse">
<stop stop-color="#DCEDFF"/>
<stop offset="0.5797" stop-color="#E9F3FF"/>
<stop offset="1" stop-color="white"/>
</linearGradient>
<linearGradient id="paint1_linear_862_34750" x1="331.738" y1="508.733" x2="388.815" y2="508.683" gradientUnits="userSpaceOnUse">
<stop stop-color="#BDDBFC"/>
<stop offset="1" stop-color="#E4E7FB"/>
</linearGradient>
<linearGradient id="paint2_linear_862_34750" x1="360.273" y1="517.286" x2="360.247" y2="492.131" gradientUnits="userSpaceOnUse">
<stop stop-color="#B7C0EB"/>
<stop offset="0.7274" stop-color="#E4E7FB"/>
</linearGradient>
<linearGradient id="paint3_linear_862_34750" x1="391.127" y1="528.59" x2="391.107" y2="508.773" gradientUnits="userSpaceOnUse">
<stop stop-color="#B7C0EB"/>
<stop offset="1" stop-color="#E4E7FB"/>
</linearGradient>
<linearGradient id="paint4_linear_862_34750" x1="382.987" y1="536.736" x2="382.975" y2="524.788" gradientUnits="userSpaceOnUse">
<stop stop-color="#B7C0EB"/>
<stop offset="0.5324" stop-color="#E4E7FB"/>
<stop offset="1" stop-color="#E4E7FB"/>
</linearGradient>
<linearGradient id="paint5_linear_862_34750" x1="326.341" y1="508.709" x2="394.205" y2="508.709" gradientUnits="userSpaceOnUse">
<stop stop-color="#F1F4FE"/>
<stop offset="0.5797" stop-color="#F7F9FE"/>
<stop offset="1" stop-color="white"/>
</linearGradient>
<linearGradient id="paint6_linear_862_34750" x1="385.395" y1="537.933" x2="436.124" y2="537.881" gradientUnits="userSpaceOnUse">
<stop stop-color="#F1F4FE"/>
<stop offset="0.5797" stop-color="#F7F9FE"/>
<stop offset="1" stop-color="white"/>
</linearGradient>
<linearGradient id="paint7_linear_862_34750" x1="428.88" y1="561.105" x2="428.864" y2="546.222" gradientUnits="userSpaceOnUse">
<stop stop-color="#B7C0EB"/>
<stop offset="0.5324" stop-color="#E4E7FB"/>
<stop offset="1" stop-color="#E4E7FB"/>
</linearGradient>
<linearGradient id="paint8_linear_862_34750" x1="395.282" y1="610.772" x2="445.28" y2="610.772" gradientUnits="userSpaceOnUse">
<stop stop-color="#EFF1FE"/>
<stop offset="1" stop-color="#E4E7FB"/>
</linearGradient>
<linearGradient id="paint9_linear_862_34750" x1="507.582" y1="525.471" x2="507.582" y2="160.709" gradientUnits="userSpaceOnUse">
<stop stop-color="#DAECFF"/>
<stop offset="0.2785" stop-color="#E3F0FF"/>
<stop offset="1" stop-color="#F6F9FE"/>
</linearGradient>
<linearGradient id="paint10_linear_862_34750" x1="474.002" y1="83.6857" x2="390.685" y2="130.874" gradientUnits="userSpaceOnUse">
<stop stop-color="#2595FF"/>
<stop offset="0.246" stop-color="#23A9FF"/>
<stop offset="0.608948" stop-color="#2595FF"/>
<stop offset="0.894941" stop-color="#2DC8FF"/>
<stop offset="1" stop-color="#2AC1FF"/>
</linearGradient>
<linearGradient id="paint11_linear_862_34750" x1="396.759" y1="103.504" x2="413.057" y2="75.2614" gradientUnits="userSpaceOnUse">
<stop stop-color="#DDEDFF"/>
<stop offset="0.4379" stop-color="#EFF1FE"/>
<stop offset="1" stop-color="white"/>
</linearGradient>
<linearGradient id="paint12_linear_862_34750" x1="501.727" y1="166.778" x2="514.455" y2="131.789" gradientUnits="userSpaceOnUse">
<stop stop-color="#D8EBFF"/>
<stop offset="1" stop-color="white"/>
</linearGradient>
<linearGradient id="paint13_linear_862_34750" x1="666.654" y1="73.918" x2="249.723" y2="134.801" gradientUnits="userSpaceOnUse">
<stop stop-color="#2595FF"/>
<stop offset="0.246" stop-color="#23A9FF"/>
<stop offset="0.608948" stop-color="#2595FF"/>
<stop offset="0.894941" stop-color="#2DC8FF"/>
<stop offset="1" stop-color="#2AC1FF"/>
</linearGradient>
<linearGradient id="paint14_linear_862_34750" x1="617.947" y1="443.894" x2="768.658" y2="443.894" gradientUnits="userSpaceOnUse">
<stop stop-color="#4AE6FF"/>
<stop offset="1" stop-color="#48FAC9"/>
</linearGradient>
<linearGradient id="paint15_linear_862_34750" x1="695.826" y1="451.695" x2="707.177" y2="432.035" gradientUnits="userSpaceOnUse">
<stop offset="0.2862" stop-color="#2499FF"/>
<stop offset="1" stop-color="#05D6FF"/>
</linearGradient>
<radialGradient id="paint16_radial_862_34750" cx="0" cy="0" r="1" gradientUnits="userSpaceOnUse" gradientTransform="translate(691.918 433.395) rotate(86.5184) scale(16.5277 26.9353)">
<stop stop-color="#00FFB3"/>
<stop offset="1" stop-color="#2499FF"/>
</radialGradient>
<linearGradient id="paint17_linear_862_34750" x1="772.016" y1="513.981" x2="614.565" y2="513.981" gradientUnits="userSpaceOnUse">
<stop stop-color="#C9E0F9"/>
<stop offset="0.5105" stop-color="#DFEFFF"/>
<stop offset="0.8827" stop-color="#EFF1FE"/>
</linearGradient>
<linearGradient id="paint18_linear_862_34750" x1="645.541" y1="512.509" x2="741.209" y2="512.509" gradientUnits="userSpaceOnUse">
<stop stop-color="#4AE6FF"/>
<stop offset="1" stop-color="#2595FF"/>
</linearGradient>
<linearGradient id="paint19_linear_862_34750" x1="666.183" y1="520.953" x2="718.894" y2="520.953" gradientUnits="userSpaceOnUse">
<stop offset="0.4173" stop-color="#5FEFC0"/>
<stop offset="0.4207" stop-color="#5FEEC1"/>
<stop offset="0.5729" stop-color="#4CD9ED"/>
</linearGradient>
<linearGradient id="paint20_linear_862_34750" x1="634.667" y1="156" x2="634.667" y2="223.333" gradientUnits="userSpaceOnUse">
<stop stop-color="#40FFC6"/>
<stop offset="0.492708" stop-color="#4AE6FF"/>
<stop offset="1" stop-color="#2595FF"/>
</linearGradient>
<radialGradient id="paint21_radial_862_34750" cx="0" cy="0" r="1" gradientUnits="userSpaceOnUse" gradientTransform="translate(620.839 169.226) rotate(62.6223) scale(75.8263)">
<stop offset="0.462106" stop-color="#2AA8FF" stop-opacity="0"/>
<stop offset="0.894737" stop-color="#2595FF"/>
</radialGradient>
<radialGradient id="paint22_radial_862_34750" cx="0" cy="0" r="1" gradientUnits="userSpaceOnUse" gradientTransform="translate(618.435 170.429) rotate(56.6259) scale(90.7081)">
<stop stop-color="#6EFFCE"/>
<stop offset="0.570035" stop-color="#A5FFFD" stop-opacity="0"/>
</radialGradient>
<radialGradient id="paint23_radial_862_34750" cx="0" cy="0" r="1" gradientUnits="userSpaceOnUse" gradientTransform="translate(628.054 176.44) rotate(63.4349) scale(48.3586)">
<stop offset="0.672439" stop-color="#9EC6FD" stop-opacity="0"/>
<stop offset="1" stop-color="white"/>
</radialGradient>
<radialGradient id="paint24_radial_862_34750" cx="0" cy="0" r="1" gradientUnits="userSpaceOnUse" gradientTransform="translate(631.027 182.387) rotate(62.0378) scale(41.7221)">
<stop offset="0.961458" stop-color="#2AA8FF" stop-opacity="0"/>
<stop offset="1" stop-color="#058AFF" stop-opacity="0.26"/>
</radialGradient>
<linearGradient id="paint25_linear_862_34750" x1="620.906" y1="167.307" x2="635.967" y2="184.034" gradientUnits="userSpaceOnUse">
<stop stop-color="white" stop-opacity="0.86"/>
<stop offset="1" stop-color="#D9D9D9" stop-opacity="0"/>
</linearGradient>
<linearGradient id="paint26_linear_862_34750" x1="632.847" y1="169.195" x2="623.747" y2="179.659" gradientUnits="userSpaceOnUse">
<stop stop-color="white"/>
<stop offset="1" stop-color="#FFFFE9" stop-opacity="0.38"/>
</linearGradient>
<linearGradient id="paint27_linear_862_34750" x1="93" y1="78" x2="93" y2="208" gradientUnits="userSpaceOnUse">
<stop stop-color="#40FFC6"/>
<stop offset="0.492708" stop-color="#4AE6FF"/>
<stop offset="1" stop-color="#2595FF"/>
</linearGradient>
<radialGradient id="paint28_radial_862_34750" cx="0" cy="0" r="1" gradientUnits="userSpaceOnUse" gradientTransform="translate(66.3036 103.536) rotate(62.6223) scale(146.397)">
<stop offset="0.462106" stop-color="#2AA8FF" stop-opacity="0"/>
<stop offset="0.894737" stop-color="#2595FF"/>
</radialGradient>
<radialGradient id="paint29_radial_862_34750" cx="0" cy="0" r="1" gradientUnits="userSpaceOnUse" gradientTransform="translate(61.6607 105.857) rotate(56.6259) scale(175.129)">
<stop stop-color="#6EFFCE"/>
<stop offset="0.570035" stop-color="#A5FFFD" stop-opacity="0"/>
</radialGradient>
<radialGradient id="paint30_radial_862_34750" cx="0" cy="0" r="1" gradientUnits="userSpaceOnUse" gradientTransform="translate(80.2321 117.464) rotate(63.4349) scale(93.3655)">
<stop offset="0.672439" stop-color="#9EC6FD" stop-opacity="0"/>
<stop offset="1" stop-color="white"/>
</radialGradient>
<radialGradient id="paint31_radial_862_34750" cx="0" cy="0" r="1" gradientUnits="userSpaceOnUse" gradientTransform="translate(85.973 128.946) rotate(62.0378) scale(80.5526)">
<stop offset="0.961458" stop-color="#2AA8FF" stop-opacity="0"/>
<stop offset="1" stop-color="#058AFF" stop-opacity="0.26"/>
</radialGradient>
<linearGradient id="paint32_linear_862_34750" x1="66.4304" y1="99.8278" x2="95.5087" y2="132.122" gradientUnits="userSpaceOnUse">
<stop stop-color="white" stop-opacity="0.86"/>
<stop offset="1" stop-color="#D9D9D9" stop-opacity="0"/>
</linearGradient>
<linearGradient id="paint33_linear_862_34750" x1="89.4877" y1="103.472" x2="71.9202" y2="123.675" gradientUnits="userSpaceOnUse">
<stop stop-color="white"/>
<stop offset="1" stop-color="#FFFFE9" stop-opacity="0.38"/>
</linearGradient>
<clipPath id="clip0_862_34750">
<rect width="109.862" height="73.2411" fill="white" transform="translate(326.323 488.977)"/>
</clipPath>
</defs>
</svg>
