<svg width="766" height="615" viewBox="0 0 766 615" fill="none" xmlns="http://www.w3.org/2000/svg">
<g clip-path="url(#clip0_877_36520)">
<path d="M364.96 102.509L127.258 239.746C113.388 247.754 113.388 260.738 127.258 268.746L363.749 405.284C377.619 413.292 400.108 413.292 413.978 405.284L651.681 268.047C665.551 260.038 665.551 247.055 651.681 239.047L415.19 102.509C401.319 94.5005 378.831 94.5005 364.96 102.509Z" stroke="#D8ECFF" stroke-width="2"/>
<path d="M435.611 236.162L203.004 370.457C189.134 378.465 189.134 391.449 203.004 399.457L472.407 554.997C486.278 563.005 508.766 563.005 522.637 554.997L755.243 420.702C769.114 412.693 769.114 399.71 755.243 391.702L485.84 236.162C471.97 228.153 449.481 228.153 435.611 236.162Z" stroke="#D8ECFF" stroke-width="2"/>
<path d="M244.039 310.275L77.9409 406.172C64.0704 414.18 64.0704 427.164 77.9409 435.172L231.035 523.561C244.906 531.569 267.394 531.569 281.265 523.561L447.363 427.664C461.233 419.656 461.233 406.672 447.363 398.664L294.269 310.275C280.398 302.267 257.91 302.267 244.039 310.275Z" stroke="#D8ECFF" stroke-width="2"/>
<path d="M110.599 390.539C112.366 389.518 112.366 387.864 110.599 386.844C108.832 385.824 105.967 385.824 104.2 386.844C102.433 387.864 102.433 389.518 104.2 390.539C105.967 391.559 108.832 391.559 110.599 390.539Z" fill="#23FBB2"/>
<path d="M417.213 251.698C420.041 250.065 420.041 247.419 417.213 245.787C414.386 244.154 409.803 244.154 406.975 245.787C404.148 247.419 404.148 250.065 406.975 251.698C409.803 253.33 414.386 253.33 417.213 251.698Z" fill="#23FBB2"/>
<path d="M356.357 486.862C359.184 485.229 359.184 482.583 356.357 480.951C353.53 479.319 348.946 479.319 346.119 480.951C343.292 482.583 343.292 485.229 346.119 486.862C348.946 488.494 353.53 488.494 356.357 486.862Z" fill="#23FBB2"/>
<path d="M179.129 494.158C183.398 491.693 183.398 487.697 179.129 485.233C174.86 482.768 167.938 482.768 163.669 485.233C159.4 487.697 159.4 491.693 163.669 494.158C167.938 496.623 174.86 496.623 179.129 494.158Z" fill="#3A98FF"/>
<path d="M283.357 357.862C286.184 356.229 286.184 353.583 283.357 351.951C280.53 350.319 275.946 350.319 273.119 351.951C270.292 353.583 270.292 356.229 273.119 357.862C275.946 359.494 280.53 359.494 283.357 357.862Z" fill="#3A98FF"/>
<path d="M653.464 394.059C651.794 394.059 649.708 393.225 647.622 392.391L400.784 249.473C392.855 244.885 386.179 233.624 386.179 224.449V56.8325C386.179 51.4106 397.697 45 401.87 45C403.539 45 405.626 45.8341 407.712 46.6682L652.79 187.018C660.718 191.606 667.395 202.866 667.395 212.042V379.578C666.977 385 657.219 394.059 653.464 394.059Z" fill="#DEECFB"/>
<path d="M408.116 47.39C408.116 47.39 407.698 47.39 407.698 46.9729C407.281 46.9729 407.281 46.5558 406.864 46.5558C406.864 46.5558 406.446 46.5559 406.446 46.1388C406.446 46.1388 406.029 46.1388 406.029 45.7217C405.612 45.7217 405.612 45.7218 405.195 45.3047H404.777C404.36 45.3047 404.36 45.3047 403.943 45.3047H403.526C403.108 45.3047 403.108 45.3047 402.691 45.3047C402.274 45.3047 402.274 45.3047 401.856 45.3047C401.439 45.3047 401.439 45.3047 401.022 45.3047C400.605 45.3047 400.605 45.3047 400.187 45.3047C399.77 45.3047 399.77 45.3047 399.353 45.3047C398.935 45.3047 398.518 45.3046 398.101 45.7217C397.684 45.7217 397.266 46.1388 396.849 46.1388L390.59 49.8923C391.007 49.4753 391.424 49.4753 391.842 49.4753C391.842 49.4753 391.842 49.4753 392.259 49.4753C392.676 49.4753 393.094 49.0582 393.511 49.0582C393.928 49.0582 394.345 49.0582 395.18 49.0582C395.597 49.0582 396.432 49.0583 396.849 49.4753C397.266 49.4753 397.684 49.8923 398.101 49.8923C398.518 49.8923 398.935 50.3094 399.77 50.3094C400.187 50.7265 400.605 50.7265 401.439 51.1435L645.547 192.111L651.807 188.357L408.116 47.39Z" fill="url(#paint0_linear_877_36520)"/>
<path d="M661.404 218.389L660.987 381.877C660.987 382.294 660.987 383.128 660.987 383.545C660.987 383.963 660.987 384.38 660.569 384.797C660.569 385.214 660.569 385.631 660.152 386.048C660.152 386.048 660.152 386.048 660.152 386.465C660.152 386.882 659.735 387.299 659.735 387.716C659.735 388.133 659.318 388.55 659.318 388.967C658.901 389.384 658.483 389.801 658.066 390.219C658.066 390.219 658.066 390.218 657.648 390.636C657.231 391.053 656.814 391.47 656.396 391.47C658.483 390.219 660.569 388.967 662.656 387.716C663.073 387.299 663.491 387.299 663.909 386.882C663.909 386.882 663.908 386.882 664.326 386.465C664.743 386.048 665.16 385.631 665.578 385.214C665.995 384.797 665.995 384.38 665.995 383.963C665.995 383.545 666.411 383.546 666.411 383.128V382.711C666.411 382.711 666.411 382.711 666.411 382.294C666.411 382.294 666.411 382.294 666.411 381.877C666.411 381.46 666.411 381.46 666.828 381.043C666.828 381.043 666.828 381.043 666.828 380.626C666.828 380.626 666.828 380.626 666.828 380.209C666.828 379.792 666.828 379.792 666.828 379.375V378.958C666.828 378.541 666.828 378.541 666.828 378.124C666.828 377.707 666.828 377.707 666.828 377.29L667.246 213.801L661.404 218.389Z" fill="url(#paint1_linear_877_36520)"/>
<path d="M645.965 193.358C654.311 198.363 661.404 210.458 661.404 220.05L660.987 383.539C660.987 393.548 653.893 397.302 645.548 392.297L401.439 251.33C392.676 246.325 386 234.23 386 224.638L386.417 61.149C386.417 51.1395 393.511 47.386 401.857 52.3908L645.965 193.358Z" fill="#CFE8FF"/>
<path d="M645.965 191.694C654.311 196.699 661.404 208.794 661.404 218.386L660.987 381.875C660.987 391.884 653.893 395.638 645.548 390.633L401.439 249.666C392.676 244.661 386 232.566 386 222.974L386.417 59.485C386.417 49.4755 393.511 45.7219 401.857 50.7267L645.965 191.694Z" fill="white"/>
<path d="M652.642 391.051C650.973 391.051 648.886 390.217 646.8 389.383L402.692 248.415C394.763 243.828 388.087 232.567 388.087 223.392L388.504 59.9029C388.504 54.4811 391.008 51.1445 395.181 51.1445C396.85 51.1445 398.936 51.9786 401.023 52.8128L645.131 193.78C653.059 198.368 659.736 209.629 659.736 218.804L659.318 382.293C658.901 387.714 656.397 391.051 652.642 391.051Z" fill="url(#paint2_linear_877_36520)"/>
<path d="M406.865 158.338L408.534 157.504L406.865 158.338C406.447 158.338 406.447 158.338 406.865 158.338Z" fill="#75797F"/>
<path d="M431.402 125.977C438.905 130.591 445.253 140.975 445.253 150.205V161.165C445.253 169.818 438.905 173.856 431.402 169.241L421.59 163.472C414.087 158.857 407.738 148.474 407.738 139.244V128.284C407.738 119.631 414.087 115.593 421.59 120.208L431.402 125.977Z" fill="white"/>
<path d="M489.486 234.166L491.155 233.332V248.346L489.486 249.18V234.166Z" fill="#E4E7FB"/>
<path d="M445.256 208.729L446.925 207.895L491.157 233.335L489.487 234.17L445.256 208.729Z" fill="url(#paint3_linear_877_36520)"/>
<path d="M489.487 234.171V249.186L445.256 223.745V208.73L489.487 234.171Z" fill="#48FAC9"/>
<path d="M542.022 264.568L543.693 263.734V278.749L542.022 279.583V264.568Z" fill="#E4E7FB"/>
<path d="M497.791 239.131L499.46 238.297L543.692 263.738L542.023 264.572L497.791 239.131Z" fill="url(#paint4_linear_877_36520)"/>
<path d="M542.023 264.574V279.588L497.791 254.147V239.133L542.023 264.574Z" fill="#48FAC9"/>
<path d="M595.607 295.061L597.277 294.227V309.241L595.607 310.075V295.061Z" fill="#E4E7FB"/>
<path d="M551.377 269.623L553.046 268.789L597.278 294.23L595.609 295.064L551.377 269.623Z" fill="url(#paint5_linear_877_36520)"/>
<path d="M595.609 295.066V310.08L551.377 284.639V269.625L595.609 295.066Z" fill="#48FAC9"/>
<path d="M649.192 325.541L650.862 324.707V339.721L649.192 340.555V325.541Z" fill="#E4E7FB"/>
<path d="M604.962 300.104L606.631 299.27L650.863 324.71L649.193 325.545L604.962 300.104Z" fill="url(#paint6_linear_877_36520)"/>
<path d="M649.193 325.546V340.561L604.962 315.12V300.105L649.193 325.546Z" fill="#48FAC9"/>
<path d="M620.789 337.647V348.073L600.342 335.978V325.969L620.789 337.647Z" fill="url(#paint7_linear_877_36520)"/>
<path d="M620.788 337.643L622.457 336.809V347.235L620.788 348.069V337.643Z" fill="#E4E7FB"/>
<path d="M600.342 325.967L602.011 325.133L622.458 336.811L620.789 337.645L600.342 325.967Z" fill="url(#paint8_linear_877_36520)"/>
<path d="M648.374 353.377V363.804L627.928 351.709V341.699L648.374 353.377Z" fill="url(#paint9_linear_877_36520)"/>
<path d="M648.374 353.373L650.043 352.539V362.966L648.374 363.8V353.373Z" fill="#E4E7FB"/>
<path d="M627.928 341.697L629.597 340.863L650.044 352.541L648.374 353.375L627.928 341.697Z" fill="url(#paint10_linear_877_36520)"/>
<path d="M122.828 210.337C122.828 204.814 126.704 198.096 131.486 195.332L270.921 114.724C275.703 111.96 279.579 114.196 279.579 119.719V233.092C279.579 238.615 275.703 245.333 270.921 248.097L131.486 328.706C126.704 331.47 122.828 329.233 122.828 323.711V210.337Z" fill="url(#paint11_linear_877_36520)" fill-opacity="0.29"/>
<path d="M133.429 215.591C133.429 210.068 137.305 203.35 142.086 200.586L281.522 119.978C286.303 117.213 290.179 119.45 290.179 124.973V238.346C290.179 243.869 286.303 250.587 281.522 253.351L142.086 333.959C137.305 336.724 133.429 334.487 133.429 328.964V215.591Z" fill="url(#paint12_linear_877_36520)" fill-opacity="0.72"/>
<path d="M143.021 221.427C143.021 215.904 146.897 209.186 151.678 206.422L291.114 125.814C295.895 123.049 299.77 125.286 299.77 130.809V244.182C299.77 249.705 295.895 256.423 291.114 259.187L151.678 339.795C146.897 342.56 143.021 340.323 143.021 334.8V221.427Z" fill="#E7F3FF"/>
<path fill-rule="evenodd" clip-rule="evenodd" d="M221.521 263.515C225.843 261.017 229.346 254.941 229.346 249.944C229.346 244.948 221.521 229.953 221.521 229.953C221.521 229.953 213.696 253.995 213.696 258.992C213.696 263.988 217.2 266.014 221.521 263.515ZM221.395 258.042C222.998 257.115 224.298 254.861 224.298 253.008C224.298 251.154 222.998 250.403 221.395 251.33C219.792 252.256 218.492 254.51 218.492 256.364C218.492 258.218 219.792 258.969 221.395 258.042Z" fill="#2595FF"/>
<g opacity="0.3" filter="url(#filter0_f_877_36520)">
<path d="M255.456 478.524C249.81 475.259 249.513 469.619 255.456 466.354L364.802 402.832C370.447 399.567 379.956 399.567 385.601 402.832L495.542 466.354C501.187 469.619 501.484 475.259 495.542 478.524L386.493 542.047C380.847 545.312 371.339 545.312 365.693 542.047L255.456 478.524Z" fill="#96AEE5"/>
</g>
<path d="M500 389.175C500 389.472 500 389.472 500 389.769V390.065C500 390.362 500 390.362 500 390.659V390.956C500 391.253 500 391.253 499.703 391.55C499.703 391.846 499.406 391.846 499.406 392.143C499.406 392.44 499.109 392.44 498.812 392.737C498.515 393.034 498.515 393.034 498.218 393.331C498.218 393.331 497.92 393.627 497.623 393.627L497.326 393.924C497.029 393.924 497.029 394.221 496.732 394.221C496.435 394.221 496.435 394.518 496.138 394.518L386.494 458.337L386.197 536.701L495.543 473.179C495.543 473.179 495.543 473.179 495.84 473.179L496.138 472.882C496.435 472.882 496.435 472.585 496.732 472.585L497.029 472.288C497.326 472.288 497.326 471.992 497.623 471.992C497.92 471.695 497.92 471.695 498.218 471.398L498.515 471.101C498.515 471.101 498.515 470.804 498.812 470.804C498.812 470.507 499.109 470.507 499.109 470.211C499.109 469.914 499.109 469.914 499.406 469.617V469.32C499.406 469.32 499.406 469.023 499.406 468.726V468.43C499.406 468.43 499.406 468.133 499.406 467.836V467.539L499.703 389.175C500 388.878 500 389.175 500 389.175Z" fill="#E4E7FB"/>
<path d="M255.457 394.816C252.486 393.035 251 390.957 251 388.582V466.946C251 469.024 252.486 471.399 255.457 473.18L365.397 536.702L365.694 458.338L255.457 394.816Z" fill="#EFF1FE"/>
<path d="M495.542 382.647C501.188 385.912 501.485 391.552 495.542 394.817L386.493 458.34C380.848 461.605 371.339 461.605 365.694 458.34L255.754 394.817C250.108 391.552 249.811 385.912 255.754 382.647L364.802 319.422C370.448 316.156 379.956 316.156 385.602 319.422L495.542 382.647Z" fill="white"/>
<path d="M255.458 390.067C249.812 386.802 249.515 381.162 255.458 377.897L364.804 314.375C370.449 311.109 379.958 311.109 385.603 314.375L495.544 377.897C501.189 381.162 501.486 386.802 495.544 390.067L386.495 453.59C380.849 456.855 371.341 456.855 365.695 453.59L255.458 390.067Z" fill="url(#paint13_linear_877_36520)"/>
<path d="M384.711 537.298C385.305 537.001 387.088 536.11 387.385 535.813V457.746C387.088 458.043 385.305 458.933 385.008 458.933C385.008 458.933 384.711 458.933 384.711 459.23C384.414 459.527 383.819 459.527 383.522 459.527C383.522 459.527 383.225 459.527 383.225 459.824C382.928 459.824 382.631 459.824 382.334 460.121C382.036 460.121 382.036 460.121 381.739 460.418C381.442 460.418 381.145 460.418 380.848 460.714C380.551 460.714 380.551 460.714 380.254 460.714C379.659 460.714 379.065 461.011 378.471 461.011C378.174 461.011 378.174 461.011 377.877 461.011C377.579 461.011 377.282 461.011 376.985 461.011C376.688 461.011 376.688 461.011 376.391 461.011C376.094 461.011 375.797 461.011 375.499 461.011C375.202 461.011 374.905 461.011 374.905 461.011C374.608 461.011 374.311 461.011 374.311 461.011C374.014 461.011 373.717 461.011 373.717 461.011C373.419 461.011 373.122 461.011 373.122 461.011C372.825 461.011 372.528 461.011 372.528 461.011C372.231 461.011 371.934 461.011 371.637 461.011C371.34 461.011 371.34 461.011 371.042 461.011C370.745 461.011 370.448 461.011 370.151 460.714C369.854 460.714 369.854 460.714 369.557 460.714C368.962 460.418 368.368 460.418 368.071 460.121C367.774 460.121 367.477 459.824 367.477 459.824C367.477 459.824 367.18 459.824 367.18 459.527C366.288 458.637 364.208 457.449 363.911 457.449V535.813C364.208 536.11 365.991 537.001 366.585 537.298C366.585 537.298 366.882 537.298 366.882 537.594C367.18 537.594 367.18 537.891 367.477 537.891C368.071 538.188 368.368 538.188 368.962 538.485H369.26C369.557 538.485 369.854 538.782 370.151 538.782H370.448H370.745C371.042 538.782 371.34 538.782 371.637 538.782H371.934H372.231C372.528 538.782 372.825 538.782 372.825 538.782H373.122H373.419C373.717 538.782 374.014 538.782 374.014 538.782H374.311H374.608C374.905 538.782 375.202 538.782 375.499 538.782H375.797H376.094C376.391 538.782 376.688 538.782 376.985 538.782H377.282C377.877 538.782 378.471 538.782 379.065 538.485C379.362 538.485 379.362 538.485 379.659 538.485C379.956 538.485 380.254 538.485 380.551 538.188C380.848 538.188 380.848 538.188 381.145 537.891C381.442 537.891 381.739 537.891 382.036 537.594C382.036 537.594 382.036 537.594 382.334 537.594H382.631C382.928 537.594 383.522 537.298 383.819 537.001C384.711 537.298 384.711 537.298 384.711 537.298Z" fill="url(#paint14_linear_877_36520)"/>
<path d="M337.169 461.01L331.523 457.744C329.741 456.854 328.255 457.448 328.255 459.525C328.255 461.603 329.741 463.978 331.523 464.868L336.872 468.134C338.655 469.024 340.14 468.431 340.14 466.353C340.14 464.275 338.952 461.9 337.169 461.01Z" fill="#96AEE5"/>
<path d="M337.169 472.588L331.523 469.323C329.741 468.432 328.255 469.026 328.255 471.104C328.255 473.181 329.741 475.556 331.523 476.447L336.872 479.712C338.655 480.602 340.14 480.009 340.14 477.931C340.14 476.15 338.952 473.775 337.169 472.588Z" fill="#96AEE5"/>
<path d="M337.169 484.459L331.523 481.194C329.741 480.303 328.255 480.897 328.255 482.975C328.255 485.053 329.741 487.427 331.523 488.318L336.872 491.583C338.655 492.473 340.14 491.88 340.14 489.802C340.14 487.724 338.952 485.349 337.169 484.459Z" fill="#40FFC6"/>
<path d="M337.169 496.037L331.523 492.772C329.741 491.881 328.255 492.475 328.255 494.553C328.255 496.631 329.741 499.005 331.523 499.896L336.872 503.161C338.655 504.052 340.14 503.458 340.14 501.38C340.14 499.599 338.952 496.927 337.169 496.037Z" fill="#96AEE5"/>
<path d="M352.917 469.322L347.271 466.057C345.489 465.166 344.003 465.76 344.003 467.838C344.003 469.916 345.489 472.29 347.271 473.181L352.917 476.446C354.7 477.337 356.186 476.743 356.186 474.665C356.186 472.587 354.7 470.213 352.917 469.322Z" fill="#2595FF"/>
<path d="M352.917 480.896L347.271 477.631C345.489 476.741 344.003 477.334 344.003 479.412C344.003 481.49 345.489 483.865 347.271 484.755L352.917 488.02C354.7 488.911 356.186 488.317 356.186 486.239C356.186 484.458 354.7 481.787 352.917 480.896Z" fill="#96AEE5"/>
<path d="M352.917 492.474L347.271 489.209C345.489 488.319 344.003 488.912 344.003 490.99C344.003 493.068 345.489 495.443 347.271 496.333L352.917 499.599C354.7 500.489 356.186 499.895 356.186 497.818C356.186 496.036 354.7 493.662 352.917 492.474Z" fill="#96AEE5"/>
<path d="M352.917 504.349L347.271 501.084C345.489 500.194 344.003 500.787 344.003 502.865C344.003 504.943 345.489 507.318 347.271 508.208L352.917 511.473C354.7 512.364 356.186 511.77 356.186 509.692C356.186 507.911 354.7 505.24 352.917 504.349Z" fill="#96AEE5"/>
<path d="M316.666 484.162L261.102 452.104C259.319 451.213 257.833 451.807 257.833 453.885C257.833 455.963 259.319 458.337 261.102 459.228L316.666 491.286C318.449 492.176 319.934 491.583 319.934 489.505C319.934 487.724 318.449 485.349 316.666 484.162Z" fill="url(#paint15_linear_877_36520)"/>
<path d="M316.666 467.838L261.102 435.78C259.319 434.889 257.833 435.483 257.833 437.561C257.833 439.638 259.319 442.013 261.102 442.904L316.666 474.962C318.449 475.852 319.934 475.259 319.934 473.181C319.934 471.103 318.449 468.728 316.666 467.838Z" fill="url(#paint16_linear_877_36520)"/>
<path d="M316.666 451.217L261.102 419.159C259.319 418.268 257.833 418.862 257.833 420.94C257.833 423.017 259.319 425.392 261.102 426.283L316.666 458.341C318.449 459.231 319.934 458.637 319.934 456.56C319.934 454.482 318.449 452.107 316.666 451.217Z" fill="url(#paint17_linear_877_36520)"/>
<path d="M475.635 469.915L405.808 510.581V461.307L475.635 420.641V469.915Z" fill="url(#paint18_linear_877_36520)"/>
<path d="M372.527 389.309L400.388 373.234C406.175 369.895 415.697 369.842 421.591 373.242L383.136 395.43L372.527 389.309Z" fill="url(#paint19_linear_877_36520)"/>
<path fill-rule="evenodd" clip-rule="evenodd" d="M383.724 395.092C394.907 388.64 394.896 378.217 383.698 371.756C372.5 365.295 354.438 365.289 343.254 371.742C332.071 378.195 332.082 388.616 343.28 395.077C354.478 401.538 372.54 401.545 383.724 395.092ZM372.821 388.801C377.922 385.858 377.916 381.1 372.809 378.153C367.701 375.206 359.357 375.146 354.256 378.09C349.154 381.033 349.16 385.791 354.267 388.738C359.375 391.685 367.719 391.745 372.821 388.801Z" fill="url(#paint20_radial_877_36520)"/>
<path d="M666.487 477.866C669.311 476.233 669.311 473.587 666.487 471.955C663.664 470.322 659.086 470.322 656.263 471.955C653.439 473.587 653.439 476.233 656.263 477.866C659.086 479.498 663.664 479.498 666.487 477.866Z" fill="#3A98FF"/>
<path d="M273 234.891C273 225.697 271.136 217.708 267.557 211.562L257.475 223.241C260.262 228.027 261.714 234.248 261.714 241.407L273 234.891Z" fill="#47B8EF"/>
<path d="M267.639 211.704C262.124 202.117 252.779 197.488 241.343 198.678C229.907 199.868 217.158 206.795 205.466 218.173L209.125 228.389C218.229 219.529 228.157 214.135 237.062 213.208C245.968 212.281 253.244 215.886 257.539 223.351L267.639 211.704Z" fill="#23FBB2"/>
<path d="M205.659 217.985C195.667 227.657 186.968 240.063 180.762 253.496C174.555 266.928 171.146 280.725 171.005 292.986L182.29 286.646C182.4 277.098 185.055 266.354 189.888 255.894C194.721 245.435 201.494 235.774 209.275 228.242L205.659 217.985Z" fill="#2595FF"/>
</g>
<defs>
<filter id="filter0_f_877_36520" x="247.109" y="396.383" width="256.778" height="152.113" filterUnits="userSpaceOnUse" color-interpolation-filters="sRGB">
<feFlood flood-opacity="0" result="BackgroundImageFix"/>
<feBlend mode="normal" in="SourceGraphic" in2="BackgroundImageFix" result="shape"/>
<feGaussianBlur stdDeviation="2" result="effect1_foregroundBlur_877_36520"/>
</filter>
<linearGradient id="paint0_linear_877_36520" x1="390.837" y1="118.41" x2="652.191" y2="118.41" gradientUnits="userSpaceOnUse">
<stop stop-color="#DEECFB"/>
<stop offset="0.5797" stop-color="#F7F9FE"/>
<stop offset="1" stop-color="#DEECFB"/>
</linearGradient>
<linearGradient id="paint1_linear_877_36520" x1="656.555" y1="303.566" x2="667.708" y2="303.566" gradientUnits="userSpaceOnUse">
<stop stop-color="#D8ECFF"/>
<stop offset="0.2785" stop-color="#D8ECFF"/>
<stop offset="1" stop-color="#E4E7FB"/>
</linearGradient>
<linearGradient id="paint2_linear_877_36520" x1="467.843" y1="50.8044" x2="523.911" y2="391.051" gradientUnits="userSpaceOnUse">
<stop stop-color="#5CEEC4"/>
<stop offset="0.503125" stop-color="#00CCFF"/>
<stop offset="1" stop-color="#2595FF"/>
</linearGradient>
<linearGradient id="paint3_linear_877_36520" x1="445.233" y1="220.947" x2="491.113" y2="220.947" gradientUnits="userSpaceOnUse">
<stop stop-color="#F1F4FE"/>
<stop offset="0.5797" stop-color="#F7F9FE"/>
<stop offset="1" stop-color="white"/>
</linearGradient>
<linearGradient id="paint4_linear_877_36520" x1="497.768" y1="251.349" x2="543.648" y2="251.349" gradientUnits="userSpaceOnUse">
<stop stop-color="#F1F4FE"/>
<stop offset="0.5797" stop-color="#F7F9FE"/>
<stop offset="1" stop-color="white"/>
</linearGradient>
<linearGradient id="paint5_linear_877_36520" x1="551.354" y1="281.841" x2="597.234" y2="281.841" gradientUnits="userSpaceOnUse">
<stop stop-color="#F1F4FE"/>
<stop offset="0.5797" stop-color="#F7F9FE"/>
<stop offset="1" stop-color="white"/>
</linearGradient>
<linearGradient id="paint6_linear_877_36520" x1="604.939" y1="312.322" x2="650.819" y2="312.322" gradientUnits="userSpaceOnUse">
<stop stop-color="#F1F4FE"/>
<stop offset="0.5797" stop-color="#F7F9FE"/>
<stop offset="1" stop-color="white"/>
</linearGradient>
<linearGradient id="paint7_linear_877_36520" x1="614.532" y1="345.489" x2="607.136" y2="326.09" gradientUnits="userSpaceOnUse">
<stop stop-color="#4CD9ED"/>
<stop offset="1" stop-color="#2595FF"/>
</linearGradient>
<linearGradient id="paint8_linear_877_36520" x1="600.467" y1="331.433" x2="622.357" y2="331.433" gradientUnits="userSpaceOnUse">
<stop stop-color="white"/>
<stop offset="0.4203" stop-color="#F7F9FE"/>
<stop offset="1" stop-color="#F1F4FE"/>
</linearGradient>
<linearGradient id="paint9_linear_877_36520" x1="642.118" y1="361.22" x2="634.722" y2="341.82" gradientUnits="userSpaceOnUse">
<stop stop-color="#4CD9ED"/>
<stop offset="1" stop-color="#2595FF"/>
</linearGradient>
<linearGradient id="paint10_linear_877_36520" x1="628.053" y1="347.163" x2="649.943" y2="347.163" gradientUnits="userSpaceOnUse">
<stop stop-color="white"/>
<stop offset="0.4203" stop-color="#F7F9FE"/>
<stop offset="1" stop-color="#F1F4FE"/>
</linearGradient>
<linearGradient id="paint11_linear_877_36520" x1="201.203" y1="155.028" x2="258.994" y2="254.993" gradientUnits="userSpaceOnUse">
<stop offset="0.773958" stop-color="#2087F8" stop-opacity="0.43"/>
<stop offset="1" stop-color="#3A98FF" stop-opacity="0"/>
</linearGradient>
<linearGradient id="paint12_linear_877_36520" x1="211.804" y1="160.282" x2="269.594" y2="260.247" gradientUnits="userSpaceOnUse">
<stop offset="0.51875" stop-color="#2595FF"/>
<stop offset="1" stop-color="#3A98FF" stop-opacity="0"/>
</linearGradient>
<linearGradient id="paint13_linear_877_36520" x1="375.611" y1="455.944" x2="375.611" y2="312" gradientUnits="userSpaceOnUse">
<stop stop-color="#F1F4FE"/>
<stop offset="0.5797" stop-color="#F7F9FE"/>
<stop offset="1" stop-color="white"/>
</linearGradient>
<linearGradient id="paint14_linear_877_36520" x1="363.862" y1="498.169" x2="387.532" y2="498.169" gradientUnits="userSpaceOnUse">
<stop stop-color="#EFF1FE"/>
<stop offset="1" stop-color="#E4E7FB"/>
</linearGradient>
<linearGradient id="paint15_linear_877_36520" x1="257.934" y1="471.728" x2="319.793" y2="471.728" gradientUnits="userSpaceOnUse">
<stop stop-color="#48FAC9"/>
<stop offset="0.505208" stop-color="#4AE6FF"/>
<stop offset="1" stop-color="#2595FF"/>
</linearGradient>
<linearGradient id="paint16_linear_877_36520" x1="257.934" y1="455.404" x2="319.793" y2="455.404" gradientUnits="userSpaceOnUse">
<stop stop-color="#48FAC9"/>
<stop offset="0.505208" stop-color="#4AE6FF"/>
<stop offset="1" stop-color="#2595FF"/>
</linearGradient>
<linearGradient id="paint17_linear_877_36520" x1="257.934" y1="438.783" x2="319.793" y2="438.783" gradientUnits="userSpaceOnUse">
<stop stop-color="#48FAC9"/>
<stop offset="0.505208" stop-color="#4AE6FF"/>
<stop offset="1" stop-color="#2595FF"/>
</linearGradient>
<linearGradient id="paint18_linear_877_36520" x1="379.924" y1="423.789" x2="475.456" y2="465.731" gradientUnits="userSpaceOnUse">
<stop stop-color="#48FAC9"/>
<stop offset="0.505208" stop-color="#4AE6FF"/>
<stop offset="1" stop-color="#2595FF"/>
</linearGradient>
<linearGradient id="paint19_linear_877_36520" x1="377.848" y1="392.341" x2="394.795" y2="362.97" gradientUnits="userSpaceOnUse">
<stop offset="0.2862" stop-color="#2499FF"/>
<stop offset="1" stop-color="#05D6FF"/>
</linearGradient>
<radialGradient id="paint20_radial_877_36520" cx="0" cy="0" r="1" gradientUnits="userSpaceOnUse" gradientTransform="translate(372.009 365.013) rotate(86.5162) scale(24.6841 40.2533)">
<stop stop-color="#00FFB3"/>
<stop offset="1" stop-color="#2499FF"/>
</radialGradient>
<clipPath id="clip0_877_36520">
<rect width="766" height="615" fill="white"/>
</clipPath>
</defs>
</svg>
