<svg width="766" height="615" viewBox="0 0 766 615" fill="none" xmlns="http://www.w3.org/2000/svg">
<g clip-path="url(#clip0_862_29667)">
<rect x="1.73205" width="243.268" height="275.814" rx="29" transform="matrix(0.866025 -0.5 0.866025 0.5 135.847 264.304)" stroke="#D8ECFF" stroke-width="2"/>
<rect x="1.73205" width="298.96" height="275.814" rx="29" transform="matrix(0.866025 -0.5 0.866025 0.5 182.319 434.011)" stroke="#D8ECFF" stroke-width="2"/>
<rect x="1.73205" width="268.832" height="287.318" rx="29" transform="matrix(0.866025 -0.5 0.866025 0.5 15.6207 385.436)" stroke="#D8ECFF" stroke-width="2"/>
<circle r="3.69433" transform="matrix(0.866025 -0.5 0.866025 0.5 50.4808 364.311)" fill="#23FBB2"/>
<ellipse rx="5.91092" ry="5.91093" transform="matrix(0.866025 -0.5 0.866025 0.5 394.094 310.742)" fill="#23FBB2"/>
<ellipse rx="5.91093" ry="5.91092" transform="matrix(0.866025 -0.5 0.866025 0.5 331.238 489.91)" fill="#23FBB2"/>
<ellipse rx="3.69434" ry="3.69433" transform="matrix(0.866025 -0.5 0.866025 0.5 421.61 183.287)" fill="#3A98FF"/>
<ellipse rx="5.91093" ry="5.91092" transform="matrix(0.866025 -0.5 0.866025 0.5 490.076 533.141)" fill="#3A98FF"/>
<ellipse rx="5.91092" ry="5.91093" transform="matrix(0.866025 -0.5 0.866025 0.5 223.887 212.473)" fill="#3A98FF"/>
<g opacity="0.5" filter="url(#filter0_f_862_29667)">
<rect width="128.172" height="128.172" transform="matrix(0.866025 0.5 -0.866025 0.5 346 152.145)" fill="#C2D5E7" fill-opacity="0.56"/>
</g>
<rect width="126.814" height="165.058" transform="matrix(0.866025 0.5 -3.0016e-08 1 236.176 83.4062)" fill="#E6ECF3"/>
<rect width="126.814" height="165.058" transform="matrix(0.866025 0.5 -3.0016e-08 1 236.176 83.4062)" fill="url(#paint0_linear_862_29667)"/>
<rect width="126.814" height="165.606" transform="matrix(0.866025 -0.5 1.4045e-08 1 346.045 146.814)" fill="#FAFDFF"/>
<rect width="126.814" height="165.606" transform="matrix(0.866025 -0.5 1.4045e-08 1 346.045 146.814)" fill="url(#paint1_linear_862_29667)"/>
<rect width="126.814" height="126.814" transform="matrix(0.866025 0.5 -0.866025 0.5 346 20)" fill="url(#paint2_linear_862_29667)"/>
<g opacity="0.5" filter="url(#filter1_f_862_29667)">
<rect width="183.597" height="183.597" transform="matrix(0.866025 0.5 -0.866025 0.5 523 237.504)" fill="#C2D5E7" fill-opacity="0.56"/>
</g>
<rect width="181.652" height="96.315" transform="matrix(0.866025 0.5 -3.0016e-08 1 365.685 270.826)" fill="#E6ECF3"/>
<rect width="181.652" height="96.315" transform="matrix(0.866025 0.5 -3.0016e-08 1 365.685 270.826)" fill="url(#paint3_linear_862_29667)"/>
<rect width="181.652" height="96.4415" transform="matrix(0.866025 -0.5 1.4045e-08 1 523.064 361.652)" fill="#FAFDFF"/>
<rect width="181.652" height="96.4415" transform="matrix(0.866025 -0.5 1.4045e-08 1 523.064 361.652)" fill="url(#paint4_linear_862_29667)"/>
<rect width="181.652" height="181.652" transform="matrix(0.866025 0.5 -0.866025 0.5 523 180)" fill="url(#paint5_linear_862_29667)"/>
<path fill-rule="evenodd" clip-rule="evenodd" d="M357 92C357 84.268 363.268 78 371 78H432.525C444.252 78 454.638 85.57 458.229 96.7341L489.666 194.492C490.401 196.777 491.673 198.852 493.375 200.543L552.433 259.201C557.919 264.65 557.949 273.514 552.5 279C547.051 284.486 538.187 284.516 532.701 279.067L470.88 217.663C467.815 214.62 465.526 210.885 464.203 206.773L435.143 116.408C433.149 110.206 427.378 106 420.863 106H371C363.268 106 357 99.732 357 92Z" fill="#D0DFEE" fill-opacity="0.24"/>
<g opacity="0.5" filter="url(#filter2_f_862_29667)">
<rect width="183.597" height="183.597" transform="matrix(0.866025 0.5 -0.866025 0.5 300 336.504)" fill="#C2D5E7" fill-opacity="0.56"/>
</g>
<rect width="181.652" height="64.1604" transform="matrix(0.866025 0.5 -3.0016e-08 1 142.685 369.826)" fill="#E6ECF3"/>
<rect width="181.652" height="64.1604" transform="matrix(0.866025 0.5 -3.0016e-08 1 142.685 369.826)" fill="url(#paint6_linear_862_29667)"/>
<rect width="181.652" height="64.151" transform="matrix(0.866025 -0.5 1.4045e-08 1 300.064 460.652)" fill="#FAFDFF"/>
<rect width="181.652" height="64.151" transform="matrix(0.866025 -0.5 1.4045e-08 1 300.064 460.652)" fill="url(#paint7_linear_862_29667)"/>
<rect width="181.652" height="181.652" transform="matrix(0.866025 0.5 -0.866025 0.5 300 279)" fill="url(#paint8_linear_862_29667)"/>
<circle r="70.8329" transform="matrix(0.866025 -0.5 0.866025 0.5 299.704 363.928)" fill="#EAF2FF"/>
<mask id="mask0_862_29667" style="mask-type:alpha" maskUnits="userSpaceOnUse" x="208" y="311" width="184" height="106">
<circle r="74.5538" transform="matrix(0.866025 -0.5 0.866025 0.5 299.704 363.928)" fill="#D9D9D9"/>
</mask>
<g mask="url(#mask0_862_29667)">
<path d="M267.235 320.923C269.842 317.55 284.275 312.988 291.166 311.128L354.307 303.604L393.292 322.09C388.087 326.307 376.013 334.973 369.362 335.907C361.048 337.074 354.981 329.291 340.151 324.75C325.32 320.209 323.523 325.788 328.578 329.096C333.634 332.404 331.837 334.609 319.366 336.75C306.895 338.891 311.389 342.783 320.826 344.988C330.264 347.193 337.791 347.777 355.205 357.442C372.62 367.107 364.418 373.399 352.958 377.421C341.499 381.442 344.532 370.221 326.331 364.383C308.131 358.545 290.042 365.096 276.111 357.442C262.18 349.788 304.76 338.955 298.918 335.582C293.076 332.209 276.336 342.264 275.662 338.112C274.988 333.961 282.515 329.745 272.965 328.901C263.416 328.058 263.977 325.139 267.235 320.923Z" fill="#D4E3FF"/>
<path d="M198.028 355.95C206.679 351.604 217.24 350.566 220.723 356.469C224.205 362.372 217.24 371.712 228.812 378.394C240.384 385.075 241.732 386.372 256.787 381.961C271.842 377.55 279.032 370.804 288.245 380.794C297.458 390.783 296.896 391.756 306.108 394.091C315.321 396.426 333.971 389.94 322.512 403.561C314.99 412.501 306.249 418.269 300.953 421.008C299.969 421.613 298.924 422.072 298.019 422.372C298.8 422.062 299.794 421.607 300.953 421.008C304.005 419.133 306.478 415.855 302.401 411.54C295.66 404.405 289.481 400.059 273.302 399.41C257.124 398.761 260.045 394.35 253.079 392.404C246.114 390.459 239.822 398.761 223.644 394.74C207.465 390.718 198.253 381.377 200.275 374.242C201.893 368.534 199.451 359.669 198.028 355.95Z" fill="#D4E3FF"/>
<path d="M233.193 335.647C222.857 332.664 217.567 342.579 220.723 347.777C222.508 350.718 225.464 350.514 230.497 353.42C236.789 357.053 241.507 353.81 248.698 347.972C255.83 342.181 243.727 338.688 233.443 335.72L233.193 335.647Z" fill="#D4E3FF"/>
</g>
<path fill-rule="evenodd" clip-rule="evenodd" d="M287.782 390.02C287.782 390.02 310.227 364.789 310.227 350.475C310.227 336.162 300.178 318.756 287.782 311.599C275.386 304.442 265.337 310.244 265.337 324.558C265.337 338.872 287.782 390.02 287.782 390.02ZM287.637 348.971C294.035 352.665 299.221 349.67 299.221 342.282C299.221 334.895 294.035 325.911 287.637 322.217C281.239 318.524 276.052 321.518 276.052 328.906C276.052 336.294 281.239 345.277 287.637 348.971Z" fill="url(#paint9_linear_862_29667)" fill-opacity="0.8"/>
<path fill-rule="evenodd" clip-rule="evenodd" d="M285.756 390.856C285.756 390.856 308.201 365.625 308.201 351.311C308.201 336.997 298.152 319.592 285.756 312.435C273.36 305.278 263.311 311.08 263.311 325.394C263.311 339.708 285.756 390.856 285.756 390.856ZM285.61 349.807C292.008 353.501 297.195 350.506 297.195 343.118C297.195 335.731 292.008 326.747 285.61 323.053C279.212 319.36 274.026 322.354 274.026 329.742C274.026 337.129 279.212 346.113 285.61 349.807Z" fill="url(#paint10_linear_862_29667)" fill-opacity="0.8"/>
<path fill-rule="evenodd" clip-rule="evenodd" d="M284.017 392.528C284.017 392.528 306.462 367.297 306.462 352.983C306.462 338.669 296.413 321.264 284.017 314.107C271.621 306.95 261.572 312.752 261.572 327.066C261.572 341.38 284.017 392.528 284.017 392.528ZM283.872 351.478C290.27 355.172 295.457 352.178 295.457 344.79C295.457 337.402 290.27 328.419 283.872 324.725C277.474 321.031 272.287 324.026 272.287 331.413C272.287 338.801 277.474 347.785 283.872 351.478Z" fill="#3A98FF"/>
<path fill-rule="evenodd" clip-rule="evenodd" d="M364.277 78.2662L344.6 26.0625L318.399 35.9381L338.421 89.0558C343.593 102.778 358.773 109.863 372.613 105.014L492.571 62.9881L536.425 272.171C538.012 279.738 545.432 284.587 553 283C560.567 281.414 565.416 273.993 563.829 266.426L519.742 56.1276C516.396 40.1694 499.777 30.795 484.389 36.1861L364.277 78.2662Z" fill="url(#paint11_linear_862_29667)"/>
<path fill-rule="evenodd" clip-rule="evenodd" d="M315.923 311.084C315.923 311.084 333.62 291.191 333.62 279.905C333.62 268.619 325.696 254.895 315.923 249.253C306.149 243.61 298.226 248.184 298.226 259.47C298.226 270.756 315.923 311.084 315.923 311.084ZM315.809 278.719C320.853 281.631 324.943 279.27 324.943 273.445C324.943 267.62 320.853 260.537 315.809 257.625C310.764 254.712 306.675 257.073 306.675 262.898C306.675 268.723 310.764 275.806 315.809 278.719Z" fill="url(#paint12_linear_862_29667)" fill-opacity="0.8"/>
<path fill-rule="evenodd" clip-rule="evenodd" d="M314.324 311.745C314.324 311.745 332.021 291.851 332.021 280.565C332.021 269.279 324.098 255.556 314.324 249.913C304.55 244.27 296.627 248.844 296.627 260.13C296.627 271.416 314.324 311.745 314.324 311.745ZM314.21 279.379C319.255 282.291 323.344 279.93 323.344 274.105C323.344 268.28 319.255 261.197 314.21 258.285C309.166 255.372 305.076 257.733 305.076 263.558C305.076 269.383 309.166 276.466 314.21 279.379Z" fill="url(#paint13_linear_862_29667)" fill-opacity="0.8"/>
<path fill-rule="evenodd" clip-rule="evenodd" d="M312.954 313.063C312.954 313.063 330.651 293.169 330.651 281.883C330.651 270.597 322.728 256.874 312.954 251.231C303.18 245.588 295.257 250.163 295.257 261.448C295.257 272.734 312.954 313.063 312.954 313.063ZM312.84 280.697C317.885 283.61 321.974 281.249 321.974 275.424C321.974 269.599 317.885 262.516 312.84 259.603C307.795 256.691 303.706 259.052 303.706 264.877C303.706 270.702 307.795 277.785 312.84 280.697Z" fill="#2595FF"/>
<path fill-rule="evenodd" clip-rule="evenodd" d="M367.385 356.194C367.385 356.194 385.082 336.3 385.082 325.014C385.082 313.728 377.158 300.005 367.385 294.362C357.611 288.719 349.687 293.294 349.687 304.579C349.687 315.865 367.385 356.194 367.385 356.194ZM367.27 323.826C372.315 326.739 376.404 324.378 376.404 318.553C376.404 312.728 372.315 305.645 367.27 302.732C362.226 299.82 358.136 302.181 358.136 308.006C358.136 313.831 362.226 320.914 367.27 323.826Z" fill="url(#paint14_linear_862_29667)" fill-opacity="0.8"/>
<path fill-rule="evenodd" clip-rule="evenodd" d="M365.786 356.854C365.786 356.854 383.483 336.96 383.483 325.674C383.483 314.388 375.56 300.665 365.786 295.022C356.012 289.379 348.089 293.954 348.089 305.24C348.089 316.525 365.786 356.854 365.786 356.854ZM365.672 324.488C370.717 327.401 374.806 325.04 374.806 319.215C374.806 313.39 370.717 306.307 365.672 303.394C360.627 300.482 356.538 302.843 356.538 308.668C356.538 314.493 360.627 321.576 365.672 324.488Z" fill="url(#paint15_linear_862_29667)" fill-opacity="0.8"/>
<path fill-rule="evenodd" clip-rule="evenodd" d="M364.416 358.172C364.416 358.172 382.113 338.279 382.113 326.993C382.113 315.707 374.19 301.983 364.416 296.34C354.642 290.698 346.719 295.272 346.719 306.558C346.719 317.844 364.416 358.172 364.416 358.172ZM364.302 325.806C369.346 328.719 373.436 326.358 373.436 320.533C373.436 314.708 369.346 307.625 364.302 304.712C359.257 301.8 355.168 304.161 355.168 309.986C355.168 315.811 359.257 322.894 364.302 325.806Z" fill="#2595FF"/>
<path d="M320.775 0.904143L361.418 36.9894L309.846 54.1444L320.775 0.904143Z" fill="#40FFC6"/>
</g>
<defs>
<filter id="filter0_f_862_29667" x="200" y="117.145" width="292" height="198.172" filterUnits="userSpaceOnUse" color-interpolation-filters="sRGB">
<feFlood flood-opacity="0" result="BackgroundImageFix"/>
<feBlend mode="normal" in="SourceGraphic" in2="BackgroundImageFix" result="shape"/>
<feGaussianBlur stdDeviation="17.5" result="effect1_foregroundBlur_862_29667"/>
</filter>
<filter id="filter1_f_862_29667" x="329" y="202.504" width="388" height="253.598" filterUnits="userSpaceOnUse" color-interpolation-filters="sRGB">
<feFlood flood-opacity="0" result="BackgroundImageFix"/>
<feBlend mode="normal" in="SourceGraphic" in2="BackgroundImageFix" result="shape"/>
<feGaussianBlur stdDeviation="17.5" result="effect1_foregroundBlur_862_29667"/>
</filter>
<filter id="filter2_f_862_29667" x="106" y="301.504" width="388" height="253.598" filterUnits="userSpaceOnUse" color-interpolation-filters="sRGB">
<feFlood flood-opacity="0" result="BackgroundImageFix"/>
<feBlend mode="normal" in="SourceGraphic" in2="BackgroundImageFix" result="shape"/>
<feGaussianBlur stdDeviation="17.5" result="effect1_foregroundBlur_862_29667"/>
</filter>
<linearGradient id="paint0_linear_862_29667" x1="63.4069" y1="0" x2="63.4069" y2="165.058" gradientUnits="userSpaceOnUse">
<stop stop-color="#E5F2FF" stop-opacity="0"/>
<stop offset="1" stop-color="#C9DAEC" stop-opacity="0.89"/>
</linearGradient>
<linearGradient id="paint1_linear_862_29667" x1="63.4069" y1="0" x2="63.4069" y2="165.606" gradientUnits="userSpaceOnUse">
<stop offset="0.442975" stop-color="#E5F2FF" stop-opacity="0"/>
<stop offset="1" stop-color="#D4E4F3" stop-opacity="0.47"/>
</linearGradient>
<linearGradient id="paint2_linear_862_29667" x1="63.4069" y1="0" x2="63.4069" y2="126.814" gradientUnits="userSpaceOnUse">
<stop stop-color="#E9F3FF"/>
<stop offset="1" stop-color="#F4F7FF"/>
</linearGradient>
<linearGradient id="paint3_linear_862_29667" x1="90.8262" y1="0" x2="90.8262" y2="96.315" gradientUnits="userSpaceOnUse">
<stop stop-color="#E5F2FF" stop-opacity="0"/>
<stop offset="1" stop-color="#C9DAEC" stop-opacity="0.89"/>
</linearGradient>
<linearGradient id="paint4_linear_862_29667" x1="90.8262" y1="0" x2="90.8262" y2="96.4415" gradientUnits="userSpaceOnUse">
<stop offset="0.442975" stop-color="#E5F2FF" stop-opacity="0"/>
<stop offset="1" stop-color="#D4E4F3" stop-opacity="0.47"/>
</linearGradient>
<linearGradient id="paint5_linear_862_29667" x1="90.8262" y1="0" x2="90.8262" y2="181.652" gradientUnits="userSpaceOnUse">
<stop stop-color="#E9F3FF"/>
<stop offset="1" stop-color="#F4F7FF"/>
</linearGradient>
<linearGradient id="paint6_linear_862_29667" x1="90.8262" y1="0" x2="90.8262" y2="64.1604" gradientUnits="userSpaceOnUse">
<stop stop-color="#E5F2FF" stop-opacity="0"/>
<stop offset="1" stop-color="#C9DAEC" stop-opacity="0.89"/>
</linearGradient>
<linearGradient id="paint7_linear_862_29667" x1="90.8262" y1="0" x2="90.8262" y2="64.151" gradientUnits="userSpaceOnUse">
<stop offset="0.442975" stop-color="#E5F2FF" stop-opacity="0"/>
<stop offset="1" stop-color="#D4E4F3" stop-opacity="0.47"/>
</linearGradient>
<linearGradient id="paint8_linear_862_29667" x1="90.8262" y1="0" x2="90.8262" y2="181.652" gradientUnits="userSpaceOnUse">
<stop stop-color="#E9F3FF"/>
<stop offset="1" stop-color="#F4F7FF"/>
</linearGradient>
<linearGradient id="paint9_linear_862_29667" x1="287.782" y1="311.599" x2="253.825" y2="370.415" gradientUnits="userSpaceOnUse">
<stop stop-color="#A4CFFF"/>
<stop offset="1" stop-color="#A3C6FF" stop-opacity="0.4"/>
</linearGradient>
<linearGradient id="paint10_linear_862_29667" x1="285.756" y1="312.435" x2="251.798" y2="371.251" gradientUnits="userSpaceOnUse">
<stop stop-color="#A4CFFF"/>
<stop offset="1" stop-color="#A3C6FF" stop-opacity="0.4"/>
</linearGradient>
<linearGradient id="paint11_linear_862_29667" x1="442.25" y1="31.0003" x2="442.25" y2="283" gradientUnits="userSpaceOnUse">
<stop stop-color="#40FFC6"/>
<stop offset="1" stop-color="#2595FF"/>
</linearGradient>
<linearGradient id="paint12_linear_862_29667" x1="315.923" y1="249.253" x2="289.149" y2="295.626" gradientUnits="userSpaceOnUse">
<stop stop-color="#A4CFFF"/>
<stop offset="1" stop-color="#A3C6FF" stop-opacity="0.4"/>
</linearGradient>
<linearGradient id="paint13_linear_862_29667" x1="314.324" y1="249.913" x2="287.55" y2="296.287" gradientUnits="userSpaceOnUse">
<stop stop-color="#A4CFFF"/>
<stop offset="1" stop-color="#A3C6FF" stop-opacity="0.4"/>
</linearGradient>
<linearGradient id="paint14_linear_862_29667" x1="367.385" y1="294.362" x2="340.611" y2="340.736" gradientUnits="userSpaceOnUse">
<stop stop-color="#A4CFFF"/>
<stop offset="1" stop-color="#A3C6FF" stop-opacity="0.4"/>
</linearGradient>
<linearGradient id="paint15_linear_862_29667" x1="365.786" y1="295.022" x2="339.012" y2="341.396" gradientUnits="userSpaceOnUse">
<stop stop-color="#A4CFFF"/>
<stop offset="1" stop-color="#A3C6FF" stop-opacity="0.4"/>
</linearGradient>
<clipPath id="clip0_862_29667">
<rect width="766" height="615" fill="white"/>
</clipPath>
</defs>
</svg>
