<svg width="535" height="422" viewBox="0 0 535 422" fill="none" xmlns="http://www.w3.org/2000/svg">
<g clip-path="url(#clip0_862_31308)">
<g filter="url(#filter0_f_862_31308)">
<path d="M9.63897 254.554C-2.62966 247.6 -2.62966 235.866 9.63897 228.912L244.496 230.215C256.764 223.262 276.92 223.262 289.627 230.215L525.798 228.912C538.066 235.866 538.066 247.6 525.798 254.554L290.941 389.723C278.673 396.677 258.517 396.677 245.81 389.723L9.63897 254.554Z" fill="#C5D9EF"/>
</g>
<path d="M535 210.157C535 210.592 535 211.027 535 211.027C535 211.461 535 211.461 535 211.896C535 212.331 535 212.765 534.562 212.765C534.562 213.2 534.562 213.2 534.124 213.634C534.124 214.069 533.686 214.069 533.686 214.504C533.248 214.938 533.248 215.373 532.809 215.808C532.371 216.242 532.371 216.677 531.933 217.111C531.933 217.111 531.933 217.111 531.495 217.546C531.057 217.981 530.619 218.415 530.18 218.85C529.742 219.285 529.304 219.285 529.304 219.719C528.866 220.154 528.866 220.154 528.428 220.588C527.99 221.023 527.551 221.023 527.113 221.458C526.675 221.892 526.237 221.892 525.799 222.327L290.942 357.061L290.504 387.05L525.361 251.447C525.361 251.447 525.799 251.447 525.799 251.012C526.237 251.012 526.237 250.578 526.675 250.578C527.113 250.143 527.551 250.143 527.99 249.708C528.428 249.274 528.428 249.274 528.866 248.839C529.304 248.404 529.742 248.404 529.742 247.97C530.18 247.535 530.619 247.101 531.057 246.666C531.057 246.666 531.057 246.666 531.057 246.231C531.057 245.797 531.495 245.797 531.495 245.362L531.933 244.927C531.933 244.927 531.933 244.927 531.933 244.493C532.371 244.058 532.371 243.624 532.809 243.624C532.809 243.624 532.809 243.624 532.809 243.189C532.809 242.754 533.248 242.754 533.248 242.32C533.248 242.32 533.248 241.885 533.686 241.885C533.686 241.885 533.686 241.885 533.686 241.45C533.686 241.016 533.686 241.016 534.124 240.581V240.147C534.124 239.712 534.124 239.277 534.124 239.277C534.124 238.843 534.124 238.843 534.124 238.408C534.124 238.408 534.124 238.408 534.124 237.973L534.562 207.984C535 209.288 535 209.723 535 210.157Z" fill="#E1EDFF"/>
<path d="M9.63964 221.892C3.50532 218.415 0.438165 213.634 0.438165 208.854L0 238.843C0 243.623 3.06716 248.404 9.20147 251.881L245.811 387.05L246.249 357.061L9.63964 221.892Z" fill="#EFF1FE"/>
<path d="M525.798 196.25C538.066 203.204 538.066 214.939 525.798 221.893L290.941 357.061C278.673 364.015 258.517 364.015 245.81 357.061L9.63897 221.893C-2.62966 214.939 -2.62966 203.204 9.63897 196.25L244.496 60.6471C256.764 53.6931 276.92 53.6931 289.627 60.6471L525.798 196.25Z" fill="white"/>
<path d="M9.63897 211.461C-2.62966 204.507 -2.62966 192.772 9.63897 185.818L244.496 50.2155C256.764 43.2615 276.92 43.2615 289.627 50.2155L525.798 185.818C538.066 192.772 538.066 204.507 525.798 211.461L290.941 347.064C278.673 354.018 258.517 354.018 245.81 347.064L9.63897 211.461Z" fill="url(#paint0_linear_862_31308)"/>
<path d="M268.595 333.591C261.146 333.591 254.136 331.853 248.439 328.811L42.0634 210.593C36.8054 207.55 33.7383 203.204 33.7383 198.858C33.7383 194.512 36.8054 190.165 42.0634 187.123L247.125 68.4703C252.383 65.428 259.394 63.6895 266.842 63.6895C274.291 63.6895 281.302 65.428 286.998 68.4703L493.812 186.688C499.07 189.731 502.137 194.077 502.137 198.423C502.137 202.769 499.07 207.116 493.812 210.158L288.312 328.811C283.054 331.853 276.044 333.591 268.595 333.591ZM267.28 64.9933C259.832 64.9933 253.259 66.7318 248.001 69.7742L42.5016 187.992C37.6818 191.035 34.6146 194.512 34.6146 198.858C34.6146 202.769 37.2436 206.681 42.5016 209.723L249.316 327.941C254.574 330.984 261.146 332.722 268.595 332.722C276.044 332.722 282.616 330.984 287.874 327.941L493.374 209.723C498.194 206.681 501.261 203.204 501.261 198.858C501.261 194.946 498.632 191.035 493.374 187.992L286.56 69.3396C281.302 66.2972 274.291 64.9933 267.28 64.9933Z" fill="url(#paint1_linear_862_31308)"/>
<path d="M287.875 388.788C288.751 388.353 292.694 386.18 293.571 385.745V355.756C292.694 356.191 289.189 357.929 288.313 358.364C287.875 358.364 287.875 358.798 287.436 358.798C286.56 359.233 285.684 359.668 284.807 359.668C284.369 359.668 284.369 360.102 283.931 360.102C283.493 360.102 283.055 360.537 282.178 360.537C281.74 360.537 281.302 360.972 280.864 360.972C280.426 360.972 279.549 361.406 279.111 361.406C278.673 361.406 278.235 361.406 277.797 361.841C276.482 361.841 275.606 362.275 274.291 362.275C273.853 362.275 273.415 362.275 272.977 362.275C272.101 362.275 271.662 362.275 270.786 362.275C270.348 362.275 269.91 362.275 269.472 362.275C269.033 362.275 268.157 362.275 267.719 362.275C267.281 362.275 266.843 362.275 266.404 362.275C265.966 362.275 265.528 362.275 264.652 362.275C264.214 362.275 263.775 362.275 263.337 362.275C262.899 362.275 262.461 362.275 261.585 362.275C261.146 362.275 260.708 362.275 260.27 361.841C259.832 361.841 258.956 361.841 258.517 361.406C258.079 361.406 257.641 361.406 257.203 360.972C256.327 360.972 255.888 360.537 255.012 360.537C254.574 360.537 254.136 360.537 254.136 360.102C252.821 359.668 251.945 359.233 250.63 358.798C250.192 358.798 249.754 358.364 248.878 357.929C248.44 357.929 248.44 357.495 248.001 357.495C247.125 357.06 242.744 354.452 241.867 354.018V384.441C242.744 384.876 246.687 387.049 247.125 387.484C247.563 387.484 247.563 387.918 248.001 387.918C248.44 387.918 248.878 388.353 249.316 388.353C250.63 388.788 251.507 389.222 252.821 389.657C252.821 389.657 252.821 389.657 253.259 389.657C253.698 389.657 253.698 389.657 254.136 390.091C254.574 390.091 255.45 390.526 255.888 390.526H256.327C256.765 390.526 256.765 390.526 257.203 390.526C257.641 390.526 258.079 390.526 258.956 390.961C259.394 390.961 259.394 390.961 259.832 390.961C260.27 390.961 260.27 390.961 260.708 390.961C261.146 390.961 261.585 390.961 262.023 390.961C262.461 390.961 262.461 390.961 262.899 390.961C263.337 390.961 263.337 390.961 263.775 390.961C264.214 390.961 264.652 390.961 265.09 390.961C265.528 390.961 265.528 390.961 265.966 390.961C265.966 390.961 266.404 390.961 266.843 390.961C267.281 390.961 268.157 390.961 268.595 390.961C269.033 390.961 269.033 390.961 269.472 390.961H269.91C270.786 390.961 271.224 390.961 272.101 390.961C272.539 390.961 272.539 390.961 272.977 390.961C272.977 390.961 272.977 390.961 273.415 390.961C274.73 390.961 275.606 390.526 276.92 390.526C277.359 390.526 277.797 390.526 277.797 390.091C278.235 390.091 279.111 389.657 279.549 389.657C279.988 389.657 280.426 389.222 280.864 389.222C281.302 389.222 281.74 388.788 282.617 388.788H283.055H283.493C284.369 388.353 285.246 388.353 286.122 387.918C286.998 389.222 287.436 389.222 287.875 388.788Z" fill="url(#paint2_linear_862_31308)"/>
<circle cx="32.5" cy="29.5" r="25.5" fill="url(#paint3_linear_862_31308)"/>
<circle cx="32.5" cy="29.5" r="25.5" fill="url(#paint4_radial_862_31308)"/>
<circle cx="32.5" cy="29.5" r="25.5" fill="url(#paint5_radial_862_31308)"/>
<circle cx="32.5" cy="29.5" r="25.5" fill="url(#paint6_radial_862_31308)"/>
<circle cx="32.5" cy="29.5" r="25.5" fill="url(#paint7_radial_862_31308)"/>
<g style="mix-blend-mode:lighten">
<ellipse cx="31.1172" cy="23.0485" rx="15.8223" ry="14.1325" fill="url(#paint8_linear_862_31308)"/>
</g>
<g style="mix-blend-mode:lighten">
<path d="M21.8682 21.6597C20.8444 21.3416 20.2584 20.2433 20.741 19.286C21.5807 17.6202 22.8106 16.1701 24.3372 15.0659C25.8638 13.9616 27.626 13.2474 29.4709 12.9713C30.5312 12.8126 31.3909 13.713 31.3725 14.7849C31.3542 15.8568 30.4578 16.6871 29.4141 16.9321C28.4109 17.1677 27.4578 17.6002 26.6126 18.2116C25.7674 18.8229 25.0583 19.5928 24.5206 20.4718C23.9611 21.3863 22.8921 21.9778 21.8682 21.6597Z" fill="url(#paint9_linear_862_31308)"/>
</g>
<circle cx="497.5" cy="37.5" r="37.5" fill="url(#paint10_linear_862_31308)"/>
<circle cx="497.5" cy="37.5" r="37.5" fill="url(#paint11_radial_862_31308)"/>
<circle cx="497.5" cy="37.5" r="37.5" fill="url(#paint12_radial_862_31308)"/>
<circle cx="497.5" cy="37.5" r="37.5" fill="url(#paint13_radial_862_31308)"/>
<circle cx="497.5" cy="37.5" r="37.5" fill="url(#paint14_radial_862_31308)"/>
<g style="mix-blend-mode:lighten">
<ellipse cx="495.467" cy="28.0136" rx="23.2681" ry="20.7831" fill="url(#paint15_linear_862_31308)"/>
</g>
<g style="mix-blend-mode:lighten">
<path d="M481.865 25.9712C480.36 25.5034 479.498 23.8883 480.207 22.4804C481.442 20.0307 483.251 17.8983 485.496 16.2744C487.741 14.6504 490.332 13.6002 493.046 13.1941C494.605 12.9608 495.869 14.2848 495.842 15.8612C495.815 17.4376 494.497 18.6585 492.962 19.0189C491.487 19.3652 490.085 20.0013 488.842 20.9004C487.599 21.7994 486.556 22.9316 485.766 24.2242C484.943 25.5691 483.371 26.439 481.865 25.9712Z" fill="url(#paint16_linear_862_31308)"/>
</g>
<rect width="320.293" height="239.937" rx="40" transform="matrix(0.866025 0.5 -0.866025 0.5 202.793 39)" fill="url(#paint17_linear_862_31308)"/>
<mask id="path-17-inside-1_862_31308" fill="white">
<rect width="320.293" height="239.937" rx="40" transform="matrix(0.866025 0.5 -0.866025 0.5 209.113 10)"/>
</mask>
<rect width="320.293" height="239.937" rx="40" transform="matrix(0.866025 0.5 -0.866025 0.5 209.113 10)" stroke="url(#paint18_linear_862_31308)" stroke-width="239.937" mask="url(#path-17-inside-1_862_31308)"/>
<rect width="30.9759" height="82.1467" rx="15.4879" transform="matrix(-1.18301 -0.183013 -0.316987 0.683013 258.361 238.357)" fill="url(#paint19_linear_862_31308)"/>
<path d="M308.075 237.197C279.315 253.802 232.685 253.802 203.925 237.197C175.164 220.592 175.164 193.671 203.925 177.066C232.685 160.461 279.315 160.461 308.075 177.066C336.836 193.671 336.836 220.592 308.075 237.197ZM227.934 190.928C212.434 199.877 212.434 214.386 227.934 223.335C243.435 232.284 268.565 232.284 284.066 223.335C299.566 214.386 299.566 199.877 284.066 190.928C268.565 181.979 243.435 181.979 227.934 190.928Z" fill="url(#paint20_linear_862_31308)"/>
<rect width="15.8449" height="305.58" rx="7.92246" transform="matrix(0.866025 -0.5 -0.866025 -0.5 411.023 208.061)" fill="white"/>
<circle r="9.62012" transform="matrix(0.866025 0.5 -0.866025 0.5 211.074 52.4424)" fill="white"/>
<circle r="9.62012" transform="matrix(0.866025 0.5 -0.866025 0.5 237.537 67.7217)" fill="white"/>
<circle r="9.62012" transform="matrix(0.866025 0.5 -0.866025 0.5 264.002 82.999)" fill="white"/>
</g>
<defs>
<filter id="filter0_f_862_31308" x="-10.5625" y="214" width="556.562" height="191.938" filterUnits="userSpaceOnUse" color-interpolation-filters="sRGB">
<feFlood flood-opacity="0" result="BackgroundImageFix"/>
<feBlend mode="normal" in="SourceGraphic" in2="BackgroundImageFix" result="shape"/>
<feGaussianBlur stdDeviation="5.5" result="effect1_foregroundBlur_862_31308"/>
</filter>
<linearGradient id="paint0_linear_862_31308" x1="267.84" y1="352.232" x2="267.84" y2="44.9975" gradientUnits="userSpaceOnUse">
<stop stop-color="#F1F4FE"/>
<stop offset="0.5797" stop-color="#F7F9FE"/>
<stop offset="1" stop-color="white"/>
</linearGradient>
<linearGradient id="paint1_linear_862_31308" x1="33.3838" y1="198.621" x2="502.289" y2="198.621" gradientUnits="userSpaceOnUse">
<stop stop-color="#3A98FF"/>
<stop offset="0.6277" stop-color="#00F0FF"/>
<stop offset="1" stop-color="#00FFAC"/>
</linearGradient>
<linearGradient id="paint2_linear_862_31308" x1="242.582" y1="373.938" x2="293.464" y2="373.938" gradientUnits="userSpaceOnUse">
<stop stop-color="#EFF1FE"/>
<stop offset="1" stop-color="#E4E7FB"/>
</linearGradient>
<linearGradient id="paint3_linear_862_31308" x1="32.5" y1="4" x2="32.5" y2="55" gradientUnits="userSpaceOnUse">
<stop stop-color="#40FFC6"/>
<stop offset="0.492708" stop-color="#4AE6FF"/>
<stop offset="1" stop-color="#2595FF"/>
</linearGradient>
<radialGradient id="paint4_radial_862_31308" cx="0" cy="0" r="1" gradientUnits="userSpaceOnUse" gradientTransform="translate(22.0268 14.0179) rotate(62.6223) scale(57.4328)">
<stop offset="0.462106" stop-color="#2AA8FF" stop-opacity="0"/>
<stop offset="0.894737" stop-color="#2595FF"/>
</radialGradient>
<radialGradient id="paint5_radial_862_31308" cx="0" cy="0" r="1" gradientUnits="userSpaceOnUse" gradientTransform="translate(20.2054 14.9286) rotate(56.6259) scale(68.7046)">
<stop stop-color="#6EFFCE"/>
<stop offset="0.570035" stop-color="#A5FFFD" stop-opacity="0"/>
</radialGradient>
<radialGradient id="paint6_radial_862_31308" cx="0" cy="0" r="1" gradientUnits="userSpaceOnUse" gradientTransform="translate(27.4911 19.4821) rotate(63.4349) scale(36.628)">
<stop offset="0.672439" stop-color="#9EC6FD" stop-opacity="0"/>
<stop offset="1" stop-color="white"/>
</radialGradient>
<radialGradient id="paint7_radial_862_31308" cx="0" cy="0" r="1" gradientUnits="userSpaceOnUse" gradientTransform="translate(29.7432 23.9865) rotate(62.0378) scale(31.6014)">
<stop offset="0.961458" stop-color="#2AA8FF" stop-opacity="0"/>
<stop offset="1" stop-color="#058AFF" stop-opacity="0.26"/>
</radialGradient>
<linearGradient id="paint8_linear_862_31308" x1="22.0759" y1="12.5631" x2="33.4835" y2="25.2325" gradientUnits="userSpaceOnUse">
<stop stop-color="white" stop-opacity="0.86"/>
<stop offset="1" stop-color="#D9D9D9" stop-opacity="0"/>
</linearGradient>
<linearGradient id="paint9_linear_862_31308" x1="31.1227" y1="13.9927" x2="24.2308" y2="21.9184" gradientUnits="userSpaceOnUse">
<stop stop-color="white"/>
<stop offset="1" stop-color="#FFFFE9" stop-opacity="0.38"/>
</linearGradient>
<linearGradient id="paint10_linear_862_31308" x1="497.5" y1="0" x2="497.5" y2="75" gradientUnits="userSpaceOnUse">
<stop stop-color="#40FFC6"/>
<stop offset="0.492708" stop-color="#4AE6FF"/>
<stop offset="1" stop-color="#2595FF"/>
</linearGradient>
<radialGradient id="paint11_radial_862_31308" cx="0" cy="0" r="1" gradientUnits="userSpaceOnUse" gradientTransform="translate(482.098 14.7321) rotate(62.6223) scale(84.46)">
<stop offset="0.462106" stop-color="#2AA8FF" stop-opacity="0"/>
<stop offset="0.894737" stop-color="#2595FF"/>
</radialGradient>
<radialGradient id="paint12_radial_862_31308" cx="0" cy="0" r="1" gradientUnits="userSpaceOnUse" gradientTransform="translate(479.42 16.0714) rotate(56.6259) scale(101.036)">
<stop stop-color="#6EFFCE"/>
<stop offset="0.570035" stop-color="#A5FFFD" stop-opacity="0"/>
</radialGradient>
<radialGradient id="paint13_radial_862_31308" cx="0" cy="0" r="1" gradientUnits="userSpaceOnUse" gradientTransform="translate(490.134 22.7679) rotate(63.4349) scale(53.8647)">
<stop offset="0.672439" stop-color="#9EC6FD" stop-opacity="0"/>
<stop offset="1" stop-color="white"/>
</radialGradient>
<radialGradient id="paint14_radial_862_31308" cx="0" cy="0" r="1" gradientUnits="userSpaceOnUse" gradientTransform="translate(493.446 29.3919) rotate(62.0378) scale(46.4727)">
<stop offset="0.961458" stop-color="#2AA8FF" stop-opacity="0"/>
<stop offset="1" stop-color="#058AFF" stop-opacity="0.26"/>
</radialGradient>
<linearGradient id="paint15_linear_862_31308" x1="482.171" y1="12.5939" x2="498.947" y2="31.2254" gradientUnits="userSpaceOnUse">
<stop stop-color="white" stop-opacity="0.86"/>
<stop offset="1" stop-color="#D9D9D9" stop-opacity="0"/>
</linearGradient>
<linearGradient id="paint16_linear_862_31308" x1="495.475" y1="14.6962" x2="485.34" y2="26.3516" gradientUnits="userSpaceOnUse">
<stop stop-color="white"/>
<stop offset="1" stop-color="#FFFFE9" stop-opacity="0.38"/>
</linearGradient>
<linearGradient id="paint17_linear_862_31308" x1="160.147" y1="0" x2="160.147" y2="239.937" gradientUnits="userSpaceOnUse">
<stop stop-color="#00CBFF" stop-opacity="0.3"/>
<stop offset="1" stop-color="#3A98FF" stop-opacity="0"/>
</linearGradient>
<linearGradient id="paint18_linear_862_31308" x1="58.2866" y1="-27.1627" x2="217.302" y2="230.317" gradientUnits="userSpaceOnUse">
<stop stop-color="#40FFC6"/>
<stop offset="0.503125" stop-color="#00DBFF"/>
<stop offset="1" stop-color="#2595FF"/>
</linearGradient>
<linearGradient id="paint19_linear_862_31308" x1="15.4879" y1="0" x2="15.4879" y2="82.1467" gradientUnits="userSpaceOnUse">
<stop stop-color="#3A98FF"/>
<stop offset="0.45625" stop-color="#00CBFF"/>
<stop offset="1" stop-color="#48FAC9"/>
</linearGradient>
<linearGradient id="paint20_linear_862_31308" x1="304.393" y1="278.196" x2="266.552" y2="144.321" gradientUnits="userSpaceOnUse">
<stop stop-color="#3A98FF"/>
<stop offset="0.45625" stop-color="#00CBFF"/>
<stop offset="1" stop-color="#48FAC9"/>
</linearGradient>
<clipPath id="clip0_862_31308">
<rect width="535" height="422" fill="white"/>
</clipPath>
</defs>
</svg>
