<svg width="535" height="422" viewBox="0 0 535 422" fill="none" xmlns="http://www.w3.org/2000/svg">
<g clip-path="url(#clip0_876_33990)">
<g filter="url(#filter0_f_876_33990)">
<path d="M9.63897 254.554C-2.62966 247.6 -2.62966 235.866 9.63897 228.912L244.496 230.215C256.764 223.262 276.92 223.262 289.627 230.215L525.798 228.912C538.066 235.866 538.066 247.6 525.798 254.554L290.941 389.723C278.673 396.677 258.517 396.677 245.81 389.723L9.63897 254.554Z" fill="#C5D9EF"/>
</g>
<path d="M535 210.157C535 210.592 535 211.027 535 211.027C535 211.461 535 211.461 535 211.896C535 212.331 535 212.765 534.562 212.765C534.562 213.2 534.562 213.2 534.124 213.634C534.124 214.069 533.686 214.069 533.686 214.504C533.248 214.938 533.248 215.373 532.809 215.808C532.371 216.242 532.371 216.677 531.933 217.111C531.933 217.111 531.933 217.111 531.495 217.546C531.057 217.981 530.619 218.415 530.18 218.85C529.742 219.285 529.304 219.285 529.304 219.719C528.866 220.154 528.866 220.154 528.428 220.588C527.99 221.023 527.551 221.023 527.113 221.458C526.675 221.892 526.237 221.892 525.799 222.327L290.942 357.061L290.504 387.05L525.361 251.447C525.361 251.447 525.799 251.447 525.799 251.012C526.237 251.012 526.237 250.578 526.675 250.578C527.113 250.143 527.551 250.143 527.99 249.708C528.428 249.274 528.428 249.274 528.866 248.839C529.304 248.404 529.742 248.404 529.742 247.97C530.18 247.535 530.619 247.101 531.057 246.666C531.057 246.666 531.057 246.666 531.057 246.231C531.057 245.797 531.495 245.797 531.495 245.362L531.933 244.927C531.933 244.927 531.933 244.927 531.933 244.493C532.371 244.058 532.371 243.624 532.809 243.624C532.809 243.624 532.809 243.624 532.809 243.189C532.809 242.754 533.248 242.754 533.248 242.32C533.248 242.32 533.248 241.885 533.686 241.885C533.686 241.885 533.686 241.885 533.686 241.45C533.686 241.016 533.686 241.016 534.124 240.581V240.147C534.124 239.712 534.124 239.277 534.124 239.277C534.124 238.843 534.124 238.843 534.124 238.408C534.124 238.408 534.124 238.408 534.124 237.973L534.562 207.984C535 209.288 535 209.723 535 210.157Z" fill="#E1EDFF"/>
<path d="M9.63964 221.892C3.50532 218.415 0.438165 213.634 0.438165 208.854L0 238.843C0 243.623 3.06716 248.404 9.20147 251.881L245.811 387.05L246.249 357.061L9.63964 221.892Z" fill="#EFF1FE"/>
<path d="M525.798 196.25C538.066 203.204 538.066 214.939 525.798 221.893L290.941 357.061C278.673 364.015 258.517 364.015 245.81 357.061L9.63897 221.893C-2.62966 214.939 -2.62966 203.204 9.63897 196.25L244.496 60.6471C256.764 53.6931 276.92 53.6931 289.627 60.6471L525.798 196.25Z" fill="white"/>
<path d="M9.63897 211.461C-2.62966 204.507 -2.62966 192.772 9.63897 185.818L244.496 50.2155C256.764 43.2615 276.92 43.2615 289.627 50.2155L525.798 185.818C538.066 192.772 538.066 204.507 525.798 211.461L290.941 347.064C278.673 354.018 258.517 354.018 245.81 347.064L9.63897 211.461Z" fill="url(#paint0_linear_876_33990)"/>
<path d="M268.595 333.591C261.146 333.591 254.136 331.853 248.439 328.811L42.0634 210.593C36.8054 207.55 33.7383 203.204 33.7383 198.858C33.7383 194.512 36.8054 190.165 42.0634 187.123L247.125 68.4703C252.383 65.428 259.394 63.6895 266.842 63.6895C274.291 63.6895 281.302 65.428 286.998 68.4703L493.812 186.688C499.07 189.731 502.137 194.077 502.137 198.423C502.137 202.769 499.07 207.116 493.812 210.158L288.312 328.811C283.054 331.853 276.044 333.591 268.595 333.591ZM267.28 64.9933C259.832 64.9933 253.259 66.7318 248.001 69.7742L42.5016 187.992C37.6818 191.035 34.6146 194.512 34.6146 198.858C34.6146 202.769 37.2436 206.681 42.5016 209.723L249.316 327.941C254.574 330.984 261.146 332.722 268.595 332.722C276.044 332.722 282.616 330.984 287.874 327.941L493.374 209.723C498.194 206.681 501.261 203.204 501.261 198.858C501.261 194.946 498.632 191.035 493.374 187.992L286.56 69.3396C281.302 66.2972 274.291 64.9933 267.28 64.9933Z" fill="url(#paint1_linear_876_33990)"/>
<path d="M287.875 388.788C288.751 388.353 292.694 386.18 293.571 385.745V355.756C292.694 356.191 289.189 357.929 288.313 358.364C287.875 358.364 287.875 358.798 287.436 358.798C286.56 359.233 285.684 359.668 284.807 359.668C284.369 359.668 284.369 360.102 283.931 360.102C283.493 360.102 283.055 360.537 282.178 360.537C281.74 360.537 281.302 360.972 280.864 360.972C280.426 360.972 279.549 361.406 279.111 361.406C278.673 361.406 278.235 361.406 277.797 361.841C276.482 361.841 275.606 362.275 274.291 362.275C273.853 362.275 273.415 362.275 272.977 362.275C272.101 362.275 271.662 362.275 270.786 362.275C270.348 362.275 269.91 362.275 269.472 362.275C269.033 362.275 268.157 362.275 267.719 362.275C267.281 362.275 266.843 362.275 266.404 362.275C265.966 362.275 265.528 362.275 264.652 362.275C264.214 362.275 263.775 362.275 263.337 362.275C262.899 362.275 262.461 362.275 261.585 362.275C261.146 362.275 260.708 362.275 260.27 361.841C259.832 361.841 258.956 361.841 258.517 361.406C258.079 361.406 257.641 361.406 257.203 360.972C256.327 360.972 255.888 360.537 255.012 360.537C254.574 360.537 254.136 360.537 254.136 360.102C252.821 359.668 251.945 359.233 250.63 358.798C250.192 358.798 249.754 358.364 248.878 357.929C248.44 357.929 248.44 357.495 248.001 357.495C247.125 357.06 242.744 354.452 241.867 354.018V384.441C242.744 384.876 246.687 387.049 247.125 387.484C247.563 387.484 247.563 387.918 248.001 387.918C248.44 387.918 248.878 388.353 249.316 388.353C250.63 388.788 251.507 389.222 252.821 389.657C252.821 389.657 252.821 389.657 253.259 389.657C253.698 389.657 253.698 389.657 254.136 390.091C254.574 390.091 255.45 390.526 255.888 390.526H256.327C256.765 390.526 256.765 390.526 257.203 390.526C257.641 390.526 258.079 390.526 258.956 390.961C259.394 390.961 259.394 390.961 259.832 390.961C260.27 390.961 260.27 390.961 260.708 390.961C261.146 390.961 261.585 390.961 262.023 390.961C262.461 390.961 262.461 390.961 262.899 390.961C263.337 390.961 263.337 390.961 263.775 390.961C264.214 390.961 264.652 390.961 265.09 390.961C265.528 390.961 265.528 390.961 265.966 390.961C265.966 390.961 266.404 390.961 266.843 390.961C267.281 390.961 268.157 390.961 268.595 390.961C269.033 390.961 269.033 390.961 269.472 390.961H269.91C270.786 390.961 271.224 390.961 272.101 390.961C272.539 390.961 272.539 390.961 272.977 390.961C272.977 390.961 272.977 390.961 273.415 390.961C274.73 390.961 275.606 390.526 276.92 390.526C277.359 390.526 277.797 390.526 277.797 390.091C278.235 390.091 279.111 389.657 279.549 389.657C279.988 389.657 280.426 389.222 280.864 389.222C281.302 389.222 281.74 388.788 282.617 388.788H283.055H283.493C284.369 388.353 285.246 388.353 286.122 387.918C286.998 389.222 287.436 389.222 287.875 388.788Z" fill="url(#paint2_linear_876_33990)"/>
<path d="M58 29.5C58 43.5833 46.5833 55 32.5 55C18.4167 55 7 43.5833 7 29.5C7 15.4167 18.4167 4 32.5 4C46.5833 4 58 15.4167 58 29.5Z" fill="url(#paint3_linear_876_33990)"/>
<path d="M58 29.5C58 43.5833 46.5833 55 32.5 55C18.4167 55 7 43.5833 7 29.5C7 15.4167 18.4167 4 32.5 4C46.5833 4 58 15.4167 58 29.5Z" fill="url(#paint4_radial_876_33990)"/>
<path d="M58 29.5C58 43.5833 46.5833 55 32.5 55C18.4167 55 7 43.5833 7 29.5C7 15.4167 18.4167 4 32.5 4C46.5833 4 58 15.4167 58 29.5Z" fill="url(#paint5_radial_876_33990)"/>
<path d="M58 29.5C58 43.5833 46.5833 55 32.5 55C18.4167 55 7 43.5833 7 29.5C7 15.4167 18.4167 4 32.5 4C46.5833 4 58 15.4167 58 29.5Z" fill="url(#paint6_radial_876_33990)"/>
<path d="M58 29.5C58 43.5833 46.5833 55 32.5 55C18.4167 55 7 43.5833 7 29.5C7 15.4167 18.4167 4 32.5 4C46.5833 4 58 15.4167 58 29.5Z" fill="url(#paint7_radial_876_33990)"/>
<g style="mix-blend-mode:lighten">
<path d="M46.9395 23.0485C46.9395 30.8537 39.8556 37.1811 31.1172 37.1811C22.3788 37.1811 15.2949 30.8537 15.2949 23.0485C15.2949 15.2434 22.3788 8.91602 31.1172 8.91602C39.8556 8.91602 46.9395 15.2434 46.9395 23.0485Z" fill="url(#paint8_linear_876_33990)"/>
</g>
<g style="mix-blend-mode:lighten">
<path d="M21.8684 21.6593C20.8446 21.3412 20.2586 20.2429 20.7412 19.2855C21.5809 17.6197 22.8108 16.1697 24.3374 15.0654C25.864 13.9612 27.6262 13.247 29.4711 12.9709C30.5314 12.8122 31.3911 13.7125 31.3727 14.7845V14.7845C31.3544 15.8564 30.458 16.6866 29.4143 16.9317C28.4111 17.1672 27.458 17.5998 26.6128 18.2111C25.7676 18.8225 25.0585 19.5923 24.5208 20.4713C23.9613 21.3859 22.8922 21.9774 21.8684 21.6593V21.6593Z" fill="url(#paint9_linear_876_33990)"/>
</g>
<path d="M535 37.5C535 58.2107 518.211 75 497.5 75C476.789 75 460 58.2107 460 37.5C460 16.7893 476.789 0 497.5 0C518.211 0 535 16.7893 535 37.5Z" fill="url(#paint10_linear_876_33990)"/>
<path d="M535 37.5C535 58.2107 518.211 75 497.5 75C476.789 75 460 58.2107 460 37.5C460 16.7893 476.789 0 497.5 0C518.211 0 535 16.7893 535 37.5Z" fill="url(#paint11_radial_876_33990)"/>
<path d="M535 37.5C535 58.2107 518.211 75 497.5 75C476.789 75 460 58.2107 460 37.5C460 16.7893 476.789 0 497.5 0C518.211 0 535 16.7893 535 37.5Z" fill="url(#paint12_radial_876_33990)"/>
<path d="M535 37.5C535 58.2107 518.211 75 497.5 75C476.789 75 460 58.2107 460 37.5C460 16.7893 476.789 0 497.5 0C518.211 0 535 16.7893 535 37.5Z" fill="url(#paint13_radial_876_33990)"/>
<path d="M535 37.5C535 58.2107 518.211 75 497.5 75C476.789 75 460 58.2107 460 37.5C460 16.7893 476.789 0 497.5 0C518.211 0 535 16.7893 535 37.5Z" fill="url(#paint14_radial_876_33990)"/>
<g style="mix-blend-mode:lighten">
<path d="M518.735 28.0136C518.735 39.4918 508.318 48.7967 495.467 48.7967C482.617 48.7967 472.199 39.4918 472.199 28.0136C472.199 16.5354 482.617 7.23047 495.467 7.23047C508.318 7.23047 518.735 16.5354 518.735 28.0136Z" fill="url(#paint15_linear_876_33990)"/>
</g>
<g style="mix-blend-mode:lighten">
<path d="M481.864 25.9708C480.359 25.503 479.497 23.8878 480.207 22.48C481.441 20.0303 483.25 17.8979 485.495 16.2739C487.74 14.65 490.332 13.5998 493.045 13.1937C494.604 12.9604 495.868 14.2844 495.841 15.8608V15.8608C495.814 17.4372 494.496 18.6581 492.961 19.0184C491.486 19.3648 490.084 20.0009 488.841 20.9C487.598 21.799 486.556 22.9312 485.765 24.2238C484.942 25.5687 483.37 26.4386 481.864 25.9708V25.9708Z" fill="url(#paint16_linear_876_33990)"/>
</g>
<path d="M168.152 59C187.284 47.9543 218.302 47.9543 237.434 59L445.534 179.147C464.666 190.192 464.666 208.101 445.534 219.147L307.025 299.115C287.893 310.161 256.874 310.161 237.743 299.115L29.6424 178.969C10.5107 167.923 10.5106 150.014 29.6423 138.969L168.152 59Z" fill="url(#paint17_linear_876_33990)"/>
<path fill-rule="evenodd" clip-rule="evenodd" d="M243.754 30C224.623 18.9543 193.604 18.9543 174.472 30L35.9626 109.969C16.8309 121.014 16.831 138.923 35.9627 149.969L244.063 270.115C263.195 281.161 294.213 281.161 313.345 270.115L451.855 190.147C470.986 179.101 470.986 161.192 451.854 150.147L243.754 30Z" fill="url(#paint18_linear_876_33990)"/>
<path d="M253.452 248.936C256.163 243.094 250.158 237.088 240.039 235.523V235.523C229.92 233.957 219.518 237.425 216.807 243.267L200.586 278.217C197.875 284.06 203.88 290.065 213.999 291.63V291.63C224.119 293.196 234.52 289.729 237.231 283.886L253.452 248.936Z" fill="url(#paint19_linear_876_33990)"/>
<path d="M308.075 237.197C279.315 253.802 232.685 253.802 203.925 237.197C175.164 220.592 175.164 193.671 203.925 177.066C232.685 160.461 279.315 160.461 308.075 177.066C336.836 193.671 336.836 220.592 308.075 237.197ZM227.934 190.928C212.434 199.877 212.434 214.386 227.934 223.335C243.435 232.284 268.565 232.284 284.066 223.335C299.566 214.386 299.566 199.877 284.066 190.928C268.565 181.979 243.435 181.979 227.934 190.928Z" fill="url(#paint20_linear_876_33990)"/>
<path d="M404.162 204.099C407.952 206.287 414.095 206.287 417.884 204.099V204.099C421.674 201.912 421.674 198.365 417.884 196.177L166.966 51.3092C163.177 49.1214 157.033 49.1214 153.244 51.3092V51.3092C149.455 53.4969 149.455 57.0439 153.244 59.2316L404.162 204.099Z" fill="white"/>
<path d="M219.405 57.2524C214.804 59.909 207.344 59.909 202.743 57.2524C198.142 54.5959 198.142 50.2889 202.743 47.6323C207.344 44.9758 214.804 44.9758 219.405 47.6323C224.007 50.2888 224.007 54.5959 219.405 57.2524Z" fill="white"/>
<path d="M245.868 72.5317C241.267 75.1883 233.807 75.1883 229.206 72.5317C224.605 69.8752 224.605 65.5681 229.206 62.9116C233.807 60.2551 241.267 60.2551 245.868 62.9116C250.47 65.5681 250.47 69.8752 245.868 72.5317Z" fill="white"/>
<path d="M272.333 87.8091C267.732 90.4656 260.272 90.4656 255.671 87.8091C251.069 85.1526 251.069 80.8455 255.671 78.189C260.272 75.5324 267.732 75.5324 272.333 78.189C276.934 80.8455 276.934 85.1526 272.333 87.8091Z" fill="white"/>
</g>
<defs>
<filter id="filter0_f_876_33990" x="-10.5625" y="214" width="556.562" height="191.938" filterUnits="userSpaceOnUse" color-interpolation-filters="sRGB">
<feFlood flood-opacity="0" result="BackgroundImageFix"/>
<feBlend mode="normal" in="SourceGraphic" in2="BackgroundImageFix" result="shape"/>
<feGaussianBlur stdDeviation="5.5" result="effect1_foregroundBlur_876_33990"/>
</filter>
<linearGradient id="paint0_linear_876_33990" x1="267.84" y1="352.232" x2="267.84" y2="44.9975" gradientUnits="userSpaceOnUse">
<stop stop-color="#F1F4FE"/>
<stop offset="0.5797" stop-color="#F7F9FE"/>
<stop offset="1" stop-color="white"/>
</linearGradient>
<linearGradient id="paint1_linear_876_33990" x1="33.3838" y1="198.621" x2="502.289" y2="198.621" gradientUnits="userSpaceOnUse">
<stop stop-color="#3A98FF"/>
<stop offset="0.6277" stop-color="#00F0FF"/>
<stop offset="1" stop-color="#00FFAC"/>
</linearGradient>
<linearGradient id="paint2_linear_876_33990" x1="242.582" y1="373.938" x2="293.464" y2="373.938" gradientUnits="userSpaceOnUse">
<stop stop-color="#EFF1FE"/>
<stop offset="1" stop-color="#E4E7FB"/>
</linearGradient>
<linearGradient id="paint3_linear_876_33990" x1="32.5" y1="4" x2="32.5" y2="55" gradientUnits="userSpaceOnUse">
<stop stop-color="#40FFC6"/>
<stop offset="0.492708" stop-color="#4AE6FF"/>
<stop offset="1" stop-color="#2595FF"/>
</linearGradient>
<radialGradient id="paint4_radial_876_33990" cx="0" cy="0" r="1" gradientUnits="userSpaceOnUse" gradientTransform="translate(22.0268 14.0179) rotate(62.6223) scale(57.4328)">
<stop offset="0.462106" stop-color="#2AA8FF" stop-opacity="0"/>
<stop offset="0.894737" stop-color="#2595FF"/>
</radialGradient>
<radialGradient id="paint5_radial_876_33990" cx="0" cy="0" r="1" gradientUnits="userSpaceOnUse" gradientTransform="translate(20.2054 14.9286) rotate(56.6259) scale(68.7046)">
<stop stop-color="#6EFFCE"/>
<stop offset="0.570035" stop-color="#A5FFFD" stop-opacity="0"/>
</radialGradient>
<radialGradient id="paint6_radial_876_33990" cx="0" cy="0" r="1" gradientUnits="userSpaceOnUse" gradientTransform="translate(27.4911 19.4821) rotate(63.4349) scale(36.628)">
<stop offset="0.672439" stop-color="#9EC6FD" stop-opacity="0"/>
<stop offset="1" stop-color="white"/>
</radialGradient>
<radialGradient id="paint7_radial_876_33990" cx="0" cy="0" r="1" gradientUnits="userSpaceOnUse" gradientTransform="translate(29.7432 23.9865) rotate(62.0378) scale(31.6014)">
<stop offset="0.961458" stop-color="#2AA8FF" stop-opacity="0"/>
<stop offset="1" stop-color="#058AFF" stop-opacity="0.26"/>
</radialGradient>
<linearGradient id="paint8_linear_876_33990" x1="22.0759" y1="12.5631" x2="33.4835" y2="25.2325" gradientUnits="userSpaceOnUse">
<stop stop-color="white" stop-opacity="0.86"/>
<stop offset="1" stop-color="#D9D9D9" stop-opacity="0"/>
</linearGradient>
<linearGradient id="paint9_linear_876_33990" x1="31.1227" y1="13.9927" x2="24.2308" y2="21.9184" gradientUnits="userSpaceOnUse">
<stop stop-color="white"/>
<stop offset="1" stop-color="#FFFFE9" stop-opacity="0.38"/>
</linearGradient>
<linearGradient id="paint10_linear_876_33990" x1="497.5" y1="0" x2="497.5" y2="75" gradientUnits="userSpaceOnUse">
<stop stop-color="#40FFC6"/>
<stop offset="0.492708" stop-color="#4AE6FF"/>
<stop offset="1" stop-color="#2595FF"/>
</linearGradient>
<radialGradient id="paint11_radial_876_33990" cx="0" cy="0" r="1" gradientUnits="userSpaceOnUse" gradientTransform="translate(482.098 14.7321) rotate(62.6223) scale(84.46)">
<stop offset="0.462106" stop-color="#2AA8FF" stop-opacity="0"/>
<stop offset="0.894737" stop-color="#2595FF"/>
</radialGradient>
<radialGradient id="paint12_radial_876_33990" cx="0" cy="0" r="1" gradientUnits="userSpaceOnUse" gradientTransform="translate(479.42 16.0714) rotate(56.6259) scale(101.036)">
<stop stop-color="#6EFFCE"/>
<stop offset="0.570035" stop-color="#A5FFFD" stop-opacity="0"/>
</radialGradient>
<radialGradient id="paint13_radial_876_33990" cx="0" cy="0" r="1" gradientUnits="userSpaceOnUse" gradientTransform="translate(490.134 22.7679) rotate(63.4349) scale(53.8647)">
<stop offset="0.672439" stop-color="#9EC6FD" stop-opacity="0"/>
<stop offset="1" stop-color="white"/>
</radialGradient>
<radialGradient id="paint14_radial_876_33990" cx="0" cy="0" r="1" gradientUnits="userSpaceOnUse" gradientTransform="translate(493.446 29.3919) rotate(62.0378) scale(46.4727)">
<stop offset="0.961458" stop-color="#2AA8FF" stop-opacity="0"/>
<stop offset="1" stop-color="#058AFF" stop-opacity="0.26"/>
</radialGradient>
<linearGradient id="paint15_linear_876_33990" x1="482.171" y1="12.5939" x2="498.947" y2="31.2254" gradientUnits="userSpaceOnUse">
<stop stop-color="white" stop-opacity="0.86"/>
<stop offset="1" stop-color="#D9D9D9" stop-opacity="0"/>
</linearGradient>
<linearGradient id="paint16_linear_876_33990" x1="495.475" y1="14.6962" x2="485.34" y2="26.3516" gradientUnits="userSpaceOnUse">
<stop stop-color="white"/>
<stop offset="1" stop-color="#FFFFE9" stop-opacity="0.38"/>
</linearGradient>
<linearGradient id="paint17_linear_876_33990" x1="341.484" y1="119.073" x2="237.588" y2="299.026" gradientUnits="userSpaceOnUse">
<stop stop-color="#00CBFF" stop-opacity="0.3"/>
<stop offset="1" stop-color="#3A98FF" stop-opacity="0"/>
</linearGradient>
<linearGradient id="paint18_linear_876_33990" x1="283.115" y1="25.562" x2="253.65" y2="241.427" gradientUnits="userSpaceOnUse">
<stop stop-color="#40FFC6"/>
<stop offset="0.503125" stop-color="#00DBFF"/>
<stop offset="1" stop-color="#2595FF"/>
</linearGradient>
<linearGradient id="paint19_linear_876_33990" x1="240.039" y1="235.523" x2="230.953" y2="294.253" gradientUnits="userSpaceOnUse">
<stop stop-color="#3A98FF"/>
<stop offset="0.45625" stop-color="#00CBFF"/>
<stop offset="1" stop-color="#48FAC9"/>
</linearGradient>
<linearGradient id="paint20_linear_876_33990" x1="304.393" y1="278.196" x2="266.552" y2="144.321" gradientUnits="userSpaceOnUse">
<stop stop-color="#3A98FF"/>
<stop offset="0.45625" stop-color="#00CBFF"/>
<stop offset="1" stop-color="#48FAC9"/>
</linearGradient>
<clipPath id="clip0_876_33990">
<rect width="535" height="422" fill="white"/>
</clipPath>
</defs>
</svg>
