<svg width="535" height="422" viewBox="0 0 535 422" fill="none" xmlns="http://www.w3.org/2000/svg">
<g clip-path="url(#clip0_862_35308)">
<g filter="url(#filter0_f_862_35308)">
<path d="M9.63897 254.554C-2.62966 247.6 -2.62966 235.866 9.63897 228.912L244.496 230.215C256.764 223.262 276.92 223.262 289.627 230.215L525.798 228.912C538.066 235.866 538.066 247.6 525.798 254.554L290.941 389.723C278.673 396.677 258.517 396.677 245.81 389.723L9.63897 254.554Z" fill="#C5D9EF"/>
</g>
<path d="M535 210.157C535 210.592 535 211.027 535 211.027C535 211.461 535 211.461 535 211.896C535 212.331 535 212.765 534.562 212.765C534.562 213.2 534.562 213.2 534.124 213.634C534.124 214.069 533.686 214.069 533.686 214.504C533.248 214.938 533.248 215.373 532.809 215.808C532.371 216.242 532.371 216.677 531.933 217.111C531.933 217.111 531.933 217.111 531.495 217.546C531.057 217.981 530.619 218.415 530.18 218.85C529.742 219.285 529.304 219.285 529.304 219.719C528.866 220.154 528.866 220.154 528.428 220.588C527.99 221.023 527.551 221.023 527.113 221.458C526.675 221.892 526.237 221.892 525.799 222.327L290.942 357.061L290.504 387.05L525.361 251.447C525.361 251.447 525.799 251.447 525.799 251.012C526.237 251.012 526.237 250.578 526.675 250.578C527.113 250.143 527.551 250.143 527.99 249.708C528.428 249.274 528.428 249.274 528.866 248.839C529.304 248.404 529.742 248.404 529.742 247.97C530.18 247.535 530.619 247.101 531.057 246.666C531.057 246.666 531.057 246.666 531.057 246.231C531.057 245.797 531.495 245.797 531.495 245.362L531.933 244.927C531.933 244.927 531.933 244.927 531.933 244.493C532.371 244.058 532.371 243.624 532.809 243.624C532.809 243.624 532.809 243.624 532.809 243.189C532.809 242.754 533.248 242.754 533.248 242.32C533.248 242.32 533.248 241.885 533.686 241.885C533.686 241.885 533.686 241.885 533.686 241.45C533.686 241.016 533.686 241.016 534.124 240.581V240.147C534.124 239.712 534.124 239.277 534.124 239.277C534.124 238.843 534.124 238.843 534.124 238.408C534.124 238.408 534.124 238.408 534.124 237.973L534.562 207.984C535 209.288 535 209.723 535 210.157Z" fill="#E1EDFF"/>
<path d="M9.63964 221.89C3.50532 218.413 0.438165 213.632 0.438165 208.852L0 238.841C0 243.622 3.06716 248.402 9.20147 251.879L245.811 387.048L246.249 357.059L9.63964 221.89Z" fill="#EFF1FE"/>
<path d="M525.798 196.248C538.066 203.202 538.066 214.937 525.798 221.891L290.941 357.059C278.673 364.013 258.517 364.013 245.81 357.059L9.63897 221.891C-2.62966 214.937 -2.62966 203.202 9.63897 196.248L244.496 60.6452C256.764 53.6912 276.92 53.6912 289.627 60.6452L525.798 196.248Z" fill="white"/>
<path d="M9.63897 211.461C-2.62966 204.507 -2.62966 192.772 9.63897 185.818L244.496 50.2155C256.764 43.2615 276.92 43.2615 289.627 50.2155L525.798 185.818C538.066 192.772 538.066 204.507 525.798 211.461L290.941 347.064C278.673 354.018 258.517 354.018 245.81 347.064L9.63897 211.461Z" fill="url(#paint0_linear_862_35308)"/>
<path d="M268.595 333.589C261.146 333.589 254.136 331.851 248.439 328.809L42.0634 210.591C36.8054 207.548 33.7383 203.202 33.7383 198.856C33.7383 194.51 36.8054 190.163 42.0634 187.121L247.125 68.4684C252.383 65.426 259.394 63.6875 266.842 63.6875C274.291 63.6875 281.302 65.426 286.998 68.4684L493.812 186.686C499.07 189.729 502.137 194.075 502.137 198.421C502.137 202.767 499.07 207.114 493.812 210.156L288.312 328.809C283.054 331.851 276.044 333.589 268.595 333.589ZM267.28 64.9914C259.832 64.9914 253.259 66.7299 248.001 69.7722L42.5016 187.99C37.6818 191.033 34.6146 194.51 34.6146 198.856C34.6146 202.767 37.2436 206.679 42.5016 209.721L249.316 327.939C254.574 330.982 261.146 332.72 268.595 332.72C276.044 332.72 282.616 330.982 287.874 327.939L493.374 209.721C498.194 206.679 501.261 203.202 501.261 198.856C501.261 194.944 498.632 191.033 493.374 187.99L286.56 69.3376C281.302 66.2952 274.291 64.9914 267.28 64.9914Z" fill="url(#paint1_linear_862_35308)"/>
<path d="M287.875 388.786C288.751 388.351 292.694 386.178 293.571 385.743V355.754C292.694 356.189 289.189 357.927 288.313 358.362C287.875 358.362 287.875 358.796 287.436 358.796C286.56 359.231 285.684 359.666 284.807 359.666C284.369 359.666 284.369 360.1 283.931 360.1C283.493 360.1 283.055 360.535 282.178 360.535C281.74 360.535 281.302 360.97 280.864 360.97C280.426 360.97 279.549 361.404 279.111 361.404C278.673 361.404 278.235 361.404 277.797 361.839C276.482 361.839 275.606 362.274 274.291 362.274C273.853 362.274 273.415 362.274 272.977 362.274C272.101 362.274 271.662 362.274 270.786 362.274C270.348 362.274 269.91 362.274 269.472 362.274C269.033 362.274 268.157 362.274 267.719 362.274C267.281 362.274 266.843 362.274 266.404 362.274C265.966 362.274 265.528 362.274 264.652 362.274C264.214 362.274 263.775 362.274 263.337 362.274C262.899 362.274 262.461 362.274 261.585 362.274C261.146 362.274 260.708 362.274 260.27 361.839C259.832 361.839 258.956 361.839 258.517 361.404C258.079 361.404 257.641 361.404 257.203 360.97C256.327 360.97 255.888 360.535 255.012 360.535C254.574 360.535 254.136 360.535 254.136 360.1C252.821 359.666 251.945 359.231 250.63 358.796C250.192 358.796 249.754 358.362 248.878 357.927C248.44 357.927 248.44 357.493 248.001 357.493C247.125 357.058 242.744 354.45 241.867 354.016V384.439C242.744 384.874 246.687 387.047 247.125 387.482C247.563 387.482 247.563 387.916 248.001 387.916C248.44 387.916 248.878 388.351 249.316 388.351C250.63 388.786 251.507 389.22 252.821 389.655C252.821 389.655 252.821 389.655 253.259 389.655C253.698 389.655 253.698 389.655 254.136 390.089C254.574 390.089 255.45 390.524 255.888 390.524H256.327C256.765 390.524 256.765 390.524 257.203 390.524C257.641 390.524 258.079 390.524 258.956 390.959C259.394 390.959 259.394 390.959 259.832 390.959C260.27 390.959 260.27 390.959 260.708 390.959C261.146 390.959 261.585 390.959 262.023 390.959C262.461 390.959 262.461 390.959 262.899 390.959C263.337 390.959 263.337 390.959 263.775 390.959C264.214 390.959 264.652 390.959 265.09 390.959C265.528 390.959 265.528 390.959 265.966 390.959C265.966 390.959 266.404 390.959 266.843 390.959C267.281 390.959 268.157 390.959 268.595 390.959C269.033 390.959 269.033 390.959 269.472 390.959H269.91C270.786 390.959 271.224 390.959 272.101 390.959C272.539 390.959 272.539 390.959 272.977 390.959C272.977 390.959 272.977 390.959 273.415 390.959C274.73 390.959 275.606 390.524 276.92 390.524C277.359 390.524 277.797 390.524 277.797 390.089C278.235 390.089 279.111 389.655 279.549 389.655C279.988 389.655 280.426 389.22 280.864 389.22C281.302 389.22 281.74 388.786 282.617 388.786H283.055H283.493C284.369 388.351 285.246 388.351 286.122 387.916C286.998 389.22 287.436 389.22 287.875 388.786Z" fill="url(#paint2_linear_862_35308)"/>
<path d="M446.64 171.269C447.549 170.578 447.213 169.709 446.513 169.231C445.819 168.757 431.195 160.054 431.195 160.054C431.195 160.054 430.836 145.921 430.836 144.504C430.837 143.088 428.07 141.919 426.861 141.541C426.844 141.538 423.806 140.612 418.69 139.055C420.154 137.455 421.797 135.397 423.042 133.095C427.058 125.671 425.044 119.357 417.232 114.833C417.22 114.826 417.214 114.823 417.203 114.816C416.659 114.502 416.068 114.222 415.478 113.934C415.525 113.64 415.565 113.35 415.588 113.056C415.825 108.983 413.233 105.435 407.84 102.501C397.447 96.835 380.086 95.2381 358.965 98.0111C344.104 99.9622 328.277 104.055 318.167 108.462C302.971 103.838 292.347 100.604 292.109 100.533C284.413 98.2147 284.049 98.2114 277.764 100.958C273.025 103.039 139.21 162.603 139.21 162.603L245.416 249.566L314.909 273.711C314.909 273.711 445.731 171.961 446.64 171.269ZM410.27 136.493C406.399 135.313 401.995 133.974 397.221 132.52C402.261 129.523 408.771 125.063 412.539 120.135C418.754 125.401 413.852 132.587 410.27 136.493ZM388.419 129.844C379.606 127.161 369.988 124.234 360.342 121.298C370.347 117.913 382.175 115.622 392.181 115.418C395.902 115.341 400.56 115.551 404.761 116.56C401.723 121.542 394.073 126.66 388.419 129.844ZM401.318 106.5C403.743 107.84 405.218 109.294 405.803 110.927C401.654 110.169 396.978 109.821 391.845 109.925C378.541 110.196 362.934 113.527 350.66 118.348C342.651 115.909 334.81 113.527 327.6 111.328C347.31 103.965 385.271 97.757 401.318 106.5Z" fill="url(#paint3_linear_862_35308)"/>
<path d="M446.516 169.235C445.822 168.761 431.199 160.057 431.199 160.057C431.199 160.057 430.84 145.925 430.84 144.508C430.84 143.98 430.458 143.486 429.908 143.055L245.436 249.566L314.919 273.712C314.919 273.712 445.735 171.965 446.644 171.273C447.552 170.581 447.211 169.709 446.516 169.235Z" fill="url(#paint4_linear_862_35308)"/>
<path d="M356.067 150.068L325.421 160.298C325.421 160.298 321.492 154.241 312.406 149.617C299.079 142.838 291.041 147.325 289.184 148.545C279.051 155.183 305.144 172.974 281.406 188.523C262.732 200.755 237.27 201.797 219.152 192.579C197.405 181.514 198.209 168.046 198.209 168.046L220.981 159.904C220.981 159.904 223.764 171.387 233.41 176.295C239.712 179.499 246.651 177.939 249.845 175.847C263.062 167.187 239.058 154.291 260.776 140.062C279.051 128.088 311.631 124.072 341.681 139.364C353.272 145.247 356.067 150.068 356.067 150.068Z" fill="url(#paint5_linear_862_35308)"/>
<path d="M446.64 157.269C447.549 156.578 447.213 155.709 446.513 155.231C445.819 154.757 431.195 146.054 431.195 146.054C431.195 146.054 430.836 131.921 430.836 130.504C430.837 129.088 428.07 127.919 426.861 127.541C426.844 127.538 423.806 126.612 418.69 125.055C420.154 123.455 421.797 121.397 423.042 119.095C427.058 111.671 425.044 105.357 417.232 100.833C417.22 100.826 417.214 100.823 417.203 100.816C416.659 100.502 416.068 100.222 415.478 99.9343C415.525 99.6403 415.565 99.3496 415.588 99.0556C415.825 94.9828 413.233 91.4348 407.84 88.5013C397.447 82.835 380.086 81.2381 358.965 84.0111C344.104 85.9622 328.277 90.055 318.167 94.4618C302.971 89.8377 292.347 86.6035 292.109 86.5335C284.413 84.2147 284.049 84.2114 277.764 86.9578C273.025 89.0391 139.21 148.603 139.21 148.603L245.416 235.566L314.909 259.711C314.909 259.711 445.731 157.961 446.64 157.269ZM410.27 122.493C406.399 121.313 401.995 119.974 397.221 118.52C402.261 115.523 408.771 111.063 412.539 106.135C418.754 111.401 413.852 118.587 410.27 122.493ZM388.419 115.844C379.606 113.161 369.988 110.234 360.342 107.298C370.347 103.913 382.175 101.622 392.181 101.418C395.902 101.341 400.56 101.551 404.761 102.56C401.723 107.542 394.073 112.66 388.419 115.844ZM401.318 92.5004C403.743 93.8402 405.218 95.2936 405.803 96.9274C401.654 96.169 396.978 95.8214 391.845 95.9251C378.541 96.1956 362.934 99.5266 350.66 104.348C342.651 101.909 334.81 99.5267 327.6 97.3283C347.31 89.9648 385.271 83.757 401.318 92.5004Z" fill="#95BF47"/>
<path d="M446.516 155.235C445.822 154.761 431.199 146.057 431.199 146.057C431.199 146.057 430.84 131.925 430.84 130.508C430.84 129.98 430.458 129.486 429.908 129.055L245.436 235.566L314.919 259.712C314.919 259.712 445.735 157.965 446.644 157.273C447.552 156.581 447.211 155.709 446.516 155.235Z" fill="#5E8E3E"/>
<path d="M356.067 136.068L325.421 146.298C325.421 146.298 321.492 140.241 312.406 135.617C299.079 128.838 291.041 133.325 289.184 134.545C279.051 141.183 305.144 158.974 281.406 174.523C262.732 186.755 237.27 187.797 219.152 178.579C197.405 167.514 198.209 154.046 198.209 154.046L220.981 145.904C220.981 145.904 223.764 157.387 233.41 162.295C239.712 165.499 246.651 163.939 249.845 161.847C263.062 153.187 239.058 140.291 260.776 126.062C279.051 114.088 311.631 110.072 341.681 125.364C353.272 131.247 356.067 136.068 356.067 136.068Z" fill="white"/>
<path d="M104.456 195.543C103.317 193.327 103.177 191.931 104.741 191.028C106.732 189.878 109.788 190.166 112.562 191.767C115.792 193.632 117.325 196.077 117.325 196.077L126.568 193.367C126.568 193.367 126.112 191.215 119.957 187.661C111.39 182.715 100.548 182.12 93.6508 186.101C89.7404 188.359 89.5261 191.684 91.0929 195.05C92.3741 197.758 92.2312 199.073 90.4546 200.098C88.6064 201.165 85.6202 201.165 82.8481 199.565C78.7167 197.18 76.949 193.695 76.949 193.695L67.5637 196.323C67.5637 196.323 68.7511 199.799 74.8152 203.301C83.6315 208.391 94.2959 209.54 102.117 205.025C106.306 202.603 106.094 199.033 104.456 195.543Z" fill="black"/>
<path d="M154.222 207.362C149.885 204.858 144.41 204.078 138.654 204.365L138.583 204.242L162.043 195.047L152.231 189.383L92.5843 212.82L102.396 218.485L122.798 210.481C130.548 207.484 137.868 207.115 140.998 208.922C143.201 210.194 142.562 211.549 140.429 212.781C139.078 213.561 137.299 214.423 135.665 215.039L112.348 224.233L122.16 229.898L146.26 220.416C148.821 219.431 151.664 218.119 153.371 217.133C158.914 213.928 159.34 210.317 154.222 207.362Z" fill="black"/>
<path d="M184.437 224.809C172.634 217.994 154.152 219.638 142.28 226.492C134.674 230.883 133.251 237.121 142.068 242.212C153.656 248.902 171.855 247.425 184.013 240.406C191.05 236.343 193.608 230.103 184.437 224.809ZM150.88 238.601C147.538 236.671 148.96 234.209 152.515 232.156C158.131 228.914 170.218 225.302 175.549 228.381C179.033 230.392 177.182 232.772 174.267 234.455C168.226 237.943 156.071 241.598 150.88 238.601Z" fill="black"/>
<path d="M222.828 246.972C216.205 243.149 206.617 244.345 206.617 244.345L206.477 244.263L212.307 241.555L203.633 236.547C199.652 238.354 193.466 241.02 188.633 242.91L145.906 259.696L155.718 265.361L172.921 258.546L173.136 258.67C173.136 258.67 173.87 260.571 177.616 262.734C189.132 269.383 208.468 266.92 220.413 260.024C227.022 256.208 230.008 251.117 222.828 246.972ZM184.58 258.218C182.033 256.748 181.947 255.057 181.947 255.057L192.754 250.706C200.006 247.834 207.258 247.34 210.671 249.311C213.657 251.035 211.808 253.169 209.177 254.688C202.849 258.341 190.054 261.379 184.58 258.218Z" fill="black"/>
<path d="M197.663 273.488L207.472 279.152L248.92 262.941L239.036 257.235L197.663 273.488Z" fill="black"/>
<path d="M273.945 277.306L267.12 273.365L269.11 272.625C273.021 271.025 277.998 270.45 281.268 272.338C283.014 273.346 283.897 274.431 283.897 274.431L293.495 271.107C293.495 271.107 292.642 269.629 289.014 267.535C285.531 265.524 281.054 264.089 276.148 263.882C269.962 263.595 264.276 265.072 259.37 267.002L257.451 267.783L252.9 265.155L244.083 268.604L248.635 271.232L216.003 284.079L225.815 289.744L258.447 276.896L265.2 280.796L273.945 277.306Z" fill="black"/>
<path d="M297.475 290.975C297.475 290.975 275.89 296.355 264.701 299.635L264.558 299.552C267.088 297.876 286.027 284.366 286.027 284.366L275.718 278.414L249.702 300.251C249.136 300.744 248.636 300.95 247.853 301.072C244.51 301.686 240.458 301.811 236.618 301.4C233.42 301.113 230.506 300.415 228.302 299.8L222.685 306.162C225.102 307.066 230.86 308.501 237.614 308.624C246.288 308.789 256.88 307.434 269.961 304.806L307.713 296.884L297.477 290.974L297.475 290.975Z" fill="black"/>
<circle cx="485.667" cy="108.667" r="33.6667" fill="url(#paint6_linear_862_35308)"/>
<circle cx="485.667" cy="108.667" r="33.6667" fill="url(#paint7_radial_862_35308)"/>
<circle cx="485.667" cy="108.667" r="33.6667" fill="url(#paint8_radial_862_35308)"/>
<circle cx="485.667" cy="108.667" r="33.6667" fill="url(#paint9_radial_862_35308)"/>
<circle cx="485.667" cy="108.667" r="33.6667" fill="url(#paint10_radial_862_35308)"/>
<g style="mix-blend-mode:lighten">
<ellipse cx="483.843" cy="100.151" rx="20.8896" ry="18.6586" fill="url(#paint11_linear_862_35308)"/>
</g>
<g style="mix-blend-mode:lighten">
<path d="M471.628 98.3172C470.277 97.8972 469.503 96.4472 470.14 95.1832C471.249 92.984 472.872 91.0695 474.888 89.6116C476.904 88.1537 479.23 87.2108 481.666 86.8462C483.066 86.6368 484.201 87.8254 484.176 89.2407C484.152 90.6559 482.969 91.752 481.591 92.0755C480.266 92.3865 479.008 92.9576 477.892 93.7647C476.776 94.5719 475.84 95.5883 475.13 96.7488C474.391 97.9562 472.98 98.7372 471.628 98.3172Z" fill="url(#paint12_linear_862_35308)"/>
</g>
<circle cx="177.5" cy="54.5" r="54.5" fill="url(#paint13_linear_862_35308)"/>
<circle cx="177.5" cy="54.5" r="54.5" fill="url(#paint14_radial_862_35308)"/>
<circle cx="177.5" cy="54.5" r="54.5" fill="url(#paint15_radial_862_35308)"/>
<circle cx="177.5" cy="54.5" r="54.5" fill="url(#paint16_radial_862_35308)"/>
<circle cx="177.5" cy="54.5" r="54.5" fill="url(#paint17_radial_862_35308)"/>
<g style="mix-blend-mode:lighten">
<ellipse cx="174.545" cy="40.7126" rx="33.8163" ry="30.2048" fill="url(#paint18_linear_862_35308)"/>
</g>
<g style="mix-blend-mode:lighten">
<path d="M154.775 37.7443C152.587 37.0645 151.335 34.7171 152.366 32.6711C154.161 29.1108 156.789 26.0117 160.052 23.6516C163.315 21.2915 167.081 19.7651 171.024 19.175C173.29 18.8359 175.128 20.7601 175.088 23.0511C175.049 25.3421 173.133 27.1165 170.903 27.6403C168.759 28.1437 166.722 29.0681 164.915 30.3748C163.109 31.6814 161.593 33.3267 160.444 35.2054C159.248 37.16 156.964 38.4242 154.775 37.7443Z" fill="url(#paint19_linear_862_35308)"/>
</g>
</g>
<defs>
<filter id="filter0_f_862_35308" x="-10.5625" y="214" width="556.562" height="191.938" filterUnits="userSpaceOnUse" color-interpolation-filters="sRGB">
<feFlood flood-opacity="0" result="BackgroundImageFix"/>
<feBlend mode="normal" in="SourceGraphic" in2="BackgroundImageFix" result="shape"/>
<feGaussianBlur stdDeviation="5.5" result="effect1_foregroundBlur_862_35308"/>
</filter>
<linearGradient id="paint0_linear_862_35308" x1="267.84" y1="352.232" x2="267.84" y2="44.9975" gradientUnits="userSpaceOnUse">
<stop stop-color="#F1F4FE"/>
<stop offset="0.5797" stop-color="#F7F9FE"/>
<stop offset="1" stop-color="white"/>
</linearGradient>
<linearGradient id="paint1_linear_862_35308" x1="33.3838" y1="198.619" x2="502.289" y2="198.619" gradientUnits="userSpaceOnUse">
<stop stop-color="#3A98FF"/>
<stop offset="0.6277" stop-color="#00F0FF"/>
<stop offset="1" stop-color="#00FFAC"/>
</linearGradient>
<linearGradient id="paint2_linear_862_35308" x1="242.582" y1="373.936" x2="293.464" y2="373.936" gradientUnits="userSpaceOnUse">
<stop stop-color="#EFF1FE"/>
<stop offset="1" stop-color="#E4E7FB"/>
</linearGradient>
<linearGradient id="paint3_linear_862_35308" x1="417.62" y1="108.137" x2="313.328" y2="288.776" gradientUnits="userSpaceOnUse">
<stop stop-color="#C3DAFD" stop-opacity="0.76"/>
<stop offset="1" stop-color="#E1EDFF" stop-opacity="0"/>
</linearGradient>
<linearGradient id="paint4_linear_862_35308" x1="457.737" y1="159.122" x2="365.498" y2="318.884" gradientUnits="userSpaceOnUse">
<stop stop-color="#C3DAFD" stop-opacity="0.76"/>
<stop offset="1" stop-color="#E1EDFF" stop-opacity="0"/>
</linearGradient>
<linearGradient id="paint5_linear_862_35308" x1="326.578" y1="130.513" x2="272.798" y2="223.663" gradientUnits="userSpaceOnUse">
<stop stop-color="#C3DAFD" stop-opacity="0.76"/>
<stop offset="1" stop-color="#E1EDFF" stop-opacity="0"/>
</linearGradient>
<linearGradient id="paint6_linear_862_35308" x1="485.667" y1="75" x2="485.667" y2="142.333" gradientUnits="userSpaceOnUse">
<stop stop-color="#40FFC6"/>
<stop offset="0.492708" stop-color="#4AE6FF"/>
<stop offset="1" stop-color="#2595FF"/>
</linearGradient>
<radialGradient id="paint7_radial_862_35308" cx="0" cy="0" r="1" gradientUnits="userSpaceOnUse" gradientTransform="translate(471.839 88.2262) rotate(62.6223) scale(75.8263)">
<stop offset="0.462106" stop-color="#2AA8FF" stop-opacity="0"/>
<stop offset="0.894737" stop-color="#2595FF"/>
</radialGradient>
<radialGradient id="paint8_radial_862_35308" cx="0" cy="0" r="1" gradientUnits="userSpaceOnUse" gradientTransform="translate(469.435 89.4286) rotate(56.6259) scale(90.7081)">
<stop stop-color="#6EFFCE"/>
<stop offset="0.570035" stop-color="#A5FFFD" stop-opacity="0"/>
</radialGradient>
<radialGradient id="paint9_radial_862_35308" cx="0" cy="0" r="1" gradientUnits="userSpaceOnUse" gradientTransform="translate(479.054 95.4405) rotate(63.4349) scale(48.3586)">
<stop offset="0.672439" stop-color="#9EC6FD" stop-opacity="0"/>
<stop offset="1" stop-color="white"/>
</radialGradient>
<radialGradient id="paint10_radial_862_35308" cx="0" cy="0" r="1" gradientUnits="userSpaceOnUse" gradientTransform="translate(482.027 101.387) rotate(62.0378) scale(41.7221)">
<stop offset="0.961458" stop-color="#2AA8FF" stop-opacity="0"/>
<stop offset="1" stop-color="#058AFF" stop-opacity="0.26"/>
</radialGradient>
<linearGradient id="paint11_linear_862_35308" x1="471.906" y1="86.3073" x2="486.967" y2="103.034" gradientUnits="userSpaceOnUse">
<stop stop-color="white" stop-opacity="0.86"/>
<stop offset="1" stop-color="#D9D9D9" stop-opacity="0"/>
</linearGradient>
<linearGradient id="paint12_linear_862_35308" x1="483.847" y1="88.1948" x2="474.747" y2="98.6587" gradientUnits="userSpaceOnUse">
<stop stop-color="white"/>
<stop offset="1" stop-color="#FFFFE9" stop-opacity="0.38"/>
</linearGradient>
<linearGradient id="paint13_linear_862_35308" x1="177.5" y1="0" x2="177.5" y2="109" gradientUnits="userSpaceOnUse">
<stop stop-color="#40FFC6"/>
<stop offset="0.492708" stop-color="#4AE6FF"/>
<stop offset="1" stop-color="#2595FF"/>
</linearGradient>
<radialGradient id="paint14_radial_862_35308" cx="0" cy="0" r="1" gradientUnits="userSpaceOnUse" gradientTransform="translate(155.116 21.4107) rotate(62.6223) scale(122.749)">
<stop offset="0.462106" stop-color="#2AA8FF" stop-opacity="0"/>
<stop offset="0.894737" stop-color="#2595FF"/>
</radialGradient>
<radialGradient id="paint15_radial_862_35308" cx="0" cy="0" r="1" gradientUnits="userSpaceOnUse" gradientTransform="translate(151.223 23.3572) rotate(56.6259) scale(146.839)">
<stop stop-color="#6EFFCE"/>
<stop offset="0.570035" stop-color="#A5FFFD" stop-opacity="0"/>
</radialGradient>
<radialGradient id="paint16_radial_862_35308" cx="0" cy="0" r="1" gradientUnits="userSpaceOnUse" gradientTransform="translate(166.795 33.0893) rotate(63.4349) scale(78.2834)">
<stop offset="0.672439" stop-color="#9EC6FD" stop-opacity="0"/>
<stop offset="1" stop-color="white"/>
</radialGradient>
<radialGradient id="paint17_radial_862_35308" cx="0" cy="0" r="1" gradientUnits="userSpaceOnUse" gradientTransform="translate(171.608 42.7162) rotate(62.0378) scale(67.5403)">
<stop offset="0.961458" stop-color="#2AA8FF" stop-opacity="0"/>
<stop offset="1" stop-color="#058AFF" stop-opacity="0.26"/>
</radialGradient>
<linearGradient id="paint18_linear_862_35308" x1="155.221" y1="18.3026" x2="179.602" y2="45.3804" gradientUnits="userSpaceOnUse">
<stop stop-color="white" stop-opacity="0.86"/>
<stop offset="1" stop-color="#D9D9D9" stop-opacity="0"/>
</linearGradient>
<linearGradient id="paint19_linear_862_35308" x1="174.555" y1="21.358" x2="159.825" y2="38.2972" gradientUnits="userSpaceOnUse">
<stop stop-color="white"/>
<stop offset="1" stop-color="#FFFFE9" stop-opacity="0.38"/>
</linearGradient>
<clipPath id="clip0_862_35308">
<rect width="535" height="422" fill="white"/>
</clipPath>
</defs>
</svg>
