<svg width="535" height="422" viewBox="0 0 535 422" fill="none" xmlns="http://www.w3.org/2000/svg">
<g clip-path="url(#clip0_862_35629)">
<g filter="url(#filter0_f_862_35629)">
<path d="M9.64093 254.554C-2.62771 247.6 -2.62771 235.866 9.64093 228.912L244.498 230.215C256.766 223.262 276.922 223.262 289.629 230.215L525.8 228.912C538.068 235.866 538.068 247.6 525.8 254.554L290.943 389.723C278.674 396.677 258.519 396.677 245.812 389.723L9.64093 254.554Z" fill="#C5D9EF"/>
</g>
<path d="M535 210.157C535 210.592 535 211.027 535 211.027C535 211.461 535 211.461 535 211.896C535 212.331 535 212.765 534.562 212.765C534.562 213.2 534.562 213.2 534.124 213.634C534.124 214.069 533.686 214.069 533.686 214.504C533.248 214.938 533.248 215.373 532.809 215.808C532.371 216.242 532.371 216.677 531.933 217.111C531.933 217.111 531.933 217.111 531.495 217.546C531.057 217.981 530.619 218.415 530.18 218.85C529.742 219.285 529.304 219.285 529.304 219.719C528.866 220.154 528.866 220.154 528.428 220.588C527.99 221.023 527.551 221.023 527.113 221.458C526.675 221.892 526.237 221.892 525.799 222.327L290.942 357.061L290.504 387.05L525.361 251.447C525.361 251.447 525.799 251.447 525.799 251.012C526.237 251.012 526.237 250.578 526.675 250.578C527.113 250.143 527.551 250.143 527.99 249.708C528.428 249.274 528.428 249.274 528.866 248.839C529.304 248.404 529.742 248.404 529.742 247.97C530.18 247.535 530.619 247.101 531.057 246.666C531.057 246.666 531.057 246.666 531.057 246.231C531.057 245.797 531.495 245.797 531.495 245.362L531.933 244.927C531.933 244.927 531.933 244.927 531.933 244.493C532.371 244.058 532.371 243.624 532.809 243.624C532.809 243.624 532.809 243.624 532.809 243.189C532.809 242.754 533.248 242.754 533.248 242.32C533.248 242.32 533.248 241.885 533.686 241.885C533.686 241.885 533.686 241.885 533.686 241.45C533.686 241.016 533.686 241.016 534.124 240.581V240.147C534.124 239.712 534.124 239.277 534.124 239.277C534.124 238.843 534.124 238.843 534.124 238.408C534.124 238.408 534.124 238.408 534.124 237.973L534.562 207.984C535 209.288 535 209.723 535 210.157Z" fill="#E1EDFF"/>
<path d="M9.63964 221.894C3.50532 218.417 0.438165 213.636 0.438165 208.855L0 238.845C0 243.625 3.06716 248.406 9.20147 251.883L245.811 387.052L246.249 357.063L9.63964 221.894Z" fill="#EFF1FE"/>
<path d="M525.8 196.252C538.068 203.206 538.068 214.941 525.8 221.895L290.943 357.063C278.674 364.017 258.519 364.017 245.812 357.063L9.64093 221.895C-2.62771 214.941 -2.62771 203.206 9.64093 196.252L244.498 60.6491C256.766 53.6951 276.922 53.6951 289.629 60.6491L525.8 196.252Z" fill="white"/>
<path d="M9.64093 211.461C-2.62771 204.507 -2.62771 192.772 9.64093 185.818L244.498 50.2155C256.766 43.2615 276.922 43.2615 289.629 50.2155L525.8 185.818C538.068 192.772 538.068 204.507 525.8 211.461L290.943 347.064C278.674 354.018 258.519 354.018 245.812 347.064L9.64093 211.461Z" fill="url(#paint0_linear_862_35629)"/>
<path d="M268.597 333.593C261.148 333.593 254.137 331.855 248.441 328.812L42.0654 210.595C36.8074 207.552 33.7402 203.206 33.7402 198.86C33.7402 194.513 36.8074 190.167 42.0654 187.125L247.127 68.4723C252.385 65.4299 259.395 63.6914 266.844 63.6914C274.293 63.6914 281.304 65.4299 287 68.4723L493.814 186.69C499.072 189.733 502.139 194.079 502.139 198.425C502.139 202.771 499.072 207.118 493.814 210.16L288.314 328.812C283.056 331.855 276.046 333.593 268.597 333.593ZM267.282 64.9953C259.834 64.9953 253.261 66.7338 248.003 69.7762L42.5035 187.994C37.6837 191.036 34.6166 194.513 34.6166 198.86C34.6166 202.771 37.2456 206.683 42.5035 209.725L249.318 327.943C254.576 330.986 261.148 332.724 268.597 332.724C276.046 332.724 282.618 330.986 287.876 327.943L493.376 209.725C498.196 206.683 501.263 203.206 501.263 198.86C501.263 194.948 498.634 191.036 493.376 187.994L286.562 69.3415C281.304 66.2992 274.293 64.9953 267.282 64.9953Z" fill="url(#paint1_linear_862_35629)"/>
<path d="M287.876 388.79C288.753 388.355 292.696 386.182 293.573 385.747V355.758C292.696 356.193 289.191 357.931 288.315 358.366C287.877 358.366 287.876 358.8 287.438 358.8C286.562 359.235 285.686 359.67 284.809 359.67C284.371 359.67 284.371 360.104 283.933 360.104C283.495 360.104 283.057 360.539 282.18 360.539C281.742 360.539 281.304 360.974 280.866 360.974C280.428 360.974 279.551 361.408 279.113 361.408C278.675 361.408 278.237 361.408 277.799 361.843C276.484 361.843 275.608 362.277 274.293 362.277C273.855 362.277 273.417 362.277 272.979 362.277C272.103 362.277 271.664 362.277 270.788 362.277C270.35 362.277 269.912 362.277 269.474 362.277C269.035 362.277 268.159 362.277 267.721 362.277C267.283 362.277 266.845 362.277 266.406 362.277C265.968 362.277 265.53 362.277 264.654 362.277C264.216 362.277 263.777 362.277 263.339 362.277C262.901 362.277 262.463 362.277 261.587 362.277C261.148 362.277 260.71 362.277 260.272 361.843C259.834 361.843 258.958 361.843 258.519 361.408C258.081 361.408 257.643 361.408 257.205 360.974C256.329 360.974 255.89 360.539 255.014 360.539C254.576 360.539 254.138 360.539 254.138 360.104C252.823 359.67 251.947 359.235 250.632 358.8C250.194 358.8 249.756 358.366 248.88 357.931C248.442 357.931 248.442 357.497 248.003 357.497C247.127 357.062 242.745 354.454 241.869 354.02V384.443C242.745 384.878 246.689 387.051 247.127 387.486C247.565 387.486 247.565 387.92 248.003 387.92C248.442 387.92 248.88 388.355 249.318 388.355C250.632 388.79 251.509 389.224 252.823 389.659C252.823 389.659 252.823 389.659 253.261 389.659C253.7 389.659 253.7 389.659 254.138 390.093C254.576 390.093 255.452 390.528 255.89 390.528H256.329C256.767 390.528 256.767 390.528 257.205 390.528C257.643 390.528 258.081 390.528 258.958 390.963C259.396 390.963 259.396 390.963 259.834 390.963C260.272 390.963 260.272 390.963 260.71 390.963C261.148 390.963 261.587 390.963 262.025 390.963C262.463 390.963 262.463 390.963 262.901 390.963C263.339 390.963 263.339 390.963 263.777 390.963C264.216 390.963 264.654 390.963 265.092 390.963C265.53 390.963 265.53 390.963 265.968 390.963C265.968 390.963 266.406 390.963 266.845 390.963C267.283 390.963 268.159 390.963 268.597 390.963C269.035 390.963 269.035 390.963 269.474 390.963H269.912C270.788 390.963 271.226 390.963 272.103 390.963C272.541 390.963 272.541 390.963 272.979 390.963C272.979 390.963 272.979 390.963 273.417 390.963C274.732 390.963 275.608 390.528 276.922 390.528C277.361 390.528 277.799 390.528 277.799 390.093C278.237 390.093 279.113 389.659 279.551 389.659C279.99 389.659 280.428 389.224 280.866 389.224C281.304 389.224 281.742 388.79 282.619 388.79H283.057H283.495C284.371 388.355 285.248 388.355 286.124 387.92C287 389.224 287.438 389.224 287.876 388.79Z" fill="url(#paint2_linear_862_35629)"/>
<g clip-path="url(#clip1_862_35629)">
<path d="M448.215 135.601C450.177 136.734 451.484 138.189 451.955 139.768C457.084 160.3 455.021 181.216 445.889 201.279L419.517 198.993C414.783 198.591 409.953 198.801 405.378 199.611C400.802 200.42 396.597 201.808 393.066 203.673C352.697 195.688 308.812 195.915 268.696 204.314C216.178 196.037 189.675 197.235 164.082 198.417C142.831 199.745 121.373 199.498 100.231 197.684C47.7786 193.145 29.1608 178.263 23.9558 172.743C26.7788 169.435 31.2448 166.688 36.7839 164.853C42.3229 163.017 48.6837 162.176 55.0543 162.437L108.336 164.842L168.827 178.604C175.469 180.108 182.576 180.804 189.705 180.649C196.833 180.494 203.83 179.491 210.256 177.704L331.984 143.793C343.606 149.036 357.364 152.468 371.942 153.76C397.493 155.962 418.828 143.682 429.252 136.176C430.617 135.162 432.423 134.374 434.486 133.894C436.549 133.414 438.796 133.258 440.997 133.442C443.732 133.714 446.253 134.468 448.215 135.601Z" fill="url(#paint3_linear_862_35629)"/>
<path d="M25.3333 186.332C38.1231 193.717 60.4139 201.977 98.2774 205.25C120.411 207.164 142.879 207.432 165.131 206.045C193.107 204.224 221.422 205.317 248.729 209.275C233.501 213.602 219.385 219.126 206.78 225.688L101.81 216.605C70.7497 214.355 42.2235 205.56 21.7072 191.91C20.5356 191.109 19.6737 190.173 19.1792 189.165C18.6847 188.156 18.5691 187.098 18.84 186.062L19.6973 182.732C21.4705 183.986 23.3515 185.188 25.3333 186.332Z" fill="url(#paint4_linear_862_35629)"/>
<path d="M191.179 164.195L158.263 153.635L127.492 160.976L173.681 171.485C178.618 172.604 183.903 173.123 189.203 173.008C194.504 172.893 199.706 172.147 204.484 170.817L321.227 138.286C317.424 136.056 313.912 133.666 310.719 131.137C309.759 130.357 308.692 129.624 307.529 128.943C303.262 126.457 297.726 124.828 291.736 124.293C286.696 123.86 281.547 124.227 276.843 125.356L269.974 126.996L282.596 131.037C284.131 131.53 285.263 132.356 285.744 133.332C286.224 134.308 286.014 135.354 285.158 136.241C284.303 137.127 282.873 137.781 281.182 138.058C279.492 138.336 277.68 138.214 276.145 137.72L254.355 130.728L237.972 134.637L254.275 139.868C255.036 140.112 255.706 140.44 256.247 140.834C256.788 141.228 257.189 141.679 257.428 142.162C257.667 142.646 257.739 143.151 257.639 143.651C257.539 144.15 257.27 144.633 256.847 145.072C256.424 145.511 255.856 145.898 255.174 146.21C254.492 146.523 253.71 146.754 252.873 146.892C252.036 147.03 251.16 147.071 250.296 147.014C249.431 146.956 248.594 146.801 247.834 146.557L222.324 138.369L205.941 142.267L225.936 148.688C227.473 149.182 228.607 150.007 229.089 150.983C229.571 151.959 229.363 153.005 228.508 153.892C227.654 154.779 226.225 155.434 224.534 155.713C222.844 155.991 221.031 155.871 219.495 155.377L190.293 146L173.915 149.905L197.639 157.522C199.151 158.022 200.261 158.846 200.728 159.815C201.196 160.784 200.983 161.821 200.137 162.7C199.29 163.579 197.878 164.23 196.206 164.513C194.534 164.795 192.736 164.686 191.202 164.209L191.179 164.195Z" fill="url(#paint5_linear_862_35629)"/>
<path d="M316.174 100.145C317.526 100.133 318.837 100.41 319.855 100.924C327.89 105.076 337.128 111.654 335.09 119.598C334.133 123.786 331.9 127.842 328.494 131.581C326.007 130.011 323.669 128.365 321.49 126.65C320.121 125.538 318.597 124.493 316.932 123.526C310.66 119.877 302.521 117.492 293.718 116.723C289.26 116.365 284.731 116.423 280.305 116.893L312.537 100.989C313.527 100.458 314.823 100.157 316.174 100.145Z" fill="url(#paint6_linear_862_35629)"/>
<path d="M439.086 231.692C436.279 224.014 437.239 216.037 441.859 208.657L417.554 206.558C413.334 206.198 409.027 206.66 405.314 207.873C401.601 209.086 398.696 210.979 397.057 213.253L377.512 240.42C400.505 242.222 421.817 240.866 434.799 236.709C436.357 236.253 437.618 235.517 438.39 234.613C439.163 233.708 439.407 232.683 439.086 231.692Z" fill="url(#paint7_linear_862_35629)"/>
<path fill-rule="evenodd" clip-rule="evenodd" d="M300.698 206.913C328.813 203.951 357.764 205.081 384.933 210.201C384.905 210.239 384.858 210.272 384.83 210.31L363.991 239.284L223.903 227.166C246.189 216.836 272.582 209.875 300.698 206.913ZM303.621 226.003C303.894 226.159 304.187 226.303 304.498 226.433C305.21 226.722 306.014 226.927 306.864 227.037C307.713 227.146 308.592 227.158 309.45 227.071C310.307 226.985 311.127 226.801 311.861 226.532C312.596 226.262 313.232 225.911 313.732 225.5L322 218.703C322.501 218.292 322.856 217.828 323.046 217.337C323.236 216.847 323.257 216.339 323.107 215.844C322.957 215.349 322.64 214.876 322.174 214.452C321.707 214.028 321.101 213.66 320.389 213.371C319.677 213.083 318.873 212.877 318.024 212.768C317.174 212.658 316.295 212.646 315.438 212.733C314.581 212.819 313.761 213.002 313.026 213.271C312.291 213.541 311.655 213.891 311.155 214.302L302.886 221.099C301.989 221.836 301.572 222.731 301.706 223.629C301.841 224.525 302.519 225.366 303.621 226.003ZM335.418 228.743C335.69 228.9 335.985 229.043 336.299 229.17L336.318 229.181C337.754 229.764 339.533 229.993 341.262 229.819C342.992 229.645 344.531 229.082 345.542 228.253L353.82 221.456C354.802 220.626 355.177 219.606 354.866 218.616C354.555 217.627 353.581 216.749 352.156 216.171C350.732 215.593 348.97 215.362 347.253 215.528C345.535 215.694 344 216.244 342.979 217.058L334.692 223.839C333.794 224.575 333.375 225.471 333.507 226.368C333.64 227.264 334.317 228.106 335.418 228.743Z" fill="url(#paint8_linear_862_35629)"/>
<path d="M98.2755 194.862C60.412 191.589 38.1212 183.329 25.3314 175.945C23.3496 174.8 21.4686 173.598 19.6954 172.344L18.8381 175.674C18.5672 176.71 18.6828 177.768 19.1773 178.777C19.6718 179.785 20.5337 180.721 21.7053 181.522C42.2216 195.172 70.7478 203.967 101.808 206.217L206.778 215.3C219.383 208.738 233.5 203.215 248.727 198.887C221.421 194.93 193.105 193.836 165.129 195.657C142.877 197.044 120.409 196.777 98.2755 194.862Z" fill="#4AE6FF"/>
<path d="M451.953 129.38C451.482 127.802 450.175 126.346 448.213 125.213C446.251 124.08 443.73 123.326 440.995 123.054C438.793 122.87 436.547 123.026 434.484 123.506C432.42 123.987 430.615 124.774 429.25 125.788C418.826 133.294 397.491 145.574 371.939 143.372C357.362 142.08 343.603 138.648 331.982 133.405L210.254 167.316C203.827 169.103 196.831 170.106 189.702 170.261C182.573 170.416 175.466 169.72 168.825 168.216L108.333 154.454L55.0519 152.05C48.6813 151.789 42.3205 152.629 36.7815 154.465C31.2424 156.301 26.7764 159.047 23.9535 162.355C29.1584 167.876 47.7762 182.758 100.229 187.296C121.371 189.11 142.828 189.357 164.079 188.029C189.673 186.847 216.175 185.649 268.693 193.926C308.809 185.527 352.694 185.3 393.064 193.285C396.594 191.42 400.8 190.032 405.375 189.223C409.951 188.414 414.781 188.203 419.515 188.605L445.886 190.891C455.019 170.829 457.082 149.912 451.953 129.38Z" fill="#2595FF"/>
<path d="M191.177 153.805L158.26 143.246L127.49 150.587L173.678 161.095C178.616 162.215 183.9 162.733 189.201 162.618C194.502 162.503 199.704 161.757 204.482 160.427L321.225 127.896C317.422 125.666 313.909 123.276 310.717 120.747C309.757 119.967 308.69 119.234 307.526 118.553C303.259 116.068 297.724 114.438 291.734 113.904C286.694 113.47 281.545 113.837 276.84 114.967L269.972 116.606L282.593 120.647C284.128 121.141 285.261 121.966 285.741 122.942C286.222 123.918 286.011 124.964 285.156 125.851C284.3 126.737 282.87 127.391 281.18 127.668C279.489 127.946 277.677 127.824 276.142 127.33L254.353 120.338L237.969 124.247L254.273 129.478C255.034 129.722 255.704 130.051 256.245 130.444C256.786 130.838 257.187 131.289 257.426 131.772C257.665 132.256 257.736 132.761 257.637 133.261C257.537 133.76 257.268 134.243 256.845 134.682C256.422 135.121 255.853 135.508 255.171 135.82C254.49 136.133 253.708 136.364 252.871 136.502C252.034 136.64 251.158 136.682 250.293 136.624C249.429 136.567 248.592 136.411 247.831 136.167L222.322 127.98L205.939 131.877L225.934 138.298C227.47 138.792 228.604 139.617 229.087 140.593C229.569 141.569 229.36 142.616 228.506 143.503C227.652 144.39 226.222 145.044 224.532 145.323C222.841 145.601 221.029 145.481 219.492 144.988L190.291 135.61L173.913 139.516L197.637 147.132C199.149 147.633 200.259 148.456 200.726 149.425C201.194 150.394 200.981 151.431 200.135 152.31C199.288 153.189 197.876 153.841 196.204 154.123C194.531 154.405 192.734 154.296 191.2 153.819L191.177 153.805Z" fill="#23FBB2"/>
<path d="M319.852 90.536C318.834 90.0225 317.523 89.745 316.171 89.757C314.82 89.769 313.524 90.0697 312.534 90.6009L280.302 106.505C284.728 106.035 289.256 105.977 293.714 106.335C302.517 107.104 310.657 109.489 316.928 113.138C318.593 114.105 320.118 115.15 321.487 116.262C323.666 117.977 326.004 119.623 328.491 121.193C331.896 117.454 334.129 113.398 335.087 109.21C337.125 101.266 327.886 94.6879 319.852 90.536Z" fill="#4AE6FF"/>
<path d="M439.083 221.304C436.276 213.626 437.237 205.649 441.857 198.269L417.551 196.17C413.332 195.81 409.024 196.272 405.312 197.485C401.599 198.698 398.693 200.591 397.055 202.865L377.509 230.032C400.503 231.834 421.815 230.479 434.797 226.321C436.355 225.865 437.615 225.13 438.388 224.225C439.161 223.32 439.405 222.295 439.083 221.304Z" fill="#23FBB2"/>
<path d="M384.93 199.812C357.762 194.691 328.811 193.561 300.695 196.523C272.58 199.485 246.186 206.446 223.901 216.776L363.989 228.894L384.827 199.92C384.856 199.882 384.902 199.849 384.93 199.812ZM304.495 216.043C304.185 215.913 303.892 215.769 303.619 215.613C302.517 214.976 301.838 214.136 301.704 213.239C301.569 212.342 301.987 211.446 302.884 210.709L311.152 203.912C311.653 203.501 312.289 203.151 313.024 202.881C313.759 202.612 314.578 202.429 315.436 202.343C316.293 202.256 317.172 202.268 318.021 202.378C318.871 202.488 319.674 202.693 320.386 202.982C321.099 203.271 321.705 203.638 322.172 204.062C322.638 204.486 322.955 204.959 323.105 205.455C323.254 205.95 323.234 206.457 323.044 206.947C322.854 207.438 322.499 207.902 321.998 208.313L313.729 215.11C313.229 215.522 312.594 215.872 311.859 216.142C311.124 216.412 310.305 216.595 309.447 216.682C308.59 216.768 307.711 216.756 306.861 216.647C306.011 216.537 305.207 216.332 304.495 216.043ZM336.296 218.781C335.982 218.653 335.688 218.51 335.416 218.353C334.314 217.716 333.638 216.875 333.505 215.978C333.372 215.081 333.792 214.185 334.689 213.449L342.977 206.668C343.998 205.854 345.533 205.304 347.25 205.138C348.968 204.972 350.729 205.203 352.154 205.781C353.579 206.359 354.552 207.237 354.864 208.227C355.175 209.216 354.799 210.236 353.818 211.066L345.54 217.864C344.529 218.692 342.99 219.256 341.26 219.429C339.53 219.603 337.752 219.374 336.315 218.791L336.296 218.781Z" fill="#23FBB2"/>
</g>
<circle cx="40.6667" cy="108.667" r="33.6667" fill="url(#paint9_linear_862_35629)"/>
<circle cx="40.6667" cy="108.667" r="33.6667" fill="url(#paint10_radial_862_35629)"/>
<circle cx="40.6667" cy="108.667" r="33.6667" fill="url(#paint11_radial_862_35629)"/>
<circle cx="40.6667" cy="108.667" r="33.6667" fill="url(#paint12_radial_862_35629)"/>
<circle cx="40.6667" cy="108.667" r="33.6667" fill="url(#paint13_radial_862_35629)"/>
<g style="mix-blend-mode:lighten">
<ellipse cx="38.8427" cy="100.151" rx="20.8896" ry="18.6586" fill="url(#paint14_linear_862_35629)"/>
</g>
<g style="mix-blend-mode:lighten">
<path d="M26.6283 98.3172C25.2766 97.8972 24.5029 96.4472 25.14 95.1832C26.2487 92.984 27.8724 91.0695 29.888 89.6116C31.9035 88.1537 34.23 87.2108 36.6658 86.8462C38.0657 86.6368 39.2007 87.8254 39.1764 89.2407C39.1522 90.6559 37.9687 91.752 36.5907 92.0755C35.2663 92.3865 34.0079 92.9576 32.8921 93.7647C31.7762 94.5719 30.84 95.5883 30.1301 96.7488C29.3914 97.9562 27.98 98.7372 26.6283 98.3172Z" fill="url(#paint15_linear_862_35629)"/>
</g>
<circle cx="480.5" cy="63.5" r="54.5" fill="url(#paint16_linear_862_35629)"/>
<circle cx="480.5" cy="63.5" r="54.5" fill="url(#paint17_radial_862_35629)"/>
<circle cx="480.5" cy="63.5" r="54.5" fill="url(#paint18_radial_862_35629)"/>
<circle cx="480.5" cy="63.5" r="54.5" fill="url(#paint19_radial_862_35629)"/>
<circle cx="480.5" cy="63.5" r="54.5" fill="url(#paint20_radial_862_35629)"/>
<g style="mix-blend-mode:lighten">
<ellipse cx="477.545" cy="49.7126" rx="33.8163" ry="30.2048" fill="url(#paint21_linear_862_35629)"/>
</g>
<g style="mix-blend-mode:lighten">
<path d="M457.775 46.7443C455.587 46.0645 454.335 43.7171 455.366 41.6711C457.161 38.1108 459.789 35.0117 463.052 32.6516C466.315 30.2915 470.081 28.7651 474.024 28.175C476.29 27.8359 478.128 29.7601 478.088 32.0511C478.049 34.3421 476.133 36.1165 473.903 36.6403C471.759 37.1437 469.722 38.0681 467.915 39.3748C466.109 40.6814 464.593 42.3267 463.444 44.2054C462.248 46.16 459.964 47.4242 457.775 46.7443Z" fill="url(#paint22_linear_862_35629)"/>
</g>
</g>
<defs>
<filter id="filter0_f_862_35629" x="-10.5605" y="214" width="556.562" height="191.938" filterUnits="userSpaceOnUse" color-interpolation-filters="sRGB">
<feFlood flood-opacity="0" result="BackgroundImageFix"/>
<feBlend mode="normal" in="SourceGraphic" in2="BackgroundImageFix" result="shape"/>
<feGaussianBlur stdDeviation="5.5" result="effect1_foregroundBlur_862_35629"/>
</filter>
<linearGradient id="paint0_linear_862_35629" x1="267.842" y1="352.232" x2="267.842" y2="44.9975" gradientUnits="userSpaceOnUse">
<stop stop-color="#F1F4FE"/>
<stop offset="0.5797" stop-color="#F7F9FE"/>
<stop offset="1" stop-color="white"/>
</linearGradient>
<linearGradient id="paint1_linear_862_35629" x1="33.3858" y1="198.623" x2="502.291" y2="198.623" gradientUnits="userSpaceOnUse">
<stop stop-color="#3A98FF"/>
<stop offset="0.6277" stop-color="#00F0FF"/>
<stop offset="1" stop-color="#00FFAC"/>
</linearGradient>
<linearGradient id="paint2_linear_862_35629" x1="242.584" y1="373.94" x2="293.466" y2="373.94" gradientUnits="userSpaceOnUse">
<stop stop-color="#EFF1FE"/>
<stop offset="1" stop-color="#E4E7FB"/>
</linearGradient>
<linearGradient id="paint3_linear_862_35629" x1="236.701" y1="100.145" x2="62.5019" y2="335" gradientUnits="userSpaceOnUse">
<stop stop-color="#C3DAFD" stop-opacity="0.76"/>
<stop offset="1" stop-color="#E1EDFF" stop-opacity="0"/>
</linearGradient>
<linearGradient id="paint4_linear_862_35629" x1="236.701" y1="100.145" x2="62.5019" y2="335" gradientUnits="userSpaceOnUse">
<stop stop-color="#C3DAFD" stop-opacity="0.76"/>
<stop offset="1" stop-color="#E1EDFF" stop-opacity="0"/>
</linearGradient>
<linearGradient id="paint5_linear_862_35629" x1="236.701" y1="100.145" x2="62.5019" y2="335" gradientUnits="userSpaceOnUse">
<stop stop-color="#C3DAFD" stop-opacity="0.76"/>
<stop offset="1" stop-color="#E1EDFF" stop-opacity="0"/>
</linearGradient>
<linearGradient id="paint6_linear_862_35629" x1="236.701" y1="100.145" x2="62.5019" y2="335" gradientUnits="userSpaceOnUse">
<stop stop-color="#C3DAFD" stop-opacity="0.76"/>
<stop offset="1" stop-color="#E1EDFF" stop-opacity="0"/>
</linearGradient>
<linearGradient id="paint7_linear_862_35629" x1="236.701" y1="100.145" x2="62.5019" y2="335" gradientUnits="userSpaceOnUse">
<stop stop-color="#C3DAFD" stop-opacity="0.76"/>
<stop offset="1" stop-color="#E1EDFF" stop-opacity="0"/>
</linearGradient>
<linearGradient id="paint8_linear_862_35629" x1="236.701" y1="100.145" x2="62.5019" y2="335" gradientUnits="userSpaceOnUse">
<stop stop-color="#C3DAFD" stop-opacity="0.76"/>
<stop offset="1" stop-color="#E1EDFF" stop-opacity="0"/>
</linearGradient>
<linearGradient id="paint9_linear_862_35629" x1="40.6667" y1="75" x2="40.6667" y2="142.333" gradientUnits="userSpaceOnUse">
<stop stop-color="#40FFC6"/>
<stop offset="0.492708" stop-color="#4AE6FF"/>
<stop offset="1" stop-color="#2595FF"/>
</linearGradient>
<radialGradient id="paint10_radial_862_35629" cx="0" cy="0" r="1" gradientUnits="userSpaceOnUse" gradientTransform="translate(26.8393 88.2262) rotate(62.6223) scale(75.8263)">
<stop offset="0.462106" stop-color="#2AA8FF" stop-opacity="0"/>
<stop offset="0.894737" stop-color="#2595FF"/>
</radialGradient>
<radialGradient id="paint11_radial_862_35629" cx="0" cy="0" r="1" gradientUnits="userSpaceOnUse" gradientTransform="translate(24.4345 89.4286) rotate(56.6259) scale(90.7081)">
<stop stop-color="#6EFFCE"/>
<stop offset="0.570035" stop-color="#A5FFFD" stop-opacity="0"/>
</radialGradient>
<radialGradient id="paint12_radial_862_35629" cx="0" cy="0" r="1" gradientUnits="userSpaceOnUse" gradientTransform="translate(34.0536 95.4405) rotate(63.4349) scale(48.3586)">
<stop offset="0.672439" stop-color="#9EC6FD" stop-opacity="0"/>
<stop offset="1" stop-color="white"/>
</radialGradient>
<radialGradient id="paint13_radial_862_35629" cx="0" cy="0" r="1" gradientUnits="userSpaceOnUse" gradientTransform="translate(37.027 101.387) rotate(62.0378) scale(41.7221)">
<stop offset="0.961458" stop-color="#2AA8FF" stop-opacity="0"/>
<stop offset="1" stop-color="#058AFF" stop-opacity="0.26"/>
</radialGradient>
<linearGradient id="paint14_linear_862_35629" x1="26.9058" y1="86.3073" x2="41.9669" y2="103.034" gradientUnits="userSpaceOnUse">
<stop stop-color="white" stop-opacity="0.86"/>
<stop offset="1" stop-color="#D9D9D9" stop-opacity="0"/>
</linearGradient>
<linearGradient id="paint15_linear_862_35629" x1="38.8466" y1="88.1948" x2="29.7475" y2="98.6587" gradientUnits="userSpaceOnUse">
<stop stop-color="white"/>
<stop offset="1" stop-color="#FFFFE9" stop-opacity="0.38"/>
</linearGradient>
<linearGradient id="paint16_linear_862_35629" x1="480.5" y1="9" x2="480.5" y2="118" gradientUnits="userSpaceOnUse">
<stop stop-color="#40FFC6"/>
<stop offset="0.492708" stop-color="#4AE6FF"/>
<stop offset="1" stop-color="#2595FF"/>
</linearGradient>
<radialGradient id="paint17_radial_862_35629" cx="0" cy="0" r="1" gradientUnits="userSpaceOnUse" gradientTransform="translate(458.116 30.4107) rotate(62.6223) scale(122.749)">
<stop offset="0.462106" stop-color="#2AA8FF" stop-opacity="0"/>
<stop offset="0.894737" stop-color="#2595FF"/>
</radialGradient>
<radialGradient id="paint18_radial_862_35629" cx="0" cy="0" r="1" gradientUnits="userSpaceOnUse" gradientTransform="translate(454.223 32.3572) rotate(56.6259) scale(146.839)">
<stop stop-color="#6EFFCE"/>
<stop offset="0.570035" stop-color="#A5FFFD" stop-opacity="0"/>
</radialGradient>
<radialGradient id="paint19_radial_862_35629" cx="0" cy="0" r="1" gradientUnits="userSpaceOnUse" gradientTransform="translate(469.795 42.0893) rotate(63.4349) scale(78.2834)">
<stop offset="0.672439" stop-color="#9EC6FD" stop-opacity="0"/>
<stop offset="1" stop-color="white"/>
</radialGradient>
<radialGradient id="paint20_radial_862_35629" cx="0" cy="0" r="1" gradientUnits="userSpaceOnUse" gradientTransform="translate(474.608 51.7162) rotate(62.0378) scale(67.5403)">
<stop offset="0.961458" stop-color="#2AA8FF" stop-opacity="0"/>
<stop offset="1" stop-color="#058AFF" stop-opacity="0.26"/>
</radialGradient>
<linearGradient id="paint21_linear_862_35629" x1="458.221" y1="27.3026" x2="482.602" y2="54.3804" gradientUnits="userSpaceOnUse">
<stop stop-color="white" stop-opacity="0.86"/>
<stop offset="1" stop-color="#D9D9D9" stop-opacity="0"/>
</linearGradient>
<linearGradient id="paint22_linear_862_35629" x1="477.555" y1="30.358" x2="462.825" y2="47.2972" gradientUnits="userSpaceOnUse">
<stop stop-color="white"/>
<stop offset="1" stop-color="#FFFFE9" stop-opacity="0.38"/>
</linearGradient>
<clipPath id="clip0_862_35629">
<rect width="535" height="422" fill="white"/>
</clipPath>
<clipPath id="clip1_862_35629">
<rect width="324.58" height="324.58" fill="white" transform="matrix(0.866025 0.5 -0.866025 0.5 267.002 9.71094)"/>
</clipPath>
</defs>
</svg>
