<svg width="766" height="615" viewBox="0 0 766 615" fill="none" xmlns="http://www.w3.org/2000/svg">
<g clip-path="url(#clip0_862_30662)">
<rect x="1.73205" width="300.825" height="289.766" rx="29" transform="matrix(0.866025 -0.5 0.866025 0.5 150.435 267.675)" stroke="#D8ECFF" stroke-width="2"/>
<rect x="1.73205" width="296.697" height="369.08" rx="29" transform="matrix(0.866025 -0.5 0.866025 0.5 202.278 370.878)" stroke="#D8ECFF" stroke-width="2"/>
<rect x="1.73205" width="276.368" height="234.778" rx="29" transform="matrix(0.866025 -0.5 0.866025 0.5 28.3121 434.827)" stroke="#D8ECFF" stroke-width="2"/>
<circle r="3.69433" transform="matrix(0.866025 -0.5 0.866025 0.5 107.399 388.691)" fill="#23FBB2"/>
<ellipse rx="5.91092" ry="5.91093" transform="matrix(0.866025 -0.5 0.866025 0.5 414.094 248.742)" fill="#23FBB2"/>
<ellipse rx="5.91093" ry="5.91092" transform="matrix(0.866025 -0.5 0.866025 0.5 376.238 468.91)" fill="#23FBB2"/>
<ellipse rx="6.77874" ry="6.77872" transform="matrix(0.866025 -0.5 0.866025 0.5 295.741 183.777)" fill="#2595FF"/>
<ellipse rx="5.91092" ry="5.91093" transform="matrix(0.866025 -0.5 0.866025 0.5 435.238 391.91)" fill="#3A98FF"/>
<rect width="272" height="285" rx="11" transform="matrix(0.866025 -0.5 -7.98551e-09 1 140 149)" fill="url(#paint0_linear_862_30662)" fill-opacity="0.29"/>
<rect width="277" height="285" rx="11" transform="matrix(0.866025 -0.5 -7.98551e-09 1 147.794 153.5)" fill="url(#paint1_linear_862_30662)" fill-opacity="0.29"/>
<rect width="278" height="285" rx="10" transform="matrix(0.866025 -0.5 -7.98551e-09 1 155.589 157)" fill="#3A98FF"/>
<rect width="246" height="124" rx="10" transform="matrix(0.866025 -0.5 -7.98551e-09 1 169.445 163)" fill="url(#paint2_linear_862_30662)"/>
<path fill-rule="evenodd" clip-rule="evenodd" d="M293.192 163.18C293.192 151.936 285.333 147.399 275.596 153.021C265.858 158.643 258 172.254 258 183.498C258 194.742 265.858 199.279 275.596 193.657C285.333 188.035 293.192 174.424 293.192 163.18ZM283.71 168.654C283.71 163.525 280.123 161.454 275.681 164.018C271.24 166.582 267.567 172.845 267.567 177.974C267.567 183.103 271.154 185.174 275.596 182.61C280.038 180.046 283.71 173.782 283.71 168.654Z" fill="url(#paint3_radial_862_30662)"/>
<path d="M283.91 169.205L283.91 141.059C283.91 135.212 288.035 127.974 293.191 124.997L293.191 163.847L283.91 169.205Z" fill="url(#paint4_linear_862_30662)"/>
<rect width="141" height="12" rx="6" transform="matrix(0.866025 -0.5 -7.98551e-09 1 169.445 318)" fill="white"/>
<path d="M361.306 207.229C356.742 209.864 353.042 216.429 353.042 221.893C353.042 233.435 367.331 230.75 367.331 230.75C367.331 230.75 381.621 216.935 381.621 205.393C381.621 199.929 377.921 197.636 373.357 200.271C370.981 201.643 368.839 204.08 367.331 206.873C365.824 205.821 363.682 205.857 361.306 207.229Z" fill="#40FFC6"/>
<rect width="66" height="8" rx="4" transform="matrix(0.866025 -0.5 -7.98551e-09 1 169.445 343)" fill="#C5E1FC"/>
<rect width="30" height="8" rx="4" transform="matrix(0.866025 -0.5 -7.98551e-09 1 230.066 308)" fill="#C5E1FC"/>
<rect width="121" height="8" rx="4" transform="matrix(0.866025 -0.5 -7.98551e-09 1 169.445 360)" fill="#C5E1FC"/>
<rect width="88" height="8" rx="4" transform="matrix(0.866025 -0.5 -7.98551e-09 1 169.445 377)" fill="#C5E1FC"/>
<path d="M376.515 493.91C395.879 482.896 415.122 471.762 434.487 460.748C445.016 454.697 455.545 448.767 466.075 442.715C468.253 441.384 470.553 439.932 472.973 439.085C475.515 438.116 478.419 437.753 481.082 437.874C482.776 437.995 485.681 439.206 487.133 438.358C488.828 437.39 490.038 437.511 489.191 435.575C488.101 433.154 487.133 430.613 486.649 427.95C485.56 422.504 486.044 416.816 486.044 411.37C486.044 405.318 485.681 400.235 486.407 394.91C487.859 384.502 494.395 375.546 502.262 369.01C519.084 354.971 541.958 348.799 563.38 346.862C585.528 344.926 608.644 347.226 629.339 355.576C647.857 362.959 669.762 377.845 669.157 400.235C669.157 398.541 669.157 403.624 669.157 404.35C669.157 408.223 669.157 411.975 669.157 415.848C669.157 422.746 669.036 429.282 666.131 435.817C656.328 457.481 629.824 467.889 608.039 472.246C585.649 476.845 561.807 476.24 539.659 470.43C536.996 469.704 534.334 468.978 531.792 468.131C530.703 467.768 524.894 464.863 524.046 465.347C521.505 466.8 518.963 468.252 516.422 469.704C514.122 471.036 511.823 472.246 509.644 473.577C509.281 473.819 509.644 476.361 509.523 476.724C509.523 478.781 509.281 480.476 507.708 482.049C505.892 483.864 503.109 485.075 500.93 486.285C496.573 488.827 492.216 491.247 487.738 493.789C474.91 501.171 461.96 508.554 449.131 515.937C438.36 522.109 427.588 528.281 416.696 534.454C409.434 538.689 402.052 541.715 393.58 538.084C389.223 536.148 385.108 533.243 380.993 530.823C378.33 529.249 373.368 527.313 372.4 523.924C371.674 520.172 372.158 516.179 372.158 512.427C372.158 509.522 372.158 506.617 372.158 503.713C372.158 503.108 372.037 498.63 372.279 500.324C372.158 497.419 374.216 495.241 376.515 493.91Z" fill="#C3DFF8"/>
<path d="M631.761 428.795C601.504 446.102 552.73 445.86 522.716 428.311C492.822 410.762 493.064 382.442 523.321 365.135C553.578 347.828 602.351 348.07 632.245 365.619C662.259 383.168 662.017 411.488 631.761 428.795Z" fill="url(#paint5_linear_862_30662)"/>
<path d="M523.192 365.133C525.01 364.044 526.95 363.076 528.89 362.229C529.496 361.866 530.223 361.624 530.951 361.381C532.163 360.897 533.254 360.292 534.466 359.929C534.709 359.808 534.951 359.808 535.073 359.687C535.558 359.566 535.921 359.324 536.406 359.203C537.982 358.598 539.437 358.114 541.134 357.63C541.74 357.509 542.225 357.267 542.832 357.146C543.195 357.025 543.559 356.903 543.923 356.782C544.529 356.661 545.256 356.419 545.862 356.298C547.438 355.935 549.014 355.451 550.712 355.088C551.075 354.967 551.56 354.846 551.924 354.725C552.53 354.604 553.136 354.483 553.864 354.362C555.197 354.12 556.652 353.878 557.986 353.636C558.471 353.515 559.077 353.394 559.562 353.394C560.168 353.273 560.774 353.273 561.38 353.152C562.714 353.031 564.047 352.789 565.381 352.668C565.987 352.668 566.593 352.547 567.199 352.426C567.806 352.426 568.29 352.425 568.897 352.304C570.23 352.183 571.564 352.183 572.897 352.062C573.504 352.062 574.231 351.941 574.837 351.941C575.322 351.941 575.928 351.941 576.413 351.941C577.868 351.941 579.323 351.941 580.778 351.941C581.505 351.941 582.111 351.941 582.838 351.941C583.202 351.941 583.687 352.062 584.051 352.062C585.869 352.183 587.688 352.304 589.385 352.426C590.112 352.426 590.719 352.547 591.325 352.547C591.689 352.547 591.931 352.668 592.295 352.668C592.901 352.668 593.386 352.789 593.992 352.91C595.689 353.152 597.508 353.394 599.205 353.636C599.69 353.757 600.175 353.757 600.66 353.878C600.902 353.878 601.023 353.878 601.266 353.999C602.115 354.12 602.842 354.362 603.569 354.483C605.024 354.846 606.479 355.088 607.934 355.451C608.904 355.693 609.874 356.056 610.843 356.298C612.177 356.661 613.511 357.024 614.844 357.509C615.087 357.63 615.45 357.63 615.693 357.751C617.269 358.235 618.845 358.84 620.3 359.445C620.542 359.566 620.785 359.687 621.027 359.808C622.724 360.534 624.3 361.139 625.876 361.866C626.361 362.108 626.846 362.35 627.331 362.592C629.15 363.439 630.847 364.407 632.544 365.375C632.908 365.496 633.15 365.738 633.514 365.859C633.756 365.98 633.999 366.223 634.363 366.344C634.848 366.586 635.333 366.949 635.817 367.191C636.181 367.433 636.666 367.796 637.03 368.038C637.515 368.401 638 368.643 638.363 369.006C638.727 369.248 639.091 369.49 639.454 369.853C639.939 370.216 640.303 370.579 640.788 370.822C641.152 371.064 641.394 371.306 641.758 371.669C642.122 372.032 642.606 372.395 642.97 372.758C643.091 372.879 643.213 373 643.334 373.121C643.455 373.242 643.576 373.363 643.698 373.484C644.304 374.089 644.91 374.694 645.516 375.3C645.637 375.542 645.88 375.663 646.001 375.905C646.728 376.631 647.335 377.478 648.062 378.325C648.062 378.325 648.062 378.325 648.183 378.446C648.304 378.688 648.426 378.809 648.547 378.93C648.911 379.414 649.274 379.899 649.638 380.383C649.88 380.625 650.002 380.988 650.123 381.23C650.365 381.714 650.729 382.198 650.972 382.561C651.093 382.682 651.093 382.803 651.214 382.924C651.335 383.166 651.335 383.287 651.457 383.529C651.699 383.892 651.82 384.255 652.063 384.619C652.184 384.982 652.426 385.224 652.548 385.587C652.669 385.95 652.911 386.313 653.033 386.797C653.154 386.918 653.154 387.16 653.275 387.281C653.275 387.402 653.396 387.644 653.396 387.765C653.517 388.128 653.639 388.491 653.76 388.854C653.881 389.218 654.002 389.581 654.002 389.823C654.124 390.186 654.124 390.549 654.245 390.912C654.245 391.154 654.366 391.275 654.366 391.517C654.366 391.638 654.366 391.759 654.487 391.88C654.609 392.243 654.609 392.606 654.609 393.09C654.609 393.454 654.73 393.817 654.73 394.059C654.73 394.422 654.851 394.785 654.851 395.269C654.851 395.511 654.851 395.753 654.851 395.995C654.851 396.237 654.851 396.479 654.851 396.721L654.851 419.595C654.851 419.111 654.851 418.748 654.851 418.264C654.851 417.901 654.851 417.417 654.73 417.054C654.73 416.691 654.609 416.328 654.609 416.085C654.609 415.722 654.487 415.359 654.487 414.875C654.366 414.512 654.366 414.149 654.245 413.786C654.124 413.423 654.124 413.06 654.002 412.697C653.881 412.334 653.76 411.971 653.76 411.607C653.639 411.244 653.517 410.881 653.396 410.518C653.275 410.155 653.154 409.792 653.033 409.55C652.911 409.187 652.669 408.824 652.548 408.34C652.426 407.977 652.305 407.735 652.063 407.372C651.82 407.008 651.699 406.645 651.457 406.161C651.335 405.798 651.093 405.556 650.972 405.193C650.729 404.709 650.365 404.346 650.123 403.862C650.002 403.62 649.759 403.257 649.638 403.015C649.274 402.53 648.911 402.046 648.547 401.562C648.426 401.32 648.183 401.078 648.062 400.836C647.456 399.989 646.728 399.263 646.122 398.537C645.88 398.295 645.759 398.174 645.516 397.931C644.91 397.326 644.425 396.721 643.819 396.237C643.576 395.995 643.213 395.753 642.97 395.511C642.606 395.148 642.243 394.906 641.879 394.543C641.515 394.301 641.152 393.938 640.788 393.696C640.424 393.332 639.939 393.09 639.576 392.727C639.212 392.485 638.848 392.122 638.485 391.88C638 391.517 637.636 391.275 637.151 390.912C636.787 390.67 636.302 390.307 635.939 390.065C635.454 389.823 635.09 389.46 634.605 389.218C633.999 388.854 633.393 388.491 632.787 388.128C631.089 387.16 629.392 386.192 627.574 385.345C627.089 385.103 626.604 384.861 626.119 384.74C624.543 384.013 622.845 383.287 621.148 382.561C620.906 382.44 620.663 382.319 620.542 382.319C618.724 381.593 616.905 380.988 614.965 380.383C613.632 380.02 612.298 379.535 610.965 379.172C609.995 378.93 609.025 378.567 607.934 378.325C606.479 377.962 605.024 377.72 603.569 377.357C602.6 377.115 601.63 376.873 600.539 376.752C600.054 376.631 599.569 376.631 599.084 376.51C597.386 376.268 595.568 375.905 593.749 375.784C593.265 375.663 592.658 375.663 592.173 375.542C591.204 375.421 590.112 375.3 589.143 375.3C587.445 375.178 585.627 375.057 583.93 374.936C582.838 374.936 581.747 374.815 580.656 374.815C579.201 374.815 577.747 374.694 576.292 374.815C575.201 374.815 573.988 374.815 572.776 374.936C571.443 374.936 570.109 375.057 568.775 375.178C567.563 375.3 566.472 375.3 565.26 375.421C563.926 375.542 562.714 375.663 561.38 375.784C560.168 375.905 559.077 376.147 557.864 376.268C556.531 376.51 555.197 376.752 553.864 376.994C552.773 377.236 551.682 377.357 550.712 377.599C549.136 377.962 547.56 378.325 545.862 378.688C544.892 378.93 543.801 379.172 542.832 379.535C542.347 379.656 541.74 379.899 541.134 380.02C539.558 380.504 537.982 380.988 536.406 381.593C535.921 381.714 535.558 381.956 535.073 382.077C533.618 382.561 532.284 383.287 530.951 383.771C530.344 384.013 529.617 384.377 529.011 384.619C527.071 385.587 525.131 386.555 523.313 387.523C508.038 396.237 500.4 407.735 500.4 419.232L500.4 396.358C500.279 385.345 507.916 373.847 523.192 365.133Z" fill="url(#paint6_linear_862_30662)"/>
<path d="M485.731 396.844C485.731 398.054 485.852 399.385 485.973 400.596C485.973 400.838 486.094 401.08 486.094 401.322C486.216 402.29 486.458 403.379 486.7 404.347C486.7 404.589 486.822 404.832 486.822 405.074C487.185 406.284 487.549 407.373 487.913 408.462C488.034 408.704 488.155 408.946 488.277 409.188C488.64 410.157 489.125 411.125 489.61 412.093C489.731 412.335 489.853 412.577 489.974 412.819C490.58 414.03 491.307 415.119 492.035 416.208C492.156 416.45 492.398 416.692 492.52 416.934C493.126 417.781 493.732 418.629 494.459 419.476C494.823 419.96 495.187 420.323 495.55 420.807C496.157 421.533 496.884 422.259 497.49 422.985C497.854 423.349 498.339 423.833 498.703 424.196C499.794 425.164 500.885 426.253 502.097 427.221L502.097 450.095C501.127 449.369 500.157 448.522 499.309 447.675C499.066 447.433 498.945 447.312 498.703 447.07C498.218 446.586 497.854 446.223 497.49 445.738C496.763 445.012 496.157 444.286 495.55 443.681C495.187 443.197 494.823 442.834 494.459 442.35C494.217 442.108 493.974 441.866 493.732 441.503C493.247 440.897 492.883 440.292 492.52 439.687C492.277 439.445 492.156 439.203 492.035 438.961C491.307 437.993 490.701 437.025 490.216 435.935C490.095 435.814 490.095 435.693 489.974 435.572C489.853 435.33 489.731 435.088 489.61 434.846C489.125 433.878 488.64 432.91 488.277 431.941C488.155 431.699 488.034 431.457 487.913 431.215C487.913 431.094 487.792 430.973 487.792 430.731C487.428 429.763 487.064 428.795 486.822 427.706C486.7 427.463 486.7 427.221 486.579 426.979C486.458 426.495 486.337 426.011 486.216 425.527C486.094 425.043 486.094 424.438 485.973 423.954C485.973 423.712 485.852 423.47 485.852 423.228C485.731 422.259 485.609 421.291 485.609 420.202C485.609 419.96 485.609 419.718 485.609 419.476C485.609 412.093 485.609 404.468 485.731 396.844Z" fill="url(#paint7_linear_862_30662)"/>
<path d="M486.094 436.547L486.094 459.421H486.215L486.215 436.547C486.215 436.668 486.094 436.547 486.094 436.547Z" fill="#26262E"/>
<path d="M486.215 436.668L486.215 459.542C487.306 459.905 488.276 460.389 489.246 460.873L489.246 437.999C488.276 437.394 487.306 436.91 486.215 436.668Z" fill="#27272F"/>
<path d="M489.247 437.992L489.247 460.745L505.371 470.306L505.492 447.432L489.247 437.992Z" fill="#2A2A32"/>
<path d="M505.492 447.438L505.492 470.312C505.613 470.312 505.613 470.433 505.734 470.433L505.734 447.559C505.613 447.559 505.492 447.438 505.492 447.438Z" fill="#27272F"/>
<path d="M505.613 447.559L505.613 470.433C506.219 470.796 506.826 471.28 507.311 471.643L507.311 448.769C506.826 448.406 506.341 447.922 505.613 447.559Z" fill="#26262E"/>
<path d="M507.311 448.773L507.311 471.647C507.432 471.768 507.674 472.011 507.795 472.132L507.795 449.257C507.674 449.136 507.432 449.015 507.311 448.773Z" fill="#25252C"/>
<path d="M507.796 449.249L507.796 472.123L523.92 462.925L523.92 440.051L507.796 449.249Z" fill="url(#paint8_linear_862_30662)"/>
<path d="M486.095 436.541L502.219 427.343C477.609 407.01 480.397 378.69 511.19 360.173C511.797 359.81 512.403 359.447 512.888 359.205C548.045 339.114 605.025 338.872 641.031 358.842C677.522 379.174 678.735 412.82 643.698 433.878C643.092 434.241 642.607 434.604 642.001 434.846C609.874 453.121 559.805 455.058 523.92 440.051L507.796 449.249C507.19 448.643 506.462 448.038 505.492 447.433L489.247 437.872C488.277 437.388 487.186 436.904 486.095 436.541ZM631.696 428.795C662.005 411.488 662.247 383.289 632.302 365.74C602.358 348.191 553.501 347.949 523.193 365.256C492.884 382.563 492.642 410.762 522.586 428.432C552.531 445.86 601.388 446.102 631.696 428.795Z" fill="url(#paint9_linear_862_30662)"/>
<path d="M523.92 440.05C526.466 441.14 529.012 441.987 531.679 442.955C532.528 443.197 533.497 443.439 534.346 443.802C536.043 444.286 537.862 444.891 539.559 445.376C540.529 445.618 541.62 445.86 542.59 446.102C544.287 446.465 546.106 446.949 547.803 447.191C549.015 447.433 550.349 447.675 551.682 447.917C552.41 448.038 553.259 448.159 553.986 448.28C555.926 448.522 557.744 448.764 559.684 449.006C560.169 449.006 560.533 449.127 561.017 449.127C563.321 449.369 565.624 449.611 567.806 449.732C568.413 449.732 568.898 449.853 569.504 449.853C570.837 449.975 572.171 449.975 573.504 449.975C575.444 449.975 577.263 450.096 579.081 449.975C580.172 449.975 581.263 449.975 582.354 449.975C584.173 449.975 585.87 449.854 587.689 449.732C588.78 449.611 589.871 449.611 590.962 449.49C592.902 449.369 594.842 449.127 596.66 448.885C597.509 448.764 598.479 448.643 599.327 448.522C602.116 448.159 605.025 447.675 607.692 447.07C609.874 446.586 612.057 446.102 614.118 445.618C614.603 445.497 615.209 445.376 615.694 445.254C617.391 444.77 619.088 444.286 620.664 443.802C621.27 443.681 621.877 443.439 622.483 443.197C624.665 442.471 626.726 441.745 628.787 440.898C630.12 440.292 631.454 439.687 632.909 439.082C633.757 438.719 634.606 438.356 635.455 437.993C637.637 437.025 639.698 435.935 641.759 434.725C642.365 434.362 642.971 433.999 643.456 433.757C660.55 423.47 668.915 410.278 669.036 397.086L669.036 419.96C669.036 433.152 660.55 446.344 643.456 456.631C642.85 456.994 642.365 457.357 641.759 457.599C639.698 458.809 637.637 459.899 635.455 460.867C634.848 461.109 634.242 461.351 633.636 461.714C632.06 462.44 630.484 463.166 628.787 463.772C628.787 463.772 628.666 463.772 628.666 463.893C626.726 464.619 624.665 465.345 622.604 466.071C621.998 466.313 621.392 466.434 620.785 466.676C619.694 467.039 618.724 467.402 617.633 467.644C617.027 467.765 616.421 468.008 615.815 468.129C615.33 468.25 614.724 468.371 614.239 468.492C612.178 468.976 610.117 469.46 608.056 469.944C607.935 469.944 607.935 469.944 607.813 469.944C605.025 470.549 602.237 471.033 599.327 471.396C599.206 471.396 599.085 471.396 598.963 471.396C598.236 471.517 597.63 471.517 596.902 471.638C594.963 471.88 592.902 472.122 590.962 472.243C590.598 472.243 590.356 472.364 589.992 472.364C589.265 472.364 588.537 472.364 587.81 472.485C585.991 472.606 584.173 472.728 582.354 472.728C581.87 472.728 581.385 472.849 580.9 472.849C580.294 472.849 579.687 472.849 579.081 472.849C577.141 472.849 575.323 472.849 573.383 472.849C572.777 472.849 572.05 472.849 571.443 472.849C570.716 472.849 570.11 472.728 569.504 472.728C568.898 472.728 568.413 472.728 567.806 472.607C565.624 472.486 563.442 472.364 561.26 472.122C561.139 472.122 561.017 472.122 561.017 472.122C560.533 472.122 560.169 472.001 559.684 472.001C557.744 471.759 555.804 471.517 553.865 471.275C553.137 471.154 552.41 471.033 551.682 470.912C550.955 470.791 550.228 470.67 549.379 470.549C548.773 470.428 548.167 470.307 547.682 470.186C545.985 469.823 544.287 469.46 542.59 469.097C541.499 468.855 540.408 468.613 539.438 468.371C537.741 467.886 536.043 467.402 534.346 466.918C533.619 466.676 532.891 466.555 532.164 466.313C531.921 466.192 531.679 466.192 531.437 466.071C528.769 465.224 526.223 464.256 523.799 463.166L523.92 440.05Z" fill="#E4E7FB"/>
<path d="M505.371 458.45C508.038 456.877 509.372 454.94 509.372 452.883L509.372 475.757C509.372 477.814 508.038 479.751 505.371 481.324L411.173 535.06L411.173 512.186L505.371 458.45Z" fill="#E4E7FB"/>
<path d="M376.016 491.608C370.682 494.633 370.682 499.596 375.895 502.621L392.14 512.061C397.353 515.087 405.961 515.208 411.174 512.182L505.372 458.447C509.736 456.026 510.464 452.153 507.797 449.249C507.19 448.643 506.463 448.038 505.493 447.433L489.248 437.872C488.278 437.267 487.187 436.904 486.096 436.541C481.004 434.967 474.457 435.331 470.214 437.872L376.016 491.608Z" fill="url(#paint10_linear_862_30662)"/>
<path d="M372.136 498.507L372.136 498.628C372.257 499.112 372.5 499.475 372.742 499.838C372.742 499.959 372.863 499.959 372.863 500.08C373.106 500.443 373.469 500.927 373.954 501.291C374.197 501.533 374.561 501.775 374.924 502.017C375.167 502.259 375.409 502.38 375.773 502.622L392.018 512.062C392.867 512.546 393.715 512.909 394.685 513.272C395.049 513.393 395.413 513.514 395.655 513.635C396.14 513.756 396.504 513.877 396.989 513.998C397.474 514.119 398.08 514.24 398.686 514.24C398.807 514.24 398.928 514.24 399.05 514.24C399.777 514.361 400.504 514.361 401.353 514.361C401.474 514.361 401.596 514.361 401.717 514.361C402.444 514.361 403.172 514.361 403.899 514.24C404.02 514.24 404.141 514.24 404.263 514.24C404.99 514.119 405.717 513.998 406.445 513.877C406.566 513.877 406.687 513.877 406.809 513.756C407.415 513.635 408.021 513.393 408.627 513.151C408.748 513.151 408.87 513.03 408.991 513.03C409.718 512.788 410.446 512.425 411.052 512.062L411.052 534.936C410.446 535.299 409.839 535.541 409.112 535.783H408.991C408.87 535.783 408.748 535.904 408.627 535.904C408.263 536.025 407.9 536.146 407.536 536.267C407.294 536.388 407.051 536.388 406.809 536.388C406.687 536.388 406.566 536.509 406.445 536.509C406.324 536.509 406.202 536.63 406.081 536.63C405.596 536.751 405.233 536.751 404.748 536.872C404.626 536.872 404.384 536.872 404.263 536.872C404.141 536.872 404.02 536.872 403.899 536.872C403.778 536.872 403.535 536.872 403.414 536.872C402.929 536.872 402.565 536.872 402.08 536.993C401.959 536.993 401.838 536.993 401.717 536.993C401.596 536.993 401.474 536.993 401.353 536.993C401.111 536.993 400.989 536.993 400.747 536.993C400.262 536.993 399.777 536.993 399.292 536.872H399.171C399.05 536.872 398.928 536.872 398.807 536.751C398.444 536.751 398.08 536.63 397.716 536.63C397.595 536.63 397.352 536.509 397.231 536.509C396.746 536.388 396.261 536.267 395.898 536.146C395.655 536.025 395.413 536.025 395.17 536.025C395.049 536.025 394.928 535.904 394.928 535.904C393.958 535.541 393.109 535.178 392.261 534.694L376.015 525.254C375.894 525.254 375.894 525.133 375.894 525.133C375.652 525.012 375.409 524.77 375.288 524.649C374.924 524.407 374.561 524.165 374.318 523.922H374.197C373.833 523.559 373.591 523.317 373.348 522.954C373.227 522.833 373.227 522.833 373.227 522.712C373.106 522.591 373.106 522.591 373.106 522.47C372.985 522.349 372.863 522.228 372.863 522.107C372.742 521.865 372.621 521.623 372.5 521.381L372.5 521.26L372.5 521.139C372.5 521.018 372.378 520.776 372.378 520.655C372.257 520.413 372.257 520.171 372.257 519.929L372.257 519.808L372.257 496.934C371.893 497.66 372.015 498.144 372.136 498.507Z" fill="#EFF1FE"/>
<path opacity="0.3" d="M631.761 428.553C601.504 445.859 552.73 445.617 522.716 428.069C492.822 410.52 493.064 382.2 523.321 364.893C553.578 347.586 602.351 347.828 632.245 365.377C662.259 382.926 662.017 411.246 631.761 428.553Z" fill="url(#paint11_linear_862_30662)"/>
<g clip-path="url(#clip1_862_30662)">
<g opacity="0.3" filter="url(#filter0_f_862_30662)">
<path d="M79.6638 519.912C76.29 517.953 76.1124 514.569 79.6638 512.61L145.011 474.497C148.384 472.538 154.067 472.538 157.441 474.497L223.142 512.61C226.516 514.569 226.694 517.953 223.142 519.912L157.973 558.026C154.599 559.985 148.917 559.985 145.543 558.026L79.6638 519.912Z" fill="#96AEE5"/>
</g>
<path d="M225.806 466.306C225.806 466.484 225.806 466.484 225.806 466.662L225.806 466.84C225.806 467.018 225.806 467.018 225.806 467.196L225.806 467.374C225.806 467.552 225.806 467.552 225.629 467.731C225.629 467.909 225.451 467.909 225.451 468.087C225.451 468.265 225.273 468.265 225.096 468.443C224.918 468.621 224.918 468.621 224.741 468.799C224.741 468.799 224.563 468.977 224.386 468.977L224.208 469.155C224.03 469.155 224.03 469.333 223.853 469.333C223.675 469.333 223.675 469.512 223.498 469.512L157.973 507.803L157.796 554.822L223.143 516.708C223.143 516.708 223.143 516.708 223.32 516.708L223.498 516.53C223.675 516.53 223.675 516.352 223.853 516.352L224.03 516.174C224.208 516.174 224.208 515.996 224.386 515.996C224.563 515.818 224.563 515.818 224.741 515.64L224.918 515.461C224.918 515.461 224.918 515.283 225.096 515.283C225.096 515.105 225.273 515.105 225.273 514.927C225.273 514.749 225.273 514.749 225.451 514.571L225.451 514.393C225.451 514.393 225.451 514.215 225.451 514.037L225.451 513.859C225.451 513.859 225.451 513.68 225.451 513.502L225.451 513.324L225.629 466.306C225.806 466.128 225.806 466.306 225.806 466.306Z" fill="#E4E7FB"/>
<path d="M79.6636 469.685C77.8879 468.617 77 467.37 77 465.945L77 512.964C77 514.211 77.8879 515.635 79.6636 516.704L145.365 554.817L145.543 507.799L79.6636 469.685Z" fill="#EFF1FE"/>
<path d="M223.143 462.385C226.516 464.344 226.694 467.728 223.143 469.687L157.973 507.801C154.6 509.76 148.917 509.76 145.543 507.801L79.8416 469.687C76.4677 467.728 76.2901 464.344 79.8416 462.385L145.011 424.45C148.385 422.491 154.067 422.491 157.441 424.45L223.143 462.385Z" fill="white"/>
<path d="M79.6638 466.838C76.29 464.879 76.1124 461.495 79.6638 459.536L145.011 421.422C148.384 419.463 154.067 419.463 157.441 421.422L223.142 459.536C226.516 461.495 226.694 464.879 223.142 466.838L157.973 504.952C154.599 506.911 148.917 506.911 145.543 504.952L79.6638 466.838Z" fill="url(#paint12_linear_862_30662)"/>
<path d="M156.908 555.175C157.263 554.997 158.328 554.462 158.506 554.284L158.506 507.444C158.328 507.622 157.263 508.156 157.085 508.156C157.085 508.156 156.908 508.156 156.908 508.334C156.73 508.512 156.375 508.512 156.197 508.512C156.197 508.512 156.02 508.512 156.02 508.69C155.842 508.69 155.665 508.69 155.487 508.869C155.309 508.869 155.309 508.869 155.132 509.047C154.954 509.047 154.777 509.047 154.599 509.225C154.422 509.225 154.422 509.225 154.244 509.225C153.889 509.225 153.534 509.403 153.179 509.403C153.001 509.403 153.001 509.403 152.823 509.403C152.646 509.403 152.468 509.403 152.291 509.403C152.113 509.403 152.113 509.403 151.936 509.403C151.758 509.403 151.58 509.403 151.403 509.403C151.225 509.403 151.048 509.403 151.048 509.403C150.87 509.403 150.693 509.403 150.693 509.403C150.515 509.403 150.337 509.403 150.337 509.403C150.16 509.403 149.982 509.403 149.982 509.403C149.805 509.403 149.627 509.403 149.627 509.403C149.45 509.403 149.272 509.403 149.094 509.403C148.917 509.403 148.917 509.403 148.739 509.403C148.562 509.403 148.384 509.403 148.207 509.225C148.029 509.225 148.029 509.225 147.851 509.225C147.496 509.047 147.141 509.047 146.964 508.869C146.786 508.869 146.608 508.69 146.608 508.69C146.608 508.69 146.431 508.69 146.431 508.512C145.898 507.978 144.655 507.266 144.478 507.266L144.478 554.284C144.655 554.462 145.721 554.997 146.076 555.175C146.076 555.175 146.253 555.175 146.253 555.353C146.431 555.353 146.431 555.531 146.608 555.531C146.964 555.709 147.141 555.709 147.496 555.887H147.674C147.851 555.887 148.029 556.065 148.207 556.065H148.384H148.562C148.739 556.065 148.917 556.065 149.094 556.065H149.272H149.45C149.627 556.065 149.805 556.065 149.805 556.065H149.982H150.16C150.337 556.065 150.515 556.065 150.515 556.065H150.693H150.87C151.048 556.065 151.225 556.065 151.403 556.065H151.58H151.758C151.936 556.065 152.113 556.065 152.291 556.065H152.468C152.823 556.065 153.179 556.065 153.534 555.887C153.711 555.887 153.711 555.887 153.889 555.887C154.066 555.887 154.244 555.887 154.422 555.709C154.599 555.709 154.599 555.709 154.777 555.531C154.954 555.531 155.132 555.531 155.309 555.353C155.309 555.353 155.309 555.353 155.487 555.353H155.665C155.842 555.353 156.197 555.175 156.375 554.997C156.908 555.175 156.908 555.175 156.908 555.175Z" fill="url(#paint13_linear_862_30662)"/>
<path d="M128.496 509.403L125.122 507.444C124.057 506.909 123.169 507.265 123.169 508.512C123.169 509.759 124.057 511.184 125.122 511.718L128.319 513.677C129.384 514.211 130.272 513.855 130.272 512.608C130.272 511.362 129.562 509.937 128.496 509.403Z" fill="#96AEE5"/>
<path d="M128.496 516.348L125.122 514.389C124.057 513.855 123.169 514.211 123.169 515.457C123.169 516.704 124.057 518.129 125.122 518.663L128.319 520.622C129.384 521.157 130.272 520.8 130.272 519.554C130.272 518.485 129.562 517.06 128.496 516.348Z" fill="#96AEE5"/>
<path d="M128.496 523.473L125.122 521.514C124.057 520.98 123.169 521.336 123.169 522.582C123.169 523.829 124.057 525.254 125.122 525.788L128.319 527.747C129.384 528.282 130.272 527.925 130.272 526.679C130.272 525.432 129.562 524.007 128.496 523.473Z" fill="#40FFC6"/>
<path d="M128.496 530.418L125.122 528.459C124.057 527.925 123.169 528.281 123.169 529.528C123.169 530.774 124.057 532.199 125.122 532.734L128.319 534.693C129.384 535.227 130.272 534.871 130.272 533.624C130.272 532.555 129.562 530.953 128.496 530.418Z" fill="#96AEE5"/>
<path d="M137.907 514.387L134.533 512.428C133.468 511.894 132.58 512.25 132.58 513.497C132.58 514.743 133.468 516.168 134.533 516.702L137.907 518.661C138.973 519.196 139.861 518.84 139.861 517.593C139.861 516.346 138.973 514.921 137.907 514.387Z" fill="#2595FF"/>
<path d="M137.907 521.336L134.533 519.377C133.468 518.843 132.58 519.199 132.58 520.446C132.58 521.692 133.468 523.117 134.533 523.652L137.907 525.611C138.973 526.145 139.861 525.789 139.861 524.542C139.861 523.473 138.973 521.871 137.907 521.336Z" fill="#96AEE5"/>
<path d="M137.907 528.282L134.533 526.322C133.468 525.788 132.58 526.144 132.58 527.391C132.58 528.638 133.468 530.063 134.533 530.597L137.907 532.556C138.973 533.09 139.861 532.734 139.861 531.487C139.861 530.419 138.973 528.994 137.907 528.282Z" fill="#96AEE5"/>
<path d="M137.907 535.407L134.533 533.447C133.468 532.913 132.58 533.269 132.58 534.516C132.58 535.763 133.468 537.188 134.533 537.722L137.907 539.681C138.973 540.215 139.861 539.859 139.861 538.612C139.861 537.544 138.973 535.941 137.907 535.407Z" fill="#96AEE5"/>
<path d="M116.244 523.296L83.0383 504.061C81.9728 503.526 81.085 503.883 81.085 505.129C81.085 506.376 81.9728 507.801 83.0383 508.335L116.244 527.57C117.31 528.104 118.198 527.748 118.198 526.501C118.198 525.433 117.31 524.008 116.244 523.296Z" fill="url(#paint14_linear_862_30662)"/>
<path d="M116.244 513.499L83.0383 494.264C81.9728 493.73 81.085 494.086 81.085 495.332C81.085 496.579 81.9728 498.004 83.0383 498.538L116.244 517.773C117.31 518.307 118.198 517.951 118.198 516.705C118.198 515.458 117.31 514.033 116.244 513.499Z" fill="url(#paint15_linear_862_30662)"/>
<path d="M116.244 503.526L83.0383 484.291C81.9728 483.757 81.085 484.113 81.085 485.36C81.085 486.607 81.9728 488.031 83.0383 488.566L116.244 507.8C117.31 508.335 118.198 507.979 118.198 506.732C118.198 505.485 117.31 504.06 116.244 503.526Z" fill="url(#paint16_linear_862_30662)"/>
<path d="M211.244 514.744L169.515 539.144L169.515 509.579L211.244 485.18L211.244 514.744Z" fill="url(#paint17_linear_862_30662)"/>
<path d="M149.627 466.387L166.277 456.742C169.736 454.738 175.426 454.706 178.948 456.747L155.967 470.06L149.627 466.387Z" fill="url(#paint18_linear_862_30662)"/>
<path fill-rule="evenodd" clip-rule="evenodd" d="M156.318 469.858C163.001 465.986 162.995 459.733 156.303 455.857C149.611 451.98 138.816 451.976 132.133 455.848C125.45 459.719 125.457 465.972 132.149 469.849C138.841 473.725 149.635 473.729 156.318 469.858ZM149.802 466.083C152.851 464.317 152.848 461.463 149.795 459.694C146.743 457.926 141.756 457.89 138.708 459.656C135.659 461.422 135.662 464.277 138.715 466.045C141.767 467.813 146.754 467.849 149.802 466.083Z" fill="url(#paint19_radial_862_30662)"/>
</g>
<path d="M541.621 81.571C541.621 73.6445 547.186 70.4316 554.05 74.3949L656.663 133.638C663.528 137.602 669.093 147.24 669.093 155.167L669.093 234.731C669.093 242.658 663.528 245.871 656.663 241.907L554.05 182.664C547.186 178.701 541.621 169.062 541.621 161.135L541.621 81.571Z" fill="url(#paint20_linear_862_30662)" fill-opacity="0.29"/>
<path d="M533 85.8327C533 77.9062 538.565 74.6933 545.429 78.6566L648.042 137.9C654.907 141.863 660.471 151.502 660.471 159.428L660.471 238.993C660.471 246.919 654.907 250.132 648.042 246.169L545.429 186.926C538.565 182.962 533 173.324 533 165.397L533 85.8327Z" fill="#3A98FF"/>
<path d="M599.301 227.031C599.301 228.601 598.199 229.237 596.838 228.452C595.478 227.666 594.375 225.757 594.375 224.187C594.375 222.617 595.478 221.98 596.838 222.766C598.199 223.551 599.301 225.461 599.301 227.031Z" fill="#3A98FF"/>
<path d="M599.301 241.246C599.301 242.816 598.199 243.452 596.838 242.667C595.478 241.881 594.375 239.972 594.375 238.402C594.375 236.831 595.478 236.195 596.838 236.981C598.199 237.766 599.301 239.676 599.301 241.246Z" fill="#3A98FF"/>
<path d="M599.301 255.461C599.301 257.031 598.199 257.667 596.838 256.881C595.478 256.096 594.375 254.187 594.375 252.616C594.375 251.046 595.478 250.41 596.838 251.196C598.199 251.981 599.301 253.891 599.301 255.461Z" fill="#3A98FF"/>
<path d="M599.301 269.676C599.301 271.246 598.199 271.882 596.838 271.096C595.478 270.311 594.375 268.401 594.375 266.831C594.375 265.261 595.478 264.625 596.838 265.41C598.199 266.196 599.301 268.105 599.301 269.676Z" fill="#3A98FF"/>
<path d="M599.301 283.89C599.301 285.46 598.199 286.097 596.838 285.311C595.478 284.526 594.375 282.616 594.375 281.046C594.375 279.476 595.478 278.84 596.838 279.625C598.199 280.411 599.301 282.32 599.301 283.89Z" fill="#3A98FF"/>
<path d="M601.56 302.014C601.56 305.023 599.446 306.242 596.838 304.737C594.231 303.232 592.117 299.572 592.117 296.562C592.117 293.553 594.231 292.334 596.838 293.839C599.446 295.344 601.56 299.004 601.56 302.014Z" fill="#3A98FF"/>
<path d="M616.678 171.542C616.678 187.109 605.749 193.419 592.268 185.635C578.786 177.851 567.857 158.922 567.857 143.355C567.857 127.788 578.786 121.478 592.268 129.261C605.749 137.045 616.678 155.974 616.678 171.542Z" fill="white"/>
<path d="M578.47 155.064C578.47 157.066 578.827 159.256 579.52 161.506C580.214 163.757 581.23 166.025 582.511 168.181C583.792 170.337 585.313 172.338 586.987 174.071C588.661 175.804 590.455 177.234 592.267 178.28C594.079 179.326 595.873 179.968 597.547 180.168C599.221 180.368 600.742 180.123 602.023 179.446C603.305 178.77 604.321 177.675 605.014 176.225C605.708 174.775 606.064 172.998 606.064 170.995C606.064 170.995 597.697 164.258 592.267 161.123C586.837 157.988 578.47 155.064 578.47 155.064Z" fill="#2595FF"/>
<path d="M585.967 146.457C586.517 146.774 586.97 146.519 586.887 145.844C586.833 145.402 586.75 144.952 586.639 144.5C586.425 143.633 586.113 142.777 585.718 141.98C585.324 141.184 584.856 140.462 584.341 139.857C583.826 139.252 583.274 138.775 582.717 138.453C582.159 138.131 581.607 137.971 581.092 137.981C580.577 137.992 580.109 138.173 579.715 138.514C579.32 138.856 579.008 139.351 578.794 139.971C578.683 140.295 578.6 140.649 578.546 141.028C578.463 141.608 578.916 142.386 579.466 142.703C580.015 143.02 580.445 142.744 580.601 142.226C580.611 142.194 580.621 142.162 580.632 142.13C580.745 141.8 580.911 141.537 581.121 141.356C581.33 141.174 581.579 141.078 581.853 141.073C582.127 141.067 582.42 141.152 582.717 141.323C583.013 141.494 583.306 141.748 583.58 142.07C583.854 142.391 584.103 142.775 584.312 143.198C584.522 143.622 584.688 144.077 584.801 144.537C584.812 144.581 584.822 144.625 584.832 144.669C584.988 145.367 585.418 146.14 585.967 146.457Z" fill="#3A98FF"/>
<path d="M605.071 157.488C605.62 157.805 606.073 157.55 605.991 156.875C605.937 156.434 605.854 155.983 605.742 155.531C605.529 154.664 605.216 153.808 604.822 153.012C604.428 152.215 603.96 151.494 603.445 150.888C602.93 150.283 602.378 149.806 601.82 149.484C601.263 149.162 600.711 149.002 600.195 149.012C599.68 149.023 599.212 149.204 598.818 149.545C598.424 149.887 598.111 150.382 597.898 151.002C597.787 151.326 597.703 151.68 597.649 152.06C597.567 152.639 598.02 153.417 598.569 153.735C599.118 154.052 599.548 153.775 599.704 153.257C599.714 153.225 599.725 153.193 599.735 153.161C599.849 152.832 600.015 152.569 600.224 152.387C600.434 152.206 600.683 152.109 600.957 152.104C601.23 152.098 601.524 152.183 601.82 152.354C602.116 152.526 602.41 152.779 602.684 153.101C602.957 153.423 603.206 153.806 603.416 154.23C603.625 154.653 603.791 155.108 603.905 155.569C603.916 155.613 603.926 155.656 603.936 155.7C604.092 156.398 604.522 157.171 605.071 157.488Z" fill="#3A98FF"/>
</g>
<defs>
<filter id="filter0_f_862_30662" x="73.0664" y="469.027" width="156.674" height="94.4688" filterUnits="userSpaceOnUse" color-interpolation-filters="sRGB">
<feFlood flood-opacity="0" result="BackgroundImageFix"/>
<feBlend mode="normal" in="SourceGraphic" in2="BackgroundImageFix" result="shape"/>
<feGaussianBlur stdDeviation="2" result="effect1_foregroundBlur_862_30662"/>
</filter>
<linearGradient id="paint0_linear_862_30662" x1="136" y1="0" x2="136" y2="285" gradientUnits="userSpaceOnUse">
<stop offset="0.51875" stop-color="#1383FE"/>
<stop offset="1" stop-color="#3A98FF" stop-opacity="0"/>
</linearGradient>
<linearGradient id="paint1_linear_862_30662" x1="138.5" y1="0" x2="138.5" y2="285" gradientUnits="userSpaceOnUse">
<stop offset="0.51875" stop-color="#1383FE"/>
<stop offset="1" stop-color="#3A98FF" stop-opacity="0"/>
</linearGradient>
<linearGradient id="paint2_linear_862_30662" x1="123" y1="0" x2="123" y2="124" gradientUnits="userSpaceOnUse">
<stop stop-color="#F4F7FE"/>
<stop offset="1" stop-color="#DAF8FF"/>
</linearGradient>
<radialGradient id="paint3_radial_862_30662" cx="0" cy="0" r="1" gradientUnits="userSpaceOnUse" gradientTransform="translate(265.431 158.889) rotate(26.582) scale(21.4904 35.0294)">
<stop stop-color="#00FFB3"/>
<stop offset="1" stop-color="#2499FF"/>
</radialGradient>
<linearGradient id="paint4_linear_862_30662" x1="288.537" y1="166.501" x2="273.695" y2="140.795" gradientUnits="userSpaceOnUse">
<stop offset="0.2862" stop-color="#2499FF"/>
<stop offset="1" stop-color="#05D6FF"/>
</linearGradient>
<linearGradient id="paint5_linear_862_30662" x1="654.65" y1="397.298" x2="500.554" y2="396.648" gradientUnits="userSpaceOnUse">
<stop stop-color="#B7C0EB"/>
<stop offset="1" stop-color="#E4E7FB"/>
</linearGradient>
<linearGradient id="paint6_linear_862_30662" x1="577.379" y1="420.042" x2="577.672" y2="352.371" gradientUnits="userSpaceOnUse">
<stop stop-color="#B7C0EB"/>
<stop offset="0.7274" stop-color="#E4E7FB"/>
</linearGradient>
<linearGradient id="paint7_linear_862_30662" x1="493.832" y1="450.163" x2="494.063" y2="396.858" gradientUnits="userSpaceOnUse">
<stop stop-color="#F1F4FE"/>
<stop offset="0.5797" stop-color="#F7F9FE"/>
<stop offset="1" stop-color="white"/>
</linearGradient>
<linearGradient id="paint8_linear_862_30662" x1="515.774" y1="472.148" x2="515.913" y2="440.016" gradientUnits="userSpaceOnUse">
<stop stop-color="#B7C0EB"/>
<stop offset="0.5324" stop-color="#E4E7FB"/>
<stop offset="1" stop-color="#E4E7FB"/>
</linearGradient>
<linearGradient id="paint9_linear_862_30662" x1="577.451" y1="344" x2="577.451" y2="450.073" gradientUnits="userSpaceOnUse">
<stop stop-color="#5BEDC5"/>
<stop offset="0.466667" stop-color="#00D0FF"/>
<stop offset="1" stop-color="#2595FF"/>
</linearGradient>
<linearGradient id="paint10_linear_862_30662" x1="440.677" y1="435.598" x2="440.677" y2="514.392" gradientUnits="userSpaceOnUse">
<stop stop-color="#5BEDC5"/>
<stop offset="0.466667" stop-color="#00D0FF"/>
<stop offset="1" stop-color="#2595FF"/>
</linearGradient>
<linearGradient id="paint11_linear_862_30662" x1="577.533" y1="352.062" x2="577.533" y2="441.383" gradientUnits="userSpaceOnUse">
<stop stop-color="#E2F1FF"/>
<stop offset="1" stop-color="white"/>
</linearGradient>
<linearGradient id="paint12_linear_862_30662" x1="151.469" y1="506.364" x2="151.469" y2="419.998" gradientUnits="userSpaceOnUse">
<stop stop-color="#F1F4FE"/>
<stop offset="0.5797" stop-color="#F7F9FE"/>
<stop offset="1" stop-color="white"/>
</linearGradient>
<linearGradient id="paint13_linear_862_30662" x1="144.448" y1="531.697" x2="158.594" y2="531.697" gradientUnits="userSpaceOnUse">
<stop stop-color="#EFF1FE"/>
<stop offset="1" stop-color="#E4E7FB"/>
</linearGradient>
<linearGradient id="paint14_linear_862_30662" x1="81.1453" y1="515.836" x2="118.113" y2="515.836" gradientUnits="userSpaceOnUse">
<stop stop-color="#48FAC9"/>
<stop offset="0.505208" stop-color="#4AE6FF"/>
<stop offset="1" stop-color="#2595FF"/>
</linearGradient>
<linearGradient id="paint15_linear_862_30662" x1="81.1453" y1="506.039" x2="118.113" y2="506.039" gradientUnits="userSpaceOnUse">
<stop stop-color="#48FAC9"/>
<stop offset="0.505208" stop-color="#4AE6FF"/>
<stop offset="1" stop-color="#2595FF"/>
</linearGradient>
<linearGradient id="paint16_linear_862_30662" x1="81.1453" y1="496.066" x2="118.113" y2="496.066" gradientUnits="userSpaceOnUse">
<stop stop-color="#48FAC9"/>
<stop offset="0.505208" stop-color="#4AE6FF"/>
<stop offset="1" stop-color="#2595FF"/>
</linearGradient>
<linearGradient id="paint17_linear_862_30662" x1="154.046" y1="487.069" x2="211.211" y2="512.066" gradientUnits="userSpaceOnUse">
<stop stop-color="#48FAC9"/>
<stop offset="0.505208" stop-color="#4AE6FF"/>
<stop offset="1" stop-color="#2595FF"/>
</linearGradient>
<linearGradient id="paint18_linear_862_30662" x1="152.807" y1="468.206" x2="162.995" y2="450.618" gradientUnits="userSpaceOnUse">
<stop offset="0.2862" stop-color="#2499FF"/>
<stop offset="1" stop-color="#05D6FF"/>
</linearGradient>
<radialGradient id="paint19_radial_862_30662" cx="0" cy="0" r="1" gradientUnits="userSpaceOnUse" gradientTransform="translate(149.317 451.81) rotate(86.53) scale(14.8103 24.0563)">
<stop stop-color="#00FFB3"/>
<stop offset="1" stop-color="#2499FF"/>
</radialGradient>
<linearGradient id="paint20_linear_862_30662" x1="605.357" y1="104.017" x2="558.475" y2="185.218" gradientUnits="userSpaceOnUse">
<stop offset="0.51875" stop-color="#1383FE"/>
<stop offset="1" stop-color="#3A98FF" stop-opacity="0"/>
</linearGradient>
<clipPath id="clip0_862_30662">
<rect width="766" height="615" fill="white"/>
</clipPath>
<clipPath id="clip1_862_30662">
<rect width="148.806" height="144" fill="white" transform="translate(77 420)"/>
</clipPath>
</defs>
</svg>
