<svg width="766" height="615" viewBox="0 0 766 615" fill="none" xmlns="http://www.w3.org/2000/svg">
<g clip-path="url(#clip0_862_30795)">
<rect x="1.73205" width="243.268" height="275.814" rx="29" transform="matrix(0.866025 -0.5 0.866025 0.5 135.847 264.3)" stroke="#D8ECFF" stroke-width="2"/>
<rect x="1.73205" width="298.96" height="275.814" rx="29" transform="matrix(0.866025 -0.5 0.866025 0.5 182.319 434.011)" stroke="#D8ECFF" stroke-width="2"/>
<rect x="1.73205" width="268.832" height="287.318" rx="29" transform="matrix(0.866025 -0.5 0.866025 0.5 15.6207 385.436)" stroke="#D8ECFF" stroke-width="2"/>
<circle r="3.69433" transform="matrix(0.866025 -0.5 0.866025 0.5 50.4808 364.309)" fill="#23FBB2"/>
<ellipse rx="5.91092" ry="5.91093" transform="matrix(0.866025 -0.5 0.866025 0.5 394.094 310.742)" fill="#23FBB2"/>
<ellipse rx="5.91093" ry="5.91092" transform="matrix(0.866025 -0.5 0.866025 0.5 331.238 489.906)" fill="#23FBB2"/>
<ellipse rx="3.69434" ry="3.69433" transform="matrix(0.866025 -0.5 0.866025 0.5 421.61 183.285)" fill="#3A98FF"/>
<ellipse rx="5.91093" ry="5.91092" transform="matrix(0.866025 -0.5 0.866025 0.5 490.076 533.141)" fill="#3A98FF"/>
<ellipse rx="5.91092" ry="5.91093" transform="matrix(0.866025 -0.5 0.866025 0.5 223.887 212.473)" fill="#3A98FF"/>
<path d="M413.804 12.4479L351.079 -24.0469L288 12.4479L288.354 295.548L350.961 332.043L414.041 295.548L413.804 12.4479Z" fill="url(#paint0_linear_862_30795)"/>
<path d="M495.193 146.259L432.468 109.883L369.389 146.259L369.625 342.67L432.35 379.047L495.429 342.67L495.193 146.259Z" fill="url(#paint1_linear_862_30795)"/>
<path d="M577.763 280.076L515.038 243.699L451.959 280.076L452.195 390.623L514.92 427L578 390.623L577.763 280.076Z" fill="url(#paint2_linear_862_30795)"/>
<path d="M288 9.37669L350.607 45.8715L413.804 9.37669L351.079 -27L288 9.37669Z" fill="white"/>
<path d="M291.78 9.37486L351.08 -24.7578L410.025 9.37486L350.607 43.6256L291.78 9.37486Z" fill="url(#paint3_linear_862_30795)"/>
<path d="M288 9.375L288.354 292.594L350.961 328.97L350.607 45.8698L288 9.375Z" fill="#D8ECFF"/>
<path d="M290.127 291.528L289.891 12.6797L348.836 46.9305L349.072 325.661L290.127 291.528Z" fill="url(#paint4_linear_862_30795)"/>
<path d="M350.607 45.8698L350.962 328.97L414.041 292.594L413.805 9.375L350.607 45.8698Z" fill="white"/>
<path d="M352.615 46.9305L411.915 12.6797L412.151 291.528L352.851 325.661L352.615 46.9305Z" fill="#EFF1FE"/>
<path d="M369.389 143.307L431.996 179.684L495.193 143.307L432.468 106.812L369.389 143.307Z" fill="white"/>
<path d="M373.169 143.305L432.468 109.055L491.413 143.305L431.996 177.556L373.169 143.305Z" fill="url(#paint5_linear_862_30795)"/>
<path d="M369.389 143.305L369.625 339.597L432.35 376.092L431.996 179.681L369.389 143.305Z" fill="#D8ECFF"/>
<path d="M371.516 338.533L371.279 146.492L430.224 180.743L430.461 372.784L371.516 338.533Z" fill="url(#paint6_linear_862_30795)"/>
<path d="M431.996 179.681L432.35 376.092L495.43 339.597L495.194 143.305L431.996 179.681Z" fill="white"/>
<path d="M433.887 180.743L493.304 146.492L493.54 338.533L434.241 372.784L433.887 180.743Z" fill="#EFF1FE"/>
<path d="M451.959 275.588L514.684 311.964L577.763 275.588L515.038 239.211L451.959 275.588Z" fill="white"/>
<path d="M455.739 275.587L515.039 241.336L573.984 275.587L514.684 309.838L455.739 275.587Z" fill="url(#paint7_linear_862_30795)"/>
<path d="M451.959 275.586L452.195 387.669L514.92 424.045L514.684 311.963L451.959 275.586Z" fill="#D8ECFF"/>
<path d="M454.086 386.485L453.85 278.891L512.795 313.023L513.031 420.736L454.086 386.485Z" fill="url(#paint8_linear_862_30795)"/>
<path d="M514.684 311.963L514.92 424.045L577.999 387.669L577.763 275.586L514.684 311.963Z" fill="white"/>
<path d="M516.574 313.024L575.874 278.773L576.11 386.486L516.81 420.737L516.574 313.024Z" fill="#EFF1FE"/>
<path d="M264.678 450.023L252.326 452.203L265.404 420.961L279.935 428.953L264.678 450.023Z" fill="#D1E5F7"/>
<path d="M123 158.748C123 125.071 145.385 110.693 172.998 126.636L374.751 243.118C389.248 251.488 401 272.606 401 290.286L401 438.99C401 472.668 378.615 487.045 351.002 471.103L149.249 354.62C134.752 346.251 123 325.133 123 307.452L123 158.748Z" fill="url(#paint9_linear_862_30795)"/>
<path d="M123 165.386C123 133.078 144.794 119.47 171.679 134.991L368.111 248.401C382.225 256.55 393.667 276.907 393.667 293.869L393.667 436.527C393.667 468.835 371.873 482.443 344.988 466.921L148.556 353.511C134.442 345.362 123 325.006 123 308.044L123 165.386Z" fill="url(#paint10_linear_862_30795)"/>
<path d="M401 286.555L401 438.992C401 466.872 386.064 481.758 365.669 477.252L365.669 296.726L401 286.555Z" fill="url(#paint11_linear_862_30795)"/>
<path fill-rule="evenodd" clip-rule="evenodd" d="M140.321 130.895C130.755 125.372 123 129.849 123 140.895L123 319.493C123 330.538 130.755 343.97 140.321 349.493L233.262 403.152L252.326 452.286L271.389 425.165L364.332 478.826C373.898 484.348 381.652 479.871 381.652 468.826L381.652 290.228C381.652 279.182 373.898 265.75 364.332 260.228L140.321 130.895Z" fill="url(#paint12_linear_862_30795)"/>
<path fill-rule="evenodd" clip-rule="evenodd" d="M234.762 401.018L252.326 446.286L269.889 421.299L364.332 475.826C372.463 480.52 379.054 476.714 379.054 467.326L379.054 288.728C379.054 279.339 372.463 267.922 364.332 263.228L140.321 133.895C132.19 129.2 125.598 133.006 125.598 142.395L125.598 320.993C125.598 330.381 132.19 341.798 140.321 346.493L234.762 401.018ZM252.326 452.286L233.262 403.152L140.321 349.493C130.755 343.97 123 330.538 123 319.493L123 140.895C123 129.849 130.755 125.372 140.321 130.895L364.332 260.228C373.898 265.75 381.652 279.182 381.652 290.228L381.652 468.826C381.652 479.871 373.898 484.348 364.332 478.826L271.389 425.165L252.326 452.286Z" fill="white"/>
<g opacity="0.34" clip-path="url(#clip1_862_30795)">
<path d="M234.782 262.381L213.42 250.047L213.42 315.152L234.782 327.486L234.782 262.381Z" fill="white"/>
<path d="M302.625 328.758C302.625 326.409 301.95 323.85 300.813 321.447C303.084 320.858 304.567 318.628 304.567 315.149C304.567 309.388 300.507 302.357 295.518 299.476L274.948 287.6L277.811 277.836L277.811 272.365C277.811 262.285 270.708 249.983 261.978 244.942C259.862 243.72 258.14 244.715 258.14 247.159L258.14 259.287C256.712 261.101 248.784 266.796 240.123 272.557L240.123 326.514L247.514 333.982C251.907 338.421 256.514 342.045 261.205 344.754L289.692 361.2C294.682 364.081 298.741 361.737 298.741 355.976C298.741 353.628 298.067 351.07 296.93 348.668C299.202 348.079 300.683 345.846 300.683 342.367C300.683 340.018 300.008 337.459 298.871 335.056C301.143 334.468 302.625 332.238 302.625 328.758Z" fill="white"/>
</g>
<g clip-path="url(#clip2_862_30795)">
<path d="M228.673 264.548L207.311 252.215L207.311 317.32L228.673 329.654L228.673 264.548Z" fill="white"/>
<path d="M296.515 330.926C296.515 328.577 295.84 326.018 294.703 323.615C296.975 323.026 298.457 320.796 298.457 317.317C298.457 311.556 294.398 304.525 289.408 301.644L268.839 289.768L271.702 280.004L271.702 274.533C271.702 264.453 264.599 252.151 255.869 247.11C253.752 245.888 252.03 246.883 252.03 249.327L252.03 261.455C250.603 263.269 242.675 268.964 234.014 274.725L234.014 328.682L241.405 336.15C245.798 340.589 250.404 344.213 255.096 346.922L283.583 363.368C288.572 366.249 292.631 363.905 292.631 358.144C292.631 355.796 291.957 353.238 290.821 350.836C293.093 350.247 294.573 348.014 294.573 344.535C294.573 342.186 293.898 339.627 292.761 337.224C295.033 336.635 296.515 334.405 296.515 330.926Z" fill="white"/>
</g>
</g>
<defs>
<linearGradient id="paint0_linear_862_30795" x1="351.047" y1="331.997" x2="351.047" y2="-24.0116" gradientUnits="userSpaceOnUse">
<stop stop-color="#CDE8FF"/>
<stop offset="1" stop-color="#FDFEFF"/>
</linearGradient>
<linearGradient id="paint1_linear_862_30795" x1="432.419" y1="379.077" x2="432.419" y2="109.865" gradientUnits="userSpaceOnUse">
<stop stop-color="#CDE8FF"/>
<stop offset="1" stop-color="#E4E7FB"/>
</linearGradient>
<linearGradient id="paint2_linear_862_30795" x1="514.967" y1="427.035" x2="514.967" y2="243.752" gradientUnits="userSpaceOnUse">
<stop stop-color="#CDE8FF"/>
<stop offset="1" stop-color="#E4E7FB"/>
</linearGradient>
<linearGradient id="paint3_linear_862_30795" x1="409.99" y1="9.41301" x2="291.763" y2="9.41301" gradientUnits="userSpaceOnUse">
<stop stop-color="#F1F4FE"/>
<stop offset="0.5797" stop-color="#F7F9FE"/>
<stop offset="1" stop-color="white"/>
</linearGradient>
<linearGradient id="paint4_linear_862_30795" x1="319.483" y1="12.6927" x2="319.483" y2="325.713" gradientUnits="userSpaceOnUse">
<stop stop-color="#3A98FF"/>
<stop offset="1" stop-color="#4AE6FF"/>
</linearGradient>
<linearGradient id="paint5_linear_862_30795" x1="491.39" y1="143.268" x2="373.124" y2="143.268" gradientUnits="userSpaceOnUse">
<stop stop-color="#F1F4FE"/>
<stop offset="0.5797" stop-color="#F7F9FE"/>
<stop offset="1" stop-color="white"/>
</linearGradient>
<linearGradient id="paint6_linear_862_30795" x1="400.889" y1="146.53" x2="400.889" y2="372.774" gradientUnits="userSpaceOnUse">
<stop stop-color="#48FAC9"/>
<stop offset="1" stop-color="#437FEC"/>
</linearGradient>
<linearGradient id="paint7_linear_862_30795" x1="573.95" y1="275.565" x2="455.684" y2="275.565" gradientUnits="userSpaceOnUse">
<stop stop-color="#F1F4FE"/>
<stop offset="0.5797" stop-color="#F7F9FE"/>
<stop offset="1" stop-color="white"/>
</linearGradient>
<linearGradient id="paint8_linear_862_30795" x1="483.433" y1="278.856" x2="483.433" y2="420.738" gradientUnits="userSpaceOnUse">
<stop stop-color="#5FEFC0"/>
<stop offset="1" stop-color="#25D8FF"/>
</linearGradient>
<linearGradient id="paint9_linear_862_30795" x1="262" y1="178.021" x2="157.342" y2="359.293" gradientUnits="userSpaceOnUse">
<stop stop-color="#FBFCFF"/>
<stop offset="1" stop-color="#BEDAF3"/>
</linearGradient>
<linearGradient id="paint10_linear_862_30795" x1="258.334" y1="185.022" x2="157.931" y2="358.924" gradientUnits="userSpaceOnUse">
<stop stop-color="#FBFCFF"/>
<stop offset="1" stop-color="#BEDAF3"/>
</linearGradient>
<linearGradient id="paint11_linear_862_30795" x1="383.334" y1="286.555" x2="383.334" y2="478.047" gradientUnits="userSpaceOnUse">
<stop stop-color="#CAE6FF"/>
<stop offset="1" stop-color="white" stop-opacity="0"/>
</linearGradient>
<linearGradient id="paint12_linear_862_30795" x1="290.53" y1="167.239" x2="63.3093" y2="207.481" gradientUnits="userSpaceOnUse">
<stop stop-color="#2595FF"/>
<stop offset="0.482292" stop-color="#00D8FF"/>
<stop offset="1" stop-color="#40FFC6"/>
</linearGradient>
<clipPath id="clip0_862_30795">
<rect width="766" height="615" fill="white"/>
</clipPath>
<clipPath id="clip1_862_30795">
<rect width="105.247" height="105.247" fill="white" transform="matrix(0.866025 0.5 -3.0016e-08 1 213.42 214.414)"/>
</clipPath>
<clipPath id="clip2_862_30795">
<rect width="105.247" height="105.247" fill="white" transform="matrix(0.866025 0.5 -3.0016e-08 1 207.311 216.582)"/>
</clipPath>
</defs>
</svg>
