<svg width="535" height="422" viewBox="0 0 535 422" fill="none" xmlns="http://www.w3.org/2000/svg">
<g clip-path="url(#clip0_862_35520)">
<g filter="url(#filter0_f_862_35520)">
<path d="M9.63897 254.554C-2.62966 247.6 -2.62966 235.866 9.63897 228.912L244.496 230.215C256.764 223.262 276.92 223.262 289.627 230.215L525.798 228.912C538.066 235.866 538.066 247.6 525.798 254.554L290.941 389.723C278.673 396.677 258.517 396.677 245.81 389.723L9.63897 254.554Z" fill="#C5D9EF"/>
</g>
<path d="M535 210.157C535 210.592 535 211.027 535 211.027C535 211.461 535 211.461 535 211.896C535 212.331 535 212.765 534.562 212.765C534.562 213.2 534.562 213.2 534.124 213.634C534.124 214.069 533.686 214.069 533.686 214.504C533.248 214.938 533.248 215.373 532.809 215.808C532.371 216.242 532.371 216.677 531.933 217.111C531.933 217.111 531.933 217.111 531.495 217.546C531.057 217.981 530.619 218.415 530.18 218.85C529.742 219.285 529.304 219.285 529.304 219.719C528.866 220.154 528.866 220.154 528.428 220.588C527.99 221.023 527.551 221.023 527.113 221.458C526.675 221.892 526.237 221.892 525.799 222.327L290.942 357.061L290.504 387.05L525.361 251.447C525.361 251.447 525.799 251.447 525.799 251.012C526.237 251.012 526.237 250.578 526.675 250.578C527.113 250.143 527.551 250.143 527.99 249.708C528.428 249.274 528.428 249.274 528.866 248.839C529.304 248.404 529.742 248.404 529.742 247.97C530.18 247.535 530.619 247.101 531.057 246.666C531.057 246.666 531.057 246.666 531.057 246.231C531.057 245.797 531.495 245.797 531.495 245.362L531.933 244.927C531.933 244.927 531.933 244.927 531.933 244.493C532.371 244.058 532.371 243.624 532.809 243.624C532.809 243.624 532.809 243.624 532.809 243.189C532.809 242.754 533.248 242.754 533.248 242.32C533.248 242.32 533.248 241.885 533.686 241.885C533.686 241.885 533.686 241.885 533.686 241.45C533.686 241.016 533.686 241.016 534.124 240.581V240.147C534.124 239.712 534.124 239.277 534.124 239.277C534.124 238.843 534.124 238.843 534.124 238.408C534.124 238.408 534.124 238.408 534.124 237.973L534.562 207.984C535 209.288 535 209.723 535 210.157Z" fill="#E1EDFF"/>
<path d="M9.63964 221.89C3.50532 218.413 0.438165 213.632 0.438165 208.852L0 238.841C0 243.622 3.06716 248.402 9.20147 251.879L245.811 387.048L246.249 357.059L9.63964 221.89Z" fill="#EFF1FE"/>
<path d="M525.798 196.248C538.066 203.202 538.066 214.937 525.798 221.891L290.941 357.059C278.673 364.013 258.517 364.013 245.81 357.059L9.63897 221.891C-2.62966 214.937 -2.62966 203.202 9.63897 196.248L244.496 60.6452C256.764 53.6912 276.92 53.6912 289.627 60.6452L525.798 196.248Z" fill="white"/>
<path d="M9.63897 211.461C-2.62966 204.507 -2.62966 192.772 9.63897 185.818L244.496 50.2155C256.764 43.2615 276.92 43.2615 289.627 50.2155L525.798 185.818C538.066 192.772 538.066 204.507 525.798 211.461L290.941 347.064C278.673 354.018 258.517 354.018 245.81 347.064L9.63897 211.461Z" fill="url(#paint0_linear_862_35520)"/>
<path d="M268.595 333.589C261.146 333.589 254.136 331.851 248.439 328.809L42.0634 210.591C36.8054 207.548 33.7383 203.202 33.7383 198.856C33.7383 194.51 36.8054 190.163 42.0634 187.121L247.125 68.4684C252.383 65.426 259.394 63.6875 266.842 63.6875C274.291 63.6875 281.302 65.426 286.998 68.4684L493.812 186.686C499.07 189.729 502.137 194.075 502.137 198.421C502.137 202.767 499.07 207.114 493.812 210.156L288.312 328.809C283.054 331.851 276.044 333.589 268.595 333.589ZM267.28 64.9914C259.832 64.9914 253.259 66.7299 248.001 69.7722L42.5016 187.99C37.6818 191.033 34.6146 194.51 34.6146 198.856C34.6146 202.767 37.2436 206.679 42.5016 209.721L249.316 327.939C254.574 330.982 261.146 332.72 268.595 332.72C276.044 332.72 282.616 330.982 287.874 327.939L493.374 209.721C498.194 206.679 501.261 203.202 501.261 198.856C501.261 194.944 498.632 191.033 493.374 187.99L286.56 69.3376C281.302 66.2952 274.291 64.9914 267.28 64.9914Z" fill="url(#paint1_linear_862_35520)"/>
<path d="M287.875 388.786C288.751 388.351 292.694 386.178 293.571 385.743V355.754C292.694 356.189 289.189 357.927 288.313 358.362C287.875 358.362 287.875 358.796 287.436 358.796C286.56 359.231 285.684 359.666 284.807 359.666C284.369 359.666 284.369 360.1 283.931 360.1C283.493 360.1 283.055 360.535 282.178 360.535C281.74 360.535 281.302 360.97 280.864 360.97C280.426 360.97 279.549 361.404 279.111 361.404C278.673 361.404 278.235 361.404 277.797 361.839C276.482 361.839 275.606 362.274 274.291 362.274C273.853 362.274 273.415 362.274 272.977 362.274C272.101 362.274 271.662 362.274 270.786 362.274C270.348 362.274 269.91 362.274 269.472 362.274C269.033 362.274 268.157 362.274 267.719 362.274C267.281 362.274 266.843 362.274 266.404 362.274C265.966 362.274 265.528 362.274 264.652 362.274C264.214 362.274 263.775 362.274 263.337 362.274C262.899 362.274 262.461 362.274 261.585 362.274C261.146 362.274 260.708 362.274 260.27 361.839C259.832 361.839 258.956 361.839 258.517 361.404C258.079 361.404 257.641 361.404 257.203 360.97C256.327 360.97 255.888 360.535 255.012 360.535C254.574 360.535 254.136 360.535 254.136 360.1C252.821 359.666 251.945 359.231 250.63 358.796C250.192 358.796 249.754 358.362 248.878 357.927C248.44 357.927 248.44 357.493 248.001 357.493C247.125 357.058 242.744 354.45 241.867 354.016V384.439C242.744 384.874 246.687 387.047 247.125 387.482C247.563 387.482 247.563 387.916 248.001 387.916C248.44 387.916 248.878 388.351 249.316 388.351C250.63 388.786 251.507 389.22 252.821 389.655C252.821 389.655 252.821 389.655 253.259 389.655C253.698 389.655 253.698 389.655 254.136 390.089C254.574 390.089 255.45 390.524 255.888 390.524H256.327C256.765 390.524 256.765 390.524 257.203 390.524C257.641 390.524 258.079 390.524 258.956 390.959C259.394 390.959 259.394 390.959 259.832 390.959C260.27 390.959 260.27 390.959 260.708 390.959C261.146 390.959 261.585 390.959 262.023 390.959C262.461 390.959 262.461 390.959 262.899 390.959C263.337 390.959 263.337 390.959 263.775 390.959C264.214 390.959 264.652 390.959 265.09 390.959C265.528 390.959 265.528 390.959 265.966 390.959C265.966 390.959 266.404 390.959 266.843 390.959C267.281 390.959 268.157 390.959 268.595 390.959C269.033 390.959 269.033 390.959 269.472 390.959H269.91C270.786 390.959 271.224 390.959 272.101 390.959C272.539 390.959 272.539 390.959 272.977 390.959C272.977 390.959 272.977 390.959 273.415 390.959C274.73 390.959 275.606 390.524 276.92 390.524C277.359 390.524 277.797 390.524 277.797 390.089C278.235 390.089 279.111 389.655 279.549 389.655C279.988 389.655 280.426 389.22 280.864 389.22C281.302 389.22 281.74 388.786 282.617 388.786H283.055H283.493C284.369 388.351 285.246 388.351 286.122 387.916C286.998 389.22 287.436 389.22 287.875 388.786Z" fill="url(#paint2_linear_862_35520)"/>
<g clip-path="url(#clip1_862_35520)">
<path fill-rule="evenodd" clip-rule="evenodd" d="M255.005 130.693C215.905 153.268 215.955 189.872 255.049 212.443C294.176 235.033 357.538 235.04 396.638 212.465C435.809 189.85 435.775 153.281 396.647 130.691C357.554 108.12 294.176 108.078 255.005 130.693ZM219.693 110.306C278.342 76.4454 373.404 76.4384 432.01 110.275C490.641 144.125 490.703 199.052 432.055 232.913C373.451 266.748 278.329 266.703 219.698 232.853C161.092 199.016 161.09 144.141 219.693 110.306ZM289.458 150.584C309.608 138.951 342.122 138.974 362.211 150.572C382.319 162.181 382.393 180.974 362.244 192.607C342.161 204.202 309.563 204.187 289.455 192.577C269.366 180.979 269.375 162.179 289.458 150.584Z" fill="url(#paint3_linear_862_35520)"/>
<path d="M255.049 196.127C215.955 173.556 215.905 136.951 255.005 114.377C294.176 91.7616 357.554 91.804 396.647 114.375C435.775 136.965 435.809 173.533 396.638 196.149C357.538 218.723 294.176 218.717 255.049 196.127ZM432.01 93.9582C373.404 60.122 278.342 60.129 219.693 93.9899C161.09 127.825 161.092 182.7 219.698 216.536C278.329 250.387 373.451 250.432 432.055 216.597C490.703 182.736 490.641 127.809 432.01 93.9582Z" fill="#CC0000"/>
<path d="M362.211 134.257C342.123 122.659 309.608 122.636 289.459 134.27C269.376 145.865 269.366 164.665 289.455 176.263C309.563 187.872 342.162 187.887 362.244 176.292C382.393 164.659 382.319 145.867 362.211 134.257Z" fill="#CC0000"/>
<path d="M112.249 189.255L102.83 183.817L108.643 180.461L134.391 195.327L128.578 198.682L119.16 193.245L93.5432 208.034L86.6322 204.044L112.249 189.255Z" fill="#CC0000"/>
<path d="M99.9696 211.743L106.965 215.782L116.432 213.164L128.185 219.95L123.562 225.364L130.735 229.506L150.412 204.575L143.327 200.484L99.9696 211.743ZM139.015 206.937L139.102 206.987L131.527 215.933L123.39 211.235L139.015 206.937Z" fill="#CC0000"/>
<path d="M133.46 231.082L140.374 235.074L152.654 227.984L159.56 231.971C163.041 233.981 162.863 235.554 160.047 237.738C157.893 239.393 154.766 241.095 153.621 242.722L160.527 246.71C161.056 244.983 164.804 242.872 166.65 241.652C169.603 239.691 171.936 237.231 169.424 234.765L169.511 234.715C174.4 235.912 178.665 235.176 182.367 233.038C187.117 230.296 187.467 225.974 181.834 222.722L164.887 212.938L133.46 231.082ZM166.433 220.029L174.005 224.4C177.081 226.176 177.434 227.906 174.4 229.657C171.232 231.486 168.235 231.283 165.159 229.507L157.587 225.136L166.433 220.029Z" fill="#CC0000"/>
<path d="M190.638 259.974C185.086 260.382 180.729 259.244 177.691 257.489C167.965 251.874 169.516 244.37 178.584 239.135C187.911 233.75 200.893 232.863 210.619 238.478C217.043 242.187 219.159 247.982 212.784 252.529L206.178 248.715C208.865 246.247 208.067 243.71 204.812 241.831C198.605 238.247 190.99 239.946 185.49 243.122C180.249 246.147 177.306 250.544 183.513 254.128C188.004 256.721 193.014 256.82 197.773 254.533L190.822 250.519L195.966 247.55L209.167 255.172L192.177 264.981L187.772 262.438L190.638 259.974Z" fill="#CC0000"/>
<path d="M228.316 249.555L251.813 263.12L246 266.476L229.414 256.9L222.682 260.786L237.908 269.577L232.534 272.68L217.307 263.889L209.61 268.334L226.552 278.116L220.74 281.471L196.888 267.7L228.316 249.555Z" fill="#CC0000"/>
<path d="M258.856 273.899L249.438 268.461L255.25 265.105L281.002 279.973L275.189 283.329L265.765 277.888L240.149 292.678L233.24 288.689L258.856 273.899Z" fill="#CC0000"/>
</g>
<circle cx="40.6667" cy="108.667" r="33.6667" fill="url(#paint4_linear_862_35520)"/>
<circle cx="40.6667" cy="108.667" r="33.6667" fill="url(#paint5_radial_862_35520)"/>
<circle cx="40.6667" cy="108.667" r="33.6667" fill="url(#paint6_radial_862_35520)"/>
<circle cx="40.6667" cy="108.667" r="33.6667" fill="url(#paint7_radial_862_35520)"/>
<circle cx="40.6667" cy="108.667" r="33.6667" fill="url(#paint8_radial_862_35520)"/>
<g style="mix-blend-mode:lighten">
<ellipse cx="38.8427" cy="100.151" rx="20.8896" ry="18.6586" fill="url(#paint9_linear_862_35520)"/>
</g>
<g style="mix-blend-mode:lighten">
<path d="M26.6283 98.3172C25.2766 97.8972 24.5029 96.4472 25.14 95.1832C26.2487 92.984 27.8724 91.0695 29.888 89.6116C31.9035 88.1537 34.23 87.2108 36.6658 86.8462C38.0657 86.6368 39.2007 87.8254 39.1764 89.2407C39.1522 90.6559 37.9687 91.752 36.5907 92.0755C35.2663 92.3865 34.0079 92.9576 32.8921 93.7647C31.7762 94.5719 30.84 95.5883 30.1301 96.7488C29.3914 97.9562 27.98 98.7372 26.6283 98.3172Z" fill="url(#paint10_linear_862_35520)"/>
</g>
<circle cx="480.5" cy="58.5" r="54.5" fill="url(#paint11_linear_862_35520)"/>
<circle cx="480.5" cy="58.5" r="54.5" fill="url(#paint12_radial_862_35520)"/>
<circle cx="480.5" cy="58.5" r="54.5" fill="url(#paint13_radial_862_35520)"/>
<circle cx="480.5" cy="58.5" r="54.5" fill="url(#paint14_radial_862_35520)"/>
<circle cx="480.5" cy="58.5" r="54.5" fill="url(#paint15_radial_862_35520)"/>
<g style="mix-blend-mode:lighten">
<ellipse cx="477.545" cy="44.7126" rx="33.8163" ry="30.2048" fill="url(#paint16_linear_862_35520)"/>
</g>
<g style="mix-blend-mode:lighten">
<path d="M457.775 41.7443C455.587 41.0645 454.335 38.7171 455.366 36.6711C457.161 33.1108 459.789 30.0117 463.052 27.6516C466.315 25.2915 470.081 23.7651 474.024 23.175C476.29 22.8359 478.128 24.7601 478.088 27.0511C478.049 29.3421 476.133 31.1165 473.903 31.6403C471.759 32.1437 469.722 33.0681 467.915 34.3748C466.109 35.6814 464.593 37.3267 463.444 39.2054C462.248 41.16 459.964 42.4242 457.775 41.7443Z" fill="url(#paint17_linear_862_35520)"/>
</g>
</g>
<defs>
<filter id="filter0_f_862_35520" x="-10.5625" y="214" width="556.562" height="191.938" filterUnits="userSpaceOnUse" color-interpolation-filters="sRGB">
<feFlood flood-opacity="0" result="BackgroundImageFix"/>
<feBlend mode="normal" in="SourceGraphic" in2="BackgroundImageFix" result="shape"/>
<feGaussianBlur stdDeviation="5.5" result="effect1_foregroundBlur_862_35520"/>
</filter>
<linearGradient id="paint0_linear_862_35520" x1="267.84" y1="352.232" x2="267.84" y2="44.9975" gradientUnits="userSpaceOnUse">
<stop stop-color="#F1F4FE"/>
<stop offset="0.5797" stop-color="#F7F9FE"/>
<stop offset="1" stop-color="white"/>
</linearGradient>
<linearGradient id="paint1_linear_862_35520" x1="33.3838" y1="198.619" x2="502.289" y2="198.619" gradientUnits="userSpaceOnUse">
<stop stop-color="#3A98FF"/>
<stop offset="0.6277" stop-color="#00F0FF"/>
<stop offset="1" stop-color="#00FFAC"/>
</linearGradient>
<linearGradient id="paint2_linear_862_35520" x1="242.582" y1="373.936" x2="293.464" y2="373.936" gradientUnits="userSpaceOnUse">
<stop stop-color="#EFF1FE"/>
<stop offset="1" stop-color="#E4E7FB"/>
</linearGradient>
<linearGradient id="paint3_linear_862_35520" x1="432.06" y1="110.303" x2="325.904" y2="294.17" gradientUnits="userSpaceOnUse">
<stop stop-color="#C3DAFD" stop-opacity="0.76"/>
<stop offset="1" stop-color="#E1EDFF" stop-opacity="0"/>
</linearGradient>
<linearGradient id="paint4_linear_862_35520" x1="40.6667" y1="75" x2="40.6667" y2="142.333" gradientUnits="userSpaceOnUse">
<stop stop-color="#40FFC6"/>
<stop offset="0.492708" stop-color="#4AE6FF"/>
<stop offset="1" stop-color="#2595FF"/>
</linearGradient>
<radialGradient id="paint5_radial_862_35520" cx="0" cy="0" r="1" gradientUnits="userSpaceOnUse" gradientTransform="translate(26.8393 88.2262) rotate(62.6223) scale(75.8263)">
<stop offset="0.462106" stop-color="#2AA8FF" stop-opacity="0"/>
<stop offset="0.894737" stop-color="#2595FF"/>
</radialGradient>
<radialGradient id="paint6_radial_862_35520" cx="0" cy="0" r="1" gradientUnits="userSpaceOnUse" gradientTransform="translate(24.4345 89.4286) rotate(56.6259) scale(90.7081)">
<stop stop-color="#6EFFCE"/>
<stop offset="0.570035" stop-color="#A5FFFD" stop-opacity="0"/>
</radialGradient>
<radialGradient id="paint7_radial_862_35520" cx="0" cy="0" r="1" gradientUnits="userSpaceOnUse" gradientTransform="translate(34.0536 95.4405) rotate(63.4349) scale(48.3586)">
<stop offset="0.672439" stop-color="#9EC6FD" stop-opacity="0"/>
<stop offset="1" stop-color="white"/>
</radialGradient>
<radialGradient id="paint8_radial_862_35520" cx="0" cy="0" r="1" gradientUnits="userSpaceOnUse" gradientTransform="translate(37.027 101.387) rotate(62.0378) scale(41.7221)">
<stop offset="0.961458" stop-color="#2AA8FF" stop-opacity="0"/>
<stop offset="1" stop-color="#058AFF" stop-opacity="0.26"/>
</radialGradient>
<linearGradient id="paint9_linear_862_35520" x1="26.9058" y1="86.3073" x2="41.9669" y2="103.034" gradientUnits="userSpaceOnUse">
<stop stop-color="white" stop-opacity="0.86"/>
<stop offset="1" stop-color="#D9D9D9" stop-opacity="0"/>
</linearGradient>
<linearGradient id="paint10_linear_862_35520" x1="38.8466" y1="88.1948" x2="29.7475" y2="98.6587" gradientUnits="userSpaceOnUse">
<stop stop-color="white"/>
<stop offset="1" stop-color="#FFFFE9" stop-opacity="0.38"/>
</linearGradient>
<linearGradient id="paint11_linear_862_35520" x1="480.5" y1="4" x2="480.5" y2="113" gradientUnits="userSpaceOnUse">
<stop stop-color="#40FFC6"/>
<stop offset="0.492708" stop-color="#4AE6FF"/>
<stop offset="1" stop-color="#2595FF"/>
</linearGradient>
<radialGradient id="paint12_radial_862_35520" cx="0" cy="0" r="1" gradientUnits="userSpaceOnUse" gradientTransform="translate(458.116 25.4107) rotate(62.6223) scale(122.749)">
<stop offset="0.462106" stop-color="#2AA8FF" stop-opacity="0"/>
<stop offset="0.894737" stop-color="#2595FF"/>
</radialGradient>
<radialGradient id="paint13_radial_862_35520" cx="0" cy="0" r="1" gradientUnits="userSpaceOnUse" gradientTransform="translate(454.223 27.3572) rotate(56.6259) scale(146.839)">
<stop stop-color="#6EFFCE"/>
<stop offset="0.570035" stop-color="#A5FFFD" stop-opacity="0"/>
</radialGradient>
<radialGradient id="paint14_radial_862_35520" cx="0" cy="0" r="1" gradientUnits="userSpaceOnUse" gradientTransform="translate(469.795 37.0893) rotate(63.4349) scale(78.2834)">
<stop offset="0.672439" stop-color="#9EC6FD" stop-opacity="0"/>
<stop offset="1" stop-color="white"/>
</radialGradient>
<radialGradient id="paint15_radial_862_35520" cx="0" cy="0" r="1" gradientUnits="userSpaceOnUse" gradientTransform="translate(474.608 46.7162) rotate(62.0378) scale(67.5403)">
<stop offset="0.961458" stop-color="#2AA8FF" stop-opacity="0"/>
<stop offset="1" stop-color="#058AFF" stop-opacity="0.26"/>
</radialGradient>
<linearGradient id="paint16_linear_862_35520" x1="458.221" y1="22.3026" x2="482.602" y2="49.3804" gradientUnits="userSpaceOnUse">
<stop stop-color="white" stop-opacity="0.86"/>
<stop offset="1" stop-color="#D9D9D9" stop-opacity="0"/>
</linearGradient>
<linearGradient id="paint17_linear_862_35520" x1="477.555" y1="25.358" x2="462.825" y2="42.2972" gradientUnits="userSpaceOnUse">
<stop stop-color="white"/>
<stop offset="1" stop-color="#FFFFE9" stop-opacity="0.38"/>
</linearGradient>
<clipPath id="clip0_862_35520">
<rect width="535" height="422" fill="white"/>
</clipPath>
<clipPath id="clip1_862_35520">
<rect width="289.502" height="363.721" fill="white" transform="matrix(0.866025 0.5 -0.866025 0.5 333.992 13)"/>
</clipPath>
</defs>
</svg>
