<svg width="535" height="422" viewBox="0 0 535 422" fill="none" xmlns="http://www.w3.org/2000/svg">
<g clip-path="url(#clip0_862_32065)">
<g filter="url(#filter0_f_862_32065)">
<path d="M9.63897 254.554C-2.62966 247.6 -2.62966 235.866 9.63897 228.912L244.496 230.215C256.764 223.262 276.92 223.262 289.627 230.215L525.798 228.912C538.066 235.866 538.066 247.6 525.798 254.554L290.941 389.723C278.673 396.677 258.517 396.677 245.81 389.723L9.63897 254.554Z" fill="#C5D9EF"/>
</g>
<path d="M535 210.157C535 210.592 535 211.027 535 211.027C535 211.461 535 211.461 535 211.896C535 212.331 535 212.765 534.562 212.765C534.562 213.2 534.562 213.2 534.124 213.634C534.124 214.069 533.686 214.069 533.686 214.504C533.248 214.938 533.248 215.373 532.809 215.808C532.371 216.242 532.371 216.677 531.933 217.111C531.933 217.111 531.933 217.111 531.495 217.546C531.057 217.981 530.619 218.415 530.18 218.85C529.742 219.285 529.304 219.285 529.304 219.719C528.866 220.154 528.866 220.154 528.428 220.588C527.99 221.023 527.551 221.023 527.113 221.458C526.675 221.892 526.237 221.892 525.799 222.327L290.942 357.061L290.504 387.05L525.361 251.447C525.361 251.447 525.799 251.447 525.799 251.012C526.237 251.012 526.237 250.578 526.675 250.578C527.113 250.143 527.551 250.143 527.99 249.708C528.428 249.274 528.428 249.274 528.866 248.839C529.304 248.404 529.742 248.404 529.742 247.97C530.18 247.535 530.619 247.101 531.057 246.666C531.057 246.666 531.057 246.666 531.057 246.231C531.057 245.797 531.495 245.797 531.495 245.362L531.933 244.927C531.933 244.927 531.933 244.927 531.933 244.493C532.371 244.058 532.371 243.624 532.809 243.624C532.809 243.624 532.809 243.624 532.809 243.189C532.809 242.754 533.248 242.754 533.248 242.32C533.248 242.32 533.248 241.885 533.686 241.885C533.686 241.885 533.686 241.885 533.686 241.45C533.686 241.016 533.686 241.016 534.124 240.581V240.147C534.124 239.712 534.124 239.277 534.124 239.277C534.124 238.843 534.124 238.843 534.124 238.408C534.124 238.408 534.124 238.408 534.124 237.973L534.562 207.984C535 209.288 535 209.723 535 210.157Z" fill="#E1EDFF"/>
<path d="M9.63964 221.892C3.50532 218.415 0.438165 213.634 0.438165 208.854L0 238.843C0 243.623 3.06716 248.404 9.20147 251.881L245.811 387.05L246.249 357.061L9.63964 221.892Z" fill="#EFF1FE"/>
<path d="M525.798 196.25C538.066 203.204 538.066 214.939 525.798 221.893L290.941 357.061C278.673 364.015 258.517 364.015 245.81 357.061L9.63897 221.893C-2.62966 214.939 -2.62966 203.204 9.63897 196.25L244.496 60.6471C256.764 53.6931 276.92 53.6931 289.627 60.6471L525.798 196.25Z" fill="white"/>
<path d="M9.63897 211.461C-2.62966 204.507 -2.62966 192.772 9.63897 185.818L244.496 50.2155C256.764 43.2615 276.92 43.2615 289.627 50.2155L525.798 185.818C538.066 192.772 538.066 204.507 525.798 211.461L290.941 347.064C278.673 354.018 258.517 354.018 245.81 347.064L9.63897 211.461Z" fill="url(#paint0_linear_862_32065)"/>
<path d="M268.595 333.591C261.146 333.591 254.136 331.853 248.439 328.811L42.0634 210.593C36.8054 207.55 33.7383 203.204 33.7383 198.858C33.7383 194.512 36.8054 190.165 42.0634 187.123L247.125 68.4703C252.383 65.428 259.394 63.6895 266.842 63.6895C274.291 63.6895 281.302 65.428 286.998 68.4703L493.812 186.688C499.07 189.731 502.137 194.077 502.137 198.423C502.137 202.769 499.07 207.116 493.812 210.158L288.312 328.811C283.054 331.853 276.044 333.591 268.595 333.591ZM267.28 64.9933C259.832 64.9933 253.259 66.7318 248.001 69.7742L42.5016 187.992C37.6818 191.035 34.6146 194.512 34.6146 198.858C34.6146 202.769 37.2436 206.681 42.5016 209.723L249.316 327.941C254.574 330.984 261.146 332.722 268.595 332.722C276.044 332.722 282.616 330.984 287.874 327.941L493.374 209.723C498.194 206.681 501.261 203.204 501.261 198.858C501.261 194.946 498.632 191.035 493.374 187.992L286.56 69.3396C281.302 66.2972 274.291 64.9933 267.28 64.9933Z" fill="url(#paint1_linear_862_32065)"/>
<path d="M287.875 388.788C288.751 388.353 292.694 386.18 293.571 385.745V355.756C292.694 356.191 289.189 357.929 288.313 358.364C287.875 358.364 287.875 358.798 287.436 358.798C286.56 359.233 285.684 359.668 284.807 359.668C284.369 359.668 284.369 360.102 283.931 360.102C283.493 360.102 283.055 360.537 282.178 360.537C281.74 360.537 281.302 360.972 280.864 360.972C280.426 360.972 279.549 361.406 279.111 361.406C278.673 361.406 278.235 361.406 277.797 361.841C276.482 361.841 275.606 362.275 274.291 362.275C273.853 362.275 273.415 362.275 272.977 362.275C272.101 362.275 271.662 362.275 270.786 362.275C270.348 362.275 269.91 362.275 269.472 362.275C269.033 362.275 268.157 362.275 267.719 362.275C267.281 362.275 266.843 362.275 266.404 362.275C265.966 362.275 265.528 362.275 264.652 362.275C264.214 362.275 263.775 362.275 263.337 362.275C262.899 362.275 262.461 362.275 261.585 362.275C261.146 362.275 260.708 362.275 260.27 361.841C259.832 361.841 258.956 361.841 258.517 361.406C258.079 361.406 257.641 361.406 257.203 360.972C256.327 360.972 255.888 360.537 255.012 360.537C254.574 360.537 254.136 360.537 254.136 360.102C252.821 359.668 251.945 359.233 250.63 358.798C250.192 358.798 249.754 358.364 248.878 357.929C248.44 357.929 248.44 357.495 248.001 357.495C247.125 357.06 242.744 354.452 241.867 354.018V384.441C242.744 384.876 246.687 387.049 247.125 387.484C247.563 387.484 247.563 387.918 248.001 387.918C248.44 387.918 248.878 388.353 249.316 388.353C250.63 388.788 251.507 389.222 252.821 389.657C252.821 389.657 252.821 389.657 253.259 389.657C253.698 389.657 253.698 389.657 254.136 390.091C254.574 390.091 255.45 390.526 255.888 390.526H256.327C256.765 390.526 256.765 390.526 257.203 390.526C257.641 390.526 258.079 390.526 258.956 390.961C259.394 390.961 259.394 390.961 259.832 390.961C260.27 390.961 260.27 390.961 260.708 390.961C261.146 390.961 261.585 390.961 262.023 390.961C262.461 390.961 262.461 390.961 262.899 390.961C263.337 390.961 263.337 390.961 263.775 390.961C264.214 390.961 264.652 390.961 265.09 390.961C265.528 390.961 265.528 390.961 265.966 390.961C265.966 390.961 266.404 390.961 266.843 390.961C267.281 390.961 268.157 390.961 268.595 390.961C269.033 390.961 269.033 390.961 269.472 390.961H269.91C270.786 390.961 271.224 390.961 272.101 390.961C272.539 390.961 272.539 390.961 272.977 390.961C272.977 390.961 272.977 390.961 273.415 390.961C274.73 390.961 275.606 390.526 276.92 390.526C277.359 390.526 277.797 390.526 277.797 390.091C278.235 390.091 279.111 389.657 279.549 389.657C279.988 389.657 280.426 389.222 280.864 389.222C281.302 389.222 281.74 388.788 282.617 388.788H283.055H283.493C284.369 388.353 285.246 388.353 286.122 387.918C286.998 389.222 287.436 389.222 287.875 388.788Z" fill="url(#paint2_linear_862_32065)"/>
<path opacity="0.48" fill-rule="evenodd" clip-rule="evenodd" d="M267.625 40.5L455.553 149C457.944 150.381 457.944 152.619 455.553 154L217.646 291.355C213.792 293.58 207.203 292.009 207.192 288.862L207.115 266.443C207.109 264.496 204.376 262.918 201.004 262.915L142.679 262.848C139.307 262.844 136.574 261.267 136.568 259.319L136.485 235.042C136.478 233.095 133.746 231.517 130.373 231.513L109.119 231.489C105.746 231.485 103.014 229.908 103.007 227.961L102.965 215.689C102.958 213.742 100.226 212.165 96.8535 212.161L54.8038 212.113C51.4312 212.109 48.6988 210.532 48.6921 208.584L48.609 184.307C48.6024 182.36 45.87 180.782 42.4975 180.778L30.7904 180.765C25.3406 180.759 22.6188 176.954 26.4724 174.73L258.965 40.5C261.356 39.1193 265.234 39.1193 267.625 40.5ZM217.131 225.163C233.44 225.079 247.911 221.391 260.544 214.096C274.794 205.869 280.375 196.115 277.287 184.833C276.111 180.761 271.261 172.957 262.737 161.42L299.536 140.174C301.407 141.974 302.69 143.859 303.387 145.831C305.873 152.865 311.027 160.764 323.059 162.577C333.12 164.093 343.905 160.993 345.423 155.054C348.34 143.642 343.034 132.914 329.504 122.872L341.732 115.812C345.81 113.457 345.81 109.64 341.732 107.286C337.654 104.931 331.043 104.931 326.965 107.286L315.177 114.091C302.1 107.728 287.187 104.292 270.437 103.781C254.423 103.356 239.878 106.918 226.804 114.466C211.379 124.39 205.872 134.95 210.282 146.147C212.928 152.764 217.117 159.593 222.848 166.634L223.069 167.015L223.289 167.143L185.168 189.152C180.236 185.48 177.355 181.567 176.525 177.414C175.025 169.913 169.388 161.704 156.751 159.762C146.682 158.216 135.743 161.061 133.784 166.969C132.131 171.953 132.142 177.013 133.817 182.15C136.61 190.718 143.738 198.819 155.199 206.454L143.412 213.26C139.334 215.614 139.334 219.431 143.412 221.786C147.49 224.14 154.102 224.14 158.18 221.786L170.187 214.853C185.322 221.725 200.97 225.162 217.131 225.163ZM251.272 138.771C251.712 136.141 253.548 133.893 256.78 132.027C265.006 127.278 274.556 127.024 285.429 131.266L254.58 149.077C252.081 144.751 250.978 141.315 251.272 138.771ZM200.376 197.424L232.107 179.104C237.251 186.993 236.518 192.846 229.907 196.663C221.534 201.497 211.69 201.751 200.376 197.424Z" fill="url(#paint3_linear_862_32065)"/>
<path fill-rule="evenodd" clip-rule="evenodd" d="M278.773 33.5L466.701 142C469.092 143.381 469.092 145.619 466.701 147L228.794 284.355C224.941 286.58 218.351 285.009 218.341 281.862L218.264 259.443C218.257 257.496 215.525 255.918 212.152 255.915L153.828 255.848C150.455 255.844 147.723 254.267 147.716 252.319L147.633 228.042C147.626 226.095 144.894 224.517 141.522 224.513L120.267 224.489C116.895 224.485 114.162 222.908 114.156 220.961L114.114 208.689C114.107 206.742 111.375 205.165 108.002 205.161L65.9522 205.113C62.5796 205.109 59.8472 203.532 59.8406 201.584L59.7575 177.307C59.7508 175.36 57.0185 173.782 53.6459 173.778L41.9388 173.765C36.489 173.759 33.7672 169.954 37.6208 167.73L270.113 33.5C272.505 32.1193 276.382 32.1193 278.773 33.5ZM228.28 218.163C244.588 218.079 259.059 214.391 271.693 207.096C285.942 198.869 291.523 189.115 288.436 177.833C287.259 173.761 282.409 165.957 273.885 154.42L310.684 133.174C312.555 134.974 313.839 136.859 314.536 138.831C317.022 145.865 322.176 153.764 334.208 155.577C344.268 157.093 355.053 153.993 356.571 148.054C359.489 136.642 354.183 125.914 340.653 115.872L352.881 108.812C356.959 106.457 356.959 102.64 352.881 100.286C348.803 97.9314 342.191 97.9314 338.113 100.286L326.326 107.091C313.248 100.728 298.335 97.2917 281.586 96.7815C265.571 96.3562 251.027 99.9178 237.952 107.466C222.528 117.39 217.02 127.95 221.431 139.147C224.077 145.764 228.265 152.593 233.997 159.634L234.217 160.015L234.438 160.143L196.316 182.152C191.385 178.48 188.504 174.567 187.673 170.414C186.174 162.913 180.537 154.704 167.899 152.762C157.831 151.216 146.891 154.061 144.932 159.969C143.279 164.953 143.291 170.013 144.965 175.15C147.759 183.718 154.886 191.819 166.348 199.454L154.561 206.26C150.483 208.614 150.483 212.431 154.561 214.786C158.639 217.14 165.25 217.14 169.328 214.786L181.336 207.853C196.47 214.725 212.118 218.162 228.28 218.163ZM262.42 131.771C262.86 129.141 264.696 126.893 267.928 125.027C276.155 120.278 285.705 120.024 296.578 124.266L265.728 142.077C263.23 137.751 262.127 134.315 262.42 131.771ZM211.525 190.424L243.256 172.104C248.4 179.993 247.666 185.846 241.056 189.663C232.682 194.497 222.838 194.751 211.525 190.424Z" fill="url(#paint4_linear_862_32065)"/>
<circle cx="40.6667" cy="37.6667" r="33.6667" fill="url(#paint5_linear_862_32065)"/>
<circle cx="40.6667" cy="37.6667" r="33.6667" fill="url(#paint6_radial_862_32065)"/>
<circle cx="40.6667" cy="37.6667" r="33.6667" fill="url(#paint7_radial_862_32065)"/>
<circle cx="40.6667" cy="37.6667" r="33.6667" fill="url(#paint8_radial_862_32065)"/>
<circle cx="40.6667" cy="37.6667" r="33.6667" fill="url(#paint9_radial_862_32065)"/>
<g style="mix-blend-mode:lighten">
<ellipse cx="38.8427" cy="29.1489" rx="20.8896" ry="18.6586" fill="url(#paint10_linear_862_32065)"/>
</g>
<g style="mix-blend-mode:lighten">
<path d="M26.6283 27.3152C25.2766 26.8953 24.5029 25.4452 25.14 24.1813C26.2487 21.982 27.8724 20.0675 29.888 18.6096C31.9035 17.1517 34.23 16.2088 36.6658 15.8443C38.0657 15.6348 39.2007 16.8235 39.1764 18.2387C39.1522 19.6539 37.9687 20.75 36.5907 21.0736C35.2663 21.3846 34.0079 21.9556 32.8921 22.7628C31.7762 23.5699 30.84 24.5863 30.1301 25.7468C29.3914 26.9543 27.98 27.7352 26.6283 27.3152Z" fill="url(#paint11_linear_862_32065)"/>
</g>
<circle cx="470" cy="65" r="34" fill="url(#paint12_linear_862_32065)"/>
<circle cx="470" cy="65" r="34" fill="url(#paint13_radial_862_32065)"/>
<circle cx="470" cy="65" r="34" fill="url(#paint14_radial_862_32065)"/>
<circle cx="470" cy="65" r="34" fill="url(#paint15_radial_862_32065)"/>
<circle cx="470" cy="65" r="34" fill="url(#paint16_radial_862_32065)"/>
<g style="mix-blend-mode:lighten">
<ellipse cx="468.157" cy="56.3981" rx="21.0964" ry="18.8434" fill="url(#paint17_linear_862_32065)"/>
</g>
<g style="mix-blend-mode:lighten">
<path d="M455.824 54.5463C454.459 54.1221 453.678 52.6577 454.321 51.3813C455.441 49.1602 457.081 47.2268 459.116 45.7545C461.152 44.2821 463.501 43.3299 465.961 42.9618C467.375 42.7502 468.521 43.9506 468.497 45.3799C468.472 46.8091 467.277 47.9161 465.885 48.2428C464.548 48.5569 463.277 49.1336 462.15 49.9487C461.023 50.7639 460.078 51.7903 459.361 52.9623C458.615 54.1817 457.189 54.9704 455.824 54.5463Z" fill="url(#paint18_linear_862_32065)"/>
</g>
</g>
<defs>
<filter id="filter0_f_862_32065" x="-10.5625" y="214" width="556.562" height="191.938" filterUnits="userSpaceOnUse" color-interpolation-filters="sRGB">
<feFlood flood-opacity="0" result="BackgroundImageFix"/>
<feBlend mode="normal" in="SourceGraphic" in2="BackgroundImageFix" result="shape"/>
<feGaussianBlur stdDeviation="5.5" result="effect1_foregroundBlur_862_32065"/>
</filter>
<linearGradient id="paint0_linear_862_32065" x1="267.84" y1="352.232" x2="267.84" y2="44.9975" gradientUnits="userSpaceOnUse">
<stop stop-color="#F1F4FE"/>
<stop offset="0.5797" stop-color="#F7F9FE"/>
<stop offset="1" stop-color="white"/>
</linearGradient>
<linearGradient id="paint1_linear_862_32065" x1="33.3838" y1="198.621" x2="502.289" y2="198.621" gradientUnits="userSpaceOnUse">
<stop stop-color="#3A98FF"/>
<stop offset="0.6277" stop-color="#00F0FF"/>
<stop offset="1" stop-color="#00FFAC"/>
</linearGradient>
<linearGradient id="paint2_linear_862_32065" x1="242.582" y1="373.938" x2="293.464" y2="373.938" gradientUnits="userSpaceOnUse">
<stop stop-color="#EFF1FE"/>
<stop offset="1" stop-color="#E4E7FB"/>
</linearGradient>
<linearGradient id="paint3_linear_862_32065" x1="361.589" y1="94.75" x2="233.442" y2="316.707" gradientUnits="userSpaceOnUse">
<stop stop-color="#00CBFF"/>
<stop offset="1" stop-color="#3A98FF" stop-opacity="0"/>
</linearGradient>
<linearGradient id="paint4_linear_862_32065" x1="372.737" y1="87.75" x2="244.59" y2="309.707" gradientUnits="userSpaceOnUse">
<stop stop-color="#3A98FF"/>
<stop offset="0.45625" stop-color="#00CBFF"/>
<stop offset="1" stop-color="#48FAC9"/>
</linearGradient>
<linearGradient id="paint5_linear_862_32065" x1="40.6667" y1="4" x2="40.6667" y2="71.3333" gradientUnits="userSpaceOnUse">
<stop stop-color="#40FFC6"/>
<stop offset="0.492708" stop-color="#4AE6FF"/>
<stop offset="1" stop-color="#2595FF"/>
</linearGradient>
<radialGradient id="paint6_radial_862_32065" cx="0" cy="0" r="1" gradientUnits="userSpaceOnUse" gradientTransform="translate(26.8393 17.2262) rotate(62.6223) scale(75.8263)">
<stop offset="0.462106" stop-color="#2AA8FF" stop-opacity="0"/>
<stop offset="0.894737" stop-color="#2595FF"/>
</radialGradient>
<radialGradient id="paint7_radial_862_32065" cx="0" cy="0" r="1" gradientUnits="userSpaceOnUse" gradientTransform="translate(24.4345 18.4286) rotate(56.6259) scale(90.7081)">
<stop stop-color="#6EFFCE"/>
<stop offset="0.570035" stop-color="#A5FFFD" stop-opacity="0"/>
</radialGradient>
<radialGradient id="paint8_radial_862_32065" cx="0" cy="0" r="1" gradientUnits="userSpaceOnUse" gradientTransform="translate(34.0536 24.4405) rotate(63.4349) scale(48.3586)">
<stop offset="0.672439" stop-color="#9EC6FD" stop-opacity="0"/>
<stop offset="1" stop-color="white"/>
</radialGradient>
<radialGradient id="paint9_radial_862_32065" cx="0" cy="0" r="1" gradientUnits="userSpaceOnUse" gradientTransform="translate(37.027 30.3874) rotate(62.0378) scale(41.7221)">
<stop offset="0.961458" stop-color="#2AA8FF" stop-opacity="0"/>
<stop offset="1" stop-color="#058AFF" stop-opacity="0.26"/>
</radialGradient>
<linearGradient id="paint10_linear_862_32065" x1="26.9058" y1="15.3054" x2="41.9669" y2="32.0323" gradientUnits="userSpaceOnUse">
<stop stop-color="white" stop-opacity="0.86"/>
<stop offset="1" stop-color="#D9D9D9" stop-opacity="0"/>
</linearGradient>
<linearGradient id="paint11_linear_862_32065" x1="38.8466" y1="17.1928" x2="29.7475" y2="27.6568" gradientUnits="userSpaceOnUse">
<stop stop-color="white"/>
<stop offset="1" stop-color="#FFFFE9" stop-opacity="0.38"/>
</linearGradient>
<linearGradient id="paint12_linear_862_32065" x1="470" y1="31" x2="470" y2="99" gradientUnits="userSpaceOnUse">
<stop stop-color="#40FFC6"/>
<stop offset="0.492708" stop-color="#4AE6FF"/>
<stop offset="1" stop-color="#2595FF"/>
</linearGradient>
<radialGradient id="paint13_radial_862_32065" cx="0" cy="0" r="1" gradientUnits="userSpaceOnUse" gradientTransform="translate(456.036 44.3571) rotate(62.6223) scale(76.5771)">
<stop offset="0.462106" stop-color="#2AA8FF" stop-opacity="0"/>
<stop offset="0.894737" stop-color="#2595FF"/>
</radialGradient>
<radialGradient id="paint14_radial_862_32065" cx="0" cy="0" r="1" gradientUnits="userSpaceOnUse" gradientTransform="translate(453.607 45.5714) rotate(56.6259) scale(91.6062)">
<stop stop-color="#6EFFCE"/>
<stop offset="0.570035" stop-color="#A5FFFD" stop-opacity="0"/>
</radialGradient>
<radialGradient id="paint15_radial_862_32065" cx="0" cy="0" r="1" gradientUnits="userSpaceOnUse" gradientTransform="translate(463.321 51.6429) rotate(63.4349) scale(48.8374)">
<stop offset="0.672439" stop-color="#9EC6FD" stop-opacity="0"/>
<stop offset="1" stop-color="white"/>
</radialGradient>
<radialGradient id="paint16_radial_862_32065" cx="0" cy="0" r="1" gradientUnits="userSpaceOnUse" gradientTransform="translate(466.324 57.6486) rotate(62.0378) scale(42.1352)">
<stop offset="0.961458" stop-color="#2AA8FF" stop-opacity="0"/>
<stop offset="1" stop-color="#058AFF" stop-opacity="0.26"/>
</radialGradient>
<linearGradient id="paint17_linear_862_32065" x1="456.102" y1="42.4175" x2="471.312" y2="59.3101" gradientUnits="userSpaceOnUse">
<stop stop-color="white" stop-opacity="0.86"/>
<stop offset="1" stop-color="#D9D9D9" stop-opacity="0"/>
</linearGradient>
<linearGradient id="paint18_linear_862_32065" x1="468.164" y1="44.3236" x2="458.974" y2="54.8912" gradientUnits="userSpaceOnUse">
<stop stop-color="white"/>
<stop offset="1" stop-color="#FFFFE9" stop-opacity="0.38"/>
</linearGradient>
<clipPath id="clip0_862_32065">
<rect width="535" height="422" fill="white"/>
</clipPath>
</defs>
</svg>
