<svg width="535" height="422" viewBox="0 0 535 422" fill="none" xmlns="http://www.w3.org/2000/svg">
<g clip-path="url(#clip0_862_32384)">
<g filter="url(#filter0_f_862_32384)">
<path d="M9.63897 254.554C-2.62966 247.6 -2.62966 235.866 9.63897 228.912L244.496 230.215C256.764 223.262 276.92 223.262 289.627 230.215L525.798 228.912C538.066 235.866 538.066 247.6 525.798 254.554L290.941 389.723C278.673 396.677 258.517 396.677 245.81 389.723L9.63897 254.554Z" fill="#C5D9EF"/>
</g>
<path d="M535 210.157C535 210.592 535 211.027 535 211.027C535 211.461 535 211.461 535 211.896C535 212.331 535 212.765 534.562 212.765C534.562 213.2 534.562 213.2 534.124 213.634C534.124 214.069 533.686 214.069 533.686 214.504C533.248 214.938 533.248 215.373 532.809 215.808C532.371 216.242 532.371 216.677 531.933 217.111C531.933 217.111 531.933 217.111 531.495 217.546C531.057 217.981 530.619 218.415 530.18 218.85C529.742 219.285 529.304 219.285 529.304 219.719C528.866 220.154 528.866 220.154 528.428 220.588C527.99 221.023 527.551 221.023 527.113 221.458C526.675 221.892 526.237 221.892 525.799 222.327L290.942 357.061L290.504 387.05L525.361 251.447C525.361 251.447 525.799 251.447 525.799 251.012C526.237 251.012 526.237 250.578 526.675 250.578C527.113 250.143 527.551 250.143 527.99 249.708C528.428 249.274 528.428 249.274 528.866 248.839C529.304 248.404 529.742 248.404 529.742 247.97C530.18 247.535 530.619 247.101 531.057 246.666C531.057 246.666 531.057 246.666 531.057 246.231C531.057 245.797 531.495 245.797 531.495 245.362L531.933 244.927C531.933 244.927 531.933 244.927 531.933 244.493C532.371 244.058 532.371 243.624 532.809 243.624C532.809 243.624 532.809 243.624 532.809 243.189C532.809 242.754 533.248 242.754 533.248 242.32C533.248 242.32 533.248 241.885 533.686 241.885C533.686 241.885 533.686 241.885 533.686 241.45C533.686 241.016 533.686 241.016 534.124 240.581V240.147C534.124 239.712 534.124 239.277 534.124 239.277C534.124 238.843 534.124 238.843 534.124 238.408C534.124 238.408 534.124 238.408 534.124 237.973L534.562 207.984C535 209.288 535 209.723 535 210.157Z" fill="#E1EDFF"/>
<path d="M9.63964 221.89C3.50532 218.413 0.438165 213.632 0.438165 208.852L0 238.841C0 243.622 3.06716 248.402 9.20147 251.879L245.811 387.048L246.249 357.059L9.63964 221.89Z" fill="#EFF1FE"/>
<path d="M525.798 196.248C538.066 203.202 538.066 214.937 525.798 221.891L290.941 357.059C278.673 364.013 258.517 364.013 245.81 357.059L9.63897 221.891C-2.62966 214.937 -2.62966 203.202 9.63897 196.248L244.496 60.6452C256.764 53.6912 276.92 53.6912 289.627 60.6452L525.798 196.248Z" fill="white"/>
<path d="M9.63897 211.461C-2.62966 204.507 -2.62966 192.772 9.63897 185.818L244.496 50.2155C256.764 43.2615 276.92 43.2615 289.627 50.2155L525.798 185.818C538.066 192.772 538.066 204.507 525.798 211.461L290.941 347.064C278.673 354.018 258.517 354.018 245.81 347.064L9.63897 211.461Z" fill="url(#paint0_linear_862_32384)"/>
<path d="M268.595 333.589C261.146 333.589 254.136 331.851 248.439 328.809L42.0634 210.591C36.8054 207.548 33.7383 203.202 33.7383 198.856C33.7383 194.51 36.8054 190.163 42.0634 187.121L247.125 68.4684C252.383 65.426 259.394 63.6875 266.842 63.6875C274.291 63.6875 281.302 65.426 286.998 68.4684L493.812 186.686C499.07 189.729 502.137 194.075 502.137 198.421C502.137 202.767 499.07 207.114 493.812 210.156L288.312 328.809C283.054 331.851 276.044 333.589 268.595 333.589ZM267.28 64.9914C259.832 64.9914 253.259 66.7299 248.001 69.7722L42.5016 187.99C37.6818 191.033 34.6146 194.51 34.6146 198.856C34.6146 202.767 37.2436 206.679 42.5016 209.721L249.316 327.939C254.574 330.982 261.146 332.72 268.595 332.72C276.044 332.72 282.616 330.982 287.874 327.939L493.374 209.721C498.194 206.679 501.261 203.202 501.261 198.856C501.261 194.944 498.632 191.033 493.374 187.99L286.56 69.3376C281.302 66.2952 274.291 64.9914 267.28 64.9914Z" fill="url(#paint1_linear_862_32384)"/>
<path d="M287.875 388.786C288.751 388.351 292.694 386.178 293.571 385.743V355.754C292.694 356.189 289.189 357.927 288.313 358.362C287.875 358.362 287.875 358.796 287.436 358.796C286.56 359.231 285.684 359.666 284.807 359.666C284.369 359.666 284.369 360.1 283.931 360.1C283.493 360.1 283.055 360.535 282.178 360.535C281.74 360.535 281.302 360.97 280.864 360.97C280.426 360.97 279.549 361.404 279.111 361.404C278.673 361.404 278.235 361.404 277.797 361.839C276.482 361.839 275.606 362.274 274.291 362.274C273.853 362.274 273.415 362.274 272.977 362.274C272.101 362.274 271.662 362.274 270.786 362.274C270.348 362.274 269.91 362.274 269.472 362.274C269.033 362.274 268.157 362.274 267.719 362.274C267.281 362.274 266.843 362.274 266.404 362.274C265.966 362.274 265.528 362.274 264.652 362.274C264.214 362.274 263.775 362.274 263.337 362.274C262.899 362.274 262.461 362.274 261.585 362.274C261.146 362.274 260.708 362.274 260.27 361.839C259.832 361.839 258.956 361.839 258.517 361.404C258.079 361.404 257.641 361.404 257.203 360.97C256.327 360.97 255.888 360.535 255.012 360.535C254.574 360.535 254.136 360.535 254.136 360.1C252.821 359.666 251.945 359.231 250.63 358.796C250.192 358.796 249.754 358.362 248.878 357.927C248.44 357.927 248.44 357.493 248.001 357.493C247.125 357.058 242.744 354.45 241.867 354.016V384.439C242.744 384.874 246.687 387.047 247.125 387.482C247.563 387.482 247.563 387.916 248.001 387.916C248.44 387.916 248.878 388.351 249.316 388.351C250.63 388.786 251.507 389.22 252.821 389.655C252.821 389.655 252.821 389.655 253.259 389.655C253.698 389.655 253.698 389.655 254.136 390.089C254.574 390.089 255.45 390.524 255.888 390.524H256.327C256.765 390.524 256.765 390.524 257.203 390.524C257.641 390.524 258.079 390.524 258.956 390.959C259.394 390.959 259.394 390.959 259.832 390.959C260.27 390.959 260.27 390.959 260.708 390.959C261.146 390.959 261.585 390.959 262.023 390.959C262.461 390.959 262.461 390.959 262.899 390.959C263.337 390.959 263.337 390.959 263.775 390.959C264.214 390.959 264.652 390.959 265.09 390.959C265.528 390.959 265.528 390.959 265.966 390.959C265.966 390.959 266.404 390.959 266.843 390.959C267.281 390.959 268.157 390.959 268.595 390.959C269.033 390.959 269.033 390.959 269.472 390.959H269.91C270.786 390.959 271.224 390.959 272.101 390.959C272.539 390.959 272.539 390.959 272.977 390.959C272.977 390.959 272.977 390.959 273.415 390.959C274.73 390.959 275.606 390.524 276.92 390.524C277.359 390.524 277.797 390.524 277.797 390.089C278.235 390.089 279.111 389.655 279.549 389.655C279.988 389.655 280.426 389.22 280.864 389.22C281.302 389.22 281.74 388.786 282.617 388.786H283.055H283.493C284.369 388.351 285.246 388.351 286.122 387.916C286.998 389.22 287.436 389.22 287.875 388.786Z" fill="url(#paint2_linear_862_32384)"/>
<path d="M466.222 207.385C453.609 204.488 441.004 200.133 429.664 195.047C446.067 197.21 465.007 196.453 480.177 192.057C463.774 189.895 449.903 186.271 434.779 180.462C436.089 169.526 428.566 157.875 414.714 149.878C387.01 133.883 341.56 133.95 313.714 150.027C309.917 152.219 306.12 154.411 303.582 157.331C264.557 131.877 247.031 98.3732 252.223 66.2939C240.851 68.4974 229.472 72.1587 220.612 77.2741C202.892 87.5048 196.518 101.363 201.51 114.476C192.695 109.387 187.671 103.563 185.171 97.7356C161.123 111.62 157.235 134.222 176.105 149.501C171.061 148.051 166.024 145.142 160.987 142.234C157.209 140.053 154.691 138.599 152.179 135.687C138.223 151.015 141.924 170.69 164.591 183.776C133.038 181.636 104.036 173.661 80.1096 159.847C76.3318 157.666 72.5538 155.485 68.7825 151.846C77.5264 172.971 95.1109 193.355 124.074 210.077C217.26 263.878 344.841 248.382 411.924 209.651L418.253 205.998C432.124 209.622 449.799 209.596 466.222 207.385Z" fill="url(#paint3_linear_862_32384)"/>
<path d="M466.222 170.385C453.609 167.488 441.004 163.133 429.664 158.047C446.067 160.21 465.007 159.453 480.177 155.057C463.774 152.895 449.903 149.271 434.779 143.462C436.089 132.526 428.566 120.875 414.714 112.878C387.01 96.8826 341.56 96.9497 313.714 113.027C309.917 115.219 306.12 117.411 303.582 120.331C264.557 94.8767 247.031 61.3732 252.223 29.2939C240.851 31.4974 229.472 35.1587 220.612 40.2741C202.892 50.5048 196.518 64.3634 201.51 77.4762C192.695 72.3869 187.671 66.5631 185.171 60.7356C161.123 74.6202 157.235 97.2218 176.105 112.501C171.061 111.051 166.024 108.142 160.987 105.234C157.209 103.053 154.691 101.599 152.179 98.6871C138.223 114.015 141.924 133.69 164.591 146.776C133.038 144.636 104.036 136.661 80.1096 122.847C76.3318 120.666 72.5538 118.485 68.7825 114.846C77.5264 135.971 95.1109 156.355 124.074 173.077C217.26 226.878 344.841 211.382 411.924 172.651L418.253 168.998C432.124 172.622 449.799 172.596 466.222 170.385Z" fill="#55ACE3"/>
<circle cx="34" cy="31" r="27" fill="url(#paint4_linear_862_32384)"/>
<circle cx="34" cy="31" r="27" fill="url(#paint5_radial_862_32384)"/>
<circle cx="34" cy="31" r="27" fill="url(#paint6_radial_862_32384)"/>
<circle cx="34" cy="31" r="27" fill="url(#paint7_radial_862_32384)"/>
<circle cx="34" cy="31" r="27" fill="url(#paint8_radial_862_32384)"/>
<g style="mix-blend-mode:lighten">
<ellipse cx="32.5362" cy="24.1709" rx="16.753" ry="14.9639" fill="url(#paint9_linear_862_32384)"/>
</g>
<g style="mix-blend-mode:lighten">
<path d="M22.7426 22.7003C21.6586 22.3635 21.0381 21.2006 21.5491 20.187C22.4382 18.4232 23.7404 16.8878 25.3568 15.7186C26.9732 14.5494 28.8391 13.7932 30.7925 13.5009C31.9152 13.3329 32.8254 14.2862 32.806 15.4212C32.7866 16.5561 31.8374 17.4352 30.7323 17.6947C29.6702 17.9441 28.661 18.4021 27.7661 19.0494C26.8712 19.6967 26.1203 20.5118 25.551 21.4425C24.9586 22.4109 23.8267 23.0372 22.7426 22.7003Z" fill="url(#paint10_linear_862_32384)"/>
</g>
<circle cx="499" cy="70" r="36" fill="url(#paint11_linear_862_32384)"/>
<circle cx="499" cy="70" r="36" fill="url(#paint12_radial_862_32384)"/>
<circle cx="499" cy="70" r="36" fill="url(#paint13_radial_862_32384)"/>
<circle cx="499" cy="70" r="36" fill="url(#paint14_radial_862_32384)"/>
<circle cx="499" cy="70" r="36" fill="url(#paint15_radial_862_32384)"/>
<g style="mix-blend-mode:lighten">
<ellipse cx="497.048" cy="60.8932" rx="22.3374" ry="19.9518" fill="url(#paint16_linear_862_32384)"/>
</g>
<g style="mix-blend-mode:lighten">
<path d="M483.991 58.9325C482.545 58.4834 481.718 56.9329 482.399 55.5813C483.585 53.2296 485.321 51.1825 487.476 49.6235C489.632 48.0646 492.119 47.0563 494.724 46.6665C496.221 46.4425 497.435 47.7136 497.409 49.2269C497.383 50.7402 496.117 51.9123 494.644 52.2583C493.228 52.5908 491.882 53.2014 490.689 54.0645C489.496 54.9276 488.494 56.0145 487.735 57.2554C486.945 58.5465 485.436 59.3816 483.991 58.9325Z" fill="url(#paint17_linear_862_32384)"/>
</g>
</g>
<defs>
<filter id="filter0_f_862_32384" x="-10.5625" y="214" width="556.562" height="191.938" filterUnits="userSpaceOnUse" color-interpolation-filters="sRGB">
<feFlood flood-opacity="0" result="BackgroundImageFix"/>
<feBlend mode="normal" in="SourceGraphic" in2="BackgroundImageFix" result="shape"/>
<feGaussianBlur stdDeviation="5.5" result="effect1_foregroundBlur_862_32384"/>
</filter>
<linearGradient id="paint0_linear_862_32384" x1="267.84" y1="352.232" x2="267.84" y2="44.9975" gradientUnits="userSpaceOnUse">
<stop stop-color="#F1F4FE"/>
<stop offset="0.5797" stop-color="#F7F9FE"/>
<stop offset="1" stop-color="white"/>
</linearGradient>
<linearGradient id="paint1_linear_862_32384" x1="33.3838" y1="198.619" x2="502.289" y2="198.619" gradientUnits="userSpaceOnUse">
<stop stop-color="#3A98FF"/>
<stop offset="0.6277" stop-color="#00F0FF"/>
<stop offset="1" stop-color="#00FFAC"/>
</linearGradient>
<linearGradient id="paint2_linear_862_32384" x1="242.582" y1="373.936" x2="293.464" y2="373.936" gradientUnits="userSpaceOnUse">
<stop stop-color="#EFF1FE"/>
<stop offset="1" stop-color="#E4E7FB"/>
</linearGradient>
<linearGradient id="paint3_linear_862_32384" x1="366.862" y1="122.25" x2="268.135" y2="293.25" gradientUnits="userSpaceOnUse">
<stop stop-color="#C3DAFD" stop-opacity="0.76"/>
<stop offset="1" stop-color="#E1EDFF" stop-opacity="0"/>
</linearGradient>
<linearGradient id="paint4_linear_862_32384" x1="34" y1="4" x2="34" y2="58" gradientUnits="userSpaceOnUse">
<stop stop-color="#40FFC6"/>
<stop offset="0.492708" stop-color="#4AE6FF"/>
<stop offset="1" stop-color="#2595FF"/>
</linearGradient>
<radialGradient id="paint5_radial_862_32384" cx="0" cy="0" r="1" gradientUnits="userSpaceOnUse" gradientTransform="translate(22.9107 14.6071) rotate(62.6223) scale(60.8112)">
<stop offset="0.462106" stop-color="#2AA8FF" stop-opacity="0"/>
<stop offset="0.894737" stop-color="#2595FF"/>
</radialGradient>
<radialGradient id="paint6_radial_862_32384" cx="0" cy="0" r="1" gradientUnits="userSpaceOnUse" gradientTransform="translate(20.9821 15.5714) rotate(56.6259) scale(72.7461)">
<stop stop-color="#6EFFCE"/>
<stop offset="0.570035" stop-color="#A5FFFD" stop-opacity="0"/>
</radialGradient>
<radialGradient id="paint7_radial_862_32384" cx="0" cy="0" r="1" gradientUnits="userSpaceOnUse" gradientTransform="translate(28.6964 20.3929) rotate(63.4349) scale(38.7826)">
<stop offset="0.672439" stop-color="#9EC6FD" stop-opacity="0"/>
<stop offset="1" stop-color="white"/>
</radialGradient>
<radialGradient id="paint8_radial_862_32384" cx="0" cy="0" r="1" gradientUnits="userSpaceOnUse" gradientTransform="translate(31.0811 25.1622) rotate(62.0378) scale(33.4603)">
<stop offset="0.961458" stop-color="#2AA8FF" stop-opacity="0"/>
<stop offset="1" stop-color="#058AFF" stop-opacity="0.26"/>
</radialGradient>
<linearGradient id="paint9_linear_862_32384" x1="22.9631" y1="13.0687" x2="35.0417" y2="26.4834" gradientUnits="userSpaceOnUse">
<stop stop-color="white" stop-opacity="0.86"/>
<stop offset="1" stop-color="#D9D9D9" stop-opacity="0"/>
</linearGradient>
<linearGradient id="paint10_linear_862_32384" x1="32.5414" y1="14.5824" x2="25.2442" y2="22.9743" gradientUnits="userSpaceOnUse">
<stop stop-color="white"/>
<stop offset="1" stop-color="#FFFFE9" stop-opacity="0.38"/>
</linearGradient>
<linearGradient id="paint11_linear_862_32384" x1="499" y1="34" x2="499" y2="106" gradientUnits="userSpaceOnUse">
<stop stop-color="#40FFC6"/>
<stop offset="0.492708" stop-color="#4AE6FF"/>
<stop offset="1" stop-color="#2595FF"/>
</linearGradient>
<radialGradient id="paint12_radial_862_32384" cx="0" cy="0" r="1" gradientUnits="userSpaceOnUse" gradientTransform="translate(484.214 48.1429) rotate(62.6223) scale(81.0816)">
<stop offset="0.462106" stop-color="#2AA8FF" stop-opacity="0"/>
<stop offset="0.894737" stop-color="#2595FF"/>
</radialGradient>
<radialGradient id="paint13_radial_862_32384" cx="0" cy="0" r="1" gradientUnits="userSpaceOnUse" gradientTransform="translate(481.643 49.4286) rotate(56.6259) scale(96.9948)">
<stop stop-color="#6EFFCE"/>
<stop offset="0.570035" stop-color="#A5FFFD" stop-opacity="0"/>
</radialGradient>
<radialGradient id="paint14_radial_862_32384" cx="0" cy="0" r="1" gradientUnits="userSpaceOnUse" gradientTransform="translate(491.929 55.8571) rotate(63.4349) scale(51.7101)">
<stop offset="0.672439" stop-color="#9EC6FD" stop-opacity="0"/>
<stop offset="1" stop-color="white"/>
</radialGradient>
<radialGradient id="paint15_radial_862_32384" cx="0" cy="0" r="1" gradientUnits="userSpaceOnUse" gradientTransform="translate(495.108 62.2162) rotate(62.0378) scale(44.6138)">
<stop offset="0.961458" stop-color="#2AA8FF" stop-opacity="0"/>
<stop offset="1" stop-color="#058AFF" stop-opacity="0.26"/>
</radialGradient>
<linearGradient id="paint16_linear_862_32384" x1="484.284" y1="46.0903" x2="500.389" y2="63.9765" gradientUnits="userSpaceOnUse">
<stop stop-color="white" stop-opacity="0.86"/>
<stop offset="1" stop-color="#D9D9D9" stop-opacity="0"/>
</linearGradient>
<linearGradient id="paint17_linear_862_32384" x1="497.056" y1="48.1085" x2="487.326" y2="59.2977" gradientUnits="userSpaceOnUse">
<stop stop-color="white"/>
<stop offset="1" stop-color="#FFFFE9" stop-opacity="0.38"/>
</linearGradient>
<clipPath id="clip0_862_32384">
<rect width="535" height="422" fill="white"/>
</clipPath>
</defs>
</svg>
