<svg width="535" height="422" viewBox="0 0 535 422" fill="none" xmlns="http://www.w3.org/2000/svg">
<g clip-path="url(#clip0_862_31178)">
<g filter="url(#filter0_f_862_31178)">
<path d="M9.63897 254.554C-2.62966 247.6 -2.62966 235.866 9.63897 228.912L244.496 230.215C256.764 223.262 276.92 223.262 289.627 230.215L525.798 228.912C538.066 235.866 538.066 247.6 525.798 254.554L290.941 389.723C278.673 396.677 258.517 396.677 245.81 389.723L9.63897 254.554Z" fill="#C5D9EF"/>
</g>
<path d="M535 210.157C535 210.592 535 211.027 535 211.027C535 211.461 535 211.461 535 211.896C535 212.331 535 212.765 534.562 212.765C534.562 213.2 534.562 213.2 534.124 213.634C534.124 214.069 533.686 214.069 533.686 214.504C533.248 214.938 533.248 215.373 532.809 215.808C532.371 216.242 532.371 216.677 531.933 217.111C531.933 217.111 531.933 217.111 531.495 217.546C531.057 217.981 530.619 218.415 530.18 218.85C529.742 219.285 529.304 219.285 529.304 219.719C528.866 220.154 528.866 220.154 528.428 220.588C527.99 221.023 527.551 221.023 527.113 221.458C526.675 221.892 526.237 221.892 525.799 222.327L290.942 357.061L290.504 387.05L525.361 251.447C525.361 251.447 525.799 251.447 525.799 251.012C526.237 251.012 526.237 250.578 526.675 250.578C527.113 250.143 527.551 250.143 527.99 249.708C528.428 249.274 528.428 249.274 528.866 248.839C529.304 248.404 529.742 248.404 529.742 247.97C530.18 247.535 530.619 247.101 531.057 246.666C531.057 246.666 531.057 246.666 531.057 246.231C531.057 245.797 531.495 245.797 531.495 245.362L531.933 244.927C531.933 244.927 531.933 244.927 531.933 244.493C532.371 244.058 532.371 243.624 532.809 243.624C532.809 243.624 532.809 243.624 532.809 243.189C532.809 242.754 533.248 242.754 533.248 242.32C533.248 242.32 533.248 241.885 533.686 241.885C533.686 241.885 533.686 241.885 533.686 241.45C533.686 241.016 533.686 241.016 534.124 240.581V240.147C534.124 239.712 534.124 239.277 534.124 239.277C534.124 238.843 534.124 238.843 534.124 238.408C534.124 238.408 534.124 238.408 534.124 237.973L534.562 207.984C535 209.288 535 209.723 535 210.157Z" fill="#E1EDFF"/>
<path d="M9.63964 221.892C3.50532 218.415 0.438165 213.634 0.438165 208.854L0 238.843C0 243.623 3.06716 248.404 9.20147 251.881L245.811 387.05L246.249 357.061L9.63964 221.892Z" fill="#EFF1FE"/>
<path d="M525.798 196.25C538.066 203.204 538.066 214.939 525.798 221.893L290.941 357.061C278.673 364.015 258.517 364.015 245.81 357.061L9.63897 221.893C-2.62966 214.939 -2.62966 203.204 9.63897 196.25L244.496 60.6471C256.764 53.6931 276.92 53.6931 289.627 60.6471L525.798 196.25Z" fill="white"/>
<path d="M9.63897 211.461C-2.62966 204.507 -2.62966 192.772 9.63897 185.818L244.496 50.2155C256.764 43.2615 276.92 43.2615 289.627 50.2155L525.798 185.818C538.066 192.772 538.066 204.507 525.798 211.461L290.941 347.064C278.673 354.018 258.517 354.018 245.81 347.064L9.63897 211.461Z" fill="url(#paint0_linear_862_31178)"/>
<path d="M268.595 333.591C261.146 333.591 254.136 331.853 248.439 328.811L42.0634 210.593C36.8054 207.55 33.7383 203.204 33.7383 198.858C33.7383 194.512 36.8054 190.165 42.0634 187.123L247.125 68.4703C252.383 65.428 259.394 63.6895 266.842 63.6895C274.291 63.6895 281.302 65.428 286.998 68.4703L493.812 186.688C499.07 189.731 502.137 194.077 502.137 198.423C502.137 202.769 499.07 207.116 493.812 210.158L288.312 328.811C283.054 331.853 276.044 333.591 268.595 333.591ZM267.28 64.9933C259.832 64.9933 253.259 66.7318 248.001 69.7742L42.5016 187.992C37.6818 191.035 34.6146 194.512 34.6146 198.858C34.6146 202.769 37.2436 206.681 42.5016 209.723L249.316 327.941C254.574 330.984 261.146 332.722 268.595 332.722C276.044 332.722 282.616 330.984 287.874 327.941L493.374 209.723C498.194 206.681 501.261 203.204 501.261 198.858C501.261 194.946 498.632 191.035 493.374 187.992L286.56 69.3396C281.302 66.2972 274.291 64.9933 267.28 64.9933Z" fill="url(#paint1_linear_862_31178)"/>
<path d="M287.875 388.788C288.751 388.353 292.694 386.18 293.571 385.745V355.756C292.694 356.191 289.189 357.929 288.313 358.364C287.875 358.364 287.875 358.798 287.436 358.798C286.56 359.233 285.684 359.668 284.807 359.668C284.369 359.668 284.369 360.102 283.931 360.102C283.493 360.102 283.055 360.537 282.178 360.537C281.74 360.537 281.302 360.972 280.864 360.972C280.426 360.972 279.549 361.406 279.111 361.406C278.673 361.406 278.235 361.406 277.797 361.841C276.482 361.841 275.606 362.275 274.291 362.275C273.853 362.275 273.415 362.275 272.977 362.275C272.101 362.275 271.662 362.275 270.786 362.275C270.348 362.275 269.91 362.275 269.472 362.275C269.033 362.275 268.157 362.275 267.719 362.275C267.281 362.275 266.843 362.275 266.404 362.275C265.966 362.275 265.528 362.275 264.652 362.275C264.214 362.275 263.775 362.275 263.337 362.275C262.899 362.275 262.461 362.275 261.585 362.275C261.146 362.275 260.708 362.275 260.27 361.841C259.832 361.841 258.956 361.841 258.517 361.406C258.079 361.406 257.641 361.406 257.203 360.972C256.327 360.972 255.888 360.537 255.012 360.537C254.574 360.537 254.136 360.537 254.136 360.102C252.821 359.668 251.945 359.233 250.63 358.798C250.192 358.798 249.754 358.364 248.878 357.929C248.44 357.929 248.44 357.495 248.001 357.495C247.125 357.06 242.744 354.452 241.867 354.018V384.441C242.744 384.876 246.687 387.049 247.125 387.484C247.563 387.484 247.563 387.918 248.001 387.918C248.44 387.918 248.878 388.353 249.316 388.353C250.63 388.788 251.507 389.222 252.821 389.657C252.821 389.657 252.821 389.657 253.259 389.657C253.698 389.657 253.698 389.657 254.136 390.091C254.574 390.091 255.45 390.526 255.888 390.526H256.327C256.765 390.526 256.765 390.526 257.203 390.526C257.641 390.526 258.079 390.526 258.956 390.961C259.394 390.961 259.394 390.961 259.832 390.961C260.27 390.961 260.27 390.961 260.708 390.961C261.146 390.961 261.585 390.961 262.023 390.961C262.461 390.961 262.461 390.961 262.899 390.961C263.337 390.961 263.337 390.961 263.775 390.961C264.214 390.961 264.652 390.961 265.09 390.961C265.528 390.961 265.528 390.961 265.966 390.961C265.966 390.961 266.404 390.961 266.843 390.961C267.281 390.961 268.157 390.961 268.595 390.961C269.033 390.961 269.033 390.961 269.472 390.961H269.91C270.786 390.961 271.224 390.961 272.101 390.961C272.539 390.961 272.539 390.961 272.977 390.961C272.977 390.961 272.977 390.961 273.415 390.961C274.73 390.961 275.606 390.526 276.92 390.526C277.359 390.526 277.797 390.526 277.797 390.091C278.235 390.091 279.111 389.657 279.549 389.657C279.988 389.657 280.426 389.222 280.864 389.222C281.302 389.222 281.74 388.788 282.617 388.788H283.055H283.493C284.369 388.353 285.246 388.353 286.122 387.918C286.998 389.222 287.436 389.222 287.875 388.788Z" fill="url(#paint2_linear_862_31178)"/>
<circle cx="40.6667" cy="37.6667" r="33.6667" fill="url(#paint3_linear_862_31178)"/>
<circle cx="40.6667" cy="37.6667" r="33.6667" fill="url(#paint4_radial_862_31178)"/>
<circle cx="40.6667" cy="37.6667" r="33.6667" fill="url(#paint5_radial_862_31178)"/>
<circle cx="40.6667" cy="37.6667" r="33.6667" fill="url(#paint6_radial_862_31178)"/>
<circle cx="40.6667" cy="37.6667" r="33.6667" fill="url(#paint7_radial_862_31178)"/>
<g style="mix-blend-mode:lighten">
<ellipse cx="38.8427" cy="29.1489" rx="20.8896" ry="18.6586" fill="url(#paint8_linear_862_31178)"/>
</g>
<g style="mix-blend-mode:lighten">
<path d="M26.6283 27.3152C25.2766 26.8953 24.5029 25.4452 25.14 24.1813C26.2487 21.982 27.8724 20.0675 29.888 18.6096C31.9035 17.1517 34.23 16.2088 36.6658 15.8443C38.0657 15.6348 39.2007 16.8235 39.1764 18.2387C39.1522 19.6539 37.9687 20.75 36.5907 21.0736C35.2663 21.3846 34.0079 21.9556 32.8921 22.7628C31.7762 23.5699 30.84 24.5863 30.1301 25.7468C29.3914 26.9543 27.98 27.7352 26.6283 27.3152Z" fill="url(#paint9_linear_862_31178)"/>
</g>
<circle cx="485.5" cy="49.5" r="49.5" fill="url(#paint10_linear_862_31178)"/>
<circle cx="485.5" cy="49.5" r="49.5" fill="url(#paint11_radial_862_31178)"/>
<circle cx="485.5" cy="49.5" r="49.5" fill="url(#paint12_radial_862_31178)"/>
<circle cx="485.5" cy="49.5" r="49.5" fill="url(#paint13_radial_862_31178)"/>
<circle cx="485.5" cy="49.5" r="49.5" fill="url(#paint14_radial_862_31178)"/>
<g style="mix-blend-mode:lighten">
<ellipse cx="482.817" cy="36.9767" rx="30.7139" ry="27.4337" fill="url(#paint15_linear_862_31178)"/>
</g>
<g style="mix-blend-mode:lighten">
<path d="M464.86 34.2807C462.873 33.6632 461.735 31.5312 462.672 29.6729C464.302 26.4393 466.689 23.6245 469.653 21.4809C472.616 19.3373 476.037 17.951 479.618 17.415C481.676 17.107 483.345 18.8547 483.31 20.9355C483.274 23.0163 481.534 24.6279 479.508 25.1036C477.561 25.5609 475.71 26.4005 474.07 27.5873C472.429 28.774 471.053 30.2684 470.009 31.9747C468.923 33.75 466.848 34.8982 464.86 34.2807Z" fill="url(#paint16_linear_862_31178)"/>
</g>
<rect width="320.293" height="239.937" rx="40" transform="matrix(0.866025 0.5 -0.866025 0.5 202.793 39)" fill="url(#paint17_linear_862_31178)"/>
<mask id="path-17-inside-1_862_31178" fill="white">
<rect width="320.293" height="239.937" rx="40" transform="matrix(0.866025 0.5 -0.866025 0.5 209.113 10)"/>
</mask>
<rect width="320.293" height="239.937" rx="40" transform="matrix(0.866025 0.5 -0.866025 0.5 209.113 10)" stroke="url(#paint18_linear_862_31178)" stroke-width="239.937" mask="url(#path-17-inside-1_862_31178)"/>
<rect width="15.8449" height="305.58" rx="7.92246" transform="matrix(0.866025 -0.5 -0.866025 -0.5 411.023 208.061)" fill="white"/>
<circle r="9.62012" transform="matrix(0.866025 0.5 -0.866025 0.5 211.074 52.4424)" fill="white"/>
<circle r="9.62012" transform="matrix(0.866025 0.5 -0.866025 0.5 237.537 67.7217)" fill="white"/>
<circle r="9.62012" transform="matrix(0.866025 0.5 -0.866025 0.5 264.002 82.999)" fill="white"/>
<mask id="path-22-inside-2_862_31178" fill="white">
<path d="M124.943 159.001L109.486 150.076L150.305 108L166.089 117.113L139.107 142.89L185.145 128.115L196.677 134.773L171.085 161.353L215.814 145.822L231.517 154.888L158.72 178.502L143.263 169.578L166.182 145.768L124.943 159.001Z"/>
</mask>
<path d="M124.943 159.001L-11.8888 238.001L91.3407 297.6L218.947 256.655L124.943 159.001ZM109.486 150.076L-59.3457 95.4813L-130.931 169.272L-27.3462 229.076L109.486 150.076ZM150.305 108L287.137 29L106.386 -75.3565L-18.5269 53.4048L150.305 108ZM166.089 117.113L331.705 174.898L410.107 99.9969L302.921 38.1132L166.089 117.113ZM139.107 142.89L-26.5085 85.1051L-402.859 444.652L233.126 240.54L139.107 142.89ZM185.145 128.115L321.977 49.1151L218.738 -10.4902L91.1263 30.4652L185.145 128.115ZM196.677 134.773L365.811 189.055L436.748 115.378L333.509 55.7729L196.677 134.773ZM171.085 161.353L1.95067 107.071L-350.057 472.673L270.816 257.095L171.085 161.353ZM215.814 145.822L352.646 66.822L245.698 5.07529L116.084 50.0796L215.814 145.822ZM231.517 154.888L326.304 252.29L548.85 180.1L368.349 75.888L231.517 154.888ZM158.72 178.502L21.8883 257.502L125.617 317.389L253.507 275.904L158.72 178.502ZM143.263 169.578L-25.88 115.305L-96.7986 188.978L6.43097 248.578L143.263 169.578ZM166.182 145.768L335.325 200.041L664.534 -141.955L72.1786 48.1137L166.182 145.768ZM261.775 80.0007L246.318 71.0764L-27.3462 229.076L-11.8888 238.001L261.775 80.0007ZM278.317 204.672L319.136 162.595L-18.5269 53.4048L-59.3457 95.4813L278.317 204.672ZM13.4727 187L29.2571 196.113L302.921 38.1132L287.137 29L13.4727 187ZM0.473377 59.3279L-26.5085 85.1051L304.723 200.676L331.705 174.898L0.473377 59.3279ZM233.126 240.54L279.164 225.765L91.1263 30.4652L45.0885 45.2405L233.126 240.54ZM48.313 207.115L59.8447 213.773L333.509 55.7729L321.977 49.1151L48.313 207.115ZM27.5422 80.4911L1.95067 107.071L340.22 215.635L365.811 189.055L27.5422 80.4911ZM270.816 257.095L315.545 241.564L116.084 50.0796L71.3547 65.6104L270.816 257.095ZM78.9823 224.822L94.685 233.888L368.349 75.888L352.646 66.822L78.9823 224.822ZM136.73 57.4859L63.9337 81.0999L253.507 275.904L326.304 252.29L136.73 57.4859ZM295.552 99.502L280.095 90.5777L6.43097 248.578L21.8883 257.502L295.552 99.502ZM312.406 223.851L335.325 200.041L-2.96103 91.4956L-25.88 115.305L312.406 223.851ZM72.1786 48.1137L30.9398 61.3459L218.947 256.655L260.185 243.423L72.1786 48.1137Z" fill="url(#paint19_linear_862_31178)" mask="url(#path-22-inside-2_862_31178)"/>
<mask id="path-24-inside-3_862_31178" fill="white">
<path d="M213.282 210.003L197.515 200.9L238.014 158.639L254.114 167.934L227.309 193.813L273.551 179.156L285.313 185.947L259.926 212.645L304.834 197.217L320.85 206.464L247.735 229.894L231.968 220.791L254.704 196.876L213.282 210.003Z"/>
</mask>
<path d="M213.282 210.003L76.4499 289.003L179.115 348.276L306.392 307.943L213.282 210.003ZM197.515 200.9L28.1929 146.814L-42.3409 220.419L60.6834 279.9L197.515 200.9ZM238.014 158.639L374.846 79.6387L193.112 -25.2854L68.6911 104.553L238.014 158.639ZM254.114 167.934L420.193 225.275L497.62 150.522L390.946 88.9341L254.114 167.934ZM227.309 193.813L61.2298 136.473L-304.907 489.96L320.435 291.748L227.309 193.813ZM273.551 179.156L410.383 100.156L307.708 40.8769L180.425 81.2215L273.551 179.156ZM285.313 185.947L454.941 239.713L524.82 166.226L422.145 106.947L285.313 185.947ZM259.926 212.645L90.2984 158.879L-251.534 518.362L358.879 308.656L259.926 212.645ZM304.834 197.217L441.666 118.217L335.232 56.7678L205.881 101.206L304.834 197.217ZM320.85 206.464L414.759 304.149L639.16 232.241L457.682 127.464L320.85 206.464ZM247.735 229.894L110.903 308.894L214.072 368.459L341.644 327.579L247.735 229.894ZM231.968 220.791L62.3318 167.034L-7.52858 240.518L95.1361 299.791L231.968 220.791ZM254.704 196.876L424.34 250.634L744.028 -85.6349L161.594 98.9369L254.704 196.876ZM350.114 131.003L334.347 121.9L60.6834 279.9L76.4499 289.003L350.114 131.003ZM366.838 254.986L407.336 212.725L68.6911 104.553L28.1929 146.814L366.838 254.986ZM101.182 237.639L117.282 246.934L390.946 88.9341L374.846 79.6387L101.182 237.639ZM88.035 110.594L61.2298 136.473L393.387 251.154L420.193 225.275L88.035 110.594ZM320.435 291.748L366.677 277.091L180.425 81.2215L134.183 95.8787L320.435 291.748ZM136.719 258.156L148.481 264.947L422.145 106.947L410.383 100.156L136.719 258.156ZM115.685 132.181L90.2984 158.879L429.554 266.411L454.941 239.713L115.685 132.181ZM358.879 308.656L403.786 293.228L205.881 101.206L160.973 116.634L358.879 308.656ZM168.002 276.217L184.018 285.464L457.682 127.464L441.666 118.217L168.002 276.217ZM226.941 108.779L153.825 132.209L341.644 327.579L414.759 304.149L226.941 108.779ZM384.567 150.894L368.8 141.791L95.1361 299.791L110.903 308.894L384.567 150.894ZM401.604 274.549L424.34 250.634L85.0676 143.119L62.3318 167.034L401.604 274.549ZM161.594 98.9369L120.172 112.063L306.392 307.943L347.814 294.816L161.594 98.9369Z" fill="url(#paint20_linear_862_31178)" mask="url(#path-24-inside-3_862_31178)"/>
<mask id="path-26-inside-4_862_31178" fill="white">
<path d="M301.984 261.218L286.527 252.293L327.346 210.217L343.13 219.33L316.148 245.107L362.186 230.332L373.718 236.99L348.126 263.57L392.855 248.039L408.558 257.105L335.761 280.719L320.304 271.794L343.223 247.985L301.984 261.218Z"/>
</mask>
<path d="M301.984 261.218L165.152 340.218L268.382 399.817L395.988 358.872L301.984 261.218ZM286.527 252.293L117.695 197.698L46.1102 271.489L149.695 331.293L286.527 252.293ZM327.346 210.217L464.178 131.217L283.427 26.8603L158.514 155.622L327.346 210.217ZM343.13 219.33L508.746 277.115L587.148 202.214L479.962 140.33L343.13 219.33ZM316.148 245.107L150.533 187.322L-225.818 546.869L410.167 342.757L316.148 245.107ZM362.186 230.332L499.018 151.332L395.779 91.7266L268.167 132.682L362.186 230.332ZM373.718 236.99L542.852 291.271L613.789 217.595L510.55 157.99L373.718 236.99ZM348.126 263.57L178.992 209.288L-173.016 574.89L447.857 359.312L348.126 263.57ZM392.855 248.039L529.687 169.039L422.739 107.292L293.125 152.296L392.855 248.039ZM408.558 257.105L503.345 354.507L725.891 282.317L545.39 178.105L408.558 257.105ZM335.761 280.719L198.929 359.719L302.658 419.606L430.548 378.121L335.761 280.719ZM320.304 271.794L151.161 217.522L80.2424 291.195L183.472 350.794L320.304 271.794ZM343.223 247.985L512.366 302.258L841.575 -39.7386L249.22 150.33L343.223 247.985ZM438.816 182.218L423.359 173.293L149.695 331.293L165.152 340.218L438.816 182.218ZM455.358 306.888L496.177 264.812L158.514 155.622L117.695 197.698L455.358 306.888ZM190.514 289.217L206.298 298.33L479.962 140.33L464.178 131.217L190.514 289.217ZM177.514 161.545L150.533 187.322L481.764 302.892L508.746 277.115L177.514 161.545ZM410.167 342.757L456.205 327.982L268.167 132.682L222.13 147.457L410.167 342.757ZM225.354 309.332L236.886 315.99L510.55 157.99L499.018 151.332L225.354 309.332ZM204.583 182.708L178.992 209.288L517.261 317.851L542.852 291.271L204.583 182.708ZM447.857 359.312L492.586 343.781L293.125 152.296L248.396 167.827L447.857 359.312ZM256.023 327.039L271.726 336.105L545.39 178.105L529.687 169.039L256.023 327.039ZM313.771 159.703L240.975 183.317L430.548 378.121L503.345 354.507L313.771 159.703ZM472.593 201.719L457.136 192.794L183.472 350.794L198.929 359.719L472.593 201.719ZM489.447 326.067L512.366 302.258L174.08 193.712L151.161 217.522L489.447 326.067ZM249.22 150.33L207.981 163.563L395.988 358.872L437.226 345.64L249.22 150.33Z" fill="url(#paint21_linear_862_31178)" mask="url(#path-26-inside-4_862_31178)"/>
</g>
<defs>
<filter id="filter0_f_862_31178" x="-10.5625" y="214" width="556.562" height="191.938" filterUnits="userSpaceOnUse" color-interpolation-filters="sRGB">
<feFlood flood-opacity="0" result="BackgroundImageFix"/>
<feBlend mode="normal" in="SourceGraphic" in2="BackgroundImageFix" result="shape"/>
<feGaussianBlur stdDeviation="5.5" result="effect1_foregroundBlur_862_31178"/>
</filter>
<linearGradient id="paint0_linear_862_31178" x1="267.84" y1="352.232" x2="267.84" y2="44.9975" gradientUnits="userSpaceOnUse">
<stop stop-color="#F1F4FE"/>
<stop offset="0.5797" stop-color="#F7F9FE"/>
<stop offset="1" stop-color="white"/>
</linearGradient>
<linearGradient id="paint1_linear_862_31178" x1="33.3838" y1="198.621" x2="502.289" y2="198.621" gradientUnits="userSpaceOnUse">
<stop stop-color="#3A98FF"/>
<stop offset="0.6277" stop-color="#00F0FF"/>
<stop offset="1" stop-color="#00FFAC"/>
</linearGradient>
<linearGradient id="paint2_linear_862_31178" x1="242.582" y1="373.938" x2="293.464" y2="373.938" gradientUnits="userSpaceOnUse">
<stop stop-color="#EFF1FE"/>
<stop offset="1" stop-color="#E4E7FB"/>
</linearGradient>
<linearGradient id="paint3_linear_862_31178" x1="40.6667" y1="4" x2="40.6667" y2="71.3333" gradientUnits="userSpaceOnUse">
<stop stop-color="#40FFC6"/>
<stop offset="0.492708" stop-color="#4AE6FF"/>
<stop offset="1" stop-color="#2595FF"/>
</linearGradient>
<radialGradient id="paint4_radial_862_31178" cx="0" cy="0" r="1" gradientUnits="userSpaceOnUse" gradientTransform="translate(26.8393 17.2262) rotate(62.6223) scale(75.8263)">
<stop offset="0.462106" stop-color="#2AA8FF" stop-opacity="0"/>
<stop offset="0.894737" stop-color="#2595FF"/>
</radialGradient>
<radialGradient id="paint5_radial_862_31178" cx="0" cy="0" r="1" gradientUnits="userSpaceOnUse" gradientTransform="translate(24.4345 18.4286) rotate(56.6259) scale(90.7081)">
<stop stop-color="#6EFFCE"/>
<stop offset="0.570035" stop-color="#A5FFFD" stop-opacity="0"/>
</radialGradient>
<radialGradient id="paint6_radial_862_31178" cx="0" cy="0" r="1" gradientUnits="userSpaceOnUse" gradientTransform="translate(34.0536 24.4405) rotate(63.4349) scale(48.3586)">
<stop offset="0.672439" stop-color="#9EC6FD" stop-opacity="0"/>
<stop offset="1" stop-color="white"/>
</radialGradient>
<radialGradient id="paint7_radial_862_31178" cx="0" cy="0" r="1" gradientUnits="userSpaceOnUse" gradientTransform="translate(37.027 30.3874) rotate(62.0378) scale(41.7221)">
<stop offset="0.961458" stop-color="#2AA8FF" stop-opacity="0"/>
<stop offset="1" stop-color="#058AFF" stop-opacity="0.26"/>
</radialGradient>
<linearGradient id="paint8_linear_862_31178" x1="26.9058" y1="15.3054" x2="41.9669" y2="32.0323" gradientUnits="userSpaceOnUse">
<stop stop-color="white" stop-opacity="0.86"/>
<stop offset="1" stop-color="#D9D9D9" stop-opacity="0"/>
</linearGradient>
<linearGradient id="paint9_linear_862_31178" x1="38.8466" y1="17.1928" x2="29.7475" y2="27.6568" gradientUnits="userSpaceOnUse">
<stop stop-color="white"/>
<stop offset="1" stop-color="#FFFFE9" stop-opacity="0.38"/>
</linearGradient>
<linearGradient id="paint10_linear_862_31178" x1="485.5" y1="0" x2="485.5" y2="99" gradientUnits="userSpaceOnUse">
<stop stop-color="#40FFC6"/>
<stop offset="0.492708" stop-color="#4AE6FF"/>
<stop offset="1" stop-color="#2595FF"/>
</linearGradient>
<radialGradient id="paint11_radial_862_31178" cx="0" cy="0" r="1" gradientUnits="userSpaceOnUse" gradientTransform="translate(465.17 19.4464) rotate(62.6223) scale(111.487)">
<stop offset="0.462106" stop-color="#2AA8FF" stop-opacity="0"/>
<stop offset="0.894737" stop-color="#2595FF"/>
</radialGradient>
<radialGradient id="paint12_radial_862_31178" cx="0" cy="0" r="1" gradientUnits="userSpaceOnUse" gradientTransform="translate(461.634 21.2143) rotate(56.6259) scale(133.368)">
<stop stop-color="#6EFFCE"/>
<stop offset="0.570035" stop-color="#A5FFFD" stop-opacity="0"/>
</radialGradient>
<radialGradient id="paint13_radial_862_31178" cx="0" cy="0" r="1" gradientUnits="userSpaceOnUse" gradientTransform="translate(475.777 30.0536) rotate(63.4349) scale(71.1015)">
<stop offset="0.672439" stop-color="#9EC6FD" stop-opacity="0"/>
<stop offset="1" stop-color="white"/>
</radialGradient>
<radialGradient id="paint14_radial_862_31178" cx="0" cy="0" r="1" gradientUnits="userSpaceOnUse" gradientTransform="translate(480.149 38.7973) rotate(62.0378) scale(61.3439)">
<stop offset="0.961458" stop-color="#2AA8FF" stop-opacity="0"/>
<stop offset="1" stop-color="#058AFF" stop-opacity="0.26"/>
</radialGradient>
<linearGradient id="paint15_linear_862_31178" x1="465.267" y1="16.6226" x2="487.411" y2="41.2162" gradientUnits="userSpaceOnUse">
<stop stop-color="white" stop-opacity="0.86"/>
<stop offset="1" stop-color="#D9D9D9" stop-opacity="0"/>
</linearGradient>
<linearGradient id="paint16_linear_862_31178" x1="482.825" y1="19.3978" x2="469.446" y2="34.7829" gradientUnits="userSpaceOnUse">
<stop stop-color="white"/>
<stop offset="1" stop-color="#FFFFE9" stop-opacity="0.38"/>
</linearGradient>
<linearGradient id="paint17_linear_862_31178" x1="160.147" y1="0" x2="160.147" y2="239.937" gradientUnits="userSpaceOnUse">
<stop stop-color="#00CBFF" stop-opacity="0.3"/>
<stop offset="1" stop-color="#3A98FF" stop-opacity="0"/>
</linearGradient>
<linearGradient id="paint18_linear_862_31178" x1="58.2866" y1="-27.1627" x2="217.302" y2="230.317" gradientUnits="userSpaceOnUse">
<stop stop-color="#40FFC6"/>
<stop offset="0.503125" stop-color="#00DBFF"/>
<stop offset="1" stop-color="#2595FF"/>
</linearGradient>
<linearGradient id="paint19_linear_862_31178" x1="171.519" y1="112.817" x2="162.19" y2="173.075" gradientUnits="userSpaceOnUse">
<stop stop-color="#40FFC6"/>
<stop offset="0.503125" stop-color="#00DBFF"/>
<stop offset="1" stop-color="#2595FF"/>
</linearGradient>
<linearGradient id="paint20_linear_862_31178" x1="259.524" y1="163.626" x2="249.822" y2="224.221" gradientUnits="userSpaceOnUse">
<stop stop-color="#40FFC6"/>
<stop offset="0.503125" stop-color="#00DBFF"/>
<stop offset="1" stop-color="#2595FF"/>
</linearGradient>
<linearGradient id="paint21_linear_862_31178" x1="348.56" y1="215.034" x2="339.231" y2="275.292" gradientUnits="userSpaceOnUse">
<stop stop-color="#40FFC6"/>
<stop offset="0.503125" stop-color="#00DBFF"/>
<stop offset="1" stop-color="#2595FF"/>
</linearGradient>
<clipPath id="clip0_862_31178">
<rect width="535" height="422" fill="white"/>
</clipPath>
</defs>
</svg>
