<svg width="535" height="422" viewBox="0 0 535 422" fill="none" xmlns="http://www.w3.org/2000/svg">
<g clip-path="url(#clip0_876_33954)">
<g filter="url(#filter0_f_876_33954)">
<path d="M9.63897 254.554C-2.62966 247.6 -2.62966 235.866 9.63897 228.912L244.496 230.215C256.764 223.262 276.92 223.262 289.627 230.215L525.798 228.912C538.066 235.866 538.066 247.6 525.798 254.554L290.941 389.723C278.673 396.677 258.517 396.677 245.81 389.723L9.63897 254.554Z" fill="#C5D9EF"/>
</g>
<path d="M535 210.157C535 210.592 535 211.027 535 211.027C535 211.461 535 211.461 535 211.896C535 212.331 535 212.765 534.562 212.765C534.562 213.2 534.562 213.2 534.124 213.634C534.124 214.069 533.686 214.069 533.686 214.504C533.248 214.938 533.248 215.373 532.809 215.808C532.371 216.242 532.371 216.677 531.933 217.111C531.933 217.111 531.933 217.111 531.495 217.546C531.057 217.981 530.619 218.415 530.18 218.85C529.742 219.285 529.304 219.285 529.304 219.719C528.866 220.154 528.866 220.154 528.428 220.588C527.99 221.023 527.551 221.023 527.113 221.458C526.675 221.892 526.237 221.892 525.799 222.327L290.942 357.061L290.504 387.05L525.361 251.447C525.361 251.447 525.799 251.447 525.799 251.012C526.237 251.012 526.237 250.578 526.675 250.578C527.113 250.143 527.551 250.143 527.99 249.708C528.428 249.274 528.428 249.274 528.866 248.839C529.304 248.404 529.742 248.404 529.742 247.97C530.18 247.535 530.619 247.101 531.057 246.666C531.057 246.666 531.057 246.666 531.057 246.231C531.057 245.797 531.495 245.797 531.495 245.362L531.933 244.927C531.933 244.927 531.933 244.927 531.933 244.493C532.371 244.058 532.371 243.624 532.809 243.624C532.809 243.624 532.809 243.624 532.809 243.189C532.809 242.754 533.248 242.754 533.248 242.32C533.248 242.32 533.248 241.885 533.686 241.885C533.686 241.885 533.686 241.885 533.686 241.45C533.686 241.016 533.686 241.016 534.124 240.581V240.147C534.124 239.712 534.124 239.277 534.124 239.277C534.124 238.843 534.124 238.843 534.124 238.408C534.124 238.408 534.124 238.408 534.124 237.973L534.562 207.984C535 209.288 535 209.723 535 210.157Z" fill="#E1EDFF"/>
<path d="M9.63964 221.892C3.50532 218.415 0.438165 213.634 0.438165 208.854L0 238.843C0 243.623 3.06716 248.404 9.20147 251.881L245.811 387.05L246.249 357.061L9.63964 221.892Z" fill="#EFF1FE"/>
<path d="M525.798 196.25C538.066 203.204 538.066 214.939 525.798 221.893L290.941 357.061C278.673 364.015 258.517 364.015 245.81 357.061L9.63897 221.893C-2.62966 214.939 -2.62966 203.204 9.63897 196.25L244.496 60.6471C256.764 53.6931 276.92 53.6931 289.627 60.6471L525.798 196.25Z" fill="white"/>
<path d="M9.63897 211.461C-2.62966 204.507 -2.62966 192.772 9.63897 185.818L244.496 50.2155C256.764 43.2615 276.92 43.2615 289.627 50.2155L525.798 185.818C538.066 192.772 538.066 204.507 525.798 211.461L290.941 347.064C278.673 354.018 258.517 354.018 245.81 347.064L9.63897 211.461Z" fill="url(#paint0_linear_876_33954)"/>
<path d="M268.595 333.591C261.146 333.591 254.136 331.853 248.439 328.811L42.0634 210.593C36.8054 207.55 33.7383 203.204 33.7383 198.858C33.7383 194.512 36.8054 190.165 42.0634 187.123L247.125 68.4703C252.383 65.428 259.394 63.6895 266.842 63.6895C274.291 63.6895 281.302 65.428 286.998 68.4703L493.812 186.688C499.07 189.731 502.137 194.077 502.137 198.423C502.137 202.769 499.07 207.116 493.812 210.158L288.312 328.811C283.054 331.853 276.044 333.591 268.595 333.591ZM267.28 64.9933C259.832 64.9933 253.259 66.7318 248.001 69.7742L42.5016 187.992C37.6818 191.035 34.6146 194.512 34.6146 198.858C34.6146 202.769 37.2436 206.681 42.5016 209.723L249.316 327.941C254.574 330.984 261.146 332.722 268.595 332.722C276.044 332.722 282.616 330.984 287.874 327.941L493.374 209.723C498.194 206.681 501.261 203.204 501.261 198.858C501.261 194.946 498.632 191.035 493.374 187.992L286.56 69.3396C281.302 66.2972 274.291 64.9933 267.28 64.9933Z" fill="url(#paint1_linear_876_33954)"/>
<path d="M287.875 388.788C288.751 388.353 292.694 386.18 293.571 385.745V355.756C292.694 356.191 289.189 357.929 288.313 358.364C287.875 358.364 287.875 358.798 287.436 358.798C286.56 359.233 285.684 359.668 284.807 359.668C284.369 359.668 284.369 360.102 283.931 360.102C283.493 360.102 283.055 360.537 282.178 360.537C281.74 360.537 281.302 360.972 280.864 360.972C280.426 360.972 279.549 361.406 279.111 361.406C278.673 361.406 278.235 361.406 277.797 361.841C276.482 361.841 275.606 362.275 274.291 362.275C273.853 362.275 273.415 362.275 272.977 362.275C272.101 362.275 271.662 362.275 270.786 362.275C270.348 362.275 269.91 362.275 269.472 362.275C269.033 362.275 268.157 362.275 267.719 362.275C267.281 362.275 266.843 362.275 266.404 362.275C265.966 362.275 265.528 362.275 264.652 362.275C264.214 362.275 263.775 362.275 263.337 362.275C262.899 362.275 262.461 362.275 261.585 362.275C261.146 362.275 260.708 362.275 260.27 361.841C259.832 361.841 258.956 361.841 258.517 361.406C258.079 361.406 257.641 361.406 257.203 360.972C256.327 360.972 255.888 360.537 255.012 360.537C254.574 360.537 254.136 360.537 254.136 360.102C252.821 359.668 251.945 359.233 250.63 358.798C250.192 358.798 249.754 358.364 248.878 357.929C248.44 357.929 248.44 357.495 248.001 357.495C247.125 357.06 242.744 354.452 241.867 354.018V384.441C242.744 384.876 246.687 387.049 247.125 387.484C247.563 387.484 247.563 387.918 248.001 387.918C248.44 387.918 248.878 388.353 249.316 388.353C250.63 388.788 251.507 389.222 252.821 389.657C252.821 389.657 252.821 389.657 253.259 389.657C253.698 389.657 253.698 389.657 254.136 390.091C254.574 390.091 255.45 390.526 255.888 390.526H256.327C256.765 390.526 256.765 390.526 257.203 390.526C257.641 390.526 258.079 390.526 258.956 390.961C259.394 390.961 259.394 390.961 259.832 390.961C260.27 390.961 260.27 390.961 260.708 390.961C261.146 390.961 261.585 390.961 262.023 390.961C262.461 390.961 262.461 390.961 262.899 390.961C263.337 390.961 263.337 390.961 263.775 390.961C264.214 390.961 264.652 390.961 265.09 390.961C265.528 390.961 265.528 390.961 265.966 390.961C265.966 390.961 266.404 390.961 266.843 390.961C267.281 390.961 268.157 390.961 268.595 390.961C269.033 390.961 269.033 390.961 269.472 390.961H269.91C270.786 390.961 271.224 390.961 272.101 390.961C272.539 390.961 272.539 390.961 272.977 390.961C272.977 390.961 272.977 390.961 273.415 390.961C274.73 390.961 275.606 390.526 276.92 390.526C277.359 390.526 277.797 390.526 277.797 390.091C278.235 390.091 279.111 389.657 279.549 389.657C279.988 389.657 280.426 389.222 280.864 389.222C281.302 389.222 281.74 388.788 282.617 388.788H283.055H283.493C284.369 388.353 285.246 388.353 286.122 387.918C286.998 389.222 287.436 389.222 287.875 388.788Z" fill="url(#paint2_linear_876_33954)"/>
<path d="M74.3333 37.6667C74.3333 56.2603 59.2603 71.3333 40.6667 71.3333C22.0731 71.3333 7 56.2603 7 37.6667C7 19.0731 22.0731 4 40.6667 4C59.2603 4 74.3333 19.0731 74.3333 37.6667Z" fill="url(#paint3_linear_876_33954)"/>
<path d="M74.3333 37.6667C74.3333 56.2603 59.2603 71.3333 40.6667 71.3333C22.0731 71.3333 7 56.2603 7 37.6667C7 19.0731 22.0731 4 40.6667 4C59.2603 4 74.3333 19.0731 74.3333 37.6667Z" fill="url(#paint4_radial_876_33954)"/>
<path d="M74.3333 37.6667C74.3333 56.2603 59.2603 71.3333 40.6667 71.3333C22.0731 71.3333 7 56.2603 7 37.6667C7 19.0731 22.0731 4 40.6667 4C59.2603 4 74.3333 19.0731 74.3333 37.6667Z" fill="url(#paint5_radial_876_33954)"/>
<path d="M74.3333 37.6667C74.3333 56.2603 59.2603 71.3333 40.6667 71.3333C22.0731 71.3333 7 56.2603 7 37.6667C7 19.0731 22.0731 4 40.6667 4C59.2603 4 74.3333 19.0731 74.3333 37.6667Z" fill="url(#paint6_radial_876_33954)"/>
<path d="M74.3333 37.6667C74.3333 56.2603 59.2603 71.3333 40.6667 71.3333C22.0731 71.3333 7 56.2603 7 37.6667C7 19.0731 22.0731 4 40.6667 4C59.2603 4 74.3333 19.0731 74.3333 37.6667Z" fill="url(#paint7_radial_876_33954)"/>
<g style="mix-blend-mode:lighten">
<path d="M59.7322 29.1489C59.7322 39.4537 50.3797 47.8075 38.8427 47.8075C27.3057 47.8075 17.9531 39.4537 17.9531 29.1489C17.9531 18.844 27.3057 10.4902 38.8427 10.4902C50.3797 10.4902 59.7322 18.844 59.7322 29.1489Z" fill="url(#paint8_linear_876_33954)"/>
</g>
<g style="mix-blend-mode:lighten">
<path d="M26.6298 27.3163C25.2781 26.8963 24.5044 25.4463 25.1415 24.1823C26.2502 21.9831 27.8739 20.0686 29.8895 18.6107C31.905 17.1528 34.2315 16.2099 36.6673 15.8453C38.0671 15.6359 39.2021 16.8245 39.1779 18.2398V18.2398C39.1537 19.655 37.9702 20.7511 36.5922 21.0746C35.2678 21.3856 34.0094 21.9567 32.8936 22.7638C31.7777 23.571 30.8414 24.5874 30.1315 25.7479C29.3929 26.9553 27.9815 27.7363 26.6298 27.3163V27.3163Z" fill="url(#paint9_linear_876_33954)"/>
</g>
<path d="M535 49.5C535 76.8381 512.838 99 485.5 99C458.162 99 436 76.8381 436 49.5C436 22.1619 458.162 0 485.5 0C512.838 0 535 22.1619 535 49.5Z" fill="url(#paint10_linear_876_33954)"/>
<path d="M535 49.5C535 76.8381 512.838 99 485.5 99C458.162 99 436 76.8381 436 49.5C436 22.1619 458.162 0 485.5 0C512.838 0 535 22.1619 535 49.5Z" fill="url(#paint11_radial_876_33954)"/>
<path d="M535 49.5C535 76.8381 512.838 99 485.5 99C458.162 99 436 76.8381 436 49.5C436 22.1619 458.162 0 485.5 0C512.838 0 535 22.1619 535 49.5Z" fill="url(#paint12_radial_876_33954)"/>
<path d="M535 49.5C535 76.8381 512.838 99 485.5 99C458.162 99 436 76.8381 436 49.5C436 22.1619 458.162 0 485.5 0C512.838 0 535 22.1619 535 49.5Z" fill="url(#paint13_radial_876_33954)"/>
<path d="M535 49.5C535 76.8381 512.838 99 485.5 99C458.162 99 436 76.8381 436 49.5C436 22.1619 458.162 0 485.5 0C512.838 0 535 22.1619 535 49.5Z" fill="url(#paint14_radial_876_33954)"/>
<g style="mix-blend-mode:lighten">
<path d="M513.531 36.9767C513.531 52.1279 499.78 64.4104 482.817 64.4104C465.855 64.4104 452.104 52.1279 452.104 36.9767C452.104 21.8255 465.855 9.54297 482.817 9.54297C499.78 9.54297 513.531 21.8255 513.531 36.9767Z" fill="url(#paint15_linear_876_33954)"/>
</g>
<g style="mix-blend-mode:lighten">
<path d="M464.86 34.2823C462.873 33.6648 461.735 31.5328 462.672 29.6745C464.302 26.4409 466.689 23.626 469.653 21.4825C472.616 19.3389 476.037 17.9525 479.618 17.4166C481.677 17.1086 483.345 18.8563 483.31 20.9371V20.9371C483.274 23.0179 481.534 24.6295 479.508 25.1052C477.561 25.5624 475.71 26.4021 474.07 27.5888C472.429 28.7756 471.053 30.27 470.009 31.9763C468.923 33.7516 466.848 34.8998 464.86 34.2823V34.2823Z" fill="url(#paint16_linear_876_33954)"/>
</g>
<path d="M168.152 59C187.284 47.9543 218.302 47.9543 237.434 59L445.534 179.147C464.666 190.192 464.666 208.101 445.534 219.147L307.025 299.115C287.893 310.161 256.874 310.161 237.743 299.115L29.6424 178.969C10.5107 167.923 10.5106 150.014 29.6423 138.969L168.152 59Z" fill="url(#paint17_linear_876_33954)"/>
<path fill-rule="evenodd" clip-rule="evenodd" d="M243.754 30C224.623 18.9543 193.604 18.9543 174.472 30L35.9626 109.969C16.8309 121.014 16.831 138.923 35.9627 149.969L244.063 270.115C263.195 281.161 294.213 281.161 313.345 270.115L451.855 190.147C470.986 179.101 470.986 161.192 451.854 150.147L243.754 30Z" fill="url(#paint18_linear_876_33954)"/>
<path d="M404.162 204.099C407.952 206.287 414.095 206.287 417.884 204.099V204.099C421.674 201.912 421.674 198.365 417.884 196.177L166.966 51.3092C163.177 49.1214 157.033 49.1214 153.244 51.3092V51.3092C149.455 53.4969 149.455 57.0439 153.244 59.2316L404.162 204.099Z" fill="white"/>
<path d="M219.405 57.2524C214.804 59.909 207.344 59.909 202.743 57.2524C198.142 54.5959 198.142 50.2889 202.743 47.6323C207.344 44.9758 214.804 44.9758 219.405 47.6323C224.007 50.2888 224.007 54.5959 219.405 57.2524Z" fill="white"/>
<path d="M245.868 72.5317C241.267 75.1883 233.807 75.1883 229.206 72.5317C224.605 69.8752 224.605 65.5681 229.206 62.9116C233.807 60.2551 241.267 60.2551 245.868 62.9116C250.47 65.5681 250.47 69.8752 245.868 72.5317Z" fill="white"/>
<path d="M272.333 87.8091C267.732 90.4656 260.272 90.4656 255.671 87.8091C251.069 85.1526 251.069 80.8455 255.671 78.189C260.272 75.5324 267.732 75.5324 272.333 78.189C276.934 80.8455 276.934 85.1526 272.333 87.8091Z" fill="white"/>
<path fill-rule="evenodd" clip-rule="evenodd" d="M109.486 150.076L124.943 159.001L166.182 145.768L143.263 169.578L158.72 178.502L231.517 154.888L215.814 145.822L171.085 161.353L196.677 134.773L185.145 128.115L139.107 142.89L166.089 117.113L150.305 108L109.486 150.076Z" fill="url(#paint19_linear_876_33954)"/>
<path fill-rule="evenodd" clip-rule="evenodd" d="M197.515 200.9L213.282 210.003L254.704 196.876L231.968 220.791L247.735 229.894L320.85 206.464L304.834 197.217L259.926 212.645L285.313 185.947L273.551 179.156L227.309 193.813L254.114 167.934L238.014 158.639L197.515 200.9Z" fill="url(#paint20_linear_876_33954)"/>
<path fill-rule="evenodd" clip-rule="evenodd" d="M286.527 252.293L301.984 261.218L343.223 247.985L320.304 271.794L335.761 280.719L408.558 257.105L392.855 248.039L348.126 263.57L373.718 236.99L362.186 230.332L316.148 245.107L343.13 219.33L327.346 210.217L286.527 252.293Z" fill="url(#paint21_linear_876_33954)"/>
</g>
<defs>
<filter id="filter0_f_876_33954" x="-10.5625" y="214" width="556.562" height="191.938" filterUnits="userSpaceOnUse" color-interpolation-filters="sRGB">
<feFlood flood-opacity="0" result="BackgroundImageFix"/>
<feBlend mode="normal" in="SourceGraphic" in2="BackgroundImageFix" result="shape"/>
<feGaussianBlur stdDeviation="5.5" result="effect1_foregroundBlur_876_33954"/>
</filter>
<linearGradient id="paint0_linear_876_33954" x1="267.84" y1="352.232" x2="267.84" y2="44.9975" gradientUnits="userSpaceOnUse">
<stop stop-color="#F1F4FE"/>
<stop offset="0.5797" stop-color="#F7F9FE"/>
<stop offset="1" stop-color="white"/>
</linearGradient>
<linearGradient id="paint1_linear_876_33954" x1="33.3838" y1="198.621" x2="502.289" y2="198.621" gradientUnits="userSpaceOnUse">
<stop stop-color="#3A98FF"/>
<stop offset="0.6277" stop-color="#00F0FF"/>
<stop offset="1" stop-color="#00FFAC"/>
</linearGradient>
<linearGradient id="paint2_linear_876_33954" x1="242.582" y1="373.938" x2="293.464" y2="373.938" gradientUnits="userSpaceOnUse">
<stop stop-color="#EFF1FE"/>
<stop offset="1" stop-color="#E4E7FB"/>
</linearGradient>
<linearGradient id="paint3_linear_876_33954" x1="40.6667" y1="4" x2="40.6667" y2="71.3333" gradientUnits="userSpaceOnUse">
<stop stop-color="#40FFC6"/>
<stop offset="0.492708" stop-color="#4AE6FF"/>
<stop offset="1" stop-color="#2595FF"/>
</linearGradient>
<radialGradient id="paint4_radial_876_33954" cx="0" cy="0" r="1" gradientUnits="userSpaceOnUse" gradientTransform="translate(26.8393 17.2262) rotate(62.6223) scale(75.8263)">
<stop offset="0.462106" stop-color="#2AA8FF" stop-opacity="0"/>
<stop offset="0.894737" stop-color="#2595FF"/>
</radialGradient>
<radialGradient id="paint5_radial_876_33954" cx="0" cy="0" r="1" gradientUnits="userSpaceOnUse" gradientTransform="translate(24.4345 18.4286) rotate(56.6259) scale(90.7081)">
<stop stop-color="#6EFFCE"/>
<stop offset="0.570035" stop-color="#A5FFFD" stop-opacity="0"/>
</radialGradient>
<radialGradient id="paint6_radial_876_33954" cx="0" cy="0" r="1" gradientUnits="userSpaceOnUse" gradientTransform="translate(34.0536 24.4405) rotate(63.4349) scale(48.3586)">
<stop offset="0.672439" stop-color="#9EC6FD" stop-opacity="0"/>
<stop offset="1" stop-color="white"/>
</radialGradient>
<radialGradient id="paint7_radial_876_33954" cx="0" cy="0" r="1" gradientUnits="userSpaceOnUse" gradientTransform="translate(37.027 30.3874) rotate(62.0378) scale(41.7221)">
<stop offset="0.961458" stop-color="#2AA8FF" stop-opacity="0"/>
<stop offset="1" stop-color="#058AFF" stop-opacity="0.26"/>
</radialGradient>
<linearGradient id="paint8_linear_876_33954" x1="26.9058" y1="15.3054" x2="41.9669" y2="32.0323" gradientUnits="userSpaceOnUse">
<stop stop-color="white" stop-opacity="0.86"/>
<stop offset="1" stop-color="#D9D9D9" stop-opacity="0"/>
</linearGradient>
<linearGradient id="paint9_linear_876_33954" x1="38.8466" y1="17.1928" x2="29.7475" y2="27.6568" gradientUnits="userSpaceOnUse">
<stop stop-color="white"/>
<stop offset="1" stop-color="#FFFFE9" stop-opacity="0.38"/>
</linearGradient>
<linearGradient id="paint10_linear_876_33954" x1="485.5" y1="0" x2="485.5" y2="99" gradientUnits="userSpaceOnUse">
<stop stop-color="#40FFC6"/>
<stop offset="0.492708" stop-color="#4AE6FF"/>
<stop offset="1" stop-color="#2595FF"/>
</linearGradient>
<radialGradient id="paint11_radial_876_33954" cx="0" cy="0" r="1" gradientUnits="userSpaceOnUse" gradientTransform="translate(465.17 19.4464) rotate(62.6223) scale(111.487)">
<stop offset="0.462106" stop-color="#2AA8FF" stop-opacity="0"/>
<stop offset="0.894737" stop-color="#2595FF"/>
</radialGradient>
<radialGradient id="paint12_radial_876_33954" cx="0" cy="0" r="1" gradientUnits="userSpaceOnUse" gradientTransform="translate(461.634 21.2143) rotate(56.6259) scale(133.368)">
<stop stop-color="#6EFFCE"/>
<stop offset="0.570035" stop-color="#A5FFFD" stop-opacity="0"/>
</radialGradient>
<radialGradient id="paint13_radial_876_33954" cx="0" cy="0" r="1" gradientUnits="userSpaceOnUse" gradientTransform="translate(475.777 30.0536) rotate(63.4349) scale(71.1015)">
<stop offset="0.672439" stop-color="#9EC6FD" stop-opacity="0"/>
<stop offset="1" stop-color="white"/>
</radialGradient>
<radialGradient id="paint14_radial_876_33954" cx="0" cy="0" r="1" gradientUnits="userSpaceOnUse" gradientTransform="translate(480.149 38.7973) rotate(62.0378) scale(61.3439)">
<stop offset="0.961458" stop-color="#2AA8FF" stop-opacity="0"/>
<stop offset="1" stop-color="#058AFF" stop-opacity="0.26"/>
</radialGradient>
<linearGradient id="paint15_linear_876_33954" x1="465.267" y1="16.6226" x2="487.411" y2="41.2162" gradientUnits="userSpaceOnUse">
<stop stop-color="white" stop-opacity="0.86"/>
<stop offset="1" stop-color="#D9D9D9" stop-opacity="0"/>
</linearGradient>
<linearGradient id="paint16_linear_876_33954" x1="482.825" y1="19.3978" x2="469.446" y2="34.7829" gradientUnits="userSpaceOnUse">
<stop stop-color="white"/>
<stop offset="1" stop-color="#FFFFE9" stop-opacity="0.38"/>
</linearGradient>
<linearGradient id="paint17_linear_876_33954" x1="341.484" y1="119.073" x2="237.588" y2="299.026" gradientUnits="userSpaceOnUse">
<stop stop-color="#00CBFF" stop-opacity="0.3"/>
<stop offset="1" stop-color="#3A98FF" stop-opacity="0"/>
</linearGradient>
<linearGradient id="paint18_linear_876_33954" x1="283.115" y1="25.562" x2="253.65" y2="241.427" gradientUnits="userSpaceOnUse">
<stop stop-color="#40FFC6"/>
<stop offset="0.503125" stop-color="#00DBFF"/>
<stop offset="1" stop-color="#2595FF"/>
</linearGradient>
<linearGradient id="paint19_linear_876_33954" x1="171.519" y1="112.817" x2="162.19" y2="173.075" gradientUnits="userSpaceOnUse">
<stop stop-color="#40FFC6"/>
<stop offset="0.503125" stop-color="#00DBFF"/>
<stop offset="1" stop-color="#2595FF"/>
</linearGradient>
<linearGradient id="paint20_linear_876_33954" x1="259.524" y1="163.626" x2="249.822" y2="224.221" gradientUnits="userSpaceOnUse">
<stop stop-color="#40FFC6"/>
<stop offset="0.503125" stop-color="#00DBFF"/>
<stop offset="1" stop-color="#2595FF"/>
</linearGradient>
<linearGradient id="paint21_linear_876_33954" x1="348.56" y1="215.034" x2="339.231" y2="275.292" gradientUnits="userSpaceOnUse">
<stop stop-color="#40FFC6"/>
<stop offset="0.503125" stop-color="#00DBFF"/>
<stop offset="1" stop-color="#2595FF"/>
</linearGradient>
<clipPath id="clip0_876_33954">
<rect width="535" height="422" fill="white"/>
</clipPath>
</defs>
</svg>
