<svg width="535" height="422" viewBox="0 0 535 422" fill="none" xmlns="http://www.w3.org/2000/svg">
<g clip-path="url(#clip0_862_32675)">
<g filter="url(#filter0_f_862_32675)">
<path d="M9.63897 254.554C-2.62966 247.6 -2.62966 235.866 9.63897 228.912L244.496 230.215C256.764 223.262 276.92 223.262 289.627 230.215L525.798 228.912C538.066 235.866 538.066 247.6 525.798 254.554L290.941 389.723C278.673 396.677 258.517 396.677 245.81 389.723L9.63897 254.554Z" fill="#C5D9EF"/>
</g>
<path d="M535 210.157C535 210.592 535 211.027 535 211.027C535 211.461 535 211.461 535 211.896C535 212.331 535 212.765 534.562 212.765C534.562 213.2 534.562 213.2 534.124 213.634C534.124 214.069 533.686 214.069 533.686 214.504C533.248 214.938 533.248 215.373 532.809 215.808C532.371 216.242 532.371 216.677 531.933 217.111C531.933 217.111 531.933 217.111 531.495 217.546C531.057 217.981 530.619 218.415 530.18 218.85C529.742 219.285 529.304 219.285 529.304 219.719C528.866 220.154 528.866 220.154 528.428 220.588C527.99 221.023 527.551 221.023 527.113 221.458C526.675 221.892 526.237 221.892 525.799 222.327L290.942 357.061L290.504 387.05L525.361 251.447C525.361 251.447 525.799 251.447 525.799 251.012C526.237 251.012 526.237 250.578 526.675 250.578C527.113 250.143 527.551 250.143 527.99 249.708C528.428 249.274 528.428 249.274 528.866 248.839C529.304 248.404 529.742 248.404 529.742 247.97C530.18 247.535 530.619 247.101 531.057 246.666C531.057 246.666 531.057 246.666 531.057 246.231C531.057 245.797 531.495 245.797 531.495 245.362L531.933 244.927C531.933 244.927 531.933 244.927 531.933 244.493C532.371 244.058 532.371 243.624 532.809 243.624C532.809 243.624 532.809 243.624 532.809 243.189C532.809 242.754 533.248 242.754 533.248 242.32C533.248 242.32 533.248 241.885 533.686 241.885C533.686 241.885 533.686 241.885 533.686 241.45C533.686 241.016 533.686 241.016 534.124 240.581V240.147C534.124 239.712 534.124 239.277 534.124 239.277C534.124 238.843 534.124 238.843 534.124 238.408C534.124 238.408 534.124 238.408 534.124 237.973L534.562 207.984C535 209.288 535 209.723 535 210.157Z" fill="#E1EDFF"/>
<path d="M9.63964 221.894C3.50532 218.417 0.438165 213.636 0.438165 208.855L0 238.845C0 243.625 3.06716 248.406 9.20147 251.883L245.811 387.052L246.249 357.063L9.63964 221.894Z" fill="#EFF1FE"/>
<path d="M525.798 196.248C538.066 203.202 538.066 214.937 525.798 221.891L290.941 357.059C278.673 364.013 258.517 364.013 245.81 357.059L9.63897 221.891C-2.62966 214.937 -2.62966 203.202 9.63897 196.248L244.496 60.6452C256.764 53.6912 276.92 53.6912 289.627 60.6452L525.798 196.248Z" fill="white"/>
<path d="M9.63897 211.461C-2.62966 204.507 -2.62966 192.772 9.63897 185.818L244.496 50.2155C256.764 43.2615 276.92 43.2615 289.627 50.2155L525.798 185.818C538.066 192.772 538.066 204.507 525.798 211.461L290.941 347.064C278.673 354.018 258.517 354.018 245.81 347.064L9.63897 211.461Z" fill="url(#paint0_linear_862_32675)"/>
<path d="M268.595 333.589C261.146 333.589 254.136 331.851 248.439 328.809L42.0634 210.591C36.8054 207.548 33.7383 203.202 33.7383 198.856C33.7383 194.51 36.8054 190.163 42.0634 187.121L247.125 68.4684C252.383 65.426 259.394 63.6875 266.842 63.6875C274.291 63.6875 281.302 65.426 286.998 68.4684L493.812 186.686C499.07 189.729 502.137 194.075 502.137 198.421C502.137 202.767 499.07 207.114 493.812 210.156L288.312 328.809C283.054 331.851 276.044 333.589 268.595 333.589ZM267.28 64.9914C259.832 64.9914 253.259 66.7299 248.001 69.7722L42.5016 187.99C37.6818 191.033 34.6146 194.51 34.6146 198.856C34.6146 202.767 37.2436 206.679 42.5016 209.721L249.316 327.939C254.574 330.982 261.146 332.72 268.595 332.72C276.044 332.72 282.616 330.982 287.874 327.939L493.374 209.721C498.194 206.679 501.261 203.202 501.261 198.856C501.261 194.944 498.632 191.033 493.374 187.99L286.56 69.3376C281.302 66.2952 274.291 64.9914 267.28 64.9914Z" fill="url(#paint1_linear_862_32675)"/>
<path d="M287.875 388.786C288.751 388.351 292.694 386.178 293.571 385.743V355.754C292.694 356.189 289.189 357.927 288.313 358.362C287.875 358.362 287.875 358.796 287.436 358.796C286.56 359.231 285.684 359.666 284.807 359.666C284.369 359.666 284.369 360.1 283.931 360.1C283.493 360.1 283.055 360.535 282.178 360.535C281.74 360.535 281.302 360.97 280.864 360.97C280.426 360.97 279.549 361.404 279.111 361.404C278.673 361.404 278.235 361.404 277.797 361.839C276.482 361.839 275.606 362.274 274.291 362.274C273.853 362.274 273.415 362.274 272.977 362.274C272.101 362.274 271.662 362.274 270.786 362.274C270.348 362.274 269.91 362.274 269.472 362.274C269.033 362.274 268.157 362.274 267.719 362.274C267.281 362.274 266.843 362.274 266.404 362.274C265.966 362.274 265.528 362.274 264.652 362.274C264.214 362.274 263.775 362.274 263.337 362.274C262.899 362.274 262.461 362.274 261.585 362.274C261.146 362.274 260.708 362.274 260.27 361.839C259.832 361.839 258.956 361.839 258.517 361.404C258.079 361.404 257.641 361.404 257.203 360.97C256.327 360.97 255.888 360.535 255.012 360.535C254.574 360.535 254.136 360.535 254.136 360.1C252.821 359.666 251.945 359.231 250.63 358.796C250.192 358.796 249.754 358.362 248.878 357.927C248.44 357.927 248.44 357.493 248.001 357.493C247.125 357.058 242.744 354.45 241.867 354.016V384.439C242.744 384.874 246.687 387.047 247.125 387.482C247.563 387.482 247.563 387.916 248.001 387.916C248.44 387.916 248.878 388.351 249.316 388.351C250.63 388.786 251.507 389.22 252.821 389.655C252.821 389.655 252.821 389.655 253.259 389.655C253.698 389.655 253.698 389.655 254.136 390.089C254.574 390.089 255.45 390.524 255.888 390.524H256.327C256.765 390.524 256.765 390.524 257.203 390.524C257.641 390.524 258.079 390.524 258.956 390.959C259.394 390.959 259.394 390.959 259.832 390.959C260.27 390.959 260.27 390.959 260.708 390.959C261.146 390.959 261.585 390.959 262.023 390.959C262.461 390.959 262.461 390.959 262.899 390.959C263.337 390.959 263.337 390.959 263.775 390.959C264.214 390.959 264.652 390.959 265.09 390.959C265.528 390.959 265.528 390.959 265.966 390.959C265.966 390.959 266.404 390.959 266.843 390.959C267.281 390.959 268.157 390.959 268.595 390.959C269.033 390.959 269.033 390.959 269.472 390.959H269.91C270.786 390.959 271.224 390.959 272.101 390.959C272.539 390.959 272.539 390.959 272.977 390.959C272.977 390.959 272.977 390.959 273.415 390.959C274.73 390.959 275.606 390.524 276.92 390.524C277.359 390.524 277.797 390.524 277.797 390.089C278.235 390.089 279.111 389.655 279.549 389.655C279.988 389.655 280.426 389.22 280.864 389.22C281.302 389.22 281.74 388.786 282.617 388.786H283.055H283.493C284.369 388.351 285.246 388.351 286.122 387.916C286.998 389.22 287.436 389.22 287.875 388.786Z" fill="url(#paint2_linear_862_32675)"/>
<path fill-rule="evenodd" clip-rule="evenodd" d="M112.442 172.859C109.61 169.833 108.07 166.469 107.952 163.05C107.834 159.632 109.141 156.261 111.764 153.22C124.598 137.086 207.498 86.6396 238.855 85.3363C249.165 84.9754 259.368 86.9792 267.249 90.9127C310.414 111.062 430.458 181.006 439.349 191.865C442 194.833 443.463 198.098 443.627 201.416C443.791 204.734 442.653 208.02 440.298 211.025C427.475 227.96 351.158 272.345 321.254 278.464C313.421 280.029 304.864 280.019 296.959 278.436C275.246 274.172 125.549 187.585 112.442 172.859ZM214.37 185.575L320.139 205.282L286.283 144.057L214.37 185.575Z" fill="url(#paint3_linear_862_32675)"/>
<path fill-rule="evenodd" clip-rule="evenodd" d="M112.442 129.699C109.61 126.673 108.07 123.308 107.952 119.89C107.834 116.472 109.141 113.1 111.764 110.06C124.598 93.9262 207.498 43.4795 238.855 42.1761C249.165 41.8152 259.368 43.819 267.249 47.7525C310.414 67.9018 430.458 137.845 439.349 148.705C442 151.673 443.463 154.938 443.627 158.256C443.791 161.574 442.653 164.859 440.298 167.865C427.475 184.8 351.158 229.185 321.254 235.303C313.421 236.869 304.864 236.859 296.959 235.276C275.246 231.011 125.549 144.425 112.442 129.699ZM214.37 142.415L320.139 162.121L286.283 100.897L214.37 142.415Z" fill="#F40000"/>
<circle cx="61" cy="58" r="54" fill="url(#paint4_linear_862_32675)"/>
<circle cx="61" cy="58" r="54" fill="url(#paint5_radial_862_32675)"/>
<circle cx="61" cy="58" r="54" fill="url(#paint6_radial_862_32675)"/>
<circle cx="61" cy="58" r="54" fill="url(#paint7_radial_862_32675)"/>
<circle cx="61" cy="58" r="54" fill="url(#paint8_radial_862_32675)"/>
<g style="mix-blend-mode:lighten">
<ellipse cx="58.0724" cy="44.3418" rx="33.506" ry="29.9277" fill="url(#paint9_linear_862_32675)"/>
</g>
<g style="mix-blend-mode:lighten">
<path d="M38.4852 41.4007C36.3172 40.7271 35.0762 38.4013 36.0982 36.374C37.8763 32.8464 40.4808 29.7757 43.7136 27.4373C46.9465 25.0988 50.6781 23.5864 54.585 23.0018C56.8303 22.6658 58.6508 24.5723 58.612 26.8423C58.5731 29.1123 56.6748 30.8704 54.4646 31.3893C52.3403 31.8881 50.3219 32.8041 48.5321 34.0987C46.7423 35.3934 45.2406 37.0236 44.1019 38.885C42.9172 40.8217 40.6533 42.0743 38.4852 41.4007Z" fill="url(#paint10_linear_862_32675)"/>
</g>
<circle cx="502" cy="46" r="33" fill="url(#paint11_linear_862_32675)"/>
<circle cx="502" cy="46" r="33" fill="url(#paint12_radial_862_32675)"/>
<circle cx="502" cy="46" r="33" fill="url(#paint13_radial_862_32675)"/>
<circle cx="502" cy="46" r="33" fill="url(#paint14_radial_862_32675)"/>
<circle cx="502" cy="46" r="33" fill="url(#paint15_radial_862_32675)"/>
<g style="mix-blend-mode:lighten">
<ellipse cx="500.212" cy="37.6524" rx="20.4759" ry="18.2892" fill="url(#paint16_linear_862_32675)"/>
</g>
<g style="mix-blend-mode:lighten">
<path d="M488.24 35.8551C486.915 35.4435 486.157 34.0221 486.781 32.7832C487.868 30.6275 489.46 28.7509 491.435 27.3219C493.411 25.8929 495.691 24.9686 498.079 24.6113C499.451 24.406 500.564 25.5711 500.54 26.9583C500.516 28.3455 499.356 29.4199 498.005 29.7371C496.707 30.0419 495.474 30.6016 494.38 31.3928C493.286 32.184 492.368 33.1802 491.673 34.3178C490.949 35.5013 489.565 36.2668 488.24 35.8551Z" fill="url(#paint17_linear_862_32675)"/>
</g>
</g>
<defs>
<filter id="filter0_f_862_32675" x="-10.5625" y="214" width="556.562" height="191.938" filterUnits="userSpaceOnUse" color-interpolation-filters="sRGB">
<feFlood flood-opacity="0" result="BackgroundImageFix"/>
<feBlend mode="normal" in="SourceGraphic" in2="BackgroundImageFix" result="shape"/>
<feGaussianBlur stdDeviation="5.5" result="effect1_foregroundBlur_862_32675"/>
</filter>
<linearGradient id="paint0_linear_862_32675" x1="267.84" y1="352.232" x2="267.84" y2="44.9975" gradientUnits="userSpaceOnUse">
<stop stop-color="#F1F4FE"/>
<stop offset="0.5797" stop-color="#F7F9FE"/>
<stop offset="1" stop-color="white"/>
</linearGradient>
<linearGradient id="paint1_linear_862_32675" x1="33.3838" y1="198.619" x2="502.289" y2="198.619" gradientUnits="userSpaceOnUse">
<stop stop-color="#3A98FF"/>
<stop offset="0.6277" stop-color="#00F0FF"/>
<stop offset="1" stop-color="#00FFAC"/>
</linearGradient>
<linearGradient id="paint2_linear_862_32675" x1="242.582" y1="373.936" x2="293.464" y2="373.936" gradientUnits="userSpaceOnUse">
<stop stop-color="#EFF1FE"/>
<stop offset="1" stop-color="#E4E7FB"/>
</linearGradient>
<linearGradient id="paint3_linear_862_32675" x1="353.5" y1="137.524" x2="275.634" y2="272.391" gradientUnits="userSpaceOnUse">
<stop stop-color="#C3DAFD" stop-opacity="0.76"/>
<stop offset="1" stop-color="#E1EDFF" stop-opacity="0"/>
</linearGradient>
<linearGradient id="paint4_linear_862_32675" x1="61" y1="4" x2="61" y2="112" gradientUnits="userSpaceOnUse">
<stop stop-color="#40FFC6"/>
<stop offset="0.492708" stop-color="#4AE6FF"/>
<stop offset="1" stop-color="#2595FF"/>
</linearGradient>
<radialGradient id="paint5_radial_862_32675" cx="0" cy="0" r="1" gradientUnits="userSpaceOnUse" gradientTransform="translate(38.8214 25.2143) rotate(62.6223) scale(121.622)">
<stop offset="0.462106" stop-color="#2AA8FF" stop-opacity="0"/>
<stop offset="0.894737" stop-color="#2595FF"/>
</radialGradient>
<radialGradient id="paint6_radial_862_32675" cx="0" cy="0" r="1" gradientUnits="userSpaceOnUse" gradientTransform="translate(34.9643 27.1429) rotate(56.6259) scale(145.492)">
<stop stop-color="#6EFFCE"/>
<stop offset="0.570035" stop-color="#A5FFFD" stop-opacity="0"/>
</radialGradient>
<radialGradient id="paint7_radial_862_32675" cx="0" cy="0" r="1" gradientUnits="userSpaceOnUse" gradientTransform="translate(50.3928 36.7857) rotate(63.4349) scale(77.5652)">
<stop offset="0.672439" stop-color="#9EC6FD" stop-opacity="0"/>
<stop offset="1" stop-color="white"/>
</radialGradient>
<radialGradient id="paint8_radial_862_32675" cx="0" cy="0" r="1" gradientUnits="userSpaceOnUse" gradientTransform="translate(55.1622 46.3243) rotate(62.0378) scale(66.9206)">
<stop offset="0.961458" stop-color="#2AA8FF" stop-opacity="0"/>
<stop offset="1" stop-color="#058AFF" stop-opacity="0.26"/>
</radialGradient>
<linearGradient id="paint9_linear_862_32675" x1="38.9261" y1="22.1373" x2="63.0835" y2="48.9667" gradientUnits="userSpaceOnUse">
<stop stop-color="white" stop-opacity="0.86"/>
<stop offset="1" stop-color="#D9D9D9" stop-opacity="0"/>
</linearGradient>
<linearGradient id="paint10_linear_862_32675" x1="58.0829" y1="25.1647" x2="43.4883" y2="41.9485" gradientUnits="userSpaceOnUse">
<stop stop-color="white"/>
<stop offset="1" stop-color="#FFFFE9" stop-opacity="0.38"/>
</linearGradient>
<linearGradient id="paint11_linear_862_32675" x1="502" y1="13" x2="502" y2="79" gradientUnits="userSpaceOnUse">
<stop stop-color="#40FFC6"/>
<stop offset="0.492708" stop-color="#4AE6FF"/>
<stop offset="1" stop-color="#2595FF"/>
</linearGradient>
<radialGradient id="paint12_radial_862_32675" cx="0" cy="0" r="1" gradientUnits="userSpaceOnUse" gradientTransform="translate(488.446 25.9643) rotate(62.6223) scale(74.3248)">
<stop offset="0.462106" stop-color="#2AA8FF" stop-opacity="0"/>
<stop offset="0.894737" stop-color="#2595FF"/>
</radialGradient>
<radialGradient id="paint13_radial_862_32675" cx="0" cy="0" r="1" gradientUnits="userSpaceOnUse" gradientTransform="translate(486.089 27.1429) rotate(56.6259) scale(88.9119)">
<stop stop-color="#6EFFCE"/>
<stop offset="0.570035" stop-color="#A5FFFD" stop-opacity="0"/>
</radialGradient>
<radialGradient id="paint14_radial_862_32675" cx="0" cy="0" r="1" gradientUnits="userSpaceOnUse" gradientTransform="translate(495.518 33.0357) rotate(63.4349) scale(47.401)">
<stop offset="0.672439" stop-color="#9EC6FD" stop-opacity="0"/>
<stop offset="1" stop-color="white"/>
</radialGradient>
<radialGradient id="paint15_radial_862_32675" cx="0" cy="0" r="1" gradientUnits="userSpaceOnUse" gradientTransform="translate(498.432 38.8649) rotate(62.0378) scale(40.8959)">
<stop offset="0.961458" stop-color="#2AA8FF" stop-opacity="0"/>
<stop offset="1" stop-color="#058AFF" stop-opacity="0.26"/>
</radialGradient>
<linearGradient id="paint16_linear_862_32675" x1="488.512" y1="24.0831" x2="503.275" y2="40.4788" gradientUnits="userSpaceOnUse">
<stop stop-color="white" stop-opacity="0.86"/>
<stop offset="1" stop-color="#D9D9D9" stop-opacity="0"/>
</linearGradient>
<linearGradient id="paint17_linear_862_32675" x1="500.216" y1="25.9331" x2="491.298" y2="36.1899" gradientUnits="userSpaceOnUse">
<stop stop-color="white"/>
<stop offset="1" stop-color="#FFFFE9" stop-opacity="0.38"/>
</linearGradient>
<clipPath id="clip0_862_32675">
<rect width="535" height="422" fill="white"/>
</clipPath>
</defs>
</svg>
