<svg xmlns="http://www.w3.org/2000/svg" viewBox="0 0 512 512"><path d="M332.453 300.445c12.5-12.492 12.5-32.758 0-45.25l-2.68-2.68c8.516-13.512 14.867-28.492 18.516-44.516H352c17.672 0 32-14.328 32-32s-14.328-32-32-32h-3.711c-3.648-16.023-10-31.004-18.516-44.516l2.68-2.68c12.5-12.492 12.5-32.758 0-45.25-12.5-12.5-32.75-12.5-45.25 0l-2.68 2.68c-13.507-8.522-28.492-14.87-44.523-18.526V32c0-17.672-14.328-32-32-32s-32 14.328-32 32v3.707c-16.031 3.656-31.016 10.004-44.523 18.527l-2.68-2.68c-12.5-12.5-32.75-12.5-45.25 0-12.5 12.492-12.5 32.758 0 45.25l2.68 2.68C77.711 112.996 71.359 127.977 67.711 144H64c-17.672 0-32 14.328-32 32s14.328 32 32 32h3.711c3.648 16.023 10 31.004 18.516 44.516l-2.68 2.68c-12.5 12.492-12.5 32.758 0 45.25 6.25 6.25 14.438 9.375 22.625 9.375s16.375-3.125 22.625-9.375l2.68-2.68c13.508 8.523 28.492 14.871 44.523 18.527V320c0 17.672 14.328 32 32 32s32-14.328 32-32v-3.707c16.031-3.656 31.016-10.004 44.523-18.527l2.68 2.68c6.25 6.25 14.438 9.375 22.625 9.375s16.375-3.126 22.625-9.376zM208 256c-44.109 0-80-35.891-80-80s35.891-80 80-80 80 35.891 80 80-35.891 80-80 80zm249.969 138.313c-2.734-6.66-6.516-12.699-10.859-18.32 2.914-13.258-2.727-27.406-15.109-34.555-12.398-7.18-27.477-4.961-37.5 4.195-3.469-.461-6.906-1.063-10.5-1.063-3.602 0-7.039.602-10.516 1.063-10.039-9.156-25.125-11.375-37.484-4.195-12.383 7.148-18.023 21.297-15.109 34.555-4.344 5.621-8.125 11.66-10.859 18.32C297.273 398.52 288 410.402 288 424.57s9.273 26.051 22.031 30.258c2.734 6.66 6.516 12.699 10.859 18.32-2.914 13.258 2.727 27.406 15.109 34.555A31.804 31.804 0 00351.968 512c7.922 0 15.609-3.051 21.555-8.488 3.461.457 6.891 1.059 10.477 1.059s7.016-.602 10.477-1.059c5.945 5.438 13.633 8.488 21.555 8.488a31.804 31.804 0 0015.969-4.297c12.383-7.148 18.023-21.297 15.109-34.555 4.344-5.621 8.125-11.66 10.859-18.32C470.727 450.621 480 438.738 480 424.57s-9.273-26.05-22.031-30.257zM384 456.57c-17.672 0-32-14.328-32-32s14.328-32 32-32 32 14.328 32 32-14.328 32-32 32z"/><circle cx="208" cy="176" r="48"/></svg>