<svg version="1.1" id="Capa_1" xmlns="http://www.w3.org/2000/svg" x="0" y="0" viewBox="0 0 508.52 508.52" xml:space="preserve"><path d="M476.737 127.13H31.782C14.239 127.13 0 141.368 0 158.912v95.347h31.782v222.477c0 17.544 14.239 31.782 31.782 31.782h381.39c17.544 0 31.782-14.239 31.782-31.782V254.26h31.782v-95.347c.002-17.545-14.237-31.783-31.781-31.783zm-254.26 349.607H63.565V254.26h158.912v222.477zm0-254.26H31.782v-63.565h190.695v63.565zm222.478 254.26H286.71V254.26h158.245v222.477zm31.782-254.26H286.71v-63.565h190.027v63.565zM127.13 95.347h127.13l-.032-.254h.095l-.064.254h127.13c43.892 0 63.565-21.358 63.565-47.674S425.281 0 381.39 0c-41.095 0-73.449 18.497-95.347 39.951-9.598-5.689-20.659-9.153-32.704-9.153-11.505 0-22.152 3.242-31.496 8.518C199.975 18.116 167.812 0 127.13 0 83.238 0 63.565 21.358 63.565 47.674s19.673 47.673 63.565 47.673zm254.26-63.565c14.493 0 31.782 2.765 31.782 15.891s-17.29 15.891-31.782 15.891h-72.178l-.699-1.335c16.113-15.699 40.586-30.447 72.877-30.447zm-254.26 0c31.592 0 55.556 14.143 71.701 29.303l-1.367 2.479H127.13c-14.493 0-31.782-2.765-31.782-15.891s17.289-15.891 31.782-15.891z" fill="#010002"/></svg>