<svg xmlns="http://www.w3.org/2000/svg" viewBox="0 0 511.681 511.681"><path d="M217.84 256v210.561c0 24.881 20.619 45.12 45.5 45.12s45.5-20.239 45.5-45.12V256h-91zm136-224.683V15.359C353.84 7.053 347.336 0 339.031 0h-150.4c-8.306 0-15.79 7.053-15.79 15.359V30h-14.29c0-16-13.49-30-30.08-30H98.39C81.8 0 67.84 13.81 67.84 30.399v90.24c0 16.59 13.96 30.36 30.549 30.36h30.08c16.59 0 30.08-14 30.08-30h14.29v14.68c0 8.306 6.674 15.04 14.98 15.04 16.59 0 30.02 13.491 30.02 30.08V226h91v-45.2c0-16.59 13.43-30.08 30.02-30.08 8.306 0 14.98-6.734 14.98-15.04v-14.21c27 2.849 54.063 12.734 63.984 24.102 4.127 4.722 10.581 6.396 16.434 4.193 5.868-2.203 9.582-7.814 9.582-14.085v-15.04c.001-45.385-38.999-83.051-89.999-89.323z" fill="#fff"/></svg>