<svg xmlns="http://www.w3.org/2000/svg" viewBox="0 0 512 512"><path d="M336 200h-48v-48h32c17.672 0 32-14.328 32-32s-14.328-32-32-32H192c-17.672 0-32 14.328-32 32s14.328 32 32 32h32v48h-48c-17.672 0-32 13.828-32 31.5v160c0 17.672 14.328 32.5 32 32.5h160c17.672 0 32-14.828 32-32.5v-160c0-17.672-14.328-31.5-32-31.5zm144 15.75c-17.672 0-32 14.25-32 32.25h-48v128h48c0 17 14.328 31.75 32 31.75s32-14.578 32-32.25v-128c0-17.672-14.328-31.75-32-31.75zm-448 0c-17.672 0-32 14.078-32 31.75v128c0 17.672 14.328 32.25 32 32.25S64 393 64 376h48V248H64c0-18-14.328-32.25-32-32.25z" fill="#fff"/></svg>