<svg xmlns="http://www.w3.org/2000/svg" viewBox="0 0 512.004 512.004"><path d="M507.783 224.127l-64-112a31.996 31.996 0 00-27.781-16.125h-48v-32c0-17.672-14.328-32-32-32h-160c-17.672 0-32 14.328-32 32v32h-48a31.996 31.996 0 00-27.781 16.125l-64 112a31.985 31.985 0 00.102 31.938 32.005 32.005 0 0027.68 15.938h48v176c0 17.672 14.328 32 32 32h160v-160h96v160h32c17.672 0 32-14.328 32-32v-176h48a32.003 32.003 0 0027.68-15.938 31.99 31.99 0 00.1-31.938zM224.002 400.002h-80v-80h80v80z" fill="#fff"/></svg>