<svg xmlns="http://www.w3.org/2000/svg" viewBox="0 0 512.001 512.001"><path d="M508.573 127.214c-3.292-15.556-22.484-21.302-33.728-10.059l-68.217 68.217c-12.497 12.498-32.759 12.498-45.255 0l-34.745-34.744c-12.497-12.496-12.497-32.758 0-45.256l68.217-68.217c11.243-11.244 5.497-30.436-10.059-33.728-20.908-4.424-43.321-4.749-66.482.109-63.989 13.422-114.405 66.437-124.346 131.058C192.635 143.202 191.997 152 192 160v66.75L19.313 399.438C6.86 411.891 0 428.446 0 446.056c0 17.602 6.859 34.156 19.313 46.609.172.18.351.352.531.523C32.143 505.239 48.337 511.902 65.568 512c17.919.102 35.055-7.372 47.726-20.043L285.25 320H352c8 .004 16.799-.634 25.405-1.957 64.622-9.941 117.639-60.357 131.06-124.348 4.858-23.16 4.533-45.573.108-66.481zM80 464.001c-17.673 0-32-14.328-32-32 0-17.674 14.327-32 32-32 17.674 0 32 14.326 32 32 0 17.672-14.326 32-32 32z"/></svg>