<svg width="1920" height="116" preserveAspectRatio="none" viewBox="0 0 1920 116" fill="none" xmlns="http://www.w3.org/2000/svg">
<path d="M1730 51.2517C1820.24 39.5907 1920 99.6841 1920 99.6841V0H0V78.6841C0 78.6841 158.364 120.089 249 114.687C367.256 107.639 398.32 59.4819 516.5 51.2518C637.854 42.8006 722.165 123.415 843.5 114.687C982.052 104.721 1037 11.0044 1173 11.0044C1285.08 11.0044 1371.03 115.951 1482 100.187C1562.88 88.6967 1648.98 61.721 1730 51.2517Z" fill="white"/>
<path d="M1730 41.2517C1820.24 29.5907 1920 89.6841 1920 89.6841V0H0V68.6841C0 68.6841 158.364 110.089 249 104.687C367.256 97.6387 398.32 49.4819 516.5 41.2518C637.854 32.8006 722.165 113.415 843.5 104.687C982.052 94.7208 1037 1.0044 1173 1.0044C1285.08 1.0044 1371.03 105.951 1482 90.187C1562.88 78.6967 1648.98 51.721 1730 41.2517Z" fill="#EE941A"/>
</svg>
