<svg width="1920" height="180" preserveAspectRatio="none" viewBox="0 0 1920 180" fill="none" xmlns="http://www.w3.org/2000/svg">
<path d="M178.5 104.42C88.2581 116.081 0 63.7345 0 63.7345V180H1920V35.7345C1920 35.7345 1762.14 -4.66435 1671.5 0.737656C1553.24 7.78587 1499.18 47.0075 1381 55.2377C1259.65 63.6889 1198.33 -7.99007 1077 0.737656C938.448 10.7038 892 168.738 756 168.738C643.92 168.738 549.466 -0.526749 438.5 15.2377C357.619 26.728 259.519 93.951 178.5 104.42Z" fill="white"/>
<path d="M178.5 113.42C88.2581 125.081 0 72.7344 0 72.7344V180H1920V44.7344C1920 44.7344 1762.14 4.33554 1671.5 9.73755C1553.24 16.7858 1499.18 56.0074 1381 64.2376C1259.65 72.6888 1198.33 1.00983 1077 9.73755C938.448 19.7037 892 177.738 756 177.738C643.92 177.738 549.466 8.47314 438.5 24.2376C357.619 35.7279 259.519 102.951 178.5 113.42Z" fill="#EE941A"/>
</svg>
