<svg width="70" height="70" fill="none" xmlns="http://www.w3.org/2000/svg"><mask id="path-1-inside-1" fill="#fff"><path d="M0 0h70v70H0V0z"/></mask><path d="M17.5.607v-.5h-.424l-.07.418.494.082zm3.889 0h.5v-.5h-.5v.5zm5.833 6.806h.5v-.5h-.5v.5zm0 .972h-.5v.434l.43.061.07-.495zm0 12.639l-.121-.485-.379.095v.39h.5zm0 1.944l-.082.494.582.097v-.59h-.5zm-15.555 0h-.5v.5h.5v-.5zm0-1.944h.5v-.5h-.5v.5zm0-12.639l.098.49.402-.08v-.41h-.5zm0-.972v-.5h-.5v.5h.5zM48.61.607v-.5h-.423l-.07.418.493.082zm3.889 0h.5v-.5h-.5v.5zm5.833 6.806h.5v-.5h-.5v.5zm0 .972h-.5v.434l.43.061.07-.495zm0 12.639l-.121-.485-.379.095v.39h.5zm0 1.944l-.082.494.582.097v-.59h-.5zm-15.555 0h-.5v.5h.5v-.5zm0-1.944h.5v-.5h-.5v.5zm0-12.639l.098.49.402-.08v-.41h-.5zm0-.972v-.5h-.5v.5h.5zM27.222 35.607h.5v-.5h-.5v.5zm0 .973h-.5v.433l.43.062.07-.495zm0 12.639l-.121-.486-.379.095v.39h.5zm0 1.944l-.082.493.582.097v-.59h-.5zm-15.555 0h-.5v.5h.5v-.5zm0-1.944h.5v-.5h-.5v.5zm0-12.64l.098.49.402-.08v-.41h-.5zm0-.972v-.5h-.5v.5h.5zm46.666 0h.5v-.5h-.5v.5zm0 .973h-.5v.433l.43.062.07-.495zm0 12.639l-.121-.486-.379.095v.39h.5zm0 1.944l-.082.493.582.097v-.59h-.5zm-15.555 0h-.5v.5h.5v-.5zm0-1.944h.5v-.5h-.5v.5zm0-12.64l.098.49.402-.08v-.41h-.5zm0-.972v-.5h-.5v.5h.5zM27.222 63.802h.5v-.5h-.5v.5zm0 .972h-.5v.434l.43.061.07-.495zm-15.555 0l.098.49.402-.08v-.41h-.5zm0-.972v-.5h-.5v.5h.5zm46.666 0h.5v-.5h-.5v.5zm0 .972h-.5v.434l.43.061.07-.495zm-15.555 0l.098.49.402-.08v-.41h-.5zm0-.972v-.5h-.5v.5h.5zM32.577 70l-.007.5.59.008-.09-.584-.493.076zm-25.771-.365l-.492-.093-.11.585.594.008.008-.5zM36.944 70l-.49-.1-.122.6h.612V70zm27.223 0v.5h.59l-.097-.583-.493.083zM17.5 1.107h3.889v-1H17.5v1zm3.389-.5c0 3.58 1.551 5.446 3.165 6.387a6.954 6.954 0 003.16.919h.007l.001-.5v-.5h.001a.859.859 0 01-.047-.001 5.683 5.683 0 01-.77-.096 5.953 5.953 0 01-1.849-.686C23.255 5.37 21.89 3.834 21.89.607h-1zm5.833 6.806v.972h1v-.972h-1zm.43 1.467c1.057.151 2.415.637 3.501 1.625 1.071.975 1.903 2.461 1.903 4.686h1c0-2.507-.951-4.262-2.23-5.425-1.264-1.151-2.822-1.703-4.033-1.876l-.142.99zm5.404 6.31c0 1.664-1.734 4.419-5.455 5.349l.242.97c4.058-1.014 6.213-4.093 6.213-6.318h-1zm-5.834 5.834v1.944h1v-1.944h-1zm.582 1.451c-1.061-.177-2.658-.076-4.007.832-1.38.93-2.408 2.64-2.408 5.495h1c0-2.59.916-3.958 1.967-4.665 1.082-.729 2.401-.822 3.284-.675l.164-.987zM18 28.802c0-1.052-.312-2.62-1.26-3.938-.969-1.344-2.577-2.396-5.073-2.396v1c2.17 0 3.478.894 4.26 1.98C16.729 26.56 17 27.91 17 28.802h1zm-5.833-5.834v-1.944h-1v1.944h1zm-.5-2.444c-.841 0-2.192-.435-3.334-1.349-1.126-.9-2-2.226-2-3.984h-1c0 2.13 1.07 3.722 2.375 4.765 1.29 1.031 2.855 1.568 3.959 1.568v-1zm-5.334-5.333c0-.902.228-2.26 1.016-3.5.778-1.221 2.12-2.356 4.416-2.816l-.196-.98c-2.565.513-4.14 1.809-5.064 3.26-.913 1.435-1.172 2.993-1.172 4.036h1zm5.834-6.806v-.972h-1v.972h1zm-.5-.472c1.191 0 5.31-1.125 6.326-7.223l-.986-.165c-.928 5.569-4.588 6.388-5.34 6.388v1zM48.61 1.107h3.89v-1h-3.889v1zm3.39-.5c0 3.58 1.551 5.446 3.165 6.387a6.954 6.954 0 003.16.919h.007l.001-.5v-.5h.001a.859.859 0 01-.047-.001 5.683 5.683 0 01-.77-.096 5.953 5.953 0 01-1.848-.686C54.365 5.37 53 3.834 53 .607h-1zm5.833 6.806v.972h1v-.972h-1zm.43 1.467c1.057.151 2.415.637 3.501 1.625 1.071.975 1.903 2.461 1.903 4.686h1c0-2.507-.951-4.262-2.23-5.425-1.264-1.151-2.822-1.703-4.033-1.876l-.141.99zm5.404 6.31c0 1.664-1.734 4.419-5.455 5.349l.243.97c4.057-1.014 6.212-4.093 6.212-6.318h-1zm-5.834 5.834v1.944h1v-1.944h-1zm.583 1.451c-1.062-.177-2.66-.076-4.008.832-1.38.93-2.408 2.64-2.408 5.495h1c0-2.59.916-3.958 1.967-4.665 1.082-.729 2.401-.822 3.284-.675l.165-.987zm-9.305 6.327c0-1.052-.311-2.62-1.26-3.938-.968-1.344-2.577-2.396-5.073-2.396v1c2.17 0 3.478.894 4.26 1.98.801 1.112 1.073 2.462 1.073 3.354h1zm-5.833-5.834v-1.944h-1v1.944h1zm-.5-2.444c-.84 0-2.192-.435-3.334-1.349-1.126-.9-2-2.226-2-3.984h-1c0 2.13 1.071 3.722 2.376 4.765 1.288 1.031 2.854 1.568 3.958 1.568v-1zm-5.334-5.333c0-.902.228-2.26 1.016-3.5.778-1.221 2.12-2.356 4.416-2.816l-.196-.98c-2.565.513-4.14 1.809-5.064 3.26-.913 1.435-1.172 2.993-1.172 4.036h1zm5.834-6.806v-.972h-1v.972h1zm-.5-.472c1.191 0 5.31-1.125 6.326-7.223l-.986-.165c-.928 5.569-4.587 6.388-5.34 6.388v1zm-21.89 20.889c0 3.579 1.552 5.445 3.166 6.386a6.952 6.952 0 003.142.92h.025l.001-.5v-.5h.001-.008l-.039-.002a5.694 5.694 0 01-.77-.096 5.953 5.953 0 01-1.849-.685c-1.303-.76-2.668-2.297-2.668-5.523h-1zm5.834 6.805v.973h1v-.973h-1zm.43 1.468c1.057.15 2.415.636 3.501 1.624 1.071.976 1.903 2.462 1.903 4.686h1c0-2.507-.951-4.261-2.23-5.425-1.264-1.15-2.822-1.702-4.033-1.875l-.142.99zm5.404 6.31c0 1.663-1.734 4.418-5.455 5.348l.242.97c4.058-1.014 6.213-4.092 6.213-6.318h-1zm-5.834 5.834v1.944h1v-1.944h-1zm.582 1.45c-1.061-.176-2.658-.075-4.007.833-1.38.928-2.408 2.64-2.408 5.494h1c0-2.59.916-3.957 1.967-4.665 1.082-.729 2.401-.822 3.284-.675l.164-.986zM18 56.997c0-1.052-.312-2.62-1.26-3.938-.969-1.344-2.577-2.395-5.073-2.395v1c2.17 0 3.478.893 4.26 1.98.801 1.112 1.073 2.461 1.073 3.353h1zm-5.833-5.833V49.22h-1v1.944h1zm-.5-2.444c-.841 0-2.192-.436-3.334-1.35-1.126-.9-2-2.225-2-3.984h-1c0 2.13 1.07 3.722 2.375 4.766 1.29 1.03 2.855 1.567 3.959 1.567v-1zm-5.334-5.334c0-.901.228-2.26 1.016-3.499.778-1.222 2.12-2.357 4.416-2.816l-.196-.98c-2.565.512-4.14 1.808-5.064 3.26-.913 1.435-1.172 2.992-1.172 4.035h1zm5.834-6.805v-.973h-1v.973h1zm-.5-.473c1.191 0 5.31-1.125 6.326-7.223l-.986-.164c-.928 5.568-4.588 6.387-5.34 6.387v1zM52 28.802c0 3.579 1.551 5.445 3.165 6.386a6.952 6.952 0 003.142.92h.025l.001-.5v-.5h.001-.008l-.039-.002a5.694 5.694 0 01-.77-.096 5.953 5.953 0 01-1.848-.685C54.365 33.565 53 32.028 53 28.802h-1zm5.833 6.805v.973h1v-.973h-1zm.43 1.468c1.057.15 2.415.636 3.501 1.624 1.071.976 1.903 2.462 1.903 4.686h1c0-2.507-.951-4.261-2.23-5.425-1.264-1.15-2.822-1.702-4.033-1.875l-.141.99zm5.404 6.31c0 1.663-1.734 4.418-5.455 5.348l.243.97c4.057-1.014 6.212-4.092 6.212-6.318h-1zm-5.834 5.834v1.944h1v-1.944h-1zm.583 1.45c-1.062-.176-2.66-.075-4.008.833-1.38.928-2.408 2.64-2.408 5.494h1c0-2.59.916-3.957 1.967-4.665 1.082-.729 2.401-.822 3.284-.675l.165-.986zm-9.305 6.327c0-1.052-.311-2.62-1.26-3.938-.968-1.344-2.577-2.395-5.073-2.395v1c2.17 0 3.478.893 4.26 1.98.801 1.112 1.073 2.461 1.073 3.353h1zm-5.833-5.833v-1.944h-1v1.944h1zm-.5-2.444c-.84 0-2.192-.436-3.334-1.35-1.126-.9-2-2.225-2-3.984h-1c0 2.13 1.071 3.722 2.376 4.766 1.288 1.03 2.854 1.567 3.958 1.567v-1zm-5.334-5.334c0-.901.228-2.26 1.016-3.499.778-1.222 2.12-2.357 4.416-2.816l-.196-.98c-2.565.512-4.14 1.808-5.064 3.26-.913 1.435-1.172 2.992-1.172 4.035h1zm5.834-6.805v-.973h-1v.973h1zm-.5-.473c1.191 0 5.31-1.125 6.326-7.223l-.986-.164c-.928 5.568-4.587 6.387-5.34 6.387v1zm-21.89 20.89c0 3.578 1.552 5.445 3.166 6.386a6.957 6.957 0 003.16.919h.007l.001-.5v-.5h.001-.008c-.008 0-.021 0-.039-.002a5.689 5.689 0 01-.77-.096 5.953 5.953 0 01-1.849-.685c-1.303-.76-2.668-2.296-2.668-5.523h-1zm5.834 6.805v.972h1v-.972h-1zm-14.555.972v-.972h-1v.972h1zm-.5-.472c1.191 0 5.31-1.125 6.326-7.224l-.986-.164c-.928 5.569-4.588 6.388-5.34 6.388v1zM52 56.996c0 3.58 1.551 5.446 3.165 6.387a6.957 6.957 0 003.16.919h.007l.001-.5v-.5h.001-.008c-.008 0-.02 0-.039-.002a5.689 5.689 0 01-.77-.096 5.953 5.953 0 01-1.848-.685C54.365 61.76 53 60.223 53 56.996h-1zm5.833 6.806v.972h1v-.972h-1zm-14.555.972v-.972h-1v.972h1zm-.5-.472c1.191 0 5.31-1.125 6.326-7.224l-.986-.164c-.928 5.569-4.587 6.388-5.34 6.388v1zm-15.627.967c.97.138 2.07.48 2.99 1.206.907.718 1.67 1.837 1.942 3.601l.988-.152c-.308-2.005-1.197-3.353-2.31-4.233-1.101-.87-2.388-1.258-3.468-1.412l-.142.99zm-19.854 4.46c.192-1.017.408-1.925 1-2.683.581-.742 1.578-1.404 3.468-1.782l-.196-.98c-2.048.41-3.29 1.162-4.059 2.146-.757.968-1.004 2.098-1.196 3.112l.983.186zm25.287-.229l-25.771-.365-.015 1 25.772.365.014-1zm4.85.6c.375-1.838 1.784-4.104 5.442-4.836l-.196-.98c-4.084.817-5.777 3.416-6.225 5.616l.98.2zm20.829-4.831c1.95.279 4.845 1.445 5.41 4.814l.987-.166c-.675-4.017-4.145-5.336-6.256-5.638l-.141.99zM36.944 70.5h27.223v-1H36.944v1zM17.5 29.302h3.889v-1H17.5v1zm31.111 0H52.5v-1h-3.889v1zm0 28.194H52.5v-1h-3.889v1zm-31.111 0h3.889v-1H17.5v1zm15.556-13.61h3.888v-1h-3.888v1zm0-28.195h3.888v-1h-3.888v1zm31.11 0H70v-1h-5.833v1zm-58.333-1H0v1h5.833v-1zm0 28.194H0v1h5.833v-1zm58.334 1H70v-1h-5.833v1zM0 0v-1h-1v1h1zm70 0h1v-1h-1v1zm0 70v1h1v-1h-1zM0 70h-1v1h1v-1zM0 1h70v-2H0v2zm70 68H0v2h70v-2zM69 0v15.19h2V0h-2zM1 15.19V0h-2v15.19h2zM1 70V43.385h-2V70h2zm0-26.615V15.191h-2v28.194h2zm68-28.194v28.194h2V15.191h-2zm0 28.194V70h2V43.385h-2z" fill="#1D2E3E" mask="url(#path-1-inside-1)"/></svg>