<svg width="70" height="70" fill="none" xmlns="http://www.w3.org/2000/svg"><mask id="path-1-inside-1" fill="#fff"><path d="M0 0h70v70H0V0z"/></mask><path d="M12.639 0v-.5h-.25l-.15.2.4.3zM57.36 0l.4-.3-.15-.2h-.25V0zM15.556 10.222h38.888v-1H15.556v1zm38.535-.146l5.833 5.833.707-.707-5.833-5.833-.707.707zm5.833 5.126l-5.833 5.833.707.707 5.833-5.833-.707-.707zm-5.48 5.687H15.556v1h38.888v-1zm-38.535.146l-5.833-5.833-.707.707 5.833 5.833.707-.707zm38.182.707l5.833 5.834.707-.707-5.833-5.834-.707.707zm5.833 5.127l-5.833 5.833.707.707 5.833-5.833-.707-.707zm-5.48 5.687H15.556v1h38.888v-1zm-38.535.146l-5.833-5.833-.707.707 5.833 5.833.707-.707zm38.182.707l5.833 5.834.707-.708-5.833-5.833-.707.707zm5.833 5.126l-5.833 5.834.707.707 5.833-5.834-.707-.707zm-5.48 5.687H15.556v1h38.888v-1zm-38.535.147l-5.833-5.834-.707.708 5.833 5.833.707-.707zm38.182.707l5.833 5.833.707-.707-5.833-5.833-.707.707zm5.833 5.126l-5.833 5.833.707.708 5.833-5.834-.707-.707zm-5.48 5.687H15.556v1h38.888v-1zm-38.535.146l-5.833-5.833-.707.707 5.833 5.834.707-.708zm38.182.708l5.833 5.833.707-.707-5.833-5.834-.707.708zm5.833 5.126l-5.833 5.833.707.707 5.833-5.833-.707-.707zm-5.48 5.687H15.556v1h38.888v-1zm-38.535.146l-5.833-5.833-.707.707 5.833 5.833.707-.707zM10.122 4.19L13.04.3l-.8-.6-2.917 3.89.8.6zM12.64.5h44.72v-1H12.64v1zM56.96.3l2.917 3.89.8-.6L57.76-.3l-.8.6zm2.963 3.236L54.09 9.369l.707.707 5.833-5.833-.707-.707zM9.37 4.243l5.833 5.833.707-.707-5.833-5.833-.707.707zm5.833 16.792L9.369 26.87l.707.707 5.833-5.834-.707-.707zm0 11.667L9.37 38.535l.707.708 5.833-5.834-.707-.707zm0 11.667L9.37 50.202l.707.707 5.833-5.833-.707-.707zm0 11.666L9.369 61.87l.707.707 5.833-5.834-.707-.707zM60.278 4.39H70v-1h-9.722v1zm0 11.667H70v-1h-9.722v1zm0 11.666H70v-1h-9.722v1zm0 11.667H70v-1h-9.722v1zm0 11.667H70v-1h-9.722v1zm0 11.666H70v-1h-9.722v1zM9.722 3.39H0v1h9.722v-1zm5.48 5.98l-5.833 5.833.707.707 5.833-5.833-.707-.707zm-5.48 5.687H0v1h9.722v-1zm0 11.666H0v1h9.722v-1zm0 11.667H0v1h9.722v-1zm0 11.667H0v1h9.722v-1zm0 11.666H0v1h9.722v-1zm5.48 5.98l-1.944 1.945.707.707 1.944-1.945-.707-.707zm38.889.707l1.944 1.945.707-.707-1.944-1.945-.707.707zM0 0v-1h-1v1h1zm70 0h1v-1h-1v1zm0 70v1h1v-1h-1zM0 70h-1v1h1v-1zM0 1h70v-2H0v2zm69-1v3.89h2V0h-2zm0 3.89v11.666h2V3.889h-2zm0 11.666v11.666h2V15.556h-2zm0 11.666V38.89h2V27.222h-2zm0 11.667v11.667h2V38.889h-2zm0 11.667v11.666h2V50.556h-2zm0 11.666V70h2v-7.778h-2zM1 3.89V0h-2v3.89h2zm0 11.667V3.889h-2v11.667h2zm0 11.666V15.556h-2v11.666h2zM1 38.89V27.222h-2V38.89h2zm0 11.667V38.889h-2v11.667h2zM1 70v-7.778h-2V70h2zm0-7.778V50.556h-2v11.666h2zM13.611 69H0v2h13.611v-2zM70 69H56.389v2H70v-2zm-13.611 0H13.61v2h42.78v-2z" fill="#1D2E3E" mask="url(#path-1-inside-1)"/></svg>