<svg width="70" height="70" fill="none" xmlns="http://www.w3.org/2000/svg"><mask id="path-1-inside-1" fill="#fff"><path d="M0 0h70v70H0V0z"/></mask><path d="M29.841-.402L-.298 21.96l.596.803L30.437.402l-.596-.804zM34.5 0v3.889h1V0h-1zM.3 30.539l35-26.25-.6-.8-35 26.25.6.8zm34.4-26.25l35 26.25.6-.8-35-26.25-.6.8zM39.563.402l30.14 22.36.595-.802L40.159-.402l-.596.804zM34.5 3.889v20.417h1V3.889h-1zm.186 20.027l-35 28.195.628.778 35-28.194-.628-.779zm-.186.39v7.777h1v-7.777h-1zM.32 61.634l35-29.167-.64-.768-35 29.167.64.768zm34.36-29.167l35 29.167.64-.768-35-29.167-.64.768zm.006-7.772l35 28.194.628-.778-35-28.195-.628.779zm-.186 7.388V56.39h1V32.083h-1zm.193 23.911l-17.5 13.611.614.79 17.5-13.611-.614-.79zm0 .79l17.5 13.61.614-.789-17.5-13.61-.614.789zm-.193-.395v5.833h1V56.39h-1zm0 5.833V70h1v-7.778h-1zm.188-.39l-9.723 7.778.625.78 9.722-7.777-.624-.781zm0 .78l9.722 7.778.625-.78-9.723-7.778-.624.78zM0 0v-1h-1v1h1zm70 0h1v-1h-1v1zm0 70v1h1v-1h-1zM0 70h-1v1h1v-1zM0 1h30.139v-2H0v2zm30.139 0H35v-2h-4.861v2zM1 22.361V0h-2v22.361h2zm0 7.778V22.36h-2v7.778h2zM35 1h4.861v-2H35v2zm4.861 0H70v-2H39.861v2zM69 0v22.361h2V0h-2zm0 22.361v7.778h2V22.36h-2zM1 52.5V30.139h-2V52.5h2zM1 70v-8.75h-2V70h2zm0-8.75V52.5h-2v8.75h2zm68 0V70h2v-8.75h-2zm0-31.111V52.5h2V30.139h-2zM69 52.5v8.75h2V52.5h-2zM17.5 69H0v2h17.5v-2zM70 69H52.5v2H70v-2zm-35 0h-9.722v2H35v-2zm-9.722 0H17.5v2h7.778v-2zM52.5 69h-7.778v2H52.5v-2zm-7.778 0H35v2h9.722v-2z" fill="#1D2E3E" mask="url(#path-1-inside-1)"/></svg>