<svg width="70" height="71" fill="none" xmlns="http://www.w3.org/2000/svg"><path fill-rule="evenodd" clip-rule="evenodd" d="M45.668 11.667c0 5.89-4.776 10.666-10.667 10.666-5.89 0-10.666-4.775-10.666-10.666S29.11 1 35 1s10.667 4.776 10.667 10.667zM35 0H0v70h3.89v.001h23.333V70h15.556v.001h23.334V70H70V0H35.001zm7.82 1h-3.087a11.691 11.691 0 013.57 2.471c-.246-.79-.41-1.618-.482-2.471zm1.005 0c.504 5.422 5.066 9.667 10.62 9.667C60 10.667 64.562 6.422 65.066 1h-21.24zM66.07 1a11.62 11.62 0 01-.48 2.465c.977-.99 2.13-1.804 3.409-2.395H69V1h-2.93zM69 22.263l-.001-.001a11.693 11.693 0 01-3.41-2.395c.34 1.095.524 2.258.524 3.465 0 1.208-.184 2.373-.525 3.468a11.695 11.695 0 013.41-2.396H69v-2.141zm0 23.334h-.001a11.694 11.694 0 01-3.41-2.396 11.67 11.67 0 01.524 3.466c0 1.47-.272 2.876-.768 4.172a13.445 13.445 0 013.654-2.74H69v-2.502zm0 22.972h-.001a13.447 13.447 0 01-3.654-2.739c.382.998.631 2.062.725 3.17H69v-.431zM65.066 69c-.504-5.422-5.067-9.666-10.62-9.666-5.553 0-10.116 4.244-10.62 9.666h21.24zm-22.244 0c.072-.854.237-1.682.483-2.473A11.69 11.69 0 0139.732 69h3.09zM30.27 69a11.696 11.696 0 01-3.825-2.736c.33.877.564 1.795.688 2.736h3.137zm-4.146 0c-.753-5.267-5.254-9.666-10.569-9.666-5.314 0-9.815 4.4-10.568 9.666h21.137zM3.979 69c.123-.94.356-1.856.686-2.732A11.7 11.7 0 011 68.931V69h2.979zM1 67.818a10.667 10.667 0 005.778-9.483c0-4.128-2.345-7.71-5.778-9.483v18.966zm0-20.08a11.695 11.695 0 013.416 2.403 11.663 11.663 0 01-.526-3.474c0-1.443.261-2.824.74-4.099A13.134 13.134 0 011 45.245v2.494zm0-3.622C4.332 42.277 6.778 38.901 6.778 35c0-3.902-2.446-7.277-5.778-9.116v18.233zm0-19.362c1.35.675 2.59 1.584 3.63 2.677a11.642 11.642 0 01-.74-4.099c0-1.45.265-2.84.749-4.121A13.225 13.225 0 011 21.907v2.847zm0-3.977c3.324-1.847 5.778-5.224 5.778-9.111C6.778 7.778 4.324 4.4 1 2.554v18.223zM1 1.423a13.25 13.25 0 013.638 2.696A11.603 11.603 0 013.932 1H1v.423zM4.936 1c.504 5.422 5.066 9.667 10.62 9.667 5.554 0 10.117-4.245 10.62-9.667H4.937zM27.18 1h3.087a11.69 11.69 0 00-3.57 2.471c.246-.79.41-1.618.483-2.471zm16.123 18.863A11.631 11.631 0 0135 23.333a11.631 11.631 0 01-8.303-3.47 11.66 11.66 0 01.525 3.47c0 1.21-.184 2.376-.526 3.474A11.63 11.63 0 0135 23.334a11.63 11.63 0 018.304 3.473 11.662 11.662 0 01-.526-3.475c0-1.208.184-2.373.525-3.47zM23.86 31.527a11.631 11.631 0 01-8.305 3.472 11.63 11.63 0 01-8.42-3.592 10.373 10.373 0 01-.001 7.186A11.633 11.633 0 0115.556 35a11.63 11.63 0 018.303 3.47 11.663 11.663 0 01-.525-3.469c0-1.21.185-2.377.527-3.474zm-.527 26.805c0 1.376.239 2.696.676 3.922-2.128-2.375-5.13-3.92-8.454-3.92-3.322 0-6.324 1.544-8.452 3.919.436-1.225.674-2.544.674-3.918 0-1.21-.184-2.377-.526-3.474a11.63 11.63 0 008.304 3.472c3.25 0 6.188-1.328 8.303-3.47a11.663 11.663 0 00-.525 3.47zm11.503-11.665a11.63 11.63 0 00-8.139 3.47 11.67 11.67 0 00.525-3.47 11.66 11.66 0 00-.525-3.47 11.63 11.63 0 008.139 3.47zm8.467 3.47a11.63 11.63 0 00-8.138-3.47 11.63 11.63 0 008.138-3.47 11.662 11.662 0 00-.525 3.47c0 1.208.184 2.373.525 3.47zm3.364 8.195a11.67 11.67 0 00-.525-3.47 11.631 11.631 0 008.303 3.471c3.32 0 6.317-1.387 8.441-3.613a10.193 10.193 0 00-.666 3.614c0 1.268.238 2.481.666 3.613a11.634 11.634 0 00-8.441-3.613 11.63 11.63 0 00-8.304 3.473c.342-1.098.526-2.265.526-3.475zM7.128 15.266a11.633 11.633 0 018.312-3.6 11.633 11.633 0 01-8.312-3.599 10.32 10.32 0 01.65 3.599c0 1.264-.232 2.473-.65 3.6zm8.545-3.6a11.63 11.63 0 018.186 3.47 11.663 11.663 0 01-.525-3.47c0-1.208.184-2.374.526-3.47a11.63 11.63 0 01-8.187 3.47zm30.47 3.47a11.63 11.63 0 018.187-3.47 11.63 11.63 0 01-8.187-3.47 11.66 11.66 0 01.525 3.47 11.66 11.66 0 01-.525 3.47zm8.42-3.47a11.63 11.63 0 018.181 3.465 11.664 11.664 0 01-.523-3.465c0-1.207.183-2.37.523-3.465a11.63 11.63 0 01-8.182 3.465zm-8.421 19.86c.342 1.098.526 2.265.526 3.475 0 1.208-.184 2.374-.525 3.47A11.63 11.63 0 0154.446 35a11.63 11.63 0 018.298 3.466A11.664 11.664 0 0162.221 35c0-1.207.183-2.372.524-3.468A11.631 11.631 0 0154.446 35c-3.25 0-6.189-1.329-8.304-3.472zm-.474 3.475c0 5.891-4.776 10.667-10.667 10.667-5.89 0-10.666-4.776-10.666-10.667 0-5.89 4.775-10.666 10.666-10.666S45.668 29.11 45.668 35zm8.778 22.332c5.891 0 10.667-4.775 10.667-10.666S60.337 36 54.446 36s-10.667 4.776-10.667 10.667c0 5.89 4.776 10.666 10.667 10.666zm8.775-45.667c0-4.128 2.345-7.71 5.778-9.483v18.966a10.666 10.666 0 01-5.778-9.483zm5.778 13.851A10.667 10.667 0 0063.22 35c0 4.128 2.345 7.71 5.778 9.483V25.517zM63.22 58.334c0-3.854 2.474-7.235 5.778-9.1v18.2c-3.304-1.865-5.778-5.246-5.778-9.1zm1.892-35.002C65.113 29.223 60.337 34 54.446 34s-10.667-4.776-10.667-10.667c0-5.89 4.776-10.667 10.667-10.667s10.667 4.776 10.667 10.667zM15.556 57.333c5.891 0 10.667-4.775 10.667-10.666S21.447 36 15.556 36C9.666 36 4.89 40.776 4.89 46.667c0 5.89 4.775 10.666 10.666 10.666zm10.667-34c0 5.89-4.776 10.666-10.667 10.666-5.89 0-10.666-4.776-10.666-10.667 0-5.89 4.775-10.667 10.666-10.667s10.667 4.776 10.667 10.667zm8.778 45.666c5.891 0 10.667-4.776 10.667-10.667 0-5.89-4.776-10.666-10.667-10.666-5.89 0-10.666 4.775-10.666 10.666S29.11 69 35 69z" fill="#1D2E3E"/></svg>