<svg width="70" height="70" fill="none" xmlns="http://www.w3.org/2000/svg"><mask id="path-1-inside-1" fill="#fff"><path d="M0 12.639V0h70v70H0V12.639z"/></mask><path d="M18.726 25.709l16.528-9.723-.508-.861-16.527 9.722.507.862zm16.02-9.723l16.528 9.723.507-.862-16.527-9.722-.508.861zm16.282 9.292v19.444h1V25.278h-1zm.266 19.002l-16.528 8.75.468.884 16.528-8.75-.468-.884zm-16.06 8.75l-16.528-8.75-.468.884 16.528 8.75.468-.884zm-16.262-8.308V25.278h-1v19.444h1zM35.5 15.556V0h-1v15.556h1zm16.287 10.15l18.472-11.181-.518-.856L51.27 24.85l.518.855zm-.501 19.454l18.472 10.208.484-.875L51.77 44.285l-.484.875zM34.5 53.472V70h1V53.472h-1zm-16.287-9.178L-.259 55.475l.518.855L18.73 45.15l-.518-.855zm.518-19.444L.26 13.67l-.518.855 18.472 11.18.518-.855zM0 0v-1h-1v1h1zm70 0h1v-1h-1v1zm0 70v1h1v-1h-1zM0 70h-1v1h1v-1zm1-57.361V0h-2v12.639h2zM0 1h34.028v-2H0v2zm35.972 0H70v-2H35.972v2zM69 0v12.639h2V0h-2zm0 15.556v37.916h2V15.556h-2zm0 40.833V70h2V56.389h-2zM70 69H35.972v2H70v-2zm-35.972 0H0v2h34.028v-2zM1 70V57.361h-2V70h2zm0-15.556V15.556h-2v38.888h2zM34.028 1H35v-2h-.972v2zM35 1h.972v-2H35v2zm34 11.639v1.458h2V12.64h-2zm0 1.458v1.459h2v-1.459h-2zm0 39.375v1.459h2v-1.459h-2zm0 1.459v1.458h2V54.93h-2zM35.972 69H35v2h.972v-2zM35 69h-.972v2H35v-2zM1 57.361v-1.458h-2v1.458h2zm0-1.458v-1.459h-2v1.459h2zm0-40.347v-1.459h-2v1.459h2zm0-1.459V12.64h-2v1.458h2z" fill="#1D2E3E" mask="url(#path-1-inside-1)"/></svg>