<svg width="72" height="33" fill="none" xmlns="http://www.w3.org/2000/svg"><path d="M68.883 32L2.489 15.961v-1.06c0-.284.243-.735.745-1.077.502-.342.21-.428 0-.428M68.883 32L71 30.29V17.04M68.883 32v-.855c0-.285.125-.94.628-1.282.502-.342.209-.428 0-.428M71 17.04l-2.117 1.523c-1.234 1.042-1.606 1.47-1.606 2.752 0 .697.158.985.372 1.16M71 17.039L4.723 1 2.606 2.523C1.372 3.565 1 3.993 1 5.275c0 .598.117.895.285 1.077M69.51 25.161c0-.342-.536 0-.745-.428 0-2.016-.676-1.897-1.117-2.26m1.862 2.688v4.274m0-4.274L3.234 9.043m66.277 20.392L3.234 13.396m0-4.353c.049.138-.617-.293-.712-.724-.38-1.722-.805-1.496-1.237-1.967m1.949 2.69v4.354m64.415 9.078L1.285 6.352" stroke="#1D2E3E"/></svg>