<svg width="70" height="70" fill="none" xmlns="http://www.w3.org/2000/svg"><mask id="path-1-inside-1" fill="#fff"><path d="M0 0h70v70H0V0z"/></mask><path d="M17 0v70h1V0h-1zm17.5 0v70h1V0h-1zM52 0v70h1V0h-1zM0 18h70v-1H0v1zm0 17.5h70v-1H0v1zM0 53h70v-1H0v1zM0 0v-1h-1v1h1zm70 0h1v-1h-1v1zm0 70v1h1v-1h-1zM0 70h-1v1h1v-1zM0 1h17.5v-2H0v2zm17.5 68H0v2h17.5v-2zm0-68H35v-2H17.5v2zM35 69H17.5v2H35v-2zm0-68h17.5v-2H35v2zm17.5 0H70v-2H52.5v2zM70 69H52.5v2H70v-2zm-17.5 0H35v2h17.5v-2zM1 17.5V0h-2v17.5h2zM69 0v17.5h2V0h-2zM1 35V17.5h-2V35h2zm68-17.5V35h2V17.5h-2zM1 70V52.5h-2V70h2zm0-17.5V35h-2v17.5h2zM69 35v17.5h2V35h-2zm0 17.5V70h2V52.5h-2z" fill="#1D2E3E" mask="url(#path-1-inside-1)"/></svg>