<svg width="70" height="70" fill="none" xmlns="http://www.w3.org/2000/svg"><mask id="path-1-inside-1" fill="#fff"><path d="M0 0h70v70H0V0z"/></mask><path d="M17.5 7.778l-.376-.33L17 7.59v.188h.5zm0 18.472l.374.332.126-.142v-.19h-.5zM9.722 35l-.373-.332-.335.377.379.331.33-.376zm7.778 6.806h.5v-.227l-.17-.15-.33.377zm0 19.444H17v.172l.105.135.395-.307zm35.972 0l.354.354.157-.157-.011-.222-.5.025zM52.5 41.806l-.354-.354-.157.157.012.221.499-.024zM59.306 35l.353.354.312-.313-.27-.348-.395.307zM52.5 26.25H52v.172l.105.135.395-.307zm0-18.472h.5V7.57l-.146-.147-.354.354zM7.778 17.014v-.5H7.58l-.144.135.342.365zm0 35.486l-.33.376.142.124h.188v-.5zm54.444-35.486l.342-.365-.144-.135h-.198v.5zm-35 0v.5h.198l.144-.135-.342-.365zM35 9.722l.365-.34-.341-.367-.366.342.342.365zm6.806 7.292l-.366.341.148.159h.218v-.5zM27.222 52.5l.33-.376L27.41 52h-.188v.5zM35 59.306l-.33.376.38.332.33-.383-.38-.325zm5.833-6.806V52h-.23l-.15.175.38.325zm21.39 0v.5h.187l.142-.124-.33-.376zM23.928-.33l-6.804 7.78.752.658L24.682.329l-.753-.658zm-6.803 26.248l-7.777 8.75.747.664 7.778-8.75-.748-.664zm-7.733 9.458l7.778 6.806.658-.753-7.777-6.805-.659.752zm7.712 26.181l6.806 8.75.79-.614-6.806-8.75-.79.614zm27.97 8.797l8.75-8.75-.706-.708-8.75 8.75.707.708zm7.779-28.195l6.805-6.805-.707-.708-6.806 6.806.708.707zm6.846-7.466l-6.805-8.75-.79.614 6.806 8.75.79-.614zM52.854 7.424L45.076-.354l-.707.708 7.777 7.777.708-.707zM17 7.778v9.236h1V7.778h-1zm0 9.236v9.236h1v-9.236h-1zm.5-.5H7.778v1H17.5v-1zm-10.064.135l-7.778 7.292.684.73 7.778-7.292-.684-.73zM-.33 46.071l7.778 6.805.658-.752-7.778-6.806-.658.753zM17 41.806V52.5h1V41.806h-1zM17 52.5v8.75h1V52.5h-1zm-9.222.5H17.5v-1H7.778v1zm62.564-29.06l-7.778-7.29-.684.729 7.778 7.291.684-.73zM53 26.25v-9.236h-1v9.236h1zm0-9.236V7.778h-1v9.236h1zm9.222-.5H52.5v1h9.722v-1zm-44.722 1h9.722v-1H17.5v1zm10.064-.135l7.778-7.292-.684-.73-7.778 7.292.684.73zm7.07-7.316l6.806 7.292.731-.682-6.806-7.292-.73.682zm7.172 7.45H52.5v-1H41.806v1zM17.5 53h9.722v-1H17.5v1zm9.393-.124l7.778 6.806.658-.753-7.777-6.805-.659.752zm8.487 6.755l5.833-6.806-.76-.65-5.833 6.805.76.651zm18.592 1.594l-.438-8.75-.999.05.438 8.75.999-.05zM40.833 53h12.202v-1H40.833v1zm12.701-.525L53 41.781l-.998.05.534 10.694 1-.05zm9.017.401l7.778-6.805-.658-.753-7.778 6.806.658.752zM62.222 52h-9.187v1h9.187v-1zM0 0v-1h-1v1h1zm70 0h1v-1h-1v1zm0 70v1h1v-1h-1zM0 70h-1v1h1v-1zM0 1h24.306v-2H0v2zm24.306 68H0v2h24.306v-2zM70 69H44.722v2H70v-2zm-25.278 0H24.306v2h20.416v-2zM24.306 1h20.416v-2H24.306v2zm20.416 0H70v-2H44.722v2zM1 24.306V0h-2v24.306h2zM1 70V45.694h-2V70h2zm0-24.306V24.306h-2v21.388h2zm68 0V70h2V45.694h-2zM69 0v24.306h2V0h-2zm0 24.306v21.388h2V24.306h-2z" fill="#1D2E3E" mask="url(#path-1-inside-1)"/></svg>