<svg width="70" height="70" fill="none" xmlns="http://www.w3.org/2000/svg"><mask id="path-1-inside-1" fill="#fff"><path d="M0 0h70v70H0V0z"/></mask><path d="M34.5 0v5.833h1V0h-1zm.582 6.327l35-5.834-.164-.986-35 5.833.164.987zm0-.987l-35-5.833-.164.986 35 5.834.164-.987zm-.582.493V17.5h1V5.833h-1zm.416 12.16l34.027 5.833.17-.986-34.029-5.833-.169.986zm.002-.986l-35 5.833.164.986 35-5.833-.164-.986zm-.418.493v23.333h1V17.5h-1zm.582 23.827l35-5.834-.164-.986-35 5.833.164.986zm0-.987l-35-5.833-.164.986 35 5.834.164-.987zm-.582.493V52.5h1V40.833h-1zm0 11.667V70h1V52.5h-1zm.416.493l34.027 5.833.17-.986-34.029-5.833-.169.986zm.002-.986l-35 5.833.164.986 35-5.833-.164-.986zM0 0v-1h-1v1h1zm70 0h1v-1h-1v1zm0 70v1h1v-1h-1zM0 70h-1v1h1v-1zM0 1h35v-2H0v2zm70-2H35v2h35v-2zM-1 0v23.333h2V0h-2zm72 70V35h-2v35h2zm0-35V0h-2v35h2zM-1 23.333V35h2V23.333h-2zM-1 35v23.333h2V35h-2zm0 23.333V70h2V58.333h-2zM70 69H35v2h35v-2zm-35 0H0v2h35v-2z" fill="#1D2E3E" mask="url(#path-1-inside-1)"/></svg>