<svg width="956" height="90" viewBox="0 0 956 90" fill="none" xmlns="http://www.w3.org/2000/svg">
<path d="M2.56835 17.9488C49.9107 -8.93815 61.2104 30.0914 53.021 41.084C44.8315 52.0765 27.1464 52.2284 18.2848 39.3746C12.0082 30.3513 10.0043 22.2562 2.56835 17.9488Z" fill="#BBD645"/>
<path d="M953.495 64.1462C930.696 74.6025 927.063 56.2391 931.259 51.5197C935.456 46.8003 943.579 47.4345 947.134 53.6867C949.656 58.078 950.254 61.8733 953.495 64.1462Z" fill="#BBD645"/>
<path d="M778.26 5.85955C746.437 5.04677 751.37 28.2865 758.623 31.697C765.876 35.1075 775.037 30.3106 776.063 21.2399C776.811 14.857 775.613 10.1305 778.26 5.85955Z" fill="#BBD645"/>
<path d="M236.216 84.776C204.79 79.6999 213.928 57.7703 221.686 55.7574C229.444 53.7445 237.562 60.1502 236.896 69.2544C236.454 75.6658 234.403 80.0899 236.216 84.776Z" fill="#BBD645"/>
<path d="M58.4057 4.18779C33.4721 14.6858 45.4193 30.9619 52.2299 31.0674C59.0405 31.173 64.4589 24.254 62.0818 16.8694C60.4299 11.6635 57.849 8.42144 58.4057 4.18779Z" fill="#DCF375"/>
<path d="M741.962 11.4955C765.304 9.33128 762.824 26.6494 757.663 29.5124C752.502 32.3754 745.535 29.3019 744.334 22.6879C743.47 18.0349 744.117 14.5032 741.962 11.4955Z" fill="#DCF375"/>
<path d="M192.918 76.9264C215.459 83.3625 216.219 65.8843 211.675 62.1177C207.131 58.3511 199.716 60.0855 197.315 66.3643C195.606 70.7776 195.591 74.3682 192.918 76.9264Z" fill="#DCF375"/>
<path d="M370.145 18.9547C347.154 4.69564 340.794 23.858 344.65 29.4734C348.505 35.0887 357.283 35.5037 361.93 29.2916C365.22 24.9317 366.37 20.9508 370.145 18.9547Z" fill="#DCF375"/>
<path d="M515.97 69.6086C540.134 81.7741 544.771 62.1235 540.433 56.8719C536.096 51.6202 527.315 51.9849 523.237 58.5844C520.347 63.2186 519.554 67.2859 515.97 69.6086Z" fill="#DCF375"/>
<path d="M457.377 7.98719C483.716 14.1637 474.662 32.2099 467.965 33.4539C461.268 34.6979 454.768 28.7835 455.876 21.1052C456.633 15.6962 458.635 12.0679 457.377 7.98719Z" fill="#DCF375"/>
<path d="M707.38 78.0523C712.881 51.564 692.7 52.168 688.749 57.7165C684.798 63.265 687.422 71.6524 694.852 73.8846C700.076 75.4779 704.21 75.1919 707.38 78.0523Z" fill="#DCF375"/>
</svg>
