<svg width="430" height="121" viewBox="0 0 430 121" fill="none" xmlns="http://www.w3.org/2000/svg">
<path d="M2.116 14.7847C41.1201 -7.36666 50.4296 24.7887 43.6825 33.8452C36.9355 42.9017 22.3651 43.0268 15.0643 32.4369C9.89324 25.0029 8.24225 18.3335 2.116 14.7847Z" fill="#BBD645"/>
<path d="M393.005 105.124C374.221 113.739 371.228 98.6099 374.685 94.7217C378.142 90.8335 384.835 91.356 387.764 96.5071C389.842 100.125 390.334 103.252 393.005 105.124Z" fill="#BBD645"/>
<path d="M250.817 55.8275C224.599 55.1578 228.663 74.3044 234.638 77.1143C240.614 79.9241 248.161 75.972 249.006 68.4989C249.623 63.2402 248.636 59.3462 250.817 55.8275Z" fill="#BBD645"/>
<path d="M183.9 69.8426C158.009 65.6605 165.538 47.5933 171.929 45.9349C178.321 44.2766 185.009 49.5541 184.46 57.0547C184.096 62.337 182.407 65.9818 183.9 69.8426Z" fill="#BBD645"/>
<path d="M48.1189 3.44747C27.5768 12.0965 37.4198 25.506 43.0308 25.5929C48.6419 25.6798 53.106 19.9795 51.1475 13.8955C49.7866 9.60648 47.6603 6.93546 48.1189 3.44747Z" fill="#DCF375"/>
<path d="M220.912 60.4695C240.143 58.6864 238.1 72.9544 233.848 75.3131C229.595 77.6718 223.855 75.1397 222.866 69.6906C222.154 65.8571 222.688 62.9474 220.912 60.4695Z" fill="#DCF375"/>
<path d="M148.228 63.3744C166.799 68.6769 167.425 54.2771 163.681 51.1739C159.937 48.0707 153.829 49.4996 151.851 54.6725C150.443 58.3086 150.43 61.2668 148.228 63.3744Z" fill="#DCF375"/>
<path d="M293.364 16.6163C274.423 4.86858 269.183 20.6559 272.359 25.2823C275.535 29.9086 282.767 30.2505 286.596 25.1325C289.306 21.5406 290.254 18.2607 293.364 16.6163Z" fill="#DCF375"/>
<path d="M406.623 58.3474C426.531 68.3702 430.351 52.1806 426.778 47.854C423.204 43.5273 415.97 43.8277 412.61 49.2649C410.229 53.0829 409.575 56.4338 406.623 58.3474Z" fill="#DCF375"/>
<path d="M362.549 6.57818C384.249 11.6668 376.79 26.5346 371.272 27.5595C365.755 28.5844 360.4 23.7117 361.312 17.3857C361.936 12.9294 363.585 9.94019 362.549 6.57818Z" fill="#DCF375"/>
<path d="M196.262 116.285C200.794 94.4615 184.168 94.9592 180.913 99.5304C177.658 104.102 179.819 111.012 185.94 112.851C190.244 114.164 193.65 113.928 196.262 116.285Z" fill="#DCF375"/>
</svg>
