<svg width="40" height="40" fill="none" xmlns="http://www.w3.org/2000/svg"><path d="M37.5 19.925h-35a2.508 2.508 0 00-2.5 2.51 2.508 2.508 0 002.5 2.508h35c1.378 0 2.5-1.125 2.5-2.509a2.508 2.508 0 00-2.5-2.51zm0 3.345h-35a.836.836 0 010-1.672h35a.836.836 0 010 1.672z" fill="#1D2E3E"/><path d="M37.73 23.302a.83.83 0 00-1.03.576l-2.296 8.07a4.188 4.188 0 01-4.007 3.032H9.605A4.19 4.19 0 015.6 31.948l-2.297-8.07a.83.83 0 00-1.03-.576.835.835 0 00-.572 1.034l2.297 8.07c.712 2.5 3.017 4.247 5.608 4.247h20.79a5.86 5.86 0 005.61-4.247l2.297-8.07a.836.836 0 00-.572-1.034z" fill="#1D2E3E"/><path d="M9.606 31.637a.84.84 0 01-.802-.608l-1.082-3.804a.831.831 0 00-1.03-.575.836.836 0 00-.571 1.034l1.081 3.804a2.51 2.51 0 002.404 1.82.835.835 0 000-1.671zm1.599 3.431a.836.836 0 00-1.119.375L8.42 38.789A.84.84 0 009.167 40a.831.831 0 00.745-.463l1.666-3.346a.84.84 0 00-.373-1.123zM31.58 38.79l-1.667-3.346a.832.832 0 00-1.118-.374.84.84 0 00-.373 1.122l1.666 3.346a.833.833 0 001.119.375.84.84 0 00.373-1.123zM33.474 0c-.85 0-1.65.333-2.251.937l-2.645 2.655a.84.84 0 000 1.182.832.832 0 001.178 0l2.645-2.653a1.52 1.52 0 012.598 1.076v17.565a.835.835 0 101.669-.002V3.195A3.194 3.194 0 0033.474 0z" fill="#1D2E3E"/><path d="M30.591 4.43l-1.666-1.673a.817.817 0 00-.725-.234l-4.167.685a.835.835 0 00-.463 1.407l5 5.17a.822.822 0 00.835.22.832.832 0 00.581-.637l.834-4.182a.84.84 0 00-.229-.756zM28.66 7.478l-2.785-2.88 2.171-.356 1.049 1.052-.435 2.184zm-8.905 2.656a.832.832 0 00-1.178 0l-1.667 1.673a.836.836 0 001.178 1.183l1.667-1.673a.84.84 0 000-1.183zm3.334 3.346a.832.832 0 00-1.179 0l-1.666 1.672a.835.835 0 001.178 1.183l1.667-1.673a.84.84 0 000-1.183zm1.666-5.02a.832.832 0 00-1.178 0l-1.667 1.674a.836.836 0 001.178 1.183l1.667-1.673a.84.84 0 000-1.183z" fill="#1D2E3E"/></svg>