<svg width="40" height="40" fill="none" xmlns="http://www.w3.org/2000/svg"><path d="M39.166 19.166c.466 0 .833.367.833.833a.825.825 0 01-.834.834h-.833v-1.667h.834z" fill="#1D2E3E"/><path d="M20.832 19.166h17.5v1.667h-17.5v-1.667zM35.833 40H20a.825.825 0 00.833-.833v-.834h15c1.384 0 2.5-1.116 2.5-2.5v-15h.834A.825.825 0 0040 20v15.833c0 2.3-1.867 4.167-4.167 4.167z" fill="#1D2E3E"/><path d="M40 4.167V20a.825.825 0 00-.833-.833h-.834v-15c0-1.384-1.116-2.5-2.5-2.5h-15V.833A.825.825 0 0020 0h15.833C38.133 0 40 1.867 40 4.167z" fill="#1D2E3E"/><path d="M33.332 10c.467 0 .834.367.834.833a.825.825 0 01-.834.834h-6.666a.825.825 0 01-.834-.834c0-.466.367-.833.834-.833h6.666zm0 16.666c.467 0 .834.367.834.833a.825.825 0 01-.834.834h-6.666a.825.825 0 01-.834-.834c0-.466.367-.833.834-.833h6.666zm0 5c.467 0 .834.367.834.833a.825.825 0 01-.834.834h-6.666a.825.825 0 01-.834-.834c0-.466.367-.833.834-.833h6.666zm-12.498 6.668v.833a.825.825 0 01-.833.834.825.825 0 01-.833-.834v-.833h1.666zm-1.666-17.5h1.666v17.5h-1.666v-17.5zm0-1.668h1.666v1.667h-1.666v-1.667zm0-17.5h1.666v17.5h-1.666v-17.5zm1.666-.833v.833h-1.666V.833c0-.466.367-.833.833-.833.467 0 .833.367.833.833zM1.668 19.166h17.5v1.667h-17.5v-1.667zM13.332 10c.467 0 .833.367.833.833a.825.825 0 01-.833.834h-2.5V10h2.5zm-.249 21.917a.805.805 0 010 1.166.782.782 0 01-.583.25.782.782 0 01-.583-.25L10 31.167 11.167 30l1.916 1.917zm-1.166-5.001a.806.806 0 011.166 0 .805.805 0 010 1.167L11.167 30 10 28.833l1.917-1.917zm-3.088 3.082l1.166-1.166 1.167 1.166-1.167 1.167L8.83 30z" fill="#1D2E3E"/><path d="M10.835 11.666v2.5A.825.825 0 0110 15a.825.825 0 01-.833-.833v-2.5h1.667zM9.168 10h1.667v1.666H9.168V10zm1.667-2.5V10H9.168V7.5c0-.467.367-.834.833-.834.467 0 .834.367.834.833zm-.834 21.333l-1.166 1.166-1.917-1.916a.806.806 0 010-1.167.806.806 0 011.167 0L10 28.833zM9.165 10v1.667h-2.5a.825.825 0 01-.833-.834c0-.466.367-.833.833-.833h2.5zm-1.08 23.083a.782.782 0 01-.584.25.782.782 0 01-.583-.25.806.806 0 010-1.166l1.917-1.918L10 31.167l-1.916 1.916zM1.667 19.166v1.667H.833A.825.825 0 010 19.999c0-.466.367-.833.833-.833h.834z" fill="#1D2E3E"/><path d="M0 4.167C0 1.867 1.867 0 4.167 0H20a.825.825 0 00-.833.833v.834h-15a2.497 2.497 0 00-2.5 2.5v15H.833a.825.825 0 00-.833.832V4.167zm1.667 31.666c0 1.384 1.116 2.5 2.5 2.5h15v.834c0 .466.366.833.833.833H4.167A4.168 4.168 0 010 35.833V20c0 .467.367.834.833.834h.834v15z" fill="#1D2E3E"/></svg>