<svg width="40" height="40" fill="none" xmlns="http://www.w3.org/2000/svg"><mask id="path-1-inside-1" fill="#fff"><path d="M4.094 32.56a.659.659 0 00-1.082.213.661.661 0 00.148.722l1.631 1.633a.662.662 0 001.131-.467.661.661 0 00-.197-.468l-1.631-1.632z"/><path d="M7.033 18.536A.61.61 0 008.07 18.1a.616.616 0 00-.173-.433l-6.42-6.456L3.581 9.12l9.664 9.717L.698 31.453a1.639 1.639 0 00-.478 1.159 1.647 1.647 0 00.478 1.159l5.718 5.75a1.627 1.627 0 002.304 0l12.547-12.617L30.313 36a.604.604 0 00.192.13l.012.006a.78.78 0 00.082.026l6.528 1.617a.608.608 0 00.735-.431.618.618 0 00.005-.312l-1.609-6.565a.624.624 0 00-.026-.082l-.007-.013a.622.622 0 00-.128-.193l-9.046-9.096 12.472-12.54a1.64 1.64 0 00.353-1.786 1.64 1.64 0 00-.353-.531L33.804.48a1.627 1.627 0 00-2.304 0L19.029 13.02 8.943 2.877a.61.61 0 00-.864 0l-.3.3-.827-.845a3.036 3.036 0 00-2.18-.92h-.001c-.606 0-1.197.18-1.7.519a3.073 3.073 0 00-1.127 1.38 3.093 3.093 0 00.663 3.354l.848.851L.18 10.772a.614.614 0 00-.002.871l6.854 6.893zM34.8 30.618l-4.056 4.078-24.13-24.264 4.056-4.079L34.8 30.618zM7.857 38.653a.407.407 0 01-.577 0l-5.718-5.75a.41.41 0 010-.58l8.551-8.6 2.73 2.745a.612.612 0 00.867.004.614.614 0 00-.003-.873l-2.73-2.745 3.132-3.149 6.295 6.33L7.857 38.653zm24.086-3.423l3.388-3.407 1.107 4.52-4.495-1.113zm-9.47-23.936l2.73 2.745a.611.611 0 00.999-.67.614.614 0 00-.135-.2l-2.73-2.744 5.317-5.346 1.615 1.624a.61.61 0 001-.67.614.614 0 00-.136-.199L29.518 4.21l2.846-2.862a.407.407 0 01.576 0l5.719 5.75a.412.412 0 010 .58l-12.471 12.54-6.295-6.33 2.58-2.594zM9.808 5.484L5.751 9.563 4.455 8.259l4.056-4.078 1.296 1.303zm-6.335.312a1.851 1.851 0 01-.399-2.014 1.83 1.83 0 011.698-1.14h.001a1.815 1.815 0 011.309.552l.835.853-2.478 2.491-.115.114-.851-.856z"/></mask><path d="M4.094 32.56a.659.659 0 00-1.082.213.661.661 0 00.148.722l1.631 1.633a.662.662 0 001.131-.467.661.661 0 00-.197-.468l-1.631-1.632z" fill="#1D2E3E"/><path d="M7.033 18.536A.61.61 0 008.07 18.1a.616.616 0 00-.173-.433l-6.42-6.456L3.581 9.12l9.664 9.717L.698 31.453a1.639 1.639 0 00-.478 1.159 1.647 1.647 0 00.478 1.159l5.718 5.75a1.627 1.627 0 002.304 0l12.547-12.617L30.313 36a.604.604 0 00.192.13l.012.006a.78.78 0 00.082.026l6.528 1.617a.608.608 0 00.735-.431.618.618 0 00.005-.312l-1.609-6.565a.624.624 0 00-.026-.082l-.007-.013a.622.622 0 00-.128-.193l-9.046-9.096 12.472-12.54a1.64 1.64 0 00.353-1.786 1.64 1.64 0 00-.353-.531L33.804.48a1.627 1.627 0 00-2.304 0L19.029 13.02 8.943 2.877a.61.61 0 00-.864 0l-.3.3-.827-.845a3.036 3.036 0 00-2.18-.92h-.001c-.606 0-1.197.18-1.7.519a3.073 3.073 0 00-1.127 1.38 3.093 3.093 0 00.663 3.354l.848.851L.18 10.772a.614.614 0 00-.002.871l6.854 6.893zM34.8 30.618l-4.056 4.078-24.13-24.264 4.056-4.079L34.8 30.618zM7.857 38.653a.407.407 0 01-.577 0l-5.718-5.75a.41.41 0 010-.58l8.551-8.6 2.73 2.745a.612.612 0 00.867.004.614.614 0 00-.003-.873l-2.73-2.745 3.132-3.149 6.295 6.33L7.857 38.653zm24.086-3.423l3.388-3.407 1.107 4.52-4.495-1.113zm-9.47-23.936l2.73 2.745a.611.611 0 00.999-.67.614.614 0 00-.135-.2l-2.73-2.744 5.317-5.346 1.615 1.624a.61.61 0 001-.67.614.614 0 00-.136-.199L29.518 4.21l2.846-2.862a.407.407 0 01.576 0l5.719 5.75a.412.412 0 010 .58l-12.471 12.54-6.295-6.33 2.58-2.594zM9.808 5.484L5.751 9.563 4.455 8.259l4.056-4.078 1.296 1.303zm-6.335.312a1.851 1.851 0 01-.399-2.014 1.83 1.83 0 011.698-1.14h.001a1.815 1.815 0 011.309.552l.835.853-2.478 2.491-.115.114-.851-.856z" fill="#1D2E3E"/><path d="M4.094 32.56a.659.659 0 00-1.082.213.661.661 0 00.148.722l1.631 1.633a.662.662 0 001.131-.467.661.661 0 00-.197-.468l-1.631-1.632z" stroke="#1D2E3E" mask="url(#path-1-inside-1)"/><path d="M7.033 18.536A.61.61 0 008.07 18.1a.616.616 0 00-.173-.433l-6.42-6.456L3.581 9.12l9.664 9.717L.698 31.453a1.639 1.639 0 00-.478 1.159 1.647 1.647 0 00.478 1.159l5.718 5.75a1.627 1.627 0 002.304 0l12.547-12.617L30.313 36a.604.604 0 00.192.13l.012.006a.78.78 0 00.082.026l6.528 1.617a.608.608 0 00.735-.431.618.618 0 00.005-.312l-1.609-6.565a.624.624 0 00-.026-.082l-.007-.013a.622.622 0 00-.128-.193l-9.046-9.096 12.472-12.54a1.64 1.64 0 00.353-1.786 1.64 1.64 0 00-.353-.531L33.804.48a1.627 1.627 0 00-2.304 0L19.029 13.02 8.943 2.877a.61.61 0 00-.864 0l-.3.3-.827-.845a3.036 3.036 0 00-2.18-.92h-.001c-.606 0-1.197.18-1.7.519a3.073 3.073 0 00-1.127 1.38 3.093 3.093 0 00.663 3.354l.848.851L.18 10.772a.614.614 0 00-.002.871l6.854 6.893zM34.8 30.618l-4.056 4.078-24.13-24.264 4.056-4.079L34.8 30.618zM7.857 38.653a.407.407 0 01-.577 0l-5.718-5.75a.41.41 0 010-.58l8.551-8.6 2.73 2.745a.612.612 0 00.867.004.614.614 0 00-.003-.873l-2.73-2.745 3.132-3.149 6.295 6.33L7.857 38.653zm24.086-3.423l3.388-3.407 1.107 4.52-4.495-1.113zm-9.47-23.936l2.73 2.745a.611.611 0 00.999-.67.614.614 0 00-.135-.2l-2.73-2.744 5.317-5.346 1.615 1.624a.61.61 0 001-.67.614.614 0 00-.136-.199L29.518 4.21l2.846-2.862a.407.407 0 01.576 0l5.719 5.75a.412.412 0 010 .58l-12.471 12.54-6.295-6.33 2.58-2.594zM9.808 5.484L5.751 9.563 4.455 8.259l4.056-4.078 1.296 1.303zm-6.335.312a1.851 1.851 0 01-.399-2.014 1.83 1.83 0 011.698-1.14h.001a1.815 1.815 0 011.309.552l.835.853-2.478 2.491-.115.114-.851-.856z" stroke="#1D2E3E" mask="url(#path-1-inside-1)"/></svg>