<svg width="40" height="40" fill="none" xmlns="http://www.w3.org/2000/svg"><path d="M14 32h-2c0-1.103-.898-2-2-2H6.48l-.877-2.633A1.996 1.996 0 003.706 26h-1.19a1.98 1.98 0 00-1.623.831 1.973 1.973 0 00-.273 1.801l.523 1.569A1.997 1.997 0 000 32v7.333c0 .368.298.667.667.667h14.666a.667.667 0 00.667-.667V36a.666.666 0 00.666-.667v-.666A2.67 2.67 0 0014 32zM1.975 27.61a.658.658 0 01.541-.277h1.19c.287 0 .54.184.632.456L5.075 30H2.48l-.597-1.79a.66.66 0 01.091-.6zm12.691 11.057H1.333V32c0-.367.299-.667.667-.667h8c.368 0 .666.3.666.667v3.333c0 .368.298.667.667.667h3.333v2.667zm-2.666-4v-1.334h2c.735 0 1.333.598 1.333 1.334H12zM38.857 30.2l.523-1.567a1.978 1.978 0 00-.274-1.802 1.977 1.977 0 00-1.622-.83h-1.19c-.861 0-1.624.548-1.897 1.366L33.52 30H30c-1.102 0-2 .897-2 2h-2a2.67 2.67 0 00-2.666 2.667v.666c0 .368.298.667.666.667v3.333c0 .368.298.667.667.667h14.666a.667.667 0 00.667-.667V32a2 2 0 00-1.143-1.8zm-3.196-2.41a.667.667 0 01.633-.457h1.19c.216 0 .413.101.54.278a.66.66 0 01.092.6L37.519 30h-2.594l.736-2.21zm-9.66 5.543h2v1.334h-3.334c0-.736.598-1.334 1.333-1.334zm12.666 5.334H25.334V36h3.333a.666.666 0 00.666-.667V32c0-.367.3-.667.667-.667h8c.368 0 .667.3.667.667v6.667zM23.333 13.333H22v-2a.666.666 0 00-.667-.666h-2.667a.666.666 0 00-.666.666v2h-1.334V12c0-.973-.529-1.817-1.31-2.283C15.752 9.25 16 8.657 16 8a2.67 2.67 0 00-2.667-2.667A2.67 2.67 0 0010.666 8c0 .657.248 1.251.644 1.717A2.659 2.659 0 0010 12v1.333H5.333V12h2A.667.667 0 008 11.333v-4a.666.666 0 00-.667-.666H2a.666.666 0 00-.667.666v4c0 .368.298.667.667.667h2v1.333H.667A.667.667 0 000 14v2.667c0 .368.298.666.667.666h.666V24c0 .368.298.667.667.667h20a.666.666 0 00.666-.667v-6.667h.667a.666.666 0 00.667-.666V14a.666.666 0 00-.667-.667zm-4-1.333h1.333v1.333h-1.333V12zm-6-5.333a1.334 1.334 0 010 2.666A1.335 1.335 0 0112 8c0-.735.598-1.333 1.333-1.333zm-2 5.333c0-.735.598-1.333 1.333-1.333H14c.735 0 1.333.598 1.333 1.333v1.333h-4V12zm-8.666-1.333V8h4v2.667h-4zm18.666 12.666H2.667v-6h18.666v6zM22.666 16H1.333v-1.333h21.333V16zM39.332 2h-4V.667A.666.666 0 0034.665 0h-4A.666.666 0 0030 .667V2h-4a.666.666 0 00-.667.667v20c0 .368.298.666.667.666h13.333a.666.666 0 00.667-.666v-20A.666.666 0 0039.332 2zm-8-.667h2.667v1.334h-2.667V1.333zm.667 11.334h-1.334V14H32v8h-2.667V6.667H32v6zm4 9.333h-2.667v-8h1.333v-1.333h-1.333v-6h2.667V22zm2.666 0h-1.333V6a.666.666 0 00-.667-.667h-8A.666.666 0 0028 6v16h-1.334V3.333H30c0 .368.298.667.666.667h4a.666.666 0 00.667-.667h3.333V22z" fill="#1D2E3E"/></svg>