<svg width="40" height="40" fill="none" xmlns="http://www.w3.org/2000/svg"><path d="M10.618 36.097a3.339 3.339 0 00-3.285-2.764c-1.312 0-2.45.763-2.993 1.868a2.837 2.837 0 00-.34-.206V24a.667.667 0 00-1.333 0v10.667A2.67 2.67 0 000 37.333 2.67 2.67 0 002.667 40H10c1.103 0 2-.897 2-2 0-.887-.58-1.641-1.382-1.903zM10 38.667H2.667a1.335 1.335 0 01-1.334-1.334c0-.735.598-1.333 1.334-1.333.622 0 1.174.361 1.375.9a.666.666 0 001.291-.233c0-1.103.898-2 2-2 1.103 0 2 .897 2 2 0 .368.299.666.667.666a.668.668 0 010 1.334z" fill="#1D2E3E"/><path d="M39.333 5.333H26.667a.667.667 0 000 1.334h12v14.39L20.47 2.862a.667.667 0 00-.473-.195.667.667 0 00-.473.195L1.333 21.057V6.667h7.334A.667.667 0 009.333 6V3.333a.667.667 0 00-.666-.666H8V1.333h4v1.334h-.667a.667.667 0 00-.666.666V6c0 .368.298.667.666.667h2a.667.667 0 000-1.334H12V4h.667a.667.667 0 00.666-.667V.667A.667.667 0 0012.667 0H7.333a.667.667 0 00-.666.667v2.666c0 .368.298.667.666.667H8v1.333H.667A.665.665 0 000 6l.003 16.667a.667.667 0 001.138.471L19.998 4.274l18.864 18.864A.667.667 0 0040 22.666V6a.667.667 0 00-.667-.667z" fill="#1D2E3E"/><path d="M37.333 34.667V24A.667.667 0 0036 24v10.995c-.118.062-.233.13-.34.206a3.337 3.337 0 00-2.993-1.868 3.339 3.339 0 00-3.285 2.764A2.004 2.004 0 0028 38c0 .235.048.457.123.667H16.667a.667.667 0 000 1.333h20.666A2.67 2.67 0 0040 37.333a2.67 2.67 0 00-2.667-2.666zm0 4H30a.668.668 0 010-1.334.667.667 0 00.667-.666c0-1.103.897-2 2-2 1.102 0 2 .897 2 2a.666.666 0 001.29.233c.202-.539.754-.9 1.376-.9a1.335 1.335 0 010 2.667zM22.667 13.333A2.67 2.67 0 0020 10.667a2.67 2.67 0 00-2.667 2.666A2.67 2.67 0 0020 16a2.67 2.67 0 002.667-2.667zm-4 0c0-.735.598-1.333 1.333-1.333a1.335 1.335 0 010 2.667 1.335 1.335 0 01-1.333-1.334z" fill="#1D2E3E"/><path d="M32.667 22.667h-5.334a.667.667 0 00-.666.666v7.334H26A.667.667 0 0026 32h8a.667.667 0 000-1.333h-.667v-7.334a.667.667 0 00-.666-.666zm-.667 8h-4V28h4v2.667zm0-4h-4V24h4v2.667z" fill="#1D2E3E"/><path d="M26.667 36.667A.667.667 0 0026 36h-2V23.333a.667.667 0 00-.666-.666h-6.667a.667.667 0 00-.667.666V36h-2a.667.667 0 00-.666.667v2.666a.667.667 0 001.333 0v-2H26a.667.667 0 00.667-.666zm-4-7.334H22a.667.667 0 000 1.334h.667V36h-5.334V24h5.334v5.333z" fill="#1D2E3E"/><path d="M12.667 22.667H7.333a.667.667 0 00-.666.666v7.334H6A.667.667 0 006 32h8a.667.667 0 000-1.333h-.667v-7.334a.667.667 0 00-.666-.666zm-.667 8H8V28h4v2.667zm0-4H8V24h4v2.667z" fill="#1D2E3E"/></svg>