<svg width="40" height="39" fill="none" xmlns="http://www.w3.org/2000/svg"><path d="M39.472 7.395a1.577 1.577 0 00-.348-.732 1.445 1.445 0 00-.653-.438 1.372 1.372 0 00-.772-.022 1.433 1.433 0 00-.674.402l-.13-.969a1.824 1.824 0 00-.565-1.092 1.635 1.635 0 00-1.1-.439c-.376 0-.741.134-1.036.381V.684a.706.706 0 00-.19-.484.627.627 0 00-.456-.2H20.645a.627.627 0 00-.456.2.706.706 0 00-.189.484v13.684c0 .182.068.356.189.484s.285.2.456.2h5.01c.078.087.162.165.253.235l3.77 2.855v3.753c0 .181.067.355.188.483a.625.625 0 00.457.201h1.29v15.737c0 .181.068.355.189.483.12.129.285.2.456.201h5.806a.627.627 0 00.457-.2.706.706 0 00.189-.484V22.579h.645a.627.627 0 00.456-.2.706.706 0 00.189-.484V10.263a.72.72 0 00-.013-.134l-.515-2.734zm-14.309 6.29H21.29V1.367h11.613v2.297a1.718 1.718 0 00-.877-.244c-.216 0-.43.044-.629.132-.2.087-.38.216-.532.378a1.77 1.77 0 00-.397.682 1.85 1.85 0 00-.068.797l.127.944a1.484 1.484 0 00-.83-.562 1.413 1.413 0 00-.98.11 1.537 1.537 0 00-.7.735c-.149.321-.19.687-.116 1.037l.92 4.394-.851-.226a2.509 2.509 0 00-1.822.212 1.813 1.813 0 00-.706.67 1.97 1.97 0 00-.279.96zm1.289.062a.55.55 0 01.073-.276.503.503 0 01.2-.193c.288-.153.619-.191.932-.109l1.443.383.37 2.751-2.811-2.13a.516.516 0 01-.152-.187.551.551 0 01-.055-.24zm10.967 23.885h-4.516V22.579h4.516v15.053zm1.29-16.421h-7.741V17.79a.725.725 0 00-.007-.097l-.645-4.79h-.001c-.003-.017-.004-.034-.008-.051L29.16 7.377a.224.224 0 01.018-.145.205.205 0 01.103-.098.19.19 0 01.138-.004.203.203 0 01.108.092L31.06 9.93a.655.655 0 00.335.292.61.61 0 00.434 0 .655.655 0 00.336-.29.718.718 0 00.087-.45l-.575-4.266a.398.398 0 01.1-.318.35.35 0 01.25-.11.5.5 0 01.31.112c.09.071.156.172.187.287l1.05 3.895a.682.682 0 00.268.385.616.616 0 00.838-.124.708.708 0 00.159-.45V5.89a.43.43 0 01.105-.283.376.376 0 01.532-.04c.077.066.127.16.142.264l.518 3.846a.698.698 0 00.203.408.62.62 0 00.819.045.688.688 0 00.242-.384l.493-2.09a.171.171 0 01.058-.094.155.155 0 01.201.005c.028.025.047.06.055.098l.503 2.667v10.88z" fill="#1D2E3E"/><path d="M27.333 23.902h-4.045a3.822 3.822 0 011.01-.759 5.25 5.25 0 002.298-2.366l1.334-2.745-1.193-.613-1.333 2.745a3.887 3.887 0 01-1.702 1.752 5.238 5.238 0 00-2.094 1.986H20.02l.16-.655c.12-.49.35-.944.673-1.324a3.11 3.11 0 011.183-.865 4.437 4.437 0 001.522-1.047c.432-.454.767-.995.984-1.59l.416-1.14-1.249-.483-.416 1.142a3.215 3.215 0 01-.687 1.111 3.104 3.104 0 01-1.065.732 4.45 4.45 0 00-1.693 1.238 4.624 4.624 0 00-.962 1.893l-.24.988h-1.684l1.05-2.883c.16-.44.409-.84.728-1.176a3.27 3.27 0 011.126-.774 4.129 4.129 0 002.05-1.86l-1.166-.666a2.778 2.778 0 01-1.379 1.251 4.62 4.62 0 00-1.584 1.09 4.782 4.782 0 00-1.023 1.653l-1.226 3.365h-.871v-1.934l1.345-3.694c.16-.44.409-.84.728-1.176a3.27 3.27 0 011.126-.774c.157-.065.309-.139.456-.223l-.644-1.201c-.1.056-.202.106-.307.15a4.62 4.62 0 00-1.584 1.088 4.78 4.78 0 00-1.023 1.654l-.097.266v-2.87l.485-.75a2.763 2.763 0 011.63-1.182 4.04 4.04 0 001.03-.424l-.659-1.194a2.723 2.723 0 01-.694.287 4.058 4.058 0 00-1.792.998v-1.649a8.927 8.927 0 002.948-2.767l-1.099-.778a7.568 7.568 0 01-2.679 2.447h-1.69a7.723 7.723 0 002.577-2.347l-1.086-.796a6.36 6.36 0 01-2.31 2.036l-2.152 1.107H6.511l.483-.829c.22-.374.53-.684.899-.899.369-.215.786-.33 1.21-.33a3.723 3.723 0 001.696-.415 3.84 3.84 0 001.339-1.147 2.909 2.909 0 011.014-.87 2.82 2.82 0 011.285-.313H18V4h-3.563a4.129 4.129 0 00-1.88.46 4.25 4.25 0 00-1.486 1.272 2.49 2.49 0 01-.868.745 2.414 2.414 0 01-1.1.268 3.728 3.728 0 00-1.867.51 3.85 3.85 0 00-1.385 1.386l-.895 1.535H.666a.657.657 0 00-.47.201.697.697 0 00-.196.486v27.45c0 .183.07.357.195.486A.657.657 0 00.667 39h26.666a.657.657 0 00.472-.201.697.697 0 00.195-.485V24.588a.697.697 0 00-.195-.485.658.658 0 00-.472-.201zm-26-12.353h12v12.353h-12V11.549zm0 13.726h12v12.352h-12V25.274zm25.334 12.352h-12V25.274h12v12.353z" fill="#1D2E3E"/></svg>