<svg width="40" height="40" fill="none" xmlns="http://www.w3.org/2000/svg"><path d="M36.663 34.194c-.615 0-.891-.215-1.275-.51-.45-.348-1.009-.78-2.063-.78-1.055 0-1.614.432-2.063.78-.383.295-.659.51-1.272.51s-.89-.215-1.272-.51c-.449-.348-1.007-.78-2.061-.78s-1.613.432-2.062.78c-.383.295-.659.51-1.272.51s-.89-.215-1.272-.51c-.45-.348-1.007-.78-2.061-.78s-1.613.432-2.062.78c-.383.295-.659.51-1.272.51s-.889-.215-1.271-.51c-.45-.348-1.008-.78-2.062-.78-1.054 0-1.613.432-2.061.78-.383.295-.659.51-1.271.51-.612 0-.887-.214-1.27-.51-.448-.348-1.006-.78-2.06-.78s-1.613.432-2.061.78c-.383.295-.659.51-1.271.51-.612 0-.888-.214-1.27-.51-.448-.348-1.006-.78-2.059-.78v1.29c.612 0 .888.213 1.27.51.448.347 1.006.78 2.059.78 1.054 0 1.612-.433 2.06-.78.383-.296.66-.51 1.272-.51s.888.214 1.27.51c.449.347 1.007.78 2.06.78 1.053 0 1.612-.433 2.06-.78.383-.296.66-.51 1.272-.51s.89.214 1.272.51c.449.347 1.008.78 2.061.78 1.054 0 1.612-.433 2.061-.78.383-.296.66-.51 1.273-.51.612 0 .889.214 1.271.51.45.347 1.008.78 2.062.78 1.053 0 1.613-.433 2.061-.78.383-.296.66-.51 1.273-.51.612 0 .889.214 1.271.51.45.347 1.008.78 2.062.78 1.053 0 1.613-.432 2.062-.78.382-.296.659-.51 1.273-.51.614 0 .89.214 1.274.51.45.348 1.009.78 2.064.78 1.054 0 1.613-.432 2.062-.78.384-.296.66-.51 1.275-.51v-1.29c-1.055 0-1.614.431-2.063.78-.384.295-.66.51-1.274.51zm0 4.516c-.615 0-.891-.215-1.275-.51-.45-.348-1.009-.78-2.063-.78-1.055 0-1.614.432-2.063.78-.383.295-.659.51-1.272.51s-.89-.215-1.272-.51c-.449-.348-1.007-.78-2.061-.78s-1.613.432-2.062.78c-.383.295-.659.51-1.272.51s-.89-.215-1.272-.51c-.45-.348-1.007-.78-2.061-.78s-1.613.432-2.062.78c-.383.295-.659.51-1.272.51s-.889-.215-1.271-.51c-.45-.348-1.008-.78-2.062-.78-1.054 0-1.613.432-2.061.78-.383.295-.659.51-1.271.51-.612 0-.887-.214-1.27-.51-.448-.348-1.006-.78-2.06-.78s-1.613.432-2.061.78c-.383.295-.659.51-1.271.51-.612 0-.888-.214-1.27-.51-.448-.348-1.006-.78-2.059-.78v1.29c.612 0 .888.213 1.27.51.448.347 1.006.78 2.059.78 1.054 0 1.612-.433 2.06-.78.383-.296.66-.51 1.272-.51s.888.214 1.27.51c.449.347 1.007.78 2.06.78 1.053 0 1.612-.433 2.06-.78.383-.296.66-.51 1.272-.51s.89.214 1.272.51c.449.347 1.008.78 2.061.78 1.054 0 1.612-.433 2.061-.78.383-.296.66-.51 1.273-.51.612 0 .889.214 1.271.51.45.347 1.008.78 2.062.78 1.053 0 1.613-.433 2.061-.78.383-.296.66-.51 1.273-.51.612 0 .889.214 1.271.51.45.347 1.008.78 2.062.78 1.053 0 1.613-.432 2.062-.78.382-.296.659-.51 1.273-.51.614 0 .89.214 1.274.51.45.348 1.009.78 2.064.78 1.054 0 1.613-.432 2.062-.78.384-.296.66-.51 1.275-.51v-1.29c-1.055 0-1.614.432-2.063.78-.384.295-.66.51-1.274.51zm-.534-25.162v-2.58H40V8.733l-8.387-7.097V0h-1.29v1.636l-8.387 7.097v2.235h3.87v2.58h3.226v9.033h-3.87V18.71a1.938 1.938 0 00-1.936-1.936 1.938 1.938 0 00-1.936 1.936v3.87h-3.87v-3.87a1.938 1.938 0 00-1.936-1.936 1.938 1.938 0 00-1.936 1.936v3.87h-2.58v-9.032h3.226v-2.58h3.87V8.733L9.677 1.636V0h-1.29v1.636L0 8.733v2.235h3.871v2.58h3.226v9.033H0v3.87h16.129v3.147c-.282-.086-.494-.237-.744-.43-.45-.348-1.008-.78-2.062-.78-1.054 0-1.613.432-2.061.78-.383.295-.659.51-1.271.51-.612 0-.887-.214-1.27-.51-.448-.348-1.006-.78-2.06-.78s-1.613.432-2.061.78c-.383.295-.659.51-1.271.51-.612 0-.888-.214-1.27-.51-.448-.348-1.006-.78-2.059-.78v1.29c.612 0 .888.213 1.27.51.448.347 1.006.78 2.059.78 1.054 0 1.612-.433 2.06-.78.383-.296.66-.51 1.272-.51s.888.214 1.27.51c.449.347 1.007.78 2.06.78 1.053 0 1.612-.433 2.06-.78.383-.296.66-.51 1.272-.51s.89.214 1.272.51c.367.283.811.62 1.534.735v.045a.645.645 0 01-.645.645v1.29a1.938 1.938 0 001.935-1.935v-1.936h6.452v1.936c0 .356-.29.645-.645.645v1.29a1.938 1.938 0 001.935-1.935v-.622c.073-.054.152-.103.224-.158.382-.296.659-.51 1.272-.51.612 0 .889.214 1.271.51.45.347 1.008.78 2.062.78 1.053 0 1.613-.433 2.062-.78.382-.296.659-.51 1.273-.51.614 0 .89.214 1.274.51.45.348 1.009.78 2.064.78 1.054 0 1.613-.433 2.062-.78.384-.296.66-.51 1.275-.51v-1.29c-1.055 0-1.614.431-2.063.78-.384.295-.66.51-1.274.51-.615 0-.891-.215-1.275-.51-.45-.349-1.009-.78-2.063-.78-1.055 0-1.614.432-2.063.78-.383.295-.659.51-1.272.51s-.89-.215-1.272-.51c-.449-.348-1.007-.78-2.061-.78-.663 0-1.13.17-1.496.384v-2.32H40V22.58h-7.097v-9.033h3.226zm2.58-3.87h-4.684L32.232 3.85l6.478 5.482v.345zm-6.034 0H28.68l2.22-5.77 1.775 5.768zm-9.45-.346l6.236-5.277L27.3 9.677h-4.073v-.345zm3.872 1.636h7.742v1.29h-7.742v-1.29zM22.58 18.71a.646.646 0 011.29 0v3.87h-1.29v-3.87zm1.29 5.161v1.29h-6.452v-1.29h6.452zm-9.032-5.161a.646.646 0 011.29 0v3.87h-1.29v-3.87zm1.935-9.033H12.09L10.297 3.85l6.477 5.482v.345zm-6.035 0H6.746L8.965 3.91l1.774 5.768zM1.29 9.332l6.236-5.277-2.163 5.622H1.29v-.345zm3.871 1.636h7.742v1.29H5.161v-1.29zm3.226 2.58h1.29v9.033h-1.29v-9.033zM1.29 25.161v-1.29h14.84v1.29H1.29zm22.581 2.58h-6.452v-1.29h6.452v1.29zm14.839-2.58H25.16v-1.29h13.55v1.29zm-7.097-2.58h-1.29v-9.033h1.29v9.033z" fill="#1D2E3E"/></svg>