<svg width="816" height="133" viewBox="0 0 816 133" fill="none" xmlns="http://www.w3.org/2000/svg">
<path d="M2.56835 18.9488C49.9107 -7.93815 61.2104 31.0914 53.021 42.084C44.8315 53.0765 27.1464 53.2284 18.2848 40.3746C12.0082 31.3513 10.0043 23.2562 2.56835 18.9488Z" fill="#BBD645"/>
<path d="M808.72 80.3791C797.971 123.909 768.241 108.553 766.309 97.43C764.378 86.3074 774.306 75.6503 787.01 77.6353C795.959 78.9954 801.933 82.3836 808.72 80.3791Z" fill="#BBD645"/>
<path d="M575.966 5.85955C544.143 5.04677 549.076 28.2865 556.329 31.697C563.582 35.1075 572.743 30.3106 573.769 21.2399C574.517 14.857 573.319 10.1305 575.966 5.85955Z" fill="#BBD645"/>
<path d="M245.585 90.6372C272.343 73.3931 280.216 95.8082 275.795 102.493C271.373 109.178 261.054 109.845 255.46 102.631C251.501 97.5689 250.067 92.9086 245.585 90.6372Z" fill="#BBD645"/>
<path d="M58.4057 5.18779C33.4721 15.6858 45.4193 31.9619 52.2299 32.0674C59.0405 32.173 64.4589 25.254 62.0818 17.8694C60.4299 12.6635 57.849 9.42144 58.4057 5.18779Z" fill="#DCF375"/>
<path d="M531.962 5.57946C555.304 3.41527 552.824 20.7334 547.663 23.5964C542.502 26.4594 535.535 23.3859 534.334 16.7718C533.47 12.1189 534.117 8.58715 531.962 5.57946Z" fill="#DCF375"/>
<path d="M283.024 67.5147C261.962 77.8052 273.086 91.3074 278.984 91.0686C284.881 90.8299 289.233 84.5815 286.819 78.3079C285.138 73.8841 282.748 71.2043 283.024 67.5147Z" fill="#DCF375"/>
<path d="M318.145 10.9538C295.154 -3.30534 288.794 15.857 292.65 21.4724C296.505 27.0878 305.283 27.5027 309.93 21.2906C313.22 16.9308 314.37 12.9498 318.145 10.9538Z" fill="#DCF375"/>
<path d="M445.97 126.61C470.134 138.775 474.771 119.124 470.433 113.873C466.096 108.621 457.315 108.986 453.237 115.585C450.347 120.22 449.554 124.287 445.97 126.61Z" fill="#DCF375"/>
<path d="M415.486 38.7479C389.974 29.7446 387.867 49.8245 392.835 54.4837C397.804 59.1429 406.468 57.6679 409.676 50.6045C411.955 45.6412 412.226 41.5062 415.486 38.7479Z" fill="#DCF375"/>
<path d="M608.706 94.7489C634.218 85.7456 636.325 105.826 631.357 110.485C626.388 115.144 617.725 113.669 614.516 106.606C612.237 101.642 611.966 97.5072 608.706 94.7489Z" fill="#DCF375"/>
</svg>
