<svg xmlns="http://www.w3.org/2000/svg" width="46" height="55"><path fill-rule="evenodd" fill="#FFB619" d="M38.18 51.906h-.01l-4.726.006c-.081-.19-.237-.718-.239-1.979-.002-1.261.152-1.791.233-1.981l4.662-.007a.372.372 0 00.176-.15.304.304 0 00.004-.303 5.14 5.14 0 00-4.501-2.628 5.123 5.123 0 00-3.623 1.49c-.497.494-.877 1.073-.906 2.196H16.968c-.758-2.36-2.605-3.685-4.765-3.685a5.139 5.139 0 00-4.493 2.643.304.304 0 00.271.451l4.573-.007c.082.19.237.719.238 1.98.003 1.261-.152 1.79-.232 1.98l-4.571.007c-.11 0-.211.058-.266.781-.056-.538-.058-.423-.005-.329A5.139 5.139 0 0012.212 55h.007a5.121 5.121 0 003.623-1.49c.498-.35.878-1.072 1.131-1.701H29.3c.487 1.867 2.333 3.19 4.487 3.19h.008a5.136 5.136 0 004.493-2.642c.053-.094.05-.21-.005.193-.056-.588-.156-.644-.103-.644z"/><path fill-rule="evenodd" fill="#1C3E9B" d="M45.95 45.212c-.064.176-1.056 2.696-6.014 4.723a2.463 2.463 0 00-1.114-.784 2.451 2.451 0 001.289-1.04 2.375 2.375 0 00.038-2.382c-1.279-2.278-3.722-3.369-6.378-3.369h-.003c-1.941.02-3.368.422-5.135 1.77-.335.33-.634.686-.894 1.067h-9.485c-1.331-1.957-3.572-2.837-6.044-2.837-2.657.03-5.098 1.102-6.372 3.389a2.373 2.373 0 00.044 2.381c.296.488.759.853 1.292 1.037-.429.152-.811.42-.404.774C1.106 47.912.112 45.388.48 45.212c-.48.568-.36-.278-.38-.419.142-1.42 1.456-8.602 4.461-10.586 1.776-.867 8.072-4.498 10.696-5.873a.885.885 0 01.946.081c1.39 1.071 2.915 1.793 4.529 2.145.438.063.52.261.623 1.33l1.644 3.447 1.644-3.447c.103-1.069.337-1.267.622-1.33 1.615-.352 3.139-1.074 4.53-2.145.865-.208.642-.24.945-.081l.045.024c2.656 1.391 8.876 5.242 10.659 5.853 3.106 1.764 3.912 6.728 4.544 10.581.122.141.01.988-.038.42zM22.999 29.609c-3.695 0-12.383-4.359-12.383-14.805 0-1.457.036-2.865.158-4.194.201-2.619.749-4.938 2.111-6.717C14.631 1.475 17.687 0 22.999 0c5.313 0 8.369 1.476 10.115 3.895 1.362 1.777 2.116 4.097 2.11 6.714.121 1.33.158 2.738.158 4.194 0 10.447-8.688 14.806-12.383 14.806zM18.956 5.423c.361.894.543 1.34.903 2.234 2.329-.537 3.95-.537 6.28 0 .36-.894.541-1.34 1.271-2.234-3.282-.865-5.54-.865-8.454 0zm14.584 7.116c-.143.305-.749 1.661-1.687 1.592-1.079.127-2.869-3.745-8.854-3.754-5.859.009-7.775 3.881-8.854 3.754-.938.079-1.545-1.287-1.687-1.592a76.86 76.86 0 00-.039 2.265c0 5.106 2.3 8.926 4.229 10.024 3.142 2.572 5.13 3.014 6.351 3.014s3.92-.442 6.352-3.014c1.929-1.098 4.229-4.918 4.229-10.024 0-.334-.011-1.515-.04-2.265z"/></svg>