<svg width="40" height="40" fill="none" xmlns="http://www.w3.org/2000/svg"><mask id="mask0" maskUnits="userSpaceOnUse" x="0" y="0" width="40" height="40"><path d="M20 40c11.045 0 20-8.955 20-20 0-4.04-1.197-7.798-3.256-10.942-.578-.882-1.811-.945-2.557-.2L8.858 34.188c-.745.745-.682 1.978.2 2.556A19.906 19.906 0 0020 39.999z" fill="#fff"/><path fill-rule="evenodd" clip-rule="evenodd" d="M34.895 9.565l-25.33 25.33c-.347.347-.252.82.04 1.012l-.522.798.523-.798A18.907 18.907 0 0020 39c10.493 0 19-8.507 19-19a18.9 18.9 0 00-3.093-10.394c-.191-.293-.665-.388-1.012-.04zm1.849-.507A19.906 19.906 0 0140 20c0 11.045-8.955 20-20 20a19.906 19.906 0 01-10.942-3.256c-.882-.578-.945-1.811-.2-2.557l25.33-25.329c.745-.745 1.978-.682 2.556.2z" fill="#1D2E3E"/><path d="M20 0C8.954 0 0 8.954 0 20a19.91 19.91 0 003.892 11.857c.605.82 1.789.85 2.51.13L31.986 6.4c.72-.72.69-1.904-.13-2.509A19.91 19.91 0 0020 0z" fill="#fff"/><path fill-rule="evenodd" clip-rule="evenodd" d="M4.697 31.264c.203.275.663.35.997.015L31.28 5.694c.335-.334.26-.794-.015-.997A18.91 18.91 0 0020 1C9.507 1 1 9.507 1 20a18.91 18.91 0 003.697 11.264zM0 20C0 8.954 8.954 0 20 0a19.91 19.91 0 0111.857 3.892c.82.605.85 1.79.13 2.51L6.4 31.985c-.72.72-1.904.69-2.509-.129A19.91 19.91 0 010 20z" fill="#1D2E3E"/></mask><g mask="url(#mask0)" fill="#1D2E3E"><path d="M19.404 10.687l-.921.958c.02.02.04.038.062.056l.859-1.014zm1.2 2.837a1.33 1.33 0 001.779-1.976l-1.779 1.976zm1.016-3.42a1.33 1.33 0 10-2.044-1.702l2.044 1.701zm-9.082-2.126l.276 1.3-.276-1.3zm3.12-1.71a1.33 1.33 0 10-2.658 0h2.659zM8.703 7.715a1.33 1.33 0 00-1.88 1.88l1.88-1.88zm-3.328 6.178a1.33 1.33 0 100 2.66v-2.66zM9.35 24.031a1.33 1.33 0 002.197-1.498L9.35 24.031zm-.095-2.659l1.155-.658-1.155.658zm-2.447-.142a1.33 1.33 0 001.31 2.314l-1.31-2.314zm23.419-4.128a1.33 1.33 0 00-1.702 2.043l1.702-2.043zm2.553 2.436a1.33 1.33 0 00-1.678-2.063l1.678 2.063zm-1.95 11.396l1.061.802-1.06-.802zm3.546-4.83a1.33 1.33 0 100-2.659v2.66zm-4.297 5.537l-.854-1.02.854 1.02zm.569-.504l.907.972-.907-.972zm-.781 2.461a1.33 1.33 0 002.143-1.573l-2.143 1.573zm-6.284.417l.085-1.327-.085 1.327zm-1.47 1.822a1.33 1.33 0 002.651.199l-2.651-.2zm-3.929-5.782a1.33 1.33 0 00-1.991 1.762l1.991-1.762zm.026 1.785l.817-1.048-.817 1.048zm-2.062.456a1.33 1.33 0 102.08 1.656l-2.08-1.656zM18.545 11.7c.659.558 1.334 1.17 2.059 1.823l1.779-1.976c-.71-.64-1.422-1.285-2.12-1.876l-1.718 2.03zm1.88-.164l1.195-1.434-2.044-1.701-1.194 1.434 2.044 1.701zm-7.61-2.259c-.012.003.036-.006.17-.012a7.32 7.32 0 01.425-.002c.317.007.639.026.822.04l.194-2.652a17.76 17.76 0 00-.962-.046c-.33-.007-.829-.008-1.202.071l.552 2.601zm1.417.026c1.883.138 2.78.928 4.25 2.341l1.843-1.917c-1.514-1.455-3.006-2.864-5.899-3.076l-.194 2.652zm1.427-1.326v-1.71h-2.66v1.71h2.66zm-5.872 2.91c.746-.597 1.184-.915 1.587-1.13.374-.2.766-.337 1.44-.48l-.552-2.6c-.818.173-1.471.376-2.141.734-.642.343-1.249.802-1.995 1.4l1.66 2.076zm.11-1.978L8.701 7.715l-1.88 1.88 1.194 1.195 1.88-1.88zm-1.562 6.169c-.102-.939-.08-1.539.103-2.104.187-.574.588-1.248 1.492-2.22l-1.948-1.81c-1.038 1.116-1.718 2.12-2.072 3.206-.356 1.094-.335 2.136-.218 3.216l2.643-.288zm-1.321-1.186h-1.64v2.66h1.64v-2.66zm4.533 8.64a26.82 26.82 0 01-1.137-1.819L8.1 22.031c.415.729.843 1.404 1.25 2l2.197-1.498zm-1.137-1.819c-1.017-1.785-1.875-3.803-2.075-5.635l-2.643.287c.257 2.36 1.316 4.75 2.407 6.665l2.31-1.317zm-1.81-.498L6.807 21.23l1.31 2.314 1.792-1.015-1.31-2.313zm23.195-1.556c-.645-.827-1.177-1.232-1.568-1.558l-1.702 2.043c.417.348.73.582 1.174 1.15l2.096-1.636zm-.209 1.849l1.194-.971-1.678-2.063-1.194.971 1.678 2.063zm.305 11.227c1.851-2.45 2.468-4.858 2.328-7.046l-2.653.17c.096 1.514-.306 3.3-1.796 5.273l2.121 1.603zm2.328-7.046c-.16-2.532-1.322-4.62-2.424-6.03L29.7 20.296c.903 1.156 1.751 2.743 1.867 4.563l2.653-.169zm-1.327 1.414h1.484v-2.659h-1.483v2.66zm-1.959 6.556c.208-.175.415-.358.622-.55l-1.814-1.945c-.173.161-.345.313-.516.457l1.708 2.038zm-1.926-.233l.86 1.171 2.143-1.573-.86-1.171-2.143 1.573zm-5.51 2.915c2.376.152 5.106-.73 7.436-2.682l-1.708-2.038c-1.867 1.565-3.94 2.17-5.557 2.066l-.17 2.654zm-1.24-1.427l-.144 1.922 2.651.199.145-1.922-2.652-.2zm-6.064-2.098c.211.24.368.406.572.58.16.136.378.297.627.492l1.636-2.097c-.343-.267-.436-.332-.54-.42a2.913 2.913 0 01-.304-.317l-1.991 1.762zm1.2 1.072c1.522 1.187 3.635 2.294 6.105 2.453l.17-2.654c-1.78-.115-3.397-.926-4.64-1.896l-1.636 2.097zm-.223-1.877l-1.022 1.284 2.08 1.656 1.022-1.283-2.08-1.656zm12.6-.88a.243.243 0 01-.03.033l1.815 1.944c.122-.114.235-.24.336-.373l-2.121-1.603zM3.893 31.857l2.14-1.578-2.14 1.578zM31.858 3.891l1.578-2.14-1.578 2.14zM6.402 31.985l1.88 1.88-1.88-1.88zM31.987 6.4l1.88 1.88-1.88-1.88zM9.06 36.743l1.457-2.225-1.457 2.225zM36.745 9.057L38.97 7.6l-2.225 1.457zM8.86 34.187l1.88 1.88-1.88-1.88zm25.33-25.33l1.88 1.88-1.88-1.88zM37.342 20c0 9.577-7.764 17.34-17.341 17.34v5.319c12.514 0 22.659-10.145 22.659-22.66h-5.318zM2.66 20c0-9.577 7.764-17.341 17.34-17.341V-2.66C7.488-2.66-2.657 7.485-2.657 19.999H2.66zm3.373 10.279a17.251 17.251 0 01-3.373-10.28h-5.318a22.57 22.57 0 004.411 13.436l4.28-3.156zm13.968-27.62a17.25 17.25 0 0110.28 3.373l3.155-4.28A22.57 22.57 0 0020.001-2.66v5.318zM8.282 33.866L33.868 8.28l-3.76-3.76L4.521 30.105l3.76 3.76zm11.719 3.474c-3.506 0-6.76-1.038-9.485-2.822l-2.914 4.45a22.565 22.565 0 0012.399 3.69V37.34zm14.52-26.826a17.247 17.247 0 012.82 9.485h5.319c0-4.572-1.357-8.835-3.69-12.399l-4.45 2.914zM10.74 36.067l25.329-25.33-3.76-3.76-25.33 25.33 3.76 3.76zM38.97 7.6c-1.604-2.448-4.858-2.426-6.662-.623l3.76 3.76a.929.929 0 01-.722.263 1.095 1.095 0 01-.825-.486L38.97 7.6zM10.516 34.518c.3.197.465.526.486.826a.929.929 0 01-.262.723l-3.76-3.76c-1.804 1.802-1.826 5.057.622 6.66l2.914-4.449zM30.28 6.031a1.088 1.088 0 01-.436-.814.925.925 0 01.263-.697l3.76 3.76c1.747-1.745 1.837-4.857-.43-6.529l-3.157 4.28zM1.753 33.434c1.672 2.267 4.784 2.177 6.53.432l-3.761-3.761a.926.926 0 01.697-.264c.288.013.608.158.814.437l-4.28 3.156z"/><path fill-rule="evenodd" clip-rule="evenodd" d="M13.75 14.078a.295.295 0 100 .59.295.295 0 000-.59zm-3.295.296a3.295 3.295 0 116.59 0 3.295 3.295 0 01-6.59 0zm15.17 11.579a.92.92 0 100 1.841.92.92 0 000-1.84zm-3.92.92a3.92 3.92 0 117.841 0 3.92 3.92 0 01-7.84 0z"/><path fill-rule="evenodd" clip-rule="evenodd" d="M20-2.875C7.366-2.875-2.875 7.366-2.875 20c0 12.633 10.241 22.875 22.875 22.875S42.875 32.633 42.875 20C42.875 7.366 32.634-2.875 20-2.875zM-5.875 20C-5.875 5.71 5.71-5.875 20-5.875S45.875 5.71 45.875 20 34.29 45.875 20 45.875-5.875 34.29-5.875 20z"/></g></svg>