<svg width="43" height="37" fill="none" xmlns="http://www.w3.org/2000/svg"><path d="M30.56 17.503l-.59-.807-.209.153-.108.235.907.42zM40.794 11.4l.423.906-.423-.905zm-.964-4.014l.424.906-.424-.906zm-9.74 5.57l-.781.626.581.726.767-.528-.567-.823zm-.074-.092l.753-.658-.003-.004-.75.662zm-2.956-1.082l-.951.31.264.81.842-.132-.155-.988zM21.657 1.677l-.795.607.795-.607zM19.094 4.62l.795-.607-.794.607zm4.93 9.837l.797.604.297-.392-.13-.475-.964.263zm-3.088 4.058l-.75.662.804.91.739-.963-.793-.609zm-4.854-3.736l.44-.898-.44.898zM8.15 22.652l.915.404-.915-.404zm-.073 2.241l.497.869.748-.428-.313-.804-.932.363zM2.614 29.67l.784.621-.784-.62zm3.203 3.677l-.784-.621.784.621zm14.41-4.533l.336-.942-.337.942zm2.554-1.318l-.48-.878-.317.174-.133.336.93.368zm.916-.788l-.795-.607v.002l.795.605zm6.344-8.326l-.8-.6.8.6zm-12.003 4.584l-.14.99.898.127.214-.881-.972-.236zm-4.918.08l-.885-.464-.949 1.808 2.01-.359-.176-.984zm2.079-2.974l.539-.842-.685-.438-.569.581.715.7zm2.922 2.597l.954.298.16-.51-.336-.417-.778.629zm19.37-.667a1 1 0 00-2 .037l2-.037zm-8.008 7.001a1 1 0 10.12 1.996l-.12-1.996zm13.23-8.468a1 1 0 10-2 .033l2-.033zm-14.51 14.467A1 1 0 1028.32 37l-.118-1.997zM31.15 18.31c3.2-2.342 6.555-4.362 10.066-6.004l-.847-1.811c-3.639 1.7-7.106 3.79-10.4 6.201l1.181 1.614zm10.066-6.004c1.654-.773 1.98-2.624 1.68-3.896-.155-.661-.51-1.35-1.13-1.783-.676-.474-1.524-.538-2.36-.147l.847 1.812c.246-.115.326-.055.367-.027.098.069.248.26.33.604.174.739-.1 1.401-.58 1.626l.846 1.811zm-1.81-5.826a68.417 68.417 0 00-9.885 5.653l1.135 1.647a66.414 66.414 0 019.597-5.488l-.847-1.812zm-8.536 5.852l-.002-.002-.004-.005a.47.47 0 01-.008-.01l-.01-.014a1.857 1.857 0 00-.078-.095l-1.506 1.316c-.008-.01-.011-.014-.003-.003l.007.01.01.013.032.04 1.561-1.25zm-.105-.13a4.313 4.313 0 00-3.861-1.408l.31 1.976a2.313 2.313 0 012.051.755l1.5-1.323zm-2.755-.73c-1.253-3.851-3.187-7.298-5.56-10.402l-1.588 1.215c2.256 2.951 4.073 6.2 5.246 9.806l1.902-.618zM22.451 1.07c-.55-.722-1.3-1.112-2.118-1.066-.77.043-1.42.464-1.867.979-.882 1.016-1.281 2.786-.166 4.245l1.589-1.215c-.42-.55-.31-1.262.087-1.72.193-.223.375-.287.47-.293.046-.002.196-.004.416.284l1.59-1.214zM18.3 5.228c2.156 2.822 3.795 5.96 4.759 9.493l1.93-.527c-1.039-3.806-2.803-7.174-5.1-10.18L18.3 5.227zm4.926 8.626a757.804 757.804 0 01-3.084 4.052l1.587 1.218a761.594 761.594 0 003.092-4.063l-1.595-1.207zm-1.54 4c-1.462-1.654-3.187-3.006-5.164-3.973l-.879 1.796c1.725.844 3.244 2.029 4.543 3.5l1.5-1.324zm-5.164-3.973c-1.222-.598-2.422-.439-3.46.117-.995.533-1.863 1.433-2.592 2.394-1.463 1.93-2.606 4.429-3.236 5.857l1.83.806c.632-1.432 1.694-3.732 3-5.454.656-.865 1.315-1.504 1.941-1.84.582-.31 1.097-.348 1.638-.083l.879-1.797zm-9.287 8.367c-.468 1.06-.438 2.118-.09 3.008l1.863-.726c-.162-.415-.189-.92.056-1.474l-1.83-.808zm.345 1.777c-2.116 1.21-4.06 2.89-5.75 5.025l1.568 1.24c1.542-1.947 3.295-3.453 5.175-4.528l-.993-1.737zM1.83 29.05c-1.342 1.694-.888 3.775.156 4.977.528.608 1.283 1.087 2.16 1.143.923.058 1.792-.363 2.455-1.201l-1.568-1.241c-.322.406-.591.457-.76.446-.214-.014-.505-.145-.777-.458-.555-.64-.718-1.642-.098-2.424L1.83 29.05zm4.77 4.92c1.83-2.31 3.905-3.796 6.114-4.495 2.204-.697 4.617-.633 7.176.282l.673-1.884c-2.922-1.044-5.785-1.148-8.451-.305-2.66.841-5.05 2.6-7.079 5.159l1.568 1.242zm13.29-4.214c.878.315 1.725.228 2.428-.186.672-.395 1.129-1.037 1.393-1.706l-1.86-.735c-.144.366-.35.602-.547.717-.165.098-.39.153-.74.027l-.675 1.883zm3.371-1.382c.458-.25.882-.599 1.232-1.06l-1.592-1.21c-.17.224-.374.392-.6.515l.96 1.755zm1.231-1.058c2.11-2.765 4.253-5.533 6.35-8.334l-1.601-1.198c-2.09 2.791-4.217 5.538-6.339 8.318l1.59 1.214zm6.35-8.334c.251-.335.457-.693.626-1.058l-1.815-.84a3.876 3.876 0 01-.412.7l1.6 1.198zm-12.664 2.995a16.495 16.495 0 00-5.234.086l.352 1.97a14.497 14.497 0 014.601-.076l.281-1.98zm-4.172 1.535c.55-1.049 1.157-1.972 1.908-2.74l-1.43-1.398c-.933.954-1.646 2.058-2.25 3.21l1.772.928zm.654-2.596a11.05 11.05 0 012.683 2.382L18.9 22.04a13.049 13.049 0 00-3.161-2.81l-1.078 1.685zm2.507 1.455c-.037.115-.07.235-.101.36l1.944.471c.018-.074.04-.15.065-.234l-1.908-.597zM30.654 11.71c2.603 0 4.486-2.374 4.486-5.004h-2c0 1.794-1.239 3.004-2.486 3.004v2zm4.486-5.004c0-2.628-1.883-5.003-4.486-5.003v2c1.247 0 2.486 1.21 2.486 3.003h2zm-4.486-5.003c-2.603 0-4.486 2.375-4.486 5.003h2c0-1.793 1.239-3.003 2.486-3.003v-2zm-4.486 5.003c0 2.63 1.883 5.004 4.486 5.004v-2c-1.247 0-2.486-1.21-2.486-3.004h-2zm9.324 15.332c.02 1.11-.27 2.817-1.177 4.254-.878 1.39-2.346 2.56-4.832 2.71l.12 1.996c3.183-.191 5.212-1.752 6.403-3.638 1.16-1.838 1.511-3.95 1.486-5.359l-2 .037zm5.221-1.471c.038 2.292-.556 5.79-2.433 8.762-1.847 2.924-4.95 5.37-10.077 5.672L28.32 37c5.827-.344 9.49-3.182 11.65-6.601 2.13-3.371 2.785-7.274 2.742-9.863l-2 .033z" fill="#1D2E3E"/></svg>