<svg width="42" height="42" fill="none" xmlns="http://www.w3.org/2000/svg"><path d="M1 5.533V1h4.8L1 5.533zm0 0h4.8V1L1 5.533zm0 0v30.4-30.4zM5.8 1h30.4H5.8zm30.4 0H41v4.533L36.2 1zm0 0v4.533H41L36.2 1zM41 5.533v30.4-30.4zm0 30.4V41h-4.8l4.8-5.067zm0 0h-4.8V41l4.8-5.067zM36.2 41H5.8h30.4zM1 35.933V41h4.8L1 35.933zm0 0h4.8V41L1 35.933zm9.867-25.066h4.8v4.8h-4.8v-4.8zm0 14.933h4.8v5.067h-4.8V25.8zm14.933 0h5.067v5.067H25.8V25.8zm0-10.133v-4.8h5.067v4.8H25.8zm-5.067-9.334L16.2 10.867l4.533 4.533 4.534-4.533-4.534-4.534zm0 20L16.2 30.867l4.533 4.533 4.534-4.533-4.534-4.534zM30.867 16.2l-4.534 4.533 4.534 4.534 4.533-4.534-4.533-4.533zm-20 0l-4.534 4.533 4.534 4.534 4.533-4.534-4.533-4.533z" stroke="#1D2E3E" stroke-width="2" stroke-linecap="round" stroke-linejoin="round"/></svg>