<svg width="38" height="40" fill="none" xmlns="http://www.w3.org/2000/svg"><path d="M9.077 6.624c-1.41 0-2.655.148-3.353.287-4.021.97-5.94 5.285-5.705 12.828.158 3.777 2.905 10.821 7.593 10.821.216 0 .436-.015.65-.046l.613-.268c3.083-1.173 2.572-3.452 2.12-5.47-.106-.48-.218-.974-.28-1.43-.265-2.986 1.185-4.695 2.718-6.505 1.247-1.473 2.538-2.995 2.848-5.237.168-1.206-.099-2.224-.794-3.02-1.413-1.621-4.267-1.96-6.41-1.96zm.956 16.795c.069.495.18 1 .29 1.488l.004.023c.467 2.078.834 3.717-1.716 4.686l-.494.227c-.17.023-.34.035-.505.035C3.418 29.876.849 23.163.705 19.715.479 12.543 2.22 8.458 5.873 7.58c.63-.128 1.845-.274 3.205-.274 1.639 0 4.584.226 5.893 1.726.56.641.772 1.475.633 2.478-.284 2.044-1.453 3.426-2.693 4.888-1.557 1.838-3.167 3.736-2.878 7.021zM17.24.125A2.25 2.25 0 0016.497 0c-1.309 0-2.616 1.113-3.181 2.71-.328.924-.373 1.891-.122 2.72.26.87.808 1.49 1.542 1.751.236.083.487.125.741.125 1.307 0 2.616-1.113 3.184-2.709.688-1.944.052-3.95-1.421-4.472zm-1.763 6.499c-.177 0-.351-.03-.514-.087-.52-.185-.916-.647-1.113-1.303-.208-.695-.17-1.51.11-2.298.471-1.327 1.514-2.254 2.537-2.254.177 0 .35.03.514.087 1.118.397 1.567 2.012 1.004 3.601-.472 1.327-1.515 2.254-2.538 2.254zm-5.079-1.16c.1.023.2.034.304.034.828 0 1.602-.752 1.837-1.786.13-.562.083-1.133-.13-1.605-.221-.48-.586-.801-1.03-.902a1.322 1.322 0 00-.303-.034c-.828 0-1.6.751-1.84 1.786-.268 1.173.253 2.299 1.162 2.507zM9.906 3.11c.164-.717.667-1.257 1.17-1.257.05 0 .1.006.148.018.543.125.832.882.647 1.69-.176.772-.794 1.364-1.318 1.239-.543-.126-.832-.883-.647-1.69zM7.422 5.462h.001l.07-.002c.413-.024.783-.256 1.04-.655.234-.364.347-.832.318-1.316-.06-1.007-.725-1.797-1.517-1.797l-.066.001c-.416.026-.784.258-1.04.655-.237.365-.348.833-.321 1.316.061 1.008.725 1.798 1.515 1.798zM6.59 3.624a1.51 1.51 0 01.214-.906c.137-.215.318-.33.536-.344.411.001.792.531.828 1.156.021.34-.054.662-.213.905-.134.21-.314.332-.501.343l-.033.002c-.418 0-.793-.519-.831-1.156zM4.428 6.238c.102 0 .204-.012.303-.039.328-.084.6-.298.79-.618.255-.438.316-1.01.17-1.572-.22-.846-.917-1.484-1.622-1.484-.096 0-.195.013-.288.037-.403.106-.72.405-.895.845-.163.4-.186.88-.062 1.348.224.86.897 1.483 1.604 1.483zm-.91-2.58c.095-.23.25-.384.435-.434a.584.584 0 01.13-.016c.393 0 .798.418.945.975.1.381.064.777-.1 1.054a.617.617 0 01-.37.302.473.473 0 01-.128.015c-.387 0-.803-.425-.945-.971a1.509 1.509 0 01.033-.924zM1.812 7.694c.088 0 .174-.012.257-.033.34-.088.608-.339.755-.705.133-.332.15-.725.05-1.106-.185-.709-.747-1.222-1.337-1.222-.085 0-.17.012-.251.03-.34.09-.606.34-.755.708-.133.331-.15.725-.052 1.106.188.718.737 1.222 1.333 1.222zM1.165 5.62c.064-.162.168-.267.29-.298a.346.346 0 01.087-.012c.272 0 .566.312.67.711a1.09 1.09 0 01-.023.68c-.064.16-.168.266-.292.299-.282.069-.64-.263-.754-.7a1.09 1.09 0 01.022-.68zm31.097 10.728c-.693-.136-1.933-.285-3.34-.285-2.144 0-4.997.341-6.41 1.961-.695.796-.961 1.812-.793 3.02.31 2.24 1.598 3.762 2.847 5.236 1.532 1.811 2.983 3.52 2.72 6.49-.064.472-.173.968-.282 1.45-.451 2.012-.962 4.293 2.099 5.457l.552.254.083.021c.218.033.438.048.65.048 4.687 0 7.434-7.046 7.593-10.825.234-7.54-1.688-11.855-5.719-12.827zm-1.874 22.97c-.168 0-.338-.013-.506-.034l-.516-.237c-2.529-.96-2.16-2.6-1.691-4.697.11-.487.222-.994.289-1.505.29-3.27-1.32-5.17-2.878-7.007-1.24-1.462-2.407-2.842-2.691-4.888-.139-1.002.073-1.837.633-2.478 1.309-1.501 4.255-1.725 5.894-1.725 1.36 0 2.573.145 3.192.27 3.662.88 5.406 4.966 5.18 12.134-.142 3.451-2.714 10.167-6.906 10.167zm-7.866-22.571c.254 0 .504-.042.743-.127.733-.26 1.28-.88 1.54-1.75.251-.83.207-1.798-.119-2.722-.568-1.595-1.877-2.71-3.183-2.71-.255 0-.506.043-.742.128-1.472.52-2.11 2.528-1.422 4.472.567 1.596 1.876 2.71 3.183 2.71zm-1.02-6.624c1.022 0 2.066.927 2.536 2.255.28.788.32 1.603.11 2.297-.196.655-.592 1.117-1.113 1.302a1.543 1.543 0 01-.514.087c-1.023 0-2.066-.927-2.537-2.252-.564-1.592-.114-3.207 1.004-3.601a1.49 1.49 0 01.514-.088zm5.795 4.817c.103 0 .205-.011.303-.035.91-.208 1.431-1.333 1.16-2.508-.237-1.035-1.009-1.787-1.837-1.787-.103 0-.204.012-.301.035-.91.208-1.433 1.334-1.162 2.507.237 1.037 1.01 1.788 1.837 1.788zm-.374-3.646c.504 0 1.005.54 1.171 1.254.186.807-.105 1.566-.648 1.69a.611.611 0 01-.143.017c-.498 0-1.015-.551-1.175-1.256-.188-.807.104-1.565.646-1.69a.818.818 0 01.149-.015zm3.585 3.608l.069.001c.79 0 1.454-.79 1.516-1.798.028-.483-.085-.952-.32-1.315-.257-.4-.626-.633-1.044-.657l-.067-.003c-.79 0-1.456.79-1.516 1.798-.03.484.085.952.319 1.318.259.397.627.63 1.043.656zm-.678-1.933c.038-.646.419-1.152.864-1.154.188.013.368.135.502.345.157.24.232.562.213.903-.04.638-.411 1.156-.83 1.156h-.033c-.19-.011-.369-.134-.504-.345a1.511 1.511 0 01-.212-.905zm3.438 2.671c.1.026.2.04.303.04.707 0 1.38-.625 1.607-1.484a2.19 2.19 0 00-.063-1.35c-.177-.438-.494-.739-.897-.842a1.112 1.112 0 00-.287-.037c-.705 0-1.402.638-1.62 1.482-.149.562-.087 1.136.167 1.572.19.32.462.536.79.62zm-.296-2.018c.146-.555.549-.975.943-.975.044 0 .087.006.131.017.186.048.342.203.434.436.106.268.118.595.033.923-.159.607-.662 1.063-1.073.958a.63.63 0 01-.37-.305c-.163-.277-.198-.67-.098-1.054zm2.203 2.772c.149.369.415.619.754.708.085.02.172.032.257.032.599 0 1.144-.503 1.332-1.222a1.757 1.757 0 00-.05-1.105c-.147-.369-.415-.62-.754-.708a.997.997 0 00-.251-.032c-.59 0-1.153.515-1.338 1.221-.1.384-.083.777.05 1.106zm.612-.932c.105-.399.4-.711.672-.711a.27.27 0 01.083.01c.124.033.228.138.291.298.08.2.087.44.023.682-.102.397-.399.709-.675.709a.317.317 0 01-.079-.01c-.124-.033-.227-.138-.291-.298a1.086 1.086 0 01-.024-.68z" fill="#1D2E3E"/></svg>