<svg width="33" height="40" fill="none" xmlns="http://www.w3.org/2000/svg"><path d="M31.968 9.234a1.92 1.92 0 00-.813-.194c-.383 0-.702.136-.9.382-1.18 1.462-2.258 4.304-3.128 6.587-.4 1.055-.936 2.469-1.3 3.131-.198-1.943.66-8.952.989-11.65l.005-.044c.23-1.875.265-2.203.254-2.35-.089-1.044-.447-1.75-1.064-2.1-.625-.352-1.475-.277-2.415.215-.474.248-.666 1.202-1.353 5.534l-.003.02c-.379 2.38-1.25 7.861-1.92 8.736-.596-1.334-1.036-8.703-1.226-11.893-.133-2.234-.211-3.517-.296-3.909-.18-.821-1.122-1.576-2.1-1.683-.813-.1-1.511.277-1.881.991-.645.638-.588 2.909-.294 8.298.139 2.566.428 7.863-.021 8.425-.808-.15-1.981-3.538-3.485-10.077-.422-1.83-.554-2.383-.705-2.63-.274-.846-1.353-1.56-2.364-1.56-.086 0-.17.006-.254.016-.534.07-1.769.48-1.67 2.786.492 3.223 1.103 5.606 1.696 7.92l.012.047c.355 1.386.69 2.695.986 4.142.697 3.418.194 5.473.188 5.496-.045.211-.119.338-.22.377a.373.373 0 01-.132.021c-.295 0-.722-.23-.94-.376-.45-1.051-2.7-6.066-4.994-6.903l-.083-.031-.085.002c-.865.023-1.52.31-1.944.854-.674.86-.5 2.028-.454 2.263l.029.085c.016.037 1.653 3.669 1.83 5.316.156 1.414 1.348 3.018 2.305 4.308l.04.052c.312.422.582.787.791 1.12 2.801 3.439 7.395 6.492 7.433 6.517.564.492.866.95.875 1.328a.555.555 0 01-.133.39l-.111.103.616.704.114-.1c.045-.04.449-.414.445-1.09-.003-.672-.422-1.375-1.253-2.095-.046-.03-4.603-3.087-7.233-6.309-.21-.343-.531-.773-.84-1.19-.843-1.135-1.997-2.69-2.122-3.84-.188-1.72-1.693-5.123-1.885-5.55-.024-.173-.104-.933.282-1.422.232-.297.618-.462 1.146-.491 2.055.871 4.403 6.423 4.426 6.479l.05.118.1.078c.14.105.879.628 1.594.628.164 0 .318-.026.456-.08.285-.108.656-.38.798-1.042.024-.09.564-2.257-.18-5.91-.297-1.462-.64-2.799-1.003-4.213l-.005-.021c-.585-2.276-1.189-4.63-1.672-7.775-.044-1.053.264-1.675.865-1.754.686-.099 1.532.496 1.627.948l.067.318.074.011c.127.423.368 1.472.528 2.174 1.364 5.916 2.64 10.814 4.444 10.814a.744.744 0 00.557-.254c.742-.796.624-3.998.341-9.18-.137-2.51-.393-7.18-.035-7.524l.132-.076.062-.139c.17-.372.455-.56.846-.56.048 0 .095.002.14.008.573.063 1.201.523 1.293.947.07.325.164 1.89.273 3.699l.003.061c.616 10.352 1.024 12.879 2.073 12.879 1.19 0 1.774-2.409 2.922-9.648l.005-.03c.282-1.772.705-4.439.895-4.83.616-.315 1.175-.392 1.5-.21.412.231.548.855.588 1.33.001.13-.125 1.168-.248 2.174-1.115 9.112-1.275 12.238-.66 12.865a.648.648 0 00.6.188c.628-.135 1.043-1.096 2.158-4.036.843-2.218 1.89-4.978 2.976-6.322.01-.01.061-.037.175-.037.133 0 .285.037.43.105.27.129.54.38.484.697-.283 1.587-1.56 6.02-2.493 9.256-.807 2.8-1.14 3.971-1.167 4.286 0 .059-.025 5.89-2.18 12.901l-.713 2.45.893.27.71-2.443c2.15-6.998 2.221-13.09 2.218-13.131.022-.223.637-2.349 1.132-4.066l.014-.044c.984-3.424 2.21-7.682 2.501-9.313.125-.7-.271-1.378-1.009-1.725z" fill="#1D2E3E"/></svg>