<svg width="40" height="37" fill="none" xmlns="http://www.w3.org/2000/svg"><path d="M31.532 37a.57.57 0 01-.552-.423l-1.462-5.415a.573.573 0 01.154-.561l6.18-5.989a4.984 4.984 0 001.46-2.849l1.467-10.153a2.077 2.077 0 00-2.153 1.463l-2.423 7.768a.572.572 0 01-.179.268l-5.615 4.714a.572.572 0 11-.733-.878l5.485-4.606 2.374-7.608a3.224 3.224 0 013.512-2.246l.457.06a.573.573 0 01.49.65l-1.555 10.73a6.133 6.133 0 01-1.792 3.51l-5.938 5.754 1.375 5.089a.574.574 0 01-.552.722z" fill="#1D2E3E"/><path d="M24.246 37a.57.57 0 01-.571-.573v-3.742a5.765 5.765 0 01-1.48-2.335 6.573 6.573 0 012.467-7.362l4.427-3.196a3.797 3.797 0 014.985.484.574.574 0 01-.652.913.572.572 0 01-.182-.13 2.655 2.655 0 00-3.485-.338L25.33 23.92a5.417 5.417 0 00-2.053 6.062c.26.78.724 1.478 1.343 2.018a.572.572 0 01.198.433v3.995a.573.573 0 01-.572.572z" fill="#1D2E3E"/><path d="M31.41 20.123a.582.582 0 01-.371-.138.573.573 0 01-.172-.613l1.672-5.13a3.102 3.102 0 011.481-1.777 3.092 3.092 0 012.297-.256.572.572 0 01-.304 1.104 1.956 1.956 0 00-2.387 1.285l-1.672 5.13a.573.573 0 01-.543.395zM8.465 37a.572.572 0 01-.55-.722l1.375-5.09-5.94-5.752a6.133 6.133 0 01-1.792-3.511L.006 11.195a.574.574 0 01.49-.649l.457-.06a3.22 3.22 0 013.51 2.245l2.375 7.608 5.485 4.607a.574.574 0 01-.537.989.574.574 0 01-.197-.112L5.975 21.11a.573.573 0 01-.179-.268l-2.425-7.769a2.09 2.09 0 00-2.15-1.464L2.69 21.763a4.984 4.984 0 001.455 2.851l6.181 5.987a.574.574 0 01.154.56l-1.462 5.416a.572.572 0 01-.552.423z" fill="#1D2E3E"/><path d="M15.75 37a.57.57 0 01-.57-.573v-3.995a.575.575 0 01.197-.433 4.614 4.614 0 001.344-2.018 5.417 5.417 0 00-2.053-6.062l-4.428-3.196a2.652 2.652 0 00-3.485.339.57.57 0 01-.989-.374.573.573 0 01.155-.41 3.8 3.8 0 014.985-.484l4.427 3.196a6.573 6.573 0 012.468 7.36 5.765 5.765 0 01-1.479 2.332v3.743a.575.575 0 01-.571.574z" fill="#1D2E3E"/><path d="M8.586 20.123a.57.57 0 01-.543-.395l-1.672-5.13a1.963 1.963 0 00-2.387-1.285.57.57 0 01-.649-.834.572.572 0 01.345-.27 3.094 3.094 0 013.778 2.033l1.672 5.13a.573.573 0 01-.544.75zm11.413 1.191a.572.572 0 01-.32-.098c-.438-.295-10.736-7.32-10.736-14.762A6.46 6.46 0 0110.04 2.85a6.427 6.427 0 019.959-.896 6.435 6.435 0 017.04-1.48 6.44 6.44 0 012.918 2.376 6.46 6.46 0 011.097 3.604c0 7.443-10.298 14.467-10.737 14.762a.571.571 0 01-.318.098zM15.386 1.145a5.3 5.3 0 00-3.746 1.557 5.32 5.32 0 00-1.554 3.752c0 6.15 8.18 12.345 9.913 13.587 1.731-1.244 9.912-7.446 9.912-13.587a5.313 5.313 0 00-.982-3.08 5.285 5.285 0 00-8.481-.196.592.592 0 01-.9 0 5.266 5.266 0 00-4.162-2.033z" fill="#1D2E3E"/></svg>