<svg width="40" height="35" fill="none" xmlns="http://www.w3.org/2000/svg"><path d="M38.683 17.556a9.766 9.766 0 00-.556-.952c-.011-.018-.014-.04-.028-.057l-.123-.166a8.148 8.148 0 00-.318-.426L27.553 2.385c-.021-.029-.05-.04-.073-.064C26.27.864 24.646.009 22.996 0h-.025c-1.77 0-3.36.942-4.479 2.653-1.137 1.737-1.708 4.148-1.571 6.616.098 1.777.566 3.44 1.316 4.767H2.704a143.68 143.68 0 00-1.361 0H.656a.57.57 0 00-.422.214l-.002.001a.928.928 0 00-.073.1 1.104 1.104 0 00-.159.571c-.002.172.032.334.092.473a274.027 274.027 0 008.902 19.072c.124.24.327.384.543.384 1.867 0 3.77.037 5.611.075a284.5 284.5 0 005.68.074c3.832 0 7.756-.151 11.782-.759 3.757-.728 6.306-3.74 7.176-8.48.51-2.76.096-5.828-1.103-8.205zM19.483 3.85c.869-1.328 2.095-2.06 3.508-2.048 1.55.008 3.069.933 4.062 2.476a.73.73 0 00.144.16l6.986 9.384c-3.293-.475-6.688 3.26-7.186 8.008-.06.647-.062 1.3-.008 1.942l-6.885-9.649a.895.895 0 00-.135-.217c-.07-.078-.131-.164-.196-.247l-.213-.298c-.005-.008-.013-.01-.02-.018-.74-1.101-1.209-2.591-1.3-4.21-.108-1.983.344-3.909 1.243-5.283zM38.5 25.326c-.988 5.372-4.232 6.774-6.06 7.13-5.93.895-11.696.78-17.274.669a296.03 296.03 0 00-5.284-.074 272.682 272.682 0 01-8.065-17.19 95.55 95.55 0 001.703-.017.572.572 0 00.076-.007h15.885l9.253 12.97c.02.027.041.048.062.07.02.03.038.061.058.09 1.317 1.762 3.032 2.593 4.708 2.274.363-.07.615-.524.565-1.017-.05-.493-.384-.837-.747-.768-1.265.24-2.575-.406-3.594-1.773-1.11-1.488-1.662-3.592-1.476-5.614.4-3.82 3.257-6.947 5.89-6.44.946.16 1.82.735 2.55 1.64l.292.391c.194.281.379.582.546.914.988 1.958 1.33 4.483.912 6.752z" fill="#1D2E3E"/></svg>