<svg width="42" height="29" fill="none" xmlns="http://www.w3.org/2000/svg"><path d="M5.923 28h30.154M6.54 9.028h28.92M5.309 5.968H34.23M31.588 1l-28.74.174m4.921 24.378h28.308m-4.308-24.48s.727 3.249 2.16 4.595c.575.54 1.267 1.213 1.267 2.003 0 .728.545 1.35 1.22 1.612 1.703.66 4.584 2.565 4.584 7.89 0 5.071-2.11 7.033-3.537 7.78-.69.36-1.282 1.036-1.282 1.817V28M1 2.118c0-.578.466-1.046 1.04-1.046.5 0 .929.354 1.053.84.26 1.008.78 2.684 1.555 3.627.505.615 1.201 1.347 1.201 2.144 0 .723.54 1.349 1.188 1.663 1.478.716 3.81 2.664 3.81 7.826 0 5.058-1.808 7.023-3.037 7.774-.59.362-1.113.971-1.113 1.666 0 .767-.618 1.388-1.38 1.388H2.53C1.685 28 1 27.311 1 26.462V2.118z" stroke="#1D2E3E" stroke-width="2" stroke-miterlimit="10" stroke-linecap="round" stroke-linejoin="round"/></svg>