<svg width="40" height="40" fill="none" xmlns="http://www.w3.org/2000/svg"><path d="M40 20.063l-5.25-4.237 3.375-5.856L31 9.347l-.625-6.853-6 2.866L20.25 0l-3.875 5.482-6.25-3.24-.375 7.104-7 .374 2.625 6.729L0 19.689 5.5 23.8l-2.75 5.857 6.875.747.375 6.979 6.375-2.992L20.625 40l3.75-5.608 5.875 2.867.5-6.979 6.875-.125-2.5-5.733L40 20.063z" fill="#1D2E3E"/><path d="M11.952 25.353l-2.468-7.05 1.862-.651 2.368 2.071a21.858 21.858 0 011.998 2.014l.031-.011c-.431-.895-.796-1.837-1.165-2.892l-.721-2.061 1.464-.511 2.467 7.05-1.674.586-2.457-2.192a28.036 28.036 0 01-2.096-2.06l-.027.02c.368.917.737 1.903 1.138 3.053l.744 2.124-1.464.51zm7.643-4.976c.283.641 1.04.727 1.785.467.543-.19.957-.418 1.337-.703l.586 1.003c-.448.393-1.051.722-1.741.964-1.736.608-3.081-.049-3.643-1.649-.452-1.296-.148-3.01 1.63-3.633 1.652-.58 2.73.488 3.173 1.753.095.272.149.524.169.647l-3.296 1.15zm1.49-1.743c-.134-.387-.53-.976-1.262-.72-.669.235-.729.935-.62 1.38l1.883-.66zm2.771-3.189l1.14 1.949c.29.496.594 1.025.882 1.582l.02-.007c-.1-.623-.16-1.26-.208-1.805l-.192-2.293 1.256-.44 1.225 1.86c.337.528.675 1.056.985 1.604l.02-.008c-.13-.61-.228-1.223-.318-1.848l-.27-2.184 1.56-.546.22 5.663-1.496.524-1.111-1.631a19.576 19.576 0 01-.88-1.476l-.023.007c.13.67.19 1.178.223 1.706l.116 1.98-1.495.523-3.274-4.596 1.62-.564z" fill="#fff"/></svg>