<svg width="40" height="40" fill="none" xmlns="http://www.w3.org/2000/svg"><path d="M39.333 6.667h-16a.667.667 0 00-.666.666v6a.667.667 0 00.877.632l.838-.279a1.733 1.733 0 110 3.295l-.838-.28a.667.667 0 00-.878.632v5.334h-5.333a.667.667 0 00-.632.877l.28.838a1.733 1.733 0 11-3.295 0l.28-.838a.667.667 0 00-.633-.877h-6a.667.667 0 00-.666.666v16c0 .369.298.667.666.667h32a.667.667 0 00.667-.667v-32a.667.667 0 00-.667-.666zM22.701 33.123a.668.668 0 00-.034.21v5.334H8V24h4.409a3.067 3.067 0 105.849 0h4.409v5.333a.667.667 0 00.877.632l.838-.28a1.733 1.733 0 110 3.296l-.838-.28a.667.667 0 00-.843.422zm15.966 5.544H24v-4.409a3.067 3.067 0 100-5.85V24h5.333a.667.667 0 00.632-.877l-.28-.838a1.733 1.733 0 113.296 0l-.28.838a.666.666 0 00.632.877h5.334v14.667zm0-16h-4.409a3.067 3.067 0 10-5.85 0H24v-4.409c.926.3 1.94.138 2.726-.435A3.067 3.067 0 0024 12.409V8h14.667v14.667z" fill="#1D2E3E"/><path d="M19.178 5.742c-.6-.19-1.244-.19-1.845 0V.667A.667.667 0 0016.667 0h-16A.667.667 0 000 .667v16c0 .368.299.666.667.666h5.075a3.067 3.067 0 105.85 0h5.075a.667.667 0 00.666-.666V11.59a3.067 3.067 0 001.845-5.849zm-.384 4.572a1.73 1.73 0 01-1.079 0l-.838-.28a.667.667 0 00-.877.633V16h-5.333a.667.667 0 00-.632.877l.28.838a1.733 1.733 0 11-3.296 0l.28-.838A.667.667 0 006.667 16H1.333V1.333H16v5.334a.667.667 0 00.877.632l.838-.28a1.733 1.733 0 111.079 3.295z" fill="#1D2E3E"/></svg>