<svg width="42" height="38" fill="none" xmlns="http://www.w3.org/2000/svg"><path d="M26.984 13l3.558-6m-3.558 6l3.558 6m-3.558-6H19.87m7.115 0H19.87m10.673-6h6.383c.454 0 .875.241 1.11.636l2.78 4.69c.247.415.247.933 0 1.348L37.658 19M30.542 7l-3.18-5.364A1.29 1.29 0 0026.251 1h-5.65c-.455 0-.875.24-1.11.635L16.71 6.327a1.323 1.323 0 000 1.347L19.87 13m10.673 6h7.115m-7.115 0l-3.558 6M19.87 13l-3.558 6m3.558-6l-3.558 6m21.346 0l3.159 5.326c.245.415.245.933 0 1.348l-2.782 4.69a1.29 1.29 0 01-1.11.636h-6.382m0 0l-3.558-6m3.558 6l-3.182 5.365a1.291 1.291 0 01-1.11.635H20.6a1.29 1.29 0 01-1.109-.636L16.311 31m10.673-6H19.87m-3.558-6l3.558 6m-3.558-6H9.928a1.29 1.29 0 00-1.11.636l-2.781 4.69a1.322 1.322 0 000 1.348l2.781 4.69a1.29 1.29 0 001.11.636h6.382m3.559-6l-3.559 6M10.728 4.164H5.075a1.29 1.29 0 00-1.109.635L1.186 9.49a1.322 1.322 0 000 1.347l2.78 4.691a1.29 1.29 0 001.11.636h5.65c.455 0 .876-.24 1.11-.635l2.782-4.692a1.323 1.323 0 000-1.347L11.835 4.8a1.29 1.29 0 00-1.109-.636zm-.002-.001H5.075a1.29 1.29 0 00-1.11.635L1.186 9.49a1.322 1.322 0 000 1.347l2.78 4.691a1.29 1.29 0 001.11.636h5.65c.455 0 .876-.24 1.11-.635l2.781-4.692a1.323 1.323 0 000-1.347L11.836 4.8a1.29 1.29 0 00-1.109-.636z" stroke="#1D2E3E" stroke-width="2"/></svg>