<svg width="31" height="14" fill="none" xmlns="http://www.w3.org/2000/svg"><path d="M4.88 8.315h-2.1V13H.142V.203h4.754c1.512 0 2.678.337 3.499 1.01.82.675 1.23 1.627 1.23 2.857 0 .873-.19 1.603-.571 2.189-.375.58-.947 1.043-1.714 1.388l2.768 5.23V13H7.28l-2.4-4.685zM2.78 6.18h2.126c.662 0 1.175-.167 1.538-.501.364-.34.545-.806.545-1.398 0-.603-.173-1.078-.518-1.424-.34-.345-.865-.518-1.574-.518H2.78v3.84zM17.535 13h-2.54V3.209l-3.032.94V2.084l5.3-1.898h.272V13zm6.75-7.523h1.354c.644 0 1.122-.162 1.432-.484.31-.322.466-.75.466-1.283 0-.516-.155-.917-.466-1.204-.304-.287-.726-.43-1.265-.43-.487 0-.894.134-1.222.403-.328.264-.492.61-.492 1.038h-2.54c0-.668.178-1.266.536-1.793.363-.534.867-.95 1.512-1.248a5.075 5.075 0 012.144-.449c1.354 0 2.414.326 3.182.976.767.644 1.151 1.535 1.151 2.672 0 .586-.179 1.125-.536 1.617-.357.492-.826.87-1.406 1.134.72.258 1.257.644 1.608 1.16.358.516.536 1.125.536 1.828 0 1.137-.416 2.048-1.248 2.734-.826.685-1.922 1.028-3.287 1.028-1.277 0-2.323-.337-3.138-1.011-.808-.674-1.212-1.564-1.212-2.672h2.54c0 .48.178.873.536 1.178.363.305.808.457 1.336.457.603 0 1.075-.158 1.415-.475.345-.322.518-.747.518-1.274 0-1.277-.703-1.916-2.11-1.916h-1.344V5.477z" fill="#1D2E3E"/></svg>