<svg width="40" height="40" fill="none" xmlns="http://www.w3.org/2000/svg"><path d="M39.375 35H5.625A.624.624 0 015 34.375V.625C5 .279 5.28 0 5.625 0h33.75c.346 0 .625.28.625.625v33.75c0 .346-.28.625-.625.625zM6.25 33.75h32.5V1.25H6.25v32.5z" fill="#1D2E3E"/><path d="M36.875 37.5H3.125a.624.624 0 01-.625-.625V3.125a.624.624 0 111.25 0V36.25h33.125a.624.624 0 110 1.25z" fill="#1D2E3E"/><path d="M34.375 40H.625A.624.624 0 010 39.375V5.625a.624.624 0 111.25 0V38.75h33.125a.624.624 0 110 1.25zm2.5-2.5a.624.624 0 01-.625-.625v-2.5a.624.624 0 111.25 0v2.5c0 .346-.28.625-.625.625z" fill="#1D2E3E"/><path d="M34.375 40a.624.624 0 01-.625-.625v-2.5a.624.624 0 111.25 0v2.5c0 .346-.28.625-.625.625zM5.625 3.75h-2.5a.624.624 0 110-1.25h2.5a.624.624 0 110 1.25zm-2.5 2.5h-2.5a.624.624 0 110-1.25h2.5a.624.624 0 110 1.25zm5.643 25.626a.627.627 0 01-.628-.625c0-.346.276-.625.621-.625h.007a.625.625 0 110 1.25zm0-5a.627.627 0 01-.628-.625c0-.346.276-.625.621-.625h.007a.625.625 0 110 1.25zm2.5 2.5a.627.627 0 01-.628-.625c0-.346.276-.625.621-.625h.007a.625.625 0 110 1.25zm2.5 2.5a.627.627 0 01-.628-.625c0-.346.276-.625.621-.625h.007a.625.625 0 110 1.25zm-5-10a.627.627 0 01-.628-.625c0-.346.276-.625.621-.625h.007a.625.625 0 110 1.25zm2.5 2.5a.627.627 0 01-.628-.625c0-.346.276-.625.621-.625h.007a.625.625 0 110 1.25zm2.5 2.5a.627.627 0 01-.628-.625c0-.346.276-.625.621-.625h.007a.625.625 0 110 1.25zm2.5 2.5a.627.627 0 01-.628-.625c0-.346.276-.625.621-.625h.007a.625.625 0 110 1.25zm2.5 2.5a.627.627 0 01-.628-.625c0-.346.276-.625.621-.625h.007a.625.625 0 110 1.25zm-10-15a.627.627 0 01-.628-.625c0-.346.276-.625.621-.625h.007a.625.625 0 110 1.25zm2.5 2.5a.627.627 0 01-.628-.625c0-.346.276-.625.621-.625h.007a.625.625 0 110 1.25zm2.5 2.5a.627.627 0 01-.628-.625c0-.346.276-.625.621-.625h.007a.625.625 0 110 1.25zm2.5 2.5a.627.627 0 01-.628-.625c0-.346.276-.625.621-.625h.007a.625.625 0 110 1.25zm2.5 2.5a.627.627 0 01-.628-.625c0-.346.276-.625.621-.625h.007a.625.625 0 110 1.25zm2.5 2.5a.627.627 0 01-.628-.625c0-.346.276-.625.621-.625h.007a.625.625 0 110 1.25zm2.5 2.5a.627.627 0 01-.628-.625c0-.346.276-.625.621-.625h.007a.625.625 0 110 1.25zm-15-20a.627.627 0 01-.628-.625c0-.346.276-.625.621-.625h.007a.625.625 0 110 1.25zm2.5 2.5a.627.627 0 01-.628-.625c0-.346.276-.625.621-.625h.007a.625.625 0 110 1.25zm2.5 2.5a.627.627 0 01-.628-.625c0-.346.276-.625.621-.625h.007a.625.625 0 110 1.25zm2.5 2.5a.627.627 0 01-.628-.625c0-.346.276-.625.621-.625h.007a.625.625 0 110 1.25zm2.5 2.5a.627.627 0 01-.628-.625c0-.346.276-.625.621-.625h.007a.625.625 0 110 1.25zm2.5 2.5a.627.627 0 01-.628-.625c0-.346.276-.625.621-.625h.007a.625.625 0 110 1.25zm2.5 2.5a.627.627 0 01-.628-.625c0-.346.276-.625.621-.625h.007a.625.625 0 110 1.25zm2.5 2.5a.627.627 0 01-.628-.625c0-.346.276-.625.621-.625h.007a.625.625 0 110 1.25zm2.5 2.5a.627.627 0 01-.628-.625c0-.346.276-.625.621-.625h.007a.625.625 0 110 1.25zm-20-25a.627.627 0 01-.628-.625c0-.346.276-.625.621-.625h.007a.625.625 0 110 1.25zm2.5 2.5a.627.627 0 01-.628-.625c0-.346.276-.625.621-.625h.007a.625.625 0 110 1.25zm2.5 2.5a.627.627 0 01-.628-.625c0-.346.276-.625.621-.625h.007a.625.625 0 110 1.25zm2.5 2.5a.627.627 0 01-.628-.625c0-.346.276-.625.621-.625h.007a.625.625 0 110 1.25zm2.5 2.5a.627.627 0 01-.628-.625c0-.346.276-.625.621-.625h.007a.625.625 0 110 1.25zm2.5 2.5a.627.627 0 01-.628-.625c0-.346.276-.625.621-.625h.007a.625.625 0 110 1.25zm2.5 2.5a.627.627 0 01-.628-.625c0-.346.276-.625.621-.625h.007a.625.625 0 110 1.25zm2.5 2.5a.627.627 0 01-.628-.625c0-.346.276-.625.621-.625h.007a.625.625 0 110 1.25zm2.5 2.5a.627.627 0 01-.628-.625c0-.346.276-.625.621-.625h.007a.625.625 0 110 1.25zm2.5 2.5a.627.627 0 01-.628-.625c0-.346.276-.625.621-.625h.007a.625.625 0 110 1.25zm2.5 2.5a.627.627 0 01-.628-.625c0-.346.276-.625.621-.625h.007a.625.625 0 110 1.25zm-22.5-27.5a.627.627 0 01-.628-.625c0-.346.276-.625.621-.625h.007a.625.625 0 110 1.25zm2.5 2.5a.627.627 0 01-.628-.625c0-.346.276-.625.621-.625h.007a.625.625 0 110 1.25zm2.5 2.5a.627.627 0 01-.628-.625c0-.346.276-.625.621-.625h.007a.625.625 0 110 1.25zm2.5 2.5a.627.627 0 01-.628-.625c0-.346.276-.625.621-.625h.007a.625.625 0 110 1.25zm2.5 2.5a.627.627 0 01-.628-.625c0-.346.276-.625.621-.625h.007a.625.625 0 110 1.25zm2.5 2.5a.627.627 0 01-.628-.625c0-.346.276-.625.621-.625h.007a.625.625 0 110 1.25zm2.5 2.5a.627.627 0 01-.628-.625c0-.346.276-.625.621-.625h.007a.625.625 0 110 1.25zm2.5 2.5a.627.627 0 01-.628-.625c0-.346.276-.625.621-.625h.007a.625.625 0 110 1.25zm2.5 2.5a.627.627 0 01-.628-.625c0-.346.276-.625.621-.625h.007a.625.625 0 110 1.25zm2.5 2.5a.627.627 0 01-.628-.625c0-.346.276-.625.621-.625h.007a.625.625 0 110 1.25zm2.5 2.5a.627.627 0 01-.628-.625c0-.346.276-.625.621-.625h.007a.625.625 0 110 1.25zm-20-25a.627.627 0 01-.628-.625c0-.346.276-.625.621-.625h.007a.625.625 0 110 1.25zm2.5 2.5a.627.627 0 01-.628-.625c0-.346.276-.625.621-.625h.007a.625.625 0 110 1.25zm2.5 2.5a.627.627 0 01-.628-.625c0-.346.276-.625.621-.625h.007a.625.625 0 110 1.25zm2.5 2.5a.627.627 0 01-.628-.625c0-.346.276-.625.621-.625h.007a.625.625 0 110 1.25zm2.5 2.5a.627.627 0 01-.628-.625c0-.346.276-.625.621-.625h.007a.625.625 0 110 1.25zm2.5 2.5a.627.627 0 01-.628-.625c0-.346.276-.625.621-.625h.007a.625.625 0 110 1.25zm2.5 2.5a.627.627 0 01-.628-.625c0-.346.276-.625.621-.625h.007a.625.625 0 110 1.25zm2.5 2.5a.627.627 0 01-.628-.625c0-.346.276-.625.621-.625h.007a.625.625 0 110 1.25zm2.5 2.5a.627.627 0 01-.628-.625c0-.346.276-.625.621-.625h.007a.625.625 0 110 1.25zm-15-20a.627.627 0 01-.628-.625c0-.346.276-.625.621-.625h.007a.625.625 0 110 1.25zm2.5 2.5a.627.627 0 01-.628-.625c0-.346.276-.625.621-.625h.007a.625.625 0 110 1.25zm2.5 2.5a.627.627 0 01-.628-.625c0-.346.276-.625.621-.625h.007a.625.625 0 110 1.25zm2.5 2.5a.627.627 0 01-.628-.625c0-.346.276-.625.621-.625h.007a.625.625 0 110 1.25zm2.5 2.5a.627.627 0 01-.628-.625c0-.346.276-.625.621-.625h.007a.625.625 0 110 1.25zm2.5 2.5a.627.627 0 01-.628-.625c0-.346.276-.625.621-.625h.007a.625.625 0 110 1.25zm2.5 2.5a.627.627 0 01-.628-.625c0-.346.276-.625.621-.625h.007a.625.625 0 110 1.25zm-10-15a.627.627 0 01-.628-.625c0-.346.276-.625.621-.625h.007a.625.625 0 110 1.25zm2.5 2.5a.627.627 0 01-.628-.625c0-.346.276-.625.621-.625h.007a.625.625 0 110 1.25zm2.5 2.5a.627.627 0 01-.628-.625c0-.346.276-.625.621-.625h.007a.625.625 0 110 1.25zm2.5 2.5a.627.627 0 01-.628-.625c0-.346.276-.625.621-.625h.007a.625.625 0 110 1.25zm2.5 2.5a.627.627 0 01-.628-.625c0-.346.276-.625.621-.625h.007a.625.625 0 110 1.25zm-5-10a.627.627 0 01-.628-.625c0-.346.276-.625.621-.625h.007a.625.625 0 110 1.25zm2.5 2.5a.627.627 0 01-.628-.625c0-.346.276-.625.621-.625h.007a.625.625 0 110 1.25zm2.5 2.5a.627.627 0 01-.628-.625c0-.346.276-.625.621-.625h.007a.625.625 0 110 1.25zm0-5a.627.627 0 01-.628-.625c0-.346.276-.625.621-.625h.007a.625.625 0 110 1.25z" fill="#1D2E3E"/></svg>