<svg width="42" height="30" fill="none" xmlns="http://www.w3.org/2000/svg"><path d="M10.296 18.758H2.548c-.855 0-1.548.696-1.548 1.555v7.132C1 28.304 1.693 29 2.548 29H19.17c.855 0 1.548-.696 1.548-1.555V18.8m-10.422-.04l10.422.04m-10.422-.04v-7.88c0-.858.693-1.554 1.548-1.554h8.31m.564 9.474l8.868.035a1.551 1.551 0 001.555-1.555V9.325m-10.986 0v-6.77c0-.859.693-1.555 1.548-1.555h17.749C40.306 1 41 1.696 41 2.555V7.77a1.55 1.55 0 01-1.548 1.555H31.14m-10.986 0H31.14" stroke="#1D2E3E" stroke-width="2"/></svg>