<svg width="40" height="40" fill="none" xmlns="http://www.w3.org/2000/svg"><path d="M0 20.05c0-.482.35-.873.781-.873H39.22c.431 0 .781.39.781.872s-.35.872-.781.872H.78c-.431 0-.781-.39-.781-.872zm40-4.952c0 .462-.38.837-.847.837H.847A.842.842 0 010 15.098c0-.462.38-.837.847-.837h38.306c.468 0 .847.375.847.837zM19.447 11.6a.74.74 0 00.553.255c.2 0 .4-.085.552-.255l1.735-1.935a.946.946 0 000-1.233.725.725 0 00-1.105 0l-.401.447V.872C20.781.39 20.431 0 20 0c-.432 0-.782.39-.782.872v8.007l-.4-.447a.726.726 0 00-1.105 0 .945.945 0 000 1.233l1.734 1.935zm1.121 11.842a.725.725 0 00-1.105 0l-1.734 1.936a.944.944 0 000 1.233c.305.34.8.34 1.105 0l.4-.448v4.579c0 .482.35.872.782.872.431 0 .781-.39.781-.872v-4.579l.4.448a.74.74 0 00.553.255c.2 0 .4-.085.553-.255a.945.945 0 000-1.233l-1.735-1.936zM16.25 39.48c0 .245-.179.444-.399.444h-2.528c-.268 0-.485-.242-.485-.541 0-.138.047-.27.132-.37l1.478-1.759a4.31 4.31 0 00.489-.705c.107-.201.16-.392.16-.572 0-.247-.055-.44-.167-.58a.574.574 0 00-.479-.214c-.223 0-.4.087-.53.26a.844.844 0 00-.084.14c-.13.27-.329.535-.602.535a.435.435 0 01-.427-.546c.035-.133.084-.26.146-.381.146-.28.351-.498.616-.656a1.7 1.7 0 01.899-.24c.512 0 .91.137 1.193.412.284.274.427.662.427 1.163 0 .274-.064.554-.192.839-.127.284-.346.616-.656.995l-.33.39c-.155.181-.737.941-.737.941h1.677c.22 0 .398.2.398.444zm3.93-.369c.182 0 .33-.055.444-.167.189-.185.38-.447.63-.447.26 0 .481.245.387.514a1.427 1.427 0 01-.671.798c-.233.128-.49.191-.773.191-.529 0-.946-.187-1.251-.56-.305-.377-.458-.895-.458-1.557v-.072c0-.636.152-1.143.455-1.522.303-.379.718-.568 1.247-.568.463 0 .833.148 1.111.443.173.18.293.397.361.652a.414.414 0 01-.405.518c-.253 0-.438-.252-.597-.473a.561.561 0 00-.487-.248.58.58 0 00-.523.283c-.116.185-.174.488-.174.907v.115c0 .424.058.73.174.915.116.186.293.278.53.278zm3.899-1.858c.073.214.42.997.42.997l.5-1.116.39-.978a.505.505 0 01.467-.359h.393c.277 0 .5.25.5.558v3.018c0 .304-.22.55-.493.55h-.135c-.176 0-.322-.14-.353-.326-.008-.049-.011-.099-.021-.147l-.247-1.2s-.372.955-.433 1.127l-.09.258a.41.41 0 01-.378.289h-.113a.402.402 0 01-.372-.283L24 39.366c-.06-.17-.498-1.084-.5-1.116.026 0-.155 1.273-.155 1.28 0 .218-.158.394-.353.394h-.14c-.274 0-.495-.247-.495-.551v-3.018c0-.308.224-.558.5-.558h.382c.208 0 .394.144.468.36l.372 1.096z" fill="#1D2E3E"/></svg>