<svg width="42" height="42" fill="none" xmlns="http://www.w3.org/2000/svg"><path d="M11.168 30.805H1.118v9.828h10.05v-9.828z" fill="#F2F2F2"/><path d="M11.168 30.809H1v10.194h10.168V30.809z" stroke="#1D2E3E" stroke-width=".5"/><path d="M11.168 20.86H1.118v10.194h10.05V20.859z" fill="#fff"/><path d="M11.168 20.86H1v10.194h10.168V20.859z" stroke="#1D2E3E" stroke-width=".5"/><path d="M11.168 10.93H1.118v10.194h10.05V10.93z" fill="#fff"/><path d="M11.168 10.93H1v10.194h10.168V10.93z" stroke="#1D2E3E" stroke-width=".5"/><path d="M11.168 1.422H1.118v9.755h10.05V1.422z" fill="#fff"/><path d="M11.168 1H1v10.194h10.168V1z" stroke="#1D2E3E" stroke-width=".5"/><path d="M30.992 30.805H20.824v9.828h10.168v-9.828z" fill="#F2F2F2"/><path d="M30.992 30.809H20.824v10.194h10.168V30.809z" stroke="#000" stroke-width=".5"/><path d="M30.992 20.86H20.824v10.194h10.168V20.859z" fill="#F2F2F2"/><path d="M30.992 20.86H20.824v10.194h10.168V20.859z" stroke="#1D2E3E" stroke-width=".5"/><path d="M30.992 10.93H20.824v10.194h10.168V10.93z" fill="#fff"/><path d="M30.992 10.93H20.824v10.194h10.168V10.93z" stroke="#1D2E3E" stroke-width=".5"/><path d="M30.992 1.422H20.824v9.755h10.168V1.422z" fill="#F2F2F2"/><path d="M30.992 1H20.824v10.194h10.168V1z" stroke="#1D2E3E" stroke-width=".5"/><path d="M21.072 30.805H10.904v9.828h10.168v-9.828z" fill="#fff"/><path d="M21.072 30.809H10.904v10.194h10.168V30.809z" stroke="#1D2E3E" stroke-width=".5"/><path d="M21.072 20.86H10.904v10.194h10.168V20.859z" fill="#fff"/><path d="M21.072 20.86H10.904v10.194h10.168V20.859z" stroke="#1D2E3E" stroke-width=".5"/><path d="M21.072 10.93H10.904v10.194h10.168V10.93z" fill="#F2F2F2"/><path d="M21.072 10.93H10.904v10.194h10.168V10.93z" stroke="#1D2E3E" stroke-width=".5"/><path d="M21.072 1.422H10.904v9.755h10.168V1.422z" fill="#fff"/><path d="M21.072 1H10.904v10.194h10.168V1z" stroke="#1D2E3E" stroke-width=".5"/><path d="M40.898 30.805H30.73v9.828h10.168v-9.828z" fill="#fff"/><path d="M40.898 30.809H30.73v10.194h10.168V30.809z" stroke="#1D2E3E" stroke-width=".5"/><path d="M40.898 20.86H30.73v10.194h10.168V20.859z" fill="#fff"/><path d="M40.898 20.86H30.73v10.194h10.168V20.859z" stroke="#1D2E3E" stroke-width=".5"/><path d="M40.898 10.93H30.73v10.194h10.168V10.93z" fill="#F2F2F2"/><path d="M40.898 10.93H30.73v10.194h10.168V10.93z" stroke="#1D2E3E" stroke-width=".5"/><path d="M40.898 1.422H30.73v9.755h10.168V1.422z" fill="#fff"/><path d="M40.898 1H30.73v10.194h10.168V1z" stroke="#1D2E3E" stroke-width=".5"/><path d="M41 1.422H1.117v39.197H41V1.422z" stroke="#1D2E3E"/></svg>