<svg width="42" height="42" fill="none" xmlns="http://www.w3.org/2000/svg"><path d="M11.28 30.805H1.118v9.828h10.164v-9.828z" fill="#F5F5F5"/><path d="M11.28 30.809H1.118v10.194h10.164V30.809z" stroke="#1D2E3E" stroke-width=".5"/><path d="M11.28 20.875H1.118v10.194h10.164V20.875z" fill="#fff"/><path d="M11.28 20.86H1.118v10.194h10.164V20.859z" stroke="#1D2E3E" stroke-width=".5"/><path d="M11.28 10.93H1.118v10.194h10.164V10.93z" fill="#F1F1F1"/><path d="M11.28 10.93H1.118v10.194h10.164V10.93z" stroke="#1D2E3E" stroke-width=".5"/><path d="M11.28 1.422H1.118v9.755h10.164V1.422z" fill="#fff"/><path d="M11.28 1H1.118v10.194h10.164V1z" stroke="#1D2E3E" stroke-width=".5"/><path d="M31.084 30.805H20.92v9.828h10.164v-9.828z" fill="#F1F1F1"/><path d="M31.084 30.809H20.92v10.194h10.164V30.809z" stroke="#1D2E3E" stroke-width=".5"/><path d="M31.084 20.86H20.92v10.194h10.164V20.859z" fill="#F1F1F1"/><path d="M31.084 20.86H20.92v10.194h10.164V20.859z" stroke="#1D2E3E" stroke-width=".5"/><path d="M31.084 10.93H20.92v10.194h10.164V10.93z" fill="#fff"/><path d="M31.084 10.93H20.92v10.194h10.164V10.93z" stroke="#1D2E3E" stroke-width=".5"/><path d="M31.084 1.422H20.92v9.755h10.164V1.422z" fill="#F5F5F5"/><path d="M31.084 1H20.92v10.194h10.164V1z" stroke="#1D2E3E" stroke-width=".5"/><path d="M21.181 30.805H11.018v9.828H21.18v-9.828z" fill="#fff"/><path d="M21.181 30.809H11.018v10.194H21.18V30.809z" stroke="#1D2E3E" stroke-width=".5"/><path d="M21.181 20.86H11.018v10.194H21.18V20.859z" fill="#DEDEDE"/><path d="M21.181 20.86H11.018v10.194H21.18V20.859z" stroke="#1D2E3E" stroke-width=".5"/><path d="M21.181 10.93H11.018v10.194H21.18V10.93z" fill="#F5F5F5"/><path d="M21.181 10.93H11.018v10.194H21.18V10.93z" stroke="#1D2E3E" stroke-width=".5"/><path d="M21.181 1.422H11.018v9.755H21.18V1.422z" fill="#fff"/><path d="M21.181 1H11.018v10.194H21.18V1z" stroke="#1D2E3E" stroke-width=".5"/><path d="M40.883 30.805H30.836v9.828h10.047v-9.828z" fill="#fff"/><path d="M41 30.809H30.836v10.194H41V30.809z" stroke="#1D2E3E" stroke-width=".5"/><path d="M40.883 20.875H30.836v10.194h10.047V20.875z" fill="#fff"/><path d="M41 20.86H30.836v10.194H41V20.859z" stroke="#1D2E3E" stroke-width=".5"/><path d="M40.883 10.93H30.836v10.194h10.047V10.93z" fill="#F5F5F5"/><path d="M41 10.93H30.836v10.194H41V10.93z" stroke="#1D2E3E" stroke-width=".5"/><path d="M40.883 1.422H30.836v9.755h10.047V1.422z" fill="#DEDEDE"/><path d="M41 1H30.836v10.194H41V1z" stroke="#1D2E3E" stroke-width=".5"/><path d="M40.867 1.422H1v39.197h39.867V1.422z" stroke="#1D2E3E"/></svg>