<svg width="42" height="42" fill="none" xmlns="http://www.w3.org/2000/svg"><path d="M11.625 30.805H1.578v9.828h10.047v-9.828z" fill="#CACACA"/><path d="M11.625 30.809H1.578v10.194h10.047V30.809z" stroke="#1D2E3E" stroke-width=".5"/><path d="M11.625 20.86H1.578v10.194h10.047V20.859z" fill="#9C9B9B"/><path d="M11.625 20.86H1.578v10.194h10.047V20.859z" stroke="#1D2E3E" stroke-width=".5"/><path d="M11.625 10.93H1.578v10.194h10.047V10.93z" fill="#CACACA"/><path d="M11.625 10.93H1.578v10.194h10.047V10.93z" stroke="#1D2E3E" stroke-width=".5"/><path d="M11.625 1.422H1.578v9.755h10.047V1.422z" fill="#fff"/><path d="M11.625 1H1.578v10.194h10.047V1z" stroke="#1D2E3E" stroke-width=".5"/><path d="M31.213 30.805H21.166v9.828h10.047v-9.828z" fill="#E7E7E7"/><path d="M31.213 30.809H21.166v10.194h10.047V30.809z" stroke="#1D2E3E" stroke-width=".5"/><path d="M31.213 20.86H21.166v10.194h10.047V20.859z" fill="#C0BFBF"/><path d="M31.213 20.86H21.166v10.194h10.047V20.859z" stroke="#1D2E3E" stroke-width=".5"/><path d="M31.213 10.93H21.166v10.194h10.047V10.93z" fill="#fff"/><path d="M31.213 10.93H21.166v10.194h10.047V10.93z" stroke="#1D2E3E" stroke-width=".5"/><path d="M31.213 1.422H21.166v9.755h10.047V1.422z" fill="#F5F5F5"/><path d="M31.213 1H21.166v10.194h10.047V1z" stroke="#1D2E3E" stroke-width=".5"/><path d="M21.424 30.805H11.377v9.828h10.047v-9.828z" fill="#fff"/><path d="M21.424 30.809H11.377v10.194h10.047V30.809z" stroke="#1D2E3E" stroke-width=".5"/><path d="M21.424 20.86H11.377v10.194h10.047V20.859z" fill="#D0D0D0"/><path d="M21.424 20.86H11.377v10.194h10.047V20.859z" stroke="#1D2E3E" stroke-width=".5"/><path d="M21.424 10.93H11.377v10.194h10.047V10.93z" fill="#F5F5F5"/><path d="M21.424 10.93H11.377v10.194h10.047V10.93z" stroke="#1D2E3E" stroke-width=".5"/><path d="M21.424 1.422H11.377v9.755h10.047V1.422z" fill="#9C9B9B"/><path d="M21.424 1H11.377v10.194h10.047V1z" stroke="#1D2E3E" stroke-width=".5"/><path d="M40.41 30.805h-9.457v9.828h9.456v-9.828z" fill="#CACACA"/><path d="M41 30.809H30.953v10.194H41V30.809z" stroke="#1D2E3E" stroke-width=".5"/><path d="M40.41 20.875h-9.457v10.194h9.456V20.875z" fill="#F8F8F8"/><path d="M41 20.86H30.953v10.194H41V20.859z" stroke="#1D2E3E" stroke-width=".5"/><path d="M40.41 10.93h-9.457v10.194h9.456V10.93z" fill="#9C9B9B"/><path d="M41 10.93H30.953v10.194H41V10.93z" stroke="#1D2E3E" stroke-width=".5"/><path d="M40.41 1.422h-9.457v9.755h9.456V1.422z" fill="#EAE9E9"/><path d="M41 1H30.953v10.194H41V1z" stroke="#1D2E3E" stroke-width=".5"/><path d="M40.41 1.422H1v39.197h39.41V1.422z" stroke="#1D2E3E"/></svg>