<svg width="70" height="70" fill="none" xmlns="http://www.w3.org/2000/svg"><path fill-rule="evenodd" clip-rule="evenodd" d="M50.685 1h-.154c.026.111.05.223.075.335.025-.112.052-.224.08-.335zM19.574 1h-.154c.026.111.05.223.074.335l.08-.335zM1 44.516v5.788a15.08 15.08 0 011.782-.22c-.251-2.157-.892-4-1.782-5.568zM13.465 69h11.027c-1.884-.84-3.699-1.298-5.069-1.469-2.315.103-4.286.645-5.958 1.469zm31.111 0h11.028c-1.884-.84-3.7-1.298-5.07-1.469-2.315.103-4.286.645-5.958 1.469zM69 50.358v-5.604c-.977 1.924-1.53 3.845-1.768 5.353.593.05 1.183.133 1.768.25zm0-31.111v-5.604c-.976 1.924-1.53 3.845-1.768 5.353.593.05 1.183.133 1.768.25zM0 0h70v70H0V0zm19.494 63.558c-1.746-8.22-7.975-12.91-14.484-13.451.356-2.258 1.418-5.431 3.536-8.154 2.264-2.909 5.733-5.304 10.877-5.533 2.243.28 5.661 1.323 8.623 3.544 2.864 2.146 5.296 5.387 5.847 10.12a14.776 14.776 0 00-9.147 3.913c-2.413 2.229-4.296 5.405-5.252 9.56zm9.152-24.395c-2.934-2.199-6.28-3.3-8.655-3.672.615-5.42 2.684-9.331 5.434-11.87 2.831-2.614 6.416-3.803 9.971-3.667 6.982.267 13.886 5.65 14.627 15.494-5.222.365-8.806 2.873-11.155 5.891-2.27 2.917-3.388 6.309-3.75 8.715h-.222c-.568-5.095-3.187-8.594-6.25-10.89zm31.111 0c-2.934-2.199-6.28-3.3-8.655-3.672.687-6.054 3.188-10.227 6.43-12.709 3.22-2.463 7.21-3.293 10.995-2.608v23.348c-1.313 2.317-2.023 4.705-2.299 6.532h-.22c-.569-5.095-3.188-8.594-6.251-10.89zm-.6.8c2.864 2.147 5.296 5.388 5.847 10.121a14.768 14.768 0 00-8.08 3.015c-2.92 2.236-5.226 5.707-6.319 10.459-1.745-8.216-7.969-12.91-14.484-13.45.356-2.258 1.418-5.432 3.536-8.155 2.264-2.909 5.733-5.304 10.877-5.533 2.243.28 5.661 1.323 8.623 3.544zm-23.76 11.102c6.981.267 13.885 5.65 14.626 15.494-2.618.183-4.83.905-6.684 1.968H25.823c-2.1-1.066-4.194-1.669-5.832-1.925.615-5.42 2.684-9.33 5.434-11.87 2.831-2.614 6.416-3.803 9.971-3.667zm-23.17 17.462c1.854-1.063 4.067-1.785 6.685-1.968-.84-11.162-9.606-16.597-17.441-15.322v17.29h10.756zm45.305-14.633c-3.242 2.482-5.743 6.654-6.43 12.708 1.638.256 3.732.86 5.833 1.925h11.592V51.285c-3.785-.685-7.776.145-10.995 2.609zm-.607-31.906c-2.922 2.236-5.227 5.707-6.32 10.459-1.745-8.216-7.969-12.91-14.484-13.45.356-2.259 1.418-5.432 3.536-8.155 2.264-2.909 5.733-5.304 10.878-5.533 2.242.28 5.66 1.323 8.622 3.544 2.864 2.146 5.296 5.386 5.847 10.12a14.768 14.768 0 00-8.08 3.015zm-18.057-11.76c-2.27 2.917-3.388 6.309-3.75 8.715h-.222c-.568-5.095-3.187-8.595-6.25-10.89-2.934-2.2-6.28-3.301-8.655-3.674.116-1.023.284-1.992.498-2.908h29.123c.196.908.336 1.863.411 2.866-5.222.365-8.806 2.873-11.155 5.891zm-31.111 0c2.349-3.018 5.933-5.526 11.155-5.891a20.989 20.989 0 00-.411-2.866H1.47v10.778c1.176 1.844 2.02 4.058 2.314 6.694h.222c.363-2.406 1.481-5.798 3.751-8.715zm-6.286 8.886V14.31c.644 1.36 1.107 2.907 1.311 4.662-.438.028-.876.075-1.311.14zm18.023 13.333c-1.746-8.221-7.975-12.91-14.484-13.451.356-2.258 1.418-5.431 3.536-8.154C10.81 7.933 14.28 5.538 19.423 5.31c2.243.28 5.661 1.323 8.623 3.544 2.864 2.146 5.296 5.386 5.847 10.12a14.776 14.776 0 00-9.147 3.913c-2.413 2.229-4.296 5.405-5.252 9.56zM7.757 41.339c2.349-3.018 5.933-5.526 11.155-5.891-.84-11.162-9.606-16.597-17.441-15.322v23.235c1.176 1.843 2.02 4.057 2.314 6.693h.221c.363-2.406 1.481-5.798 3.751-8.715zm52-33.287c-2.934-2.199-6.28-3.3-8.655-3.673.116-1.023.284-1.992.499-2.908h16.93l.08 10.792c-1.367 2.363-2.101 4.814-2.383 6.68h-.22c-.569-5.095-3.188-8.595-6.251-10.89z" fill="#1D2E3E"/></svg>