<svg width="70" height="70" fill="none" xmlns="http://www.w3.org/2000/svg"><path fill-rule="evenodd" clip-rule="evenodd" d="M59.762 1l-6.809 6.809-.707.707-.707-.707L44.731 1H35.5v8.738l.207.207 7.102 7.102.707.707-.707.707-7.102 7.101-.207.207V34.5h8.73l.208-.207 7.101-7.102.707-.707.707.707 7.102 7.102.207.207H69v-9.23l-6.809-6.81-.707-.706.707-.707L69 10.238V1h-9.238zM69 11.652l-5.394 5.395-.708.707.708.707L69 23.855V11.652zm1 13.203V70H0V0h70v24.855zM46.145 1l5.394 5.394.707.707.707-.707L58.349 1H46.145zM23.348 1H11.145l5.394 5.394.707.707.707-.707L23.348 1zM9.73 1H1v9.238l6.809 6.809.707.707-.707.707L1 25.269V34.5h8.23l.208-.207 7.101-7.102.707-.707.707.707 7.102 7.102.207.207H34.5v-8.73l-.207-.208-7.102-7.101-.707-.707.707-.707 7.102-7.102.207-.207V1h-9.738l-6.809 6.809-.707.707-.707-.707L9.731 1zM1 35.5v9.738l6.809 6.809.707.707-.707.707L1 60.269V69h8.73l6.81-6.809.706-.707.707.707L24.762 69H34.5v-8.23l-.207-.208-7.102-7.101-.707-.707.707-.707 7.102-7.102.207-.207V35.5h-9.238l-.207.207-7.102 7.102-.707.707-.707-.707-7.101-7.102-.207-.207H1zM35.5 69h9.23l6.81-6.809.706-.707.707.707L59.762 69H69v-8.73l-6.809-6.81-.707-.706.707-.707L69 45.238V35.5h-8.738l-.207.207-7.102 7.102-.707.707-.707-.707-7.101-7.102-.207-.207H35.5v9.238l.207.207 7.102 7.102.707.707-.707.707-7.102 7.101-.207.207V69zM69 46.652l-5.394 5.395-.708.707.708.707L69 58.855V46.652zM58.348 69l-5.395-5.394-.707-.708-.707.708L46.145 69h12.203zm-35 0l-5.395-5.394-.707-.708-.707.708L11.145 69h12.203zM1 58.855l5.394-5.394.707-.707-.707-.707L1 46.651v12.203zm0-35l5.394-5.394.707-.707-.707-.707L1 11.652v12.203zm26.899-6.101l.707.707 5.687 5.687.707.707.707-.707 5.687-5.687.707-.707-.707-.707-5.687-5.688-.707-.707-.707.707-5.687 5.688-.707.707zM17.246 27.899l-.707.707-5.687 5.687-.707.707.707.707 5.687 5.687.707.707.707-.707 5.688-5.687.707-.707-.707-.707-5.688-5.687-.707-.707zM27.9 52.754l.707.707 5.687 5.687.707.707.707-.707 5.687-5.687.707-.707-.707-.707-5.687-5.688-.707-.707-.707.707-5.687 5.688-.707.707zM52.246 42.1l.707-.707 5.688-5.687.707-.707-.707-.707-5.688-5.687-.707-.707-.707.707-5.687 5.687-.707.707.707.707 5.687 5.687.707.707z" fill="#1D2E3E"/></svg>