<svg width="70" height="70" fill="none" xmlns="http://www.w3.org/2000/svg"><mask id="path-1-inside-1" fill="#fff"><path d="M0 0h70v70H0V0z"/></mask><path d="M69.028 4.861v.5h.738l-.274-.686-.464.186zM70 67.083l.354.354.816-.816-1.154-.037-.016.5zM.972 4.861l-.429-.257-.486.81.944-.054-.029-.499zM0 67.083v-.5h-1.5l1.2.9.3-.4zM19.917-.027c-.483 9.19-.984 15.625.752 21.081 1.753 5.51 5.756 9.966 14.06 15.338l.543-.84c-8.225-5.322-12-9.616-13.65-14.8-1.666-5.239-1.195-11.443-.706-20.726l-.999-.052zM34.821 36.44a173.66 173.66 0 014.323 1.746c1.325.55 2.56 1.062 3.747 1.506 2.377.89 4.589 1.516 7.031 1.642 4.887.25 10.582-1.512 20.319-6.867l-.482-.876c-9.708 5.339-15.193 6.98-19.785 6.744-2.298-.118-4.4-.707-6.732-1.58-1.168-.436-2.386-.941-3.715-1.493-1.327-.55-2.76-1.145-4.348-1.756l-.358.934zM.329 39.265c3.86-3.377 9.132-6.962 15.09-8.273 5.93-1.305 12.573-.368 19.256 5.36l.65-.76c-6.929-5.938-13.896-6.946-20.12-5.577-6.194 1.363-11.617 5.07-15.534 8.498l.658.752zm34.484-2.83c3.88 1.568 8.126 3.466 11.195 8.042 3.072 4.581 5.017 11.93 4.049 24.512l.997.077c.977-12.696-.968-20.303-4.215-25.146-3.25-4.846-7.754-6.837-11.652-8.411l-.374.927zM69.028 4.362c-5.883 0-14.98 1.222-22.38 5.786-3.708 2.287-6.998 5.417-9.234 9.657-2.237 4.24-3.405 9.562-2.913 16.205l.998-.074c-.48-6.482.661-11.612 2.8-15.665 2.138-4.054 5.29-7.061 8.873-9.271 7.183-4.43 16.072-5.638 21.856-5.638v-1zM34.5 35.972c0 5.892 1.226 13.557 6.308 19.88 5.096 6.339 14 11.242 29.176 11.731l.032-1c-14.963-.482-23.56-5.301-28.428-11.358C36.705 49.15 35.5 41.747 35.5 35.972h-1zM1 5.36c5.596-.32 13.991.836 20.97 5.318C28.915 15.139 34.5 22.92 34.5 35.972h1c0-13.393-5.759-21.491-12.99-26.136C15.31 5.212 6.69 4.034.944 4.362L1 5.36zm33.503 30.66c.477 5.085-.67 12.728-5.656 19.09C23.878 61.447 15.042 66.582 0 66.582v1c15.291 0 24.442-5.234 29.633-11.858 5.174-6.602 6.36-14.514 5.865-19.8l-.996.094zM49.084.029c.245 4.165.607 7.83.729 11.215.12 3.37-.002 6.383-.714 9.17-1.412 5.53-5.172 10.295-14.332 15.116l.466.885c9.312-4.902 13.33-9.858 14.835-15.753.746-2.924.866-6.048.744-9.454-.121-3.389-.488-7.138-.73-11.237l-.998.058zM34.646 35.62c-.891.891-2.689 1.894-5.138 2.72-2.433.821-5.457 1.45-8.754 1.63-6.598.36-14.237-1.081-20.431-6.323l-.646.764c6.444 5.453 14.361 6.927 21.131 6.558 3.387-.185 6.5-.831 9.02-1.681 2.503-.845 4.473-1.908 5.526-2.961l-.708-.707zM20.914 69.95c-.49-4.903-1.445-10.874-.011-16.847 1.422-5.927 5.212-11.89 14.33-16.688l-.466-.885c-9.354 4.923-13.342 11.113-14.837 17.34-1.483 6.179-.493 12.36-.01 17.18l.994-.1zm14.367-33.564c4.341-2.943 9.596-5.558 15.416-5.784 5.795-.225 12.227 1.918 18.95 8.64l.707-.707c-6.89-6.889-13.582-9.17-19.696-8.932-6.09.236-11.53 2.967-15.939 5.955l.562.828zM38.473.277c2.681 4.022 12.47 12.64 30.47 15.771l.17-.985C51.335 11.97 41.81 3.479 39.305-.277l-.832.554zm31.06 16.558c-1.474 3.848-3.236 10.337-3.75 17.338-.514 6.993.212 14.568 3.788 20.529l.858-.515c-3.424-5.706-4.156-13.038-3.65-19.94.507-6.894 2.245-13.287 3.688-17.054l-.934-.358zM39.225 70.37c3.489-3.172 14.608-10.194 30.846-12.514l-.142-.99C53.5 59.213 42.193 66.32 38.553 69.63l.672.74zM30 69.64c-2.224-2.142-6.373-5.33-11.63-7.986C13.111 59 6.713 56.861 0 56.861v1c6.508 0 12.75 2.075 17.919 4.686 5.17 2.61 9.236 5.742 11.387 7.813l.694-.72zM.472 54.609c1.31-3.766 2.876-10.154 3.332-17.121.457-6.96-.189-14.56-3.36-20.703l-.888.458c3.05 5.912 3.702 13.3 3.25 20.18-.45 6.87-1.996 13.17-3.278 16.857l.944.329zM0 15.083c6.254 0 21.44-2.947 32.449-14.742l-.731-.682C20.948 11.197 6.06 14.083 0 14.083v1zm1.401-9.965L4.318.258 3.46-.258.543 4.603l.858.515zM66.619.186l1.945 4.86.928-.37-1.944-4.862-.929.372zM-.3 67.483L3.589 70.4l.6-.8L.3 66.683l-.6.8zm69.946-.753l-2.916 2.916.707.708 2.917-2.917-.708-.707zM0 0v-1h-1v1h1zm70 0h1v-1h-1v1zm0 70v1h1v-1h-1zM0 70h-1v1h1v-1zm1 0v-2.917h-2V70h2zm68-35.972v4.86h2v-4.86h-2zM38.889 1h10.694v-2H38.89v2zM69 0v17.014h2V0h-2zm0 17.014v17.014h2V17.014h-2zm0 21.875v15.555h2V38.89h-2zm0 15.555v2.917h2v-2.917h-2zm0 2.917V70h2V57.361h-2zM38.889 69h-9.236v2h9.236v-2zm-9.236 0h-9.236v2h9.236v-2zM1 67.083v-9.722h-2v9.722h2zm0-9.722v-2.917h-2v2.917h2zm0-2.917V38.89h-2v15.555h2zM1 38.89V17.014h-2v21.875h2zm0-21.875v-2.43h-2v2.43h2zm0-2.43V0h-2v14.583h2zM20.417 1h11.666v-2H20.417v2zm11.666 0h6.806v-2h-6.806v2zM0 1h3.889v-2H0v2zm3.889 0h16.528v-2H3.889v2zm45.694 0h17.5v-2h-17.5v2zm17.5 0H70v-2h-2.917v2zM20.417 69H3.889v2h16.528v-2zM3.889 69H0v2h3.889v-2zM70 69h-2.917v2H70v-2zm-2.917 0H38.89v2h28.194v-2z" fill="#1D2E3E" mask="url(#path-1-inside-1)"/></svg>