<svg width="70" height="70" fill="none" xmlns="http://www.w3.org/2000/svg"><mask id="path-1-inside-1" fill="#fff"><path d="M0 0h70v70H0V0z"/></mask><path d="M10.694 55.417l.3.4-.3-.4zM21.39 43.75l-.498.05.003.03.007.029.488-.109zm11.667-11.667l.055.497-.055-.497zM5.833 11.667l.475.158-.475-.158zM0 27.222l-.485-.121-.015.06v.061H0zm24.306 0l.49.098.01-.048v-.05h-.5zM36.944 3.89l-.12.485.059.015h.061v-.5zm14.584 3.889l.07-.495-.035-.005h-.035v.5zM48.61 28.194l-.325.38.028.024.032.02.265-.424zm-4.86-11.666l.493.082-.493-.082zm-14.097 7.778l.464-.186-.02-.049-.028-.043-.416.278zM39.86 22.36l.429-.257-.032-.053-.043-.043-.354.353zm3.889 28.195l-.447.223.024.047.033.042.39-.312zm2.917 8.75l-.354-.354-.05.05-.033.06.437.244zM52.5 66.11l-.08.494.04.006h.04v-.5zM7.295.131c.508 1.86 1.82 4.488 4.13 6.358 2.335 1.89 5.66 2.98 10.095 1.771l-.263-.965c-4.12 1.124-7.114.108-9.203-1.583C9.941 4.002 8.725 1.574 8.26-.132l-.965.264zm14.225 8.13c4.332-1.182 6.935-2.756 8.42-4.292 1.479-1.53 1.865-3.05 1.661-4.067l-.98.196c.12.604-.077 1.806-1.4 3.176-1.32 1.365-3.74 2.87-7.964 4.021l.263.965zM50.081.157c1.074 3.222 6.615 8.716 19.977 7.144l-.116-.993C56.859 7.849 51.9 2.453 51.03-.158l-.949.316zm19.565 16.988a24.213 24.213 0 00-3.106 3.902c-1.025 1.615-1.901 3.498-1.901 5.202h1c0-1.407.744-3.089 1.745-4.666a23.206 23.206 0 012.97-3.73l-.708-.708zM64.64 26.25c0 1.74.907 3.157 1.974 4.198a10.367 10.367 0 003.201 2.1l.372-.929a9.373 9.373 0 01-2.875-1.886c-.959-.936-1.672-2.111-1.672-3.483h-1zm-4.917 44.027a9.285 9.285 0 011.516-1.723c.676-.59 1.368-.97 1.956-.97v-1c-.967 0-1.895.59-2.613 1.216a10.281 10.281 0 00-1.692 1.923l.833.554zm3.472-2.694c.589 0 1.28.382 1.956.97a9.286 9.286 0 011.517 1.724l.832-.554a10.285 10.285 0 00-1.691-1.923c-.718-.626-1.647-1.217-2.614-1.217v1zm-33.163 2.09c-.733-.849-1.528-2.101-2.147-3.505-.62-1.406-1.047-2.93-1.076-4.32-.029-1.388.336-2.6 1.25-3.472.92-.877 2.476-1.487 4.998-1.487v-1c-2.667 0-4.515.645-5.688 1.764-1.178 1.123-1.592 2.645-1.56 4.215.033 1.566.508 3.222 1.16 4.703.654 1.482 1.5 2.822 2.306 3.756l.757-.654zm3.025-12.784c2.698 0 5.569 1.893 7.756 4.557 2.183 2.66 3.563 5.942 3.411 8.525l.998.058c.173-2.926-1.364-6.45-3.637-9.218-2.269-2.764-5.394-4.922-8.528-4.922v1zM14.94 69.513c-.97-.228-2.302-.78-3.604-1.6-1.303-.819-2.54-1.882-3.355-3.111-.81-1.22-1.19-2.584-.838-4.05.354-1.48 1.474-3.153 3.85-4.935l-.6-.8C7.91 56.88 6.6 58.732 6.171 60.518c-.43 1.8.055 3.444.977 4.836.918 1.385 2.278 2.539 3.656 3.406 1.379.867 2.812 1.469 3.908 1.727l.229-.974zm-3.947-13.696c2.637-1.978 4.675-2.8 6.23-2.937 1.53-.134 2.63.39 3.444 1.216.83.845 1.377 2.025 1.714 3.202.336 1.172.451 2.296.451 2.98h1c0-.774-.127-1.99-.49-3.256-.361-1.261-.97-2.618-1.962-3.627-1.01-1.026-2.4-1.673-4.244-1.51-1.817.159-4.032 1.099-6.743 3.132l.6.8zm11.84 4.46c0 .447.004 1.575-.799 3.18-.806 1.613-2.446 3.742-5.798 6.136l.581.814c3.454-2.467 5.217-4.713 6.112-6.503.899-1.798.903-3.1.903-3.626h-1zM-.122 35.486c1.848.462 4.452 1.873 6.594 3.778 2.157 1.916 3.721 4.22 3.721 6.431h1c0-2.65-1.838-5.207-4.056-7.179-2.233-1.984-4.977-3.49-7.017-4l-.242.97zm10.315 10.21c0 2.176-1.525 3.99-3.666 5.417-2.126 1.417-4.741 2.37-6.65 2.847l.243.97c1.981-.495 4.713-1.486 6.962-2.985 2.234-1.49 4.111-3.565 4.111-6.25h-1zm20.917 4.36c-1.483 0-3.412.041-5.17-.735-1.71-.755-3.317-2.317-4.064-5.678l-.976.216c.808 3.639 2.605 5.48 4.637 6.377 1.985.877 4.14.82 5.573.82v-1zM21.886 43.7c-.146-1.462.523-4.011 2.328-6.327C26 35.081 28.88 33.05 33.11 32.58l-.11-.994c-4.52.503-7.637 2.685-9.576 5.172-1.922 2.465-2.712 5.264-2.534 7.042l.995-.1zm11.225-11.12c2.33-.258 3.87.207 4.855 1.03.986.823 1.499 2.079 1.617 3.579.24 3.024-1.15 6.816-3.029 9.165l.78.625c2.01-2.512 3.508-6.549 3.246-9.869-.132-1.672-.716-3.218-1.973-4.268-1.258-1.052-3.105-1.534-5.607-1.256l.11.994zm3.443 13.774c-.994 1.243-1.678 2.153-2.47 2.775-.755.593-1.615.927-2.973.927v1c1.56 0 2.643-.396 3.59-1.14.909-.714 1.684-1.75 2.634-2.937l-.781-.625zM3.432.204c.633 1.423 1.351 3.576 1.79 5.73.444 2.177.578 4.25.137 5.575l.949.316c.53-1.593.341-3.894-.106-6.091-.453-2.222-1.193-4.445-1.856-5.937l-.914.406zm1.927 11.305c-.14.422-.261.815-.373 1.18-.113.369-.215.706-.323 1.028-.213.64-.438 1.195-.766 1.731-.651 1.065-1.754 2.128-4.154 3.568l.514.857c2.461-1.476 3.72-2.64 4.493-3.903.384-.628.637-1.263.862-1.937.112-.336.219-.687.33-1.05.112-.367.23-.75.366-1.158l-.949-.316zM.485 27.343c.22-.878 1.114-2.608 2.5-4.633 1.373-2.006 3.187-4.242 5.19-6.128 2.011-1.893 4.175-3.396 6.244-3.994 2.034-.587 3.965-.302 5.644 1.377l.707-.707c-1.975-1.976-4.3-2.302-6.628-1.63-2.292.661-4.594 2.288-6.652 4.226-2.066 1.944-3.925 4.238-5.33 6.29-1.392 2.034-2.379 3.891-2.645 4.957l.97.242zm19.578-13.378c2.828 2.828 3.756 5.634 3.988 7.96.117 1.17.06 2.227-.03 3.12-.045.451-.097.85-.14 1.215a8.785 8.785 0 00-.075.962h1c0-.21.026-.486.068-.846.041-.349.096-.77.142-1.23.093-.93.156-2.06.03-3.32-.253-2.536-1.27-5.563-4.276-8.568l-.707.707zm3.752 13.16c-.921 4.608-6.506 9.855-13.995 8.357l-.196.98c8.067 1.614 14.15-4.028 15.172-9.142l-.98-.196zM9.82 35.481C2.27 33.972.5 28.922.5 27.222h-1c0 2.19 2.12 7.64 10.124 9.24l.196-.98zM36.944 4.389c1.757 0 3.28.969 4.285 2.156.5.591.855 1.217 1.038 1.768.19.57.17.972.064 1.186l.894.447c.282-.564.214-1.28-.01-1.95-.23-.689-.653-1.424-1.222-2.097-1.135-1.34-2.916-2.51-5.049-2.51v1zm5.387 5.11c-.476.952-1.165 2.086-2.17 2.867-.98.762-2.281 1.207-4.068.76l-.242.97c2.102.526 3.717-.002 4.925-.94 1.183-.921 1.953-2.218 2.449-3.21l-.894-.447zm-6.238 3.627c-.972-.243-1.881-.432-2.634-.61-.773-.18-1.401-.355-1.902-.577-.495-.22-.831-.473-1.05-.796-.218-.32-.354-.762-.354-1.42h-1c0 .798.167 1.451.527 1.981.358.528.872.883 1.471 1.149.593.263 1.301.454 2.079.637.796.188 1.649.363 2.621.606l.242-.97zm-5.94-3.404c0-1.285.764-2.86 2.024-4.005 1.248-1.135 2.905-1.778 4.646-1.343l.243-.97c-2.148-.537-4.137.277-5.562 1.573-1.414 1.286-2.351 3.113-2.351 4.745h1zm21.304-1.45c3.298.472 6.887 2.247 9.137 4.88 2.226 2.604 3.142 6.036 1.181 9.958l.894.447c2.165-4.328 1.136-8.187-1.315-11.055-2.427-2.84-6.248-4.718-9.755-5.22l-.142.99zM61.775 23.11c-1.876 3.751-4.499 5.268-6.93 5.685-2.463.424-4.77-.275-5.969-1.025l-.53.848c1.394.871 3.948 1.63 6.67 1.163 2.754-.473 5.64-2.198 7.653-6.224l-.894-.447zm-12.838 4.705c-2.233-1.914-5.621-5.641-4.694-11.205l-.986-.164c-1.017 6.102 2.724 10.153 5.029 12.128l.65-.76zM44.242 16.61c.554-3.324 1.73-5.4 3.068-6.643 1.336-1.242 2.87-1.69 4.217-1.69v-1c-1.571 0-3.358.526-4.898 1.957-1.539 1.43-2.793 3.73-3.373 7.212l.986.164zm-15.055 7.881c.198.493.603 1.043 1.129 1.569a9.803 9.803 0 002.002 1.522c1.568.907 3.596 1.523 5.696 1.103l-.196-.98c-1.79.357-3.57-.161-5-.988a8.803 8.803 0 01-1.795-1.364c-.477-.477-.78-.916-.907-1.233l-.928.371zm8.827 4.194c1.044-.21 1.814-.607 2.343-1.155.53-.55.78-1.214.851-1.884.138-1.31-.406-2.686-.92-3.542l-.857.514c.46.765.888 1.917.782 2.924-.05.488-.226.93-.576 1.294-.353.365-.92.688-1.82.868l.197.98zm2.2-6.677c-1.31-1.31-3.402-3.182-5.423-4.535-1.008-.674-2.025-1.238-2.936-1.53-.886-.285-1.825-.358-2.516.194l.625.781c.281-.225.781-.282 1.586-.023.78.25 1.707.755 2.685 1.41 1.948 1.304 3.989 3.127 5.272 4.41l.707-.707zm-10.875-5.87c-1.166.932-1.485 2.604-1.402 4.16.085 1.578.592 3.224 1.299 4.285l.832-.555c-.59-.883-1.055-2.348-1.132-3.784-.079-1.458.25-2.703 1.028-3.326l-.625-.78zm14.857 34.194c-.944-1.888-1.664-4.71-.895-7.11.38-1.184 1.126-2.28 2.419-3.132 1.3-.857 3.178-1.484 5.842-1.675l-.07-.997c-2.781.199-4.84.86-6.323 1.837-1.49.983-2.373 2.27-2.82 3.662-.883 2.752-.048 5.861.953 7.862l.894-.447zm7.366-11.917c5.392-.385 9.546.178 12.54 1.028 3.008.853 4.815 1.988 5.543 2.716l.708-.707c-.892-.892-2.877-2.091-5.978-2.971-3.115-.884-7.387-1.456-12.884-1.063l.071.997zm18.223 12.66c-3.038 1.44-7.984 3.12-12.923 3.478-4.95.36-9.764-.612-12.723-4.31l-.78.625c3.263 4.08 8.496 5.052 13.576 4.683 5.091-.37 10.159-2.094 13.278-3.571l-.428-.904zM47.02 59.66c.374-.374.95-.602 1.695-.657.743-.055 1.615.066 2.52.344 1.817.559 3.663 1.722 4.754 3.176l.8-.6c-1.243-1.657-3.285-2.924-5.26-3.532-.991-.305-1.99-.452-2.888-.385-.895.066-1.73.35-2.328.947l.707.707zm8.969 2.863c.545.727.65 1.224.601 1.545-.047.309-.258.588-.676.837-.86.512-2.303.707-3.414.707v1c1.157 0 2.826-.193 3.926-.848.563-.335 1.044-.833 1.153-1.545.107-.7-.169-1.467-.79-2.296l-.8.6zm-3.41 3.095c-1.58-.252-3.52-.883-4.767-1.914-.617-.51-1.035-1.092-1.187-1.749-.15-.648-.058-1.44.479-2.406l-.874-.485c-.63 1.133-.797 2.178-.579 3.117.216.933.795 1.691 1.523 2.294 1.443 1.192 3.586 1.865 5.247 2.13l.158-.987zM0 0v-1h-1v1h1zm70 0h1v-1h-1v1zm0 70v1h1v-1h-1zM0 70h-1v1h1v-1zM7.778 1H31.11v-2H7.778v2zM31.11 1h19.445v-2H31.11v2zm19.445 0H70v-2H50.556v2zM69 0v6.806h2V0h-2zm0 6.806V17.5h2V6.806h-2zM69 17.5v14.583h2V17.5h-2zM70 69h-2.917v2H70v-2zm-2.917 0h-7.777v2h7.777v-2zm-7.777 0H44.722v2h14.584v-2zm-14.584 0h-15.07v2h15.07v-2zm-29.896 0H0v2h14.826v-2zm14.827 0H16.528v2h13.125v-2zm-13.125 0h-1.702v2h1.702v-2zM1 70V54.444h-2V70h2zm0-15.556V35h-2v19.444h2zM0 1h3.889v-2H0v2zm3.889 0h3.889v-2h-3.89v2zM1 19.444V0h-2v19.444h2zM1 35v-7.778h-2V35h2zm0-7.778v-7.778h-2v7.778h2zm68 4.861v9.723h2v-9.723h-2zm0 9.723v9.722h2v-9.722h-2zm0 9.722V70h2V51.528h-2z" fill="#1D2E3E" mask="url(#path-1-inside-1)"/></svg>