<svg width="70" height="70" fill="none" xmlns="http://www.w3.org/2000/svg"><mask id="path-1-inside-1" fill="#fff"><path d="M0 0h70v70H0V0z"/></mask><path d="M19.444 0l.359-.349-.354-.363-.358.358.353.354zM56.39 37.917l-.358.349.353.362.358-.358-.353-.353zM70 24.306l.354.353-.704-.71.35.357zm-26.873 0l-.358.348.358-.348zm13.436-12.153l.336.37-.336-.37zM7.255 37.917l.365.34.318-.34-.318-.341-.365.34zm24.03-25.764l.359-.35-.358.35zM7.256 63.194l-.342.365.356.334.342-.348-.356-.35zm24.03-24.428l.355-.353-.353-.355-.355.354.354.354zM18.473 25.89l-.365-.34.365.34zm38.27 12.38l13.612-13.61-.708-.708-13.61 13.611.706.707zM42.77 24.654l13.26 13.613.716-.698-13.262-13.611-.716.697zm.693.022L56.9 12.524l-.671-.742-13.437 12.153.671.741zM56.9 12.524L70.335.37l-.67-.742-13.437 12.153.67.742zM44.364.349l11.841 12.153.717-.698L45.08-.35l-.716.698zM19.091-.354L6.938 11.8l.707.707L19.798.354l-.707-.708zM6.938 11.8l-7.292 7.292.708.707 7.291-7.292-.707-.707zm.729.023L.375 3.558l-.75.662 7.292 8.264.75-.662zM-.366 30.48l7.255 7.778.731-.682-7.254-7.778-.732.682zm7.255 7.096l-7.255 7.777.732.682 7.254-7.777-.731-.682zM19.086.349l11.841 12.153.717-.698L19.803-.35l-.717.698zm11.841 12.153L42.77 24.654l.716-.697-11.841-12.153-.716.698zM-.343 56.754l7.256 6.805.684-.73-7.255-6.805-.684.73zm31.275-18.342L-.353 69.646l.706.708L31.64 39.12l-.707-.708zM.366 46.035l18.472-19.804-.731-.682L-.366 45.353l.732.682zm18.472-19.804L31.65 12.494l-.731-.682-12.813 13.737.73.682zm38.08 37.583L43.48 50.312l-.709.705L56.21 64.52l.709-.705zM43.48 50.312L18.827 25.538l-.71.705 24.655 24.774.71-.705zM30.93 39.119l11.841 11.898.71-.705L31.64 38.413l-.709.706zm12.546 11.903l26.873-26.36-.7-.713-26.873 26.359.7.714zm26.17-.712L50.203 69.645l.705.71 19.445-19.336-.706-.709zM7.611 63.545L18.83 52.142l-.713-.701L6.898 62.844l.713.701zM18.83 52.142l12.813-13.026-.713-.7L18.116 51.44l.713.7zm-.698.014l13.61 12.746.684-.73-13.611-12.746-.683.73zm13.61 12.746l5.834 5.463.683-.73-5.833-5.463-.683.73zm0-.73l-5.833 5.463.684.73 5.833-5.463-.683-.73zM0 0v-1h-1v1h1zm70 0h1v-1h-1v1zm0 70v1h1v-1h-1zM0 70h-1v1h1v-1zM0 1h19.444v-2H0v2zm69-1v24.306h2V0h-2zM19.444 1h25.278v-2H19.444v2zm25.278 0H70v-2H44.722v2zM1 19.444V3.89h-2v15.555h2zM1 3.89V0h-2v3.889h2zm0 26.25V19.444h-2V30.14h2zm0 15.555V30.14h-2v15.555h2zM1 70V56.389h-2V70h2zm0-13.611V45.694h-2V56.39h2zm68-32.083v26.359h2v-26.36h-2zm0 26.359V70h2V50.665h-2zM70 69H50.556v2H70v-2zm-19.444 0h-12.64v2h12.64v-2zm-12.64 0H26.25v2h11.667v-2zM26.25 69H0v2h26.25v-2z" fill="#1D2E3E" mask="url(#path-1-inside-1)"/></svg>