<svg width="70" height="70" fill="none" xmlns="http://www.w3.org/2000/svg"><mask id="path-1-inside-1" fill="#fff"><path d="M0 0h70v70H0V0z"/></mask><path d="M0 10.222h3.889v-1H0v1zM3.389 0v9.722h1V0h-1zM0 26.75h3.889v-1H0v1zm0 17.5h3.889v-1H0v1zm3.389-18v17.5h1v-17.5h-1zM0 62.722h3.889v-1H0v1zm3.389-.5V70h1v-7.778h-1zm.5-52h16.528v-1H3.889v1zm0 16.528h16.528v-1H3.889v1zM19.917 9.722V26.25h1V9.722h-1zM3.889 44.25h16.528v-1H3.889v1zm0 18.472h16.528v-1H3.889v1zM19.917 43.75v18.472h1V43.75h-1zm.5-33.528H35v-1H20.417v1zM34.5 0v9.722h1V0h-1zM20.417 26.75H35v-1H20.417v1zm0 17.5H35v-1H20.417v1zm14.083-18v17.5h1v-17.5h-1zM20.417 62.722H35v-1H20.417v1zm14.083-.5V70h1v-7.778h-1zm.5-52h14.583v-1H35v1zm0 16.528h14.583v-1H35v1zM49.083 9.722V26.25h1V9.722h-1zM35 44.25h14.583v-1H35v1zm0 18.472h14.583v-1H35v1zM49.083 43.75v18.472h1V43.75h-1zm.5-33.528h14.584v-1H49.583v1zm14.584 0H70v-1h-5.833v1zM63.667 0v9.722h1V0h-1zM49.583 26.75h14.584v-1H49.583v1zm14.584 0H70v-1h-5.833v1zm-14.584 17.5h14.584v-1H49.583v1zm14.584 0H70v-1h-5.833v1zm-.5-18v17.5h1v-17.5h-1zM49.583 62.722h14.584v-1H49.583v1zm14.584 0H70v-1h-5.833v1zm-.5-.5V70h1v-7.778h-1zM0 0v-1h-1v1h1zm70 0h1v-1h-1v1zm0 70v1h1v-1h-1zM0 70h-1v1h1v-1zM1 9.722V0h-2v9.722h2zM69 0v9.722h2V0h-2zM1 26.25V9.722h-2V26.25h2zM69 9.722V26.25h2V9.722h-2zM1 43.75v-17.5h-2v17.5h2zm68-17.5v17.5h2v-17.5h-2zM1 70v-7.778h-2V70h2zm0-7.778V43.75h-2v18.472h2zM69 43.75v18.472h2V43.75h-2zm0 18.472V70h2v-7.778h-2zM0 1h3.889v-2H0v2zm3.889 68H0v2h3.889v-2zm0-68H35v-2H3.889v2zM35 69H3.889v2H35v-2zm0-68h29.167v-2H35v2zm29.167 0H70v-2h-5.833v2zM70 69h-5.833v2H70v-2zm-5.833 0H35v2h29.167v-2z" fill="#1D2E3E" mask="url(#path-1-inside-1)"/></svg>