<svg width="70" height="70" fill="none" xmlns="http://www.w3.org/2000/svg"><path fill-rule="evenodd" clip-rule="evenodd" d="M42.94 1H69v26.313H53.425L42.94 16.83V1zm-1 0H28.315v15.665H41.94V1zM27.315 1H1v26.315h15.83L27.313 16.83V1zM1 28.315v13.629h15.663v-13.63H1zm0 14.629V69h26.314V53.428L16.83 42.943H1zM28.314 69h13.627V53.593H28.314V69zm14.627 0H69V42.94H53.429L42.94 53.428V69zM69 41.94V28.313H53.592V41.94H69zM0 0h70v70H0V0zm28.148 17.665L17.663 28.148v13.96l10.485 10.484h13.956l10.488-10.488V28.15L42.108 17.663h-13.96z" fill="#1D2E3E"/></svg>