<svg width="70" height="70" fill="none" xmlns="http://www.w3.org/2000/svg"><mask id="path-1-inside-1" fill="#fff"><path d="M58.333 0H70v70H0V0h58.333z"/></mask><path d="M35 0l.447-.224L35-1.118l-.447.894L35 0zm35 23.333l.447.224.112-.224-.112-.223-.447.223zM58.333 0l.448-.224-.448-.894-.447.894.447.224zM11.667 0l.447-.224-.447-.894-.447.894.447.224zM0 23.333l-.447-.223-.112.223.112.224.447-.224zM23.333 70l-.447.224.447.894.448-.894-.448-.224zm23.334 0l-.448.224.448.894.447-.894-.447-.224zM34.553-.224L22.886 23.11l.895.447L35.447.224l-.894-.448zm-11.667 23.78L34.553 46.89l.894-.447L23.78 23.11l-.894.447zM34.553.225l11.666 23.333.895-.447L35.447-.224l-.894.448zM46.219 23.11L34.553 46.443l.894.447 11.667-23.333-.895-.447zm0 .447L57.886 46.89l.895-.447L47.114 23.11l-.895.447zM57.886 46.89l11.667 23.334.894-.448-11.666-23.333-.895.447zm.895 0l11.666-23.333-.894-.447-11.667 23.333.895.447zM47.114 23.557L58.78.224l-.895-.448L46.22 23.11l.895.447zm23.333-.447L58.781-.224l-.895.448 11.667 23.333.894-.447zm-46.666 0L12.114-.224l-.895.448 11.667 23.333.895-.447zm-23.334.447L12.114.224l-.895-.448L-.447 23.11l.894.447zm22.44-.447L11.218 46.443l.895.447L23.78 23.557l-.894-.447zM11.218 46.443L-.447 69.776l.894.448L12.114 46.89l-.895-.447zM-.447 23.557L11.219 46.89l.895-.447L.447 23.11l-.894.447zM11.219 46.89l11.667 23.334.895-.448-11.667-23.333-.895.447zm12.562 23.334L35.447 46.89l-.894-.447-11.667 23.333.895.448zM34.553 46.89l11.666 23.334.895-.448-11.667-23.333-.894.447zm12.56 23.334L58.782 46.89l-.895-.447L46.22 69.776l.895.448zM70 70v1h1v-1h-1zm0-70h1v-1h-1v1zM0 0v-1h-1v1h1zm0 70h-1v1h1v-1zM58.333 1H70v-2H58.333v2zM0 1h11.667v-2H0v2zm11.667 0H35v-2H11.667v2zM35 1h23.333v-2H35v2zm34-1v23.333h2V0h-2zm0 23.333V70h2V23.333h-2zM70 69H46.667v2H70v-2zm-23.333 0H23.333v2h23.334v-2zm-23.334 0H0v2h23.333v-2zM1 70V23.333h-2V70h2zm0-46.667V0h-2v23.333h2z" fill="#1D2E3E" mask="url(#path-1-inside-1)"/></svg>