<svg width="70" height="70" fill="none" xmlns="http://www.w3.org/2000/svg"><mask id="path-1-inside-1" fill="#fff"><path d="M0 0h70v70H0V0z"/></mask><path d="M14.583 16.528v-.5h-.5v.5h.5zm44.723 0v.5h.5v-.5h-.5zM70 64.638H24.306v1H70v-1zm-45.694 0H0v1h24.306v-1zM0 55.918h24.306v-1H0v1zm24.806 9.222v-9.722h-1v9.722h1zm-.5-9.222h4.86v-1h-4.86v1zm4.86 0H70v-1H29.167v1zM70 46.167H29.167v1H70v-1zm-40.333 9.25v-8.75h-1v8.75h1zm-.5-9.25H14.583v1h14.584v-1zm-14.584 0H0v1h14.583v-1zM0 39.389h14.583v-1H0v1zm15.083 7.278v-7.778h-1v7.778h1zm-.5-7.278h49.584v-1H14.583v1zm49.584 0H70v-1h-5.833v1zM70 31.583h-5.833v1H70v-1zm-5.833 0H0v1h64.167v-1zm.5 7.306v-6.806h-1v6.806h1zM54.444 25.778H70v-1H54.444v1zM70 16.028H54.444v1H70v-1zm-15.556 0H0v1h54.444v-1zm.5 9.25v-8.75h-1v8.75h1zM0 25.778h14.583v-1H0v1zm14.583 0h39.861v-1h-39.86v1zm.5-.5v-8.75h-1v8.75h1zm-.5-8.25h44.723v-1H14.583v1zM0 8.278h59.306v-1H0v1zm59.306 0H70v-1H59.306v1zm.5 8.25v-8.75h-1v8.75h1zM0 0v-1h-1v1h1zm70 0h1v-1h-1v1zm0 70v1h1v-1h-1zM0 70h-1v1h1v-1zM0 1h70v-2H0v2zm70 68H0v2h70v-2zM1 7.778V0h-2v7.778h2zM69 0v7.778h2V0h-2zm0 7.778v8.75h2v-8.75h-2zm-68 8.75v-8.75h-2v8.75h2zm0 8.75v-8.75h-2v8.75h2zm68-8.75v8.75h2v-8.75h-2zm0 8.75v6.805h2v-6.805h-2zM1 32.083v-6.805h-2v6.805h2zm0 6.806v-6.806h-2v6.806h2zm68-6.806v6.806h2v-6.806h-2zm0 6.806v7.778h2v-7.778h-2zM1 46.667v-7.778h-2v7.778h2zm0 8.75v-8.75h-2v8.75h2zm68-8.75v8.75h2v-8.75h-2zm0 8.75v9.722h2v-9.722h-2zm0 9.722V70h2v-4.861h-2zM1 70v-4.861h-2V70h2zm0-4.861v-9.722h-2v9.722h2z" fill="#1D2E3E" mask="url(#path-1-inside-1)"/></svg>