<svg width="70" height="70" fill="none" xmlns="http://www.w3.org/2000/svg"><mask id="path-1-inside-1" fill="#fff"><path d="M0 0h70v70H0V0z"/></mask><path d="M14.583 12.639h-.5v.5h.5v-.5zm15.556 0v.5h.5v-.5h-.5zm6.805-6.32v-.5h-.5v.5h.5zm16.528 0h.5v-.5h-.5v.5zm0 31.598v.5h.5v-.5h-.5zm-16.528 0h-.5v.5h.5v-.5zm-22.36 21.389h-.5v.5h.5v-.5zm15.555 0v.5h.5v-.5h-.5zm29.167-29.167h.5v-.5h-.5v.5zm-44.723-17H30.14v-1H14.583v1zm22.361-6.32h16.528v-1H36.944v1zm16.528 30.598H36.944v1h16.528v-1zM37.444 12.639v-6.32h-1v6.32h1zm-30.152.5h29.652v-1H7.292v1zm29.652 24.778h.5v-7.778h-1v7.777h.5zm.5-7.778V12.638h-1V30.14h1zm-29.652 0v-17.5h-1v17.5h1zm6.791-.5h-7.29v1h7.291v-1zm0 30.167H30.14v-1H14.583v1zm22.361-30.167h-6.805v1h6.806v-1zm-6.805.5v-.5H14.583v1H30.14v-.5zm.5 29.167V52.5h-1v6.806h1zM59.806 52.5V37.917h-1V52.5h1zm-29.167 0V37.917h-1V52.5h1zm0-14.583v-7.778h-1v7.778h1zm28.667-.5H30.139v1h29.167v-1zm-45.223-7.278v7.777h1v-7.777h-1zm0 7.778V52.5h1V37.917h-1zm0 14.583v6.806h1V52.5h-1zm.5-15.083H7.292v1h7.291v-1zm-7.291 0H0v1h7.292v-1zm-.5-7.278v7.778h1v-7.778h-1zM0 53h7.292v-1H0v1zm7.292 0h7.291v-1H7.292v1zm-.5-.5v6.806h1V52.5h-1zm0 6.806V70h1V59.306h-1zm.5.5h29.652v-1H7.292v1zM30.139 53h6.805v-1H30.14v1zm7.305 6.306V52.5h-1v6.806h1zm0 9.722v-9.722h-1v9.722h1zM36.944 53h16.528v-1H36.944v1zm16.528 0h5.834v-1h-5.834v1zm-.5-.5v6.806h1V52.5h-1zm0 6.806V70h1V59.306h-1zm.5.5h5.834v-1h-5.834v1zm5.834 0H70v-1H59.306v1zm-.5-7.306v6.806h1V52.5h-1zm-5.834-22.361v7.777h1v-7.777h-1zm6.334 0v-.5h-5.833v1h5.832v-.5zm10.694-.5H53.472v1H70v-1zM52.972 6.319v6.32h1v-6.32h-1zm.5 6.32h-.5V30.14h1V12.638h-.5zm0 .5h5.834v-1h-5.834v1zm5.834 0H70v-1H59.306v1zM14.083 0v6.806h1V0h-1zm0 6.806v5.833h1V6.806h-1zM0 7.306h7.292v-1H0v1zm7.292 0h7.291v-1H7.292v1zm.5 5.333V6.806h-1v5.833h1zm22.847 0v-6.32h-1v6.32h1zm0-6.32V0h-1v6.32h1zM58.806.972V6.32h1V.972h-1zm0 5.347v6.32h1v-6.32h-1zm-28.667.5h29.167v-1H30.139v1zm28.667 23.32v7.778h1v-7.778h-1zM0 0v-1h-1v1h1zm70 0h1v-1h-1v1zm0 70v1h1v-1h-1zM0 70h-1v1h1v-1zM0 1h14.583v-2H0v2zm14.583 0H30.14v-2H14.583v2zM30.14 1H70v-2H30.139v2zM1 70V52.5h-2V70h2zm0-17.5V37.917h-2V52.5h2zM7.292 69H0v2h7.292v-2zM70 69H53.472v2H70v-2zm-16.528 0H7.292v2h46.18v-2zM69 59.306V70h2V59.306h-2zm0-29.167v29.166h2V30.138h-2zM69 0v12.639h2V0h-2zm1 12.639h-1V30.14h2V12.638h-1zM1 37.917V6.806h-2v31.11h2zM1 6.806V0h-2v6.806h2z" fill="#1D2E3E" mask="url(#path-1-inside-1)"/></svg>