<svg width="90" height="60" fill="none" xmlns="http://www.w3.org/2000/svg"><mask id="mask0" maskUnits="userSpaceOnUse" x="0" y="0" width="90" height="60"><path fill="#fff" d="M0 0h90v60H0z"/></mask><g mask="url(#mask0)"><path fill="#0A17A7" d="M0 0h90v60H0z"/><path fill-rule="evenodd" clip-rule="evenodd" d="M21.453 40.001L-8.914 59.118l4.793 6.633 38.408-24.18v22.43h21.428V41.572l38.406 24.179 4.794-6.633-30.367-19.117H90v-20H68.55L98.916.884l-4.793-6.632-38.409 24.18v-22.43H34.287v22.43l-38.41-24.18L-8.916.884 21.45 20.001H0v20h21.453z" fill="#fff"/><path d="M60.004 18.997L100.714-6M64.33 41.093l36.495 22.959M25.73 18.932L-12.335-5.013M29.86 40.815l-42.196 26.117" stroke="#DB1F35" stroke-width=".667" stroke-linecap="round"/><path fill-rule="evenodd" clip-rule="evenodd" d="M0 36h38.571v24H51.43V36H90V24H51.429V0H38.57v24H0v12z" fill="#E6273E"/></g></svg>