<svg width="90" height="60" fill="none" xmlns="http://www.w3.org/2000/svg"><mask id="mask0" maskUnits="userSpaceOnUse" x="0" y="0" width="90" height="60"><path fill="#fff" d="M0 0h90v60H0z"/></mask><g mask="url(#mask0)"><path fill="#E92434" d="M0 0h90v60H0z"/><path fill-rule="evenodd" clip-rule="evenodd" d="M61.139 32.305l-3.937 4.455.268-5.77-5.756-2.118 5.962-1.545.379-5.764 3.416 4.815 5.991-1.444-3.85 4.52 3.323 4.871-5.796-2.02z" fill="#fff"/><path fill-rule="evenodd" clip-rule="evenodd" d="M55.937 41.053C52.407 45.281 46.9 48 40.714 48 30.063 48 21.43 39.941 21.43 30s8.634-18 19.285-18c6.188 0 11.695 2.72 15.224 6.948C53.215 17.101 49.79 16 46.071 16 37.195 16 30 22.268 30 30s7.195 14 16.071 14c3.719 0 7.143-1.1 9.866-2.947z" fill="#fff"/></g></svg>