<svg preserveAspectRatio="none" width="1920" height="177" viewBox="0 0 1920 177" fill="none" xmlns="http://www.w3.org/2000/svg">
<g clip-path="url(#clip0_134_60623)">
<path d="M1923 53.233C1886.36 45.4467 1595.57 -15.4569 1539.9 3.71375C1354.59 67.4192 1214.64 50.4606 1090.95 44.4439C967.251 38.4273 817.644 4.45102 722.723 36.0973C627.802 67.7435 475.331 28.1931 357.406 25.3323C239.482 22.4714 0 51.1684 0 51.1684V249.835H1923V53.233Z" fill="#CFBC76"/>
<path d="M1449.66 118.395C1285.12 134.241 964.576 44.4778 906.933 39.6385C849.29 34.7991 673.967 123.677 586.22 122.763C498.473 121.848 351.373 78.7957 246.607 65.281C162.024 54.3925 42.7617 98.5365 0 115.946V247.759H1920V78.2054C1920 78.2054 1614.21 102.55 1449.66 118.395Z" fill="#BEAC69"/>
<path d="M1636.49 173.332C1584.53 190.06 1482.8 141.615 1382.35 189.146C1281.9 236.676 820.319 186.49 889.808 173.332C959.298 160.173 1004.11 131.053 871.976 118.543C739.839 106.034 713.412 170.647 514.736 204.96C316.06 239.272 181.4 157.459 303.231 173.332C425.062 189.205 600.219 170.647 527.565 160.084C454.911 149.522 305.198 131.053 230.406 120.49C155.614 109.928 0 145.687 0 145.687V249.835H1923V188.142C1896.32 181.239 1734.46 141.763 1636.49 173.332Z" fill="#B4A262"/>
<path opacity="0.71" d="M760 104.742C760 104.742 818.933 56.5001 934.664 68.2953C1050.39 80.0905 1286.68 166.284 1360.75 161.005C1434.81 155.727 1345.32 200.136 1008.3 173.361C904.962 165.134 1081.42 153.928 1048.09 124.942C1014.75 95.9551 905.304 57.2374 760 104.742Z" fill="#B4A262"/>
<path opacity="0.71" d="M1922.87 129.973L1921.46 107.962C1921.46 107.962 1578.31 135.77 1542.71 138.536C1507.11 141.302 1421.68 206.218 1571.18 188.709C1720.68 171.2 1789.14 118.085 1827.61 149.836C1860.3 176.938 1909.15 186.06 1923 188.091L1922.87 129.973Z" fill="#B4A262"/>
<path d="M408.274 213.232C466.141 177.695 318.393 180.834 258.216 191.94C198.038 203.045 87.8267 183.618 139.316 157.113C190.805 130.609 0 157.113 0 157.113V249.835H486C486 249.835 350.237 248.651 408.274 213.232Z" fill="#9A894D"/>
<path d="M265 51.2211C265 51.2211 312.945 16.0129 384.438 30.4776C455.93 44.9423 446.563 72.2579 596.658 68.2383C746.754 64.2187 590.399 132.699 265 51.2211Z" fill="#EDD87B"/>
<path opacity="0.71" d="M1222.48 74.8346C1222.48 74.8346 1372.28 78.6554 1412.12 59.2283C1451.97 39.8013 1564.7 7.11921 1570.48 26.8989C1576.26 46.6787 1488.73 31.2781 1473.97 59.2283C1459.2 87.1786 1727.17 15.8482 1747.88 47.9719C1768.6 80.0956 1495.97 116.834 1347.41 108.016C1198.85 99.1993 1215.16 81.8295 1222.48 74.8346Z" fill="#B4A262"/>
</g>
<defs>
<clipPath id="clip0_134_60623">
<rect width="1920" height="177" fill="white"/>
</clipPath>
</defs>
</svg>
