<svg width="9" height="8" viewBox="0 0 9 8" fill="none" xmlns="http://www.w3.org/2000/svg">
<path d="M4.5 -4.64828e-07C4.60462 -4.73974e-07 4.70935 0.0390991 4.78923 0.117199L8.88011 4.11719C9.03996 4.27349 9.03996 4.52659 8.88011 4.68279C8.72026 4.83898 8.46141 4.83908 8.30166 4.68279L4.5 0.965596L0.698341 4.68279C0.53849 4.83909 0.279638 4.83909 0.119889 4.68279C-0.03986 4.52649 -0.0399623 4.27339 0.119889 4.11719L4.21077 0.117199C4.29065 0.0390991 4.39538 -4.55681e-07 4.5 -4.64828e-07ZM4.21077 3.31719L0.119889 7.31718C-0.039962 7.47348 -0.039962 7.72658 0.119889 7.88278C0.279741 8.03898 0.538592 8.03908 0.698341 7.88278L4.5 4.16559L8.30166 7.88278C8.46151 8.03907 8.72036 8.03907 8.88011 7.88278C9.03986 7.72648 9.03996 7.47338 8.88011 7.31718L4.78923 3.31719C4.70935 3.23909 4.60462 3.19999 4.5 3.19999C4.39538 3.19999 4.29065 3.23909 4.21077 3.31719Z" fill="white"/>
</svg>
