<svg width="26" height="20" viewBox="0 0 26 20" fill="none" xmlns="http://www.w3.org/2000/svg">
<path d="M16.8433 11.0791L14.6658 13.264C13.7827 14.1501 12.229 14.1692 11.3269 13.264L9.14925 11.0791L1.32812 18.9256C1.61925 19.0602 1.94024 19.1406 2.28149 19.1406H23.7112C24.0524 19.1406 24.3733 19.0603 24.6643 18.9257L16.8433 11.0791Z" fill="white"/>
<path d="M23.7111 0.859375H2.28139C1.94014 0.859375 1.61915 0.939711 1.32812 1.07433L9.68555 9.45948L9.68733 9.4607L9.68799 9.46202L12.4054 12.1885C12.6941 12.4771 13.2985 12.4771 13.5871 12.1885L16.304 9.46248L16.3052 9.4607L16.307 9.45948L24.6642 1.07428C24.3732 0.939609 24.0523 0.859375 23.7111 0.859375Z" fill="white"/>
<path d="M0.243039 2.13965C0.0924218 2.44423 0 2.78234 0 3.14451V16.8554C0 17.2176 0.0923203 17.5557 0.242988 17.8603L8.07767 10.0002L0.243039 2.13965Z" fill="white"/>
<path d="M25.7565 2.13953L17.9219 10.0002L25.7565 17.8604C25.9071 17.5558 25.9995 17.2177 25.9995 16.8554V3.14449C25.9995 2.78221 25.9071 2.44411 25.7565 2.13953Z" fill="white"/>
</svg>
