<?xml version="1.0" encoding="UTF-8"?>
<svg xmlns="http://www.w3.org/2000/svg" xmlns:xlink="http://www.w3.org/1999/xlink" width="144pt" height="144pt" viewBox="0 0 144 144" version="1.1">
<g id="surface5235911">
<path style=" stroke:none;fill-rule:nonzero;fill:rgb(100%,100%,100%);fill-opacity:1;" d="M 14.605469 129.910156 L 22.6875 100.402344 C 17.699219 91.769531 15.078125 81.972656 15.082031 71.9375 C 15.097656 40.542969 40.644531 15 72.042969 15 C 87.277344 15.007812 101.578125 20.9375 112.332031 31.699219 C 123.085938 42.460938 129.007812 56.765625 129 71.980469 C 128.988281 103.378906 103.433594 128.921875 72.042969 128.921875 C 72.039062 128.921875 72.042969 128.921875 72.042969 128.921875 L 72.019531 128.921875 C 62.488281 128.917969 53.117188 126.527344 44.800781 121.988281 Z M 14.605469 129.910156 "/>
<path style=" stroke:none;fill-rule:nonzero;fill:rgb(100%,100%,100%);fill-opacity:1;" d="M 14.605469 131.410156 C 14.207031 131.410156 13.824219 131.253906 13.539062 130.964844 C 13.164062 130.585938 13.015625 130.027344 13.15625 129.515625 L 21.074219 100.609375 C 16.167969 91.890625 13.578125 81.988281 13.585938 71.941406 C 13.597656 39.714844 39.820312 13.5 72.042969 13.5 C 87.671875 13.507812 102.355469 19.59375 113.394531 30.640625 C 124.429688 41.6875 130.507812 56.371094 130.5 71.980469 C 130.488281 104.203125 104.261719 130.421875 72.042969 130.421875 C 62.476562 130.417969 53.011719 128.058594 44.609375 123.589844 L 14.984375 131.359375 C 14.859375 131.394531 14.734375 131.410156 14.605469 131.410156 Z M 14.605469 131.410156 "/>
<path style=" stroke:none;fill-rule:nonzero;fill:rgb(81.176472%,84.705883%,86.274511%);fill-opacity:1;" d="M 72.042969 15 C 87.277344 15.007812 101.578125 20.9375 112.332031 31.699219 C 123.085938 42.460938 129.007812 56.765625 129 71.980469 C 128.988281 103.378906 103.433594 128.921875 72.042969 128.921875 L 72.019531 128.921875 C 62.488281 128.917969 53.117188 126.527344 44.800781 121.988281 L 14.605469 129.910156 L 22.6875 100.402344 C 17.699219 91.769531 15.078125 81.972656 15.082031 71.9375 C 15.097656 40.542969 40.644531 15 72.042969 15 M 72.042969 128.921875 L 72.042969 128.921875 M 72.042969 128.921875 L 72.042969 128.921875 M 72.042969 12 C 38.992188 12 12.097656 38.886719 12.082031 71.9375 C 12.078125 82.039062 14.628906 91.992188 19.464844 100.804688 L 11.710938 129.121094 C 11.425781 130.15625 11.714844 131.257812 12.472656 132.019531 C 13.039062 132.597656 13.8125 132.910156 14.605469 132.910156 C 14.859375 132.910156 15.113281 132.878906 15.367188 132.8125 L 44.425781 125.191406 C 52.910156 129.597656 62.421875 131.921875 72.019531 131.925781 C 105.089844 131.925781 131.988281 105.035156 132.003906 71.984375 C 132.007812 55.96875 125.777344 40.90625 114.460938 29.578125 C 103.132812 18.25 88.070312 12.007812 72.042969 12 Z M 72.042969 12 "/>
<path style=" stroke:none;fill-rule:nonzero;fill:rgb(25.098041%,76.47059%,31.764707%);fill-opacity:1;" d="M 105.527344 38.496094 C 96.589844 29.550781 84.703125 24.621094 72.058594 24.617188 C 45.945312 24.617188 24.707031 45.847656 24.695312 71.941406 C 24.691406 80.882812 27.195312 89.589844 31.933594 97.128906 L 33.0625 98.917969 L 28.277344 116.382812 L 46.195312 111.683594 L 47.929688 112.710938 C 55.195312 117.023438 63.527344 119.304688 72.023438 119.308594 L 72.042969 119.308594 C 98.136719 119.308594 119.371094 98.074219 119.382812 71.980469 C 119.386719 59.335938 114.46875 47.441406 105.527344 38.496094 Z M 105.527344 38.496094 "/>
<path style=" stroke:none;fill-rule:evenodd;fill:rgb(100%,100%,100%);fill-opacity:1;" d="M 57.804688 48.136719 C 56.738281 45.765625 55.617188 45.71875 54.601562 45.675781 C 53.769531 45.640625 52.820312 45.640625 51.871094 45.640625 C 50.925781 45.640625 49.382812 46 48.078125 47.425781 C 46.773438 48.847656 43.09375 52.289062 43.09375 59.292969 C 43.09375 66.292969 48.195312 73.0625 48.90625 74.011719 C 49.617188 74.957031 58.753906 89.785156 73.21875 95.492188 C 85.238281 100.234375 87.6875 99.289062 90.296875 99.054688 C 92.90625 98.816406 98.71875 95.613281 99.902344 92.289062 C 101.089844 88.964844 101.089844 86.117188 100.734375 85.523438 C 100.378906 84.929688 99.429688 84.574219 98.007812 83.863281 C 96.585938 83.148438 89.585938 79.707031 88.28125 79.234375 C 86.976562 78.757812 86.027344 78.523438 85.078125 79.945312 C 84.128906 81.367188 81.402344 84.574219 80.570312 85.523438 C 79.738281 86.476562 78.910156 86.59375 77.488281 85.882812 C 76.066406 85.167969 71.480469 83.667969 66.042969 78.820312 C 61.8125 75.046875 58.957031 70.390625 58.125 68.964844 C 57.292969 67.542969 58.035156 66.769531 58.75 66.058594 C 59.386719 65.421875 60.171875 64.398438 60.886719 63.566406 C 61.597656 62.734375 61.832031 62.140625 62.308594 61.195312 C 62.78125 60.242188 62.542969 59.410156 62.1875 58.699219 C 61.835938 57.988281 59.070312 50.949219 57.804688 48.136719 Z M 57.804688 48.136719 "/>
</g>
</svg>
