<svg width="50" height="50" viewBox="0 0 50 50" fill="none" xmlns="http://www.w3.org/2000/svg">
<path d="M25 50C38.8071 50 50 38.8071 50 25C50 11.1929 38.8071 0 25 0C11.1929 0 0 11.1929 0 25C0 38.8071 11.1929 50 25 50Z" fill="#0052B4"/>
<path d="M24.999 9.7832L25.8085 12.2743H28.4276L26.3086 13.8139L27.118 16.305L24.999 14.7653L22.8799 16.305L23.6893 13.8139L21.5703 12.2743H24.1895L24.999 9.7832Z" fill="#FFDA44"/>
<path d="M14.239 14.241L16.573 15.4301L18.425 13.5781L18.0151 16.165L20.349 17.3542L17.762 17.764L17.3522 20.3511L16.1631 18.0172L13.5762 18.4271L15.4282 16.575L14.239 14.241Z" fill="#FFDA44"/>
<path d="M9.78223 25.001L12.2733 24.1915V21.5723L13.8128 23.6914L16.304 22.8819L14.7643 25.001L16.304 27.12L13.8128 26.3107L12.2733 28.4297V25.8105L9.78223 25.001Z" fill="#FFDA44"/>
<path d="M14.239 35.7604L15.4281 33.4264L13.5762 31.5743L16.1632 31.9843L17.3521 29.6504L17.762 32.2374L20.3489 32.6472L18.0153 33.8363L18.425 36.4232L16.573 34.5712L14.239 35.7604Z" fill="#FFDA44"/>
<path d="M24.999 40.2174L24.1894 37.7263H21.5703L23.6894 36.1867L22.8799 33.6958L24.999 35.2353L27.118 33.6958L26.3086 36.1867L28.4276 37.7263H25.8084L24.999 40.2174Z" fill="#FFDA44"/>
<path d="M35.7603 35.7604L33.4264 34.5713L31.5742 36.4233L31.9841 33.8362L29.6504 32.6472L32.2373 32.2374L32.6471 29.6504L33.8361 31.9843L36.423 31.5743L34.571 33.4266L35.7603 35.7604Z" fill="#FFDA44"/>
<path d="M40.2169 25.001L37.7258 25.8105V28.4297L36.1862 26.3106L33.6953 27.12L35.2349 25.001L33.6953 22.8819L36.1863 23.6914L37.7258 21.5723V24.1916L40.2169 25.001Z" fill="#FFDA44"/>
<path d="M35.7603 14.2414L34.5711 16.5754L36.4231 18.4274L33.836 18.0175L32.6471 20.3514L32.2373 17.7644L29.6504 17.3545L31.9841 16.1654L31.5742 13.5786L33.4265 15.4306L35.7603 14.2414Z" fill="#FFDA44"/>
</svg>
