<svg width="50" height="50" viewBox="0 0 50 50" fill="none" xmlns="http://www.w3.org/2000/svg">
<path d="M1.55469 33.6953C5.08701 43.2152 14.2506 49.9996 24.9997 49.9996C35.7488 49.9996 44.9124 43.2152 48.4447 33.6953L24.9997 31.5215L1.55469 33.6953Z" fill="#FFDA44"/>
<path d="M24.9997 0C14.2506 0 5.08701 6.78438 1.55469 16.3044L24.9997 18.4782L48.4447 16.3043C44.9124 6.78437 35.7488 0 24.9997 0Z" fill="black"/>
<path d="M1.55498 16.3042C0.550098 19.0125 0 21.9418 0 24.9998C0 28.0578 0.550098 30.9871 1.55498 33.6954H48.4451C49.45 30.9871 50 28.0578 50 24.9998C50 21.9418 49.45 19.0125 48.445 16.3042H1.55498Z" fill="#D80027"/>
</svg>
