<svg width="50" height="50" viewBox="0 0 50 50" fill="none" xmlns="http://www.w3.org/2000/svg">
<path d="M25 50C38.8071 50 50 38.8071 50 25C50 11.1929 38.8071 0 25 0C11.1929 0 0 11.1929 0 25C0 38.8071 11.1929 50 25 50Z" fill="#D80027"/>
<path d="M23.9766 20.4272L26.0278 23.2539L29.3498 22.1768L27.2953 25.001L29.3463 27.8275L26.0255 26.7463L23.9711 29.5705L23.9732 26.0782L20.6523 24.997L23.9744 23.9198L23.9766 20.4272Z" fill="#F0F0F0"/>
<path d="M18.3788 32.0651C14.4769 32.0651 11.3136 28.9019 11.3136 24.9999C11.3136 21.0979 14.4769 17.9347 18.3788 17.9347C19.5954 17.9347 20.7401 18.2424 21.7396 18.7839C20.1717 17.2505 18.0274 16.3042 15.6614 16.3042C10.8589 16.3042 6.96582 20.1974 6.96582 24.9998C6.96582 29.8022 10.859 33.6954 15.6614 33.6954C18.0276 33.6954 20.1718 32.749 21.7396 31.2157C20.7401 31.7574 19.5954 32.0651 18.3788 32.0651Z" fill="#F0F0F0"/>
</svg>
