<svg width="103" height="103" viewBox="0 0 103 103" fill="none" xmlns="http://www.w3.org/2000/svg">
<circle cx="51.3331" cy="51.3331" r="51.3331" fill="url(#paint0_linear_778_11641)"/>
<circle cx="51.3331" cy="51.3331" r="51.3331" fill="url(#paint1_radial_778_11641)"/>
<circle cx="51.3331" cy="51.3331" r="51.3331" fill="url(#paint2_radial_778_11641)"/>
<circle cx="51.3331" cy="51.3331" r="51.3331" fill="url(#paint3_radial_778_11641)"/>
<circle cx="51.3331" cy="51.3331" r="51.3331" fill="url(#paint4_radial_778_11641)"/>
<g style="mix-blend-mode:lighten">
<ellipse cx="48.55" cy="38.3462" rx="31.8513" ry="28.4497" fill="url(#paint5_linear_778_11641)"/>
</g>
<g style="mix-blend-mode:lighten">
<path d="M29.9293 35.5543C27.8683 34.914 26.6887 32.703 27.6601 30.7759C29.3505 27.4225 31.8263 24.5034 34.8995 22.2805C37.9727 20.0576 41.5201 18.6199 45.234 18.0641C47.3684 17.7447 49.099 19.5571 49.0621 21.7149C49.0251 23.8728 47.2206 25.5441 45.1195 26.0374C43.1002 26.5116 41.1814 27.3823 39.48 28.613C37.7786 29.8437 36.351 31.3934 35.2686 33.1629C34.1424 35.004 31.9903 36.1947 29.9293 35.5543Z" fill="url(#paint6_linear_778_11641)"/>
</g>
<defs>
<linearGradient id="paint0_linear_778_11641" x1="51.3331" y1="0" x2="51.3331" y2="102.666" gradientUnits="userSpaceOnUse">
<stop stop-color="#40FFC6"/>
<stop offset="0.492708" stop-color="#4AE6FF"/>
<stop offset="1" stop-color="#2595FF"/>
</linearGradient>
<radialGradient id="paint1_radial_778_11641" cx="0" cy="0" r="1" gradientUnits="userSpaceOnUse" gradientTransform="translate(30.2499 20.1666) rotate(62.6223) scale(115.616)">
<stop offset="0.462106" stop-color="#2AA8FF" stop-opacity="0"/>
<stop offset="0.894737" stop-color="#2595FF"/>
</radialGradient>
<radialGradient id="paint2_radial_778_11641" cx="0" cy="0" r="1" gradientUnits="userSpaceOnUse" gradientTransform="translate(26.5832 21.9999) rotate(56.6259) scale(138.307)">
<stop stop-color="#6EFFCE"/>
<stop offset="0.570035" stop-color="#A5FFFD" stop-opacity="0"/>
</radialGradient>
<radialGradient id="paint3_radial_778_11641" cx="0" cy="0" r="1" gradientUnits="userSpaceOnUse" gradientTransform="translate(41.2498 31.1665) rotate(63.4349) scale(73.7345)">
<stop offset="0.672439" stop-color="#9EC6FD" stop-opacity="0"/>
<stop offset="1" stop-color="white"/>
</radialGradient>
<radialGradient id="paint4_radial_778_11641" cx="0" cy="0" r="1" gradientUnits="userSpaceOnUse" gradientTransform="translate(45.7836 40.2341) rotate(62.0378) scale(63.6156)">
<stop offset="0.961458" stop-color="#2AA8FF" stop-opacity="0"/>
<stop offset="1" stop-color="#058AFF" stop-opacity="0.26"/>
</radialGradient>
<linearGradient id="paint5_linear_778_11641" x1="30.3493" y1="17.2383" x2="53.3136" y2="42.7427" gradientUnits="userSpaceOnUse">
<stop stop-color="white" stop-opacity="0.86"/>
<stop offset="1" stop-color="#D9D9D9" stop-opacity="0"/>
</linearGradient>
<linearGradient id="paint6_linear_778_11641" x1="48.5591" y1="20.1202" x2="34.6853" y2="36.0751" gradientUnits="userSpaceOnUse">
<stop stop-color="white"/>
<stop offset="1" stop-color="#FFFFE9" stop-opacity="0.38"/>
</linearGradient>
</defs>
</svg>
