<svg width="35" height="35" viewBox="0 0 35 35" fill="none" xmlns="http://www.w3.org/2000/svg">
<rect width="35" height="35" fill="#283160"/>
<g clip-path="url(#clip0_562_10663)">
<path d="M18.9956 16.0028C18.7929 15.7989 18.5681 15.6182 18.3255 15.4639C17.6829 15.0524 16.9358 14.8338 16.1727 14.8338C15.1136 14.8318 14.0975 15.2526 13.3499 16.0028L9.72301 19.6326C8.97667 20.3804 8.55719 21.3935 8.55652 22.45C8.55512 24.6547 10.3412 26.443 12.5458 26.4444C13.6033 26.4481 14.6185 26.0293 15.3658 25.2811L18.3597 22.2872C18.4141 22.2332 18.4445 22.1597 18.4441 22.0831C18.4432 21.9256 18.3147 21.7987 18.1573 21.7996H18.0432C17.4177 21.8018 16.7978 21.6817 16.2184 21.446C16.1116 21.4021 15.9889 21.4269 15.9076 21.5088L13.7548 23.6644C13.0863 24.3328 12.0025 24.3328 11.334 23.6644C10.6656 22.9959 10.6656 21.9121 11.334 21.2436L14.9752 17.6053C15.6432 16.9382 16.7252 16.9382 17.3932 17.6053C17.8433 18.0289 18.5455 18.0289 18.9956 17.6053C19.1893 17.4114 19.3067 17.1544 19.3264 16.881C19.3472 16.5544 19.2267 16.2345 18.9956 16.0028Z" fill="white"/>
<path d="M24.4961 10.5026C22.9371 8.94359 20.4095 8.94359 18.8505 10.5026L15.8594 13.4908C15.7773 13.5733 15.7536 13.6975 15.7995 13.8044C15.8449 13.9117 15.9511 13.9806 16.0675 13.9784H16.173C16.7978 13.9772 17.4167 14.0983 17.995 14.3348C18.1018 14.3787 18.2245 14.3539 18.3058 14.2721L20.4529 12.1279C21.1214 11.4594 22.2052 11.4594 22.8737 12.1279C23.5421 12.7963 23.5421 13.8802 22.8737 14.5486L20.1991 17.2203L20.1763 17.246L19.241 18.1756C18.5731 18.8427 17.4911 18.8427 16.8231 18.1756C16.3729 17.7519 15.6708 17.7519 15.2207 18.1756C15.0258 18.3709 14.9082 18.6302 14.8899 18.9055C14.869 19.2321 14.9895 19.552 15.2207 19.7837C15.5507 20.1151 15.9368 20.3854 16.3612 20.5821C16.4211 20.6106 16.4809 20.6334 16.5408 20.6591C16.6007 20.6847 16.6634 20.7047 16.7233 20.7275C16.7832 20.7503 16.8459 20.7703 16.9058 20.7874L17.074 20.833C17.1881 20.8615 17.3021 20.8843 17.419 20.9043C17.5598 20.9252 17.7016 20.9385 17.8439 20.9442H18.0435H18.0606L18.2316 20.9242C18.2944 20.9214 18.36 20.9071 18.4341 20.9071H18.531L18.7278 20.8786L18.819 20.8615L18.9844 20.8273H19.0158C19.7162 20.6514 20.3557 20.2887 20.8663 19.778L24.496 16.1482C26.0551 14.5892 26.0551 12.0616 24.4961 10.5026Z" fill="white"/>
</g>
<defs>
<clipPath id="clip0_562_10663">
<rect width="17.1111" height="17.1111" fill="white" transform="translate(8.55554 9.33334)"/>
</clipPath>
</defs>
</svg>
