<svg width="30" height="30" viewBox="0 0 30 30" fill="none" xmlns="http://www.w3.org/2000/svg">
<path d="M13.8614 6.69098C14.1607 5.76967 15.4641 5.76967 15.7635 6.69098L17.3944 11.7102C17.5282 12.1223 17.9122 12.4012 18.3454 12.4012H23.623C24.5917 12.4012 24.9945 13.6408 24.2107 14.2102L19.9411 17.3123C19.5906 17.567 19.444 18.0183 19.5778 18.4303L21.2087 23.4496C21.5081 24.3709 20.4536 25.137 19.6699 24.5676L15.4002 21.4656C15.0497 21.2109 14.5751 21.2109 14.2247 21.4656L9.95502 24.5676C9.17131 25.137 8.11683 24.3709 8.41618 23.4496L10.047 18.4303C10.1809 18.0183 10.0343 17.567 9.68376 17.3123L5.41413 14.2102C4.63042 13.6408 5.03319 12.4012 6.00192 12.4012H11.2795C11.7127 12.4012 12.0967 12.1223 12.2305 11.7102L13.8614 6.69098Z" fill="url(#paint0_linear_681_10238)"/>
<defs>
<linearGradient id="paint0_linear_681_10238" x1="14.8124" y1="6" x2="14.8124" y2="24.7631" gradientUnits="userSpaceOnUse">
<stop stop-color="#FFD74A"/>
<stop offset="1" stop-color="#FBCB23"/>
</linearGradient>
</defs>
</svg>
