<svg width="17" height="17" viewBox="0 0 17 17" fill="none" xmlns="http://www.w3.org/2000/svg">
<path d="M16.42 5.7115L12.5718 1.86329C12.2543 1.54577 11.9322 1.38477 11.6146 1.38477C11.1785 1.38477 10.6693 1.71646 10.6693 2.65133V3.96143C7.87342 4.08328 5.2625 5.22989 3.27111 7.22118C1.16191 9.33024 0.000199219 12.1344 0 15.1172C0 15.3315 0.137062 15.5218 0.340332 15.5896C0.392229 15.6069 0.445354 15.6153 0.49798 15.6153C0.651611 15.6153 0.800328 15.544 0.896219 15.4163C3.24763 12.2864 6.78775 10.4367 10.6693 10.2907V11.5806C10.6693 12.5154 11.1785 12.8472 11.6146 12.8472H11.6147C11.9323 12.8472 12.2543 12.6862 12.5718 12.3687L16.42 8.52042C16.794 8.14652 17 7.64774 17 7.11596C17 6.58428 16.794 6.08546 16.42 5.7115Z" fill="white"/>
</svg>
