<svg width="35" height="35" viewBox="0 0 35 35" fill="none" xmlns="http://www.w3.org/2000/svg">
<rect width="35" height="35" fill="#283160"/>
<path fill-rule="evenodd" clip-rule="evenodd" d="M18.8005 21.7039C18.8547 20.9729 19.2306 19.835 20.1703 20.4556C20.738 20.8315 21.1885 21.3761 21.6986 21.8542C22.1965 22.3198 22.7906 22.7266 23.8976 22.7016C24.554 22.6868 26.4394 22.7414 26.9305 22.5846C28.4148 22.1125 25.7849 19.955 25.1427 19.4722C24.8724 19.2691 24.5696 18.9799 24.3379 18.7649C24.0514 18.4994 23.9138 18.2304 24.1415 17.8141L25.1366 16.5872C25.4313 16.3051 26.5213 14.9386 26.7849 14.5645C27.1642 14.0253 27.9426 12.9652 26.9393 12.7954C26.375 12.6998 24.5432 12.7889 23.8461 12.793C22.4729 12.8007 22.752 12.6677 22.0746 14.0389C21.6234 14.9511 20.2305 17.1009 19.4921 17.3462C18.123 17.8011 19.1941 13.448 18.6169 12.695C18.2666 12.2383 16.6435 12.2954 15.884 12.3043C15.002 12.3138 13.7826 12.3547 13.5252 12.9926C13.6038 13.0513 13.5177 13.0116 13.6702 13.0662C13.7799 13.1054 13.9513 13.1143 14.1376 13.2016C14.3029 13.2782 14.4533 13.413 14.5393 13.5342C14.9553 14.1173 14.9051 16.5741 14.561 17.1698C13.9167 18.2827 12.0348 15.156 11.7123 14.599C11.2517 13.8038 11.0708 13.0306 10.5492 12.8328C10.1711 12.6903 8.02837 12.7699 7.45186 12.7782C6.92413 12.7853 6.46889 12.8583 6.66941 13.4065C6.77035 13.6826 7.01017 14.0716 7.15514 14.3501C8.0487 16.0694 9.44559 18.1799 10.6765 19.61C12.066 21.2235 14.12 22.6529 16.7166 22.6713C18.5816 22.6844 18.7226 22.7568 18.8005 21.7039Z" fill="white"/>
</svg>
