<svg width="102" height="17" viewBox="0 0 102 17" fill="none" xmlns="http://www.w3.org/2000/svg">
<path d="M101.073 1.81976C101.525 1.50346 101.636 0.880033 101.32 0.427294C101.003 -0.0254476 100.38 -0.136057 99.9273 0.180242L101.073 1.81976ZM0.683772 4.981C0.159829 5.15565 -0.123331 5.72197 0.0513167 6.24592L2.89737 14.7841C3.07201 15.308 3.63833 15.5912 4.16228 15.4165C4.68622 15.2419 4.96938 14.6756 4.79473 14.1516L2.26491 6.56214L9.85438 4.03232C10.3783 3.85767 10.6615 3.29135 10.4868 2.76741C10.3122 2.24347 9.74587 1.96031 9.22192 2.13495L0.683772 4.981ZM4.0022 8.32664C4.5166 8.52767 5.09657 8.27363 5.2976 7.75923C5.49862 7.24483 5.24459 6.66487 4.73019 6.46384L4.0022 8.32664ZM11.6726 8.81804C11.1433 8.66036 10.5864 8.96161 10.4287 9.4909C10.271 10.0202 10.5723 10.5771 11.1016 10.7348L11.6726 8.81804ZM18.3095 12.6488C18.847 12.7754 19.3855 12.4422 19.512 11.9046C19.6386 11.367 19.3054 10.8286 18.7678 10.702L18.3095 12.6488ZM25.9505 12.1934C25.407 12.0953 24.8869 12.4564 24.7888 12.9999C24.6906 13.5434 25.0517 14.0635 25.5952 14.1616L25.9505 12.1934ZM32.9604 15.2943C33.5083 15.3639 34.0089 14.9762 34.0785 14.4284C34.1481 13.8805 33.7605 13.3799 33.2126 13.3102L32.9604 15.2943ZM40.5231 14.0411C39.9722 14.0011 39.4933 14.4153 39.4533 14.9661C39.4134 15.517 39.8276 15.9959 40.3784 16.0359L40.5231 14.0411ZM47.8274 16.3639C48.3796 16.3721 48.834 15.9311 48.8422 15.3789C48.8505 14.8267 48.4095 14.3723 47.8573 14.3641L47.8274 16.3639ZM55.1915 14.2491C54.6398 14.2752 54.2137 14.7435 54.2397 15.2952C54.2658 15.8468 54.7341 16.2729 55.2858 16.2469L55.1915 14.2491ZM62.7259 15.6461C63.2745 15.5828 63.6679 15.0866 63.6045 14.538C63.5411 13.9894 63.045 13.596 62.4964 13.6594L62.7259 15.6461ZM69.734 12.5533C69.1916 12.6573 68.8362 13.1814 68.9402 13.7238C69.0443 14.2662 69.5683 14.6216 70.1107 14.5175L69.734 12.5533ZM77.3916 12.8151C77.9237 12.6672 78.2352 12.116 78.0873 11.5838C77.9393 11.0517 77.3881 10.7403 76.856 10.8882L77.3916 12.8151ZM83.8023 8.62423C83.2855 8.8189 83.0243 9.39569 83.219 9.91253C83.4137 10.4294 83.9905 10.6905 84.5073 10.4959L83.8023 8.62423ZM91.3842 7.52598C91.88 7.28269 92.0847 6.68353 91.8414 6.18772C91.5981 5.69191 90.999 5.4872 90.5031 5.73049L91.3842 7.52598ZM96.8822 2.19133C96.4136 2.4836 96.2706 3.10042 96.5629 3.56903C96.8551 4.03765 97.4719 4.1806 97.9406 3.88834L96.8822 2.19133ZM0.552786 6.82411C1.46049 7.27797 2.62127 7.78697 4.0022 8.32664L4.73019 6.46384C3.388 5.93931 2.28581 5.45456 1.44721 5.03526L0.552786 6.82411ZM11.1016 10.7348C13.2832 11.3847 15.6987 12.0341 18.3095 12.6488L18.7678 10.702C16.1947 10.0962 13.8168 9.45685 11.6726 8.81804L11.1016 10.7348ZM25.5952 14.1616C27.9513 14.587 30.413 14.9705 32.9604 15.2943L33.2126 13.3102C30.7012 12.991 28.2738 12.6129 25.9505 12.1934L25.5952 14.1616ZM40.3784 16.0359C42.8115 16.2123 45.2995 16.3261 47.8274 16.3639L47.8573 14.3641C45.3696 14.3269 42.92 14.2149 40.5231 14.0411L40.3784 16.0359ZM55.2858 16.2469C57.7467 16.1307 60.231 15.9343 62.7259 15.6461L62.4964 13.6594C60.0489 13.9421 57.6097 14.135 55.1915 14.2491L55.2858 16.2469ZM70.1107 14.5175C72.5433 14.0511 74.9743 13.4871 77.3916 12.8151L76.856 10.8882C74.4937 11.5449 72.1159 12.0966 69.734 12.5533L70.1107 14.5175ZM84.5073 10.4959C86.8274 9.62201 89.1234 8.63534 91.3842 7.52598L90.5031 5.73049C88.3021 6.81053 86.065 7.772 83.8023 8.62423L84.5073 10.4959ZM97.9406 3.88834C98.9959 3.23013 100.04 2.54098 101.073 1.81976L99.9273 0.180242C98.9238 0.881298 97.9084 1.55131 96.8822 2.19133L97.9406 3.88834Z" fill="#18063C"/>
</svg>
