<svg width="763" height="122" viewBox="0 0 763 122" fill="none" xmlns="http://www.w3.org/2000/svg">
<path d="M756.284 71.1532C746.293 111.613 718.659 97.3394 716.864 87.0013C715.07 76.6633 724.297 66.758 736.105 68.6029C744.423 69.8671 749.975 73.0163 756.284 71.1532Z" fill="#BBD645"/>
<path d="M573.706 85.745C599.218 76.7417 601.325 96.8216 596.357 101.481C591.388 106.14 582.725 104.665 579.516 97.6016C577.237 92.6383 576.966 88.5033 573.706 85.745Z" fill="#DCF375"/>
<path d="M427.97 115.609C452.134 127.774 456.771 108.123 452.433 102.872C448.096 97.6202 439.315 97.9849 435.237 104.584C432.347 109.219 431.554 113.286 427.97 115.609Z" fill="#DCF375"/>
<path d="M289.024 58.5098C267.962 68.8003 279.086 82.3025 284.984 82.0638C290.881 81.825 295.233 75.5766 292.819 69.303C291.138 64.8792 288.748 62.1995 289.024 58.5098Z" fill="#DCF375"/>
<path d="M251.585 81.6323C278.343 64.3882 286.216 86.8033 281.795 93.4884C277.373 100.173 267.054 100.84 261.46 93.6263C257.501 88.564 256.067 83.9037 251.585 81.6323Z" fill="#BBD645"/>
<path d="M524.966 6.84979C493.143 6.037 498.076 29.2768 505.329 32.6873C512.582 36.0978 521.743 31.3008 522.769 22.2301C523.517 15.8472 522.319 11.1207 524.966 6.84979Z" fill="#BBD645"/>
<path d="M480.962 6.5736C504.304 4.40941 501.824 21.7275 496.663 24.5905C491.502 27.4535 484.535 24.3801 483.334 17.766C482.47 13.1131 483.117 9.58129 480.962 6.5736Z" fill="#DCF375"/>
<path d="M376.823 39.7694C355.64 32.2934 353.89 48.9671 358.015 52.836C362.141 56.7048 369.335 55.4799 371.999 49.6148C373.892 45.4934 374.117 42.0598 376.823 39.7694Z" fill="#DCF375"/>
<path d="M294.145 10.9508C271.154 -3.30827 264.794 15.8541 268.65 21.4695C272.505 27.0848 281.283 27.4998 285.93 21.2877C289.22 16.9278 290.37 12.9469 294.145 10.9508Z" fill="#DCF375"/>
<path d="M58.4057 4.18584C33.4721 14.6839 45.4193 30.96 52.2299 31.0655C59.0405 31.171 64.4589 24.2521 62.0818 16.8675C60.4299 11.6615 57.849 8.41949 58.4057 4.18584Z" fill="#DCF375"/>
<path d="M2.56835 17.9429C49.9107 -8.94401 61.2104 30.0855 53.021 41.0781C44.8315 52.0707 27.1464 52.2225 18.2848 39.3688C12.0082 30.3455 10.0043 22.2504 2.56835 17.9429Z" fill="#BBD645"/>
</svg>
