<svg width="635" height="104" viewBox="0 0 635 104" fill="none" xmlns="http://www.w3.org/2000/svg">
<path d="M1.99965 14.7528C38.8591 -6.18056 47.6567 24.2067 41.2806 32.7652C34.9046 41.3237 21.1354 41.442 14.236 31.4344C9.34926 24.4091 7.78905 18.1065 1.99965 14.7528Z" fill="#BBD645"/>
<path d="M629.647 62.5817C621.278 96.4731 598.131 84.5168 596.627 75.857C595.124 67.1973 602.853 58.9 612.744 60.4454C619.712 61.5044 624.363 64.1423 629.647 62.5817Z" fill="#BBD645"/>
<path d="M448.431 4.56195C423.654 3.92913 427.495 22.023 433.142 24.6783C438.789 27.3336 445.921 23.5988 446.72 16.5367C447.303 11.5671 446.37 7.88717 448.431 4.56195Z" fill="#BBD645"/>
<path d="M191.205 70.5668C212.039 57.1411 218.168 74.5929 214.726 79.7977C211.284 85.0024 203.249 85.5217 198.894 79.9051C195.812 75.9637 194.695 72.3353 191.205 70.5668Z" fill="#BBD645"/>
<path d="M45.473 4.04139C26.0604 12.2149 35.3621 24.887 40.6647 24.9691C45.9672 25.0513 50.1859 19.6644 48.3351 13.9149C47.049 9.86174 45.0396 7.33759 45.473 4.04139Z" fill="#DCF375"/>
<path d="M414.171 4.34446C432.344 2.65948 430.413 16.1429 426.395 18.3719C422.377 20.601 416.952 18.2081 416.018 13.0585C415.345 9.4359 415.849 6.68617 414.171 4.34446Z" fill="#DCF375"/>
<path d="M220.355 52.5628C203.956 60.5748 212.617 71.0872 217.209 70.9013C221.8 70.7154 225.189 65.8506 223.309 60.9662C222 57.5219 220.139 55.4355 220.355 52.5628Z" fill="#DCF375"/>
<path d="M247.699 8.52492C229.799 -2.57683 224.847 12.3424 227.849 16.7144C230.85 21.0864 237.685 21.4095 241.303 16.5729C243.864 13.1784 244.76 10.079 247.699 8.52492Z" fill="#DCF375"/>
<path d="M347.22 98.5768C366.033 108.048 369.643 92.7491 366.266 88.6603C362.889 84.5715 356.053 84.8554 352.878 89.9936C350.627 93.6017 350.01 96.7684 347.22 98.5768Z" fill="#DCF375"/>
<path d="M323.486 30.1655C303.623 23.1558 301.982 38.7895 305.851 42.417C309.719 46.0445 316.464 44.8961 318.962 39.3968C320.737 35.5325 320.948 32.3131 323.486 30.1655Z" fill="#DCF375"/>
<path d="M473.922 73.7671C493.784 66.7574 495.425 82.391 491.557 86.0186C487.688 89.6461 480.943 88.4976 478.445 82.9983C476.671 79.134 476.46 75.9146 473.922 73.7671Z" fill="#DCF375"/>
</svg>
