<svg width="333" height="70" viewBox="0 0 333 70" fill="none" xmlns="http://www.w3.org/2000/svg">
<path d="M328.664 42.1239C323.02 64.9769 307.412 56.9148 306.398 51.0755C305.384 45.2362 310.596 39.6413 317.266 40.6834C321.964 41.3975 325.1 43.1762 328.664 42.1239Z" fill="#BBD645"/>
<path d="M221.946 49.3351C235.339 44.6084 236.446 55.1502 233.837 57.5962C231.229 60.0423 226.68 59.2679 224.996 55.5597C223.799 52.954 223.657 50.7832 221.946 49.3351Z" fill="#DCF375"/>
<path d="M134.034 66.5187C146.72 72.9055 149.155 62.5891 146.877 59.832C144.6 57.075 139.99 57.2664 137.849 60.7311C136.332 63.164 135.916 65.2993 134.034 66.5187Z" fill="#DCF375"/>
<path d="M46.9623 36.1723C35.9047 41.5747 41.7451 48.6633 44.8411 48.5379C47.9371 48.4126 50.2221 45.1322 48.9545 41.8386C48.0718 39.5162 46.8171 38.1093 46.9623 36.1723Z" fill="#DCF375"/>
<path d="M27.307 48.3103C41.3549 39.2573 45.4881 51.0251 43.1669 54.5347C40.8457 58.0442 35.4282 58.3944 32.4916 54.6071C30.4131 51.9494 29.6599 49.5028 27.307 48.3103Z" fill="#BBD645"/>
<path d="M309.232 3.08219C292.525 2.65548 295.115 14.8562 298.922 16.6466C302.73 18.4371 307.54 15.9188 308.078 11.1567C308.471 7.80576 307.842 5.32439 309.232 3.08219Z" fill="#BBD645"/>
<path d="M286.13 2.93795C298.384 1.80176 297.082 10.8936 294.373 12.3967C291.663 13.8997 288.006 12.2862 287.375 8.81385C286.922 6.37111 287.262 4.51696 286.13 2.93795Z" fill="#DCF375"/>
<path d="M224.43 21.0734C211.037 16.3467 209.93 26.8885 212.539 29.3345C215.147 31.7806 219.695 31.0062 221.38 27.298C222.576 24.6923 222.719 22.5214 224.43 21.0734Z" fill="#DCF375"/>
<path d="M174.251 6.48066C162.181 -1.00526 158.842 9.05482 160.866 12.0028C162.89 14.9509 167.498 15.1687 169.938 11.9074C171.665 9.61853 172.269 7.52855 174.251 6.48066Z" fill="#DCF375"/>
<path d="M30.775 3.4572C17.685 8.96858 23.9572 17.5134 27.5327 17.5688C31.1082 17.6242 33.9528 13.9918 32.7049 10.1149C31.8377 7.38186 30.4827 5.67983 30.775 3.4572Z" fill="#DCF375"/>
<path d="M1.46091 10.6807C26.3153 -3.43469 32.2475 17.0555 27.9481 22.8265C23.6487 28.5975 14.3642 28.6772 9.7119 21.9291C6.41676 17.192 5.36471 12.9421 1.46091 10.6807Z" fill="#BBD645"/>
</svg>
