<svg width="475" height="576" viewBox="0 0 475 576" fill="none" xmlns="http://www.w3.org/2000/svg">
<path d="M141.611 378.255L203.761 5.96477C257.48 72.0782 272.447 170.005 273.877 251.858C274.598 293.109 271.88 330.218 268.982 357.015C267.533 370.413 266.039 381.23 264.908 388.697C264.342 392.43 263.867 395.325 263.534 397.285C263.39 398.133 263.272 398.805 263.185 399.296L141.611 378.255Z" fill="#DE320E" stroke="black" stroke-width="2"/>
<path d="M140.899 375.998L139.913 375.833L139.748 376.819L139.025 381.142L138.861 382.129L139.847 382.293L273.283 404.599L274.269 404.764L274.434 403.778L275.157 399.455L275.322 398.469L274.335 398.304L140.899 375.998Z" fill="#BDBDBD" stroke="black" stroke-width="2"/>
<path d="M7.66372 447.611L7.26337 448.528L8.17973 448.928L12.4967 450.814L13.4131 451.214L13.8135 450.298L206.547 9.14918L206.947 8.23282L206.031 7.83247L201.714 5.94641L200.797 5.54607L200.397 6.46243L7.66372 447.611Z" fill="#BDBDBD" stroke="black" stroke-width="2"/>
<path d="M135.756 407.421L136.728 407.566L136.89 406.597L204.086 3.78351L202.183 3.21877L60.73 327.139L60.5932 327.452L60.6766 327.783C65.0552 345.18 73.6372 361.237 85.6692 374.543L85.6741 374.548L85.679 374.554C99.3689 389.262 111.839 397.474 120.916 402.012C125.454 404.281 129.141 405.63 131.705 406.413C132.987 406.805 133.989 407.055 134.675 407.209C135.018 407.285 135.283 407.338 135.465 407.371C135.555 407.388 135.625 407.4 135.674 407.408L135.731 407.417L135.748 407.42L135.753 407.421L135.755 407.421C135.755 407.421 135.756 407.421 135.903 406.432L135.756 407.421Z" fill="white" stroke="black" stroke-width="2"/>
<path d="M200.016 2.14647L199.03 1.98177L198.865 2.96811L121.438 466.647L121.274 467.633L122.26 467.798L128.735 468.879L129.721 469.044L129.886 468.057L207.313 4.37873L207.478 3.39238L206.491 3.22768L200.016 2.14647Z" fill="#BDBDBD" stroke="black" stroke-width="2"/>
<path d="M364.298 477.806L363.311 477.645L363.15 478.632L359.294 502.284L359.133 503.27L360.12 503.431L403.171 510.45L404.158 510.611L404.319 509.624L408.175 485.972L408.336 484.986L407.349 484.825L364.298 477.806Z" fill="#E53935" stroke="black" stroke-width="2"/>
<path d="M468.796 558.264L469.509 558.153L469.628 557.441L472.555 539.917L472.673 539.212L472.044 538.872L420.462 510.99L420.315 510.911L420.151 510.883L4.3211 441.466L2.35001 441.137L3.26826 442.911L27.9995 490.715L28.2295 491.159L28.7231 491.242L448.705 561.35L448.864 561.377L449.024 561.352L468.796 558.264Z" fill="white" stroke="black" stroke-width="2"/>
<path d="M34.3043 498.569L30.6916 491.569L442.62 560.332L353.614 574.329L222.028 552.373L34.3043 498.569Z" fill="#DE320E" stroke="black" stroke-width="2"/>
<path d="M204.034 444.064L337.154 466.291L332.176 496.196L140.422 464.178L204.034 444.064Z" fill="#DE320E" stroke="black" stroke-width="2"/>
</svg>
