<svg width="1920" height="315" preserveAspectRatio="none" fill="none" xmlns="http://www.w3.org/2000/svg"><path d="M1923 67.118c-36.64-9.817-327.43-86.606-383.1-62.436-185.31 80.322-325.26 58.94-448.95 51.354C967.251 48.45 817.644 5.612 722.723 45.513c-94.921 39.9-247.392-9.966-365.316-13.573C239.482 28.333 0 64.515 0 64.515V315h1923V67.118z" fill="#CFBC76"/><path d="M1449.66 149.277c-164.54 19.979-485.085-93.198-542.727-99.3-57.643-6.1-232.966 105.96-320.713 104.806-87.747-1.153-234.847-55.435-339.613-72.474C162.024 68.58 42.762 124.238 0 146.189v166.193h1920V98.604s-305.79 30.694-470.34 50.673z" fill="#BEAC69"/><path d="M1636.49 218.543c-51.96 21.092-153.69-39.989-254.14 19.939-100.45 59.927-562.031-3.348-492.542-19.939 69.49-16.591 114.302-53.307-17.832-69.079-132.137-15.773-158.564 65.694-357.24 108.956-198.676 43.263-333.336-59.89-211.505-39.877 121.831 20.013 296.988-3.385 224.334-16.703-72.654-13.317-222.367-36.604-297.159-49.921S0 183.687 0 183.687V315h1923v-77.783c-26.68-8.705-188.54-58.477-286.51-18.674z" fill="#B4A262"/><path opacity=".71" d="M760 132.063s58.933-60.825 174.664-45.954c115.726 14.872 352.016 123.547 426.086 116.892 74.06-6.655-15.43 49.337-352.45 15.578-103.338-10.373 73.12-24.501 39.79-61.048-33.34-36.547-142.786-85.364-288.09-25.468zm1162.87 31.811l-1.41-27.752s-343.15 35.062-378.75 38.549c-35.6 3.488-121.03 85.335 28.47 63.259 149.5-22.075 217.96-89.045 256.43-49.012 32.69 34.171 81.54 45.673 95.39 48.233l-.13-73.277z" fill="#B4A262"/><path d="M1923 258.499c-30.76-7.43-110.72-24.926-166.47-16.122-70.34 11.144-40.22 36.069-339.53 38.298-299.32 2.229-278.1 34.323-370 34.323h876v-56.499zM408.274 268.85c57.867-44.806-89.881-40.848-150.058-26.846-60.178 14.001-170.39-10.493-118.9-43.91 51.489-33.418-139.316 0-139.316 0V315h486s-135.763-1.493-77.726-46.15z" fill="#9A894D"/><path d="M265 64.581s47.945-44.391 119.438-26.154c71.492 18.238 62.125 52.678 212.22 47.61C746.754 80.97 590.399 167.311 265 64.581z" fill="#EDD87B"/><path opacity=".71" d="M1222.48 94.355s149.8 4.817 189.64-19.677c39.85-24.495 152.58-65.701 158.36-40.762 5.78 24.939-81.75 5.521-96.51 40.762-14.77 35.24 253.2-54.695 273.91-14.193 20.72 40.503-251.91 86.823-400.47 75.706-148.56-11.117-132.25-33.017-124.93-41.837z" fill="#B4A262"/><path d="M645.265 289.72s-73.028-16.657-24.784-38.669c48.244-22.013 79.138-.259 116.357-8.938 37.22-8.68 2.18 35.086 167.764 32.058 165.588-3.029 283.518 11.412 246.598 32.132-36.92 20.719-364.238-10.932-505.935-16.583z" fill="#9A894D"/></svg>