<svg width="80" height="80" viewBox="0 0 80 80" fill="none" xmlns="http://www.w3.org/2000/svg">
<path d="M55 51.25H25C24.0058 51.2489 23.0526 50.8535 22.3496 50.1504C21.6465 49.4474 21.2511 48.4942 21.25 47.5V25C21.2511 24.0058 21.6465 23.0526 22.3496 22.3496C23.0526 21.6465 24.0058 21.2511 25 21.25H55C55.9942 21.2511 56.9474 21.6465 57.6504 22.3496C58.3535 23.0526 58.7489 24.0058 58.75 25V47.5C58.7489 48.4942 58.3535 49.4474 57.6504 50.1504C56.9474 50.8535 55.9942 51.2489 55 51.25ZM25 23.75C24.6686 23.7503 24.3508 23.8821 24.1164 24.1164C23.8821 24.3508 23.7503 24.6686 23.75 25V47.5C23.7503 47.8314 23.8821 48.1492 24.1164 48.3836C24.3508 48.6179 24.6686 48.7497 25 48.75H55C55.3314 48.7497 55.6492 48.6179 55.8836 48.3836C56.1179 48.1492 56.2497 47.8314 56.25 47.5V25C56.2497 24.6686 56.1179 24.3508 55.8836 24.1164C55.6492 23.8821 55.3314 23.7503 55 23.75H25Z" fill="white"/>
<path d="M46.875 60H33.125C32.2962 60 31.5013 59.6708 30.9153 59.0847C30.3292 58.4987 30 57.7038 30 56.875C30 56.0462 30.3292 55.2513 30.9153 54.6653C31.5013 54.0792 32.2962 53.75 33.125 53.75H34.2944L35.4603 49.6576C35.5349 49.3963 35.6926 49.1664 35.9095 49.0027C36.1264 48.8389 36.3907 48.7502 36.6625 48.75H43.3375C43.6093 48.7502 43.8736 48.8389 44.0905 49.0026C44.3075 49.1664 44.4652 49.3963 44.5399 49.6576L45.7056 53.75H46.875C47.7038 53.75 48.4987 54.0792 49.0847 54.6653C49.6708 55.2513 50 56.0462 50 56.875C50 57.7038 49.6708 58.4987 49.0847 59.0847C48.4987 59.6708 47.7038 60 46.875 60ZM33.125 56.25C32.9592 56.25 32.8003 56.3158 32.6831 56.4331C32.5658 56.5503 32.5 56.7092 32.5 56.875C32.5 57.0408 32.5658 57.1997 32.6831 57.3169C32.8003 57.4342 32.9592 57.5 33.125 57.5H46.875C47.0408 57.5 47.1997 57.4342 47.3169 57.3169C47.4342 57.1997 47.5 57.0408 47.5 56.875C47.5 56.7092 47.4342 56.5503 47.3169 56.4331C47.1997 56.3158 47.0408 56.25 46.875 56.25H44.7625C44.4907 56.2498 44.2264 56.1611 44.0095 55.9974C43.7925 55.8336 43.6348 55.6037 43.5601 55.3424L42.3938 51.25H37.6062L36.4404 55.3424C36.3657 55.6038 36.2079 55.8338 35.9908 55.9975C35.7738 56.1613 35.5094 56.2499 35.2375 56.25H33.125Z" fill="white"/>
<path d="M40 46.25C38.0222 46.25 36.0888 45.6635 34.4443 44.5647C32.7998 43.4659 31.5181 41.9041 30.7612 40.0768C30.0043 38.2496 29.8063 36.2389 30.1922 34.2991C30.578 32.3593 31.5304 30.5775 32.9289 29.1789C34.3275 27.7804 36.1093 26.828 38.0491 26.4422C39.9889 26.0563 41.9996 26.2543 43.8268 27.0112C45.6541 27.7681 47.2159 29.0498 48.3147 30.6943C49.4135 32.3388 50 34.2722 50 36.25C49.997 38.9012 48.9424 41.443 47.0677 43.3177C45.193 45.1924 42.6512 46.247 40 46.25ZM40 28.75C38.5166 28.75 37.0666 29.1899 35.8332 30.014C34.5999 30.8381 33.6386 32.0094 33.0709 33.3799C32.5033 34.7503 32.3547 36.2583 32.6441 37.7132C32.9335 39.168 33.6478 40.5044 34.6967 41.5533C35.7456 42.6022 37.082 43.3165 38.5368 43.6059C39.9917 43.8953 41.4997 43.7468 42.8701 43.1791C44.2406 42.6114 45.4119 41.6502 46.236 40.4168C47.0601 39.1834 47.5 37.7334 47.5 36.25C47.4978 34.2616 46.7069 32.3552 45.3009 30.9491C43.8948 29.5431 41.9885 28.7522 40 28.75Z" fill="white"/>
<path d="M40.625 41.25H37.5C37.1685 41.25 36.8505 41.1183 36.6161 40.8839C36.3817 40.6495 36.25 40.3315 36.25 40C36.25 39.6685 36.3817 39.3505 36.6161 39.1161C36.8505 38.8817 37.1685 38.75 37.5 38.75H40.625C40.7908 38.75 40.9497 38.6842 41.0669 38.5669C41.1842 38.4497 41.25 38.2908 41.25 38.125C41.25 37.9592 41.1842 37.8003 41.0669 37.6831C40.9497 37.5658 40.7908 37.5 40.625 37.5H39.375C38.5462 37.5 37.7513 37.1708 37.1653 36.5847C36.5792 35.9987 36.25 35.2038 36.25 34.375C36.25 33.5462 36.5792 32.7513 37.1653 32.1653C37.7513 31.5792 38.5462 31.25 39.375 31.25H42.5C42.8315 31.25 43.1495 31.3817 43.3839 31.6161C43.6183 31.8505 43.75 32.1685 43.75 32.5C43.75 32.8315 43.6183 33.1495 43.3839 33.3839C43.1495 33.6183 42.8315 33.75 42.5 33.75H39.375C39.2092 33.75 39.0503 33.8158 38.9331 33.9331C38.8158 34.0503 38.75 34.2092 38.75 34.375C38.75 34.5408 38.8158 34.6997 38.9331 34.8169C39.0503 34.9342 39.2092 35 39.375 35H40.625C41.4538 35 42.2487 35.3292 42.8347 35.9153C43.4208 36.5013 43.75 37.2962 43.75 38.125C43.75 38.9538 43.4208 39.7487 42.8347 40.3347C42.2487 40.9208 41.4538 41.25 40.625 41.25Z" fill="white"/>
<path d="M40 33.75C39.6685 33.75 39.3505 33.6183 39.1161 33.3839C38.8817 33.1495 38.75 32.8315 38.75 32.5V31.25C38.75 30.9185 38.8817 30.6005 39.1161 30.3661C39.3505 30.1317 39.6685 30 40 30C40.3315 30 40.6495 30.1317 40.8839 30.3661C41.1183 30.6005 41.25 30.9185 41.25 31.25V32.5C41.25 32.8315 41.1183 33.1495 40.8839 33.3839C40.6495 33.6183 40.3315 33.75 40 33.75Z" fill="white"/>
<path d="M40 42.5C39.6685 42.5 39.3505 42.3683 39.1161 42.1339C38.8817 41.8995 38.75 41.5815 38.75 41.25V40C38.75 39.6685 38.8817 39.3505 39.1161 39.1161C39.3505 38.8817 39.6685 38.75 40 38.75C40.3315 38.75 40.6495 38.8817 40.8839 39.1161C41.1183 39.3505 41.25 39.6685 41.25 40V41.25C41.25 41.5815 41.1183 41.8995 40.8839 42.1339C40.6495 42.3683 40.3315 42.5 40 42.5Z" fill="white"/>
</svg>
