<svg width="80" height="80" viewBox="0 0 80 80" fill="none" xmlns="http://www.w3.org/2000/svg">
<path d="M36.25 42.5H28.75C27.7558 42.4989 26.8026 42.1035 26.0996 41.4004C25.3965 40.6974 25.0011 39.7442 25 38.75V31.25C25.0011 30.2558 25.3965 29.3026 26.0996 28.5996C26.8026 27.8965 27.7558 27.5011 28.75 27.5H36.25C36.5815 27.5 36.8995 27.6317 37.1339 27.8661C37.3683 28.1005 37.5 28.4185 37.5 28.75V41.25C37.5 41.5815 37.3683 41.8995 37.1339 42.1339C36.8995 42.3683 36.5815 42.5 36.25 42.5ZM28.75 30C28.4186 30.0004 28.1009 30.1323 27.8666 30.3666C27.6323 30.6009 27.5004 30.9186 27.5 31.25V38.75C27.5004 39.0814 27.6323 39.3991 27.8666 39.6334C28.1009 39.8677 28.4186 39.9996 28.75 40H35V30H28.75Z" fill="white"/>
<path d="M26.25 40H24.2969C23.1577 39.9987 22.0655 39.5456 21.2599 38.7401C20.4544 37.9345 20.0013 36.8423 20 35.7031V34.2969C20.0013 33.1577 20.4544 32.0655 21.2599 31.2599C22.0655 30.4544 23.1577 30.0013 24.2969 30H26.25C26.5815 30 26.8995 30.1317 27.1339 30.3661C27.3683 30.6005 27.5 30.9185 27.5 31.25V38.75C27.5 39.0815 27.3683 39.3995 27.1339 39.6339C26.8995 39.8683 26.5815 40 26.25 40ZM24.2969 32.5C23.8205 32.5006 23.3638 32.6901 23.027 33.027C22.6901 33.3638 22.5006 33.8205 22.5 34.2969V35.7031C22.5006 36.1795 22.6901 36.6362 23.027 36.973C23.3638 37.3099 23.8205 37.4994 24.2969 37.5H25V32.5H24.2969Z" fill="white"/>
<path d="M48.75 47.5C48.5325 47.5001 48.3187 47.4433 48.1299 47.3353L39.668 42.5H36.25C35.9185 42.5 35.6005 42.3684 35.3661 42.1339C35.1317 41.8995 35 41.5816 35 41.25V28.75C35 28.4185 35.1317 28.1006 35.3661 27.8662C35.6005 27.6317 35.9185 27.5 36.25 27.5H39.668L48.1305 22.6648C48.3206 22.5563 48.5358 22.4997 48.7546 22.5005C48.9735 22.5013 49.1883 22.5596 49.3776 22.6694C49.5668 22.7793 49.7239 22.9369 49.8332 23.1266C49.9424 23.3162 49.9999 23.5312 50 23.75V46.25C50 46.5816 49.8683 46.8995 49.6339 47.1339C49.3995 47.3684 49.0815 47.5 48.75 47.5ZM37.5 40H40C40.2175 40 40.4313 40.0568 40.6201 40.1648L47.5 44.0962V25.9039L40.6201 29.8353C40.4313 29.9433 40.2175 30.0001 40 30H37.5V40Z" fill="white"/>
<path d="M51.25 50C50.2558 49.9989 49.3026 49.6035 48.5996 48.9004C47.8965 48.1974 47.5011 47.2442 47.5 46.25V23.75C47.5 22.7554 47.8951 21.8016 48.5983 21.0983C49.3016 20.3951 50.2554 20 51.25 20C52.2446 20 53.1984 20.3951 53.9017 21.0983C54.6049 21.8016 55 22.7554 55 23.75V46.25C54.9989 47.2442 54.6035 48.1974 53.9004 48.9004C53.1974 49.6035 52.2442 49.9989 51.25 50ZM51.25 22.5C50.9186 22.5004 50.6009 22.6323 50.3666 22.8666C50.1323 23.1009 50.0004 23.4186 50 23.75V46.25C50 46.5815 50.1317 46.8995 50.3661 47.1339C50.6005 47.3683 50.9185 47.5 51.25 47.5C51.5815 47.5 51.8995 47.3683 52.1339 47.1339C52.3683 46.8995 52.5 46.5815 52.5 46.25V23.75C52.4996 23.4186 52.3677 23.1009 52.1334 22.8666C51.8991 22.6323 51.5814 22.5004 51.25 22.5Z" fill="white"/>
<path d="M55 40H53.75C53.4185 40 53.1005 39.8683 52.8661 39.6339C52.6317 39.3995 52.5 39.0815 52.5 38.75V31.25C52.5 30.9185 52.6317 30.6005 52.8661 30.3661C53.1005 30.1317 53.4185 30 53.75 30H55C56.3261 30 57.5979 30.5268 58.5355 31.4645C59.4732 32.4021 60 33.6739 60 35C60 36.3261 59.4732 37.5979 58.5355 38.5355C57.5979 39.4732 56.3261 40 55 40ZM55 32.5V37.5C55.663 37.5 56.2989 37.2366 56.7678 36.7678C57.2366 36.2989 57.5 35.663 57.5 35C57.5 34.337 57.2366 33.7011 56.7678 33.2322C56.2989 32.7634 55.663 32.5 55 32.5Z" fill="white"/>
<path d="M35 60H32.5C31.5058 59.9989 30.5526 59.6035 29.8496 58.9004C29.1465 58.1974 28.7511 57.2442 28.75 56.25V41.25C28.75 40.9185 28.8817 40.6005 29.1161 40.3661C29.3505 40.1317 29.6685 40 30 40H38.75C38.94 40 39.1274 40.0433 39.2981 40.1267C39.4689 40.21 39.6183 40.3311 39.7352 40.4809C39.8521 40.6306 39.9333 40.805 39.9727 40.9909C40.0121 41.1767 40.0086 41.3691 39.9625 41.5534L38.75 46.4037V56.25C38.7489 57.2442 38.3535 58.1974 37.6504 58.9004C36.9474 59.6035 35.9942 59.9989 35 60ZM31.25 42.5V56.25C31.2504 56.5814 31.3823 56.8991 31.6166 57.1334C31.8509 57.3677 32.1686 57.4996 32.5 57.5H35C35.3314 57.4996 35.6491 57.3677 35.8834 57.1334C36.1177 56.8991 36.2496 56.5814 36.25 56.25V46.25C36.2503 46.1477 36.2629 46.0459 36.2875 45.9466L37.149 42.5H31.25Z" fill="white"/>
</svg>
