<svg width="80" height="80" viewBox="0 0 80 80" fill="none" xmlns="http://www.w3.org/2000/svg">
<path d="M32.9252 34.175C32.761 34.1752 32.5984 34.143 32.4468 34.0802C32.2951 34.0173 32.1573 33.9252 32.0414 33.8089L26.7664 28.5339C26.5387 28.2982 26.4127 27.9824 26.4156 27.6547C26.4184 27.3269 26.5499 27.0134 26.7816 26.7816C27.0134 26.5499 27.3269 26.4184 27.6547 26.4156C27.9824 26.4127 28.2982 26.5387 28.5339 26.7664L33.8089 32.0414C33.9836 32.2162 34.1026 32.4389 34.1508 32.6814C34.199 32.9238 34.1742 33.175 34.0796 33.4034C33.985 33.6317 33.8249 33.8269 33.6194 33.9643C33.4139 34.1016 33.1723 34.175 32.9252 34.175Z" fill="white"/>
<path d="M27.6501 53.5999C27.4029 53.5999 27.1613 53.5265 26.9558 53.3892C26.7503 53.2518 26.5901 53.0566 26.4955 52.8282C26.4009 52.5999 26.3762 52.3486 26.4244 52.1061C26.4726 51.8637 26.5916 51.641 26.7664 51.4662L32.0414 46.1912C32.2768 45.9617 32.5931 45.8341 32.9219 45.8362C33.2507 45.8383 33.5654 45.9698 33.7979 46.2023C34.0303 46.4348 34.1619 46.7495 34.164 47.0783C34.166 47.407 34.0385 47.7234 33.809 47.9588L28.534 53.2338C28.4181 53.35 28.2803 53.4422 28.1286 53.5051C27.9769 53.5679 27.8143 53.6001 27.6501 53.5999Z" fill="white"/>
<path d="M52.3502 53.6C52.186 53.6002 52.0234 53.568 51.8717 53.5051C51.7201 53.4423 51.5823 53.3501 51.4664 53.2338L46.1914 47.9588C45.9619 47.7234 45.8344 47.407 45.8365 47.0783C45.8385 46.7495 45.9701 46.4348 46.2025 46.2023C46.435 45.9698 46.7497 45.8383 47.0785 45.8362C47.4073 45.8341 47.7236 45.9617 47.959 46.1912L53.234 51.4662C53.4088 51.641 53.5278 51.8637 53.576 52.1061C53.6242 52.3486 53.5995 52.5999 53.5049 52.8282C53.4103 53.0566 53.2501 53.2518 53.0446 53.3892C52.8391 53.5265 52.5975 53.5999 52.3503 53.5999L52.3502 53.6Z" fill="white"/>
<path d="M47.0751 34.1749C46.8279 34.1749 46.5862 34.1015 46.3807 33.9642C46.1752 33.8268 46.015 33.6316 45.9204 33.4033C45.8258 33.1749 45.801 32.9236 45.8492 32.6811C45.8974 32.4387 46.0164 32.216 46.1912 32.0411L51.4662 26.7661C51.5815 26.6467 51.7194 26.5515 51.8719 26.486C52.0244 26.4205 52.1885 26.386 52.3544 26.3846C52.5204 26.3831 52.685 26.4148 52.8386 26.4776C52.9922 26.5405 53.1318 26.6333 53.2492 26.7506C53.3665 26.868 53.4594 27.0076 53.5222 27.1612C53.5851 27.3148 53.6167 27.4794 53.6152 27.6454C53.6138 27.8114 53.5793 27.9754 53.5138 28.1279C53.4483 28.2804 53.3531 28.4183 53.2337 28.5336L47.9587 33.8086C47.8428 33.9249 47.7051 34.0171 47.5534 34.0799C47.4018 34.1428 47.2392 34.1751 47.0751 34.1749Z" fill="white"/>
<path d="M40 51.25C37.775 51.25 35.5999 50.5902 33.7498 49.354C31.8998 48.1179 30.4578 46.3609 29.6064 44.3052C28.7549 42.2495 28.5321 39.9875 28.9662 37.8052C29.4003 35.623 30.4717 33.6184 32.0451 32.0451C33.6184 30.4717 35.623 29.4003 37.8052 28.9662C39.9875 28.5321 42.2495 28.7549 44.3052 29.6064C46.3609 30.4578 48.1179 31.8998 49.354 33.7498C50.5902 35.5999 51.25 37.775 51.25 40C51.2467 42.9827 50.0604 45.8422 47.9513 47.9513C45.8422 50.0604 42.9827 51.2467 40 51.25ZM40 31.25C38.2694 31.25 36.5777 31.7632 35.1388 32.7246C33.6998 33.6861 32.5783 35.0527 31.9161 36.6515C31.2538 38.2504 31.0805 40.0097 31.4181 41.707C31.7558 43.4044 32.5891 44.9635 33.8128 46.1872C35.0365 47.4109 36.5956 48.2443 38.293 48.5819C39.9903 48.9195 41.7496 48.7462 43.3485 48.084C44.9473 47.4217 46.3139 46.3002 47.2754 44.8612C48.2368 43.4223 48.75 41.7306 48.75 40C48.7473 37.6802 47.8246 35.4561 46.1842 33.8158C44.5439 32.1754 42.3198 31.2527 40 31.25Z" fill="white"/>
<path d="M40 43.75C39.0111 43.75 38.0444 43.4568 37.2222 42.9074C36.3999 42.3579 35.759 41.577 35.3806 40.6634C35.0022 39.7498 34.9031 38.7445 35.0961 37.7746C35.289 36.8046 35.7652 35.9137 36.4645 35.2145C37.1637 34.5152 38.0546 34.039 39.0246 33.8461C39.9945 33.6531 40.9998 33.7522 41.9134 34.1306C42.827 34.509 43.6079 35.1499 44.1574 35.9722C44.7068 36.7944 45 37.7611 45 38.75C44.9986 40.0757 44.4714 41.3466 43.534 42.284C42.5966 43.2214 41.3257 43.7486 40 43.75ZM40 36.25C39.5055 36.25 39.0222 36.3966 38.6111 36.6713C38.2 36.946 37.8795 37.3365 37.6903 37.7933C37.5011 38.2501 37.4516 38.7528 37.548 39.2377C37.6445 39.7227 37.8826 40.1681 38.2322 40.5178C38.5819 40.8674 39.0273 41.1055 39.5123 41.202C39.9972 41.2984 40.4999 41.2489 40.9567 41.0597C41.4135 40.8705 41.804 40.5501 42.0787 40.1389C42.3534 39.7278 42.5 39.2445 42.5 38.75C42.4992 38.0872 42.2356 37.4518 41.7669 36.9831C41.2983 36.5144 40.6628 36.2508 40 36.25Z" fill="white"/>
<path d="M32.5486 47.9126C32.3264 47.9124 32.1083 47.8529 31.9167 47.7404C31.7251 47.6278 31.5669 47.4662 31.4585 47.2722C31.3502 47.0782 31.2955 46.8588 31.3001 46.6367C31.3047 46.4145 31.3684 46.1976 31.4848 46.0082C32.3796 44.554 33.6319 43.3532 35.1225 42.5203C36.613 41.6873 38.292 41.25 39.9995 41.25C41.7069 41.25 43.3859 41.6873 44.8765 42.5203C46.367 43.3532 47.6193 44.554 48.5141 46.0082C48.6059 46.1481 48.6686 46.3049 48.6986 46.4694C48.7287 46.6339 48.7254 46.8028 48.6889 46.966C48.6525 47.1293 48.5837 47.2835 48.4866 47.4197C48.3895 47.5558 48.266 47.6711 48.1235 47.7587C47.9811 47.8463 47.8225 47.9044 47.6571 47.9296C47.4918 47.9547 47.3231 47.9465 47.161 47.9053C46.9989 47.8641 46.8467 47.7908 46.7135 47.6897C46.5802 47.5886 46.4686 47.4618 46.3853 47.3168C45.714 46.2267 44.7747 45.3265 43.657 44.7021C42.5393 44.0778 41.2804 43.75 40.0001 43.75C38.7198 43.75 37.4608 44.0778 36.3431 44.7021C35.2254 45.3265 34.2862 46.2267 33.6149 47.3168C33.5031 47.4991 33.3463 47.6496 33.1596 47.754C32.9729 47.8583 32.7625 47.9129 32.5486 47.9126Z" fill="white"/>
<path d="M25 30C24.0111 30 23.0444 29.7068 22.2222 29.1574C21.3999 28.6079 20.759 27.827 20.3806 26.9134C20.0022 25.9998 19.9031 24.9945 20.0961 24.0246C20.289 23.0546 20.7652 22.1637 21.4645 21.4645C22.1637 20.7652 23.0546 20.289 24.0246 20.0961C24.9945 19.9031 25.9998 20.0022 26.9134 20.3806C27.827 20.759 28.6079 21.3999 29.1574 22.2222C29.7068 23.0444 30 24.0111 30 25C29.9986 26.3257 29.4714 27.5966 28.534 28.534C27.5966 29.4714 26.3257 29.9986 25 30ZM25 22.5C24.5055 22.5 24.0222 22.6466 23.6111 22.9213C23.2 23.196 22.8795 23.5865 22.6903 24.0433C22.5011 24.5001 22.4516 25.0028 22.548 25.4877C22.6445 25.9727 22.8826 26.4181 23.2322 26.7678C23.5819 27.1174 24.0273 27.3555 24.5123 27.452C24.9972 27.5484 25.4999 27.4989 25.9567 27.3097C26.4135 27.1205 26.804 26.8001 27.0787 26.3889C27.3534 25.9778 27.5 25.4945 27.5 25C27.4992 24.3372 27.2356 23.7018 26.7669 23.2331C26.2983 22.7644 25.6628 22.5008 25 22.5Z" fill="white"/>
<path d="M55 30C54.0111 30 53.0444 29.7068 52.2222 29.1574C51.3999 28.6079 50.759 27.827 50.3806 26.9134C50.0022 25.9998 49.9031 24.9945 50.0961 24.0246C50.289 23.0546 50.7652 22.1637 51.4645 21.4645C52.1637 20.7652 53.0546 20.289 54.0246 20.0961C54.9945 19.9031 55.9998 20.0022 56.9134 20.3806C57.827 20.759 58.6079 21.3999 59.1574 22.2222C59.7068 23.0444 60 24.0111 60 25C59.9987 26.3257 59.4715 27.5967 58.5341 28.5341C57.5967 29.4715 56.3257 29.9987 55 30ZM55 22.5C54.5055 22.5 54.0222 22.6466 53.6111 22.9213C53.2 23.196 52.8795 23.5865 52.6903 24.0433C52.5011 24.5001 52.4516 25.0028 52.548 25.4877C52.6445 25.9727 52.8826 26.4181 53.2322 26.7678C53.5819 27.1174 54.0273 27.3555 54.5123 27.452C54.9972 27.5484 55.4999 27.4989 55.9567 27.3097C56.4135 27.1205 56.804 26.8001 57.0787 26.3889C57.3534 25.9778 57.5 25.4945 57.5 25C57.4991 24.3372 57.2354 23.7019 56.7668 23.2332C56.2981 22.7646 55.6628 22.5009 55 22.5Z" fill="white"/>
<path d="M25 60C24.0111 60 23.0444 59.7068 22.2222 59.1574C21.3999 58.6079 20.759 57.827 20.3806 56.9134C20.0022 55.9998 19.9031 54.9945 20.0961 54.0246C20.289 53.0546 20.7652 52.1637 21.4645 51.4645C22.1637 50.7652 23.0546 50.289 24.0246 50.0961C24.9945 49.9031 25.9998 50.0022 26.9134 50.3806C27.827 50.759 28.6079 51.3999 29.1574 52.2222C29.7068 53.0444 30 54.0111 30 55C29.9986 56.3257 29.4714 57.5966 28.534 58.534C27.5966 59.4714 26.3257 59.9986 25 60ZM25 52.5C24.5055 52.5 24.0222 52.6466 23.6111 52.9213C23.2 53.196 22.8795 53.5865 22.6903 54.0433C22.5011 54.5001 22.4516 55.0028 22.548 55.4877C22.6445 55.9727 22.8826 56.4181 23.2322 56.7678C23.5819 57.1174 24.0273 57.3555 24.5123 57.452C24.9972 57.5484 25.4999 57.4989 25.9567 57.3097C26.4135 57.1205 26.804 56.8001 27.0787 56.3889C27.3534 55.9778 27.5 55.4945 27.5 55C27.4992 54.3372 27.2356 53.7018 26.7669 53.2331C26.2983 52.7644 25.6628 52.5008 25 52.5Z" fill="white"/>
<path d="M55 60C54.0111 60 53.0444 59.7068 52.2222 59.1574C51.3999 58.6079 50.759 57.827 50.3806 56.9134C50.0022 55.9998 49.9031 54.9945 50.0961 54.0246C50.289 53.0546 50.7652 52.1637 51.4645 51.4645C52.1637 50.7652 53.0546 50.289 54.0246 50.0961C54.9945 49.9031 55.9998 50.0022 56.9134 50.3806C57.827 50.759 58.6079 51.3999 59.1574 52.2222C59.7068 53.0444 60 54.0111 60 55C59.9987 56.3257 59.4715 57.5967 58.5341 58.5341C57.5967 59.4715 56.3257 59.9987 55 60ZM55 52.5C54.5055 52.5 54.0222 52.6466 53.6111 52.9213C53.2 53.196 52.8795 53.5865 52.6903 54.0433C52.5011 54.5001 52.4516 55.0028 52.548 55.4877C52.6445 55.9727 52.8826 56.4181 53.2322 56.7678C53.5819 57.1174 54.0273 57.3555 54.5123 57.452C54.9972 57.5484 55.4999 57.4989 55.9567 57.3097C56.4135 57.1205 56.804 56.8001 57.0787 56.3889C57.3534 55.9778 57.5 55.4945 57.5 55C57.4991 54.3372 57.2354 53.7019 56.7668 53.2332C56.2981 52.7646 55.6628 52.5009 55 52.5Z" fill="white"/>
</svg>
