<svg width="34" height="20" fill="none" xmlns="http://www.w3.org/2000/svg"><path d="M21.536 17.863h-8.749V2.139h8.75v15.724z" fill="#FF5F00"/><path d="M13.348 10c0-3.19 1.493-6.03 3.819-7.862A9.956 9.956 0 0010.987 0C5.465 0 .988 4.477.988 10s4.477 10 9.999 10c2.333 0 4.479-.8 6.18-2.138A9.983 9.983 0 0113.347 10z" fill="#EB001B"/><path d="M33.335 10c0 5.523-4.476 10-9.998 10a9.96 9.96 0 01-6.18-2.138A9.982 9.982 0 0020.975 10c0-3.19-1.493-6.03-3.82-7.862A9.96 9.96 0 0123.336 0c5.523 0 10 4.477 10 10z" fill="#F79E1B"/><path d="M8.513 10.064c0-.437.286-.796.754-.796.447 0 .748.344.748.796 0 .452-.301.796-.748.796-.468 0-.754-.36-.754-.796zm2.012 0V8.822h-.54v.301c-.172-.223-.432-.364-.786-.364-.696 0-1.243.546-1.243 1.305 0 .76.547 1.305 1.243 1.305.354 0 .614-.14.785-.364v.302h.54v-1.243zm18.26 0c0-.437.286-.796.753-.796.448 0 .75.344.75.796 0 .452-.302.796-.75.796-.467 0-.753-.36-.753-.796zm2.012 0v-2.24h-.54v1.3c-.172-.224-.432-.365-.786-.365-.697 0-1.243.546-1.243 1.305 0 .76.546 1.305 1.243 1.305.354 0 .614-.14.785-.364v.302h.541v-1.243zm-13.565-.821c.348 0 .572.218.629.603h-1.29c.058-.36.276-.603.661-.603zm.01-.484c-.728 0-1.237.53-1.237 1.305 0 .79.53 1.305 1.274 1.305.374 0 .717-.093 1.019-.348l-.265-.4c-.208.165-.474.26-.723.26-.348 0-.665-.162-.743-.61h1.845c.005-.067.01-.134.01-.207-.005-.775-.483-1.305-1.18-1.305zm6.525 1.305c0-.437.287-.796.754-.796.447 0 .749.344.749.796 0 .452-.302.796-.749.796-.468 0-.754-.36-.754-.796zm2.012 0V8.822h-.54v.301c-.172-.223-.431-.364-.785-.364-.697 0-1.243.546-1.243 1.305 0 .76.546 1.305 1.243 1.305.354 0 .613-.14.785-.364v.302h.54v-1.243zm-5.063 0c0 .754.524 1.305 1.325 1.305.375 0 .624-.083.894-.296l-.26-.437a1.092 1.092 0 01-.65.224c-.431-.006-.748-.317-.748-.796 0-.478.317-.79.748-.796.235 0 .448.078.65.224l.26-.437c-.27-.213-.52-.296-.893-.296-.802 0-1.326.551-1.326 1.305zm6.966-1.305a.733.733 0 00-.655.364v-.301h-.535v2.485h.54V9.914c0-.412.177-.64.53-.64.11 0 .224.015.339.062l.166-.51a1.15 1.15 0 00-.385-.067zm-14.485.26c-.26-.171-.618-.26-1.013-.26-.63 0-1.035.302-1.035.796 0 .405.302.655.858.733l.255.036c.296.042.436.12.436.26 0 .192-.198.302-.567.302-.374 0-.644-.12-.826-.26l-.255.42c.296.219.67.323 1.076.323.718 0 1.134-.338 1.134-.811 0-.437-.328-.665-.868-.743l-.255-.037c-.234-.031-.421-.078-.421-.244 0-.182.176-.291.473-.291.317 0 .624.12.774.213l.234-.437zm6.972-.26a.732.732 0 00-.654.364v-.301h-.536v2.485h.54V9.914c0-.412.177-.64.53-.64.11 0 .224.015.339.062l.166-.51a1.152 1.152 0 00-.385-.067zm-4.611.063h-.884v-.754h-.546v.754h-.504v.493h.504v1.134c0 .577.224.92.863.92.234 0 .505-.072.676-.192l-.156-.463a1 1 0 01-.478.14c-.27 0-.359-.166-.359-.416V9.315h.884v-.493zm-8.08 2.485v-1.56c0-.587-.374-.983-.977-.988-.318-.005-.645.093-.874.442-.171-.275-.441-.442-.821-.442-.266 0-.525.078-.728.369v-.306h-.54v2.485h.545V9.929c0-.431.239-.66.609-.66.358 0 .54.233.54.655v1.383h.546V9.929c0-.431.25-.66.608-.66.37 0 .546.233.546.655v1.383h.546z" fill="#fff"/></svg>