<svg width="33" height="20" fill="none" xmlns="http://www.w3.org/2000/svg"><path d="M20.548 17.863h-8.75V2.139h8.75v15.724z" fill="#6C6BBD"/><path d="M12.36 10c0-3.19 1.493-6.03 3.818-7.862A9.956 9.956 0 009.998 0C4.477 0 0 4.477 0 10s4.476 10 9.999 10c2.332 0 4.479-.8 6.18-2.138A9.983 9.983 0 0112.358 10z" fill="#EB001B"/><path d="M32.347 10c0 5.523-4.476 10-9.999 10a9.96 9.96 0 01-6.18-2.138A9.982 9.982 0 0019.988 10c0-3.19-1.494-6.03-3.82-7.862A9.96 9.96 0 0122.348 0c5.523 0 9.999 4.477 9.999 10z" fill="#0099DF"/><path d="M25.188 8.29c.144 0 .35.028.507.09l-.22.67c-.15-.062-.3-.083-.444-.083-.465 0-.697.3-.697.84v1.833h-.711V8.373h.704v.397c.185-.288.451-.48.861-.48zm-2.627.732H21.4V10.5c0 .327.116.546.472.546.185 0 .417-.061.628-.184l.205.608c-.225.157-.58.253-.888.253-.84 0-1.134-.451-1.134-1.21v-1.49h-.663v-.65h.663v-.99h.717v.99h1.162v.65zm-9.098.697c.076-.471.362-.793.868-.793.458 0 .752.287.827.793h-1.695zm2.434.288c-.007-1.02-.636-1.716-1.552-1.716-.957 0-1.627.697-1.627 1.716 0 1.038.697 1.715 1.675 1.715.492 0 .943-.123 1.34-.458l-.35-.527c-.272.22-.621.342-.95.342-.457 0-.874-.212-.976-.8h2.426c.007-.089.014-.177.014-.272zm3.123-.8a2.088 2.088 0 00-1.018-.281c-.39 0-.622.144-.622.383 0 .219.246.28.553.321l.335.048c.712.103 1.142.404 1.142.978 0 .622-.547 1.066-1.49 1.066-.533 0-1.026-.137-1.415-.424l.335-.554c.24.185.595.342 1.087.342.485 0 .745-.143.745-.396 0-.184-.185-.288-.574-.342l-.335-.047c-.732-.104-1.128-.431-1.128-.964 0-.65.533-1.046 1.36-1.046.52 0 .991.116 1.333.342l-.308.574zm8.767-.241c-.147 0-.282.026-.408.077a.978.978 0 00-.541.548c-.053.13-.079.272-.079.426 0 .156.026.298.079.427a.978.978 0 00.542.549c.125.05.26.076.407.076.146 0 .282-.025.407-.077a.977.977 0 00.546-.548c.052-.13.078-.27.078-.427 0-.154-.026-.297-.078-.426a.977.977 0 00-.545-.548 1.074 1.074 0 00-.408-.077zm0-.675c.253 0 .488.044.704.132a1.66 1.66 0 01.93.91c.09.21.134.438.134.684 0 .247-.045.475-.134.686a1.664 1.664 0 01-.93.91c-.216.087-.45.131-.704.131-.254 0-.488-.044-.704-.131a1.704 1.704 0 01-.558-.363 1.685 1.685 0 01-.369-.547 1.738 1.738 0 01-.134-.686c0-.246.045-.474.134-.685a1.683 1.683 0 01.927-.909 1.84 1.84 0 01.704-.132zM9.31 10.007c0-.575.376-1.047.991-1.047.588 0 .985.452.985 1.046 0 .595-.397 1.046-.985 1.046-.615 0-.99-.471-.99-1.045zm2.645 0V8.373h-.71v.397c-.226-.295-.567-.48-1.032-.48-.916 0-1.634.718-1.634 1.717 0 .997.718 1.715 1.634 1.715.465 0 .806-.184 1.032-.479v.397h.71v-1.633zM7.95 11.64V9.59c0-.773-.492-1.292-1.284-1.3-.417-.006-.848.124-1.149.582-.225-.362-.581-.581-1.08-.581-.348 0-.69.102-.957.485v-.403h-.71v3.267h.717V9.83c0-.567.314-.869.8-.869.471 0 .71.308.71.862v1.818h.718V9.83c0-.567.329-.869.8-.869.486 0 .718.308.718.862v1.818h.717z" fill="#fff"/></svg>