<svg width="50" height="50" viewBox="0 0 50 50" fill="none" xmlns="http://www.w3.org/2000/svg">
<g clip-path="url(#clip0_273_2401)">
<path d="M25 50C38.8071 50 50 38.8071 50 25C50 11.1929 38.8071 0 25 0C11.1929 0 0 11.1929 0 25C0 38.8071 11.1929 50 25 50Z" fill="#FCFCFC"/>
<path d="M10.3258 23.1879L7.6084 18.2579L10.3258 13.4053L13.0431 18.2579L10.3258 23.1879Z" fill="#A2001D"/>
<path d="M4.89121 23.1879L2.17383 18.2579L4.89121 13.4053L7.60859 18.2579L4.89121 23.1879Z" fill="#A2001D"/>
<path d="M10.3258 36.5951L7.6084 31.6651L10.3258 26.8125L13.0431 31.6651L10.3258 36.5951Z" fill="#A2001D"/>
<path d="M4.89121 36.5951L2.17383 31.6651L4.89121 26.8125L7.60859 31.6651L4.89121 36.5951Z" fill="#A2001D"/>
<path d="M13.0432 4.85283L12.2738 3.479C10.8939 4.29658 9.59971 5.24316 8.40723 6.30215L10.3258 9.78272L13.0432 4.85283Z" fill="#A2001D"/>
<path d="M10.3256 40.2173L8.38672 43.6798C9.57812 44.7401 10.8715 45.6882 12.2508 46.5074L13.043 45.07L10.3256 40.2173Z" fill="#A2001D"/>
<path d="M15.2178 31.5215V48.012C18.2226 49.291 21.5285 49.9996 25.0004 49.9996C35.7495 49.9996 44.9131 43.2153 48.4454 33.6953L15.2178 31.5215Z" fill="#6DA544"/>
<path d="M48.4454 33.6956C49.4504 30.9873 50.0004 28.058 50.0004 25C50.0004 11.193 38.8074 0 25.0004 0C21.5288 0 18.2226 0.708301 15.2178 1.98711V33.6957H48.4454V33.6956Z" fill="#A2001D"/>
</g>
<defs>
<clipPath id="clip0_273_2401">
<rect width="50" height="50" fill="white"/>
</clipPath>
</defs>
</svg>
