<svg width="50" height="50" viewBox="0 0 50 50" fill="none" xmlns="http://www.w3.org/2000/svg">
<path d="M25 50C38.8071 50 50 38.8071 50 25C50 11.1929 38.8071 0 25 0C11.1929 0 0 11.1929 0 25C0 38.8071 11.1929 50 25 50Z" fill="#F0F0F0"/>
<path d="M49.9996 24.9993C49.9996 15.0878 44.2315 6.52373 35.8691 2.47998V47.5186C44.2315 43.4749 49.9996 34.9108 49.9996 24.9993Z" fill="#D80027"/>
<path d="M0 24.9993C0 34.9108 5.76807 43.4749 14.1305 47.5187V2.47998C5.76807 6.52373 0 15.0878 0 24.9993Z" fill="#D80027"/>
<path d="M29.3481 28.2611L33.6959 26.0872L31.5221 25.0003V22.8264L27.1742 25.0003L29.3481 20.6524H27.1742L25.0003 17.3916L22.8264 20.6524H20.6524L22.8264 25.0003L18.4785 22.8264V25.0003L16.3047 26.0872L20.6524 28.2611L19.5655 30.4351H23.9134V33.6959H26.0872V30.4351H30.4351L29.3481 28.2611Z" fill="#D80027"/>
</svg>
