<svg width="50" height="50" viewBox="0 0 50 50" fill="none" xmlns="http://www.w3.org/2000/svg">
<path d="M25 50C38.8071 50 50 38.8071 50 25C50 11.1929 38.8071 0 25 0C11.1929 0 0 11.1929 0 25C0 38.8071 11.1929 50 25 50Z" fill="#F0F0F0"/>
<path d="M50 24.9988C50 38.8058 38.807 49.9988 25 49.9988C11.193 49.9988 0 38.8058 0 24.9988C0 11.1917 25 24.9988 25 24.9988C25 24.9988 43.922 24.9988 50 24.9988Z" fill="#D80027"/>
<path d="M0 25C0 11.193 11.193 0 25 0C25 9.50732 25 25 25 25C25 25 8.69561 25 0 25Z" fill="#0052B4"/>
<path d="M14.8818 8.6958L16.5007 13.678H21.7393L17.5012 16.7571L19.1199 21.7394L14.8818 18.6602L10.6437 21.7394L12.2625 16.7571L8.02441 13.678H13.263L14.8818 8.6958Z" fill="#F0F0F0"/>
</svg>
