<svg width="50" height="50" viewBox="0 0 50 50" fill="none" xmlns="http://www.w3.org/2000/svg">
<path d="M25 50C38.8071 50 50 38.8071 50 25C50 11.1929 38.8071 0 25 0C11.1929 0 0 11.1929 0 25C0 38.8071 11.1929 50 25 50Z" fill="#338AF3"/>
<path d="M39.1301 25.2715H10.8691C10.8691 27.2226 12.5685 28.8041 14.5193 28.8041H14.4018C14.4018 30.7552 15.9833 32.3367 17.9344 32.3367C17.9344 34.2878 19.5159 35.8693 21.467 35.8693H28.5322C30.4833 35.8693 32.0648 34.2878 32.0648 32.3367C34.0159 32.3367 35.5975 30.7552 35.5975 28.8041H35.4799C37.4306 28.8041 39.1301 27.2226 39.1301 25.2715Z" fill="#FFDA44"/>
<path d="M34.783 20.6533C34.783 26.0561 30.4031 30.4359 25.0004 30.4359C19.5976 30.4359 15.2178 26.0561 15.2178 20.6533" fill="#338AF3"/>
<path d="M32.4717 20.6515L29.4184 22.0878L31.0443 25.0448L27.7289 24.4105L27.3088 27.7597L24.9995 25.2964L22.6901 27.7597L22.2701 24.4105L18.9547 25.0446L20.5805 22.0877L17.5273 20.6515L20.5806 19.2154L18.9547 16.2585L22.27 16.8927L22.6902 13.5435L24.9995 16.0068L27.3089 13.5435L27.7289 16.8927L31.0444 16.2585L29.4185 19.2155L32.4717 20.6515Z" fill="#FFDA44"/>
</svg>
