<svg id="e10kDFbKzYQ1" xmlns="http://www.w3.org/2000/svg" xmlns:xlink="http://www.w3.org/1999/xlink" viewBox="0 0 217 970" shape-rendering="geometricPrecision" text-rendering="geometricPrecision"><style><![CDATA[#e10kDFbKzYQ4_tr {animation: e10kDFbKzYQ4_tr__tr 5000ms linear infinite normal forwards}@keyframes e10kDFbKzYQ4_tr__tr { 0% {transform: translate(138.750602px,869.175627px) rotate(0deg)} 26% {transform: translate(138.750602px,869.175627px) rotate(-1deg)} 74% {transform: translate(138.750602px,869.175627px) rotate(1deg)} 100% {transform: translate(138.750602px,869.175627px) rotate(0deg)}} #e10kDFbKzYQ5_to {animation: e10kDFbKzYQ5_to__to 5000ms linear infinite normal forwards}@keyframes e10kDFbKzYQ5_to__to { 0% {transform: translate(148.496757px,877.867384px)} 26% {transform: translate(146.5px,877.867384px)} 74% {transform: translate(150.8px,877.867384px)} 100% {transform: translate(148.496759px,877.867384px)}} #e10kDFbKzYQ5_tr {animation: e10kDFbKzYQ5_tr__tr 5000ms linear infinite normal forwards}@keyframes e10kDFbKzYQ5_tr__tr { 0% {transform: rotate(0deg)} 26% {transform: rotate(-1deg)} 74% {transform: rotate(1deg)} 100% {transform: rotate(0deg)}}]]></style><defs><linearGradient id="e10kDFbKzYQ4-fill" x1="64.689" y1="276.074" x2="150.487" y2="914.852" spreadMethod="pad" gradientUnits="userSpaceOnUse" gradientTransform="translate(0 0)"><stop id="e10kDFbKzYQ4-fill-0" offset="78.2511%" stop-color="#79b738"/><stop id="e10kDFbKzYQ4-fill-1" offset="100%" stop-color="rgba(121,183,56,0)"/></linearGradient><linearGradient id="e10kDFbKzYQ6-fill" x1="153.005" y1="233.105" x2="153.005" y2="934.852" spreadMethod="pad" gradientUnits="userSpaceOnUse" gradientTransform="translate(0 0)"><stop id="e10kDFbKzYQ6-fill-0" offset="63.556%" stop-color="#508d21"/><stop id="e10kDFbKzYQ6-fill-1" offset="100%" stop-color="rgba(80,141,33,0)"/></linearGradient></defs><g clip-path="url(#e10kDFbKzYQ8)"><g><g id="e10kDFbKzYQ4_tr" transform="translate(138.750602,869.175627) rotate(0)"><path d="M141.12,1027.02c0,0,20.758-42.74-1.845-127.853-22.603-85.112-96.7862-116.524-81.6484-204.198C72.7643,607.294,99.9532,529.024,70.639,477.43c-29.3141-51.595-42.4758-93.014-36.8043-127.598c5.6715-34.585,14.214-44.348,10.9798-70.203s22.5745,58.711,10.1277,98.257c-12.4468,39.545,40.1793,51.752,44.3117,110.961c4.1321,59.209-27.4413,180.48-27.6966,204.379s66.9097,95.256,75.8657,158.209c8.957,62.953,36.636,152.655,23.685,171.805-12.952,19.16-29.988,3.78-29.988,3.78Z" transform="translate(-138.750601,-869.175627)" fill="url(#e10kDFbKzYQ4-fill)"/></g><g id="e10kDFbKzYQ5_to" transform="translate(148.496757,877.867384)"><g id="e10kDFbKzYQ5_tr" transform="rotate(0)"><g transform="translate(-142.920527,-877.98499)"><path d="M207.72,1116.88c0,0,12.8-118.852-38.102-180.643C118.717,874.446,33.165,774.626,60.301,658.964s36.48-196.489,39.6373-263.05c3.1577-66.561,20.6507-115.662-4.736-153.691-25.3866-38.028,52.3517,50.719,39.6797,122.007s-23.808,250.36-44.4583,302.697c-20.6507,52.338,33.2003,141,69.6803,182.223s88.874,229.71,47.616,267.73Z" fill="url(#e10kDFbKzYQ6-fill)"/><path d="M135.992,354.733c0,0-37.6322-69.712-51.8829-144.194s-6.8267-134.6977,25.8559-194.9134c32.683-60.2157-34.9439,66.5609-3.456,160.0354c31.488,93.475,33.024,154.543,29.483,179.072Z" fill="#6ca232"/></g></g></g></g><clipPath id="e10kDFbKzYQ8"><rect width="217" height="970" rx="0" ry="0" fill="#fff"/></clipPath></g></svg>