<svg width="260" height="970" viewBox="0 0 260 970" fill="none" xmlns="http://www.w3.org/2000/svg">
<g clip-path="url(#clip0_209_71)">
<g clip-path="url(#clip1_209_71)">
<path d="M149.653 1048.53C149.653 1048.53 170.411 1005.79 147.779 920.681C125.147 835.572 51.0217 804.153 66.1595 716.478C81.2972 628.804 108.457 550.538 79.1719 498.939C49.8866 447.341 36.5378 405.829 42.3244 371.23C48.1111 336.631 56.5816 326.994 53.3474 301.139C50.1132 275.284 75.9219 359.85 63.4463 399.399C50.9707 438.948 103.608 451.242 107.798 510.443C111.987 569.645 80.3455 690.837 80.0614 714.739C79.7773 738.642 147 809.992 155.956 872.945C164.913 935.898 192.448 1025.62 179.612 1044.76C166.776 1063.9 149.653 1048.53 149.653 1048.53Z" fill="url(#paint0_linear_209_71)"/>
<path d="M169.28 1131.89C169.28 1131.89 207.381 1073.29 189.888 944.941C172.395 816.588 83.7279 762.675 121.829 637.474C159.931 512.273 213.861 402.999 180.539 322.342C147.216 241.686 135.312 178.659 150.075 129.218C164.837 79.7762 178.96 67.2561 178.96 28.9293C178.96 -9.39756 201.189 118.742 175.76 174.188C150.331 229.634 224.912 257.187 220.219 344.359C215.525 431.531 147.216 602.639 142.437 637.474C137.659 672.309 208.96 783.244 210.539 876.761C212.117 970.279 235.925 1106.25 213.696 1131.85C191.467 1157.44 169.28 1131.89 169.28 1131.89Z" fill="url(#paint1_linear_209_71)"/>
<path d="M167.972 1133.91C167.972 1133.91 198.119 1087.5 184.312 985.862C170.504 884.218 94.0178 841.524 124.165 742.376C154.312 643.229 197.017 556.694 170.617 492.821C144.218 428.948 135.001 379.172 146.547 340.019C158.093 300.866 169.368 290.816 169.368 260.465C169.368 230.113 186.957 331.588 166.87 375.496C146.783 419.405 205.795 441.123 202.014 510.155C198.232 579.187 144.252 714.79 140.504 742.376C136.757 769.962 199.368 857.813 200.617 931.87C201.867 1005.93 220.873 1113.61 203.149 1133.87C185.426 1154.14 167.972 1133.91 167.972 1133.91Z" fill="url(#paint2_linear_209_71)"/>
</g>
</g>
<defs>
<linearGradient id="paint0_linear_209_71" x1="73.2152" y1="297.584" x2="157.5" y2="936.926" gradientUnits="userSpaceOnUse">
<stop offset="0.707072" stop-color="#508D21"/>
<stop offset="1" stop-color="#508D21" stop-opacity="0"/>
</linearGradient>
<linearGradient id="paint1_linear_209_71" x1="194.82" y1="587.927" x2="195" y2="955.427" gradientUnits="userSpaceOnUse">
<stop offset="0.496567" stop-color="#508D21"/>
<stop offset="0.972941" stop-color="#508D21" stop-opacity="0"/>
</linearGradient>
<linearGradient id="paint2_linear_209_71" x1="188.188" y1="254.892" x2="188" y2="955.427" gradientUnits="userSpaceOnUse">
<stop offset="0.799963" stop-color="#79B738"/>
<stop offset="1" stop-color="#79B738" stop-opacity="0"/>
</linearGradient>
<clipPath id="clip0_209_71">
<rect width="260" height="970" fill="white"/>
</clipPath>
<clipPath id="clip1_209_71">
<rect width="303" height="1092" fill="white" transform="translate(0 -29)"/>
</clipPath>
</defs>
</svg>
