<svg width="217" height="970" viewBox="0 0 217 970" fill="none" xmlns="http://www.w3.org/2000/svg">
<g clip-path="url(#clip0_209_72)">
<path d="M141.12 1027.02C141.12 1027.02 161.878 984.28 139.275 899.167C116.672 814.055 42.4888 782.643 57.6266 694.969C72.7643 607.294 99.9532 529.024 70.639 477.43C41.3249 425.835 28.1632 384.416 33.8347 349.832C39.5062 315.247 48.0487 305.484 44.8145 279.629C41.5803 253.774 67.389 338.34 54.9422 377.886C42.4954 417.431 95.1215 429.638 99.2539 488.847C103.386 548.056 71.8126 669.327 71.5573 693.226C71.302 717.125 138.467 788.482 147.423 851.435C156.38 914.388 184.059 1004.09 171.108 1023.24C158.156 1042.4 141.12 1027.02 141.12 1027.02Z" fill="url(#paint0_linear_209_72)"/>
<path d="M207.72 1116.88C207.72 1116.88 220.52 998.028 169.618 936.237C118.717 874.446 33.165 774.626 60.301 658.964C87.437 543.302 96.781 462.475 99.9383 395.914C103.096 329.353 120.589 280.252 95.2023 242.223C69.8157 204.195 147.554 292.942 134.882 364.23C122.21 435.518 111.074 614.59 90.4237 666.927C69.773 719.265 123.624 807.927 160.104 849.15C196.584 890.373 248.978 1078.86 207.72 1116.88Z" fill="url(#paint1_linear_209_72)"/>
<path d="M135.992 354.733C135.992 354.733 98.3598 285.021 84.1091 210.539C69.8584 136.057 77.2824 75.8413 109.965 15.6256C142.648 -44.5901 75.0211 82.1865 106.509 175.661C137.997 269.136 139.533 330.204 135.992 354.733Z" fill="#6CA232"/>
</g>
<defs>
<linearGradient id="paint0_linear_209_72" x1="64.689" y1="276.074" x2="150.487" y2="914.852" gradientUnits="userSpaceOnUse">
<stop offset="0.782511" stop-color="#79B738"/>
<stop offset="1" stop-color="#79B738" stop-opacity="0"/>
</linearGradient>
<linearGradient id="paint1_linear_209_72" x1="153.005" y1="233.105" x2="153.005" y2="934.852" gradientUnits="userSpaceOnUse">
<stop offset="0.63556" stop-color="#508D21"/>
<stop offset="1" stop-color="#508D21" stop-opacity="0"/>
</linearGradient>
<clipPath id="clip0_209_72">
<rect width="217" height="970" fill="white"/>
</clipPath>
</defs>
</svg>
