<svg id="eYh9SGDKrIp1" xmlns="http://www.w3.org/2000/svg" xmlns:xlink="http://www.w3.org/1999/xlink" viewBox="0 0 260 970" shape-rendering="geometricPrecision" text-rendering="geometricPrecision"><style><![CDATA[#eYh9SGDKrIp6_tr {animation: eYh9SGDKrIp6_tr__tr 5000ms linear infinite normal forwards}@keyframes eYh9SGDKrIp6_tr__tr { 0% {transform: translate(130px,812.545841px) rotate(0deg)} 20% {transform: translate(130px,812.545841px) rotate(1.5deg)} 60% {transform: translate(130px,812.545841px) rotate(-2deg)} 100% {transform: translate(130px,812.545841px) rotate(0deg)}} #eYh9SGDKrIp7_to {animation: eYh9SGDKrIp7_to__to 5000ms linear infinite normal forwards}@keyframes eYh9SGDKrIp7_to__to { 0% {transform: translate(167.771824px,582.562653px)} 16% {transform: translate(165.77px,582.562653px)} 58% {transform: translate(169.77px,582.562653px)} 100% {transform: translate(167.771824px,582.562653px)}} #eYh9SGDKrIp7_tr {animation: eYh9SGDKrIp7_tr__tr 5000ms linear infinite normal forwards}@keyframes eYh9SGDKrIp7_tr__tr { 0% {transform: rotate(0deg)} 16% {transform: rotate(-1deg)} 58% {transform: rotate(2deg)} 100% {transform: rotate(0deg)}} #eYh9SGDKrIp8_tr {animation: eYh9SGDKrIp8_tr__tr 5000ms linear infinite normal forwards}@keyframes eYh9SGDKrIp8_tr__tr { 0% {transform: translate(163.656773px,879.945956px) rotate(0deg)} 20% {transform: translate(163.656773px,879.945956px) rotate(1deg)} 60% {transform: translate(163.656773px,879.945956px) rotate(-3deg)} 100% {transform: translate(163.656773px,879.945956px) rotate(0deg)}}]]></style><defs><linearGradient id="eYh9SGDKrIp6-fill" x1="73.2152" y1="297.584" x2="157.5" y2="936.926" spreadMethod="pad" gradientUnits="userSpaceOnUse" gradientTransform="translate(0 0)"><stop id="eYh9SGDKrIp6-fill-0" offset="70.7072%" stop-color="#508d21"/><stop id="eYh9SGDKrIp6-fill-1" offset="100%" stop-color="rgba(80,141,33,0)"/></linearGradient><linearGradient id="eYh9SGDKrIp7-fill" x1="194.82" y1="587.927" x2="195" y2="955.427" spreadMethod="pad" gradientUnits="userSpaceOnUse" gradientTransform="translate(0 0)"><stop id="eYh9SGDKrIp7-fill-0" offset="49.6567%" stop-color="#508d21"/><stop id="eYh9SGDKrIp7-fill-1" offset="97.2941%" stop-color="rgba(80,141,33,0)"/></linearGradient><linearGradient id="eYh9SGDKrIp8-fill" x1="188.188" y1="254.892" x2="188" y2="955.427" spreadMethod="pad" gradientUnits="userSpaceOnUse" gradientTransform="translate(0 0)"><stop id="eYh9SGDKrIp8-fill-0" offset="79.9963%" stop-color="#79b738"/><stop id="eYh9SGDKrIp8-fill-1" offset="100%" stop-color="rgba(121,183,56,0)"/></linearGradient></defs><g clip-path="url(#eYh9SGDKrIp11)"><g><g clip-path="url(#eYh9SGDKrIp9)"><g><g id="eYh9SGDKrIp6_tr" transform="translate(130,812.545841) rotate(0)"><path d="M149.653,1048.53c0,0,20.758-42.74-1.874-127.849s-96.7573-116.528-81.6195-204.203c15.1377-87.674,42.2975-165.94,13.0124-217.539-29.2853-51.598-42.6341-93.11-36.8475-127.709c5.7867-34.599,14.2572-44.236,11.023-70.091s22.5745,58.711,10.0989,98.26s40.1617,51.843,44.3517,111.044c4.189,59.202-27.4525,180.394-27.7366,204.296C79.7773,738.642,147,809.992,155.956,872.945c8.957,62.953,36.492,152.675,23.656,171.815s-29.959,3.77-29.959,3.77Z" transform="translate(-130,-812.545841)" fill="url(#eYh9SGDKrIp6-fill)"/></g><g id="eYh9SGDKrIp7_to" transform="translate(167.771824,582.562653)"><g id="eYh9SGDKrIp7_tr" transform="rotate(0)"><path d="M169.28,1131.89c0,0,38.101-58.6,20.608-186.949-17.493-128.353-106.1601-182.266-68.059-307.467c38.102-125.201,92.032-234.475,58.71-315.132-33.323-80.656-45.227-143.683-30.464-193.124C164.837,79.7762,178.96,67.2561,178.96,28.9293s22.229,89.8127-3.2,145.2587s49.152,82.999,44.459,170.171c-4.694,87.172-73.003,258.28-77.782,293.115-4.778,34.835,66.523,145.77,68.102,239.287c1.578,93.518,25.386,229.489,3.157,255.089-22.229,25.59-44.416.04-44.416.04Z" transform="translate(-167.771824,-582.562653)" fill="url(#eYh9SGDKrIp7-fill)"/></g></g><g id="eYh9SGDKrIp8_tr" transform="translate(163.656773,879.945956) rotate(0)"><path d="M167.972,1133.91c0,0,30.147-46.41,16.34-148.048-13.808-101.644-90.2942-144.338-60.147-243.486c30.147-99.147,72.852-185.682,46.452-249.555-26.399-63.873-35.616-113.649-24.07-152.802s22.821-49.203,22.821-79.554c0-30.352,17.589,71.123-2.498,115.031-20.087,43.909,38.925,65.627,35.144,134.659-3.782,69.032-57.762,204.635-61.51,232.221-3.747,27.586,58.864,115.437,60.113,189.494c1.25,74.06,20.256,181.74,2.532,202-17.723,20.27-35.177.04-35.177.04Z" transform="translate(-163.656773,-879.945956)" fill="url(#eYh9SGDKrIp8-fill)"/></g></g><clipPath id="eYh9SGDKrIp9"><rect width="303" height="1092" rx="0" ry="0" transform="translate(0-29)" fill="#fff"/></clipPath></g></g><clipPath id="eYh9SGDKrIp11"><rect width="260" height="970" rx="0" ry="0" fill="#fff"/></clipPath></g></svg>