<svg width="268" height="93" viewBox="0 0 268 93" fill="none" xmlns="http://www.w3.org/2000/svg">
<path fill-rule="evenodd" clip-rule="evenodd" d="M221.124 16.7493L215.396 21.9818C212.73 18.2347 212.959 10.2785 212.959 10.2785L215.106 11.4771L220.213 14.328C220.176 14.0074 220.169 13.6861 220.194 13.3677C220.169 13.361 216.139 10.6854 217.592 6.53785C218.469 4.02424 227.741 -6.41597 239.822 5.84663C240.761 6.381 241.579 7.08045 242.223 7.90078C242.867 8.72111 243.325 9.64449 243.566 10.6126C244.035 12.7678 248.464 14.1284 249.698 14.5076L249.72 14.5144C249.72 14.5144 251.137 15.0309 249.25 15.861C248.804 16.0571 248.374 16.2075 247.955 16.354C246.601 16.8275 245.363 17.2601 244.083 19.0649C243.808 19.4434 243.489 19.7924 243.13 20.1062C242.902 21.8454 240.846 23.6799 240.846 23.6799C241.689 22.6935 241.663 21.1194 241.663 21.1194C241.471 21.2265 241.267 21.3307 241.058 21.4298C239.959 23.2812 236.786 24.8951 236.786 24.8951C237.601 24.2039 238.186 23.3177 238.483 22.327C238.017 22.4477 237.536 22.5405 237.041 22.6126C233.072 24.424 225.819 25.5993 222.376 24.8213C218.761 24.0063 221.124 16.7493 221.124 16.7493ZM79.0473 34.167L75.3438 39.1728C75.3438 39.1728 86.4804 36.6808 91.4204 33.1178C97.084 34.1595 102.872 34.3098 108.536 33.5623L109.952 37.9254C112.018 36.8502 116.582 31.7472 116.582 31.7472C122.695 29.755 128.175 26.4609 132.583 22.1288C125.91 19.9744 118.793 19.4218 111.92 20.5242C111.92 20.5242 109.329 19.0253 101.737 19.5614L104.237 22.4118C99.1778 24.1858 94.5258 26.7783 90.4966 30.0693C90.4966 30.0693 83.9222 29.4118 72.8668 30.9203L79.0473 34.167ZM147.364 33.0769L147.166 33.0446L146.27 33.0249L150.254 38.0656L147.352 43.5874L147.401 43.5954L147.436 43.6012L147.614 43.577L147.692 43.5897L147.885 43.5612L148.093 43.5351L148.344 43.503L148.546 43.4692L148.954 43.4093L149.199 43.376L149.527 43.3229L149.885 43.2615L150.318 43.1856L150.616 43.1344L151.229 43.0213L151.333 43.005C154.643 42.3661 159.323 41.1916 162.611 39.2169L162.744 39.2919L163.406 39.6732L163.84 39.9039C164.052 40.0273 164.275 40.1436 164.508 40.2528L164.904 40.4506L165.608 40.7988L165.932 40.945C166.172 41.0614 166.419 41.1683 166.662 41.2735L166.75 41.3117L166.953 41.3982C168.408 42.0213 169.907 42.5466 171.439 42.9699L171.51 42.9814C171.891 43.0903 172.274 43.1861 172.651 43.2743L172.771 43.2939L172.856 43.3078L173.556 43.462C173.423 44.8231 173.464 46.198 173.677 47.5589C173.677 47.5589 184.021 44.0248 184.212 44.0094C185.311 43.8957 186.373 43.7426 187.397 43.5567L187.467 43.5682L188.262 43.4114L188.412 43.3761L189.12 43.2184L189.232 43.1968L189.274 43.2037C189.696 43.1061 190.105 42.9997 190.514 42.8933L190.514 42.8932C195.001 41.6969 199.212 39.793 202.962 37.2643C202.495 36.9674 202.04 36.6789 201.586 36.3905L201.566 36.3777L201.55 36.3675L201.187 36.1484L201.184 36.1469C200.821 35.9347 200.458 35.7226 200.1 35.5245L199.761 35.3359C199 34.9136 198.25 34.544 197.511 34.1794L197.51 34.1792L197.51 34.179L197.509 34.1787L197.509 34.1785C197.374 34.1121 197.24 34.0459 197.106 33.9796L196.956 33.9054L196.864 33.8904C196.42 33.6781 195.98 33.4863 195.511 33.2964L195.384 33.2757C193.319 32.3912 191.174 31.6884 188.976 31.1769L187.889 30.9462C186.922 30.7546 185.947 30.6087 184.966 30.509C184.48 30.4296 183.994 30.4098 183.518 30.3904L183.381 30.3848C183.329 30.3826 183.277 30.3804 183.226 30.378L183.169 30.3688L182.448 30.3443C177.504 29.5372 164.857 28.7448 164.857 28.7448L166.451 34.5677C165.195 35.3137 164.004 36.1482 162.89 37.064C162.818 37.1189 162.753 37.1748 162.687 37.2307L162.647 37.2646C162.628 37.2813 162.608 37.2979 162.588 37.3145C158.688 35.6412 154.603 34.3842 150.416 33.5686L149.469 33.414L149.286 33.3841C148.595 33.1714 147.968 33.1089 147.364 33.0769ZM46.7599 57.0003C47.419 54.9374 44.0118 56.0336 44.0118 56.0336C43.032 53.1196 40.6807 47.4939 33.3976 46.6035C33.1953 45.8754 32.8183 45.1913 32.2937 44.6004C31.7691 44.0095 31.1098 43.5265 30.3634 43.1862C25.3628 40.7967 15.4075 43.251 11.9889 58.2037C8.36388 52.7061 0 55.2195 0 55.2195C0 55.2195 4.47856 57.6544 5.84438 62.1203C7.2102 66.5863 4.82399 70.9811 4.82399 70.9811C4.82399 70.9811 14.0765 70.3166 13.5288 62.9408C19.867 66.2441 25.2 67.3295 29.5482 67.1245C30.8427 68.3021 34.7787 70.1117 36.5115 69.0503C37.9866 68.1662 36.1577 67.0461 34.2599 66.3161C35.1461 66.06 36.0019 65.731 36.8169 65.3333C36.8169 65.3333 38.8149 66.3409 39.6466 66.15C41.6556 65.6891 39.3513 64.0106 39.2069 63.9077C41.057 62.5919 42.5255 60.8926 43.4948 58.9458C46.423 59.4239 45.5859 57.8536 45.5271 57.7433L45.5264 57.7418C46.1198 57.5773 46.6521 57.3421 46.7599 57.0003ZM241.91 54.7787C241.91 54.7787 244.055 52.8364 244.151 50.2618C244.14 48.6126 243.463 46.9968 242.241 45.7062C242.241 45.7062 247.332 45.6739 248.295 49.1338C253.015 41.7708 258.974 42.0183 261.28 44.0526C261.627 44.3472 261.899 44.7036 262.076 45.0961C262.253 45.4886 262.331 45.9075 262.305 46.3224C266.156 47.9183 266.389 51.2503 266.378 52.9409C266.378 52.9409 268.455 52.8872 267.7 53.8733C267.575 54.0343 267.239 54.0787 266.881 54.0721C266.896 54.1307 267.066 55.104 265.536 54.3965C264.63 55.2701 263.498 55.938 262.23 56.3478C262.233 56.3517 262.237 56.3576 262.242 56.3653L262.253 56.3802C262.405 56.5971 263.163 57.6742 262.048 57.6132C261.547 57.5832 260.638 56.744 260.638 56.744C260.111 56.8326 259.574 56.8765 259.034 56.8751C259.94 57.554 260.741 58.4273 259.758 58.6684C258.592 58.9528 256.768 57.3944 256.278 56.5719C253.84 56.0055 251.101 54.6085 248.234 51.8826C247.138 55.861 241.91 54.7787 241.91 54.7787ZM117.41 82.0174L117.452 82.0244C125.988 81.0024 130.961 81.3364 130.961 81.3364C135.346 77.5341 140.465 74.487 146.081 72.336L143.122 69.2344C151.625 68.3707 154.631 69.9415 154.631 69.9415C167.783 67.5196 178.026 70.9921 178.026 70.9921C173.257 75.9819 167.229 79.8533 160.423 82.2973C160.418 82.303 160.41 82.3131 160.398 82.3273C159.985 82.8164 155.425 88.2173 153.25 89.4334L151.443 84.6149C145.093 85.6481 138.559 85.6882 132.121 84.7334C128.732 87.3354 122.558 89.5547 118.439 90.8461L118.239 90.9117L117.827 91.0342L117.536 91.1242L117.26 91.2101L116.947 91.303L116.718 91.3704L116.421 91.4592L116.223 91.5121L115.94 91.5969L115.8 91.659L115.54 91.7345L115.403 91.771L115.176 91.832L115.054 91.8646L114.864 91.9186L114.788 91.9389L114.621 91.9836L114.537 92.0028L114.446 92.0272L114.301 92.069L118.249 86.3571L111.072 82.9269C111.812 82.799 112.528 82.6867 113.228 82.5785L113.362 82.561C113.83 82.4884 114.29 82.4237 114.74 82.3604C114.943 82.332 115.143 82.3038 115.341 82.2754L115.475 82.2579C116.136 82.1694 116.78 82.0914 117.41 82.0174Z" fill="#152642"/>
</svg>
