<svg width="375" height="227" viewBox="0 0 375 227" fill="none" xmlns="http://www.w3.org/2000/svg">
<rect width="375" height="227" fill="#2595FF"/>
<path d="M274 26L276.431 32.5692L283 35L276.431 37.4308L274 44L271.569 37.4308L265 35L271.569 32.5692L274 26Z" fill="#FAFCFF"/>
<path d="M255 55L256.621 59.3795L261 61L256.621 62.6205L255 67L253.379 62.6205L249 61L253.379 59.3795L255 55Z" fill="#F9FCFF"/>
<path d="M316 61L317.621 65.3795L322 67L317.621 68.6205L316 73L314.379 68.6205L310 67L314.379 65.3795L316 61Z" fill="#F9FCFF"/>
<mask id="mask0_862_49483" style="mask-type:alpha" maskUnits="userSpaceOnUse" x="0" y="0" width="375" height="227">
<rect width="375" height="227" fill="#2595FF"/>
</mask>
<g mask="url(#mask0_862_49483)">
<path d="M70 52L72.4308 58.5692L79 61L72.4308 63.4308L70 70L67.5692 63.4308L61 61L67.5692 58.5692L70 52Z" fill="#FAFCFF"/>
<mask id="mask1_862_49483" style="mask-type:alpha" maskUnits="userSpaceOnUse" x="-13" y="59" width="408" height="409">
<circle cx="190.796" cy="263.42" r="203.65" transform="rotate(15 190.796 263.42)" fill="#D9D9D9"/>
</mask>
<g mask="url(#mask1_862_49483)">
<path fill-rule="evenodd" clip-rule="evenodd" d="M110.352 23.383C136.242 30.0024 127.022 74.8631 177.752 124.373C215.932 161.634 260.014 181.092 305.182 189.218C394.157 205.229 417.89 179.973 472.186 203.267C510.635 219.764 564.09 260.482 565.846 305.905C569.256 394.187 378.103 518.883 203.022 485.721C119.32 469.861 -4.98497 409.531 -29.632 291.135C-58.5403 152.186 66.2068 12.0917 110.352 23.383Z" fill="url(#paint0_linear_862_49483)"/>
<g style="mix-blend-mode:lighten">
<path fill-rule="evenodd" clip-rule="evenodd" d="M110.352 23.383C136.242 30.0024 127.022 74.8631 177.752 124.373C215.932 161.634 260.014 181.092 305.182 189.218C394.157 205.229 417.89 179.973 472.186 203.267C510.635 219.764 564.09 260.482 565.846 305.905C569.256 394.187 378.103 518.883 203.022 485.721C119.32 469.861 -4.98497 409.531 -29.632 291.135C-58.5403 152.186 66.2068 12.0917 110.352 23.383Z" fill="url(#paint1_radial_862_49483)"/>
</g>
<path fill-rule="evenodd" clip-rule="evenodd" d="M-6.51774 121.576C1.24335 132.694 43.3516 93.5736 90.6297 102.643C147.777 113.614 128.318 173.206 195.831 201.091C247.143 222.288 279.749 208.394 323.653 227.314C405.455 262.58 388.488 383.921 456.31 402.377C496.942 413.438 539.17 375.885 557.38 359.676C596.962 324.464 630.202 262.717 617.565 201.96C602.054 127.392 525.42 92.7332 469.916 67.6327C412.911 41.8512 340.676 40.1971 196.234 36.8776C120.306 35.1309 63.5078 37.7944 21.2035 76.2974C4.43293 91.5851 -11.769 114.05 -6.51774 121.576Z" fill="url(#paint2_linear_862_49483)"/>
<g filter="url(#filter0_i_862_49483)">
<path d="M-122.18 275.455C-123.978 227.326 -60.0581 175.702 -9.48006 182.985C36.9142 189.67 36.1903 240.729 95.8534 260.795C153.907 280.316 179.892 240.496 234.609 260.39C292.344 281.376 285.257 333.654 341.469 351.719C397.948 369.869 437.982 327.644 466.187 347.236C495.902 367.869 492.629 443.28 451.504 487.099C371.879 571.943 147.665 541.22 38.6041 457.536C19.4864 442.873 -7.79656 414.567 -62.351 357.958C-112.876 305.544 -121.535 292.414 -122.18 275.455Z" fill="#1383FE" fill-opacity="0.42"/>
<path d="M-122.18 275.455C-123.978 227.326 -60.0581 175.702 -9.48006 182.985C36.9142 189.67 36.1903 240.729 95.8534 260.795C153.907 280.316 179.892 240.496 234.609 260.39C292.344 281.376 285.257 333.654 341.469 351.719C397.948 369.869 437.982 327.644 466.187 347.236C495.902 367.869 492.629 443.28 451.504 487.099C371.879 571.943 147.665 541.22 38.6041 457.536C19.4864 442.873 -7.79656 414.567 -62.351 357.958C-112.876 305.544 -121.535 292.414 -122.18 275.455Z" fill="url(#paint3_linear_862_49483)" fill-opacity="0.2"/>
</g>
<g filter="url(#filter1_d_862_49483)">
<path d="M386.357 190.79C382.189 195.175 376.764 197.29 369.634 194.281C360.403 190.377 361.436 176.601 355.219 173.437C335.844 163.582 354.168 216.845 335.775 216.793C323.943 216.759 328.231 199.939 328.662 193.111C329.523 179.37 324.58 179.353 318.346 168.122C313.007 158.56 315.642 154.209 302.432 149.583C289.74 145.129 284.091 150.374 275.221 158.904C277.701 167.211 291.117 171.648 289.946 181.726C288.81 191.598 275.29 197.136 267.092 194.246C259.566 191.598 255.226 182.104 247.751 179.422C236.695 175.5 227.98 182.19 236.643 192.888C241.586 199.01 251.058 200.231 255.467 207.884C257.568 211.548 254.572 215.555 258.205 219.046C261.099 221.815 267.006 220.405 270.261 221.832C279.165 225.702 281.266 230.465 279.63 240.922C277.736 253.029 271.828 252.909 264.767 261.13C254.95 272.532 261.237 277.45 266.266 288.732C270.95 299.223 270.141 313.102 266.851 324.023C263.544 335.03 252.247 340.137 247.906 350.215C243.997 359.33 247.872 374.19 240.656 382.101C233.112 390.373 217.854 386.813 210.035 380.69C201.355 373.863 201.044 362.443 195.309 353.621C188.627 343.319 177.123 334.823 172.714 322.905C169.218 313.498 171.973 300.083 157.868 298.793C154.682 292.602 158.385 285.327 156.525 278.517C153.631 267.906 149.825 271.001 141.989 267.08C136.047 264.105 133.688 257.759 125.8 257.948C115.363 258.189 111.178 270.554 101.741 272.876C65.5392 281.836 70.9297 224.24 76.3892 205.7C82.2793 185.699 101.947 162.413 122.321 161.243C132.379 160.659 138.975 157.666 148.551 159.85C156.043 161.57 165.291 168.948 173.627 165.56C178.776 163.479 179.258 157.632 183.891 155.551C187.835 153.779 191.831 155.774 196.429 155.568C205.591 155.172 220.867 146.711 206.676 141.895C202.095 140.33 197.583 145.008 193.226 142.79C190.487 141.397 191.572 135.653 188.214 133.95C178.345 128.997 178.552 145.232 167.03 139.385C162.914 137.286 165.704 130.768 158.798 130.459C153.649 130.218 152.443 137.028 148.31 138.249C144.056 139.505 138.665 136.719 133.722 138.146C129.71 139.281 126.248 143.77 122.39 145.335C114.175 148.654 102.378 150.89 106.063 139.642C108.853 131.112 123.888 126.933 130.02 121.086C137.201 114.241 139.785 113.45 149.429 109.752C157.369 106.725 167.409 103.148 162.019 93.139C158.04 92.451 153.218 92.5714 149.636 93.9989C145.571 95.6155 147.724 104.576 140.508 100.087C131.036 94.1708 147.19 86.0362 150.876 82.9577C157.11 77.7467 159.814 71.9166 169.063 73.5848C176.572 74.9434 178.38 84.3335 187.129 80.2404C186.147 73.2236 180.636 64.5214 178.948 56.5243C183.374 56.2147 187.852 56.0771 192.364 56.0771C281.318 56.0771 357.131 112.126 386.357 190.79Z" fill="url(#paint4_linear_862_49483)"/>
</g>
<path d="M66.5201 410.289C64.1434 413.505 60.9573 416.411 57.2028 418.991C13.3031 381.121 -14.4766 325.124 -14.4766 262.644C-14.4766 237.345 -9.92987 213.096 -1.57704 190.704C3.33133 193.783 7.36136 198.134 9.49693 203.585C13.7681 214.472 4.67467 228.918 11.4603 238.738C16.0759 245.411 23.2748 242.608 28.9065 247.458C35.6404 253.236 32.4715 259.668 34.7793 267.081C38.1893 278.07 42.8394 274.527 49.1427 281.854C54.6539 288.269 50.4516 295.647 52.725 302.405C56.6345 313.911 76.5779 322.51 69.689 337.49C51.64 337.61 60.6989 357.525 65.0734 366.159C71.1873 378.215 75.5273 398.113 66.5201 410.289Z" fill="url(#paint5_linear_862_49483)"/>
<path d="M129.193 74.735C126.644 86.2233 118.791 87.1692 110.696 92.621C98.9332 100.584 106.115 106.569 99.8288 116.01C95.3166 122.821 85.2415 122.098 79.9198 127.069C72.5314 133.931 76.7164 142.65 70.7919 149.804C64.3508 157.595 53.1218 157.389 48.024 148.91C40.1706 147.775 35.8823 158.283 27.7017 160.123C22.6038 161.276 17.6094 161.018 12.9766 159.728C38.5001 115.46 79.9542 81.5454 129.555 65.792C130.02 68.4577 129.916 71.4158 129.193 74.735Z" fill="url(#paint6_linear_862_49483)"/>
</g>
</g>
<defs>
<filter id="filter0_i_862_49483" x="-169.217" y="182.295" width="655.055" height="369.2" filterUnits="userSpaceOnUse" color-interpolation-filters="sRGB">
<feFlood flood-opacity="0" result="BackgroundImageFix"/>
<feBlend mode="normal" in="SourceGraphic" in2="BackgroundImageFix" result="shape"/>
<feColorMatrix in="SourceAlpha" type="matrix" values="0 0 0 0 0 0 0 0 0 0 0 0 0 0 0 0 0 0 127 0" result="hardAlpha"/>
<feOffset dx="-61" dy="14"/>
<feGaussianBlur stdDeviation="23.5"/>
<feComposite in2="hardAlpha" operator="arithmetic" k2="-1" k3="1"/>
<feColorMatrix type="matrix" values="0 0 0 0 0 0 0 0 0 1 0 0 0 0 1 0 0 0 0.73 0"/>
<feBlend mode="normal" in2="shape" result="effect1_innerShadow_862_49483"/>
</filter>
<filter id="filter1_d_862_49483" x="23.457" y="11.0771" width="411.9" height="428.872" filterUnits="userSpaceOnUse" color-interpolation-filters="sRGB">
<feFlood flood-opacity="0" result="BackgroundImageFix"/>
<feColorMatrix in="SourceAlpha" type="matrix" values="0 0 0 0 0 0 0 0 0 0 0 0 0 0 0 0 0 0 127 0" result="hardAlpha"/>
<feOffset dy="4"/>
<feGaussianBlur stdDeviation="24.5"/>
<feComposite in2="hardAlpha" operator="out"/>
<feColorMatrix type="matrix" values="0 0 0 0 0.0666667 0 0 0 0 0.101961 0 0 0 0 1 0 0 0 0.19 0"/>
<feBlend mode="normal" in2="BackgroundImageFix" result="effect1_dropShadow_862_49483"/>
<feBlend mode="normal" in="SourceGraphic" in2="effect1_dropShadow_862_49483" result="shape"/>
</filter>
<linearGradient id="paint0_linear_862_49483" x1="117.903" y1="50.7844" x2="370.106" y2="245.596" gradientUnits="userSpaceOnUse">
<stop offset="0.0187499" stop-color="#02E1FF"/>
<stop offset="1" stop-color="#101AFF"/>
</linearGradient>
<radialGradient id="paint1_radial_862_49483" cx="0" cy="0" r="1" gradientUnits="userSpaceOnUse" gradientTransform="translate(94.103 71.0905) rotate(79.1375) scale(207.362 264.124)">
<stop offset="0.0187499" stop-color="#02FFE1"/>
<stop offset="1" stop-color="#1C47FC" stop-opacity="0"/>
</radialGradient>
<linearGradient id="paint2_linear_862_49483" x1="351.886" y1="255.748" x2="-48.5118" y2="41.8852" gradientUnits="userSpaceOnUse">
<stop offset="0.182972" stop-color="#0057FF"/>
<stop offset="0.945628" stop-color="#1DFFF1"/>
</linearGradient>
<linearGradient id="paint3_linear_862_49483" x1="293.066" y1="303.788" x2="99.2048" y2="408.248" gradientUnits="userSpaceOnUse">
<stop stop-color="#23FBB2"/>
<stop offset="1" stop-color="#1383FE"/>
</linearGradient>
<linearGradient id="paint4_linear_862_49483" x1="218.529" y1="63.2493" x2="329.13" y2="283.268" gradientUnits="userSpaceOnUse">
<stop offset="0.201042" stop-color="#00CAFF"/>
<stop offset="1" stop-color="#06FCDF"/>
</linearGradient>
<linearGradient id="paint5_linear_862_49483" x1="28.5945" y1="190.704" x2="28.5945" y2="418.991" gradientUnits="userSpaceOnUse">
<stop stop-color="#48FAC9"/>
<stop offset="1" stop-color="#3A98FF"/>
</linearGradient>
<linearGradient id="paint6_linear_862_49483" x1="71.4065" y1="65.792" x2="71.4065" y2="160.858" gradientUnits="userSpaceOnUse">
<stop stop-color="#00CAFF"/>
<stop offset="1" stop-color="#06F5E2"/>
</linearGradient>
</defs>
</svg>
