<svg width="375" height="227" viewBox="0 0 375 227" fill="none" xmlns="http://www.w3.org/2000/svg">
<rect width="375" height="227" fill="url(#paint0_linear_862_49503)"/>
<path d="M274 26L276.431 32.5692L283 35L276.431 37.4308L274 44L271.569 37.4308L265 35L271.569 32.5692L274 26Z" fill="#FAFCFF"/>
<path d="M255 55L256.621 59.3795L261 61L256.621 62.6205L255 67L253.379 62.6205L249 61L253.379 59.3795L255 55Z" fill="#F9FCFF"/>
<path d="M316 61L317.621 65.3795L322 67L317.621 68.6205L316 73L314.379 68.6205L310 67L314.379 65.3795L316 61Z" fill="#F9FCFF"/>
<mask id="mask0_862_49503" style="mask-type:alpha" maskUnits="userSpaceOnUse" x="0" y="0" width="375" height="227">
<rect width="375" height="227" fill="#2595FF"/>
</mask>
<g mask="url(#mask0_862_49503)">
<path d="M70 52L72.4308 58.5692L79 61L72.4308 63.4308L70 70L67.5692 63.4308L61 61L67.5692 58.5692L70 52Z" fill="#FAFCFF"/>
<g clip-path="url(#clip0_862_49503)">
<g opacity="0.3" filter="url(#filter0_f_862_49503)">
<path d="M120.882 249.506C117.25 247.404 117.059 243.773 120.882 241.671L191.237 200.774C194.869 198.672 200.987 198.672 204.619 200.774L275.356 241.671C278.988 243.773 279.18 247.404 275.356 249.506L205.193 290.403C201.56 292.505 195.443 292.505 191.81 290.403L120.882 249.506Z" fill="#96AEE5"/>
</g>
<path d="M278.224 191.981C278.224 192.173 278.224 192.173 278.224 192.364L278.224 192.555C278.224 192.746 278.224 192.746 278.224 192.937L278.224 193.128C278.224 193.319 278.224 193.319 278.033 193.51C278.033 193.701 277.842 193.701 277.842 193.892C277.842 194.084 277.65 194.084 277.459 194.275C277.268 194.466 277.268 194.466 277.077 194.657C277.077 194.657 276.886 194.848 276.694 194.848L276.503 195.039C276.312 195.039 276.312 195.23 276.121 195.23C275.93 195.23 275.93 195.421 275.739 195.421L205.193 236.509L205.002 286.962L275.356 246.065C275.356 246.065 275.356 246.065 275.547 246.065L275.739 245.874C275.93 245.874 275.93 245.682 276.121 245.682L276.312 245.491C276.503 245.491 276.503 245.3 276.694 245.3C276.886 245.109 276.886 245.109 277.077 244.918L277.268 244.727C277.268 244.727 277.268 244.536 277.459 244.536C277.459 244.345 277.65 244.345 277.65 244.154C277.65 243.963 277.65 243.963 277.842 243.771L277.842 243.58C277.842 243.58 277.842 243.389 277.842 243.198L277.842 243.007C277.842 243.007 277.842 242.816 277.842 242.625L277.842 242.434L278.033 191.981C278.224 191.79 278.224 191.981 278.224 191.981Z" fill="#E4E7FB"/>
<path d="M120.883 195.613C118.972 194.466 118.016 193.128 118.016 191.6L118.016 242.052C118.016 243.39 118.972 244.918 120.883 246.065L191.62 286.962L191.811 236.51L120.883 195.613Z" fill="#EFF1FE"/>
<path d="M275.356 187.777C278.989 189.879 279.18 193.51 275.356 195.612L205.193 236.509C201.561 238.611 195.443 238.611 191.81 236.509L121.074 195.612C117.441 193.51 117.25 189.879 121.074 187.777L191.237 147.071C194.869 144.969 200.987 144.969 204.62 147.071L275.356 187.777Z" fill="white"/>
<path d="M120.882 192.555C117.25 190.453 117.059 186.822 120.882 184.72L191.237 143.823C194.869 141.721 200.987 141.721 204.619 143.823L275.356 184.72C278.988 186.822 279.18 190.453 275.356 192.555L205.193 233.452C201.56 235.554 195.443 235.554 191.81 233.452L120.882 192.555Z" fill="url(#paint1_linear_862_49503)"/>
<path d="M160.266 242.624L124.515 221.985C123.368 221.411 122.412 221.793 122.412 223.131C122.412 224.469 123.368 225.998 124.515 226.571L160.266 247.211C161.413 247.784 162.369 247.402 162.369 246.064C162.369 244.726 161.413 243.197 160.266 242.624Z" fill="url(#paint2_linear_862_49503)"/>
<path d="M160.266 231.923L124.515 211.283C123.368 210.71 122.412 211.092 122.412 212.43C122.412 213.768 123.368 215.297 124.515 215.87L160.266 236.51C161.413 237.083 162.369 236.701 162.369 235.363C162.369 234.025 161.413 232.496 160.266 231.923Z" fill="url(#paint3_linear_862_49503)"/>
<path d="M262.548 243.962L217.621 270.144L217.621 238.42L262.548 212.238L262.548 243.962Z" fill="url(#paint4_linear_862_49503)"/>
<path d="M181.488 189.497C180.723 189.115 180.723 188.35 181.488 187.777L196.782 178.986C197.547 178.604 198.885 178.604 199.65 178.986L214.944 187.777C215.709 188.159 215.709 188.923 214.944 189.497L199.65 198.288C198.885 198.67 197.547 198.67 196.782 198.288L181.488 189.497Z" fill="url(#paint5_linear_862_49503)"/>
<path d="M198.312 206.123C197.356 206.123 196.4 205.932 195.636 205.55L169.635 190.452C168.87 190.07 168.297 189.306 168.297 188.541C168.297 187.777 168.679 187.203 169.635 186.63L195.444 171.724C196.974 170.959 199.459 170.959 200.797 171.724L226.798 186.63C227.563 187.012 228.136 187.777 228.136 188.541C228.136 189.306 227.754 189.879 226.798 190.452L200.989 205.359C200.224 205.932 199.268 206.123 198.312 206.123ZM198.121 172.106C197.356 172.106 196.4 172.297 196.018 172.679L170.209 187.586C169.826 187.777 169.444 188.159 169.444 188.541C169.444 188.923 169.635 189.306 170.209 189.497L196.209 204.403C197.356 204.976 199.459 204.976 200.606 204.403L226.416 189.497C226.798 189.306 227.18 188.923 227.18 188.541C227.18 188.159 226.989 187.777 226.416 187.586L200.224 172.679C199.65 172.297 198.886 172.106 198.121 172.106Z" fill="url(#paint6_linear_862_49503)"/>
</g>
<g clip-path="url(#clip1_862_49503)">
<g opacity="0.3" filter="url(#filter1_f_862_49503)">
<path d="M120.882 191.766C117.25 189.664 117.059 186.033 120.882 183.931L191.237 143.034C194.869 140.931 200.987 140.931 204.619 143.034L275.356 183.931C278.988 186.033 279.18 189.664 275.356 191.766L205.193 232.663C201.56 234.765 195.443 234.765 191.81 232.663L120.882 191.766Z" fill="#96AEE5"/>
</g>
<path d="M278.224 134.241C278.224 134.432 278.224 134.432 278.224 134.623L278.224 134.815C278.224 135.006 278.224 135.006 278.224 135.197L278.224 135.388C278.224 135.579 278.224 135.579 278.033 135.77C278.033 135.961 277.842 135.961 277.842 136.152C277.842 136.343 277.65 136.343 277.459 136.534C277.268 136.726 277.268 136.726 277.077 136.917C277.077 136.917 276.886 137.108 276.694 137.108L276.503 137.299C276.312 137.299 276.312 137.49 276.121 137.49C275.93 137.49 275.93 137.681 275.739 137.681L205.193 178.769L205.002 229.221L275.356 188.324C275.356 188.324 275.356 188.324 275.547 188.324L275.739 188.133C275.93 188.133 275.93 187.942 276.121 187.942L276.312 187.751C276.503 187.751 276.503 187.56 276.694 187.56C276.886 187.369 276.886 187.369 277.077 187.178L277.268 186.987C277.268 186.987 277.268 186.796 277.459 186.796C277.459 186.605 277.65 186.605 277.65 186.413C277.65 186.222 277.65 186.222 277.842 186.031L277.842 185.84C277.842 185.84 277.842 185.649 277.842 185.458L277.842 185.267C277.842 185.267 277.842 185.076 277.842 184.885L277.842 184.693L278.033 134.241C278.224 134.05 278.224 134.241 278.224 134.241Z" fill="#E4E7FB"/>
<path d="M120.883 137.873C118.972 136.726 118.016 135.388 118.016 133.859L118.016 184.312C118.016 185.649 118.972 187.178 120.883 188.325L191.62 229.222L191.811 178.77L120.883 137.873Z" fill="#EFF1FE"/>
<path d="M275.356 130.036C278.989 132.139 279.18 135.77 275.356 137.872L205.193 178.769C201.561 180.871 195.443 180.871 191.81 178.769L121.074 137.872C117.441 135.77 117.25 132.139 121.074 130.036L191.237 89.3305C194.869 87.2284 200.987 87.2284 204.62 89.3305L275.356 130.036Z" fill="white"/>
<path d="M120.882 134.815C117.25 132.713 117.059 129.082 120.882 126.979L191.237 86.0825C194.869 83.9803 200.987 83.9803 204.619 86.0825L275.356 126.979C278.988 129.082 279.18 132.713 275.356 134.815L205.193 175.712C201.56 177.814 195.443 177.814 191.81 175.712L120.882 134.815Z" fill="url(#paint7_linear_862_49503)"/>
<path d="M204.047 229.603C204.429 229.412 205.576 228.839 205.767 228.648L205.767 178.386C205.576 178.578 204.429 179.151 204.238 179.151C204.238 179.151 204.047 179.151 204.047 179.342C203.855 179.533 203.473 179.533 203.282 179.533C203.282 179.533 203.091 179.533 203.091 179.724C202.9 179.724 202.708 179.724 202.517 179.915C202.326 179.915 202.326 179.915 202.135 180.106C201.944 180.106 201.753 180.106 201.561 180.297C201.37 180.297 201.37 180.297 201.179 180.297C200.797 180.297 200.414 180.489 200.032 180.489C199.841 180.489 199.841 180.489 199.65 180.489C199.458 180.489 199.267 180.489 199.076 180.489C198.885 180.489 198.885 180.489 198.694 180.489C198.502 180.489 198.311 180.489 198.12 180.489C197.929 180.489 197.738 180.489 197.738 180.489C197.547 180.489 197.355 180.489 197.355 180.489C197.164 180.489 196.973 180.489 196.973 180.489C196.782 180.489 196.591 180.489 196.591 180.489C196.399 180.489 196.208 180.489 196.208 180.489C196.017 180.489 195.826 180.489 195.635 180.489C195.444 180.489 195.444 180.489 195.252 180.489C195.061 180.489 194.87 180.489 194.679 180.297C194.488 180.297 194.488 180.297 194.296 180.297C193.914 180.106 193.532 180.106 193.341 179.915C193.149 179.915 192.958 179.724 192.958 179.724C192.958 179.724 192.767 179.724 192.767 179.533C192.194 178.96 190.855 178.195 190.664 178.195L190.664 228.648C190.855 228.839 192.002 229.412 192.385 229.603C192.385 229.603 192.576 229.603 192.576 229.794C192.767 229.794 192.767 229.985 192.958 229.985C193.341 230.176 193.532 230.176 193.914 230.368H194.105C194.296 230.368 194.488 230.559 194.679 230.559H194.87H195.061C195.252 230.559 195.444 230.559 195.635 230.559H195.826H196.017C196.208 230.559 196.399 230.559 196.399 230.559H196.591H196.782C196.973 230.559 197.164 230.559 197.164 230.559H197.355H197.547C197.738 230.559 197.929 230.559 198.12 230.559H198.311H198.502C198.694 230.559 198.885 230.559 199.076 230.559H199.267C199.65 230.559 200.032 230.559 200.414 230.368C200.605 230.368 200.605 230.368 200.797 230.368C200.988 230.368 201.179 230.368 201.37 230.176C201.561 230.176 201.561 230.176 201.753 229.985C201.944 229.985 202.135 229.985 202.326 229.794C202.326 229.794 202.326 229.794 202.517 229.794H202.708C202.9 229.794 203.282 229.603 203.473 229.412C204.047 229.603 204.047 229.603 204.047 229.603Z" fill="url(#paint8_linear_862_49503)"/>
<path d="M173.458 180.489L169.826 178.387C168.679 177.814 167.723 178.196 167.723 179.534C167.723 180.871 168.679 182.4 169.826 182.973L173.267 185.076C174.414 185.649 175.37 185.267 175.37 183.929C175.37 182.591 174.605 181.062 173.458 180.489Z" fill="#96AEE5"/>
<path d="M173.458 187.942L169.826 185.84C168.679 185.267 167.723 185.649 167.723 186.987C167.723 188.324 168.679 189.853 169.826 190.427L173.267 192.529C174.414 193.102 175.37 192.72 175.37 191.382C175.37 190.235 174.605 188.707 173.458 187.942Z" fill="#96AEE5"/>
<path d="M173.458 195.587L169.826 193.485C168.679 192.911 167.723 193.293 167.723 194.631C167.723 195.969 168.679 197.498 169.826 198.071L173.267 200.173C174.414 200.747 175.37 200.364 175.37 199.027C175.37 197.689 174.605 196.16 173.458 195.587Z" fill="#40FFC6"/>
<path d="M173.458 203.04L169.826 200.938C168.679 200.364 167.723 200.747 167.723 202.084C167.723 203.422 168.679 204.951 169.826 205.524L173.267 207.626C174.414 208.2 175.37 207.818 175.37 206.48C175.37 205.333 174.605 203.613 173.458 203.04Z" fill="#96AEE5"/>
<path d="M183.591 185.841L179.958 183.738C178.811 183.165 177.855 183.547 177.855 184.885C177.855 186.223 178.811 187.752 179.958 188.325L183.591 190.427C184.738 191.001 185.694 190.618 185.694 189.281C185.694 187.943 184.738 186.414 183.591 185.841Z" fill="#2595FF"/>
<path d="M183.591 193.294L179.958 191.192C178.811 190.618 177.855 191 177.855 192.338C177.855 193.676 178.811 195.205 179.958 195.778L183.591 197.88C184.738 198.454 185.694 198.071 185.694 196.734C185.694 195.587 184.738 193.867 183.591 193.294Z" fill="#96AEE5"/>
<path d="M183.591 200.747L179.958 198.645C178.811 198.071 177.855 198.454 177.855 199.791C177.855 201.129 178.811 202.658 179.958 203.231L183.591 205.333C184.738 205.907 185.694 205.525 185.694 204.187C185.694 203.04 184.738 201.511 183.591 200.747Z" fill="#96AEE5"/>
<path d="M183.591 208.391L179.958 206.289C178.811 205.716 177.855 206.098 177.855 207.436C177.855 208.774 178.811 210.302 179.958 210.876L183.591 212.978C184.738 213.551 185.694 213.169 185.694 211.831C185.694 210.685 184.738 208.965 183.591 208.391Z" fill="#96AEE5"/>
<path d="M160.266 195.396L124.515 174.756C123.368 174.183 122.412 174.565 122.412 175.903C122.412 177.24 123.368 178.769 124.515 179.343L160.266 199.982C161.413 200.555 162.369 200.173 162.369 198.836C162.369 197.689 161.413 196.16 160.266 195.396Z" fill="url(#paint9_linear_862_49503)"/>
<path d="M160.266 184.884L124.515 164.244C123.368 163.671 122.412 164.053 122.412 165.391C122.412 166.729 123.368 168.258 124.515 168.831L160.266 189.47C161.413 190.044 162.369 189.662 162.369 188.324C162.369 186.986 161.413 185.457 160.266 184.884Z" fill="url(#paint10_linear_862_49503)"/>
<path d="M160.266 174.183L124.515 153.543C123.368 152.97 122.412 153.352 122.412 154.69C122.412 156.028 123.368 157.556 124.515 158.13L160.266 178.769C161.413 179.343 162.369 178.96 162.369 177.623C162.369 176.285 161.413 174.756 160.266 174.183Z" fill="url(#paint11_linear_862_49503)"/>
<path d="M262.548 186.222L217.621 212.403L217.621 180.68L262.548 154.498L262.548 186.222Z" fill="url(#paint12_linear_862_49503)"/>
<path d="M181.488 131.757C180.723 131.374 180.723 130.61 181.488 130.037L196.782 121.246C197.547 120.863 198.885 120.863 199.65 121.246L214.944 130.037C215.709 130.419 215.709 131.183 214.944 131.757L199.65 140.547C198.885 140.93 197.547 140.93 196.782 140.547L181.488 131.757Z" fill="url(#paint13_linear_862_49503)"/>
<path d="M198.312 148.383C197.356 148.383 196.4 148.192 195.636 147.809L169.635 132.712C168.87 132.33 168.297 131.565 168.297 130.801C168.297 130.036 168.679 129.463 169.635 128.89L195.444 113.983C196.974 113.219 199.459 113.219 200.797 113.983L226.798 128.89C227.563 129.272 228.136 130.036 228.136 130.801C228.136 131.565 227.754 132.139 226.798 132.712L200.989 147.618C200.224 148.192 199.268 148.383 198.312 148.383ZM198.121 114.366C197.356 114.366 196.4 114.557 196.018 114.939L170.209 129.845C169.826 130.036 169.444 130.419 169.444 130.801C169.444 131.183 169.635 131.565 170.209 131.756L196.209 146.663C197.356 147.236 199.459 147.236 200.606 146.663L226.416 131.756C226.798 131.565 227.18 131.183 227.18 130.801C227.18 130.419 226.989 130.036 226.416 129.845L200.224 114.939C199.65 114.557 198.886 114.366 198.121 114.366Z" fill="url(#paint14_linear_862_49503)"/>
</g>
<g clip-path="url(#clip2_862_49503)">
<g opacity="0.3" filter="url(#filter2_f_862_49503)">
<path d="M120.882 133.213C117.25 131.111 117.059 127.48 120.882 125.378L191.237 84.4809C194.869 82.3788 200.987 82.3788 204.619 84.4809L275.356 125.378C278.988 127.48 279.18 131.111 275.356 133.213L205.193 174.11C201.56 176.212 195.443 176.212 191.81 174.11L120.882 133.213Z" fill="#96AEE5"/>
</g>
<path d="M278.224 75.6885C278.224 75.8796 278.224 75.8796 278.224 76.0707L278.224 76.2618C278.224 76.4529 278.224 76.4529 278.224 76.644L278.224 76.8351C278.224 77.0262 278.224 77.0262 278.033 77.2173C278.033 77.4084 277.842 77.4084 277.842 77.5995C277.842 77.7906 277.65 77.7906 277.459 77.9817C277.268 78.1728 277.268 78.1728 277.077 78.3639C277.077 78.3639 276.886 78.5551 276.694 78.5551L276.503 78.7462C276.312 78.7462 276.312 78.9373 276.121 78.9373C275.93 78.9373 275.93 79.1284 275.739 79.1284L205.193 120.216L205.002 170.669L275.356 129.772C275.356 129.772 275.356 129.772 275.547 129.772L275.739 129.581C275.93 129.581 275.93 129.39 276.121 129.39L276.312 129.198C276.503 129.198 276.503 129.007 276.694 129.007C276.886 128.816 276.886 128.816 277.077 128.625L277.268 128.434C277.268 128.434 277.268 128.243 277.459 128.243C277.459 128.052 277.65 128.052 277.65 127.861C277.65 127.67 277.65 127.67 277.842 127.478L277.842 127.287C277.842 127.287 277.842 127.096 277.842 126.905L277.842 126.714C277.842 126.714 277.842 126.523 277.842 126.332L277.842 126.141L278.033 75.6885C278.224 75.4973 278.224 75.6885 278.224 75.6885Z" fill="#E4E7FB"/>
<path d="M120.883 79.3199C118.972 78.1732 118.016 76.8355 118.016 75.3066L118.016 125.759C118.016 127.097 118.972 128.625 120.883 129.772L191.62 170.669L191.811 120.217L120.883 79.3199Z" fill="#EFF1FE"/>
<path d="M275.356 71.4836C278.989 73.5858 279.18 77.2168 275.356 79.319L205.193 120.216C201.561 122.318 195.443 122.318 191.81 120.216L121.074 79.319C117.441 77.2168 117.25 73.5858 121.074 71.4836L191.237 30.7778C194.869 28.6756 200.987 28.6756 204.62 30.7778L275.356 71.4836Z" fill="white"/>
<path d="M120.882 76.262C117.25 74.1599 117.059 70.5288 120.882 68.4267L191.237 27.5298C194.869 25.4276 200.987 25.4276 204.619 27.5298L275.356 68.4267C278.988 70.5288 279.18 74.1599 275.356 76.262L205.193 117.159C201.56 119.261 195.443 119.261 191.81 117.159L120.882 76.262Z" fill="url(#paint15_linear_862_49503)"/>
<path d="M204.047 171.05C204.429 170.859 205.576 170.286 205.767 170.095L205.767 119.834C205.576 120.025 204.429 120.598 204.238 120.598C204.238 120.598 204.047 120.598 204.047 120.789C203.855 120.98 203.473 120.98 203.282 120.98C203.282 120.98 203.091 120.98 203.091 121.171C202.9 121.171 202.708 121.171 202.517 121.363C202.326 121.363 202.326 121.363 202.135 121.554C201.944 121.554 201.753 121.554 201.561 121.745C201.37 121.745 201.37 121.745 201.179 121.745C200.797 121.745 200.414 121.936 200.032 121.936C199.841 121.936 199.841 121.936 199.65 121.936C199.458 121.936 199.267 121.936 199.076 121.936C198.885 121.936 198.885 121.936 198.694 121.936C198.502 121.936 198.311 121.936 198.12 121.936C197.929 121.936 197.738 121.936 197.738 121.936C197.547 121.936 197.355 121.936 197.355 121.936C197.164 121.936 196.973 121.936 196.973 121.936C196.782 121.936 196.591 121.936 196.591 121.936C196.399 121.936 196.208 121.936 196.208 121.936C196.017 121.936 195.826 121.936 195.635 121.936C195.444 121.936 195.444 121.936 195.252 121.936C195.061 121.936 194.87 121.936 194.679 121.745C194.488 121.745 194.488 121.745 194.296 121.745C193.914 121.554 193.532 121.554 193.341 121.363C193.149 121.363 192.958 121.171 192.958 121.171C192.958 121.171 192.767 121.171 192.767 120.98C192.194 120.407 190.855 119.643 190.664 119.643L190.664 170.095C190.855 170.286 192.002 170.859 192.385 171.05C192.385 171.05 192.576 171.05 192.576 171.241C192.767 171.241 192.767 171.433 192.958 171.433C193.341 171.624 193.532 171.624 193.914 171.815H194.105C194.296 171.815 194.488 172.006 194.679 172.006H194.87H195.061C195.252 172.006 195.444 172.006 195.635 172.006H195.826H196.017C196.208 172.006 196.399 172.006 196.399 172.006H196.591H196.782C196.973 172.006 197.164 172.006 197.164 172.006H197.355H197.547C197.738 172.006 197.929 172.006 198.12 172.006H198.311H198.502C198.694 172.006 198.885 172.006 199.076 172.006H199.267C199.65 172.006 200.032 172.006 200.414 171.815C200.605 171.815 200.605 171.815 200.797 171.815C200.988 171.815 201.179 171.815 201.37 171.624C201.561 171.624 201.561 171.624 201.753 171.433C201.944 171.433 202.135 171.433 202.326 171.241C202.326 171.241 202.326 171.241 202.517 171.241H202.708C202.9 171.241 203.282 171.05 203.473 170.859C204.047 171.05 204.047 171.05 204.047 171.05Z" fill="url(#paint16_linear_862_49503)"/>
<path d="M173.458 121.936L169.826 119.834C168.679 119.261 167.723 119.643 167.723 120.981C167.723 122.319 168.679 123.847 169.826 124.421L173.267 126.523C174.414 127.096 175.37 126.714 175.37 125.376C175.37 124.039 174.605 122.51 173.458 121.936Z" fill="#96AEE5"/>
<path d="M173.458 129.389L169.826 127.287C168.679 126.714 167.723 127.096 167.723 128.434C167.723 129.772 168.679 131.301 169.826 131.874L173.267 133.976C174.414 134.549 175.37 134.167 175.37 132.829C175.37 131.683 174.605 130.154 173.458 129.389Z" fill="#96AEE5"/>
<path d="M173.458 137.034L169.826 134.932C168.679 134.359 167.723 134.741 167.723 136.078C167.723 137.416 168.679 138.945 169.826 139.518L173.267 141.621C174.414 142.194 175.37 141.812 175.37 140.474C175.37 139.136 174.605 137.607 173.458 137.034Z" fill="#40FFC6"/>
<path d="M173.458 144.487L169.826 142.385C168.679 141.812 167.723 142.194 167.723 143.532C167.723 144.869 168.679 146.398 169.826 146.972L173.267 149.074C174.414 149.647 175.37 149.265 175.37 147.927C175.37 146.78 174.605 145.06 173.458 144.487Z" fill="#96AEE5"/>
<path d="M183.591 127.288L179.958 125.186C178.811 124.612 177.855 124.995 177.855 126.332C177.855 127.67 178.811 129.199 179.958 129.772L183.591 131.874C184.738 132.448 185.694 132.066 185.694 130.728C185.694 129.39 184.738 127.861 183.591 127.288Z" fill="#2595FF"/>
<path d="M183.591 134.741L179.958 132.639C178.811 132.066 177.855 132.448 177.855 133.785C177.855 135.123 178.811 136.652 179.958 137.225L183.591 139.328C184.738 139.901 185.694 139.519 185.694 138.181C185.694 137.034 184.738 135.314 183.591 134.741Z" fill="#96AEE5"/>
<path d="M183.591 142.194L179.958 140.092C178.811 139.519 177.855 139.901 177.855 141.239C177.855 142.576 178.811 144.105 179.958 144.679L183.591 146.781C184.738 147.354 185.694 146.972 185.694 145.634C185.694 144.487 184.738 142.959 183.591 142.194Z" fill="#96AEE5"/>
<path d="M183.591 149.839L179.958 147.737C178.811 147.163 177.855 147.545 177.855 148.883C177.855 150.221 178.811 151.75 179.958 152.323L183.591 154.425C184.738 154.999 185.694 154.616 185.694 153.279C185.694 152.132 184.738 150.412 183.591 149.839Z" fill="#96AEE5"/>
<path d="M160.266 136.843L124.515 116.203C123.368 115.63 122.412 116.012 122.412 117.35C122.412 118.688 123.368 120.217 124.515 120.79L160.266 141.429C161.413 142.003 162.369 141.621 162.369 140.283C162.369 139.136 161.413 137.607 160.266 136.843Z" fill="url(#paint17_linear_862_49503)"/>
<path d="M160.266 126.331L124.515 105.692C123.368 105.118 122.412 105.5 122.412 106.838C122.412 108.176 123.368 109.705 124.515 110.278L160.266 130.918C161.413 131.491 162.369 131.109 162.369 129.771C162.369 128.433 161.413 126.904 160.266 126.331Z" fill="url(#paint18_linear_862_49503)"/>
<path d="M160.266 115.63L124.515 94.9904C123.368 94.4171 122.412 94.7993 122.412 96.1371C122.412 97.4748 123.368 99.0037 124.515 99.577L160.266 120.217C161.413 120.79 162.369 120.408 162.369 119.07C162.369 117.732 161.413 116.203 160.266 115.63Z" fill="url(#paint19_linear_862_49503)"/>
<path d="M262.548 127.669L217.621 153.851L217.621 122.127L262.548 95.9453L262.548 127.669Z" fill="url(#paint20_linear_862_49503)"/>
<path d="M196.207 75.7734L214.132 65.424C217.856 63.2739 223.983 63.2397 227.775 65.4291L203.032 79.7142L196.207 75.7734Z" fill="url(#paint21_linear_862_49503)"/>
<path fill-rule="evenodd" clip-rule="evenodd" d="M203.411 79.4974C210.607 75.343 210.599 68.6334 203.394 64.4737C196.189 60.314 184.568 60.3097 177.373 64.464C170.177 68.6184 170.184 75.328 177.389 79.4877C184.594 83.6474 196.215 83.6517 203.411 79.4974ZM196.396 75.4471C199.678 73.5521 199.675 70.4891 196.388 68.5917C193.102 66.6942 187.733 66.6558 184.451 68.5508C181.169 70.4457 181.172 73.5088 184.459 75.4062C187.745 77.3036 193.114 77.3421 196.396 75.4471Z" fill="url(#paint22_radial_862_49503)"/>
</g>
<g clip-path="url(#clip3_862_49503)">
<path d="M372.132 241.45C375.764 243.553 375.955 247.184 372.132 249.286L301.968 290.183C298.336 292.285 292.218 292.285 288.586 290.183L217.849 249.286C214.217 247.184 214.026 243.553 217.849 241.45L288.012 200.745C291.645 198.642 297.762 198.642 301.395 200.745L372.132 241.45Z" fill="white"/>
<path d="M217.658 246.229C214.025 244.127 213.834 240.496 217.658 238.393L288.012 197.497C291.645 195.394 297.762 195.394 301.395 197.497L372.131 238.393C375.764 240.496 375.955 244.127 372.131 246.229L301.968 287.126C298.336 289.228 292.218 289.228 288.586 287.126L217.658 246.229Z" fill="url(#paint23_linear_862_49503)"/>
<path d="M295.088 259.797C294.132 259.797 293.176 259.606 292.411 259.223L266.411 244.126C265.646 243.744 265.072 242.979 265.072 242.215C265.072 241.451 265.455 240.877 266.411 240.304L292.22 225.398C293.749 224.633 296.235 224.633 297.573 225.398L323.573 240.304C324.338 240.686 324.912 241.451 324.912 242.215C324.912 242.979 324.529 243.553 323.573 244.126L297.764 259.032C296.999 259.606 296.043 259.797 295.088 259.797ZM294.896 225.78C294.132 225.78 293.176 225.971 292.793 226.353L266.984 241.259C266.602 241.451 266.219 241.833 266.219 242.215C266.219 242.597 266.411 242.979 266.984 243.17L292.985 258.077C294.132 258.65 296.235 258.65 297.382 258.077L323.191 243.17C323.573 242.979 323.956 242.597 323.956 242.215C323.956 241.833 323.765 241.451 323.191 241.259L296.999 226.353C296.426 225.971 295.661 225.78 294.896 225.78Z" fill="url(#paint24_linear_862_49503)"/>
</g>
<g clip-path="url(#clip4_862_49503)">
<g opacity="0.3" filter="url(#filter3_f_862_49503)">
<path d="M217.658 245.44C214.025 243.338 213.834 239.707 217.658 237.604L288.012 196.707C291.645 194.605 297.762 194.605 301.395 196.707L372.131 237.604C375.764 239.707 375.955 243.338 372.131 245.44L301.968 286.337C298.336 288.439 292.218 288.439 288.586 286.337L217.658 245.44Z" fill="#96AEE5"/>
</g>
<path d="M374.999 187.915C374.999 188.106 374.999 188.106 374.999 188.297L374.999 188.488C374.999 188.679 374.999 188.679 374.999 188.871L374.999 189.062C374.999 189.253 374.999 189.253 374.808 189.444C374.808 189.635 374.617 189.635 374.617 189.826C374.617 190.017 374.426 190.017 374.235 190.208C374.043 190.399 374.043 190.399 373.852 190.591C373.852 190.591 373.661 190.782 373.47 190.782L373.279 190.973C373.088 190.973 373.088 191.164 372.896 191.164C372.705 191.164 372.705 191.355 372.514 191.355L301.969 232.443L301.777 282.895L372.132 241.998C372.132 241.998 372.132 241.998 372.323 241.998L372.514 241.807C372.705 241.807 372.705 241.616 372.896 241.616L373.088 241.425C373.279 241.425 373.279 241.234 373.47 241.234C373.661 241.043 373.661 241.043 373.852 240.852L374.043 240.661C374.043 240.661 374.043 240.469 374.235 240.469C374.235 240.278 374.426 240.278 374.426 240.087C374.426 239.896 374.426 239.896 374.617 239.705L374.617 239.514C374.617 239.514 374.617 239.323 374.617 239.132L374.617 238.941C374.617 238.941 374.617 238.749 374.617 238.558L374.617 238.367L374.808 187.915C374.999 187.724 374.999 187.915 374.999 187.915Z" fill="#E4E7FB"/>
<path d="M217.659 191.546C215.747 190.4 214.791 189.062 214.791 187.533L214.791 237.985C214.791 239.323 215.747 240.852 217.659 241.999L288.395 282.896L288.587 232.443L217.659 191.546Z" fill="#EFF1FE"/>
<path d="M372.132 183.71C375.764 185.812 375.955 189.443 372.132 191.546L301.968 232.442C298.336 234.545 292.218 234.545 288.586 232.442L217.849 191.546C214.217 189.443 214.026 185.812 217.849 183.71L288.012 143.004C291.645 140.902 297.762 140.902 301.395 143.004L372.132 183.71Z" fill="white"/>
<path d="M217.658 188.489C214.025 186.386 213.834 182.755 217.658 180.653L288.012 139.756C291.645 137.654 297.762 137.654 301.395 139.756L372.131 180.653C375.764 182.755 375.955 186.386 372.131 188.489L301.968 229.386C298.336 231.488 292.218 231.488 288.586 229.386L217.658 188.489Z" fill="url(#paint25_linear_862_49503)"/>
<path d="M257.041 238.558L221.29 217.918C220.143 217.345 219.187 217.727 219.187 219.065C219.187 220.403 220.143 221.931 221.29 222.505L257.041 243.144C258.188 243.718 259.144 243.335 259.144 241.998C259.144 240.66 258.188 239.131 257.041 238.558Z" fill="url(#paint26_linear_862_49503)"/>
<path d="M257.041 227.857L221.29 207.217C220.143 206.644 219.187 207.026 219.187 208.364C219.187 209.701 220.143 211.23 221.29 211.804L257.041 232.443C258.188 233.016 259.144 232.634 259.144 231.296C259.144 229.959 258.188 228.43 257.041 227.857Z" fill="url(#paint27_linear_862_49503)"/>
<path d="M359.324 239.896L314.396 266.077L314.396 234.354L359.324 208.172L359.324 239.896Z" fill="url(#paint28_linear_862_49503)"/>
<path d="M278.263 185.43C277.498 185.048 277.498 184.284 278.263 183.71L293.557 174.919C294.322 174.537 295.66 174.537 296.425 174.919L311.72 183.71C312.484 184.093 312.484 184.857 311.72 185.43L296.425 194.221C295.66 194.603 294.322 194.603 293.557 194.221L278.263 185.43Z" fill="url(#paint29_linear_862_49503)"/>
<path d="M295.088 202.057C294.132 202.057 293.176 201.865 292.411 201.483L266.411 186.386C265.646 186.004 265.072 185.239 265.072 184.475C265.072 183.71 265.455 183.137 266.411 182.564L292.22 167.657C293.749 166.893 296.235 166.893 297.573 167.657L323.573 182.564C324.338 182.946 324.912 183.71 324.912 184.475C324.912 185.239 324.529 185.812 323.573 186.386L297.764 201.292C296.999 201.865 296.043 202.057 295.088 202.057ZM294.896 168.04C294.132 168.04 293.176 168.231 292.793 168.613L266.984 183.519C266.602 183.71 266.219 184.093 266.219 184.475C266.219 184.857 266.411 185.239 266.984 185.43L292.985 200.337C294.132 200.91 296.235 200.91 297.382 200.337L323.191 185.43C323.573 185.239 323.956 184.857 323.956 184.475C323.956 184.093 323.765 183.71 323.191 183.519L296.999 168.613C296.426 168.231 295.661 168.04 294.896 168.04Z" fill="url(#paint30_linear_862_49503)"/>
</g>
<g clip-path="url(#clip5_862_49503)">
<g opacity="0.3" filter="url(#filter4_f_862_49503)">
<path d="M217.658 186.887C214.025 184.785 213.834 181.154 217.658 179.052L288.012 138.155C291.645 136.053 297.762 136.053 301.395 138.155L372.131 179.052C375.764 181.154 375.955 184.785 372.131 186.887L301.968 227.784C298.336 229.886 292.218 229.886 288.586 227.784L217.658 186.887Z" fill="#96AEE5"/>
</g>
<path d="M374.999 129.362C374.999 129.553 374.999 129.553 374.999 129.744L374.999 129.936C374.999 130.127 374.999 130.127 374.999 130.318L374.999 130.509C374.999 130.7 374.999 130.7 374.808 130.891C374.808 131.082 374.617 131.082 374.617 131.273C374.617 131.464 374.426 131.464 374.235 131.656C374.043 131.847 374.043 131.847 373.852 132.038C373.852 132.038 373.661 132.229 373.47 132.229L373.279 132.42C373.088 132.42 373.088 132.611 372.896 132.611C372.705 132.611 372.705 132.802 372.514 132.802L301.969 173.89L301.777 224.342L372.132 183.446C372.132 183.446 372.132 183.446 372.323 183.446L372.514 183.254C372.705 183.254 372.705 183.063 372.896 183.063L373.088 182.872C373.279 182.872 373.279 182.681 373.47 182.681C373.661 182.49 373.661 182.49 373.852 182.299L374.043 182.108C374.043 182.108 374.043 181.917 374.235 181.917C374.235 181.726 374.426 181.726 374.426 181.534C374.426 181.343 374.426 181.343 374.617 181.152L374.617 180.961C374.617 180.961 374.617 180.77 374.617 180.579L374.617 180.388C374.617 180.388 374.617 180.197 374.617 180.006L374.617 179.815L374.808 129.362C374.999 129.171 374.999 129.362 374.999 129.362Z" fill="#E4E7FB"/>
<path d="M217.659 132.994C215.747 131.847 214.791 130.509 214.791 128.98L214.791 179.433C214.791 180.77 215.747 182.299 217.659 183.446L288.395 224.343L288.587 173.891L217.659 132.994Z" fill="#EFF1FE"/>
<path d="M372.132 125.157C375.764 127.26 375.955 130.891 372.132 132.993L301.968 173.89C298.336 175.992 292.218 175.992 288.586 173.89L217.849 132.993C214.217 130.891 214.026 127.26 217.849 125.157L288.012 84.4516C291.645 82.3495 297.762 82.3495 301.395 84.4516L372.132 125.157Z" fill="white"/>
<path d="M217.658 129.936C214.025 127.834 213.834 124.203 217.658 122.1L288.012 81.2036C291.645 79.1014 297.762 79.1014 301.395 81.2036L372.131 122.1C375.764 124.203 375.955 127.834 372.131 129.936L301.968 170.833C298.336 172.935 292.218 172.935 288.586 170.833L217.658 129.936Z" fill="url(#paint31_linear_862_49503)"/>
<path d="M292.982 129.449L310.908 119.1C314.632 116.95 320.758 116.916 324.55 119.105L299.808 133.39L292.982 129.449Z" fill="url(#paint32_linear_862_49503)"/>
<path fill-rule="evenodd" clip-rule="evenodd" d="M300.186 133.173C307.382 129.019 307.374 122.309 300.17 118.149C292.965 113.99 281.343 113.985 274.148 118.14C266.952 122.294 266.96 129.004 274.165 133.163C281.369 137.323 292.991 137.327 300.186 133.173ZM293.171 129.123C296.453 127.228 296.45 124.165 293.164 122.267C289.877 120.37 284.509 120.332 281.226 122.227C277.944 124.121 277.948 127.185 281.234 129.082C284.52 130.979 289.889 131.018 293.171 129.123Z" fill="url(#paint33_radial_862_49503)"/>
<path d="M300.822 224.724C301.204 224.533 302.352 223.96 302.543 223.769L302.543 173.508C302.352 173.699 301.204 174.272 301.013 174.272C301.013 174.272 300.822 174.272 300.822 174.463C300.631 174.654 300.249 174.654 300.057 174.654C300.057 174.654 299.866 174.654 299.866 174.845C299.675 174.845 299.484 174.845 299.293 175.036C299.101 175.036 299.101 175.036 298.91 175.227C298.719 175.227 298.528 175.227 298.337 175.419C298.146 175.419 298.146 175.419 297.954 175.419C297.572 175.419 297.19 175.61 296.807 175.61C296.616 175.61 296.616 175.61 296.425 175.61C296.234 175.61 296.043 175.61 295.851 175.61C295.66 175.61 295.66 175.61 295.469 175.61C295.278 175.61 295.087 175.61 294.895 175.61C294.704 175.61 294.513 175.61 294.513 175.61C294.322 175.61 294.131 175.61 294.131 175.61C293.94 175.61 293.748 175.61 293.748 175.61C293.557 175.61 293.366 175.61 293.366 175.61C293.175 175.61 292.984 175.61 292.984 175.61C292.793 175.61 292.601 175.61 292.41 175.61C292.219 175.61 292.219 175.61 292.028 175.61C291.837 175.61 291.645 175.61 291.454 175.419C291.263 175.419 291.263 175.419 291.072 175.419C290.69 175.227 290.307 175.227 290.116 175.036C289.925 175.036 289.734 174.845 289.734 174.845C289.734 174.845 289.542 174.845 289.542 174.654C288.969 174.081 287.631 173.316 287.439 173.316L287.439 223.769C287.631 223.96 288.778 224.533 289.16 224.724C289.16 224.724 289.351 224.724 289.351 224.915C289.542 224.915 289.542 225.106 289.734 225.106C290.116 225.298 290.307 225.298 290.69 225.489H290.881C291.072 225.489 291.263 225.68 291.454 225.68H291.645H291.837C292.028 225.68 292.219 225.68 292.41 225.68H292.601H292.792C292.984 225.68 293.175 225.68 293.175 225.68H293.366H293.557C293.748 225.68 293.94 225.68 293.94 225.68H294.131H294.322C294.513 225.68 294.704 225.68 294.895 225.68H295.087H295.278C295.469 225.68 295.66 225.68 295.851 225.68H296.043C296.425 225.68 296.807 225.68 297.19 225.489C297.381 225.489 297.381 225.489 297.572 225.489C297.763 225.489 297.954 225.489 298.146 225.298C298.337 225.298 298.337 225.298 298.528 225.106C298.719 225.106 298.91 225.106 299.101 224.915C299.101 224.915 299.101 224.915 299.293 224.915H299.484C299.675 224.915 300.057 224.724 300.249 224.533C300.822 224.724 300.822 224.724 300.822 224.724Z" fill="url(#paint34_linear_862_49503)"/>
<path d="M270.233 175.61L266.601 173.508C265.454 172.935 264.498 173.317 264.498 174.655C264.498 175.992 265.454 177.521 266.601 178.095L270.042 180.197C271.189 180.77 272.145 180.388 272.145 179.05C272.145 177.712 271.381 176.183 270.233 175.61Z" fill="#96AEE5"/>
<path d="M270.233 183.063L266.601 180.961C265.454 180.388 264.498 180.77 264.498 182.108C264.498 183.446 265.454 184.974 266.601 185.548L270.042 187.65C271.189 188.223 272.145 187.841 272.145 186.503C272.145 185.357 271.381 183.828 270.233 183.063Z" fill="#96AEE5"/>
<path d="M270.233 190.708L266.601 188.606C265.454 188.032 264.498 188.415 264.498 189.752C264.498 191.09 265.454 192.619 266.601 193.192L270.042 195.294C271.189 195.868 272.145 195.486 272.145 194.148C272.145 192.81 271.381 191.281 270.233 190.708Z" fill="#40FFC6"/>
<path d="M270.233 198.161L266.601 196.059C265.454 195.485 264.498 195.868 264.498 197.205C264.498 198.543 265.454 200.072 266.601 200.645L270.042 202.748C271.189 203.321 272.145 202.939 272.145 201.601C272.145 200.454 271.381 198.734 270.233 198.161Z" fill="#96AEE5"/>
<path d="M280.366 180.962L276.734 178.86C275.587 178.286 274.631 178.668 274.631 180.006C274.631 181.344 275.587 182.873 276.734 183.446L280.366 185.548C281.513 186.122 282.469 185.739 282.469 184.402C282.469 183.064 281.513 181.535 280.366 180.962Z" fill="#2595FF"/>
<path d="M280.366 188.415L276.734 186.313C275.587 185.739 274.631 186.122 274.631 187.459C274.631 188.797 275.587 190.326 276.734 190.899L280.366 193.001C281.513 193.575 282.469 193.193 282.469 191.855C282.469 190.708 281.513 188.988 280.366 188.415Z" fill="#96AEE5"/>
<path d="M280.366 195.868L276.734 193.766C275.587 193.192 274.631 193.575 274.631 194.912C274.631 196.25 275.587 197.779 276.734 198.352L280.366 200.455C281.513 201.028 282.469 200.646 282.469 199.308C282.469 198.161 281.513 196.632 280.366 195.868Z" fill="#96AEE5"/>
<path d="M280.366 203.513L276.734 201.41C275.587 200.837 274.631 201.219 274.631 202.557C274.631 203.895 275.587 205.424 276.734 205.997L280.366 208.099C281.513 208.672 282.469 208.29 282.469 206.952C282.469 205.806 281.513 204.086 280.366 203.513Z" fill="#96AEE5"/>
<path d="M257.041 190.517L221.29 169.877C220.143 169.304 219.187 169.686 219.187 171.024C219.187 172.362 220.143 173.89 221.29 174.464L257.041 195.103C258.188 195.677 259.144 195.294 259.144 193.957C259.144 192.81 258.188 191.281 257.041 190.517Z" fill="url(#paint35_linear_862_49503)"/>
<path d="M257.041 180.005L221.29 159.365C220.143 158.792 219.187 159.174 219.187 160.512C219.187 161.85 220.143 163.379 221.29 163.952L257.041 184.592C258.188 185.165 259.144 184.783 259.144 183.445C259.144 182.107 258.188 180.578 257.041 180.005Z" fill="url(#paint36_linear_862_49503)"/>
<path d="M257.041 169.304L221.29 148.664C220.143 148.091 219.187 148.473 219.187 149.811C219.187 151.149 220.143 152.677 221.29 153.251L257.041 173.89C258.188 174.464 259.144 174.081 259.144 172.744C259.144 171.406 258.188 169.877 257.041 169.304Z" fill="url(#paint37_linear_862_49503)"/>
<path d="M359.324 181.343L314.396 207.525L314.396 175.801L359.324 149.619L359.324 181.343Z" fill="url(#paint38_linear_862_49503)"/>
</g>
<g clip-path="url(#clip6_862_49503)">
<path d="M170.448 252.023C174.08 254.125 174.272 257.756 170.448 259.858L100.285 300.755C96.6524 302.857 90.5347 302.857 86.9022 300.755L16.1656 259.858C12.5332 257.756 12.342 254.125 16.1656 252.023L86.3287 211.317C89.9611 209.215 96.0789 209.215 99.7113 211.317L170.448 252.023Z" fill="white"/>
<path d="M15.9742 256.801C12.3418 254.699 12.1506 251.068 15.9742 248.966L86.3285 208.069C89.9609 205.967 96.0787 205.967 99.7111 208.069L170.448 248.966C174.08 251.068 174.271 254.699 170.448 256.801L100.285 297.698C96.6522 299.8 90.5345 299.8 86.902 297.698L15.9742 256.801Z" fill="url(#paint39_linear_862_49503)"/>
</g>
<g clip-path="url(#clip7_862_49503)">
<g opacity="0.3" filter="url(#filter5_f_862_49503)">
<path d="M15.9742 256.012C12.3418 253.91 12.1506 250.279 15.9742 248.177L86.3285 207.28C89.9609 205.178 96.0787 205.178 99.7111 207.28L170.448 248.177C174.08 250.279 174.271 253.91 170.448 256.012L100.285 296.909C96.6522 299.011 90.5345 299.011 86.902 296.909L15.9742 256.012Z" fill="#96AEE5"/>
</g>
<path d="M173.316 198.487C173.316 198.678 173.316 198.678 173.316 198.869L173.316 199.061C173.316 199.252 173.316 199.252 173.316 199.443L173.316 199.634C173.316 199.825 173.316 199.825 173.125 200.016C173.125 200.207 172.933 200.207 172.933 200.398C172.933 200.589 172.742 200.589 172.551 200.781C172.36 200.972 172.36 200.972 172.169 201.163C172.169 201.163 171.977 201.354 171.786 201.354L171.595 201.545C171.404 201.545 171.404 201.736 171.213 201.736C171.022 201.736 171.022 201.927 170.83 201.927L100.285 243.015L100.094 293.467L170.448 252.571C170.448 252.571 170.448 252.571 170.639 252.571L170.83 252.379C171.022 252.379 171.022 252.188 171.213 252.188L171.404 251.997C171.595 251.997 171.595 251.806 171.786 251.806C171.977 251.615 171.977 251.615 172.169 251.424L172.36 251.233C172.36 251.233 172.36 251.042 172.551 251.042C172.551 250.851 172.742 250.851 172.742 250.659C172.742 250.468 172.742 250.468 172.933 250.277L172.933 250.086C172.933 250.086 172.933 249.895 172.933 249.704L172.933 249.513C172.933 249.513 172.933 249.322 172.933 249.131L172.933 248.94L173.125 198.487C173.316 198.296 173.316 198.487 173.316 198.487Z" fill="#E4E7FB"/>
<path d="M15.9751 202.119C14.0633 200.972 13.1074 199.634 13.1074 198.105L13.1074 248.558C13.1074 249.895 14.0633 251.424 15.9751 252.571L86.7118 293.468L86.9029 243.016L15.9751 202.119Z" fill="#EFF1FE"/>
<path d="M170.448 194.282C174.08 196.385 174.272 200.016 170.448 202.118L100.285 243.015C96.6524 245.117 90.5347 245.117 86.9022 243.015L16.1656 202.118C12.5332 200.016 12.342 196.385 16.1656 194.282L86.3287 153.577C89.9611 151.474 96.0789 151.474 99.7113 153.577L170.448 194.282Z" fill="white"/>
<path d="M15.9742 199.061C12.3418 196.959 12.1506 193.328 15.9742 191.225L86.3285 150.329C89.9609 148.226 96.0787 148.226 99.7111 150.329L170.448 191.225C174.08 193.328 174.271 196.959 170.448 199.061L100.285 239.958C96.6522 242.06 90.5345 242.06 86.902 239.958L15.9742 199.061Z" fill="url(#paint40_linear_862_49503)"/>
<path d="M55.3576 238.429L19.6069 217.789C18.4598 217.216 17.5039 217.598 17.5039 218.936C17.5039 220.274 18.4598 221.802 19.6069 222.376L55.3576 243.015C56.5047 243.589 57.4606 243.206 57.4606 241.869C57.4606 240.531 56.5047 239.002 55.3576 238.429Z" fill="url(#paint41_linear_862_49503)"/>
<path d="M157.64 250.468L112.713 276.65L112.713 244.926L157.64 218.744L157.64 250.468Z" fill="url(#paint42_linear_862_49503)"/>
<path d="M76.5794 196.003C75.8147 195.62 75.8147 194.856 76.5794 194.283L91.8738 185.492C92.6385 185.11 93.9768 185.11 94.7415 185.492L110.036 194.283C110.801 194.665 110.801 195.429 110.036 196.003L94.7415 204.794C93.9768 205.176 92.6385 205.176 91.8738 204.794L76.5794 196.003Z" fill="url(#paint43_linear_862_49503)"/>
<path d="M93.404 212.629C92.4481 212.629 91.4921 212.438 90.7274 212.056L64.7269 196.958C63.9622 196.576 63.3887 195.811 63.3887 195.047C63.3887 194.283 63.771 193.709 64.7269 193.136L90.5362 178.23C92.0657 177.465 94.551 177.465 95.8893 178.23L121.89 193.136C122.655 193.518 123.228 194.283 123.228 195.047C123.228 195.811 122.846 196.385 121.89 196.958L96.0805 211.864C95.3158 212.438 94.3599 212.629 93.404 212.629ZM93.2128 178.612C92.4481 178.612 91.4921 178.803 91.1098 179.185L65.3005 194.091C64.9181 194.283 64.5358 194.665 64.5358 195.047C64.5358 195.429 64.7269 195.811 65.3005 196.003L91.301 210.909C92.4481 211.482 94.551 211.482 95.6981 210.909L121.507 196.003C121.89 195.811 122.272 195.429 122.272 195.047C122.272 194.665 122.081 194.283 121.507 194.091L95.3158 179.185C94.7422 178.803 93.9775 178.612 93.2128 178.612Z" fill="url(#paint44_linear_862_49503)"/>
</g>
<g clip-path="url(#clip8_862_49503)">
<g opacity="0.3" filter="url(#filter6_f_862_49503)">
<path d="M15.9742 197.459C12.3418 195.357 12.1506 191.726 15.9742 189.624L86.3285 148.727C89.9609 146.625 96.0787 146.625 99.7111 148.727L170.448 189.624C174.08 191.726 174.271 195.357 170.448 197.459L100.285 238.356C96.6522 240.458 90.5345 240.458 86.902 238.356L15.9742 197.459Z" fill="#96AEE5"/>
</g>
<path d="M173.316 139.935C173.316 140.126 173.316 140.126 173.316 140.317L173.316 140.508C173.316 140.699 173.316 140.699 173.316 140.89L173.316 141.081C173.316 141.272 173.316 141.272 173.125 141.463C173.125 141.655 172.933 141.655 172.933 141.846C172.933 142.037 172.742 142.037 172.551 142.228C172.36 142.419 172.36 142.419 172.169 142.61C172.169 142.61 171.977 142.801 171.786 142.801L171.595 142.992C171.404 142.992 171.404 143.183 171.213 143.183C171.022 143.183 171.022 143.374 170.83 143.374L100.285 184.462L100.094 234.915L170.448 194.018C170.448 194.018 170.448 194.018 170.639 194.018L170.83 193.827C171.022 193.827 171.022 193.636 171.213 193.636L171.404 193.445C171.595 193.445 171.595 193.253 171.786 193.253C171.977 193.062 171.977 193.062 172.169 192.871L172.36 192.68C172.36 192.68 172.36 192.489 172.551 192.489C172.551 192.298 172.742 192.298 172.742 192.107C172.742 191.916 172.742 191.916 172.933 191.725L172.933 191.533C172.933 191.533 172.933 191.342 172.933 191.151L172.933 190.96C172.933 190.96 172.933 190.769 172.933 190.578L172.933 190.387L173.125 139.935C173.316 139.743 173.316 139.935 173.316 139.935Z" fill="#E4E7FB"/>
<path d="M15.9751 143.566C14.0633 142.419 13.1074 141.082 13.1074 139.553L13.1074 190.005C13.1074 191.343 14.0633 192.872 15.9751 194.018L86.7118 234.915L86.9029 184.463L15.9751 143.566Z" fill="#EFF1FE"/>
<path d="M170.448 135.73C174.08 137.832 174.272 141.463 170.448 143.565L100.285 184.462C96.6524 186.564 90.5347 186.564 86.9022 184.462L16.1656 143.565C12.5332 141.463 12.342 137.832 16.1656 135.73L86.3287 95.0239C89.9611 92.9217 96.0789 92.9217 99.7113 95.0239L170.448 135.73Z" fill="white"/>
<path d="M15.9742 140.508C12.3418 138.406 12.1506 134.775 15.9742 132.673L86.3285 91.7759C89.9609 89.6737 96.0787 89.6737 99.7111 91.7759L170.448 132.673C174.08 134.775 174.271 138.406 170.448 140.508L100.285 181.405C96.6522 183.507 90.5345 183.507 86.902 181.405L15.9742 140.508Z" fill="url(#paint45_linear_862_49503)"/>
<path d="M99.1385 235.296C99.5208 235.105 100.668 234.532 100.859 234.341L100.859 184.08C100.668 184.271 99.5208 184.844 99.3296 184.844C99.3296 184.844 99.1385 184.844 99.1385 185.035C98.9473 185.226 98.5649 185.226 98.3737 185.226C98.3737 185.226 98.1826 185.226 98.1826 185.418C97.9914 185.418 97.8002 185.418 97.609 185.609C97.4178 185.609 97.4178 185.609 97.2267 185.8C97.0355 185.8 96.8443 185.8 96.6531 185.991C96.4619 185.991 96.4619 185.991 96.2708 185.991C95.8884 185.991 95.506 186.182 95.1237 186.182C94.9325 186.182 94.9325 186.182 94.7413 186.182C94.5501 186.182 94.359 186.182 94.1678 186.182C93.9766 186.182 93.9766 186.182 93.7854 186.182C93.5942 186.182 93.4031 186.182 93.2119 186.182C93.0207 186.182 92.8295 186.182 92.8295 186.182C92.6383 186.182 92.4472 186.182 92.4472 186.182C92.256 186.182 92.0648 186.182 92.0648 186.182C91.8736 186.182 91.6824 186.182 91.6824 186.182C91.4913 186.182 91.3001 186.182 91.3001 186.182C91.1089 186.182 90.9177 186.182 90.7265 186.182C90.5354 186.182 90.5354 186.182 90.3442 186.182C90.153 186.182 89.9618 186.182 89.7706 185.991C89.5795 185.991 89.5795 185.991 89.3883 185.991C89.0059 185.8 88.6236 185.8 88.4324 185.609C88.2412 185.609 88.05 185.418 88.05 185.418C88.05 185.418 87.8588 185.418 87.8588 185.226C87.2853 184.653 85.947 183.889 85.7559 183.889L85.7559 234.341C85.947 234.532 87.0941 235.105 87.4765 235.296C87.4765 235.296 87.6677 235.296 87.6677 235.488C87.8588 235.488 87.8588 235.679 88.05 235.679C88.4324 235.87 88.6236 235.87 89.0059 236.061H89.1971C89.3883 236.061 89.5795 236.252 89.7706 236.252H89.9618H90.153C90.3442 236.252 90.5354 236.252 90.7265 236.252H90.9177H91.1089C91.3001 236.252 91.4913 236.252 91.4913 236.252H91.6824H91.8736C92.0648 236.252 92.256 236.252 92.256 236.252H92.4472H92.6383C92.8295 236.252 93.0207 236.252 93.2119 236.252H93.4031H93.5942C93.7854 236.252 93.9766 236.252 94.1678 236.252H94.359C94.7413 236.252 95.1237 236.252 95.506 236.061C95.6972 236.061 95.6972 236.061 95.8884 236.061C96.0796 236.061 96.2708 236.061 96.4619 235.87C96.6531 235.87 96.6531 235.87 96.8443 235.679C97.0355 235.679 97.2267 235.679 97.4178 235.488C97.4178 235.488 97.4178 235.488 97.609 235.488H97.8002C97.9914 235.488 98.3738 235.296 98.5649 235.105C99.1385 235.296 99.1385 235.296 99.1385 235.296Z" fill="url(#paint46_linear_862_49503)"/>
<path d="M68.5499 186.182L64.9174 184.08C63.7704 183.507 62.8145 183.889 62.8145 185.227C62.8145 186.565 63.7704 188.094 64.9174 188.667L68.3587 190.769C69.5058 191.342 70.4617 190.96 70.4617 189.622C70.4617 188.285 69.6969 186.756 68.5499 186.182Z" fill="#96AEE5"/>
<path d="M68.5499 193.636L64.9174 191.533C63.7704 190.96 62.8145 191.342 62.8145 192.68C62.8145 194.018 63.7704 195.547 64.9174 196.12L68.3587 198.222C69.5058 198.795 70.4617 198.413 70.4617 197.075C70.4617 195.929 69.6969 194.4 68.5499 193.636Z" fill="#96AEE5"/>
<path d="M68.5499 201.28L64.9174 199.178C63.7704 198.605 62.8145 198.987 62.8145 200.325C62.8145 201.662 63.7704 203.191 64.9174 203.764L68.3587 205.867C69.5058 206.44 70.4617 206.058 70.4617 204.72C70.4617 203.382 69.6969 201.853 68.5499 201.28Z" fill="#40FFC6"/>
<path d="M68.5499 208.733L64.9174 206.631C63.7704 206.058 62.8145 206.44 62.8145 207.778C62.8145 209.115 63.7704 210.644 64.9174 211.218L68.3587 213.32C69.5058 213.893 70.4617 213.511 70.4617 212.173C70.4617 211.026 69.6969 209.307 68.5499 208.733Z" fill="#96AEE5"/>
<path d="M78.6827 191.534L75.0503 189.432C73.9032 188.859 72.9473 189.241 72.9473 190.578C72.9473 191.916 73.9032 193.445 75.0503 194.018L78.6827 196.121C79.8298 196.694 80.7857 196.312 80.7857 194.974C80.7857 193.636 79.8298 192.107 78.6827 191.534Z" fill="#2595FF"/>
<path d="M78.6827 198.987L75.0503 196.885C73.9032 196.312 72.9473 196.694 72.9473 198.032C72.9473 199.369 73.9032 200.898 75.0503 201.472L78.6827 203.574C79.8298 204.147 80.7857 203.765 80.7857 202.427C80.7857 201.28 79.8298 199.56 78.6827 198.987Z" fill="#96AEE5"/>
<path d="M78.6827 206.44L75.0503 204.338C73.9032 203.765 72.9473 204.147 72.9473 205.485C72.9473 206.822 73.9032 208.351 75.0503 208.925L78.6827 211.027C79.8298 211.6 80.7857 211.218 80.7857 209.88C80.7857 208.734 79.8298 207.205 78.6827 206.44Z" fill="#96AEE5"/>
<path d="M78.6827 214.085L75.0503 211.983C73.9032 211.409 72.9473 211.792 72.9473 213.129C72.9473 214.467 73.9032 215.996 75.0503 216.569L78.6827 218.671C79.8298 219.245 80.7857 218.862 80.7857 217.525C80.7857 216.378 79.8298 214.658 78.6827 214.085Z" fill="#96AEE5"/>
<path d="M55.3576 201.089L19.6069 180.449C18.4598 179.876 17.5039 180.258 17.5039 181.596C17.5039 182.934 18.4598 184.463 19.6069 185.036L55.3576 205.676C56.5047 206.249 57.4606 205.867 57.4606 204.529C57.4606 203.382 56.5047 201.853 55.3576 201.089Z" fill="url(#paint47_linear_862_49503)"/>
<path d="M55.3576 190.577L19.6069 169.938C18.4598 169.364 17.5039 169.747 17.5039 171.084C17.5039 172.422 18.4598 173.951 19.6069 174.524L55.3576 195.164C56.5047 195.737 57.4606 195.355 57.4606 194.017C57.4606 192.679 56.5047 191.151 55.3576 190.577Z" fill="url(#paint48_linear_862_49503)"/>
<path d="M55.3576 179.876L19.6069 159.237C18.4598 158.663 17.5039 159.045 17.5039 160.383C17.5039 161.721 18.4598 163.25 19.6069 163.823L55.3576 184.463C56.5047 185.036 57.4606 184.654 57.4606 183.316C57.4606 181.978 56.5047 180.449 55.3576 179.876Z" fill="url(#paint49_linear_862_49503)"/>
<path d="M157.64 191.915L112.713 218.097L112.713 186.373L157.64 160.191L157.64 191.915Z" fill="url(#paint50_linear_862_49503)"/>
<path d="M91.2984 140.02L109.224 129.67C112.948 127.52 119.075 127.486 122.867 129.675L98.124 143.96L91.2984 140.02Z" fill="url(#paint51_linear_862_49503)"/>
<path fill-rule="evenodd" clip-rule="evenodd" d="M98.5028 143.743C105.698 139.589 105.691 132.879 98.486 128.72C91.2812 124.56 79.6599 124.556 72.4643 128.71C65.2688 132.864 65.2762 139.574 72.4811 143.734C79.6859 147.893 91.3073 147.898 98.5028 143.743ZM91.4876 139.693C94.7698 137.798 94.7663 134.735 91.4799 132.838C88.1935 130.94 82.8249 130.902 79.5427 132.797C76.2606 134.692 76.264 137.755 79.5504 139.652C82.8368 141.55 88.2054 141.588 91.4876 139.693Z" fill="url(#paint52_radial_862_49503)"/>
</g>
<g clip-path="url(#clip9_862_49503)">
<path d="M267.223 247.956C270.856 250.058 271.047 253.689 267.223 255.792L197.06 296.689C193.428 298.791 187.31 298.791 183.678 296.689L112.941 255.792C109.309 253.689 109.117 250.058 112.941 247.956L183.104 207.25C186.737 205.148 192.854 205.148 196.487 207.25L267.223 247.956Z" fill="white"/>
<path d="M112.75 252.735C109.117 250.633 108.926 247.001 112.75 244.899L183.104 204.002C186.736 201.9 192.854 201.9 196.487 204.002L267.223 244.899C270.856 247.001 271.047 250.633 267.223 252.735L197.06 293.632C193.428 295.734 187.31 295.734 183.677 293.632L112.75 252.735Z" fill="url(#paint53_linear_862_49503)"/>
</g>
<g clip-path="url(#clip10_862_49503)">
<g opacity="0.3" filter="url(#filter7_f_862_49503)">
<path d="M112.75 251.133C109.117 249.031 108.926 245.4 112.75 243.298L183.104 202.401C186.736 200.299 192.854 200.299 196.487 202.401L267.223 243.298C270.856 245.4 271.047 249.031 267.223 251.133L197.06 292.03C193.428 294.132 187.31 294.132 183.677 292.03L112.75 251.133Z" fill="#96AEE5"/>
</g>
<path d="M270.091 193.608C270.091 193.799 270.091 193.799 270.091 193.991L270.091 194.182C270.091 194.373 270.091 194.373 270.091 194.564L270.091 194.755C270.091 194.946 270.091 194.946 269.9 195.137C269.9 195.328 269.709 195.328 269.709 195.519C269.709 195.711 269.518 195.711 269.326 195.902C269.135 196.093 269.135 196.093 268.944 196.284C268.944 196.284 268.753 196.475 268.562 196.475L268.371 196.666C268.179 196.666 268.179 196.857 267.988 196.857C267.797 196.857 267.797 197.048 267.606 197.048L197.06 238.136L196.869 288.589L267.223 247.692C267.223 247.692 267.223 247.692 267.415 247.692L267.606 247.501C267.797 247.501 267.797 247.309 267.988 247.309L268.179 247.118C268.371 247.118 268.371 246.927 268.562 246.927C268.753 246.736 268.753 246.736 268.944 246.545L269.135 246.354C269.135 246.354 269.135 246.163 269.326 246.163C269.326 245.972 269.518 245.972 269.518 245.781C269.518 245.589 269.518 245.589 269.709 245.398L269.709 245.207C269.709 245.207 269.709 245.016 269.709 244.825L269.709 244.634C269.709 244.634 269.709 244.443 269.709 244.252L269.709 244.061L269.9 193.608C270.091 193.417 270.091 193.608 270.091 193.608Z" fill="#E4E7FB"/>
<path d="M112.751 197.24C110.839 196.093 109.883 194.755 109.883 193.227L109.883 243.679C109.883 245.017 110.839 246.545 112.751 247.692L183.487 288.589L183.678 238.137L112.751 197.24Z" fill="#EFF1FE"/>
<path d="M267.223 189.404C270.856 191.506 271.047 195.137 267.223 197.239L197.06 238.136C193.428 240.238 187.31 240.238 183.678 238.136L112.941 197.239C109.309 195.137 109.117 191.506 112.941 189.404L183.104 148.698C186.737 146.596 192.854 146.596 196.487 148.698L267.223 189.404Z" fill="white"/>
<path d="M112.75 194.182C109.117 192.08 108.926 188.449 112.75 186.347L183.104 145.45C186.736 143.348 192.854 143.348 196.487 145.45L267.223 186.347C270.856 188.449 271.047 192.08 267.223 194.182L197.06 235.079C193.428 237.181 187.31 237.181 183.677 235.079L112.75 194.182Z" fill="url(#paint54_linear_862_49503)"/>
<path d="M152.133 244.251L116.382 223.612C115.235 223.038 114.279 223.42 114.279 224.758C114.279 226.096 115.235 227.625 116.382 228.198L152.133 248.838C153.28 249.411 154.236 249.029 154.236 247.691C154.236 246.353 153.28 244.824 152.133 244.251Z" fill="url(#paint55_linear_862_49503)"/>
<path d="M152.133 233.55L116.382 212.91C115.235 212.337 114.279 212.719 114.279 214.057C114.279 215.395 115.235 216.924 116.382 217.497L152.133 238.136C153.28 238.71 154.236 238.328 154.236 236.99C154.236 235.652 153.28 234.123 152.133 233.55Z" fill="url(#paint56_linear_862_49503)"/>
<path d="M254.416 245.589L209.488 271.771L209.488 240.047L254.416 213.865L254.416 245.589Z" fill="url(#paint57_linear_862_49503)"/>
<path d="M188.074 193.693L206 183.344C209.724 181.194 215.85 181.16 219.642 183.349L194.899 197.634L188.074 193.693Z" fill="url(#paint58_linear_862_49503)"/>
<path fill-rule="evenodd" clip-rule="evenodd" d="M195.278 197.417C202.474 193.263 202.466 186.553 195.261 182.394C188.057 178.234 176.435 178.23 169.24 182.384C162.044 186.538 162.052 193.248 169.256 197.408C176.461 201.567 188.083 201.572 195.278 197.417ZM188.263 193.367C191.545 191.472 191.542 188.409 188.255 186.512C184.969 184.614 179.6 184.576 176.318 186.471C173.036 188.366 173.039 191.429 176.326 193.326C179.612 195.224 184.981 195.262 188.263 193.367Z" fill="url(#paint59_radial_862_49503)"/>
</g>
</g>
<defs>
<filter id="filter0_f_862_49503" x="114.086" y="195.197" width="168.066" height="100.782" filterUnits="userSpaceOnUse" color-interpolation-filters="sRGB">
<feFlood flood-opacity="0" result="BackgroundImageFix"/>
<feBlend mode="normal" in="SourceGraphic" in2="BackgroundImageFix" result="shape"/>
<feGaussianBlur stdDeviation="2" result="effect1_foregroundBlur_862_49503"/>
</filter>
<filter id="filter1_f_862_49503" x="114.086" y="137.457" width="168.066" height="100.782" filterUnits="userSpaceOnUse" color-interpolation-filters="sRGB">
<feFlood flood-opacity="0" result="BackgroundImageFix"/>
<feBlend mode="normal" in="SourceGraphic" in2="BackgroundImageFix" result="shape"/>
<feGaussianBlur stdDeviation="2" result="effect1_foregroundBlur_862_49503"/>
</filter>
<filter id="filter2_f_862_49503" x="114.086" y="78.9043" width="168.066" height="100.782" filterUnits="userSpaceOnUse" color-interpolation-filters="sRGB">
<feFlood flood-opacity="0" result="BackgroundImageFix"/>
<feBlend mode="normal" in="SourceGraphic" in2="BackgroundImageFix" result="shape"/>
<feGaussianBlur stdDeviation="2" result="effect1_foregroundBlur_862_49503"/>
</filter>
<filter id="filter3_f_862_49503" x="210.861" y="191.131" width="168.066" height="100.782" filterUnits="userSpaceOnUse" color-interpolation-filters="sRGB">
<feFlood flood-opacity="0" result="BackgroundImageFix"/>
<feBlend mode="normal" in="SourceGraphic" in2="BackgroundImageFix" result="shape"/>
<feGaussianBlur stdDeviation="2" result="effect1_foregroundBlur_862_49503"/>
</filter>
<filter id="filter4_f_862_49503" x="210.861" y="132.578" width="168.066" height="100.782" filterUnits="userSpaceOnUse" color-interpolation-filters="sRGB">
<feFlood flood-opacity="0" result="BackgroundImageFix"/>
<feBlend mode="normal" in="SourceGraphic" in2="BackgroundImageFix" result="shape"/>
<feGaussianBlur stdDeviation="2" result="effect1_foregroundBlur_862_49503"/>
</filter>
<filter id="filter5_f_862_49503" x="9.17773" y="201.703" width="168.066" height="100.782" filterUnits="userSpaceOnUse" color-interpolation-filters="sRGB">
<feFlood flood-opacity="0" result="BackgroundImageFix"/>
<feBlend mode="normal" in="SourceGraphic" in2="BackgroundImageFix" result="shape"/>
<feGaussianBlur stdDeviation="2" result="effect1_foregroundBlur_862_49503"/>
</filter>
<filter id="filter6_f_862_49503" x="9.17773" y="143.15" width="168.066" height="100.782" filterUnits="userSpaceOnUse" color-interpolation-filters="sRGB">
<feFlood flood-opacity="0" result="BackgroundImageFix"/>
<feBlend mode="normal" in="SourceGraphic" in2="BackgroundImageFix" result="shape"/>
<feGaussianBlur stdDeviation="2" result="effect1_foregroundBlur_862_49503"/>
</filter>
<filter id="filter7_f_862_49503" x="105.953" y="196.824" width="168.066" height="100.782" filterUnits="userSpaceOnUse" color-interpolation-filters="sRGB">
<feFlood flood-opacity="0" result="BackgroundImageFix"/>
<feBlend mode="normal" in="SourceGraphic" in2="BackgroundImageFix" result="shape"/>
<feGaussianBlur stdDeviation="2" result="effect1_foregroundBlur_862_49503"/>
</filter>
<linearGradient id="paint0_linear_862_49503" x1="446.5" y1="256" x2="-48.5742" y2="142.622" gradientUnits="userSpaceOnUse">
<stop stop-color="#3EFCC9"/>
<stop offset="0.4875" stop-color="#38EDFF"/>
<stop offset="1" stop-color="#23A9FF"/>
</linearGradient>
<linearGradient id="paint1_linear_862_49503" x1="198.19" y1="234.968" x2="198.19" y2="142.294" gradientUnits="userSpaceOnUse">
<stop stop-color="#F1F4FE"/>
<stop offset="0.5797" stop-color="#F7F9FE"/>
<stop offset="1" stop-color="white"/>
</linearGradient>
<linearGradient id="paint2_linear_862_49503" x1="122.477" y1="234.619" x2="162.278" y2="234.619" gradientUnits="userSpaceOnUse">
<stop stop-color="#48FAC9"/>
<stop offset="0.505208" stop-color="#4AE6FF"/>
<stop offset="1" stop-color="#2595FF"/>
</linearGradient>
<linearGradient id="paint3_linear_862_49503" x1="122.477" y1="223.918" x2="162.278" y2="223.918" gradientUnits="userSpaceOnUse">
<stop stop-color="#48FAC9"/>
<stop offset="0.505208" stop-color="#4AE6FF"/>
<stop offset="1" stop-color="#2595FF"/>
</linearGradient>
<linearGradient id="paint4_linear_862_49503" x1="200.967" y1="214.265" x2="262.446" y2="241.24" gradientUnits="userSpaceOnUse">
<stop stop-color="#48FAC9"/>
<stop offset="0.505208" stop-color="#4AE6FF"/>
<stop offset="1" stop-color="#2595FF"/>
</linearGradient>
<linearGradient id="paint5_linear_862_49503" x1="166.404" y1="178.889" x2="215.439" y2="188.653" gradientUnits="userSpaceOnUse">
<stop stop-color="#48FAC9"/>
<stop offset="0.505208" stop-color="#4AE6FF"/>
<stop offset="1" stop-color="#2595FF"/>
</linearGradient>
<linearGradient id="paint6_linear_862_49503" x1="168.394" y1="188.666" x2="228" y2="188.666" gradientUnits="userSpaceOnUse">
<stop stop-color="#48FAC9"/>
<stop offset="0.505208" stop-color="#4AE6FF"/>
<stop offset="1" stop-color="#2595FF"/>
</linearGradient>
<linearGradient id="paint7_linear_862_49503" x1="198.19" y1="177.227" x2="198.19" y2="84.5536" gradientUnits="userSpaceOnUse">
<stop stop-color="#F1F4FE"/>
<stop offset="0.5797" stop-color="#F7F9FE"/>
<stop offset="1" stop-color="white"/>
</linearGradient>
<linearGradient id="paint8_linear_862_49503" x1="190.632" y1="204.411" x2="205.862" y2="204.411" gradientUnits="userSpaceOnUse">
<stop stop-color="#EFF1FE"/>
<stop offset="1" stop-color="#E4E7FB"/>
</linearGradient>
<linearGradient id="paint9_linear_862_49503" x1="122.477" y1="187.391" x2="162.278" y2="187.391" gradientUnits="userSpaceOnUse">
<stop stop-color="#48FAC9"/>
<stop offset="0.505208" stop-color="#4AE6FF"/>
<stop offset="1" stop-color="#2595FF"/>
</linearGradient>
<linearGradient id="paint10_linear_862_49503" x1="122.477" y1="176.879" x2="162.278" y2="176.879" gradientUnits="userSpaceOnUse">
<stop stop-color="#48FAC9"/>
<stop offset="0.505208" stop-color="#4AE6FF"/>
<stop offset="1" stop-color="#2595FF"/>
</linearGradient>
<linearGradient id="paint11_linear_862_49503" x1="122.477" y1="166.178" x2="162.278" y2="166.178" gradientUnits="userSpaceOnUse">
<stop stop-color="#48FAC9"/>
<stop offset="0.505208" stop-color="#4AE6FF"/>
<stop offset="1" stop-color="#2595FF"/>
</linearGradient>
<linearGradient id="paint12_linear_862_49503" x1="200.967" y1="156.525" x2="262.446" y2="183.499" gradientUnits="userSpaceOnUse">
<stop stop-color="#48FAC9"/>
<stop offset="0.505208" stop-color="#4AE6FF"/>
<stop offset="1" stop-color="#2595FF"/>
</linearGradient>
<linearGradient id="paint13_linear_862_49503" x1="166.404" y1="121.149" x2="215.439" y2="130.913" gradientUnits="userSpaceOnUse">
<stop stop-color="#48FAC9"/>
<stop offset="0.505208" stop-color="#4AE6FF"/>
<stop offset="1" stop-color="#2595FF"/>
</linearGradient>
<linearGradient id="paint14_linear_862_49503" x1="168.394" y1="130.926" x2="228" y2="130.926" gradientUnits="userSpaceOnUse">
<stop stop-color="#48FAC9"/>
<stop offset="0.505208" stop-color="#4AE6FF"/>
<stop offset="1" stop-color="#2595FF"/>
</linearGradient>
<linearGradient id="paint15_linear_862_49503" x1="198.19" y1="118.675" x2="198.19" y2="26.0009" gradientUnits="userSpaceOnUse">
<stop stop-color="#F1F4FE"/>
<stop offset="0.5797" stop-color="#F7F9FE"/>
<stop offset="1" stop-color="white"/>
</linearGradient>
<linearGradient id="paint16_linear_862_49503" x1="190.632" y1="145.858" x2="205.862" y2="145.858" gradientUnits="userSpaceOnUse">
<stop stop-color="#EFF1FE"/>
<stop offset="1" stop-color="#E4E7FB"/>
</linearGradient>
<linearGradient id="paint17_linear_862_49503" x1="122.477" y1="128.838" x2="162.278" y2="128.838" gradientUnits="userSpaceOnUse">
<stop stop-color="#48FAC9"/>
<stop offset="0.505208" stop-color="#4AE6FF"/>
<stop offset="1" stop-color="#2595FF"/>
</linearGradient>
<linearGradient id="paint18_linear_862_49503" x1="122.477" y1="118.326" x2="162.278" y2="118.326" gradientUnits="userSpaceOnUse">
<stop stop-color="#48FAC9"/>
<stop offset="0.505208" stop-color="#4AE6FF"/>
<stop offset="1" stop-color="#2595FF"/>
</linearGradient>
<linearGradient id="paint19_linear_862_49503" x1="122.477" y1="107.625" x2="162.278" y2="107.625" gradientUnits="userSpaceOnUse">
<stop stop-color="#48FAC9"/>
<stop offset="0.505208" stop-color="#4AE6FF"/>
<stop offset="1" stop-color="#2595FF"/>
</linearGradient>
<linearGradient id="paint20_linear_862_49503" x1="200.967" y1="97.9721" x2="262.446" y2="124.947" gradientUnits="userSpaceOnUse">
<stop stop-color="#48FAC9"/>
<stop offset="0.505208" stop-color="#4AE6FF"/>
<stop offset="1" stop-color="#2595FF"/>
</linearGradient>
<linearGradient id="paint21_linear_862_49503" x1="199.63" y1="77.7256" x2="210.544" y2="58.8215" gradientUnits="userSpaceOnUse">
<stop offset="0.2862" stop-color="#2499FF"/>
<stop offset="1" stop-color="#05D6FF"/>
</linearGradient>
<radialGradient id="paint22_radial_862_49503" cx="0" cy="0" r="1" gradientUnits="userSpaceOnUse" gradientTransform="translate(195.874 60.1316) rotate(86.5184) scale(15.892 25.8994)">
<stop stop-color="#00FFB3"/>
<stop offset="1" stop-color="#2499FF"/>
</radialGradient>
<linearGradient id="paint23_linear_862_49503" x1="294.965" y1="288.641" x2="294.965" y2="195.968" gradientUnits="userSpaceOnUse">
<stop stop-color="#F1F4FE"/>
<stop offset="0.5797" stop-color="#F7F9FE"/>
<stop offset="1" stop-color="white"/>
</linearGradient>
<linearGradient id="paint24_linear_862_49503" x1="265.17" y1="242.34" x2="324.775" y2="242.34" gradientUnits="userSpaceOnUse">
<stop stop-color="#48FAC9"/>
<stop offset="0.505208" stop-color="#4AE6FF"/>
<stop offset="1" stop-color="#2595FF"/>
</linearGradient>
<linearGradient id="paint25_linear_862_49503" x1="294.965" y1="230.901" x2="294.965" y2="138.227" gradientUnits="userSpaceOnUse">
<stop stop-color="#F1F4FE"/>
<stop offset="0.5797" stop-color="#F7F9FE"/>
<stop offset="1" stop-color="white"/>
</linearGradient>
<linearGradient id="paint26_linear_862_49503" x1="219.253" y1="230.553" x2="259.053" y2="230.553" gradientUnits="userSpaceOnUse">
<stop stop-color="#48FAC9"/>
<stop offset="0.505208" stop-color="#4AE6FF"/>
<stop offset="1" stop-color="#2595FF"/>
</linearGradient>
<linearGradient id="paint27_linear_862_49503" x1="219.253" y1="219.852" x2="259.053" y2="219.852" gradientUnits="userSpaceOnUse">
<stop stop-color="#48FAC9"/>
<stop offset="0.505208" stop-color="#4AE6FF"/>
<stop offset="1" stop-color="#2595FF"/>
</linearGradient>
<linearGradient id="paint28_linear_862_49503" x1="297.742" y1="210.199" x2="359.221" y2="237.173" gradientUnits="userSpaceOnUse">
<stop stop-color="#48FAC9"/>
<stop offset="0.505208" stop-color="#4AE6FF"/>
<stop offset="1" stop-color="#2595FF"/>
</linearGradient>
<linearGradient id="paint29_linear_862_49503" x1="263.179" y1="174.823" x2="312.214" y2="184.587" gradientUnits="userSpaceOnUse">
<stop stop-color="#48FAC9"/>
<stop offset="0.505208" stop-color="#4AE6FF"/>
<stop offset="1" stop-color="#2595FF"/>
</linearGradient>
<linearGradient id="paint30_linear_862_49503" x1="265.17" y1="184.6" x2="324.775" y2="184.6" gradientUnits="userSpaceOnUse">
<stop stop-color="#48FAC9"/>
<stop offset="0.505208" stop-color="#4AE6FF"/>
<stop offset="1" stop-color="#2595FF"/>
</linearGradient>
<linearGradient id="paint31_linear_862_49503" x1="294.965" y1="172.348" x2="294.965" y2="79.6747" gradientUnits="userSpaceOnUse">
<stop stop-color="#F1F4FE"/>
<stop offset="0.5797" stop-color="#F7F9FE"/>
<stop offset="1" stop-color="white"/>
</linearGradient>
<linearGradient id="paint32_linear_862_49503" x1="296.405" y1="131.401" x2="307.32" y2="112.497" gradientUnits="userSpaceOnUse">
<stop offset="0.2862" stop-color="#2499FF"/>
<stop offset="1" stop-color="#05D6FF"/>
</linearGradient>
<radialGradient id="paint33_radial_862_49503" cx="0" cy="0" r="1" gradientUnits="userSpaceOnUse" gradientTransform="translate(292.649 113.807) rotate(86.5184) scale(15.892 25.8994)">
<stop stop-color="#00FFB3"/>
<stop offset="1" stop-color="#2499FF"/>
</radialGradient>
<linearGradient id="paint34_linear_862_49503" x1="287.408" y1="199.532" x2="302.638" y2="199.532" gradientUnits="userSpaceOnUse">
<stop stop-color="#EFF1FE"/>
<stop offset="1" stop-color="#E4E7FB"/>
</linearGradient>
<linearGradient id="paint35_linear_862_49503" x1="219.253" y1="182.512" x2="259.053" y2="182.512" gradientUnits="userSpaceOnUse">
<stop stop-color="#48FAC9"/>
<stop offset="0.505208" stop-color="#4AE6FF"/>
<stop offset="1" stop-color="#2595FF"/>
</linearGradient>
<linearGradient id="paint36_linear_862_49503" x1="219.253" y1="172" x2="259.053" y2="172" gradientUnits="userSpaceOnUse">
<stop stop-color="#48FAC9"/>
<stop offset="0.505208" stop-color="#4AE6FF"/>
<stop offset="1" stop-color="#2595FF"/>
</linearGradient>
<linearGradient id="paint37_linear_862_49503" x1="219.253" y1="161.299" x2="259.053" y2="161.299" gradientUnits="userSpaceOnUse">
<stop stop-color="#48FAC9"/>
<stop offset="0.505208" stop-color="#4AE6FF"/>
<stop offset="1" stop-color="#2595FF"/>
</linearGradient>
<linearGradient id="paint38_linear_862_49503" x1="297.742" y1="151.646" x2="359.221" y2="178.62" gradientUnits="userSpaceOnUse">
<stop stop-color="#48FAC9"/>
<stop offset="0.505208" stop-color="#4AE6FF"/>
<stop offset="1" stop-color="#2595FF"/>
</linearGradient>
<linearGradient id="paint39_linear_862_49503" x1="93.2817" y1="299.214" x2="93.2817" y2="206.54" gradientUnits="userSpaceOnUse">
<stop stop-color="#F1F4FE"/>
<stop offset="0.5797" stop-color="#F7F9FE"/>
<stop offset="1" stop-color="white"/>
</linearGradient>
<linearGradient id="paint40_linear_862_49503" x1="93.2817" y1="241.473" x2="93.2817" y2="148.8" gradientUnits="userSpaceOnUse">
<stop stop-color="#F1F4FE"/>
<stop offset="0.5797" stop-color="#F7F9FE"/>
<stop offset="1" stop-color="white"/>
</linearGradient>
<linearGradient id="paint41_linear_862_49503" x1="17.5689" y1="230.424" x2="57.3696" y2="230.424" gradientUnits="userSpaceOnUse">
<stop stop-color="#48FAC9"/>
<stop offset="0.505208" stop-color="#4AE6FF"/>
<stop offset="1" stop-color="#2595FF"/>
</linearGradient>
<linearGradient id="paint42_linear_862_49503" x1="96.0589" y1="220.771" x2="157.538" y2="247.745" gradientUnits="userSpaceOnUse">
<stop stop-color="#48FAC9"/>
<stop offset="0.505208" stop-color="#4AE6FF"/>
<stop offset="1" stop-color="#2595FF"/>
</linearGradient>
<linearGradient id="paint43_linear_862_49503" x1="61.4957" y1="185.395" x2="110.531" y2="195.159" gradientUnits="userSpaceOnUse">
<stop stop-color="#48FAC9"/>
<stop offset="0.505208" stop-color="#4AE6FF"/>
<stop offset="1" stop-color="#2595FF"/>
</linearGradient>
<linearGradient id="paint44_linear_862_49503" x1="63.486" y1="195.172" x2="123.092" y2="195.172" gradientUnits="userSpaceOnUse">
<stop stop-color="#48FAC9"/>
<stop offset="0.505208" stop-color="#4AE6FF"/>
<stop offset="1" stop-color="#2595FF"/>
</linearGradient>
<linearGradient id="paint45_linear_862_49503" x1="93.2817" y1="182.921" x2="93.2817" y2="90.247" gradientUnits="userSpaceOnUse">
<stop stop-color="#F1F4FE"/>
<stop offset="0.5797" stop-color="#F7F9FE"/>
<stop offset="1" stop-color="white"/>
</linearGradient>
<linearGradient id="paint46_linear_862_49503" x1="85.724" y1="210.105" x2="100.954" y2="210.105" gradientUnits="userSpaceOnUse">
<stop stop-color="#EFF1FE"/>
<stop offset="1" stop-color="#E4E7FB"/>
</linearGradient>
<linearGradient id="paint47_linear_862_49503" x1="17.5689" y1="193.084" x2="57.3696" y2="193.084" gradientUnits="userSpaceOnUse">
<stop stop-color="#48FAC9"/>
<stop offset="0.505208" stop-color="#4AE6FF"/>
<stop offset="1" stop-color="#2595FF"/>
</linearGradient>
<linearGradient id="paint48_linear_862_49503" x1="17.5689" y1="182.572" x2="57.3696" y2="182.572" gradientUnits="userSpaceOnUse">
<stop stop-color="#48FAC9"/>
<stop offset="0.505208" stop-color="#4AE6FF"/>
<stop offset="1" stop-color="#2595FF"/>
</linearGradient>
<linearGradient id="paint49_linear_862_49503" x1="17.5689" y1="171.871" x2="57.3696" y2="171.871" gradientUnits="userSpaceOnUse">
<stop stop-color="#48FAC9"/>
<stop offset="0.505208" stop-color="#4AE6FF"/>
<stop offset="1" stop-color="#2595FF"/>
</linearGradient>
<linearGradient id="paint50_linear_862_49503" x1="96.0589" y1="162.218" x2="157.538" y2="189.193" gradientUnits="userSpaceOnUse">
<stop stop-color="#48FAC9"/>
<stop offset="0.505208" stop-color="#4AE6FF"/>
<stop offset="1" stop-color="#2595FF"/>
</linearGradient>
<linearGradient id="paint51_linear_862_49503" x1="94.7218" y1="141.972" x2="105.636" y2="123.068" gradientUnits="userSpaceOnUse">
<stop offset="0.2862" stop-color="#2499FF"/>
<stop offset="1" stop-color="#05D6FF"/>
</linearGradient>
<radialGradient id="paint52_radial_862_49503" cx="0" cy="0" r="1" gradientUnits="userSpaceOnUse" gradientTransform="translate(90.9653 124.378) rotate(86.5184) scale(15.892 25.8994)">
<stop stop-color="#00FFB3"/>
<stop offset="1" stop-color="#2499FF"/>
</radialGradient>
<linearGradient id="paint53_linear_862_49503" x1="190.057" y1="295.147" x2="190.057" y2="202.474" gradientUnits="userSpaceOnUse">
<stop stop-color="#F1F4FE"/>
<stop offset="0.5797" stop-color="#F7F9FE"/>
<stop offset="1" stop-color="white"/>
</linearGradient>
<linearGradient id="paint54_linear_862_49503" x1="190.057" y1="236.595" x2="190.057" y2="143.921" gradientUnits="userSpaceOnUse">
<stop stop-color="#F1F4FE"/>
<stop offset="0.5797" stop-color="#F7F9FE"/>
<stop offset="1" stop-color="white"/>
</linearGradient>
<linearGradient id="paint55_linear_862_49503" x1="114.344" y1="236.246" x2="154.145" y2="236.246" gradientUnits="userSpaceOnUse">
<stop stop-color="#48FAC9"/>
<stop offset="0.505208" stop-color="#4AE6FF"/>
<stop offset="1" stop-color="#2595FF"/>
</linearGradient>
<linearGradient id="paint56_linear_862_49503" x1="114.344" y1="225.545" x2="154.145" y2="225.545" gradientUnits="userSpaceOnUse">
<stop stop-color="#48FAC9"/>
<stop offset="0.505208" stop-color="#4AE6FF"/>
<stop offset="1" stop-color="#2595FF"/>
</linearGradient>
<linearGradient id="paint57_linear_862_49503" x1="192.834" y1="215.892" x2="254.313" y2="242.867" gradientUnits="userSpaceOnUse">
<stop stop-color="#48FAC9"/>
<stop offset="0.505208" stop-color="#4AE6FF"/>
<stop offset="1" stop-color="#2595FF"/>
</linearGradient>
<linearGradient id="paint58_linear_862_49503" x1="191.497" y1="195.646" x2="202.411" y2="176.741" gradientUnits="userSpaceOnUse">
<stop offset="0.2862" stop-color="#2499FF"/>
<stop offset="1" stop-color="#05D6FF"/>
</linearGradient>
<radialGradient id="paint59_radial_862_49503" cx="0" cy="0" r="1" gradientUnits="userSpaceOnUse" gradientTransform="translate(187.741 178.052) rotate(86.5184) scale(15.892 25.8994)">
<stop stop-color="#00FFB3"/>
<stop offset="1" stop-color="#2499FF"/>
</radialGradient>
<clipPath id="clip0_862_49503">
<rect width="160.209" height="154.516" fill="white" transform="translate(118.016 142.293)"/>
</clipPath>
<clipPath id="clip1_862_49503">
<rect width="160.209" height="154.516" fill="white" transform="translate(118.016 84.5527)"/>
</clipPath>
<clipPath id="clip2_862_49503">
<rect width="160.209" height="154.516" fill="white" transform="translate(118.016 26)"/>
</clipPath>
<clipPath id="clip3_862_49503">
<rect width="160.209" height="154.516" fill="white" transform="translate(214.791 195.967)"/>
</clipPath>
<clipPath id="clip4_862_49503">
<rect width="160.209" height="154.516" fill="white" transform="translate(214.791 138.227)"/>
</clipPath>
<clipPath id="clip5_862_49503">
<rect width="160.209" height="154.516" fill="white" transform="translate(214.791 79.6738)"/>
</clipPath>
<clipPath id="clip6_862_49503">
<rect width="160.209" height="154.516" fill="white" transform="translate(13.1074 206.539)"/>
</clipPath>
<clipPath id="clip7_862_49503">
<rect width="160.209" height="154.516" fill="white" transform="translate(13.1074 148.799)"/>
</clipPath>
<clipPath id="clip8_862_49503">
<rect width="160.209" height="154.516" fill="white" transform="translate(13.1074 90.2461)"/>
</clipPath>
<clipPath id="clip9_862_49503">
<rect width="160.209" height="154.516" fill="white" transform="translate(109.883 202.473)"/>
</clipPath>
<clipPath id="clip10_862_49503">
<rect width="160.209" height="154.516" fill="white" transform="translate(109.883 143.92)"/>
</clipPath>
</defs>
</svg>
