<svg width="375" height="227" viewBox="0 0 375 227" fill="none" xmlns="http://www.w3.org/2000/svg">
<rect width="375" height="227" fill="#2595FF"/>
<mask id="mask0_862_50103" style="mask-type:alpha" maskUnits="userSpaceOnUse" x="0" y="0" width="375" height="227">
<rect width="375" height="227" fill="#2595FF"/>
</mask>
<g mask="url(#mask0_862_50103)">
<g filter="url(#filter0_f_862_50103)">
<path d="M383.445 110.342C389.747 113.608 390.033 119.35 384.095 123.164L169.084 261.561C163.145 265.369 153.208 265.836 146.908 262.579L53.0441 214.094C46.7479 210.845 46.4533 205.094 52.3764 201.27L267.403 62.8953C273.332 59.0734 283.284 58.6139 289.572 61.866L383.445 110.342Z" fill="#345CA6" fill-opacity="0.13"/>
</g>
<g opacity="0.55" filter="url(#filter1_f_862_50103)">
<path d="M55.3272 203.753C52.0486 202.332 50.2508 200.185 50.0035 197.85C50.2897 200.554 50.593 203.252 50.894 205.957C51.1506 208.296 52.9564 210.436 56.2273 211.868L153.102 253.969L152.22 245.865L55.3272 203.753Z" fill="#A2C4E7"/>
</g>
<g opacity="0.55" filter="url(#filter2_f_862_50103)">
<path d="M383.39 84.5552C383.387 84.7043 383.405 84.8627 383.404 85.0115C383.391 85.1559 383.36 85.3141 383.339 85.4652C383.311 85.6026 383.293 85.7591 383.261 85.9115C383.227 86.0524 383.178 86.1892 383.138 86.325C383.093 86.4906 383.038 86.6543 382.97 86.8282C382.922 86.9445 382.858 87.0714 382.802 87.1945C382.707 87.389 382.613 87.5892 382.498 87.786C382.423 87.8966 382.349 88.0159 382.28 88.1316C382.107 88.3874 381.912 88.6459 381.707 88.8995C381.63 88.9957 381.555 89.1035 381.458 89.2077C381.339 89.3408 381.206 89.4785 381.061 89.6174C380.924 89.7496 380.782 89.894 380.634 90.0304C380.474 90.1885 380.286 90.3353 380.106 90.4753C379.937 90.6315 379.764 90.7766 379.569 90.9154L174.277 243.362C173.637 243.826 172.94 244.243 172.212 244.629C172.022 244.729 171.824 244.842 171.63 244.931C171.172 245.147 170.69 245.35 170.212 245.541C169.717 245.735 169.223 245.937 168.701 246.104C168.092 246.301 167.474 246.485 166.844 246.626C166.694 246.67 166.542 246.725 166.377 246.764C165.534 246.947 164.67 247.086 163.792 247.203C163.64 247.226 163.499 247.242 163.349 247.259C162.485 247.351 161.622 247.391 160.756 247.402C160.624 247.396 160.49 247.403 160.366 247.393C159.489 247.388 158.638 247.35 157.793 247.248C157.653 247.243 157.5 247.214 157.364 247.2C156.593 247.098 155.851 246.964 155.109 246.791C154.986 246.756 154.847 246.742 154.71 246.699C153.835 246.478 152.996 246.191 152.216 245.856L153.098 253.961C153.858 254.28 154.645 254.547 155.474 254.771C155.519 254.783 155.558 254.787 155.601 254.803C155.739 254.837 155.896 254.857 156.047 254.898C156.509 255.006 156.962 255.112 157.434 255.202C157.697 255.23 157.975 255.263 158.242 255.297C158.391 255.318 158.542 255.338 158.699 255.361C158.838 255.375 158.963 255.396 159.101 255.403C159.627 255.451 160.154 255.488 160.672 255.499C160.878 255.505 161.063 255.493 161.257 255.503C161.392 255.505 161.523 255.502 161.659 255.495C161.853 255.505 162.034 255.499 162.221 255.498C162.735 255.478 163.255 255.448 163.771 255.41C163.935 255.391 164.119 255.362 164.272 255.345C164.407 255.329 164.528 255.315 164.667 255.3C164.898 255.274 165.135 255.255 165.374 255.22C165.948 255.137 166.515 255.032 167.085 254.909C167.153 254.886 167.217 254.862 167.295 254.853C167.443 254.816 167.579 254.783 167.717 254.735C168.17 254.637 168.621 254.536 169.05 254.409C169.406 254.295 169.735 254.165 170.058 254.049C170.155 254.03 170.241 254.008 170.324 253.97C170.869 253.779 171.403 253.564 171.925 253.324C172.137 253.236 172.328 253.121 172.538 253.01C172.723 252.919 172.923 252.826 173.104 252.724C173.839 252.328 174.531 251.914 175.162 251.446L380.464 99.0068C380.528 98.9587 380.587 98.9111 380.644 98.8697C380.759 98.775 380.859 98.682 380.974 98.5873C381.172 98.4248 381.359 98.2723 381.537 98.1122C381.669 97.995 381.788 97.859 381.909 97.7403C382.061 97.5831 382.226 97.439 382.367 97.2713C382.384 97.2402 382.423 97.2212 382.437 97.1876C382.496 97.1225 382.525 97.0667 382.583 97.0105C382.792 96.7418 382.991 96.4626 383.167 96.2093C383.207 96.1522 383.256 96.0913 383.288 96.0381C383.326 95.9842 383.34 95.9272 383.393 95.8861C383.486 95.6714 383.6 95.4718 383.686 95.2725C383.716 95.1991 383.787 95.1093 383.808 95.0312C383.83 94.9937 383.833 94.9466 383.853 94.9181C383.921 94.7413 383.982 94.5622 384.032 94.3816C384.066 94.2989 384.107 94.198 384.126 94.0997C384.137 94.0721 384.132 94.0318 384.132 94.0318C384.184 93.8394 384.202 93.6681 384.236 93.4981C384.247 93.3947 384.279 93.289 384.283 93.1923C384.285 93.1628 384.283 93.1398 384.288 93.1129C384.297 92.934 384.286 92.7573 384.277 92.5804C384.274 92.4757 384.293 92.3861 384.283 92.291C384.277 92.2392 384.277 92.1867 384.274 92.1608C383.968 89.4626 383.675 86.7541 383.368 84.0502C383.391 84.2255 383.389 84.3891 383.39 84.5552Z" fill="#A2C4E7"/>
</g>
<path d="M165.023 254.418C165.133 254.405 165.239 254.387 165.357 254.371C165.931 254.288 166.527 254.186 167.125 254.048L167.276 254.01L167.374 253.999L167.429 253.973C167.592 253.937 167.733 253.894 167.885 253.842C168.245 253.775 168.712 253.661 169.164 253.531C169.477 253.431 169.733 253.338 169.98 253.251L170.266 253.149C170.341 253.135 170.482 253.095 170.613 253.034C171.102 252.868 171.683 252.635 172.241 252.377C172.395 252.315 172.596 252.205 172.802 252.091L172.928 252.019C173.073 251.953 173.305 251.839 173.523 251.724C174.401 251.248 175.11 250.806 175.722 250.351L380.495 98.4562C380.667 98.3258 380.755 98.2488 380.842 98.166L381.007 98.0276C381.189 97.8815 381.369 97.7358 381.543 97.576C381.652 97.4819 381.762 97.3674 381.864 97.2567L382.095 97.0292C382.218 96.9073 382.339 96.7857 382.447 96.6539L382.53 96.5862C382.53 96.5862 382.667 96.4072 382.692 96.3665C382.971 96.0199 383.188 95.7182 383.378 95.437L383.502 95.2655L383.59 95.1971L383.723 94.8991C383.723 94.8991 383.967 94.4018 384.021 94.282C384.039 94.2595 384.096 94.1685 384.148 94.0342L384.214 93.8692C384.294 93.6735 384.361 93.4704 384.423 93.2651C384.451 93.1774 384.484 93.0861 384.509 92.9957L384.611 92.7596L384.599 92.6035C384.617 92.508 384.672 92.1664 384.672 92.1664C384.709 91.9756 384.733 91.8299 384.735 91.6897C384.748 91.4199 384.746 91.1955 384.732 90.9725C384.743 90.8633 384.743 90.735 384.729 90.6083L384.018 83.3098L381.129 82.675C381.141 82.7757 381.139 82.8839 381.136 82.9921C381.136 82.9921 381.148 83.3496 381.148 83.4078L381.093 83.7466L381.045 84.0379C381.018 84.1606 380.99 84.2279 380.972 84.297C380.899 84.5328 380.869 84.6557 380.814 84.7874C380.785 84.8432 380.744 84.9383 380.693 85.0316C380.596 85.2351 380.526 85.3917 380.44 85.5357L380.232 85.8626C380.108 86.0547 379.937 86.2753 379.757 86.494L379.53 86.7823C379.463 86.8599 379.352 86.9687 379.237 87.081L379.105 87.2125C379.016 87.3014 378.922 87.3996 378.824 87.4894C378.667 87.6444 378.521 87.7542 378.382 87.8634C378.161 88.0518 378.042 88.1644 377.896 88.2656L173.224 240.105C172.692 240.49 172.047 240.884 171.334 241.268L170.805 241.544C170.378 241.75 169.917 241.933 169.47 242.115L169.215 242.211C168.841 242.364 168.458 242.513 168.06 242.637C167.399 242.863 166.833 243.027 166.309 243.145L165.828 243.281C165.084 243.441 164.249 243.58 163.386 243.695C163.236 243.718 162.971 243.748 162.959 243.749C162.226 243.827 161.44 243.875 160.504 243.888C160.424 243.879 160.267 243.886 160.106 243.886C159.196 243.876 158.426 243.829 157.712 243.747L157.265 243.695C156.58 243.604 155.882 243.476 155.171 243.312C155.165 243.309 155.047 243.279 154.934 243.263C153.992 243.019 153.221 242.757 152.514 242.455L150.386 241.544L151.606 252.734L152.339 253.042C153.17 253.388 154.028 253.682 154.883 253.906L154.977 253.941L155.489 254.044C155.981 254.16 156.452 254.273 156.956 254.362L157.833 254.466C157.976 254.491 158.141 254.507 158.328 254.527C158.426 254.545 158.572 254.566 158.725 254.581C159.304 254.632 159.854 254.669 160.399 254.683L160.969 254.682C161.15 254.688 161.317 254.686 161.491 254.675C161.6 254.683 161.814 254.688 162.031 254.675C162.553 254.663 163.087 254.629 163.62 254.591L163.646 254.588L165.023 254.418Z" fill="white"/>
<path d="M151.517 245.641L54.6258 203.523C51.0062 201.954 48.8361 199.487 48.5023 196.571C48.165 193.675 49.7046 190.79 52.8406 188.457L258.309 37.5389C261.238 35.3662 265.275 33.8903 269.685 33.39C274.084 32.8909 278.354 33.4215 281.704 34.8789L377.928 76.579C381.542 78.158 383.719 80.6323 384.05 83.5523C384.379 86.4491 382.836 89.3251 379.701 91.6437L174.915 242.986C171.979 245.151 167.942 246.627 163.543 247.126C159.144 247.622 154.871 247.092 151.517 245.641ZM260.583 44.5055L65.388 189.431C64.4419 190.131 63.9457 190.933 64.0248 191.63C64.1052 192.339 64.782 193.026 65.8794 193.505L162.776 235.593C164.113 236.179 165.925 236.393 167.748 236.187C169.583 235.979 171.3 235.361 172.464 234.491L367.665 89.5646C368.614 88.8619 369.106 88.0535 369.028 87.3624C368.945 86.6601 368.267 85.9846 367.172 85.5021L270.278 43.4056C268.935 42.8259 267.117 42.6092 265.288 42.8167C263.456 43.0216 261.738 43.6366 260.583 44.5055Z" fill="white"/>
<path d="M377.895 76.705C384.402 79.5427 385.07 85.2535 379.4 89.4552L174.111 241.902C168.44 246.098 158.556 247.228 152.053 244.398L55.1607 202.29C48.6616 199.469 47.9836 193.751 53.6381 189.539L258.944 37.1138C264.605 32.9045 274.504 31.7814 280.995 34.6063L377.895 76.705ZM173.267 235.572L368.477 90.6448C371.291 88.5405 370.947 85.6834 367.71 84.2743L270.818 42.1688C267.568 40.7613 262.609 41.3181 259.774 43.4218L64.5819 188.353C61.7497 190.453 62.111 193.329 65.3418 194.742L162.229 236.824C165.472 238.247 170.433 237.684 173.267 235.572Z" fill="url(#paint0_linear_862_50103)"/>
<path d="M367.71 84.2772C370.95 85.686 371.294 88.5431 368.477 90.6477L173.267 235.575C170.436 237.687 165.475 238.25 162.229 236.827L65.3418 194.745C62.111 193.332 61.7522 190.453 64.5819 188.356L259.774 43.4247C262.609 41.321 267.567 40.7643 270.818 42.1717L367.71 84.2772Z" fill="url(#paint1_linear_862_50103)"/>
<path d="M217.214 146.567L247.096 124.478C253.303 119.889 264.159 118.56 271.284 121.662L230.04 152.151L217.214 146.567Z" fill="white"/>
<path fill-rule="evenodd" clip-rule="evenodd" d="M230.761 151.619C242.652 142.828 241.233 130.939 227.584 124.996C213.935 119.054 193.324 121.352 181.432 130.142C169.541 138.932 170.96 150.822 184.609 156.764C198.258 162.707 218.87 160.409 230.761 151.619ZM217.471 145.832C222.895 141.823 222.247 136.395 216.021 133.684C209.795 130.974 200.266 131.971 194.842 135.98C189.418 139.99 190.066 145.418 196.292 148.128C202.517 150.839 212.047 149.842 217.471 145.832Z" fill="white"/>
<path d="M153.229 242.76L55.6229 200.336C52.9103 199.165 51.3093 197.465 51.102 195.534L48.4195 195.812L49.6877 195.686L48.4204 195.821C48.6632 198.141 48.9227 200.454 49.1738 202.771L49.3045 203.922C49.6217 206.847 51.8026 209.332 55.4358 210.918L152.338 253.031L153.229 242.76Z" fill="white"/>
<path d="M306.446 51.8035C307.093 51.3276 308.201 51.2019 308.935 51.5211L334.194 62.5913C334.933 62.9245 335.025 63.582 334.377 64.0698C334.372 64.0762 334.372 64.0762 334.363 64.08C333.714 64.5592 332.592 64.6865 331.854 64.3647L306.606 53.2932C305.853 52.9645 305.784 52.3044 306.433 51.8138C306.438 51.8102 306.441 51.8099 306.446 51.8035Z" fill="url(#paint2_linear_862_50103)"/>
<path d="M55.1608 202.291C51.8829 200.875 50.0851 198.729 49.8375 196.391C50.1237 199.095 50.427 201.793 50.7276 204.495C50.9849 206.84 52.7907 208.98 56.0613 210.409L152.936 252.51L152.054 244.406L55.1608 202.291Z" fill="#D8EBFF"/>
<path d="M383.225 83.0994C383.221 83.2514 383.239 83.404 383.238 83.5557C383.225 83.6972 383.194 83.8554 383.173 84.0065C383.145 84.1468 383.128 84.3033 383.095 84.4557C383.061 84.5966 383.012 84.7305 382.972 84.8663C382.927 85.0348 382.872 85.1956 382.805 85.3724C382.757 85.4887 382.692 85.6127 382.635 85.7329C382.541 85.9303 382.447 86.1334 382.331 86.3245C382.257 86.438 382.182 86.5543 382.114 86.6729C381.941 86.9259 381.746 87.1901 381.541 87.4408C381.464 87.537 381.389 87.6448 381.293 87.7548C381.173 87.8821 381.04 88.0198 380.895 88.1616C380.758 88.2938 380.617 88.4382 380.469 88.5774C380.309 88.7356 380.121 88.8852 379.941 89.0223C379.772 89.1786 379.598 89.3237 379.404 89.4653L174.111 241.904C173.471 242.367 172.774 242.787 172.046 243.173C171.856 243.276 171.659 243.386 171.464 243.476C171.007 243.691 170.524 243.891 170.046 244.083C169.551 244.276 169.057 244.478 168.535 244.645C167.927 244.845 167.308 245.029 166.679 245.174C166.528 245.214 166.377 245.269 166.212 245.308C165.368 245.494 164.505 245.633 163.627 245.75C163.474 245.77 163.333 245.786 163.183 245.803C162.32 245.898 161.457 245.938 160.59 245.946C160.458 245.941 160.324 245.947 160.201 245.943C159.324 245.938 158.473 245.9 157.628 245.795C157.488 245.793 157.335 245.758 157.199 245.744C156.428 245.642 155.685 245.508 154.944 245.338C154.82 245.303 154.681 245.289 154.545 245.246C153.67 245.025 152.831 244.741 152.051 244.403L152.932 252.508C153.693 252.827 154.48 253.094 155.309 253.321C155.354 253.333 155.393 253.337 155.435 253.353C155.573 253.384 155.731 253.407 155.881 253.445C156.344 253.556 156.797 253.659 157.268 253.746C157.532 253.777 157.81 253.81 158.076 253.841C158.225 253.862 158.377 253.885 158.534 253.906C158.672 253.919 158.798 253.94 158.936 253.947C159.461 253.996 159.988 254.032 160.507 254.043C160.712 254.049 160.898 254.04 161.091 254.044C161.226 254.049 161.357 254.043 161.494 254.039C161.687 254.044 161.868 254.043 162.055 254.04C162.57 254.022 163.089 253.992 163.605 253.954C163.769 253.936 163.953 253.906 164.106 253.889C164.242 253.873 164.363 253.86 164.501 253.844C164.732 253.818 164.969 253.8 165.208 253.764C165.782 253.675 166.349 253.576 166.919 253.45C166.988 253.433 167.052 253.409 167.13 253.4C167.277 253.36 167.414 253.327 167.552 253.282C168.005 253.181 168.455 253.083 168.885 252.953C169.24 252.84 169.57 252.712 169.893 252.596C169.99 252.574 170.075 252.555 170.159 252.517C170.704 252.326 171.237 252.108 171.759 251.871C171.971 251.783 172.163 251.668 172.372 251.557C172.558 251.469 172.757 251.37 172.939 251.274C173.674 250.875 174.366 250.461 174.997 249.993L380.298 97.5539C380.363 97.5086 380.422 97.4582 380.478 97.4139C380.594 97.325 380.694 97.2319 380.809 97.1343C381.007 96.9777 381.194 96.8223 381.372 96.665C381.504 96.545 381.623 96.409 381.744 96.2874C381.896 96.1331 382.061 95.989 382.203 95.8241C382.219 95.793 382.258 95.7712 382.272 95.7404C382.332 95.6753 382.36 95.6195 382.418 95.5634C382.627 95.2946 382.827 95.0154 383.002 94.7621C383.043 94.7051 383.091 94.6441 383.123 94.5909C383.161 94.5399 383.175 94.4772 383.228 94.4361C383.321 94.2214 383.435 94.0217 383.521 93.8224C383.551 93.752 383.622 93.6593 383.643 93.5869C383.665 93.5494 383.668 93.4995 383.689 93.4738C383.756 93.297 383.818 93.1179 383.868 92.9373C383.902 92.8546 383.943 92.7537 383.961 92.6525C383.973 92.6279 383.968 92.5904 383.968 92.5904C384.019 92.3922 384.038 92.2238 384.072 92.0595C384.083 91.9532 384.115 91.8476 384.118 91.748C384.121 91.7186 384.119 91.7013 384.124 91.6686C384.133 91.4955 384.121 91.3131 384.113 91.1332C384.11 91.0314 384.129 90.9389 384.118 90.8468C384.113 90.7978 384.113 90.7453 384.109 90.7165C383.803 88.0183 383.511 85.3099 383.204 82.6088C383.225 82.7697 383.223 82.9304 383.225 83.0994Z" fill="url(#paint3_linear_862_50103)"/>
<path d="M108.687 229.692L96.8081 224.597C96.2649 224.367 95.8786 224.644 95.9452 225.232C96.0112 225.813 96.5015 226.478 97.0422 226.711L108.921 231.807C109.458 232.04 109.85 231.76 109.787 231.175C109.72 230.59 109.225 229.929 108.687 229.692Z" fill="url(#paint4_linear_862_50103)"/>
<circle cx="128.34" cy="125.34" r="28.538" transform="rotate(-3.74352 128.34 125.34)" fill="url(#paint5_linear_862_50103)"/>
<circle cx="128.34" cy="125.34" r="28.538" transform="rotate(-3.74352 128.34 125.34)" fill="url(#paint6_radial_862_50103)"/>
<circle cx="128.34" cy="125.34" r="28.538" transform="rotate(-3.74352 128.34 125.34)" fill="url(#paint7_radial_862_50103)"/>
<circle cx="128.34" cy="125.34" r="28.538" transform="rotate(-3.74352 128.34 125.34)" fill="url(#paint8_radial_862_50103)"/>
<circle cx="128.34" cy="125.34" r="28.538" transform="rotate(-3.74352 128.34 125.34)" fill="url(#paint9_radial_862_50103)"/>
<g style="mix-blend-mode:lighten">
<ellipse cx="126.325" cy="118.236" rx="17.7073" ry="15.8162" transform="rotate(-3.74352 126.325 118.236)" fill="url(#paint10_linear_862_50103)"/>
</g>
<g style="mix-blend-mode:lighten">
<path d="M115.894 117.363C114.727 117.083 113.992 115.899 114.461 114.795C115.277 112.873 116.545 111.164 118.169 109.819C119.793 108.474 121.709 107.548 123.749 107.105C124.921 106.85 125.947 107.793 126.005 108.991C126.063 110.19 125.123 111.182 123.975 111.532C122.872 111.869 121.839 112.421 120.94 113.166C120.041 113.91 119.305 114.822 118.769 115.843C118.211 116.905 117.06 117.644 115.894 117.363Z" fill="url(#paint11_linear_862_50103)"/>
</g>
<g filter="url(#filter3_f_862_50103)">
<circle cx="272.464" cy="184.465" r="46.5258" transform="rotate(-3.74352 272.464 184.465)" fill="url(#paint12_linear_862_50103)"/>
<circle cx="272.464" cy="184.465" r="46.5258" transform="rotate(-3.74352 272.464 184.465)" fill="url(#paint13_radial_862_50103)"/>
<circle cx="272.464" cy="184.465" r="46.5258" transform="rotate(-3.74352 272.464 184.465)" fill="url(#paint14_radial_862_50103)"/>
<circle cx="272.464" cy="184.465" r="46.5258" transform="rotate(-3.74352 272.464 184.465)" fill="url(#paint15_radial_862_50103)"/>
<circle cx="272.464" cy="184.465" r="46.5258" transform="rotate(-3.74352 272.464 184.465)" fill="url(#paint16_radial_862_50103)"/>
<g style="mix-blend-mode:lighten">
<ellipse cx="269.18" cy="172.883" rx="28.8684" ry="25.7854" transform="rotate(-3.74352 269.18 172.883)" fill="url(#paint17_linear_862_50103)"/>
</g>
<g style="mix-blend-mode:lighten">
<path d="M252.172 171.457C250.27 171 249.072 169.07 249.837 167.269C251.167 164.136 253.234 161.35 255.882 159.158C258.53 156.965 261.653 155.455 264.979 154.733C266.89 154.317 268.563 155.854 268.657 157.808C268.751 159.762 267.218 161.38 265.347 161.951C263.549 162.499 261.865 163.4 260.399 164.614C258.933 165.827 257.734 167.314 256.86 168.978C255.95 170.71 254.074 171.914 252.172 171.457Z" fill="url(#paint18_linear_862_50103)"/>
</g>
</g>
<path d="M48 105L50.4308 111.569L57 114L50.4308 116.431L48 123L45.5692 116.431L39 114L45.5692 111.569L48 105Z" fill="#FAFCFF"/>
</g>
<defs>
<filter id="filter0_f_862_50103" x="37.1211" y="48.6982" width="362.246" height="227.051" filterUnits="userSpaceOnUse" color-interpolation-filters="sRGB">
<feFlood flood-opacity="0" result="BackgroundImageFix"/>
<feBlend mode="normal" in="SourceGraphic" in2="BackgroundImageFix" result="shape"/>
<feGaussianBlur stdDeviation="5.5" result="effect1_foregroundBlur_862_50103"/>
</filter>
<filter id="filter1_f_862_50103" x="46.0039" y="193.851" width="111.098" height="64.1182" filterUnits="userSpaceOnUse" color-interpolation-filters="sRGB">
<feFlood flood-opacity="0" result="BackgroundImageFix"/>
<feBlend mode="normal" in="SourceGraphic" in2="BackgroundImageFix" result="shape"/>
<feGaussianBlur stdDeviation="2" result="effect1_foregroundBlur_862_50103"/>
</filter>
<filter id="filter2_f_862_50103" x="148.217" y="80.0498" width="240.074" height="179.454" filterUnits="userSpaceOnUse" color-interpolation-filters="sRGB">
<feFlood flood-opacity="0" result="BackgroundImageFix"/>
<feBlend mode="normal" in="SourceGraphic" in2="BackgroundImageFix" result="shape"/>
<feGaussianBlur stdDeviation="2" result="effect1_foregroundBlur_862_50103"/>
</filter>
<filter id="filter3_f_862_50103" x="203.938" y="115.938" width="137.055" height="137.055" filterUnits="userSpaceOnUse" color-interpolation-filters="sRGB">
<feFlood flood-opacity="0" result="BackgroundImageFix"/>
<feBlend mode="normal" in="SourceGraphic" in2="BackgroundImageFix" result="shape"/>
<feGaussianBlur stdDeviation="11" result="effect1_foregroundBlur_862_50103"/>
</filter>
<linearGradient id="paint0_linear_862_50103" x1="387.473" y1="120.111" x2="45.5837" y2="158.899" gradientUnits="userSpaceOnUse">
<stop stop-color="#F1F4FE"/>
<stop offset="0.5797" stop-color="#F7F9FE"/>
<stop offset="1" stop-color="white"/>
</linearGradient>
<linearGradient id="paint1_linear_862_50103" x1="374.267" y1="121.607" x2="58.7859" y2="157.399" gradientUnits="userSpaceOnUse">
<stop stop-color="#2595FF"/>
<stop offset="0.246" stop-color="#23A9FF"/>
<stop offset="0.5075" stop-color="#2595FF"/>
<stop offset="0.7751" stop-color="#2DC8FF"/>
<stop offset="1" stop-color="#2AC1FF"/>
</linearGradient>
<linearGradient id="paint2_linear_862_50103" x1="306.774" y1="59.4898" x2="334.025" y2="56.3981" gradientUnits="userSpaceOnUse">
<stop stop-color="#5FEFC0"/>
<stop offset="0.6277" stop-color="#4DA6DD"/>
<stop offset="1" stop-color="#437FEC"/>
</linearGradient>
<linearGradient id="paint3_linear_862_50103" x1="260.016" y1="96.5846" x2="276.418" y2="241.156" gradientUnits="userSpaceOnUse">
<stop stop-color="#89C1FF"/>
<stop offset="1" stop-color="#DAECFF"/>
</linearGradient>
<linearGradient id="paint4_linear_862_50103" x1="96.3635" y1="228.941" x2="109.363" y2="227.466" gradientUnits="userSpaceOnUse">
<stop stop-color="#5FEFC0"/>
<stop offset="0.6277" stop-color="#4DA6DD"/>
<stop offset="1" stop-color="#437FEC"/>
</linearGradient>
<linearGradient id="paint5_linear_862_50103" x1="128.34" y1="96.8024" x2="128.34" y2="153.878" gradientUnits="userSpaceOnUse">
<stop stop-color="#40FFC6"/>
<stop offset="0.492708" stop-color="#4AE6FF"/>
<stop offset="1" stop-color="#2595FF"/>
</linearGradient>
<radialGradient id="paint6_radial_862_50103" cx="0" cy="0" r="1" gradientUnits="userSpaceOnUse" gradientTransform="translate(116.619 108.014) rotate(62.6223) scale(64.2751)">
<stop offset="0.462106" stop-color="#2AA8FF" stop-opacity="0"/>
<stop offset="0.894737" stop-color="#2595FF"/>
</radialGradient>
<radialGradient id="paint7_radial_862_50103" cx="0" cy="0" r="1" gradientUnits="userSpaceOnUse" gradientTransform="translate(114.581 109.033) rotate(56.6259) scale(76.8898)">
<stop stop-color="#6EFFCE"/>
<stop offset="0.570035" stop-color="#A5FFFD" stop-opacity="0"/>
</radialGradient>
<radialGradient id="paint8_radial_862_50103" cx="0" cy="0" r="1" gradientUnits="userSpaceOnUse" gradientTransform="translate(122.735 114.129) rotate(63.4349) scale(40.9917)">
<stop offset="0.672439" stop-color="#9EC6FD" stop-opacity="0"/>
<stop offset="1" stop-color="white"/>
</radialGradient>
<radialGradient id="paint9_radial_862_50103" cx="0" cy="0" r="1" gradientUnits="userSpaceOnUse" gradientTransform="translate(125.255 119.17) rotate(62.0378) scale(35.3663)">
<stop offset="0.961458" stop-color="#2AA8FF" stop-opacity="0"/>
<stop offset="1" stop-color="#058AFF" stop-opacity="0.26"/>
</radialGradient>
<linearGradient id="paint10_linear_862_50103" x1="116.207" y1="106.501" x2="128.973" y2="120.68" gradientUnits="userSpaceOnUse">
<stop stop-color="white" stop-opacity="0.86"/>
<stop offset="1" stop-color="#D9D9D9" stop-opacity="0"/>
</linearGradient>
<linearGradient id="paint11_linear_862_50103" x1="125.668" y1="108.125" x2="118.551" y2="117.479" gradientUnits="userSpaceOnUse">
<stop stop-color="white"/>
<stop offset="1" stop-color="#FFFFE9" stop-opacity="0.38"/>
</linearGradient>
<linearGradient id="paint12_linear_862_50103" x1="272.464" y1="137.939" x2="272.464" y2="230.991" gradientUnits="userSpaceOnUse">
<stop stop-color="#40FFC6"/>
<stop offset="0.492708" stop-color="#4AE6FF"/>
<stop offset="1" stop-color="#2595FF"/>
</linearGradient>
<radialGradient id="paint13_radial_862_50103" cx="0" cy="0" r="1" gradientUnits="userSpaceOnUse" gradientTransform="translate(253.355 156.217) rotate(62.6223) scale(104.788)">
<stop offset="0.462106" stop-color="#2AA8FF" stop-opacity="0"/>
<stop offset="0.894737" stop-color="#2595FF"/>
</radialGradient>
<radialGradient id="paint14_radial_862_50103" cx="0" cy="0" r="1" gradientUnits="userSpaceOnUse" gradientTransform="translate(250.032 157.879) rotate(56.6259) scale(125.354)">
<stop stop-color="#6EFFCE"/>
<stop offset="0.570035" stop-color="#A5FFFD" stop-opacity="0"/>
</radialGradient>
<radialGradient id="paint15_radial_862_50103" cx="0" cy="0" r="1" gradientUnits="userSpaceOnUse" gradientTransform="translate(263.325 166.187) rotate(63.4349) scale(66.8293)">
<stop offset="0.672439" stop-color="#9EC6FD" stop-opacity="0"/>
<stop offset="1" stop-color="white"/>
</radialGradient>
<radialGradient id="paint16_radial_862_50103" cx="0" cy="0" r="1" gradientUnits="userSpaceOnUse" gradientTransform="translate(267.434 174.405) rotate(62.0378) scale(57.6581)">
<stop offset="0.961458" stop-color="#2AA8FF" stop-opacity="0"/>
<stop offset="1" stop-color="#058AFF" stop-opacity="0.26"/>
</radialGradient>
<linearGradient id="paint17_linear_862_50103" x1="252.684" y1="153.752" x2="273.497" y2="176.867" gradientUnits="userSpaceOnUse">
<stop stop-color="white" stop-opacity="0.86"/>
<stop offset="1" stop-color="#D9D9D9" stop-opacity="0"/>
</linearGradient>
<linearGradient id="paint18_linear_862_50103" x1="268.108" y1="156.395" x2="256.504" y2="171.646" gradientUnits="userSpaceOnUse">
<stop stop-color="white"/>
<stop offset="1" stop-color="#FFFFE9" stop-opacity="0.38"/>
</linearGradient>
</defs>
</svg>
