<svg width="191" height="74" viewBox="0 0 191 74" fill="none" xmlns="http://www.w3.org/2000/svg">
<path d="M5.65869 6.73866C22.1209 8.64549 17.8799 20.2637 13.8921 21.4915C9.90438 22.7193 5.5331 19.5772 5.66724 14.8269C5.74771 11.4821 6.71079 9.1335 5.65869 6.73866Z" fill="#BBD645"/>
<path d="M188.716 51.2206C164.85 63.5647 160.032 44.0994 164.283 38.8368C168.534 33.5742 177.258 33.8411 181.38 40.351C184.3 44.922 185.132 48.9527 188.716 51.2206Z" fill="#BBD645"/>
<path d="M37.3633 69.3735C64.1975 65.9362 57.0456 47.0551 50.512 45.1295C43.9784 43.204 36.905 48.4191 37.2177 56.1706C37.415 61.6288 39.0334 65.4435 37.3633 69.3735Z" fill="#DCF375"/>
<path d="M155.404 67.6469C173.927 60.6888 165.662 48.4519 160.688 48.1798C155.713 47.9076 151.555 52.8089 153.081 58.2738C154.139 62.1256 155.932 64.5689 155.404 67.6469Z" fill="#DCF375"/>
<path d="M121.424 5.69209C95.6277 -2.4578 94.189 17.6811 99.3099 22.1725C104.431 26.6639 113.04 24.9015 116.012 17.7354C118.125 12.699 118.258 8.55726 121.424 5.69209Z" fill="#DCF375"/>
</svg>
