<svg width="28" height="45" viewBox="0 0 28 45" fill="none" xmlns="http://www.w3.org/2000/svg">
<path fill-rule="evenodd" clip-rule="evenodd" d="M10.4263 0.0390625C12.9801 0.0390625 15.5245 0.0390625 18.0783 0.0390625C17.9281 1.76662 17.7685 3.50358 17.6276 5.23114C20.6039 5.44708 23.5051 6.40475 26.1152 7.82248C24.9885 10.6579 23.8525 13.4934 22.7164 16.3288C20.5194 14.4605 17.6276 13.4277 14.7452 13.4652C14.0223 13.484 13.2712 13.6248 12.6703 14.038C12.2759 14.3102 11.9849 14.7327 11.9004 15.2022C11.8347 15.5777 11.8534 16.0002 12.06 16.3382C12.2947 16.7138 12.7078 16.9391 13.1209 17.08C13.9659 17.3804 14.8767 17.3992 15.7592 17.4931C17.8342 17.7466 19.9185 18.1034 21.8808 18.8451C23.4018 19.4272 24.8571 20.3004 25.8993 21.5773C26.8851 22.7509 27.4578 24.2343 27.6738 25.7553C27.9273 27.5111 27.8522 29.3325 27.3076 31.0413C26.8851 32.4121 26.1622 33.689 25.2233 34.7687C23.2798 37.022 20.4255 38.3741 17.4962 38.7214C17.5901 40.5711 17.7027 42.4113 17.806 44.2609C15.3837 44.2609 12.9707 44.2609 10.5578 44.2609C10.6516 42.4301 10.7737 40.5992 10.8582 38.7684C8.9147 38.7027 6.98997 38.2708 5.1779 37.5854C3.42217 36.9188 1.75094 36.0362 0.192383 35.0034C1.33783 32.0553 2.48328 29.1072 3.63812 26.1497C4.94318 27.2482 6.33274 28.2716 7.85375 29.0508C9.48742 29.8865 11.2995 30.4216 13.1397 30.4404C14.0129 30.4498 14.9142 30.4029 15.7404 30.1024C16.2474 29.9146 16.7451 29.586 16.9704 29.0696C17.2051 28.5251 17.1863 27.8397 16.8296 27.3514C16.5761 27.0228 16.2193 26.7975 15.8437 26.6379C15.3367 26.4313 14.8109 26.3187 14.2758 26.2342C12.3041 25.9149 10.323 25.6521 8.41708 25.0324C6.88669 24.5348 5.39385 23.84 4.17329 22.7697C3.4034 22.103 2.76495 21.2862 2.31428 20.3661C1.63828 18.9953 1.38478 17.4461 1.40355 15.9251C1.40355 14.2257 1.75094 12.4982 2.59595 11.0053C3.32828 9.6721 4.44557 8.58299 5.70368 7.74737C7.22469 6.74276 8.92409 6.05736 10.6516 5.50342C10.5765 3.68197 10.5014 1.86051 10.4263 0.0390625Z" fill="#83BD67"/>
</svg>
