<svg width="519" height="66" viewBox="0 0 519 66" fill="none" xmlns="http://www.w3.org/2000/svg">
<path d="M2.03807 13.4516C39.6058 -7.88408 48.5725 23.0872 42.0739 31.8101C35.5753 40.5331 21.5415 40.6536 14.5096 30.4537C9.52892 23.2934 7.93873 16.8697 2.03807 13.4516Z" fill="#BBD645"/>
<path d="M511.008 5.44662C485.756 4.80165 489.67 23.2432 495.426 25.9495C501.181 28.6559 508.451 24.8493 509.265 17.6514C509.859 12.5864 508.908 8.83574 511.008 5.44662Z" fill="#BBD645"/>
<path d="M172.994 60.6075C147.769 59.2624 153.123 41.1863 159.073 38.9415C165.024 36.6966 171.971 41.0637 172.216 48.3033C172.41 53.3995 171.167 57.0636 172.994 60.6075Z" fill="#BBD645"/>
<path d="M46.3468 2.5313C26.5612 10.8618 36.0416 23.7775 41.4461 23.8612C46.8505 23.9449 51.1502 18.4545 49.2639 12.5946C47.9531 8.4635 45.9051 5.89084 46.3468 2.5313Z" fill="#DCF375"/>
<path d="M476.09 5.22222C494.613 3.50486 492.645 17.2474 488.549 19.5192C484.454 21.7911 478.925 19.3522 477.972 14.1038C477.286 10.4115 477.8 7.60893 476.09 5.22222Z" fill="#DCF375"/>
<path d="M138.167 58.0775C156.496 61.2478 155.616 47.393 151.712 44.8057C147.808 42.2185 142.105 44.2145 140.742 49.3717C139.768 52.9985 140.059 55.8328 138.167 58.0775Z" fill="#DCF375"/>
<path d="M254.839 13.457C236.595 2.14196 231.549 17.3479 234.608 21.8039C237.667 26.2599 244.633 26.5892 248.32 21.6597C250.931 18.2 251.844 15.0409 254.839 13.457Z" fill="#DCF375"/>
<path d="M279.3 56.0335C298.475 65.6872 302.155 50.0938 298.712 45.9264C295.27 41.7591 288.303 42.0485 285.067 47.2854C282.773 50.9628 282.144 54.1903 279.3 56.0335Z" fill="#DCF375"/>
<path d="M387.63 9.32361C367.386 2.17919 365.713 18.1133 369.656 21.8105C373.599 25.5077 380.474 24.3372 383.02 18.7322C384.828 14.7937 385.043 11.5124 387.63 9.32361Z" fill="#DCF375"/>
<path d="M454.165 57.1118C432.699 56.8597 436.607 41.3221 441.581 39.206C446.555 37.0899 452.608 40.5529 453.071 46.6915C453.415 51.0119 452.489 54.167 454.165 57.1118Z" fill="#DCF375"/>
</svg>
