<svg width="576" height="77" viewBox="0 0 576 77" fill="none" xmlns="http://www.w3.org/2000/svg">
<path d="M567.207 5.072C539.689 4.36917 543.954 24.4651 550.226 27.4142C556.498 30.3634 564.419 26.2153 565.306 18.3717C565.954 12.8523 564.918 8.76516 567.207 5.072Z" fill="#BBD645"/>
<path d="M530.156 9.82878C550.34 7.95735 548.195 22.9327 543.732 25.4084C539.269 27.8841 533.245 25.2264 532.207 19.5071C531.459 15.4836 532.019 12.4296 530.156 9.82878Z" fill="#DCF375"/>
<path d="M504.333 66.961C477.281 66.6433 482.207 47.0631 488.475 44.3964C494.742 41.7298 502.37 46.0938 502.954 53.8296C503.388 59.274 502.221 63.2501 504.333 66.961Z" fill="#DCF375"/>
<path d="M422.823 9.97925C400.711 2.1757 398.885 19.5798 403.191 23.6182C407.498 27.6565 415.007 26.378 417.787 20.2559C419.763 15.954 419.998 12.37 422.823 9.97925Z" fill="#DCF375"/>
<path d="M302.742 61.1084C323.879 71.7499 327.935 54.5609 324.14 49.9672C320.346 45.3734 312.665 45.6924 309.098 51.4652C306.57 55.5189 305.876 59.0766 302.742 61.1084Z" fill="#DCF375"/>
<path d="M280.831 15.4695C260.223 2.68831 254.523 19.8645 257.978 24.8979C261.434 29.9312 269.302 30.3032 273.468 24.7349C276.416 20.827 277.448 17.2586 280.831 15.4695Z" fill="#DCF375"/>
<path d="M191.004 71.3769C159.216 69.6817 165.963 46.9025 173.462 44.0736C180.961 41.2447 189.716 46.748 190.024 55.8713C190.268 62.2933 188.702 66.9108 191.004 71.3769Z" fill="#BBD645"/>
<path d="M147.115 68.1913C170.214 72.1865 169.105 54.7268 164.186 51.4664C159.266 48.206 152.079 50.7214 150.361 57.2204C149.133 61.7908 149.501 65.3626 147.115 68.1913Z" fill="#DCF375"/>
<path d="M43.5214 4.48055C24.0882 12.6627 33.3997 25.3482 38.7079 25.4305C44.0161 25.5127 48.2392 20.1201 46.3864 14.3646C45.099 10.3071 43.0875 7.78024 43.5214 4.48055Z" fill="#DCF375"/>
<path d="M2.00177 15.2063C38.9003 -5.74925 47.7072 24.6702 41.3244 33.2378C34.9415 41.8054 21.1578 41.9237 14.2511 31.9056C9.35917 24.8729 7.79731 18.5635 2.00177 15.2063Z" fill="#BBD645"/>
</svg>
