<svg width="342" height="43" viewBox="0 0 342 43" fill="none" xmlns="http://www.w3.org/2000/svg">
<path d="M337.038 3.58868C320.382 3.16329 322.964 15.3265 326.76 17.1115C330.556 18.8964 335.351 16.3858 335.888 11.6384C336.28 8.29774 335.653 5.82399 337.038 3.58868Z" fill="#BBD645"/>
<path d="M314.008 3.4432C326.224 2.3105 324.926 11.3744 322.225 12.8729C319.524 14.3713 315.877 12.7627 315.249 9.30105C314.796 6.86581 315.135 5.01736 314.008 3.4432Z" fill="#DCF375"/>
<path d="M296.259 35.5469C282.101 35.3806 284.678 25.1327 287.959 23.737C291.239 22.3414 295.231 24.6254 295.537 28.6741C295.764 31.5237 295.153 33.6046 296.259 35.5469Z" fill="#DCF375"/>
<path d="M252.385 5.44271C239.033 0.73058 237.93 11.24 240.531 13.6785C243.131 16.117 247.665 15.345 249.345 11.6482C250.538 9.05052 250.679 6.88635 252.385 5.44271Z" fill="#DCF375"/>
<path d="M179.031 35.6488C191.678 42.0159 194.105 31.7312 191.835 28.9826C189.564 26.2341 184.969 26.4249 182.834 29.8789C181.322 32.3044 180.907 34.4331 179.031 35.6488Z" fill="#DCF375"/>
<path d="M164.207 8.87032C152.174 1.40741 148.846 11.4366 150.863 14.3755C152.881 17.3145 157.475 17.5317 159.908 14.2804C161.629 11.9986 162.231 9.915 164.207 8.87032Z" fill="#DCF375"/>
<path d="M110.648 39.9738C94.0104 39.0866 97.5417 27.1644 101.467 25.6839C105.391 24.2033 109.973 27.0836 110.135 31.8585C110.263 35.2197 109.443 37.6364 110.648 39.9738Z" fill="#BBD645"/>
<path d="M87.6775 38.301C99.7669 40.392 99.1865 31.254 96.6117 29.5476C94.0368 27.8411 90.275 29.1576 89.3762 32.5591C88.7333 34.9511 88.9258 36.8205 87.6775 38.301Z" fill="#DCF375"/>
<path d="M30.5683 1.66846C17.5186 7.1629 23.7714 15.6815 27.336 15.7367C30.9005 15.7919 33.7364 12.1707 32.4922 8.30574C31.6277 5.58106 30.2769 3.88425 30.5683 1.66846Z" fill="#DCF375"/>
<path d="M1.34422 8.87035C26.1222 -5.20167 32.0362 15.2255 27.75 20.9788C23.4639 26.7321 14.2078 26.8116 9.56985 20.0842C6.28484 15.3616 5.23603 11.1248 1.34422 8.87035Z" fill="#BBD645"/>
</svg>
