<svg width="653" height="82" viewBox="0 0 653 82" fill="none" xmlns="http://www.w3.org/2000/svg">
<path d="M2.56835 16.9497C49.9107 -9.93717 61.2104 29.0924 53.021 40.0849C44.8315 51.0775 27.1464 51.2294 18.2848 38.3756C12.0082 29.3523 10.0043 21.2572 2.56835 16.9497Z" fill="#BBD645"/>
<path d="M643.966 6.8615C612.143 6.04872 617.076 29.2885 624.329 32.699C631.582 36.1095 640.743 31.3125 641.769 22.2419C642.517 15.8589 641.319 11.1324 643.966 6.8615Z" fill="#BBD645"/>
<path d="M218.004 76.3759C186.216 74.6807 192.963 51.9015 200.462 49.0726C207.961 46.2437 216.716 51.747 217.024 60.8703C217.269 67.2924 215.702 71.9099 218.004 76.3759Z" fill="#BBD645"/>
<path d="M58.4057 3.18877C33.4721 13.6868 45.4193 29.9629 52.2299 30.0684C59.0405 30.1739 64.4589 23.255 62.0818 15.8704C60.4299 10.6644 57.849 7.42242 58.4057 3.18877Z" fill="#DCF375"/>
<path d="M599.962 6.58141C623.304 4.41722 620.824 21.7353 615.663 24.5983C610.502 27.4613 603.535 24.3879 602.334 17.7738C601.47 13.1209 602.117 9.58911 599.962 6.58141Z" fill="#DCF375"/>
<path d="M174.116 73.1893C197.215 77.1845 196.106 59.7249 191.186 56.4645C186.266 53.204 179.079 55.7194 177.361 62.2184C176.133 66.7888 176.501 70.3606 174.116 73.1893Z" fill="#DCF375"/>
<path d="M321.145 16.9547C298.154 2.69564 291.794 21.858 295.65 27.4734C299.505 33.0887 308.283 33.5037 312.93 27.2916C316.22 22.9317 317.37 18.9508 321.145 16.9547Z" fill="#DCF375"/>
<path d="M351.97 70.6096C376.134 82.775 380.771 63.1245 376.433 57.8728C372.096 52.6212 363.315 52.9859 359.237 59.5854C356.347 64.2196 355.554 68.2869 351.97 70.6096Z" fill="#DCF375"/>
<path d="M488.486 11.7489C462.974 2.74558 460.867 22.8255 465.835 27.4847C470.804 32.1439 479.468 30.6688 482.676 23.6055C484.955 18.6422 485.226 14.5072 488.486 11.7489Z" fill="#DCF375"/>
<path d="M572.333 71.9679C545.281 71.6502 550.207 52.0699 556.475 49.4033C562.742 46.7366 570.37 51.1006 570.954 58.8364C571.388 64.2809 570.221 68.2569 572.333 71.9679Z" fill="#DCF375"/>
</svg>
