<svg width="538" height="537" viewBox="0 0 538 537" fill="none" xmlns="http://www.w3.org/2000/svg">
<path d="M360.254 518.018L360.257 518.017C367.859 515.859 375.333 513.435 382.482 510.78C448.381 486.31 494.638 439.562 516.1 375.59C535.096 319.026 534.716 250.973 515.155 178.819L513.225 179.342L515.155 178.818C495.239 105.411 459.855 54.2126 409.716 27.0125L409.715 27.0122C352.291 -4.11678 274.508 -3.92547 178.862 26.9508L178.861 26.9512C91.6434 55.1786 38.8615 100.334 17.8561 165.718L17.8561 165.718C-1.67385 226.533 9.41258 298.042 21.1566 353.193C33.6245 411.843 68.035 459.62 120.617 491.356C187.33 531.66 276.911 541.547 360.254 518.018ZM128.171 478.899L128.17 478.899C79.069 449.274 47.0276 404.79 35.4017 350.195C20.2384 278.884 15.4644 216.994 33.1197 166.005C50.7201 115.176 90.7451 74.8301 166.05 46.8669C171.617 44.7996 177.448 42.7726 183.337 40.7596C275.65 10.9613 349.338 10.8386 402.751 39.7826C449 64.9402 482.09 112.835 501.086 182.647C517.126 241.802 521.148 307.499 503.688 364.841C486.254 422.097 447.39 471.1 377.399 497.09C370.628 499.604 363.543 501.924 356.285 503.963L356.282 503.964C276.649 526.476 191.343 517.045 128.171 478.899Z" fill="#757575" stroke="black" stroke-width="4"/>
<path d="M197.174 8.82658L196.478 6.95168L194.603 7.6479L153.772 22.8102L151.897 23.5064L152.593 25.3813L164.03 56.1808L164.726 58.0557L166.601 57.3595L207.433 42.1972L209.307 41.501L208.611 39.6261L197.174 8.82658Z" fill="#DE320E" stroke="black" stroke-width="4"/>
<path d="M41.1931 330.89L40.4968 329.015L38.6219 329.711L7.82239 341.148L5.94749 341.844L6.64371 343.719L21.806 384.551L22.5022 386.426L24.3771 385.729L55.1767 374.292L57.0516 373.596L56.3553 371.721L41.1931 330.89Z" fill="#DE320E" stroke="black" stroke-width="4"/>
<path d="M373.319 483.176L372.623 481.301L370.748 481.998L329.916 497.16L328.041 497.856L328.737 499.731L340.174 530.53L340.871 532.405L342.746 531.709L383.577 516.547L385.452 515.851L384.756 513.976L373.319 483.176Z" fill="#DE320E" stroke="black" stroke-width="4"/>
<path d="M515.515 154.757L514.819 152.882L512.944 153.578L482.145 165.015L480.27 165.711L480.966 167.586L496.128 208.418L496.824 210.293L498.699 209.597L529.499 198.16L531.374 197.464L530.678 195.589L515.515 154.757Z" fill="#DE320E" stroke="black" stroke-width="4"/>
<g style="mix-blend-mode:multiply" opacity="0.18">
<g style="mix-blend-mode:multiply" opacity="0.18">
<path d="M41.4591 377.298L54.4885 372.459L39.3148 331.597L26.2854 336.435C28.2131 343.376 30.4465 350.297 32.9853 357.196C35.5241 364.096 38.3487 370.796 41.4591 377.298Z" fill="#757575"/>
</g>
</g>
<g style="mix-blend-mode:multiply" opacity="0.18">
<g style="mix-blend-mode:multiply" opacity="0.18">
<path d="M498.014 207.764L511.044 202.926C509.137 195.977 506.903 189.057 504.344 182.165C501.785 175.274 498.96 168.573 495.87 162.064L482.841 166.902L498.014 207.764Z" fill="#757575"/>
</g>
</g>
<g style="mix-blend-mode:multiply" opacity="0.18">
<g style="mix-blend-mode:multiply" opacity="0.18">
<path d="M376.37 496.868L371.532 483.838L330.608 499.035L335.447 512.064C342.388 510.136 349.298 507.907 356.177 505.376C363.056 502.844 369.787 500.008 376.37 496.868Z" fill="#757575"/>
</g>
</g>
<g style="mix-blend-mode:multiply" opacity="0.18">
<g style="mix-blend-mode:multiply" opacity="0.18">
<path d="M201.996 27.2594C195.063 29.2075 188.117 31.4038 181.236 33.9592C174.354 36.5146 167.689 39.3725 161.164 42.4217L166.003 55.451L206.834 40.2888L201.996 27.2594Z" fill="#757575"/>
</g>
</g>
<path d="M366.029 179.224C354.178 166.425 339.908 156.102 324.044 148.851C308.179 141.6 291.035 137.565 273.602 136.979L277.602 28.1616C309.351 29.2373 340.572 36.6003 369.456 49.8242C398.34 63.0482 424.314 81.8704 445.874 105.201L366.029 179.224Z" fill="white"/>
<path d="M135.826 264.783L27.0086 260.783C28.0922 229.034 35.4629 197.815 48.694 168.935C61.9252 140.054 80.7539 114.084 104.09 92.5302L178.193 172.31C165.371 184.16 155.025 198.433 147.753 214.306C140.481 230.178 136.427 247.335 135.826 264.783Z" fill="white"/>
<path d="M259.906 511.259C228.157 510.184 196.937 502.821 168.053 489.597C139.169 476.373 113.195 457.551 91.6346 434.22L171.403 360.086C183.26 372.885 197.536 383.207 213.405 390.456C229.275 397.705 246.424 401.737 263.861 402.319L259.906 511.259Z" fill="white"/>
<path d="M433.262 446.857L359.148 367.046C371.938 355.188 382.256 340.917 389.506 325.054C396.756 309.191 400.796 292.05 401.393 274.619L510.21 278.619C509.133 310.354 501.778 341.561 488.571 370.438C475.364 399.314 456.565 425.287 433.262 446.857Z" fill="white"/>
<path d="M91.5076 434.269C69.8309 411.043 52.9752 383.749 41.9157 353.966C30.8562 324.183 25.8126 292.503 27.0766 260.758L135.894 264.759C135.205 282.206 137.98 299.616 144.058 315.985C150.136 332.353 159.398 347.355 171.307 360.124L91.5076 434.269Z" fill="#F54823"/>
<path d="M352.884 496.505C323.163 507.488 291.568 512.503 259.906 511.263L263.937 402.434C281.385 403.13 298.798 400.359 315.168 394.28C331.537 388.202 346.538 378.936 359.303 367.021L433.418 446.832C410.108 468.533 382.739 485.414 352.884 496.505Z" fill="#F54823"/>
<path d="M510.32 278.57L401.502 274.57C402.199 257.122 399.428 239.709 393.349 223.34C387.27 206.97 378.005 191.969 366.09 179.204L445.889 105.059C467.566 128.285 484.421 155.579 495.481 185.362C506.54 215.145 511.584 246.825 510.32 278.57Z" fill="#F54823"/>
<path d="M178.2 172.304L104.096 92.5241C127.313 70.8427 154.601 53.9845 184.38 42.9264C214.159 31.8684 245.837 26.8304 277.577 28.1045L273.554 136.861C256.106 136.17 238.694 138.947 222.326 145.031C205.959 151.115 190.961 160.385 178.2 172.304Z" fill="#F54823"/>
<g style="mix-blend-mode:multiply" opacity="0.18">
<g style="mix-blend-mode:multiply" opacity="0.18">
<path d="M203.43 94.0618C168.699 106.966 138.574 129.878 116.864 159.902C95.1548 189.927 82.8356 225.714 81.4645 262.739C80.0934 299.765 89.7321 336.365 109.162 367.913C128.591 399.461 156.939 424.539 190.621 439.976C224.302 455.413 261.805 460.516 298.387 454.64C334.969 448.764 368.987 432.172 396.139 406.963C423.292 381.754 442.36 349.06 450.932 313.014C459.504 276.969 457.195 239.191 444.297 204.457C435.732 181.392 422.707 160.239 405.967 142.208C389.226 124.177 369.097 109.62 346.73 99.3683C324.363 89.1168 300.196 83.3718 275.608 82.4613C251.02 81.5508 226.494 85.4927 203.43 94.0618ZM314.904 394.258C290.267 403.42 263.467 405.07 237.892 398.999C212.318 392.929 189.118 379.41 171.228 360.152C153.337 340.895 141.56 316.765 137.385 290.813C133.209 264.862 136.824 238.255 147.772 214.358C158.72 190.462 176.509 170.348 198.889 156.563C221.269 142.777 247.235 135.938 273.502 136.911C299.769 137.884 325.158 146.625 346.457 162.028C367.756 177.432 384.008 198.806 393.158 223.447C405.387 256.478 404.016 293.01 389.346 325.031C374.676 357.053 347.904 381.948 314.904 394.258Z" fill="#757575"/>
</g>
</g>
<circle cx="269.041" cy="268.157" r="241.5" transform="rotate(-6.25562 269.041 268.157)" stroke="black" stroke-width="4"/>
<circle cx="268.266" cy="270.255" r="133.5" transform="rotate(-6.25562 268.266 270.255)" stroke="black" stroke-width="4"/>
<rect x="103.364" y="93.4721" width="4" height="107.079" transform="rotate(-42.6358 103.364 93.4721)" fill="black"/>
<rect x="274.882" y="27.5874" width="4" height="108.405" transform="rotate(2.08658 274.882 27.5874)" fill="black"/>
<rect x="443.86" y="102.623" width="4" height="108.405" transform="rotate(46.5144 443.86 102.623)" fill="black"/>
<rect x="433.681" y="443.89" width="4" height="108.405" transform="rotate(136.349 433.681 443.89)" fill="black"/>
<rect x="511.677" y="274.824" width="4" height="108.405" transform="rotate(91.4662 511.677 274.824)" fill="black"/>
<rect x="261.731" y="509.304" width="4" height="105.972" transform="rotate(-177.825 261.731 509.304)" fill="black"/>
<rect x="94.0361" y="434.839" width="4" height="105.972" transform="rotate(-132.666 94.0361 434.839)" fill="black"/>
<rect x="29.3955" y="262.703" width="4" height="105.972" transform="rotate(-87.7733 29.3955 262.703)" fill="black"/>
</svg>
