<svg width="335" height="336" viewBox="0 0 335 336" fill="none" xmlns="http://www.w3.org/2000/svg">
<path d="M224.001 323.607L224.002 323.606C228.739 322.262 233.394 320.752 237.846 319.099C278.881 303.861 307.674 274.759 321.034 234.934C332.864 199.712 332.632 157.319 320.441 112.352C308.031 66.6095 285.993 34.7454 254.8 17.8229L254.799 17.8228C219.069 -1.54593 170.635 -1.44554 111.011 17.8025L111.01 17.8027C56.6596 35.3929 23.8197 63.5123 10.751 104.192L10.7509 104.192C-1.4078 142.053 5.49116 186.595 12.816 220.992C20.5776 257.504 41.9969 287.245 74.7356 307.004C116.278 332.102 172.078 338.265 224.001 323.607ZM79.1907 299.658L79.1904 299.658C48.509 281.147 28.4822 253.345 21.2165 219.225C11.7574 174.74 8.76672 136.082 19.8015 104.214C30.8089 72.4253 55.8393 47.2162 102.857 29.7567C106.333 28.466 109.973 27.2007 113.647 25.9448C171.253 7.34961 217.293 7.25337 250.694 25.3537C279.617 41.0873 300.285 71.0283 312.144 114.61C322.156 151.535 324.672 192.56 313.764 228.381C302.87 264.159 278.579 294.785 234.848 311.024C230.619 312.594 226.193 314.043 221.66 315.317L221.658 315.317C171.934 329.374 118.657 323.49 79.1907 299.658Z" fill="#757575" stroke="black" stroke-width="2"/>
<path d="M95.3726 15.2138L94.4351 15.5619L94.7832 16.4994L101.916 35.7089L102.265 36.6464L103.202 36.2983L128.669 26.8416L129.606 26.4935L129.258 25.5561L122.125 6.34646L121.777 5.40901L120.839 5.75712L95.3726 15.2138Z" fill="#DE320E" stroke="black" stroke-width="2"/>
<path d="M4.34525 213.761L3.4078 214.109L3.75591 215.046L13.2126 240.513L13.5607 241.45L14.4982 241.102L33.7078 233.969L34.6452 233.621L34.2971 232.683L24.8404 207.217L24.4923 206.279L23.5549 206.627L4.34525 213.761Z" fill="#DE320E" stroke="black" stroke-width="2"/>
<path d="M205.234 311.065L204.296 311.413L204.645 312.351L211.778 331.561L212.126 332.498L213.063 332.15L238.53 322.693L239.467 322.345L239.119 321.408L231.986 302.198L231.638 301.261L230.7 301.609L205.234 311.065Z" fill="#DE320E" stroke="black" stroke-width="2"/>
<path d="M300.175 103.909L299.238 104.257L299.586 105.195L309.043 130.661L309.391 131.599L310.328 131.251L329.538 124.117L330.475 123.769L330.127 122.832L320.67 97.3652L320.322 96.4278L319.385 96.7759L300.175 103.909Z" fill="#DE320E" stroke="black" stroke-width="2"/>
<g style="mix-blend-mode:multiply" opacity="0.18">
<path d="M25.2336 236.076L33.36 233.058L23.8962 207.573L15.7698 210.59C16.9721 214.919 18.3651 219.235 19.9485 223.539C21.532 227.842 23.2937 232.021 25.2336 236.076Z" fill="#757575"/>
</g>
<g style="mix-blend-mode:multiply" opacity="0.18">
<path d="M309.988 130.34L318.115 127.323C316.925 122.989 315.532 118.673 313.936 114.374C312.34 110.076 310.578 105.897 308.651 101.837L300.525 104.854L309.988 130.34Z" fill="#757575"/>
</g>
<g style="mix-blend-mode:multiply" opacity="0.18">
<path d="M234.119 310.651L231.101 302.525L205.577 312.003L208.595 320.129C212.924 318.927 217.234 317.537 221.524 315.958C225.815 314.379 230.013 312.61 234.119 310.651Z" fill="#757575"/>
</g>
<g style="mix-blend-mode:multiply" opacity="0.18">
<path d="M125.363 17.7596C121.038 18.9747 116.707 20.3445 112.414 21.9383C108.122 23.5321 103.965 25.3145 99.896 27.2163L102.914 35.3427L128.38 25.886L125.363 17.7596Z" fill="#757575"/>
</g>
<path d="M227.674 112.541C220.283 104.558 211.383 98.1196 201.488 93.5972C191.594 89.0747 180.901 86.5582 170.028 86.1929L172.523 18.3234C192.325 18.9943 211.797 23.5866 229.812 31.8344C247.827 40.0821 264.027 51.8215 277.474 66.3729L227.674 112.541Z" fill="white"/>
<path d="M84.0937 165.902L16.2243 163.407C16.9001 143.606 21.4972 124.135 29.7494 106.122C38.0017 88.1088 49.7451 71.9118 64.2999 58.4685L110.518 108.227C102.521 115.618 96.0678 124.52 91.5323 134.42C86.9967 144.319 84.4685 155.02 84.0937 165.902V165.902Z" fill="white"/>
<path d="M161.481 319.626C141.68 318.955 122.208 314.363 104.193 306.115C86.1776 297.868 69.9776 286.128 56.5307 271.577L106.282 225.34C113.677 233.322 122.581 239.76 132.479 244.282C142.377 248.803 153.073 251.318 163.948 251.681L161.481 319.626Z" fill="white"/>
<path d="M269.602 279.461L223.377 229.683C231.355 222.287 237.79 213.386 242.312 203.492C246.834 193.599 249.353 182.908 249.725 172.036L317.595 174.531C316.923 194.324 312.336 213.788 304.098 231.798C295.861 249.808 284.137 266.008 269.602 279.461V279.461Z" fill="white"/>
<path d="M56.4528 271.607C42.9331 257.121 32.4202 240.098 25.5224 221.522C18.6247 202.947 15.479 183.188 16.2673 163.389L84.1368 165.884C83.7069 176.765 85.4374 187.624 89.2284 197.833C93.0193 208.042 98.7957 217.399 106.224 225.363L56.4528 271.607Z" fill="#F54823"/>
<path d="M219.473 310.426C200.936 317.276 181.23 320.404 161.483 319.63L163.997 251.754C174.879 252.188 185.739 250.46 195.949 246.669C206.159 242.877 215.515 237.099 223.476 229.667L269.701 279.445C255.163 292.98 238.093 303.509 219.473 310.426V310.426Z" fill="#F54823"/>
<path d="M317.665 174.501L249.795 172.005C250.23 161.123 248.501 150.263 244.71 140.053C240.919 129.844 235.14 120.487 227.708 112.526L277.479 66.2818C290.999 80.7679 301.512 97.7912 308.41 116.367C315.307 134.942 318.453 154.701 317.665 174.501Z" fill="#F54823"/>
<path d="M110.523 108.224L64.3044 58.4648C78.7843 44.9421 95.804 34.4277 114.377 27.5308C132.95 20.6339 152.708 17.4917 172.504 18.2864L169.995 86.1177C159.112 85.6868 148.253 87.4187 138.044 91.2132C127.836 95.0077 118.481 100.789 110.523 108.224V108.224Z" fill="#F54823"/>
<g style="mix-blend-mode:multiply" opacity="0.18">
<path d="M126.257 59.4255C104.596 67.4736 85.8067 81.7642 72.2664 100.49C58.7262 119.216 51.0427 141.537 50.1876 164.63C49.3325 187.722 55.3441 210.55 67.4623 230.226C79.5804 249.902 97.2609 265.544 118.268 275.172C139.275 284.8 162.666 287.983 185.482 284.318C208.298 280.653 229.515 270.304 246.45 254.582C263.385 238.859 275.277 218.467 280.624 195.986C285.97 173.504 284.53 149.942 276.486 128.279C271.144 113.893 263.02 100.7 252.579 89.4543C242.138 78.2082 229.584 69.129 215.633 62.7352C201.683 56.3414 186.61 52.7582 171.275 52.1903C155.939 51.6225 140.642 54.081 126.257 59.4255ZM195.783 246.657C180.418 252.372 163.702 253.401 147.751 249.615C131.801 245.828 117.331 237.397 106.173 225.386C95.0144 213.375 87.6688 198.325 85.0648 182.139C82.4609 165.953 84.7155 149.359 91.5437 134.454C98.3719 119.55 109.467 107.005 123.425 98.4073C137.384 89.8092 153.578 85.5438 169.961 86.1506C186.344 86.7574 202.179 92.2091 215.463 101.816C228.747 111.423 238.884 124.754 244.59 140.123C252.217 160.724 251.362 183.509 242.213 203.481C233.063 223.453 216.366 238.98 195.783 246.657V246.657Z" fill="#757575"/>
</g>
<path fill-rule="evenodd" clip-rule="evenodd" d="M183.513 316.981C265.792 307.962 325.18 233.95 316.161 151.672C307.142 69.3937 233.13 10.0053 150.852 19.0244C68.5737 28.0436 9.18537 102.055 18.2045 184.333C27.2236 266.612 101.235 326 183.513 316.981ZM183.731 318.969C267.107 309.829 327.288 234.83 318.149 151.454C309.009 68.0778 234.011 7.89688 150.634 17.0364C67.2578 26.1758 7.07692 101.175 16.2164 184.551C25.3559 267.927 100.355 328.108 183.731 318.969Z" fill="black"/>
<path fill-rule="evenodd" clip-rule="evenodd" d="M250.213 160.154C255.269 206.279 221.977 247.769 175.852 252.825C129.727 257.881 88.2372 224.588 83.1812 178.464C78.1251 132.339 111.418 90.8488 157.542 85.7927C203.667 80.7367 245.157 114.029 250.213 160.154ZM175.634 250.837C220.661 245.901 253.161 205.399 248.225 160.372C243.29 115.345 202.787 82.8451 157.76 87.7808C112.734 92.7165 80.2336 133.219 85.1692 178.246C90.1049 223.272 130.607 255.772 175.634 250.837Z" fill="black"/>
<rect x="63.8495" y="59.0536" width="2.49479" height="66.7848" transform="rotate(-42.6358 63.8495 59.0536)" fill="black"/>
<rect x="170.822" y="17.9598" width="2.49479" height="67.6122" transform="rotate(2.08658 170.822 17.9598)" fill="black"/>
<rect x="276.213" y="64.7606" width="2.49479" height="67.6122" transform="rotate(46.5144 276.213 64.7606)" fill="black"/>
<rect x="269.867" y="277.608" width="2.49479" height="67.6122" transform="rotate(136.349 269.867 277.608)" fill="black"/>
<rect x="318.512" y="172.163" width="2.49479" height="67.6122" transform="rotate(91.4662 318.512 172.163)" fill="black"/>
<rect x="162.621" y="318.405" width="2.49479" height="66.0948" transform="rotate(-177.825 162.621 318.405)" fill="black"/>
<rect x="58.0312" y="271.964" width="2.49479" height="66.0948" transform="rotate(-132.666 58.0312 271.964)" fill="black"/>
<rect x="17.7167" y="164.604" width="2.49479" height="66.0948" transform="rotate(-87.7733 17.7167 164.604)" fill="black"/>
</svg>
