<svg width="1920" height="204" preserveAspectRatio="none" viewBox="0 0 1920 204" fill="none" xmlns="http://www.w3.org/2000/svg">
<path d="M136 81.8261C45.008 81.8248 0.000217378 49 0.000217378 49L0 204H1920V192.759C1920 192.759 1783.64 167.727 1693 162.325C1574.74 155.277 1459.68 200.989 1341.5 192.759C1220.15 184.308 1121.34 100.553 1000 91.8257C861.449 81.8596 838.5 138.262 702.5 138.262C590.42 138.262 494.966 16.7662 384 1.00178C303.12 -10.4885 203 81.8271 136 81.8261Z" fill="white"/>
<path d="M136 91.1132C45.008 91.1119 0.000217378 58.5684 0.000217378 58.5684L0 204H1920V201.096C1920 201.096 1783.64 176.278 1693 170.922C1574.74 163.935 1459.68 209.255 1341.5 201.096C1220.15 192.717 1121.33 109.68 1000 101.027C861.449 91.1464 838.5 147.065 702.5 147.065C590.42 147.065 494.966 26.6109 384 10.9816C303.12 -0.410233 203 91.1142 136 91.1132Z" fill="#43B0F7"/>
</svg>
