<svg width="143" height="40" fill="none" xmlns="http://www.w3.org/2000/svg"><path d="M2.022 39c-.36 0-.684-.126-.972-.378a1.438 1.438 0 01-.378-.972V2.55c0-.396.126-.72.378-.972.288-.252.612-.378.972-.378h7.56c.396 0 .72.126.972.378s.378.576.378.972v27.972h16.2c.396 0 .72.144.972.432.288.252.432.576.432.972v5.724c0 .396-.144.72-.432.972-.252.252-.576.378-.972.378H2.022zm46.267.54c-5.112 0-9.144-1.242-12.096-3.726s-4.518-6.138-4.698-10.962c-.036-1.008-.054-2.556-.054-4.644s.018-3.654.054-4.698c.144-4.752 1.71-8.406 4.698-10.962C39.217 1.956 43.249.66 48.289.66c5.004 0 9 1.296 11.988 3.888 3.024 2.556 4.608 6.21 4.752 10.962.072 2.088.108 3.654.108 4.698 0 1.08-.036 2.628-.108 4.644-.18 4.824-1.746 8.478-4.698 10.962-2.916 2.484-6.93 3.726-12.042 3.726zm0-8.1c1.872 0 3.366-.558 4.482-1.674 1.116-1.152 1.71-2.898 1.782-5.238.072-2.088.108-3.582.108-4.482 0-.9-.036-2.358-.108-4.374-.072-2.34-.666-4.068-1.782-5.184-1.116-1.152-2.61-1.728-4.482-1.728-1.908 0-3.42.576-4.536 1.728-1.116 1.116-1.71 2.844-1.782 5.184a132.187 132.187 0 00-.054 4.374c0 1.944.018 3.438.054 4.482.072 2.34.666 4.086 1.782 5.238 1.116 1.116 2.628 1.674 4.536 1.674zm38.763 8.1c-5.22 0-9.306-1.26-12.258-3.78-2.951-2.556-4.517-6.192-4.697-10.908-.036-1.008-.054-2.646-.054-4.914s.017-3.924.053-4.968c.144-4.536 1.71-8.046 4.698-10.53C77.82 1.92 81.904.66 87.052.66c3.456 0 6.462.558 9.018 1.674 2.593 1.116 4.554 2.556 5.886 4.32 1.368 1.728 2.088 3.51 2.16 5.346 0 .324-.126.612-.378.864a1.099 1.099 0 01-.81.324h-8.37c-.36 0-.648-.054-.864-.162a2.954 2.954 0 01-.54-.594c-.431-1.008-1.133-1.872-2.105-2.592-.937-.72-2.269-1.08-3.997-1.08-4.176 0-6.336 2.16-6.48 6.48-.035 1.008-.053 2.556-.053 4.644s.017 3.654.053 4.698c.144 4.572 2.34 6.858 6.588 6.858 2.089 0 3.745-.522 4.969-1.566 1.224-1.044 1.835-2.628 1.835-4.752v-.972H89.16c-.397 0-.739-.126-1.027-.378a1.507 1.507 0 01-.378-1.026v-4.212c0-.396.126-.72.378-.972.288-.288.63-.432 1.026-.432h13.716c.396 0 .72.144.972.432.288.252.432.576.432.972v6.264c0 3.06-.72 5.706-2.16 7.938-1.404 2.196-3.401 3.888-5.993 5.076-2.593 1.152-5.617 1.728-9.073 1.728zm38.862 0c-5.112 0-9.144-1.242-12.096-3.726s-4.518-6.138-4.698-10.962c-.036-1.008-.054-2.556-.054-4.644s.018-3.654.054-4.698c.144-4.752 1.71-8.406 4.698-10.962C116.842 1.956 120.874.66 125.914.66c5.004 0 9 1.296 11.988 3.888 3.024 2.556 4.608 6.21 4.752 10.962.072 2.088.108 3.654.108 4.698 0 1.08-.036 2.628-.108 4.644-.18 4.824-1.746 8.478-4.698 10.962-2.916 2.484-6.93 3.726-12.042 3.726zm0-8.1c1.872 0 3.366-.558 4.482-1.674 1.116-1.152 1.71-2.898 1.782-5.238.072-2.088.108-3.582.108-4.482 0-.9-.036-2.358-.108-4.374-.072-2.34-.666-4.068-1.782-5.184-1.116-1.152-2.61-1.728-4.482-1.728-1.908 0-3.42.576-4.536 1.728-1.116 1.116-1.71 2.844-1.782 5.184a132.187 132.187 0 00-.054 4.374c0 1.944.018 3.438.054 4.482.072 2.34.666 4.086 1.782 5.238 1.116 1.116 2.628 1.674 4.536 1.674z" fill="#fff"/></svg>