<svg width="846" height="378" fill="none" xmlns="http://www.w3.org/2000/svg"><path d="M230.908 238.211h40.283v56.885h-40.283V372h-70.556v-76.904H14.6l-3.174-44.434 148.193-234.13h71.289V238.21zm-149.17 0h78.614V112.723l-4.639 8.056-73.975 117.432zm466.797-13.184c0 49.154-10.172 86.752-30.517 112.793-20.346 26.042-50.131 39.063-89.356 39.063-38.737 0-68.359-12.777-88.867-38.33-20.508-25.554-31.006-62.175-31.494-109.864V163.26c0-49.642 10.254-87.321 30.761-113.037 20.671-25.716 50.375-38.575 89.112-38.575 38.737 0 68.359 12.777 88.867 38.33 20.508 25.391 31.006 61.931 31.494 109.62v65.429zm-70.557-71.777c0-29.46-4.069-50.863-12.207-64.209-7.975-13.51-20.507-20.264-37.597-20.264-16.602 0-28.89 6.43-36.865 19.287-7.813 12.696-11.963 32.634-12.452 59.815v86.426c0 28.971 3.907 50.537 11.719 64.697 7.975 13.997 20.671 20.996 38.086 20.996 17.253 0 29.704-6.755 37.354-20.264 7.649-13.509 11.637-34.179 11.962-62.011V153.25zm327.149 84.961h40.283v56.885h-40.283V372H734.57v-76.904H588.818l-3.174-44.434 148.194-234.13h71.289V238.21zm-149.17 0h78.613V112.723l-4.638 8.056-73.975 117.432z" fill="#2062AF"/><path d="M219.908 227.211h40.283v56.885h-40.283V361h-70.556v-76.904H3.6L.426 239.662 148.619 5.532h71.289V227.21zm-149.17 0h78.614V101.723l-4.639 8.056-73.975 117.432zm466.797-13.184c0 49.154-10.172 86.752-30.517 112.793-20.346 26.042-50.131 39.063-89.356 39.063-38.737 0-68.359-12.777-88.867-38.33-20.508-25.554-31.006-62.175-31.494-109.864V152.26c0-49.642 10.254-87.321 30.761-113.037C348.733 13.507 378.437.648 417.174.648c38.737 0 68.359 12.777 88.867 38.33 20.508 25.391 31.006 61.931 31.494 109.62v65.429zm-70.557-71.777c0-29.46-4.069-50.863-12.207-64.209-7.975-13.51-20.507-20.264-37.597-20.264-16.602 0-28.89 6.43-36.865 19.287-7.813 12.696-11.963 32.634-12.452 59.815v86.426c0 28.971 3.907 50.537 11.719 64.697 7.975 13.997 20.671 20.996 38.086 20.996 17.253 0 29.704-6.755 37.354-20.264 7.649-13.509 11.637-34.179 11.962-62.011V142.25zm327.149 84.961h40.283v56.885h-40.283V361H723.57v-76.904H577.818l-3.174-44.434L722.838 5.532h71.289V227.21zm-149.17 0h78.613V101.723l-4.638 8.056-73.975 117.432z" fill="#1D2E3E"/></svg>