<svg width="390" height="373" fill="none" xmlns="http://www.w3.org/2000/svg"><g opacity=".2" fill-rule="evenodd" clip-rule="evenodd"><path d="M260.371 180.606L206.129 0h-27.388l54.166 180.606h27.464zM372.552 24.788L360.286 1.63 237.021 66.064l7.618 25.547 127.913-66.823zm-178.27 63.677L18.336 180.53h56.528l127.113-66.481-7.695-25.584zm-79.498 242.577l-10.551 34.87 149.777-78.61-7.618-25.508-131.608 69.248zm174.232-91.346l7.619 25.471 73.707-38.737h-56.261l-25.065 13.266zm-42.32-13.152L290.578 373l25.217-7.581-41.673-138.989-27.426.114z" fill="#2062AF"/><path d="M177.795 83.776l-32.482 16.98 26.389-88.233 13.709 45.746-7.616 25.508zM107.69 190.242l-7.844 26.189H12.49L0 190.279h107.69v-.038zm17.783-22.741l32.444-16.98L91.354 373l-24.943-7.581L125.473 167.5zm23.686 49.271l7.845-26.189H376.61l12.491 26.189H149.159z" fill="#A7A9AB"/></g></svg>