<svg width="847" height="423" fill="none" xmlns="http://www.w3.org/2000/svg"><path d="M330 1c-69.85 0-127 56.88-127 126.4 0 85.32 111.125 181.7 115.888 186.44 3.174 1.58 7.937 3.16 11.112 3.16s7.938-1.58 11.113-3.16C345.875 309.1 457 212.72 457 127.4 457 57.88 399.85 1 330 1zm0 279.66c-33.338-31.6-95.25-99.54-95.25-153.26 0-52.14 42.863-94.8 95.25-94.8s95.25 42.66 95.25 94.8S363.337 249.06 330 280.66zm0-216.46c-34.925 0-63.5 28.44-63.5 63.2 0 34.76 28.575 63.2 63.5 63.2s63.5-28.44 63.5-63.2c0-34.76-28.575-63.2-63.5-63.2zm0 94.8c-17.463 0-31.75-14.22-31.75-31.6 0-17.38 14.287-31.6 31.75-31.6 17.462 0 31.75 14.22 31.75 31.6 0 17.38-14.288 31.6-31.75 31.6z" fill="#A7A9AB"/><path d="M815 186c-17.6 0-32 14.22-32 31.6 0 21.33 28 45.425 29.2 46.61.8.395 2 .79 2.8.79.8 0 2-.395 2.8-.79 1.2-1.185 29.2-25.28 29.2-46.61 0-17.38-14.4-31.6-32-31.6zm0 69.915c-8.4-7.9-24-24.885-24-38.315 0-13.035 10.8-23.7 24-23.7s24 10.665 24 23.7-15.6 30.415-24 38.315zm0-54.115c-8.8 0-16 7.11-16 15.8 0 8.69 7.2 15.8 16 15.8s16-7.11 16-15.8c0-8.69-7.2-15.8-16-15.8zm0 23.7c-4.4 0-8-3.555-8-7.9 0-4.345 3.6-7.9 8-7.9s8 3.555 8 7.9c0 4.345-3.6 7.9-8 7.9zM32 249.315c-17.6 0-32 14.22-32 31.6 0 21.33 28 45.425 29.2 46.61.8.395 2 .79 2.8.79.8 0 2-.395 2.8-.79 1.2-1.185 29.2-25.28 29.2-46.61 0-17.38-14.4-31.6-32-31.6zm0 69.915c-8.4-7.9-24-24.885-24-38.315 0-13.035 10.8-23.7 24-23.7s24 10.665 24 23.7-15.6 30.415-24 38.315zm0-54.115c-8.8 0-16 7.11-16 15.8 0 8.69 7.2 15.8 16 15.8s16-7.11 16-15.8c0-8.69-7.2-15.8-16-15.8zm0 23.7c-4.4 0-8-3.555-8-7.9 0-4.345 3.6-7.9 8-7.9s8 3.555 8 7.9c0 4.345-3.6 7.9-8 7.9zm421 71.028c-17.259 0-31.25 14.138-31.25 31.578C421.75 408.862 435.741 423 453 423c17.258 0 31.249-14.138 31.249-31.579-.006-17.438-13.993-31.572-31.249-31.578zm0 50.526c-10.355 0-18.751-8.483-18.751-18.948 0-10.464 8.395-18.947 18.751-18.947 10.355 0 18.75 8.483 18.75 18.947-.031 10.452-8.408 18.917-18.75 18.948zm273.375-119.432l-43.063-49.011a6.255 6.255 0 00-4.687-2.084H659.25V303c.01 3.484 2.802 6.305 6.25 6.316H728v-14.148a6.408 6.408 0 00-1.625-4.231zm-73.376 68.906c-17.258 0-31.249 14.138-31.249 31.578 0 17.441 13.991 31.579 31.249 31.579 17.259 0 31.25-14.138 31.25-31.579-.006-17.438-13.994-31.572-31.25-31.578zm0 50.526c-10.355 0-18.75-8.483-18.75-18.948 0-10.464 8.395-18.947 18.75-18.947s18.751 8.483 18.751 18.947c-.031 10.452-8.408 18.917-18.751 18.948z" fill="#2062AF"/><path d="M496.25 385.105h19.25v-25.262h-31.937a44.164 44.164 0 0112.687 25.262zm-43.25 0c-3.452 0-6.25 2.828-6.25 6.316 0 3.489 2.797 6.316 6.25 6.316 3.452 0 6.25-2.827 6.25-6.316-.011-3.483-2.802-6.305-6.25-6.316zm-62.5-25.262v18.947c.011 3.484 2.803 6.306 6.251 6.316h12.999a44.177 44.177 0 0112.688-25.263H390.5zm218.75-170.527c-.01-3.484-2.802-6.306-6.25-6.316H384.25c-3.448.01-6.24 2.832-6.25 6.316v157.895h231.25V189.316zm-37.5 170.527H528v25.262h43.75v-25.262zM646.749 303v-63.159H621.75V347.21h31.249c21.726.033 40.139 16.167 43.25 37.895h25.501c3.447-.01 6.239-2.832 6.25-6.316v-56.842h-62.501c-10.342-.031-18.72-8.496-18.75-18.947zm-62.5 56.843v25.262h25.5c1.358-9.604 5.818-18.485 12.688-25.262h-38.188zM653 385.105c-3.451 0-6.25 2.828-6.25 6.316 0 3.489 2.798 6.316 6.25 6.316s6.25-2.827 6.25-6.316c-.01-3.483-2.803-6.305-6.25-6.316z" fill="#1D2E3E"/><path d="M434.791 19.972a.5.5 0 10.418.908l-.418-.908zm269.703 14.886l.277-.416-.277.416zm104.009 138.196a.5.5 0 00.994-.108l-.994.108zM435.209 20.88c.716-.33 1.449-.657 2.201-.982l-.396-.918c-.759.327-1.5.658-2.223.992l.418.908zm6.784-2.838a140.87 140.87 0 014.671-1.683l-.323-.947a140.823 140.823 0 00-4.704 1.695l.356.935zm9.373-3.207c1.532-.473 3.106-.935 4.719-1.388l-.271-.963c-1.62.455-3.202.92-4.743 1.395l.295.956zm9.502-2.67c1.582-.406 3.197-.803 4.843-1.19l-.228-.973a247.97 247.97 0 00-4.863 1.193l.248.97zm9.632-2.267c1.592-.344 3.21-.679 4.853-1.004l-.195-.98a295.24 295.24 0 00-4.869 1.006l.211.978zm9.734-1.931c1.598-.29 3.216-.573 4.853-.846l-.164-.987c-1.643.275-3.265.557-4.868.849l.179.984zm9.765-1.63a376.87 376.87 0 014.883-.713l-.138-.99c-1.648.229-3.281.467-4.896.714l.151.988zm9.796-1.366c1.626-.206 3.267-.403 4.921-.592l-.113-.994c-1.658.19-3.303.387-4.934.594l.126.992zm9.836-1.124c1.637-.168 3.286-.327 4.946-.478l-.09-.996c-1.664.151-3.317.311-4.958.479l.102.995zm9.864-.896c1.644-.131 3.298-.254 4.96-.368l-.068-.997c-1.666.114-3.324.237-4.971.368l.079.997zm9.883-.678c1.646-.095 3.3-.182 4.961-.26l-.047-.998c-1.664.078-3.322.164-4.971.26l.057.998zm9.896-.465a474.42 474.42 0 014.96-.154l-.025-1c-1.663.043-3.32.095-4.971.155l.036 1zm9.904-.255c1.649-.025 3.302-.04 4.959-.048l-.005-1c-1.66.007-3.317.024-4.969.049l.015 1zm9.906-.044c1.65.01 3.302.029 4.957.057l.017-1a461.546 461.546 0 00-4.967-.057l-.007 1zm9.905.167c1.65.046 3.301.101 4.952.165l.039-.999a450.21 450.21 0 00-4.963-.165l-.028 1zm9.898.385c1.649.082 3.298.174 4.946.276l.062-.999a434.514 434.514 0 00-4.958-.276l-.05.999zm9.887.608c1.647.12 3.293.25 4.937.39l.085-.996c-1.648-.14-3.298-.27-4.949-.391l-.073.997zm9.869.84c1.644.161 3.286.331 4.924.512l.11-.994a396.58 396.58 0 00-4.937-.512l-.097.995zm9.844 1.086c1.64.202 3.277.415 4.909.638l.135-.99a370.35 370.35 0 00-4.922-.64l-.122.992zm9.81 1.344c1.636.247 3.266.505 4.89.774l.163-.987c-1.628-.27-3.263-.528-4.903-.776l-.15.989zm9.768 1.62c1.629.294 3.251.6 4.865.92l.193-.982c-1.619-.32-3.246-.627-4.88-.923l-.178.984zm9.711 1.915c1.62.347 3.232.707 4.835 1.078l.226-.974a292.507 292.507 0 00-4.852-1.081l-.209.977zm9.639 2.238c1.61.404 3.209.82 4.797 1.25l.261-.965c-1.594-.432-3.199-.85-4.815-1.255l-.243.97zm9.547 2.587c1.596.466 3.179.947 4.748 1.441l.301-.954a238.42 238.42 0 00-4.769-1.447l-.28.96zm9.43 2.972a209.67 209.67 0 014.684 1.651l.344-.939a211.913 211.913 0 00-4.706-1.659l-.322.947zm9.296 3.404a185.02 185.02 0 014.583 1.877l.391-.92a185.8 185.8 0 00-4.607-1.888l-.367.93zm9.104 3.877c1.505.691 2.988 1.4 4.45 2.126l.445-.895a163.692 163.692 0 00-4.477-2.14l-.418.909zm8.852 4.403c1.455.784 2.886 1.586 4.292 2.408l.505-.864a143.092 143.092 0 00-4.323-2.425l-.474.88zm8.521 4.986c.691.44 1.375.884 2.052 1.334l.554-.833c-.683-.454-1.373-.902-2.07-1.345l-.536.843zm2.052 1.334c.691.458 1.377.918 2.06 1.38l.56-.829c-.685-.463-1.374-.924-2.066-1.384l-.554.833zm6.11 4.164c1.358.95 2.699 1.904 4.025 2.864l.587-.81a309.68 309.68 0 00-4.039-2.873l-.573.82zm7.989 5.78a303.3 303.3 0 013.916 2.982l.613-.79a304.53 304.53 0 00-3.93-2.992l-.599.8zm7.794 6.036a291.358 291.358 0 013.813 3.107l.638-.77a293.348 293.348 0 00-3.826-3.117l-.625.78zm7.578 6.28a290.912 290.912 0 013.719 3.245l.664-.748a298.355 298.355 0 00-3.732-3.255l-.651.759zm7.373 6.542a292.543 292.543 0 013.593 3.356l.689-.724a288.269 288.269 0 00-3.606-3.369l-.676.737zm7.143 6.789a278.087 278.087 0 013.48 3.486l.714-.7a280.136 280.136 0 00-3.493-3.499l-.701.713zm6.892 7.025a271.294 271.294 0 013.356 3.609l.738-.675a272.62 272.62 0 00-3.368-3.621l-.726.688zm6.65 7.281a270.407 270.407 0 013.221 3.727l.762-.647a265.71 265.71 0 00-3.233-3.74l-.75.66zm6.367 7.507a257.142 257.142 0 013.074 3.837l.787-.617a264.68 264.68 0 00-3.086-3.853l-.775.633zm6.085 7.748c1 1.325 1.977 2.647 2.931 3.964l.81-.586a251.578 251.578 0 00-2.943-3.98l-.798.602zm5.779 7.983a236.928 236.928 0 012.763 4.073l.834-.553a233.39 233.39 0 00-2.776-4.09l-.821.57zm5.44 8.202a221.165 221.165 0 012.586 4.185l.856-.516a223.108 223.108 0 00-2.597-4.204l-.845.535zm5.077 8.427c.827 1.446 1.625 2.88 2.392 4.299l.88-.475a209.415 209.415 0 00-2.404-4.321l-.868.497zm4.68 8.658a186.57 186.57 0 012.175 4.417l.903-.429a190.605 190.605 0 00-2.187-4.442l-.891.454zm4.229 8.895c.679 1.537 1.319 3.05 1.92 4.535l.927-.375a162.13 162.13 0 00-1.932-4.564l-.915.404zm3.692 9.127c.58 1.584 1.114 3.132 1.602 4.641l.952-.308a131.208 131.208 0 00-1.615-4.677l-.939.344zm3.012 9.336a93.64 93.64 0 011.187 4.78l.977-.215a95.397 95.397 0 00-1.2-4.831l-.964.266zm2.082 9.585c.125.828.229 1.633.314 2.414l.994-.108a58.814 58.814 0 00-.319-2.455l-.989.149zm-631.156-50.913a.501.501 0 01-.169.986l.169-.986zM60.853 158.07l.335.371-.334-.371zm-29.046 72.372a.5.5 0 11-.988.153l.988-.153zm145.057-109.729a42.245 42.245 0 00-2.541-.353l.108-.994a43.82 43.82 0 012.602.361l-.169.986zm-7.679-.673a84.88 84.88 0 00-5.155.054l-.039-1a85.996 85.996 0 015.216-.053l-.022.999zm-10.331.384c-1.668.144-3.384.326-5.141.546l-.124-.993c1.769-.221 3.498-.404 5.179-.55l.086.997zm-10.285 1.276c-1.672.265-3.374.559-5.1.884l-.184-.983c1.735-.326 3.446-.623 5.127-.889l.157.988zm-10.182 1.908a219.7 219.7 0 00-5.061 1.154l-.234-.972c1.709-.412 3.406-.798 5.085-1.159l.21.977zm-10.092 2.429c-1.658.44-3.324.903-4.995 1.387l-.278-.96a226.57 226.57 0 015.016-1.394l.257.967zm-9.96 2.887a230.36 230.36 0 00-4.932 1.611l-.321-.947a232.332 232.332 0 014.953-1.618l.3.954zm-9.826 3.333a217.647 217.647 0 00-4.852 1.833l-.365-.931a221.546 221.546 0 014.874-1.842l.343.94zm-9.66 3.782c-1.6.672-3.186 1.362-4.756 2.07l-.41-.912a200.879 200.879 0 014.78-2.08l.387.922zm-9.454 4.265c-1.566.759-3.11 1.536-4.629 2.329l-.463-.886a173.588 173.588 0 014.656-2.342l.436.899zm-9.177 4.801c-1.523.861-3.014 1.74-4.468 2.635l-.525-.851a137.827 137.827 0 014.5-2.654l.493.87zm-8.822 5.441c-1.45.98-2.856 1.977-4.212 2.992l-.6-.801a108.051 108.051 0 014.252-3.02l.56.829zm-8.267 6.208a80.945 80.945 0 00-1.941 1.687l-.669-.743a79.57 79.57 0 011.965-1.709l.645.765zm-1.941 1.687a96.58 96.58 0 00-1.86 1.717l-.687-.725a95.17 95.17 0 011.878-1.735l.669.743zm-5.422 5.284a91.084 91.084 0 00-3.366 3.759l-.763-.646a93.101 93.101 0 013.403-3.801l.726.688zm-6.515 7.695a89.606 89.606 0 00-2.924 4.109l-.83-.557a90.192 90.192 0 012.956-4.154l.798.602zm-5.613 8.377a89.538 89.538 0 00-2.441 4.409l-.889-.46a90.373 90.373 0 012.469-4.458l.86.509zm-4.632 8.95a89.97 89.97 0 00-1.933 4.662l-.934-.357a90.802 90.802 0 011.954-4.713l.913.408zm-3.602 9.422a89.634 89.634 0 00-1.399 4.846l-.968-.251a90.684 90.684 0 011.415-4.899l.952.304zm-2.522 9.761a85.902 85.902 0 00-.836 4.968l-.99-.136c.223-1.623.503-3.302.846-5.026l.98.194zm-1.37 9.984a70.982 70.982 0 00-.201 5.024l-1-.004c.005-1.59.069-3.294.203-5.094l.997.074zm-.001 10.048c.079.895.18 1.723.296 2.48l-.988.153a39.42 39.42 0 01-.304-2.544l.996-.089z" fill="#A7A9AB"/></svg>