<svg width="664" height="564" fill="none" xmlns="http://www.w3.org/2000/svg"><path opacity=".3" d="M0 74.007a5.6 5.6 0 012.8-4.849L121.283.75a5.6 5.6 0 015.596-.002l447.101 257.76a5.607 5.607 0 012.802 4.85v36.792l71.274 40.616a5.595 5.595 0 012.744 3.95l12.926 77.854c.172.542.273 1.11.273 1.694v65.712a5.6 5.6 0 01-2.8 4.849L542.724 563.22a5.606 5.606 0 01-5.598 0l-51.9-29.483c-.96 7.119-4.265 13.002-9.868 16.237-2.9 1.674-6.105 2.471-9.447 2.471-10.628 0-22.612-8.057-30.376-21.503-4.634-8.026-7.02-16.801-6.721-24.707.062-1.636.272-3.179.553-4.669l-95.165-54.938c-1.114 6.709-4.39 12.221-9.753 15.317-2.9 1.674-6.106 2.47-9.447 2.47-10.628-.001-22.612-8.056-30.377-21.502-3.17-5.49-5.258-11.327-6.184-17-1.639 2.654-3.794 4.871-6.514 6.443-2.9 1.674-6.106 2.47-9.447 2.47-10.628 0-22.612-8.056-30.377-21.502-4.634-8.025-7.021-16.801-6.721-24.707.06-1.573.259-3.057.52-4.496l-6.129-3.537a5.598 5.598 0 01-2.799-4.85v-36.638l-34.526-19.903-32.274 18.529a5.597 5.597 0 01-5.614-.028l-10.718-6.281c-1.141 6.892-4.492 12.241-9.714 15.257-2.871 1.659-6.066 2.483-9.45 2.483-3.934 0-8.119-1.117-12.335-3.342-6.998-3.696-13.403-10.15-18.036-18.174-3.251-5.632-5.302-11.427-6.212-16.941-1.654 2.656-3.813 4.84-6.488 6.384-2.87 1.658-6.066 2.483-9.45 2.483-3.934 0-8.119-1.117-12.335-3.343-6.997-3.695-13.404-10.149-18.037-18.174-5.812-10.067-7.81-20.663-6.226-29.219l-6.103-3.522a5.599 5.599 0 01-2.8-4.85v-36.841l-13.85-7.985a5.601 5.601 0 01-2.803-4.852L0 74.007zm124.085-61.944L16.801 74.003l435.907 251.289 107.272-61.93L124.085 12.063zm441.5 260.994l-107.277 61.932v27.151l107.277-61.942v-27.141zm5.639 36.816l-107.239 61.919 62.806 35.782 107.241-61.91-62.808-35.791zm4.012 221.651l47.854-27.628v-20.929l-47.854 27.627v20.93zm-8.398-29.011l59.051-34.09a5.595 5.595 0 015.599 0 5.596 5.596 0 012.8 4.849v.23l18.514-11.133v-28.408l-107.278 61.937.001 29.574 18.513-11.137v-6.973a5.602 5.602 0 012.8-4.849zm-31.731-72.035l108.215-62.475-2.237-13.483-108.138 62.429 2.16 13.529zm1.891 11.837l6.664 41.727 108.519-62.652-6.901-41.588-108.282 62.513zm-15.293-24.751l-15.136-8.623v58.037l25.368 14.647-10.232-64.061zm131.097 57.872l-18.514 11.133v10.863l18.514-10.688v-11.308zm-88.764 62.553v-10.584l-18.513 11.135v10.136l18.513-10.687zm-85.252-32.018c.002 0 .002 0 0 0 2.77 4.798 4.647 9.711 5.713 14.474l49.826 28.303v-52.815l-36.155-20.874a5.596 5.596 0 01-2.8-4.849v-67.649l-37.062-21.115V486.64c.812.347 1.625.727 2.441 1.157 6.998 3.693 13.404 10.149 18.037 18.174zm-33.553 19.372c7.426 12.858 18.887 18.192 24.526 14.935 5.641-3.257 6.754-15.849-.67-28.708-3.541-6.133-8.487-11.189-13.568-13.87-2.498-1.319-7.243-3.207-10.96-1.066-3.716 2.146-4.449 7.202-4.557 10.024-.216 5.743 1.689 12.553 5.229 18.685zm-6.269-38.405c2.498-1.443 5.247-2.245 8.148-2.431v-12.742l-59.506-34.303v27.064l46.334 26.749c1.415-1.732 3.074-3.213 5.024-4.337zm-144.638-49.626c7.425 12.858 18.885 18.19 24.526 14.936 5.641-3.258 6.753-15.85-.671-28.709-3.54-6.132-8.485-11.188-13.566-13.87-1.683-.889-4.383-2.035-7.102-2.035-1.319 0-2.643.27-3.857.97-3.716 2.146-4.451 7.202-4.557 10.023-.22 5.743 1.685 12.555 5.227 18.685zm-52.523-29.588c7.426 12.857 18.886 18.189 24.526 14.935 5.643-3.258 6.754-15.85-.67-28.709-3.54-6.132-8.485-11.188-13.566-13.87-1.683-.889-4.383-2.035-7.102-2.035-1.319 0-2.643.27-3.857.97-3.716 2.146-4.451 7.202-4.557 10.024-.22 5.743 1.685 12.552 5.226 18.685zm-13.63-35.225l2.228 1.287c1.436-1.789 3.133-3.314 5.132-4.468 6.209-3.588 13.945-3.281 21.786.858 6.998 3.695 13.403 10.149 18.037 18.174 2.817 4.876 4.708 9.872 5.763 14.708l1.401.809c1.511-2.014 3.351-3.699 5.535-4.96 6.209-3.587 13.945-3.281 21.787.858 6.997 3.695 13.402 10.149 18.035 18.174 2.976 5.154 4.926 10.443 5.938 15.533l42.593 24.589.001-27.057-148.235-85.455v26.95h-.001zm-56.929-59.767l-18.252-10.522v21.061l18.252-10.539zm-77.24 9.306c3.54 6.132 8.486 11.188 13.567 13.87 2.498 1.318 7.242 3.208 10.96 1.065 3.716-2.146 4.451-7.202 4.557-10.024.218-5.743-1.688-12.553-5.228-18.685-7.425-12.858-18.884-18.191-24.526-14.935-5.642 3.257-6.754 15.849.67 28.709zm-52.523-29.591c3.541 6.132 8.487 11.188 13.568 13.87 2.498 1.317 7.242 3.208 10.96 1.065 3.716-2.145 4.45-7.201 4.557-10.023.217-5.743-1.688-12.553-5.228-18.685-7.425-12.858-18.884-18.194-24.526-14.935-5.641 3.258-6.754 15.85.669 28.708zm-13.63-35.224l2.233 1.288c1.422-1.778 3.115-3.306 5.128-4.47 12.127-7.001 29.618 1.362 39.822 19.034 2.742 4.751 4.675 9.763 5.751 14.703l1.41.813c1.495-2 3.336-3.688 5.537-4.959 12.127-7.002 29.619 1.362 39.823 19.033 2.904 5.03 4.924 10.353 5.954 15.574l8.282 4.853v-27.337L27.851 230.07v27.153zm419.261 201.616V334.991L11.198 83.697v123.845l435.914 251.297z" fill="#2062AF"/></svg>