<svg width="196" height="113" viewBox="0 0 196 113" fill="none" xmlns="http://www.w3.org/2000/svg">
<circle cx="81.5" cy="53.5" r="41.5" fill="#F2F9FF"/>
<path d="M120 18L112.504 14.9263C111.078 14.3417 109.463 14.4471 108.125 15.2118L54.7468 45.7291C53.1963 46.6156 52.2363 48.2618 52.2285 50.0479L52.0127 99.3636C52.0049 101.165 52.9662 102.831 54.5294 103.725L62 108L62.6536 57.6251L65.6436 51.645L120 18Z" fill="url(#paint0_linear_580_9780)"/>
<path d="M121.706 20.7646C121.706 18.0032 119.767 16.8839 117.375 18.2646L64.7397 48.6539C62.3482 50.0346 60.4096 53.3925 60.4096 56.1539L60.4096 105.005C60.4096 107.767 62.3482 108.886 64.7397 107.505L117.375 77.1162C119.767 75.7355 121.706 72.3776 121.706 69.6162L121.706 20.7646Z" fill="#2595FF"/>
<rect width="56.8109" height="11.8113" rx="5" transform="matrix(0.866025 -0.5 2.20305e-08 1 66.4484 54.6372)" fill="#48FAC9"/>
<rect x="0.866025" y="0.5" width="54.8109" height="44.3458" rx="4" transform="matrix(0.866025 -0.5 2.20305e-08 1 66.5644 55.0702)" stroke="white" stroke-width="2"/>
<circle r="1.36874" transform="matrix(0.866025 -0.5 -2.20305e-08 -1 73.6136 56.6905)" fill="white"/>
<circle r="1.36874" transform="matrix(0.866025 -0.5 -2.20305e-08 -1 76.6036 55.1954)" fill="white"/>
<circle r="1.36874" transform="matrix(0.866025 -0.5 -2.20305e-08 -1 79.5936 53.6998)" fill="white"/>
<line y1="-1" x2="53.8209" y2="-1" transform="matrix(0.866025 -0.5 2.20305e-08 1 67.7433 65.8496)" stroke="white" stroke-width="2"/>
<path fill-rule="evenodd" clip-rule="evenodd" d="M100.915 70.2126L93.1219 59.0787C92.9295 58.8038 92.4484 59.0815 92.256 59.5786L84.4632 79.7109C84.2708 80.208 84.5113 80.5516 84.8962 80.3294L100.482 71.3311C100.867 71.1089 101.107 70.4875 100.915 70.2126ZM94.4207 57.4603C93.651 56.3607 91.7269 57.4716 90.9572 59.46L83.1644 79.5922C82.3948 81.5806 83.3569 82.9551 84.8962 82.0664L100.482 73.0681C102.021 72.1794 102.983 69.6939 102.213 68.5942L94.4207 57.4603Z" fill="white"/>
<path d="M93.5674 69.3687L92.2157 70.1491L91.8925 67.5647L91.8925 65.3027L93.8907 64.149L93.8907 66.411L93.5674 69.3687ZM91.8729 72.2132C91.8729 71.8889 91.9709 71.5572 92.1668 71.2179C92.3692 70.8672 92.6108 70.6109 92.8916 70.4488C93.1724 70.2867 93.4107 70.2659 93.6066 70.3866C93.809 70.4959 93.9103 70.7127 93.9103 71.0369C93.9103 71.3687 93.809 71.7061 93.6066 72.0492C93.4107 72.3885 93.1724 72.6392 92.8916 72.8013C92.6108 72.9634 92.3692 72.9898 92.1668 72.8805C91.9709 72.7674 91.8729 72.5449 91.8729 72.2132Z" fill="white"/>
<path d="M156 67L158.431 73.5692L165 76L158.431 78.4308L156 85L153.569 78.4308L147 76L153.569 73.5692L156 67Z" fill="#48FAC9"/>
<path d="M171 30L172.621 34.3795L177 36L172.621 37.6205L171 42L169.379 37.6205L165 36L169.379 34.3795L171 30Z" fill="#E6F3FF"/>
<ellipse cx="77.1404" cy="61.1319" rx="76.7499" ry="19.9552" transform="rotate(-10.9188 77.1404 61.1319)" stroke="url(#paint1_linear_580_9780)" stroke-width="2" stroke-linecap="round"/>
<defs>
<linearGradient id="paint0_linear_580_9780" x1="73.8682" y1="19.5061" x2="43.9676" y2="67.3469" gradientUnits="userSpaceOnUse">
<stop offset="0.524251" stop-color="#1681E5"/>
<stop offset="0.63761" stop-color="#479FFF"/>
<stop offset="0.73254" stop-color="#2595FF"/>
</linearGradient>
<linearGradient id="paint1_linear_580_9780" x1="42.972" y1="76.4915" x2="42.5601" y2="42.1751" gradientUnits="userSpaceOnUse">
<stop stop-color="#EAF3FE"/>
<stop offset="1" stop-color="#E3EDFF" stop-opacity="0"/>
</linearGradient>
</defs>
</svg>
