<svg width="196" height="113" viewBox="0 0 196 113" fill="none" xmlns="http://www.w3.org/2000/svg">
<circle cx="81.5" cy="53.5" r="41.5" fill="#F2F9FF"/>
<path d="M114 45L106.504 41.9263C105.078 41.3417 103.463 41.4471 102.125 42.2118L48.73 72.7388C47.1886 73.6201 46.2301 75.2527 46.2119 77.0282L46.0319 94.584C46.0124 96.4901 47.0784 98.2416 48.7805 99.0998L56.5155 103L56.6537 84.6251L59.6438 78.645L114 45Z" fill="url(#paint0_linear_580_9867)"/>
<path d="M115.706 47.7642C115.706 45.0027 113.767 43.8834 111.376 45.2642L58.7399 75.6534C56.3485 77.0341 54.4098 80.392 54.4098 83.1534L54.4098 99.7218C54.4098 102.483 56.3485 103.603 58.7399 102.222L111.376 71.8325C113.767 70.4518 115.706 67.094 115.706 64.3326L115.706 47.7642Z" fill="#2595FF"/>
<circle r="3.04409" transform="matrix(0.866025 -0.5 -2.20305e-08 -1 78.6365 77.2166)" fill="white"/>
<circle r="3.04409" transform="matrix(0.866025 -0.5 -2.20305e-08 -1 85.2859 73.8914)" fill="white"/>
<circle r="3.04409" transform="matrix(0.866025 -0.5 -2.20305e-08 -1 91.9358 70.5662)" fill="white"/>
<path d="M123 6L115.504 2.92628C114.078 2.34174 112.463 2.44708 111.125 3.21179L57.73 33.7388C56.1886 34.6201 55.2301 36.2527 55.2119 38.0282L55.0319 55.584C55.0124 57.4901 56.0784 59.2416 57.7805 60.0998L65.5155 64L65.6537 45.6251L68.6438 39.645L123 6Z" fill="url(#paint1_linear_580_9867)"/>
<path d="M124.706 8.76417C124.706 6.00274 122.767 4.88345 120.376 6.26416L67.7399 36.6534C65.3485 38.0341 63.4098 41.392 63.4098 44.1534L63.4098 60.7218C63.4098 63.4832 65.3485 64.6025 67.7399 63.2218L120.376 32.8325C122.767 31.4518 124.706 28.094 124.706 25.3326L124.706 8.76417Z" fill="#48FAC9"/>
<line x1="1.5" y1="-1.5" x2="22.9672" y2="-1.5" transform="matrix(0.866025 -0.5 2.20305e-08 1 71 46.29)" stroke="white" stroke-width="3" stroke-linecap="round"/>
<line x1="1.5" y1="-1.5" x2="22.9672" y2="-1.5" transform="matrix(0.866025 -0.5 2.20305e-08 1 96.1621 31.7627)" stroke="white" stroke-width="3" stroke-linecap="round"/>
<line x1="1.5" y1="-1.5" x2="13.792" y2="-1.5" transform="matrix(0.866025 -0.5 2.20305e-08 1 71 53.29)" stroke="white" stroke-width="3" stroke-linecap="round"/>
<line x1="1.5" y1="-1.5" x2="12.2628" y2="-1.5" transform="matrix(0.866025 -0.5 2.20305e-08 1 86.2297 44.4971)" stroke="white" stroke-width="3" stroke-linecap="round"/>
<line x1="1.5" y1="-1.5" x2="19.9088" y2="-1.5" transform="matrix(0.866025 -0.5 2.20305e-08 1 101.459 35.7041)" stroke="white" stroke-width="3" stroke-linecap="round"/>
<path d="M134 74L136.431 80.5692L143 83L136.431 85.4308L134 92L131.569 85.4308L125 83L131.569 80.5692L134 74Z" fill="#2595FF"/>
<path d="M158 9L159.621 13.3795L164 15L159.621 16.6205L158 21L156.379 16.6205L152 15L156.379 13.3795L158 9Z" fill="#E6F3FF"/>
<ellipse cx="77.1404" cy="62.1319" rx="76.7499" ry="19.9552" transform="rotate(-10.9188 77.1404 62.1319)" stroke="url(#paint2_linear_580_9867)" stroke-width="2" stroke-linecap="round"/>
<defs>
<linearGradient id="paint0_linear_580_9867" x1="67.8682" y1="46.5061" x2="37.9677" y2="94.3469" gradientUnits="userSpaceOnUse">
<stop offset="0.524251" stop-color="#1681E5"/>
<stop offset="0.63761" stop-color="#479FFF"/>
<stop offset="0.73254" stop-color="#2595FF"/>
</linearGradient>
<linearGradient id="paint1_linear_580_9867" x1="76.8682" y1="7.50611" x2="46.9677" y2="55.3469" gradientUnits="userSpaceOnUse">
<stop offset="0.524251" stop-color="#1681E5"/>
<stop offset="0.63761" stop-color="#479FFF"/>
<stop offset="0.73254" stop-color="#2595FF"/>
</linearGradient>
<linearGradient id="paint2_linear_580_9867" x1="42.972" y1="77.4915" x2="42.5601" y2="43.1751" gradientUnits="userSpaceOnUse">
<stop stop-color="#EAF3FE"/>
<stop offset="1" stop-color="#E3EDFF" stop-opacity="0"/>
</linearGradient>
</defs>
</svg>
