<svg width="760" height="139" viewBox="0 0 760 139" fill="none" xmlns="http://www.w3.org/2000/svg">
<path d="M663.57 71.7202C640.904 69.3612 643.125 86.2228 648.111 89.0623C653.097 91.9017 659.903 88.9903 661.142 82.5741C662.033 78.0605 661.442 74.6203 663.57 71.7202Z" fill="#BBD645"/>
<path d="M552.289 128.592C525.99 127.19 531.572 108.344 537.776 106.004C543.98 103.663 551.223 108.216 551.479 115.764C551.681 121.077 550.384 124.897 552.289 128.592Z" fill="#BBD645"/>
<path d="M525.02 125.164C545.681 128.738 544.689 113.12 540.289 110.204C535.888 107.287 529.459 109.537 527.923 115.351C526.824 119.439 527.153 122.634 525.02 125.164Z" fill="#DCF375"/>
<path d="M451.444 120.884C427.596 124.988 428.756 106.965 433.838 103.604C438.919 100.242 446.337 102.846 448.104 109.556C449.367 114.275 448.985 117.962 451.444 120.884Z" fill="#DCF375"/>
<path d="M332.52 73.831C346.797 70.0416 347.07 81.062 344.163 83.3815C341.255 85.7009 336.605 84.5209 335.166 80.537C334.141 77.7364 334.174 75.4741 332.52 73.831Z" fill="#DCF375"/>
<path d="M292.743 121.775C309.929 124.408 308.858 111.477 305.163 109.129C301.468 106.782 296.174 108.749 294.993 113.593C294.148 117 294.471 119.643 292.743 121.775Z" fill="#DCF375"/>
<path d="M154.568 136.71C132.094 119.225 148.685 105.947 155.637 107.701C162.588 109.455 166.205 117.968 161.77 124.825C158.669 129.665 155.159 132.255 154.568 136.71Z" fill="#BBD645"/>
<path d="M124.971 110.948C139.89 125.682 147.996 112.296 146.049 107.388C144.103 102.481 137.54 100.656 132.959 104.55C129.722 107.279 128.167 110.089 124.971 110.948Z" fill="#DCF375"/>
<path d="M759.226 60.3926C741.678 70.7794 737.185 56.2398 740.177 52.0683C743.17 47.8968 749.792 47.721 753.197 52.4749C755.608 55.8117 756.413 58.8296 759.226 60.3926Z" fill="#DCF375"/>
<path d="M727.041 5.35129C698.575 4.62426 702.988 25.412 709.475 28.4627C715.963 31.5133 724.158 27.2225 725.075 19.1089C725.745 13.3994 724.673 9.17159 727.041 5.35129Z" fill="#BBD645"/>
<path d="M693.047 9.49216C713.926 7.55631 711.707 23.0472 707.091 25.6081C702.474 28.169 696.242 25.4199 695.168 19.5036C694.395 15.3416 694.974 12.1825 693.047 9.49216Z" fill="#DCF375"/>
<path d="M577.989 66.2703C553.792 65.9862 558.197 48.4718 563.804 46.0865C569.41 43.7012 576.233 47.6047 576.756 54.5243C577.144 59.3944 576.1 62.9509 577.989 66.2703Z" fill="#DCF375"/>
<path d="M468.998 12.4067C446.178 4.35333 444.293 22.3146 448.737 26.4823C453.182 30.6499 460.931 29.3304 463.801 23.0123C465.84 18.5727 466.082 14.874 468.998 12.4067Z" fill="#DCF375"/>
<path d="M398.923 67.516C422.843 71.1815 421.352 53.1831 416.21 49.9155C411.067 46.6479 403.699 49.3866 402.055 56.1284C400.878 60.8699 401.329 64.5491 398.923 67.516Z" fill="#DCF375"/>
<path d="M330.563 12.2887C306.482 9.90186 308.928 27.7953 314.237 30.7845C319.547 33.7737 326.759 30.6466 328.041 23.8269C328.964 19.0294 328.319 15.3794 330.563 12.2887Z" fill="#DCF375"/>
<path d="M259.256 71.1112C230.822 69.5949 236.857 49.219 243.565 46.6886C250.273 44.1582 258.104 49.0808 258.38 57.2415C258.598 62.986 257.197 67.1163 259.256 71.1112Z" fill="#BBD645"/>
<path d="M219.998 68.2618C240.66 71.8354 239.668 56.218 235.267 53.3015C230.867 50.3851 224.437 52.6351 222.901 58.4484C221.803 62.5366 222.132 65.7316 219.998 68.2618Z" fill="#DCF375"/>
<path d="M52.9878 5.64118C30.685 15.0316 41.3716 29.5904 47.4636 29.6848C53.5556 29.7792 58.4023 23.5903 56.276 16.9848C54.7985 12.3281 52.4899 9.42814 52.9878 5.64118Z" fill="#DCF375"/>
<path d="M3.04175 17.9562C45.3891 -6.09389 55.4966 28.8177 48.1712 38.6504C40.8458 48.4832 25.0266 48.619 17.0999 37.1214C11.4856 29.0502 9.69313 21.8092 3.04175 17.9562Z" fill="#BBD645"/>
</svg>
