<svg width="669" height="123" viewBox="0 0 669 123" fill="none" xmlns="http://www.w3.org/2000/svg">
<path d="M2.03888 15.8335C39.6215 -5.51062 48.5917 25.4728 42.0905 34.1992C35.5893 42.9257 21.55 43.0462 14.5153 32.8423C9.53268 25.6792 7.94186 19.2529 2.03888 15.8335Z" fill="#BBD645"/>
<path d="M644.576 4.65327C619.314 4.00805 623.229 22.4568 628.987 25.1643C634.745 27.8717 642.017 24.0636 642.832 16.8629C643.426 11.7958 642.475 8.04373 644.576 4.65327Z" fill="#BBD645"/>
<path d="M229.425 63.0061C204.19 61.6604 209.546 43.5772 215.499 41.3315C221.452 39.0858 228.402 43.4546 228.647 50.6971C228.841 55.7952 227.597 59.4608 229.425 63.0061Z" fill="#BBD645"/>
<path d="M135.404 121.34C115.458 105.823 130.183 94.0384 136.352 95.5951C142.521 97.1518 145.731 104.707 141.795 110.792C139.043 115.088 135.928 117.386 135.404 121.34Z" fill="#BBD645"/>
<path d="M486.487 114.023C463.147 112.778 468.101 96.0527 473.607 93.9756C479.113 91.8985 485.541 95.9393 485.768 102.638C485.947 107.353 484.797 110.744 486.487 114.023Z" fill="#BBD645"/>
<path d="M585.247 63.5539C565.131 61.4604 567.102 76.4248 571.527 78.9447C575.952 81.4647 581.992 78.8809 583.092 73.1866C583.883 69.1809 583.358 66.1277 585.247 63.5539Z" fill="#BBD645"/>
<path d="M46.3651 4.91178C26.5717 13.2456 36.0559 26.1663 41.4624 26.2501C46.869 26.3339 51.1704 20.8413 49.2833 14.979C47.972 10.8463 45.9232 8.27265 46.3651 4.91178Z" fill="#DCF375"/>
<path d="M614.407 8.33221C632.937 6.61417 630.968 20.3621 626.871 22.6349C622.774 24.9076 617.243 22.4678 616.29 17.2172C615.604 13.5235 616.118 10.7199 614.407 8.33221Z" fill="#DCF375"/>
<path d="M194.584 60.4794C212.921 63.6509 212.041 49.7907 208.135 47.2024C204.23 44.6141 198.524 46.6109 197.161 51.7701C196.186 55.3984 196.478 58.2338 194.584 60.4794Z" fill="#DCF375"/>
<path d="M110.249 98.3695C123.49 111.446 130.683 99.566 128.956 95.2107C127.228 90.8555 121.404 89.2358 117.338 92.6921C114.466 95.1134 113.086 97.6076 110.249 98.3695Z" fill="#DCF375"/>
<path d="M462.286 110.983C480.623 114.155 479.742 100.295 475.837 97.7063C471.931 95.118 466.226 97.1148 464.862 102.274C463.887 105.902 464.179 108.738 462.286 110.983Z" fill="#DCF375"/>
<path d="M292.709 10.8118C271.337 8.69358 273.508 24.5738 278.22 27.2266C282.932 29.8795 289.332 27.1042 290.471 21.0518C291.29 16.7941 290.717 13.5548 292.709 10.8118Z" fill="#DCF375"/>
<path d="M397.989 107.19C376.824 110.832 377.853 94.8372 382.363 91.8541C386.873 88.871 393.456 91.1812 395.024 97.1367C396.146 101.325 395.806 104.597 397.989 107.19Z" fill="#DCF375"/>
<path d="M353.377 59.8214C374.606 63.0744 373.283 47.1012 368.719 44.2012C364.155 41.3013 357.616 43.7318 356.157 49.7151C355.113 53.9231 355.512 57.1884 353.377 59.8214Z" fill="#DCF375"/>
<path d="M259.144 107.974C274.396 110.312 273.446 98.8352 270.167 96.7517C266.888 94.6681 262.189 96.4144 261.141 100.713C260.391 103.737 260.678 106.083 259.144 107.974Z" fill="#DCF375"/>
<path d="M415.567 10.9131C395.315 3.76591 393.642 19.7063 397.587 23.405C401.531 27.1037 408.408 25.9327 410.955 20.3255C412.765 16.3854 412.98 13.1028 415.567 10.9131Z" fill="#DCF375"/>
<path d="M507.295 58.7208C485.821 58.4686 489.731 42.9249 494.706 40.808C499.682 38.6911 505.737 42.1554 506.201 48.2964C506.545 52.6185 505.618 55.7749 507.295 58.7208Z" fill="#DCF375"/>
<path d="M293.445 65.4258C306.116 62.0628 306.358 71.8432 303.778 73.9017C301.198 75.9602 297.07 74.913 295.794 71.3773C294.884 68.8918 294.913 66.8841 293.445 65.4258Z" fill="#DCF375"/>
<path d="M668.14 53.4975C652.567 62.7156 648.579 49.8119 651.235 46.1098C653.891 42.4076 659.768 42.2516 662.789 46.4706C664.929 49.4319 665.643 52.1103 668.14 53.4975Z" fill="#DCF375"/>
</svg>
