<svg width="282" height="117" viewBox="0 0 282 117" fill="none" xmlns="http://www.w3.org/2000/svg">
<path d="M217.084 113.642C200.053 112.734 203.668 100.529 207.685 99.0138C211.703 97.4981 216.394 100.447 216.559 105.335C216.69 108.776 215.851 111.25 217.084 113.642Z" fill="#BBD645"/>
<path d="M193.57 111.933C205.945 114.074 205.351 104.719 202.715 102.972C200.08 101.225 196.229 102.573 195.308 106.055C194.65 108.504 194.847 110.417 193.57 111.933Z" fill="#DCF375"/>
<path d="M139.651 74.162C135.014 87.895 145.787 88.8775 148.247 86.1816C150.707 83.4857 149.853 78.8552 146.046 77.188C143.37 76.0031 141.153 75.8882 139.651 74.162Z" fill="#DCF375"/>
<path d="M17.5738 105.17C21.2406 91.1471 30.783 96.2423 31.3581 99.8461C31.9333 103.45 28.677 106.851 24.5795 106.153C21.6927 105.674 19.7766 104.552 17.5738 105.17Z" fill="#DCF375"/>
<path d="M266.247 72.3581C251.962 74.816 252.657 64.0208 255.701 62.0074C258.745 59.9941 263.188 61.5533 264.246 65.5728C265.003 68.3994 264.774 70.6078 266.247 72.3581Z" fill="#DCF375"/>
<path d="M187.544 44.8512C196.096 42.5814 196.259 49.1824 194.518 50.5718C192.777 51.9611 189.991 51.2543 189.129 48.868C188.516 47.1905 188.535 45.8354 187.544 44.8512Z" fill="#DCF375"/>
<path d="M69.2042 73.7098C79.4982 75.2873 78.8567 67.5417 76.6436 66.1355C74.4306 64.7292 71.2596 65.9078 70.5523 68.8092C70.0457 70.8497 70.2395 72.433 69.2042 73.7098Z" fill="#DCF375"/>
<path d="M281.161 13.5446C273.512 3.5827 267.609 10.8635 268.363 13.9345C269.117 17.0054 272.862 18.6245 275.898 16.6879C278.042 15.3335 279.194 13.7929 281.161 13.5446Z" fill="#DCF375"/>
<path d="M270.538 0.966483C281.551 12.2609 271.442 18.2946 267.759 16.8067C264.077 15.3187 262.735 10.373 265.687 6.94521C267.755 4.52326 269.877 3.36702 270.538 0.966483Z" fill="#BBD645"/>
<path d="M198.174 7.06169C183.749 5.63204 185.215 16.3498 188.395 18.1403C191.575 19.9308 195.895 18.0577 196.663 13.9728C197.216 11.0992 196.829 8.91295 198.174 7.06169Z" fill="#DCF375"/>
<path d="M151.132 46.028C134.524 42.1456 140.224 30.7645 144.446 29.9773C148.667 29.1901 152.767 32.9159 152.073 37.7571C151.598 41.1675 150.337 43.4558 151.132 46.028Z" fill="#BBD645"/>
<path d="M128.285 40.2291C140.093 44.5078 141.15 35.1942 138.861 33.0119C136.573 30.8297 132.545 31.4808 131.028 34.7474C129.951 37.0427 129.809 38.9612 128.285 40.2291Z" fill="#DCF375"/>
<path d="M31.2926 4.04075C17.9337 9.66539 24.3347 18.3858 27.9837 18.4423C31.6327 18.4989 34.5358 14.7919 33.2622 10.8353C32.3772 8.04607 30.9944 6.30905 31.2926 4.04075Z" fill="#DCF375"/>
<path d="M1.37607 11.4141C26.7412 -2.99136 32.7954 17.9199 28.4076 23.8095C24.0199 29.6991 14.5445 29.7805 9.79662 22.8937C6.43377 18.0592 5.3601 13.722 1.37607 11.4141Z" fill="#BBD645"/>
</svg>
