<svg width="194" height="113" viewBox="0 0 194 113" fill="none" xmlns="http://www.w3.org/2000/svg">
<g clip-path="url(#clip0_601_12895)">
<path d="M125 54.5C125 77.4198 106.42 96 83.5 96C60.5802 96 42 77.4198 42 54.5C42 31.5802 60.5802 13 83.5 13C106.42 13 125 31.5802 125 54.5Z" fill="#F2F9FF"/>
<path d="M117.187 72.2887L97.2215 61.4432C95.9956 60.7773 94.5129 60.7901 93.2986 61.4771L58.0533 81.4182C56.7844 82.1361 56 83.4812 56 84.939V98.4598C56 99.8671 56.7313 101.173 57.9311 101.909L76.4324 113.25C76.9678 113.579 77.6568 113.198 77.6642 112.57L77.8301 98.5583L79.2723 94.7668L117.187 72.2887Z" fill="url(#paint0_linear_601_12895)"/>
<path d="M118 75.1292C118 72.8951 116.432 71.9895 114.497 73.1066L79.808 93.1341C77.8732 94.2512 76.3047 96.9679 76.3047 99.202L76.3047 110.768C76.3047 113.002 77.8732 113.907 79.808 112.79L114.497 92.7628C116.432 91.6457 118 88.9291 118 86.6949L118 75.1292Z" fill="#2595FF"/>
<path d="M87.3381 98.4383C87.3381 99.3148 87.9535 99.6701 88.7126 99.2319L110.704 86.5354C111.463 86.0971 112.078 85.0313 112.078 84.1548C112.078 83.2783 111.463 82.923 110.704 83.3613L88.7126 96.0577C87.9535 96.496 87.3381 97.5618 87.3381 98.4383Z" fill="white"/>
<path d="M84.5887 100.025C84.5887 99.1486 83.9734 98.7933 83.2143 99.2316C82.4552 99.6698 81.8398 100.736 81.8398 101.612C81.8398 102.489 82.4552 102.844 83.2143 102.406C83.9734 101.967 84.5887 100.902 84.5887 100.025Z" fill="white"/>
<path d="M117.187 50.3464L97.2215 39.5009C95.9956 38.8349 94.5129 38.8477 93.2986 39.5347L58.0533 59.4758C56.7844 60.1937 56 61.5388 56 62.9966V76.5174C56 77.9247 56.7313 79.2308 57.9311 79.9663L76.4324 91.3079C76.9678 91.6361 77.6568 91.2557 77.6642 90.6277L77.8301 76.6159L79.2723 72.8244L117.187 50.3464Z" fill="url(#paint1_linear_601_12895)"/>
<path d="M118 53.1869C118 50.9527 116.432 50.0472 114.497 51.1642L79.808 71.1917C77.8732 72.3088 76.3047 75.0255 76.3047 77.2596L76.3047 88.8253C76.3047 91.0595 77.8732 91.965 79.808 90.8479L114.497 70.8204C116.432 69.7034 118 66.9867 118 64.7525L118 53.1869Z" fill="#48FAC9"/>
<path d="M87.3381 76.4964C87.3381 77.3729 87.9535 77.7282 88.7126 77.29L110.704 64.5935C111.463 64.1552 112.078 63.0894 112.078 62.2129C112.078 61.3364 111.463 60.9811 110.704 61.4194L88.7126 74.1158C87.9535 74.5541 87.3381 75.6199 87.3381 76.4964Z" fill="white"/>
<path d="M84.5887 78.0832C84.5887 77.2067 83.9734 76.8514 83.2143 77.2897C82.4552 77.7279 81.8398 78.7938 81.8398 79.6703C81.8398 80.5468 82.4552 80.902 83.2143 80.4638C83.9734 80.0255 84.5887 78.9597 84.5887 78.0832Z" fill="white"/>
<path d="M117.187 28.4049L97.2215 17.5594C95.9956 16.8935 94.5129 16.9063 93.2986 17.5933L58.0533 37.5344C56.7844 38.2523 56 39.5974 56 41.0552V54.576C56 55.9833 56.7313 57.2894 57.9311 58.0249L76.4324 69.3665C76.9678 69.6947 77.6568 69.3143 77.6642 68.6863L77.8301 54.6745L79.2723 50.883L117.187 28.4049Z" fill="url(#paint2_linear_601_12895)"/>
<path d="M118 31.2455C118 29.0113 116.432 28.1058 114.497 29.2228L79.808 49.2503C77.8732 50.3674 76.3047 53.0841 76.3047 55.3182L76.3047 66.8839C76.3047 69.118 77.8732 70.0236 79.808 68.9065L114.497 48.879C116.432 47.762 118 45.0453 118 42.8111L118 31.2455Z" fill="#2595FF"/>
<path d="M87.3381 54.5545C87.3381 55.4311 87.9535 55.7863 88.7126 55.3481L110.704 42.6516C111.463 42.2133 112.078 41.1475 112.078 40.271C112.078 39.3945 111.463 39.0392 110.704 39.4775L88.7126 52.174C87.9535 52.6122 87.3381 53.678 87.3381 54.5545Z" fill="white"/>
<path d="M84.5887 56.1413C84.5887 55.2648 83.9734 54.9095 83.2143 55.3478C82.4552 55.786 81.8398 56.8519 81.8398 57.7284C81.8398 58.6049 82.4552 58.9602 83.2143 58.5219C83.9734 58.0836 84.5887 57.0178 84.5887 56.1413Z" fill="white"/>
<path d="M176 0L178.431 6.56918L185 9L178.431 11.4308L176 18L173.569 11.4308L167 9L173.569 6.56918L176 0Z" fill="#2595FF"/>
<path d="M188 36L189.621 40.3795L194 42L189.621 43.6205L188 48L186.379 43.6205L182 42L186.379 40.3795L188 36Z" fill="#E6F3FF"/>
<path fill-rule="evenodd" clip-rule="evenodd" d="M8.90628 67.6376C5.60038 70.6668 4.34449 73.3175 4.7617 75.4803C5.17892 77.643 7.3307 79.6363 11.5261 81.2184C15.6597 82.7771 21.4738 83.8141 28.5889 84.2687C42.8037 85.1769 61.979 83.7472 82.7307 79.744C103.482 75.7407 121.814 69.9351 134.671 63.8045C141.106 60.7359 146.117 57.6106 149.374 54.6261C152.68 51.5969 153.936 48.9462 153.519 46.7835C153.102 44.6208 150.95 42.6274 146.754 41.0453C142.621 39.4866 136.807 38.4496 129.692 37.995C115.477 37.0868 96.3016 38.5166 75.5498 42.5198C54.7981 46.523 36.467 52.3287 23.61 58.4592C17.1745 61.5279 12.1634 64.6532 8.90628 67.6376ZM22.7492 56.654C35.7993 50.4313 54.3023 44.5818 75.171 40.556C96.0397 36.5302 115.391 35.0773 129.819 35.9991C137.026 36.4595 143.062 37.5156 147.46 39.174C151.796 40.809 154.856 43.1566 155.483 46.4047C156.109 49.6527 154.142 52.9701 150.725 56.1007C147.26 59.2759 142.049 62.5018 135.531 65.6098C122.481 71.8325 103.978 77.682 83.1096 81.7078C62.2409 85.7335 42.8898 87.1865 28.4614 86.2647C21.2549 85.8042 15.2182 84.7481 10.8205 83.0898C6.48458 81.4548 3.42448 79.1071 2.79791 75.8591C2.17134 72.6111 4.13858 69.2936 7.55514 66.1631C11.0204 62.9878 16.2311 59.762 22.7492 56.654Z" fill="url(#paint3_linear_601_12895)"/>
</g>
<defs>
<linearGradient id="paint0_linear_601_12895" x1="85.457" y1="73.6263" x2="65.1179" y2="106.169" gradientUnits="userSpaceOnUse">
<stop offset="0.524251" stop-color="#1681E5"/>
<stop offset="0.63761" stop-color="#479FFF"/>
<stop offset="0.73254" stop-color="#2595FF"/>
</linearGradient>
<linearGradient id="paint1_linear_601_12895" x1="85.457" y1="51.6839" x2="65.1179" y2="84.2266" gradientUnits="userSpaceOnUse">
<stop offset="0.524251" stop-color="#1681E5"/>
<stop offset="0.63761" stop-color="#479FFF"/>
<stop offset="0.73254" stop-color="#2595FF"/>
</linearGradient>
<linearGradient id="paint2_linear_601_12895" x1="85.457" y1="29.7425" x2="65.1179" y2="62.2852" gradientUnits="userSpaceOnUse">
<stop offset="0.524251" stop-color="#1681E5"/>
<stop offset="0.63761" stop-color="#479FFF"/>
<stop offset="0.73254" stop-color="#2595FF"/>
</linearGradient>
<linearGradient id="paint3_linear_601_12895" x1="48.4999" y1="82.6855" x2="41.5953" y2="49.0684" gradientUnits="userSpaceOnUse">
<stop stop-color="#EAF3FE"/>
<stop offset="1" stop-color="#E3EDFF" stop-opacity="0"/>
</linearGradient>
<clipPath id="clip0_601_12895">
<rect width="194" height="113" fill="white"/>
</clipPath>
</defs>
</svg>
