<svg width="195" height="114" viewBox="0 0 195 114" fill="none" xmlns="http://www.w3.org/2000/svg">
<circle cx="79.5" cy="54.5" r="41.5" fill="#F2F9FF"/>
<path d="M115.187 72.2887L95.2217 61.4432C93.9957 60.7773 92.513 60.7901 91.2987 61.4771L56.0534 81.4182C54.7845 82.1361 54.0001 83.4812 54.0001 84.939V98.4598C54.0001 99.8671 54.7314 101.173 55.9312 101.909L74.4325 113.25C74.968 113.579 75.6569 113.198 75.6644 112.57L75.8303 98.5583L77.2724 94.7668L115.187 72.2887Z" fill="url(#paint0_linear_579_9612)"/>
<path d="M116 75.1292C116 72.8951 114.432 71.9895 112.497 73.1066L77.8082 93.1341C75.8733 94.2512 74.3049 96.9679 74.3049 99.202L74.3049 110.768C74.3049 113.002 75.8733 113.907 77.8082 112.79L112.497 92.7628C114.432 91.6457 116 88.9291 116 86.6949L116 75.1292Z" fill="#2595FF"/>
<path d="M85.3383 98.4383C85.3383 99.3148 85.9536 99.6701 86.7127 99.2319L108.704 86.5354C109.463 86.0971 110.078 85.0313 110.078 84.1548C110.078 83.2783 109.463 82.923 108.704 83.3613L86.7127 96.0577C85.9536 96.496 85.3383 97.5618 85.3383 98.4383Z" fill="white"/>
<path d="M82.5888 100.025C82.5888 99.1486 81.9735 98.7933 81.2144 99.2316C80.4553 99.6698 79.84 100.736 79.84 101.612C79.84 102.489 80.4553 102.844 81.2144 102.406C81.9735 101.967 82.5888 100.902 82.5888 100.025Z" fill="white"/>
<path d="M115.187 50.3464L95.2217 39.5009C93.9957 38.8349 92.513 38.8477 91.2987 39.5347L56.0534 59.4758C54.7845 60.1937 54.0001 61.5388 54.0001 62.9966V76.5174C54.0001 77.9247 54.7314 79.2308 55.9312 79.9663L74.4325 91.3079C74.968 91.6361 75.6569 91.2557 75.6644 90.6277L75.8303 76.6159L77.2724 72.8244L115.187 50.3464Z" fill="url(#paint1_linear_579_9612)"/>
<path d="M116 53.1869C116 50.9527 114.432 50.0472 112.497 51.1642L77.8082 71.1917C75.8733 72.3088 74.3049 75.0255 74.3049 77.2596L74.3049 88.8253C74.3049 91.0595 75.8733 91.965 77.8082 90.8479L112.497 70.8204C114.432 69.7034 116 66.9867 116 64.7525L116 53.1869Z" fill="#48FAC9"/>
<path d="M85.3383 76.4964C85.3383 77.3729 85.9536 77.7282 86.7127 77.29L108.704 64.5935C109.463 64.1552 110.078 63.0894 110.078 62.2129C110.078 61.3364 109.463 60.9811 108.704 61.4194L86.7127 74.1158C85.9536 74.5541 85.3383 75.6199 85.3383 76.4964Z" fill="white"/>
<path d="M82.5888 78.0832C82.5888 77.2067 81.9735 76.8514 81.2144 77.2897C80.4553 77.7279 79.84 78.7938 79.84 79.6703C79.84 80.5468 80.4553 80.902 81.2144 80.4638C81.9735 80.0255 82.5888 78.9597 82.5888 78.0832Z" fill="white"/>
<path d="M115.187 28.4049L95.2217 17.5594C93.9957 16.8935 92.513 16.9063 91.2987 17.5933L56.0534 37.5344C54.7845 38.2523 54.0001 39.5974 54.0001 41.0552V54.576C54.0001 55.9833 54.7314 57.2894 55.9312 58.0249L74.4325 69.3665C74.968 69.6947 75.6569 69.3143 75.6644 68.6863L75.8303 54.6745L77.2724 50.883L115.187 28.4049Z" fill="url(#paint2_linear_579_9612)"/>
<path d="M116 31.2455C116 29.0113 114.432 28.1058 112.497 29.2228L77.8082 49.2503C75.8733 50.3674 74.3049 53.0841 74.3049 55.3182L74.3049 66.8839C74.3049 69.118 75.8733 70.0236 77.8082 68.9065L112.497 48.879C114.432 47.762 116 45.0453 116 42.8111L116 31.2455Z" fill="#2595FF"/>
<path d="M85.3383 54.5545C85.3383 55.4311 85.9536 55.7863 86.7127 55.3481L108.704 42.6516C109.463 42.2133 110.078 41.1475 110.078 40.271C110.078 39.3945 109.463 39.0392 108.704 39.4775L86.7127 52.174C85.9536 52.6122 85.3383 53.678 85.3383 54.5545Z" fill="white"/>
<path d="M82.5888 56.1413C82.5888 55.2648 81.9735 54.9095 81.2144 55.3478C80.4553 55.786 79.84 56.8519 79.84 57.7284C79.84 58.6049 80.4553 58.9602 81.2144 58.5219C81.9735 58.0836 82.5888 57.0178 82.5888 56.1413Z" fill="white"/>
<path d="M174 0L176.431 6.56918L183 9L176.431 11.4308L174 18L171.569 11.4308L165 9L171.569 6.56918L174 0Z" fill="#2595FF"/>
<path d="M189 36L190.621 40.3795L195 42L190.621 43.6205L189 48L187.379 43.6205L183 42L187.379 40.3795L189 36Z" fill="#E6F3FF"/>
<ellipse cx="77.1404" cy="61.1319" rx="76.7499" ry="19.9552" transform="rotate(-10.9188 77.1404 61.1319)" stroke="url(#paint3_linear_579_9612)" stroke-width="2" stroke-linecap="round"/>
<defs>
<linearGradient id="paint0_linear_579_9612" x1="83.4571" y1="73.6263" x2="63.118" y2="106.169" gradientUnits="userSpaceOnUse">
<stop offset="0.524251" stop-color="#1681E5"/>
<stop offset="0.63761" stop-color="#479FFF"/>
<stop offset="0.73254" stop-color="#2595FF"/>
</linearGradient>
<linearGradient id="paint1_linear_579_9612" x1="83.4571" y1="51.6839" x2="63.118" y2="84.2266" gradientUnits="userSpaceOnUse">
<stop offset="0.524251" stop-color="#1681E5"/>
<stop offset="0.63761" stop-color="#479FFF"/>
<stop offset="0.73254" stop-color="#2595FF"/>
</linearGradient>
<linearGradient id="paint2_linear_579_9612" x1="83.4571" y1="29.7425" x2="63.118" y2="62.2852" gradientUnits="userSpaceOnUse">
<stop offset="0.524251" stop-color="#1681E5"/>
<stop offset="0.63761" stop-color="#479FFF"/>
<stop offset="0.73254" stop-color="#2595FF"/>
</linearGradient>
<linearGradient id="paint3_linear_579_9612" x1="42.972" y1="76.4915" x2="42.5601" y2="42.1751" gradientUnits="userSpaceOnUse">
<stop stop-color="#EAF3FE"/>
<stop offset="1" stop-color="#E3EDFF" stop-opacity="0"/>
</linearGradient>
</defs>
</svg>
