<svg width="194" height="113" viewBox="0 0 194 113" fill="none" xmlns="http://www.w3.org/2000/svg">
<g clip-path="url(#clip0_601_12920)">
<path d="M125 53.5C125 76.4198 106.42 95 83.5 95C60.5802 95 42 76.4198 42 53.5C42 30.5802 60.5802 12 83.5 12C106.42 12 125 30.5802 125 53.5Z" fill="#F2F9FF"/>
<path d="M122 18.0003L114.504 14.9265C113.078 14.342 111.463 14.4474 110.125 15.2121L56.7468 45.7294C55.1963 46.6158 54.2363 48.2621 54.2285 50.0482L54.0127 99.3639C54.0049 101.165 54.9662 102.831 56.5294 103.726L64 108L64.6535 57.6254L67.6436 51.6453L122 18.0003Z" fill="url(#paint0_linear_601_12920)"/>
<path d="M123.706 20.7646C123.706 18.0032 121.767 16.8839 119.375 18.2646L66.7397 48.6539C64.3482 50.0346 62.4096 53.3925 62.4096 56.1539L62.4096 105.005C62.4096 107.767 64.3482 108.886 66.7397 107.505L119.375 77.1162C121.767 75.7355 123.706 72.3776 123.706 69.6162L123.706 20.7646Z" fill="#2595FF"/>
<path d="M68.4482 59.6372C68.4482 56.8758 70.3869 53.5179 72.7784 52.1372L113.318 28.7317C115.709 27.351 117.648 28.4703 117.648 31.2317L117.648 33.0431C117.648 35.8045 115.709 39.1624 113.318 40.5431L72.7784 63.9486C70.3869 65.3293 68.4482 64.21 68.4482 61.4486L68.4482 59.6372Z" fill="#48FAC9"/>
<path fill-rule="evenodd" clip-rule="evenodd" d="M113.318 30.7317L72.7784 54.1372C71.3435 54.9656 70.1803 56.9804 70.1803 58.6372L70.1803 94.983C70.1803 96.6398 71.3435 97.3114 72.7784 96.483L113.318 73.0775C114.753 72.2491 115.916 70.2344 115.916 68.5775L115.916 32.2317C115.916 30.5749 114.753 29.9033 113.318 30.7317ZM72.7784 52.1372C70.3869 53.5179 68.4482 56.8758 68.4482 59.6372L68.4482 95.983C68.4482 98.7444 70.3869 99.8637 72.7784 98.483L113.318 75.0775C115.709 73.6968 117.648 70.3389 117.648 67.5775L117.648 31.2317C117.648 28.4703 115.709 27.351 113.318 28.7317L72.7784 52.1372Z" fill="white"/>
<path d="M76.7989 56.0062C76.7989 55.2502 76.2682 54.9438 75.6136 55.3218C74.9589 55.6998 74.4282 56.619 74.4282 57.3749C74.4282 58.1308 74.9589 58.4372 75.6136 58.0593C76.2682 57.6813 76.7989 56.7621 76.7989 56.0062Z" fill="white"/>
<path d="M79.7889 54.5111C79.7889 53.7551 79.2582 53.4487 78.6036 53.8267C77.9489 54.2047 77.4182 55.1239 77.4182 55.8798C77.4182 56.6357 77.9489 56.9421 78.6036 56.5642C79.2582 56.1862 79.7889 55.267 79.7889 54.5111Z" fill="white"/>
<path d="M82.7787 53.0155C82.7787 52.2595 82.248 51.9531 81.5933 52.3311C80.9387 52.7091 80.408 53.6283 80.408 54.3842C80.408 55.1401 80.9387 55.4465 81.5933 55.0686C82.248 54.6906 82.7787 53.7714 82.7787 53.0155Z" fill="white"/>
<path fill-rule="evenodd" clip-rule="evenodd" d="M116.353 38.9392L69.7432 65.8496L69.7432 63.8496L116.353 36.9392L116.353 38.9392Z" fill="white"/>
<path fill-rule="evenodd" clip-rule="evenodd" d="M102.915 70.2126L95.1219 59.0787C94.9295 58.8038 94.4484 59.0815 94.256 59.5786L86.4632 79.7109C86.2708 80.208 86.5113 80.5516 86.8962 80.3294L102.482 71.3311C102.867 71.1089 103.107 70.4875 102.915 70.2126ZM96.4207 57.4603C95.651 56.3607 93.7269 57.4716 92.9572 59.46L85.1644 79.5922C84.3948 81.5806 85.3569 82.9551 86.8962 82.0664L102.482 73.0681C104.021 72.1794 104.983 69.6939 104.213 68.5942L96.4207 57.4603Z" fill="white"/>
<path d="M95.5676 69.3687L94.2159 70.1491L93.8926 67.5647L93.8926 65.3027L95.8908 64.149L95.8908 66.411L95.5676 69.3687ZM93.873 72.2132C93.873 71.8889 93.971 71.5572 94.1669 71.2179C94.3693 70.8672 94.6109 70.6109 94.8917 70.4488C95.1725 70.2867 95.4108 70.2659 95.6067 70.3866C95.8092 70.4959 95.9104 70.7127 95.9104 71.0369C95.9104 71.3687 95.8092 71.7061 95.6067 72.0492C95.4108 72.3885 95.1725 72.6392 94.8917 72.8013C94.6109 72.9634 94.3693 72.9898 94.1669 72.8805C93.971 72.7674 93.873 72.5449 93.873 72.2132Z" fill="white"/>
<path d="M158 67L160.431 73.5692L167 76L160.431 78.4308L158 85L155.569 78.4308L149 76L155.569 73.5692L158 67Z" fill="#48FAC9"/>
<path d="M173 30L174.621 34.3795L179 36L174.621 37.6205L173 42L171.379 37.6205L167 36L171.379 34.3795L173 30Z" fill="#E6F3FF"/>
<path fill-rule="evenodd" clip-rule="evenodd" d="M8.90628 67.6376C5.60038 70.6668 4.34449 73.3175 4.7617 75.4803C5.17892 77.643 7.3307 79.6363 11.5261 81.2184C15.6597 82.7771 21.4738 83.8141 28.5889 84.2687C42.8037 85.1769 61.979 83.7472 82.7307 79.744C103.482 75.7407 121.814 69.9351 134.671 63.8045C141.106 60.7359 146.117 57.6106 149.374 54.6261C152.68 51.5969 153.936 48.9462 153.519 46.7835C153.102 44.6208 150.95 42.6274 146.754 41.0453C142.621 39.4866 136.807 38.4496 129.692 37.995C115.477 37.0868 96.3016 38.5166 75.5498 42.5198C54.7981 46.523 36.467 52.3287 23.61 58.4592C17.1745 61.5279 12.1634 64.6532 8.90628 67.6376ZM22.7492 56.654C35.7993 50.4313 54.3023 44.5818 75.171 40.556C96.0397 36.5302 115.391 35.0773 129.819 35.9991C137.026 36.4595 143.062 37.5156 147.46 39.174C151.796 40.809 154.856 43.1566 155.483 46.4047C156.109 49.6527 154.142 52.9701 150.725 56.1007C147.26 59.2759 142.049 62.5018 135.531 65.6098C122.481 71.8325 103.978 77.682 83.1096 81.7078C62.2409 85.7335 42.8898 87.1865 28.4614 86.2647C21.2549 85.8042 15.2182 84.7481 10.8205 83.0898C6.48458 81.4548 3.42448 79.1071 2.79791 75.8591C2.17134 72.6111 4.13858 69.2936 7.55514 66.1631C11.0204 62.9878 16.2311 59.762 22.7492 56.654Z" fill="url(#paint1_linear_601_12920)"/>
</g>
<defs>
<linearGradient id="paint0_linear_601_12920" x1="75.8682" y1="19.5061" x2="45.9676" y2="67.3469" gradientUnits="userSpaceOnUse">
<stop offset="0.524251" stop-color="#1681E5"/>
<stop offset="0.63761" stop-color="#479FFF"/>
<stop offset="0.73254" stop-color="#2595FF"/>
</linearGradient>
<linearGradient id="paint1_linear_601_12920" x1="48.4999" y1="82.6855" x2="41.5953" y2="49.0684" gradientUnits="userSpaceOnUse">
<stop stop-color="#EAF3FE"/>
<stop offset="1" stop-color="#E3EDFF" stop-opacity="0"/>
</linearGradient>
<clipPath id="clip0_601_12920">
<rect width="194" height="113" fill="white"/>
</clipPath>
</defs>
</svg>
