<svg width="195" height="113" viewBox="0 0 195 113" fill="none" xmlns="http://www.w3.org/2000/svg">
<circle cx="69.5" cy="51.5" r="41.5" fill="#F2F9FF"/>
<path d="M110 18L102.504 14.9263C101.078 14.3417 99.4627 14.4471 98.1251 15.2118L44.7468 45.7291C43.1963 46.6156 42.2363 48.2618 42.2285 50.0479L42.0127 99.3636C42.0049 101.165 42.9662 102.831 44.5294 103.725L52 108L52.6536 57.6251L55.6436 51.645L110 18Z" fill="url(#paint0_linear_579_9637)"/>
<path d="M111.706 20.7646C111.706 18.0032 109.767 16.8839 107.375 18.2646L54.7397 48.6539C52.3482 50.0346 50.4096 53.3925 50.4096 56.1539L50.4096 105.005C50.4096 107.767 52.3482 108.886 54.7397 107.505L107.375 77.1162C109.767 75.7355 111.706 72.3776 111.706 69.6162L111.706 20.7646Z" fill="#2595FF"/>
<rect width="56.8109" height="11.8113" rx="5" transform="matrix(0.866025 -0.5 2.20305e-08 1 56.4484 54.6372)" fill="#48FAC9"/>
<rect x="0.866025" y="0.5" width="54.8109" height="44.3458" rx="4" transform="matrix(0.866025 -0.5 2.20305e-08 1 56.5644 55.0702)" stroke="white" stroke-width="2"/>
<circle r="1.36874" transform="matrix(0.866025 -0.5 -2.20305e-08 -1 63.6136 56.6905)" fill="white"/>
<circle r="1.36874" transform="matrix(0.866025 -0.5 -2.20305e-08 -1 66.6036 55.1954)" fill="white"/>
<circle r="1.36874" transform="matrix(0.866025 -0.5 -2.20305e-08 -1 69.5936 53.6998)" fill="white"/>
<line y1="-1" x2="53.8209" y2="-1" transform="matrix(0.866025 -0.5 2.20305e-08 1 57.7433 65.8496)" stroke="white" stroke-width="2"/>
<path fill-rule="evenodd" clip-rule="evenodd" d="M90.9147 70.2126L83.1219 59.0787C82.9295 58.8038 82.4484 59.0815 82.256 59.5786L74.4632 79.7109C74.2708 80.208 74.5113 80.5516 74.8962 80.3294L90.4818 71.3311C90.8666 71.1089 91.1071 70.4875 90.9147 70.2126ZM84.4207 57.4603C83.651 56.3607 81.7269 57.4716 80.9572 59.46L73.1644 79.5922C72.3948 81.5806 73.3569 82.9551 74.8962 82.0664L90.4818 73.0681C92.0211 72.1794 92.9831 69.6939 92.2135 68.5942L84.4207 57.4603Z" fill="white"/>
<path d="M83.5674 69.3687L82.2157 70.1491L81.8925 67.5647L81.8925 65.3027L83.8907 64.149L83.8907 66.411L83.5674 69.3687ZM81.8729 72.2132C81.8729 71.8889 81.9709 71.5572 82.1668 71.2179C82.3692 70.8672 82.6108 70.6109 82.8916 70.4488C83.1724 70.2867 83.4107 70.2659 83.6066 70.3866C83.809 70.4959 83.9103 70.7127 83.9103 71.0369C83.9103 71.3687 83.809 71.7061 83.6066 72.0492C83.4107 72.3885 83.1724 72.6392 82.8916 72.8013C82.6108 72.9634 82.3692 72.9898 82.1668 72.8805C81.9709 72.7674 81.8729 72.5449 81.8729 72.2132Z" fill="white"/>
<path d="M156 67L158.431 73.5692L165 76L158.431 78.4308L156 85L153.569 78.4308L147 76L153.569 73.5692L156 67Z" fill="#48FAC9"/>
<path d="M171 30L172.621 34.3795L177 36L172.621 37.6205L171 42L169.379 37.6205L165 36L169.379 34.3795L171 30Z" fill="#E6F3FF"/>
<ellipse cx="77.1404" cy="61.1319" rx="76.7499" ry="19.9552" transform="rotate(-10.9188 77.1404 61.1319)" stroke="url(#paint1_linear_579_9637)" stroke-width="2" stroke-linecap="round"/>
<defs>
<linearGradient id="paint0_linear_579_9637" x1="63.8682" y1="19.5061" x2="33.9676" y2="67.3469" gradientUnits="userSpaceOnUse">
<stop offset="0.524251" stop-color="#1681E5"/>
<stop offset="0.63761" stop-color="#479FFF"/>
<stop offset="0.73254" stop-color="#2595FF"/>
</linearGradient>
<linearGradient id="paint1_linear_579_9637" x1="42.972" y1="76.4915" x2="42.5601" y2="42.1751" gradientUnits="userSpaceOnUse">
<stop stop-color="#EAF3FE"/>
<stop offset="1" stop-color="#E3EDFF" stop-opacity="0"/>
</linearGradient>
</defs>
</svg>
