<svg width="195" height="113" viewBox="0 0 195 113" fill="none" xmlns="http://www.w3.org/2000/svg">
<circle cx="80.5" cy="54.5" r="41.5" fill="#F2F9FF"/>
<g filter="url(#filter0_i_580_9805)">
<circle cx="92.5" cy="68.5" r="43.5" fill="url(#paint0_linear_580_9805)"/>
</g>
<mask id="mask0_580_9805" style="mask-type:alpha" maskUnits="userSpaceOnUse" x="49" y="25" width="87" height="88">
<ellipse cx="92.5" cy="69" rx="43.5" ry="44" fill="url(#paint1_linear_580_9805)"/>
</mask>
<g mask="url(#mask0_580_9805)">
<path d="M141.724 49.636C140.701 50.698 139.369 51.2102 137.619 50.4814C135.354 49.5361 135.608 46.2003 134.082 45.434C129.326 43.0477 133.824 55.9453 129.31 55.9328C126.406 55.9245 127.458 51.8515 127.564 50.1982C127.775 46.8707 126.562 46.8666 125.032 44.1471C123.722 41.8316 124.368 40.778 121.126 39.6578C118.011 38.5791 116.625 39.8493 114.448 41.9149C115.057 43.9264 118.349 45.0009 118.062 47.4413C117.783 49.8317 114.465 51.1727 112.453 50.4731C110.606 49.8317 109.541 47.5329 107.706 46.8832C104.993 45.9337 102.854 47.5537 104.98 50.1441C106.193 51.6267 108.518 51.9223 109.6 53.7756C110.115 54.6626 109.38 55.6329 110.272 56.4783C110.982 57.1488 112.432 56.8073 113.231 57.153C115.416 58.09 115.932 59.2436 115.53 61.7756C115.065 64.7075 113.615 64.6783 111.882 66.669C109.473 69.4301 111.016 70.6211 112.25 73.3531C113.4 75.8934 113.201 79.2542 112.394 81.8987C111.582 84.564 108.809 85.8009 107.744 88.2413C106.785 90.4485 107.736 94.0467 105.965 95.9624C104.113 97.9655 100.368 97.1035 98.4494 95.6209C96.3191 93.9676 96.243 91.2023 94.8355 89.0659C93.1954 86.5713 90.3719 84.514 89.2898 81.628C88.4318 79.35 89.1081 76.1017 85.6463 75.7893C84.8644 74.2901 85.7731 72.5285 85.3166 70.8793C84.6065 68.3098 83.6724 69.0594 81.7492 68.1099C80.2909 67.3895 79.7118 65.8527 77.7759 65.8985C75.2145 65.9568 74.1874 68.9512 71.8711 69.5134C62.9862 71.6831 64.3092 57.736 65.6492 53.2467C67.0947 48.4033 71.9218 42.7645 76.9221 42.4813C79.3906 42.3397 81.0095 41.6151 83.3596 42.144C85.1983 42.5604 87.4681 44.347 89.5139 43.5266C90.7777 43.0227 90.896 41.6068 92.0331 41.1029C93.001 40.6739 93.9816 41.157 95.1102 41.107C97.3589 41.0112 101.108 38.9623 97.6252 37.7962C96.5008 37.4172 95.3934 38.55 94.324 38.0128C93.6519 37.6754 93.9182 36.2845 93.094 35.8722C90.672 34.6728 90.7227 38.6041 87.895 37.1882C86.8848 36.6801 87.5695 35.1017 85.8746 35.0268C84.6107 34.9685 84.3149 36.6176 83.3004 36.9133C82.2564 37.2173 80.9334 36.5427 79.7203 36.8883C78.7354 37.1632 77.8858 38.2501 76.939 38.6291C74.9228 39.4329 72.0274 39.9743 72.932 37.2507C73.6167 35.185 77.3068 34.1731 78.8115 32.7571C80.5741 31.0996 81.2081 30.9081 83.5752 30.0127C85.5237 29.2797 87.988 28.4135 86.665 25.9897C85.6886 25.8231 84.5051 25.8523 83.6259 26.198C82.6284 26.5894 83.1567 28.7591 81.3857 27.6722C79.0609 26.2396 83.0257 24.2698 83.9302 23.5243C85.4603 22.2625 86.1239 20.8507 88.3938 21.2546C90.2367 21.5836 90.6805 23.8575 92.8277 22.8663C92.5868 21.1672 91.2342 19.0599 90.82 17.1234C91.9063 17.0485 93.0052 17.0151 94.1127 17.0151C115.944 17.0151 134.551 30.5874 141.724 49.636Z" fill="#48FAC9"/>
<path d="M63.3959 104.209C62.8007 105.012 62.0029 105.738 61.0627 106.382C50.0697 96.9247 43.1133 82.9408 43.1133 67.3378C43.1133 61.0201 44.2518 54.9644 46.3435 49.3726C47.5726 50.1413 48.5818 51.2279 49.1166 52.5894C50.1861 55.308 47.909 58.9156 49.6082 61.368C50.764 63.0344 52.5667 62.3343 53.977 63.5454C55.6632 64.9885 54.8697 66.5948 55.4476 68.4458C56.3015 71.1902 57.4659 70.3055 59.0444 72.1351C60.4244 73.737 59.3721 75.5795 59.9414 77.2674C60.9204 80.1406 65.9145 82.288 64.1894 86.0288C59.6697 86.0589 61.9382 91.0323 63.0336 93.1883C64.5646 96.1989 65.6514 101.168 63.3959 104.209Z" fill="#48FAC9"/>
<path d="M78.3982 22.2709C77.7933 25.0638 75.9294 25.2938 74.0084 26.6192C71.2167 28.5551 72.9211 30.0101 71.4292 32.3055C70.3584 33.9612 67.9672 33.7856 66.7042 34.994C64.9508 36.6622 65.944 38.7821 64.5379 40.5214C63.0093 42.4154 60.3443 42.3653 59.1344 40.304C57.2706 40.028 56.2528 42.5827 54.3113 43.0301C53.1015 43.3102 51.9162 43.2475 50.8167 42.9339C56.8741 32.1717 66.7124 23.9266 78.484 20.0967C78.5944 20.7448 78.5699 21.4639 78.3982 22.2709Z" fill="white"/>
<path d="M118.611 110.954C112.659 114.172 105.976 116.264 98.8634 116.931C97.2319 117.089 95.575 117.167 93.8968 117.167C89.5377 117.167 85.306 116.633 81.2656 115.63C77.0424 114.582 73.0317 113.021 69.3057 111.016C71.3238 105.73 75.8231 102.006 82.4594 103.795C84.7282 104.404 86.8483 106.21 89.2742 106.057C92.2185 105.871 93.2722 103 96.0126 102.151C99.7386 100.995 100.567 102.619 103.635 104.152C106.558 105.606 106.932 103.452 109.787 103.033C113.402 102.503 115.769 105.614 117.396 108.311C117.889 109.127 118.292 110.017 118.611 110.954Z" fill="white"/>
</g>
<path d="M174 0L176.431 6.56918L183 9L176.431 11.4308L174 18L171.569 11.4308L165 9L171.569 6.56918L174 0Z" fill="#48FAC9"/>
<path d="M189 36L190.621 40.3795L195 42L190.621 43.6205L189 48L187.379 43.6205L183 42L187.379 40.3795L189 36Z" fill="#E6F3FF"/>
<ellipse cx="77.1404" cy="61.1319" rx="76.7499" ry="19.9552" transform="rotate(-10.9188 77.1404 61.1319)" stroke="url(#paint2_linear_580_9805)" stroke-width="2" stroke-linecap="round"/>
<defs>
<filter id="filter0_i_580_9805" x="49" y="25" width="99" height="91" filterUnits="userSpaceOnUse" color-interpolation-filters="sRGB">
<feFlood flood-opacity="0" result="BackgroundImageFix"/>
<feBlend mode="normal" in="SourceGraphic" in2="BackgroundImageFix" result="shape"/>
<feColorMatrix in="SourceAlpha" type="matrix" values="0 0 0 0 0 0 0 0 0 0 0 0 0 0 0 0 0 0 127 0" result="hardAlpha"/>
<feOffset dx="12" dy="4"/>
<feGaussianBlur stdDeviation="8"/>
<feComposite in2="hardAlpha" operator="arithmetic" k2="-1" k3="1"/>
<feColorMatrix type="matrix" values="0 0 0 0 0.0796251 0 0 0 0 0.460608 0 0 0 0 0.816667 0 0 0 1 0"/>
<feBlend mode="normal" in2="shape" result="effect1_innerShadow_580_9805"/>
</filter>
<linearGradient id="paint0_linear_580_9805" x1="92.5" y1="25" x2="92.5" y2="112" gradientUnits="userSpaceOnUse">
<stop stop-color="#2595FF"/>
<stop offset="1" stop-color="#1681E5"/>
</linearGradient>
<linearGradient id="paint1_linear_580_9805" x1="92.5" y1="25" x2="92.5" y2="113" gradientUnits="userSpaceOnUse">
<stop stop-color="#2595FF"/>
<stop offset="1" stop-color="#1681E5"/>
</linearGradient>
<linearGradient id="paint2_linear_580_9805" x1="42.972" y1="76.4915" x2="42.5601" y2="42.1751" gradientUnits="userSpaceOnUse">
<stop stop-color="#EAF3FE"/>
<stop offset="1" stop-color="#E3EDFF" stop-opacity="0"/>
</linearGradient>
</defs>
</svg>
