<svg width="194" height="113" viewBox="0 0 194 113" fill="none" xmlns="http://www.w3.org/2000/svg">
<g clip-path="url(#clip0_601_12945)">
<path d="M125 53.5C125 76.4198 106.42 95 83.5 95C60.5802 95 42 76.4198 42 53.5C42 30.5802 60.5802 12 83.5 12C106.42 12 125 30.5802 125 53.5Z" fill="#F2F9FF"/>
<g filter="url(#filter0_i_601_12945)">
<path d="M135 65.5C135 89.5244 115.524 109 91.5 109C67.4756 109 48 89.5244 48 65.5C48 41.4756 67.4756 22 91.5 22C115.524 22 135 41.4756 135 65.5Z" fill="url(#paint0_linear_601_12945)"/>
</g>
<mask id="mask0_601_12945" style="mask-type:alpha" maskUnits="userSpaceOnUse" x="48" y="22" width="87" height="88">
<path d="M135 66C135 90.3005 115.524 110 91.5 110C67.4756 110 48 90.3005 48 66C48 41.6995 67.4756 22 91.5 22C115.524 22 135 41.6995 135 66Z" fill="url(#paint1_linear_601_12945)"/>
</mask>
<g mask="url(#mask0_601_12945)">
<path d="M140.724 46.636C139.701 47.698 138.369 48.2102 136.619 47.4814C134.354 46.5361 134.608 43.2003 133.082 42.434C128.326 40.0477 132.824 52.9453 128.31 52.9328C125.406 52.9245 126.458 48.8515 126.564 47.1982C126.775 43.8707 125.562 43.8666 124.032 41.1471C122.722 38.8316 123.368 37.778 120.126 36.6578C117.011 35.5791 115.625 36.8493 113.448 38.9149C114.057 40.9264 117.349 42.0009 117.062 44.4413C116.783 46.8317 113.465 48.1727 111.453 47.4731C109.606 46.8317 108.541 44.5329 106.706 43.8832C103.993 42.9337 101.854 44.5537 103.98 47.1441C105.193 48.6267 107.518 48.9223 108.6 50.7756C109.115 51.6626 108.38 52.6329 109.272 53.4783C109.982 54.1488 111.432 53.8073 112.231 54.153C114.416 55.09 114.932 56.2436 114.53 58.7757C114.065 61.7075 112.615 61.6783 110.882 63.669C108.473 66.4301 110.016 67.6211 111.25 70.3531C112.4 72.8934 112.201 76.2542 111.394 78.8987C110.582 81.564 107.809 82.8009 106.744 85.2413C105.785 87.4485 106.736 91.0467 104.965 92.9624C103.113 94.9655 99.3684 94.1035 97.4494 92.6209C95.3191 90.9676 95.243 88.2023 93.8355 86.0659C92.1954 83.5713 89.3719 81.5141 88.2898 78.628C87.4318 76.35 88.1081 73.1017 84.6463 72.7893C83.8643 71.2901 84.7731 69.5285 84.3166 67.8793C83.6065 65.3098 82.6724 66.0594 80.7492 65.1099C79.2909 64.3895 78.7118 62.8527 76.7759 62.8985C74.2145 62.9568 73.1874 65.9512 70.8711 66.5134C61.9862 68.6831 63.3092 54.736 64.6492 50.2467C66.0947 45.4033 70.9218 39.7645 75.9221 39.4813C78.3906 39.3397 80.0095 38.6151 82.3596 39.144C84.1983 39.5604 86.4681 41.347 88.5139 40.5266C89.7777 40.0227 89.896 38.6068 91.0331 38.1029C92.001 37.6739 92.9816 38.157 94.1102 38.107C96.3589 38.0112 100.108 35.9623 96.6252 34.7962C95.5008 34.4172 94.3934 35.55 93.324 35.0128C92.6519 34.6754 92.9182 33.2845 92.094 32.8722C89.672 31.6728 89.7227 35.6041 86.895 34.1882C85.8848 33.6801 86.5695 32.1017 84.8746 32.0268C83.6107 31.9685 83.3149 33.6176 82.3004 33.9133C81.2564 34.2173 79.9334 33.5427 78.7203 33.8883C77.7354 34.1632 76.8858 35.2501 75.939 35.6291C73.9228 36.4329 71.0274 36.9743 71.932 34.2507C72.6167 32.185 76.3068 31.1731 77.8115 29.7571C79.5741 28.0996 80.2081 27.9081 82.5752 27.0127C84.5237 26.2797 86.988 25.4135 85.665 22.9897C84.6886 22.8231 83.5051 22.8523 82.6259 23.198C81.6284 23.5894 82.1567 25.7591 80.3857 24.6722C78.0609 23.2396 82.0257 21.2698 82.9302 20.5243C84.4603 19.2625 85.1239 17.8507 87.3938 18.2546C89.2367 18.5836 89.6805 20.8575 91.8277 19.8663C91.5868 18.1672 90.2342 16.0599 89.82 14.1234C90.9063 14.0485 92.0052 14.0151 93.1127 14.0151C114.944 14.0151 133.551 27.5874 140.724 46.636Z" fill="#48FAC9"/>
<path d="M62.3959 101.209C61.8007 102.012 61.0029 102.738 60.0627 103.382C49.0697 93.9247 42.1133 79.9408 42.1133 64.3378C42.1133 58.0201 43.2518 51.9644 45.3435 46.3726C46.5726 47.1413 47.5818 48.2279 48.1165 49.5894C49.1861 52.308 46.909 55.9156 48.6082 58.368C49.764 60.0344 51.5667 59.3343 52.977 60.5454C54.6632 61.9885 53.8697 63.5948 54.4476 65.4458C55.3015 68.1902 56.4659 67.3055 58.0444 69.1351C59.4244 70.737 58.3721 72.5795 58.9414 74.2674C59.9204 77.1406 64.9145 79.288 63.1894 83.0288C58.6697 83.0589 60.9382 88.0323 62.0336 90.1883C63.5646 93.1989 64.6514 98.168 62.3959 101.209Z" fill="#48FAC9"/>
<path d="M77.3982 19.2709C76.7933 22.0638 74.9294 22.2938 73.0084 23.6192C70.2167 25.5551 71.9211 27.0101 70.4292 29.3055C69.3584 30.9612 66.9672 30.7856 65.7042 31.994C63.9508 33.6622 64.944 35.7821 63.5379 37.5214C62.0093 39.4154 59.3443 39.3653 58.1344 37.304C56.2706 37.028 55.2528 39.5827 53.3113 40.0301C52.1015 40.3102 50.9162 40.2475 49.8167 39.9339C55.8741 29.1717 65.7124 20.9266 77.484 17.0967C77.5944 17.7448 77.5699 18.4639 77.3982 19.2709Z" fill="white"/>
<path d="M117.611 107.954C111.659 111.172 104.976 113.264 97.8634 113.931C96.2319 114.089 94.575 114.167 92.8968 114.167C88.5377 114.167 84.306 113.633 80.2656 112.63C76.0424 111.582 72.0317 110.021 68.3057 108.016C70.3238 102.73 74.8231 99.0059 81.4594 100.795C83.7282 101.404 85.8483 103.21 88.2742 103.057C91.2185 102.871 92.2722 100 95.0126 99.1508C98.7386 97.9951 99.5671 99.6189 102.635 101.152C105.558 102.606 105.932 100.452 108.787 100.033C112.402 99.503 114.769 102.614 116.396 105.311C116.889 106.127 117.292 107.017 117.611 107.954Z" fill="white"/>
</g>
<path fill-rule="evenodd" clip-rule="evenodd" d="M8.90628 67.6376C5.60038 70.6668 4.34449 73.3175 4.7617 75.4803C5.17892 77.643 7.3307 79.6363 11.5261 81.2184C15.6597 82.7771 21.4738 83.8141 28.5889 84.2687C42.8037 85.1769 61.979 83.7472 82.7307 79.744C103.482 75.7407 121.814 69.9351 134.671 63.8045C141.106 60.7359 146.117 57.6106 149.374 54.6261C152.68 51.5969 153.936 48.9462 153.519 46.7835C153.102 44.6208 150.95 42.6274 146.754 41.0453C142.621 39.4866 136.807 38.4496 129.692 37.995C115.477 37.0868 96.3016 38.5166 75.5498 42.5198C54.7981 46.523 36.467 52.3287 23.61 58.4592C17.1745 61.5279 12.1634 64.6532 8.90628 67.6376ZM22.7492 56.654C35.7993 50.4313 54.3023 44.5818 75.171 40.556C96.0397 36.5302 115.391 35.0773 129.819 35.9991C137.026 36.4595 143.062 37.5156 147.46 39.174C151.796 40.809 154.856 43.1566 155.483 46.4047C156.109 49.6527 154.142 52.9701 150.725 56.1007C147.26 59.2759 142.049 62.5018 135.531 65.6098C122.481 71.8325 103.978 77.682 83.1096 81.7078C62.2409 85.7335 42.8898 87.1865 28.4614 86.2647C21.2549 85.8042 15.2182 84.7481 10.8205 83.0898C6.48458 81.4548 3.42448 79.1071 2.79791 75.8591C2.17134 72.6111 4.13858 69.2936 7.55514 66.1631C11.0204 62.9878 16.2311 59.762 22.7492 56.654Z" fill="url(#paint2_linear_601_12945)"/>
<path d="M176 0L178.431 6.56918L185 9L178.431 11.4308L176 18L173.569 11.4308L167 9L173.569 6.56918L176 0Z" fill="#48FAC9"/>
<path d="M188 36L189.621 40.3795L194 42L189.621 43.6205L188 48L186.379 43.6205L182 42L186.379 40.3795L188 36Z" fill="#E6F3FF"/>
</g>
<defs>
<filter id="filter0_i_601_12945" x="48" y="22" width="99" height="91" filterUnits="userSpaceOnUse" color-interpolation-filters="sRGB">
<feFlood flood-opacity="0" result="BackgroundImageFix"/>
<feBlend mode="normal" in="SourceGraphic" in2="BackgroundImageFix" result="shape"/>
<feColorMatrix in="SourceAlpha" type="matrix" values="0 0 0 0 0 0 0 0 0 0 0 0 0 0 0 0 0 0 127 0" result="hardAlpha"/>
<feOffset dx="12" dy="4"/>
<feGaussianBlur stdDeviation="8"/>
<feComposite in2="hardAlpha" operator="arithmetic" k2="-1" k3="1"/>
<feColorMatrix type="matrix" values="0 0 0 0 0.0796251 0 0 0 0 0.460608 0 0 0 0 0.816667 0 0 0 1 0"/>
<feBlend mode="normal" in2="shape" result="effect1_innerShadow_601_12945"/>
</filter>
<linearGradient id="paint0_linear_601_12945" x1="91.5" y1="22" x2="91.5" y2="109" gradientUnits="userSpaceOnUse">
<stop stop-color="#2595FF"/>
<stop offset="1" stop-color="#1681E5"/>
</linearGradient>
<linearGradient id="paint1_linear_601_12945" x1="91.5" y1="22" x2="91.5" y2="110" gradientUnits="userSpaceOnUse">
<stop stop-color="#2595FF"/>
<stop offset="1" stop-color="#1681E5"/>
</linearGradient>
<linearGradient id="paint2_linear_601_12945" x1="48.4999" y1="82.6855" x2="41.5953" y2="49.0684" gradientUnits="userSpaceOnUse">
<stop stop-color="#EAF3FE"/>
<stop offset="1" stop-color="#E3EDFF" stop-opacity="0"/>
</linearGradient>
<clipPath id="clip0_601_12945">
<rect width="194" height="113" fill="white"/>
</clipPath>
</defs>
</svg>
