<svg width="194" height="113" viewBox="0 0 194 113" fill="none" xmlns="http://www.w3.org/2000/svg">
<path d="M125 53.5C125 76.4198 106.42 95 83.5 95C60.5802 95 42 76.4198 42 53.5C42 30.5802 60.5802 12 83.5 12C106.42 12 125 30.5802 125 53.5Z" fill="#F2F9FF"/>
<mask id="mask0_601_12945" style="mask-type:alpha" maskUnits="userSpaceOnUse" x="59" y="25" width="88" height="88">
<path d="M147 69C147 93.3005 127.301 113 103 113C78.6995 113 59 93.3005 59 69C59 44.6995 78.6995 25 103 25C127.301 25 147 44.6995 147 69Z" fill="url(#paint0_linear_601_12945)"/>
</mask>
<g mask="url(#mask0_601_12945)">
<g filter="url(#filter0_i_601_12945)">
<path d="M147 69C147 93.3005 127.301 113 103 113C78.6995 113 59 93.3005 59 69C59 44.6995 78.6995 25 103 25C127.301 25 147 44.6995 147 69Z" fill="url(#paint1_linear_601_12945)"/>
</g>
<path d="M151.724 49.636C150.701 50.698 149.369 51.2102 147.619 50.4814C145.354 49.5361 145.608 46.2003 144.082 45.434C139.326 43.0477 143.824 55.9453 139.31 55.9328C136.406 55.9245 137.458 51.8515 137.564 50.1982C137.775 46.8707 136.562 46.8666 135.032 44.1471C133.722 41.8317 134.368 40.778 131.126 39.6578C128.011 38.5791 126.625 39.8493 124.448 41.9149C125.057 43.9264 128.349 45.0009 128.062 47.4413C127.783 49.8317 124.465 51.1727 122.453 50.4731C120.606 49.8317 119.541 47.5329 117.706 46.8832C114.993 45.9337 112.854 47.5537 114.98 50.1441C116.193 51.6267 118.518 51.9223 119.6 53.7756C120.115 54.6626 119.38 55.6329 120.272 56.4783C120.982 57.1488 122.432 56.8073 123.231 57.153C125.416 58.09 125.932 59.2436 125.53 61.7757C125.065 64.7075 123.615 64.6783 121.882 66.669C119.473 69.4301 121.016 70.6211 122.25 73.3531C123.4 75.8934 123.201 79.2542 122.394 81.8987C121.582 84.564 118.809 85.8009 117.744 88.2413C116.785 90.4485 117.736 94.0467 115.965 95.9624C114.113 97.9655 110.368 97.1035 108.449 95.6209C106.319 93.9676 106.243 91.2023 104.835 89.0659C103.195 86.5713 100.372 84.514 99.2898 81.628C98.4318 79.35 99.1081 76.1017 95.6463 75.7893C94.8643 74.2901 95.7731 72.5285 95.3166 70.8793C94.6065 68.3098 93.6724 69.0594 91.7492 68.1099C90.2909 67.3895 89.7118 65.8527 87.7759 65.8985C85.2145 65.9568 84.1874 68.9512 81.8711 69.5134C72.9862 71.6831 74.3092 57.736 75.6492 53.2467C77.0947 48.4033 81.9218 42.7645 86.9221 42.4813C89.3906 42.3397 91.0095 41.6151 93.3596 42.144C95.1983 42.5604 97.4681 44.347 99.5139 43.5266C100.778 43.0227 100.896 41.6068 102.033 41.1029C103.001 40.6739 103.982 41.157 105.11 41.107C107.359 41.0112 111.108 38.9623 107.625 37.7962C106.501 37.4172 105.393 38.55 104.324 38.0128C103.652 37.6754 103.918 36.2845 103.094 35.8722C100.672 34.6728 100.723 38.6041 97.895 37.1882C96.8848 36.6801 97.5695 35.1017 95.8746 35.0268C94.6107 34.9685 94.3149 36.6176 93.3004 36.9133C92.2564 37.2173 90.9334 36.5427 89.7203 36.8883C88.7354 37.1632 87.8858 38.2501 86.939 38.6291C84.9228 39.4329 82.0274 39.9743 82.932 37.2507C83.6167 35.185 87.3068 34.1731 88.8115 32.7571C90.5741 31.0996 91.2081 30.9081 93.5752 30.0127C95.5237 29.2797 97.988 28.4135 96.665 25.9897C95.6886 25.8231 94.5051 25.8523 93.6259 26.198C92.6284 26.5894 93.1567 28.7591 91.3857 27.6722C89.0609 26.2396 93.0257 24.2698 93.9302 23.5243C95.4603 22.2625 96.1239 20.8507 98.3938 21.2546C100.237 21.5836 100.68 23.8575 102.828 22.8663C102.587 21.1672 101.234 19.0599 100.82 17.1234C101.906 17.0485 103.005 17.0151 104.113 17.0151C125.944 17.0151 144.551 30.5874 151.724 49.636Z" fill="#48FAC9"/>
<path d="M73.3959 104.209C72.8007 105.012 72.0029 105.738 71.0627 106.382C60.0697 96.9247 53.1133 82.9408 53.1133 67.3378C53.1133 61.0201 54.2518 54.9644 56.3435 49.3726C57.5726 50.1413 58.5818 51.2279 59.1165 52.5894C60.1861 55.308 57.909 58.9156 59.6082 61.368C60.764 63.0344 62.5667 62.3343 63.977 63.5454C65.6632 64.9885 64.8697 66.5948 65.4476 68.4458C66.3015 71.1902 67.4659 70.3055 69.0444 72.1351C70.4244 73.737 69.3721 75.5795 69.9414 77.2674C70.9204 80.1406 75.9145 82.288 74.1894 86.0288C69.6697 86.0589 71.9382 91.0323 73.0336 93.1883C74.5646 96.1989 75.6514 101.168 73.3959 104.209Z" fill="#48FAC9"/>
<path d="M88.3982 22.2709C87.7933 25.0638 85.9294 25.2938 84.0084 26.6192C81.2167 28.5551 82.9211 30.0101 81.4292 32.3055C80.3584 33.9612 77.9672 33.7856 76.7042 34.994C74.9508 36.6622 75.944 38.7821 74.5379 40.5214C73.0093 42.4154 70.3443 42.3653 69.1344 40.304C67.2706 40.028 66.2528 42.5827 64.3113 43.0301C63.1015 43.3102 61.9162 43.2475 60.8167 42.9339C66.8741 32.1717 76.7124 23.9266 88.484 20.0967C88.5944 20.7448 88.5699 21.4639 88.3982 22.2709Z" fill="white"/>
<path d="M128.611 110.954C122.659 114.172 115.976 116.264 108.863 116.931C107.232 117.089 105.575 117.167 103.897 117.167C99.5377 117.167 95.306 116.633 91.2656 115.63C87.0424 114.582 83.0317 113.021 79.3057 111.016C81.3238 105.73 85.8231 102.006 92.4594 103.795C94.7282 104.404 96.8483 106.21 99.2742 106.057C102.219 105.871 103.272 103 106.013 102.151C109.739 100.995 110.567 102.619 113.635 104.152C116.558 105.606 116.932 103.452 119.787 103.033C123.402 102.503 125.769 105.614 127.396 108.311C127.889 109.127 128.292 110.017 128.611 110.954Z" fill="white"/>
</g>
<path fill-rule="evenodd" clip-rule="evenodd" d="M8.90628 67.6376C5.60038 70.6668 4.34449 73.3175 4.7617 75.4803C5.17892 77.643 7.3307 79.6363 11.5261 81.2184C15.6597 82.7771 21.4738 83.8141 28.5889 84.2687C42.8037 85.1769 61.979 83.7472 82.7307 79.744C103.482 75.7407 121.814 69.9351 134.671 63.8045C141.106 60.7359 146.117 57.6106 149.374 54.6261C152.68 51.5969 153.936 48.9462 153.519 46.7835C153.102 44.6208 150.95 42.6274 146.754 41.0453C142.621 39.4866 136.807 38.4496 129.692 37.995C115.477 37.0868 96.3016 38.5166 75.5498 42.5198C54.7981 46.523 36.467 52.3287 23.61 58.4592C17.1745 61.5279 12.1634 64.6532 8.90628 67.6376ZM22.7492 56.654C35.7993 50.4313 54.3023 44.5818 75.171 40.556C96.0397 36.5302 115.391 35.0773 129.819 35.9991C137.026 36.4595 143.062 37.5156 147.46 39.174C151.796 40.809 154.856 43.1566 155.483 46.4047C156.109 49.6527 154.142 52.9701 150.725 56.1007C147.26 59.2759 142.049 62.5018 135.531 65.6098C122.481 71.8325 103.978 77.682 83.1096 81.7078C62.2409 85.7335 42.8898 87.1865 28.4614 86.2647C21.2549 85.8042 15.2182 84.7481 10.8205 83.0898C6.48458 81.4548 3.42448 79.1071 2.79791 75.8591C2.17134 72.6111 4.13858 69.2936 7.55514 66.1631C11.0204 62.9878 16.2311 59.762 22.7492 56.654Z" fill="url(#paint2_linear_601_12945)"/>
<path d="M176 0L178.431 6.56918L185 9L178.431 11.4308L176 18L173.569 11.4308L167 9L173.569 6.56918L176 0Z" fill="#48FAC9"/>
<path d="M188 36L189.621 40.3795L194 42L189.621 43.6205L188 48L186.379 43.6205L182 42L186.379 40.3795L188 36Z" fill="#E6F3FF"/>
<defs>
<filter id="filter0_i_601_12945" x="59" y="25" width="100" height="92" filterUnits="userSpaceOnUse" color-interpolation-filters="sRGB">
<feFlood flood-opacity="0" result="BackgroundImageFix"/>
<feBlend mode="normal" in="SourceGraphic" in2="BackgroundImageFix" result="shape"/>
<feColorMatrix in="SourceAlpha" type="matrix" values="0 0 0 0 0 0 0 0 0 0 0 0 0 0 0 0 0 0 127 0" result="hardAlpha"/>
<feOffset dx="12" dy="4"/>
<feGaussianBlur stdDeviation="8"/>
<feComposite in2="hardAlpha" operator="arithmetic" k2="-1" k3="1"/>
<feColorMatrix type="matrix" values="0 0 0 0 0.0796251 0 0 0 0 0.460608 0 0 0 0 0.816667 0 0 0 1 0"/>
<feBlend mode="normal" in2="shape" result="effect1_innerShadow_601_12945"/>
</filter>
<linearGradient id="paint0_linear_601_12945" x1="103" y1="25" x2="103" y2="113" gradientUnits="userSpaceOnUse">
<stop stop-color="#2595FF"/>
<stop offset="1" stop-color="#1681E5"/>
</linearGradient>
<linearGradient id="paint1_linear_601_12945" x1="103" y1="25" x2="103" y2="113" gradientUnits="userSpaceOnUse">
<stop stop-color="#2595FF"/>
<stop offset="1" stop-color="#1681E5"/>
</linearGradient>
<linearGradient id="paint2_linear_601_12945" x1="48.4999" y1="82.6855" x2="41.5953" y2="49.0684" gradientUnits="userSpaceOnUse">
<stop stop-color="#EAF3FE"/>
<stop offset="1" stop-color="#E3EDFF" stop-opacity="0"/>
</linearGradient>
</defs>
</svg>
