<svg width="195" height="113" viewBox="0 0 195 113" fill="none" xmlns="http://www.w3.org/2000/svg">
<circle cx="79.5" cy="54.5" r="41.5" fill="#F2F9FF"/>
<g filter="url(#filter0_i_579_9662)">
<circle cx="96.5" cy="68.5" r="43.5" fill="url(#paint0_linear_579_9662)"/>
</g>
<mask id="mask0_579_9662" style="mask-type:alpha" maskUnits="userSpaceOnUse" x="52" y="24" width="88" height="89">
<ellipse cx="96.0001" cy="68.4999" rx="43.8731" ry="44.4999" fill="url(#paint1_linear_579_9662)"/>
</mask>
<g mask="url(#mask0_579_9662)">
<path d="M145.724 49.636C144.701 50.698 143.369 51.2102 141.619 50.4814C139.354 49.5361 139.608 46.2003 138.082 45.434C133.326 43.0477 137.824 55.9453 133.31 55.9328C130.406 55.9245 131.458 51.8515 131.564 50.1982C131.775 46.8707 130.562 46.8666 129.032 44.1471C127.722 41.8316 128.368 40.778 125.126 39.6578C122.011 38.5791 120.625 39.8493 118.448 41.9149C119.057 43.9264 122.349 45.0009 122.062 47.4413C121.783 49.8317 118.465 51.1727 116.453 50.4731C114.606 49.8317 113.541 47.5329 111.706 46.8832C108.993 45.9337 106.854 47.5537 108.98 50.1441C110.193 51.6267 112.518 51.9223 113.6 53.7756C114.115 54.6626 113.38 55.6329 114.272 56.4783C114.982 57.1488 116.432 56.8073 117.231 57.153C119.416 58.09 119.932 59.2436 119.53 61.7757C119.065 64.7075 117.615 64.6783 115.882 66.669C113.473 69.4301 115.016 70.6211 116.25 73.3531C117.4 75.8934 117.201 79.2542 116.394 81.8987C115.582 84.564 112.809 85.8009 111.744 88.2413C110.785 90.4485 111.736 94.0467 109.965 95.9624C108.113 97.9655 104.368 97.1035 102.449 95.6209C100.319 93.9676 100.243 91.2023 98.8355 89.0659C97.1954 86.5713 94.3719 84.514 93.2898 81.628C92.4318 79.35 93.1081 76.1017 89.6463 75.7893C88.8643 74.2901 89.7731 72.5285 89.3166 70.8793C88.6065 68.3098 87.6724 69.0594 85.7492 68.1099C84.2909 67.3895 83.7118 65.8527 81.7759 65.8985C79.2145 65.9568 78.1874 68.9512 75.8711 69.5134C66.9862 71.6831 68.3092 57.736 69.6492 53.2467C71.0947 48.4033 75.9218 42.7645 80.9221 42.4813C83.3906 42.3397 85.0095 41.6151 87.3596 42.144C89.1983 42.5604 91.4681 44.347 93.5139 43.5266C94.7777 43.0227 94.896 41.6068 96.0331 41.1029C97.001 40.6739 97.9816 41.157 99.1102 41.107C101.359 41.0112 105.108 38.9623 101.625 37.7962C100.501 37.4172 99.3934 38.55 98.324 38.0128C97.6519 37.6754 97.9182 36.2845 97.094 35.8722C94.672 34.6728 94.7227 38.6041 91.895 37.1882C90.8848 36.6801 91.5695 35.1017 89.8746 35.0268C88.6107 34.9685 88.3149 36.6176 87.3004 36.9133C86.2564 37.2173 84.9334 36.5427 83.7203 36.8883C82.7354 37.1632 81.8858 38.2501 80.939 38.6291C78.9228 39.4329 76.0274 39.9743 76.932 37.2507C77.6167 35.185 81.3068 34.1731 82.8115 32.7571C84.5741 31.0996 85.2081 30.9081 87.5752 30.0127C89.5237 29.2797 91.988 28.4135 90.665 25.9897C89.6886 25.8231 88.5051 25.8523 87.6259 26.198C86.6284 26.5894 87.1567 28.7591 85.3857 27.6722C83.0609 26.2396 87.0257 24.2698 87.9302 23.5243C89.4603 22.2625 90.1239 20.8507 92.3938 21.2546C94.2367 21.5836 94.6805 23.8575 96.8277 22.8663C96.5868 21.1672 95.2342 19.0599 94.82 17.1234C95.9063 17.0485 97.0052 17.0151 98.1127 17.0151C119.944 17.0151 138.551 30.5874 145.724 49.636Z" fill="#48FAC9"/>
<path d="M67.3959 104.209C66.8007 105.012 66.0029 105.738 65.0627 106.382C54.0697 96.9247 47.1133 82.9408 47.1133 67.3378C47.1133 61.0201 48.2518 54.9644 50.3435 49.3726C51.5726 50.1413 52.5818 51.2279 53.1165 52.5894C54.1861 55.308 51.909 58.9156 53.6082 61.368C54.764 63.0344 56.5667 62.3343 57.977 63.5454C59.6632 64.9885 58.8697 66.5948 59.4476 68.4458C60.3015 71.1902 61.4659 70.3055 63.0444 72.1351C64.4244 73.737 63.3721 75.5795 63.9414 77.2674C64.9204 80.1406 69.9145 82.288 68.1894 86.0288C63.6697 86.0589 65.9382 91.0323 67.0336 93.1883C68.5646 96.1989 69.6514 101.168 67.3959 104.209Z" fill="#48FAC9"/>
<path d="M82.3982 22.2709C81.7933 25.0638 79.9294 25.2938 78.0084 26.6192C75.2167 28.5551 76.9211 30.0101 75.4292 32.3055C74.3584 33.9612 71.9672 33.7856 70.7042 34.994C68.9508 36.6622 69.944 38.7821 68.5379 40.5214C67.0093 42.4154 64.3443 42.3653 63.1344 40.304C61.2706 40.028 60.2528 42.5827 58.3113 43.0301C57.1015 43.3102 55.9162 43.2475 54.8167 42.9339C60.8741 32.1717 70.7124 23.9266 82.484 20.0967C82.5944 20.7448 82.5699 21.4639 82.3982 22.2709Z" fill="white"/>
<path d="M122.611 110.954C116.659 114.172 109.976 116.264 102.864 116.931C101.232 117.089 99.5751 117.167 97.8969 117.167C93.5378 117.167 89.3061 116.633 85.2657 115.63C81.0425 114.582 77.0318 113.021 73.3058 111.016C75.3239 105.73 79.8232 102.006 86.4596 103.795C88.7283 104.404 90.8484 106.21 93.2744 106.057C96.2187 105.871 97.2723 103 100.013 102.151C103.739 100.995 104.567 102.619 107.635 104.152C110.558 105.606 110.932 103.452 113.787 103.033C117.402 102.503 119.769 105.614 121.396 108.311C121.889 109.127 122.293 110.017 122.611 110.954Z" fill="white"/>
</g>
<path d="M174 0L176.431 6.56918L183 9L176.431 11.4308L174 18L171.569 11.4308L165 9L171.569 6.56918L174 0Z" fill="#48FAC9"/>
<path d="M189 36L190.621 40.3795L195 42L190.621 43.6205L189 48L187.379 43.6205L183 42L187.379 40.3795L189 36Z" fill="#E6F3FF"/>
<ellipse cx="77.1404" cy="61.1319" rx="76.7499" ry="19.9552" transform="rotate(-10.9188 77.1404 61.1319)" stroke="url(#paint2_linear_579_9662)" stroke-width="2" stroke-linecap="round"/>
<defs>
<filter id="filter0_i_579_9662" x="53" y="25" width="99" height="91" filterUnits="userSpaceOnUse" color-interpolation-filters="sRGB">
<feFlood flood-opacity="0" result="BackgroundImageFix"/>
<feBlend mode="normal" in="SourceGraphic" in2="BackgroundImageFix" result="shape"/>
<feColorMatrix in="SourceAlpha" type="matrix" values="0 0 0 0 0 0 0 0 0 0 0 0 0 0 0 0 0 0 127 0" result="hardAlpha"/>
<feOffset dx="12" dy="4"/>
<feGaussianBlur stdDeviation="8"/>
<feComposite in2="hardAlpha" operator="arithmetic" k2="-1" k3="1"/>
<feColorMatrix type="matrix" values="0 0 0 0 0.0796251 0 0 0 0 0.460608 0 0 0 0 0.816667 0 0 0 1 0"/>
<feBlend mode="normal" in2="shape" result="effect1_innerShadow_579_9662"/>
</filter>
<linearGradient id="paint0_linear_579_9662" x1="96.5" y1="25" x2="96.5" y2="112" gradientUnits="userSpaceOnUse">
<stop stop-color="#2595FF"/>
<stop offset="1" stop-color="#1681E5"/>
</linearGradient>
<linearGradient id="paint1_linear_579_9662" x1="96.0001" y1="24" x2="96.0001" y2="113" gradientUnits="userSpaceOnUse">
<stop stop-color="#2595FF"/>
<stop offset="1" stop-color="#1681E5"/>
</linearGradient>
<linearGradient id="paint2_linear_579_9662" x1="42.972" y1="76.4915" x2="42.5601" y2="42.1751" gradientUnits="userSpaceOnUse">
<stop stop-color="#EAF3FE"/>
<stop offset="1" stop-color="#E3EDFF" stop-opacity="0"/>
</linearGradient>
</defs>
</svg>
