<svg width="194" height="113" viewBox="0 0 194 113" fill="none" xmlns="http://www.w3.org/2000/svg">
<g clip-path="url(#clip0_580_9819)">
<circle cx="79.5" cy="53.5" r="41.5" fill="#F2F9FF"/>
<path d="M109.873 49.3782L103.642 47.3494C103.721 46.4361 103.788 45.3827 103.788 44.3096C103.788 43.2364 103.723 42.2597 103.642 41.4393L109.879 32.2088C111.037 30.4834 111.353 28.4252 110.616 27.2886L104.136 18.084C103.444 17.0225 101.927 17.148 100.388 18.6923L93.0349 26.3458C91.6254 25.9854 90.148 25.8469 88.6199 25.9365L87.5013 17.5769C87.3177 15.9738 86.0296 15.4258 84.5072 16.3048L71.5136 23.8066C69.9911 24.6857 68.7059 26.7193 68.5251 28.5067L67.4037 38.1923C65.9235 39.8167 64.4689 41.635 62.9972 43.6947L55.6247 44.533C54.2433 44.7141 52.5909 46.3595 51.9045 48.2105L45.4163 64.9184C44.6508 66.8543 44.9671 68.6123 46.1507 69.0119L52.3819 71.0407C52.283 72.1969 52.2351 73.1803 52.2351 74.0773C52.2351 74.9743 52.2832 75.9021 52.3819 76.9476L46.145 86.1781C44.9869 87.9067 44.6733 89.9633 45.4106 91.0967L51.8904 100.301C52.5825 101.359 54.0852 101.249 55.6388 99.6928L62.9915 92.0393C64.3982 92.3981 65.8755 92.5367 67.4037 92.4502L68.5223 100.807C68.7058 102.416 69.9911 102.966 71.5164 102.085L84.5099 94.5833C86.0325 93.7043 87.3206 91.669 87.5013 89.8816L88.6227 80.1994C90.1028 78.5718 91.5547 76.7583 93.0292 74.6937L100.402 73.8554C100.758 73.8097 101.128 73.6776 101.509 73.4575C102.605 72.8247 103.613 71.551 104.122 70.1811L110.63 53.4096C111.353 51.4656 111.037 49.7729 109.873 49.3782ZM78.0103 72.2425C71.7791 75.8401 66.7116 72.9143 66.7116 65.7191C66.7116 58.5239 71.7791 49.7468 78.0103 46.1492C84.2416 42.5516 89.3091 45.4773 89.3091 52.6725C89.3091 59.8677 84.2416 68.6449 78.0103 72.2425Z" fill="#1681E5"/>
<path d="M103.5 17.5L113 22L110.5 27L105 35L96 32.5L97 24L103.5 17.5Z" fill="#1681E5"/>
<path d="M86.5 16L96 20.5L93.5 25.5L88 33.5L79 31L80 22.5L86.5 16Z" fill="#1681E5"/>
<path d="M62.5 105.5L52.8904 100.965L53.8754 94.4451L56.3899 88.4647L63.0956 90.9647L67.6919 93.8488L62.5 105.5Z" fill="#1681E5"/>
<path d="M79.5 107L69.8758 102.267L69.8758 95.4453L72.3903 89.4649L79.096 91.965L83.6923 94.849L79.5 107Z" fill="#1681E5"/>
<path d="M67.5 38L68.5 28L78.5 32L78 43L67.5 38Z" fill="url(#paint0_linear_580_9819)"/>
<path d="M45.5 66L51.5 49.5L61 54L57.5 71L45.5 66Z" fill="url(#paint1_linear_580_9819)"/>
<path d="M45.5 87.5L52.5 77L62 81.5L55.5 95L45.5 87.5Z" fill="url(#paint2_linear_580_9819)"/>
<path d="M119.658 53.9441L113.427 51.9154C113.506 51.0021 113.574 49.9486 113.574 48.8755C113.574 47.8024 113.509 46.8256 113.427 46.0052L119.664 36.7747C120.822 35.0493 121.138 32.9911 120.401 31.8545L113.921 22.65C113.229 21.5884 111.712 21.7139 110.173 23.2582L102.82 30.9117C101.411 30.5513 99.9331 30.4128 98.405 30.5024L97.2865 22.1428C97.1028 20.5397 95.8147 19.9917 94.2923 20.8707L81.2988 28.3725C79.7762 29.2516 78.4911 31.2852 78.3102 33.0726L77.1889 42.7582C75.7087 44.3826 74.254 46.2009 72.7823 48.2606L65.4099 49.0989C64.0285 49.28 62.376 50.9254 61.6896 52.7764L55.2014 69.4844C54.436 71.4202 54.7523 73.1782 55.9359 73.5778L62.1671 75.6066C62.0682 76.7628 62.0203 77.7462 62.0203 78.6432C62.0203 79.5402 62.0683 80.468 62.1671 81.5135L55.9302 90.744C54.772 92.4727 54.4585 94.5292 55.1957 95.6626L61.6756 104.867C62.3677 105.925 63.8704 105.814 65.4239 104.259L72.7766 96.6052C74.1833 96.9641 75.6606 97.1027 77.1889 97.0161L78.3074 105.373C78.491 106.982 79.7762 107.532 81.3016 106.651L94.2951 99.1493C95.8177 98.2702 97.1057 96.2349 97.2865 94.4476L98.4078 84.7653C99.888 83.1377 101.34 81.3242 102.814 79.2596L110.187 78.4213C110.543 78.3756 110.913 78.2436 111.294 78.0234C112.39 77.3907 113.398 76.1169 113.907 74.747L120.415 57.9755C121.138 56.0315 120.822 54.3388 119.658 53.9441ZM87.7955 76.8084C81.5643 80.406 76.4968 77.4803 76.4968 70.2851C76.4968 63.0899 81.5643 54.3127 87.7955 50.7151C94.0267 47.1175 99.0942 50.0432 99.0942 57.2384C99.0942 64.4336 94.0267 73.2108 87.7955 76.8084Z" fill="#2595FF"/>
<path d="M130.935 42.978L128.617 42.2233C128.646 41.8835 128.672 41.4916 128.672 41.0924C128.672 40.6932 128.647 40.3298 128.617 40.0246L130.937 36.5907C131.368 35.9488 131.486 35.1832 131.212 34.7603L128.801 31.3361C128.543 30.9411 127.979 30.9878 127.406 31.5623L124.671 34.4096C124.147 34.2755 123.597 34.224 123.029 34.2573L122.613 31.1474C122.544 30.551 122.065 30.3471 121.499 30.6741L116.665 33.465C116.098 33.792 115.62 34.5485 115.553 35.2135L115.136 38.8167C114.585 39.421 114.044 40.0974 113.497 40.8637L110.754 41.1755C110.24 41.2429 109.625 41.855 109.37 42.5436L106.956 48.7593C106.671 49.4794 106.789 50.1335 107.229 50.2821L109.547 51.0369C109.511 51.467 109.493 51.8328 109.493 52.1665C109.493 52.5002 109.511 52.8454 109.547 53.2343L107.227 56.6682C106.796 57.3113 106.68 58.0764 106.954 58.498L109.365 61.9222C109.622 62.316 110.181 62.2747 110.759 61.696L113.494 58.8487C114.018 58.9822 114.567 59.0338 115.136 59.0016L115.552 62.1103C115.62 62.7091 116.098 62.9136 116.666 62.586L121.5 59.7951C122.066 59.4681 122.545 58.711 122.613 58.046L123.03 54.4441C123.58 53.8386 124.12 53.1639 124.669 52.3958L127.412 52.084C127.544 52.067 127.682 52.0179 127.824 51.936C128.231 51.7006 128.606 51.2267 128.796 50.7171L131.217 44.4778C131.486 43.7546 131.368 43.1249 130.935 42.978ZM119.082 51.4839C116.764 52.8223 114.878 51.7339 114.878 49.0572C114.878 46.3804 116.764 43.1152 119.082 41.7768C121.4 40.4384 123.285 41.5268 123.285 44.2036C123.285 46.8803 121.4 50.1456 119.082 51.4839Z" fill="#1681E5"/>
<path d="M128.564 31.1187L132.098 32.7927L131.168 34.6528L129.122 37.629L125.774 36.6989L126.146 33.5368L128.564 31.1187Z" fill="#1681E5"/>
<path d="M122.24 30.5605L125.774 32.2346L124.844 34.0947L122.798 37.0709L119.449 36.1408L119.821 32.9787L122.24 30.5605Z" fill="#1681E5"/>
<path d="M113.311 63.8563L109.736 62.1691L110.103 59.7437L111.038 57.5189L113.533 58.4489L115.243 59.5218L113.311 63.8563Z" fill="#1681E5"/>
<path d="M119.636 64.4143L116.056 62.6537L116.056 60.1158L116.991 57.891L119.486 58.821L121.196 59.8939L119.636 64.4143Z" fill="#1681E5"/>
<path d="M115.171 38.7451L115.543 35.0249L119.264 36.513L119.078 40.6052L115.171 38.7451Z" fill="url(#paint3_linear_580_9819)"/>
<path d="M106.987 49.1617L109.219 43.0234L112.753 44.6975L111.451 51.0218L106.987 49.1617Z" fill="url(#paint4_linear_580_9819)"/>
<path d="M106.987 57.1601L109.591 53.2539L113.125 54.928L110.707 59.9502L106.987 57.1601Z" fill="url(#paint5_linear_580_9819)"/>
<path d="M134.575 44.6768L132.257 43.922C132.286 43.5823 132.311 43.1904 132.311 42.7912C132.311 42.3919 132.287 42.0286 132.257 41.7234L134.577 38.2894C135.008 37.6475 135.125 36.8819 134.851 36.4591L132.441 33.0348C132.183 32.6399 131.619 32.6866 131.046 33.2611L128.311 36.1083C127.786 35.9742 127.237 35.9227 126.668 35.956L126.252 32.8461C126.184 32.2497 125.705 32.0459 125.138 32.3729L120.304 35.1637C119.738 35.4907 119.26 36.2472 119.193 36.9122L118.775 40.5154C118.225 41.1197 117.684 41.7962 117.136 42.5624L114.394 42.8743C113.88 42.9416 113.265 43.5537 113.01 44.2424L110.596 50.458C110.311 51.1782 110.429 51.8322 110.869 51.9808L113.187 52.7356C113.15 53.1657 113.133 53.5316 113.133 53.8653C113.133 54.199 113.15 54.5441 113.187 54.9331L110.867 58.367C110.436 59.0101 110.319 59.7751 110.594 60.1968L113.004 63.621C113.262 64.0147 113.821 63.9735 114.399 63.3947L117.134 60.5475C117.657 60.6809 118.207 60.7325 118.775 60.7003L119.192 63.809C119.26 64.4079 119.738 64.6123 120.305 64.2847L125.139 61.4939C125.706 61.1669 126.185 60.4097 126.252 59.7448L126.669 56.1428C127.22 55.5373 127.76 54.8627 128.309 54.0946L131.051 53.7827C131.184 53.7657 131.321 53.7166 131.463 53.6347C131.871 53.3993 132.246 52.9254 132.435 52.4158L134.856 46.1765C135.125 45.4533 135.008 44.8236 134.575 44.6768ZM122.721 53.1827C120.403 54.521 118.518 53.4326 118.518 50.7559C118.518 48.0791 120.403 44.8139 122.721 43.4755C125.039 42.1371 126.925 43.2256 126.925 45.9023C126.925 48.579 125.039 51.8443 122.721 53.1827Z" fill="#40FFC6"/>
<path d="M23 1L25.4308 7.56918L32 10L25.4308 12.4308L23 19L20.5692 12.4308L14 10L20.5692 7.56918L23 1Z" fill="#48FAC9"/>
<path d="M187 37L188.621 41.3795L193 43L188.621 44.6205L187 49L185.379 44.6205L181 43L185.379 41.3795L187 37Z" fill="#E6F3FF"/>
<ellipse cx="79.1404" cy="62.1319" rx="76.7499" ry="19.9552" transform="rotate(-10.9188 79.1404 62.1319)" stroke="url(#paint6_linear_580_9819)" stroke-width="2" stroke-linecap="round"/>
</g>
<defs>
<linearGradient id="paint0_linear_580_9819" x1="78" y1="30" x2="73" y2="42.5" gradientUnits="userSpaceOnUse">
<stop offset="0.156363" stop-color="#1681E5"/>
<stop offset="0.4875" stop-color="#479FFF"/>
<stop offset="0.842857" stop-color="#1782E5"/>
</linearGradient>
<linearGradient id="paint1_linear_580_9819" x1="59.5" y1="52" x2="54.5" y2="64.5" gradientUnits="userSpaceOnUse">
<stop offset="0.156363" stop-color="#1681E5"/>
<stop offset="0.4875" stop-color="#479FFF"/>
<stop offset="0.842857" stop-color="#1782E5"/>
</linearGradient>
<linearGradient id="paint2_linear_580_9819" x1="59" y1="76.5" x2="54" y2="89" gradientUnits="userSpaceOnUse">
<stop offset="0.156363" stop-color="#1681E5"/>
<stop offset="0.4875" stop-color="#479FFF"/>
<stop offset="0.842857" stop-color="#1782E5"/>
</linearGradient>
<linearGradient id="paint3_linear_580_9819" x1="119.078" y1="35.7689" x2="117.217" y2="40.4192" gradientUnits="userSpaceOnUse">
<stop offset="0.156363" stop-color="#1681E5"/>
<stop offset="0.4875" stop-color="#479FFF"/>
<stop offset="0.842857" stop-color="#1782E5"/>
</linearGradient>
<linearGradient id="paint4_linear_580_9819" x1="112.195" y1="43.9535" x2="110.335" y2="48.6037" gradientUnits="userSpaceOnUse">
<stop offset="0.156363" stop-color="#1681E5"/>
<stop offset="0.4875" stop-color="#479FFF"/>
<stop offset="0.842857" stop-color="#1782E5"/>
</linearGradient>
<linearGradient id="paint5_linear_580_9819" x1="112.009" y1="53.0679" x2="110.149" y2="57.7181" gradientUnits="userSpaceOnUse">
<stop offset="0.156363" stop-color="#1681E5"/>
<stop offset="0.4875" stop-color="#479FFF"/>
<stop offset="0.842857" stop-color="#1782E5"/>
</linearGradient>
<linearGradient id="paint6_linear_580_9819" x1="44.972" y1="77.4915" x2="44.5601" y2="43.1751" gradientUnits="userSpaceOnUse">
<stop stop-color="#EAF3FE"/>
<stop offset="1" stop-color="#E3EDFF" stop-opacity="0"/>
</linearGradient>
<clipPath id="clip0_580_9819">
<rect width="194" height="113" fill="white"/>
</clipPath>
</defs>
</svg>
