<svg width="195" height="113" viewBox="0 0 195 113" fill="none" xmlns="http://www.w3.org/2000/svg">
<circle cx="79.5" cy="55.5" r="41.5" fill="#F2F9FF"/>
<path d="M111.873 49.3782L105.642 47.3494C105.721 46.4361 105.788 45.3827 105.788 44.3096C105.788 43.2364 105.723 42.2597 105.642 41.4393L111.879 32.2088C113.037 30.4834 113.353 28.4252 112.616 27.2886L106.136 18.084C105.444 17.0225 103.927 17.148 102.388 18.6923L95.0349 26.3458C93.6254 25.9854 92.148 25.8469 90.6199 25.9365L89.5013 17.5769C89.3177 15.9738 88.0296 15.4258 86.5072 16.3048L73.5136 23.8066C71.9911 24.6857 70.7059 26.7193 70.5251 28.5067L69.4037 38.1923C67.9235 39.8167 66.4689 41.635 64.9972 43.6947L57.6247 44.533C56.2433 44.7141 54.5909 46.3595 53.9045 48.2105L47.4163 64.9184C46.6508 66.8543 46.9671 68.6123 48.1507 69.0119L54.3819 71.0407C54.283 72.1969 54.2351 73.1803 54.2351 74.0773C54.2351 74.9743 54.2832 75.9021 54.3819 76.9476L48.145 86.1781C46.9869 87.9067 46.6733 89.9633 47.4106 91.0967L53.8904 100.301C54.5825 101.359 56.0852 101.249 57.6388 99.6928L64.9915 92.0393C66.3982 92.3981 67.8755 92.5367 69.4037 92.4502L70.5223 100.807C70.7058 102.416 71.9911 102.966 73.5164 102.085L86.5099 94.5833C88.0325 93.7043 89.3206 91.669 89.5013 89.8816L90.6227 80.1994C92.1028 78.5718 93.5547 76.7583 95.0292 74.6937L102.402 73.8554C102.758 73.8097 103.128 73.6776 103.509 73.4575C104.605 72.8247 105.613 71.551 106.122 70.1811L112.63 53.4096C113.353 51.4656 113.037 49.7729 111.873 49.3782ZM80.0103 72.2425C73.7791 75.8401 68.7116 72.9143 68.7116 65.7191C68.7116 58.5239 73.7791 49.7468 80.0103 46.1492C86.2416 42.5516 91.3091 45.4773 91.3091 52.6725C91.3091 59.8677 86.2416 68.6449 80.0103 72.2425Z" fill="#1681E5"/>
<path d="M105.5 17.5L115 22L112.5 27L107 35L98 32.5L99 24L105.5 17.5Z" fill="#1681E5"/>
<path d="M88.5 16L98 20.5L95.5 25.5L90 33.5L81 31L82 22.5L88.5 16Z" fill="#1681E5"/>
<path d="M64.5 105.5L54.8904 100.965L55.8754 94.4451L58.3899 88.4647L65.0956 90.9647L69.6919 93.8488L64.5 105.5Z" fill="#1681E5"/>
<path d="M81.5 107L71.8758 102.267L71.8758 95.4453L74.3903 89.4649L81.096 91.965L85.6923 94.849L81.5 107Z" fill="#1681E5"/>
<path d="M69.5 38L70.5 28L80.5 32L80 43L69.5 38Z" fill="url(#paint0_linear_579_9676)"/>
<path d="M47.5 66L53.5 49.5L63 54L59.5 71L47.5 66Z" fill="url(#paint1_linear_579_9676)"/>
<path d="M47.5 87.5L54.5 77L64 81.5L57.5 95L47.5 87.5Z" fill="url(#paint2_linear_579_9676)"/>
<path d="M121.658 53.9441L115.427 51.9154C115.506 51.0021 115.574 49.9486 115.574 48.8755C115.574 47.8024 115.509 46.8256 115.427 46.0052L121.664 36.7747C122.822 35.0493 123.138 32.9911 122.401 31.8545L115.921 22.65C115.229 21.5884 113.712 21.7139 112.173 23.2582L104.82 30.9117C103.411 30.5513 101.933 30.4128 100.405 30.5024L99.2865 22.1428C99.1028 20.5397 97.8147 19.9917 96.2923 20.8707L83.2988 28.3725C81.7762 29.2516 80.4911 31.2852 80.3102 33.0726L79.1889 42.7582C77.7087 44.3826 76.254 46.2009 74.7823 48.2606L67.4099 49.0989C66.0285 49.28 64.376 50.9254 63.6896 52.7764L57.2014 69.4844C56.436 71.4202 56.7523 73.1782 57.9359 73.5778L64.1671 75.6066C64.0682 76.7628 64.0203 77.7462 64.0203 78.6432C64.0203 79.5402 64.0683 80.468 64.1671 81.5135L57.9302 90.744C56.772 92.4727 56.4585 94.5292 57.1957 95.6626L63.6756 104.867C64.3677 105.925 65.8704 105.814 67.4239 104.259L74.7766 96.6052C76.1833 96.9641 77.6606 97.1027 79.1889 97.0161L80.3074 105.373C80.491 106.982 81.7762 107.532 83.3016 106.651L96.2951 99.1493C97.8177 98.2702 99.1057 96.2349 99.2865 94.4475L100.408 84.7654C101.888 83.1378 103.34 81.3242 104.814 79.2596L112.187 78.4213C112.543 78.3756 112.913 78.2436 113.294 78.0234C114.39 77.3907 115.398 76.1169 115.907 74.747L122.415 57.9755C123.138 56.0315 122.822 54.3388 121.658 53.9441ZM89.7955 76.8084C83.5643 80.406 78.4968 77.4803 78.4968 70.2851C78.4968 63.0899 83.5643 54.3127 89.7955 50.7151C96.0267 47.1175 101.094 50.0432 101.094 57.2384C101.094 64.4336 96.0267 73.2108 89.7955 76.8084Z" fill="#2595FF"/>
<path d="M132.935 42.978L130.617 42.2233C130.646 41.8835 130.672 41.4916 130.672 41.0924C130.672 40.6932 130.647 40.3298 130.617 40.0246L132.937 36.5907C133.368 35.9488 133.486 35.1832 133.212 34.7603L130.801 31.3361C130.543 30.9411 129.979 30.9878 129.406 31.5623L126.671 34.4096C126.147 34.2755 125.597 34.224 125.029 34.2573L124.613 31.1474C124.544 30.551 124.065 30.3471 123.499 30.6741L118.665 33.465C118.098 33.792 117.62 34.5485 117.553 35.2135L117.136 38.8167C116.585 39.421 116.044 40.0974 115.497 40.8637L112.754 41.1755C112.24 41.2429 111.625 41.855 111.37 42.5436L108.956 48.7593C108.671 49.4794 108.789 50.1335 109.229 50.2821L111.547 51.0369C111.511 51.467 111.493 51.8328 111.493 52.1665C111.493 52.5002 111.511 52.8454 111.547 53.2343L109.227 56.6682C108.796 57.3113 108.68 58.0764 108.954 58.498L111.365 61.9222C111.622 62.316 112.181 62.2747 112.759 61.696L115.494 58.8487C116.018 58.9822 116.567 59.0338 117.136 59.0016L117.552 62.1103C117.62 62.7091 118.098 62.9136 118.666 62.586L123.5 59.7951C124.066 59.4681 124.545 58.711 124.613 58.046L125.03 54.4441C125.58 53.8386 126.12 53.1639 126.669 52.3958L129.412 52.084C129.544 52.067 129.682 52.0179 129.824 51.936C130.231 51.7006 130.606 51.2267 130.796 50.7171L133.217 44.4778C133.486 43.7546 133.368 43.1249 132.935 42.978ZM121.082 51.4839C118.764 52.8223 116.878 51.7339 116.878 49.0572C116.878 46.3804 118.764 43.1152 121.082 41.7768C123.4 40.4384 125.285 41.5268 125.285 44.2036C125.285 46.8803 123.4 50.1456 121.082 51.4839Z" fill="#1681E5"/>
<path d="M130.564 31.1187L134.098 32.7927L133.168 34.6528L131.122 37.629L127.774 36.6989L128.146 33.5368L130.564 31.1187Z" fill="#1681E5"/>
<path d="M124.24 30.5605L127.774 32.2346L126.844 34.0947L124.798 37.0709L121.449 36.1408L121.821 32.9787L124.24 30.5605Z" fill="#1681E5"/>
<path d="M115.311 63.8563L111.736 62.1691L112.103 59.7437L113.038 57.5189L115.533 58.4489L117.243 59.5218L115.311 63.8563Z" fill="#1681E5"/>
<path d="M121.636 64.4143L118.056 62.6537L118.056 60.1158L118.991 57.891L121.486 58.821L123.196 59.8939L121.636 64.4143Z" fill="#1681E5"/>
<path d="M117.171 38.7451L117.543 35.0249L121.264 36.513L121.078 40.6052L117.171 38.7451Z" fill="url(#paint3_linear_579_9676)"/>
<path d="M108.987 49.1617L111.219 43.0234L114.753 44.6975L113.451 51.0218L108.987 49.1617Z" fill="url(#paint4_linear_579_9676)"/>
<path d="M108.987 57.1601L111.591 53.2539L115.125 54.928L112.707 59.9502L108.987 57.1601Z" fill="url(#paint5_linear_579_9676)"/>
<path d="M136.575 44.6768L134.257 43.922C134.286 43.5823 134.311 43.1904 134.311 42.7912C134.311 42.3919 134.287 42.0286 134.257 41.7233L136.577 38.2894C137.008 37.6475 137.125 36.8819 136.851 36.4591L134.441 33.0348C134.183 32.6399 133.619 32.6866 133.046 33.2611L130.311 36.1083C129.786 35.9742 129.237 35.9227 128.668 35.956L128.252 32.8461C128.184 32.2497 127.705 32.0459 127.138 32.3729L122.304 35.1637C121.738 35.4907 121.26 36.2472 121.193 36.9122L120.775 40.5154C120.225 41.1197 119.684 41.7962 119.136 42.5624L116.394 42.8743C115.88 42.9416 115.265 43.5537 115.01 44.2424L112.596 50.458C112.311 51.1782 112.429 51.8322 112.869 51.9808L115.187 52.7356C115.15 53.1657 115.133 53.5316 115.133 53.8653C115.133 54.199 115.15 54.5441 115.187 54.9331L112.867 58.367C112.436 59.0101 112.319 59.7751 112.594 60.1968L115.004 63.621C115.262 64.0147 115.821 63.9735 116.399 63.3947L119.134 60.5475C119.657 60.6809 120.207 60.7325 120.775 60.7003L121.192 63.809C121.26 64.4079 121.738 64.6123 122.305 64.2847L127.139 61.4939C127.706 61.1669 128.185 60.4097 128.252 59.7448L128.669 56.1428C129.22 55.5373 129.76 54.8627 130.309 54.0946L133.051 53.7827C133.184 53.7657 133.321 53.7166 133.463 53.6347C133.871 53.3993 134.246 52.9254 134.435 52.4158L136.856 46.1765C137.125 45.4533 137.008 44.8236 136.575 44.6768ZM124.721 53.1827C122.403 54.521 120.518 53.4326 120.518 50.7559C120.518 48.0791 122.403 44.8139 124.721 43.4755C127.039 42.1371 128.925 43.2256 128.925 45.9023C128.925 48.579 127.039 51.8443 124.721 53.1827Z" fill="#40FFC6"/>
<path d="M25 1L27.4308 7.56918L34 10L27.4308 12.4308L25 19L22.5692 12.4308L16 10L22.5692 7.56918L25 1Z" fill="#48FAC9"/>
<path d="M189 37L190.621 41.3795L195 43L190.621 44.6205L189 49L187.379 44.6205L183 43L187.379 41.3795L189 37Z" fill="#E6F3FF"/>
<ellipse cx="77.1404" cy="62.1319" rx="76.7499" ry="19.9552" transform="rotate(-10.9188 77.1404 62.1319)" stroke="url(#paint6_linear_579_9676)" stroke-width="2" stroke-linecap="round"/>
<defs>
<linearGradient id="paint0_linear_579_9676" x1="80" y1="30" x2="75" y2="42.5" gradientUnits="userSpaceOnUse">
<stop offset="0.156363" stop-color="#1681E5"/>
<stop offset="0.4875" stop-color="#479FFF"/>
<stop offset="0.842857" stop-color="#1782E5"/>
</linearGradient>
<linearGradient id="paint1_linear_579_9676" x1="61.5" y1="52" x2="56.5" y2="64.5" gradientUnits="userSpaceOnUse">
<stop offset="0.156363" stop-color="#1681E5"/>
<stop offset="0.4875" stop-color="#479FFF"/>
<stop offset="0.842857" stop-color="#1782E5"/>
</linearGradient>
<linearGradient id="paint2_linear_579_9676" x1="61" y1="76.5" x2="56" y2="89" gradientUnits="userSpaceOnUse">
<stop offset="0.156363" stop-color="#1681E5"/>
<stop offset="0.4875" stop-color="#479FFF"/>
<stop offset="0.842857" stop-color="#1782E5"/>
</linearGradient>
<linearGradient id="paint3_linear_579_9676" x1="121.078" y1="35.7689" x2="119.217" y2="40.4192" gradientUnits="userSpaceOnUse">
<stop offset="0.156363" stop-color="#1681E5"/>
<stop offset="0.4875" stop-color="#479FFF"/>
<stop offset="0.842857" stop-color="#1782E5"/>
</linearGradient>
<linearGradient id="paint4_linear_579_9676" x1="114.195" y1="43.9535" x2="112.335" y2="48.6037" gradientUnits="userSpaceOnUse">
<stop offset="0.156363" stop-color="#1681E5"/>
<stop offset="0.4875" stop-color="#479FFF"/>
<stop offset="0.842857" stop-color="#1782E5"/>
</linearGradient>
<linearGradient id="paint5_linear_579_9676" x1="114.009" y1="53.0679" x2="112.149" y2="57.7181" gradientUnits="userSpaceOnUse">
<stop offset="0.156363" stop-color="#1681E5"/>
<stop offset="0.4875" stop-color="#479FFF"/>
<stop offset="0.842857" stop-color="#1782E5"/>
</linearGradient>
<linearGradient id="paint6_linear_579_9676" x1="42.972" y1="77.4915" x2="42.5601" y2="43.1751" gradientUnits="userSpaceOnUse">
<stop stop-color="#EAF3FE"/>
<stop offset="1" stop-color="#E3EDFF" stop-opacity="0"/>
</linearGradient>
</defs>
</svg>
