<svg width="194" height="113" viewBox="0 0 194 113" fill="none" xmlns="http://www.w3.org/2000/svg">
<g clip-path="url(#clip0_601_12959)">
<path d="M125 53.5C125 76.4198 106.42 95 83.5 95C60.5802 95 42 76.4198 42 53.5C42 30.5802 60.5802 12 83.5 12C106.42 12 125 30.5802 125 53.5Z" fill="#F2F9FF"/>
<path d="M113.873 49.3782L107.642 47.3494C107.721 46.4361 107.788 45.3827 107.788 44.3096C107.788 43.2364 107.723 42.2597 107.642 41.4393L113.879 32.2088C115.037 30.4834 115.353 28.4252 114.616 27.2886L108.136 18.084C107.444 17.0225 105.927 17.148 104.388 18.6923L97.0349 26.3458C95.6254 25.9854 94.148 25.8469 92.6199 25.9365L91.5013 17.5769C91.3177 15.9738 90.0296 15.4258 88.5072 16.3048L75.5136 23.8066C73.9911 24.6857 72.7059 26.7193 72.5251 28.5067L71.4037 38.1923C69.9235 39.8167 68.4689 41.635 66.9972 43.6947L59.6247 44.533C58.2433 44.7141 56.5909 46.3595 55.9045 48.2105L49.4163 64.9184C48.6508 66.8543 48.9671 68.6123 50.1507 69.0119L56.3819 71.0407C56.283 72.1969 56.2351 73.1803 56.2351 74.0773C56.2351 74.9743 56.2832 75.9021 56.3819 76.9476L50.145 86.1781C48.9869 87.9067 48.6733 89.9633 49.4106 91.0967L55.8904 100.301C56.5825 101.359 58.0852 101.249 59.6388 99.6928L66.9915 92.0393C68.3982 92.3981 69.8755 92.5367 71.4037 92.4502L72.5223 100.807C72.7058 102.416 73.9911 102.966 75.5164 102.085L88.5099 94.5833C90.0325 93.7043 91.3206 91.669 91.5013 89.8816L92.6227 80.1994C94.1028 78.5718 95.5547 76.7583 97.0292 74.6937L104.402 73.8554C104.758 73.8097 105.128 73.6776 105.509 73.4575C106.605 72.8247 107.613 71.551 108.122 70.1811L114.63 53.4096C115.353 51.4656 115.037 49.7729 113.873 49.3782ZM82.0103 72.2425C75.7791 75.8401 70.7116 72.9143 70.7116 65.7191C70.7116 58.5239 75.7791 49.7468 82.0103 46.1492C88.2416 42.5516 93.3091 45.4773 93.3091 52.6725C93.3091 59.8677 88.2416 68.6449 82.0103 72.2425Z" fill="#1681E5"/>
<path d="M107.5 17.5L117 22L114.5 27L109 35L100 32.5L101 24L107.5 17.5Z" fill="#1681E5"/>
<path d="M90.5 16L100 20.5L97.5 25.5L92 33.5L83 31L84 22.5L90.5 16Z" fill="#1681E5"/>
<path d="M66.5 105.5L56.8904 100.965L57.8754 94.4449L60.3899 88.4645L67.0955 90.9646L71.6918 93.8487L66.5 105.5Z" fill="#1681E5"/>
<path d="M83.5001 107L73.8759 102.267L73.8758 95.445L76.3904 89.4646L83.096 91.9647L87.6923 94.8488L83.5001 107Z" fill="#1681E5"/>
<path d="M71.5 38L72.5 28L82.5 32L82 43L71.5 38Z" fill="url(#paint0_linear_601_12959)"/>
<path d="M49.5 66L55.5 49.5L65 54L61.5 71L49.5 66Z" fill="url(#paint1_linear_601_12959)"/>
<path d="M49.5 87.5L56.5 77L66 81.5L59.5 95L49.5 87.5Z" fill="url(#paint2_linear_601_12959)"/>
<path d="M123.658 53.9441L117.427 51.9154C117.506 51.0021 117.574 49.9486 117.574 48.8755C117.574 47.8024 117.509 46.8256 117.427 46.0052L123.664 36.7747C124.822 35.0493 125.138 32.9911 124.401 31.8545L117.921 22.65C117.229 21.5884 115.712 21.7139 114.173 23.2582L106.82 30.9117C105.411 30.5513 103.933 30.4128 102.405 30.5024L101.286 22.1428C101.103 20.5397 99.8147 19.9917 98.2923 20.8707L85.2988 28.3725C83.7762 29.2516 82.4911 31.2852 82.3102 33.0726L81.1889 42.7582C79.7087 44.3826 78.254 46.2009 76.7823 48.2606L69.4099 49.0989C68.0285 49.28 66.376 50.9254 65.6896 52.7764L59.2014 69.4844C58.436 71.4202 58.7523 73.1782 59.9359 73.5778L66.1671 75.6066C66.0682 76.7628 66.0203 77.7462 66.0203 78.6432C66.0203 79.5402 66.0683 80.468 66.1671 81.5135L59.9302 90.744C58.772 92.4727 58.4585 94.5292 59.1957 95.6626L65.6756 104.867C66.3677 105.925 67.8704 105.814 69.4239 104.259L76.7766 96.6052C78.1833 96.9641 79.6606 97.1027 81.1889 97.0161L82.3074 105.373C82.491 106.982 83.7762 107.532 85.3016 106.651L98.2951 99.1493C99.8177 98.2702 101.106 96.2349 101.286 94.4475L102.408 84.7654C103.888 83.1378 105.34 81.3242 106.814 79.2596L114.187 78.4213C114.543 78.3756 114.913 78.2436 115.294 78.0234C116.39 77.3907 117.398 76.1169 117.907 74.747L124.415 57.9755C125.138 56.0315 124.822 54.3388 123.658 53.9441ZM91.7955 76.8084C85.5643 80.406 80.4968 77.4803 80.4968 70.2851C80.4968 63.0899 85.5643 54.3127 91.7955 50.7151C98.0267 47.1175 103.094 50.0432 103.094 57.2384C103.094 64.4336 98.0267 73.2108 91.7955 76.8084Z" fill="#2595FF"/>
<path d="M134.935 42.978L132.617 42.2233C132.646 41.8835 132.672 41.4916 132.672 41.0924C132.672 40.6932 132.647 40.3298 132.617 40.0246L134.937 36.5907C135.368 35.9488 135.486 35.1832 135.212 34.7603L132.801 31.3361C132.543 30.9411 131.979 30.9878 131.406 31.5623L128.671 34.4096C128.147 34.2755 127.597 34.224 127.029 34.2573L126.613 31.1474C126.544 30.551 126.065 30.3471 125.499 30.6741L120.665 33.465C120.098 33.792 119.62 34.5485 119.553 35.2135L119.136 38.8167C118.585 39.421 118.044 40.0974 117.497 40.8637L114.754 41.1755C114.24 41.2429 113.625 41.855 113.37 42.5436L110.956 48.7593C110.671 49.4794 110.789 50.1335 111.229 50.2821L113.547 51.0369C113.511 51.467 113.493 51.8328 113.493 52.1665C113.493 52.5002 113.511 52.8454 113.547 53.2343L111.227 56.6682C110.796 57.3113 110.68 58.0764 110.954 58.498L113.365 61.9222C113.622 62.316 114.181 62.2747 114.759 61.696L117.494 58.8487C118.018 58.9822 118.567 59.0338 119.136 59.0016L119.552 62.1103C119.62 62.7091 120.098 62.9136 120.666 62.586L125.5 59.7951C126.066 59.4681 126.545 58.711 126.613 58.046L127.03 54.4441C127.58 53.8386 128.12 53.1639 128.669 52.3958L131.412 52.084C131.544 52.067 131.682 52.0179 131.824 51.936C132.231 51.7006 132.606 51.2267 132.796 50.7171L135.217 44.4778C135.486 43.7546 135.368 43.1249 134.935 42.978ZM123.082 51.4839C120.764 52.8223 118.878 51.7339 118.878 49.0572C118.878 46.3804 120.764 43.1152 123.082 41.7768C125.4 40.4384 127.285 41.5268 127.285 44.2036C127.285 46.8803 125.4 50.1456 123.082 51.4839Z" fill="#1681E5"/>
<path d="M132.564 31.1187L136.098 32.7927L135.168 34.6528L133.122 37.629L129.774 36.6989L130.146 33.5368L132.564 31.1187Z" fill="#1681E5"/>
<path d="M126.24 30.5605L129.774 32.2346L128.844 34.0947L126.798 37.0709L123.449 36.1408L123.821 32.9787L126.24 30.5605Z" fill="#1681E5"/>
<path d="M117.311 63.8562L113.736 62.169L114.103 59.7436L115.038 57.5188L117.533 58.4489L119.243 59.5218L117.311 63.8562Z" fill="#1681E5"/>
<path d="M123.636 64.4144L120.056 62.6537L120.056 60.1158L120.991 57.891L123.486 58.8211L125.196 59.894L123.636 64.4144Z" fill="#1681E5"/>
<path d="M119.171 38.7451L119.543 35.0249L123.264 36.513L123.078 40.6052L119.171 38.7451Z" fill="url(#paint3_linear_601_12959)"/>
<path d="M110.987 49.1617L113.219 43.0234L116.753 44.6975L115.451 51.0218L110.987 49.1617Z" fill="url(#paint4_linear_601_12959)"/>
<path d="M110.987 57.1601L113.591 53.2539L117.125 54.928L114.707 59.9502L110.987 57.1601Z" fill="url(#paint5_linear_601_12959)"/>
<path d="M138.575 44.6768L136.257 43.922C136.286 43.5823 136.311 43.1904 136.311 42.7912C136.311 42.3919 136.287 42.0286 136.257 41.7233L138.577 38.2894C139.008 37.6475 139.125 36.8819 138.851 36.4591L136.441 33.0348C136.183 32.6399 135.619 32.6866 135.046 33.2611L132.311 36.1083C131.786 35.9742 131.237 35.9227 130.668 35.956L130.252 32.8461C130.184 32.2497 129.705 32.0459 129.138 32.3729L124.304 35.1637C123.738 35.4907 123.26 36.2472 123.193 36.9122L122.775 40.5154C122.225 41.1197 121.684 41.7962 121.136 42.5624L118.394 42.8743C117.88 42.9416 117.265 43.5537 117.01 44.2424L114.596 50.458C114.311 51.1782 114.429 51.8322 114.869 51.9808L117.187 52.7356C117.15 53.1657 117.133 53.5316 117.133 53.8653C117.133 54.199 117.15 54.5441 117.187 54.9331L114.867 58.367C114.436 59.0101 114.319 59.7751 114.594 60.1968L117.004 63.621C117.262 64.0147 117.821 63.9735 118.399 63.3947L121.134 60.5475C121.657 60.6809 122.207 60.7325 122.775 60.7003L123.192 63.809C123.26 64.4079 123.738 64.6123 124.305 64.2847L129.139 61.4939C129.706 61.1669 130.185 60.4097 130.252 59.7448L130.669 56.1428C131.22 55.5373 131.76 54.8627 132.309 54.0946L135.051 53.7827C135.184 53.7657 135.321 53.7166 135.463 53.6347C135.871 53.3993 136.246 52.9254 136.435 52.4158L138.856 46.1765C139.125 45.4533 139.008 44.8236 138.575 44.6768ZM126.721 53.1827C124.403 54.521 122.518 53.4326 122.518 50.7559C122.518 48.0791 124.403 44.8139 126.721 43.4755C129.039 42.1371 130.925 43.2256 130.925 45.9023C130.925 48.579 129.039 51.8443 126.721 53.1827Z" fill="#40FFC6"/>
<path d="M27 1L29.4308 7.56918L36 10L29.4308 12.4308L27 19L24.5692 12.4308L18 10L24.5692 7.56918L27 1Z" fill="#48FAC9"/>
<path d="M187 37L188.621 41.3795L193 43L188.621 44.6205L187 49L185.379 44.6205L181 43L185.379 41.3795L187 37Z" fill="#E6F3FF"/>
<path fill-rule="evenodd" clip-rule="evenodd" d="M8.90628 68.6376C5.60038 71.6668 4.34449 74.3175 4.7617 76.4803C5.17892 78.643 7.3307 80.6363 11.5261 82.2184C15.6597 83.7771 21.4738 84.8141 28.5889 85.2687C42.8037 86.1769 61.979 84.7472 82.7307 80.744C103.482 76.7407 121.814 70.9351 134.671 64.8045C141.106 61.7359 146.117 58.6106 149.374 55.6261C152.68 52.5969 153.936 49.9462 153.519 47.7835C153.102 45.6208 150.95 43.6274 146.754 42.0453C142.621 40.4866 136.807 39.4496 129.692 38.995C115.477 38.0868 96.3016 39.5166 75.5498 43.5198C54.7981 47.523 36.467 53.3287 23.61 59.4592C17.1745 62.5279 12.1634 65.6532 8.90628 68.6376ZM22.7492 57.654C35.7993 51.4313 54.3023 45.5818 75.171 41.556C96.0397 37.5302 115.391 36.0773 129.819 36.9991C137.026 37.4595 143.062 38.5156 147.46 40.174C151.796 41.809 154.856 44.1566 155.483 47.4047C156.109 50.6527 154.142 53.9701 150.725 57.1007C147.26 60.2759 142.049 63.5018 135.531 66.6098C122.481 72.8325 103.978 78.682 83.1096 82.7078C62.2409 86.7335 42.8898 88.1865 28.4614 87.2647C21.2549 86.8042 15.2182 85.7481 10.8205 84.0898C6.48458 82.4548 3.42448 80.1071 2.79791 76.8591C2.17134 73.6111 4.13858 70.2936 7.55514 67.1631C11.0204 63.9878 16.2311 60.762 22.7492 57.654Z" fill="url(#paint6_linear_601_12959)"/>
</g>
<defs>
<linearGradient id="paint0_linear_601_12959" x1="82" y1="30" x2="77" y2="42.5" gradientUnits="userSpaceOnUse">
<stop offset="0.156363" stop-color="#1681E5"/>
<stop offset="0.4875" stop-color="#479FFF"/>
<stop offset="0.842857" stop-color="#1782E5"/>
</linearGradient>
<linearGradient id="paint1_linear_601_12959" x1="63.5" y1="52" x2="58.5" y2="64.5" gradientUnits="userSpaceOnUse">
<stop offset="0.156363" stop-color="#1681E5"/>
<stop offset="0.4875" stop-color="#479FFF"/>
<stop offset="0.842857" stop-color="#1782E5"/>
</linearGradient>
<linearGradient id="paint2_linear_601_12959" x1="63" y1="76.5" x2="58" y2="89" gradientUnits="userSpaceOnUse">
<stop offset="0.156363" stop-color="#1681E5"/>
<stop offset="0.4875" stop-color="#479FFF"/>
<stop offset="0.842857" stop-color="#1782E5"/>
</linearGradient>
<linearGradient id="paint3_linear_601_12959" x1="123.078" y1="35.7689" x2="121.217" y2="40.4192" gradientUnits="userSpaceOnUse">
<stop offset="0.156363" stop-color="#1681E5"/>
<stop offset="0.4875" stop-color="#479FFF"/>
<stop offset="0.842857" stop-color="#1782E5"/>
</linearGradient>
<linearGradient id="paint4_linear_601_12959" x1="116.195" y1="43.9535" x2="114.335" y2="48.6037" gradientUnits="userSpaceOnUse">
<stop offset="0.156363" stop-color="#1681E5"/>
<stop offset="0.4875" stop-color="#479FFF"/>
<stop offset="0.842857" stop-color="#1782E5"/>
</linearGradient>
<linearGradient id="paint5_linear_601_12959" x1="116.009" y1="53.0679" x2="114.149" y2="57.7181" gradientUnits="userSpaceOnUse">
<stop offset="0.156363" stop-color="#1681E5"/>
<stop offset="0.4875" stop-color="#479FFF"/>
<stop offset="0.842857" stop-color="#1782E5"/>
</linearGradient>
<linearGradient id="paint6_linear_601_12959" x1="48.4999" y1="83.6855" x2="41.5953" y2="50.0684" gradientUnits="userSpaceOnUse">
<stop stop-color="#EAF3FE"/>
<stop offset="1" stop-color="#E3EDFF" stop-opacity="0"/>
</linearGradient>
<clipPath id="clip0_601_12959">
<rect width="194" height="113" fill="white"/>
</clipPath>
</defs>
</svg>
