<svg width="194" height="113" viewBox="0 0 194 113" fill="none" xmlns="http://www.w3.org/2000/svg">
<path d="M125 53.5C125 76.4198 106.42 95 83.5 95C60.5802 95 42 76.4198 42 53.5C42 30.5802 60.5802 12 83.5 12C106.42 12 125 30.5802 125 53.5Z" fill="#F2F9FF"/>
<path fill-rule="evenodd" clip-rule="evenodd" d="M75.6619 22.0466L87.392 29.2916L77.7319 43.7817L61.5691 76.7411C61.9042 79.1944 62.5535 81.4 63.5053 83.2701C65.4245 87.0411 68.4773 89.2582 72.235 89.61C75.9928 89.9619 80.2669 88.4308 84.4573 85.2319C88.6478 82.0329 92.5443 77.3266 95.5998 71.7736C98.6553 66.2205 100.716 60.0996 101.494 54.2699C102.271 48.4402 101.726 43.1944 99.9348 39.269L111.62 25.4667C114.551 31.89 115.443 40.4737 114.171 50.0129C114.17 50.022 114.169 50.0312 114.168 50.0404L121.547 55.4853L112.232 74.1419L108.048 71.4957C106.987 73.9273 105.81 76.3215 104.527 78.6544C102.599 82.1571 101.451 85.6637 100.374 88.9504C98.6581 94.1898 97.125 98.8707 92.9113 102.087C84.9763 106.572 76.058 109.099 68.4163 108.297C60.7746 107.495 55.1504 103.637 52.0099 97.4662C48.8694 91.2956 47.7414 82.892 48.7841 73.435C49.8269 63.978 52.988 53.9424 57.8239 44.7369C62.59 35.6642 68.7469 27.8468 75.4525 22.348L75.6619 22.0466Z" fill="url(#paint0_linear_601_12987)"/>
<path fill-rule="evenodd" clip-rule="evenodd" d="M96.623 13.5609C91.9608 13.5106 86.8029 15.0591 81.5708 18.0798L81.5708 18.2493L81.5264 18.2517L81.5708 18.2791L81.5708 56.3749L104.145 24.3921L117.061 23.0817L106.711 16.8717L106.696 16.8726C103.889 14.7316 100.47 13.6024 96.623 13.5609Z" fill="url(#paint1_linear_601_12987)"/>
<path d="M111.542 25.4966L123.272 30.3266L111.542 43.4366L99.8118 39.2966L111.542 25.4966Z" fill="#1681E5"/>
<path d="M93.2566 25.497L81.5266 18.252V56.202L93.2566 63.792V25.497Z" fill="#1681E5"/>
<path d="M123.35 30.0659C126.282 35.6213 127.174 43.232 125.902 51.8297C124.63 60.4274 121.257 69.5804 116.257 78.0039C111.257 86.4275 104.881 93.6986 98.0246 98.7967C91.1676 103.895 84.1739 106.564 78.025 106.429C71.8762 106.295 66.8809 103.363 63.7404 98.0464C60.5999 92.7296 59.4719 85.2943 60.5146 76.7841C61.5573 68.274 64.7185 59.1164 69.5544 50.5967C74.3903 42.077 80.6581 34.623 87.478 29.2809L89.9288 43.7327C85.9792 46.8264 82.3493 51.1433 79.5487 56.0773C76.748 61.0114 74.9173 66.3149 74.3134 71.2434C73.7095 76.1718 74.3628 80.4779 76.1816 83.5571C78.0004 86.6362 80.8933 88.3339 84.4543 88.4119C88.0153 88.4898 92.0656 86.944 96.0367 83.9915C100.008 81.0391 103.7 76.8281 106.596 71.9498C109.491 67.0714 111.445 61.7706 112.181 56.7914C112.918 51.8122 112.401 47.4046 110.704 44.1873L123.35 30.0659Z" fill="#3A98FF"/>
<path d="M93.3 25.3241C98.5322 22.3033 103.69 20.7548 108.352 20.8051C113.015 20.8555 117.049 22.5032 120.125 25.6137L93.3 63.6191L93.3 25.3241Z" fill="#48FAC9"/>
<path d="M105.656 39.1595C105.222 40.2596 104.522 41.1988 103.556 41.9771C102.59 42.7553 101.468 43.3007 100.19 43.6132L99.5799 45.157L98.2913 45.3485L98.8939 43.8224C97.8419 43.912 97.0336 43.7648 96.4689 43.381C95.9211 42.9836 95.662 42.3818 95.6915 41.5757L99.1545 39.6079C99.1331 40.3349 99.4433 40.7342 100.085 40.8059L100.919 38.6942L100.774 38.6656C99.8758 38.4539 99.1835 38.1448 98.6971 37.7383C98.1621 37.2498 98.1189 36.4378 98.5673 35.3021C99.0111 34.1783 99.7296 33.2364 100.723 32.4763C101.742 31.6789 102.833 31.1549 103.995 30.9044L104.597 29.3783L105.886 29.1868L105.269 30.7484C106.962 30.675 107.87 31.3585 107.995 32.7987L104.601 34.7229C104.637 34.1942 104.458 33.8867 104.064 33.8004L103.237 35.8943L103.256 35.8916L103.694 36.0102L104.181 36.1383C104.337 36.1819 104.484 36.2324 104.624 36.2896C104.839 36.3578 105.096 36.4978 105.393 36.7097C105.461 36.7443 105.51 36.7816 105.54 36.8216C105.583 36.8598 105.617 36.9048 105.643 36.9567C105.685 36.9949 105.709 37.0358 105.715 37.0795C105.738 37.1095 105.758 37.1623 105.774 37.2378C105.807 37.2996 105.833 37.3515 105.851 37.3933C106.044 37.7545 105.979 38.3432 105.656 39.1595ZM101.763 34.8439C101.642 35.1515 101.776 35.3821 102.166 35.5357L102.804 33.9209C102.278 34.1104 101.932 34.418 101.763 34.8439ZM102.011 38.9996L101.381 40.5966C101.918 40.4054 102.269 40.1027 102.432 39.6887C102.558 39.3693 102.418 39.1396 102.011 38.9996Z" fill="white"/>
<path d="M149 1.35547L151.431 7.92465L158 10.3555L151.431 12.7863L149 19.3555L146.569 12.7863L140 10.3555L146.569 7.92465L149 1.35547Z" fill="#2595FF"/>
<path d="M171 62.3555L172.621 66.7349L177 68.3555L172.621 69.976L171 74.3555L169.379 69.976L165 68.3555L169.379 66.7349L171 62.3555Z" fill="#E6F3FF"/>
<path fill-rule="evenodd" clip-rule="evenodd" d="M8.90628 68.9931C5.60038 72.0223 4.34449 74.673 4.7617 76.8357C5.17892 78.9985 7.3307 80.9918 11.5261 82.5739C15.6597 84.1326 21.4738 85.1696 28.5889 85.6242C42.8037 86.5324 61.979 85.1027 82.7307 81.0994C103.482 77.0962 121.814 71.2906 134.671 65.16C141.106 62.0913 146.117 58.966 149.374 55.9816C152.68 52.9524 153.936 50.3017 153.519 48.139C153.102 45.9762 150.95 43.9829 146.754 42.4008C142.621 40.8421 136.807 39.8051 129.692 39.3505C115.477 38.4423 96.3016 39.872 75.5498 43.8752C54.7981 47.8785 36.467 53.6841 23.61 59.8147C17.1745 62.8833 12.1634 66.0086 8.90628 68.9931ZM22.7492 58.0094C35.7993 51.7867 54.3023 45.9372 75.171 41.9115C96.0397 37.8857 115.391 36.4327 129.819 37.3546C137.026 37.815 143.062 38.8711 147.46 40.5294C151.796 42.1645 154.856 44.5121 155.483 47.7601C156.109 51.0081 154.142 54.3256 150.725 57.4562C147.26 60.6314 142.049 63.8572 135.531 66.9652C122.481 73.1879 103.978 79.0374 83.1096 83.0632C62.2409 87.089 42.8898 88.5419 28.4614 87.6201C21.2549 87.1597 15.2182 86.1036 10.8205 84.4452C6.48458 82.8102 3.42448 80.4626 2.79791 77.2146C2.17134 73.9666 4.13858 70.6491 7.55514 67.5185C11.0204 64.3433 16.2311 61.1175 22.7492 58.0094Z" fill="url(#paint2_linear_601_12987)"/>
<defs>
<linearGradient id="paint0_linear_601_12987" x1="101.439" y1="33.5041" x2="71.1938" y2="89.6859" gradientUnits="userSpaceOnUse">
<stop offset="0.273958" stop-color="#1681E5"/>
<stop offset="0.445833" stop-color="#459FFF"/>
<stop offset="0.576042" stop-color="#1681E5"/>
<stop offset="0.862072" stop-color="#1681E5"/>
</linearGradient>
<linearGradient id="paint1_linear_601_12987" x1="99.2939" y1="7.84738" x2="109.253" y2="25.6055" gradientUnits="userSpaceOnUse">
<stop stop-color="#60ADFE"/>
<stop offset="0.482292" stop-color="#1681E5"/>
</linearGradient>
<linearGradient id="paint2_linear_601_12987" x1="48.4999" y1="84.041" x2="41.5953" y2="50.4239" gradientUnits="userSpaceOnUse">
<stop stop-color="#EAF3FE"/>
<stop offset="1" stop-color="#E3EDFF" stop-opacity="0"/>
</linearGradient>
</defs>
</svg>
