<svg width="195" height="113" viewBox="0 0 195 113" fill="none" xmlns="http://www.w3.org/2000/svg">
<circle cx="79.5" cy="55.8555" r="41.5" fill="#F2F9FF"/>
<path fill-rule="evenodd" clip-rule="evenodd" d="M73.6619 22.0466L85.392 29.2916L75.7319 43.7817L59.5691 76.7411C59.9042 79.1944 60.5535 81.4 61.5053 83.2701C63.4245 87.0411 66.4773 89.2582 70.235 89.61C73.9928 89.9619 78.2669 88.4308 82.4573 85.2319C86.6478 82.0329 90.5443 77.3266 93.5998 71.7736C96.6553 66.2205 98.7165 60.0996 99.4939 54.2699C100.271 48.4402 99.7262 43.1944 97.9348 39.269L109.62 25.4667C112.551 31.89 113.443 40.4737 112.171 50.0129C112.17 50.022 112.169 50.0312 112.168 50.0404L119.547 55.4853L110.232 74.1419L106.048 71.4957C104.987 73.9273 103.81 76.3215 102.527 78.6544C100.599 82.1571 99.4507 85.6637 98.3742 88.9504C96.6581 94.1898 95.125 98.8707 90.9113 102.087C82.9763 106.572 74.058 109.099 66.4163 108.297C58.7746 107.495 53.1504 103.637 50.0099 97.4662C46.8694 91.2956 45.7414 82.892 46.7841 73.435C47.8269 63.978 50.988 53.9424 55.8239 44.7369C60.59 35.6642 66.7469 27.8468 73.4525 22.348L73.6619 22.0466Z" fill="url(#paint0_linear_579_9704)"/>
<path fill-rule="evenodd" clip-rule="evenodd" d="M94.623 13.5609C89.9608 13.5106 84.8029 15.0591 79.5708 18.0798L79.5708 18.2493L79.5264 18.2517L79.5708 18.2791L79.5708 56.3749L102.145 24.3921L115.061 23.0817L104.711 16.8717L104.696 16.8726C101.889 14.7316 98.47 13.6024 94.623 13.5609Z" fill="url(#paint1_linear_579_9704)"/>
<path d="M109.542 25.4966L121.272 30.3266L109.542 43.4366L97.8118 39.2966L109.542 25.4966Z" fill="#1681E5"/>
<path d="M91.2566 25.497L79.5266 18.252V56.202L91.2566 63.792V25.497Z" fill="#1681E5"/>
<path d="M121.35 30.0662C124.282 35.6216 125.174 43.2323 123.902 51.83C122.63 60.4277 119.257 69.5807 114.257 78.0042C109.257 86.4277 102.881 93.6988 96.0245 98.7969C89.1676 103.895 82.1739 106.564 76.025 106.43C69.8762 106.295 64.8809 103.364 61.7404 98.0467C58.5999 92.7298 57.4718 85.2945 58.5146 76.7844C59.5573 68.2743 62.7185 59.1167 67.5544 50.597C72.3902 42.0773 78.658 34.6232 85.4779 29.2812L87.9288 43.7329C83.9791 46.8267 80.3492 51.1436 77.5486 56.0776C74.748 61.0116 72.9173 66.3151 72.3134 71.2436C71.7095 76.1721 72.3628 80.4781 74.1816 83.5573C76.0003 86.6365 78.8933 88.3342 82.4543 88.4121C86.0153 88.49 90.0656 86.9443 94.0366 83.9918C98.0077 81.0393 101.7 76.8284 104.596 71.95C107.491 67.0717 109.444 61.7709 110.181 56.7917C110.918 51.8125 110.401 47.4049 108.704 44.1875L121.35 30.0662Z" fill="#3A98FF"/>
<path d="M91.3 25.3243C96.5322 22.3035 101.69 20.755 106.352 20.8054C111.014 20.8557 115.049 22.5035 118.125 25.614L91.3 63.6194L91.3 25.3243Z" fill="#48FAC9"/>
<path d="M103.656 39.1595C103.222 40.2596 102.522 41.1988 101.556 41.9771C100.59 42.7553 99.4682 43.3007 98.1895 43.6132L97.5799 45.157L96.2913 45.3485L96.8939 43.8224C95.8419 43.912 95.0336 43.7648 94.4689 43.381C93.9211 42.9836 93.662 42.3818 93.6915 41.5757L97.1545 39.6079C97.1331 40.3349 97.4433 40.7342 98.085 40.8059L98.9189 38.6942L98.7742 38.6656C97.8758 38.4539 97.1835 38.1448 96.6971 37.7383C96.1621 37.2498 96.1189 36.4378 96.5673 35.3021C97.0111 34.1783 97.7296 33.2364 98.7228 32.4763C99.7424 31.6789 100.833 31.1549 101.995 30.9044L102.597 29.3783L103.886 29.1868L103.269 30.7484C104.962 30.675 105.87 31.3585 105.995 32.7987L102.601 34.7229C102.637 34.1942 102.458 33.8867 102.064 33.8004L101.237 35.8943L101.256 35.8916L101.694 36.0102L102.181 36.1383C102.337 36.1819 102.484 36.2324 102.624 36.2896C102.839 36.3578 103.096 36.4978 103.393 36.7097C103.461 36.7443 103.51 36.7816 103.54 36.8216C103.583 36.8598 103.617 36.9048 103.643 36.9567C103.685 36.9949 103.709 37.0358 103.715 37.0795C103.738 37.1095 103.758 37.1623 103.774 37.2378C103.807 37.2996 103.833 37.3515 103.851 37.3933C104.044 37.7545 103.979 38.3432 103.656 39.1595ZM99.7634 34.8439C99.642 35.1515 99.7762 35.3821 100.166 35.5357L100.804 33.9209C100.278 34.1104 99.9316 34.418 99.7634 34.8439ZM100.011 38.9996L99.3807 40.5966C99.9183 40.4054 100.269 40.1027 100.432 39.6887C100.558 39.3693 100.418 39.1396 100.011 38.9996Z" fill="white"/>
<path d="M147 1.35547L149.431 7.92465L156 10.3555L149.431 12.7863L147 19.3555L144.569 12.7863L138 10.3555L144.569 7.92465L147 1.35547Z" fill="#2595FF"/>
<path d="M169 62.3555L170.621 66.7349L175 68.3555L170.621 69.976L169 74.3555L167.379 69.976L163 68.3555L167.379 66.7349L169 62.3555Z" fill="#E6F3FF"/>
<ellipse cx="77.1404" cy="62.4873" rx="76.7499" ry="19.9552" transform="rotate(-10.9188 77.1404 62.4873)" stroke="url(#paint2_linear_579_9704)" stroke-width="2" stroke-linecap="round"/>
<defs>
<linearGradient id="paint0_linear_579_9704" x1="99.4392" y1="33.5041" x2="69.1938" y2="89.6859" gradientUnits="userSpaceOnUse">
<stop offset="0.273958" stop-color="#1681E5"/>
<stop offset="0.445833" stop-color="#459FFF"/>
<stop offset="0.576042" stop-color="#1681E5"/>
<stop offset="0.862072" stop-color="#1681E5"/>
</linearGradient>
<linearGradient id="paint1_linear_579_9704" x1="97.2939" y1="7.84738" x2="107.253" y2="25.6055" gradientUnits="userSpaceOnUse">
<stop stop-color="#60ADFE"/>
<stop offset="0.482292" stop-color="#1681E5"/>
</linearGradient>
<linearGradient id="paint2_linear_579_9704" x1="42.972" y1="77.847" x2="42.5601" y2="43.5306" gradientUnits="userSpaceOnUse">
<stop stop-color="#EAF3FE"/>
<stop offset="1" stop-color="#E3EDFF" stop-opacity="0"/>
</linearGradient>
</defs>
</svg>
