<svg width="195" height="115" viewBox="0 0 195 115" fill="none" xmlns="http://www.w3.org/2000/svg">
<circle cx="69.5" cy="54.5" r="41.5" fill="#F2F9FF"/>
<path d="M110 43L102.504 39.9263C101.078 39.3417 99.4628 39.4471 98.1253 40.2118L44.73 70.7388C43.1886 71.6201 42.2301 73.2527 42.2119 75.0282L42.0319 92.584C42.0124 94.4901 43.0784 96.2416 44.7805 97.0998L52.5155 101L52.6537 82.6251L55.6438 76.645L110 43Z" fill="url(#paint0_linear_579_9724)"/>
<path d="M111.706 45.7642C111.706 43.0027 109.767 41.8834 107.376 43.2642L54.7399 73.6534C52.3485 75.0341 50.4098 78.392 50.4098 81.1534L50.4098 97.7218C50.4098 100.483 52.3485 101.603 54.7399 100.222L107.376 69.8325C109.767 68.4518 111.706 65.094 111.706 62.3326L111.706 45.7642Z" fill="#2595FF"/>
<circle r="3.04409" transform="matrix(0.866025 -0.5 -2.20305e-08 -1 74.6365 75.2166)" fill="white"/>
<circle r="3.04409" transform="matrix(0.866025 -0.5 -2.20305e-08 -1 81.2859 71.8914)" fill="white"/>
<circle r="3.04409" transform="matrix(0.866025 -0.5 -2.20305e-08 -1 87.9358 68.5662)" fill="white"/>
<path d="M119 4L111.504 0.926276C110.078 0.341742 108.463 0.447081 107.125 1.21179L53.73 31.7388C52.1886 32.6201 51.2301 34.2527 51.2119 36.0282L51.0319 53.584C51.0124 55.4901 52.0784 57.2416 53.7805 58.0998L61.5155 62L61.6537 43.6251L64.6438 37.645L119 4Z" fill="url(#paint1_linear_579_9724)"/>
<path d="M120.706 6.76417C120.706 4.00274 118.767 2.88345 116.376 4.26416L63.7399 34.6534C61.3485 36.0341 59.4098 39.392 59.4098 42.1534L59.4098 58.7218C59.4098 61.4832 61.3485 62.6025 63.7399 61.2218L116.376 30.8325C118.767 29.4518 120.706 26.094 120.706 23.3326L120.706 6.76417Z" fill="#48FAC9"/>
<line x1="1.5" y1="-1.5" x2="22.9672" y2="-1.5" transform="matrix(0.866025 -0.5 2.20305e-08 1 67 44.29)" stroke="white" stroke-width="3" stroke-linecap="round"/>
<line x1="1.5" y1="-1.5" x2="22.9672" y2="-1.5" transform="matrix(0.866025 -0.5 2.20305e-08 1 92.1621 29.7627)" stroke="white" stroke-width="3" stroke-linecap="round"/>
<line x1="1.5" y1="-1.5" x2="13.792" y2="-1.5" transform="matrix(0.866025 -0.5 2.20305e-08 1 67 51.29)" stroke="white" stroke-width="3" stroke-linecap="round"/>
<line x1="1.5" y1="-1.5" x2="12.2628" y2="-1.5" transform="matrix(0.866025 -0.5 2.20305e-08 1 82.2297 42.4971)" stroke="white" stroke-width="3" stroke-linecap="round"/>
<line x1="1.5" y1="-1.5" x2="19.9088" y2="-1.5" transform="matrix(0.866025 -0.5 2.20305e-08 1 97.4595 33.7041)" stroke="white" stroke-width="3" stroke-linecap="round"/>
<path d="M134 76L136.431 82.5692L143 85L136.431 87.4308L134 94L131.569 87.4308L125 85L131.569 82.5692L134 76Z" fill="#2595FF"/>
<path d="M158 11L159.621 15.3795L164 17L159.621 18.6205L158 23L156.379 18.6205L152 17L156.379 15.3795L158 11Z" fill="#E6F3FF"/>
<ellipse cx="77.1404" cy="64.1319" rx="76.7499" ry="19.9552" transform="rotate(-10.9188 77.1404 64.1319)" stroke="url(#paint2_linear_579_9724)" stroke-width="2" stroke-linecap="round"/>
<defs>
<linearGradient id="paint0_linear_579_9724" x1="63.8682" y1="44.5061" x2="33.9677" y2="92.3469" gradientUnits="userSpaceOnUse">
<stop offset="0.524251" stop-color="#1681E5"/>
<stop offset="0.63761" stop-color="#479FFF"/>
<stop offset="0.73254" stop-color="#2595FF"/>
</linearGradient>
<linearGradient id="paint1_linear_579_9724" x1="72.8682" y1="5.50611" x2="42.9677" y2="53.3469" gradientUnits="userSpaceOnUse">
<stop offset="0.524251" stop-color="#1681E5"/>
<stop offset="0.63761" stop-color="#479FFF"/>
<stop offset="0.73254" stop-color="#2595FF"/>
</linearGradient>
<linearGradient id="paint2_linear_579_9724" x1="42.972" y1="79.4915" x2="42.5601" y2="45.1751" gradientUnits="userSpaceOnUse">
<stop stop-color="#EAF3FE"/>
<stop offset="1" stop-color="#E3EDFF" stop-opacity="0"/>
</linearGradient>
</defs>
</svg>
