<svg width="194" height="113" viewBox="0 0 194 113" fill="none" xmlns="http://www.w3.org/2000/svg">
<path d="M125 53.5C125 76.4198 106.42 95 83.5 95C60.5802 95 42 76.4198 42 53.5C42 30.5802 60.5802 12 83.5 12C106.42 12 125 30.5802 125 53.5Z" fill="#F2F9FF"/>
<path d="M116 44.9998L108.504 41.9261C107.078 41.3415 105.463 41.4469 104.125 42.2116L50.7298 72.7386C49.1884 73.6199 48.2299 75.2525 48.2117 77.028L48.0318 94.5838C48.0122 96.4899 49.0782 98.2413 50.7804 99.0996L58.5154 103L58.6536 84.6249L61.6436 78.6448L116 44.9998Z" fill="url(#paint0_linear_601_13007)"/>
<path d="M117.706 47.7642C117.706 45.0027 115.767 43.8834 113.375 45.2642L60.7397 75.6534C58.3482 77.0341 56.4096 80.392 56.4096 83.1534L56.4096 99.7218C56.4096 102.483 58.3482 103.603 60.7397 102.222L113.375 71.8325C115.767 70.4518 117.706 67.094 117.706 64.3326L117.706 47.7642Z" fill="#2595FF"/>
<path d="M83.2725 75.6945C83.2725 74.0133 82.0922 73.3319 80.6363 74.1725C79.1803 75.0131 78 77.0574 78 78.7386C78 80.4198 79.1803 81.1013 80.6363 80.2607C82.0922 79.4201 83.2725 77.3757 83.2725 75.6945Z" fill="white"/>
<path d="M89.9219 72.3693C89.9219 70.6881 88.7416 70.0067 87.2857 70.8473C85.8297 71.6879 84.6494 73.7322 84.6494 75.4134C84.6494 77.0946 85.8297 77.7761 87.2857 76.9355C88.7416 76.0949 89.9219 74.0505 89.9219 72.3693Z" fill="white"/>
<path d="M96.5718 69.0442C96.5718 67.3629 95.3915 66.6815 93.9356 67.5221C92.4796 68.3627 91.2993 70.407 91.2993 72.0882C91.2993 73.7694 92.4796 74.4509 93.9356 73.6103C95.3915 72.7697 96.5718 70.7254 96.5718 69.0442Z" fill="white"/>
<path d="M125 5.99978L117.504 2.92606C116.078 2.34152 114.463 2.44686 113.125 3.21158L59.7298 33.7386C58.1884 34.6199 57.2299 36.2525 57.2117 38.028L57.0318 55.5838C57.0122 57.4899 58.0782 59.2413 59.7804 60.0996L67.5154 63.9998L67.6536 45.6249L70.6436 39.6448L125 5.99978Z" fill="url(#paint1_linear_601_13007)"/>
<path d="M126.706 8.76417C126.706 6.00274 124.767 4.88345 122.375 6.26416L69.7397 36.6534C67.3482 38.0341 65.4096 41.392 65.4096 44.1534L65.4096 60.7218C65.4096 63.4832 67.3482 64.6025 69.7397 63.2218L122.375 32.8325C124.767 31.4518 126.706 28.094 126.706 25.3326L126.706 8.76417Z" fill="#48FAC9"/>
<path fill-rule="evenodd" clip-rule="evenodd" d="M72.9998 44.79C72.9998 43.9616 73.5814 42.9543 74.2988 42.54L92.8899 31.8065C93.6073 31.3922 94.1889 31.728 94.1889 32.5565C94.1889 33.3849 93.6073 34.3922 92.8899 34.8065L74.2988 45.54C73.5814 45.9543 72.9998 45.6185 72.9998 44.79Z" fill="white"/>
<path fill-rule="evenodd" clip-rule="evenodd" d="M98.1619 30.2627C98.1619 29.4343 98.7435 28.4269 99.4609 28.0127L118.052 17.2791C118.769 16.8649 119.351 17.2007 119.351 18.0291C119.351 18.8575 118.769 19.8649 118.052 20.2791L99.4609 31.0127C98.7435 31.4269 98.1619 31.0911 98.1619 30.2627Z" fill="white"/>
<path fill-rule="evenodd" clip-rule="evenodd" d="M72.9998 51.79C72.9998 50.9616 73.5814 49.9543 74.2988 49.54L84.944 43.394C85.6614 42.9798 86.243 43.3156 86.243 44.144C86.243 44.9725 85.6614 45.9798 84.944 46.394L74.2988 52.54C73.5814 52.9543 72.9998 52.6185 72.9998 51.79Z" fill="white"/>
<path fill-rule="evenodd" clip-rule="evenodd" d="M88.2295 42.9971C88.2295 42.1686 88.8111 41.1613 89.5285 40.7471L98.8494 35.3657C99.5668 34.9515 100.148 35.2873 100.148 36.1157C100.148 36.9441 99.5668 37.9515 98.8494 38.3657L89.5285 43.7471C88.8111 44.1613 88.2295 43.8255 88.2295 42.9971Z" fill="white"/>
<path fill-rule="evenodd" clip-rule="evenodd" d="M103.459 34.2041C103.459 33.3757 104.041 32.3683 104.758 31.9541L120.701 22.7497C121.418 22.3355 122 22.6713 122 23.4997C122 24.3281 121.418 25.3355 120.701 25.7497L104.758 34.9541C104.041 35.3683 103.459 35.0325 103.459 34.2041Z" fill="white"/>
<path d="M136 74L138.431 80.5692L145 83L138.431 85.4308L136 92L133.569 85.4308L127 83L133.569 80.5692L136 74Z" fill="#2595FF"/>
<path d="M160 9L161.621 13.3795L166 15L161.621 16.6205L160 21L158.379 16.6205L154 15L158.379 13.3795L160 9Z" fill="#E6F3FF"/>
<path fill-rule="evenodd" clip-rule="evenodd" d="M8.90628 68.6376C5.60038 71.6668 4.34449 74.3175 4.7617 76.4803C5.17892 78.643 7.3307 80.6363 11.5261 82.2184C15.6597 83.7771 21.4738 84.8141 28.5889 85.2687C42.8037 86.1769 61.979 84.7472 82.7307 80.744C103.482 76.7407 121.814 70.9351 134.671 64.8045C141.106 61.7359 146.117 58.6106 149.374 55.6261C152.68 52.5969 153.936 49.9462 153.519 47.7835C153.102 45.6208 150.95 43.6274 146.754 42.0453C142.621 40.4866 136.807 39.4496 129.692 38.995C115.477 38.0868 96.3016 39.5166 75.5498 43.5198C54.7981 47.523 36.467 53.3287 23.61 59.4592C17.1745 62.5279 12.1634 65.6532 8.90628 68.6376ZM22.7492 57.654C35.7993 51.4313 54.3023 45.5818 75.171 41.556C96.0397 37.5302 115.391 36.0773 129.819 36.9991C137.026 37.4595 143.062 38.5156 147.46 40.174C151.796 41.809 154.856 44.1566 155.483 47.4047C156.109 50.6527 154.142 53.9701 150.725 57.1007C147.26 60.2759 142.049 63.5018 135.531 66.6098C122.481 72.8325 103.978 78.682 83.1096 82.7078C62.2409 86.7335 42.8898 88.1865 28.4614 87.2647C21.2549 86.8042 15.2182 85.7481 10.8205 84.0898C6.48458 82.4548 3.42448 80.1071 2.79791 76.8591C2.17134 73.6111 4.13858 70.2936 7.55514 67.1631C11.0204 63.9878 16.2311 60.762 22.7492 57.654Z" fill="url(#paint2_linear_601_13007)"/>
<defs>
<linearGradient id="paint0_linear_601_13007" x1="69.8679" y1="46.5061" x2="39.9674" y2="94.3469" gradientUnits="userSpaceOnUse">
<stop offset="0.524251" stop-color="#1681E5"/>
<stop offset="0.63761" stop-color="#479FFF"/>
<stop offset="0.73254" stop-color="#2595FF"/>
</linearGradient>
<linearGradient id="paint1_linear_601_13007" x1="78.8679" y1="7.50611" x2="48.9674" y2="55.3469" gradientUnits="userSpaceOnUse">
<stop offset="0.524251" stop-color="#1681E5"/>
<stop offset="0.63761" stop-color="#479FFF"/>
<stop offset="0.73254" stop-color="#2595FF"/>
</linearGradient>
<linearGradient id="paint2_linear_601_13007" x1="48.4999" y1="83.6855" x2="41.5953" y2="50.0684" gradientUnits="userSpaceOnUse">
<stop stop-color="#EAF3FE"/>
<stop offset="1" stop-color="#E3EDFF" stop-opacity="0"/>
</linearGradient>
</defs>
</svg>
