<?xml version="1.0" encoding="utf-8"?>
<!-- Generator: Adobe Illustrator 26.0.1, SVG Export Plug-In . SVG Version: 6.00 Build 0)  -->
<svg version="1.1" id="Слой_1" xmlns="http://www.w3.org/2000/svg" xmlns:xlink="http://www.w3.org/1999/xlink" x="0px" y="0px"
	 viewBox="0 0 337 85" style="enable-background:new 0 0 337 85;" xml:space="preserve">
<style type="text/css">
	.st0{fill:#DCF375;}
	.st1{fill:#BBD645;}
</style>
<path class="st0" d="M313.3,42.1c13.3,10.3,3.5,18.2-0.6,17.1c-4.1-1-6.3-6.1-3.6-10.1C310.9,46.3,312.9,44.7,313.3,42.1z"/>
<path class="st1" d="M55.3,10.1c28.6-16.3,35.5,7.3,30.5,14c-5,6.6-15.6,6.7-21-1C61,17.6,59.8,12.7,55.3,10.1z"/>
<path class="st1" d="M276.3,15c-19.3-11-23.9,5-20.6,9.4c3.3,4.5,10.6,4.5,14.2-0.7C272.5,20,273.3,16.7,276.3,15z"/>
<path class="st1" d="M335.2,59.4c-16.3-16-25.1-1.4-23,3.9c2.1,5.3,9.3,7.3,14.3,3.1C330,63.4,331.7,60.3,335.2,59.4z"/>
<path class="st1" d="M4.5,54.6C-0.2,76.3,16.4,76,19.6,71.5c3.3-4.5,1.2-11.4-4.9-13.3C10.5,56.8,7.1,57,4.5,54.6z"/>
<path class="st0" d="M89.5,6.7c-15.1,6.3-7.9,16.2-3.7,16.3c4.1,0.1,7.4-4.1,6-8.6C90.8,11.2,89.2,9.3,89.5,6.7z"/>
<path class="st0" d="M249.3,2.3c15.1,6.3,7.9,16.2,3.7,16.3c-4.1,0.1-7.4-4.1-6-8.6C248.1,6.9,249.7,4.9,249.3,2.3z"/>
<path class="st0" d="M6,79.1c1.6-16.3,13.1-12.3,14.4-8.4c1.3,3.9-1.7,8.3-6.4,8.2C10.6,78.9,8.3,78,6,79.1z"/>
<path class="st0" d="M115,51.2c16-3.4,15.7,8.8,12.3,11.2c-3.3,2.4-8.4,0.8-9.8-3.6C116.5,55.6,116.7,53.1,115,51.2z"/>
<path class="st0" d="M217.7,63.6c-0.4,16.4,11.6,13.8,13.3,10.1c1.7-3.7-0.7-8.4-5.4-8.9C222.3,64.3,219.9,64.9,217.7,63.6z"/>
<path class="st0" d="M168,24.4c-0.4,16.4,11.6,13.8,13.3,10.1c1.7-3.7-0.7-8.4-5.4-8.9C172.6,25.2,170.2,25.8,168,24.4z"/>
<path class="st0" d="M216.1,8.9c-15.4-5.4-16.7,6.7-13.7,9.5c3,2.8,8.2,1.9,10.2-2.3C214,13.1,214.1,10.6,216.1,8.9z"/>
</svg>
