<svg width="60" height="60" viewBox="0 0 60 60" fill="none" xmlns="http://www.w3.org/2000/svg">
<path d="M22.4451 35.6649C22.4448 35.6651 22.4446 35.6653 22.4443 35.6655V35.664L22.4451 35.6649C24.582 33.9371 26.8717 33.0003 30.0004 33C33.1292 32.9998 37.5564 35.664 37.5564 35.664L34.7231 39.165C33.3872 38.0853 31.7195 37.4973 30.0004 37.5C28.2813 37.4973 26.6136 38.0853 25.2777 39.165L22.4451 35.6649Z" fill="#40FFC6"/>
<path d="M27.1678 41.4999C27.1675 41.5001 27.1673 41.5003 27.1671 41.5005V41.499L27.1678 41.4999C27.9689 40.8519 28.9691 40.4988 30.0004 40.5C31.0736 40.5 32.0596 40.875 32.8337 41.499L30.0004 45L27.1678 41.4999Z" fill="#40FFC6"/>
<path d="M13 23.9955C17.8085 20.108 23.8115 17.9909 30 18C36.4408 18 42.3554 20.2455 47 23.9955L44.1667 27.495C40.1594 24.2558 35.1569 22.492 30 22.5C24.634 22.5 19.7038 24.372 15.8333 27.495L13 23.9955ZM17.7212 29.8305C21.1943 27.0225 25.5302 25.4933 30 25.5C34.6506 25.5 38.9224 27.1215 42.2788 29.829L39.4454 33.33C36.7737 31.1703 33.4383 29.9944 30 30C26.4226 30 23.1369 31.248 20.5546 33.33L17.7212 29.829V29.8305Z" fill="#2595FF"/>
</svg>
