<svg width="60" height="60" viewBox="0 0 60 60" fill="none" xmlns="http://www.w3.org/2000/svg">
<path d="M28.5 42V27H18V42H28.5ZM28.5 24V19.5C28.5 19.1022 28.658 18.7206 28.9393 18.4393C29.2206 18.158 29.6022 18 30 18H43.5C43.8978 18 44.2794 18.158 44.5607 18.4393C44.842 18.7206 45 19.1022 45 19.5V43.5C45 43.8978 44.842 44.2794 44.5607 44.5607C44.2794 44.842 43.8978 45 43.5 45H16.5C16.1022 45 15.7206 44.842 15.4393 44.5607C15.158 44.2794 15 43.8978 15 43.5V25.5C15 25.1022 15.158 24.7206 15.4393 24.4393C15.7206 24.158 16.1022 24 16.5 24H28.5ZM31.5 21V42H42V21H31.5ZM19.5 37.5H27V40.5H19.5V37.5ZM33 37.5H40.5V40.5H33V37.5ZM33 33H40.5V36H33V33ZM33 28.5H40.5V31.5H33V28.5ZM19.5 33H27V36H19.5V33Z" fill="#2595FF"/>
<path d="M19.5 33H27.5V36H19.5V33Z" fill="#40FFC6"/>
<path d="M19.5 37.5H27.5V40.5H19.5V37.5Z" fill="#40FFC6"/>
<path d="M33 28.5H41V31.5H33V28.5Z" fill="#40FFC6"/>
<path d="M33 33H41V36H33V33Z" fill="#40FFC6"/>
<path d="M33 37.5H41V40.5H33V37.5Z" fill="#40FFC6"/>
</svg>
