<svg width="60" height="60" viewBox="0 0 60 60" fill="none" xmlns="http://www.w3.org/2000/svg">
<path d="M19.6875 30H18.2227C17.3682 29.9991 16.5491 29.6592 15.9449 29.0551C15.3408 28.4509 15.0009 27.6318 15 26.7773V25.7227C15.0009 24.8682 15.3408 24.0491 15.9449 23.4449C16.5491 22.8408 17.3682 22.5009 18.2227 22.5H19.6875C19.9361 22.5 20.1746 22.5988 20.3504 22.7746C20.5262 22.9504 20.625 23.1889 20.625 23.4375V29.0625C20.625 29.3111 20.5262 29.5496 20.3504 29.7254C20.1746 29.9012 19.9361 30 19.6875 30ZM18.2227 24.375C17.8654 24.3754 17.5229 24.5176 17.2702 24.7702C17.0176 25.0229 16.8754 25.3654 16.875 25.7227V26.7773C16.8754 27.1346 17.0176 27.4771 17.2702 27.7298C17.5229 27.9824 17.8654 28.1246 18.2227 28.125H18.75V24.375H18.2227Z" fill="#40FFC6"/>
<path d="M41.25 30H40.3125C40.0639 30 39.8254 29.9012 39.6496 29.7254C39.4738 29.5496 39.375 29.3111 39.375 29.0625V23.4375C39.375 23.1889 39.4738 22.9504 39.6496 22.7746C39.8254 22.5988 40.0639 22.5 40.3125 22.5H41.25C42.2446 22.5 43.1984 22.8951 43.9016 23.5983C44.6049 24.3016 45 25.2554 45 26.25C45 27.2446 44.6049 28.1984 43.9016 28.9017C43.1984 29.6049 42.2446 30 41.25 30ZM41.25 24.375V28.125C41.7473 28.125 42.2242 27.9275 42.5758 27.5758C42.9275 27.2242 43.125 26.7473 43.125 26.25C43.125 25.7527 42.9275 25.2758 42.5758 24.9242C42.2242 24.5725 41.7473 24.375 41.25 24.375Z" fill="#40FFC6"/>
<path d="M27.1875 31.875H21.5625C20.8168 31.8742 20.1019 31.5776 19.5747 31.0503C19.0474 30.5231 18.7508 29.8082 18.75 29.0625V23.4375C18.7508 22.6918 19.0474 21.9769 19.5747 21.4497C20.1019 20.9224 20.8168 20.6258 21.5625 20.625H27.1875C27.4361 20.625 27.6746 20.7238 27.8504 20.8996C28.0262 21.0754 28.125 21.3139 28.125 21.5625V30.9375C28.125 31.1861 28.0262 31.4246 27.8504 31.6004C27.6746 31.7762 27.4361 31.875 27.1875 31.875ZM21.5625 22.5C21.314 22.5003 21.0757 22.5992 20.8999 22.7749C20.7242 22.9507 20.6253 23.189 20.625 23.4375V29.0625C20.6253 29.311 20.7242 29.5493 20.8999 29.7251C21.0757 29.9008 21.314 29.9997 21.5625 30H26.25V22.5H21.5625Z" fill="#2595FF"/>
<path d="M36.5625 35.6252C36.3993 35.6252 36.239 35.5826 36.0974 35.5016L29.751 31.8752H27.1875C26.9389 31.8752 26.7004 31.7764 26.5246 31.6006C26.3488 31.4248 26.25 31.1863 26.25 30.9377V21.5627C26.25 21.314 26.3488 21.0756 26.5246 20.8997C26.7004 20.7239 26.9389 20.6252 27.1875 20.6252H29.751L36.0979 16.9987C36.2404 16.9174 36.4019 16.8749 36.566 16.8755C36.7301 16.8761 36.8912 16.9198 37.0332 17.0022C37.1751 17.0846 37.2929 17.2028 37.3749 17.3451C37.4568 17.4873 37.4999 17.6485 37.5 17.8127V34.6877C37.5 34.9363 37.4012 35.1748 37.2254 35.3506C37.0496 35.5264 36.8111 35.6252 36.5625 35.6252ZM28.125 30.0002H30C30.1631 30.0002 30.3235 30.0427 30.4651 30.1237L35.625 33.0723V19.4281L30.4651 22.3766C30.3235 22.4576 30.1631 22.5002 30 22.5002H28.125V30.0002Z" fill="#2595FF"/>
<path d="M38.4375 37.5C37.6918 37.4992 36.9769 37.2026 36.4497 36.6753C35.9224 36.1481 35.6258 35.4332 35.625 34.6875V17.8125C35.625 17.0666 35.9213 16.3512 36.4488 15.8238C36.9762 15.2963 37.6916 15 38.4375 15C39.1834 15 39.8988 15.2963 40.4262 15.8238C40.9537 16.3512 41.25 17.0666 41.25 17.8125V34.6875C41.2492 35.4332 40.9526 36.1481 40.4253 36.6753C39.8981 37.2026 39.1832 37.4992 38.4375 37.5ZM38.4375 16.875C38.189 16.8753 37.9507 16.9742 37.7749 17.1499C37.5992 17.3257 37.5003 17.564 37.5 17.8125V34.6875C37.5 34.9361 37.5988 35.1746 37.7746 35.3504C37.9504 35.5262 38.1889 35.625 38.4375 35.625C38.6861 35.625 38.9246 35.5262 39.1004 35.3504C39.2762 35.1746 39.375 34.9361 39.375 34.6875V17.8125C39.3747 17.564 39.2758 17.3257 39.1001 17.1499C38.9243 16.9742 38.686 16.8753 38.4375 16.875Z" fill="#2595FF"/>
<path d="M26.25 45H24.375C23.6293 44.9992 22.9144 44.7026 22.3872 44.1753C21.8599 43.6481 21.5633 42.9332 21.5625 42.1875V30.9375C21.5625 30.6889 21.6613 30.4504 21.8371 30.2746C22.0129 30.0988 22.2514 30 22.5 30H29.0625C29.205 30 29.3456 30.0325 29.4736 30.095C29.6016 30.1575 29.7138 30.2483 29.8014 30.3607C29.8891 30.473 29.95 30.6038 29.9795 30.7432C30.0091 30.8825 30.0065 31.0268 29.9719 31.165L29.0625 34.8028V42.1875C29.0617 42.9332 28.7651 43.6481 28.2378 44.1753C27.7106 44.7026 26.9957 44.9992 26.25 45ZM23.4375 31.875V42.1875C23.4378 42.436 23.5367 42.6743 23.7124 42.8501C23.8882 43.0258 24.1265 43.1247 24.375 43.125H26.25C26.4985 43.1247 26.7368 43.0258 26.9126 42.8501C27.0883 42.6743 27.1872 42.436 27.1875 42.1875V34.6875C27.1877 34.6108 27.1972 34.5344 27.2156 34.46L27.8617 31.875H23.4375Z" fill="#2595FF"/>
</svg>
