<svg width="60" height="60" viewBox="0 0 60 60" fill="none" xmlns="http://www.w3.org/2000/svg">
<path d="M41.25 45H18.75C18.0043 44.9992 17.2894 44.7026 16.7622 44.1753C16.2349 43.6481 15.9383 42.9332 15.9375 42.1875V19.6875C15.9375 19.4389 16.0363 19.2004 16.2121 19.0246C16.3879 18.8488 16.6264 18.75 16.875 18.75C17.1236 18.75 17.3621 18.8488 17.5379 19.0246C17.7137 19.2004 17.8125 19.4389 17.8125 19.6875V42.1875C17.8128 42.436 17.9117 42.6743 18.0874 42.8501C18.2632 43.0258 18.5015 43.1247 18.75 43.125H41.25C41.4986 43.125 41.7371 43.2238 41.9129 43.3996C42.0887 43.5754 42.1875 43.8139 42.1875 44.0625C42.1875 44.3111 42.0887 44.5496 41.9129 44.7254C41.7371 44.9012 41.4986 45 41.25 45Z" fill="#2595FF"/>
<path d="M39.375 45H35.625C35.3764 45 35.1379 44.9012 34.9621 44.7254C34.7863 44.5496 34.6875 44.3111 34.6875 44.0625V34.6875C34.6875 34.4389 34.7863 34.2004 34.9621 34.0246C35.1379 33.8488 35.3764 33.75 35.625 33.75H39.375C39.6236 33.75 39.8621 33.8488 40.0379 34.0246C40.2137 34.2004 40.3125 34.4389 40.3125 34.6875V44.0625C40.3125 44.3111 40.2137 44.5496 40.0379 44.7254C39.8621 44.9012 39.6236 45 39.375 45ZM36.5625 43.125H38.4375V35.625H36.5625V43.125Z" fill="#2595FF"/>
<path d="M31.875 45H28.125C27.8764 45 27.6379 44.9012 27.4621 44.7254C27.2863 44.5496 27.1875 44.3111 27.1875 44.0625V36.5625C27.1875 36.3139 27.2863 36.0754 27.4621 35.8996C27.6379 35.7238 27.8764 35.625 28.125 35.625H31.875C32.1236 35.625 32.3621 35.7238 32.5379 35.8996C32.7137 36.0754 32.8125 36.3139 32.8125 36.5625V44.0625C32.8125 44.3111 32.7137 44.5496 32.5379 44.7254C32.3621 44.9012 32.1236 45 31.875 45ZM29.0625 43.125H30.9375V37.5H29.0625V43.125Z" fill="#2595FF"/>
<path d="M24.375 45H20.625C20.3764 45 20.1379 44.9012 19.9621 44.7254C19.7863 44.5496 19.6875 44.3111 19.6875 44.0625V38.4375C19.6875 38.1889 19.7863 37.9504 19.9621 37.7746C20.1379 37.5988 20.3764 37.5 20.625 37.5H24.375C24.6236 37.5 24.8621 37.5988 25.0379 37.7746C25.2137 37.9504 25.3125 38.1889 25.3125 38.4375V44.0625C25.3125 44.3111 25.2137 44.5496 25.0379 44.7254C24.8621 44.9012 24.6236 45 24.375 45ZM21.5625 43.125H23.4375V39.375H21.5625V43.125Z" fill="#2595FF"/>
<path d="M22.5 36.5626C22.3146 36.5626 22.1334 36.5076 21.9792 36.4046C21.8251 36.3015 21.705 36.1551 21.634 35.9839C21.5631 35.8126 21.5445 35.6241 21.5807 35.4423C21.6168 35.2605 21.7061 35.0934 21.8372 34.9623L25.5872 31.2123C25.7264 31.0733 25.9057 30.9816 26.0999 30.95C26.2941 30.9185 26.4933 30.9487 26.6693 31.0365L29.815 32.6094L33.0869 29.3375C33.2261 29.1985 33.4054 29.1067 33.5996 29.0752C33.7938 29.0436 33.993 29.0739 34.169 29.1617L37.3706 30.7625L42.525 26.4675C42.6192 26.3857 42.7287 26.3235 42.8472 26.2846C42.9657 26.2457 43.0908 26.2308 43.2151 26.2408C43.3395 26.2508 43.4605 26.2856 43.5713 26.343C43.682 26.4004 43.7802 26.4793 43.86 26.5752C43.9399 26.671 43.9998 26.7818 44.0363 26.9011C44.0728 27.0204 44.0851 27.1457 44.0725 27.2698C44.0599 27.3939 44.0227 27.5143 43.963 27.6238C43.9034 27.7333 43.8224 27.8299 43.725 27.9077L38.1 32.5952C37.9599 32.7118 37.7889 32.7852 37.6079 32.8062C37.4269 32.8272 37.2436 32.7951 37.0805 32.7137L33.9349 31.1409L30.663 34.4128C30.5238 34.5518 30.3445 34.6436 30.1503 34.6752C29.9561 34.7067 29.7569 34.6764 29.5808 34.5885L26.4351 33.0157L23.1633 36.2876C23.0763 36.3749 22.9729 36.4441 22.8591 36.4914C22.7453 36.5386 22.6232 36.5628 22.5 36.5626Z" fill="#2595FF"/>
<path d="M27.1875 30C25.7041 30 24.2541 29.5601 23.0207 28.736C21.7874 27.9119 20.8261 26.7406 20.2584 25.3701C19.6907 23.9997 19.5422 22.4917 19.8316 21.0368C20.121 19.582 20.8353 18.2456 21.8842 17.1967C22.9331 16.1478 24.2695 15.4335 25.7243 15.1441C27.1792 14.8547 28.6872 15.0032 30.0576 15.5709C31.4281 16.1386 32.5994 17.0999 33.4235 18.3332C34.2476 19.5666 34.6875 21.0166 34.6875 22.5C34.6852 24.4884 33.8943 26.3948 32.4883 27.8008C31.0823 29.2068 29.1759 29.9977 27.1875 30ZM27.1875 16.875C26.075 16.875 24.9874 17.2049 24.0624 17.823C23.1374 18.4411 22.4164 19.3196 21.9907 20.3474C21.5649 21.3752 21.4535 22.5062 21.6706 23.5974C21.8876 24.6885 22.4234 25.6908 23.21 26.4775C23.9967 27.2641 24.999 27.7999 26.0901 28.0169C27.1813 28.234 28.3123 28.1226 29.3401 27.6968C30.3679 27.2711 31.2464 26.5501 31.8645 25.6251C32.4826 24.7001 32.8125 23.6125 32.8125 22.5C32.8109 21.0087 32.2177 19.5789 31.1632 18.5243C30.1086 17.4698 28.6788 16.8766 27.1875 16.875Z" fill="#40FFC6"/>
<path d="M27.6562 26.25H25.3125C25.0639 26.25 24.8254 26.1512 24.6496 25.9754C24.4738 25.7996 24.375 25.5611 24.375 25.3125C24.375 25.0639 24.4738 24.8254 24.6496 24.6496C24.8254 24.4738 25.0639 24.375 25.3125 24.375H27.6562C27.7806 24.375 27.8998 24.3256 27.9877 24.2377C28.0756 24.1498 28.125 24.0306 28.125 23.9062C28.125 23.7819 28.0756 23.6627 27.9877 23.5748C27.8998 23.4869 27.7806 23.4375 27.6562 23.4375H26.7188C26.0971 23.4375 25.501 23.1906 25.0615 22.751C24.6219 22.3115 24.375 21.7154 24.375 21.0938C24.375 20.4721 24.6219 19.876 25.0615 19.4365C25.501 18.9969 26.0971 18.75 26.7188 18.75H29.0625C29.3111 18.75 29.5496 18.8488 29.7254 19.0246C29.9012 19.2004 30 19.4389 30 19.6875C30 19.9361 29.9012 20.1746 29.7254 20.3504C29.5496 20.5262 29.3111 20.625 29.0625 20.625H26.7188C26.5944 20.625 26.4752 20.6744 26.3873 20.7623C26.2994 20.8502 26.25 20.9694 26.25 21.0938C26.25 21.2181 26.2994 21.3373 26.3873 21.4252C26.4752 21.5131 26.5944 21.5625 26.7188 21.5625H27.6562C28.2779 21.5625 28.874 21.8094 29.3135 22.249C29.7531 22.6885 30 23.2846 30 23.9062C30 24.5279 29.7531 25.124 29.3135 25.5635C28.874 26.0031 28.2779 26.25 27.6562 26.25Z" fill="#40FFC6"/>
<path d="M27.1875 20.625C26.9389 20.625 26.7004 20.5262 26.5246 20.3504C26.3488 20.1746 26.25 19.9361 26.25 19.6875V18.75C26.25 18.5014 26.3488 18.2629 26.5246 18.0871C26.7004 17.9113 26.9389 17.8125 27.1875 17.8125C27.4361 17.8125 27.6746 17.9113 27.8504 18.0871C28.0262 18.2629 28.125 18.5014 28.125 18.75V19.6875C28.125 19.9361 28.0262 20.1746 27.8504 20.3504C27.6746 20.5262 27.4361 20.625 27.1875 20.625Z" fill="#40FFC6"/>
<path d="M27.1875 27.1875C26.9389 27.1875 26.7004 27.0887 26.5246 26.9129C26.3488 26.7371 26.25 26.4986 26.25 26.25V25.3125C26.25 25.0639 26.3488 24.8254 26.5246 24.6496C26.7004 24.4738 26.9389 24.375 27.1875 24.375C27.4361 24.375 27.6746 24.4738 27.8504 24.6496C28.0262 24.8254 28.125 25.0639 28.125 25.3125V26.25C28.125 26.4986 28.0262 26.7371 27.8504 26.9129C27.6746 27.0887 27.4361 27.1875 27.1875 27.1875Z" fill="#40FFC6"/>
</svg>
