<svg width="60" height="60" viewBox="0 0 60 60" fill="none" xmlns="http://www.w3.org/2000/svg">
<path d="M24.6938 25.6312C24.5706 25.6313 24.4487 25.6071 24.3349 25.56C24.2212 25.5129 24.1179 25.4437 24.0309 25.3566L20.0747 21.4003C19.9039 21.2235 19.8094 20.9867 19.8116 20.7409C19.8137 20.4951 19.9123 20.2599 20.0861 20.0861C20.2599 19.9123 20.4951 19.8137 20.7409 19.8116C20.9867 19.8094 21.2235 19.9039 21.4003 20.0747L25.3566 24.0309C25.4876 24.1621 25.5768 24.3291 25.613 24.5109C25.6491 24.6927 25.6305 24.8812 25.5596 25.0524C25.4887 25.2237 25.3685 25.3701 25.2144 25.4731C25.0603 25.5761 24.8791 25.6311 24.6938 25.6312Z" fill="#2595FF"/>
<path d="M20.7375 40.1998C20.5521 40.1997 20.3709 40.1447 20.2167 40.0417C20.0626 39.9387 19.9425 39.7923 19.8715 39.621C19.8006 39.4497 19.782 39.2612 19.8182 39.0794C19.8543 38.8976 19.9436 38.7306 20.0747 38.5994L24.0309 34.6432C24.2075 34.4711 24.4447 34.3754 24.6913 34.377C24.9379 34.3785 25.1739 34.4772 25.3483 34.6515C25.5226 34.8259 25.6213 35.0619 25.6228 35.3085C25.6244 35.5551 25.5288 35.7924 25.3566 35.9689L21.4004 39.9252C21.3134 40.0124 21.2101 40.0815 21.0963 40.1286C20.9826 40.1757 20.8606 40.1999 20.7375 40.1998Z" fill="#2595FF"/>
<path d="M39.2625 40.1998C39.1394 40.2 39.0174 40.1758 38.9037 40.1287C38.7899 40.0815 38.6866 40.0124 38.5997 39.9252L34.6434 35.9689C34.4713 35.7924 34.3757 35.5551 34.3772 35.3085C34.3788 35.0619 34.4774 34.8259 34.6518 34.6515C34.8261 34.4772 35.0622 34.3785 35.3088 34.377C35.5553 34.3754 35.7926 34.4711 35.9692 34.6432L39.9254 38.5994C40.0565 38.7306 40.1457 38.8976 40.1819 39.0794C40.218 39.2612 40.1995 39.4497 40.1285 39.621C40.0576 39.7923 39.9375 39.9387 39.7833 40.0417C39.6292 40.1447 39.448 40.1997 39.2626 40.1998L39.2625 40.1998Z" fill="#2595FF"/>
<path d="M35.3062 25.6313C35.1208 25.6313 34.9396 25.5763 34.7855 25.4733C34.6313 25.3703 34.5112 25.2239 34.4402 25.0526C34.3693 24.8813 34.3507 24.6929 34.3868 24.511C34.423 24.3292 34.5122 24.1621 34.6433 24.031L38.5996 20.0748C38.6861 19.9852 38.7895 19.9138 38.9039 19.8647C39.0183 19.8156 39.1413 19.7897 39.2658 19.7886C39.3902 19.7875 39.5137 19.8112 39.6289 19.8584C39.7441 19.9055 39.8488 19.9751 39.9368 20.0632C40.0248 20.1512 40.0945 20.2559 40.1416 20.3711C40.1887 20.4863 40.2125 20.6097 40.2114 20.7342C40.2103 20.8587 40.1844 20.9817 40.1353 21.0961C40.0862 21.2105 40.0147 21.3139 39.9252 21.4004L35.9689 25.3567C35.882 25.4438 35.7787 25.513 35.665 25.5601C35.5513 25.6073 35.4293 25.6315 35.3062 25.6313Z" fill="#2595FF"/>
<path d="M30 38.4375C28.3312 38.4375 26.6999 37.9427 25.3124 37.0155C23.9248 36.0884 22.8434 34.7706 22.2048 33.2289C21.5662 31.6871 21.3991 29.9906 21.7246 28.3539C22.0502 26.7172 22.8538 25.2138 24.0338 24.0338C25.2138 22.8538 26.7172 22.0502 28.3539 21.7246C29.9906 21.3991 31.6871 21.5662 33.2289 22.2048C34.7706 22.8434 36.0884 23.9248 37.0155 25.3124C37.9427 26.6999 38.4375 28.3312 38.4375 30C38.435 32.237 37.5453 34.3817 35.9635 35.9635C34.3817 37.5453 32.237 38.435 30 38.4375ZM30 23.4375C28.7021 23.4375 27.4333 23.8224 26.3541 24.5435C25.2749 25.2646 24.4337 26.2895 23.937 27.4886C23.4403 28.6878 23.3104 30.0073 23.5636 31.2803C23.8168 32.5533 24.4418 33.7226 25.3596 34.6404C26.2774 35.5582 27.4467 36.1832 28.7197 36.4364C29.9927 36.6896 31.3122 36.5597 32.5114 36.063C33.7105 35.5663 34.7354 34.7251 35.4565 33.6459C36.1776 32.5667 36.5625 31.2979 36.5625 30C36.5605 28.2601 35.8684 26.5921 34.6382 25.3618C33.4079 24.1316 31.7399 23.4395 30 23.4375Z" fill="#2595FF"/>
<path d="M30 32.8125C29.2583 32.8125 28.5333 32.5926 27.9166 32.1805C27.2999 31.7685 26.8193 31.1828 26.5355 30.4976C26.2516 29.8123 26.1774 29.0583 26.3221 28.3309C26.4668 27.6035 26.8239 26.9353 27.3484 26.4109C27.8728 25.8864 28.541 25.5293 29.2684 25.3846C29.9958 25.2399 30.7498 25.3141 31.4351 25.598C32.1203 25.8818 32.706 26.3624 33.118 26.9791C33.5301 27.5958 33.75 28.3208 33.75 29.0625C33.749 30.0567 33.3535 31.01 32.6505 31.713C31.9475 32.416 30.9942 32.8115 30 32.8125ZM30 27.1875C29.6292 27.1875 29.2666 27.2975 28.9583 27.5035C28.65 27.7095 28.4096 28.0024 28.2677 28.345C28.1258 28.6876 28.0887 29.0646 28.161 29.4283C28.2334 29.792 28.412 30.1261 28.6742 30.3883C28.9364 30.6506 29.2705 30.8291 29.6342 30.9015C29.9979 30.9738 30.3749 30.9367 30.7175 30.7948C31.0601 30.6529 31.353 30.4125 31.559 30.1042C31.765 29.7959 31.875 29.4333 31.875 29.0625C31.8744 28.5654 31.6767 28.0888 31.3252 27.7373C30.9737 27.3858 30.4971 27.1881 30 27.1875Z" fill="#2595FF"/>
<path d="M24.4117 35.9344C24.245 35.9343 24.0814 35.8897 23.9377 35.8053C23.794 35.7209 23.6754 35.5997 23.5941 35.4542C23.5128 35.3087 23.4718 35.1441 23.4752 34.9775C23.4787 34.8109 23.5265 34.6482 23.6138 34.5062C24.2849 33.4155 25.2241 32.5149 26.342 31.8902C27.4599 31.2655 28.7192 30.9375 29.9998 30.9375C31.2804 30.9375 32.5396 31.2655 33.6575 31.8902C34.7754 32.5149 35.7147 33.4155 36.3858 34.5062C36.4546 34.611 36.5016 34.7287 36.5242 34.8521C36.5467 34.9755 36.5442 35.1021 36.5169 35.2245C36.4896 35.347 36.438 35.4626 36.3651 35.5648C36.2923 35.6669 36.1997 35.7533 36.0928 35.819C35.986 35.8847 35.867 35.9283 35.743 35.9472C35.619 35.9661 35.4925 35.9599 35.3709 35.929C35.2494 35.8981 35.1352 35.8431 35.0353 35.7673C34.9354 35.6915 34.8517 35.5964 34.7891 35.4876C34.2857 34.67 33.5812 33.9949 32.743 33.5266C31.9047 33.0583 30.9605 32.8125 30.0002 32.8125C29.04 32.8125 28.0958 33.0583 27.2575 33.5266C26.4193 33.9949 25.7148 34.67 25.2114 35.4876C25.1275 35.6243 25.0099 35.7372 24.8699 35.8155C24.7298 35.8937 24.5721 35.9347 24.4117 35.9344Z" fill="#2595FF"/>
<path d="M18.75 22.5C18.0083 22.5 17.2833 22.2801 16.6666 21.868C16.0499 21.456 15.5693 20.8703 15.2855 20.1851C15.0016 19.4998 14.9274 18.7458 15.0721 18.0184C15.2168 17.291 15.5739 16.6228 16.0984 16.0984C16.6228 15.5739 17.291 15.2168 18.0184 15.0721C18.7458 14.9274 19.4998 15.0016 20.1851 15.2855C20.8703 15.5693 21.456 16.0499 21.868 16.6666C22.2801 17.2833 22.5 18.0083 22.5 18.75C22.499 19.7442 22.1035 20.6975 21.4005 21.4005C20.6975 22.1035 19.7442 22.499 18.75 22.5ZM18.75 16.875C18.3792 16.875 18.0166 16.985 17.7083 17.191C17.4 17.397 17.1596 17.6899 17.0177 18.0325C16.8758 18.3751 16.8387 18.7521 16.911 19.1158C16.9834 19.4795 17.162 19.8136 17.4242 20.0758C17.6864 20.3381 18.0205 20.5166 18.3842 20.589C18.7479 20.6613 19.1249 20.6242 19.4675 20.4823C19.8101 20.3404 20.103 20.1 20.309 19.7917C20.515 19.4834 20.625 19.1208 20.625 18.75C20.6244 18.2529 20.4267 17.7763 20.0752 17.4248C19.7237 17.0733 19.2471 16.8756 18.75 16.875Z" fill="#40FFC6"/>
<path d="M41.25 22.5C40.5083 22.5 39.7833 22.2801 39.1666 21.868C38.5499 21.456 38.0693 20.8703 37.7855 20.1851C37.5016 19.4998 37.4274 18.7458 37.5721 18.0184C37.7168 17.291 38.0739 16.6228 38.5984 16.0984C39.1228 15.5739 39.791 15.2168 40.5184 15.0721C41.2458 14.9274 41.9998 15.0016 42.6851 15.2855C43.3703 15.5693 43.956 16.0499 44.368 16.6666C44.7801 17.2833 45 18.0083 45 18.75C44.999 19.7443 44.6036 20.6975 43.9006 21.4006C43.1975 22.1036 42.2443 22.499 41.25 22.5ZM41.25 16.875C40.8792 16.875 40.5166 16.985 40.2083 17.191C39.9 17.397 39.6596 17.6899 39.5177 18.0325C39.3758 18.3751 39.3387 18.7521 39.411 19.1158C39.4834 19.4795 39.662 19.8136 39.9242 20.0758C40.1864 20.3381 40.5205 20.5166 40.8842 20.589C41.2479 20.6613 41.6249 20.6242 41.9675 20.4823C42.3101 20.3404 42.603 20.1 42.809 19.7917C43.015 19.4834 43.125 19.1208 43.125 18.75C43.1243 18.2529 42.9266 17.7764 42.5751 17.4249C42.2236 17.0734 41.7471 16.8757 41.25 16.875Z" fill="#40FFC6"/>
<path d="M18.75 45C18.0083 45 17.2833 44.7801 16.6666 44.368C16.0499 43.956 15.5693 43.3703 15.2855 42.6851C15.0016 41.9998 14.9274 41.2458 15.0721 40.5184C15.2168 39.791 15.5739 39.1228 16.0984 38.5984C16.6228 38.0739 17.291 37.7168 18.0184 37.5721C18.7458 37.4274 19.4998 37.5016 20.1851 37.7855C20.8703 38.0693 21.456 38.5499 21.868 39.1666C22.2801 39.7833 22.5 40.5083 22.5 41.25C22.499 42.2442 22.1035 43.1975 21.4005 43.9005C20.6975 44.6035 19.7442 44.999 18.75 45ZM18.75 39.375C18.3792 39.375 18.0166 39.485 17.7083 39.691C17.4 39.897 17.1596 40.1899 17.0177 40.5325C16.8758 40.8751 16.8387 41.2521 16.911 41.6158C16.9834 41.9795 17.162 42.3136 17.4242 42.5758C17.6864 42.8381 18.0205 43.0166 18.3842 43.089C18.7479 43.1613 19.1249 43.1242 19.4675 42.9823C19.8101 42.8404 20.103 42.6 20.309 42.2917C20.515 41.9834 20.625 41.6208 20.625 41.25C20.6244 40.7529 20.4267 40.2763 20.0752 39.9248C19.7237 39.5733 19.2471 39.3756 18.75 39.375Z" fill="#40FFC6"/>
<path d="M41.25 45C40.5083 45 39.7833 44.7801 39.1666 44.368C38.5499 43.956 38.0693 43.3703 37.7855 42.6851C37.5016 41.9998 37.4274 41.2458 37.5721 40.5184C37.7168 39.791 38.0739 39.1228 38.5984 38.5984C39.1228 38.0739 39.791 37.7168 40.5184 37.5721C41.2458 37.4274 41.9998 37.5016 42.6851 37.7855C43.3703 38.0693 43.956 38.5499 44.368 39.1666C44.7801 39.7833 45 40.5083 45 41.25C44.999 42.2443 44.6036 43.1975 43.9006 43.9006C43.1975 44.6036 42.2443 44.999 41.25 45ZM41.25 39.375C40.8792 39.375 40.5166 39.485 40.2083 39.691C39.9 39.897 39.6596 40.1899 39.5177 40.5325C39.3758 40.8751 39.3387 41.2521 39.411 41.6158C39.4834 41.9795 39.662 42.3136 39.9242 42.5758C40.1864 42.8381 40.5205 43.0166 40.8842 43.089C41.2479 43.1613 41.6249 43.1242 41.9675 42.9823C42.3101 42.8404 42.603 42.6 42.809 42.2917C43.015 41.9834 43.125 41.6208 43.125 41.25C43.1243 40.7529 42.9266 40.2764 42.5751 39.9249C42.2236 39.5734 41.7471 39.3757 41.25 39.375Z" fill="#40FFC6"/>
</svg>
