<svg width="60" height="60" viewBox="0 0 60 60" fill="none" xmlns="http://www.w3.org/2000/svg">
<path d="M41.25 38.4375H18.75C18.0043 38.4367 17.2894 38.1401 16.7622 37.6128C16.2349 37.0856 15.9383 36.3707 15.9375 35.625V18.75C15.9383 18.0043 16.2349 17.2894 16.7622 16.7622C17.2894 16.2349 18.0043 15.9383 18.75 15.9375H41.25C41.9957 15.9383 42.7106 16.2349 43.2378 16.7622C43.7651 17.2894 44.0617 18.0043 44.0625 18.75V35.625C44.0617 36.3707 43.7651 37.0856 43.2378 37.6128C42.7106 38.1401 41.9957 38.4367 41.25 38.4375ZM18.75 17.8125C18.5014 17.8127 18.2631 17.9116 18.0873 18.0873C17.9116 18.2631 17.8127 18.5014 17.8125 18.75V35.625C17.8127 35.8736 17.9116 36.1119 18.0873 36.2877C18.2631 36.4634 18.5014 36.5623 18.75 36.5625H41.25C41.4986 36.5623 41.7369 36.4634 41.9127 36.2877C42.0884 36.1119 42.1873 35.8736 42.1875 35.625V18.75C42.1873 18.5014 42.0884 18.2631 41.9127 18.0873C41.7369 17.9116 41.4986 17.8127 41.25 17.8125H18.75Z" fill="#2595FF"/>
<path d="M35.1562 45H24.8438C24.2221 45 23.626 44.7531 23.1865 44.3135C22.7469 43.874 22.5 43.2779 22.5 42.6562C22.5 42.0346 22.7469 41.4385 23.1865 40.999C23.626 40.5594 24.2221 40.3125 24.8438 40.3125H25.7208L26.5952 37.2432C26.6512 37.0472 26.7695 36.8748 26.9321 36.752C27.0948 36.6292 27.293 36.5627 27.4969 36.5625H32.5031C32.707 36.5627 32.9052 36.6292 33.0679 36.752C33.2306 36.8748 33.3489 37.0472 33.4049 37.2432L34.2792 40.3125H35.1562C35.7779 40.3125 36.374 40.5594 36.8135 40.999C37.2531 41.4385 37.5 42.0346 37.5 42.6562C37.5 43.2779 37.2531 43.874 36.8135 44.3135C36.374 44.7531 35.7779 45 35.1562 45ZM24.8438 42.1875C24.7194 42.1875 24.6002 42.2369 24.5123 42.3248C24.4244 42.4127 24.375 42.5319 24.375 42.6562C24.375 42.7806 24.4244 42.8998 24.5123 42.9877C24.6002 43.0756 24.7194 43.125 24.8438 43.125H35.1562C35.2806 43.125 35.3998 43.0756 35.4877 42.9877C35.5756 42.8998 35.625 42.7806 35.625 42.6562C35.625 42.5319 35.5756 42.4127 35.4877 42.3248C35.3998 42.2369 35.2806 42.1875 35.1562 42.1875H33.5719C33.368 42.1873 33.1698 42.1208 33.0071 41.998C32.8444 41.8752 32.7261 41.7028 32.6701 41.5068L31.7953 38.4375H28.2047L27.3303 41.5068C27.2743 41.7028 27.1559 41.8753 26.9931 41.9981C26.8304 42.121 26.632 42.1874 26.4281 42.1875H24.8438Z" fill="#2595FF"/>
<path d="M30 34.6875C28.5166 34.6875 27.0666 34.2476 25.8332 33.4235C24.5999 32.5994 23.6386 31.4281 23.0709 30.0576C22.5032 28.6872 22.3547 27.1792 22.6441 25.7243C22.9335 24.2695 23.6478 22.9331 24.6967 21.8842C25.7456 20.8353 27.082 20.121 28.5368 19.8316C29.9917 19.5422 31.4997 19.6907 32.8701 20.2584C34.2406 20.8261 35.4119 21.7874 36.236 23.0207C37.0601 24.2541 37.5 25.7041 37.5 27.1875C37.4977 29.1759 36.7068 31.0823 35.3008 32.4883C33.8948 33.8943 31.9884 34.6852 30 34.6875ZM30 21.5625C28.8875 21.5625 27.7999 21.8924 26.8749 22.5105C25.9499 23.1286 25.2289 24.0071 24.8032 25.0349C24.3774 26.0627 24.266 27.1937 24.4831 28.2849C24.7001 29.376 25.2359 30.3783 26.0225 31.165C26.8092 31.9516 27.8115 32.4874 28.9026 32.7044C29.9938 32.9215 31.1248 32.8101 32.1526 32.3843C33.1804 31.9586 34.0589 31.2376 34.677 30.3126C35.2951 29.3876 35.625 28.3 35.625 27.1875C35.6234 25.6962 35.0302 24.2664 33.9757 23.2118C32.9211 22.1573 31.4913 21.5641 30 21.5625Z" fill="#40FFC6"/>
<path d="M30.4688 30.9375H28.125C27.8764 30.9375 27.6379 30.8387 27.4621 30.6629C27.2863 30.4871 27.1875 30.2486 27.1875 30C27.1875 29.7514 27.2863 29.5129 27.4621 29.3371C27.6379 29.1613 27.8764 29.0625 28.125 29.0625H30.4688C30.5931 29.0625 30.7123 29.0131 30.8002 28.9252C30.8881 28.8373 30.9375 28.7181 30.9375 28.5938C30.9375 28.4694 30.8881 28.3502 30.8002 28.2623C30.7123 28.1744 30.5931 28.125 30.4688 28.125H29.5312C28.9096 28.125 28.3135 27.8781 27.874 27.4385C27.4344 26.999 27.1875 26.4029 27.1875 25.7812C27.1875 25.1596 27.4344 24.5635 27.874 24.124C28.3135 23.6844 28.9096 23.4375 29.5312 23.4375H31.875C32.1236 23.4375 32.3621 23.5363 32.5379 23.7121C32.7137 23.8879 32.8125 24.1264 32.8125 24.375C32.8125 24.6236 32.7137 24.8621 32.5379 25.0379C32.3621 25.2137 32.1236 25.3125 31.875 25.3125H29.5312C29.4069 25.3125 29.2877 25.3619 29.1998 25.4498C29.1119 25.5377 29.0625 25.6569 29.0625 25.7812C29.0625 25.9056 29.1119 26.0248 29.1998 26.1127C29.2877 26.2006 29.4069 26.25 29.5312 26.25H30.4688C31.0904 26.25 31.6865 26.4969 32.126 26.9365C32.5656 27.376 32.8125 27.9721 32.8125 28.5938C32.8125 29.2154 32.5656 29.8115 32.126 30.251C31.6865 30.6906 31.0904 30.9375 30.4688 30.9375Z" fill="#40FFC6"/>
<path d="M30 25.3125C29.7514 25.3125 29.5129 25.2137 29.3371 25.0379C29.1613 24.8621 29.0625 24.6236 29.0625 24.375V23.4375C29.0625 23.1889 29.1613 22.9504 29.3371 22.7746C29.5129 22.5988 29.7514 22.5 30 22.5C30.2486 22.5 30.4871 22.5988 30.6629 22.7746C30.8387 22.9504 30.9375 23.1889 30.9375 23.4375V24.375C30.9375 24.6236 30.8387 24.8621 30.6629 25.0379C30.4871 25.2137 30.2486 25.3125 30 25.3125Z" fill="#40FFC6"/>
<path d="M30 31.875C29.7514 31.875 29.5129 31.7762 29.3371 31.6004C29.1613 31.4246 29.0625 31.1861 29.0625 30.9375V30C29.0625 29.7514 29.1613 29.5129 29.3371 29.3371C29.5129 29.1613 29.7514 29.0625 30 29.0625C30.2486 29.0625 30.4871 29.1613 30.6629 29.3371C30.8387 29.5129 30.9375 29.7514 30.9375 30V30.9375C30.9375 31.1861 30.8387 31.4246 30.6629 31.6004C30.4871 31.7762 30.2486 31.875 30 31.875Z" fill="#40FFC6"/>
</svg>
