<svg width="80" height="80" viewBox="0 0 80 80" fill="none" xmlns="http://www.w3.org/2000/svg">
<path fill-rule="evenodd" clip-rule="evenodd" d="M58.8281 34.0625H56.4844C56.3024 34.0625 56.123 34.1048 55.9603 34.1862L51.5202 36.4062H42.8291L38.4849 32.062C38.2652 31.8423 37.9671 31.7188 37.6562 31.7188H21.1726C20.5247 31.7188 20 32.2434 20 32.8906V47.0312C20 47.342 20.1234 47.6401 20.3433 47.8598L25.0308 52.5473C25.2505 52.7671 25.5485 52.8906 25.8594 52.8906H30.1358L36.823 59.6522C37.0431 59.8748 37.3432 60 37.6562 60H40C40.3109 60 40.6089 59.8765 40.8286 59.6567L43.1723 57.313C43.6247 56.8606 43.6307 56.1291 43.1859 55.6694L41.6438 54.0759L42.8291 52.8906H48.9677L53.312 57.2348C53.7695 57.6925 54.5116 57.6925 54.9692 57.2348L57.313 54.8911C57.5328 54.6713 57.6562 54.3733 57.6562 54.0625V51.7188C57.6562 51.408 57.5328 51.1099 57.313 50.8902L55.3125 48.8896V47.5167L57.3128 45.5164C57.5262 45.3029 57.6562 45.0035 57.6562 44.6875V42.818L59.6702 40.7368C59.8817 40.5183 60 40.226 60 39.9219V35.2344C60 34.5872 59.4753 34.0625 58.8281 34.0625ZM29.4531 50.5469H26.3448L22.3438 46.5459V45.8594H29.4531V50.5469ZM22.3438 43.5156V34.0625H25H32H37.1709L41.1719 38.0635V43.5156H22.3438ZM45.8594 50.5469H42.3438C42.0329 50.5469 41.7348 50.6704 41.5152 50.8902L39.1714 53.2339C38.7191 53.6862 38.713 54.4177 39.1579 54.8775L40.6999 56.4709L39.5146 57.6562H38.1455L31.7969 51.2371V45.8594H45.8594V50.5469ZM55.3125 53.5771L54.1406 54.749L50.2817 50.8902C50.062 50.6704 49.764 50.5469 49.4531 50.5469H48.2031V45.8594H53.6552L53.312 46.2027C53.0922 46.4224 52.9688 46.7205 52.9688 47.0312V49.375C52.9688 49.6858 53.0922 49.9838 53.312 50.2036L55.3125 52.2041V53.5771ZM57.6562 39.4477L55.6423 41.5288C55.4308 41.7473 55.3125 42.0396 55.3125 42.3438V43.5156H43.5156V38.75H51.7969C51.9788 38.75 52.1582 38.7077 52.3209 38.6263L56.761 36.4062H57.6562V39.4477Z" fill="#2595FF"/>
<path d="M28 36.5V30M28 30V23L35.136 22.6244C36.019 22.5779 36.5234 23.6161 35.9411 24.2815L34.7101 25.6885C34.3269 26.1264 34.3971 26.7978 34.8627 27.147L35.7859 27.8395C36.5347 28.401 36.1706 29.5915 35.2359 29.6382L28 30Z" stroke="#40FFC6" stroke-width="2" stroke-linecap="round" stroke-linejoin="round"/>
</svg>
