<svg width="80" height="80" viewBox="0 0 80 80" fill="none" xmlns="http://www.w3.org/2000/svg">
<path d="M54.3984 46.5388C56.1409 43.4211 57.0242 40.2198 57.0242 37.0239C57.0242 32.4766 55.2534 28.2016 52.038 24.9862C48.8227 21.7708 44.5477 20 40.0004 20C35.4531 20 31.1781 21.7708 27.9627 24.9862C24.7473 28.2016 22.9766 32.4766 22.9766 37.0239C22.9766 40.2198 23.86 43.4211 25.6023 46.5388C26.9736 48.9926 28.8779 51.3992 31.2622 53.692C32.9554 55.3201 34.6397 56.6521 36.036 57.6562H30.6595C30.0123 57.6562 29.4876 58.1809 29.4876 58.8281C29.4876 59.4753 30.0123 60 30.6595 60H49.3416C49.9887 60 50.5134 59.4753 50.5134 58.8281C50.5134 58.1809 49.9887 57.6562 49.3416 57.6562H43.965C45.3613 56.6521 47.0455 55.3201 48.7388 53.692C51.123 51.3993 53.0272 48.9926 54.3984 46.5388ZM47.1542 51.964C44.2037 54.8095 41.2137 56.7378 40.0005 57.4709C38.7868 56.7375 35.797 54.8093 32.8467 51.964C30.6393 49.8351 28.8853 47.6163 27.6337 45.3691C26.0987 42.6136 25.3204 39.8058 25.3204 37.0238C25.3202 28.9292 31.9057 22.3438 40.0004 22.3438C48.095 22.3438 54.6805 28.9292 54.6805 37.0239C54.6805 39.8059 53.9022 42.6136 52.3672 45.3692C51.1155 47.6163 49.3616 49.8351 47.1542 51.964Z" fill="#2595FF"/>
<path d="M35.9102 31.9824C35.263 31.9824 34.7383 32.5071 34.7383 33.1543V42.06C34.7383 42.7072 35.263 43.2319 35.9102 43.2319C36.5573 43.2319 37.082 42.7072 37.082 42.06V33.1543C37.082 32.5071 36.5574 31.9824 35.9102 31.9824Z" fill="#40FFC6"/>
<path d="M43.091 31.9824H40.6113C39.9641 31.9824 39.4395 32.5071 39.4395 33.1543V42.06C39.4395 42.7072 39.9641 43.2319 40.6113 43.2319C41.2585 43.2319 41.7832 42.7072 41.7832 42.06V39.3572C42.2673 39.3548 42.7878 39.3525 43.091 39.3525C45.1501 39.3525 46.8254 37.6994 46.8254 35.6674C46.8254 33.6355 45.1501 31.9824 43.091 31.9824ZM43.091 37.0088C42.7865 37.0088 42.2673 37.011 41.7832 37.0134V34.3262H43.091C43.8448 34.3262 44.4816 34.9404 44.4816 35.6675C44.4816 36.3946 43.8448 37.0088 43.091 37.0088Z" fill="#40FFC6"/>
<path d="M40.0004 24.6875C33.2633 24.6875 27.7822 30.1685 27.7822 36.9057C27.7822 43.6428 33.2632 49.1239 40.0004 49.1239C46.7376 49.1239 52.2186 43.6429 52.2186 36.9057C52.2186 30.1685 46.7376 24.6875 40.0004 24.6875ZM40.0004 46.7801C34.5557 46.7801 30.126 42.3504 30.126 36.9056C30.126 31.4609 34.5557 27.0313 40.0004 27.0313C45.4452 27.0313 49.8749 31.4609 49.8749 36.9057C49.8749 42.3505 45.4453 46.7801 40.0004 46.7801Z" fill="#2595FF"/>
</svg>
