<svg width="80" height="80" viewBox="0 0 80 80" fill="none" xmlns="http://www.w3.org/2000/svg">
<path d="M42.1436 54.125H35.8936C35.2466 54.125 34.7217 54.6496 34.7217 55.2969C34.7217 55.9438 35.2466 56.4688 35.8936 56.4688H42.1436C42.7908 56.4688 43.3154 55.9438 43.3154 55.2969C43.3154 54.6496 42.7908 54.125 42.1436 54.125Z" fill="#2595FF"/>
<path d="M39.1025 27.7969H43.6283C44.2753 27.7969 44.8002 27.2723 44.8002 26.625C44.8002 25.978 44.2753 25.4531 43.6283 25.4531H39.1025C38.4553 25.4531 37.9307 25.978 37.9307 26.625C37.9307 27.2723 38.4553 27.7969 39.1025 27.7969Z" fill="#2595FF"/>
<path d="M34.4092 25.4531C33.764 25.4531 33.2373 25.9796 33.2373 26.625C33.2373 27.2704 33.7637 27.7969 34.4092 27.7969C35.0546 27.7969 35.5811 27.2704 35.5811 26.625C35.5811 25.9796 35.0546 25.4531 34.4092 25.4531Z" fill="#2595FF"/>
<path d="M55.575 44.3078C55.3315 44.0057 54.9543 43.8442 54.5673 43.8754C53.1965 43.9877 52.0792 43.8696 51.1237 43.6096C51.1262 43.5793 51.1283 43.5488 51.1283 43.518V38.6562H52.3002C52.9475 38.6562 53.4721 38.1317 53.4721 37.4844V30.7656C53.4721 30.1183 52.9475 29.5938 52.3002 29.5938H51.1283V24.5156C51.1283 22.5771 49.5512 21 47.6127 21H30.4252C28.4867 21 26.9096 22.5771 26.9096 24.5156V29.5938H25.7377C25.0907 29.5938 24.5658 30.1183 24.5658 30.7656V37.4844C24.5658 38.1313 25.0907 38.6562 25.7377 38.6562H26.9096V43.518C26.9096 43.5488 26.912 43.579 26.9141 43.6096C25.9589 43.8693 24.8417 43.9874 23.4705 43.8754C23.0839 43.8442 22.7067 44.0057 22.4628 44.3075C22.2193 44.6096 22.1409 45.0125 22.2538 45.3839C22.2907 45.5059 22.4506 45.9561 22.9475 46.6134C23.7516 47.6776 25.1365 48.4808 26.9096 48.9282V57.4844C26.9096 59.4229 28.4867 61 30.4252 61H47.6127C49.5512 61 51.1283 59.4229 51.1283 57.4844V48.9282C52.9017 48.4808 54.2863 47.6779 55.0907 46.6137C55.5875 45.9564 55.7471 45.5062 55.7844 45.3839C55.897 45.0125 55.8189 44.6096 55.575 44.3078ZM51.1283 31.9375V36.3125H42.7689V31.9375H51.1283ZM48.7846 50.1031H29.2533V49.288C29.5606 49.3078 29.8698 49.3182 30.1795 49.3182C31.6904 49.3182 33.2117 49.0853 34.5542 48.6349C36.5433 47.9678 38.061 46.8737 39.0189 45.4672C39.9772 46.8737 41.4945 47.9678 43.4837 48.6349C44.8264 49.0853 46.3474 49.3182 47.8583 49.3182C48.1681 49.3182 48.4772 49.3078 48.7846 49.288V50.1031ZM39.0189 39.9529C34.9799 38.4384 32.8583 39.9938 30.8042 41.5008C30.3049 41.8673 29.8005 42.2369 29.2533 42.5735V38.6559H36.4408C37.0881 38.6559 37.6127 38.1313 37.6127 37.4841V35.2966H40.4252V37.4841C40.4252 38.1313 40.9498 38.6559 41.5971 38.6559H48.7846V42.5735C48.2374 42.2369 47.7332 41.867 47.2337 41.5008C45.1798 39.9938 43.0582 38.4384 39.0189 39.9529ZM29.2533 24.5156C29.2533 23.8696 29.7791 23.3438 30.4252 23.3438H47.6127C48.259 23.3438 48.7846 23.8696 48.7846 24.5156V29.5938H41.5971C40.9501 29.5938 40.4252 30.1183 40.4252 30.7656V32.9531H37.6127V30.7656C37.6127 30.1183 37.0881 29.5938 36.4408 29.5938H29.2533V24.5156ZM26.9096 36.3125V31.9375H35.2689V36.3125H26.9096ZM26.0923 46.1602C28.9173 45.7916 30.6953 44.4875 32.1906 43.3904C33.9936 42.0678 35.2351 41.1566 37.8321 42.0178C37.6032 44.5971 35.5485 45.8294 33.809 46.4129C32.169 46.9631 30.1981 47.1191 28.4016 46.8411C27.5193 46.7043 26.728 46.4675 26.0923 46.1602ZM47.6127 58.6562H30.4252C29.7791 58.6562 29.2533 58.1304 29.2533 57.4844V52.4468H48.7846V57.4844C48.7846 58.1304 48.259 58.6562 47.6127 58.6562ZM49.6363 46.8411C47.84 47.1191 45.8692 46.9631 44.2289 46.4129C42.4894 45.8294 40.4349 44.5971 40.2061 42.0178C42.8028 41.1566 44.0446 42.0678 45.8475 43.3904C47.3429 44.4875 49.1206 45.7916 51.9456 46.1602C51.3102 46.4675 50.5186 46.7043 49.6363 46.8411Z" fill="#2595FF"/>
<mask id="path-6-inside-1_778_12121" fill="white">
<rect x="24" y="29" width="14" height="10" rx="1"/>
</mask>
<rect x="24" y="29" width="14" height="10" rx="1" stroke="#40FFC6" stroke-width="6" mask="url(#path-6-inside-1_778_12121)"/>
<mask id="path-7-inside-2_778_12121" fill="white">
<rect x="40" y="29" width="14" height="10" rx="1"/>
</mask>
<rect x="40" y="29" width="14" height="10" rx="1" stroke="#40FFC6" stroke-width="6" mask="url(#path-7-inside-2_778_12121)"/>
<line x1="37" y1="34.5" x2="41" y2="34.5" stroke="#40FFC6" stroke-width="3"/>
</svg>
