<svg width="80" height="80" viewBox="0 0 80 80" fill="none" xmlns="http://www.w3.org/2000/svg">
<path d="M58.8281 20H21.1719C20.5247 20 20 20.5247 20 21.1719V58.8281C20 59.4753 20.5247 60 21.1719 60H58.8281C59.4753 60 60 59.4753 60 58.8281V21.1719C60 20.5247 59.4753 20 58.8281 20ZM57.6562 22.3438V29.4531H22.3438V22.3438H57.6562ZM22.3438 57.6562V31.7969H57.6562V57.6562H22.3438Z" fill="#3A98FF"/>
<path d="M54.0625 27.1094C54.7097 27.1094 55.2344 26.5847 55.2344 25.9375C55.2344 25.2903 54.7097 24.7656 54.0625 24.7656C53.4153 24.7656 52.8906 25.2903 52.8906 25.9375C52.8906 26.5847 53.4153 27.1094 54.0625 27.1094Z" fill="#3A98FF"/>
<path d="M49.375 27.1094C50.0222 27.1094 50.5469 26.5847 50.5469 25.9375C50.5469 25.2903 50.0222 24.7656 49.375 24.7656C48.7278 24.7656 48.2031 25.2903 48.2031 25.9375C48.2031 26.5847 48.7278 27.1094 49.375 27.1094Z" fill="#3A98FF"/>
<path d="M44.6875 27.1094C45.3347 27.1094 45.8594 26.5847 45.8594 25.9375C45.8594 25.2903 45.3347 24.7656 44.6875 24.7656C44.0403 24.7656 43.5156 25.2903 43.5156 25.9375C43.5156 26.5847 44.0403 27.1094 44.6875 27.1094Z" fill="#3A98FF"/>
<path d="M40.9936 34.6916C40.5356 33.9591 39.4651 33.9573 39.0061 34.6919L27.2913 53.4419C26.8044 54.2208 27.3654 55.2347 28.285 55.2347H51.7225C52.6414 55.2347 53.2037 54.2215 52.7162 53.4416L40.9936 34.6916ZM30.399 52.891L40.0002 37.524L49.6078 52.891H30.399Z" fill="#48FAC9"/>
<path d="M38.8281 42.3438V45.8594C38.8281 46.5066 39.3528 47.0312 40 47.0312C40.6472 47.0312 41.1719 46.5066 41.1719 45.8594V42.3438C41.1719 41.6966 40.6472 41.1719 40 41.1719C39.3528 41.1719 38.8281 41.6966 38.8281 42.3438Z" fill="#48FAC9"/>
<path d="M40 50.5469C40.6472 50.5469 41.1719 50.0222 41.1719 49.375C41.1719 48.7278 40.6472 48.2031 40 48.2031C39.3528 48.2031 38.8281 48.7278 38.8281 49.375C38.8281 50.0222 39.3528 50.5469 40 50.5469Z" fill="#48FAC9"/>
</svg>
