<svg width="80" height="80" viewBox="0 0 80 80" fill="none" xmlns="http://www.w3.org/2000/svg">
<path d="M40.0004 42.427C43.415 42.427 46.1931 39.649 46.1931 36.2343C46.1931 35.3663 46.0099 34.5094 45.6603 33.7219C46.0018 32.9545 46.1931 32.1061 46.1931 31.2134C46.1931 30.3454 46.0099 29.4885 45.6603 28.701C46.0018 27.9336 46.1931 27.0852 46.1931 26.1926C46.1931 22.778 43.415 20 40.0004 20C36.5857 20 33.8076 22.778 33.8076 26.1927C33.8076 27.0854 33.9989 27.9338 34.3404 28.7012C33.9908 29.4887 33.8076 30.3456 33.8076 31.2136C33.8076 32.1063 33.9989 32.9546 34.3404 33.722C33.9908 34.5095 33.8076 35.3664 33.8076 36.2345C33.8076 39.6491 36.5857 42.427 40.0004 42.427ZM40.0004 22.3438C42.1227 22.3438 43.8493 24.0704 43.8493 26.1927C43.8493 28.3151 42.1227 30.0416 40.0004 30.0416C37.878 30.0416 36.1514 28.315 36.1514 26.1927C36.1514 24.0703 37.878 22.3438 40.0004 22.3438ZM36.1552 31.0428C36.1552 31.0424 36.1552 31.042 36.1552 31.0416C37.2124 31.8817 38.5482 32.3854 40.0004 32.3854C41.4525 32.3854 42.7883 31.8817 43.8454 31.0416C43.8454 31.042 43.8455 31.0423 43.8455 31.0427C43.848 31.0995 43.8493 31.1565 43.8493 31.2135C43.8493 33.3359 42.1226 35.0625 40.0003 35.0625C37.8779 35.0625 36.1513 33.3359 36.1513 31.2135C36.1514 31.1566 36.1527 31.0995 36.1552 31.0428ZM36.1552 36.0636C36.1552 36.0632 36.1552 36.0628 36.1552 36.0624C37.2124 36.9025 38.5482 37.4062 40.0004 37.4062C41.4525 37.4062 42.7883 36.9025 43.8454 36.0624C43.8454 36.0628 43.8455 36.0631 43.8455 36.0635C43.848 36.1203 43.8493 36.1773 43.8493 36.2343C43.8493 38.3566 42.1226 40.0833 40.0003 40.0833C37.8779 40.0833 36.1513 38.3566 36.1513 36.2343C36.1514 36.1773 36.1527 36.1204 36.1552 36.0636Z" fill="white"/>
<path d="M59.9108 44.5727C59.8503 44.4264 59.7622 44.2972 59.6542 44.1898C58.4273 42.9641 56.7967 42.2891 55.0625 42.2891C53.3274 42.2891 51.6959 42.9648 50.4688 44.1919L46.1802 48.4805C46.026 46.5962 44.4488 45.1045 42.5104 45.1045H33.724C32.0234 45.1045 30.481 45.7938 29.3607 46.9073C28.7545 45.8897 27.612 45.1045 26.1927 45.1045H23.6823C21.6662 45.1045 20 46.7338 20 48.7868V56.318C20 58.3302 21.6253 60.0003 23.6823 60.0003H45.0208C45.3316 60.0003 45.6296 59.8769 45.8494 59.657L59.6567 45.8498C59.9919 45.5146 60.0922 45.0106 59.9108 44.5727ZM27.5313 57.6566H23.6823C22.9433 57.6566 22.3438 57.0584 22.3438 56.318V48.7868C22.3438 48.0493 22.9405 47.4482 23.6823 47.4482H26.1927C26.9317 47.4482 27.5312 48.0465 27.5312 48.7868V57.6566H27.5313ZM44.5354 57.6566H29.875V51.2972C29.875 49.1748 31.6016 47.4482 33.724 47.4482H42.5104C43.2495 47.4482 43.8489 48.0465 43.8489 48.7868C43.8489 49.5248 43.2484 50.1253 42.5104 50.1253H36.2344C35.5872 50.1253 35.0625 50.65 35.0625 51.2972C35.0625 51.9444 35.5872 52.4691 36.2344 52.4691H45.0208C45.3316 52.4691 45.6296 52.3456 45.8494 52.1258L52.126 45.8491C52.9105 45.0648 53.9533 44.6328 55.0624 44.6328C55.7695 44.6328 56.4496 44.8084 57.0531 45.1389L44.5354 57.6566Z" fill="white"/>
</svg>
