<svg width="80" height="80" viewBox="0 0 80 80" fill="none" xmlns="http://www.w3.org/2000/svg">
<path d="M53.4614 39.6452C57.2252 38.6839 60 35.2733 60 31.2129C60 26.3984 56.1034 22.5098 51.2969 22.5098H28.7031C23.9042 22.5098 20 26.414 20 31.2129C20 36.0274 23.8966 39.916 28.7031 39.916H43.4552V52.5514C43.4552 53.0254 43.7406 53.4527 44.1786 53.6341C44.5857 53.8027 45.0973 53.7384 45.4557 53.38L50.0978 48.7379L53.423 56.7655C53.6706 57.3634 54.3562 57.6473 54.9541 57.3997C55.552 57.152 55.836 56.4665 55.5884 55.8685L52.2632 47.8409H58.8281C59.3021 47.8409 59.7294 47.5554 59.9108 47.1175C60.0921 46.6796 59.9919 46.1755 59.6567 45.8404L53.4614 39.6452ZM28.7031 37.5723C25.1851 37.5723 22.3438 34.7251 22.3438 31.2129C22.3438 27.7063 25.1966 24.8535 28.7031 24.8535H51.2969C54.8149 24.8535 57.6562 27.7007 57.6562 31.2129C57.6562 34.7009 54.857 37.5221 51.3862 37.57L45.4557 31.6395C45.1206 31.3042 44.6164 31.2041 44.1786 31.3854C43.7407 31.5668 43.4552 31.9941 43.4552 32.468V37.5722H28.7031V37.5723ZM50.5094 45.4973C50.1985 45.4973 49.9005 45.6209 49.6808 45.8406L45.799 49.7223V35.2973L55.9991 45.4973H50.5094Z" fill="white"/>
</svg>
