<svg width="80" height="80" viewBox="0 0 80 80" fill="none" xmlns="http://www.w3.org/2000/svg">
<path d="M40 20C28.9466 20 20 28.9451 20 40C20 51.0534 28.9451 60 40 60C51.0534 60 60 51.0549 60 40C60 28.9466 51.0549 20 40 20ZM54.9549 49.375H51.4036C52.0374 47.5064 52.4809 45.4807 52.7095 43.3726C53.7915 43.0542 54.658 42.2288 55.0329 41.1719H57.6165C57.4189 44.1709 56.4695 46.9676 54.9549 49.375ZM22.3836 41.1719H24.9672C25.342 42.2285 26.2082 43.0539 27.29 43.3724C27.5187 45.481 27.9626 47.5063 28.5964 49.375H25.0451C23.5305 46.9676 22.5811 44.1709 22.3836 41.1719ZM25.0451 30.625H28.5965C27.9627 32.4936 27.5191 34.5192 27.2905 36.6275C26.2084 36.9459 25.342 37.7713 24.9672 38.8281H22.3836C22.5811 35.8291 23.5305 33.0324 25.0451 30.625ZM51.7188 41.1719C51.0726 41.1719 50.5469 40.6462 50.5469 40C50.5469 39.3538 51.0726 38.8281 51.7188 38.8281C52.3649 38.8281 52.8906 39.3538 52.8906 40C52.8906 40.6462 52.3649 41.1719 51.7188 41.1719ZM48.4047 38.8281H43.3141C42.9604 37.8309 42.1691 37.0396 41.1719 36.6859V32.7672C42.1691 32.4135 42.9604 31.6222 43.3141 30.625H48.9166C49.6259 32.494 50.1194 34.5705 50.3656 36.7555C49.4541 37.1371 48.7367 37.8921 48.4047 38.8281ZM40 51.7188C39.3538 51.7188 38.8281 51.193 38.8281 50.5469C38.8281 49.9007 39.3538 49.375 40 49.375C40.6462 49.375 41.1719 49.9007 41.1719 50.5469C41.1719 51.193 40.6462 51.7188 40 51.7188ZM40 41.1719C39.3538 41.1719 38.8281 40.6462 38.8281 40C38.8281 39.3538 39.3538 38.8281 40 38.8281C40.6462 38.8281 41.1719 39.3538 41.1719 40C41.1719 40.6462 40.6462 41.1719 40 41.1719ZM40 28.2812C40.6462 28.2812 41.1719 28.807 41.1719 29.4531C41.1719 30.0993 40.6462 30.625 40 30.625C39.3538 30.625 38.8281 30.0993 38.8281 29.4531C38.8281 28.807 39.3538 28.2812 40 28.2812ZM43.3141 28.2812C42.9604 27.2841 42.1691 26.4927 41.1719 26.1391V22.4565C44.1606 23.0311 46.4291 25.6199 47.8549 28.2812H43.3141ZM38.8281 22.4567V26.1391C37.8309 26.4927 37.0396 27.2841 36.6859 28.2812H32.1451C33.5815 25.5999 35.8531 23.0291 38.8281 22.4567ZM36.6859 30.625C37.0396 31.6222 37.8309 32.4135 38.8281 32.7672V36.6859C37.8309 37.0396 37.0396 37.8309 36.6859 38.8281H31.5953C31.2633 37.8919 30.5456 37.1368 29.6337 36.7553C29.8802 34.5702 30.3749 32.4938 31.0841 30.625H36.6859ZM28.2812 38.8281C28.9274 38.8281 29.4531 39.3538 29.4531 40C29.4531 40.6462 28.9274 41.1719 28.2812 41.1719C27.6351 41.1719 27.1094 40.6462 27.1094 40C27.1094 39.3538 27.6351 38.8281 28.2812 38.8281ZM29.6343 43.2445C30.5459 42.863 31.2634 42.108 31.5953 41.1719H36.6859C37.0396 42.1691 37.8309 42.9604 38.8281 43.3141V47.2328C37.8309 47.5865 37.0396 48.3778 36.6859 49.375H31.0835C30.3742 47.506 29.8806 45.4295 29.6343 43.2445ZM36.6859 51.7188C37.0396 52.7159 37.8309 53.5073 38.8281 53.8609V57.5435C35.8564 56.9721 33.5845 54.4054 32.145 51.7188H36.6859ZM41.1719 57.5433V53.8609C42.1691 53.5073 42.9604 52.7159 43.3141 51.7188H47.8548C46.4141 54.408 44.1417 56.9716 41.1719 57.5433ZM43.3141 49.375C42.9604 48.3778 42.1691 47.5865 41.1719 47.2328V43.3141C42.1691 42.9604 42.9604 42.1691 43.3141 41.1719H48.4047C48.7367 42.1081 49.4544 42.8632 50.3662 43.2447C50.1198 45.4298 49.6249 47.5062 48.9157 49.375H43.3141ZM55.0328 38.8281C54.658 37.7714 53.7917 36.9461 52.7099 36.6276C52.4813 34.519 52.0374 32.4937 51.4036 30.625H54.9549C56.4695 33.0324 57.4189 35.8291 57.6164 38.8281H55.0328ZM53.1943 28.2812H50.4706C49.8066 26.8461 48.9913 25.4804 47.989 24.2573C49.9678 25.2655 51.7318 26.6364 53.1943 28.2812ZM32.0102 24.2577C31.0073 25.4816 30.1917 26.8508 29.53 28.2812H26.8057C28.268 26.6366 30.0317 25.2659 32.0102 24.2577ZM26.8057 51.7188H29.5294C30.1889 53.1445 31.003 54.5128 32.0108 55.7427C30.0321 54.7345 28.2682 53.3635 26.8057 51.7188ZM47.9901 55.7422C48.9979 54.5123 49.813 53.1388 50.4699 51.7188H53.1943C51.732 53.3633 49.9684 54.734 47.9901 55.7422Z" fill="white"/>
</svg>
