<svg width="80" height="80" viewBox="0 0 80 80" fill="none" xmlns="http://www.w3.org/2000/svg">
<path d="M25.9375 27.1094H34.1406C34.7878 27.1094 35.3125 26.5847 35.3125 25.9375C35.3125 25.2903 34.7878 24.7656 34.1406 24.7656H25.9375C25.2903 24.7656 24.7656 25.2903 24.7656 25.9375C24.7656 26.5847 25.2903 27.1094 25.9375 27.1094Z" fill="white"/>
<path d="M34.1406 34.1406H25.9375C25.2903 34.1406 24.7656 34.6653 24.7656 35.3125C24.7656 35.9597 25.2903 36.4844 25.9375 36.4844H34.1406C34.7878 36.4844 35.3125 35.9597 35.3125 35.3125C35.3125 34.6653 34.7878 34.1406 34.1406 34.1406Z" fill="white"/>
<path d="M38.8281 27.1094C39.4753 27.1094 40 26.5847 40 25.9375C40 25.2903 39.4753 24.7656 38.8281 24.7656C38.1809 24.7656 37.6562 25.2903 37.6562 25.9375C37.6562 26.5847 38.1809 27.1094 38.8281 27.1094Z" fill="white"/>
<path d="M43.5156 27.1094C44.1628 27.1094 44.6875 26.5847 44.6875 25.9375C44.6875 25.2903 44.1628 24.7656 43.5156 24.7656C42.8684 24.7656 42.3438 25.2903 42.3438 25.9375C42.3438 26.5847 42.8684 27.1094 43.5156 27.1094Z" fill="white"/>
<path d="M38.8281 55.2344C39.4753 55.2344 40 54.7097 40 54.0625C40 53.4153 39.4753 52.8906 38.8281 52.8906C38.1809 52.8906 37.6562 53.4153 37.6562 54.0625C37.6562 54.7097 38.1809 55.2344 38.8281 55.2344Z" fill="white"/>
<path d="M43.5156 55.2344C44.1628 55.2344 44.6875 54.7097 44.6875 54.0625C44.6875 53.4153 44.1628 52.8906 43.5156 52.8906C42.8684 52.8906 42.3438 53.4153 42.3438 54.0625C42.3438 54.7097 42.8684 55.2344 43.5156 55.2344Z" fill="white"/>
<path d="M34.1406 43.5156H25.9375C25.2903 43.5156 24.7656 44.0403 24.7656 44.6875C24.7656 45.3347 25.2903 45.8594 25.9375 45.8594H34.1406C34.7878 45.8594 35.3125 45.3347 35.3125 44.6875C35.3125 44.0403 34.7878 43.5156 34.1406 43.5156Z" fill="white"/>
<path d="M34.1406 52.8906H25.9375C25.2903 52.8906 24.7656 53.4153 24.7656 54.0625C24.7656 54.7097 25.2903 55.2344 25.9375 55.2344H34.1406C34.7878 55.2344 35.3125 54.7097 35.3125 54.0625C35.3125 53.4153 34.7878 52.8906 34.1406 52.8906Z" fill="white"/>
<path d="M59.4138 42.2286L56.8742 40.7624C56.9231 40.2545 56.9245 39.7442 56.8782 39.2349L59.4138 37.7709C59.9744 37.4473 60.1664 36.7306 59.8427 36.1701L57.499 32.1107C57.1753 31.5502 56.4587 31.3582 55.8982 31.6818L53.3386 33.1595C52.927 32.8752 52.4917 32.6293 52.0378 32.4238V29.4531C52.0378 28.8059 51.5131 28.2812 50.8659 28.2812H49.6092V21.1719C49.6092 20.5247 49.0845 20 48.4373 20H21.1719C20.5247 20 20 20.5247 20 21.1719V58.8279C20 59.4751 20.5247 59.9998 21.1719 59.9998H48.4373C49.0845 59.9998 49.6092 59.4751 49.6092 58.8279V51.7186H50.8659C51.5131 51.7186 52.0378 51.1939 52.0378 50.5467V47.5189C52.4775 47.3211 52.8975 47.0859 53.295 46.8149L55.8982 48.3179C56.4586 48.6416 57.1754 48.4494 57.499 47.889L59.8427 43.8295C60.1662 43.2692 59.9743 42.5521 59.4138 42.2286ZM37.2017 43.8294L39.5454 47.8888C39.6168 48.0123 39.7079 48.1167 39.8114 48.2029H22.3437V41.1717H39.4613L37.6306 42.2286C37.0704 42.552 36.8781 43.269 37.2017 43.8294ZM45.0066 48.2029H41.3452L43.8674 46.7467C44.2185 46.9932 44.5972 47.2189 45.0066 47.4182V48.2029ZM39.5454 32.1107L37.2017 36.1701C36.878 36.7306 37.0701 37.4473 37.6306 37.7709L39.4613 38.8279H22.3437V31.7966H39.8114C39.7078 31.8829 39.6167 31.9873 39.5454 32.1107ZM47.2655 22.3437V28.2811H46.1784C45.5313 28.2811 45.0066 28.8058 45.0066 29.453H22.3437V22.3437H47.2655ZM45.0066 31.7967V32.5234C44.5916 32.7245 44.1958 32.9592 43.8212 33.2262L41.3453 31.7967H45.0066ZM47.2655 57.656H22.3437V50.5466H45.0066C45.0066 51.1938 45.5313 51.7185 46.1784 51.7185H47.2655V57.656ZM56.0553 45.7022L53.7941 44.3967C53.3668 44.1501 52.831 44.1974 52.4536 44.515C51.8767 45.0006 51.2186 45.3678 50.4976 45.6066C50.018 45.7654 49.6941 46.2138 49.6941 46.7191V49.3748H47.3504V46.6457C47.3504 46.1547 47.0443 45.7158 46.5837 45.5461C45.9066 45.2966 45.2782 44.9256 44.7326 44.4524C44.3551 44.1249 43.8114 44.0728 43.3788 44.3227L40.9893 45.7023L39.8175 43.6725L42.2251 42.2825C42.6553 42.0342 42.8821 41.5417 42.7913 41.0535C42.66 40.3475 42.6567 39.6335 42.7817 38.9311C42.8681 38.4454 42.641 37.9576 42.2139 37.711L39.8174 36.3274L40.9893 34.2977L43.3384 35.6539C43.7742 35.9056 44.3223 35.8508 44.6998 35.5176C45.2521 35.0301 45.8854 34.6535 46.5819 34.3982C47.0434 34.229 47.3504 33.7896 47.3504 33.298V30.6251H49.6941V33.2218C49.6941 33.7265 50.0173 34.1745 50.4962 34.3338C51.2188 34.5741 51.9007 34.9572 52.4873 35.4573C52.8647 35.779 53.4038 35.8284 53.8335 35.5804L56.0553 34.2977L57.2271 36.3274L55.0218 37.6007C54.5885 37.8508 54.3618 38.3484 54.4574 38.8395C54.6071 39.608 54.6047 40.3845 54.4505 41.1473C54.3507 41.6407 54.5772 42.1428 55.0132 42.3944L57.2271 43.6726L56.0553 45.7022Z" fill="white"/>
<path d="M46.7639 36.9546C45.0852 37.9239 44.5079 40.0783 45.4771 41.757C46.4417 43.428 48.5934 44.0174 50.2795 43.0438C51.9622 42.0724 52.5381 39.9244 51.5664 38.2414C50.5971 36.5627 48.4427 35.9855 46.7639 36.9546ZM49.6537 40.3026C49.5727 40.6049 49.3788 40.8576 49.1077 41.0142C48.548 41.3372 47.83 41.1448 47.5069 40.5852C47.1838 40.0256 47.3763 39.3074 47.9358 38.9843C48.4954 38.6613 49.2135 38.8537 49.5367 39.4133C49.6931 39.6844 49.7347 40.0003 49.6537 40.3026Z" fill="white"/>
</svg>
