<svg width="80" height="80" viewBox="0 0 80 80" fill="none" xmlns="http://www.w3.org/2000/svg">
<path d="M58.8281 20H21.1719C20.5247 20 20 20.5247 20 21.1719V58.8281C20 59.4753 20.5247 60 21.1719 60H58.8281C59.4753 60 60 59.4753 60 58.8281V21.1719C60 20.5247 59.4753 20 58.8281 20ZM57.6562 22.3438V29.4531H22.3438V22.3438H57.6562ZM22.3438 57.6562V31.7969H57.6562V57.6562H22.3438Z" fill="white"/>
<path d="M54.0625 27.1094C54.7097 27.1094 55.2344 26.5847 55.2344 25.9375C55.2344 25.2903 54.7097 24.7656 54.0625 24.7656C53.4153 24.7656 52.8906 25.2903 52.8906 25.9375C52.8906 26.5847 53.4153 27.1094 54.0625 27.1094Z" fill="white"/>
<path d="M49.375 27.1094C50.0222 27.1094 50.5469 26.5847 50.5469 25.9375C50.5469 25.2903 50.0222 24.7656 49.375 24.7656C48.7278 24.7656 48.2031 25.2903 48.2031 25.9375C48.2031 26.5847 48.7278 27.1094 49.375 27.1094Z" fill="white"/>
<path d="M44.6875 27.1094C45.3347 27.1094 45.8594 26.5847 45.8594 25.9375C45.8594 25.2903 45.3347 24.7656 44.6875 24.7656C44.0403 24.7656 43.5156 25.2903 43.5156 25.9375C43.5156 26.5847 44.0403 27.1094 44.6875 27.1094Z" fill="white"/>
<path d="M36.1719 39C35.5247 39 35 39.5247 35 40.1719V49.0776C35 49.7248 35.5247 50.2495 36.1719 50.2495C36.8191 50.2495 37.3438 49.7248 37.3438 49.0776V40.1719C37.3438 39.5247 36.8191 39 36.1719 39Z" fill="white"/>
<path d="M43.3532 39H40.8735C40.2263 39 39.7017 39.5247 39.7017 40.1719V49.0776C39.7017 49.7248 40.2263 50.2495 40.8735 50.2495C41.5207 50.2495 42.0454 49.7248 42.0454 49.0776V46.3748C42.5295 46.3723 43.05 46.3701 43.3532 46.3701C45.4123 46.3701 47.0876 44.717 47.0876 42.685C47.0876 40.6531 45.4123 39 43.3532 39ZM43.3532 44.0264C43.0487 44.0264 42.5295 44.0286 42.0454 44.031V41.3438H43.3532C44.107 41.3438 44.7438 41.958 44.7438 42.6851C44.7438 43.4122 44.107 44.0264 43.3532 44.0264Z" fill="white"/>
</svg>
