<svg width="80" height="80" viewBox="0 0 80 80" fill="none" xmlns="http://www.w3.org/2000/svg">
<path d="M57.2348 20H51.0464C49.5217 20 48.2812 21.2405 48.2812 22.7652V31.7889H45.8594V22.7652C45.8594 21.2405 44.6189 20 43.0941 20H36.9059C35.3811 20 34.1406 21.2405 34.1406 22.7652V31.7889H31.7188V22.7652C31.7188 21.2405 30.4783 20 28.9535 20H22.7652C21.2405 20 20 21.2405 20 22.7652V43.1563C20 44.6811 21.2405 45.9216 22.7652 45.9216H24.6875V53.1703C23.3235 53.6541 22.3438 54.9566 22.3438 56.4844C22.3438 58.4229 23.9209 60 25.8594 60C27.3871 60 28.6897 59.0202 29.1734 57.6562H36.686C37.1698 59.0202 38.4723 60 40.0001 60C41.5278 60 42.8304 59.0202 43.3141 57.6562H50.8266C51.3104 59.0202 52.613 60 54.1407 60C56.0792 60 57.6563 58.4229 57.6563 56.4844C57.6563 54.9566 56.6766 53.6541 55.3126 53.1703V45.9216H57.2348C58.7596 45.9216 60.0001 44.6811 60.0001 43.1563V22.7652C60 21.2405 58.7595 20 57.2348 20V20ZM36.4844 22.7652C36.4844 22.5328 36.6734 22.3438 36.9059 22.3438H43.0941C43.3266 22.3438 43.5156 22.5328 43.5156 22.7652V43.1563C43.5156 43.3888 43.3266 43.5778 43.0941 43.5778H36.9059C36.6734 43.5778 36.4844 43.3888 36.4844 43.1563V22.7652ZM22.3438 43.1563V22.7652C22.3438 22.5328 22.5328 22.3438 22.7652 22.3438H28.9535C29.1859 22.3438 29.375 22.5328 29.375 22.7652V43.1563C29.375 43.3888 29.1859 43.5778 28.9535 43.5778H22.7652C22.5328 43.5778 22.3438 43.3888 22.3438 43.1563ZM28.9535 45.9216C30.4783 45.9216 31.7188 44.6811 31.7188 43.1563V34.1327H34.1406V43.1563C34.1406 44.6811 35.3811 45.9216 36.9059 45.9216H38.8281V53.1703C37.8309 53.524 37.0396 54.3153 36.6859 55.3125H29.1734C28.8198 54.3153 28.0284 53.524 27.0312 53.1703V45.9216H28.9535ZM25.8594 57.6562C25.2132 57.6562 24.6875 57.1305 24.6875 56.4844C24.6875 55.8382 25.2132 55.3125 25.8594 55.3125C26.5055 55.3125 27.0312 55.8382 27.0312 56.4844C27.0312 57.1305 26.5055 57.6562 25.8594 57.6562ZM40 57.6562C39.3538 57.6562 38.8281 57.1305 38.8281 56.4844C38.8281 55.8382 39.3538 55.3125 40 55.3125C40.6462 55.3125 41.1719 55.8382 41.1719 56.4844C41.1719 57.1305 40.6462 57.6562 40 57.6562ZM54.1406 57.6562C53.4945 57.6562 52.9688 57.1305 52.9688 56.4844C52.9688 55.8382 53.4945 55.3125 54.1406 55.3125C54.7868 55.3125 55.3125 55.8382 55.3125 56.4844C55.3125 57.1305 54.7868 57.6562 54.1406 57.6562ZM52.9688 53.1703C51.9716 53.524 51.1802 54.3153 50.8266 55.3125H43.3141C42.9604 54.3153 42.1691 53.524 41.1719 53.1703V45.9216H43.0941C44.6189 45.9216 45.8594 44.6811 45.8594 43.1563V34.1327H48.2812V43.1563C48.2812 44.6811 49.5217 45.9216 51.0465 45.9216H52.9688V53.1703ZM57.6562 43.1563C57.6562 43.3888 57.4672 43.5778 57.2348 43.5778H51.0464C50.814 43.5778 50.6249 43.3888 50.6249 43.1563V22.7652C50.6249 22.5328 50.814 22.3438 51.0464 22.3438H57.2348C57.4672 22.3438 57.6562 22.5328 57.6562 22.7652V43.1563Z" fill="white"/>
<path d="M40 29.4452C40.6472 29.4452 41.1719 28.9205 41.1719 28.2733V25.8594C41.1719 25.2122 40.6472 24.6875 40 24.6875C39.3528 24.6875 38.8281 25.2122 38.8281 25.8594V28.2733C38.8281 28.9205 39.3528 29.4452 40 29.4452Z" fill="white"/>
<path d="M40 36.5467C40.6472 36.5467 41.1719 36.022 41.1719 35.3748V32.9609C41.1719 32.3137 40.6472 31.7891 40 31.7891C39.3528 31.7891 38.8281 32.3137 38.8281 32.9609V35.3748C38.8281 36.022 39.3528 36.5467 40 36.5467Z" fill="white"/>
<path d="M40 41.2344C40.6472 41.2344 41.1719 40.7097 41.1719 40.0625C41.1719 39.4153 40.6472 38.8906 40 38.8906C39.3528 38.8906 38.8281 39.4153 38.8281 40.0625C38.8281 40.7097 39.3528 41.2344 40 41.2344Z" fill="white"/>
<path d="M54.1406 24.6875C53.4934 24.6875 52.9688 25.2122 52.9688 25.8594V28.2733C52.9688 28.9205 53.4934 29.4452 54.1406 29.4452C54.7878 29.4452 55.3125 28.9205 55.3125 28.2733V25.8594C55.3125 25.2122 54.7878 24.6875 54.1406 24.6875Z" fill="white"/>
<path d="M54.1406 31.7891C53.4934 31.7891 52.9688 32.3137 52.9688 32.9609V35.3748C52.9688 36.022 53.4934 36.5467 54.1406 36.5467C54.7878 36.5467 55.3125 36.022 55.3125 35.3748V32.9609C55.3125 32.3137 54.7878 31.7891 54.1406 31.7891Z" fill="white"/>
<path d="M54.1406 41.2344C54.7878 41.2344 55.3125 40.7097 55.3125 40.0625C55.3125 39.4153 54.7878 38.8906 54.1406 38.8906C53.4934 38.8906 52.9688 39.4153 52.9688 40.0625C52.9688 40.7097 53.4934 41.2344 54.1406 41.2344Z" fill="white"/>
<path d="M25.8594 29.4452C26.5066 29.4452 27.0312 28.9205 27.0312 28.2733V25.8594C27.0312 25.2122 26.5066 24.6875 25.8594 24.6875C25.2122 24.6875 24.6875 25.2122 24.6875 25.8594V28.2733C24.6875 28.9205 25.2122 29.4452 25.8594 29.4452Z" fill="white"/>
<path d="M25.8594 36.5467C26.5066 36.5467 27.0312 36.022 27.0312 35.3748V32.9609C27.0312 32.3137 26.5066 31.7891 25.8594 31.7891C25.2122 31.7891 24.6875 32.3137 24.6875 32.9609V35.3748C24.6875 36.022 25.2122 36.5467 25.8594 36.5467Z" fill="white"/>
<path d="M25.8594 41.2344C26.5066 41.2344 27.0312 40.7097 27.0312 40.0625C27.0312 39.4153 26.5066 38.8906 25.8594 38.8906C25.2122 38.8906 24.6875 39.4153 24.6875 40.0625C24.6875 40.7097 25.2122 41.2344 25.8594 41.2344Z" fill="white"/>
</svg>
