<svg width="80" height="80" viewBox="0 0 80 80" fill="none" xmlns="http://www.w3.org/2000/svg">
<path d="M58.8282 27.5052H57.573C57.262 27.5052 56.9641 27.6288 56.7444 27.8485L50.8115 33.7811H49.7016L48.6682 29.6481C48.5379 29.1263 48.0692 28.7604 47.5315 28.7604H44.9378V27.4219C44.9378 26.7746 44.4129 26.25 43.7659 26.25H23.6823C23.1778 26.25 22.7301 26.5729 22.5705 27.0514L20.0601 34.5825C20.0025 34.7549 19.986 34.9387 20.0119 35.1187L21.2671 43.9053C21.3111 44.213 21.4756 44.4907 21.724 44.6771L26.745 48.4427C26.9477 48.5947 27.1945 48.6771 27.4482 48.6771H31.9834L32.8952 49.5889C33.1153 49.8087 33.4131 49.9323 33.7241 49.9323H35.6073L37.7698 53.176C37.9871 53.5019 38.353 53.6978 38.7448 53.6978H41.2552C41.7597 53.6978 42.2074 53.3752 42.367 52.8964L43.3551 49.9323H44.3933C44.8371 49.9323 45.243 49.6814 45.4413 49.2844L45.7453 48.6771H49.5563L52.9789 52.0996C53.4363 52.5571 54.1782 52.5571 54.636 52.0996L57.1463 49.5889C57.5415 49.194 57.6026 48.5751 57.2928 48.1104L55.6385 45.6287C55.4511 45.3476 55.4883 44.971 55.7273 44.7321L57.1463 43.313C57.3661 43.0933 57.4897 42.7951 57.4897 42.4844V38.9954L59.8764 34.2221C59.9579 34.0591 60 33.8797 60 33.6978V28.6771C60 28.0298 59.4754 27.5052 58.8282 27.5052ZM57.6563 33.4213L55.2695 38.1946C55.188 38.3575 55.1459 38.5367 55.1459 38.7189V41.9989L54.0705 43.0743C53.0435 44.1003 52.883 45.7214 53.6884 46.9287L54.8099 48.6111L53.8074 49.6136L50.8704 46.6766C50.6507 46.4569 50.3525 46.3333 50.0415 46.3333H45.0208C44.5771 46.3333 44.1712 46.5842 43.9725 46.9812L43.6689 47.5885H42.5104C42.006 47.5885 41.5583 47.9114 41.3987 48.3899L40.4105 51.3544H39.372L37.2095 48.1104C36.9922 47.7844 36.6263 47.5885 36.2345 47.5885H34.2093L33.2975 46.6766C33.0777 46.4569 32.7796 46.3333 32.4689 46.3333H27.8385L23.5187 43.0933L22.3712 35.0613L24.527 28.5938H42.5937V29.9323C42.5937 30.5795 43.1186 31.1041 43.7656 31.1041H46.6162L47.6496 35.2374C47.7799 35.759 48.2486 36.1249 48.7863 36.1249H51.297C51.6077 36.1249 51.9059 36.0016 52.1256 35.7819L57.6563 30.2509V33.4213Z" fill="white"/>
</svg>
