<svg width="80" height="80" viewBox="0 0 80 80" fill="none" xmlns="http://www.w3.org/2000/svg">
<path d="M58.8281 48.2031C59.4753 48.2031 60 47.6784 60 47.0312V23.5938C60 22.9466 59.4753 22.4219 58.8281 22.4219H48.9844V21.1719C48.9844 20.5247 48.4597 20 47.8125 20H32.1875C31.5403 20 31.0156 20.5247 31.0156 21.1719V22.4219H21.1719C20.5247 22.4219 20 22.9466 20 23.5938V47.0312C20 47.6784 20.5247 48.2031 21.1719 48.2031H27.1094V53.0768C26.0593 53.4309 25.2277 54.2624 24.8737 55.3125H21.1719C20.5247 55.3125 20 55.8372 20 56.4844C20 57.1316 20.5247 57.6562 21.1719 57.6562H24.9002C25.3965 59.0219 26.7072 60 28.2422 60C29.7772 60 31.0879 59.0219 31.5842 57.6562H36.697C37.1934 59.0219 38.5041 60 40.0391 60C41.5741 60 42.8848 59.0219 43.3811 57.6562H48.4158C48.9121 59.0219 50.2228 60 51.7578 60C53.2928 60 54.6035 59.0219 55.0998 57.6562H58.8281C59.4753 57.6562 60 57.1316 60 56.4844C60 55.8372 59.4753 55.3125 58.8281 55.3125H55.1263C54.7723 54.2624 53.9406 53.4309 52.8906 53.0768V48.2031H58.8281ZM57.6562 24.7656V45.8594H48.9844V43.5156H54.0625C54.7097 43.5156 55.2344 42.9909 55.2344 42.3438C55.2344 41.6966 54.7097 41.1719 54.0625 41.1719H48.9844V38.8281H54.0625C54.7097 38.8281 55.2344 38.3034 55.2344 37.6562C55.2344 37.0091 54.7097 36.4844 54.0625 36.4844H48.9844V34.1406H54.0625C54.7097 34.1406 55.2344 33.6159 55.2344 32.9688C55.2344 32.3216 54.7097 31.7969 54.0625 31.7969H48.9844V29.4531H54.0625C54.7097 29.4531 55.2344 28.9284 55.2344 28.2812C55.2344 27.6341 54.7097 27.1094 54.0625 27.1094H48.9844V24.7656H57.6562ZM33.3594 22.3438H46.6406V48.125H33.3594V22.3438ZM22.3438 24.7656H31.0156V27.1094H25.9375C25.2903 27.1094 24.7656 27.6341 24.7656 28.2812C24.7656 28.9284 25.2903 29.4531 25.9375 29.4531H31.0156V31.7969H25.9375C25.2903 31.7969 24.7656 32.3216 24.7656 32.9688C24.7656 33.6159 25.2903 34.1406 25.9375 34.1406H31.0156V36.4844H25.9375C25.2903 36.4844 24.7656 37.0091 24.7656 37.6562C24.7656 38.3034 25.2903 38.8281 25.9375 38.8281H31.0156V41.1719H25.9375C25.2903 41.1719 24.7656 41.6966 24.7656 42.3438C24.7656 42.9909 25.2903 43.5156 25.9375 43.5156H31.0156V45.8594H22.3438V24.7656ZM31.0156 48.2031V49.2969C31.0156 49.9441 31.5403 50.4688 32.1875 50.4688H38.8281V53.1033C37.8148 53.4716 37.0159 54.2885 36.6705 55.3125H31.6107C31.2654 54.2885 30.4664 53.4716 29.4531 53.1033V48.2031H31.0156ZM28.2422 57.6562C27.5745 57.6562 27.0312 57.113 27.0312 56.4453C27.0312 55.7776 27.5745 55.2344 28.2422 55.2344C28.9099 55.2344 29.4531 55.7776 29.4531 56.4453C29.4531 57.113 28.9099 57.6562 28.2422 57.6562ZM40.0391 57.6562C39.3713 57.6562 38.8281 57.113 38.8281 56.4453C38.8281 55.7776 39.3713 55.2344 40.0391 55.2344C40.7068 55.2344 41.25 55.7776 41.25 56.4453C41.25 57.113 40.7068 57.6562 40.0391 57.6562ZM51.7578 57.6562C51.0901 57.6562 50.5469 57.113 50.5469 56.4453C50.5469 55.7776 51.0901 55.2344 51.7578 55.2344C52.4255 55.2344 52.9688 55.7776 52.9688 56.4453C52.9688 57.113 52.4255 57.6562 51.7578 57.6562ZM50.5469 53.1033C49.5336 53.4716 48.7346 54.2885 48.3893 55.3125H43.4076C43.0535 54.2624 42.2219 53.4309 41.1719 53.0768V50.4688H47.8125C48.4597 50.4688 48.9844 49.9441 48.9844 49.2969V48.2031H50.5469V53.1033Z" fill="white"/>
<path d="M36.875 27.1094H43.2031C43.8503 27.1094 44.375 26.5847 44.375 25.9375C44.375 25.2903 43.8503 24.7656 43.2031 24.7656H36.875C36.2278 24.7656 35.7031 25.2903 35.7031 25.9375C35.7031 26.5847 36.2278 27.1094 36.875 27.1094Z" fill="white"/>
<path d="M36.875 31.7969H43.2031C43.8503 31.7969 44.375 31.2722 44.375 30.625C44.375 29.9778 43.8503 29.4531 43.2031 29.4531H36.875C36.2278 29.4531 35.7031 29.9778 35.7031 30.625C35.7031 31.2722 36.2278 31.7969 36.875 31.7969Z" fill="white"/>
<path d="M36.875 36.4844H43.125C43.7722 36.4844 44.2969 35.9597 44.2969 35.3125C44.2969 34.6653 43.7722 34.1406 43.125 34.1406H36.875C36.2278 34.1406 35.7031 34.6653 35.7031 35.3125C35.7031 35.9597 36.2278 36.4844 36.875 36.4844Z" fill="white"/>
<path d="M36.875 41.1719H43.125C43.7722 41.1719 44.2969 40.6472 44.2969 40C44.2969 39.3528 43.7722 38.8281 43.125 38.8281H36.875C36.2278 38.8281 35.7031 39.3528 35.7031 40C35.7031 40.6472 36.2278 41.1719 36.875 41.1719Z" fill="white"/>
<path d="M40 45.8594C40.6472 45.8594 41.1719 45.3347 41.1719 44.6875C41.1719 44.0403 40.6472 43.5156 40 43.5156C39.3528 43.5156 38.8281 44.0403 38.8281 44.6875C38.8281 45.3347 39.3528 45.8594 40 45.8594Z" fill="white"/>
</svg>
