<svg width="80" height="80" viewBox="0 0 80 80" fill="none" xmlns="http://www.w3.org/2000/svg">
<path d="M43.1436 53.125H36.8936C36.2466 53.125 35.7217 53.6496 35.7217 54.2969C35.7217 54.9438 36.2466 55.4688 36.8936 55.4688H43.1436C43.7908 55.4688 44.3154 54.9438 44.3154 54.2969C44.3154 53.6496 43.7908 53.125 43.1436 53.125Z" fill="white"/>
<path d="M40.1025 26.7969H44.6283C45.2753 26.7969 45.8002 26.2723 45.8002 25.625C45.8002 24.978 45.2753 24.4531 44.6283 24.4531H40.1025C39.4553 24.4531 38.9307 24.978 38.9307 25.625C38.9307 26.2723 39.4553 26.7969 40.1025 26.7969Z" fill="white"/>
<path d="M35.4092 24.4531C34.764 24.4531 34.2373 24.9796 34.2373 25.625C34.2373 26.2704 34.7637 26.7969 35.4092 26.7969C36.0546 26.7969 36.5811 26.2704 36.5811 25.625C36.5811 24.9796 36.0546 24.4531 35.4092 24.4531Z" fill="white"/>
<path d="M56.575 43.3078C56.3315 43.0057 55.9543 42.8442 55.5673 42.8754C54.1965 42.9877 53.0792 42.8696 52.1237 42.6096C52.1262 42.5793 52.1283 42.5488 52.1283 42.518V37.6562H53.3002C53.9475 37.6562 54.4721 37.1317 54.4721 36.4844V29.7656C54.4721 29.1183 53.9475 28.5938 53.3002 28.5938H52.1283V23.5156C52.1283 21.5771 50.5512 20 48.6127 20H31.4252C29.4867 20 27.9096 21.5771 27.9096 23.5156V28.5938H26.7377C26.0907 28.5938 25.5658 29.1183 25.5658 29.7656V36.4844C25.5658 37.1313 26.0907 37.6562 26.7377 37.6562H27.9096V42.518C27.9096 42.5488 27.912 42.579 27.9141 42.6096C26.9589 42.8693 25.8417 42.9874 24.4705 42.8754C24.0839 42.8442 23.7067 43.0057 23.4628 43.3075C23.2193 43.6096 23.1409 44.0125 23.2538 44.3839C23.2907 44.5059 23.4506 44.9561 23.9475 45.6134C24.7516 46.6776 26.1365 47.4808 27.9096 47.9282V56.4844C27.9096 58.4229 29.4867 60 31.4252 60H48.6127C50.5512 60 52.1283 58.4229 52.1283 56.4844V47.9282C53.9017 47.4808 55.2863 46.6779 56.0907 45.6137C56.5875 44.9564 56.7471 44.5062 56.7844 44.3839C56.897 44.0125 56.8189 43.6096 56.575 43.3078ZM52.1283 30.9375V35.3125H43.7689V30.9375H52.1283ZM49.7846 49.1031H30.2533V48.288C30.5606 48.3078 30.8698 48.3182 31.1795 48.3182C32.6904 48.3182 34.2117 48.0853 35.5542 47.6349C37.5433 46.9678 39.061 45.8737 40.0189 44.4672C40.9772 45.8737 42.4945 46.9678 44.4837 47.6349C45.8264 48.0853 47.3474 48.3182 48.8583 48.3182C49.1681 48.3182 49.4772 48.3078 49.7846 48.288V49.1031ZM40.0189 38.9529C35.9799 37.4384 33.8583 38.9938 31.8042 40.5008C31.3049 40.8673 30.8005 41.2369 30.2533 41.5735V37.6559H37.4408C38.0881 37.6559 38.6127 37.1313 38.6127 36.4841V34.2966H41.4252V36.4841C41.4252 37.1313 41.9498 37.6559 42.5971 37.6559H49.7846V41.5735C49.2374 41.2369 48.7332 40.867 48.2337 40.5008C46.1798 38.9938 44.0582 37.4384 40.0189 38.9529ZM30.2533 23.5156C30.2533 22.8696 30.7791 22.3438 31.4252 22.3438H48.6127C49.259 22.3438 49.7846 22.8696 49.7846 23.5156V28.5938H42.5971C41.9501 28.5938 41.4252 29.1183 41.4252 29.7656V31.9531H38.6127V29.7656C38.6127 29.1183 38.0881 28.5938 37.4408 28.5938H30.2533V23.5156ZM27.9096 35.3125V30.9375H36.2689V35.3125H27.9096ZM27.0923 45.1602C29.9173 44.7916 31.6953 43.4875 33.1906 42.3904C34.9936 41.0678 36.2351 40.1566 38.8321 41.0178C38.6032 43.5971 36.5485 44.8294 34.809 45.4129C33.169 45.9631 31.1981 46.1191 29.4016 45.8411C28.5193 45.7043 27.728 45.4675 27.0923 45.1602ZM48.6127 57.6562H31.4252C30.7791 57.6562 30.2533 57.1304 30.2533 56.4844V51.4468H49.7846V56.4844C49.7846 57.1304 49.259 57.6562 48.6127 57.6562ZM50.6363 45.8411C48.84 46.1191 46.8692 45.9631 45.2289 45.4129C43.4894 44.8294 41.4349 43.5971 41.2061 41.0178C43.8028 40.1566 45.0446 41.0678 46.8475 42.3904C48.3429 43.4875 50.1206 44.7916 52.9456 45.1602C52.3102 45.4675 51.5186 45.7043 50.6363 45.8411Z" fill="white"/>
</svg>
