<svg width="80" height="80" viewBox="0 0 80 80" fill="none" xmlns="http://www.w3.org/2000/svg">
<path d="M33.6466 54.558V59.9547C27.5202 60.3899 24.457 57.6915 24.457 51.8596V45.4184C24.457 44.2579 24.1945 43.5035 23.6694 43.1553C23.1442 42.7781 22.2545 42.6331 21 42.7201V37.2799C22.2545 37.3669 23.1442 37.2364 23.6694 36.8882C24.1945 36.511 24.457 35.7421 24.457 34.5816V28.1404C24.457 22.3085 27.5202 19.6101 33.6466 20.0453V25.442C32.3922 25.2969 31.4878 25.4275 30.9335 25.8337C30.3792 26.2109 30.1021 26.9798 30.1021 28.1404V34.5816C30.1021 37.2219 29.2269 39.0208 27.4765 39.9782C29.2269 40.9647 30.1021 42.7781 30.1021 45.4184V51.8596C30.1021 53.0202 30.3792 53.8036 30.9335 54.2098C31.4878 54.587 32.3922 54.7031 33.6466 54.558Z" fill="white"/>
<path d="M46.3534 59.9547V54.558C47.6078 54.7031 48.5122 54.587 49.0665 54.2098C49.6208 53.8036 49.8979 53.0202 49.8979 51.8596V45.4184C49.8979 42.7781 50.7731 40.9647 52.5235 39.9782C50.7731 39.0208 49.8979 37.2219 49.8979 34.5816V28.1404C49.8979 26.9798 49.6208 26.2109 49.0665 25.8337C48.5122 25.4275 47.6078 25.2969 46.3534 25.442V20.0453C52.4798 19.6101 55.543 22.3085 55.543 28.1404V34.5816C55.543 35.7421 55.8055 36.511 56.3306 36.8882C56.8558 37.2364 57.7455 37.3669 59 37.2799V42.7201C57.7455 42.6331 56.8558 42.7781 56.3306 43.1553C55.8055 43.5035 55.543 44.2579 55.543 45.4184V51.8596C55.543 57.6915 52.4798 60.3899 46.3534 59.9547Z" fill="white"/>
</svg>
