<svg width="80" height="80" viewBox="0 0 80 80" fill="none" xmlns="http://www.w3.org/2000/svg">
<path fill-rule="evenodd" clip-rule="evenodd" d="M22.5 22.5V40.5H29.5V22.5H22.5ZM21 20C20.4477 20 20 20.4477 20 21V42C20 42.5523 20.4477 43 21 43H31C31.5523 43 32 42.5523 32 42V21C32 20.4477 31.5523 20 31 20H21Z" fill="white"/>
<path fill-rule="evenodd" clip-rule="evenodd" d="M50.5 43.5V56.5H57.5V43.5H50.5ZM49 41C48.4477 41 48 41.4477 48 42V58C48 58.5523 48.4477 59 49 59H59C59.5523 59 60 58.5523 60 58V42C60 41.4477 59.5523 41 59 41H49Z" fill="white"/>
<path fill-rule="evenodd" clip-rule="evenodd" d="M36.5 36.5V45.5H43.5V36.5H36.5ZM35 34C34.4477 34 34 34.4477 34 35V47C34 47.5523 34.4477 48 35 48H45C45.5523 48 46 47.5523 46 47V35C46 34.4477 45.5523 34 45 34H35Z" fill="white"/>
<path fill-rule="evenodd" clip-rule="evenodd" d="M26.25 42C26.9404 42 27.5 42.5596 27.5 43.25L27.5 57.75C27.5 58.4404 26.9404 59 26.25 59C25.5596 59 25 58.4404 25 57.75L25 43.25C25 42.5596 25.5596 42 26.25 42Z" fill="white"/>
<path fill-rule="evenodd" clip-rule="evenodd" d="M54.25 20C54.9404 20 55.5 20.5596 55.5 21.25L55.5 41.75C55.5 42.4404 54.9404 43 54.25 43C53.5596 43 53 42.4404 53 41.75L53 21.25C53 20.5596 53.5596 20 54.25 20Z" fill="white"/>
<path fill-rule="evenodd" clip-rule="evenodd" d="M40.25 47C40.9404 47 41.5 47.5596 41.5 48.25L41.5 57.75C41.5 58.4404 40.9404 59 40.25 59C39.5596 59 39 58.4404 39 57.75L39 48.25C39 47.5596 39.5596 47 40.25 47Z" fill="white"/>
<path fill-rule="evenodd" clip-rule="evenodd" d="M40.25 20C40.9404 20 41.5 20.5596 41.5 21.25L41.5 33.75C41.5 34.4404 40.9404 35 40.25 35C39.5596 35 39 34.4404 39 33.75L39 21.25C39 20.5596 39.5596 20 40.25 20Z" fill="white"/>
</svg>
