<svg width="80" height="80" viewBox="0 0 80 80" fill="none" xmlns="http://www.w3.org/2000/svg">
<path d="M48.7033 33.724C48.7033 30.3093 45.9253 27.5312 42.5106 27.5312C39.0959 27.5312 36.3179 30.3093 36.3179 33.724C36.3179 37.1387 39.0959 39.9167 42.5106 39.9167C45.9253 39.9167 48.7033 37.1386 48.7033 33.724ZM38.6617 33.724C38.6617 31.6016 40.3883 29.875 42.5107 29.875C43.7136 29.875 44.7889 30.4299 45.4952 31.2969H43.7658C43.4237 31.2969 43.0987 31.4464 42.8761 31.7061L39.3127 35.8633C38.9019 35.251 38.6617 34.5151 38.6617 33.724ZM44.3048 33.6406H46.3576C46.3582 33.6684 46.3597 33.696 46.3597 33.7239C46.3597 35.8462 44.633 37.5729 42.5107 37.5729C42.0312 37.5729 41.5722 37.484 41.1484 37.323L44.3048 33.6406Z" fill="white"/>
<path d="M59.3252 25.1315C58.9134 24.9386 58.4272 25.0014 58.0779 25.2925L52.9307 29.5818C51.2796 25.443 47.2312 22.5105 42.5104 22.5105C36.3272 22.5105 31.2968 27.5409 31.2968 33.724C31.2968 34.0541 31.312 34.3808 31.3401 34.7038L29.5316 32.8954C29.3119 32.6756 29.0138 32.5521 28.703 32.5521C28.3922 32.5521 28.0942 32.6756 27.8745 32.8954L22.3438 38.4261V21.1719C22.3438 20.5247 21.8191 20 21.1719 20C20.5247 20 20 20.5247 20 21.1719V58.8281C20 59.4753 20.5247 60 21.1719 60H58.8281C59.4753 60 60 59.4753 60 58.8281V26.1927C60 25.738 59.737 25.3243 59.3252 25.1315ZM27.5312 57.6562H22.3438V41.7406L27.5312 36.5531V57.6562ZM35.0625 57.6562H29.875V36.5531L33.0334 39.7115C33.5963 40.5993 34.2805 41.4027 35.0625 42.0989V57.6562ZM33.6406 33.724C33.6406 28.8331 37.6196 24.8542 42.5105 24.8542C47.4013 24.8542 51.3802 28.8332 51.3802 33.724C51.3802 35.3108 50.9554 36.8681 50.1518 38.2276C49.8797 38.688 49.9538 39.2743 50.332 39.6525L57.1709 46.4913L55.2778 48.3844L48.439 41.5456C48.1638 41.2703 47.5846 41.0282 47.0141 41.3655C45.6547 42.1691 44.0973 42.5938 42.5105 42.5938C37.6196 42.5938 33.6406 38.6148 33.6406 33.724ZM42.5938 57.6562H37.4062V43.707C38.9381 44.4934 40.6734 44.9375 42.5105 44.9375C42.5383 44.9375 42.566 44.9366 42.5938 44.9363V57.6562ZM50.125 57.6562H44.9375V44.6712C45.7867 44.4831 46.6124 44.1976 47.3966 43.8177L50.125 46.5461V57.6562ZM57.6562 57.6562H52.4688V48.8898L54.4492 50.8702C54.9067 51.3278 55.6488 51.328 56.1065 50.8702L57.6562 49.3205V57.6562ZM57.6562 43.6622L52.6041 38.6101C53.339 37.0934 53.724 35.4217 53.724 33.7239C53.724 33.1631 53.682 32.612 53.6022 32.073L57.6562 28.6947V43.6622Z" fill="white"/>
</svg>
