<svg width="80" height="80" viewBox="0 0 80 80" fill="none" xmlns="http://www.w3.org/2000/svg">
<path d="M57.5211 27.4478H43.765C43.7461 27.4478 43.7293 27.4378 43.7214 27.4216L42.3026 24.5438C41.9022 23.7292 41.0569 23.2031 40.1487 23.2031H31.8326C30.5087 23.2031 29.4318 24.2804 29.4318 25.6046V27.9584H27.077C25.7535 27.9584 24.6765 29.0354 24.6765 30.3592V32.713H22.3227C20.9988 32.713 19.9219 33.79 19.9219 35.1139V54.5414C19.9219 55.8652 20.9988 56.9422 22.3227 56.9422H48.0115C49.3354 56.9422 50.4124 55.8652 50.4124 54.5414V52.1873H52.7665C54.0903 52.1873 55.1673 51.1103 55.1673 49.7867V47.4329H57.5211C58.845 47.4329 59.922 46.3559 59.922 45.0321V29.8493C59.922 28.5251 58.845 27.4478 57.5211 27.4478ZM48.0115 54.5893H22.3227C22.2965 54.5893 22.2748 54.5679 22.2748 54.5414V35.1139C22.2748 35.0873 22.2965 35.0659 22.3227 35.0659H30.6394C30.6473 35.0659 30.6549 35.0687 30.6616 35.0724C30.6626 35.073 30.6638 35.0727 30.6647 35.0733C30.6674 35.0751 30.669 35.0785 30.6714 35.0806C30.6754 35.0846 30.68 35.0879 30.6824 35.0928L32.1018 37.9715C32.5092 38.7973 33.3344 39.3106 34.2551 39.3106H48.0115C48.0179 39.3106 48.0243 39.3119 48.0301 39.3143C48.0472 39.3216 48.0591 39.3387 48.0591 39.3586C48.0591 47.6557 48.0594 54.4657 48.0594 54.5414C48.0594 54.5679 48.0381 54.5893 48.0115 54.5893ZM52.8144 49.7867C52.8144 49.813 52.793 49.8343 52.7668 49.8343H50.4124V39.3586C50.4124 38.0344 49.3351 36.9574 48.0112 36.9574H34.2551C34.2374 36.9574 34.2203 36.9467 34.2124 36.9306L32.7927 34.0518C32.3856 33.2269 31.5607 32.713 30.6397 32.713H27.0294V30.3592C27.0294 30.3327 27.0508 30.3113 27.077 30.3113H35.394C35.4123 30.3113 35.4288 30.3214 35.437 30.3385L36.8567 33.2172C37.2644 34.043 38.0893 34.556 39.0097 34.556H52.7668C52.793 34.556 52.8144 34.5774 52.8144 34.6039V49.7867ZM57.569 45.0321C57.569 45.0586 57.5477 45.08 57.5211 45.08H55.1673V34.6039C55.1673 33.28 54.0906 32.2031 52.7668 32.2031H39.0097C38.9917 32.2031 38.975 32.1924 38.9667 32.1759L37.5473 29.2981C37.1405 28.4717 36.3153 27.9584 35.394 27.9584H31.7847V25.6046C31.7847 25.5777 31.8061 25.556 31.8323 25.556H40.1484C40.1664 25.556 40.1831 25.5661 40.1914 25.5829L41.6111 28.4625C42.0185 29.2877 42.8437 29.8007 43.765 29.8007H57.5211C57.5474 29.8007 57.5687 29.8224 57.5687 29.8496V45.0321H57.569Z" fill="white"/>
<path d="M40.8283 49.4746C40.1786 49.4746 39.6519 50.0013 39.6519 50.6511V51.3313C39.6519 51.981 40.1786 52.5078 40.8283 52.5078C41.478 52.5078 42.0048 51.981 42.0048 51.3313V50.6511C42.0048 50.0013 41.478 49.4746 40.8283 49.4746Z" fill="white"/>
<path d="M44.2565 49.4746C43.6068 49.4746 43.0801 50.0013 43.0801 50.6511V51.3313C43.0801 51.981 43.6068 52.5078 44.2565 52.5078C44.9063 52.5078 45.433 51.981 45.433 51.3313V50.6511C45.433 50.0013 44.9063 49.4746 44.2565 49.4746Z" fill="white"/>
</svg>
