<svg width="80" height="80" viewBox="0 0 80 80" fill="none" xmlns="http://www.w3.org/2000/svg">
<path d="M56.4844 22.2656H23.5156C21.5771 22.2656 20 23.8427 20 25.7812V46.7188C20 48.6573 21.5771 50.2344 23.5156 50.2344H35.0781V55.3906H27.5C26.8528 55.3906 26.3281 55.9153 26.3281 56.5625C26.3281 57.2097 26.8528 57.7344 27.5 57.7344H52.5C53.1472 57.7344 53.6719 57.2097 53.6719 56.5625C53.6719 55.9153 53.1472 55.3906 52.5 55.3906H44.9219V50.2344H56.4844C58.4229 50.2344 60 48.6573 60 46.7188V25.7812C60 23.8427 58.4229 22.2656 56.4844 22.2656ZM42.5781 55.3906H37.4219V50.2344H42.5781V55.3906ZM57.6562 46.7188C57.6562 47.3649 57.1305 47.8906 56.4844 47.8906C55.2923 47.8906 25.3998 47.8906 23.5156 47.8906C22.8695 47.8906 22.3438 47.3649 22.3438 46.7188V25.7812C22.3438 25.1351 22.8695 24.6094 23.5156 24.6094H56.4844C57.1305 24.6094 57.6562 25.1351 57.6562 25.7812V46.7188Z" fill="white"/>
<path d="M27.3991 28.8339C27.2636 28.185 26.6541 27.7952 26.0209 27.9137C25.3891 28.0448 24.9784 28.6429 25.1006 29.2918C25.2309 29.92 25.8254 30.3345 26.4788 30.2122C27.1125 30.0793 27.5205 29.4831 27.3991 28.8339Z" fill="white"/>
<path d="M37.5 27.8906H31.25C30.6028 27.8906 30.0781 28.4153 30.0781 29.0625C30.0781 29.7097 30.6028 30.2344 31.25 30.2344H37.5C38.1472 30.2344 38.6719 29.7097 38.6719 29.0625C38.6719 28.4153 38.1472 27.8906 37.5 27.8906Z" fill="white"/>
<path d="M27.3993 33.8328C27.2503 33.1185 26.5301 32.7429 25.9095 32.9414C25.3012 33.1261 24.9399 33.7683 25.129 34.4023C25.35 35.0804 26.0342 35.3589 26.5907 35.182C27.1417 35.0147 27.5164 34.4593 27.3993 33.8328Z" fill="white"/>
<path d="M37.5 32.8906H31.25C30.6028 32.8906 30.0781 33.4153 30.0781 34.0625C30.0781 34.7097 30.6028 35.2344 31.25 35.2344H37.5C38.1472 35.2344 38.6719 34.7097 38.6719 34.0625C38.6719 33.4153 38.1472 32.8906 37.5 32.8906Z" fill="white"/>
<path d="M26.0213 37.9128C25.061 38.1121 24.7383 39.3199 25.5072 39.9683C26.0547 40.4004 26.7734 40.2751 27.1564 39.805C27.8458 38.9603 27.1132 37.7085 26.0213 37.9128Z" fill="white"/>
<path d="M37.5 37.8906H31.25C30.6028 37.8906 30.0781 38.4153 30.0781 39.0625C30.0781 39.7097 30.6028 40.2344 31.25 40.2344H37.5C38.1472 40.2344 38.6719 39.7097 38.6719 39.0625C38.6719 38.4153 38.1472 37.8906 37.5 37.8906Z" fill="white"/>
<path d="M48.125 27.2656C44.3772 27.2656 41.3281 30.3147 41.3281 34.0625C41.3281 37.8103 44.3772 40.8594 48.125 40.8594C51.8728 40.8594 54.9219 37.8103 54.9219 34.0625C54.9219 30.3147 51.8728 27.2656 48.125 27.2656ZM52.4205 32.8906H49.2969V29.767C50.8118 30.1807 52.0067 31.3757 52.4205 32.8906ZM48.125 38.5156C45.6695 38.5156 43.6719 36.518 43.6719 34.0625C43.6719 32.0127 45.0645 30.2828 46.9531 29.767V34.0625C46.9531 34.7097 47.4778 35.2344 48.125 35.2344H52.4205C51.9047 37.123 50.1748 38.5156 48.125 38.5156Z" fill="white"/>
<path d="M33.125 42.8906H31.25C30.6028 42.8906 30.0781 43.4153 30.0781 44.0625C30.0781 44.7097 30.6028 45.2344 31.25 45.2344H33.125C33.7722 45.2344 34.2969 44.7097 34.2969 44.0625C34.2969 43.4153 33.7722 42.8906 33.125 42.8906Z" fill="white"/>
<path d="M44.375 42.8906H42.5C41.8528 42.8906 41.3281 43.4153 41.3281 44.0625C41.3281 44.7097 41.8528 45.2344 42.5 45.2344H44.375C45.0222 45.2344 45.5469 44.7097 45.5469 44.0625C45.5469 43.4153 45.0222 42.8906 44.375 42.8906Z" fill="white"/>
</svg>
