<svg width="80" height="80" viewBox="0 0 80 80" fill="none" xmlns="http://www.w3.org/2000/svg">
<path d="M60 40C60 34.6579 57.9196 29.6354 54.1422 25.8579C50.3646 22.0804 45.3421 20 40 20C35.8891 20 31.7371 21.3371 27.9444 23.8736C27.3014 23.5297 26.5677 23.3341 25.7889 23.3341C23.2596 23.3341 21.2018 25.3918 21.2018 27.9211C21.2018 28.9695 21.5561 29.9361 22.1502 30.7095C21.4181 31.97 20.8924 33.2631 20.5524 34.6385C20.1755 36.1624 20 37.866 20 40C20 45.3422 22.0804 50.3646 25.8578 54.1422C29.6353 57.9197 34.6578 60.0001 40 60.0001C44.7953 60.0001 48.9711 58.4613 52.7385 55.3026C53.3476 55.602 54.0319 55.7709 54.7552 55.7709C57.2845 55.7709 59.3423 53.7132 59.3423 51.1839C59.3423 50.0677 58.9411 49.0436 58.276 48.2474C59.5552 45.5454 60 43.3545 60 40ZM25.7889 25.6812C27.024 25.6812 28.0288 26.6861 28.0288 27.9211C28.0288 29.1562 27.024 30.161 25.7889 30.161C25.2725 30.161 24.7968 29.9849 24.4175 29.6903C24.3875 29.6629 24.3559 29.6369 24.3226 29.6123C23.8492 29.2013 23.5489 28.5957 23.5489 27.9211C23.549 26.6861 24.5538 25.6812 25.7889 25.6812ZM27.5175 52.4825C24.1833 49.1483 22.3471 44.7153 22.3471 40C22.3471 36.588 22.8133 34.3372 24.0255 32.1553C24.5687 32.3823 25.1643 32.5082 25.7889 32.5082C28.3182 32.5082 30.3759 30.4505 30.3759 27.9212C30.3759 27.0448 30.1286 26.2252 29.7004 25.5281C33.0042 23.4165 36.4634 22.3471 40 22.3471C44.7152 22.3471 49.1483 24.1833 52.4824 27.5175C55.8167 30.8517 57.6529 35.2847 57.6529 40C57.6529 42.8771 57.3295 44.6561 56.3264 46.8739C55.8361 46.6946 55.3069 46.5967 54.7552 46.5967C52.2259 46.5967 50.1682 48.6544 50.1682 51.1837C50.1682 52.1287 50.4556 53.0076 50.9473 53.7383C47.6655 56.4034 44.1586 57.6529 40 57.6529C35.2848 57.6529 30.8516 55.8167 27.5175 52.4825ZM54.7552 53.4237C53.5202 53.4237 52.5153 52.4188 52.5153 51.1838C52.5153 49.9487 53.5202 48.9439 54.7552 48.9439C55.9904 48.9439 56.9952 49.9487 56.9952 51.1838C56.9952 52.4188 55.9904 53.4237 54.7552 53.4237Z" fill="white"/>
<path d="M51.5815 40.0325C51.5815 40.0324 51.5815 40.0323 51.5815 40.0322C51.5815 40.0319 51.5815 40.0315 51.5815 40.0312C51.5779 33.6702 46.422 28.488 40.0711 28.4405C40.0595 28.4402 40.0479 28.4401 40.0364 28.4401C40.0208 28.44 40.0054 28.4395 39.9897 28.4395H39.9831C36.8905 28.4395 33.9836 29.6431 31.7977 31.8291C29.6106 34.0162 28.4069 36.9249 28.4082 40.0194V40.0198V40.02V40.021C28.4117 46.4074 33.6087 51.6061 39.9944 51.6127C39.9961 51.6127 39.9978 51.6129 39.9995 51.6129C40.0001 51.6129 40.0007 51.6128 40.0014 51.6128H40.0064C43.0991 51.6127 46.0061 50.4091 48.1919 48.2232C50.379 46.036 51.5828 43.1274 51.5815 40.0329C51.5815 40.0327 51.5815 40.0326 51.5815 40.0325ZM49.1594 38.8576L44.9134 38.8552C44.7442 35.3218 43.8246 32.8685 42.8874 31.2543C46.2092 32.3561 48.7033 35.2934 49.1594 38.8576ZM40.0232 48.8261C39.1574 47.7995 37.7048 45.4654 37.4751 41.1983L42.5624 41.2011C42.3995 44.2164 41.6287 46.2321 40.9695 47.4326C40.6358 48.0401 40.3005 48.4982 40.0232 48.8261ZM37.4753 38.8512C37.6383 35.8358 38.409 33.82 39.0682 32.6197C39.4019 32.0121 39.7371 31.554 40.0145 31.226C40.8803 32.2526 42.3329 34.5868 42.5626 38.854L37.4753 38.8512ZM33.4574 33.4887C34.5142 32.4319 35.7825 31.6638 37.1669 31.2223C36.2255 32.8363 35.2954 35.2981 35.1246 38.8498L30.8282 38.8475C31.0816 36.824 31.9928 34.9533 33.4574 33.4887ZM30.8303 41.1946L35.1242 41.1969C35.2941 44.7447 36.2206 47.2032 37.1616 48.8171C33.8102 47.7308 31.2891 44.78 30.8303 41.1946ZM46.5323 46.5634C45.4905 47.6052 44.2432 48.3669 42.8817 48.8112C43.8193 47.1969 44.7429 44.7403 44.913 41.2023L49.1615 41.2047C48.908 43.2281 47.9969 45.0989 46.5323 46.5634Z" fill="white"/>
</svg>
