<svg width="80" height="80" viewBox="0 0 80 80" fill="none" xmlns="http://www.w3.org/2000/svg">
<path d="M54.1259 25.8741C50.338 22.0861 45.3213 20 40 20C34.6787 20 29.662 22.0861 25.8741 25.8741C22.0861 29.662 20 34.6787 20 40C20 45.3213 22.0861 50.338 25.8741 54.1259C29.662 57.9139 34.6787 60 40 60C45.3213 60 50.338 57.9139 54.1259 54.1259C57.9139 50.338 60 45.3213 60 40C60 34.6787 57.9139 29.662 54.1259 25.8741ZM40 57.6562C30.2643 57.6562 22.3438 49.7357 22.3438 40C22.3438 30.2643 30.2643 22.3438 40 22.3438C49.7357 22.3438 57.6562 30.2643 57.6562 40C57.6562 49.7357 49.7357 57.6562 40 57.6562Z" fill="white"/>
<path d="M40 24.7656C31.5998 24.7656 24.7656 31.5998 24.7656 40C24.7656 48.4002 31.5998 55.2344 40 55.2344C48.4002 55.2344 55.2344 48.4002 55.2344 40C55.2344 31.5998 48.4002 24.7656 40 24.7656ZM40 52.8906C32.8921 52.8906 27.1094 47.1079 27.1094 40C27.1094 32.8921 32.8921 27.1094 40 27.1094C47.1079 27.1094 52.8906 32.8921 52.8906 40C52.8906 47.1079 47.1079 52.8906 40 52.8906Z" fill="white"/>
<path d="M43.5156 36.4727C43.5156 37.1199 44.0403 37.6446 44.6875 37.6446C45.3347 37.6446 45.8594 37.1199 45.8594 36.4727C45.8594 35.1749 45.1881 33.9271 44.0177 33.0493C43.2182 32.4497 42.2345 32.0491 41.1719 31.8787V30.6133C41.1719 29.9661 40.6472 29.4414 40 29.4414C39.3528 29.4414 38.8281 29.9661 38.8281 30.6133V31.8787C37.7654 32.0491 36.7817 32.4497 35.9823 33.0493C34.8119 33.9271 34.1406 35.1749 34.1406 36.4727C34.1406 37.7705 34.8119 39.0183 35.9823 39.8962C36.7818 40.4958 37.7655 40.8963 38.8281 41.0667V45.708C37.4781 45.3781 36.4844 44.502 36.4844 43.504C36.4844 42.8568 35.9597 42.3321 35.3125 42.3321C34.6653 42.3321 34.1406 42.8568 34.1406 43.504C34.1406 44.8018 34.8119 46.0495 35.9823 46.9274C36.7818 47.527 37.7655 47.9276 38.8281 48.098V49.3752C38.8281 50.0224 39.3528 50.5471 40 50.5471C40.6472 50.5471 41.1719 50.0224 41.1719 49.3752V48.098C42.2346 47.9276 43.2183 47.527 44.0177 46.9274C45.1881 46.0496 45.8594 44.8018 45.8594 43.504C45.8594 42.2062 45.1881 40.9584 44.0177 40.0805C43.2182 39.4809 42.2345 39.0804 41.1719 38.91V34.2687C42.5219 34.5987 43.5156 35.4747 43.5156 36.4727ZM36.4844 36.4727C36.4844 35.4747 37.4781 34.5986 38.8281 34.2687V38.6767C37.4781 38.3469 36.4844 37.4708 36.4844 36.4727ZM43.5156 43.504C43.5156 44.502 42.5219 45.3781 41.1719 45.708V41.3C42.5219 41.6299 43.5156 42.5059 43.5156 43.504Z" fill="white"/>
</svg>
