<svg width="80" height="80" viewBox="0 0 80 80" fill="none" xmlns="http://www.w3.org/2000/svg">
<path d="M36.6859 55.3125H27.8516C27.2044 55.3125 26.6797 55.8372 26.6797 56.4844C26.6797 57.1316 27.2044 57.6562 27.8516 57.6562H36.6859C37.1697 59.0202 38.4723 60 40 60C41.5277 60 42.8303 59.0202 43.3141 57.6562H52.1484C52.7956 57.6562 53.3203 57.1316 53.3203 56.4844C53.3203 55.8372 52.7956 55.3125 52.1484 55.3125H43.3141C42.9604 54.3153 42.1691 53.524 41.1719 53.1703V50.8695H50.5336C52.0702 50.8695 53.3203 49.6195 53.3203 48.0828V41.9375C53.3203 40.4009 52.0702 39.1508 50.5336 39.1508H41.1719V36.0258H50.5336C52.0702 36.0258 53.3203 34.7757 53.3203 33.2391V27.0938C53.3203 25.5571 52.0702 24.307 50.5336 24.307H41.1719V21.1719C41.1719 20.5247 40.6472 20 40 20C39.3528 20 38.8281 20.5247 38.8281 21.1719V24.307H29.4664C27.9298 24.307 26.6797 25.5571 26.6797 27.0938V33.239C26.6797 34.7756 27.9298 36.0257 29.4664 36.0257H38.8281V39.1507H29.4664C27.9298 39.1507 26.6797 40.4008 26.6797 41.9374V48.0827C26.6797 49.6193 27.9298 50.8694 29.4664 50.8694H38.8281V53.1702C37.8309 53.524 37.0396 54.3153 36.6859 55.3125ZM29.0234 33.239V27.0938C29.0234 26.8495 29.2222 26.6508 29.4664 26.6508H50.5336C50.7778 26.6508 50.9766 26.8495 50.9766 27.0938V33.239C50.9766 33.4832 50.7778 33.682 50.5336 33.682H29.4664C29.2222 33.682 29.0234 33.4833 29.0234 33.239ZM29.0234 48.0827V41.9375C29.0234 41.6933 29.2222 41.4945 29.4664 41.4945H50.5336C50.7778 41.4945 50.9766 41.6933 50.9766 41.9375V48.0827C50.9766 48.327 50.7778 48.5257 50.5336 48.5257H29.4664C29.2222 48.5258 29.0234 48.327 29.0234 48.0827ZM40 57.6562C39.3538 57.6562 38.8281 57.1305 38.8281 56.4844C38.8281 55.8382 39.3538 55.3125 40 55.3125C40.6462 55.3125 41.1719 55.8382 41.1719 56.4844C41.1719 57.1305 40.6462 57.6562 40 57.6562Z" fill="white"/>
<path d="M33.6863 30.6406C33.9479 30.0096 33.6484 29.286 33.0174 29.0245C32.3864 28.7629 31.6629 29.0624 31.4013 29.6934C31.1398 30.3244 31.4393 31.048 32.0702 31.3095C32.7012 31.5711 33.4248 31.2716 33.6863 30.6406Z" fill="white"/>
<path d="M38.5047 30.6406C38.7662 30.0096 38.4667 29.286 37.8358 29.0245C37.2048 28.7629 36.4812 29.0624 36.2197 29.6934C35.9581 30.3244 36.2576 31.048 36.8886 31.3095C37.5196 31.5711 38.2431 31.2716 38.5047 30.6406Z" fill="white"/>
<path d="M42.043 31.3359H47.4607C48.1079 31.3359 48.6326 30.8113 48.6326 30.1641C48.6326 29.5169 48.1079 28.9922 47.4607 28.9922H42.043C41.3958 28.9922 40.8711 29.5169 40.8711 30.1641C40.8711 30.8113 41.3958 31.3359 42.043 31.3359Z" fill="white"/>
<path d="M33.6883 45.4921C33.9498 44.8611 33.6503 44.1376 33.0193 43.8761C32.3884 43.6145 31.6648 43.914 31.4033 44.545C31.1417 45.176 31.4412 45.8995 32.0722 46.1611C32.7032 46.4226 33.4267 46.1231 33.6883 45.4921Z" fill="white"/>
<path d="M38.5066 45.4921C38.7682 44.8611 38.4687 44.1376 37.8377 43.8761C37.2067 43.6145 36.4832 43.914 36.2216 44.545C35.9601 45.176 36.2596 45.8995 36.8906 46.1611C37.5215 46.4226 38.2451 46.1231 38.5066 45.4921Z" fill="white"/>
<path d="M42.043 46.1797H47.4607C48.1079 46.1797 48.6326 45.655 48.6326 45.0078C48.6326 44.3606 48.1079 43.8359 47.4607 43.8359H42.043C41.3958 43.8359 40.8711 44.3606 40.8711 45.0078C40.8711 45.655 41.3958 46.1797 42.043 46.1797Z" fill="white"/>
</svg>
