<svg width="80" height="80" viewBox="0 0 80 80" fill="none" xmlns="http://www.w3.org/2000/svg">
<path d="M56.7825 27.2803C55.8511 26.3258 54.37 25.9928 53.1238 26.457V25.8594C53.1238 24.9205 52.7579 24.0377 52.0936 23.3736C51.135 22.3871 49.5746 22.073 48.3121 22.5921C48.1536 22.007 47.8454 21.4702 47.4048 21.0298C46.7406 20.3658 45.8577 20 44.9189 20C43.3002 20 41.9343 21.0996 41.5271 22.5908C41.1196 22.4291 40.6814 22.3438 40.2301 22.3438C38.2915 22.3438 36.7143 23.9209 36.7143 25.8594V31.4366C35.4794 30.972 34.0099 31.2927 33.0721 32.2244C32.3837 32.8941 32.0046 33.7916 32.0046 34.7516V34.7608L32.0169 41.2756C26.6972 41.0025 22.1722 45.3075 22.1875 50.6322C22.1875 55.7976 26.3927 60 31.5614 60C35.2975 60 38.5296 57.8041 40.0346 54.6363C41.4153 55.1562 42.8698 55.4203 44.3746 55.4203H45.4582C52.2704 55.4203 57.8125 49.8819 57.8125 43.0742V29.7656C57.8125 28.8266 57.4464 27.9438 56.7825 27.2803ZM31.5614 57.6562C27.685 57.6562 24.5313 54.5052 24.5313 50.6322C24.5313 46.7591 27.685 43.6082 31.5614 43.6082C35.4378 43.6082 38.5915 46.7591 38.5915 50.6322C38.5915 54.5052 35.4379 57.6562 31.5614 57.6562ZM55.4688 43.0742C55.4688 48.5895 50.9781 53.0766 45.4582 53.0766H44.3746C43.1209 53.0766 41.9111 52.8512 40.7658 52.407C40.8766 51.8321 40.9354 51.2389 40.9354 50.6322C40.9354 46.441 38.1668 42.8841 34.3615 41.6913L34.3484 34.7516C34.3345 34.1034 34.9173 33.5379 35.565 33.5698C36.1987 33.5877 36.7143 34.1395 36.7143 34.8V37.8906C36.7143 38.3854 37.01 38.8212 37.4754 38.9882C37.6202 39.0452 39.8483 39.9616 40.236 42.4864C40.325 43.0659 40.8241 43.4806 41.3929 43.4806C42.1032 43.4866 42.667 42.8331 42.5526 42.1308C42.1154 39.2827 40.1632 37.7915 39.0582 37.1627V25.8594C39.0582 25.2132 39.5839 24.6875 40.2302 24.6875C40.8576 24.6745 41.4139 25.2277 41.4029 25.8555V35.2344C41.4029 35.8816 41.9275 36.4062 42.5747 36.4062H42.5748H42.5749C43.2221 36.4062 43.7468 35.8816 43.7468 35.2344L43.7466 23.5156C43.7466 22.8695 44.2725 22.3438 44.919 22.3438C45.5483 22.3307 46.1046 22.8862 46.0915 23.5156V35.2344C46.0915 35.8816 46.6162 36.4062 47.2634 36.4062C47.9106 36.4062 48.4353 35.8816 48.4353 35.2344V25.8594C48.4353 25.2132 48.9612 24.6875 49.6078 24.6875C50.2371 24.6744 50.7933 25.23 50.7803 25.8594V35.2344C50.7803 35.8816 51.305 36.4062 51.9521 36.4062C52.5993 36.4062 51.9521 36.4062 51.9521 36.4062C52.5993 36.4062 53.124 35.8816 53.124 35.2344V29.8117C53.124 29.155 53.6371 28.6088 54.268 28.5942C54.9079 28.5663 55.4821 29.1251 55.4688 29.7656V43.0742Z" fill="white"/>
<path d="M34.713 47.4842C34.2556 47.0264 33.5135 47.0261 33.0557 47.4836L31.5617 48.9766L30.0676 47.4836C29.6099 47.0261 28.8678 47.0263 28.4103 47.4842C27.9528 47.9419 27.9531 48.684 28.411 49.1415L29.9039 50.6333L28.411 52.1251C27.9532 52.5825 27.9528 53.3246 28.4103 53.7823C28.8678 54.2401 29.6099 54.2405 30.0676 53.783L31.5617 52.29L33.0557 53.783C33.5135 54.2405 34.2556 54.2402 34.713 53.7823C35.1705 53.3246 35.1703 52.5826 34.7124 52.1251L33.2195 50.6333L34.7124 49.1415C35.1703 48.6841 35.1705 47.942 34.713 47.4842Z" fill="white"/>
</svg>
