<svg width="80" height="80" viewBox="0 0 80 80" fill="none" xmlns="http://www.w3.org/2000/svg">
<path d="M32.8876 45.8597H32.8894C32.8909 45.8597 32.8925 45.8594 32.894 45.8594H54.1406C54.6637 45.8594 55.1236 45.5124 55.2673 45.0095L59.9548 28.6032C60.0558 28.2495 59.985 27.8693 59.7638 27.5757C59.5422 27.2821 59.1959 27.1094 58.8281 27.1094H30.1849L29.3472 23.3395C29.2279 22.8033 28.7524 22.4219 28.2031 22.4219H21.1719C20.5246 22.4219 20 22.9465 20 23.5938C20 24.241 20.5246 24.7656 21.1719 24.7656H27.2632C27.4115 25.4337 31.272 42.8061 31.4941 43.8055C30.2487 44.3469 29.375 45.5887 29.375 47.0312C29.375 48.9697 30.9521 50.5469 32.8906 50.5469H54.1406C54.7879 50.5469 55.3125 50.0223 55.3125 49.375C55.3125 48.7277 54.7879 48.2031 54.1406 48.2031H32.8906C32.2446 48.2031 31.7187 47.6773 31.7187 47.0312C31.7187 46.3861 32.2427 45.8612 32.8876 45.8597ZM57.2745 29.4531L53.2565 43.5156H33.8306L30.7056 29.4531H57.2745Z" fill="white"/>
<path d="M31.7188 54.0625C31.7188 56.001 33.2959 57.5781 35.2344 57.5781C37.1729 57.5781 38.75 56.001 38.75 54.0625C38.75 52.124 37.1729 50.5469 35.2344 50.5469C33.2959 50.5469 31.7188 52.124 31.7188 54.0625ZM35.2344 52.8906C35.8804 52.8906 36.4062 53.4164 36.4062 54.0625C36.4062 54.7086 35.8804 55.2344 35.2344 55.2344C34.5883 55.2344 34.0625 54.7086 34.0625 54.0625C34.0625 53.4164 34.5883 52.8906 35.2344 52.8906Z" fill="white"/>
<path d="M48.2812 54.0625C48.2812 56.001 49.8584 57.5781 51.7969 57.5781C53.7354 57.5781 55.3125 56.001 55.3125 54.0625C55.3125 52.124 53.7354 50.5469 51.7969 50.5469C49.8584 50.5469 48.2812 52.124 48.2812 54.0625ZM51.7969 52.8906C52.4429 52.8906 52.9688 53.4164 52.9688 54.0625C52.9688 54.7086 52.4429 55.2344 51.7969 55.2344C51.1508 55.2344 50.625 54.7086 50.625 54.0625C50.625 53.4164 51.1508 52.8906 51.7969 52.8906Z" fill="white"/>
</svg>
