<svg width="80" height="80" viewBox="0 0 80 80" fill="none" xmlns="http://www.w3.org/2000/svg">
<path d="M48.4199 46.764C48.4306 46.8139 48.4452 46.863 48.4636 46.9105C48.6284 47.338 49.032 47.613 49.4932 47.613H49.5019C49.9666 47.6094 50.3698 47.3278 50.5292 46.8953C50.5325 46.8864 50.5357 46.8774 50.5387 46.8684L51.3117 44.566L52.0812 46.8686C52.0859 46.8827 52.091 46.8967 52.0963 46.9105C52.2611 47.338 52.6645 47.613 53.1259 47.613H53.1345C53.5992 47.6094 54.0024 47.3278 54.1618 46.8953C54.1777 46.8524 54.1904 46.8083 54.2001 46.7637L55.2927 41.7022C55.4064 41.175 55.0713 40.6554 54.5442 40.5415C54.0167 40.428 53.4974 40.7629 53.3835 41.2901L52.949 43.3033L52.2384 41.1772C52.0674 40.6656 51.5143 40.3894 51.0027 40.5605C50.677 40.6693 50.4474 40.9333 50.3673 41.2427L49.6751 43.3041L49.2412 41.2818C49.1281 40.7544 48.6085 40.4183 48.0815 40.5318C47.5542 40.6449 47.2184 41.1641 47.3315 41.6915L48.4199 46.764Z" fill="white"/>
<path d="M38.1073 46.7641C38.118 46.8139 38.1325 46.8628 38.1509 46.9104C38.3157 47.338 38.7192 47.613 39.1806 47.613H39.1889C39.6536 47.6097 40.057 47.3281 40.2165 46.8957C40.2198 46.8866 40.223 46.8776 40.226 46.8685L40.999 44.5662L41.7684 46.8687C41.7731 46.8829 41.7781 46.8969 41.7834 46.9107C41.9483 47.3382 42.3517 47.6131 42.8131 47.6131H42.8217C43.2864 47.6096 43.6896 47.328 43.849 46.8955C43.8649 46.8526 43.8776 46.8085 43.8873 46.7638L44.9801 41.7022C45.0938 41.175 44.7588 40.6554 44.2316 40.5416C43.704 40.428 43.1848 40.7629 43.0709 41.2901L42.6364 43.3034L41.9259 41.1772C41.7549 40.6656 41.2017 40.3893 40.6902 40.5605C40.3646 40.6692 40.1351 40.933 40.0548 41.2421L39.3625 43.3041L38.9286 41.2818C38.8156 40.7545 38.2963 40.4186 37.7689 40.5319C37.2417 40.645 36.9059 41.1642 37.019 41.6916L38.1073 46.7641Z" fill="white"/>
<path d="M27.7948 46.7641C27.8055 46.8139 27.82 46.8628 27.8384 46.9104C28.0032 47.338 28.4067 47.613 28.8681 47.613H28.8764C29.3411 47.6097 29.7445 47.3281 29.904 46.8957C29.9073 46.8866 29.9105 46.8776 29.9135 46.8685L30.6865 44.5662L31.4559 46.8687C31.4606 46.8827 31.4656 46.8966 31.4708 46.9104C31.6356 47.338 32.0392 47.613 32.5005 47.613H32.5088C32.9735 47.6097 33.3769 47.3281 33.5364 46.8957C33.5523 46.8527 33.5651 46.8086 33.5748 46.7637L34.6676 41.7022C34.7813 41.175 34.4463 40.6554 33.9191 40.5416C33.3917 40.4277 32.8723 40.7629 32.7585 41.2901L32.3238 43.3034L31.6134 41.1772C31.4424 40.6656 30.8892 40.3893 30.3777 40.5605C30.0522 40.6692 29.8227 40.933 29.7423 41.2421L29.05 43.3041L28.6161 41.2818C28.503 40.7545 27.984 40.4186 27.4564 40.5319C26.9291 40.645 26.5934 41.1642 26.7065 41.6916L27.7948 46.7641Z" fill="white"/>
<path d="M35.1235 26.0808C35.2729 26.889 36.2456 27.2905 36.9227 26.8262C37.7406 26.2862 37.5523 25.0105 36.6125 24.7308C35.779 24.4674 34.9427 25.2258 35.1235 26.0808Z" fill="white"/>
<path d="M30.436 26.0808C30.5855 26.8887 31.5582 27.2909 32.2352 26.8262C33.0534 26.2822 32.8664 25.0141 31.9251 24.7308C31.0916 24.4674 30.2552 25.226 30.436 26.0808Z" fill="white"/>
<path d="M25.748 26.0808C25.8996 26.8887 26.8698 27.291 27.548 26.8261C28.3662 26.282 28.1791 25.0141 27.2378 24.7308C26.403 24.4677 25.5696 25.2248 25.748 26.0808Z" fill="white"/>
<path d="M59.8281 20H22.1719C21.5247 20 21 20.5247 21 21.1719V58.8281C21 59.4753 21.5247 60 22.1719 60H59.8281C60.4753 60 61 59.4753 61 58.8281V21.1719C61 20.5247 60.4753 20 59.8281 20ZM58.6562 22.3438V29.4343H23.3438V22.3438H58.6562ZM58.6562 57.6562H23.3438V31.778H58.6562V57.6562Z" fill="white"/>
</svg>
