<svg width="80" height="80" viewBox="0 0 80 80" fill="none" xmlns="http://www.w3.org/2000/svg">
<path d="M34.1224 26.0945C34.274 26.9025 35.2439 27.3046 35.9224 26.8398C36.7854 26.2631 36.5186 24.9193 35.5004 24.7165C34.6971 24.5438 33.9512 25.2917 34.1224 26.0945Z" fill="white"/>
<path d="M29.4355 26.0945C29.6113 27.0047 30.7616 27.3533 31.4136 26.6944C32.0361 26.0796 31.7654 24.9918 30.9253 24.7444C30.0906 24.4815 29.257 25.2385 29.4355 26.0945Z" fill="white"/>
<path d="M24.7481 26.0945C24.8992 26.9023 25.87 27.3046 26.5481 26.8398C27.3662 26.3007 27.1773 25.0233 26.2379 24.7445C25.4036 24.4813 24.5691 25.2388 24.7481 26.0945Z" fill="white"/>
<path d="M58.8281 20.0137H21.1719C20.5247 20.0137 20 20.5384 20 21.1855V55.7168C20 56.364 20.5247 56.8887 21.1719 56.8887H24.778C25.028 57.4911 25.3933 58.0462 25.8627 58.5156C26.8044 59.4573 28.0884 59.9863 29.4149 59.9863C29.4888 59.9863 29.5629 59.9847 29.6369 59.9813C31.0413 59.9187 32.3639 59.2642 33.2656 58.1857L34.35 56.8886H58.8281C59.4753 56.8886 60 56.3639 60 55.7167V21.1855C60 20.5384 59.4753 20.0137 58.8281 20.0137ZM57.6562 22.3574V29.2918H22.3438V22.3574H57.6562ZM29.5326 57.6399C28.7716 57.6741 28.0579 57.3962 27.5201 56.8584C26.9823 56.3205 26.7046 55.6058 26.7385 54.8459C26.7724 54.0859 27.1124 53.3988 27.696 52.9109L36.1262 45.863C36.4373 46.3302 36.7968 46.7699 37.2027 47.1758C37.6116 47.5846 38.0522 47.9428 38.5165 48.2508L31.4675 56.6824C30.9796 57.266 30.2924 57.606 29.5326 57.6399ZM50.1904 36.3246H52.9886V38.6684H51.3323C51.0768 37.8345 50.6927 37.0452 50.1904 36.3246ZM47.5593 36.8191C49.9453 39.1089 49.9458 43.2288 47.5592 45.5185C45.1609 47.9169 41.2583 47.9169 38.8598 45.5185C37.7003 44.3568 37.0588 42.8118 37.0581 41.1687C37.0634 35.7087 43.6951 32.962 47.5593 36.8191ZM35.0868 38.6684H27.0582V36.3246H36.2288C35.7264 37.0452 35.3423 37.8345 35.0868 38.6684ZM57.6562 54.5449H36.3095L40.7067 49.2852C41.5208 49.5347 42.3652 49.6601 43.2095 49.6601C45.3849 49.6601 47.5604 48.832 49.2165 47.1759C50.821 45.5713 51.7047 43.438 51.7047 41.1688C51.7047 41.1165 51.7037 41.0643 51.7028 41.0121H54.1605C54.8077 41.0121 55.3323 40.4874 55.3323 39.8402V35.1527C55.3323 34.5055 54.8077 33.9809 54.1605 33.9809H47.743C46.399 33.1295 44.8393 32.6737 43.2096 32.6737C41.5799 32.6737 40.0202 33.1295 38.6763 33.9809H25.8863C25.2391 33.9809 24.7145 34.5055 24.7145 35.1527V39.8402C24.7145 40.4874 25.2391 41.0121 25.8863 41.0121H34.7163C34.7154 41.0643 34.7145 41.1165 34.7145 41.1688C34.7145 42.0312 34.8424 42.8739 35.0887 43.6755L26.1927 51.1128C25.1646 51.9722 24.5232 53.2143 24.411 54.5449H22.3438V31.6355H57.6562V54.5449Z" fill="white"/>
</svg>
