<svg width="80" height="80" viewBox="0 0 80 80" fill="none" xmlns="http://www.w3.org/2000/svg">
<path d="M54.0625 38.8672H52.8906V25.9766C52.8906 24.4263 52.293 22.9317 51.1884 21.7889C50.0733 20.6353 48.597 20 47.0312 20H28.2812C27.6341 20 27.1094 20.5247 27.1094 21.1719V38.8672H25.9375C25.2903 38.8672 24.7656 39.3919 24.7656 40.0391V44.7266C24.7656 45.2058 25.0573 45.6366 25.5023 45.8146L36.4844 50.2074V58.8281C36.4844 59.2343 36.6947 59.6115 37.0402 59.825C37.3863 60.0389 37.8178 60.0576 38.1803 59.8763L42.8678 57.5326C43.2648 57.334 43.5156 56.9283 43.5156 56.4844V50.2074L54.4977 45.8146C54.9427 45.6366 55.2344 45.2057 55.2344 44.7266V40.0391C55.2344 39.3919 54.7097 38.8672 54.0625 38.8672ZM50.3081 24.6875H48.2031V22.5603C49.1592 22.9225 49.9359 23.7095 50.3081 24.6875ZM29.4531 22.3438H45.8594V25.8594C45.8594 26.5066 46.3841 27.0312 47.0312 27.0312H50.5469V38.8672H29.4531V22.3438ZM52.8906 43.9331L41.9085 48.3259C41.4636 48.5039 41.1719 48.9348 41.1719 49.414V55.76L38.8281 56.9319V49.4141C38.8281 48.9348 38.5364 48.504 38.0915 48.326L27.1094 43.9331V41.2109H52.8906V43.9331Z" fill="white"/>
<path d="M40 24.8047C36.7691 24.8047 34.1406 27.4332 34.1406 30.6641C34.1406 33.8899 36.7695 36.5234 40 36.5234C43.2309 36.5234 45.8594 33.8949 45.8594 30.6641C45.8594 27.4332 43.2309 24.8047 40 24.8047ZM38.8281 27.35V30.1787L36.828 32.1788C36.6079 31.7198 36.4844 31.2062 36.4844 30.6641C36.4844 29.1363 37.4641 27.8338 38.8281 27.35ZM40 34.1797C39.4579 34.1797 38.9442 34.0562 38.4852 33.8361L40.8287 31.4927C41.0484 31.2729 41.172 30.9748 41.172 30.664V27.35C42.5359 27.8338 43.5157 29.1363 43.5157 30.6641C43.5156 32.6026 41.9385 34.1797 40 34.1797Z" fill="white"/>
</svg>
