<svg width="80" height="80" viewBox="0 0 80 80" fill="none" xmlns="http://www.w3.org/2000/svg">
<path d="M41.1719 44.0687V42.1875C41.1719 41.5403 40.6472 41.0156 40 41.0156C39.3528 41.0156 38.8281 41.5403 38.8281 42.1875V44.0687C37.4641 44.5525 36.4844 45.8551 36.4844 47.3828C36.4844 49.3213 38.0615 50.8984 40 50.8984C41.9385 50.8984 43.5156 49.3213 43.5156 47.3828C43.5156 45.8551 42.5359 44.5525 41.1719 44.0687ZM40 48.5547C39.3538 48.5547 38.8281 48.029 38.8281 47.3828C38.8281 46.7366 39.3538 46.2109 40 46.2109C40.6462 46.2109 41.1719 46.7366 41.1719 47.3828C41.1719 48.029 40.6462 48.5547 40 48.5547Z" fill="white"/>
<path d="M58.8281 20H21.1719C20.5247 20 20 20.5247 20 21.1719V49.0625C20 49.7097 20.5247 50.2344 21.1719 50.2344H26.5246C28.3884 55.9058 33.724 59.998 40 60C46.276 59.998 51.6116 55.9058 53.4754 50.2344H58.8281C59.4753 50.2344 60 49.7097 60 49.0625V21.1719C60 20.5247 59.4753 20 58.8281 20ZM22.3438 22.3438H35.4666L33.9041 24.6875H22.3438V22.3438ZM31.1529 37.9672L32.6285 39.8474C31.3033 41.4798 30.5078 43.5588 30.5078 45.8203C30.5078 46.9516 30.7122 48.0777 31.1037 49.1323L29.0097 50.2128C28.4646 48.8539 28.1641 47.3716 28.1641 45.8202C28.1641 42.8095 29.2947 40.0582 31.1529 37.9672ZM51.8359 45.8203C51.8359 47.3716 51.5354 48.854 50.9904 50.2129L48.8964 49.1323C49.2879 48.0777 49.4923 46.9516 49.4923 45.8204C49.4923 43.5588 48.6968 41.4798 47.3716 39.8475L48.8472 37.9673C50.7053 40.0582 51.8359 42.8095 51.8359 45.8203ZM45.6735 38.2147C44.0897 37.0302 42.1253 36.3281 40 36.3281C37.8747 36.3281 35.9103 37.0302 34.3265 38.2147L32.88 36.3716C34.8627 34.8739 37.3294 33.9844 40 33.9844C42.6706 33.9844 45.1373 34.8739 47.1199 36.3716L45.6735 38.2147ZM40 57.6562C35.8599 57.6562 32.2102 55.5191 30.0942 52.2906L33.1585 50.7094C33.7248 50.4296 33.9621 49.6795 33.6596 49.1251C33.1234 48.0994 32.8516 46.9875 32.8516 45.8203C32.8516 41.8787 36.0584 38.6719 40 38.6719C43.9416 38.6719 47.1484 41.8787 47.1484 45.8203C47.1484 46.9875 46.8766 48.0994 46.3404 49.1251C46.0378 49.6796 46.2752 50.4296 46.8415 50.7094L49.9058 52.2906C47.7898 55.5191 44.1401 57.6562 40 57.6562ZM57.6562 47.8906H54.0281C54.1274 47.2146 54.1797 46.5234 54.1797 45.8203C54.1797 41.7192 52.4289 38.0199 49.6364 35.4285C47.0954 33.0712 43.7181 31.6437 40 31.6406C36.2818 31.6437 32.9046 33.0712 30.3636 35.4285C27.5711 38.0199 25.8203 41.7192 25.8203 45.8203C25.8203 46.5234 25.8726 47.2146 25.9719 47.8906H22.3438V27.0312H34.5312C34.9231 27.0312 35.289 26.8355 35.5062 26.5094L38.2834 22.3438H57.6562V47.8906Z" fill="white"/>
<path d="M44.7656 27.0312C45.4128 27.0312 45.9375 26.5066 45.9375 25.8594C45.9375 25.2122 45.4128 24.6875 44.7656 24.6875C44.1184 24.6875 43.5938 25.2122 43.5938 25.8594C43.5938 26.5066 44.1184 27.0312 44.7656 27.0312Z" fill="white"/>
<path d="M49.4531 27.0312C50.1003 27.0312 50.625 26.5066 50.625 25.8594C50.625 25.2122 50.1003 24.6875 49.4531 24.6875C48.8059 24.6875 48.2812 25.2122 48.2812 25.8594C48.2812 26.5066 48.8059 27.0312 49.4531 27.0312Z" fill="white"/>
<path d="M54.1406 27.0312C54.7878 27.0312 55.3125 26.5066 55.3125 25.8594C55.3125 25.2122 54.7878 24.6875 54.1406 24.6875C53.4934 24.6875 52.9688 25.2122 52.9688 25.8594C52.9688 26.5066 53.4934 27.0312 54.1406 27.0312Z" fill="white"/>
</svg>
