<svg width="80" height="80" viewBox="0 0 80 80" fill="none" xmlns="http://www.w3.org/2000/svg">
<path d="M55.9872 26.4795C53.9777 25.7892 52.3679 24.1702 51.6806 22.1487C51.2436 20.8633 50.0403 20 48.6859 20H31.236C29.8819 20 28.6783 20.8633 28.2413 22.1487C27.554 24.1702 25.9442 25.7892 23.9346 26.4795C22.6559 26.9189 21.7969 28.1259 21.7969 29.483V33.8974C21.7969 39.6579 23.5229 45.2045 26.7886 49.9377C29.7766 54.2685 33.894 57.6575 38.6963 59.7388C39.0982 59.913 39.5294 60 39.9609 60C40.3922 60 40.8234 59.913 41.2253 59.7388C46.0275 57.6578 50.145 54.2685 53.1329 49.9377C56.3986 45.2045 58.125 39.6576 58.125 33.8974V29.483C58.125 28.1259 57.2659 26.9189 55.9872 26.4795ZM55.7812 33.8974C55.7812 39.18 54.1983 44.2664 51.2036 48.6069C48.4653 52.576 44.6924 55.6818 40.2933 57.5882C40.0824 57.6797 39.8398 57.6801 39.6283 57.5882C35.2289 55.6818 31.4563 52.576 28.718 48.6069C25.7236 44.2667 24.1406 39.1803 24.1406 33.8974V29.483C24.1406 29.1266 24.364 28.8104 24.6964 28.6963C27.3865 27.7719 29.5413 25.6064 30.4602 22.9031C30.574 22.5687 30.8856 22.3438 31.236 22.3438H48.6859C49.0359 22.3438 49.3478 22.5687 49.4617 22.9031C50.3806 25.6064 52.5354 27.7719 55.2255 28.6963C55.5579 28.8104 55.7812 29.1266 55.7812 29.483V33.8974Z" fill="white"/>
<path d="M44.9402 35.1943H44.8606V31.8569C44.8606 29.1552 42.6624 26.957 39.9607 26.957C37.259 26.957 35.0608 29.1552 35.0608 31.8569V35.1943H34.9811C33.425 35.1943 32.1592 36.4605 32.1592 38.0166V44.761C32.1592 47.6589 34.517 50.017 37.4146 50.017H42.5068C45.4047 50.017 47.7622 47.6589 47.7622 44.761V38.0166C47.7622 36.4605 46.4963 35.1943 44.9402 35.1943ZM37.4045 31.8569C37.4045 30.4476 38.5514 29.3008 39.9607 29.3008C41.37 29.3008 42.5168 30.4476 42.5168 31.8569V35.1946H37.4045V31.8569ZM45.4185 44.761C45.4185 46.3668 44.1123 47.673 42.5068 47.673H37.4146C35.8091 47.673 34.5029 46.3668 34.5029 44.761V38.0166C34.5029 37.7529 34.7175 37.5384 34.9811 37.5384H44.9402C45.2039 37.5384 45.4185 37.7529 45.4185 38.0166V44.761Z" fill="white"/>
<path d="M39.9609 40.3262C39.3137 40.3262 38.7891 40.8508 38.7891 41.498V43.7121C38.7891 44.3594 39.3137 44.884 39.9609 44.884C40.6082 44.884 41.1328 44.3594 41.1328 43.7121V41.498C41.1328 40.8508 40.6082 40.3262 39.9609 40.3262Z" fill="white"/>
</svg>
