<svg width="80" height="80" viewBox="0 0 80 80" fill="none" xmlns="http://www.w3.org/2000/svg">
<path d="M56.7621 30.2993C56.7416 29.2193 56.722 28.1991 56.722 27.2121C56.722 26.4389 56.0953 25.812 55.3219 25.812C49.3341 25.812 44.7752 24.0912 40.9751 20.3964C40.4315 19.8678 39.5664 19.8679 39.023 20.3964C35.2233 24.0912 30.6651 25.812 24.6777 25.812C23.9045 25.812 23.2776 26.4389 23.2776 27.2121C23.2776 28.1993 23.2582 29.2199 23.2375 30.3C23.0456 40.3501 22.7827 54.1143 39.5405 59.9228C39.6891 59.9744 39.844 60.0001 39.999 60.0001C40.1539 60.0001 40.309 59.9744 40.4574 59.9228C57.2165 54.1141 56.954 40.3496 56.7621 30.2993ZM39.9991 57.1142C25.6272 51.8933 25.8445 40.4564 26.0373 30.3534C26.0489 29.7471 26.0601 29.1594 26.0679 28.5833C31.6758 28.3466 36.1603 26.6472 39.9991 23.3031C43.8384 26.6472 48.3236 28.3468 53.9318 28.5833C53.9397 29.1592 53.9509 29.7465 53.9625 30.3525C54.1551 40.4558 54.3722 51.8931 39.9991 57.1142Z" fill="white"/>
<path d="M44.8204 35.1366L38.0627 41.8938L35.1791 39.0102C34.6323 38.4636 33.7458 38.4636 33.1992 39.0102C32.6524 39.5572 32.6524 40.4435 33.1992 40.9903L37.0728 44.8639C37.3461 45.1372 37.7045 45.2739 38.0627 45.2739C38.421 45.2739 38.7794 45.1372 39.0527 44.8639L46.8001 37.1167C47.3471 36.5699 47.3471 35.6833 46.8003 35.1367C46.2537 34.59 45.3672 34.5898 44.8204 35.1366Z" fill="white"/>
</svg>
