<svg width="80" height="80" viewBox="0 0 80 80" fill="none" xmlns="http://www.w3.org/2000/svg">
<path d="M57.1285 40.664C56.866 40.2605 56.866 39.7393 57.1285 39.336L58.5892 37.0908C59.92 35.0454 59.0231 32.2977 56.7491 31.4274L54.2476 30.4696C53.7981 30.2974 53.4917 29.8758 53.4669 29.3951L53.329 26.7201C53.2034 24.2836 50.863 22.5871 48.5113 23.2199L45.9247 23.9154C45.4601 24.0402 44.9642 23.8792 44.6617 23.5049L42.9777 21.4217C41.444 19.5246 38.554 19.5276 37.0228 21.4217L35.3388 23.505C35.0362 23.8792 34.5406 24.0404 34.0758 23.9155L31.489 23.22C29.1332 22.5864 26.7967 24.2878 26.6713 26.7201L26.5334 29.3951C26.5086 29.8758 26.2022 30.2975 25.7528 30.4696L23.2514 31.4274C20.9725 32.2997 20.0831 35.0495 21.4111 37.0908L22.872 39.3361C23.1344 39.7394 23.1344 40.2605 22.8719 40.664L21.4111 42.9093C20.0805 44.9544 20.977 47.7021 23.2512 48.5726L25.7528 49.5304C26.2022 49.7026 26.5087 50.1242 26.5334 50.6049L26.6713 53.2799C26.7969 55.7162 29.1371 57.4126 31.489 56.7801L34.0756 56.0846C34.5404 55.9599 35.0362 56.1208 35.3388 56.4951L37.0226 58.5782C38.5565 60.4759 41.4466 60.472 42.9775 58.5782L44.6615 56.495C44.964 56.1208 45.4597 55.9598 45.9245 56.0846L48.5113 56.7801C50.8673 57.4137 53.2036 55.7119 53.329 53.2799L53.4669 50.6049C53.4917 50.1243 53.798 49.7026 54.2475 49.5305L56.7489 48.5727C59.0278 47.7003 59.9172 44.9503 58.5892 42.9092L57.1285 40.664ZM55.8154 46.1343L53.3139 47.0921C51.9007 47.6332 50.9373 48.9592 50.8594 50.4704L50.7215 53.1454C50.6815 53.9207 49.9374 54.4593 49.1893 54.2586L46.6025 53.5631C45.1412 53.1699 43.5821 53.6767 42.631 54.8536L40.947 56.9367C40.4591 57.5402 39.5401 57.539 39.0532 56.9367L37.3694 54.8536C36.632 53.9414 35.5295 53.4319 34.3903 53.4319C34.0599 53.4319 33.7263 53.4747 33.3977 53.5631L30.8109 54.2586C30.0613 54.4599 29.3187 53.9189 29.2787 53.1454L29.1408 50.4704C29.0629 48.9592 28.0994 47.6331 26.6863 47.0921L24.1847 46.1342C23.46 45.8568 23.1773 44.9823 23.5995 44.3332L25.0603 42.0879C25.8856 40.8195 25.8856 39.1803 25.0603 37.912L23.5995 35.6669C23.1765 35.0162 23.4615 34.1428 24.1848 33.8657L26.6863 32.9079C28.0995 32.3668 29.0629 31.0407 29.1408 29.5296L29.2787 26.8546C29.3186 26.0794 30.0628 25.5405 30.8109 25.7414L33.3977 26.4369C34.8588 26.8298 36.4179 26.3232 37.3692 25.1464L39.0533 23.0632C39.5412 22.4598 40.4603 22.461 40.9471 23.0632L42.6311 25.1464C43.5825 26.3232 45.1411 26.83 46.6027 26.4369L49.1895 25.7414C49.9391 25.5402 50.6816 26.081 50.7216 26.8546L50.8595 29.5296C50.9374 31.0407 51.9009 32.3669 53.314 32.9079L55.8157 33.8658C56.5404 34.1433 56.8232 35.0177 56.4008 35.6668L54.94 37.912C54.1148 39.1803 54.1148 40.8195 54.94 42.0879L56.4008 44.3332C56.8239 44.9836 56.5388 45.8573 55.8154 46.1343Z" fill="white"/>
<path d="M41.2472 38.726V33.556C42.6215 33.8915 43.8582 34.8227 43.8582 36.0107C43.8582 36.7317 44.4427 37.3163 45.1638 37.3163C45.8848 37.3163 46.4693 36.7317 46.4693 36.0107C46.4693 33.6004 44.3998 31.3983 41.2472 30.8929V29.4833C41.2472 28.7623 40.6627 28.1777 39.9417 28.1777C39.2207 28.1777 38.6361 28.7623 38.6361 29.4833V30.893C35.4058 31.4109 33.4141 33.6641 33.4141 36.0108C33.4141 38.4156 35.4767 40.622 38.6361 41.1286V46.2985C37.2459 45.959 36.0251 45.0217 36.0251 43.8439C36.0251 43.1229 35.4406 42.5384 34.7196 42.5384C33.9986 42.5384 33.4141 43.1229 33.4141 43.8439C33.4141 45.2896 34.1619 46.6797 35.4658 47.6576C36.3565 48.3256 37.4523 48.7718 38.6361 48.9617V50.3714C38.6361 51.0924 39.2207 51.677 39.9417 51.677C40.6627 51.677 41.2472 51.0924 41.2472 50.3714V48.9617C44.4337 48.4508 46.4693 46.2275 46.4693 43.8439C46.4693 41.4335 44.3998 39.2315 41.2472 38.726ZM38.6362 38.4655C37.246 38.126 36.0252 37.1886 36.0252 36.0107C36.0252 34.8322 37.2464 33.8953 38.6362 33.556V38.4655ZM41.2472 46.2986V41.3891C42.6215 41.7247 43.8582 42.6558 43.8582 43.8439C43.8583 45.0853 42.539 45.9831 41.2472 46.2986Z" fill="white"/>
</svg>
