<svg width="80" height="80" viewBox="0 0 80 80" fill="none" xmlns="http://www.w3.org/2000/svg">
<path d="M55 60H25C24.0058 59.9989 23.0526 59.6035 22.3496 58.9004C21.6465 58.1974 21.2511 57.2442 21.25 56.25V26.25C21.25 25.9185 21.3817 25.6005 21.6161 25.3661C21.8505 25.1317 22.1685 25 22.5 25C22.8315 25 23.1495 25.1317 23.3839 25.3661C23.6183 25.6005 23.75 25.9185 23.75 26.25V56.25C23.7504 56.5814 23.8823 56.8991 24.1166 57.1334C24.3509 57.3677 24.6686 57.4996 25 57.5H55C55.3315 57.5 55.6495 57.6317 55.8839 57.8661C56.1183 58.1005 56.25 58.4185 56.25 58.75C56.25 59.0815 56.1183 59.3995 55.8839 59.6339C55.6495 59.8683 55.3315 60 55 60Z" fill="white"/>
<path d="M52.5 60H47.5C47.1685 60 46.8505 59.8683 46.6161 59.6339C46.3817 59.3995 46.25 59.0815 46.25 58.75V46.25C46.25 45.9185 46.3817 45.6005 46.6161 45.3661C46.8505 45.1317 47.1685 45 47.5 45H52.5C52.8315 45 53.1495 45.1317 53.3839 45.3661C53.6183 45.6005 53.75 45.9185 53.75 46.25V58.75C53.75 59.0815 53.6183 59.3995 53.3839 59.6339C53.1495 59.8683 52.8315 60 52.5 60ZM48.75 57.5H51.25V47.5H48.75V57.5Z" fill="white"/>
<path d="M42.5 60H37.5C37.1685 60 36.8505 59.8683 36.6161 59.6339C36.3817 59.3995 36.25 59.0815 36.25 58.75V48.75C36.25 48.4185 36.3817 48.1005 36.6161 47.8661C36.8505 47.6317 37.1685 47.5 37.5 47.5H42.5C42.8315 47.5 43.1495 47.6317 43.3839 47.8661C43.6183 48.1005 43.75 48.4185 43.75 48.75V58.75C43.75 59.0815 43.6183 59.3995 43.3839 59.6339C43.1495 59.8683 42.8315 60 42.5 60ZM38.75 57.5H41.25V50H38.75V57.5Z" fill="white"/>
<path d="M32.5 60H27.5C27.1685 60 26.8505 59.8683 26.6161 59.6339C26.3817 59.3995 26.25 59.0815 26.25 58.75V51.25C26.25 50.9185 26.3817 50.6005 26.6161 50.3661C26.8505 50.1317 27.1685 50 27.5 50H32.5C32.8315 50 33.1495 50.1317 33.3839 50.3661C33.6183 50.6005 33.75 50.9185 33.75 51.25V58.75C33.75 59.0815 33.6183 59.3995 33.3839 59.6339C33.1495 59.8683 32.8315 60 32.5 60ZM28.75 57.5H31.25V52.5H28.75V57.5Z" fill="white"/>
<path d="M30 48.7501C29.7528 48.75 29.5112 48.6767 29.3057 48.5393C29.1001 48.402 28.94 48.2068 28.8454 47.9784C28.7508 47.75 28.726 47.4987 28.7742 47.2563C28.8225 47.0139 28.9415 46.7912 29.1162 46.6163L34.1162 41.6163C34.3018 41.431 34.541 41.3087 34.7999 41.2666C35.0588 41.2245 35.3244 41.2649 35.5591 41.382L39.7534 43.4791L44.1159 39.1166C44.3014 38.9312 44.5406 38.8089 44.7995 38.7668C45.0584 38.7248 45.324 38.7651 45.5587 38.8822L49.8275 41.0166L56.7 35.29C56.8255 35.1809 56.9716 35.098 57.1296 35.0461C57.2876 34.9942 57.4544 34.9743 57.6202 34.9877C57.7859 35.0011 57.9474 35.0474 58.095 35.1239C58.2427 35.2005 58.3736 35.3057 58.48 35.4335C58.5865 35.5612 58.6664 35.709 58.715 35.868C58.7637 36.0271 58.7801 36.1942 58.7633 36.3597C58.7466 36.5251 58.697 36.6856 58.6174 36.8316C58.5378 36.9777 58.4299 37.1064 58.3 37.2102L50.8 43.4602C50.6132 43.6157 50.3852 43.7135 50.1439 43.7415C49.9025 43.7696 49.6582 43.7267 49.4407 43.6182L45.2465 41.5211L40.884 45.8836C40.6984 46.069 40.4593 46.1914 40.2003 46.2335C39.9414 46.2756 39.6758 46.2351 39.4411 46.118L35.2469 44.0208L30.8844 48.3833C30.7684 48.4998 30.6306 48.5921 30.4788 48.6551C30.327 48.718 30.1643 48.7503 30 48.7501Z" fill="white"/>
<path d="M36.25 40C34.2722 40 32.3388 39.4135 30.6943 38.3147C29.0498 37.2159 27.7681 35.6541 27.0112 33.8268C26.2543 31.9996 26.0563 29.9889 26.4422 28.0491C26.828 26.1093 27.7804 24.3275 29.1789 22.9289C30.5775 21.5304 32.3593 20.578 34.2991 20.1922C36.2389 19.8063 38.2496 20.0043 40.0768 20.7612C41.9041 21.5181 43.4659 22.7998 44.5647 24.4443C45.6635 26.0888 46.25 28.0222 46.25 30C46.247 32.6512 45.1924 35.193 43.3177 37.0677C41.443 38.9424 38.9012 39.997 36.25 40ZM36.25 22.5C34.7666 22.5 33.3166 22.9399 32.0832 23.764C30.8499 24.5881 29.8886 25.7594 29.3209 27.1299C28.7533 28.5003 28.6047 30.0083 28.8941 31.4632C29.1835 32.918 29.8978 34.2544 30.9467 35.3033C31.9956 36.3522 33.332 37.0665 34.7868 37.3559C36.2417 37.6453 37.7497 37.4968 39.1201 36.9291C40.4906 36.3614 41.6619 35.4002 42.486 34.1668C43.3101 32.9334 43.75 31.4834 43.75 30C43.7478 28.0116 42.9569 26.1052 41.5509 24.6991C40.1448 23.2931 38.2385 22.5022 36.25 22.5Z" fill="white"/>
<path d="M36.875 35H33.75C33.4185 35 33.1005 34.8683 32.8661 34.6339C32.6317 34.3995 32.5 34.0815 32.5 33.75C32.5 33.4185 32.6317 33.1005 32.8661 32.8661C33.1005 32.6317 33.4185 32.5 33.75 32.5H36.875C37.0408 32.5 37.1997 32.4342 37.3169 32.3169C37.4342 32.1997 37.5 32.0408 37.5 31.875C37.5 31.7092 37.4342 31.5503 37.3169 31.4331C37.1997 31.3158 37.0408 31.25 36.875 31.25H35.625C34.7962 31.25 34.0013 30.9208 33.4153 30.3347C32.8292 29.7487 32.5 28.9538 32.5 28.125C32.5 27.2962 32.8292 26.5013 33.4153 25.9153C34.0013 25.3292 34.7962 25 35.625 25H38.75C39.0815 25 39.3995 25.1317 39.6339 25.3661C39.8683 25.6005 40 25.9185 40 26.25C40 26.5815 39.8683 26.8995 39.6339 27.1339C39.3995 27.3683 39.0815 27.5 38.75 27.5H35.625C35.4592 27.5 35.3003 27.5658 35.1831 27.6831C35.0658 27.8003 35 27.9592 35 28.125C35 28.2908 35.0658 28.4497 35.1831 28.5669C35.3003 28.6842 35.4592 28.75 35.625 28.75H36.875C37.7038 28.75 38.4987 29.0792 39.0847 29.6653C39.6708 30.2513 40 31.0462 40 31.875C40 32.7038 39.6708 33.4987 39.0847 34.0847C38.4987 34.6708 37.7038 35 36.875 35Z" fill="white"/>
<path d="M36.25 27.5C35.9185 27.5 35.6005 27.3683 35.3661 27.1339C35.1317 26.8995 35 26.5815 35 26.25V25C35 24.6685 35.1317 24.3505 35.3661 24.1161C35.6005 23.8817 35.9185 23.75 36.25 23.75C36.5815 23.75 36.8995 23.8817 37.1339 24.1161C37.3683 24.3505 37.5 24.6685 37.5 25V26.25C37.5 26.5815 37.3683 26.8995 37.1339 27.1339C36.8995 27.3683 36.5815 27.5 36.25 27.5Z" fill="white"/>
<path d="M36.25 36.25C35.9185 36.25 35.6005 36.1183 35.3661 35.8839C35.1317 35.6495 35 35.3315 35 35V33.75C35 33.4185 35.1317 33.1005 35.3661 32.8661C35.6005 32.6317 35.9185 32.5 36.25 32.5C36.5815 32.5 36.8995 32.6317 37.1339 32.8661C37.3683 33.1005 37.5 33.4185 37.5 33.75V35C37.5 35.3315 37.3683 35.6495 37.1339 35.8839C36.8995 36.1183 36.5815 36.25 36.25 36.25Z" fill="white"/>
</svg>
