<svg width="80" height="80" viewBox="0 0 80 80" fill="none" xmlns="http://www.w3.org/2000/svg">
<path d="M56.4844 36.4844C54.9566 36.4844 53.6541 37.4641 53.1703 38.8281H50.4814C50.2558 36.797 49.4512 34.9381 48.2366 33.4206L50.0862 31.5711C51.399 32.1966 53.0106 31.9612 54.0869 30.8849C55.4609 29.511 55.4609 27.2871 54.0869 25.913C52.7163 24.5423 50.4858 24.5423 49.1151 25.913C48.0188 27.0093 47.8105 28.6263 48.4275 29.9152L46.5795 31.7634C45.0619 30.5487 43.2031 29.7441 41.1719 29.5186V26.8297C42.5359 26.3459 43.5156 25.0434 43.5156 23.5156C43.5156 21.5771 41.9385 20 40 20C38.0615 20 36.4844 21.5771 36.4844 23.5156C36.4844 25.0434 37.4641 26.3459 38.8281 26.8297V29.5186C36.7969 29.7442 34.9381 30.5487 33.4206 31.7634L31.5726 29.9152C32.1943 28.6165 31.9733 27.0013 30.885 25.913C29.5144 24.5423 27.2839 24.5423 25.9132 25.913C24.5392 27.287 24.5391 29.5109 25.9132 30.8849C26.9945 31.9663 28.607 32.1934 29.9138 31.571L31.7634 33.4206C30.5489 34.9381 29.7443 36.7969 29.5187 38.8281H26.8297C26.3459 37.4641 25.0434 36.4844 23.5156 36.4844C21.5771 36.4844 20 38.0615 20 40C20 41.9385 21.5771 43.5156 23.5156 43.5156C25.0434 43.5156 26.3459 42.5359 26.8297 41.1719H29.5186C29.7442 43.203 30.5487 45.0619 31.7634 46.5794L29.9138 48.429C28.6072 47.8066 26.9933 48.0348 25.9131 49.1151C24.5391 50.489 24.5391 52.7129 25.9131 54.087C27.2849 55.4588 29.5154 55.4566 30.8849 54.087C31.981 52.9909 32.1896 51.3738 31.5725 50.0848L33.4205 48.2366C34.9381 49.4512 36.7969 50.2559 38.8281 50.4814V53.1703C37.4641 53.6541 36.4844 54.9566 36.4844 56.4844C36.4844 58.4229 38.0615 60 40 60C41.9385 60 43.5156 58.4229 43.5156 56.4844C43.5156 54.9566 42.5359 53.6541 41.1719 53.1703V50.4814C43.2031 50.2559 45.0619 49.4512 46.5794 48.2366L48.4274 50.0848C47.8057 51.3836 48.0268 52.9987 49.115 54.087C50.4868 55.4588 52.7173 55.4566 54.0868 54.087C55.4608 52.713 55.4609 50.4891 54.0868 49.1151C53.0066 48.0348 51.3927 47.8066 50.0862 48.429L48.2366 46.5794C49.4513 45.0619 50.2559 43.2031 50.4813 41.1719H53.1702C53.654 42.5359 54.9566 43.5156 56.4843 43.5156C58.4228 43.5156 59.9999 41.9385 59.9999 40C59.9999 38.0615 58.4229 36.4844 56.4844 36.4844ZM50.7723 27.5704C51.2292 27.1135 51.9727 27.1134 52.4296 27.5704C52.8876 28.0284 52.8877 28.7696 52.4296 29.2277C51.9727 29.6846 51.2292 29.6845 50.7723 29.2277C50.3143 28.7696 50.3143 28.0284 50.7723 27.5704ZM29.2277 29.2277C28.7709 29.6846 28.0274 29.6845 27.5705 29.2277C27.1125 28.7697 27.1124 28.0284 27.5705 27.5704C28.0273 27.1135 28.7709 27.1134 29.2277 27.5704C29.6857 28.0284 29.6857 28.7696 29.2277 29.2277ZM23.5156 41.1719C22.8695 41.1719 22.3438 40.6462 22.3438 40C22.3438 39.3538 22.8695 38.8281 23.5156 38.8281C24.1618 38.8281 24.6875 39.3538 24.6875 40C24.6875 40.6462 24.1618 41.1719 23.5156 41.1719ZM29.2277 52.4296C28.7708 52.8866 28.0273 52.8865 27.5705 52.4296C27.1125 51.9716 27.1124 51.2304 27.5705 50.7723C28.0273 50.3155 28.7709 50.3154 29.2277 50.7723C29.6857 51.2304 29.6857 51.9716 29.2277 52.4296ZM50.7723 50.7723C51.2292 50.3155 51.9727 50.3154 52.4296 50.7723C52.8876 51.2303 52.8877 51.9716 52.4296 52.4296C51.9727 52.8866 51.2292 52.8865 50.7723 52.4296C50.3143 51.9716 50.3143 51.2304 50.7723 50.7723ZM40 22.3438C40.6462 22.3438 41.1719 22.8695 41.1719 23.5156C41.1719 24.1618 40.6462 24.6875 40 24.6875C39.3538 24.6875 38.8281 24.1618 38.8281 23.5156C38.8281 22.8695 39.3538 22.3438 40 22.3438ZM40 57.6562C39.3538 57.6562 38.8281 57.1305 38.8281 56.4844C38.8281 55.8382 39.3538 55.3125 40 55.3125C40.6462 55.3125 41.1719 55.8382 41.1719 56.4844C41.1719 57.1305 40.6462 57.6562 40 57.6562ZM40 48.2031C38.086 48.2031 36.3232 47.5441 34.9261 46.4412C35.9631 44.6414 37.877 43.5156 40 43.5156C42.123 43.5156 44.037 44.6414 45.0739 46.4412C43.6768 47.5441 41.9141 48.2031 40 48.2031ZM37.6562 38.8281C37.6562 37.5358 38.7077 36.4844 40 36.4844C41.2923 36.4844 42.3438 37.5358 42.3438 38.8281C42.3438 40.1205 41.2923 41.1719 40 41.1719C38.7077 41.1719 37.6562 40.1205 37.6562 38.8281ZM46.7323 44.6813C45.9058 43.4909 44.7868 42.5532 43.495 41.9475C44.236 41.1182 44.6875 40.0251 44.6875 38.8281C44.6875 36.2434 42.5847 34.1406 40 34.1406C37.4153 34.1406 35.3125 36.2434 35.3125 38.8281C35.3125 40.0251 35.7641 41.1182 36.5051 41.9475C35.2133 42.5532 34.0943 43.4909 33.2678 44.6813C32.3412 43.3528 31.7969 41.7389 31.7969 40C31.7969 35.4768 35.4768 31.7969 40 31.7969C44.5232 31.7969 48.2031 35.4768 48.2031 40C48.2031 41.7389 47.6589 43.3528 46.7323 44.6813ZM56.4844 41.1719C55.8382 41.1719 55.3125 40.6462 55.3125 40C55.3125 39.3538 55.8382 38.8281 56.4844 38.8281C57.1305 38.8281 57.6562 39.3538 57.6562 40C57.6562 40.6462 57.1305 41.1719 56.4844 41.1719Z" fill="white"/>
</svg>
