<svg width="80" height="80" viewBox="0 0 80 80" fill="none" xmlns="http://www.w3.org/2000/svg">
<path d="M58.2454 33.8345L54.3651 23.1735C53.701 21.349 51.6836 20.4083 49.8591 21.0723L35.2371 26.3943C34.953 26.4977 34.7198 26.707 34.5863 26.9783L33.6096 28.9642L31.6677 28.0586C31.3859 27.9273 31.0636 27.9131 30.7716 28.0195L23.4348 30.6899C21.9107 31.2447 21.0009 32.7519 21.131 34.295C20.4361 34.9377 20 35.8563 20 36.8752V55.6252C20 57.5669 21.574 59.1409 23.5156 59.1409H34.5312C34.842 59.1409 35.1401 59.0174 35.3598 58.7977L36.875 57.2825L38.3902 58.7977C38.6099 59.0174 38.908 59.1409 39.2188 59.1409H56.4844C58.426 59.1409 60 57.567 60 55.6253V36.8753C60 35.5781 59.2934 34.4437 58.2454 33.8345ZM24.2365 32.8923L31.1171 30.388L33.6812 31.5837C34.2677 31.8572 34.9649 31.6034 35.2385 31.0169L36.4343 28.4527L50.6607 23.2747C51.2689 23.0534 51.9413 23.3669 52.1627 23.9751L55.5784 33.3596H39.2189C38.8935 33.3596 38.5991 33.4923 38.3867 33.7064L36.875 35.218L35.3598 33.7028C35.1401 33.483 34.842 33.3595 34.5312 33.3595H23.6528C23.7872 33.1516 23.9866 32.9833 24.2365 32.8923ZM57.6562 55.6252C57.6562 56.2714 57.1305 56.7971 56.4844 56.7971H39.7041L37.7036 54.7966C37.246 54.3391 36.504 54.3391 36.0463 54.7966L34.0458 56.7971H23.5156C22.8695 56.7971 22.3438 56.2714 22.3438 55.6252V36.8752C22.3438 36.2291 22.8695 35.7034 23.5156 35.7034H34.0459L36.0464 37.7038C36.5041 38.1616 37.2459 38.1613 37.7036 37.7039L39.7044 35.7034H56.4844C57.1305 35.7034 57.6562 36.2291 57.6562 36.8752V55.6252Z" fill="white"/>
<path d="M36.875 40.3906C36.2278 40.3906 35.7031 40.9153 35.7031 41.5625V43.9062C35.7031 44.5534 36.2278 45.0781 36.875 45.0781C37.5222 45.0781 38.0469 44.5534 38.0469 43.9062V41.5625C38.0469 40.9153 37.5222 40.3906 36.875 40.3906Z" fill="white"/>
<path d="M36.875 47.4219C36.2278 47.4219 35.7031 47.9466 35.7031 48.5938V50.9375C35.7031 51.5847 36.2278 52.1094 36.875 52.1094C37.5222 52.1094 38.0469 51.5847 38.0469 50.9375V48.5938C38.0469 47.9466 37.5222 47.4219 36.875 47.4219Z" fill="white"/>
<path d="M32.1875 42.7344H25.9375C25.2903 42.7344 24.7656 43.2591 24.7656 43.9062C24.7656 44.5534 25.2903 45.0781 25.9375 45.0781H32.1875C32.8347 45.0781 33.3594 44.5534 33.3594 43.9062C33.3594 43.2591 32.8347 42.7344 32.1875 42.7344Z" fill="white"/>
<path d="M32.1875 47.4219H25.9375C25.2903 47.4219 24.7656 47.9466 24.7656 48.5938C24.7656 49.2409 25.2903 49.7656 25.9375 49.7656H32.1875C32.8347 49.7656 33.3594 49.2409 33.3594 48.5938C33.3594 47.9466 32.8347 47.4219 32.1875 47.4219Z" fill="white"/>
<path d="M32.1875 52.1094H25.9375C25.2903 52.1094 24.7656 52.6341 24.7656 53.2812C24.7656 53.9284 25.2903 54.4531 25.9375 54.4531H32.1875C32.8347 54.4531 33.3594 53.9284 33.3594 53.2812C33.3594 52.6341 32.8347 52.1094 32.1875 52.1094Z" fill="white"/>
<path d="M54.0625 52.1094H41.5625C40.9153 52.1094 40.3906 52.6341 40.3906 53.2812C40.3906 53.9284 40.9153 54.4531 41.5625 54.4531H54.0625C54.7097 54.4531 55.2344 53.9284 55.2344 53.2812C55.2344 52.6341 54.7097 52.1094 54.0625 52.1094Z" fill="white"/>
<path d="M32.1875 38.0469H25.9375C25.2903 38.0469 24.7656 38.5716 24.7656 39.2188C24.7656 39.8659 25.2903 40.3906 25.9375 40.3906H32.1875C32.8347 40.3906 33.3594 39.8659 33.3594 39.2188C33.3594 38.5716 32.8347 38.0469 32.1875 38.0469Z" fill="white"/>
<path d="M53.2339 38.3901L50.4522 41.1718H46.25C45.6028 41.1718 45.0781 41.6965 45.0781 42.3437C45.0781 42.9909 45.6028 43.5156 46.25 43.5156H48.1084L44.2021 47.4218H41.5625C40.9153 47.4218 40.3906 47.9465 40.3906 48.5937C40.3906 49.2409 40.9153 49.7656 41.5625 49.7656H44.6875C44.9984 49.7656 45.2964 49.6421 45.5161 49.4223L49.7656 45.1729V47.0312C49.7656 47.6784 50.2903 48.2031 50.9375 48.2031C51.5847 48.2031 52.1094 47.6784 52.1094 47.0312V42.8291L54.8911 40.0474C55.3487 39.5898 55.3487 38.8478 54.8911 38.3901C54.4335 37.9325 53.6915 37.9325 53.2339 38.3901Z" fill="white"/>
</svg>
