<svg width="80" height="80" viewBox="0 0 80 80" fill="none" xmlns="http://www.w3.org/2000/svg">
<path d="M0 30C0 13.4315 13.4315 0 30 0H50C66.5685 0 80 13.4315 80 30V50C80 66.5685 66.5685 80 50 80H30C13.4315 80 0 66.5685 0 50V30Z" fill="url(#paint0_linear_262_2193)"/>
<path d="M42.5107 20C41.8636 20 41.3389 20.5252 41.3389 21.1719V37.4896C41.3389 38.1368 41.8636 38.6615 42.5107 38.6615H58.8285C59.4757 38.6615 60.0004 38.1363 60.0004 37.4896C60.0003 27.8459 52.1544 20.0001 42.5107 20ZM43.6826 36.3177V22.3887C51.1011 22.9595 57.0409 28.8992 57.6117 36.3177H43.6826Z" fill="#23FBB2"/>
<path d="M54.9791 42.5104C54.9791 41.8631 54.4539 41.3385 53.8073 41.3385H38.6615V26.1927C38.6615 25.5456 38.1368 25.0209 37.4896 25.0209C27.8458 25.0209 20 32.8667 20 42.5104C20 52.1542 27.8458 60 37.4896 60C47.1488 60 54.9791 52.1697 54.9791 42.5104C54.9791 42.5105 54.9791 42.5105 54.9791 42.5104V42.5104ZM38.6615 45.3396L47.3382 54.0163C44.9678 56.0473 41.963 57.3588 38.6615 57.6115V45.3396ZM36.3177 57.6114C28.5121 57.0109 22.3438 50.4674 22.3438 42.5104C22.3438 34.5535 28.5121 28.0099 36.3177 27.4095V57.6114ZM48.9955 52.3591L40.3187 43.6823H52.5906C52.338 46.9838 51.0264 49.9886 48.9955 52.3591V52.3591Z" fill="#3A98FF"/>
</svg>
