<svg width="80" height="80" viewBox="0 0 80 80" fill="none" xmlns="http://www.w3.org/2000/svg">
<path d="M54.4347 52.2938C38.2428 59.9998 28.1939 53.5524 21.7613 49.6364C21.3632 49.3896 20.6867 49.6941 21.2737 50.3684C23.4167 52.9668 30.4399 59.2299 39.6071 59.2299C48.7807 59.2299 54.2381 54.2244 54.9208 53.3512C55.5989 52.4854 55.1199 52.0078 54.4346 52.2938H54.4347ZM58.9822 49.7824C58.5474 49.2162 56.3382 49.1107 54.9479 49.2815C53.5554 49.4473 51.4653 50.2983 51.647 50.8093C51.7402 51.0007 51.9306 50.9149 52.8871 50.8289C53.8463 50.7332 56.5334 50.3941 57.0933 51.126C57.6559 51.863 56.2363 55.3739 55.9771 55.9401C55.7266 56.5063 56.0728 56.6523 56.5433 56.2752C57.0073 55.8982 57.8474 54.922 58.4112 53.5404C58.9711 52.1513 59.3125 50.2136 58.982 49.7824H58.9822Z" fill="white"/>
<path fill-rule="evenodd" clip-rule="evenodd" d="M43.5475 36.57C43.5475 38.5919 43.5986 40.2781 42.5766 42.0737C41.7517 43.5337 40.4451 44.4315 38.9852 44.4315C36.9924 44.4315 35.8318 42.9132 35.8318 40.6723C35.8318 36.2487 39.7953 35.4458 43.5475 35.4458V36.57ZM48.7812 49.2201C48.4381 49.5266 47.9417 49.5486 47.5549 49.3441C45.8322 47.9135 45.5256 47.2492 44.5767 45.8842C41.7299 48.7894 39.7152 49.658 36.0217 49.658C31.6565 49.658 28.2549 46.9644 28.2549 41.5701C28.2549 37.3584 30.5398 34.4896 33.7879 33.0882C36.6056 31.8471 40.54 31.6282 43.5475 31.2852V30.6136C43.5475 29.3799 43.6423 27.92 42.9197 26.8544C42.2846 25.8981 41.0729 25.5039 40.0071 25.5039C38.029 25.5039 36.2625 26.5185 35.8318 28.6207C35.7441 29.088 35.4011 29.5479 34.934 29.5698L29.8972 29.0297C29.474 28.9346 29.0068 28.5916 29.1236 27.9419C30.2842 21.8396 35.7952 20 40.7296 20C43.2553 20 46.5546 20.6716 48.5475 22.5842C51.0731 24.9418 50.8322 28.0879 50.8322 31.5114V39.5993C50.8322 42.03 51.8395 43.0957 52.7884 44.4097C53.1242 44.8768 53.1972 45.439 52.7738 45.7892C51.7154 46.6724 49.8321 48.3149 48.7956 49.2347L48.781 49.2201" fill="white"/>
<path d="M54.4347 52.2938C38.2428 59.9998 28.1939 53.5524 21.7613 49.6364C21.3632 49.3896 20.6867 49.6941 21.2737 50.3684C23.4167 52.9668 30.4399 59.2299 39.6071 59.2299C48.7807 59.2299 54.2381 54.2244 54.9208 53.3512C55.5989 52.4854 55.1199 52.0078 54.4346 52.2938H54.4347ZM58.9822 49.7824C58.5474 49.2162 56.3382 49.1107 54.9479 49.2815C53.5554 49.4473 51.4653 50.2983 51.647 50.8093C51.7402 51.0007 51.9306 50.9149 52.8871 50.8289C53.8463 50.7332 56.5334 50.3941 57.0933 51.126C57.6559 51.863 56.2363 55.3739 55.9771 55.9401C55.7266 56.5063 56.0728 56.6523 56.5433 56.2752C57.0073 55.8982 57.8474 54.922 58.4112 53.5404C58.9711 52.1513 59.3125 50.2136 58.982 49.7824H58.9822Z" fill="white"/>
<path fill-rule="evenodd" clip-rule="evenodd" d="M43.5475 36.57C43.5475 38.5919 43.5986 40.2781 42.5766 42.0737C41.7517 43.5337 40.4451 44.4315 38.9852 44.4315C36.9924 44.4315 35.8318 42.9132 35.8318 40.6723C35.8318 36.2487 39.7953 35.4458 43.5475 35.4458V36.57ZM48.7812 49.2201C48.4381 49.5266 47.9417 49.5486 47.5549 49.3441C45.8322 47.9135 45.5256 47.2492 44.5767 45.8842C41.7299 48.7894 39.7152 49.658 36.0217 49.658C31.6565 49.658 28.2549 46.9644 28.2549 41.5701C28.2549 37.3584 30.5398 34.4896 33.7879 33.0882C36.6056 31.8471 40.54 31.6282 43.5475 31.2852V30.6136C43.5475 29.3799 43.6423 27.92 42.9197 26.8544C42.2846 25.8981 41.0729 25.5039 40.0071 25.5039C38.029 25.5039 36.2625 26.5185 35.8318 28.6207C35.7441 29.088 35.4011 29.5479 34.934 29.5698L29.8972 29.0297C29.474 28.9346 29.0068 28.5916 29.1236 27.9419C30.2842 21.8396 35.7952 20 40.7296 20C43.2553 20 46.5546 20.6716 48.5475 22.5842C51.0731 24.9418 50.8322 28.0879 50.8322 31.5114V39.5993C50.8322 42.03 51.8395 43.0957 52.7884 44.4097C53.1242 44.8768 53.1972 45.439 52.7738 45.7892C51.7154 46.6724 49.8321 48.3149 48.7956 49.2347L48.781 49.2201" fill="white"/>
</svg>
