<svg width="80" height="80" viewBox="0 0 80 80" fill="none" xmlns="http://www.w3.org/2000/svg">
<path fill-rule="evenodd" clip-rule="evenodd" d="M38.3203 24.8107C30.6719 25.6472 24.7204 32.1282 24.7204 39.9994C24.7204 43.6136 25.9752 46.9347 28.0729 49.5509L38.3203 39.3035V24.8107ZM30.4488 51.9268C32.654 53.695 35.36 54.8643 38.3203 55.1881V44.0553L30.4488 51.9268ZM41.6803 55.1881C44.6406 54.8643 47.3467 53.695 49.5519 51.9268L41.6803 44.0553V55.1881ZM51.9278 49.5509C54.0255 46.9348 55.2803 43.6136 55.2803 39.9994C55.2803 32.1282 49.3288 25.6471 41.6803 24.8107V39.3035L51.9278 49.5509ZM40.0004 21.3594C29.7058 21.3594 21.3604 29.7048 21.3604 39.9994C21.3604 50.294 29.7058 58.6394 40.0004 58.6394C50.2949 58.6394 58.6404 50.294 58.6404 39.9994C58.6404 29.7048 50.2949 21.3594 40.0004 21.3594Z" fill="white"/>
</svg>
