<svg width="80" height="80" viewBox="0 0 80 80" fill="none" xmlns="http://www.w3.org/2000/svg">
<path d="M53.1686 27.4039C50.7466 26.2913 48.1494 25.4715 45.4338 25.002C45.3844 24.9929 45.335 25.0156 45.3095 25.0608C44.9755 25.6557 44.6055 26.4317 44.3464 27.0416C41.4256 26.6038 38.5199 26.6038 35.659 27.0416C35.3999 26.4181 35.0164 25.6557 34.6809 25.0608C34.6554 25.0171 34.606 24.9944 34.5566 25.002C31.8425 25.47 29.2453 26.2898 26.8218 27.4039C26.8008 27.413 26.7829 27.4281 26.7709 27.4477C21.8445 34.8167 20.495 42.0045 21.157 49.1032C21.16 49.138 21.1795 49.1712 21.2065 49.1923C24.4567 51.5822 27.6052 53.033 30.6952 53.9947C30.7446 54.0098 30.797 53.9917 30.8285 53.9509C31.5595 52.9515 32.211 51.8977 32.7697 50.7896C32.8026 50.7247 32.7712 50.6477 32.7038 50.622C31.6703 50.2295 30.6862 49.7509 29.7396 49.2074C29.6647 49.1636 29.6587 49.0564 29.7276 49.0051C29.9268 48.8556 30.126 48.7001 30.3163 48.5431C30.3507 48.5144 30.3986 48.5084 30.4391 48.5265C36.658 51.3693 43.3908 51.3693 49.5363 48.5265C49.5768 48.5069 49.6248 48.5129 49.6607 48.5416C49.8509 48.6986 50.0501 48.8556 50.2508 49.0051C50.3197 49.0564 50.3152 49.1636 50.2404 49.2074C49.2937 49.7614 48.3096 50.2295 47.2746 50.6205C47.2073 50.6462 47.1773 50.7247 47.2103 50.7896C47.7809 51.8962 48.4325 52.95 49.1499 53.9494C49.1799 53.9917 49.2338 54.0098 49.2832 53.9947C52.3882 53.033 55.5366 51.5822 58.7869 49.1923C58.8154 49.1712 58.8334 49.1395 58.8364 49.1047C59.6287 40.8978 57.5093 33.7689 53.218 27.4492C53.2075 27.4281 53.1896 27.413 53.1686 27.4039ZM33.6984 44.7809C31.826 44.7809 30.2833 43.0598 30.2833 40.9462C30.2833 38.8325 31.7961 37.1115 33.6984 37.1115C35.6155 37.1115 37.1434 38.8477 37.1134 40.9462C37.1134 43.0598 35.6006 44.7809 33.6984 44.7809ZM46.325 44.7809C44.4527 44.7809 42.91 43.0598 42.91 40.9462C42.91 38.8325 44.4228 37.1115 46.325 37.1115C48.2423 37.1115 49.77 38.8477 49.7401 40.9462C49.7401 43.0598 48.2423 44.7809 46.325 44.7809Z" fill="white"/>
</svg>
