<svg width="80" height="80" viewBox="0 0 80 80" fill="none" xmlns="http://www.w3.org/2000/svg">
<path d="M56.5338 58.3292L54.0998 31.2227C54.0334 30.4824 53.4129 29.9154 52.6698 29.9154H47.6504V27.6516C47.6504 23.4325 44.218 20 39.9991 20C35.7804 20 32.3485 23.4325 32.3485 27.6516V29.9154H27.3256C26.5825 29.9154 25.962 30.4824 25.8956 31.2227L23.452 58.4358C23.416 58.8375 23.5504 59.2354 23.8224 59.5329C24.0945 59.8304 24.479 59.9998 24.882 59.9998H55.1136C55.1147 59.9998 55.1163 59.9998 55.1174 59.9998C55.9105 59.9998 56.5531 59.357 56.5531 58.5641C56.5529 58.4843 56.5464 58.4056 56.5338 58.3292ZM35.2199 27.6516C35.2199 25.0158 37.3639 22.8714 39.9993 22.8714C42.6349 22.8714 44.7791 25.0158 44.7791 27.6516V29.9154H35.2199V27.6516ZM26.4525 57.1286L28.6382 32.7869H32.3485V35.3543C32.3485 36.1472 32.9911 36.79 33.7842 36.79C34.5773 36.79 35.2199 36.1472 35.2199 35.3543V32.7869H44.7791V35.3543C44.7791 36.1472 45.4217 36.79 46.2148 36.79C47.0079 36.79 47.6505 36.1472 47.6505 35.3543V32.7869H51.3574L53.5431 57.1286H26.4525Z" fill="white"/>
</svg>
