<svg width="80" height="80" viewBox="0 0 80 80" fill="none" xmlns="http://www.w3.org/2000/svg">
<path d="M40 25.253C44.7711 25.253 45.4217 25.253 47.3735 25.253C49.1084 25.253 49.9759 25.6867 50.6265 25.9036C51.494 26.3374 52.1446 26.5542 52.7952 27.2048C53.4458 27.8554 53.8795 28.506 54.0964 29.3735C54.3133 30.0241 54.5301 30.8916 54.747 32.6265C54.747 34.5783 54.747 35.012 54.747 40C54.747 44.988 54.747 45.4217 54.747 47.3735C54.747 49.1084 54.3133 49.9759 54.0964 50.6265C53.6627 51.494 53.4458 52.1446 52.7952 52.7952C52.1446 53.4458 51.494 53.8795 50.6265 54.0964C49.9759 54.3133 49.1084 54.5301 47.3735 54.747C45.4217 54.747 44.988 54.747 40 54.747C35.012 54.747 34.5783 54.747 32.6265 54.747C30.8916 54.747 30.0241 54.3133 29.3735 54.0964C28.506 53.6627 27.8554 53.4458 27.2048 52.7952C26.5542 52.1446 26.1205 51.494 25.9036 50.6265C25.6867 49.9759 25.4699 49.1084 25.253 47.3735C25.253 45.4217 25.253 44.988 25.253 40C25.253 35.012 25.253 34.5783 25.253 32.6265C25.253 30.8916 25.6867 30.0241 25.9036 29.3735C26.3374 28.506 26.5542 27.8554 27.2048 27.2048C27.8554 26.5542 28.506 26.1205 29.3735 25.9036C30.0241 25.6867 30.8916 25.4699 32.6265 25.253C34.5783 25.253 35.2289 25.253 40 25.253ZM40 22C35.012 22 34.5783 22 32.6265 22C30.6747 22 29.3735 22.4337 28.2892 22.8675C27.2048 23.3012 26.1205 23.9518 25.0361 25.0361C23.9518 26.1205 23.5181 26.988 22.8675 28.2892C22.4337 29.3735 22.2169 30.6747 22 32.6265C22 34.5783 22 35.2289 22 40C22 44.988 22 45.4217 22 47.3735C22 49.3253 22.4337 50.6265 22.8675 51.7108C23.3012 52.7952 23.9518 53.8795 25.0361 54.9639C26.1205 56.0482 26.988 56.4819 28.2892 57.1325C29.3735 57.5663 30.6747 57.7831 32.6265 58C34.5783 58 35.2289 58 40 58C44.7711 58 45.4217 58 47.3735 58C49.3253 58 50.6265 57.5663 51.7108 57.1325C52.7952 56.6988 53.8795 56.0482 54.9639 54.9639C56.0482 53.8795 56.4819 53.0121 57.1325 51.7108C57.5663 50.6265 57.7831 49.3253 58 47.3735C58 45.4217 58 44.7711 58 40C58 35.2289 58 34.5783 58 32.6265C58 30.6747 57.5663 29.3735 57.1325 28.2892C56.6988 27.2048 56.0482 26.1205 54.9639 25.0361C53.8795 23.9518 53.0121 23.5181 51.7108 22.8675C50.6265 22.4337 49.3253 22.2169 47.3735 22C45.4217 22 44.988 22 40 22Z" fill="white"/>
<path d="M40 30.6747C34.7952 30.6747 30.6747 34.7952 30.6747 40C30.6747 45.2048 34.7952 49.3253 40 49.3253C45.2048 49.3253 49.3253 45.2048 49.3253 40C49.3253 34.7952 45.2048 30.6747 40 30.6747ZM40 46.0723C36.747 46.0723 33.9277 43.4699 33.9277 40C33.9277 36.747 36.5301 33.9277 40 33.9277C43.253 33.9277 46.0723 36.5301 46.0723 40C46.0723 43.253 43.253 46.0723 40 46.0723Z" fill="white"/>
<path d="M49.5422 32.6265C50.7399 32.6265 51.7108 31.6556 51.7108 30.4578C51.7108 29.2601 50.7399 28.2892 49.5422 28.2892C48.3444 28.2892 47.3735 29.2601 47.3735 30.4578C47.3735 31.6556 48.3444 32.6265 49.5422 32.6265Z" fill="white"/>
</svg>
