<svg width="80" height="80" viewBox="0 0 80 80" fill="none" xmlns="http://www.w3.org/2000/svg">
<path d="M51.1436 25.7429C48.6755 23.2476 45.1277 22 41.2713 22C35.4096 22 31.8617 24.4953 29.8564 26.5226C27.3883 29.0179 26 32.2929 26 35.7239C26 39.9346 27.6968 43.0536 30.6277 44.3013C30.7819 44.4572 31.0904 44.4572 31.2447 44.4572C31.8617 44.4572 32.3245 43.9893 32.4787 43.3655C32.633 43.0536 32.7872 42.1179 32.9415 41.6501C33.0957 40.8703 32.9415 40.5584 32.4787 39.9346C31.7075 38.9989 31.2447 37.7512 31.2447 36.1917C31.2447 31.6691 34.6383 26.8345 40.8085 26.8345C45.7447 26.8345 48.8298 29.6417 48.8298 34.1643C48.8298 36.9715 48.2128 39.6227 47.133 41.6501C46.3617 43.0536 44.9734 44.6132 42.9681 44.6132C42.0426 44.6132 41.2713 44.3013 40.8085 43.5215C40.3458 42.8977 40.1915 42.1179 40.3457 41.3382C40.5 40.4024 40.8085 39.4667 41.117 38.531C41.5798 36.8155 42.1968 35.1 42.1968 33.8524C42.1968 31.6691 40.8085 30.1095 38.8032 30.1095C36.1808 30.1095 34.1755 32.7607 34.1755 36.0358C34.1755 37.7512 34.6383 38.8429 34.7926 39.3108C34.4841 40.7143 32.4787 48.9798 32.1702 50.3834C32.016 51.3191 30.6277 58.4929 32.7872 58.9608C35.1011 59.5846 37.2606 52.5668 37.4149 51.787C37.5691 51.1632 38.1862 48.6679 38.4947 47.2643C39.5745 48.356 41.4256 49.1358 43.2766 49.1358C46.6702 49.1358 49.6011 47.5763 51.7607 44.7691C53.766 42.1179 55 38.375 55 34.1643C54.8457 31.3572 53.6117 28.0822 51.1436 25.7429Z" fill="white"/>
</svg>
