<svg width="80" height="80" viewBox="0 0 80 80" fill="none" xmlns="http://www.w3.org/2000/svg">
<path fill-rule="evenodd" clip-rule="evenodd" d="M47.14 46.3258C45.346 46.3258 43.8385 44.8841 43.8385 43.1064C43.8385 41.3288 45.346 39.8395 47.14 39.8395C48.934 39.8395 50.389 41.3288 50.389 43.1064C50.389 44.8841 48.934 46.3258 47.14 46.3258ZM47.902 52.5743C46.231 54.2286 43.654 55.0327 40.024 55.0327C40.0165 55.0327 40.0075 55.0312 39.9985 55.0312C39.991 55.0312 39.982 55.0327 39.973 55.0327C36.343 55.0327 33.7675 54.2286 32.098 52.5743C31.585 52.066 31.585 51.2441 32.098 50.7372C32.6095 50.2304 33.439 50.2304 33.952 50.7372C35.104 51.8787 37.0735 52.4346 39.973 52.4346C39.982 52.4346 39.991 52.4361 39.9985 52.4361C40.0075 52.4361 40.0165 52.4346 40.024 52.4346C42.9235 52.4346 44.8945 51.8787 46.048 50.7372C46.561 50.2289 47.3905 50.2304 47.902 50.7372C48.4135 51.2455 48.4135 52.0675 47.902 52.5743ZM29.611 43.1064C29.611 41.3303 31.1155 39.8395 32.908 39.8395C34.702 39.8395 36.157 41.3303 36.157 43.1064C36.157 44.8841 34.702 46.3258 32.908 46.3258C31.1155 46.3258 29.611 44.8841 29.611 43.1064ZM55.996 22.5981C57.211 22.5981 58.1995 23.5776 58.1995 24.78C58.1995 25.9839 57.211 26.9634 55.996 26.9634C54.781 26.9634 53.7925 25.9839 53.7925 24.78C53.7925 23.5776 54.781 22.5981 55.996 22.5981ZM64 39.5705C64 36.418 61.4125 33.854 58.231 33.854C56.854 33.854 55.5895 34.3356 54.5965 35.1367C51.079 32.9459 46.615 31.626 41.83 31.3466L44.326 23.5271L51.1855 25.1278C51.3655 27.6026 53.4535 29.5615 55.996 29.5615C58.6555 29.5615 60.82 27.4168 60.82 24.78C60.82 22.1448 58.6555 20 55.996 20C54.136 20 52.519 21.0493 51.7135 22.5817L43.7425 20.7224C43.075 20.5663 42.4 20.9468 42.193 21.5948L39.094 31.3005C33.9385 31.4254 29.092 32.7497 25.3165 35.0684C24.337 34.3089 23.1055 33.854 21.769 33.854C18.5875 33.854 16 36.418 16 39.5705C16 41.519 16.99 43.2417 18.4975 44.2732C18.4345 44.7265 18.4015 45.1828 18.4015 45.6451C18.4015 49.5853 20.713 53.2506 24.91 55.9646C28.933 58.5672 34.258 60 39.9025 60C45.547 60 50.872 58.5672 54.895 55.9646C59.092 53.2506 61.4035 49.5853 61.4035 45.6451C61.4035 45.2244 61.375 44.8068 61.3225 44.3921C62.9305 43.3769 64 41.5948 64 39.5705Z" fill="white"/>
</svg>
