<svg width="80" height="80" viewBox="0 0 80 80" fill="none" xmlns="http://www.w3.org/2000/svg">
<path fill-rule="evenodd" clip-rule="evenodd" d="M53.4788 26.4008C53.6296 26.4134 53.8114 26.5288 53.8399 26.7368C53.8685 26.9449 58.353 57.2659 58.353 57.2659L47.3611 59.9985L22 55.6122C22 55.6122 25.0263 32.2111 25.1383 31.3871C25.2891 30.2968 25.3257 30.2614 26.4823 29.898C26.5069 29.89 27.2873 29.6483 28.5295 29.2636C29.0758 29.0945 29.7115 28.8976 30.4114 28.6808C30.656 26.9289 31.5189 24.666 32.6526 22.8648C34.264 20.3048 36.2514 18.8637 38.2468 18.8066C39.2811 18.7757 40.1439 19.1266 40.8171 19.8466C40.8651 19.8991 40.9108 19.9528 40.9566 20.0077C40.968 20.0067 40.9795 20.0057 40.9909 20.0047C41.0866 19.9965 41.1817 19.9883 41.2777 19.9883H41.2834C42.8285 19.9906 44.1074 20.8717 44.9805 22.538C45.2514 23.0545 45.4411 23.5688 45.5703 23.9871C45.767 23.9262 45.9434 23.8716 46.097 23.824C46.5458 23.6851 46.8005 23.6063 46.8022 23.6054C46.9862 23.5505 47.4594 23.4774 47.7016 23.7197C47.9439 23.962 50.3965 26.3437 50.3965 26.3437C50.3965 26.3437 53.3291 26.3883 53.4788 26.4008ZM43.0402 24.7703C43.4909 24.6308 43.9133 24.5 44.3005 24.3803C43.9862 23.3586 43.2411 21.6454 41.7268 21.3586C42.1977 22.5734 42.3177 23.9791 42.3325 24.9894C42.5751 24.9143 42.8113 24.8412 43.0402 24.7703ZM36.7714 26.7117L41.0056 25.4008C41.0194 24.298 40.8994 22.6671 40.3474 21.5151C39.7599 21.7574 39.264 22.1814 38.9097 22.562C37.9566 23.5848 37.1805 25.1448 36.7714 26.7117ZM39.4868 20.4488C39.1497 20.2271 38.7554 20.1243 38.2868 20.1346C35.2068 20.2237 32.52 25.034 31.8331 28.2397C32.4635 28.045 33.1254 27.84 33.8056 27.6292C34.2993 27.4763 34.8027 27.3203 35.3108 27.1631C35.6982 25.1265 36.6697 23.0157 37.9371 21.6557C38.4262 21.1311 38.9474 20.7288 39.4868 20.4488ZM39.9934 36.8304L41.2699 32.0545C41.2699 32.0545 40.1693 31.5059 38.0185 31.6442C32.4357 31.9962 29.9053 35.9002 30.1488 39.7527C30.3112 42.3246 31.8265 43.3998 33.1545 44.3422C34.1906 45.0773 35.1128 45.7317 35.1899 46.9527C35.2322 47.6259 34.8139 48.5779 33.6436 48.6522C31.8516 48.7653 29.6128 47.0762 29.6128 47.0762L28.7568 50.7173C28.7568 50.7173 30.9808 53.1001 35.0208 52.8453C38.3864 52.6327 40.7225 49.9402 40.4745 46.0042C40.2837 42.978 38.1526 41.6115 36.4683 40.5315C35.3678 39.8259 34.4581 39.2425 34.4048 38.3985C34.3796 38.0064 34.4059 36.4453 36.8814 36.2887C38.5694 36.1825 39.9934 36.8304 39.9934 36.8304Z" fill="white"/>
<path d="M53.1221 26.804C52.9724 26.7916 50.0376 26.7475 50.0376 26.7475C50.0376 26.7475 47.5833 24.3941 47.3409 24.1547C47.2505 24.0655 47.1281 24.0192 47 24L47.0012 60L58 57.301C58 57.301 53.5122 27.3415 53.4836 27.136C53.4549 26.9304 53.272 26.8164 53.1221 26.804Z" fill="#FDFFFB"/>
</svg>
