<svg width="80" height="80" viewBox="0 0 80 80" fill="none" xmlns="http://www.w3.org/2000/svg">
<path d="M30.8123 54.822C27.715 57.1126 25.111 57.6806 23.291 57.6806C23.0089 57.6805 22.727 57.6663 22.4463 57.6379L22.7956 58.1093C22.9041 58.2563 23.0427 58.3784 23.2021 58.4675C23.3616 58.5566 23.5383 58.6106 23.7203 58.6259C26.8623 58.8484 29.9757 57.9026 32.463 55.97L41.051 49.6206C41.1391 47.9151 41.4629 46.23 42.013 44.6133C39.5824 46.0684 37.433 47.9483 35.667 50.1633C34.2546 51.9174 32.6231 53.483 30.8123 54.822Z" fill="white"/>
<path d="M47.9063 21.5873C47.6782 21.4263 47.4058 21.3398 47.1266 21.3398C46.8474 21.3398 46.5751 21.4263 46.347 21.5873C46.1676 21.7213 46.027 21.9004 45.9394 22.1064C45.8518 22.3123 45.8204 22.5379 45.8483 22.76C46.0316 24.4266 46.027 27.458 43.9376 29.0046C42.7411 29.8826 41.3393 30.4385 39.8663 30.6193L35.3843 43.4593C35.1474 44.1369 34.7731 44.7583 34.285 45.2846C33.7969 45.8109 33.2055 46.2308 32.5476 46.518L26.5476 49.126L22.4603 52.6206C21.9749 53.0417 21.6259 53.5979 21.458 54.2183C21.2901 54.8386 21.3109 55.4948 21.5176 56.1033C22.5683 56.4133 25.727 56.9226 30.0183 53.75C31.7461 52.4692 33.3032 50.9729 34.6516 49.2973C36.327 47.3306 38.065 45.2973 42.8216 42.5806C44.6408 38.6913 47.7354 35.541 51.5916 33.6526C51.613 33.1716 51.7412 32.7014 51.967 32.2761C52.1928 31.8508 52.5105 31.4812 52.8969 31.194L55.055 29.5993C53.2323 26.4771 50.8014 23.7526 47.9063 21.5873Z" fill="white"/>
<path d="M32.3626 43.1539L28.7192 44.1946L27.4346 47.2886L32.0159 45.2973C32.5052 45.084 32.9451 44.7719 33.3081 44.3806C33.6711 43.9893 33.9493 43.5272 34.1252 43.0233L38.4226 30.7079C37.8771 30.7038 37.3328 30.6592 36.7939 30.5746C36.6296 30.5468 36.4632 30.5324 36.2966 30.5313C35.6867 30.5286 35.092 30.7216 34.5999 31.0819C34.1879 31.387 33.8668 31.7987 33.6712 32.2726L33.3846 32.9633L34.7806 32.5633C34.9507 32.5149 35.133 32.5361 35.2875 32.6222C35.4419 32.7083 35.5559 32.8522 35.6042 33.0223C35.6526 33.1924 35.6314 33.3747 35.5453 33.5292C35.4592 33.6836 35.3153 33.7976 35.1452 33.8459L32.7332 34.5346L32.0492 36.1819L33.8539 35.6666C33.9381 35.6426 34.0263 35.6354 34.1133 35.6454C34.2003 35.6554 34.2844 35.6825 34.361 35.7251C34.4375 35.7676 34.505 35.8248 34.5594 35.8934C34.6138 35.9621 34.6542 36.0407 34.6782 36.1249C34.7023 36.2092 34.7095 36.2973 34.6994 36.3843C34.6894 36.4713 34.6624 36.5555 34.6198 36.632C34.5772 36.7086 34.52 36.776 34.4514 36.8304C34.3828 36.8849 34.3041 36.9252 34.2199 36.9493L31.3959 37.7553L30.7106 39.4013L32.9246 38.7699C33.0947 38.7214 33.2771 38.7424 33.4317 38.8284C33.5863 38.9143 33.7004 39.0582 33.7489 39.2283C33.7974 39.3984 33.7764 39.5808 33.6905 39.7354C33.6045 39.89 33.4607 40.0041 33.2906 40.0526L30.0572 40.9746L29.3732 42.6213L31.9999 41.8719C32.1691 41.826 32.3496 41.8486 32.5023 41.9347C32.6549 42.0209 32.7675 42.1637 32.8157 42.3323C32.8638 42.5009 32.8436 42.6816 32.7594 42.8354C32.6752 42.9892 32.5338 43.1036 32.3659 43.1539H32.3626Z" fill="white"/>
<path d="M33.721 26.1986C33.5853 26.2077 33.4578 26.2668 33.3631 26.3645C33.2684 26.4621 33.2133 26.5913 33.2083 26.7273L32.875 30.9806C33.132 30.6077 33.4471 30.2784 33.8083 30.0053C34.5294 29.4737 35.4025 29.1885 36.2983 29.1919C36.536 29.1927 36.7733 29.213 37.0077 29.2526C37.3741 29.3089 37.7433 29.3454 38.1137 29.3619C37.8953 28.6589 37.5543 28.0001 37.1063 27.4159C36.2723 26.2919 34.8043 26.1386 33.721 26.1986Z" fill="white"/>
<path d="M58.3195 33.8329C57.1736 33.0865 56.2588 32.035 55.6781 30.7969L53.6901 32.2675C53.3455 32.5233 53.096 32.8868 52.9813 33.3004C52.8666 33.714 52.8931 34.1541 53.0568 34.5509L55.0141 39.2895C56.8721 37.8755 58.2215 36.1922 58.6328 34.7562C58.6875 34.5891 58.6865 34.4088 58.63 34.2423C58.5735 34.0759 58.4645 33.9322 58.3195 33.8329Z" fill="white"/>
<path d="M51.8178 35.0352C49.2538 36.3372 47.0546 38.2578 45.4192 40.6233C43.7838 42.9887 42.7637 45.7244 42.4512 48.5832L53.9118 40.1092L51.8238 35.0558C51.8212 35.0492 51.8205 35.0418 51.8178 35.0352ZM48.0952 42.7585C48.057 42.7645 48.0185 42.7676 47.9798 42.7678C47.8229 42.7678 47.671 42.7124 47.5509 42.6115C47.4308 42.5105 47.3502 42.3704 47.3232 42.2158L47.0738 40.7898C47.0588 40.7035 47.0609 40.6151 47.08 40.5297C47.0991 40.4442 47.1348 40.3633 47.1852 40.2917C47.2355 40.22 47.2995 40.159 47.3735 40.112C47.4474 40.0651 47.5299 40.0332 47.6162 40.0182C47.7025 40.0031 47.7909 40.0052 47.8763 40.0243C47.9618 40.0434 48.0427 40.0791 48.1143 40.1295C48.186 40.1799 48.247 40.2438 48.2939 40.3178C48.3409 40.3917 48.3728 40.4742 48.3878 40.5605L48.6372 41.9865C48.6523 42.0728 48.6503 42.1612 48.6313 42.2467C48.6122 42.3322 48.5765 42.4131 48.5262 42.4848C48.4758 42.5565 48.4119 42.6176 48.3379 42.6645C48.264 42.7115 48.1815 42.7434 48.0952 42.7585ZM50.6952 40.8332C50.6571 40.8397 50.6185 40.8431 50.5798 40.8432C50.4229 40.843 50.2711 40.7874 50.1512 40.6863C50.0312 40.5852 49.9507 40.4451 49.9238 40.2905L49.6778 38.8652C49.6501 38.6922 49.6916 38.5152 49.7933 38.3725C49.895 38.2299 50.0488 38.133 50.2214 38.1028C50.394 38.0727 50.5715 38.1117 50.7156 38.2115C50.8597 38.3112 50.9587 38.4637 50.9912 38.6358L51.2398 40.0625C51.27 40.2365 51.2299 40.4155 51.1283 40.56C51.0267 40.7045 50.8719 40.8027 50.6978 40.8332H50.6952Z" fill="white"/>
</svg>
