<svg width="80" height="80" viewBox="0 0 80 80" fill="none" xmlns="http://www.w3.org/2000/svg">
<path d="M39.9564 53.3772C32.5932 53.3772 26.6176 47.4112 26.6176 40.0468C26.6176 32.669 32.5932 26.7073 39.9564 26.7073C47.326 26.7073 53.294 32.669 53.294 40.0468C53.294 47.4112 47.326 53.3772 39.9564 53.3772ZM39.9564 20.0469C28.918 20.0469 19.9668 29.0004 19.9668 40.0468C19.9668 51.0847 28.918 60.0354 39.9564 60.0354C50.9995 60.0354 59.9647 51.0847 59.9647 40.0468C59.9647 29.0004 50.9995 20.0469 39.9564 20.0469Z" fill="white"/>
<path d="M39.9568 33.1914C36.1732 33.1914 33.1074 36.2497 33.1074 40.0448C33.1074 43.8275 36.1731 46.8949 39.9568 46.8949C43.7441 46.8949 46.8165 43.8274 46.8165 40.0448C46.8165 36.2498 43.7441 33.1914 39.9568 33.1914Z" fill="white"/>
</svg>
