<svg width="80" height="80" viewBox="0 0 80 80" fill="none" xmlns="http://www.w3.org/2000/svg">
<path d="M59 29.6538C57.6786 30.2308 56.1684 30.6154 54.6582 30.8077C56.1684 29.8462 57.4898 28.3077 58.0561 26.5769C56.5459 27.5385 55.0357 28.1154 53.148 28.5C51.8265 26.9615 49.75 26 47.6735 26C43.5204 26 40.1224 29.4615 40.1224 33.6923C40.1224 34.2692 40.1225 34.8461 40.3112 35.4231C34.0816 35.0384 28.4184 31.9615 24.6428 27.3461C24.0765 28.5 23.699 29.8461 23.699 31.1923C23.699 33.8846 25.0204 36.1923 27.0969 37.5385C25.7755 37.5385 24.6428 37.1538 23.699 36.5769C23.699 40.2308 26.3418 43.5 29.7398 44.0769C29.1735 44.2692 28.4184 44.2692 27.6633 44.2692C27.0969 44.2692 26.7194 44.2692 26.1531 44.0769C27.0969 47.1538 29.9286 49.4615 33.3265 49.4615C30.6837 51.5769 27.4745 52.7307 23.8878 52.7307C23.3214 52.7307 22.7551 52.7308 22 52.5385C25.398 54.6538 29.3622 56 33.7041 56C47.6735 56 55.2245 44.2692 55.2245 34.0769V33.1154C56.7347 32.5385 58.0561 31.1923 59 29.6538Z" fill="white"/>
</svg>
