<svg width="80" height="80" viewBox="0 0 80 80" fill="none" xmlns="http://www.w3.org/2000/svg">
<path fill-rule="evenodd" clip-rule="evenodd" d="M23.3193 54.1432C22.5704 53.9188 21.8871 53.5197 21.3271 52.9794C20.7671 52.4391 20.3467 51.7736 20.1014 51.039C18.7001 47.2422 18.2849 31.3881 20.9838 28.2583C21.882 27.2401 23.1502 26.6133 24.513 26.5138C31.7532 25.7442 54.1225 25.8468 56.6915 26.7703C57.4141 27.0021 58.0743 27.3925 58.6226 27.9123C59.1709 28.4321 59.5931 29.0678 59.8575 29.7719C61.3886 33.6969 61.4405 47.9606 59.6499 51.7317C59.1749 52.7134 58.3797 53.5085 57.3922 53.9893C54.6934 55.3233 26.9005 55.2976 23.3193 54.1432ZM34.8153 46.7035L47.7905 40.0335L34.8153 33.3121V46.7035Z" fill="white"/>
</svg>
