<svg width="212" height="47" viewBox="0 0 212 47" fill="none" xmlns="http://www.w3.org/2000/svg">
<path d="M140.353 42.2496L140.68 41.3044L140.353 42.2496ZM111.39 11.558L112.363 11.7867L111.39 11.558ZM128.971 27.5281L128.199 26.8926L128.971 27.5281ZM84.597 43.5658L84.6215 44.5655L84.597 43.5658ZM3.18111 1.74017C2.63796 1.64015 2.11656 1.99937 2.01654 2.54252L0.386562 11.3937C0.286538 11.9368 0.645765 12.4582 1.18892 12.5583C1.73207 12.6583 2.25346 12.2991 2.35349 11.7559L3.80235 3.8882L11.6701 5.33707C12.2132 5.43709 12.7346 5.07787 12.8346 4.53472C12.9347 3.99156 12.5754 3.47017 12.0323 3.37014L3.18111 1.74017ZM4.0847 6.11469C4.39364 6.57249 5.0152 6.69316 5.473 6.38422C5.93079 6.07529 6.05146 5.45373 5.74253 4.99593L4.0847 6.11469ZM9.67875 10.5614C9.34662 10.1202 8.71966 10.0317 8.27841 10.3639C7.83715 10.696 7.74869 11.323 8.08083 11.7642L9.67875 10.5614ZM12.4633 17.1495C12.8288 17.5635 13.4608 17.6028 13.8748 17.2373C14.2888 16.8717 14.3281 16.2398 13.9626 15.8258L12.4633 17.1495ZM18.6638 20.7066C18.2634 20.3262 17.6304 20.3425 17.2501 20.7429C16.8697 21.1434 16.886 21.7763 17.2864 22.1567L18.6638 20.7066ZM22.5523 26.7176C22.9861 27.0594 23.6149 26.985 23.9567 26.5512C24.2986 26.1174 24.2241 25.4887 23.7904 25.1468L22.5523 26.7176ZM29.2884 29.0807C28.8249 28.7805 28.2057 28.9129 27.9055 29.3764C27.6052 29.84 27.7376 30.4592 28.2012 30.7594L29.2884 29.0807ZM34.2036 34.2682C34.6925 34.5251 35.2971 34.337 35.554 33.8481C35.8108 33.3591 35.6227 32.7546 35.1338 32.4977L34.2036 34.2682ZM41.265 35.3825C40.7556 35.1691 40.1697 35.4091 39.9563 35.9185C39.743 36.4279 39.983 37.0139 40.4924 37.2272L41.265 35.3825ZM47.0027 39.6425C47.5279 39.8135 48.0922 39.5265 48.2633 39.0013C48.4343 38.4762 48.1472 37.9119 47.6221 37.7408L47.0027 39.6425ZM54.1554 39.5948C53.6188 39.4639 53.0778 39.7928 52.9469 40.3293C52.816 40.8659 53.1449 41.407 53.6815 41.5378L54.1554 39.5948ZM60.4819 42.9452C61.0262 43.0386 61.5432 42.6731 61.6366 42.1288C61.7301 41.5844 61.3645 41.0674 60.8202 40.974L60.4819 42.9452ZM67.5399 41.9084C66.9908 41.8492 66.4977 42.2463 66.4385 42.7954C66.3793 43.3446 66.7764 43.8377 67.3255 43.8969L67.5399 41.9084ZM74.2462 44.4408C74.7978 44.4687 75.2675 44.0441 75.2954 43.4925C75.3232 42.9409 74.8987 42.4712 74.3471 42.4434L74.2462 44.4408ZM81.1387 42.6096C80.5865 42.61 80.139 43.058 80.1394 43.6102C80.1397 44.1625 80.5877 44.61 81.14 44.6096L81.1387 42.6096ZM88.6993 44.389C89.2505 44.3546 89.6694 43.8798 89.6349 43.3286C89.6005 42.7774 89.1257 42.3585 88.5745 42.3929L88.6993 44.389ZM96.5253 41.5648C95.979 41.6459 95.6019 42.1545 95.683 42.7008C95.7641 43.2471 96.2727 43.6242 96.819 43.5431L96.5253 41.5648ZM104.838 41.9512C105.374 41.8159 105.698 41.2722 105.563 40.7367C105.428 40.2013 104.884 39.8768 104.349 40.0121L104.838 41.9512ZM111.934 37.6179C111.418 37.8167 111.162 38.3956 111.361 38.9109C111.559 39.4261 112.138 39.6827 112.654 39.4839L111.934 37.6179ZM120.092 35.9725C120.571 35.6979 120.737 35.0869 120.463 34.6077C120.188 34.1285 119.577 33.9626 119.098 34.2372L120.092 35.9725ZM125.5 29.6831C125.088 30.0517 125.054 30.6839 125.422 31.0952C125.791 31.5065 126.423 31.5412 126.834 31.1727L125.5 29.6831ZM131.812 25.2788C132.101 24.8086 131.955 24.1926 131.485 23.903C131.014 23.6134 130.398 23.7599 130.109 24.2301L131.812 25.2788ZM132.56 18.2595C132.443 18.7992 132.786 19.3317 133.326 19.4488C133.865 19.5659 134.398 19.2233 134.515 18.6836L132.56 18.2595ZM134.674 11.5203C134.579 10.9761 134.062 10.6116 133.517 10.7061C132.973 10.8006 132.609 11.3183 132.703 11.8624L134.674 11.5203ZM130.389 5.93281C130.695 6.39277 131.316 6.5178 131.776 6.21208C132.236 5.90637 132.361 5.28567 132.055 4.82572L130.389 5.93281ZM126.689 0.55189C126.164 0.379456 125.599 0.665003 125.427 1.18968C125.254 1.71436 125.54 2.27948 126.065 2.45191L126.689 0.55189ZM120.82 2.21946C121.359 2.09934 121.698 1.56497 121.578 1.0259C121.458 0.486839 120.924 0.147221 120.385 0.267344L120.82 2.21946ZM114.811 3.21305C114.407 3.58981 114.385 4.22259 114.762 4.62642C115.139 5.03024 115.772 5.05218 116.175 4.67543L114.811 3.21305ZM113.195 9.14431C113.403 8.63266 113.156 8.04933 112.645 7.84143C112.133 7.63352 111.55 7.87976 111.342 8.39142L113.195 9.14431ZM109.955 15.3754C109.958 15.9276 110.409 16.3729 110.961 16.3699C111.513 16.3669 111.958 15.9167 111.955 15.3645L109.955 15.3754ZM113.634 22.3483C113.394 21.8509 112.796 21.6424 112.299 21.8825C111.802 22.1226 111.593 22.7204 111.833 23.2178L113.634 22.3483ZM116.459 29.7101C116.842 30.1079 117.475 30.1199 117.873 29.7369C118.271 29.3538 118.283 28.7208 117.9 28.3229L116.459 29.7101ZM123.638 33.11C123.183 32.7976 122.56 32.9135 122.248 33.3689C121.935 33.8243 122.051 34.4468 122.507 34.7592L123.638 33.11ZM129.256 38.7107C129.75 38.959 130.351 38.7604 130.599 38.2671C130.847 37.7738 130.649 37.1726 130.155 36.9242L129.256 38.7107ZM137.096 39.9907C136.581 39.7906 136.001 40.0456 135.801 40.5603C135.601 41.0751 135.856 41.6546 136.371 41.8548L137.096 39.9907ZM143.551 44.2417C144.086 44.3774 144.63 44.0534 144.766 43.5181C144.902 42.9828 144.578 42.4387 144.042 42.303L143.551 44.2417ZM150.999 43.5972C150.451 43.5265 149.95 43.9132 149.879 44.461C149.808 45.0087 150.195 45.5101 150.743 45.5807L150.999 43.5972ZM157.991 46.2014C158.543 46.2274 159.011 45.8013 159.037 45.2496C159.063 44.6979 158.637 44.2297 158.086 44.2037L157.991 46.2014ZM165.222 44.3171C164.67 44.324 164.228 44.7773 164.235 45.3296C164.241 45.8818 164.695 46.3239 165.247 46.317L165.222 44.3171ZM172.485 46.0515C173.036 46.0189 173.457 45.5456 173.424 44.9942C173.392 44.4429 172.918 44.0224 172.367 44.055L172.485 46.0515ZM179.503 43.4917C178.954 43.5454 178.552 44.0345 178.605 44.5842C178.659 45.1338 179.148 45.5359 179.698 45.4822L179.503 43.4917ZM186.882 44.6575C187.43 44.5856 187.815 44.0834 187.743 43.5358C187.672 42.9882 187.169 42.6026 186.622 42.6745L186.882 44.6575ZM193.713 41.6329C193.168 41.7213 192.798 42.235 192.886 42.7801C192.974 43.3253 193.488 43.6955 194.033 43.607L193.713 41.6329ZM201.145 42.344C201.687 42.2392 202.041 41.7147 201.937 41.1724C201.832 40.6302 201.307 40.2756 200.765 40.3803L201.145 42.344ZM207.78 38.9046C207.242 39.0279 206.905 39.5643 207.029 40.1027C207.152 40.641 207.689 40.9774 208.227 40.8541L207.78 38.9046ZM2.17652 3.29098C2.74285 4.11298 3.36915 5.05435 4.0847 6.11469L5.74253 4.99593C5.03779 3.95162 4.3969 2.98857 3.82348 2.15628L2.17652 3.29098ZM8.08083 11.7642C9.36655 13.4723 10.818 15.286 12.4633 17.1495L13.9626 15.8258C12.3572 14.0075 10.9385 12.2351 9.67875 10.5614L8.08083 11.7642ZM17.2864 22.1567C18.8967 23.6862 20.6471 25.2159 22.5523 26.7176L23.7904 25.1468C21.9361 23.6854 20.232 22.1961 18.6638 20.7066L17.2864 22.1567ZM28.2012 30.7594C30.0774 31.9746 32.0753 33.1501 34.2036 34.2682L35.1338 32.4977C33.0603 31.4083 31.1148 30.2637 29.2884 29.0807L28.2012 30.7594ZM40.4924 37.2272C42.5566 38.0917 44.7248 38.9006 47.0027 39.6425L47.6221 37.7408C45.3959 37.0158 43.2788 36.2259 41.265 35.3825L40.4924 37.2272ZM53.6815 41.5378C55.8591 42.0689 58.1246 42.5406 60.4819 42.9452L60.8202 40.974C58.5078 40.5771 56.2875 40.1148 54.1554 39.5948L53.6815 41.5378ZM67.3255 43.8969C69.5576 44.1375 71.8636 44.3205 74.2462 44.4408L74.3471 42.4434C72.0016 42.3249 69.7334 42.1448 67.5399 41.9084L67.3255 43.8969ZM81.14 44.6096C82.2842 44.6089 83.4446 44.5943 84.6215 44.5655L84.5724 42.5661C83.4113 42.5946 82.2669 42.6089 81.1387 42.6096L81.14 44.6096ZM84.6215 44.5655C86.0122 44.5314 87.3714 44.472 88.6993 44.389L88.5745 42.3929C87.2722 42.4743 85.9383 42.5326 84.5724 42.5661L84.6215 44.5655ZM96.819 43.5431C99.6667 43.1204 102.339 42.5826 104.838 41.9512L104.349 40.0121C101.916 40.6267 99.3091 41.1516 96.5253 41.5648L96.819 43.5431ZM112.654 39.4839C115.421 38.4163 117.898 37.2298 120.092 35.9725L119.098 34.2372C116.996 35.4416 114.611 36.5851 111.934 37.6179L112.654 39.4839ZM126.834 31.1727C127.951 30.1722 128.92 29.1629 129.743 28.1637L128.199 26.8926C127.445 27.8076 126.547 28.7444 125.5 29.6831L126.834 31.1727ZM129.743 28.1637C130.532 27.2047 131.219 26.2414 131.812 25.2788L130.109 24.2301C129.565 25.1124 128.932 26.0016 128.199 26.8926L129.743 28.1637ZM134.515 18.6836C135.068 16.1366 135.054 13.7108 134.674 11.5203L132.703 11.8624C133.042 13.8144 133.055 15.9794 132.56 18.2595L134.515 18.6836ZM132.055 4.82572C131.294 3.68061 130.439 2.73453 129.573 2.058L128.342 3.6343C129.008 4.15465 129.723 4.93057 130.389 5.93281L132.055 4.82572ZM129.573 2.058C128.748 1.41382 127.763 0.904809 126.689 0.55189L126.065 2.45191C126.946 2.74148 127.72 3.14848 128.342 3.6343L129.573 2.058ZM120.385 0.267344C118.433 0.702274 116.493 1.64436 114.811 3.21305L116.175 4.67543C117.581 3.3638 119.195 2.58143 120.82 2.21946L120.385 0.267344ZM111.342 8.39142C110.976 9.29156 110.665 10.2697 110.416 11.3294L112.363 11.7867C112.59 10.8216 112.87 9.94277 113.195 9.14431L111.342 8.39142ZM110.416 11.3294C110.108 12.64 109.948 13.9932 109.955 15.3754L111.955 15.3645C111.949 14.1449 112.09 12.9488 112.363 11.7867L110.416 11.3294ZM111.833 23.2178C112.89 25.4077 114.414 27.5861 116.459 29.7101L117.9 28.3229C115.985 26.3337 114.589 24.3268 113.634 22.3483L111.833 23.2178ZM122.507 34.7592C124.489 36.1191 126.732 37.4405 129.256 38.7107L130.155 36.9242C127.703 35.6902 125.539 34.4138 123.638 33.11L122.507 34.7592ZM136.371 41.8548C137.544 42.3109 138.762 42.7579 140.027 43.1948L140.68 41.3044C139.438 40.8755 138.244 40.4373 137.096 39.9907L136.371 41.8548ZM140.027 43.1948C141.156 43.585 142.333 43.9329 143.551 44.2417L144.042 42.303C142.873 42.0067 141.751 41.6745 140.68 41.3044L140.027 43.1948ZM150.743 45.5807C153.078 45.8822 155.506 46.0843 157.991 46.2014L158.086 44.2037C155.646 44.0887 153.273 43.8907 150.999 43.5972L150.743 45.5807ZM165.247 46.317C167.642 46.2869 170.064 46.1947 172.485 46.0515L172.367 44.055C169.974 44.1966 167.583 44.2875 165.222 44.3171L165.247 46.317ZM179.698 45.4822C182.128 45.2447 184.532 44.966 186.882 44.6575L186.622 42.6745C184.292 42.9804 181.91 43.2565 179.503 43.4917L179.698 45.4822ZM194.033 43.607C196.52 43.2034 198.904 42.777 201.145 42.344L200.765 40.3803C198.543 40.8096 196.18 41.2325 193.713 41.6329L194.033 43.607ZM208.227 40.8541C209.487 40.5655 210.661 40.2822 211.739 40.0093L211.248 38.0705C210.186 38.3394 209.026 38.6191 207.78 38.9046L208.227 40.8541Z" fill="#18063C"/>
</svg>
