<svg width="565" height="145" viewBox="0 0 565 145" fill="none" xmlns="http://www.w3.org/2000/svg">
<path d="M524.278 67.5166C546.444 95.2588 522.46 106.533 514.541 102.384C506.622 98.234 504.713 86.8578 512.086 79.8338C517.255 74.867 522.264 72.7473 524.278 67.5166Z" fill="#DCF375"/>
<path d="M2.56835 21.2505C49.9107 -5.63639 61.2104 33.3931 53.021 44.3857C44.8315 55.3783 27.1464 55.5301 18.2848 42.6764C12.0082 33.6531 10.0043 25.558 2.56835 21.2505Z" fill="#BBD645"/>
<path d="M560.548 113.765C535.091 72.8105 509.782 98.3958 511.502 110.414C513.222 122.433 526.918 130.036 539.253 123.785C547.955 119.42 552.94 113.97 560.548 113.765Z" fill="#BBD645"/>
<path d="M26.4729 95.2635C18.6606 131.134 46.0532 130.58 51.4871 123.102C56.921 115.625 53.4712 104.21 43.4188 101.083C36.3509 98.8527 30.7375 99.1864 26.4729 95.2635Z" fill="#BBD645"/>
<path d="M59.187 15.7161C34.2534 26.2142 46.2005 42.4903 53.0111 42.5958C59.8217 42.7013 65.2401 35.7824 62.863 28.3977C61.2112 23.1918 58.6303 19.9498 59.187 15.7161Z" fill="#DCF375"/>
<path d="M326.793 3.18877C351.726 13.6868 339.779 29.9629 332.968 30.0684C326.158 30.1739 320.739 23.255 323.116 15.8704C324.768 10.6644 327.349 7.42242 326.793 3.18877Z" fill="#DCF375"/>
<path d="M371.425 24.4164C339.479 6.27365 331.855 32.61 337.381 40.0275C342.907 47.4451 354.84 47.5475 360.82 38.8741C365.055 32.7854 366.408 27.323 371.425 24.4164Z" fill="#BBD645"/>
<path d="M28.8586 135.708C31.4639 108.78 50.5572 115.344 52.684 121.815C54.8108 128.286 49.8171 135.517 42.0596 135.444C36.598 135.416 32.7349 133.917 28.8586 135.708Z" fill="#DCF375"/>
<path d="M212.416 89.4959C238.878 83.8695 238.37 104.053 232.84 108.03C227.31 112.007 218.91 109.424 216.643 102.005C215.025 96.7881 215.292 92.6528 212.416 89.4959Z" fill="#DCF375"/>
<path d="M382.971 111.707C382.35 138.754 402.089 134.511 404.972 128.34C407.854 122.168 403.758 114.393 396.047 113.541C390.621 112.919 386.606 113.947 382.971 111.707Z" fill="#DCF375"/>
<path d="M188.971 43.7074C188.35 70.7538 208.089 66.511 210.972 60.3396C213.854 54.1682 209.758 46.3934 202.047 45.5413C196.621 44.9188 192.606 45.9474 188.971 43.7074Z" fill="#DCF375"/>
<path d="M268.486 15.7489C242.974 6.74558 240.867 26.8255 245.835 31.4847C250.804 36.1439 259.468 34.6688 262.676 27.6055C264.955 22.6422 265.226 18.5072 268.486 15.7489Z" fill="#DCF375"/>
</svg>
