<svg width="337" height="85" viewBox="0 0 337 85" fill="none" xmlns="http://www.w3.org/2000/svg">
<path d="M314.284 42.1097C327.591 52.4138 317.803 60.2846 313.692 59.2572C309.581 58.2299 307.432 53.2028 310.043 49.1443C311.87 46.2794 313.941 44.7438 314.284 42.1097Z" fill="#DCF375"/>
<path d="M55.2986 10.0695C83.9252 -6.18822 90.7578 17.4118 85.8058 24.0587C80.8539 30.7056 70.1602 30.7974 64.8019 23.0251C61.0066 17.569 59.7949 12.6741 55.2986 10.0695Z" fill="#BBD645"/>
<path d="M276.336 14.9829C257.019 4.0125 252.409 19.9373 255.75 24.4225C259.092 28.9077 266.308 28.9696 269.923 23.725C272.484 20.0434 273.302 16.7404 276.336 14.9829Z" fill="#BBD645"/>
<path d="M336.154 59.3623C319.856 43.3395 311.054 57.9501 313.188 63.2942C315.322 68.6382 322.48 70.6111 327.463 66.3549C330.984 63.373 332.672 60.3059 336.154 59.3623Z" fill="#BBD645"/>
<path d="M4.51855 54.6381C-0.205318 76.3281 16.3582 75.9927 19.6439 71.4715C22.9296 66.9503 20.8436 60.0476 14.7652 58.1572C10.4915 56.8084 7.09723 57.0102 4.51855 54.6381Z" fill="#BBD645"/>
<path d="M89.5345 6.72196C74.4578 13.0698 81.6819 22.9115 85.8001 22.9753C89.9183 23.0391 93.1946 18.8554 91.7572 14.3902C90.7584 11.2423 89.1978 9.28192 89.5345 6.72196Z" fill="#DCF375"/>
<path d="M249.348 2.33476C264.424 8.68261 257.2 18.5243 253.082 18.5881C248.964 18.6519 245.687 14.4682 247.125 10.003C248.124 6.85507 249.684 4.89472 249.348 2.33476Z" fill="#DCF375"/>
<path d="M5.96125 79.0932C7.53662 62.8108 19.0818 66.78 20.3678 70.6928C21.6538 74.6055 18.6342 78.9781 13.9435 78.9342C10.641 78.9171 8.30517 78.0103 5.96125 79.0932Z" fill="#DCF375"/>
<path d="M114.953 51.1527C130.954 47.7506 130.647 59.9551 127.303 62.36C123.959 64.7648 118.88 63.2025 117.509 58.7164C116.531 55.5621 116.692 53.0616 114.953 51.1527Z" fill="#DCF375"/>
<path d="M217.687 63.5823C217.312 79.9365 229.248 77.371 230.991 73.6393C232.734 69.9077 230.256 65.2064 225.594 64.6912C222.313 64.3148 219.886 64.9368 217.687 63.5823Z" fill="#DCF375"/>
<path d="M168.011 24.4378C167.635 40.792 179.571 38.2264 181.314 34.4948C183.057 30.7631 180.58 26.0619 175.917 25.5467C172.636 25.1703 170.209 25.7923 168.011 24.4378Z" fill="#DCF375"/>
<path d="M216.091 6.92712C200.665 1.48309 199.391 13.6248 202.395 16.4421C205.4 19.2594 210.638 18.3674 212.578 14.0965C213.957 11.0953 214.12 8.59498 216.091 6.92712Z" fill="#DCF375"/>
</svg>
