<svg width="529" height="137" viewBox="0 0 529 137" fill="none" xmlns="http://www.w3.org/2000/svg">
<path d="M490.638 67.7598C512.909 86.3847 495.525 99.3178 488.505 97.2803C481.485 95.2429 478.106 86.438 482.872 79.6113C486.206 74.7911 489.875 72.2783 490.638 67.7598Z" fill="#DCF375"/>
<path d="M2.29891 18.7074C44.6748 -5.35885 54.789 29.5762 47.4587 39.4156C40.1284 49.255 24.2985 49.3909 16.3666 37.8856C10.7485 29.8089 8.95476 22.563 2.29891 18.7074Z" fill="#BBD645"/>
<path d="M332.46 24.5412C303.866 8.30174 297.041 31.8752 301.987 38.5146C306.933 45.154 317.615 45.2457 322.967 37.4822C326.758 32.0322 327.969 27.1428 332.46 24.5412Z" fill="#BBD645"/>
<path d="M527.219 98.9214C500.163 70.245 484.044 94.8602 487.376 104.211C490.708 113.561 502.918 117.426 511.785 110.412C518.048 105.5 521.156 100.322 527.219 98.9214Z" fill="#BBD645"/>
<path d="M23.6955 91.9551C16.7028 124.063 41.2217 123.566 46.0855 116.874C50.9494 110.181 47.8615 99.9628 38.8637 97.1644C32.5372 95.1678 27.5127 95.4665 23.6955 91.9551Z" fill="#BBD645"/>
<path d="M52.9778 13.7534C30.6599 23.1501 41.3537 37.7187 47.4498 37.8132C53.546 37.9076 58.3959 31.7146 56.2682 25.1046C54.7897 20.4448 52.4795 17.5429 52.9778 13.7534Z" fill="#DCF375"/>
<path d="M292.51 2.85495C314.828 12.2517 304.134 26.8203 298.038 26.9147C291.942 27.0092 287.092 20.8161 289.219 14.2062C290.698 9.54637 293.008 6.64446 292.51 2.85495Z" fill="#DCF375"/>
<path d="M25.8309 128.156C28.1629 104.053 45.2532 109.929 47.1569 115.721C49.0606 121.513 44.5907 127.986 37.647 127.921C32.7584 127.895 29.3006 126.553 25.8309 128.156Z" fill="#DCF375"/>
<path d="M190.132 82.7924C213.818 77.7563 213.363 95.8227 208.413 99.3825C203.464 102.942 195.945 100.63 193.916 93.9889C192.467 89.3196 192.706 85.6182 190.132 82.7924Z" fill="#DCF375"/>
<path d="M343.69 107.674C343.134 131.883 360.802 128.085 363.382 122.561C365.963 117.037 362.296 110.078 355.394 109.315C350.537 108.758 346.944 109.679 343.69 107.674Z" fill="#DCF375"/>
<path d="M169.147 40.0175C168.59 64.2266 186.259 60.4288 188.839 54.9049C191.419 49.3809 187.752 42.4217 180.851 41.659C175.994 41.1018 172.401 42.0225 169.147 40.0175Z" fill="#DCF375"/>
<path d="M240.32 14.0968C217.485 6.03806 215.598 24.0115 220.046 28.1819C224.493 32.3523 232.248 31.032 235.119 24.7096C237.16 20.267 237.402 16.5658 240.32 14.0968Z" fill="#DCF375"/>
</svg>
