<svg id="e5CSrmp3bP01" xmlns="http://www.w3.org/2000/svg" xmlns:xlink="http://www.w3.org/1999/xlink" viewBox="0 0 188 381" shape-rendering="geometricPrecision" text-rendering="geometricPrecision"><style><![CDATA[#e5CSrmp3bP02_to {animation: e5CSrmp3bP02_to__to 5000ms linear infinite normal forwards}@keyframes e5CSrmp3bP02_to__to { 0% {transform: translate(147.83432px,358.93px)} 50% {transform: translate(150.83px,358.93px)} 100% {transform: translate(147.83432px,358.93px)}} #e5CSrmp3bP02_tr {animation: e5CSrmp3bP02_tr__tr 5000ms linear infinite normal forwards}@keyframes e5CSrmp3bP02_tr__tr { 0% {transform: rotate(0deg)} 26% {transform: rotate(4deg)} 36% {transform: rotate(3deg)} 56% {transform: rotate(0deg)} 76% {transform: rotate(3deg)} 84% {transform: rotate(2deg)} 100% {transform: rotate(0deg)}} #e5CSrmp3bP08_tr {animation: e5CSrmp3bP08_tr__tr 5000ms linear infinite normal forwards}@keyframes e5CSrmp3bP08_tr__tr { 0% {transform: translate(141.097px,289.184px) rotate(0deg)} 16% {transform: translate(141.097px,289.184px) rotate(-2deg)} 48% {transform: translate(141.097px,289.184px) rotate(2deg)} 80% {transform: translate(141.097px,289.184px) rotate(-2deg)} 100% {transform: translate(141.097px,289.184px) rotate(0deg)}} #e5CSrmp3bP014_to {animation: e5CSrmp3bP014_to__to 5000ms linear infinite normal forwards}@keyframes e5CSrmp3bP014_to__to { 0% {transform: translate(142.212005px,297.105001px)} 20% {transform: translate(142.212007px,297.105004px)} 72% {transform: translate(141.097003px,297.105004px)} 100% {transform: translate(142.212006px,297.105003px)}} #e5CSrmp3bP014_tr {animation: e5CSrmp3bP014_tr__tr 5000ms linear infinite normal forwards}@keyframes e5CSrmp3bP014_tr__tr { 0% {transform: rotate(0deg)} 20% {transform: rotate(2deg)} 72% {transform: rotate(-6deg)} 100% {transform: rotate(0deg)}} #e5CSrmp3bP027_tr {animation: e5CSrmp3bP027_tr__tr 5000ms linear infinite normal forwards}@keyframes e5CSrmp3bP027_tr__tr { 0% {transform: translate(164.57651px,330.079423px) rotate(0deg)} 36% {transform: translate(164.57651px,330.079423px) rotate(7deg)} 84% {transform: translate(164.57651px,330.079423px) rotate(-2deg)} 100% {transform: translate(164.57651px,330.079423px) rotate(0deg)}}]]></style><g id="e5CSrmp3bP02_to" transform="translate(147.83432,358.93)"><g id="e5CSrmp3bP02_tr" transform="rotate(0)"><g transform="translate(-147.834304,-358.929999)"><path d="M105.277,332.855c13.21,15.756,30.515,21.709,54.85,29.514-8.358-2.148-17.04-2.777-25.626-1.854-9.795,1.568-10.62.423-17.76-5.454-5.261-4.158-12.067-3.281-17.0538-7.057-4.9864-3.776-4.0842-13.494-9.2367-18.307s-14.2032-.598-18.6881-6.582c-5.9466-7.771,4.5871-10.734,6.3287-16.544c2.8488-10.243-8.8266-7.735-12.8282-13.371-4.0017-5.636,5.585-7.171,4.8515-13.755-.9071-9.003-12.6941-7.861-18.9584-7.602c2.1102-1.377,4.1157-2.907,6.0002-4.578c19.7987-3.17,29.4526,7.731,34.402,23.959s4.3823,30.041,13.7188,41.631Z" fill="#689929"/><path d="M61.2076,263.854l2.0932-1.612c4.5368-3.705,12.2466-9.62,18.1845-7.911s7.9369,10.856,10.0296,16.585c3.6405,10.055,10.1261,3.166,15.3851,9.983c5.26,6.817-.147,15.767-2.723,21.711-3.264,7.65-1.346,13.619,7.109,15.031c8.456,1.412,10.421-1.668,14.329,7.387c6.14,16.384,18.523,29.69,34.464,37.033-24.334-7.806-42.056-13.691-54.849-29.515-9.337-11.589-8.4738-25.556-13.4399-41.888-4.966-16.332-15.0865-27.477-34.4019-23.959l3.7695-3.156.0499.311Z" fill="#5e8a25"/><path d="M49.8328,250.891c2.9568,3.781,4.5783,9.904,9.2235,12.884-13.6278-1.01-28.6293-11.267-40.6916-29.866-.791-2.615-1.8059-5.158-3.0335-7.599c5.5527,4.642,9.9114-.842,13.6245,6.329c2.7558,5.196,1.6606,10.371,7.8974,13.947s8.9191-.364,12.9797,4.305Z" fill="#89b823"/><path d="M61.2081,263.855l-3.7696,3.156c-1.8845,1.671-3.89,3.201-6.0002,4.578-6.7628,4.487-13.2778,5.849-15.3581-6.477-1.6606-10.372-4.5227-5.552-11.4964-10.393-4.695-3.29-4.4741-9.921-4.9586-14.95-.0666-1.086-.239-2.162-.5148-3.215-.047-.912-.1917-1.816-.4317-2.697c12.0622,18.6,27.0637,28.857,40.6915,29.867l1.8379.131Z" fill="#a1c94b"/><path d="M19.1091,236.551c.2757,1.053.4481,2.13.5148,3.216-5.2974-6.386-7.7032-4.724-14.30413-5.901-10.3265-1.751-2.77816-9.342-7.90654-12.67-5.12837-3.327-6.26837-6.443-2.29494-8.994c2.33482-1.437,8.56419.757,11.00155,1.962c4.12986,3.185,7.40196,7.339,9.52396,12.092c1.2276,2.441,2.2425,4.984,3.0335,7.599.24.881.3848,1.785.4318,2.696Z" fill="#416015"/></g></g></g><g id="e5CSrmp3bP08_tr" transform="translate(141.097,289.184) rotate(0)"><g transform="translate(-141.096995,-289.183997)"><path d="M118.499,240.534c12.661,7.653,21.734,34.284,24.142,49.323-6.786-15.247-17.802-28.244-31.755-37.467-18.9884-13.129-5.882-24.057-36.636-43.919c6.5013.555,13.2446-6.056,19.2884-7.024c1.7756-.211,3.5709.166,5.1075,1.074c1.5361.908,2.7291,2.296,3.3911,3.948c3.206,5.338.423,11.315,1.353,17.123c1.035,3.794,2.938,7.297,5.559,10.236c2.621,2.938,5.889,5.233,9.55,6.706Z" fill="#416015"/><path d="M110.886,252.393c13.696,9.101,24.549,21.848,31.326,36.791-5.983-7.339-12.416-14.302-19.263-20.851-7.052-3.955-15.103-5.805-23.1895-5.329-8.6186-.428-15.7571-1.626-17.6971-11.74-1.0794-6.742,5.9994-16.598-2.5918-20.861-8.5911-4.262-14.6777,5.116-21.837-2.886s1.6968-14.101-7.3278-18.4c-4.6331-2.237-14.7076-.411-17.0918-6.625-1.7017-4.621,2.0753-6.396,4.9569-9.091c4.0766-3.039,7.1314-7.238,8.7598-12.04l4.988,1.116c2.2101.658,4.2703,1.737,6.0662,3.177c1.2401.975,2.2748,2.183,3.0448,3.557.7701,1.373,1.2604,2.885,1.443,4.448c1.1292,7.053,1.2226,10.974,8.7809,14.125.9223.344,1.8917.547,2.8753.603c31.1871,19.9,18.0811,30.827,36.7571,44.006Z" fill="#4d7212"/><path d="M43.6638,80.178c5.0334,10.7709,6.1897,22.943,3.275,34.474-3.4441,15.87-9.6474,31.862-4.82,43.322c4.8273,11.461,11.2846,15.746,16.2992,27.708-1.7959-1.44-3.8561-2.519-6.0662-3.177l-4.988-1.116c-6.2511-.236-12.4166-1.514-18.2398-3.782-5.3247-2.551-14.0608-8.386-6.7512-14.131c5.1621-3.805,11.0215-3.254,5.3211-11.489-4.4471-6.416-11.8451-12.571-9.0387-21.744c2.8065-9.172,13.1326-.081,13.2343-9.459.0698-4.904-6.0023-12.123-.724-15.202c3.3271-1.916,5.6087,1.655,7.237-2.861.9893-2.498-2.6848-5.4206-1.2787-7.986c2.6785-5.1896,4.1373-10.916,4.2658-16.746l2.2742,2.189Z" fill="#689929"/><path d="M53.4303,93.8289c.8081,2.3701,1.2067,4.8601,1.179,7.3641.2229,10.07-6.0504,11.606-.042,20.431s2.5698,9.375-2.5532,17.429s2.4942,10.239,5.3571,17.439c2.8629,7.201-1.3613,10.856,6.5154,17.999c7.8766,7.143,12.0809,8.703,12.6542,18.292.7078,7.759,4.3819,10.681,16.7821,8.695-6.0438.968-12.7872,7.579-19.2885,7.025-.9836-.057-1.9529-.26-2.8753-.604-7.5582-3.151-7.8601-7.039-8.7809-14.125-.1825-1.563-.6729-3.075-1.4429-4.448-.7701-1.374-1.8047-2.582-3.0448-3.557-5.0146-11.962-11.4719-16.247-16.2993-27.707-4.8274-11.461,1.3759-27.453,4.8201-43.323c2.9147-11.531,1.7583-23.7031-3.2751-34.4739c4.359,3.5611,7.8548,8.0553,10.2277,13.1489l.0664.4149Z" fill="#5e8a25"/><path d="M28.4762,63.4634c6.1027-1.9344,15.689,3.8708,25.0747,30.4518-2.2438-5.0768-5.5951-9.5912-9.8108-13.2157l-2.3618-2.0686c-3.3083-2.7857-6.8544-5.279-10.5981-7.4517-.7207-.2886-1.3665-.7355-1.8894-1.3072s-.9095-1.2538-1.1309-1.9952-.272-1.5233-.148-2.2874.4194-1.4907.8643-2.126Z" fill="#a1c94b"/></g></g><g id="e5CSrmp3bP014_to" transform="translate(142.212005,297.105001)"><g id="e5CSrmp3bP014_tr" transform="rotate(0)"><g transform="translate(-142.212003,-297.104998)"><path d="M159.178,267c2.803,2.091,4.679,5.186,5.23,8.631.552,3.445-.264,6.97-2.274,9.831l-.684,1.067c-.85,1.141-1.785,2.215-2.798,3.214-5.16,3.813-11.196,6.279-17.555,7.172c5.12-4.59,8.646-10.679,10.069-17.388c1.423-6.71-3.663-19.585-6.484-25.834l6.629,4.887c2.039,3.296,4.713,6.158,7.867,8.42Z" fill="#5e8a25"/><path d="M97.3071,42.7613c1.2698.767,2.5924,1.4439,3.9579,2.0257c14.873,8.7884,13.307,24.8986,3.598,29.0061l-2.213-.3602c-3.1026-1.0021-6.7832-1.0825-10.0237-.6923s-6.3577,1.4781-9.1351,3.1882-5.1483,4.0013-6.9479,6.7144-2.9847,5.7829-3.4729,8.9961C70.8738,105.288,84.5194,111.082,87.0136,121.32c-8.6032-5.005-30.6395-9.136-29.0291-18.436.7357-3.4155,4.3707-4.7421,5.6772-7.9299c2.2294-6.1013-5.4932-12.9495,2.1032-17.5698c7.5965-4.6204,12.1615-.1387,11.0626-9.0049-.6476-4.045-2.1185-4.5542,2.518-7.6368c3.5474-1.7908,7.2437-3.2724,11.0472-4.4281c4.7859-2.1492,7.2478-6.7984,2.3116-17.6033c1.2899,1.6025,2.8468,2.9724,4.6028,4.0501Z" fill="#689929"/><path d="M124.157,52.2934c1.226.5692,2.404,1.2342,3.524,1.9887c2.121,1.2308,3.873,3.0022,5.076,5.132s1.814,4.541,1.77,6.9858c-.044,2.4447-.741,4.8345-2.02,6.9237-1.28,2.0891-3.094,3.802-5.257,4.9626-2.965,1.4072-6.343,1.6832-9.495.7755L115.022,78.01c-3.513-1.246-6.9-3.044-10.259-3.9956c10.022-4.1576,11.787-20.5031-3.086-29.2914c7.212,2.9939,15.634,4.1985,22.584,7.5537l-.104.0167Z" fill="#5e8a25"/><path d="M117.758,79.0608c-2.839.9505-5.394,2.593-7.434,4.7776-2.039,2.1846-3.498,4.8419-4.243,7.7297-1.469,8.8519,6.943,13.9939,13.575,18.0379c6.633,4.045,9.082,5.993,7.097,14.289s-3.049,11.658,2.69,16.802c5.74,5.145,11.13,10.771,6.859,16.135-4.271,5.365-.853,10.03-2.131,14.064-.232-.711-.591-1.374-1.061-1.957-2.616-14.037-8.393-27.296-16.897-38.782-8.794-12.209-31.885-36.2763-1.626-51.5459l3.171.4497Z" fill="#a1c94b"/><path d="M116.232,129.627c8.504,11.487,14.28,24.746,16.897,38.782-2.15-1.85-4.89-2.881-7.734-2.91l-5.755-.568-.729.116c-9.394-1.261-12.121-5.612-11.403-13.811.307-4.092,4.387-4.639-.011-8.083-4.399-3.445-8.9815-.69-12.2691-1.866-8.4085-3.121-8.4807-7.577-7.6844-14.619.0488-1.59-.2047-3.173-.7473-4.668-2.4942-10.238-16.2063-16.447-13.9433-29.6807.4883-3.2132,1.6734-6.283,3.473-8.9961s4.1705-5.0043,6.9479-6.7144s5.8947-2.798,9.1351-3.1882s6.5264-.0732,9.6291.9289l2.096.409c3.359.9516,6.746,2.7496,10.259,3.9956-30.0461,14.5972-6.955,38.6649,1.839,50.8729Z" fill="#89b823"/><path d="M101.268,44.7929c-1.3654-.5818-2.688-1.2587-3.9579-2.0257-1.7345-1.1217-3.2619-2.5324-4.5152-4.1705-7.9128-9.3708-18.0026-29.66912-5.9075-30.22269c1.173.26093,2.2625.80709,3.171,1.58974s1.608,1.77745,2.0358,2.89545c5.4993,16.5736,16.8998,30.5636,32.0548,39.3337-7.196-2.8902-15.668-4.406-22.881-7.4Z" fill="#a1c94b"/><path d="M148.91,259.595c-7.079-16.845-24.857-31.763-30.921-44.941-10.164-22.095,8.4-36.981,7.307-49.146c2.844.029,5.584,1.06,7.734,2.911.47.583.829,1.246,1.061,1.957.506,2.801.307,5.684-.58,8.391-2.745,10.226-10.89,18.764-5.953,29.568c4.936,10.805,16.431,9.177,25.534,14.635c10.882,6.555,7.294,13.512,1.503,22.737-3.896,6.368-4.945,9.833-3.388,12.882l-2.297,1.006Z" fill="#5e8a25"/><path d="M148.911,259.595c2.821,6.249,3.575,13.232,2.152,19.941s-4.949,12.798-10.069,17.389c-2.049.611-4.031,1.427-5.916,2.436-.598-3.734-3.104-7.375-3.827-10.557-2.241-9.321,3.294-9.463,8.062-16.396c12.351-16.977-17.592-26.437-27.589-35.475-3.391-2.522-6.202-5.734-8.249-9.423-2.046-3.689-3.28-7.77-3.6198-11.973.8838-7.163,10.0208-8.838,7.3538-16.815-1.988-5.745-8.6133-8.408-8.8258-15.075-.2126-6.668,5.6158-8.984,11.9808-11.28c6.366-2.295,7.384-3.948,8.207-7.484l.729-.116l5.756.567c1.092,12.165-17.055,26.985-7.308,49.147c6.306,13.351,23.667,28.336,31.163,45.114Z" fill="#689929"/><path d="M140.97,296.828c3.356-1.07,6.761-1.828,10.205-3.017c3.271-1.09,6.175-3.065,8.384-5.704c2.337-2.503,3.881-5.637,4.436-9.008.206-1.677.074-3.377-.388-5.002s-1.244-3.141-2.302-4.46c-1.145-1.302-2.377-2.527-3.686-3.665-1.364-1.096-2.659-2.274-3.878-3.528-1.27-1.263-2.274-2.766-2.952-4.42-.505-1.714-.462-3.543.124-5.233c1.309-3.262,2.96-6.379,4.924-9.298c1.912-2.925,3.276-6.171,4.023-9.58.211-1.667-.059-3.358-.78-4.875-.852-1.467-1.966-2.766-3.286-3.835-2.787-2.02-5.888-3.571-9.179-4.594-3.287-1.176-6.717-1.903-10.038-3.287-3.409-1.29-6.323-3.614-8.331-6.644-1.932-3.043-2.876-6.606-2.703-10.205.423-3.573,1.457-7.049,3.058-10.276c1.427-3.101,2.958-6.218,4.144-9.493.6-1.657,1.042-3.366,1.32-5.105.435-1.675.292-3.563-.119-5.243.497,1.684.717,3.597.344,5.314-.25,1.747-.615,3.475-1.095,5.175-1.153,3.331-2.485,6.598-3.99,9.787-1.433,3.132-2.342,6.476-2.691,9.898-.128,3.385.78,6.727,2.603,9.583c1.927,2.877,4.752,5.042,8.04,6.159c3.113,1.417,6.559,2.248,9.951,3.407c3.399,1.077,6.568,2.769,9.349,4.992c1.451,1.074,2.6,2.502,3.336,4.147.847,1.625,1.144,3.48.846,5.289-1.421,7.142-7.092,11.773-9.172,18.808-.635,1.607-.69,3.383-.157,5.025.651,1.589,1.683,2.994,3.006,4.093c1.275,1.285,2.62,2.346,3.982,3.511c1.412,1.084,2.717,2.3,3.895,3.632c1.156,1.407,2.011,3.035,2.512,4.784.5,1.75.636,3.583.399,5.387-.569,3.607-2.233,6.955-4.77,9.593-2.344,2.68-5.401,4.644-8.818,5.667-3.543.568-6.982,1.118-10.288,2.498l-.258-.277Z" fill="#527820"/><path d="M92.0043,12.9809c-.4673-1.0933-1.171-2.0702-2.0612-2.8613-.8964-.76264-1.9731-1.28575-3.129-1.5202v0c-.7033-.0223-1.4042.09571-2.0614.34709s-1.2575.63103-1.7655,1.11661c-.9266,1.0671-1.4299,2.434-1.4152,3.8434.0966,2.9058.7719,5.7627,1.9869,8.4049c1.0788,2.7231,2.3588,5.3627,3.8293,7.8971c1.4378,2.5598,3.0794,5.0005,4.9092,7.2987c1.5966,2.4716,3.8363,4.4656,6.4813,5.7704c2.6363,1.327,5.3853,2.4175,8.2163,3.2587c5.807,1.3641,11.515,3.1157,17.085,5.243v0c1.684.7187,3.294,1.6013,4.804,2.635c1.496,1.1364,2.743,2.5658,3.664,4.2002c1.809,3.1374,2.399,6.8269,1.661,10.3719-.379,1.8477-1.157,3.5919-2.279,5.1123s-2.562,2.7806-4.22,3.6937c-1.591,1.0022-3.396,1.6191-5.269,1.8011-1.825.1224-3.658-.0513-5.426-.5142v0c-2.31-.7045-4.56-1.5892-6.729-2.6458-2.179-.9277-4.375-1.959-6.625-2.6626c4.571,1.183,8.908,3.5735,13.446,4.549c1.689.4755,3.455.6262,5.201.4438c1.692-.2527,3.308-.8747,4.732-1.8213c1.488-.8403,2.782-1.9841,3.797-3.3565c1.014-1.3723,1.726-2.9422,2.088-4.6067.769-3.5443.177-7.2448-1.66-10.3719-.93-1.4715-2.079-2.794-3.407-3.9224-1.436-1.0434-2.976-1.9375-4.595-2.6684v0c-5.476-2.2804-11.102-4.1875-16.838-5.7079-2.598-.6535-5.134-1.5287-7.5798-2.6161-2.7204-1.3316-5.0843-3.2862-6.8982-5.7037-3.7944-4.5716-6.9125-9.6605-9.2595-15.1124-.9943-2.867-1.4776-5.8857-1.4281-8.9198.022-1.6106.6524-3.1547,1.7656-4.32503c1.2538-.95186,2.7732-1.49253,4.3479-1.54714v0c1.2259.26203,2.3557.8538,3.2664,1.71095.8555.83572,1.4966,1.86402,1.8695,2.99842l-.5045.1871Z" fill="#7db831"/></g></g></g><path d="M135.074,299.361c1.884-1.009,3.866-1.825,5.915-2.436c6.36-.893,12.396-3.359,17.555-7.172c1.014-.999,1.949-2.074,2.799-3.214-13.992,20.75-15.202,29.879-15.112,39.12-.522,14.254,3.616,27.299,12.959,38.098-3.522-1.732-6.554-1.978-10.456-2.437-2.92-.374-5.76-1.213-8.413-2.483-.47-.178-.907-.431-1.295-.75-9.028-6.32-6.033-10.31-1.644-17.608s.449-11.88-5.227-18.63c-1.575-1.38-2.807-3.104-3.601-5.037-.794-1.934-1.128-4.024-.975-6.109.153-2.084.787-4.106,1.855-5.907c1.067-1.801,2.538-3.333,4.297-4.475l1.343-.96Z" fill="#aed951"/><path d="M160.439,354.291c-1.231,2.325-3.694,2.294-4.388,4.639-1.235-1.358-2.155-2.97-2.694-4.722s-.684-3.601-.425-5.417c.645-2.533,1.976-4.844,3.847-6.679c2.303,3.035,5.531,5.178,4.999,9.199-.22,1.079-.677,2.097-1.339,2.98Z" fill="#5e8a25"/><g id="e5CSrmp3bP027_tr" transform="translate(164.57651,330.079423) rotate(0)"><path d="M169.475,260.564l5.465,9.283c4.446,9.81,4.217,15.828-.931,19.032-4.794.768-9.379,1.502-10.055,3.951-.788,5.764,6.692,7.757,5.393,12.327-1.299,4.569-12.324,1.122-10.896,10.042.465,2.904,9.958,9.759,13.975,10.818-.86,3.096-6.362,2.289-9.254,3.319l-4.064.65c-1.149-1.837-2.786-3.383-4.039-5.204-2.969-4.524-1.129-7.053-.73-11.903c1.08-7.939-12.283-19.309-3.51-25.926c4.082-3.207,9.414.726,12.343-3.679c2.928-4.405-3.98-13.511,6.303-22.71Z" transform="translate(-165.246724,-329.985999)" fill="#689929"/></g><path d="M178.262,322.767l-3.23.517c.166,1.038-1.944,2.545-8.189,4.928l-3.439.551-4.064.65c-3.647.584-6.145,3.005-4.727,8.523.351,1.367.993,2.643,1.882,3.741c2.302,3.035,5.531,5.178,4.999,9.199-.087,1.238-.483,2.434-1.152,3.482-1.231,2.325-3.694,2.294-4.388,4.639-.152.639-.226,1.293-.222,1.95.183,1.141,3.108,2.055,3.203,3.317.095,1.261,1.764-1.666,3.893-13.07.619-3.986,2.001-7.819,4.07-11.289c2.929-4.405,7.845-7.745,10.427-12.307.86-1.457,1.191-3.162.937-4.831Z" fill="#a1c94b"/></svg>