<svg width="188" height="381" viewBox="0 0 188 381" fill="none" xmlns="http://www.w3.org/2000/svg">
<path d="M105.277 332.855C118.487 348.611 135.792 354.564 160.127 362.369C151.769 360.221 143.087 359.592 134.501 360.515C124.706 362.083 123.881 360.938 116.741 355.061C111.48 350.903 104.674 351.78 99.6872 348.004C94.7008 344.228 95.603 334.51 90.4505 329.697C85.2981 324.884 76.2473 329.099 71.7624 323.115C65.8158 315.344 76.3495 312.381 78.0911 306.571C80.9399 296.328 69.2645 298.836 65.2629 293.2C61.2612 287.564 70.8479 286.029 70.1144 279.445C69.2073 270.442 57.4203 271.584 51.156 271.843C53.2662 270.466 55.2717 268.936 57.1562 267.265C76.9549 264.095 86.6088 274.996 91.5582 291.224C96.5076 307.452 95.9405 321.265 105.277 332.855Z" fill="#689929"/>
<path d="M61.2076 263.854L63.3008 262.242C67.8376 258.537 75.5474 252.622 81.4853 254.331C87.4232 256.04 89.4222 265.187 91.5149 270.916C95.1554 280.971 101.641 274.082 106.9 280.899C112.16 287.716 106.753 296.666 104.177 302.61C100.913 310.26 102.831 316.229 111.286 317.641C119.742 319.053 121.707 315.973 125.615 325.028C131.755 341.412 144.138 354.718 160.079 362.061C135.745 354.255 118.023 348.37 105.23 332.546C95.893 320.957 96.7562 306.99 91.7901 290.658C86.8241 274.326 76.7036 263.181 57.3882 266.699L61.1577 263.543L61.2076 263.854Z" fill="#5E8A25"/>
<path d="M49.8328 250.891C52.7896 254.672 54.4111 260.795 59.0563 263.775C45.4285 262.765 30.427 252.508 18.3647 233.909C17.5737 231.294 16.5588 228.751 15.3312 226.31C20.8839 230.952 25.2426 225.468 28.9557 232.639C31.7115 237.835 30.6163 243.01 36.8531 246.586C43.0899 250.162 45.7722 246.222 49.8328 250.891Z" fill="#89B823"/>
<path d="M61.2081 263.855L57.4385 267.011C55.554 268.682 53.5485 270.212 51.4383 271.589C44.6755 276.076 38.1605 277.438 36.0802 265.112C34.4196 254.74 31.5575 259.56 24.5838 254.719C19.8888 251.429 20.1097 244.798 19.6252 239.769C19.5586 238.683 19.3862 237.607 19.1104 236.554C19.0634 235.642 18.9187 234.738 18.6787 233.857C30.7409 252.457 45.7424 262.714 59.3702 263.724L61.2081 263.855Z" fill="#A1C94B"/>
<path d="M19.1091 236.551C19.3848 237.604 19.5572 238.681 19.6239 239.767C14.3265 233.381 11.9207 235.043 5.31977 233.866C-5.00673 232.115 2.54161 224.524 -2.58677 221.196C-7.71514 217.869 -8.85514 214.753 -4.88171 212.202C-2.54689 210.765 3.68248 212.959 6.11984 214.164C10.2497 217.349 13.5218 221.503 15.6438 226.256C16.8714 228.697 17.8863 231.24 18.6773 233.855C18.9173 234.736 19.0621 235.64 19.1091 236.551Z" fill="#416015"/>
<path d="M118.499 240.534C131.16 248.187 140.233 274.818 142.641 289.857C135.855 274.61 124.839 261.613 110.886 252.39C91.8976 239.261 105.004 228.333 74.25 208.471C80.7513 209.026 87.4946 202.415 93.5384 201.447C95.314 201.236 97.1093 201.613 98.6459 202.521C100.182 203.429 101.375 204.817 102.037 206.469C105.243 211.807 102.46 217.784 103.39 223.592C104.425 227.386 106.328 230.889 108.949 233.828C111.57 236.766 114.838 239.061 118.499 240.534Z" fill="#416015"/>
<path d="M110.886 252.393C124.582 261.494 135.435 274.241 142.212 289.184C136.229 281.845 129.796 274.882 122.949 268.333C115.897 264.378 107.846 262.528 99.7595 263.004C91.1409 262.576 84.0024 261.378 82.0624 251.264C80.983 244.522 88.0618 234.666 79.4706 230.403C70.8795 226.141 64.7929 235.519 57.6336 227.517C50.4743 219.515 59.3304 213.416 50.3058 209.117C45.6727 206.88 35.5982 208.706 33.214 202.492C31.5123 197.871 35.2893 196.096 38.1709 193.401C42.2475 190.362 45.3023 186.163 46.9307 181.361L51.9187 182.477C54.1288 183.135 56.189 184.214 57.9849 185.654C59.225 186.629 60.2597 187.837 61.0297 189.211C61.7998 190.584 62.2901 192.096 62.4727 193.659C63.6019 200.712 63.6953 204.633 71.2536 207.784C72.1759 208.128 73.1453 208.331 74.1289 208.387C105.316 228.287 92.21 239.214 110.886 252.393Z" fill="#4D7212"/>
<path d="M43.6638 80.178C48.6972 90.9489 49.8535 103.121 46.9388 114.652C43.4947 130.522 37.2914 146.514 42.1188 157.974C46.9461 169.435 53.4034 173.72 58.418 185.682C56.6221 184.242 54.5619 183.163 52.3518 182.505L47.3638 181.389C41.1127 181.153 34.9472 179.875 29.124 177.607C23.7993 175.056 15.0632 169.221 22.3728 163.476C27.5349 159.671 33.3943 160.222 27.6939 151.987C23.2468 145.571 15.8488 139.416 18.6552 130.243C21.4617 121.071 31.7878 130.162 31.8895 120.784C31.9593 115.88 25.8872 108.661 31.1655 105.582C34.4926 103.666 36.7742 107.237 38.4025 102.721C39.3918 100.223 35.7177 97.3004 37.1238 94.735C39.8023 89.5454 41.2611 83.819 41.3896 77.989L43.6638 80.178Z" fill="#689929"/>
<path d="M28.4762 63.4634C34.5789 61.529 44.1652 67.3342 53.5509 93.9152C51.3071 88.8384 47.9558 84.324 43.7401 80.6995L41.3783 78.6309C38.07 75.8452 34.5239 73.3519 30.7802 71.1792C30.0595 70.8906 29.4137 70.4437 28.8908 69.872C28.3679 69.3002 27.9813 68.6182 27.7599 67.8768C27.5385 67.1354 27.4879 66.3535 27.6119 65.5894C27.7359 64.8253 28.0313 64.0987 28.4762 63.4634Z" fill="#A1C94B"/>
<path d="M53.4303 93.8289C54.2384 96.199 54.637 98.689 54.6093 101.193C54.8322 111.263 48.5589 112.799 54.5673 121.624C60.5758 130.449 57.1371 130.999 52.0141 139.053C46.8911 147.107 54.5083 149.292 57.3712 156.492C60.2341 163.693 56.0099 167.348 63.8866 174.491C71.7632 181.634 75.9675 183.194 76.5408 192.783C77.2486 200.542 80.9227 203.464 93.3229 201.478C87.2791 202.446 80.5357 209.057 74.0344 208.503C73.0508 208.446 72.0815 208.243 71.1591 207.899C63.6009 204.748 63.299 200.86 62.3782 193.774C62.1957 192.211 61.7053 190.699 60.9353 189.326C60.1652 187.952 59.1306 186.744 57.8905 185.769C52.8759 173.807 46.4186 169.522 41.5912 158.062C36.7638 146.601 42.9671 130.609 46.4113 114.739C49.326 103.208 48.1696 91.0359 43.1362 80.2651C47.4952 83.8262 50.991 88.3204 53.3639 93.414L53.4303 93.8289Z" fill="#5E8A25"/>
<path d="M97.3071 42.7613C98.5769 43.5283 99.8995 44.2052 101.265 44.787C116.138 53.5754 114.572 69.6856 104.863 73.7931L102.65 73.4329C99.5474 72.4308 95.8668 72.3504 92.6263 72.7406C89.3858 73.1308 86.2686 74.2187 83.4912 75.9288C80.7138 77.6389 78.3429 79.9301 76.5433 82.6432C74.7437 85.3563 73.5586 88.4261 73.0704 91.6393C70.8738 105.288 84.5194 111.082 87.0136 121.32C78.4104 116.315 56.3741 112.184 57.9845 102.884C58.7202 99.4685 62.3552 98.1419 63.6617 94.9541C65.8911 88.8528 58.1685 82.0046 65.7649 77.3843C73.3614 72.7639 77.9264 77.2456 76.8275 68.3794C76.1799 64.3344 74.709 63.8252 79.3455 60.7426C82.8929 58.9518 86.5892 57.4702 90.3927 56.3145C95.1786 54.1653 97.6405 49.5161 92.7043 38.7112C93.9942 40.3137 95.5511 41.6836 97.3071 42.7613Z" fill="#689929"/>
<path d="M124.157 52.2934C125.383 52.8626 126.561 53.5276 127.681 54.2821C129.802 55.5129 131.554 57.2843 132.757 59.4141C133.96 61.5439 134.571 63.9551 134.527 66.3999C134.483 68.8446 133.786 71.2344 132.507 73.3236C131.227 75.4127 129.413 77.1256 127.25 78.2862C124.285 79.6934 120.907 79.9694 117.755 79.0617L115.022 78.01C111.509 76.764 108.122 74.966 104.763 74.0144C114.785 69.8568 116.55 53.5113 101.677 44.723C108.889 47.7169 117.311 48.9215 124.261 52.2767L124.157 52.2934Z" fill="#5E8A25"/>
<path d="M117.758 79.0608C114.919 80.0113 112.364 81.6538 110.324 83.8384C108.285 86.023 106.826 88.6803 106.081 91.5681C104.612 100.42 113.024 105.562 119.656 109.606C126.289 113.651 128.738 115.599 126.753 123.895C124.768 132.191 123.704 135.553 129.443 140.697C135.183 145.842 140.573 151.468 136.302 156.832C132.031 162.197 135.449 166.862 134.171 170.896C133.939 170.185 133.58 169.522 133.11 168.939C130.494 154.902 124.717 141.643 116.213 130.157C107.419 117.948 84.328 93.8807 114.587 78.6111L117.758 79.0608Z" fill="#A1C94B"/>
<path d="M116.232 129.627C124.736 141.114 130.512 154.373 133.129 168.409C130.979 166.559 128.239 165.528 125.395 165.499L119.64 164.931L118.911 165.047C109.517 163.786 106.79 159.435 107.508 151.236C107.815 147.144 111.895 146.597 107.497 143.153C103.098 139.708 98.5155 142.463 95.2279 141.287C86.8194 138.166 86.7472 133.71 87.5435 126.668C87.5923 125.078 87.3388 123.495 86.7962 122C84.302 111.762 70.5899 105.553 72.8529 92.3193C73.3412 89.1061 74.5263 86.0363 76.3259 83.3232C78.1255 80.6101 80.4964 78.3189 83.2738 76.6088C86.0512 74.8987 89.1685 73.8108 92.4089 73.4206C95.6494 73.0304 98.9353 73.3474 102.038 74.3495L104.134 74.7585C107.493 75.7101 110.88 77.5081 114.393 78.7541C84.3469 93.3513 107.438 117.419 116.232 129.627Z" fill="#89B823"/>
<path d="M101.268 44.7929C99.9026 44.2111 98.58 43.5342 97.3101 42.7672C95.5756 41.6455 94.0482 40.2348 92.7949 38.5967C84.8821 29.2259 74.7923 8.92758 86.8874 8.37401C88.0604 8.63494 89.1499 9.1811 90.0584 9.96375C90.967 10.7464 91.6664 11.7412 92.0942 12.8592C97.5935 29.4328 108.994 43.4228 124.149 52.1929C116.953 49.3027 108.481 47.7869 101.268 44.7929Z" fill="#A1C94B"/>
<path d="M92.0043 12.9809C91.537 11.8876 90.8333 10.9107 89.9431 10.1196C89.0467 9.35696 87.97 8.83385 86.8141 8.5994V8.5994C86.1108 8.5771 85.4099 8.69511 84.7527 8.94649C84.0955 9.19787 83.4952 9.57752 82.9872 10.0631C82.0606 11.1302 81.5573 12.4971 81.572 13.9065C81.6686 16.8123 82.3439 19.6692 83.5589 22.3114C84.6377 25.0345 85.9177 27.6741 87.3882 30.2085C88.826 32.7683 90.4676 35.209 92.2974 37.5072C93.894 39.9788 96.1337 41.9728 98.7787 43.2776C101.415 44.6046 104.164 45.6951 106.995 46.5363C112.802 47.9004 118.51 49.652 124.08 51.7793V51.7793C125.764 52.498 127.374 53.3806 128.884 54.4143C130.38 55.5507 131.627 56.9801 132.548 58.6145C134.357 61.7519 134.947 65.4414 134.209 68.9864C133.83 70.8341 133.052 72.5783 131.93 74.0987C130.808 75.6191 129.368 76.8793 127.71 77.7924C126.119 78.7946 124.314 79.4115 122.441 79.5935C120.616 79.7159 118.783 79.5422 117.015 79.0793V79.0793C114.705 78.3748 112.455 77.4901 110.286 76.4335C108.107 75.5058 105.911 74.4745 103.661 73.7709C108.232 74.9539 112.569 77.3444 117.107 78.3199C118.796 78.7954 120.562 78.9461 122.308 78.7637C124 78.511 125.616 77.889 127.04 76.9424C128.528 76.1021 129.822 74.9583 130.837 73.5859C131.851 72.2136 132.563 70.6437 132.925 68.9792C133.694 65.4349 133.102 61.7344 131.265 58.6073C130.335 57.1358 129.186 55.8133 127.858 54.6849C126.422 53.6415 124.882 52.7474 123.263 52.0165V52.0165C117.787 49.7361 112.161 47.829 106.425 46.3086C103.827 45.6551 101.291 44.7799 98.8452 43.6925C96.1248 42.3609 93.7609 40.4063 91.947 37.9888C88.1526 33.4172 85.0345 28.3283 82.6875 22.8764C81.6932 20.0094 81.2099 16.9907 81.2594 13.9566C81.2814 12.346 81.9118 10.8019 83.025 9.63157C84.2788 8.67971 85.7982 8.13904 87.3729 8.08443V8.08443C88.5988 8.34646 89.7286 8.93823 90.6393 9.79538C91.4948 10.6311 92.1359 11.6594 92.5088 12.7938L92.0043 12.9809Z" fill="#7DB831"/>
<path d="M159.178 267C161.981 269.091 163.857 272.186 164.408 275.631C164.96 279.076 164.144 282.601 162.134 285.462L161.45 286.529C160.6 287.67 159.665 288.744 158.652 289.743C153.492 293.556 147.456 296.022 141.097 296.915C146.217 292.325 149.743 286.236 151.166 279.527C152.589 272.817 147.503 259.942 144.682 253.693L151.311 258.58C153.35 261.876 156.024 264.738 159.178 267Z" fill="#5E8A25"/>
<path d="M148.91 259.595C141.831 242.75 124.053 227.832 117.989 214.654C107.825 192.559 126.389 177.673 125.296 165.508C128.14 165.537 130.88 166.568 133.03 168.419C133.5 169.002 133.859 169.665 134.091 170.376C134.597 173.177 134.398 176.06 133.511 178.767C130.766 188.993 122.621 197.531 127.558 208.335C132.494 219.14 143.989 217.512 153.092 222.97C163.974 229.525 160.386 236.482 154.595 245.707C150.699 252.075 149.65 255.54 151.207 258.589L148.91 259.595Z" fill="#5E8A25"/>
<path d="M140.97 296.828C144.326 295.758 147.731 295 151.175 293.811C154.446 292.721 157.35 290.746 159.559 288.107C161.896 285.604 163.44 282.47 163.995 279.099C164.201 277.422 164.069 275.722 163.607 274.097C163.145 272.472 162.363 270.956 161.305 269.637C160.16 268.335 158.928 267.11 157.619 265.972C156.255 264.876 154.96 263.698 153.741 262.444C152.471 261.181 151.467 259.678 150.789 258.024C150.284 256.31 150.327 254.481 150.913 252.791C152.222 249.529 153.873 246.412 155.837 243.493C157.749 240.568 159.113 237.322 159.86 233.913C160.071 232.246 159.801 230.555 159.08 229.038C158.228 227.571 157.114 226.272 155.794 225.203C153.007 223.183 149.906 221.632 146.615 220.609C143.328 219.433 139.898 218.706 136.577 217.322C133.168 216.032 130.254 213.708 128.246 210.678C126.314 207.635 125.37 204.072 125.543 200.473C125.966 196.9 127 193.424 128.601 190.197C130.028 187.096 131.559 183.979 132.745 180.704C133.345 179.047 133.787 177.338 134.065 175.599C134.5 173.924 134.357 172.036 133.946 170.356C134.443 172.04 134.663 173.953 134.29 175.67C134.04 177.417 133.675 179.145 133.195 180.845C132.042 184.176 130.71 187.443 129.205 190.632C127.772 193.764 126.863 197.108 126.514 200.53C126.386 203.915 127.294 207.257 129.117 210.113C131.044 212.99 133.869 215.155 137.157 216.272C140.27 217.689 143.716 218.52 147.108 219.679C150.507 220.756 153.676 222.448 156.457 224.671C157.908 225.745 159.057 227.173 159.793 228.818C160.64 230.443 160.937 232.298 160.639 234.107C159.218 241.249 153.547 245.88 151.467 252.915C150.832 254.522 150.777 256.298 151.31 257.94C151.961 259.529 152.993 260.934 154.316 262.033C155.591 263.318 156.936 264.379 158.298 265.544C159.71 266.628 161.015 267.844 162.193 269.176C163.349 270.583 164.204 272.211 164.705 273.96C165.205 275.71 165.341 277.543 165.104 279.347C164.535 282.954 162.871 286.302 160.334 288.94C157.99 291.62 154.933 293.584 151.516 294.607C147.973 295.175 144.534 295.725 141.228 297.105L140.97 296.828Z" fill="#527820"/>
<path d="M148.911 259.595C151.732 265.844 152.486 272.827 151.063 279.536C149.64 286.245 146.114 292.334 140.994 296.925C138.945 297.536 136.963 298.352 135.078 299.361C134.48 295.627 131.974 291.986 131.251 288.804C129.01 279.483 134.545 279.341 139.313 272.408C151.664 255.431 121.721 245.971 111.724 236.933C108.333 234.411 105.522 231.199 103.475 227.51C101.429 223.821 100.195 219.74 99.8552 215.537C100.739 208.374 109.876 206.699 107.209 198.722C105.221 192.977 98.5957 190.314 98.3832 183.647C98.1706 176.979 103.999 174.663 110.364 172.367C116.73 170.072 117.748 168.419 118.571 164.883L119.3 164.767L125.056 165.334C126.148 177.499 108.001 192.319 117.748 214.481C124.054 227.832 141.415 242.817 148.911 259.595Z" fill="#689929"/>
<path d="M135.074 299.361C136.958 298.352 138.94 297.536 140.989 296.925C147.349 296.032 153.385 293.566 158.544 289.753C159.558 288.754 160.493 287.679 161.343 286.539C147.351 307.289 146.141 316.418 146.231 325.659C145.709 339.913 149.847 352.958 159.19 363.757C155.668 362.025 152.636 361.779 148.734 361.32C145.814 360.946 142.974 360.107 140.321 358.837C139.851 358.659 139.414 358.406 139.026 358.087C129.998 351.767 132.993 347.777 137.382 340.479C141.771 333.181 137.831 328.599 132.155 321.849C130.58 320.469 129.348 318.745 128.554 316.812C127.76 314.878 127.426 312.788 127.579 310.703C127.732 308.619 128.366 306.597 129.434 304.796C130.501 302.995 131.972 301.463 133.731 300.321L135.074 299.361Z" fill="#AED951"/>
<path d="M160.439 354.291C159.208 356.616 156.745 356.585 156.051 358.93C154.816 357.572 153.896 355.96 153.357 354.208C152.818 352.456 152.673 350.607 152.932 348.791C153.577 346.258 154.908 343.947 156.779 342.112C159.082 345.147 162.31 347.29 161.778 351.311C161.558 352.39 161.101 353.408 160.439 354.291Z" fill="#5E8A25"/>
<path d="M169.475 260.564L174.94 269.847C179.386 279.657 179.157 285.675 174.009 288.879C169.215 289.647 164.63 290.381 163.954 292.83C163.166 298.594 170.646 300.587 169.347 305.157C168.048 309.726 157.023 306.279 158.451 315.199C158.916 318.103 168.409 324.958 172.426 326.017C171.566 329.113 166.064 328.306 163.172 329.336L159.108 329.986C157.959 328.149 156.322 326.603 155.069 324.782C152.1 320.258 153.94 317.729 154.339 312.879C155.419 304.94 142.056 293.57 150.829 286.953C154.911 283.746 160.243 287.679 163.172 283.274C166.1 278.869 159.192 269.763 169.475 260.564Z" fill="#689929"/>
<path d="M178.262 322.767L175.032 323.284C175.198 324.322 173.088 325.829 166.843 328.212L163.404 328.763L159.34 329.413C155.693 329.997 153.195 332.418 154.613 337.936C154.964 339.303 155.606 340.579 156.495 341.677C158.797 344.712 162.026 346.855 161.494 350.876C161.407 352.114 161.011 353.31 160.342 354.358C159.111 356.683 156.648 356.652 155.954 358.997C155.802 359.636 155.728 360.29 155.732 360.947C155.915 362.088 158.84 363.002 158.935 364.264C159.03 365.525 160.699 362.598 162.828 351.194C163.447 347.208 164.829 343.375 166.898 339.905C169.827 335.5 174.743 332.16 177.325 327.598C178.185 326.141 178.516 324.436 178.262 322.767Z" fill="#A1C94B"/>
</svg>
