<svg width="111" height="29" fill="none" xmlns="http://www.w3.org/2000/svg"><path d="M5.4 1.32v14.72c0 3.52-.96 4.64-1.4 5.04-.48.44-1.24.8-2.32.8-.56 0-1.12-.12-1.6-.28V28c.52.12 1.76.36 3.16.36 2.84 0 4.84-.92 6.24-2.28 2.6-2.6 2.8-6.64 2.8-9.2V7.16H19V28h6.96V1.32H5.4zm54.39 13.36c0-3.56-1.36-7.32-4.2-10C52.87 2.08 49.03.72 45.07.72s-7.8 1.36-10.52 3.96c-2.84 2.68-4.2 6.44-4.2 10 0 3.52 1.36 7.24 4.2 9.96 2.72 2.6 6.56 3.96 10.52 3.96s7.8-1.36 10.52-3.96c2.84-2.72 4.2-6.44 4.2-9.96zM45.07 7.44c1.84 0 3.88.72 5.36 2.12a7.2 7.2 0 012.16 5.12c0 2.04-.92 3.88-2.16 5.12-1.24 1.24-3 2.08-5.36 2.08-2.32 0-4.12-.88-5.4-2.12-1-.96-2.12-2.6-2.12-4.96 0-1.88.68-3.84 2.12-5.24 1.44-1.44 3.48-2.12 5.4-2.12zm34.736-6.12h-15.6V28h6.92V7.2h8.68V1.32zm30.765 13.36c0-3.56-1.36-7.32-4.2-10-2.72-2.6-6.56-3.96-10.52-3.96s-7.8 1.36-10.52 3.96c-2.84 2.68-4.2 6.44-4.2 10 0 3.52 1.36 7.24 4.2 9.96 2.72 2.6 6.56 3.96 10.52 3.96s7.8-1.36 10.52-3.96c2.84-2.72 4.2-6.44 4.2-9.96zm-14.72-7.24c1.84 0 3.88.72 5.36 2.12a7.2 7.2 0 012.16 5.12c0 2.04-.92 3.88-2.16 5.12-1.24 1.24-3 2.08-5.36 2.08-2.32 0-4.12-.88-5.4-2.12-1-.96-2.12-2.6-2.12-4.96 0-1.88.68-3.84 2.12-5.24 1.44-1.44 3.48-2.12 5.4-2.12z" fill="#26AC52"/></svg>