<svg width="298" height="67" viewBox="0 0 298 67" fill="none" xmlns="http://www.w3.org/2000/svg">
<path d="M296.437 55.5278C269.011 70.925 262.595 48.3461 267.357 42.0192C272.119 35.6924 282.336 35.655 287.419 43.1057C291.019 48.3361 292.153 53.0182 296.437 55.5278Z" fill="#DCF375"/>
<path d="M231.479 11.1789C209.189 4.13676 207.946 21.5383 212.371 25.4192C216.795 29.3001 224.235 27.7772 226.802 21.5852C228.628 17.2334 228.743 13.6546 231.479 11.1789Z" fill="#DCF375"/>
<path d="M184.633 62.5724C161.449 61.3361 166.37 44.7225 171.839 42.6593C177.308 40.5961 183.693 44.6099 183.918 51.2637C184.096 55.9475 182.954 59.3152 184.633 62.5724Z" fill="#BBD645"/>
<path d="M152.624 60.249C169.471 63.1628 168.662 50.429 165.074 48.0511C161.486 45.6731 156.244 47.5077 154.991 52.2476C154.095 55.5809 154.363 58.186 152.624 60.249Z" fill="#DCF375"/>
<path d="M118.355 11.0843C132.58 12.7319 128.915 22.7709 125.469 23.8318C122.024 24.8927 118.247 22.1777 118.362 18.0731C118.432 15.183 119.264 13.1536 118.355 11.0843Z" fill="#BBD645"/>
<path d="M50.4666 3.14942C28.9222 12.2205 39.2454 26.2843 45.1302 26.3754C51.0151 26.4666 55.697 20.4882 53.643 14.1073C52.2157 9.60895 49.9856 6.8076 50.4666 3.14942Z" fill="#DCF375"/>
<path d="M2.21925 15.0412C43.1266 -8.19104 52.8904 25.5334 45.8141 35.0318C38.7378 44.5302 23.4565 44.6614 15.7994 33.5548C10.376 25.758 8.64444 18.7632 2.21925 15.0412Z" fill="#BBD645"/>
</svg>
