<svg width="343" height="73" viewBox="0 0 343 73" fill="none" xmlns="http://www.w3.org/2000/svg">
<path d="M2.56835 16.9488C49.9107 -9.93815 61.2104 29.0914 53.021 40.084C44.8315 51.0765 27.1464 51.2284 18.2848 38.3746C12.0082 29.3513 10.0043 21.2562 2.56835 16.9488Z" fill="#BBD645"/>
<path d="M134.659 7.73866C151.121 9.64549 146.88 21.2637 142.892 22.4915C138.904 23.7193 134.533 20.5772 134.667 15.8269C134.748 12.4821 135.711 10.1335 134.659 7.73866Z" fill="#BBD645"/>
<path d="M211.362 67.3267C184.531 65.8959 190.226 46.6689 196.556 44.2812C202.885 41.8934 210.275 46.5385 210.535 54.2391C210.741 59.6597 209.419 63.5571 211.362 67.3267Z" fill="#BBD645"/>
<path d="M58.4057 3.18779C33.4721 13.6858 45.4193 29.9619 52.2299 30.0674C59.0405 30.173 64.4589 23.254 62.0818 15.8694C60.4299 10.6635 57.849 7.42144 58.4057 3.18779Z" fill="#DCF375"/>
<path d="M174.318 64.6369C193.815 68.0091 192.879 53.2722 188.726 50.5202C184.574 47.7682 178.507 49.8913 177.057 55.3769C176.021 59.2346 176.331 62.2494 174.318 64.6369Z" fill="#DCF375"/>
<path d="M265.578 7.84248C239.781 -0.307414 238.343 19.8315 243.464 24.3229C248.585 28.8143 257.194 27.0519 260.166 19.8858C262.279 14.8494 262.412 10.7077 265.578 7.84248Z" fill="#DCF375"/>
<path d="M340.754 59.1716C309.014 76.9909 301.588 50.8603 307.1 43.5381C312.611 36.216 324.435 36.1727 330.317 44.7954C334.484 50.8487 335.797 56.2673 340.754 59.1716Z" fill="#DCF375"/>
</svg>
