<svg width="343" height="73" viewBox="0 0 343 73" fill="none" xmlns="http://www.w3.org/2000/svg">
<path d="M2.56835 16.9507C49.9107 -9.93619 61.2104 29.0933 53.021 40.0859C44.8315 51.0785 27.1464 51.2303 18.2848 38.3766C12.0082 29.3533 10.0043 21.2582 2.56835 16.9507Z" fill="#BBD645"/>
<path d="M134.659 7.74062C151.121 9.64745 146.88 21.2656 142.892 22.4934C138.904 23.7213 134.533 20.5792 134.667 15.8288C134.748 12.4841 135.711 10.1355 134.659 7.74062Z" fill="#BBD645"/>
<path d="M211.362 67.3287C184.531 65.8979 190.226 46.6709 196.556 44.2831C202.885 41.8954 210.275 46.5405 210.535 54.2411C210.741 59.6617 209.419 63.5591 211.362 67.3287Z" fill="#BBD645"/>
<path d="M58.4057 3.18779C33.4721 13.6858 45.4193 29.9619 52.2299 30.0674C59.0405 30.173 64.4589 23.254 62.0818 15.8694C60.4299 10.6635 57.849 7.42144 58.4057 3.18779Z" fill="#DCF375"/>
<path d="M174.318 64.6389C193.815 68.011 192.879 53.2741 188.726 50.5221C184.574 47.7701 178.507 49.8933 177.057 55.3788C176.021 59.2365 176.331 62.2513 174.318 64.6389Z" fill="#DCF375"/>
<path d="M265.578 7.84443C239.781 -0.305461 238.343 19.8334 243.464 24.3248C248.585 28.8162 257.194 27.0538 260.166 19.8877C262.279 14.8513 262.412 10.7096 265.578 7.84443Z" fill="#DCF375"/>
<path d="M340.754 59.1716C309.014 76.9909 301.588 50.8603 307.1 43.5381C312.611 36.216 324.435 36.1727 330.317 44.7954C334.484 50.8487 335.797 56.2673 340.754 59.1716Z" fill="#DCF375"/>
</svg>
