<svg width="267" height="60" viewBox="0 0 267 60" fill="none" xmlns="http://www.w3.org/2000/svg">
<path d="M1.99757 14.1837C38.8187 -6.72797 47.6072 23.6277 41.2377 32.1774C34.8683 40.727 21.1134 40.8451 14.2212 30.8479C9.33954 23.8299 7.78096 17.5338 1.99757 14.1837Z" fill="#BBD645"/>
<path d="M104.733 9.02203C117.536 10.5051 114.238 19.5413 111.136 20.4962C108.035 21.4512 104.635 19.0074 104.739 15.3128C104.802 12.7113 105.551 10.8846 104.733 9.02203Z" fill="#BBD645"/>
<path d="M164.39 55.3685C143.521 54.2557 147.951 39.3017 152.874 37.4446C157.797 35.5875 163.544 39.2003 163.746 45.1895C163.907 49.4054 162.878 52.4367 164.39 55.3685Z" fill="#BBD645"/>
<path d="M45.4258 2.47907C26.0334 10.6441 35.3254 23.303 40.6225 23.3851C45.9195 23.4671 50.1337 18.0859 48.2849 12.3424C47.0002 8.29337 44.9928 5.77184 45.4258 2.47907Z" fill="#DCF375"/>
<path d="M135.578 53.273C150.742 55.8958 150.014 44.4339 146.784 42.2935C143.555 40.1531 138.836 41.8044 137.709 46.0709C136.902 49.0713 137.144 51.4161 135.578 53.273Z" fill="#DCF375"/>
<path d="M206.557 9.10028C186.493 2.7616 185.374 18.4249 189.357 21.9181C193.34 25.4113 200.036 24.0406 202.347 18.4671C203.991 14.55 204.094 11.3287 206.557 9.10028Z" fill="#DCF375"/>
<path d="M265.026 49.022C240.34 62.8812 234.564 42.5578 238.851 36.8629C243.137 31.168 252.333 31.1344 256.908 37.8408C260.149 42.5488 261.17 46.7632 265.026 49.022Z" fill="#DCF375"/>
</svg>
