<svg width="40" height="40" fill="none" xmlns="http://www.w3.org/2000/svg"><path d="M27.335 26.668h-2v-7.333a.667.667 0 00-.667-.667H3.334a.667.667 0 00-.667.667v7.333h-2a.667.667 0 00-.667.666V38c0 .368.299.666.667.666h2V40H4v-1.334h20.001V40h1.334v-1.334h2A.667.667 0 0028 38V27.334a.667.667 0 00-.666-.666zM6.667 37.333H1.333v-9.332h5.334v9.332zm13.334 0h-12V32h12v5.333zm0-9.999v3.333h-12v-3.333a.667.667 0 00-.667-.666H4v-6.666h20.001v6.666h-3.333a.667.667 0 00-.667.666zm6.667 10h-5.334V28h5.334v9.332zm13.327-24.738l-1.333-12a.667.667 0 00-.66-.592h-9.334A.667.667 0 0028 .597l-1.333 11.999a.667.667 0 00.16.52.668.668 0 00.506.22h5.334V36H30a.667.667 0 00-.667.667v2.666c0 .369.299.667.667.667h6.667a.667.667 0 00.667-.667v-2.666a.667.667 0 00-.667-.667H34V13.336h5.334a.667.667 0 00.5-.22.667.667 0 00.16-.52zm-3.993 24.738v1.333h-5.334v-1.333h5.334zm-7.92-25.331l1.186-10.666h8.134l1.186 10.666H28.081zm-5.415-7.999h-4.393l-3.8-3.807a.667.667 0 00-.943-.004l-.004.004-3.8 3.807H5.333a.667.667 0 00-.667.666v10.666c0 .368.299.666.667.666h17.334a.667.667 0 00.667-.666V4.67a.667.667 0 00-.667-.666zM14 1.61l2.394 2.394h-4.787L14 1.61zm8 13.06H6V5.336h16v9.332z" fill="#1D2E3E"/><path d="M7.332 6.67v6.666h13.334V6.67H7.332zm12 5.333H8.667v-4h10.667v4z" fill="#1D2E3E"/></svg>