<svg width="43" height="40" fill="none" xmlns="http://www.w3.org/2000/svg"><path d="M42.283 35.714H36.55V22.857h4.3V25a.713.713 0 00.717.714.718.718 0 00.716-.714v-2.857a.713.713 0 00-.716-.714H32.25V4.286h1.433a.718.718 0 00.717-.715V.714A.713.713 0 0033.683 0H9.317A.718.718 0 008.6.714v2.857a.713.713 0 00.717.715h1.433v17.143H8.117l1.172-4.09a.712.712 0 00-.689-.91H6.03l2.002-1.995a.715.715 0 10-1.014-1.01l-.926.923-2.002-1.995a.718.718 0 00-1.223.505c0 .19.075.371.21.505l2.001 1.995-1.075 1.072H2.15a.718.718 0 00-.69.91l1.173 4.09h-1.2a.718.718 0 00-.716.714V25a.713.713 0 00.716.714A.718.718 0 002.15 25v-2.143h4.3v12.857H.717A.718.718 0 000 36.43v2.857A.713.713 0 00.717 40h41.566a.718.718 0 00.717-.714v-2.857a.713.713 0 00-.717-.715zm-7.166-12.857v12.857h-4.3V22.857h4.3zm-12.9-1.428V13.57h8.6v7.858h-8.6zm7.166 1.428v12.857h-4.3V22.857h4.3zm-17.2-1.428V13.57h8.6v7.858h-8.6zm5.734 1.428v12.857h-4.3V22.857h4.3zm-5.734-10.714V4.286h8.6v7.857h-8.6zm7.167 10.714h4.3v12.857h-4.3V22.857zm2.867-10.714V4.286h8.6v7.857h-8.6zM10.033 2.857V1.43h22.934v1.428H10.033zm-2.15 20h4.3v12.857h-4.3V22.857zM4.124 21.43L3.1 17.857h4.55L6.626 21.43H4.124zm37.443 17.14H1.433v-1.428h40.134v1.428z" fill="#1D2E3E"/></svg>