<svg width="40" height="40" fill="none" xmlns="http://www.w3.org/2000/svg"><path d="M39.704 25.445l-3.291-2.604V20a.781.781 0 00-.793-.781 3.525 3.525 0 00-3.157 2.084l-.422.948-1.51 2.47a3.181 3.181 0 01-2.698 1.513h-5.058a4.93 4.93 0 00-3.54 1.496 5.937 5.937 0 01-4.302 1.41l.11-.663a9.818 9.818 0 00-.329-4.544l-1.534-4.835v-3.151a12.81 12.81 0 006.095 1.527h1.898c.305 0 .6-.054.876-.157l4.088 4.09a.779.779 0 001.105 0 .78.78 0 000-1.105l-3.97-3.97a2.48 2.48 0 00.4-1.448c-.048-1.351-1.164-2.41-2.54-2.41h-1.404c-.002-.027-.005-.053-.005-.08 0-.516.42-.936.937-.936h1.423a.781.781 0 100-1.563H20.66a2.502 2.502 0 00-2.5 2.495c-1.806-.316-3.279-1.73-3.72-3.614a3.798 3.798 0 00-.414-1.045 3.927 3.927 0 002.995-3.81A3.926 3.926 0 0013.101 0a3.926 3.926 0 00-3.922 3.922 3.9 3.9 0 00.591 2.067 3.795 3.795 0 00-2.394 1.974 19.113 19.113 0 00-1.948 8.382v2.874c0 1.407.297 2.79.85 4.06l-.902 4.941-3.709 4.773v.002a.743.743 0 00-.038.054l-.01.013-1.447 2.346c-.333.54-.165 1.25.375 1.583l4.686 2.892a.781.781 0 001.075-.254 3.88 3.88 0 00.478-2.951 3.936 3.936 0 00-.304-.84l1.688-1.9-.263 2.057v.008a1.175 1.175 0 00-.004.047l-.002.036v3.133c0 .431.35.781.781.781h5.877a.78.78 0 00.781-.781c0-1.271-.61-2.402-1.553-3.116l.892-5.418a7.493 7.493 0 003.24-.412c-.02.108-.038.216-.05.325l-.917 7.798A1.437 1.437 0 0018.378 40h1.843c.332 0 .628-.21.738-.523l.328-.936.152.466c.192.594.741.993 1.366.993h1.462c.452 0 .87-.207 1.143-.567.274-.36.362-.817.241-1.253l-.877-3.163h3.266l-.914 3.145c-.128.438-.044.899.23 1.264s.693.574 1.15.574h1.447c.628 0 1.178-.402 1.369-1l.051-.16.266.451a1.44 1.44 0 001.238.709h1.471a1.435 1.435 0 001.341-1.952l-1.7-4.424a5.412 5.412 0 001.218-2.544l.003-.018.003-.01.4-2.201h1.291a3 3 0 002.805-1.907l.237-.599a.78.78 0 00-.242-.9zM13.1 1.562c1.3 0 2.36 1.059 2.36 2.36 0 1.3-1.06 2.359-2.36 2.359a2.363 2.363 0 01-2.359-2.36c0-1.3 1.058-2.358 2.36-2.358zM6.99 16.346c0-2.652.619-5.313 1.788-7.693a2.225 2.225 0 012.188-1.227c.95.087 1.735.773 1.953 1.706.62 2.65 2.798 4.604 5.422 4.86.269.027.542.041.814.044l.018.002.013-.001h1.946c.522 0 .96.406.978.904a.932.932 0 01-.262.685.93.93 0 01-.675.287h-1.898a11.23 11.23 0 01-6.42-1.994l-.009-.006a11.5 11.5 0 01-1.574-1.315.781.781 0 10-1.104 1.105c.452.453.939.872 1.45 1.251v3.485H6.99v-2.093zM5.277 38.074l-3.558-2.196.82-1.33 1.678 1.035a2.33 2.33 0 011.05 1.455c.081.346.084.698.01 1.036zm.259-3.523l-2.099-1.288 3.29-4.235a.78.78 0 00.153-.339l.61-3.34c.345.456.729.885 1.15 1.28l.413.387-.532 4.175-2.985 3.36zm3.929 3.886v-1.562h1.97c1.019 0 1.887.653 2.21 1.563h-4.18zm.105-3.124l.47-3.679v-.003l.614-4.813a.783.783 0 00-.241-.67l-.704-.659A8.63 8.63 0 017.028 20h4.799l1.398 4.406a8.249 8.249 0 01.275 3.818l-1.167 7.088H9.57zm21.588-8.887l2.8 2.8-.165.905h-3.93v-2.797a4.778 4.778 0 001.295-.908zm-7.056 12.012h-1.204l-.752-2.316c.157-.437.296-.822.401-1.105h.607l.948 3.42zm-2.09-4.984a.781.781 0 00-.717.47c-.195.448-1.195 3.285-1.627 4.513H18.52l.9-7.657a3.366 3.366 0 01.915-1.94 3.372 3.372 0 012.44-1.043h5.058c.156 0 .312-.008.467-.024v5.681h-6.29zm7.85 4.983h-1.188l1.154-3.969v-.003l.004-.012.004-.014a.92.92 0 00.014-.064l.005-.03a.8.8 0 00.007-.088l.001-.022v-2.541h3.523a3.832 3.832 0 01-1.714 1.81.78.78 0 00-.38.454l-1.43 4.48zm3.088 0l-.938-1.596.675-2.116.042-.027 1.437 3.74H32.95zm5.308-12.068c-.221.558-.752.92-1.353.92h-1.943a.78.78 0 00-.526.205l-2.338-2.338 1.303-2.133a.768.768 0 00.048-.09l.442-.995c.195-.436.541-.779.96-.974v2.255c0 .239.11.464.297.613l3.133 2.478-.023.059z" fill="#1D2E3E"/><path d="M34.353 24.556a.787.787 0 00-.229.553.79.79 0 00.229.552.788.788 0 00.552.229.787.787 0 00.553-.229.788.788 0 00.229-.552.787.787 0 00-.23-.553.787.787 0 00-.552-.229.788.788 0 00-.552.23zm-5.454-.711a.785.785 0 00.781-.782.787.787 0 00-.229-.552.787.787 0 00-.552-.229.786.786 0 00-.553.23.787.787 0 00-.228.551.786.786 0 00.78.782z" fill="#1D2E3E"/></svg>