<svg width="40" height="40" fill="none" xmlns="http://www.w3.org/2000/svg"><path d="M28.667 24H11.333a.666.666 0 00-.666.666v14.667c0 .369.299.667.666.667h17.334a.666.666 0 00.666-.667V24.667a.666.666 0 00-.666-.667zM28 38.666H12V25.334h16v13.334z" fill="#1D2E3E"/><path d="M28.667 24H11.333a.666.666 0 00-.666.666v14.667c0 .369.299.667.666.667h17.334a.666.666 0 00.666-.667V24.667a.666.666 0 00-.666-.667zM28 38.666H12V25.334h16v13.334z" fill="#1D2E3E"/><path d="M11.333 24H.667a.666.666 0 00-.667.666v14.667c0 .369.299.667.667.667h10.666a.666.666 0 00.667-.667V24.667a.666.666 0 00-.667-.667zm-.666 14.666H1.333V25.334h9.334v13.334zM39.333 24H28.667a.666.666 0 00-.667.666v14.667c0 .369.298.667.667.667h10.666a.666.666 0 00.667-.667V24.667a.666.666 0 00-.667-.667zm-.667 14.666h-9.333V25.334h9.333v13.334zM26 29.333H14a.666.666 0 00-.666.667v6.666c0 .37.299.667.667.667h12a.666.666 0 00.666-.666V30a.666.666 0 00-.666-.667zM25.335 36H14.667v-5.334h10.667V36zM22 26.667h-1.333V28H22v-1.333zm-2.667 0H18V28h1.333v-1.333zm-2.667 0h-1.334V28h1.334v-1.333zm8.001 0h-1.333V28h1.333v-1.333z" fill="#1D2E3E"/><path d="M11.333 29.333H.667v1.334h10.666v-1.334zm-3.999-2.666H4.668V28h2.666v-1.333zm0 5.333H4.668v1.334h2.666V32zm31.999-2.667H28.666v1.334h10.667v-1.334z" fill="#1D2E3E"/><path d="M34.667 30h-1.333v9.333h1.333V30zm.667-3.333h-2.667V28h2.667v-1.333zM32 33.333h-1.333v2H32v-2zm5.333 0h-1.334v2h1.334v-2zm-8.861-22.471L26 8.391V.667A.666.666 0 0025.334 0H14.667A.667.667 0 0014 .667V8.39l-2.471 2.471A.667.667 0 0012 12h16a.667.667 0 00.472-1.138zm-14.862-.195l1.528-1.529a.665.665 0 00.196-.471V1.333h9.333v7.334c0 .176.07.346.195.471l1.529 1.529H13.61zm22.39 4a2.67 2.67 0 00-2.666 2.666V18h1.333v-.667a1.335 1.335 0 012.667 0v7.334h1.333v-7.334a2.67 2.67 0 00-2.666-2.666z" fill="#1D2E3E"/><path d="M38 21.334h-2v1.333h2v-1.333zM19.334 20h-6.667a.666.666 0 00-.667.667v4c0 .368.299.666.667.666h6.667a.667.667 0 00.666-.666v-4a.666.666 0 00-.666-.667zm-.667 4h-5.333v-2.667h5.333V24z" fill="#1D2E3E"/><path d="M12.667 21.334h-2v1.333h2v-1.333zm8.666 0h-2v1.333h2v-1.333zM11.333 0H.667A.667.667 0 000 .667v8c0 .368.299.666.667.666h10.666A.667.667 0 0012 8.667v-8A.667.667 0 0011.333 0zm-.666 8H1.333V1.333h9.334V8z" fill="#1D2E3E"/><path d="M9.333 4H8v2.666h1.333V4zm30-4H28.666A.666.666 0 0028 .667v8c0 .368.298.666.666.666h10.667A.666.666 0 0040 8.667v-8A.666.666 0 0039.333 0zm-.667 8h-9.333V1.333h9.333V8z" fill="#1D2E3E"/><path d="M32 4h-1.333v2.666H32V4zm-20 9.333H0v1.333h12v-1.333z" fill="#1D2E3E"/><path d="M2.667 12H1.334v6h1.333v-6z" fill="#1D2E3E"/><path d="M2 17.333c-1.103 0-2 .897-2 2s.897 2 2 2 2-.897 2-2-.897-2-2-2zM2 20a.668.668 0 010-1.334A.668.668 0 012 20zm3.334-8H4.001v6h1.333v-6z" fill="#1D2E3E"/><path d="M4.667 17.333c-1.103 0-2 .897-2 2s.897 2 2 2 2-.897 2-2-.897-2-2-2zm0 2.667A.668.668 0 014 19.332a.668.668 0 011.334 0c0 .367-.3.667-.667.667zM8 12H6.665v6H8v-6z" fill="#1D2E3E"/><path d="M7.332 17.333c-1.102 0-2 .897-2 2s.898 2 2 2c1.103 0 2-.897 2-2s-.897-2-2-2zm0 2.667a.668.668 0 010-1.334.668.668 0 010 1.334z" fill="#1D2E3E"/></svg>