<svg width="45" height="40" fill="none" xmlns="http://www.w3.org/2000/svg"><path d="M45 28.214V20a.709.709 0 00-.213-.505.732.732 0 00-.513-.21h-1.451a10.989 10.989 0 00-7.695 3.142A10.64 10.64 0 0031.936 30c0 .19.076.371.212.505s.32.21.513.21h2.647L32.85 38.57h-5.27v-1.428a.709.709 0 00-.213-.505.732.732 0 00-.513-.21h-2.178v-8.57h5.807a.731.731 0 00.513-.21.709.709 0 00.213-.505V25a.709.709 0 00-.213-.505.732.732 0 00-.513-.21h-7.258V8.573H41.37c.17 0 .334-.059.464-.165a.712.712 0 00.17-.899.723.723 0 00-.374-.318L22.761.048a.737.737 0 00-.521 0L3.369 7.19a.723.723 0 00-.374.318.705.705 0 00.17.899c.13.106.294.165.464.165h18.145v15.714h-7.258a.732.732 0 00-.513.209.709.709 0 00-.213.505v2.143c0 .19.077.371.213.505s.32.21.513.21h5.807v8.57h-2.178a.732.732 0 00-.513.21.709.709 0 00-.213.505v1.428h-5.27l-2.457-7.857h2.647a.731.731 0 00.513-.209.708.708 0 00.213-.505 10.64 10.64 0 00-3.193-7.573 10.989 10.989 0 00-7.695-3.141H.726a.732.732 0 00-.513.209A.709.709 0 000 20v8.214c0 .663.269 1.299.745 1.767a2.564 2.564 0 001.795.733h.832L.915 38.571h-.19a.732.732 0 00-.512.21.709.709 0 000 1.01.73.73 0 00.513.209h43.548a.732.732 0 00.513-.21.709.709 0 000-1.01.732.732 0 00-.513-.209h-.19l-2.456-7.857h.832c.673 0 1.319-.264 1.795-.733A2.482 2.482 0 0045 28.214zM2.54 29.286a1.1 1.1 0 01-.77-.314 1.064 1.064 0 01-.318-.758v-7.5h.725a9.533 9.533 0 016.408 2.476 9.242 9.242 0 013 6.096H2.54zm-.106 9.285l2.457-7.857h3.282l2.457 7.857H2.434zM7.538 7.143L22.5 1.48l14.962 5.663H7.538zm7.704 19.286v-.715h14.516v.715H15.242zm7.984 1.428v8.572h-1.452v-8.572h1.452zm2.903 10.714h-7.258v-.714h7.258v.714zm16.437 0H34.37l2.457-7.857h3.282l2.457 7.857zm-9.152-9.285a9.242 9.242 0 013.001-6.096 9.533 9.533 0 016.408-2.476h.725v7.5c0 .284-.115.557-.319.758-.204.2-.48.313-.77.314h-9.045z" fill="#1D2E3E"/></svg>