<svg width="40" height="40" fill="none" xmlns="http://www.w3.org/2000/svg"><path d="M4.516 8.571h1.29c.685 0 1.341-.3 1.825-.836a3.02 3.02 0 00.756-2.02 3.02 3.02 0 00-.756-2.021c-.484-.536-1.14-.837-1.825-.837H3.871a.615.615 0 00-.456.21.755.755 0 00-.19.504V10c0 .19.069.371.19.505.12.134.285.21.456.21a.615.615 0 00.456-.21.755.755 0 00.19-.505V8.571zm2.58-2.857c0 .379-.136.742-.378 1.01s-.57.418-.912.419h-1.29V4.286h1.29c.343 0 .67.15.912.419.242.267.378.63.379 1.01zM29 26.917a.714.714 0 00-.236-.354.604.604 0 00-.377-.134h-7.742a.604.604 0 00-.377.134.714.714 0 00-.235.354l-1.29 4.286a.786.786 0 00.088.643c.06.092.139.167.23.218a.595.595 0 00.294.079h10.322a.595.595 0 00.294-.079.668.668 0 00.23-.218.786.786 0 00.089-.643L29 26.917zm-8.75 3.797l.86-2.857h6.812l.86 2.857H20.25zm-4.766-4.285c-.51 0-1.01.167-1.434.481-.424.314-.755.76-.95 1.282a3.142 3.142 0 00-.147 1.651c.1.554.345 1.063.706 1.463.361.4.82.672 1.321.782.501.11 1.02.054 1.491-.163a2.657 2.657 0 001.159-1.052 3.08 3.08 0 00.434-1.587c0-.758-.272-1.484-.756-2.02-.484-.535-1.14-.837-1.824-.837zm0 4.285c-.255 0-.505-.083-.717-.24a1.407 1.407 0 01-.475-.642 1.57 1.57 0 01-.074-.825c.05-.277.173-.532.354-.731.18-.2.41-.336.66-.391.25-.056.51-.027.746.08.235.109.437.292.579.527.142.235.217.511.217.794 0 .378-.136.742-.378 1.01-.242.267-.57.418-.912.418zm18.064-4.285c-.51 0-1.009.167-1.433.481a2.8 2.8 0 00-.95 1.282 3.142 3.142 0 00-.148 1.651c.1.554.346 1.063.707 1.463.36.4.82.672 1.32.782.502.11 1.02.054 1.492-.163a2.657 2.657 0 001.158-1.052 3.08 3.08 0 00.435-1.587 3.02 3.02 0 00-.757-2.02c-.483-.535-1.14-.837-1.824-.837zm0 4.285c-.255 0-.504-.083-.717-.24a1.407 1.407 0 01-.475-.642 1.57 1.57 0 01-.073-.825c.05-.277.172-.532.353-.731.18-.2.41-.336.66-.391.25-.056.51-.027.746.08.236.109.438.292.58.527.141.235.217.511.217.794 0 .378-.137.742-.379 1.01-.242.267-.57.418-.912.418z" fill="#1D2E3E"/><path d="M39.355 38.571h-2.047c.074-.229.111-.47.111-.714V36.43h.646a.615.615 0 00.456-.21.755.755 0 00.189-.505v-2.143a.755.755 0 00-.19-.505.615.615 0 00-.456-.209v-5.714c0-.758-.272-1.484-.756-2.02-.484-.535-1.14-.836-1.824-.837h-1.397l-.906-5.511a2.931 2.931 0 00-.884-1.683 2.432 2.432 0 00-1.654-.663H18.39c-.605 0-1.19.234-1.654.663a2.932 2.932 0 00-.885 1.683l-.906 5.51h-1.397c-.684.002-1.34.303-1.824.838a3.023 3.023 0 00-.756 2.02v5.714a.615.615 0 00-.457.21.755.755 0 00-.188.504v2.143c0 .19.068.371.188.505a.62.62 0 00.457.21h.645v1.428c0 .243.037.485.111.714h-1.401v-1.428a.755.755 0 00-.19-.505.615.615 0 00-.456-.21H6.452V15.715h.645a.615.615 0 00.456-.209.755.755 0 00.189-.505v-1.429h2.58a.615.615 0 00.457-.209.755.755 0 00.189-.505V.714a.755.755 0 00-.19-.505.615.615 0 00-.455-.209H1.29a.615.615 0 00-.456.21.755.755 0 00-.189.504v12.143c0 .19.068.371.19.505.12.134.284.21.455.21h2.581V15c0 .19.068.371.189.505.12.134.285.21.456.21h.645v20.714H1.935a.615.615 0 00-.456.209.755.755 0 00-.189.505v1.428H.645a.615.615 0 00-.456.21.755.755 0 00-.189.505c0 .19.068.37.189.505A.615.615 0 00.645 40h38.71a.615.615 0 00.456-.21.755.755 0 00.189-.504.755.755 0 00-.189-.505.615.615 0 00-.456-.21zM6.452 14.286h-1.29v-.715h1.29v.715zm-4.517-2.143V1.429h7.742v10.714H1.935zM9.032 38.57H2.581v-.714h6.451v.714zm9.358-20.714h12.253c.226 0 .449.066.645.191.196.126.36.306.473.523H17.27c.114-.217.277-.397.473-.523a1.19 1.19 0 01.646-.19zM16.96 20h15.11l.704 4.286H16.257L16.961 20zm-4.703 7.143c0-.379.137-.742.379-1.01.241-.268.57-.418.911-.419h21.936c.342 0 .67.151.912.42.242.267.378.63.378 1.009v5.714H12.258v-5.714zm3.226 10.714a.75.75 0 01-.19.505.616.616 0 01-.455.21h-1.29a.616.616 0 01-.457-.21.756.756 0 01-.189-.505V36.43h2.58v1.428zm1.179.714c.074-.229.111-.47.111-.714V36.43h15.484v1.428c0 .243.038.485.111.714H16.663zm19.466-.714a.75.75 0 01-.19.505.616.616 0 01-.455.21h-1.29a.616.616 0 01-.456-.21.756.756 0 01-.19-.505V36.43h2.581v1.428zM11.613 35v-.714h25.806V35H11.613z" fill="#1D2E3E"/></svg>