<svg width="40" height="35" fill="none" xmlns="http://www.w3.org/2000/svg"><path fill-rule="evenodd" clip-rule="evenodd" d="M14.839 7.778h-1.29a.64.64 0 01-.457-.19l-3.682-3.7H.645A.646.646 0 010 3.242V.648C0 .29.288 0 .645 0h38.71c.357 0 .645.29.645.648v2.593a.646.646 0 01-.645.648H30.59l-3.682 3.699a.64.64 0 01-.456.19h-1.29v14.259c0 .134-.05.25-.119.353l.01.007-2.519 3.796-.618 2.483a.646.646 0 01-.626.49h-.645V35h-1.29v-5.833h-.645a.646.646 0 01-.626-.491l-.618-2.483-2.519-3.796.01-.007a.634.634 0 01-.118-.353V7.777zM8.654 1.296l1.29 1.297h2.047l-1.29-1.297H8.654zm2.58 2.593l2.582 2.592h12.369l2.58-2.592h-17.53zM29.3 2.593h2.047l-1.29-1.297H28.01l1.29 1.297zm-3.114-1.297h-2.047l1.29 1.297h2.047l-1.29-1.297zm-3.871 0h-2.047l1.29 1.297h2.047l-1.29-1.297zm-3.871 0h-2.047l1.29 1.297h2.047l-1.29-1.297zm-3.871 0h-2.047l1.29 1.297h2.047l-1.29-1.297zM33.17 2.593h2.047l-1.29-1.297H31.88l1.29 1.297zm3.871 0h1.669V1.296h-2.96l1.29 1.297zM16.69 22.685l1.72 2.593h3.181l1.721-2.593h-2.666v1.297h-1.29v-1.297H16.69zM6.074 2.593H8.12L6.83 1.296H4.783l1.29 1.297zM2.959 1.296H1.29v1.297h2.96L2.96 1.296zM20.786 27.87h-1.573l-.323-1.296h2.22l-.324 1.296zm-1.431-12.314V17.5c0 .357.289.648.645.648a.647.647 0 00.645-.648v-1.944h-1.29zm1.29-1.297V10.37h-1.29v3.89h1.29zm1.29 3.241A1.942 1.942 0 0120 19.444a1.942 1.942 0 01-1.936-1.944v-7.13H16.13v11.02h7.742V10.37h-1.935v7.13zm1.936-8.426V7.778h-7.742v1.296h7.742z" fill="#1D2E3E"/></svg>