<svg width="38" height="40" fill="none" xmlns="http://www.w3.org/2000/svg"><path d="M37.345 38.667h-.655v-26a.661.661 0 00-.655-.667h-3.931V1.333h1.965a.661.661 0 00.655-.666A.661.661 0 0034.07 0h-2.62c-.006 0-.256-.006-.441.174L2.368 26.667H1.31a.661.661 0 00-.655.666c0 .369.294.667.655.667h1.31a.65.65 0 00.441-.173l2.836-2.623V32h-1.31a.661.661 0 00-.656.667v6H.655a.661.661 0 00-.655.666.66.66 0 00.655.667h36.69a.661.661 0 00.655-.667.661.661 0 00-.655-.666zM19 13.083l11.793-10.91V12h-3.276a.661.661 0 00-.655.667v6h-5.896a.661.661 0 00-.656.666v6H19v-12.25zm-1.31 1.212v11.038h-4.587a.661.661 0 00-.655.667v6H7.207v-8h-.009l10.492-9.705zm17.69 24.372H5.24v-5.334h7.862a.661.661 0 00.656-.666v-6h7.206A.661.661 0 0021.62 26v-6h5.896a.661.661 0 00.655-.667v-6h7.207v25.334z" fill="#1D2E3E"/></svg>