<svg width="16" height="16" viewBox="0 0 16 16" fill="none" xmlns="http://www.w3.org/2000/svg">
  <path fill-rule="evenodd" clip-rule="evenodd"
    d="M7.12466 0.00243999C7.29465 0.00217393 7.47751 0.002256 7.67485 0.00234456L8.0001 0.00243999C10.6057 0.00243999 10.9145 0.0117933 11.9434 0.0585596C12.8949 0.102073 13.4113 0.261078 13.7553 0.394668C14.2107 0.571567 14.5354 0.783032 14.8767 1.12463C15.2183 1.46623 15.4297 1.79156 15.607 2.24702C15.7406 2.59065 15.8998 3.10712 15.9431 4.05871C15.9898 5.08757 16 5.39664 16 8.00132C16 10.606 15.9898 10.9151 15.9431 11.9439C15.8996 12.8955 15.7406 13.412 15.607 13.7556C15.4301 14.2111 15.2183 14.5354 14.8767 14.8768C14.5352 15.2184 14.2109 15.4299 13.7553 15.6068C13.4117 15.741 12.8949 15.8996 11.9434 15.9431C10.9147 15.9898 10.6057 16 8.0001 16C5.39433 16 5.0855 15.9898 4.05677 15.9431C3.1053 15.8991 2.5889 15.7401 2.2447 15.6066C1.7893 15.4297 1.46401 15.2182 1.12245 14.8766C0.780899 14.535 0.569461 14.2105 0.392178 13.7548C0.258606 13.4112 0.0994168 12.8947 0.0561125 11.9431C0.00935209 10.9143 0 10.6052 0 7.99888C0 5.39257 0.00935209 5.08513 0.0561125 4.05627C0.0996201 3.10468 0.258606 2.58821 0.392178 2.24418C0.569054 1.78871 0.780899 1.46338 1.12245 1.12178C1.46401 0.780185 1.7893 0.56872 2.2447 0.391414C2.5887 0.257215 3.1053 0.0986161 4.05677 0.0548997C4.95701 0.0142332 5.30589 0.00203332 7.12466 0V0.00243999ZM13.2098 1.62308C12.5633 1.62308 12.0388 2.14706 12.0388 2.79386C12.0388 3.44046 12.5633 3.96505 13.2098 3.96505C13.8564 3.96505 14.3809 3.44046 14.3809 2.79386C14.3809 2.14727 13.8564 1.62308 13.2098 1.62308ZM2.98899 8.00252C2.98899 5.23462 5.23276 2.99049 8.00028 2.99038C10.7679 2.99038 13.0112 5.23456 13.0112 8.00252C13.0112 10.7705 10.7681 13.0136 8.00048 13.0136C5.23288 13.0136 2.98899 10.7705 2.98899 8.00252Z"
    fill="#18063C" />
  <path fill-rule="evenodd" clip-rule="evenodd"
    d="M7.90802 4.74541C9.6549 4.74541 11.0712 6.16172 11.0712 7.90902C11.0712 9.65613 9.6549 11.0726 7.90802 11.0726C6.16094 11.0726 4.74481 9.65613 4.74481 7.90902C4.74481 6.16172 6.16094 4.74541 7.90802 4.74541Z"
    fill="#18063C" />
</svg>