<svg width="17" height="12" viewBox="0 0 17 12" fill="none" xmlns="http://www.w3.org/2000/svg">
  <path
    d="M16.7314 1.46153C16.145 1.6923 15.4749 1.84615 14.8048 1.92308C15.4749 1.53846 16.0613 0.923079 16.3126 0.230771C15.6424 0.615387 14.9723 0.846156 14.1347 1C13.5483 0.384618 12.6269 0 11.7055 0C9.86267 0 8.3549 1.38461 8.3549 3.07692C8.3549 3.30769 8.3549 3.53846 8.43867 3.76922C5.67443 3.61538 3.16148 2.38461 1.48618 0.538459C1.23489 0.999997 1.06736 1.53846 1.06736 2.07692C1.06736 3.15384 1.65371 4.07692 2.57513 4.61538C1.98877 4.61538 1.48618 4.46154 1.06736 4.23077C1.06736 5.69231 2.24006 6.99999 3.74783 7.23076C3.49653 7.30768 3.16148 7.30769 2.82642 7.30769C2.57513 7.30769 2.4076 7.30768 2.1563 7.23076C2.57513 8.46153 3.8316 9.38461 5.33937 9.38461C4.16666 10.2308 2.74266 10.6923 1.15113 10.6923C0.899831 10.6923 0.648536 10.6923 0.313477 10.6154C1.82124 11.4615 3.5803 12 5.5069 12C11.7055 12 15.0561 7.30769 15.0561 3.23077V2.84615C15.7262 2.61538 16.3126 2.07692 16.7314 1.46153Z"
    fill="#18063C" />
</svg>