<svg width="197" height="52" viewBox="0 0 197 52" fill="none" xmlns="http://www.w3.org/2000/svg">
<path d="M0 43.696C0 43.0893 0.102667 42.4967 0.308 41.918C0.522667 41.33 0.830667 40.798 1.232 40.322C1.63333 39.8367 2.128 39.454 2.716 39.174C3.304 38.8847 3.97133 38.74 4.718 38.74C5.60467 38.74 6.36067 38.9453 6.986 39.356C7.62067 39.7573 8.08733 40.2753 8.386 40.91L7.616 41.386C7.40133 40.9473 7.13067 40.602 6.804 40.35C6.47733 40.0887 6.12733 39.902 5.754 39.79C5.39 39.678 5.026 39.622 4.662 39.622C4.06467 39.622 3.53733 39.7433 3.08 39.986C2.62267 40.2193 2.23533 40.5367 1.918 40.938C1.61 41.33 1.37667 41.7733 1.218 42.268C1.05933 42.7533 0.98 43.248 0.98 43.752C0.98 44.3027 1.07333 44.83 1.26 45.334C1.44667 45.838 1.708 46.286 2.044 46.678C2.38 47.0607 2.772 47.3687 3.22 47.602C3.67733 47.826 4.172 47.938 4.704 47.938C5.07733 47.938 5.46 47.8727 5.852 47.742C6.244 47.6113 6.608 47.4107 6.944 47.14C7.28933 46.8693 7.56467 46.5193 7.77 46.09L8.582 46.51C8.37667 47.0047 8.05933 47.4247 7.63 47.77C7.20067 48.1153 6.72 48.3767 6.188 48.554C5.66533 48.7313 5.152 48.82 4.648 48.82C3.96667 48.82 3.34133 48.6753 2.772 48.386C2.20267 48.0873 1.708 47.6953 1.288 47.21C0.877333 46.7153 0.56 46.1647 0.336 45.558C0.112 44.942 0 44.3213 0 43.696Z" fill="#1E1E1E"/>
<path d="M11.8797 48.736V42.296H9.27566V41.442H15.4357V42.296H12.8317V48.736H11.8797Z" fill="#1E1E1E"/>
<path d="M20.4555 48.876C19.8489 48.876 19.3029 48.7173 18.8175 48.4C18.3415 48.0827 17.9635 47.6907 17.6835 47.224V51.718H16.7315V41.442H17.5855V42.856C17.8749 42.3987 18.2622 42.03 18.7475 41.75C19.2329 41.4607 19.7509 41.316 20.3015 41.316C20.8055 41.316 21.2675 41.4233 21.6875 41.638C22.1075 41.8433 22.4715 42.1233 22.7795 42.478C23.0875 42.8327 23.3255 43.2387 23.4935 43.696C23.6709 44.144 23.7595 44.6107 23.7595 45.096C23.7595 45.7773 23.6195 46.4073 23.3395 46.986C23.0689 47.5553 22.6862 48.0127 22.1915 48.358C21.6969 48.7033 21.1182 48.876 20.4555 48.876ZM20.1895 48.036C20.5909 48.036 20.9502 47.9567 21.2675 47.798C21.5849 47.63 21.8555 47.406 22.0795 47.126C22.3129 46.846 22.4902 46.5333 22.6115 46.188C22.7329 45.8333 22.7935 45.4693 22.7935 45.096C22.7935 44.704 22.7235 44.3307 22.5835 43.976C22.4529 43.6213 22.2615 43.3087 22.0095 43.038C21.7575 42.7673 21.4682 42.5527 21.1415 42.394C20.8149 42.2353 20.4602 42.156 20.0775 42.156C19.8349 42.156 19.5829 42.2027 19.3215 42.296C19.0602 42.3893 18.8082 42.5247 18.5655 42.702C18.3322 42.87 18.1362 43.0613 17.9775 43.276C17.8189 43.4907 17.7209 43.7193 17.6835 43.962V46.202C17.8329 46.5473 18.0335 46.86 18.2855 47.14C18.5375 47.4107 18.8269 47.63 19.1535 47.798C19.4895 47.9567 19.8349 48.036 20.1895 48.036Z" fill="#1E1E1E"/>
<path d="M28.4802 48.876C27.9575 48.876 27.4722 48.778 27.0242 48.582C26.5855 48.3767 26.2028 48.1013 25.8762 47.756C25.5588 47.4013 25.3115 47 25.1342 46.552C24.9568 46.0947 24.8682 45.614 24.8682 45.11C24.8682 44.5873 24.9568 44.102 25.1342 43.654C25.3115 43.1967 25.5635 42.7953 25.8902 42.45C26.2168 42.0953 26.5995 41.82 27.0382 41.624C27.4862 41.4187 27.9715 41.316 28.4942 41.316C29.0168 41.316 29.4975 41.4187 29.9362 41.624C30.3748 41.82 30.7575 42.0953 31.0842 42.45C31.4108 42.7953 31.6628 43.1967 31.8402 43.654C32.0175 44.102 32.1062 44.5873 32.1062 45.11C32.1062 45.614 32.0175 46.0947 31.8402 46.552C31.6628 47 31.4108 47.4013 31.0842 47.756C30.7668 48.1013 30.3842 48.3767 29.9362 48.582C29.4975 48.778 29.0122 48.876 28.4802 48.876ZM25.8342 45.124C25.8342 45.6653 25.9508 46.16 26.1842 46.608C26.4268 47.0467 26.7488 47.3967 27.1502 47.658C27.5515 47.91 27.9948 48.036 28.4802 48.036C28.9655 48.036 29.4088 47.9053 29.8102 47.644C30.2115 47.3827 30.5335 47.028 30.7762 46.58C31.0188 46.1227 31.1402 45.628 31.1402 45.096C31.1402 44.5547 31.0188 44.06 30.7762 43.612C30.5335 43.164 30.2115 42.8093 29.8102 42.548C29.4088 42.2867 28.9655 42.156 28.4802 42.156C27.9948 42.156 27.5515 42.2913 27.1502 42.562C26.7582 42.8327 26.4408 43.192 26.1982 43.64C25.9555 44.0787 25.8342 44.5733 25.8342 45.124Z" fill="#1E1E1E"/>
<path d="M33.6843 48.736V41.456H34.6363V47.448L39.0743 41.442H39.9283V48.736H38.9763V42.842L34.6083 48.736H33.6843Z" fill="#1E1E1E"/>
<path d="M43.8308 48.736V42.296H41.2268V41.442H47.3868V42.296H44.7828V48.736H43.8308Z" fill="#1E1E1E"/>
<path d="M51.8327 48.876C51.31 48.876 50.8247 48.778 50.3767 48.582C49.9287 48.3767 49.5414 48.1013 49.2147 47.756C48.888 47.4013 48.6314 46.9953 48.4447 46.538C48.2674 46.0807 48.1787 45.5907 48.1787 45.068C48.1787 44.3867 48.3327 43.7613 48.6407 43.192C48.958 42.6227 49.392 42.17 49.9427 41.834C50.4934 41.4887 51.1187 41.316 51.8187 41.316C52.5374 41.316 53.1627 41.4887 53.6947 41.834C54.236 42.1793 54.6607 42.6367 54.9687 43.206C55.2767 43.766 55.4307 44.382 55.4307 45.054C55.4307 45.1287 55.4307 45.2033 55.4307 45.278C55.4307 45.3433 55.426 45.3947 55.4167 45.432H49.1727C49.2194 45.9547 49.364 46.4213 49.6067 46.832C49.8587 47.2333 50.1807 47.5553 50.5727 47.798C50.974 48.0313 51.408 48.148 51.8747 48.148C52.3507 48.148 52.7987 48.0267 53.2187 47.784C53.648 47.5413 53.9467 47.224 54.1147 46.832L54.9407 47.056C54.7914 47.4013 54.5627 47.714 54.2547 47.994C53.9467 48.274 53.5827 48.4933 53.1627 48.652C52.752 48.8013 52.3087 48.876 51.8327 48.876ZM49.1447 44.746H54.5347C54.4974 44.214 54.3527 43.7473 54.1007 43.346C53.858 42.9447 53.536 42.632 53.1347 42.408C52.7427 42.1747 52.3087 42.058 51.8327 42.058C51.3567 42.058 50.9227 42.1747 50.5307 42.408C50.1387 42.632 49.8167 42.9493 49.5647 43.36C49.322 43.7613 49.182 44.2233 49.1447 44.746Z" fill="#1E1E1E"/>
<path d="M56.1995 48.778V47.91C56.4515 47.91 56.6755 47.8447 56.8715 47.714C57.0675 47.574 57.2402 47.3407 57.3895 47.014C57.5482 46.6873 57.6742 46.2393 57.7675 45.67C57.8608 45.0913 57.9215 44.3587 57.9495 43.472L58.0335 41.442H62.7655V48.736H61.8135V42.296H58.8735L58.8455 43.556C58.8082 44.564 58.7288 45.4087 58.6075 46.09C58.4862 46.762 58.3135 47.294 58.0895 47.686C57.8748 48.078 57.6088 48.358 57.2915 48.526C56.9742 48.694 56.6102 48.778 56.1995 48.778Z" fill="#1E1E1E"/>
<path d="M64.8562 48.736V41.442H65.8082V44.018H67.6982C68.5289 44.018 69.1542 44.2327 69.5742 44.662C70.0035 45.082 70.2182 45.6373 70.2182 46.328C70.2182 46.776 70.1249 47.182 69.9382 47.546C69.7515 47.91 69.4762 48.1993 69.1122 48.414C68.7575 48.6287 68.3095 48.736 67.7682 48.736H64.8562ZM65.8082 47.98H67.6422C68.0249 47.98 68.3329 47.9053 68.5662 47.756C68.7995 47.5973 68.9722 47.3967 69.0842 47.154C69.1962 46.902 69.2522 46.6313 69.2522 46.342C69.2522 46.062 69.2009 45.8053 69.0982 45.572C69.0049 45.3293 68.8369 45.138 68.5942 44.998C68.3609 44.8487 68.0342 44.774 67.6142 44.774H65.8082V47.98Z" fill="#1E1E1E"/>
<path d="M71.6921 48.736V41.442H72.6441V44.578H76.8161V41.442H77.7681V48.736H76.8161V45.432H72.6441V48.736H71.6921Z" fill="#1E1E1E"/>
<path d="M79.2803 46.636C79.2803 46.1787 79.4109 45.7867 79.6722 45.46C79.9336 45.124 80.2929 44.8673 80.7503 44.69C81.2169 44.5033 81.7536 44.41 82.3603 44.41C82.7149 44.41 83.0836 44.438 83.4663 44.494C83.8489 44.55 84.1896 44.634 84.4883 44.746V44.13C84.4883 43.514 84.3063 43.024 83.9423 42.66C83.5783 42.296 83.0743 42.114 82.4303 42.114C82.0383 42.114 81.6509 42.1887 81.2682 42.338C80.8949 42.478 80.5029 42.688 80.0923 42.968L79.7283 42.296C80.2043 41.9693 80.6709 41.7267 81.1283 41.568C81.5856 41.4 82.0523 41.316 82.5283 41.316C83.4243 41.316 84.1336 41.5727 84.6562 42.086C85.1789 42.5993 85.4403 43.3087 85.4403 44.214V47.588C85.4403 47.7187 85.4683 47.8167 85.5243 47.882C85.5803 47.938 85.6689 47.9707 85.7903 47.98V48.736C85.6876 48.7453 85.5989 48.7547 85.5243 48.764C85.4496 48.7733 85.3936 48.7733 85.3563 48.764C85.1229 48.7547 84.9456 48.68 84.8242 48.54C84.7029 48.4 84.6376 48.2507 84.6283 48.092L84.6143 47.56C84.2876 47.98 83.8629 48.3067 83.3403 48.54C82.8176 48.764 82.2856 48.876 81.7443 48.876C81.2776 48.876 80.8529 48.778 80.4703 48.582C80.0969 48.3767 79.8029 48.106 79.5882 47.77C79.3829 47.4247 79.2803 47.0467 79.2803 46.636ZM84.1663 47.196C84.2689 47.0653 84.3483 46.9393 84.4043 46.818C84.4603 46.6967 84.4883 46.5893 84.4883 46.496V45.432C84.1709 45.3107 83.8396 45.2173 83.4943 45.152C83.1583 45.0867 82.8176 45.054 82.4723 45.054C81.7909 45.054 81.2403 45.1893 80.8203 45.46C80.4003 45.7307 80.1903 46.0993 80.1903 46.566C80.1903 46.8367 80.2603 47.0933 80.4003 47.336C80.5403 47.5693 80.7456 47.7653 81.0163 47.924C81.2869 48.0733 81.6043 48.148 81.9683 48.148C82.4256 48.148 82.8503 48.0593 83.2423 47.882C83.6436 47.7047 83.9516 47.476 84.1663 47.196Z" fill="#1E1E1E"/>
<path d="M86.9512 48.736L89.1212 45.754C88.6265 45.6793 88.2252 45.4647 87.9172 45.11C87.6185 44.746 87.4692 44.2513 87.4692 43.626C87.4692 43.206 87.5672 42.8327 87.7632 42.506C87.9592 42.1793 88.2345 41.918 88.5892 41.722C88.9532 41.526 89.3778 41.428 89.8632 41.428H92.6492V48.736H91.6972V45.908H90.0732L88.0152 48.736H86.9512ZM89.8492 45.18H91.6972V42.184H90.0172C89.5318 42.184 89.1445 42.324 88.8552 42.604C88.5658 42.8747 88.4212 43.22 88.4212 43.64C88.4212 44.0693 88.5378 44.4333 88.7712 44.732C89.0138 45.0307 89.3732 45.18 89.8492 45.18Z" fill="#1E1E1E"/>
<path d="M101.672 51.718V48.736H101.35C100.631 48.736 100.006 48.568 99.4736 48.232C98.9416 47.896 98.5309 47.4573 98.2416 46.916C97.9523 46.3653 97.8076 45.7633 97.8076 45.11C97.8076 44.4473 97.9523 43.8407 98.2416 43.29C98.5403 42.7393 98.9556 42.296 99.4876 41.96C100.02 41.624 100.64 41.456 101.35 41.456H101.672V38.516H102.624V41.456H102.946C103.655 41.456 104.276 41.624 104.808 41.96C105.34 42.296 105.75 42.7393 106.04 43.29C106.338 43.8407 106.488 44.4473 106.488 45.11C106.488 45.7633 106.343 46.3653 106.054 46.916C105.764 47.4573 105.354 47.896 104.822 48.232C104.29 48.568 103.664 48.736 102.946 48.736H102.624V51.718H101.672ZM101.35 47.938H101.7V42.254H101.35C100.846 42.254 100.398 42.3847 100.006 42.646C99.6136 42.898 99.3056 43.2433 99.0816 43.682C98.8576 44.1113 98.7456 44.592 98.7456 45.124C98.7456 45.6467 98.8529 46.1227 99.0676 46.552C99.2916 46.9813 99.5996 47.322 99.9916 47.574C100.384 47.8167 100.836 47.938 101.35 47.938ZM102.582 47.938H102.946C103.459 47.938 103.912 47.8167 104.304 47.574C104.696 47.322 104.999 46.9813 105.214 46.552C105.438 46.1227 105.55 45.6467 105.55 45.124C105.55 44.592 105.438 44.1113 105.214 43.682C104.99 43.2433 104.682 42.898 104.29 42.646C103.907 42.3847 103.459 42.254 102.946 42.254H102.582V47.938Z" fill="#1E1E1E"/>
<path d="M108.073 48.736V41.456H109.025V47.448L113.463 41.442H114.317V48.736H113.365V42.842L108.997 48.736H108.073Z" fill="#1E1E1E"/>
<path d="M120.124 48.876C119.517 48.876 118.971 48.7173 118.486 48.4C118.01 48.0827 117.632 47.6907 117.352 47.224V51.718H116.4V41.442H117.254V42.856C117.543 42.3987 117.93 42.03 118.416 41.75C118.901 41.4607 119.419 41.316 119.97 41.316C120.474 41.316 120.935 41.4233 121.355 41.638C121.775 41.8433 122.14 42.1233 122.448 42.478C122.756 42.8327 122.994 43.2387 123.162 43.696C123.339 44.144 123.428 44.6107 123.428 45.096C123.428 45.7773 123.287 46.4073 123.007 46.986C122.737 47.5553 122.354 48.0127 121.86 48.358C121.365 48.7033 120.786 48.876 120.124 48.876ZM119.858 48.036C120.259 48.036 120.618 47.9567 120.936 47.798C121.253 47.63 121.524 47.406 121.748 47.126C121.981 46.846 122.158 46.5333 122.28 46.188C122.401 45.8333 122.462 45.4693 122.462 45.096C122.462 44.704 122.392 44.3307 122.252 43.976C122.121 43.6213 121.93 43.3087 121.678 43.038C121.426 42.7673 121.136 42.5527 120.81 42.394C120.483 42.2353 120.128 42.156 119.746 42.156C119.503 42.156 119.251 42.2027 118.99 42.296C118.728 42.3893 118.476 42.5247 118.234 42.702C118 42.87 117.804 43.0613 117.646 43.276C117.487 43.4907 117.389 43.7193 117.352 43.962V46.202C117.501 46.5473 117.701 46.86 117.953 47.14C118.205 47.4107 118.495 47.63 118.822 47.798C119.158 47.9567 119.503 48.036 119.858 48.036Z" fill="#1E1E1E"/>
<path d="M125.026 48.736V41.442H126.006L128.904 46.468L131.816 41.442H132.754V48.736H131.844V42.87L129.212 47.434H128.596L125.936 42.87V48.736H125.026Z" fill="#1E1E1E"/>
<path d="M134.269 46.636C134.269 46.1787 134.399 45.7867 134.661 45.46C134.922 45.124 135.281 44.8673 135.739 44.69C136.205 44.5033 136.742 44.41 137.349 44.41C137.703 44.41 138.072 44.438 138.455 44.494C138.837 44.55 139.178 44.634 139.477 44.746V44.13C139.477 43.514 139.295 43.024 138.931 42.66C138.567 42.296 138.063 42.114 137.419 42.114C137.027 42.114 136.639 42.1887 136.257 42.338C135.883 42.478 135.491 42.688 135.081 42.968L134.717 42.296C135.193 41.9693 135.659 41.7267 136.117 41.568C136.574 41.4 137.041 41.316 137.517 41.316C138.413 41.316 139.122 41.5727 139.645 42.086C140.167 42.5993 140.429 43.3087 140.429 44.214V47.588C140.429 47.7187 140.457 47.8167 140.513 47.882C140.569 47.938 140.657 47.9707 140.779 47.98V48.736C140.676 48.7453 140.587 48.7547 140.513 48.764C140.438 48.7733 140.382 48.7733 140.345 48.764C140.111 48.7547 139.934 48.68 139.813 48.54C139.691 48.4 139.626 48.2507 139.617 48.092L139.603 47.56C139.276 47.98 138.851 48.3067 138.329 48.54C137.806 48.764 137.274 48.876 136.733 48.876C136.266 48.876 135.841 48.778 135.459 48.582C135.085 48.3767 134.791 48.106 134.577 47.77C134.371 47.4247 134.269 47.0467 134.269 46.636ZM139.155 47.196C139.257 47.0653 139.337 46.9393 139.393 46.818C139.449 46.6967 139.477 46.5893 139.477 46.496V45.432C139.159 45.3107 138.828 45.2173 138.483 45.152C138.147 45.0867 137.806 45.054 137.461 45.054C136.779 45.054 136.229 45.1893 135.809 45.46C135.389 45.7307 135.179 46.0993 135.179 46.566C135.179 46.8367 135.249 47.0933 135.389 47.336C135.529 47.5693 135.734 47.7653 136.005 47.924C136.275 48.0733 136.593 48.148 136.957 48.148C137.414 48.148 137.839 48.0593 138.231 47.882C138.632 47.7047 138.94 47.476 139.155 47.196Z" fill="#1E1E1E"/>
<path d="M0.203995 12.99C0.203995 11.43 0.491995 9.90598 1.06799 8.41798C1.66799 6.90598 2.53199 5.53798 3.65999 4.31398C4.78799 3.08998 6.156 2.11798 7.764 1.39798C9.396 0.653982 11.232 0.281982 13.272 0.281982C15.72 0.281982 17.856 0.797983 19.68 1.82998C21.504 2.83798 22.86 4.18198 23.748 5.86198L18.384 9.67798C18.072 8.83798 17.616 8.18998 17.016 7.73398C16.44 7.27798 15.804 6.96598 15.108 6.79798C14.436 6.60598 13.776 6.50998 13.128 6.50998C12.12 6.50998 11.244 6.71398 10.5 7.12198C9.78 7.50598 9.18 8.02198 8.7 8.66998C8.24399 9.31798 7.896 10.038 7.656 10.83C7.44 11.622 7.332 12.414 7.332 13.206C7.332 14.094 7.464 14.946 7.72799 15.762C7.992 16.578 8.376 17.31 8.88 17.958C9.384 18.582 9.996 19.074 10.716 19.434C11.46 19.794 12.288 19.974 13.2 19.974C13.848 19.974 14.508 19.878 15.18 19.686C15.852 19.47 16.464 19.134 17.016 18.678C17.568 18.222 17.988 17.61 18.276 16.842L24 20.262C23.496 21.51 22.656 22.578 21.48 23.466C20.304 24.354 18.972 25.038 17.484 25.518C15.996 25.974 14.52 26.202 13.056 26.202C11.16 26.202 9.42 25.83 7.836 25.086C6.276 24.318 4.92 23.31 3.768 22.062C2.63999 20.79 1.76399 19.374 1.13999 17.814C0.515995 16.23 0.203995 14.622 0.203995 12.99Z" fill="#1E1E1E"/>
<path d="M46.4066 6.54598H39.0626V25.986H32.0426V6.54598H24.6626V0.425982H46.4066V6.54598Z" fill="#1E1E1E"/>
<path d="M52.5823 0.425982H60.4303L68.5663 25.986H61.4383L59.8903 20.982H53.0863L51.5743 25.986H44.4103L52.5823 0.425982ZM58.7743 16.302L56.5063 7.30198L54.1303 16.302H58.7743Z" fill="#1E1E1E"/>
<path d="M70.69 25.986V0.425982H81.706C82.954 0.425982 84.106 0.677982 85.162 1.18198C86.218 1.68598 87.13 2.36998 87.898 3.23398C88.666 4.07398 89.254 5.02198 89.662 6.07798C90.094 7.13398 90.31 8.20198 90.31 9.28198C90.31 10.794 89.95 12.222 89.23 13.566C88.534 14.91 87.55 16.014 86.278 16.878C85.03 17.718 83.566 18.138 81.886 18.138H77.71V25.986H70.69ZM77.71 12.018H81.418C81.706 12.018 81.982 11.934 82.246 11.766C82.51 11.598 82.726 11.31 82.894 10.902C83.086 10.494 83.182 9.95398 83.182 9.28198C83.182 8.56198 83.074 8.00998 82.858 7.62598C82.666 7.21798 82.414 6.94198 82.102 6.79798C81.814 6.62998 81.526 6.54598 81.238 6.54598H77.71V12.018Z" fill="#1E1E1E"/>
<path d="M113.028 6.54598H105.684V25.986H98.6637V6.54598H91.2837V0.425982H113.028V6.54598Z" fill="#1E1E1E"/>
<path d="M111.792 30.882V19.866H113.376C113.976 19.866 114.504 19.626 114.96 19.146C115.416 18.666 115.8 17.934 116.112 16.95C116.424 15.966 116.664 14.73 116.832 13.242C117.024 11.73 117.156 9.95398 117.228 7.91398L117.444 0.425982H135.984V19.866H139.584V30.882H133.464V25.986H117.912V30.882H111.792ZM121.332 19.866H128.964V6.54598H123.852L123.78 8.92198C123.732 10.77 123.624 12.402 123.456 13.818C123.312 15.21 123.072 16.41 122.736 17.418C122.424 18.426 121.956 19.242 121.332 19.866Z" fill="#1E1E1E"/>
<path d="M154.386 26.202C152.442 26.202 150.678 25.842 149.094 25.122C147.51 24.378 146.142 23.394 144.99 22.17C143.862 20.922 142.986 19.53 142.362 17.994C141.762 16.434 141.462 14.826 141.462 13.17C141.462 11.466 141.786 9.84598 142.434 8.30998C143.082 6.77398 143.982 5.40598 145.134 4.20598C146.31 2.98198 147.69 2.02198 149.274 1.32598C150.882 0.629982 152.634 0.281982 154.53 0.281982C156.474 0.281982 158.238 0.653982 159.822 1.39798C161.406 2.11798 162.762 3.10198 163.89 4.34998C165.018 5.59798 165.882 7.00198 166.482 8.56198C167.106 10.098 167.418 11.682 167.418 13.314C167.418 14.994 167.094 16.602 166.446 18.138C165.822 19.674 164.922 21.054 163.746 22.278C162.594 23.478 161.226 24.438 159.642 25.158C158.058 25.854 156.306 26.202 154.386 26.202ZM148.59 13.242C148.59 14.106 148.71 14.946 148.95 15.762C149.19 16.554 149.55 17.274 150.03 17.922C150.51 18.546 151.11 19.05 151.83 19.434C152.574 19.794 153.45 19.974 154.458 19.974C155.466 19.974 156.342 19.782 157.086 19.398C157.83 19.014 158.43 18.498 158.886 17.85C159.366 17.178 159.714 16.446 159.93 15.654C160.17 14.838 160.29 14.01 160.29 13.17C160.29 12.306 160.17 11.478 159.93 10.686C159.69 9.89398 159.33 9.18598 158.85 8.56198C158.37 7.91398 157.758 7.40998 157.014 7.04998C156.27 6.68998 155.406 6.50998 154.422 6.50998C153.414 6.50998 152.538 6.70198 151.794 7.08598C151.074 7.46998 150.474 7.98598 149.994 8.63398C149.514 9.25798 149.154 9.97798 148.914 10.794C148.698 11.586 148.59 12.402 148.59 13.242Z" fill="#1E1E1E"/>
<path d="M189.725 25.986V12.522L185.441 21.99H181.697L177.413 12.522V25.986H170.393V0.425982H178.061L183.569 12.45L189.113 0.425982H196.745V25.986H189.725Z" fill="#1E1E1E"/>
</svg>
