<svg width="52" height="52" viewBox="0 0 52 52" fill="none" xmlns="http://www.w3.org/2000/svg">
<path fill-rule="evenodd" clip-rule="evenodd" d="M26 51C39.8071 51 51 39.8071 51 26C51 12.1929 39.8071 1 26 1C12.1929 1 1 12.1929 1 26C1 39.8071 12.1929 51 26 51ZM26 52C40.3594 52 52 40.3594 52 26C52 11.6406 40.3594 0 26 0C11.6406 0 0 11.6406 0 26C0 40.3594 11.6406 52 26 52Z" fill="#DE320E"/>
<path fill-rule="evenodd" clip-rule="evenodd" d="M31.2363 35C31.2363 35 30.5582 34.1298 29.9931 33.3607C32.4606 32.6119 33.4024 30.9524 33.4024 30.9524C32.6301 31.4988 31.8955 31.8834 31.2363 32.1465C30.2945 32.5715 29.3904 32.8548 28.5051 33.0167C26.6969 33.381 25.0394 33.2798 23.6267 32.9964C22.5531 32.7738 21.6301 32.45 20.8579 32.1262C20.4247 31.9441 19.9538 31.7215 19.4829 31.4381C19.4546 31.4179 19.4264 31.4027 19.3981 31.3875C19.3699 31.3724 19.3416 31.3572 19.3134 31.3369C19.2757 31.3167 19.2568 31.2965 19.238 31.2762C18.899 31.0738 18.7106 30.9322 18.7106 30.9322C18.7106 30.9322 19.6147 32.5512 22.0068 33.3203C21.4418 34.0893 20.7449 35 20.7449 35C16.5822 34.8583 15 31.9238 15 31.9238C15 25.4072 17.7123 20.1251 17.7123 20.1251C20.4247 17.9395 23.0051 18.0002 23.0051 18.0002L23.1935 18.243C19.8031 19.2954 18.2397 20.8942 18.2397 20.8942C18.2397 20.8942 18.6541 20.6513 19.351 20.3073C21.3664 19.3561 22.9675 19.093 23.6267 19.0323L23.6689 19.0246C23.764 19.0072 23.8483 18.9918 23.9469 18.9918C25.0959 18.8299 26.3955 18.7894 27.7517 18.9513C29.5411 19.174 31.4623 19.7406 33.4212 20.8942C33.4212 20.8942 31.9332 19.3763 28.7312 18.324L28.9949 18.0002C28.9949 18.0002 31.5753 17.9395 34.2877 20.1251C34.2877 20.1251 37 25.4072 37 31.9238C37 31.9238 35.399 34.8583 31.2363 35ZM23.0077 25.918C21.9425 25.918 21.1016 26.9598 21.1016 28.2309C21.1016 29.5019 21.9612 30.5438 23.0077 30.5438C24.0728 30.5438 24.9137 29.5019 24.9137 28.2309C24.9324 26.9598 24.0728 25.918 23.0077 25.918ZM27.9258 28.2309C27.9258 26.9598 28.7667 25.918 29.8319 25.918C30.897 25.918 31.738 26.9598 31.738 28.2309C31.738 29.5019 30.897 30.5438 29.8319 30.5438C28.7854 30.5438 27.9258 29.5019 27.9258 28.2309Z" fill="black"/>
</svg>
