<svg width="62" height="38" viewBox="0 0 62 38" fill="none" xmlns="http://www.w3.org/2000/svg">
<path d="M8.64901 22.7999V28.8723C8.64901 29.0516 8.50067 29.1969 8.31767 29.1969H0.331342C0.148347 29.1969 0 29.0516 0 28.8723V3.73937C0 3.56009 0.148347 3.41477 0.331342 3.41477H8.31767C8.50067 3.41477 8.64901 3.56009 8.64901 3.73937V16.2472C8.64901 16.2776 8.67416 16.3023 8.70517 16.3023C8.74043 16.3023 8.77352 16.2856 8.79405 16.2575L13.3424 10.039C13.4046 9.95394 13.5049 9.90347 13.6117 9.90347H21.7928C21.9757 9.90347 22.1241 10.0488 22.1241 10.2281C22.1241 10.3017 22.0985 10.3732 22.0516 10.4308L15.2774 18.7316C15.1857 18.844 15.1805 19.0021 15.2645 19.1201L22.0808 28.6865C22.1855 28.8335 22.1488 29.0359 21.9987 29.1385C21.9431 29.1765 21.8769 29.1969 21.8091 29.1969H13.5393C13.4311 29.1969 13.3297 29.1452 13.2677 29.0583L8.79352 22.79C8.77335 22.7617 8.74037 22.7449 8.70517 22.7449C8.67416 22.7449 8.64901 22.7695 8.64901 22.7999ZM41.6652 19.4768C41.6652 21.1396 41.3595 22.619 40.7479 23.9151C40.1364 25.2111 39.3126 26.3053 38.2768 27.1979C37.2409 28.0904 36.0428 28.769 34.6824 29.2336C33.322 29.6982 31.893 29.9305 30.3953 29.9305C28.9226 29.9305 27.5061 29.6982 26.1457 29.2336C24.7853 28.769 23.5934 28.0904 22.57 27.1979C21.5466 26.3053 20.7291 25.2111 20.1176 23.9151C19.506 22.619 19.2003 21.1396 19.2003 19.4768C19.2003 17.8385 19.506 16.3774 20.1176 15.0936C20.7291 13.8098 21.5466 12.7278 22.57 11.8475C23.5934 10.9672 24.7853 10.3008 26.1457 9.84846C27.5061 9.39607 28.9226 9.16988 30.3953 9.16988C31.893 9.16988 33.322 9.39607 34.6824 9.84846C36.0428 10.3008 37.2409 10.9672 38.2768 11.8475C39.3126 12.7278 40.1364 13.8098 40.7479 15.0936C41.3595 16.3774 41.6652 17.8385 41.6652 19.4768ZM30.3953 16.2857C29.4468 16.2857 28.6792 16.6036 28.0926 17.2394C27.5061 17.8752 27.2128 18.621 27.2128 19.4768C27.2128 20.3816 27.5123 21.1519 28.1114 21.7876C28.7104 22.4234 29.4842 22.7413 30.4327 22.7413C31.3813 22.7413 32.1551 22.4234 32.7541 21.7876C33.3532 21.1519 33.6527 20.3816 33.6527 19.4768C33.6527 18.621 33.347 17.8752 32.7354 17.2394C32.1239 16.6036 31.3438 16.2857 30.3953 16.2857ZM51.4769 28.7568C51.4769 30.0039 51.3459 31.1837 51.0838 32.2963C50.8217 33.4089 50.3537 34.3871 49.6797 35.2307C49.0058 36.0743 48.0947 36.7468 46.9465 37.2481C45.7983 37.7494 44.3505 38 42.6033 38C42.104 38 41.505 37.9633 40.8061 37.89C40.3999 37.8473 39.8925 37.7582 39.2839 37.6227V37.6227C39.1254 37.5874 39.0164 37.4445 39.0267 37.2855L39.4335 31.0426C39.4452 30.8637 39.6026 30.7279 39.7853 30.7393C39.8006 30.7403 39.8159 30.7423 39.831 30.7453C39.9984 30.7791 40.13 30.8009 40.2257 30.8108C40.4628 30.8353 40.6688 30.8475 40.8435 30.8475C41.4925 30.8475 41.9855 30.6702 42.3224 30.3156C42.6594 29.9611 42.8279 29.3559 42.8279 28.5V10.2281C42.8279 10.0488 42.9762 9.90347 43.1592 9.90347H51.1456C51.3286 9.90347 51.4769 10.0488 51.4769 10.2281V28.7568ZM42.6781 4.32819C42.6781 3.74131 42.7967 3.18501 43.0338 2.65927C43.271 2.13352 43.5955 1.67503 44.0073 1.28378C44.4192 0.892533 44.8997 0.58076 45.4488 0.348456C45.998 0.116151 46.5721 0 47.1711 0C47.7702 0 48.3381 0.116151 48.8747 0.348456C49.4114 0.58076 49.8856 0.892533 50.2975 1.28378C50.7094 1.67503 51.0339 2.13352 51.271 2.65927C51.5081 3.18501 51.6267 3.74131 51.6267 4.32819C51.6267 4.93951 51.5081 5.50804 51.271 6.03378C51.0339 6.55953 50.7094 7.0119 50.2975 7.39093C49.8856 7.76995 49.4114 8.0695 48.8747 8.28957C48.3381 8.50965 47.7702 8.61969 47.1711 8.61969C46.5721 8.61969 45.998 8.50965 45.4488 8.28957C44.8997 8.0695 44.4192 7.76995 44.0073 7.39093C43.5955 7.0119 43.271 6.55953 43.0338 6.03378C42.7967 5.50804 42.6781 4.93951 42.6781 4.32819ZM53.5326 9.90347H61.5189C61.7019 9.90347 61.8502 10.0488 61.8502 10.2281V28.8723C61.8502 29.0516 61.7019 29.1969 61.5189 29.1969H53.5326C53.3496 29.1969 53.2012 29.0516 53.2012 28.8723V10.2281C53.2012 10.0488 53.3496 9.90347 53.5326 9.90347ZM53.0514 4.32819C53.0514 3.74131 53.17 3.18501 53.4071 2.65927C53.6443 2.13352 53.9688 1.67503 54.3806 1.28378C54.7925 0.892533 55.273 0.58076 55.8221 0.348456C56.3713 0.116151 56.9579 0 57.5819 0C58.181 0 58.7426 0.116151 59.2668 0.348456C59.7909 0.58076 60.259 0.892533 60.6708 1.28378C61.0827 1.67503 61.4072 2.13352 61.6443 2.65927C61.8814 3.18501 62 3.74131 62 4.32819C62 4.93951 61.8814 5.50804 61.6443 6.03378C61.4072 6.55953 61.0827 7.0119 60.6708 7.39093C60.259 7.76995 59.7909 8.0695 59.2668 8.28957C58.7426 8.50965 58.181 8.61969 57.5819 8.61969C56.9579 8.61969 56.3713 8.50965 55.8221 8.28957C55.273 8.0695 54.7925 7.76995 54.3806 7.39093C53.9688 7.0119 53.6443 6.55953 53.4071 6.03378C53.17 5.50804 53.0514 4.93951 53.0514 4.32819Z" fill="white"/>
</svg>
