<svg width="52" height="52" viewBox="0 0 52 52" fill="none" xmlns="http://www.w3.org/2000/svg">
<path fill-rule="evenodd" clip-rule="evenodd" d="M26 51C39.8071 51 51 39.8071 51 26C51 12.1929 39.8071 1 26 1C12.1929 1 1 12.1929 1 26C1 39.8071 12.1929 51 26 51ZM26 52C40.3594 52 52 40.3594 52 26C52 11.6406 40.3594 0 26 0C11.6406 0 0 11.6406 0 26C0 40.3594 11.6406 52 26 52Z" fill="#DE320E"/>
<path d="M14.4431 27.9052V31.0759C14.4431 31.1695 14.3669 31.2454 14.2729 31.2454H10.1702C10.0762 31.2454 10 31.1695 10 31.0759V17.9525C10 17.8589 10.0762 17.7831 10.1702 17.7831H14.2729C14.3669 17.7831 14.4431 17.8589 14.4431 17.9525V24.4836C14.4431 24.4995 14.456 24.5124 14.4719 24.5124C14.49 24.5124 14.507 24.5037 14.5176 24.489L16.8541 21.242C16.8861 21.1975 16.9376 21.1712 16.9925 21.1712H21.1951C21.2891 21.1712 21.3653 21.2471 21.3653 21.3407C21.3653 21.3791 21.3522 21.4165 21.3281 21.4465L17.8481 25.7809C17.801 25.8396 17.7983 25.9221 17.8415 25.9837L21.3431 30.9789C21.3969 31.0557 21.378 31.1613 21.3009 31.2149C21.2723 31.2348 21.2383 31.2454 21.2035 31.2454H16.9552C16.8997 31.2454 16.8476 31.2184 16.8157 31.1731L14.5173 27.9C14.5069 27.8852 14.49 27.8764 14.4719 27.8764C14.456 27.8764 14.4431 27.8893 14.4431 27.9052ZM31.4037 26.17C31.4037 27.0383 31.2467 27.8107 30.9325 28.4875C30.6184 29.1642 30.1952 29.7356 29.6631 30.2016C29.1309 30.6677 28.5154 31.022 27.8166 31.2646C27.1178 31.5072 26.3837 31.6285 25.6143 31.6285C24.8578 31.6285 24.1301 31.5072 23.4312 31.2646C22.7324 31.022 22.1201 30.6677 21.5944 30.2016C21.0687 29.7356 20.6487 29.1642 20.3346 28.4875C20.0204 27.8107 19.8633 27.0383 19.8633 26.17C19.8633 25.3145 20.0204 24.5516 20.3346 23.8813C20.6487 23.2109 21.0687 22.6459 21.5944 22.1863C22.1201 21.7266 22.7324 21.3787 23.4312 21.1425C24.1301 20.9062 24.8578 20.7881 25.6143 20.7881C26.3837 20.7881 27.1178 20.9062 27.8166 21.1425C28.5154 21.3787 29.1309 21.7266 29.6631 22.1863C30.1952 22.6459 30.6184 23.2109 30.9325 23.8813C31.2467 24.5516 31.4037 25.3145 31.4037 26.17ZM25.6143 24.5037C25.127 24.5037 24.7327 24.6697 24.4314 25.0017C24.1301 25.3337 23.9794 25.7231 23.9794 26.17C23.9794 26.6424 24.1333 27.0446 24.441 27.3766C24.7488 27.7086 25.1463 27.8746 25.6335 27.8746C26.1208 27.8746 26.5183 27.7086 26.826 27.3766C27.1338 27.0446 27.2877 26.6424 27.2877 26.17C27.2877 25.7231 27.1306 25.3337 26.8164 25.0017C26.5023 24.6697 26.1016 24.5037 25.6143 24.5037ZM36.4441 31.0156C36.4441 31.6668 36.3768 32.2829 36.2421 32.8638C36.1075 33.4448 35.8671 33.9555 35.5209 34.396C35.1746 34.8365 34.7066 35.1877 34.1168 35.4494C33.5269 35.7112 32.7832 35.842 31.8856 35.842C31.6292 35.842 31.3214 35.8229 30.9624 35.7846C30.7537 35.7623 30.4931 35.7158 30.1805 35.645L30.1805 35.645C30.099 35.6266 30.043 35.552 30.0483 35.4689L30.2573 32.2092C30.2633 32.1157 30.3442 32.0448 30.438 32.0508C30.4459 32.0513 30.4537 32.0524 30.4615 32.0539C30.5475 32.0716 30.6151 32.083 30.6643 32.0881C30.7861 32.1009 30.8919 32.1073 30.9816 32.1073C31.315 32.1073 31.5683 32.0147 31.7414 31.8296C31.9145 31.6444 32.001 31.3284 32.001 30.8815V21.3407C32.001 21.2471 32.0772 21.1712 32.1712 21.1712H36.2739C36.3679 21.1712 36.4441 21.2471 36.4441 21.3407V31.0156ZM31.9241 18.26C31.9241 17.9536 31.985 17.6631 32.1068 17.3886C32.2286 17.114 32.3953 16.8746 32.6069 16.6703C32.8185 16.466 33.0653 16.3032 33.3474 16.1819C33.6295 16.0606 33.9244 16 34.2322 16C34.5399 16 34.8316 16.0606 35.1073 16.1819C35.383 16.3032 35.6266 16.466 35.8382 16.6703C36.0498 16.8746 36.2165 17.114 36.3383 17.3886C36.4601 17.6631 36.521 17.9536 36.521 18.26C36.521 18.5792 36.4601 18.8761 36.3383 19.1506C36.2165 19.4251 36.0498 19.6613 35.8382 19.8592C35.6266 20.0571 35.383 20.2136 35.1073 20.3285C34.8316 20.4434 34.5399 20.5008 34.2322 20.5008C33.9244 20.5008 33.6295 20.4434 33.3474 20.3285C33.0653 20.2136 32.8185 20.0571 32.6069 19.8592C32.3953 19.6613 32.2286 19.4251 32.1068 19.1506C31.985 18.8761 31.9241 18.5792 31.9241 18.26ZM37.5001 21.1712H41.6027C41.6967 21.1712 41.7729 21.2471 41.7729 21.3407V31.0759C41.7729 31.1695 41.6967 31.2454 41.6027 31.2454H37.5001C37.4061 31.2454 37.3299 31.1695 37.3299 31.0759V21.3407C37.3299 21.2471 37.4061 21.1712 37.5001 21.1712ZM37.2529 18.26C37.2529 17.9536 37.3138 17.6631 37.4357 17.3886C37.5575 17.114 37.7242 16.8746 37.9357 16.6703C38.1473 16.466 38.3942 16.3032 38.6763 16.1819C38.9584 16.0606 39.2597 16 39.5803 16C39.888 16 40.1765 16.0606 40.4458 16.1819C40.7151 16.3032 40.9555 16.466 41.1671 16.6703C41.3786 16.8746 41.5453 17.114 41.6672 17.3886C41.789 17.6631 41.8499 17.9536 41.8499 18.26C41.8499 18.5792 41.789 18.8761 41.6672 19.1506C41.5453 19.4251 41.3786 19.6613 41.1671 19.8592C40.9555 20.0571 40.7151 20.2136 40.4458 20.3285C40.1765 20.4434 39.888 20.5008 39.5803 20.5008C39.2597 20.5008 38.9584 20.4434 38.6763 20.3285C38.3942 20.2136 38.1473 20.0571 37.9357 19.8592C37.7242 19.6613 37.5575 19.4251 37.4357 19.1506C37.3138 18.8761 37.2529 18.5792 37.2529 18.26Z" fill="black"/>
</svg>
