<svg width="48" height="33" viewBox="0 0 48 33" fill="none" xmlns="http://www.w3.org/2000/svg">
<path d="M31.1032 18.4472L27.083 22.3915C25.4527 23.9911 22.5843 24.0256 20.9188 22.3915L16.8985 18.4472L2.45918 32.612C2.99666 32.855 3.58927 33 4.21928 33H43.7825C44.4125 33 45.005 32.8552 45.5422 32.612L31.1032 18.4472Z" fill="white"/>
<path d="M43.7824 0H4.21909C3.58908 0 2.99647 0.145025 2.45918 0.388047L17.8886 15.5252L17.8919 15.5274L17.8931 15.5298L22.91 20.4516C23.4429 20.9727 24.5587 20.9727 25.0916 20.4516L30.1075 15.5306L30.1098 15.5274L30.1131 15.5252L45.5421 0.387955C45.0048 0.144842 44.4124 0 43.7824 0Z" fill="white"/>
<path d="M0.448696 2.31295C0.170628 2.8628 0 3.47315 0 4.12695V28.8783C0 29.5321 0.170441 30.1425 0.448602 30.6923L14.9129 16.5031L0.448696 2.31295Z" fill="white"/>
<path d="M47.5513 2.31295L33.0872 16.5033L47.5513 30.6927C47.8294 30.1429 48 29.5325 48 28.8785V4.12714C48 3.47315 47.8294 2.8628 47.5513 2.31295Z" fill="white"/>
</svg>
