<svg width="52" height="52" viewBox="0 0 52 52" fill="none" xmlns="http://www.w3.org/2000/svg">
<path fill-rule="evenodd" clip-rule="evenodd" d="M26 51C39.8071 51 51 39.8071 51 26C51 12.1929 39.8071 1 26 1C12.1929 1 1 12.1929 1 26C1 39.8071 12.1929 51 26 51ZM26 52C40.3594 52 52 40.3594 52 26C52 11.6406 40.3594 0 26 0C11.6406 0 0 11.6406 0 26C0 40.3594 11.6406 52 26 52Z" fill="#DE320E"/>
<path d="M37 19.9487C36.2143 20.2564 35.3163 20.4615 34.4184 20.5641C35.3163 20.0513 36.102 19.2308 36.4388 18.3077C35.5408 18.8205 34.6429 19.1282 33.5204 19.3333C32.7347 18.5128 31.5 18 30.2653 18C27.7959 18 25.7755 19.8462 25.7755 22.1026C25.7755 22.4103 25.7755 22.7179 25.8878 23.0256C22.1837 22.8205 18.8163 21.1795 16.5714 18.7179C16.2347 19.3333 16.0102 20.0513 16.0102 20.7692C16.0102 22.2051 16.7959 23.4359 18.0306 24.1538C17.2449 24.1538 16.5714 23.9487 16.0102 23.641C16.0102 25.5897 17.5816 27.3333 19.602 27.641C19.2653 27.7436 18.8163 27.7436 18.3673 27.7436C18.0306 27.7436 17.8061 27.7436 17.4694 27.641C18.0306 29.282 19.7143 30.5128 21.7347 30.5128C20.1633 31.641 18.2551 32.2564 16.1224 32.2564C15.7857 32.2564 15.449 32.2564 15 32.1538C17.0204 33.282 19.3776 34 21.9592 34C30.2653 34 34.7551 27.7436 34.7551 22.3077V21.7949C35.6531 21.4872 36.4388 20.7692 37 19.9487Z" fill="black"/>
</svg>
