<svg width="849" height="154" viewBox="0 0 849 154" fill="none" xmlns="http://www.w3.org/2000/svg">
<path d="M2.56835 19.9507C49.9107 -6.93619 61.2104 32.0933 53.021 43.0859C44.8315 54.0785 27.1464 54.2303 18.2848 41.3766C12.0082 32.3533 10.0043 24.2582 2.56835 19.9507Z" fill="#BBD645"/>
<path d="M811.966 5.8615C780.143 5.04872 785.076 28.2885 792.329 31.699C799.582 35.1095 808.743 30.3125 809.769 21.2419C810.517 14.8589 809.319 10.1324 811.966 5.8615Z" fill="#BBD645"/>
<path d="M289.004 79.3749C257.216 77.6798 263.963 54.9005 271.462 52.0716C278.961 49.2427 287.716 54.746 288.025 63.8693C288.269 70.2914 286.702 74.9089 289.004 79.3749Z" fill="#BBD645"/>
<path d="M173.086 151.598C147.961 132.05 166.509 117.206 174.281 119.167C182.052 121.128 186.095 130.645 181.138 138.31C177.67 143.721 173.747 146.617 173.086 151.598Z" fill="#BBD645"/>
<path d="M616.602 143.638C587.201 142.07 593.441 121.001 600.377 118.385C607.313 115.769 615.41 120.859 615.696 129.297C615.922 135.237 614.472 139.507 616.602 143.638Z" fill="#BBD645"/>
<path d="M741.008 80.057C715.669 77.4198 718.152 96.2703 723.726 99.4447C729.3 102.619 736.909 99.3642 738.294 92.1912C739.29 87.1452 738.63 83.2992 741.008 80.057Z" fill="#BBD645"/>
<path d="M58.4057 6.18779C33.4721 16.6858 45.4193 32.9619 52.2299 33.0674C59.0405 33.173 64.4589 26.254 62.0818 18.8694C60.4299 13.6635 57.849 10.4214 58.4057 6.18779Z" fill="#DCF375"/>
<path d="M773.962 10.4955C797.304 8.33128 794.824 25.6494 789.663 28.5124C784.502 31.3754 777.535 28.3019 776.334 21.6879C775.47 17.0349 776.117 13.5032 773.962 10.4955Z" fill="#DCF375"/>
<path d="M245.116 76.1893C268.215 80.1845 267.106 62.7249 262.186 59.4645C257.266 56.204 250.079 58.7194 248.361 65.2184C247.133 69.7888 247.501 73.3606 245.116 76.1893Z" fill="#DCF375"/>
<path d="M138.88 123.916C155.559 140.388 164.62 125.423 162.444 119.937C160.268 114.451 152.932 112.41 147.81 116.764C144.191 119.814 142.453 122.956 138.88 123.916Z" fill="#DCF375"/>
<path d="M586.116 139.807C609.215 143.802 608.106 126.342 603.186 123.082C598.266 119.821 591.079 122.337 589.361 128.836C588.133 133.406 588.501 136.978 586.116 139.807Z" fill="#DCF375"/>
<path d="M368.722 13.6184C341.8 10.95 344.536 30.9541 350.471 34.2959C356.406 37.6377 364.469 34.1417 365.903 26.5175C366.935 21.1542 366.213 17.0736 368.722 13.6184Z" fill="#DCF375"/>
<path d="M503.862 135.027C477.2 139.614 478.497 119.465 484.179 115.708C489.86 111.95 498.152 114.86 500.127 122.362C501.54 127.638 501.112 131.76 503.862 135.027Z" fill="#DCF375"/>
<path d="M445.146 75.3614C471.887 79.4592 470.221 59.3379 464.472 55.6848C458.723 52.0318 450.485 55.0935 448.648 62.6306C447.332 67.9314 447.835 72.0446 445.146 75.3614Z" fill="#DCF375"/>
<path d="M326.441 136.02C345.654 138.964 344.457 124.507 340.326 121.883C336.196 119.258 330.277 121.458 328.957 126.873C328.011 130.681 328.373 133.637 326.441 136.02Z" fill="#DCF375"/>
<path d="M523.486 13.7489C497.975 4.74558 495.867 24.8255 500.836 29.4847C505.804 34.1439 514.468 32.6688 517.676 25.6055C519.955 20.6422 520.226 16.5072 523.486 13.7489Z" fill="#DCF375"/>
<path d="M645.333 73.9669C618.282 73.6492 623.207 54.0689 629.475 51.4023C635.742 48.7356 643.37 53.0996 643.954 60.8354C644.388 66.2799 643.221 70.2559 645.333 73.9669Z" fill="#DCF375"/>
<path d="M370.91 82.4199C386.871 78.1835 387.176 90.5038 383.926 93.0969C380.676 95.69 375.476 94.3708 373.868 89.9169C372.723 86.786 372.759 84.2568 370.91 82.4199Z" fill="#DCF375"/>
<path d="M847.948 67.3937C828.33 79.0056 823.306 62.751 826.652 58.0875C829.998 53.4239 837.401 53.2274 841.207 58.542C843.903 62.2724 844.803 65.6463 847.948 67.3937Z" fill="#DCF375"/>
</svg>
