<svg width="40" height="40" fill="none" xmlns="http://www.w3.org/2000/svg"><path d="M40 22.008c0-.313-.17-.593-.425-.7l-9.252-3.88V5.001h-.025c.093-.374-.082-.768-.4-.898L20.22.045a.557.557 0 00-.44 0l-9.678 4.058a.722.722 0 00-.408.538h-.017v12.787l-9.252 3.88a.722.722 0 00-.408.538H0v13.19h.016c-.07.364.104.733.409.86l9.677 4.059a.56.56 0 00.44 0L20 35.989l9.457 3.966a.56.56 0 00.44 0l9.678-4.058a.712.712 0 00.4-.5H40v-13.39zM9.677 38.193L1.29 34.677V23.07l8.387 3.517v11.606zm.646-12.919l-7.79-3.266 7.739-3.246 7.79 3.267-7.74 3.245zm9.032 9.403l-8.387 3.516V26.587l8.387-3.517v11.607zm0-13.731l-8.387-3.518V5.864l8.387 3.518v11.564zM12.21 4.802L20 1.536l7.79 3.266L20 8.07l-7.79-3.267zm16.822 1.062v11.564l-8.387 3.518V9.382l8.387-3.518zm0 32.329l-8.387-3.516V23.07l8.387 3.517v11.606zm.645-12.919l-7.74-3.245 7.791-3.267 7.739 3.246-7.79 3.266zm9.033 9.403l-8.387 3.516V26.587l8.387-3.517v11.607z" fill="#1D2E3E"/></svg>