<svg width="40" height="40" fill="none" xmlns="http://www.w3.org/2000/svg"><path d="M26.573 11.447a2 2 0 00-2.805-.365l-7.07 5.442a14.523 14.523 0 01-2.034-6.59C14.029 3.588 13.438 0 8.667 0h-8A.667.667 0 000 .667v38.666c0 .369.298.667.667.667h26.667a.666.666 0 00.657-.556c.192-1.284.3-2.579.323-3.877l.705.917a1.986 1.986 0 001.59.782c.44 0 .867-.147 1.216-.416l7.396-5.693a2.002 2.002 0 00.364-2.805L26.573 11.447zm.18 27.22h-1.92c.293-1.315.46-2.654.5-4a.667.667 0 10-1.333 0 21.084 21.084 0 01-.53 4H1.333V1.333h7.334c3.324 0 3.983 1.861 4.67 8.734.317 3.145 1.079 5.47 2.44 7.475a1.994 1.994 0 00.23 2.037l10.96 14.239a31.25 31.25 0 01-.213 4.849zM38.408 30.1l-7.396 5.693a.667.667 0 01-.935-.123L17.064 18.766a.667.667 0 01.121-.935l7.396-5.693a.668.668 0 01.936.122l13.012 16.906a.668.668 0 01-.122.935z" fill="#1D2E3E"/><path d="M28.811 19.82a1.334 1.334 0 00-1.87-.244l-.813-1.056a2.665 2.665 0 00-3.74-.486l-.528.406a.666.666 0 10.814 1.056l.527-.407c.281-.215.635-.31.986-.265.35.045.67.228.884.51l.814 1.056a1.332 1.332 0 00-.244 1.87l5.287 6.867a2.003 2.003 0 002.805.366 2.003 2.003 0 00.364-2.806l-5.286-6.868zm4.108 8.616a.667.667 0 01-.935-.122l-5.286-6.867 1.057-.814L33.04 27.5c.225.292.17.71-.12.936zM11.704 9.644a24.06 24.06 0 00-.384-3.775c-.779-3.896-6.493-3.23-6.736-3.197a.667.667 0 10.165 1.323c.05-.006 4.725-.559 5.264 2.136.213 1.18.333 2.375.359 3.573.083 1.81.161 3.52 1.032 5.26a.667.667 0 001.193-.596c-.745-1.488-.814-2.988-.893-4.724z" fill="#1D2E3E"/></svg>