<svg width="32" height="40" fill="none" xmlns="http://www.w3.org/2000/svg"><path d="M32 20c0-10-1.685-15.833-1.685-15.833h-.027L32 0H0l1.712 4.167h-.027S0 10 0 20s1.685 15.832 1.685 15.832h.027L0 40h32l-1.712-4.168h.027S32 30 32 20zM6.738 1.667c0 .46.376.833.84.833a.838.838 0 00.843-.833h1.684c0 .46.377.833.842.833a.838.838 0 00.843-.833h1.684c0 .46.377.833.842.833a.837.837 0 00.841-.833h1.686c0 .46.376.833.84.833a.838.838 0 00.843-.833h1.684c0 .46.377.833.842.833a.838.838 0 00.843-.833h1.684c0 .46.377.833.842.833a.837.837 0 00.842-.833h4.234l-1.027 2.5H3.53l-1.027-2.5h4.234zM2.494 8.669c.185-1.204.373-2.158.52-2.836h25.973c.146.679.334 1.632.519 2.836.184 1.196.386 2.768.541 4.664h-6.452A10.179 10.179 0 0016 9.948a10.18 10.18 0 00-7.595 3.385H1.953c.155-1.896.357-3.468.541-4.664zM24.473 20c0 4.624-3.8 8.386-8.473 8.386-4.673 0-8.473-3.762-8.473-8.386 0-4.624 3.8-8.386 8.473-8.386 4.673 0 8.473 3.762 8.473 8.386zM1.685 20c0-1.819.058-3.491.15-5H7.19a9.912 9.912 0 00-1.348 5c0 1.819.491 3.526 1.348 5H1.834a82.86 82.86 0 01-.149-5zm23.578 18.333a.837.837 0 00-.842-.833.838.838 0 00-.842.833h-1.684a.838.838 0 00-.843-.833.838.838 0 00-.842.833h-1.684a.838.838 0 00-.842-.833.837.837 0 00-.841.833h-1.685a.837.837 0 00-.842-.833.838.838 0 00-.842.833H11.79a.838.838 0 00-.842-.833.838.838 0 00-.843.833H8.421a.838.838 0 00-.842-.833.837.837 0 00-.841.833H2.502l1.027-2.5h24.94l1.027 2.5h-4.234zm4.243-7.002a47.865 47.865 0 01-.52 2.836H3.014a47.855 47.855 0 01-.52-2.837 66.64 66.64 0 01-.541-4.663h6.452A10.178 10.178 0 0016 30.051c3.018 0 5.733-1.308 7.595-3.384h6.452a66.651 66.651 0 01-.541 4.663zm.66-6.331H24.81a9.91 9.91 0 001.348-5c0-1.819-.49-3.527-1.348-5h5.356c.091 1.509.149 3.181.149 5a82.74 82.74 0 01-.15 5z" fill="#1D2E3E"/><path d="M21.027 17.5H10.973a.837.837 0 00-.84.833c0 .46.376.834.84.834h10.054a.837.837 0 00.841-.834.837.837 0 00-.841-.833zm-2.514 3.333h-5.026a.839.839 0 00-.842.835c0 .459.377.832.842.832h5.026a.838.838 0 00.842-.832.839.839 0 00-.842-.835z" fill="#1D2E3E"/></svg>