<svg width="40" height="40" fill="none" xmlns="http://www.w3.org/2000/svg"><path fill-rule="evenodd" clip-rule="evenodd" d="M40 1.468C40 .658 39.343 0 38.532 0H1.468C.658 0 0 .657 0 1.468V38.53C0 39.342.657 40 1.468 40h37.064c.81 0 1.468-.657 1.468-1.468V1.468zm-1.835 20.535v-9.605l-2.983-.035.075 4.7v4.941h2.908zm0 1.835h-2.907v3.742h2.907v-3.742zm0 5.577h-8.75v8.75h8.75v-8.75zm-10.584 8.75v-3H18.08l-.052 3h9.553zm-11.388 0l.052-3h-3.826v3h3.774zm-5.608 0v-8.75H5.66l-3.825.028v8.721h8.75zm-8.75-10.557l2.907-.021.004-9.591H1.835v9.612zm0-11.447H4.76l.058-3.742H1.835v3.742zm0-5.577h8.75v-8.75h-8.75v8.75zm10.584-8.75v2.908h9.585V1.835h-9.585zm11.42 0v2.908h3.742V1.835h-3.742zm5.576 0v8.628l8.75.101V1.835h-8.75zm0 10.463v3.864h3.993l-.062-3.819-3.93-.045zm4.008 5.699h-9.707l.112 9.584h9.595v-9.584zm-11.42 10.502l-.055-4.771-4.848.11-.02.001h-.012l-4.649-.054v9.547h9.529l.056-4.833zm1.78 4.833h3.797v-3.916h-3.752l-.045 3.916zm-13.198-9.568l-4.008-.047v3.864h4.008v-3.817zM6.578 21.88l9.583.112v-9.574H6.654l-.073 4.667-.003 4.795zm9.583-11.297V6.577H12.42v4.007h3.742zm1.835-4.007v9.584h9.585V6.577h-9.585zm0 11.419v3.986l3.93-.09-.044-3.896h-3.886z" fill="#1D2E3E"/></svg>