<svg width="40" height="40" fill="none" xmlns="http://www.w3.org/2000/svg"><path d="M20 40a.79.79 0 01-.332-.073L.502 31.27A.865.865 0 010 30.476c0-.344.197-.656.502-.793l7.666-3.463a.821.821 0 011.097.448.88.88 0 01-.432 1.14l-5.91 2.668L20 38.191l17.077-7.715-5.909-2.67a.878.878 0 01-.431-1.14c.183-.437.671-.642 1.096-.448l7.667 3.463c.303.139.5.45.5.795a.865.865 0 01-.502.793l-19.166 8.658A.79.79 0 0120 40z" fill="#1D2E3E"/><path d="M20 33.074a.79.79 0 01-.332-.073L.502 24.343A.865.865 0 010 23.55c0-.345.197-.657.502-.793l7.666-3.463a.822.822 0 011.097.448.88.88 0 01-.432 1.14l-5.91 2.668L20 31.264l17.077-7.714-5.909-2.67a.878.878 0 01-.431-1.14c.183-.438.671-.642 1.096-.448l7.667 3.463c.303.139.5.45.5.795a.865.865 0 01-.502.793L20.332 33a.79.79 0 01-.332.073z" fill="#1D2E3E"/><path d="M20 26.147a.79.79 0 01-.332-.072L.502 17.416A.865.865 0 010 16.623c0-.344.197-.656.502-.793l7.666-3.463a.82.82 0 011.097.449.88.88 0 01-.432 1.139l-5.91 2.668L20 24.338l17.077-7.715-5.909-2.67a.878.878 0 01-.431-1.14.818.818 0 011.096-.448L39.5 15.83c.303.138.5.45.5.794a.865.865 0 01-.502.793l-19.166 8.659a.79.79 0 01-.332.072z" fill="#1D2E3E"/><path d="M20 18.91a.796.796 0 01-.332-.073L.502 10.242A.858.858 0 010 9.455c0-.343.197-.652.502-.788L19.668.072a.798.798 0 01.664 0l19.166 8.595a.858.858 0 01.502.788.858.858 0 01-.502.787l-19.166 8.595a.796.796 0 01-.332.072zM2.923 9.454L20 17.113l17.077-7.658L20 1.796 2.923 9.455z" fill="#1D2E3E"/></svg>