<svg width="40" height="30" fill="none" xmlns="http://www.w3.org/2000/svg"><path d="M8.002 5.512a1.1 1.1 0 001.11 1.087 1.1 1.1 0 001.112-1.087H8.002zm-6.89 1.59L0 7.06v.041h1.111zm25.555 7.763a1.1 1.1 0 001.11-1.087 1.1 1.1 0 00-1.11-1.088v2.175zM10.224 5.512V2.178H8.002v3.334h2.222zM9.113 2.178l1.11-.001v-.021a2.058 2.058 0 00-.274-.982A1.974 1.974 0 009.23.44 2.332 2.332 0 008.033.137v2.175c.098 0 .097.02.052-.007a.224.224 0 01-.078-.077c-.007-.011-.005-.012-.003-.002v-.003l-.001-.016v-.028l1.11-.001zM8.033.137c-.283 0-2.348-.304-4.168.39A5.408 5.408 0 001.22 2.643C.508 3.728.074 5.174 0 7.06l2.221.082c.063-1.61.426-2.648.868-3.322a3.196 3.196 0 011.582-1.267c1.302-.496 2.563-.241 3.361-.241V.137zM0 7.1v5.227h2.222V7.1H0zm2.593 7.764h24.074V12.69H2.593v2.175zM0 12.328c0 1.401 1.16 2.537 2.593 2.537V12.69a.367.367 0 01-.37-.362H0z" fill="#1D2E3E"/><mask id="mask0" maskUnits="userSpaceOnUse" x="11" y="0" width="30" height="12"><path d="M38.519 0H12.593c-.818 0-1.482.65-1.482 1.45v8.7c0 .8.664 1.45 1.482 1.45h25.926c.818 0 1.481-.65 1.481-1.45v-8.7C40 .65 39.337 0 38.52 0z" fill="#fff"/><path fill-rule="evenodd" clip-rule="evenodd" d="M13.111 2v7.6h24.89V2H13.11zm-.518-2h25.926C39.337 0 40 .65 40 1.45v8.7c0 .8-.663 1.45-1.481 1.45H12.593c-.818 0-1.482-.65-1.482-1.45v-8.7c0-.8.664-1.45 1.482-1.45z" fill="#1D2E3E"/></mask><g mask="url(#mask0)"><path fill-rule="evenodd" clip-rule="evenodd" d="M12.593 1a.466.466 0 00-.482.45v8.7c0 .228.195.45.482.45h25.926a.466.466 0 00.481-.45v-8.7a.466.466 0 00-.48-.45H12.593zm-2.482.45C10.111.077 11.243-1 12.593-1h25.926C39.869-1 41 .077 41 1.45v8.7c0 1.373-1.131 2.45-2.481 2.45H12.593c-1.35 0-2.482-1.077-2.482-2.45v-8.7z" fill="#1D2E3E"/></g><mask id="mask1" maskUnits="userSpaceOnUse" x="0" y="15" width="9" height="15"><path d="M7.407 15.953H1.481c-.818 0-1.481.65-1.481 1.45v10.15c0 .8.663 1.45 1.481 1.45h5.926c.819 0 1.482-.65 1.482-1.45v-10.15c0-.8-.663-1.45-1.482-1.45z" fill="#fff"/><path fill-rule="evenodd" clip-rule="evenodd" d="M2 17.953v9.05h4.889v-9.05H2zm-.519-2h5.926c.819 0 1.482.65 1.482 1.45v10.15c0 .8-.663 1.45-1.482 1.45H1.481c-.818 0-1.481-.65-1.481-1.45v-10.15c0-.8.663-1.45 1.481-1.45z" fill="#1D2E3E"/></mask><g mask="url(#mask1)"><path fill-rule="evenodd" clip-rule="evenodd" d="M1.481 16.95A.466.466 0 001 17.4v10.15c0 .228.195.45.481.45h5.926a.466.466 0 00.482-.45V17.4a.466.466 0 00-.482-.45H1.481zM-1 17.4c0-1.374 1.131-2.45 2.481-2.45h5.926c1.35 0 2.482 1.076 2.482 2.45v10.15c0 1.372-1.131 2.45-2.482 2.45H1.481C.131 30-1 28.921-1 27.55V17.4z" fill="#1D2E3E"/></g><mask id="mask2" maskUnits="userSpaceOnUse" x="9" y="15" width="31" height="15"><path d="M38.518 15.953H11.11c-.818 0-1.481.65-1.481 1.45v10.15c0 .8.663 1.45 1.481 1.45h27.408c.818 0 1.481-.65 1.481-1.45v-10.15c0-.8-.663-1.45-1.481-1.45z" fill="#fff"/><path fill-rule="evenodd" clip-rule="evenodd" d="M11.629 17.953v9.05h26.37v-9.05H11.63zm-.519-2h27.408c.818 0 1.481.65 1.481 1.45v10.15c0 .8-.663 1.45-1.481 1.45H11.11c-.818 0-1.481-.65-1.481-1.45v-10.15c0-.8.663-1.45 1.481-1.45z" fill="#1D2E3E"/></mask><g mask="url(#mask2)"><path fill-rule="evenodd" clip-rule="evenodd" d="M11.11 16.95a.466.466 0 00-.481.45v10.15c0 .228.195.45.481.45h27.408a.466.466 0 00.481-.45V17.4a.466.466 0 00-.481-.45H11.11zm-2.481.45c0-1.374 1.131-2.45 2.481-2.45h27.408c1.35 0 2.481 1.076 2.481 2.45v10.15c0 1.372-1.131 2.45-2.481 2.45H11.11c-1.35 0-2.481-1.078-2.481-2.45V17.4z" fill="#1D2E3E"/></g></svg>