<svg width="31" height="14" fill="none" xmlns="http://www.w3.org/2000/svg"><path d="M4.88 8.315h-2.1V13H.142V.203h4.754c1.512 0 2.678.337 3.499 1.01.82.675 1.23 1.627 1.23 2.857 0 .873-.19 1.603-.571 2.189-.375.58-.947 1.043-1.714 1.388l2.768 5.23V13H7.28l-2.4-4.685zM2.78 6.18h2.126c.662 0 1.175-.167 1.538-.501.364-.34.545-.806.545-1.398 0-.603-.173-1.078-.518-1.424-.34-.345-.865-.518-1.574-.518H2.78v3.84zM17.535 13h-2.54V3.209l-3.032.94V2.084l5.3-1.898h.272V13zm12.78-5.291c0 1.77-.367 3.123-1.1 4.06-.732.938-1.804 1.407-3.216 1.407-1.395 0-2.46-.46-3.2-1.38-.738-.92-1.115-2.238-1.133-3.955V5.485c0-1.787.37-3.143 1.107-4.069C23.52.49 24.588.027 25.982.027c1.395 0 2.461.46 3.2 1.38.738.914 1.116 2.23 1.133 3.947v2.355zm-2.54-2.584c0-1.06-.147-1.831-.44-2.312-.287-.486-.738-.729-1.354-.729-.597 0-1.04.231-1.327.694-.281.457-.43 1.175-.448 2.154v3.111c0 1.043.14 1.82.422 2.33.287.503.744.755 1.371.755.621 0 1.07-.243 1.345-.73.275-.486.419-1.23.43-2.232V5.125z" fill="#1D2E3E"/></svg>