<svg width="28" height="13" fill="none" xmlns="http://www.w3.org/2000/svg"><path d="M4.88 8.315h-2.1V13H.142V.203h4.754c1.512 0 2.678.337 3.499 1.01.82.675 1.23 1.627 1.23 2.857 0 .873-.19 1.603-.571 2.189-.375.58-.947 1.043-1.714 1.388l2.768 5.23V13H7.28l-2.4-4.685zM2.78 6.18h2.126c.662 0 1.175-.167 1.538-.501.364-.34.545-.806.545-1.398 0-.603-.173-1.078-.518-1.424-.34-.345-.865-.518-1.574-.518H2.78v3.84zM17.535 13h-2.54V3.209l-3.032.94V2.084l5.3-1.898h.272V13zm10.336 0h-2.54V3.209l-3.032.94V2.084L27.6.186h.272V13z" fill="#1D2E3E"/></svg>