<svg width="31" height="13" fill="none" xmlns="http://www.w3.org/2000/svg"><path d="M4.88 8.315h-2.1V13H.142V.203h4.754c1.512 0 2.678.337 3.499 1.01.82.675 1.23 1.627 1.23 2.857 0 .873-.19 1.603-.571 2.189-.375.58-.947 1.043-1.714 1.388l2.768 5.23V13H7.28l-2.4-4.685zM2.78 6.18h2.126c.662 0 1.175-.167 1.538-.501.364-.34.545-.806.545-1.398 0-.603-.173-1.078-.518-1.424-.34-.345-.865-.518-1.574-.518H2.78v3.84zM17.535 13h-2.54V3.209l-3.032.94V2.084l5.3-1.898h.272V13zm12.938 0h-8.772v-1.74l4.14-4.412c.568-.621.987-1.163 1.257-1.626.275-.463.413-.903.413-1.319 0-.568-.144-1.013-.43-1.336-.288-.328-.698-.492-1.231-.492-.575 0-1.029.2-1.363.598-.328.392-.492.911-.492 1.556h-2.549c0-.78.185-1.492.554-2.136A3.934 3.934 0 0123.583.58c.68-.37 1.45-.554 2.312-.554 1.318 0 2.34.317 3.067.95.732.632 1.099 1.526 1.099 2.68 0 .633-.165 1.278-.493 1.934-.328.656-.89 1.42-1.687 2.294l-2.91 3.067h5.503V13z" fill="#1D2E3E"/></svg>