<svg width="20" height="14" fill="none" xmlns="http://www.w3.org/2000/svg"><path d="M4.88 8.315h-2.1V13H.142V.203h4.754c1.512 0 2.678.337 3.499 1.01.82.675 1.23 1.627 1.23 2.857 0 .873-.19 1.603-.571 2.189-.375.58-.947 1.043-1.714 1.388l2.768 5.23V13H7.28l-2.4-4.685zM2.78 6.18h2.126c.662 0 1.175-.167 1.538-.501.364-.34.545-.806.545-1.398 0-.603-.173-1.078-.518-1.424-.34-.345-.865-.518-1.574-.518H2.78v3.84zm14.528 1.705c-.663.65-1.436.975-2.32.975-1.132 0-2.037-.386-2.716-1.16-.68-.78-1.02-1.828-1.02-3.146 0-.838.182-1.606.545-2.303A4.022 4.022 0 0113.335.616c.656-.392 1.394-.589 2.215-.589.844 0 1.594.211 2.25.633.656.422 1.166 1.028 1.53 1.82.362.79.547 1.696.553 2.715v.94c0 2.134-.53 3.81-1.591 5.028-1.06 1.219-2.564 1.87-4.509 1.951l-.624.009v-2.118l.563-.009c2.209-.1 3.404-1.137 3.586-3.111zm-1.697-.967c.41 0 .762-.106 1.055-.316a2.1 2.1 0 00.677-.765V4.79c0-.861-.164-1.53-.492-2.004-.328-.474-.768-.712-1.319-.712-.51 0-.928.235-1.257.703-.328.463-.492 1.046-.492 1.75 0 .697.158 1.27.475 1.722.322.445.773.668 1.353.668z" fill="#1D2E3E"/></svg>