<svg width="40" height="40" fill="none" xmlns="http://www.w3.org/2000/svg"><path d="M0 39.155c0-.466.35-.844.781-.844H39.22c.431 0 .781.378.781.844 0 .467-.35.845-.781.845H.78c-.43 0-.78-.378-.78-.845zm.847-1.317c-.468 0-.847-.363-.847-.811 0-.448.38-.81.847-.81h38.306c.467 0 .847.362.847.81 0 .448-.38.81-.847.81H.847zm1.336-18.016c1.802 1.004 5.054 2.319 9.72 2.319 2.125 0 4.543-.273 7.25-.971.157-.04.312-.082.466-.124a.768.768 0 00.36-.219l2.893-3.095.577 1.24c.182.393.612.569.989.405 2.6-1.13 4.756-2.493 6.407-4.055a.873.873 0 00.266-.626l.018-1.8.366.397a.75.75 0 00.612.245.77.77 0 00.571-.343c1.665-2.453 1.923-5.036.775-7.148.37-.308.738-.621 1.102-.94l4.118-3.606a.892.892 0 00.115-1.188.742.742 0 00-1.099-.125l-4.117 3.607c-.359.314-.72.622-1.085.925-1.525-1.673-3.175-2.565-5.037-2.724-2.347-.2-5.019.748-8.17 2.895a73.06 73.06 0 01-1.361.907l-.393.258a.859.859 0 00-.375.688.87.87 0 00.323.718l.351.275-1.954-.352a.735.735 0 00-.53.108c-4.578 2.963-10.26 6.487-13.24 8.325-.672.414-1.079 1.19-1.062 2.024.016.837.455 1.596 1.144 1.98zm29.736-8.46l-1-1.08a.74.74 0 00-.847-.185.847.847 0 00-.486.773l-.033 3.424c-1.34 1.205-3.03 2.285-5.034 3.218l-.733-1.578a.79.79 0 00-.572-.454.744.744 0 00-.675.233l-3.507 3.75a18.8 18.8 0 01-.241.064c-2.586.667-4.884.926-6.895.926-4.336 0-7.337-1.207-8.997-2.133h-.002a.698.698 0 00.106 0 51.635 51.635 0 0016.735-3.93 53.995 53.995 0 0012.453-7.324c.625 1.277.534 2.752-.272 4.296zm-16.022-2.26l4.953.892c.359.065.71-.146.85-.507a.886.886 0 00-.263-1.01l-2.095-1.638c.238-.157.466-.31.772-.52 2.855-1.945 5.215-2.81 7.213-2.639 1.432.122 2.678.781 3.893 2.062C23.24 11.99 13.93 15.7 4.068 16.548c3.087-1.91 7.842-4.87 11.829-7.446zm-9.67 21.475a.735.735 0 00.405.123.77.77 0 00.668-.406c.225-.398.108-.918-.26-1.16-1.522-1.001-2.43-2.749-2.43-4.675 0-.466-.35-.844-.782-.844-.431 0-.781.378-.781.845 0 2.52 1.189 4.806 3.18 6.117zm29.554-10.102c0-.466-.35-.845-.781-.845-.431 0-.781.379-.781.845 0 1.583-1.192 2.871-2.657 2.871-.431 0-.78.379-.78.845 0 .466.349.845.78.845 2.327 0 4.22-2.046 4.22-4.561z" fill="#1D2E3E"/></svg>