<svg width="42" height="42" fill="none" xmlns="http://www.w3.org/2000/svg"><path d="M11.106 30.809H1.363v9.829h9.743v-9.83z" fill="#fff"/><path d="M11.105 30.805H1v10.194h10.105V30.805z" stroke="#1D2E3E" stroke-width=".5"/><path d="M11.106 20.863H1.363v10.195h9.743V20.863z" fill="#fff"/><path d="M11.105 20.855H1V31.05h10.105V20.855z" stroke="#1D2E3E" stroke-width=".5"/><path d="M11.106 10.93H1.363v10.194h9.743V10.93z" fill="#fff"/><path d="M11.105 10.934H1v10.194h10.105V10.934z" stroke="#1D2E3E" stroke-width=".5"/><path d="M11.106 1.422H1.363v9.756h9.743V1.422z" fill="#fff"/><path d="M11.105 1H1v10.195h10.105V1z" stroke="#1D2E3E" stroke-width=".5"/><path d="M30.808 30.809H20.703v9.829h10.105v-9.83z" fill="#fff"/><path d="M30.806 30.805H20.701v10.194h10.105V30.805z" stroke="#1D2E3E" stroke-width=".5"/><path d="M30.808 20.863H20.703v10.195h10.105V20.863z" fill="#fff"/><path d="M30.808 20.863H20.703v10.195h10.105V20.863z" stroke="#1D2E3E" stroke-width=".5"/><path d="M30.808 10.93H20.703v10.194h10.105V10.93z" fill="#fff"/><path d="M30.808 10.93H20.703v10.194h10.105V10.93z" stroke="#1D2E3E" stroke-width=".5"/><path d="M30.808 1.422H20.703v9.756h10.105V1.422z" fill="#fff"/><path d="M30.808 1H20.703v10.195h10.105V1z" stroke="#1D2E3E" stroke-width=".5"/><path d="M20.949 30.809H10.844v9.829h10.105v-9.83z" fill="#fff"/><path d="M20.947 30.805H10.842v10.194h10.105V30.805z" stroke="#1D2E3E" stroke-width=".5"/><path d="M20.949 20.863H10.844v10.195h10.105V20.863z" fill="#fff"/><path d="M20.949 20.863H10.844v10.195h10.105V20.863z" stroke="#1D2E3E" stroke-width=".5"/><path d="M20.949 10.93H10.844v10.194h10.105V10.93z" fill="#fff"/><path d="M20.949 10.93H10.844v10.194h10.105V10.93z" stroke="#1D2E3E" stroke-width=".5"/><path d="M20.949 1.422H10.844v9.756h10.105V1.422z" fill="#fff"/><path d="M20.949 1H10.844v10.195h10.105V1z" stroke="#1D2E3E" stroke-width=".5"/><path d="M40.654 30.809H30.549v9.829h10.105v-9.83z" fill="#fff"/><path d="M40.652 30.805H30.547v10.194h10.105V30.805z" stroke="#1D2E3E" stroke-width=".5"/><path d="M40.654 20.863H30.549v10.195h10.105V20.863z" fill="#fff"/><path d="M40.654 20.863H30.549v10.195h10.105V20.863z" stroke="#1D2E3E" stroke-width=".5"/><path d="M40.654 10.93H30.549v10.194h10.105V10.93z" fill="#fff"/><path d="M40.654 10.93H30.549v10.194h10.105V10.93z" stroke="#1D2E3E" stroke-width=".5"/><path d="M40.654 1.422H30.549v9.756h10.105V1.422z" fill="#fff"/><path d="M40.654 1H30.549v10.195h10.105V1z" stroke="#1D2E3E" stroke-width=".5"/><path d="M41 1.422H1.364V40.62h39.638V1.42z" stroke="#1D2E3E"/></svg>