<svg width="42" height="42" fill="none" xmlns="http://www.w3.org/2000/svg"><path d="M11.43 30.809H1.32v9.828h10.11V30.81z" fill="#F5F5F5"/><path d="M11.43 30.813H1.32v10.194h10.11V30.813z" stroke="#1D2E3E" stroke-width=".5"/><path d="M11.43 20.863H1.32v10.195h10.11V20.863z" fill="#fff"/><path d="M11.43 20.863H1.32v10.195h10.11V20.863z" stroke="#1D2E3E" stroke-width=".5"/><path d="M11.43 10.934H1.32v10.194h10.11V10.934z" fill="#DADAD9"/><path d="M11.43 10.934H1.32v10.194h10.11V10.934z" stroke="#1D2E3E" stroke-width=".5"/><path d="M11.43 1.426H1.32v9.755h10.11V1.426z" fill="#fff"/><path d="M11.43 1.004H1.32v10.194h10.11V1.004z" stroke="#1D2E3E" stroke-width=".5"/><path d="M31.138 30.809H21.03v9.828h10.11V30.81z" fill="#F1F1F1"/><path d="M31.138 30.813H21.03v10.194h10.11V30.813z" stroke="#1D2E3E" stroke-width=".5"/><path d="M31.138 20.863H21.03v10.195h10.11V20.863z" fill="#C0BFBF"/><path d="M31.138 20.863H21.03v10.195h10.11V20.863z" stroke="#1D2E3E" stroke-width=".5"/><path d="M31.138 10.934H21.03v10.194h10.11V10.934z" fill="#fff"/><path d="M31.138 10.934H21.03v10.194h10.11V10.934z" stroke="#1D2E3E" stroke-width=".5"/><path d="M31.138 1.426H21.03v9.755h10.11V1.426z" fill="#F5F5F5"/><path d="M31.138 1.004H21.03v10.194h10.11V1.004z" stroke="#1D2E3E" stroke-width=".5"/><path d="M21.29 30.809H11.183v9.828H21.29V30.81z" fill="#fff"/><path d="M21.29 30.813H11.183v10.194H21.29V30.813z" stroke="#1D2E3E" stroke-width=".5"/><path d="M21.29 20.863H11.183v10.195H21.29V20.863z" fill="#DADAD9"/><path d="M21.29 20.863H11.183v10.195H21.29V20.863z" stroke="#1D2E3E" stroke-width=".5"/><path d="M21.29 10.934H11.183v10.194H21.29V10.934z" fill="#F5F5F5"/><path d="M21.29 10.934H11.183v10.194H21.29V10.934z" stroke="#1D2E3E" stroke-width=".5"/><path d="M21.29 1.426H11.183v9.755H21.29V1.426z" fill="#C0BFBF"/><path d="M21.29 1.004H11.183v10.194H21.29V1.004z" stroke="#1D2E3E" stroke-width=".5"/><path d="M40.666 30.809h-9.775v9.828h9.775V30.81z" fill="#fff"/><path d="M41 30.813H30.89v10.194H41V30.813z" stroke="#1D2E3E" stroke-width=".5"/><path d="M40.666 20.863h-9.775v10.195h9.775V20.863z" fill="#fff"/><path d="M41 20.863H30.89v10.195H41V20.863z" stroke="#1D2E3E" stroke-width=".5"/><path d="M40.666 10.934h-9.775v10.194h9.775V10.934z" fill="#DADAD9"/><path d="M41 10.934H30.89v10.194H41V10.934z" stroke="#1D2E3E" stroke-width=".5"/><path d="M40.666 1.426h-9.775v9.755h9.775V1.426z" fill="#EAE9E9"/><path d="M41 1.004H30.89v10.194H41V1.004z" stroke="#1D2E3E" stroke-width=".5"/><path d="M40.653 1.426H1v39.197h39.653V1.426z" stroke="#1D2E3E"/></svg>