<svg width="40" height="40" fill="none" xmlns="http://www.w3.org/2000/svg"><path d="M.678 40h37.976a.678.678 0 00.678-.678V20.339a.678.678 0 00-.678-.678h-18.31V1.356a.678.678 0 00-.678-.678H.678A.678.678 0 000 1.356v37.966c0 .374.304.678.678.678zm18.31-12.238a7.465 7.465 0 01-6.747-6.745h6.747v6.745zm0 1.365v2.038A10.864 10.864 0 018.837 21.017h2.039a8.829 8.829 0 008.112 8.11zm1.356-8.11h6.747a7.465 7.465 0 01-6.747 6.745v-6.745zm-8.103-1.356a7.465 7.465 0 016.747-6.745v6.745H12.24zm6.747-8.11a8.829 8.829 0 00-8.112 8.11h-2.04A10.864 10.864 0 0118.989 9.512v2.039zM7.494 21.017a12.2 12.2 0 0011.494 11.49v6.137h-8.172a10.17 10.17 0 00-9.46-9.457v-8.17h6.138zM1.356 33.26a6.112 6.112 0 015.385 5.384H1.356V33.26zm6.751 5.384a7.47 7.47 0 00-6.75-6.75v-1.36a8.829 8.829 0 018.111 8.11h-1.36zm21.757 0a8.829 8.829 0 018.111-8.11v1.36a7.47 7.47 0 00-6.75 6.75h-1.361zm2.726 0a6.112 6.112 0 015.385-5.384v5.384H32.59zm5.385-9.457a10.17 10.17 0 00-9.459 9.457h-8.172v-6.136a12.2 12.2 0 0011.494-11.491h6.137v8.17zm-7.48-8.17a10.864 10.864 0 01-10.151 10.148v-2.038a8.829 8.829 0 008.112-8.11h2.039zM18.988 8.17A12.2 12.2 0 007.494 19.66H1.356v-8.17a10.17 10.17 0 009.46-9.456h8.172V8.17zm-9.52-6.136a8.829 8.829 0 01-8.112 8.11V8.782a7.47 7.47 0 006.751-6.75h1.361zm-2.727 0a6.112 6.112 0 01-5.385 5.383V2.034h5.385z" fill="#1D2E3E"/><path d="M22.107 11.82l.615 1.23c.073.148.155.292.241.434l-1.232 3.94a.678.678 0 00.85.85l3.872-1.21 2.305 1.383c.585.35 1.253.536 1.934.536h2.187a3.762 3.762 0 003.493-5.158l-.379-.944a7.407 7.407 0 00-.135-5.757l3.944-3.943a.678.678 0 000-.959L37.777.198a.679.679 0 00-.96 0l-3.745 3.745a7.377 7.377 0 00-2.7-1.039l-.556-.093c-.4-.066-.803-.1-1.208-.1h-.897a6.298 6.298 0 00-5.604 9.11zm3.294-1.593a3.51 3.51 0 013.685-2.435c.57.06 1.116.259 1.59.58L29.358 9.69l.96.959 1.317-1.318c.322.474.521 1.02.58 1.59a3.508 3.508 0 01-2.435 3.683l-6.369 1.99 1.99-6.367zm9.33 2.157l-.098.246a.687.687 0 000 .503l.479 1.196a2.403 2.403 0 01-2.233 3.298h-2.187a2.41 2.41 0 01-1.237-.339l-1.27-.762 2-.624a4.867 4.867 0 003.383-5.116 4.813 4.813 0 00-.96-2.424l.623-.624.528.528a.679.679 0 00.959 0l.095-.095a6.033 6.033 0 01-.082 4.213zm2.566-10.748l1.066 1.065-4.127 4.127-1.066-1.066 4.127-4.126zM23.938 5.84a4.902 4.902 0 013.773-1.773h.897c.33.001.66.028.985.082l.555.093a6.037 6.037 0 011.943.682l-.36.36a.678.678 0 000 .958l.539.537-.624.624a4.83 4.83 0 00-7.538 2.42l-.57 1.825-.218-.434c-.2-.4-.344-.827-.43-1.266a4.894 4.894 0 011.048-4.112v.004z" fill="#1D2E3E"/></svg>