<svg width="38" height="12" fill="none" xmlns="http://www.w3.org/2000/svg"><path d="M16.467 11.235h-3.078L15.314.199h3.078l-1.925 11.036zM27.627.47A8.112 8.112 0 0024.866 0c-3.04 0-5.181 1.503-5.194 3.65-.025 1.586 1.532 2.466 2.698 2.995 1.19.54 1.595.892 1.595 1.374-.012.739-.962 1.08-1.848 1.08-1.23 0-1.888-.176-2.888-.587l-.406-.177-.43 2.478c.721.305 2.052.575 3.433.587 3.23 0 5.332-1.48 5.357-3.769.013-1.256-.81-2.219-2.584-3.005-1.076-.505-1.736-.846-1.736-1.362.013-.47.558-.95 1.774-.95 1-.024 1.735.198 2.293.422l.278.117.419-2.383zm4.091 6.855l1.229-3.087c-.013.023.253-.646.405-1.057l.215.95s.583 2.642.71 3.194h-2.56zM35.518.2h-2.382c-.734 0-1.292.2-1.609.916l-4.572 10.12h3.23l.646-1.656h3.952c.089.388.368 1.656.368 1.656H38L35.517.199zM10.817.2L7.802 7.723l-.33-1.526c-.557-1.76-2.305-3.674-4.255-4.626l2.761 9.651h3.255L14.072.199h-3.255z" fill="#00579F"/><path d="M5.003.2H.051L0 .421c3.863.916 6.422 3.123 7.473 5.777L6.397 1.127C6.219.422 5.675.222 5.003.199z" fill="#FAA61A"/></svg>