<svg xmlns="http://www.w3.org/2000/svg" viewBox="0 0 108.89 108.89"><defs><style>.cls-1{fill:#404040}</style></defs><g id="Слой_2" data-name="Слой 2"><g id="Layer_1" data-name="Layer 1"><path class="cls-1" d="M42.7 77.47l-.47 1 1.21.61-.33.65-1.21-.61-.51 1 1.49.74-.34.68-2.42-1.22 2-3.94 2.42 1.21-.43.62zm4.78 1.62l-.65.37a1.41 1.41 0 00-.83-.66c-.34-.12-.61 0-.7.21s0 .43.61.86 1 1 .77 1.78-1.07 1.1-2.11.74a2.34 2.34 0 01-1.38-1.15l.7-.38a1.58 1.58 0 00.9.78c.41.15.73 0 .84-.28s0-.5-.54-.89c-.84-.62-1-1.12-.83-1.74a1.39 1.39 0 011.92-.68 2.06 2.06 0 011.3 1.04zm2.09.81l-.74 3.53-1-.22.74-3.53-1.11-.23.16-.79 3.3.7-.26.76zm2.7-.44c1.17.08 2.26.52 2.13 2.33a2 2 0 01-2.34 2.07l-1.33-.09.31-4.4zm-.44 3.63h.34c.63 0 1.07-.22 1.15-1.39s-.35-1.45-1-1.5h-.33zm5.97.68l-.38-3.3-.85.67-.51-.62 1.34-1 .89-.1.49 4.27zm4.91-2.16c.16.68-.29 1.38-1.33 1.63s-1.73-.16-1.89-.83a1.12 1.12 0 01.51-1.22 1.16 1.16 0 01-.86-.84c-.16-.68.34-1.28 1.19-1.48s1.54 0 1.7.72a1.1 1.1 0 01-.44 1.11 1.25 1.25 0 011.12.91zm-2.6-1.48c.07.29.28.4.65.46h.14a.72.72 0 00.22-.74.46.46 0 00-.61-.34.47.47 0 00-.4.62zm1.62 1.71c-.08-.34-.29-.46-.8-.52h-.23a.8.8 0 00-.24.82.59.59 0 00.78.42.56.56 0 00.49-.72zm3.86-2.98c.64 1.64.13 2.66-1.45 3.67L63.7 82c.91-.63 1.3-1.16 1.18-1.93a1.07 1.07 0 01-.68.7 1.27 1.27 0 01-1.66-.88 1.49 1.49 0 011-2 1.51 1.51 0 012.05.97zm-.9.5c-.29-.75-.54-1-.94-.81s-.45.45-.28.9.49.61.76.5a.78.78 0 00.46-.59zm3.43 1.36l-.94.15-.29-3.62-1.53.81-.36-.67 2.46-1.3.32.6zM43.2 27.51l-.19.77a1.14 1.14 0 00-.85.06c-.5.24-.65.82-.18 1.79s1 1.19 1.54.93a1.41 1.41 0 00.61-.71l.69.34a2 2 0 01-1 1.12c-1.09.53-2.17.15-2.83-1.2a2 2 0 01.77-2.94 1.93 1.93 0 011.44-.16zm4.8.32c.44 1.38 0 2.44-1.19 2.82s-2.15-.2-2.6-1.6 0-2.42 1.18-2.8 2.12.18 2.61 1.58zm-2.75.89c.35 1.06.78 1.38 1.33 1.2s.72-.68.37-1.75-.76-1.38-1.32-1.2-.76.69-.42 1.75zm6.89.7l-.31-1.7a15.3 15.3 0 01-.26-1.78l-.25 3.12-1 .14-1.12-2.93a16.88 16.88 0 01.27 1.79l.16 1.71-1 .14-.28-4.41 1.3-.18 1.07 2.87.2-3.05 1.3-.14.94 4.33zM55 24.94c1.14 0 1.83.51 1.81 1.48s-.76 1.48-1.81 1.46h-.48v1.47h-1l.09-4.41zm0 2.19a.66.66 0 00.77-.74c0-.47-.24-.69-.76-.71h-.41v1.44zm2.52 1.44l-.35.9-1.07-.15 1.9-4.18 1.25.18.7 4.56-1.1-.16-.09-1zm1-2.59l-.73 1.86.92.13zM62 30.49l-.25-3.64a12.58 12.58 0 01-.39 1.76l-.46 1.55-.9-.26 1.26-4.23 1.24.37.28 3.66a10.71 10.71 0 01.33-1.62l.51-1.71.9.27-1.26 4.23zm3.52 1.42l-.94-.45.69-1.46-.11-3.1 1 .48-.08 2.1L67.67 28l1 .46-2.45 1.91z"/><path class="cls-1" d="M102 62.69v.08c0-.21.08-.42.11-.63a22.56 22.56 0 005.08-6.09 17 17 0 001.68-9.21 7.12 7.12 0 01-3.19 2.81c-2.4.79-3.43-2-3.43-2v.06c0-.2 0-.42-.09-.62a22.74 22.74 0 003-7.36 17.07 17.07 0 00-1.25-9.28 7.08 7.08 0 01-2.17 3.66c-2 1.5-3.89-.88-3.89-.88-.08-.17-.17-.34-.26-.51a22.45 22.45 0 00.41-7.95 17 17 0 00-4-8.43 7 7 0 01-1 4.15c-1.47 2.05-4 .36-4 .36l.07.09-.47-.48a22.61 22.61 0 00-1.94-7.7A17 17 0 0080.25 6a7.09 7.09 0 01.39 4.24C79.87 12.64 77 11.8 77 11.8l-.52-.27a23 23 0 00-4.23-6.72A17.07 17.07 0 0064 .39a7.1 7.1 0 011.69 3.91c0 2.52-3 2.62-3 2.62h.08l-.63-.11a22.56 22.56 0 00-6.09-5.08A17 17 0 0046.84.08a7.12 7.12 0 012.81 3.19c.79 2.4-2 3.43-2 3.43h.06l-.62.08a23 23 0 00-7.36-2.94 17 17 0 00-9.28 1.25 7.08 7.08 0 013.66 2.17c1.5 2-.88 3.89-.88 3.89l-.51.26a22.45 22.45 0 00-7.92-.53 17 17 0 00-8.43 4 7.09 7.09 0 014.15.94c2.05 1.47.36 4 .36 4l.09-.07-.48.46a23 23 0 00-7.7 1.95A17 17 0 006 28.64a7.09 7.09 0 014.24-.39c2.41.77 1.57 3.66 1.57 3.66l-.27.52a23 23 0 00-6.72 4.23 17.07 17.07 0 00-4.43 8.22 7.16 7.16 0 013.91-1.69c2.52 0 2.62 3 2.62 3v-.07c0 .21-.08.42-.11.63a22.56 22.56 0 00-5.08 6.09 17 17 0 00-1.65 9.21 7.12 7.12 0 013.19-2.81c2.4-.79 3.43 2 3.43 2v-.06c0 .2 0 .42.08.62a23 23 0 00-2.94 7.4 17.07 17.07 0 001.25 9.28 7.08 7.08 0 012.17-3.66c2-1.5 3.89.88 3.89.88.08.17.17.34.26.51a22.45 22.45 0 00-.53 7.92 17 17 0 004 8.43 7.09 7.09 0 01.94-4.15c1.47-2.05 4-.36 4-.36l-.05-.05.46.48a23 23 0 001.95 7.7 17 17 0 006.46 6.77 7.09 7.09 0 01-.39-4.24c.77-2.41 3.66-1.57 3.66-1.57l.52.27a23 23 0 004.23 6.72 17.07 17.07 0 008.24 4.44 7.16 7.16 0 01-1.69-3.91c0-2.52 3-2.62 3-2.62h-.07l.63.11a22.56 22.56 0 006.09 5.08 17 17 0 009.21 1.68 7.12 7.12 0 01-2.81-3.19c-.79-2.4 2-3.43 2-3.43h-.06c.2 0 .42 0 .62-.09a22.74 22.74 0 007.36 3 17.07 17.07 0 009.28-1.25 7.08 7.08 0 01-3.66-2.17c-1.5-2 .88-3.89.88-3.89l.51-.26a22.45 22.45 0 007.92.53A17 17 0 0092.55 94a7 7 0 01-4.15-1c-2.05-1.47-.36-4-.36-4l-.09.07.48-.47a22.61 22.61 0 007.7-1.94 17 17 0 006.77-6.46 7.09 7.09 0 01-4.24.39c-2.41-.72-1.57-3.59-1.57-3.59l.27-.52a23 23 0 006.72-4.23A17.07 17.07 0 00108.5 64a7.1 7.1 0 01-3.91 1.68c-2.52.03-2.59-2.99-2.59-2.99zM77.65 18l.35-.4s.82.68 1 .79l.4.31v.25s-.42 1.19-.49 1.41l-1 3.29 3-1.86c.19-.11 1.2-.78 1.2-.78h.25l.19.14c.57.44 1.14.82 1.14.82l-.29.45-.64-.42a6.27 6.27 0 00-.43.52l-2.16 3.34c-.08.14-.23.49-.28.6l.55.5-.37.39s-.45-.4-1-.84l-.89-.62.24-.39.66.32c.09-.1.43-.5.59-.7l2.13-3.2-4.8 3-.26-.2 1.64-5.42-2.5 2.92c-.16.2-.44.63-.52.75l.54.5-.37.39s-.34-.32-.9-.75c-.14-.11-.8-.55-.8-.55l.23-.39.66.31c.09-.08.39-.31.51-.42l2.59-3a5.72 5.72 0 00.39-.56zM49 51.43c2-.6 2.92-.14 2.92 1.91a9.82 9.82 0 01-.12 1.43c-.59 4.46-2.23 6.41-4.17 7a2.77 2.77 0 01-1.8-.06l-1 5.19L42 68.49l3-15.87 2.75-.83-.07.4a3.86 3.86 0 011.32-.76zm38.86 6.8A33.63 33.63 0 0128.71 76.1zm-7-13.62c-1.06.32-.53-1.16-1.1-1a2.53 2.53 0 00-1.32 1L76.89 53l-2.75.83.39-2c-1 1.25-2.08 2.54-3 2.82-1.23.37-2 .13-2.29-.83A5.81 5.81 0 0166.82 56c-1.49.45-2.37 0-2.37-1.45a5.46 5.46 0 01.12-1.06l.72-3.8a2.7 2.7 0 00.06-.54c0-.71-.36-1.06-.88-.91a2.82 2.82 0 00-1.2.78l-1.62 8.55-2.75.83.46-2.4a8.12 8.12 0 01-4.16 3.5c-1.83.56-2.82-.6-2.82-2.31 0-2.53 1-7.29 4.5-8.34 1.57-.47 2.44-.06 2.44 1.34 0 2.43-2.5 4.58-4.31 5.37v.87c0 1.32.82 1.47 1.56 1.24a6.93 6.93 0 003.2-3.6l1.2-6.26 2.7-.81-.23 1.15a6.53 6.53 0 012.5-1.84 1.78 1.78 0 012.2 1.83 2.07 2.07 0 010 .49l-.79 4a3.44 3.44 0 00-.09.67c0 .44.21.67 1 .45a2.05 2.05 0 001-.81c.08-1.27 1-5.5 1.31-7.25l-.63.2.16-.85.63-.19.5-2.85 2.82-1.25L73.4 44l1.15-.34-.15.84-1.15.34c-1.32 6.7-1.3 6.89-1.3 7 0 .46.19.7 1 .47a5.29 5.29 0 001.83-1.7l1.42-7.43 2.75-.83-.21 1.06A5.43 5.43 0 0181 41.76c.86-.26 1.37.1 1.37.86a2.17 2.17 0 01-1.48 1.99zM71 14.51l.26-.42s.76.44.92.52c.65.32 1.19.54 1.19.54l-.2.5-.67-.27a8.91 8.91 0 00-.51.88l-1.09 2.16c-.52 1-.42 2 .51 2.47s1.82 0 2.33-1l1.21-2.41c.07-.14.21-.58.25-.7l-.59-.42.27-.41s.67.39.84.47c.64.32 1.08.49 1.08.49l-.21.5-.67-.27c-.08.12-.33.53-.51.87l-1.09 2.17A2.35 2.35 0 1170.08 18l1.21-2.42c.07-.13.21-.56.26-.69zm-5.59 2.65l-.14.41a5.22 5.22 0 00-.09.6 3.08 3.08 0 001 .61 1.07 1.07 0 001.5-.7c.46-1.42-2.52-2.26-1.9-4.12a1.72 1.72 0 012.4-1 8.32 8.32 0 011.65.85l-.55 1.27-.5-.22.13-.38A3.93 3.93 0 0069 14a2.43 2.43 0 00-1-.53 1 1 0 00-1.29.63c-.45 1.35 2.56 2.24 1.92 4.19-.38 1.15-1.49 1.4-2.63 1a4.09 4.09 0 01-1.74-1.08l.57-1.29zm-6 0h.74c0-.11.18-.51.21-.66l.64-3.86a5.89 5.89 0 000-.69l-.67-.25.14-.47.88.22c.48.08 1.25.15 1.67.23a1.79 1.79 0 011.7 2.32 2 2 0 01-2.56 1.46c-.26-.05-.55-.1-.79-.16l-.22 1.12a10 10 0 00-.12.95l.83.23-.17.51s-.61-.16-1.33-.3l-1.06-.16zm-1.78-5.59l-.69-.17.09-.48 1 .13c.73.06 1.25.06 1.25.06v.53h-.71a7.79 7.79 0 00-.14.95L58.11 16v1l.81.13-.1.53s-.6-.09-1.32-.15h-1.08v-.46l.72-.09a5.81 5.81 0 00.14-.68l.32-3.91a5.15 5.15 0 00-.04-.8zm-10.32-.14l.51-.06.19.17s.52 1.15.63 1.36l1.49 3.1.86-3.4c.07-.21.33-1.39.33-1.39l.16-.2h.24c.72-.08 1.39-.2 1.39-.2l.1.53-.72.14v.68l.8 3.84c0 .15.17.51.21.62h.74v.54s-.6 0-1.33.1l-1.07.17-.08-.43.69-.22c0-.14 0-.67-.06-.92l-.67-3.78-1.39 5.49h-.32l-2.57-5.06.21 3.84c0 .25.12.76.15.91h.73v.54a11.41 11.41 0 00-1.17.08l-1 .16-.1-.45.69-.22c0-.12.07-.5.08-.66l-.2-4c0-.15-.08-.54-.11-.67L46 12v-.5s1.06-.04 1.24-.07zM41.18 13l2-.56c.18-.05 1-.38 1-.38l.21.11.41 1.17-.5.19A3.68 3.68 0 0044 13a1 1 0 00-.26-.25c-.2 0-.48.09-.72.16l-1.14.33a9.45 9.45 0 00.22 1l.36 1.24.38-.09.63-.19A3.45 3.45 0 0044 15l-.09-.6.41-.07.2.74c.13.43.31.94.31.94l-.41.18-.24-.57s-.54.1-.72.15l-.46.14a2.82 2.82 0 00-.37.13l.37 1.47a9 9 0 00.34.94l1.25-.36a4.91 4.91 0 00.74-.3 1.53 1.53 0 00.09-.38v-.62l.49-.1.25 1.36-.12.2-1 .26-2.07.6-1 .34-.2-.45.65-.34a6.53 6.53 0 00-.11-.69l-1.09-3.76c0-.15-.22-.53-.27-.64l-.71.09-.09-.49S41 13 41.18 13zm-6 2.42c.44-.22 1.09-.59 1.48-.77a1.76 1.76 0 012.6.9 1.79 1.79 0 01-.5 2.13c.76.6 1.49 1.1 1.57 1.14s.45.27.67.4l.62-.21.16.51s-.66.25-1.33.55c0 0-.69-.61-.89-.76l-1.5-1.17h-.05l-.74.32.51 1.12a7.14 7.14 0 00.45.85l.77-.28.16.52s-.56.2-1.23.5c-.16.07-1 .48-1 .48l-.23-.39.59-.43a5 5 0 00-.21-.66l-1.6-3.58c-.06-.13-.29-.48-.36-.59l-.68.19-.16-.47zm-4.58 2.43c1.65-1.08 3.24-.49 4.33 1.17s1 3.34-.68 4.42-3.24.49-4.32-1.16-.93-3.35.67-4.43zm-5.29 4.24c.55-.48.91-.85.91-.85l.38.38-.5.52c.07.1.33.48.58.77l2.21 2.55c.24.28.59.62.7.72l.81-.71a4.58 4.58 0 00.54-.57 1.21 1.21 0 00-.07-.38 4.21 4.21 0 00-.3-.55l.41-.3.8 1.13v.24l-.81.65-1.45 1.25c-.14.12-.78.74-.78.74l-.33-.32.45-.58c-.07-.1-.29-.46-.39-.57l-2.56-3c-.1-.12-.42-.39-.51-.47l-.6.38-.29-.41s.66-.5.8-.62zm29.13-1.28a33.53 33.53 0 0124.86 11L21.2 49.34a33.64 33.64 0 0133.24-28.53zm-36.7 45.05c0-4.35 1.36-10.4 6.43-11.93 1.77-.54 3.32-.27 3.32 1.67a2.06 2.06 0 01-1.34 2.23 1 1 0 01-1.08-.19 2.83 2.83 0 00.83-1.88c0-.32-.09-1.39-1.31-1-2.35.71-3.85 6.23-3.85 9.77 0 2.61.45 3.59 2.51 3a6 6 0 003.2-2.35c.14-3.32 1.4-7.31 5-8.39a1.68 1.68 0 011.28.11l.11-.55 2.75-.83-1.39 7.14a4.13 4.13 0 00-.08.64c0 .44.19.7 1 .47a2.92 2.92 0 001.1-.85l1.55-8.1 2.7-.82-.21 1.06a5.43 5.43 0 012.25-1.68c.86-.26 1.37.11 1.37.86a2.17 2.17 0 01-1.43 2c-1.07.32-.53-1.15-1.1-1a2.46 2.46 0 00-1.32 1l-1.58 8.29-2.75.83.3-1.24A6 6 0 0133.72 66c-1.24.38-2.08.15-2.33-.81a5 5 0 01-2.59 2.41c-1.58.48-2.19-.35-2.33-1.34a8 8 0 01-4.55 3.42c-1.92.58-4.18.26-4.18-3.82zm6.46 19.81a7.91 7.91 0 01-1.56-1.23c-1.29-1.4-1-3 .5-4.38s3.12-1.55 4.42-.15a7.18 7.18 0 011 1.59l-1.05.85-.33-.42.31-.29a3.21 3.21 0 00.26-.39 3.89 3.89 0 00-.62-1c-.89-1-2.23-.59-3.39.47s-1.64 2.38-.76 3.34a4.76 4.76 0 001 .77 3.27 3.27 0 00.46-.25c.08 0 .33-.28.33-.28l.37.38zm2.74 2.75c-1.53-1.24-1.46-2.93-.21-4.47s2.89-2 4.42-.72 1.46 2.94.21 4.48-2.88 1.96-4.42.71zm10.26 6.29s-.5-.32-1.14-.67l-1-.47.18-.42.69.21c.07-.12.36-.56.48-.79L38 89.08l-4.24 3.72-.29-.15.77-5.65-2 3.27c-.12.23-.33.7-.4.83l.62.41-.31.44s-.38-.26-1-.6l-.9-.35.18-.42.69.21c.08-.09.35-.37.45-.49l2.09-3.39a6.67 6.67 0 00.29-.61l-.6-.45.27-.41s.92.55 1.09.62l.45.25.06.25S35 87.76 35 88l-.47 3.4 2.65-2.3c.18-.14 1.07-1 1.07-1l.24-.07.21.11c.64.35 1.26.63 1.26.63l-.22.49L39 89c-.07.09-.27.45-.35.59l-1.61 3.64c0 .14-.15.52-.18.63l.62.41zm4.36-1.4l-.77-.31-.36 1.08c-.12.36-.22.8-.25.93l.79.33-.23.49s-.59-.24-1.28-.48l-1-.29.1-.45.73.09c.05-.11.25-.48.3-.63l1.25-3.71c0-.15.12-.57.14-.69l-.63-.32.2-.45.84.33c.47.14 1.22.31 1.62.45a1.8 1.8 0 011.31 2.48 2 2 0 01-2.76 1.15zm7.22 4.44l-.9-.18-1.29-.2v-.45h.69v-1l-.08-.57-2-.39-.47.88-.2.54.6.22-.13.4-.76-.15c-.33-.07-1.21-.2-1.21-.2v-.44h.59l.56-.81 2.56-4.54h.53l.83 5.41.2.82.54.2zm12.54-6.14a6.07 6.07 0 00-.46 1l-1 2.61.12 1a6 6 0 00.18.94h.82v.54s-.6 0-1.32.11l-1.06.18-.1-.44.69-.24a5.29 5.29 0 000-.69l-.13-1.08-1.7-2.64a5.75 5.75 0 00-.59-.7h-.59l-.53.09a5.63 5.63 0 00-.18 1l-.07 2.1c0 .36-.12 2.76-.12 2.76h-.54l-3.39-5.25-.13 3.54v1l.73.09-.05.47s-.39 0-1.12-.08h-1v-.46l.73-.12a6.14 6.14 0 00.1-.68l.15-3.92c0-.14 0-.55-.06-.69l-.7-.13.06-.48 1 .08h.4l.18.19s.7 1.24.83 1.44l2.25 3.42.15-3.57a6.61 6.61 0 000-.76l-.71-.08.07-.54h2.12l.83-.1 1.32-.21.09.44-.69.27a4.33 4.33 0 00.5.92l1.13 1.59.77-2.24c.08-.23.19-.6.19-.6h-.7v-.49l.82-.1c.31 0 1.28-.21 1.28-.21l.09.44zm9.25 3.45l-5.06-3.67 1.16 3.35a8.13 8.13 0 00.37.89l.72-.18.11.52s-.38.09-1.07.33l-.91.36-.19-.42.63-.37c0-.12-.1-.53-.15-.68l-1.28-3.7c-.05-.14-.24-.5-.31-.63l-.72.14-.12-.48 1-.3.38-.14.23.12s1.1.9 1.3 1L70 93.62l-1.17-3.4a7.06 7.06 0 00-.33-.68l-.7.18-.12-.53.72-.19c.68-.24 1.32-.51 1.32-.51l.2.44-.63.38a5.51 5.51 0 00.21 1l.69 2c.12.34.89 2.61.89 2.61zm6.34-3.21c-.25.13-1.12.66-1.12.66l-.25-.38.5-.47-.68-.75-.43-.39-1.76 1 .2 1 .19.54.6-.22.2.46-.69.37c-.3.16-1.06.62-1.06.62l-.24-.37.43-.41-.09-1-.92-5.13.42-.33 4.09 3.63.68.52.54-.19.2.45zm6.79-5c-.14.11-.82.71-.82.71l-.32-.33.46-.55c-.07-.12-.37-.55-.53-.75l-2.59-2.84 1.76 5.39-.26.2-4.86-2.9 2.22 3.13c.16.2.51.58.61.69l.61-.41.29.46s-.39.25-.94.69c-.14.11-.73.65-.73.65l-.32-.33.46-.56c0-.1-.21-.46-.28-.6l-2.3-3.24c-.1-.12-.36-.43-.45-.51l-.65.38-.28-.41s.87-.64 1-.76l.39-.32h.26s1 .7 1.25.82l3 1.75-1.09-3.34c-.06-.21-.47-1.35-.47-1.35v-.25l.18-.15c.57-.46 1.08-.92 1.08-.92l.36.4-.53.5c.06.1.31.43.41.55l2.72 2.91.51.41.62-.41.29.45s-.5.38-1.06.84zm4-4.2l-1.43 1.61c-.12.13-.68.83-.68.83l-.37-.27.37-.63c-.08-.09-.35-.42-.46-.52l-2.93-2.61a5.81 5.81 0 00-.57-.39l-.55.45-.33-.36.73-.76 1.36-1.52c.12-.14.62-.84.62-.84h.24l1 .78-.32.42a3.7 3.7 0 00-.43-.25.84.84 0 00-.35-.07c-.15.14-.35.33-.52.52l-.8.89c.13.14.45.48.72.72l1 .86.27-.29.44-.49a4.53 4.53 0 00.31-.46l-.4-.46.31-.28.57.51c.34.3.76.64.76.64l-.25.36-.51-.34s-.41.37-.53.5l-.32.36-.24.31 1.14 1c.28.24.65.51.79.62l.87-1a4.53 4.53 0 00.47-.65 1.32 1.32 0 00-.13-.36c-.08-.11-.26-.4-.36-.51l.37-.34.93 1v.24s-.69.64-.81.78zm1.4-31.79c-.57 3-2.21 4-3.47 4.43s-2.25-.17-2.25-1.47c0-1.85 1.49-2.88 3.3-4l.32-1.45a7.11 7.11 0 01-2.6 2.32c-1.49.45-2.36 0-2.36-1.45a5.21 5.21 0 01.11-1.05L83.46 41l2.8-.85-1.39 7.2a2.71 2.71 0 00-.1.66c0 .44.21.68 1 .45a4 4 0 001.45-1.23l1.48-7.81 2.77-.83z"/><path class="cls-1" d="M63.88 13.8a1.39 1.39 0 00-1.25-1.75 4.52 4.52 0 00-.57-.06c-.07.22-.21.76-.27 1.07l-.33 1.73.61.15a1.38 1.38 0 001.81-1.14zm20.55 39.43a.55.55 0 00.76.42c.38-.11.9-.65 1.13-1.89l.23-1.25c-1.21.79-2.12 1.64-2.12 2.72zM46.08 60.4a1.69 1.69 0 001.24 0c1-.29 1.41-1.29 2-4.64a12.47 12.47 0 00.25-2.09c0-1.2-.46-1.3-1.07-1.11a2.69 2.69 0 00-1.08.74zm12.1-9.77c0-.41-.1-1.08-.67-.91-1.07.32-1.94 2.84-2.34 4.83a4.63 4.63 0 003.01-3.92zM42.48 90c-.12 0-.33-.09-.56-.14-.1.21-.31.73-.42 1l-.56 1.66.59.24a1.48 1.48 0 10.95-2.76zm-11.63-6.39c-1.06-.86-2.37-.28-3.37 1s-1.29 2.63-.23 3.48 2.36.27 3.35-1 1.3-2.63.25-3.48zm-.74-18.06a2.81 2.81 0 001.23-1.37 4.06 4.06 0 01.11-.69l1.07-5.6a1.16 1.16 0 00-.94-.08c-1.43.43-2.57 3.95-2.57 6.66-.01 1.19.63 1.22 1.1 1.08zm15.38 28.94l1.63.29-.36-2.59-1.27 2.3zM37.08 18c.21-.08.43-.15.57-.22a1.43 1.43 0 10-1.16-2.61l-.48.28a7.5 7.5 0 00.39 1zM73.1 90.99l1.44-.82-1.92-1.76.48 2.58zM34 23c1.14-.74 1-2.16.12-3.49s-2.11-2-3.25-1.3-1 2.17-.11 3.5S32.86 23.78 34 23z"/></g></g></svg>