<svg xmlns="http://www.w3.org/2000/svg" viewBox="0 0 109.85 109.73"><defs><style>.cls-1{fill:#404040}</style></defs><g id="Слой_2" data-name="Слой 2"><g id="Layer_1" data-name="Layer 1"><path class="cls-1" d="M21 53.37l.52-.38s.49-4.67 2-5.87a3.65 3.65 0 015.39 1.39 21.86 21.86 0 01.8 3.78 6.25 6.25 0 011-1.64l.37-.39a7.84 7.84 0 014.26-2.17l.21-.05a9.19 9.19 0 01-2.15-1.25c-2-1.7-3.77-4.31-7.57-4.31-2.08 0-4.08.32-5.31 2.81s-1.21 7.93-1.21 7.93l.19.14.76.57zm48.44 6.68l-10.59-.74-1.49.34-6.56-.45c-2.63-.24-5.14-.6-7.51-2.3a5.43 5.43 0 01-1.54-1.9 10.49 10.49 0 01-2 3.21 4.88 4.88 0 01-.53.48 11.83 11.83 0 01-1.63 1.11 2.87 2.87 0 01.38.49c1.24 2.11.71 3.19 2.43 3.36.67.07 7.93.56 16.61 1.14l1.43.56 5.1.35c10.69.71 21.76 1.45 24.38 1.65h.38a2.8 2.8 0 003.09-2.63 3.22 3.22 0 00-3-3.32c-1.21-.1-10.23-.73-18.95-1.35z"/><path class="cls-1" d="M88.26 40.51h-.38c-2.62.19-13.69.93-24.38 1.65l-5.1.34-1.4.59c-8.68.58-15.94 1.07-16.61 1.14-1.72.16-1.19 1.25-2.43 3.36s-3.81.53-6.6 3.67c-1.9 2.14-1.73 6.37-2.49 8.09a3.65 3.65 0 01-5.39 1.39c-1.47-1.2-2-5.88-2-5.88l-1.29-.93-.95.7s0 5.47 1.21 7.93 3.23 2.82 5.31 2.82c3.8 0 5.54-2.62 7.57-4.31 1.53-1.27 3.09-1.35 5.28-3.11 2.43-2 2.55-5.48 4.67-7 2.37-1.7 4.88-2.07 7.51-2.3l6.56-.48 1.49.35 10.59-.75c8.72-.61 17.74-1.24 18.87-1.34a3.22 3.22 0 003-3.32 2.8 2.8 0 00-3.04-2.61zm-50 13.42a2.83 2.83 0 11-2.83-2.83 2.83 2.83 0 012.81 2.83z"/><circle class="cls-1" cx="35.41" cy="53.93" r="2.17" transform="rotate(-45 35.418 53.93)"/><path class="cls-1" d="M54.92 0l1 1.54a4.81 4.81 0 003.58 2.13 4.82 4.82 0 003.9-1.45L64.74.88l.74 1.71a4.85 4.85 0 003.15 2.73 4.87 4.87 0 004.1-.73l1.51-1.08.43 1.81a4.84 4.84 0 006.77 3.26l1.68-.8.1 1.86a4.83 4.83 0 006.08 4.42l1.79-.48-.23 1.84a4.82 4.82 0 005.19 5.43l1.86-.15-.57 1.77a4.85 4.85 0 004.14 6.28l1.86.18-.87 1.64a4.82 4.82 0 00-.18 4.16 4.87 4.87 0 003.13 2.75l1.79.51-1.15 1.46a4.84 4.84 0 001.67 7.33l1.67.82-1.4 1.23a4.84 4.84 0 00.34 7.51l1.5 1.1-1.59 1a4.82 4.82 0 00-1 7.45l1.27 1.35-1.73.67a4.81 4.81 0 00-2.87 3 4.86 4.86 0 00.54 4.13l1 1.56-1.83.34a4.83 4.83 0 00-3.56 6.62l.72 1.72H99a4.83 4.83 0 00-4.69 5.88l.4 1.81-1.83-.32a4.83 4.83 0 00-5.66 4.95l.07 1.86-1.75-.64a4.79 4.79 0 00-4.14.38 4.85 4.85 0 00-2.4 3.47l-.26 1.84-1.61-.94a4.82 4.82 0 00-7 2.64l-.58 1.79-1.41-1.21a4.85 4.85 0 00-7.4 1.34l-.89 1.63-1.17-1.44a4.84 4.84 0 00-7.52 0L50 109.73l-.89-1.63a4.84 4.84 0 00-7.39-1.34L40.3 108l-.59-1.76a4.84 4.84 0 00-7-2.64l-1.6.94-.26-1.84a4.88 4.88 0 00-2.35-3.5 4.81 4.81 0 00-4.15-.38l-1.74.64.07-1.86A4.83 4.83 0 0017 92.65l-1.82.35.41-1.82a4.84 4.84 0 00-4.69-5.87H9l.72-1.72a4.83 4.83 0 00-3.52-6.66l-1.83-.34 1-1.56a4.83 4.83 0 00-2.32-7.15l-1.74-.67 1.29-1.35a4.83 4.83 0 001.27-4 4.82 4.82 0 00-2.28-3.48L0 57.44l1.5-1.1a4.87 4.87 0 002-3.67 4.84 4.84 0 00-1.63-3.84L.44 47.6l1.67-.82a4.84 4.84 0 002.59-3.27 4.82 4.82 0 00-.92-4.06L2.64 38l1.78-.51a4.83 4.83 0 003-6.91l-.87-1.64 1.85-.18a4.83 4.83 0 004.14-6.28l-.56-1.77 1.85.15A4.83 4.83 0 0019 15.42l-.24-1.84 1.8.48a4.84 4.84 0 006.08-4.42l.09-1.86 1.69.8a4.84 4.84 0 006.77-3.26l.42-1.81 1.52 1.08a4.85 4.85 0 004.1.73 4.83 4.83 0 003.14-2.73l.74-1.71 1.29 1.34a4.83 4.83 0 003.9 1.45 4.83 4.83 0 003.59-2.13zm0 6.84a48 48 0 1048 48 48 48 0 00-48-48z"/><path class="cls-1" d="M98.69 54.87A43.77 43.77 0 1154.92 11.1a43.77 43.77 0 0143.77 43.77zm-1.81 0a42 42 0 10-42 41.95 42 42 0 0042-41.95z"/><path class="cls-1" d="M29.51 83.8l-1 .8-2.95-2.95 4.89-4.91 1.16 1.16-4 4zm6.85 2.38C35 88 33.29 88.46 31.69 87.31s-1.75-2.89-.41-4.77 3.07-2.26 4.65-1.13 1.77 2.9.43 4.77zm-3.68-2.64c-1 1.43-1 2.28-.29 2.8s1.54.27 2.57-1.16 1-2.25.27-2.79-1.53-.27-2.55 1.15zm5.7 4.53l-1.13 2.4-1.48-.7 3-6.26 2.05 1c1.7.8 2.29 1.82 1.67 3.12a1.91 1.91 0 01-2 1.12l.33 3.42-1.67-.79-.15-3zm1.11-.72a.93.93 0 001.43-.47c.29-.61.06-1-.67-1.38l-.53-.25-.86 1.8zm5.6.05l-.46 1.6 2 .6-.32 1.1-2-.59-.49 1.69 2.5.73-.32 1.13-4.08-1.19 1.94-6.65L47.93 87l-.49 1.08zm7.75 7.19l.16-2.71a26.28 26.28 0 01.27-2.81l-1.55 4.67-1.54-.15-.65-4.9a23.59 23.59 0 01-.26 2.84l-.39 2.66-1.6-.19 1.22-6.84 2 .21.57 4.78 1.43-4.58 2.07.21-.18 7zm5.76-.15l-.77-6.89 1.63-.18.77 6.88zm3.93-7.65c1.74-.42 3 0 3.33 1.52s-.55 2.56-2.11 2.93l-.73.18.54 2.24L62 94l-1.62-6.73zm.81 3.34a1 1 0 00.88-1.43c-.17-.72-.65-1-1.44-.77l-.56.13.53 2.21zm6.74-5.26L69.71 86a2.23 2.23 0 00-1.61 0c-.53.22-.77.58-.6 1s.48.48 1.61.37c1.37-.12 2.27.09 2.76 1.27s-.09 2.41-1.69 3.08a3.65 3.65 0 01-2.8.1l.42-1.17a2.52 2.52 0 001.87 0c.62-.27.89-.72.68-1.21s-.52-.58-1.57-.48c-1.62.16-2.39-.21-2.79-1.16-.47-1.13.21-2.26 1.53-2.81a3.24 3.24 0 012.56-.12zm7.16.13a2.41 2.41 0 01-1 3.54c-1.53 1-2.82.59-3.6-.64L70.19 84l1.39-.87L74 87c.47.75 1 1 1.6.55s.67-.94.2-1.69L73.37 82l1.39-.87zm6.53-2.74l-2-1.88a24.78 24.78 0 01-2-2l2.54 4.22-1.12 1.07-4.14-2.7a25.39 25.39 0 012 2l1.76 2-1.15 1.11-4.41-5.38 1.5-1.42 4 2.68-2.54-4.07 1.5-1.43 5.16 4.65zM25.72 34.11l2.15 1.62-.87 1.19-5-3.78.9-1.2 1.95 1.47 1.13-1.51L24 30.43l.89-1.19 5 3.79-.89 1.19-2.15-1.62zm4.78-1.62L26 28.13l1-1.08 4.54 4.36zm1.68-9.16l-.08 1.11a1.83 1.83 0 00-1.29.42c-.68.56-.77 1.48.22 2.69s1.75 1.44 2.42.88a1.75 1.75 0 00.53-.71l-.91-1.1-.63.52-.78-.72 1.86-1.53 2 2.41a4.35 4.35 0 01-1.34 2c-1.47 1.2-2.95.93-4.32-.74a3 3 0 01.22-4.46 3 3 0 012.1-.77zm3.98 1.01l1.35 2.33-1.28.75L33.06 22l1.29-.74 1.23 2.1 1.63-.95L36 20.28l1.29-.75L40.44 25l-1.29.75-1.36-2.33zm4.42-5.05l.55 1.41 1.8-.71.38 1-1.8.71.59 1.49 2.21-.86.39 1-3.59 1.42-2.31-5.9 3.59-1.42.25 1.05zm7.35-2.62l-.49.95a2.1 2.1 0 00-1.44-.19c-.5.12-.77.41-.68.8s.36.49 1.39.56c1.25.09 2 .41 2.3 1.54s-.43 2.16-2 2.52a3.31 3.31 0 01-2.54-.31l.55-1a2.33 2.33 0 001.68.24c.6-.15.91-.52.79-1s-.38-.6-1.34-.65c-1.47-.1-2.12-.54-2.34-1.45-.26-1.08.51-2 1.79-2.3a2.94 2.94 0 012.33.29zm3.89.04l.51 5.13-1.49.16-.51-5.13-1.62.13-.11-1.14 4.8-.48v1.16zm10.02 5.77l-1 1.06a3 3 0 00-2.27-1.47c-1.67-.18-2.6-1.48-2.37-3.56s1.43-3.16 3.19-3 2.69 1.51 2.46 3.6a2.86 2.86 0 01-1.78 2.56 2.92 2.92 0 011.77.81zM58.76 21c.85.09 1.34-.48 1.52-2.07s-.19-2.24-1-2.33-1.34.47-1.51 2.05.17 2.29.99 2.35zm8.24.7a2.18 2.18 0 01-3 1.48 2.15 2.15 0 01-1.74-2.83l1.16-4 1.43.41-1.14 4c-.22.77 0 1.23.59 1.41s1-.1 1.27-.88l1.14-4 1.43.41zm1.54 1.48l-.85 1.09-1.4-.65 4.36-4.91 1.64.76-.92 6.53-1.43-.67.27-1.33zM71 20.06l-1.77 2.24 1.2.56zm4.33 7.15l-.77.91-3.19-2.06 3.42-5.29 1.25.81-2.78 4.3zM75 28.5l3.92-4.93 1.17.93-3.92 4.93zm7.3-.39l-3.62 3.67-1.06-1 3.61-3.68-1.16-1.14.8-.82 3.44 3.38-.91.72zm-.59 7.26l-.91-1.19 1.87-1.43 1.91-4 1 1.3-1.5 2.6 2.92-.76 1 1.25-4.35.79zM70.68 49.43h.65v7.81h-.92v-6.58a1 1 0 01-.42.28 1.56 1.56 0 01-.55.1v-.64a1.57 1.57 0 00.72-.3 1.65 1.65 0 00.52-.67zm1.87 1.97a2.91 2.91 0 01.32-1.55 1.77 1.77 0 012.49 0 2.81 2.81 0 01.34 1.55v3.73a3.27 3.27 0 01-.33 1.64 1.3 1.3 0 01-1.25.56 1.31 1.31 0 01-1.25-.55 3.33 3.33 0 01-.32-1.65zm2.23 0c0-.76-.16-1.16-.48-1.22h-.22a.86.86 0 00-.27.05.53.53 0 00-.24.32 2.47 2.47 0 00-.11.86v3.84c0 .7.09 1.12.26 1.26a.52.52 0 00.32.11h.27a.38.38 0 00.18-.09c.2-.15.29-.57.29-1.26v-3.92zm1.83 0a2.91 2.91 0 01.32-1.55 1.77 1.77 0 012.49 0 2.81 2.81 0 01.34 1.55v3.73a3.4 3.4 0 01-.32 1.64 1.7 1.7 0 01-2.51 0 3.33 3.33 0 01-.32-1.65zm2.23 0c0-.76-.16-1.16-.48-1.22h-.22a.86.86 0 00-.27.05.53.53 0 00-.24.32 2.47 2.47 0 00-.11.86v3.84c0 .7.09 1.12.26 1.26a.52.52 0 00.32.11h.27a.38.38 0 00.18-.09c.2-.15.29-.57.29-1.26v-3.92zm2.07-.21a2.54 2.54 0 01.3-1.45 1.61 1.61 0 012.15 0 2.45 2.45 0 01.31 1.45v1.57a2.65 2.65 0 01-.31 1.48 1.57 1.57 0 01-2.14 0 2.56 2.56 0 01-.31-1.48zm1.93-.31a1.28 1.28 0 00-.12-.66.48.48 0 00-.43-.17.47.47 0 00-.44.18 1.24 1.24 0 00-.12.65v2.2a1.37 1.37 0 00.12.68.49.49 0 00.44.19.48.48 0 00.43-.19 1.37 1.37 0 00.12-.68zm3.41-1.45H87l-3.1 7.81h-.8zm.18 4.42a2.51 2.51 0 01.31-1.44 1.61 1.61 0 012.15 0 2.53 2.53 0 01.3 1.44v1.58a2.58 2.58 0 01-.31 1.48 1.57 1.57 0 01-2.14 0 2.67 2.67 0 01-.31-1.48zm1.94-.3a1.28 1.28 0 00-.12-.66.47.47 0 00-.44-.18.49.49 0 00-.44.18 1.42 1.42 0 00-.11.66v2.2a1.39 1.39 0 00.12.68.47.47 0 00.43.18.49.49 0 00.44-.18 1.39 1.39 0 00.12-.68zM53.61 32.47H57v46.71h-3.39zm3.39 0h-3.39l-4.89-1.94h13.16L57 32.47z"/><path class="cls-1" d="M48.72 28.59h13.16v1.94H48.72zm6.58 55.03l-1.69-4.44H57l-1.7 4.44z"/></g></g></svg>