<svg xmlns="http://www.w3.org/2000/svg" viewBox="0 0 111.49 111.39"><defs><style>.cls-1{fill:#404040}</style></defs><g id="Слой_2" data-name="Слой 2"><g id="Layer_1" data-name="Layer 1"><path class="cls-1" d="M33.23 37.06h45.04v7.16H33.23zm45.03-.84H36.54a14 14 0 0112.23-7.16H75a3.25 3.25 0 013.24 3.25z"/><path class="cls-1" d="M48.77 28.43H50a1.21 1.21 0 00-.61-.56c-1.67-.75-4.92-1.37-5.49-4.14-.67-3.28 2.58-5.4 2.86-6.36a1.4 1.4 0 00-1.41-1.91c-7.12 1.4-12.08 12.38-12.08 20.76h2.58l.18-.31a14.68 14.68 0 0112.74-7.48zm11.44-.18L71.6 16.29l-.55-.5-12.06 12.64h1.05l.17-.18zm3.05.18l5.53-5.85-1.57-1.24-6.59 6.91-.16.18h2.79z"/><path class="cls-1" d="M51.36 2.34a5.28 5.28 0 018.77 0l.38.56.49-.49A5.28 5.28 0 0169.6 4l.28.62.55-.39a5.27 5.27 0 018.2 3.08l.16.66.61-.29a5.28 5.28 0 017.53 4.49v.68l.66-.17a5.27 5.27 0 016.6 5.76l-.09.68.68-.06a5.28 5.28 0 015.47 6.85l-.21.65.68.07a5.27 5.27 0 014.15 7.71l-.32.6.66.19a5.28 5.28 0 012.7 8.34l-.42.53.61.3a5.27 5.27 0 011.21 8.7l-.51.45.55.41a5.27 5.27 0 01-.39 8.75l-.58.36.46.49a5.28 5.28 0 01-2 8.55l-.63.24.37.57a5.28 5.28 0 01-3.45 8.06l-.67.12.27.63A5.29 5.29 0 0198 88.91h-.68l.15.66a5.28 5.28 0 01-6.06 6.34l-.67-.12v.68a5.27 5.27 0 01-7.09 5.15l-.63-.23-.1.67a5.27 5.27 0 01-7.9 3.8l-.58-.34-.22.65a5.24 5.24 0 01-3.6 3.41 5.3 5.3 0 01-4.85-1.08l-.51-.45-.33.6a5.27 5.27 0 01-8.73.78l-.42-.52-.43.52a5.27 5.27 0 01-8.73-.78l-.33-.6-.51.45a5.29 5.29 0 01-8.45-2.33l-.21-.65-.59.34a5.28 5.28 0 01-7.9-3.8l-.09-.67-.64.23a5.27 5.27 0 01-7.09-5.15v-.68l-.67.12a5.28 5.28 0 01-6-6.34l.14-.66h-.68a5.28 5.28 0 01-4.82-7.32L9 81l-.67-.12a5.27 5.27 0 01-3.44-8.06l.37-.57L4.6 72a5.29 5.29 0 01-1.95-8.55l.47-.49-.58-.36a5.28 5.28 0 01-.4-8.75l.55-.41-.51-.44a5.27 5.27 0 011.18-8.68L4 44l-.42-.53a5.28 5.28 0 012.71-8.34l.65-.19-.32-.6a5.27 5.27 0 014.16-7.71l.67-.07-.2-.65A5.27 5.27 0 0116.68 19l.68.06-.09-.68a5.28 5.28 0 016.6-5.76l.66.17v-.68a5.27 5.27 0 017.52-4.49l.65.38.16-.66a5.28 5.28 0 018.21-3.08l.55.39.27-.65a5.28 5.28 0 018.62-1.57l.49.47zm4.39 3.8A49.56 49.56 0 10105.3 55.7 49.56 49.56 0 0055.75 6.14z"/><path class="cls-1" d="M55.75 8.11a47.59 47.59 0 1047.58 47.59A47.59 47.59 0 0055.75 8.11zm0 93.26a45.67 45.67 0 1145.67-45.67 45.67 45.67 0 01-45.67 45.67z"/><path class="cls-1" d="M34.49 87.5l-.63.64-2.59-1.93 3.38-4.53.86.64-2.84 3.83zm5.8 1.1c-.91 1.63-2.28 2.11-3.6 1.38S35 87.85 36 86.2s2.28-2.11 3.6-1.37 1.61 2.17.69 3.77zM37 86.75c-.74 1.33-.58 2.1.14 2.51s1.46.12 2.2-1.21.61-2.09-.13-2.5-1.52-.12-2.21 1.2zm5.06 3.15l-.8 2.1-1-.38 2-5.29 1.58.59c1.39.53 1.91 1.3 1.52 2.35a1.54 1.54 0 01-1.62 1l.52 2.83-1.16-.44-.38-2.57zm.9-.49c.63.24 1.08.12 1.32-.52s0-.94-.76-1.22l-.54-.2-.64 1.7zm4.51-.48l-.36 1.54 1.77.42-.19.78-1.76-.42-.38 1.62 2.17.51-.19.79-3.22-.76 1.29-5.5 3.2.75-.3.75zm6.76 5.87l.05-2.37c0-.83 0-1.71.12-2.3l-1.36 4L52 94l-.76-4.14c0 .76-.11 1.54-.22 2.34l-.33 2.31-1.05-.09.92-5.59 1.38.11.68 4 1.27-3.87 1.4.12v5.67zm4.77-.14L58.45 89l1.08-.1.54 5.63zm3.2-6.15c1.4-.27 2.36.13 2.6 1.32s-.56 2-1.81 2.28l-.65.13.38 1.93-1.06.21-1.09-5.54zm.55 2.82c.71-.14 1.1-.47.94-1.28s-.62-.9-1.34-.76l-.57.12.4 2zm5.6-3.98l-.33.77a1.79 1.79 0 00-1.34-.07c-.48.16-.75.5-.61.91s.39.49 1.38.47 1.82.15 2.16 1.16-.2 1.89-1.48 2.32a2.83 2.83 0 01-2.13-.08l.34-.79a2 2 0 001.55.09c.57-.19.89-.61.72-1.13s-.45-.57-1.37-.55c-1.24 0-1.88-.25-2.16-1.07a1.69 1.69 0 011.33-2.09 2.52 2.52 0 011.94.06zm5.86.77a1.9 1.9 0 01-1 2.7 1.87 1.87 0 01-2.77-.82l-1.69-3.41 1-.48 1.67 3.36c.36.71.82.92 1.44.61s.74-.81.39-1.52l-1.71-3.36 1-.49zM80 86.43l-1.5-1.83c-.52-.65-1.07-1.33-1.4-1.83l1.53 3.9-.83.59-3.3-2.65a20.31 20.31 0 011.34 1.92l1.25 2-.85.61-2.94-4.88 1.13-.81 3.13 2.63L76 82.31l1.14-.82 3.66 4.33zM92.62 55.7l5 7.95H13.91l5-7.95-5-8h83.67zm-62.83 1.93h-.81v.51a4.11 4.11 0 01-.17.53 5.81 5.81 0 01-1.35.17c-1.35 0-1.85-1.33-1.85-3s.52-3 1.86-3a5.28 5.28 0 011.22.15 2.52 2.52 0 01.13.45v.66h.84l.13-2a9.19 9.19 0 00-2.35-.37c-2.53 0-3.82 1.64-3.82 4s1.29 4 3.82 4a9.79 9.79 0 002.45-.37zM37.55 59l-.61-.1-.25-.59-2.18-6.41-1.23.1-2.06 6-.46.94-.49.08.06.79s.59-.05 1.51-.05c.52 0 1.16.05 1.16.05v-.76l-.63-.13.07-.42.18-.7h2.06l.16.55v.57l-.64.1.05.79s.93-.05 2.23-.05c.38 0 .91.05.91.05zm-3.8-4.72l.7 2.56h-1.48zm7.71-2.37c-.59 0-1.62.11-2.24.11S38.09 52 38.09 52l-.05.82.71.13a10.81 10.81 0 01.09 1.21v3.81c0 .22-.08.83-.09.94L38 59v.76s.58-.05 1.09-.05c1.23 0 2.12.05 2.12.05l.05-.83-.71-.06a10.6 10.6 0 01-.09-1.27v-1a3.08 3.08 0 00.48 0h.16l.9 1.75c.15.26.54 1.27.54 1.27 1.23 0 2.08.05 2.08.05l.06-.83h-.53l-.38-.61c-.05-.09-.65-1-1.17-2a2.32 2.32 0 001.4-2.01 2.28 2.28 0 00-2.54-2.3zm-.63.89a1.25 1.25 0 011.43 1.43c0 1-.43 1.54-1.46 1.54h-.26v-2c0-.16 0-.66.06-1zm7.9-.89c-.6 0-1.76.11-2.35.11S45.3 52 45.3 52v.82l.7.13a7.86 7.86 0 01.1 1.21v3.81a9.39 9.39 0 01-.1.94l-.72.13.06.76s.58-.05 1.09-.05c1.23 0 2.23.05 2.23.05v-.83l-.82-.06a10 10 0 01-.1-1.27v-.85h.6c1.55 0 3-.9 3-2.45a2.31 2.31 0 00-2.61-2.42zm-1 1.89v-1h.3c1 0 1.45.46 1.45 1.49a1.46 1.46 0 01-1.61 1.57h-.19zm4.22-1l.71.13a5.57 5.57 0 01.1 1.21v3.81a7.14 7.14 0 01-.1.94L52 59l.06.76s.57 0 1.1-.05h4.32l.21-.19.16-1.92-.85-.01c0 .17-.09.46-.13.62a2.77 2.77 0 01-.21.47 4 4 0 01-.84.09h-1.33v-2.49h.68c.22 0 .7.07.7.07l.09.65.7-.07v-2.29l-.68-.05-.09.7a1.7 1.7 0 01-.48.1h-.9v-2.47h2.06a1.27 1.27 0 01.11.27c0 .16.07.47.09.64h.79l-.08-1.71-.2-.19S56.25 52 56 52h-4zm14.71-.8s-.93.06-1.81.06l-1.1-.06v.82l.71.13c0 .18.1.81.1 1.21v3.08l-2.4-3.35c-.17-.24-1-1.62-1-1.62l-.22-.27h-1.11c-.52 0-1.09-.06-1.09-.06l-.06.82.71.13a8.43 8.43 0 01.1 1.21v3.81c0 .22-.08.82-.1.94l-.72.13v.76s.58-.05 1.1-.05c1.23 0 1.81.05 1.81.05v-.83l-.58-.03a11.36 11.36 0 01-.1-1.27v-2.8l3.55 4.91h1.47v-5.91a8.89 8.89 0 01.1-.89l.72-.06zm7 2l-.09-1.81-.21-.19s-1 .11-1.24.11h-3.56c-.22 0-1.24-.11-1.24-.11l-.21.19-.11 1.73.79.06a4.82 4.82 0 01.1-.75A1.27 1.27 0 0168 53a6.58 6.58 0 01.87-.06h.51a9.82 9.82 0 01.1 1.21v3.81c0 .22-.09.83-.1.94l-.72.13.06.76s.57-.05 1.09-.05c1.23 0 2.11.05 2.11.05l.06-.83-.71-.06a10 10 0 01-.1-1.27v-3.8a7.8 7.8 0 01.1-.89h.56a5.65 5.65 0 01.82.06 1.27 1.27 0 01.1.25 4.82 4.82 0 01.1.75zm4-2c-.59 0-1.63.11-2.25.11s-1.1-.11-1.1-.11l-.06.82.71.13a10.22 10.22 0 01.1 1.21v3.81c0 .22-.09.83-.1.94l-.72.13.06.76s.58-.05 1.09-.05c1.23 0 2.11.05 2.11.05l.06-.83-.71-.06a10 10 0 01-.1-1.27v-1a3.18 3.18 0 00.48 0h.17l.9 1.75c.14.26.54 1.27.54 1.27 1.23 0 2.08.05 2.08.05v-.83h-.52l-.38-.61a19.61 19.61 0 01-1.17-2 2.31 2.31 0 001.33-2.07 2.27 2.27 0 00-2.5-2.28zm-.63.89a1.25 1.25 0 011.43 1.43c0 1-.43 1.54-1.47 1.54h-.26v-2c0-.16 0-.66.07-1zm11.11 0v-.8s-.7.06-1.61.06C86 52 85.3 52 85.3 52v.77l.48.13a1.43 1.43 0 010 .41l-1.2 2.41-1.14-2.26a2.69 2.69 0 01-.19-.56l.58-.1V52s-1 .06-2.27.06c-.41 0-1-.06-1-.06l-.05.77.65.09a3.13 3.13 0 01.53.59L83.47 57v.94c0 .22-.09.83-.1.94l-.72.13.06.76s.57-.05 1.09-.05c1.23 0 2.11.05 2.11.05l.06-.83-.71-.06a10 10 0 01-.1-1.27V57l1.67-3.21a8.2 8.2 0 01.68-.94zM30.19 73.93a2.29 2.29 0 00-.06.4c0 .28.14.47.64.47s1.17-.71 1.68-1.12h.43c-.59.59-2 2.28-3 2.28s-1.57-.43-1.57-1.38a3.07 3.07 0 01.07-.65l.49-2.29a2 2 0 000-.33c0-.46-.24-.76-.58-.76a1.26 1.26 0 00-.79.27L26.41 76h-1.83l1.85-8.65 1.88-.26-.69 3.22a3.19 3.19 0 011.66-.67 1.63 1.63 0 011.46 1.59 1.67 1.67 0 010 .31z"/><path class="cls-1" d="M34.34 69.6l-.92 4.33a3.21 3.21 0 00-.05.39c0 .28.13.48.64.48s1.17-.71 1.68-1.12h.43c-.58.59-2 2.28-3 2.28s-1.59-.43-1.59-1.38a3.14 3.14 0 01.07-.65l.92-4.33zm-.58-2.7a1 1 0 11-1 1 1 1 0 011-1z"/><path class="cls-1" d="M40.92 69.6l-1.2 5.64a4 4 0 002-1.95v1c-.16.82-1.05 1.29-2.06 1.66l-.22 1c-.38 1.82-1.45 2.16-2.29 2.16a1.25 1.25 0 01-1.42-1.23c0-1 .93-1.46 2.07-1.88l.13-.58a2.16 2.16 0 01-1.46.61 1.59 1.59 0 01-1.58-1.78c0-1.75.67-4.67 3.14-4.67a1.14 1.14 0 011 .6l.14-.61zm-4.15 8.55c.26 0 .59-.38.74-1.13l.08-.38c-.73.28-1.25.6-1.25 1.09a.43.43 0 00.43.42zM36.36 74c0 .61.37.8.93.8a1.21 1.21 0 00.77-.44l.75-3.53a.92.92 0 00-.73-.54c-1.23.04-1.72 2.71-1.72 3.71z"/><path class="cls-1" d="M45.87 76a1.23 1.23 0 01-1.3-1.4 2.79 2.79 0 01.08-.63l.48-2.29a2.53 2.53 0 000-.3c0-.4-.18-.79-.58-.79a1.28 1.28 0 00-.8.28L42.69 76h-1.84l1.85-8.65 1.88-.26-.68 3.24a3 3 0 011.66-.69A1.66 1.66 0 0147 71.22a.89.89 0 010 .28l-.52 2.43a2.28 2.28 0 00-.1.52c0 .22.1.38.48.38a1 1 0 00.33 0c-.35 1.06-.89 1.17-1.32 1.17zm10.47-6.4l-1.93 9.09-1.93.45 1-4.73c-.52.87-1.16 1.5-1.88 1.5a1.25 1.25 0 01-1.42-1.35c0-3 1.48-5 3.25-5a1.12 1.12 0 011 .35l.08-.36zm-4.54 4.56c0 .52.06.85.42.85s.91-.61 1.43-1.39l.45-2.11a5 5 0 00.11-.8c0-.36-.14-.54-.49-.54-.98 0-1.92 2.14-1.92 3.99zm10.67-4.56l-.91 4.33a2 2 0 00-.05.39c0 .28.12.48.63.48s1.17-.71 1.68-1.12h.43c-.58.59-2 2.28-3 2.28s-1.45-.33-1.57-1.07A3.31 3.31 0 0157.84 76c-1 0-1.59-.43-1.59-1.38a2.62 2.62 0 01.08-.65l.91-4.33h1.83l-.91 4.33a2 2 0 000 .39c0 .28.12.48.63.48a1.72 1.72 0 00.91-.45 3.67 3.67 0 01.07-.42l.92-4.33z"/><path class="cls-1" d="M68.86 69.6l-.92 4.33a3.21 3.21 0 000 .39c0 .28.13.48.64.48s1.17-.71 1.68-1.12h.43c-.58.59-2 2.28-3 2.28-.82 0-1.38-.3-1.55-1a2.2 2.2 0 01-1.73 1 1.48 1.48 0 01-1.58-1.62c0-2.19.79-4.81 3.34-4.81a1.4 1.4 0 01.85.32L67 69.6zm-4.38 4.48c0 .76.42.9.74.9s.57-.28.81-.63a3.83 3.83 0 01.08-.42l.71-3.38a1 1 0 00-.62-.22c-.96 0-1.72 2.02-1.72 3.75z"/><path class="cls-1" d="M72.69 67.05l-1.47 6.88a3.24 3.24 0 00-.06.4c0 .28.14.47.64.47s1.17-.71 1.68-1.12h.43c-.59.59-2 2.28-3 2.28s-1.57-.43-1.57-1.38a3.14 3.14 0 01.07-.65l1.42-6.62z"/><path class="cls-1" d="M75.61 69.6l-.91 4.33a2 2 0 000 .39c0 .28.12.48.63.48s1.17-.71 1.68-1.12h.44c-.59.59-2 2.28-3 2.28s-1.59-.43-1.59-1.38a2.62 2.62 0 01.08-.65l.91-4.33zM75 66.9a1 1 0 110 2 1 1 0 010-2z"/><path class="cls-1" d="M79.62 67.59s-.19.86-.43 2H80l-.1.51h-.76c-.88 4-.87 4.15-.87 4.21 0 .29.13.48.64.48s1.17-.71 1.68-1.12H81c-.58.59-2 2.28-3 2.28s-1.58-.43-1.58-1.38c0-.68.66-3.38.88-4.47h-.42l.1-.51h.42l.38-1.76z"/><path class="cls-1" d="M82.78 69.6l-.93 4.33a1.53 1.53 0 00-.07.4c0 .28.14.47.64.47a1.74 1.74 0 001-.5l1-4.7h1.85l-1.6 7.4c-.38 1.82-1.47 2.16-2.31 2.16a1.42 1.42 0 01-1.5-1.37c0-1.18 1-1.55 2.2-1.91l.19-.88a3.16 3.16 0 01-1.73 1c-1 0-1.58-.43-1.58-1.38a2.56 2.56 0 01.08-.65l.89-4.33zm-.72 8.4c.26 0 .6-.24.76-1l.15-.75c-.8.27-1.41.63-1.41 1.32a.5.5 0 00.5.43zM59 83.26A3.25 3.25 0 1155.75 80 3.25 3.25 0 0159 83.26z"/></g></g></svg>