<svg xmlns="http://www.w3.org/2000/svg" viewBox="0 0 105.22 105.22"><defs><style>.cls-1{fill:#404040}</style></defs><g id="Слой_2" data-name="Слой 2"><g id="Layer_1" data-name="Layer 1"><path class="cls-1" d="M70.84 35.33a16.68 16.68 0 006.3-2.26A16.89 16.89 0 0082.42 29l.68.39c-.34.59-1.6 2.4-5.51 4.54s-6.1 2.25-6.78 2.21zm-4.63-16.26a.2.2 0 010-.1v-.07l4.66-2.56h.18a.1.1 0 010 .05l3 5.47-5 2.73z"/><path class="cls-1" d="M70.88 34.49c.15-3.7.11-6.4-1.27-9.2l5-2.74c1.62 2.66 3.88 4.14 7.08 6a16.38 16.38 0 01-5 3.79 16.27 16.27 0 01-5.81 2.15zM41.39 40a33.54 33.54 0 014.08-3.25c2.88-1.84 10.22-4.75 16.73-8.36l6.28-3.45-2.85-5.2-7.08 3.89a8.28 8.28 0 00-2 2.06c-1.1 1.37-.87 2.37-15.89 8.89l-.39.17c-1.93.85-3.5 2.44-3.5 3a.87.87 0 00.12.27c.64 1.17 2.58 3.26 3.16 3.09A8.83 8.83 0 0041.39 40zm-7.01-4.67a16.65 16.65 0 01-6.29-2.26A16.63 16.63 0 0122.81 29l-.68.39c.33.59 1.6 2.4 5.5 4.54s6.1 2.25 6.79 2.21zM39 19.07v-.17l-4.66-2.56h-.14v.05l-3 5.47 4.8 2.69z"/><path class="cls-1" d="M34.35 34.49c-.15-3.7-.12-6.4 1.26-9.2l-5-2.74c-1.63 2.66-3.89 4.14-7.09 6a16.38 16.38 0 004.95 3.79 16.3 16.3 0 005.88 2.15zM63.83 40a32.77 32.77 0 00-4.08-3.25C56.88 34.91 49.53 32 43 28.39l-6.28-3.45 2.86-5.2 7.08 3.89a8.45 8.45 0 012 2.06c1.1 1.37.86 2.37 15.88 8.89l.4.17c1.93.85 3.49 2.44 3.49 3a.87.87 0 01-.12.27c-.64 1.17-2.57 3.26-3.15 3.09A8.74 8.74 0 0163.83 40z"/><path class="cls-1" d="M52.61 105.22a52.61 52.61 0 1152.61-52.61 52.67 52.67 0 01-52.61 52.61zm0-103.4a50.8 50.8 0 1050.8 50.79 50.79 50.79 0 00-50.8-50.79z"/><path class="cls-1" d="M97.69 52.61A45.08 45.08 0 1152.61 7.53a45.08 45.08 0 0145.08 45.08zm-1.81 0a43.27 43.27 0 10-43.27 43.27 43.32 43.32 0 0043.27-43.27zM54.11 4.8a1.5 1.5 0 11-1.5-1.49 1.5 1.5 0 011.5 1.49zm-3.76.03a1.49 1.49 0 11-1.61-1.37 1.49 1.49 0 011.61 1.37z"/><path class="cls-1" d="M46.61 5.16a1.49 1.49 0 11-3 .47 1.49 1.49 0 013-.47zm-3.7.62a1.5 1.5 0 11-1.81-1.11 1.5 1.5 0 011.81 1.11zm-3.65.9a1.49 1.49 0 11-1.88-1 1.49 1.49 0 011.88 1zM35.7 7.87a1.5 1.5 0 11-2-.81 1.5 1.5 0 012 .81zm-3.46 1.47a1.49 1.49 0 11-2-.66 1.5 1.5 0 012 .66zm-3.33 1.73a1.49 1.49 0 01-2.55 1.56 1.49 1.49 0 112.55-1.56zm-3.19 1.99a1.49 1.49 0 01-2.42 1.75 1.49 1.49 0 112.42-1.75zm-3.02 2.23a1.49 1.49 0 11-2.11-.17 1.5 1.5 0 012.11.17zm-2.84 2.46a1.49 1.49 0 01-2.11 2.11 1.5 1.5 0 010-2.11 1.48 1.48 0 012.11 0zm-2.63 2.68a1.49 1.49 0 11-2.11.16 1.49 1.49 0 012.11-.16zm-2.42 2.87a1.49 1.49 0 11-2.09.33 1.5 1.5 0 012.09-.33zm-2.18 3.06a1.49 1.49 0 11-2.06.49 1.51 1.51 0 012.06-.49zm-1.94 3.21a1.5 1.5 0 11-2 .66 1.51 1.51 0 012-.66zM9 32.93a1.5 1.5 0 11-2 .81 1.51 1.51 0 012-.81zm-1.39 3.49a1.49 1.49 0 11-1.89 1 1.5 1.5 0 011.89-1zM6.47 40a1.5 1.5 0 11-1.8 1.1 1.49 1.49 0 011.8-1.1zm-.84 3.66a1.49 1.49 0 11-1.71 1.24 1.49 1.49 0 011.71-1.24zm-.56 3.71a1.49 1.49 0 11-1.61 1.37 1.49 1.49 0 011.61-1.37zm-.27 3.75a1.5 1.5 0 11-1.49 1.49 1.5 1.5 0 011.49-1.49zm.03 3.75a1.49 1.49 0 11-1.37 1.61 1.49 1.49 0 011.37-1.61zm.33 3.74a1.5 1.5 0 11-1.24 1.71 1.49 1.49 0 011.24-1.71zm.62 3.71a1.49 1.49 0 011.8 1.1 1.5 1.5 0 11-1.8-1.1zm.9 3.68a1.5 1.5 0 11-1 1.89 1.51 1.51 0 011-1.89zm1.19 3.52a1.5 1.5 0 11-.81 2 1.51 1.51 0 01.81-2zM9.34 73a1.5 1.5 0 11-.66 2 1.5 1.5 0 01.66-2zm1.73 3.32a1.49 1.49 0 11-.5 2.05 1.5 1.5 0 01.5-2.05zm1.99 3.18a1.49 1.49 0 11-.34 2.09 1.5 1.5 0 01.34-2.09zm2.23 3.02a1.5 1.5 0 11-.17 2.11 1.5 1.5 0 01.17-2.11zm2.46 2.84a1.49 1.49 0 110 2.11 1.5 1.5 0 010-2.11zM20.43 88a1.5 1.5 0 11.16 2.11 1.5 1.5 0 01-.16-2.11zm2.87 2.41a1.5 1.5 0 11.33 2.09 1.49 1.49 0 01-.33-2.09zm3.06 2.18a1.5 1.5 0 11.49 2.06 1.49 1.49 0 01-.49-2.06zm3.22 1.94a1.49 1.49 0 11.65 2 1.48 1.48 0 01-.65-2zm3.35 1.68a1.5 1.5 0 11.81 2 1.5 1.5 0 01-.81-2zm3.49 1.41a1.49 1.49 0 111 1.88 1.48 1.48 0 01-1-1.88zM40 98.75a1.5 1.5 0 111.1 1.8 1.5 1.5 0 01-1.1-1.8zm3.66.85a1.49 1.49 0 111.24 1.71 1.49 1.49 0 01-1.24-1.71zm3.71.55a1.49 1.49 0 111.37 1.61 1.49 1.49 0 01-1.37-1.61zm3.75.27a1.5 1.5 0 111.49 1.5 1.5 1.5 0 01-1.49-1.5zm3.75-.03a1.51 1.51 0 011.38-1.61 1.49 1.49 0 11-1.38 1.61zm3.74-.33a1.5 1.5 0 111.71 1.25 1.5 1.5 0 01-1.71-1.25zm3.71-.61a1.5 1.5 0 111.8 1.1 1.49 1.49 0 01-1.8-1.1zm3.68-.91a1.5 1.5 0 111.89 1 1.5 1.5 0 01-1.89-1zm3.53-1.19a1.49 1.49 0 112 .81 1.49 1.49 0 01-2-.81zM73 95.89a1.5 1.5 0 112 .65 1.49 1.49 0 01-2-.65zm3.32-1.73a1.5 1.5 0 112.05.49 1.49 1.49 0 01-2.05-.49zm3.18-1.99a1.51 1.51 0 01.33-2.09 1.5 1.5 0 11-.33 2.09zm3.02-2.23a1.5 1.5 0 112.11.16 1.5 1.5 0 01-2.11-.16zm2.84-2.47a1.5 1.5 0 010-2.11 1.49 1.49 0 110 2.11zM88 84.8a1.5 1.5 0 112.11-.17 1.5 1.5 0 01-2.11.17zm2.41-2.88a1.5 1.5 0 112.09-.33 1.49 1.49 0 01-2.09.33zm2.18-3.05a1.5 1.5 0 112.06-.5 1.51 1.51 0 01-2.06.5zm1.94-3.22A1.5 1.5 0 0195.89 73a1.5 1.5 0 01-1.36 2.67zm1.68-3.36a1.5 1.5 0 112-.81 1.49 1.49 0 01-2 .81zm1.41-3.48a1.5 1.5 0 111.88-1 1.49 1.49 0 01-1.88 1zm1.13-3.58a1.5 1.5 0 11.7-2.91 1.5 1.5 0 01-.7 2.91zm.85-3.66a1.5 1.5 0 111.71-1.25 1.5 1.5 0 01-1.71 1.25zm.55-3.72a1.49 1.49 0 01-1.37-1.6 1.49 1.49 0 113 .23 1.49 1.49 0 01-1.63 1.37zm.27-3.74a1.5 1.5 0 111.5-1.5 1.5 1.5 0 01-1.5 1.5zm-.03-3.76a1.49 1.49 0 111.37-1.61 1.5 1.5 0 01-1.37 1.61zm-.32-3.74a1.5 1.5 0 01-1.72-1.24 1.5 1.5 0 111.72 1.24zm-.62-3.7a1.5 1.5 0 11-.7-2.91 1.5 1.5 0 01.7 2.91zm-.91-3.65a1.49 1.49 0 111-1.88 1.48 1.48 0 01-1 1.88zm-1.19-3.56a1.5 1.5 0 11.81-2 1.5 1.5 0 01-.81 2zm-1.46-3.46a1.5 1.5 0 11.65-2 1.49 1.49 0 01-.65 2zm-1.73-3.33a1.5 1.5 0 11.49-2.06 1.5 1.5 0 01-.49 2.06zm-1.99-3.19a1.5 1.5 0 11.33-2.09 1.49 1.49 0 01-.33 2.09zm-2.23-3.02a1.5 1.5 0 11.16-2.11 1.49 1.49 0 01-.16 2.11zm-2.47-2.84a1.48 1.48 0 01-2.11 0 1.5 1.5 0 010-2.11 1.49 1.49 0 012.11 2.11zm-2.67-2.63a1.5 1.5 0 11-.17-2.11 1.5 1.5 0 01.17 2.11zm-2.88-2.42a1.49 1.49 0 11-.33-2.09 1.49 1.49 0 01.33 2.09zm-3.05-2.18a1.49 1.49 0 11-.5-2.06 1.49 1.49 0 01.5 2.06zm-3.22-1.94a1.5 1.5 0 11-.65-2 1.5 1.5 0 01.65 2zM72.29 9a1.5 1.5 0 11-.81-2 1.51 1.51 0 01.81 2zm-3.48-1.39a1.5 1.5 0 11-1-1.89 1.51 1.51 0 011 1.89zm-3.58-1.14a1.5 1.5 0 11-1.11-1.8 1.5 1.5 0 011.11 1.8zm-3.66-.84a1.5 1.5 0 11-1.25-1.71 1.5 1.5 0 011.25 1.71zm-3.72-.56a1.49 1.49 0 01-3-.24 1.49 1.49 0 013 .24zM23.86 49.06l-.82.08a7.26 7.26 0 00-.11 1v4.34a10.6 10.6 0 00.07 1.46l.81.07-.06 1s-1-.07-2.42-.07c-.58 0-1.24.07-1.24.07l-.07-.87.83-.15c0-.13.11-.83.11-1.08v-1.78h-3.41v1.36a12.58 12.58 0 00.11 1.45l.81.07-.06 1s-1-.07-2.42-.07c-.58 0-1.24.07-1.24.07l-.06-.87.82-.15c0-.13.11-.83.11-1.08v-4.39a11.38 11.38 0 00-.11-1.38L14.7 49l.06-.94s.66.07 1.24.07c1.41 0 2.42-.07 2.42-.07l.06 1-.82.08a7.26 7.26 0 00-.11 1v1.9L21 52v-1.48a11.38 11.38 0 00-.11-1.38l-.81-.14.06-.94s.66.07 1.24.07c1.41 0 2.42-.07 2.42-.07zM32.67 57s-.61-.07-1-.07c-1.48 0-2.54.07-2.54.07l-.13-.95.73-.11-.06-.65-.18-.62h-2.32l-.21.79-.08.48.73.15-.07.87s-.73-.07-1.32-.07c-1 0-1.73.07-1.73.07l-.06-.91L25 56l.52-1.07 2.36-6.77 1.38-.16 2.49 7.32.25.68.7.12zm-5.16-3.32h1.69l-.8-2.93zm14.95-4.62l-.82.08a8.26 8.26 0 00-.12 1v6.74h-1.68l-4-5.6v3.2a14 14 0 00.11 1.45l.81.07-.06 1s-.66-.07-2.07-.07c-.59 0-1.25.07-1.25.07l-.06-.87.82-.15a9.34 9.34 0 00.12-1.08v-4.38a8.25 8.25 0 00-.12-1.38l-.85-.14.07-.94s.66.07 1.24.07h1.27l.24.25s.91 1.56 1.09 1.84L39.94 54v-3.48a12.4 12.4 0 00-.11-1.38L39 49l.06-.94 1.25.07c1 0 2.07-.07 2.07-.07zm9.11 3.45c0 2.63-1.49 4.46-4.38 4.46-.79 0-1.87-.08-2.62-.08-.58 0-1.24.07-1.24.07l-.07-.87.83-.15s.11-.83.11-1.08v-4.34a11.53 11.53 0 00-.11-1.38l-.81-.14.06-.94s.66.07 1.24.07 2-.13 2.61-.13c2.89 0 4.38 1.83 4.38 4.51zm-5.39-3.39v6.75c0 .15.47 0 .81 0 1.86 0 2.5-1.52 2.5-3.45S48.84 49 47 49a5.06 5.06 0 00-.82.12zm17.48-.07a6.22 6.22 0 00-.5 1.07L61 56.89h-1.44L58 51.63l-1.7 5.26h-1.43l-2.28-7.18a4.12 4.12 0 00-.29-.71l-.75-.11.07-.88s.68.07 1.14.07c1.41 0 2.59-.07 2.59-.07l.06.91-.81.11a2.71 2.71 0 000 .65l1.13 4.6 1.65-5.83h1.41l1.63 5.83 1.26-4.77a1.08 1.08 0 000-.48l-.8-.14.07-.88s.78.07 1.37.07c1 0 1.83-.07 1.83-.07l.06.91zm5.08 8.08c-2.7 0-4.44-1.82-4.44-4.62s1.74-4.63 4.44-4.63 4.45 1.82 4.45 4.63a4.25 4.25 0 01-4.45 4.62zm0-1.21c1.5 0 2.21-1.09 2.21-3.41s-.71-3.42-2.21-3.42-2.2 1.09-2.2 3.42.71 3.41 2.2 3.41zm12.18-5.3A2.64 2.64 0 0179.4 53c.59 1.16 1.27 2.18 1.33 2.28l.44.7h.6l-.07 1s-1-.07-2.37-.07c0 0-.45-1.14-.61-1.44l-1-2h-.73v1.08A12.58 12.58 0 0077.1 56l.81.07-.06 1s-1-.07-2.42-.07c-.58 0-1.24.07-1.24.07l-.07-.87.83-.15c0-.13.11-.83.11-1.08v-4.45a12.22 12.22 0 00-.11-1.38L74.1 49l.06-.94s.66.07 1.28.07S77.33 48 78 48a2.6 2.6 0 012.92 2.62zM77 49c0 .38-.07.95-.07 1.13v2.27h.3c1.18 0 1.66-.61 1.66-1.76A1.43 1.43 0 0077.28 49zm9.07.06l-.78.08a7.18 7.18 0 00-.12 1v4.34a10.14 10.14 0 00.12 1.45l.76.07-.05 1s-1-.07-2.37-.07a11.87 11.87 0 00-1.2.07l-.06-.87.78-.15c0-.13.11-.83.11-1.08v-4.38a9.6 9.6 0 00-.11-1.38l-.79-.14.06-.94a11.87 11.87 0 001.2.07c1.39 0 2.39-.07 2.39-.07zm5 7.9s-1.12-.07-2.51-.07a11.54 11.54 0 00-1.16.11l-.06-.87.49-.1c-.23-.37-.56-.9-.74-1.14s-1.87-2.35-1.87-2.35l2-2.79.35-.65-.37-.1.07-.94s.61.07 1.2.07c1.39 0 2.07-.07 2.07-.07l.06 1-.72.08c-.31.3-.68.67-.94 1l-1.61 2.19c.85 1 1.72 2 2.55 3 .13.15.44.42.69.65l.59.07z"/><path class="cls-1" transform="rotate(-90 52.615 45.135)" d="M51.94 6.46h1.35v77.35h-1.35z"/><path class="cls-1" transform="rotate(90 52.61 60.09)" d="M51.94 21.41h1.35v77.35h-1.35z"/><path class="cls-1" d="M25.48 65.85h1.57a1.22 1.22 0 011.31.86 4.41 4.41 0 01.16 1.29 10.08 10.08 0 010 1.09 2 2 0 01-.42 1.16 1.31 1.31 0 01-1 .37h-.7v3.06h-.92zm2.13 2.21a3.66 3.66 0 00-.13-1.14.49.49 0 00-.5-.34h-.58v3.25h.6a.5.5 0 00.52-.34 4.39 4.39 0 00.13-1.28zm3.88-1.13a3.5 3.5 0 010 .57v.2a1.23 1.23 0 00-1.14.55v5.41h-.92V67h.92v.74a1.13 1.13 0 01.4-.61 1.23 1.23 0 01.74-.2zm.74 2.14a2.61 2.61 0 01.45-1.75 1.36 1.36 0 011-.39 1.16 1.16 0 011.26.86 5.16 5.16 0 01.14 1.32v1.26h-2v1.32a2.51 2.51 0 00.14 1.08.49.49 0 00.44.21.38.38 0 00.39-.24 1.62 1.62 0 00.11-.54v-1h.89v.28a5 5 0 01-.05 1.46 1 1 0 01-.45.61 1.34 1.34 0 01-.74.19 2 2 0 01-.72-.11 1.13 1.13 0 01-.42-.3 1.54 1.54 0 01-.28-.59 5.19 5.19 0 01-.12-1.32zm2-.17a4.12 4.12 0 000-.85.9.9 0 00-.13-.26.32.32 0 00-.29-.11.48.48 0 00-.51.33 3.21 3.21 0 00-.1.92v.82h1.08zm2.97-1.2a1.13 1.13 0 01.37-.56 1.1 1.1 0 01.67-.22.92.92 0 01.94.68 1.38 1.38 0 01.46-.5 1.27 1.27 0 01.67-.18.93.93 0 01.8.38 1.82 1.82 0 01.28 1.11v5.25h-.91v-5.28c0-.45-.18-.67-.53-.67a.58.58 0 00-.65.61v5.34h-.92v-5.28c0-.45-.17-.67-.52-.67a.62.62 0 00-.49.2.9.9 0 00-.17.57v5.18h-.91V67h.91zm5.46-2.14h.92v.83h-.92zm0 1.45h.91v6.65h-.91zM47 67h.92v6.65H47V73a1.18 1.18 0 01-.36.56 1.1 1.1 0 01-.7.21 1 1 0 01-.75-.36 1.65 1.65 0 01-.31-1.11V67h.91v5.17q0 .78.57.78a.55.55 0 00.48-.22 1 1 0 00.16-.59zm3.09.7a1.05 1.05 0 01.36-.56 1.1 1.1 0 01.67-.22.92.92 0 01.94.68 1.48 1.48 0 01.46-.5 1.27 1.27 0 01.67-.18.93.93 0 01.8.38 1.82 1.82 0 01.28 1.11v5.25h-.91v-5.28c0-.45-.18-.67-.53-.67a.58.58 0 00-.65.61v5.34h-.91v-5.28c0-.45-.18-.67-.53-.67a.63.63 0 00-.49.2.9.9 0 00-.16.57v5.18h-.91V67h.91zm7.57.3a2.63 2.63 0 01.48-1.82 1.47 1.47 0 011.1-.4 1.27 1.27 0 011.34.87 4.49 4.49 0 01.17 1.35v3.45a3.58 3.58 0 01-.34 1.77 1.12 1.12 0 01-.57.46l.68.79-.45.42-1-1.11a1.28 1.28 0 01-1.07-.61 3.49 3.49 0 01-.33-1.75zm2.17 0a3.28 3.28 0 00-.12-1.06.46.46 0 00-.48-.31.51.51 0 00-.51.31 3 3 0 00-.14 1.06v3.51a4 4 0 00.12 1.21.56.56 0 001 0 4.1 4.1 0 00.12-1.21zM64 67h1v6.65h-1V73a1.18 1.18 0 01-.36.56 1.1 1.1 0 01-.7.21 1 1 0 01-.75-.36 1.65 1.65 0 01-.31-1.11V67h.91v5.17q0 .78.57.78a.55.55 0 00.48-.22 1 1 0 00.16-.59zm2.24 1.93a2.36 2.36 0 01.38-1.6 1.37 1.37 0 011.07-.4 1.35 1.35 0 011 .33 1.8 1.8 0 01.38 1.09v5.31h-.87v-.57a.89.89 0 01-.31.43.92.92 0 01-.6.2q-1.12 0-1.14-1.77v-.64a1.54 1.54 0 01.32-1 4.26 4.26 0 011.73-.93v-.51a2.38 2.38 0 00-.13-1 .46.46 0 00-.42-.17.4.4 0 00-.41.26 3.2 3.2 0 00-.1.94v.23h-.9zm2 1.06a4.6 4.6 0 00-.75.39 1 1 0 00-.28.33 1.27 1.27 0 00-.1.6v.62a2.56 2.56 0 00.1.82.37.37 0 00.36.23.63.63 0 00.42-.14.88.88 0 00.25-.31zm2.12-4.22h.91v7.89h-.91zm2.23-.21h.92v.83h-.92zm0 1.45h.91v6.65h-.91zM75 65.85h.91v1.21h.72v.67h-.72v4.86q0 .25.12.33a1.79 1.79 0 00.61.06v.72H76c-.42 0-.69-.07-.82-.23a1.32 1.32 0 01-.19-.8v-4.94h-.61v-.67H75zM79.35 67h.88l-1.1 6.78a1.94 1.94 0 01-.21.72.5.5 0 01-.27.22 1.45 1.45 0 01-.4 0h-.89v-.69h.31c.32 0 .49 0 .52-.11s0-.09 0-.19a1.86 1.86 0 000-.36L77.11 67H78l.48 3.46.19 1.8h.08l.18-1.8zM35.64 80.42a4.23 4.23 0 01.14-1.31 2 2 0 01.32-.61 1.37 1.37 0 011.1-.43 1.24 1.24 0 011.31.89 4.55 4.55 0 01.16 1.36v.86h-.9v-.87a3.82 3.82 0 00-.08-1 .63.63 0 00-.2-.35.44.44 0 00-.29-.09.52.52 0 00-.51.35 3.25 3.25 0 00-.14 1.1v3.38a4.3 4.3 0 00.13 1.24.51.51 0 001 0 4.4 4.4 0 00.12-1.24v-.87h.91v.86a3.74 3.74 0 01-.33 1.8 1.22 1.22 0 01-1.17.58 1.28 1.28 0 01-1.21-.6 3.58 3.58 0 01-.35-1.8zm4.95-2.26h1.11L43 86h-.87l-.22-1.49h-1.42L40.28 86h-.87zm0 5.57h1.2l-.62-4.12zm3.33-5.57h1.64a1.44 1.44 0 011 .29 1.51 1.51 0 01.37 1v.88a2.89 2.89 0 01-.16 1 .82.82 0 01-.56.53.62.62 0 01.44.31 2 2 0 01.22.83q.06.56.06 1.68A6 6 0 0047 86h-.91a20.15 20.15 0 01-.07-2.63c0-.56-.06-.88-.17-1a.71.71 0 00-.5-.14h-.54V86h-.92zm2.13 1.91c0-.6-.06-.94-.17-1a.68.68 0 00-.46-.14h-.58v2.63h.58a.59.59 0 00.39-.1A.59.59 0 0046 81a4.82 4.82 0 00.06-.9zm2.1-1.91h1.57A1.2 1.2 0 0151 79a4 4 0 01.17 1.27 9.75 9.75 0 010 1.08 2.08 2.08 0 01-.42 1.17 1.31 1.31 0 01-1 .36h-.65V86h-.92zm2.12 2.21a3.74 3.74 0 00-.12-1.14.49.49 0 00-.5-.34h-.58v3.25h.56a.5.5 0 00.52-.34 4.54 4.54 0 00.12-1.28zm1.83-2.21h2.33v.76H53v2.68h1.34v.76H53v2.85h1.43V86H52.1zm5.83 0h.81V86h-.67l-1.76-5.36.06 2V86h-.85v-7.84h.69L58 83.48l-.09-2.26zm1.57 0h2.58v.76h-.8v7h-.91v-7h-.87zm3.35 0h1.63a1.47 1.47 0 011 .29 1.51 1.51 0 01.36 1v.88a2.67 2.67 0 01-.16 1 .81.81 0 01-.55.53.64.64 0 01.44.31 2.19 2.19 0 01.21.83 13.93 13.93 0 01.07 1.68A6 6 0 0066 86h-1a20.15 20.15 0 010-2.66c0-.56 0-.88-.16-1a.73.73 0 00-.5-.14h-.55V86h-.91zM65 80.07c0-.6 0-.94-.16-1a.71.71 0 00-.47-.14h-.58v2.63h.59a.59.59 0 00.39-.1.71.71 0 00.18-.39 6.22 6.22 0 000-.9zm4.16-1.91h.9l-1.26 4.53V86h-.92v-3.31l-1.36-4.53h.89l.92 3.2z"/></g></g></svg>