<svg width="16" height="12" viewBox="0 0 16 12" fill="none" xmlns="http://www.w3.org/2000/svg">
<path d="M16 1.46153C15.4286 1.6923 14.7755 1.84615 14.1225 1.92308C14.7755 1.53846 15.3469 0.923079 15.5918 0.230771C14.9388 0.615387 14.2857 0.846156 13.4694 1C12.898 0.384618 12 0 11.102 0C9.30612 0 7.83673 1.38461 7.83673 3.07692C7.83673 3.30769 7.83674 3.53846 7.91837 3.76922C5.22449 3.61538 2.77551 2.38461 1.14285 0.538459C0.897955 0.999997 0.734689 1.53846 0.734689 2.07692C0.734689 3.15384 1.30612 4.07692 2.20408 4.61538C1.63265 4.61538 1.14285 4.46154 0.734689 4.23077C0.734689 5.69231 1.87754 6.99999 3.34693 7.23076C3.10203 7.30768 2.77551 7.30769 2.44898 7.30769C2.20408 7.30769 2.04081 7.30768 1.79592 7.23076C2.20408 8.46153 3.42857 9.38461 4.89796 9.38461C3.7551 10.2308 2.36735 10.6923 0.816327 10.6923C0.571429 10.6923 0.326531 10.6923 0 10.6154C1.46939 11.4615 3.18367 12 5.06122 12C11.102 12 14.3673 7.30769 14.3673 3.23077V2.84615C15.0204 2.61538 15.5918 2.07692 16 1.46153Z" fill="white"/>
</svg>
