<svg xmlns="http://www.w3.org/2000/svg" xmlns:xlink="http://www.w3.org/1999/xlink" viewBox="0 0 1000 500" preserveAspectRatio="xMinYMin meet"><defs><linearGradient id="linearGradient4534" y2="98" gradientUnits="userSpaceOnUse" x2="563" gradientTransform="matrix(-.25136 -.34551 .29567 -.2151 362.44 304.84)" y1="92" x1="369"><stop id="stop4508" offset="0" stop-color="#000"/><stop id="stop4510" offset="1" stop-color="#000" stop-opacity="0"/></linearGradient><linearGradient id="Grad1" x1="0%" y1="0%" x2="0%" y2="100%"><stop offset="0%" stop-color="#87ceeb"/><stop offset="40%" stop-color="#fff"/><stop offset="70%" stop-color="green"/><stop offset="100%"/></linearGradient><linearGradient id="GradRect" x1="0%" y1="0%" x2="0%" y2="100%"><stop offset="0%" stop-color="#B6E1F3"/><stop offset="100%" stop-color="#474747"/></linearGradient><radialGradient id="radialGradient4530" gradientUnits="userSpaceOnUse" cy="156" cx="453" gradientTransform="matrix(2.6303 0 -.00506 2.6926 -1052.6 -365.61)" r="29"><stop id="stop3688" offset="0" stop-color="#977640"/><stop id="stop3690" offset="1" class="s0"/></radialGradient><radialGradient id="radialGradient4532" gradientUnits="userSpaceOnUse" cy="161" cx="456" gradientTransform="matrix(-3.2548 .01268 0 -3.3049 2021 617.52)" r="29"><stop id="stop4454" offset="0" stop-color="#977640"/><stop id="stop4456" offset="1" class="s0"/></radialGradient><filter id="filter4444" color-interpolation-filters="sRGB"><feGaussianBlur stdDeviation="3" id="feGaussianBlur9"/></filter><filter id="filter4502" height="1" width="1" color-interpolation-filters="sRGB" y="0" x="0"><feGaussianBlur id="feGaussianBlur4504" stdDeviation="3"/></filter><symbol id="grass" viewBox="0 0 1600 2496"><g id="grass" transform="translate(1592.471 1450.368)" fill="#008B00" stroke="#004A00" stroke-width=".1"><g id="g5201" transform="scale(73.99733 -73.99733) rotate(-37.895 -443.409 685.602)"><path id="path3602" d="M311.8 408.4c-.1 4.7-.4 9.4-2.1 13.9.9-4.8 1.6-12.8 1.4-14.5l.7.6z"/><path id="path3604" d="M311.1 407.8c-.4 6.1-1.3 11-2.8 14 1.2-4.5 2.2-10.6 2.3-14.4l.5.4z"/><path id="path3606" d="M311.1 407.8c-1 5.6-2.6 11.3-5.2 14.9 1.9-4.2 4.4-12.1 4.4-15.6l.7.6z"/><path id="path3608" d="M310.6 407.4c-.8 5.5-3.7 11.9-7.1 15.6 2.4-3.5 6-11.7 6.6-16.1l.5.5z"/><path id="path3610" d="M309 406c-1.1 2.8-4.3 8.1-6.8 10.4 3.8-3 6.4-7.2 7.3-10l-.4-.4z"/><path id="path3612" d="M309.4 406.3c-1.5 3.6-4.4 8.6-7.2 11.4 3.7-3.2 6.4-7.4 7.7-10.9l-.5-.4z"/><path id="path3614" d="M309.7 406.6c-1.5 4-4.8 10.1-7.1 12.6 3.9-3.5 6.2-8 7.7-12.1l-.6-.5z"/><path id="path3616" d="M309.9 406.8c-2.5 7-5.6 12.5-7.7 14.9 3.9-2.8 7.3-11.5 8.1-14.5l-.5-.4z"/></g></g></symbol></defs><style id="style4">.s0{stop-color:#3d280a;stop-opacity:0}.s1{fill:#977640}.s1,.s2,.s3{stroke:#000}.s2{fill:#fff;stroke-width:6}.s3{fill:#000;stroke-width:8}</style><path fill="url(#Grad1)" d="M0 0h1500v1500H0z"/><g transform="translate(0 -130)"><g id="snail"><path id="headBody" d="M149.653 1077.53s20.758-42.74-1.874-127.849c-22.632-85.109-66.757-116.528-51.62-204.202 15.138-87.675 42.298-165.941 13.013-217.54-29.285-51.598-42.634-93.11-36.848-127.709 5.787-34.598 14.258-44.236 11.023-70.091-3.234-25.855 22.575 58.711 10.1 98.26-12.476 39.549 40.161 51.843 44.351 111.044 4.189 59.202-27.452 180.394-27.737 204.297-.284 23.902 36.939 95.252 45.895 158.205 8.957 62.953 36.492 152.675 23.656 171.815-12.836 19.14-29.959 3.77-29.959 3.77z" fill="#88a96b" stroke="#000"><animate attributeName="d" dur="6s" repeatCount="indefinite" values="149.653 1077.53C149.653 1077.53 170.411 1034.79 147.779 949.681C125.147 864.572 81.0217 833.153 96.1594 745.479C111.297 657.804 138.457 579.538 109.172 527.939C79.8866 476.341 66.5378 434.829 72.3244 400.23C78.1111 365.632 86.5816 355.994 83.3474 330.139C80.1132 304.284 105.922 388.85 93.4463 428.399C80.9707 467.948 133.608 480.242 137.798 539.443C141.987 598.645 110.346 719.837 110.061 743.74C109.777 767.642 147 838.992 155.956 901.945C164.913 964.898 192.448 1054.62 179.612 1073.76C166.776 1092.9 149.653 1077.53 149.653 1077.53Z;M149.653 1077.53C149.653 1077.53 170.411 1034.79 147.779 949.681C125.147 864.572 81.0217 833.153 96.1594 745.479C111.297 657.804 138.457 579.538 109.172 527.94C79.8866 476.341 66.5378 434.829 72.3244 400.23C78.1111 365.632 86.5816 355.994 83.3474 330.139C80.1132 304.284 105.922 388.85 93.4463 428.399C80.9707 467.948 133.608 480.242 137.798 539.443C141.987 598.645 110.346 719.837 110.061 743.74C109.777 767.642 147 838.992 155.956 901.945C164.913 964.898 192.448 1054.62 179.612 1073.76C166.776 1092.9 149.653 1077.53 149.653 1077.53Z;M149.653 1077.53C149.653 1077.53 170.411 1034.79 147.779 949.681C125.147 864.572 81.0217 833.153 96.1594 745.479C111.297 657.804 138.457 579.538 109.172 527.939C79.8866 476.341 66.5378 434.829 72.3244 400.23C78.1111 365.632 86.5816 355.994 83.3474 330.139C80.1132 304.284 105.922 388.85 93.4463 428.399C80.9707 467.948 133.608 480.242 137.798 539.443C141.987 598.645 110.346 719.837 110.061 743.74C109.777 767.642 147 838.992 155.956 901.945C164.913 964.898 192.448 1054.62 179.612 1073.76C166.776 1092.9 149.653 1077.53 149.653 1077.53Z"/></path><path id="baseSnail" d="M83 110c-22-4-17-17 5-19l93-12c39 6 46 23 26 27-50 5-74 13-123 3zm47 20" class="s1"/><path id="smallHouse" d="M130 130c3 3-2 5-4 5-6-1-8-8-6-13 4-9 15-11 23-7 12 6 14 21 8 32-8 14-28 17-41 9-17-11-21-34-10-51 13-20 41-24 60-11 23 15 27 47 12 69-18 25-54 30-78 13-28-20-34-60-14-88 22-31 67-37 97-15 30 21 39 63 23 95" transform="rotate(3.235 1508.24 246.3)" class="s1"/><g id="twoEyes" transform="translate(-359.76 -66.757)" stroke="#000"><g id="g3587" transform="translate(650.55 49.498) scale(.95649)"><path id="rightEye" d="M177 592c0 32-26 57-57 57s-57-26-57-57 26-57 57-57 57 26 57 57z" transform="translate(-42.905 -80.331) scale(.17771)" class="s2"/><path id="rightEyeBlack" d="M177 592c0 32-26 57-57 57s-57-26-57-57 26-57 57-57 57 26 57 57z" transform="matrix(.11892 0 0 .13546 -35.976 -55.558)" class="s3"/><path id="rightEyeWhite" d="M-18.253 20.744c0 1.424-1.157 2.538-2.538 2.538s-2.538-1.158-2.538-2.538 1.158-2.539 2.538-2.539 2.538 1.158 2.538 2.539z" fill="#fff" stroke-width=".98" stroke="#000"/></g><g id="g3595" transform="translate(627.87 50.514) scale(.95649)"><path id="LeftEye" d="M177 592c0 32-26 57-57 57s-57-26-57-57 26-57 57-57 57 26 57 57z" transform="translate(-42.905 -80.331) scale(.17771)" class="s2"/><path id="LeftEyeBlack" d="M177 592c0 32-26 57-57 57s-57-26-57-57 26-57 57-57 57 26 57 57z" transform="matrix(.11892 0 0 .13546 -35.976 -55.558)" class="s3"/><path id="LeftEyeWhite" d="M-18.253 20.744c0 1.424-1.157 2.538-2.538 2.538s-2.538-1.158-2.538-2.538 1.158-2.539 2.538-2.539 2.538 1.158 2.538 2.539z" fill="#fff" stroke-width="1.024" stroke="#000"/></g></g><path id="mouth" d="M245 81c10 8 19 5 27 0" fill="none" stroke-width="2" stroke="#977640"/><path id="SpiralShadow" d="M77 29c-3 31-5 76 56 81 32-7 38 13 53-36-76 63-137-30-56-85 6-22-33 3-52 41z" fill="url(#radialGradient4530)" filter="url(#filter4444)"/><path id="SpiralShadow2" transform="matrix(.42727 0 0 .42113 -97.169 11.158)" d="M466 45c-22 83 33 130 89 129 32-16 47-23 51-66C540 223 393 8 613 0c-25-23-96-45-147 45z" fill="url(#radialGradient4532)" filter="url(#filter4444)"/><path id="neckShadow" d="M256 125c19-3 23 4 14-3-23-15 1-18 6-47 3-6-19-30-48 12-22 28-99 22-99 30 0 7 110 8 127 8z" fill="url(#linearGradient4534)" filter="url(#filter4502)"/></g></g><rect y="52%" width="150%" height="250" fill="url(#GradRect)"/><use xlink:href="#snail"/></svg>