<svg width="211" height="939" fill="none" xmlns="http://www.w3.org/2000/svg"><g clip-path="url(#clip0_12_139673)"><path d="M109.653 1030.53s20.758-42.74-1.874-127.849c-22.632-85.109-66.757-116.528-51.62-204.202 15.138-87.675 42.298-165.941 13.013-217.54-29.285-51.598-42.634-93.11-36.848-127.709 5.787-34.598 14.258-44.236 11.023-70.091-3.234-25.855 22.575 58.711 10.1 98.26-12.476 39.549 40.16 51.843 44.35 111.044 4.19 59.202-27.451 180.394-27.736 204.297-.284 23.902 36.939 95.252 45.895 158.205 8.957 62.953 36.492 152.675 23.656 171.815-12.836 19.14-29.959 3.77-29.959 3.77z" fill="url(#paint0_linear_12_139673)"/><path d="M105.133 1031.1s20.758-42.745-1.845-127.857C80.685 818.13 36.502 786.719 51.64 699.044 66.778 611.369 93.966 533.1 64.652 481.505s-42.475-93.014-36.804-127.598c5.672-34.584 14.214-44.348 10.98-70.203-3.234-25.855 22.574 58.711 10.128 98.257-12.447 39.546 40.179 51.753 44.311 110.962 4.133 59.208-27.441 180.479-27.696 204.378-.256 23.899 36.909 95.257 45.866 158.21 8.956 62.952 36.635 152.649 23.684 171.809-12.951 19.15-29.988 3.78-29.988 3.78z" fill="url(#paint1_linear_12_139673)"/><path d="M171.733 1120.96s12.8-118.86-38.101-180.648C82.73 878.521 27.178 778.701 54.314 663.039c27.136-115.662 36.48-196.489 39.638-263.05 3.157-66.561 20.65-115.662-4.736-153.691-25.387-38.028 52.352 50.72 39.68 122.007-12.672 71.288-23.808 250.36-44.459 302.697-20.65 52.338 3.2 141 39.68 182.223 36.48 41.223 88.875 229.705 47.616 267.735z" fill="url(#paint2_linear_12_139673)"/><path d="M130.005 358.808s-37.632-69.712-51.882-144.194c-14.251-74.482-6.827-134.697 25.856-194.913 32.682-60.216-34.945 66.56-3.456 160.036 31.488 93.474 33.024 154.542 29.482 179.071z" fill="#6CA232"/><path d="M129.28 1113.89s38.101-58.6 20.608-186.949c-17.493-128.353-76.16-182.266-38.059-307.467 38.102-125.201 92.032-234.475 58.71-315.132-33.323-80.656-45.227-143.683-30.464-193.124 14.762-49.442 28.885-61.962 28.885-100.289s22.229 89.813-3.2 145.259c-25.429 55.446 49.152 82.999 44.459 170.171-4.694 87.172-73.003 258.28-77.782 293.115-4.778 34.835 36.523 145.77 38.102 239.287 1.578 93.518 25.386 229.489 3.157 255.089-22.229 25.59-44.416.04-44.416.04z" fill="url(#paint3_linear_12_139673)"/><path d="M127.972 1115.91s30.147-46.41 16.34-148.048c-13.808-101.644-60.294-144.338-30.147-243.486 30.147-99.147 72.852-185.682 46.453-249.555-26.4-63.873-35.616-113.649-24.071-152.802 11.546-39.153 22.821-49.203 22.821-79.554 0-30.352 17.589 71.123-2.498 115.031-20.086 43.909 38.925 65.627 35.144 134.659-3.781 69.032-57.762 204.635-61.51 232.221-3.747 27.586 28.864 115.437 30.114 189.494 1.249 74.057 20.255 181.74 2.532 202-17.724 20.27-35.178.04-35.178.04z" fill="url(#paint4_linear_12_139673)"/></g><defs><linearGradient id="paint0_linear_12_139673" x1="33.215" y1="279.585" x2="117.5" y2="918.927" gradientUnits="userSpaceOnUse"><stop offset=".707" stop-color="#508D21"/><stop offset="1" stop-color="#508D21" stop-opacity="0"/></linearGradient><linearGradient id="paint1_linear_12_139673" x1="28.702" y1="280.149" x2="114.5" y2="918.927" gradientUnits="userSpaceOnUse"><stop offset=".783" stop-color="#79B738"/><stop offset="1" stop-color="#79B738" stop-opacity="0"/></linearGradient><linearGradient id="paint2_linear_12_139673" x1="117.018" y1="237.181" x2="117.018" y2="938.927" gradientUnits="userSpaceOnUse"><stop offset=".636" stop-color="#508D21"/><stop offset="1" stop-color="#508D21" stop-opacity="0"/></linearGradient><linearGradient id="paint3_linear_12_139673" x1="154.82" y1="569.927" x2="155" y2="937.427" gradientUnits="userSpaceOnUse"><stop offset=".497" stop-color="#508D21"/><stop offset=".973" stop-color="#508D21" stop-opacity="0"/></linearGradient><linearGradient id="paint4_linear_12_139673" x1="148.188" y1="236.892" x2="148" y2="937.427" gradientUnits="userSpaceOnUse"><stop offset=".8" stop-color="#79B738"/><stop offset="1" stop-color="#79B738" stop-opacity="0"/></linearGradient><clipPath id="clip0_12_139673"><path fill="#fff" transform="translate(0 .927)" d="M0 0h211v938H0z"/></clipPath></defs></svg>