<svg width="303" height="986" fill="none" xmlns="http://www.w3.org/2000/svg"><g clip-path="url(#clip0_65_41)"><path d="M149.653 1077.53s20.758-42.74-1.874-127.849c-22.632-85.109-66.757-116.528-51.62-204.202 15.138-87.675 42.298-165.941 13.013-217.539-29.285-51.599-42.634-93.111-36.848-127.71 5.787-34.598 14.258-44.236 11.023-70.091-3.234-25.855 22.575 58.711 10.1 98.26-12.476 39.549 40.161 51.843 44.351 111.044 4.189 59.202-27.452 180.394-27.737 204.297-.284 23.902 36.939 95.252 45.895 158.205 8.957 62.953 36.492 152.675 23.656 171.815-12.836 19.14-29.959 3.77-29.959 3.77z" fill="url(#paint0_linear_65_41)"/><path d="M145.133 1078.1s20.758-42.74-1.845-127.857C120.685 865.13 76.502 833.719 91.64 746.044c15.138-87.675 42.327-165.944 13.012-217.539-29.314-51.595-42.475-93.014-36.804-127.598 5.672-34.584 14.214-44.348 10.98-70.203-3.234-25.855 22.574 58.711 10.128 98.257-12.447 39.546 40.179 51.753 44.311 110.962 4.133 59.208-27.441 180.479-27.696 204.378-.256 23.899 36.909 95.257 45.866 158.21 8.956 62.952 36.635 152.649 23.684 171.809-12.951 19.15-29.988 3.78-29.988 3.78z" fill="url(#paint1_linear_65_41)"/><path d="M211.733 1167.96s12.8-118.86-38.101-180.648C122.73 925.521 67.178 825.701 94.314 710.039c27.136-115.662 36.48-196.489 39.638-263.05 3.157-66.561 20.65-115.662-4.736-153.691-25.387-38.028 52.352 50.72 39.68 122.007-12.672 71.288-23.808 250.36-44.459 302.697-20.651 52.338 3.2 141 39.68 182.223 36.48 41.223 88.875 229.705 47.616 267.735z" fill="url(#paint2_linear_65_41)"/><path d="M170.005 405.808s-37.632-69.712-51.882-144.194c-14.251-74.482-6.827-134.698 25.856-194.913 32.682-60.216-34.944 66.561-3.456 160.036 31.488 93.474 33.024 154.542 29.482 179.071z" fill="#6CA232"/><path d="M169.28 1160.89s38.101-58.6 20.608-186.949c-17.493-128.353-76.16-182.266-38.059-307.467 38.102-125.201 92.032-234.475 58.71-315.132-33.323-80.656-45.227-143.683-30.464-193.124 14.762-49.442 28.885-61.962 28.885-100.289s22.229 89.813-3.2 145.259c-25.429 55.446 49.152 82.999 44.459 170.171-4.694 87.172-73.003 258.28-77.782 293.115-4.778 34.835 36.523 145.77 38.102 239.287 1.578 93.518 25.386 229.489 3.157 255.089-22.229 25.59-44.416.04-44.416.04z" fill="url(#paint3_linear_65_41)"/><path d="M167.972 1162.91s30.147-46.41 16.34-148.05c-13.808-101.642-60.294-144.336-30.147-243.484S239.4 566.373 213 502.5c-26.4-63.873-11.546-90.847 0-130.001 11.546-39.153 0-34.648 0-64.999 0-30.352 28.087 50.091 8 93.999-20.087 43.909 23.281 77.469 19.5 146.501-3.781 69.032-66.248 195.79-69.996 223.376-3.747 27.586 28.864 115.436 30.114 189.494 1.249 74.06 20.255 181.74 2.532 202-17.724 20.27-35.178.04-35.178.04z" fill="url(#paint4_linear_65_41)"/></g><defs><linearGradient id="paint0_linear_65_41" x1="73.215" y1="326.585" x2="157.5" y2="965.927" gradientUnits="userSpaceOnUse"><stop offset=".707" stop-color="#508D21"/><stop offset="1" stop-color="#508D21" stop-opacity="0"/></linearGradient><linearGradient id="paint1_linear_65_41" x1="68.702" y1="327.149" x2="154.5" y2="965.927" gradientUnits="userSpaceOnUse"><stop offset=".783" stop-color="#79B738"/><stop offset="1" stop-color="#79B738" stop-opacity="0"/></linearGradient><linearGradient id="paint2_linear_65_41" x1="157.018" y1="284.181" x2="157.018" y2="985.927" gradientUnits="userSpaceOnUse"><stop offset=".636" stop-color="#508D21"/><stop offset="1" stop-color="#508D21" stop-opacity="0"/></linearGradient><linearGradient id="paint3_linear_65_41" x1="194.82" y1="616.927" x2="195" y2="984.427" gradientUnits="userSpaceOnUse"><stop offset=".497" stop-color="#508D21"/><stop offset=".973" stop-color="#508D21" stop-opacity="0"/></linearGradient><linearGradient id="paint4_linear_65_41" x1="188.188" y1="283.892" x2="188" y2="984.427" gradientUnits="userSpaceOnUse"><stop offset=".8" stop-color="#79B738"/><stop offset="1" stop-color="#79B738" stop-opacity="0"/></linearGradient><clipPath id="clip0_65_41"><path fill="#fff" d="M0 0h303v986H0z"/></clipPath></defs></svg>