<svg width="988" height="336" viewBox="0 0 988 336" fill="none" xmlns="http://www.w3.org/2000/svg">
<g clip-path="url(#clip0_991_11130)">
<path d="M978 180C978 183.866 974.866 187 971 187C967.134 187 964 183.866 964 180C964 176.134 967.134 173 971 173C974.866 173 978 176.134 978 180Z" fill="#07ECEF"/>
<path d="M142 63C142 66.866 138.866 70 135 70C131.134 70 128 66.866 128 63C128 59.134 131.134 56 135 56C138.866 56 142 59.134 142 63Z" fill="#2595FF"/>
<path d="M974 0L977.781 10.2187L988 14L977.781 17.7813L974 28L970.219 17.7813L960 14L970.219 10.2187L974 0Z" fill="#BCDCFF"/>
<path d="M331 63L333.431 69.5692L340 72L333.431 74.4308L331 81L328.569 74.4308L322 72L328.569 69.5692L331 63Z" fill="#40FFC6"/>
<path d="M952 43L954.161 48.8393L960 51L954.161 53.1607L952 59L949.839 53.1607L944 51L949.839 48.8393L952 43Z" fill="#DAEBFF"/>
<path d="M67 140L72.1317 153.868L86 159L72.1317 164.132L67 178L61.8683 164.132L48 159L61.8683 153.868L67 140Z" fill="#DAEBFF"/>
<path d="M588.098 296.22C567.599 322.705 538.873 335.948 501.921 335.948C464.968 335.948 436.107 322.705 415.339 296.22C394.839 269.466 384.59 233.885 384.59 189.474C384.59 144.796 394.839 109.348 415.339 83.1299C435.838 56.3766 464.698 43 501.921 43C538.873 43 567.599 56.3766 588.098 83.1299C608.867 109.883 619.251 145.331 619.251 189.474C619.251 233.617 608.867 269.199 588.098 296.22ZM501.921 112.826C471.981 112.826 457.011 138.375 457.011 189.474C457.011 240.573 471.981 266.122 501.921 266.122C531.86 266.122 546.83 240.573 546.83 189.474C546.83 138.375 531.86 112.826 501.921 112.826Z" fill="url(#paint0_linear_991_11130)"/>
<path d="M564.771 298.857C545.594 323.837 518.722 336.327 484.154 336.327C449.585 336.327 422.586 323.837 403.158 298.857C383.981 273.624 374.393 240.065 374.393 198.179C374.393 156.041 383.981 122.608 403.158 97.8805C422.334 72.6481 449.333 60.0319 484.154 60.0319C518.722 60.0319 545.594 72.6481 564.771 97.8805C584.2 123.113 593.915 156.546 593.915 198.179C593.915 239.813 584.2 273.372 564.771 298.857ZM484.154 125.888C456.146 125.888 442.142 149.985 442.142 198.179C442.142 246.373 456.146 270.47 484.154 270.47C512.162 270.47 526.166 246.373 526.166 198.179C526.166 149.985 512.162 125.888 484.154 125.888Z" fill="url(#paint1_linear_991_11130)"/>
<path d="M325.546 217.104H352.04V278.797H325.546V319.295H258.176V278.797H141.98V217.104L221.084 54.3546H296.024L216.164 217.104H258.176V169.414H325.546V217.104Z" fill="url(#paint2_linear_991_11130)"/>
<path d="M325.546 319.295L300.566 335.948V295.45L325.546 278.797V319.295Z" fill="url(#paint3_linear_991_11130)"/>
<path d="M300.566 233.757H327.06V295.45H300.566V335.948H233.195V295.45H117V233.757L196.104 71.008H271.044L191.183 233.757H233.195V186.068H300.566V233.757Z" fill="url(#paint4_linear_991_11130)"/>
<path d="M325.546 169.414L300.188 186.446V233.757L325.546 217.104V169.414Z" fill="url(#paint5_linear_991_11130)"/>
<path d="M295.646 54.3546L271.423 71.008L191.184 233.379L216.164 217.104L295.646 54.3546Z" fill="url(#paint6_linear_991_11130)"/>
<path d="M221.084 54.3546L196.104 71.008H270.665L295.645 54.3546H221.084Z" fill="url(#paint7_linear_991_11130)"/>
<path d="M258.554 169.414L233.195 186.446H300.566L324.41 169.414H258.554Z" fill="url(#paint8_linear_991_11130)"/>
<path d="M352.039 217.482L327.059 233.757V295.45L352.039 278.797V217.482Z" fill="url(#paint9_linear_991_11130)"/>
<path d="M850.507 217.104H877.001V278.797H850.507V319.295H783.137V278.797H666.941V217.104L746.045 54.3546H820.985L741.125 217.104H783.137V169.414H850.507V217.104Z" fill="url(#paint10_linear_991_11130)"/>
<path d="M850.507 319.295L825.527 335.948V295.45L850.507 278.797V319.295Z" fill="url(#paint11_linear_991_11130)"/>
<path d="M825.527 233.757H852.021V295.45H825.527V335.948H758.156V295.45H641.961V233.757L721.065 71.008H796.005L716.144 233.757H758.156V186.068H825.527V233.757Z" fill="url(#paint12_linear_991_11130)"/>
<path d="M850.507 169.414L825.148 186.446V233.757L850.507 217.104V169.414Z" fill="url(#paint13_linear_991_11130)"/>
<path d="M820.607 54.3546L796.384 71.008L716.145 233.379L741.125 217.104L820.607 54.3546Z" fill="url(#paint14_linear_991_11130)"/>
<path d="M746.045 54.3546L721.064 71.008H795.626L820.606 54.3546H746.045Z" fill="url(#paint15_linear_991_11130)"/>
<path d="M783.515 169.414L758.156 186.446H825.527L849.371 169.414H783.515Z" fill="url(#paint16_linear_991_11130)"/>
<path d="M877 217.482L852.02 233.757V295.45L877 278.797V217.482Z" fill="url(#paint17_linear_991_11130)"/>
</g>
<defs>
<linearGradient id="paint0_linear_991_11130" x1="495.794" y1="-40.8715" x2="570.262" y2="439.855" gradientUnits="userSpaceOnUse">
<stop stop-color="#F0F5FF"/>
<stop offset="0.440625" stop-color="#E3FCFF"/>
<stop offset="1" stop-color="#76B7FF"/>
</linearGradient>
<linearGradient id="paint1_linear_991_11130" x1="478.422" y1="-19.0717" x2="549.205" y2="434.151" gradientUnits="userSpaceOnUse">
<stop stop-color="#03F9D5"/>
<stop offset="0.440625" stop-color="#00DFFF"/>
<stop offset="1" stop-color="#3A98FF"/>
</linearGradient>
<linearGradient id="paint2_linear_991_11130" x1="240.808" y1="-30.4263" x2="317.365" y2="420.864" gradientUnits="userSpaceOnUse">
<stop stop-color="#F0F5FF"/>
<stop offset="0.440625" stop-color="#E3FCFF"/>
<stop offset="1" stop-color="#76B7FF"/>
</linearGradient>
<linearGradient id="paint3_linear_991_11130" x1="313.056" y1="278.797" x2="313.056" y2="335.948" gradientUnits="userSpaceOnUse">
<stop stop-color="#B3DDFF"/>
<stop offset="1" stop-color="#8CC6F3"/>
</linearGradient>
<linearGradient id="paint4_linear_991_11130" x1="215.828" y1="-13.7729" x2="292.385" y2="437.518" gradientUnits="userSpaceOnUse">
<stop stop-color="#03F9D5"/>
<stop offset="0.440625" stop-color="#00DFFF"/>
<stop offset="1" stop-color="#3A98FF"/>
</linearGradient>
<linearGradient id="paint5_linear_991_11130" x1="321.383" y1="169.414" x2="308.893" y2="233.757" gradientUnits="userSpaceOnUse">
<stop stop-color="#D9F5FF"/>
<stop offset="1" stop-color="#96DCF3"/>
</linearGradient>
<linearGradient id="paint6_linear_991_11130" x1="243.415" y1="54.3546" x2="243.415" y2="233.379" gradientUnits="userSpaceOnUse">
<stop stop-color="#DCF6FF"/>
<stop offset="1" stop-color="#B5E9FB"/>
</linearGradient>
<linearGradient id="paint7_linear_991_11130" x1="245.874" y1="54.3546" x2="245.874" y2="71.008" gradientUnits="userSpaceOnUse">
<stop stop-color="#D8F4FF"/>
<stop offset="1" stop-color="white"/>
</linearGradient>
<linearGradient id="paint8_linear_991_11130" x1="278.803" y1="169.414" x2="278.803" y2="186.446" gradientUnits="userSpaceOnUse">
<stop stop-color="#DBF6FF"/>
<stop offset="1" stop-color="#F9FEFF"/>
</linearGradient>
<linearGradient id="paint9_linear_991_11130" x1="339.549" y1="217.482" x2="339.549" y2="295.45" gradientUnits="userSpaceOnUse">
<stop stop-color="#F6FDFF"/>
<stop offset="1" stop-color="#E0F8FF"/>
</linearGradient>
<linearGradient id="paint10_linear_991_11130" x1="765.769" y1="-30.4263" x2="842.326" y2="420.864" gradientUnits="userSpaceOnUse">
<stop stop-color="#F0F5FF"/>
<stop offset="0.440625" stop-color="#E3FCFF"/>
<stop offset="1" stop-color="#76B7FF"/>
</linearGradient>
<linearGradient id="paint11_linear_991_11130" x1="838.017" y1="278.797" x2="838.017" y2="335.948" gradientUnits="userSpaceOnUse">
<stop stop-color="#B3DDFF"/>
<stop offset="1" stop-color="#8CC6F3"/>
</linearGradient>
<linearGradient id="paint12_linear_991_11130" x1="740.789" y1="-13.7729" x2="817.345" y2="437.518" gradientUnits="userSpaceOnUse">
<stop stop-color="#03F9D5"/>
<stop offset="0.440625" stop-color="#00DFFF"/>
<stop offset="1" stop-color="#3A98FF"/>
</linearGradient>
<linearGradient id="paint13_linear_991_11130" x1="846.344" y1="169.414" x2="833.854" y2="233.757" gradientUnits="userSpaceOnUse">
<stop stop-color="#D9F5FF"/>
<stop offset="1" stop-color="#96DCF3"/>
</linearGradient>
<linearGradient id="paint14_linear_991_11130" x1="768.376" y1="54.3546" x2="768.376" y2="233.379" gradientUnits="userSpaceOnUse">
<stop stop-color="#DCF6FF"/>
<stop offset="1" stop-color="#B5E9FB"/>
</linearGradient>
<linearGradient id="paint15_linear_991_11130" x1="770.835" y1="54.3546" x2="770.835" y2="71.008" gradientUnits="userSpaceOnUse">
<stop stop-color="#D8F4FF"/>
<stop offset="1" stop-color="white"/>
</linearGradient>
<linearGradient id="paint16_linear_991_11130" x1="803.764" y1="169.414" x2="803.764" y2="186.446" gradientUnits="userSpaceOnUse">
<stop stop-color="#DBF6FF"/>
<stop offset="1" stop-color="#F9FEFF"/>
</linearGradient>
<linearGradient id="paint17_linear_991_11130" x1="864.51" y1="217.482" x2="864.51" y2="295.45" gradientUnits="userSpaceOnUse">
<stop stop-color="#F6FDFF"/>
<stop offset="1" stop-color="#E0F8FF"/>
</linearGradient>
<clipPath id="clip0_991_11130">
<rect width="988" height="336" fill="white"/>
</clipPath>
</defs>
</svg>
