<svg width="80" height="80" viewBox="0 0 80 80" fill="none" xmlns="http://www.w3.org/2000/svg">
<path d="M0 30C0 13.4315 13.4315 0 30 0H50C66.5685 0 80 13.4315 80 30V50C80 66.5685 66.5685 80 50 80H30C13.4315 80 0 66.5685 0 50V30Z" fill="url(#paint0_linear_262_2213)"/>
<g clip-path="url(#clip0_262_2213)">
<path d="M58.8281 20H21.1719C20.5247 20 20 20.5247 20 21.1719V26.1927C20 26.8399 20.5247 27.3646 21.1719 27.3646H22.5104V50.0417C22.5104 50.6889 23.0351 51.2136 23.6823 51.2136H38.8281V52.8278C37.3707 53.3185 36.3177 54.697 36.3177 56.3178C36.3177 58.3481 37.9696 60 40 60C42.0304 60 43.6823 58.3481 43.6823 56.3177C43.6823 54.697 42.6293 53.3184 41.1719 52.8277V51.2135H56.3177C56.9649 51.2135 57.4896 50.6888 57.4896 50.0416V27.3646H58.8281C59.4753 27.3646 60 26.8399 60 26.1927V21.1719C60 20.5247 59.4753 20 58.8281 20V20ZM40 57.6562C39.262 57.6562 38.6615 57.0558 38.6615 56.3177C38.6615 55.5797 39.262 54.9792 40 54.9792C40.738 54.9792 41.3385 55.5797 41.3385 56.3177C41.3385 57.0558 40.738 57.6562 40 57.6562ZM55.1459 48.8698H24.8541V27.3646H55.1458V48.8698H55.1459ZM57.6562 25.0209H22.3438V22.3438H57.6562V25.0209Z" fill="#3A98FF"/>
<path d="M36.2344 38.8282C35.5872 38.8282 35.0625 39.3528 35.0625 40V45.0209C35.0625 45.6681 35.5872 46.1928 36.2344 46.1928H51.2969C51.9441 46.1928 52.4688 45.6681 52.4688 45.0209V37.4896C52.4688 36.8425 51.9441 36.3178 51.2969 36.3178H47.4479V34.9792C47.4479 34.3321 46.9232 33.8074 46.276 33.8074H41.2552C40.608 33.8074 40.0833 34.3321 40.0833 34.9792V38.8282H36.2344ZM37.4062 41.1719H40.0834V43.849H37.4062V41.1719ZM50.125 38.6615V43.849H47.4479V38.6615H50.125ZM42.4271 36.151H45.1042V43.8489H42.4271V36.151Z" fill="#23FBB2"/>
<path d="M28.7031 32.3854H37.4896C38.1368 32.3854 38.6615 31.8607 38.6615 31.2135C38.6615 30.5663 38.1368 30.0416 37.4896 30.0416H28.7031C28.0559 30.0416 27.5312 30.5663 27.5312 31.2135C27.5312 31.8607 28.0559 32.3854 28.7031 32.3854Z" fill="#3A98FF"/>
<path d="M28.7031 37.4062H32.4688C33.1159 37.4062 33.6406 36.8816 33.6406 36.2344C33.6406 35.5872 33.1159 35.0625 32.4688 35.0625H28.7031C28.0559 35.0625 27.5312 35.5872 27.5312 36.2344C27.5312 36.8816 28.0559 37.4062 28.7031 37.4062Z" fill="#3A98FF"/>
</g>
<defs>
<linearGradient id="paint0_linear_262_2213" x1="16.5" y1="4.5" x2="46.5" y2="69.5" gradientUnits="userSpaceOnUse">
<stop stop-color="#ECF3FA"/>
<stop offset="1" stop-color="#ECF3FA" stop-opacity="0"/>
</linearGradient>
<clipPath id="clip0_262_2213">
<rect width="40" height="40" fill="white" transform="translate(20 20)"/>
</clipPath>
</defs>
</svg>
