<svg width="480" height="264" viewBox="0 0 480 264" fill="none" xmlns="http://www.w3.org/2000/svg">
<g clip-path="url(#clip0_712_9777)">
<mask id="mask0_712_9777" style="mask-type:alpha" maskUnits="userSpaceOnUse" x="77" y="2" width="261" height="261">
<circle cx="207.393" cy="132.306" r="130.073" transform="rotate(15 207.393 132.306)" fill="#D9D9D9"/>
</mask>
<g mask="url(#mask0_712_9777)">
<path fill-rule="evenodd" clip-rule="evenodd" d="M156.014 -21.0065C172.551 -16.7787 166.662 11.8742 199.063 43.4966C223.449 67.2951 251.604 79.7234 280.454 84.9137C337.282 95.1398 352.441 79.0089 387.12 93.8865C411.678 104.423 445.82 130.43 446.942 159.442C449.12 215.829 327.029 295.473 215.203 274.292C161.743 264.162 82.3478 225.629 66.6056 150.009C48.1417 61.2606 127.819 -28.2184 156.014 -21.0065Z" fill="url(#paint0_linear_712_9777)"/>
<g style="mix-blend-mode:lighten">
<path fill-rule="evenodd" clip-rule="evenodd" d="M156.014 -21.0065C172.551 -16.7787 166.662 11.8742 199.063 43.4966C223.449 67.2951 251.604 79.7234 280.454 84.9137C337.282 95.1398 352.441 79.0089 387.12 93.8865C411.678 104.423 445.82 130.43 446.942 159.442C449.12 215.829 327.029 295.473 215.203 274.292C161.743 264.162 82.3478 225.629 66.6056 150.009C48.1417 61.2606 127.819 -28.2184 156.014 -21.0065Z" fill="url(#paint1_radial_712_9777)"/>
</g>
<path fill-rule="evenodd" clip-rule="evenodd" d="M81.368 41.7099C86.3251 48.8105 113.22 23.8243 143.417 29.6168C179.917 36.624 167.488 74.6858 210.61 92.4962C243.383 106.035 264.209 97.1608 292.25 109.245C344.498 131.77 333.661 209.271 376.98 221.06C402.931 228.124 429.903 204.139 441.534 193.786C466.815 171.296 488.045 131.858 479.974 93.0513C470.067 45.424 421.12 23.2875 385.67 7.25567C349.26 -9.21121 303.123 -10.2677 210.867 -12.3879C162.371 -13.5035 126.094 -11.8023 99.0738 12.7899C88.3623 22.5542 78.014 36.9025 81.368 41.7099Z" fill="url(#paint2_linear_712_9777)"/>
<g filter="url(#filter0_i_712_9777)">
<path d="M7.49383 139.993C6.34527 109.252 47.1714 76.2797 79.476 80.9316C109.108 85.2009 108.646 117.813 146.753 130.629C183.832 143.097 200.429 117.664 235.378 130.371C272.253 143.774 267.726 177.165 303.629 188.703C339.703 200.296 365.273 173.326 383.288 185.84C402.267 199.018 400.176 247.183 373.91 275.171C323.053 329.362 179.846 309.739 110.188 256.289C97.977 246.923 80.5512 228.844 45.7069 192.688C13.4364 159.21 7.90545 150.824 7.49383 139.993Z" fill="#1383FE" fill-opacity="0.42"/>
<path d="M7.49383 139.993C6.34527 109.252 47.1714 76.2797 79.476 80.9316C109.108 85.2009 108.646 117.813 146.753 130.629C183.832 143.097 200.429 117.664 235.378 130.371C272.253 143.774 267.726 177.165 303.629 188.703C339.703 200.296 365.273 173.326 383.288 185.84C402.267 199.018 400.176 247.183 373.91 275.171C323.053 329.362 179.846 309.739 110.188 256.289C97.977 246.923 80.5512 228.844 45.7069 192.688C13.4364 159.21 7.90545 150.824 7.49383 139.993Z" fill="url(#paint3_linear_712_9777)" fill-opacity="0.2"/>
</g>
<path d="M18.601 249.402C11.138 217.125 47.2488 173.865 82.081 172.15C114.032 170.578 120.187 205.166 162.768 210.894C204.2 216.465 216.43 186.156 255.676 192.416C297.085 199.019 299.134 235.265 339.143 240.093C379.342 244.945 400.672 211.168 422.116 220.702C444.707 230.743 452.32 282.115 430.466 317.112C388.153 384.874 233.944 393.535 149.996 351.311C135.281 343.914 113.322 328.371 69.4119 297.287C28.7468 268.508 21.238 260.774 18.601 249.402Z" fill="url(#paint4_linear_712_9777)"/>
<g filter="url(#filter1_d_712_9777)">
<path d="M332.299 85.9163C329.637 88.7173 326.172 90.0684 321.618 88.1461C315.722 85.6526 316.382 76.854 312.411 74.8329C300.036 68.5387 311.74 102.558 299.992 102.525C292.435 102.503 295.174 91.76 295.449 87.3992C295.999 78.6225 292.842 78.6116 288.86 71.4387C285.45 65.3313 287.133 62.5522 278.696 59.5973C270.589 56.7524 266.981 60.1026 261.316 65.551C262.9 70.8565 271.469 73.6905 270.721 80.1274C269.995 86.4325 261.36 89.9695 256.124 88.1241C251.317 86.4325 248.545 80.3691 243.771 78.6555C236.709 76.151 231.143 80.424 236.676 87.2564C239.833 91.1669 245.883 91.9468 248.699 96.8349C250.041 99.1746 248.127 101.734 250.448 103.964C252.296 105.732 256.069 104.832 258.148 105.743C263.835 108.215 265.177 111.258 264.132 117.936C262.922 125.669 259.149 125.592 254.639 130.843C248.369 138.126 252.384 141.267 255.596 148.473C258.588 155.174 258.071 164.038 255.97 171.013C253.858 178.043 246.642 181.306 243.87 187.743C241.373 193.565 243.848 203.055 239.239 208.108C234.421 213.392 224.675 211.118 219.681 207.207C214.137 202.846 213.939 195.553 210.276 189.918C206.008 183.338 198.66 177.912 195.844 170.299C193.611 164.291 195.371 155.723 186.362 154.899C184.327 150.945 186.692 146.298 185.504 141.948C183.656 135.171 181.225 137.148 176.22 134.644C172.425 132.743 170.918 128.69 165.88 128.811C159.214 128.965 156.541 136.862 150.513 138.345C127.391 144.068 130.834 107.281 134.321 95.4398C138.083 82.6648 150.645 67.7918 163.658 67.0449C170.082 66.6714 174.295 64.7601 180.411 66.1551C185.196 67.2536 191.103 71.9659 196.427 69.802C199.716 68.4728 200.024 64.7381 202.983 63.409C205.502 62.2776 208.054 63.5518 210.991 63.42C216.843 63.1673 226.6 57.7629 217.536 54.6873C214.61 53.6877 211.728 56.6755 208.945 55.2585C207.196 54.3687 207.889 50.6999 205.744 49.6124C199.441 46.4489 199.573 56.8183 192.214 53.0835C189.585 51.7434 191.367 47.5803 186.956 47.3826C183.667 47.2288 182.897 51.5786 180.257 52.3586C177.54 53.1604 174.097 51.3809 170.94 52.2926C168.377 53.0176 166.166 55.8846 163.702 56.8842C158.455 59.0042 150.92 60.4322 153.274 53.2483C155.056 47.8 164.659 45.1307 168.575 41.396C173.162 37.0242 174.812 36.5189 180.972 34.1572C186.043 32.2239 192.456 29.9391 189.013 23.5462C186.472 23.1068 183.392 23.1837 181.104 24.0954C178.508 25.1279 179.883 30.8509 175.274 27.9839C169.224 24.2052 179.542 19.0095 181.896 17.0433C185.878 13.715 187.605 9.99125 193.512 11.0568C198.308 11.9245 199.463 17.9221 205.051 15.3078C204.424 10.8261 200.904 5.26791 199.826 0.160109C202.653 -0.0376121 205.513 -0.125488 208.395 -0.125488C265.21 -0.125488 313.632 35.6731 332.299 85.9163Z" fill="url(#paint5_linear_712_9777)"/>
</g>
<path d="M128.017 226.112C126.499 228.166 124.464 230.022 122.066 231.67C94.0272 207.482 76.2842 171.716 76.2842 131.81C76.2842 115.651 79.1882 100.163 84.5232 85.8613C87.6582 87.8276 90.2322 90.6066 91.5962 94.0887C94.3242 101.042 88.5162 110.269 92.8502 116.541C95.7982 120.803 100.396 119.013 103.993 122.11C108.294 125.801 106.27 129.909 107.744 134.644C109.922 141.663 112.892 139.4 116.918 144.079C120.438 148.177 117.754 152.889 119.206 157.206C121.703 164.554 134.441 170.047 130.041 179.614C118.513 179.691 124.299 192.411 127.093 197.925C130.998 205.626 133.77 218.335 128.017 226.112Z" fill="url(#paint6_linear_712_9777)"/>
<path d="M168.047 11.7927C166.419 19.1304 161.403 19.7345 156.233 23.2166C148.72 28.3024 153.307 32.125 149.292 38.1555C146.41 42.5054 139.974 42.0441 136.575 45.2186C131.856 49.6014 134.529 55.1706 130.745 59.7401C126.631 64.7161 119.459 64.5843 116.203 59.1689C111.187 58.444 108.448 65.1555 103.223 66.3308C99.9674 67.0668 96.7774 66.902 93.8184 66.0782C110.12 37.804 136.597 16.1426 168.278 6.08075C168.575 7.78335 168.509 9.67269 168.047 11.7927Z" fill="url(#paint7_linear_712_9777)"/>
<path d="M272.381 247.257C256.97 255.792 239.667 261.339 221.253 263.108C217.029 263.525 212.739 263.734 208.394 263.734C197.108 263.734 186.152 262.317 175.691 259.658C164.757 256.879 154.373 252.738 144.726 247.422C149.951 233.405 161.6 223.53 178.782 228.276C184.656 229.89 190.145 234.68 196.426 234.273C204.049 233.779 206.777 226.167 213.872 223.915C223.519 220.85 225.664 225.156 233.606 229.22C241.174 233.076 242.142 227.364 249.534 226.254C258.895 224.848 265.022 233.098 269.235 240.249C270.511 242.413 271.556 244.774 272.381 247.257Z" fill="#2595FF"/>
</g>
<path d="M122.991 22.5273C61.3226 17.2604 17.3364 26.2642 10.0093 49.675C-2.14619 88.5131 91.1946 152.295 218.492 192.137C345.789 231.978 458.838 232.791 470.993 193.953C481.831 159.324 435.742 115.25 329.55 75.6119" stroke="#E5F2FF" stroke-width="3" stroke-linecap="round" stroke-dasharray="11 11"/>
<ellipse cx="219.673" cy="120.424" rx="190.346" ry="73.6863" transform="rotate(-15 219.673 120.424)" stroke="url(#paint8_linear_712_9777)" stroke-width="3" stroke-linecap="round" stroke-dasharray="6 19"/>
<rect width="71.1987" height="37.5869" rx="18.7935" transform="matrix(0.866025 -0.5 2.20305e-08 1 272.062 125.492)" fill="url(#paint9_linear_712_9777)" fill-opacity="0.63"/>
<rect width="75.2034" height="34.4766" rx="17.2383" transform="matrix(0.866025 -0.5 2.20305e-08 1 274.884 129.068)" fill="url(#paint10_linear_712_9777)" fill-opacity="0.63"/>
<rect width="74.5904" height="30.1192" rx="15.0596" transform="matrix(0.866025 -0.5 2.20305e-08 1 279.138 131.276)" fill="url(#paint11_linear_712_9777)"/>
<path d="M309.72 151.961C309.72 151.961 309.075 148.295 308.176 146.512C307.276 144.729 305.113 142.831 305.113 142.831L314.327 137.512C314.327 137.512 312.164 141.907 311.265 144.729C310.365 147.55 309.72 151.961 309.72 151.961Z" fill="#EEF6FF"/>
<g clip-path="url(#clip1_712_9777)">
<path d="M294.809 144.08C298.186 142.13 300.924 137.388 300.924 133.488C300.924 129.588 298.186 128.008 294.809 129.957C291.431 131.907 288.693 136.65 288.693 140.55C288.693 144.45 291.431 146.03 294.809 144.08Z" fill="#F0F0F0"/>
<path d="M300.872 132.597L293.479 136.865L293.479 136.865L293.479 130.893C292.914 131.364 292.378 131.908 291.884 132.505L291.884 137.786L291.884 137.786L288.745 139.599C288.711 139.92 288.693 140.238 288.693 140.55C288.693 140.862 288.711 141.159 288.745 141.441L291.884 139.629L291.884 139.629L291.884 144.91C292.378 144.936 292.914 144.862 293.479 144.68L293.479 138.708L293.479 138.708L300.872 134.439C300.906 134.118 300.924 133.8 300.924 133.488C300.924 133.176 300.906 132.879 300.872 132.597Z" fill="#0052B4"/>
</g>
<path d="M308.261 126.948L308.261 127.838L306.518 128.844L306.518 129.962L308.212 128.984L308.212 129.874L306.518 130.851L306.518 132.67L305.659 133.166L305.659 128.451L308.261 126.948Z" fill="#3A98FF"/>
<path d="M309.249 127.322C309.116 127.398 309 127.414 308.9 127.368C308.804 127.315 308.757 127.217 308.757 127.073C308.757 126.93 308.804 126.776 308.9 126.613C309 126.448 309.116 126.327 309.249 126.251C309.386 126.171 309.502 126.158 309.597 126.211C309.697 126.261 309.747 126.358 309.747 126.502C309.747 126.645 309.697 126.8 309.597 126.965C309.502 127.124 309.386 127.242 309.249 127.322ZM309.653 130.86L308.85 131.324L308.85 127.956L309.653 127.492L309.653 130.86Z" fill="#3A98FF"/>
<path d="M312.119 125.974C312.464 125.775 312.744 125.737 312.96 125.859C313.184 125.981 313.296 126.258 313.296 126.689L313.296 128.757L312.493 129.22L312.493 127.26C312.493 127.04 312.437 126.902 312.325 126.845C312.217 126.786 312.068 126.812 311.877 126.922C311.665 127.045 311.497 127.213 311.372 127.429C311.252 127.638 311.192 127.879 311.192 128.153L311.192 129.972L310.389 130.435L310.389 127.068L311.192 126.604L311.192 126.981C311.383 126.556 311.692 126.221 312.119 125.974Z" fill="#3A98FF"/>
<path d="M314.785 127.897L313.982 128.361L313.982 123.444L314.785 122.98L314.785 127.897Z" fill="#3A98FF"/>
<path d="M317.887 123.136L317.887 122.738L318.69 122.275L318.69 125.643L317.887 126.106L317.887 125.709C317.646 126.176 317.308 126.535 316.872 126.787C316.457 127.026 316.1 127.062 315.801 126.893C315.506 126.717 315.359 126.38 315.359 125.882C315.359 125.388 315.506 124.883 315.801 124.367C316.1 123.849 316.457 123.47 316.872 123.23C317.308 122.979 317.646 122.947 317.887 123.136ZM316.405 125.965C316.567 126.047 316.772 126.016 317.021 125.872C317.27 125.728 317.476 125.522 317.638 125.253C317.804 124.978 317.887 124.701 317.887 124.422C317.887 124.144 317.804 123.965 317.638 123.886C317.476 123.8 317.27 123.829 317.021 123.972C316.772 124.116 316.567 124.325 316.405 124.598C316.243 124.866 316.162 125.14 316.162 125.418C316.162 125.697 316.243 125.879 316.405 125.965Z" fill="#3A98FF"/>
<path d="M321.149 120.761C321.494 120.562 321.774 120.523 321.99 120.646C322.214 120.768 322.326 121.044 322.326 121.475L322.326 123.543L321.523 124.007L321.523 122.047C321.523 121.827 321.467 121.689 321.355 121.632C321.247 121.573 321.097 121.599 320.906 121.709C320.695 121.831 320.527 122 320.402 122.216C320.282 122.424 320.221 122.666 320.221 122.94L320.221 124.758L319.418 125.222L319.418 121.854L320.221 121.39L320.221 121.768C320.412 121.343 320.722 121.007 321.149 120.761Z" fill="#3A98FF"/>
<path d="M325.372 118.814L325.372 117.07L326.175 116.606L326.175 121.321L325.372 121.785L325.372 121.387C325.135 121.852 324.799 122.21 324.363 122.462C323.944 122.704 323.585 122.74 323.286 122.572C322.991 122.396 322.844 122.059 322.844 121.56C322.844 121.066 322.991 120.562 323.286 120.046C323.585 119.527 323.944 119.147 324.363 118.905C324.799 118.653 325.135 118.623 325.372 118.814ZM323.89 121.644C324.06 121.72 324.268 121.688 324.512 121.547C324.761 121.403 324.967 121.197 325.129 120.928C325.291 120.655 325.372 120.379 325.372 120.101C325.372 119.823 325.291 119.642 325.129 119.561C324.967 119.475 324.761 119.503 324.512 119.647C324.263 119.791 324.056 120.001 323.89 120.276C323.728 120.545 323.647 120.818 323.647 121.097C323.647 121.375 323.728 121.557 323.89 121.644Z" fill="#3A98FF"/>
<path d="M315.196 165.703C315.196 167.558 313.692 169.062 311.837 169.062C309.982 169.062 308.478 167.558 308.478 165.703C308.478 163.847 309.982 162.343 311.837 162.343C313.692 162.343 315.196 163.847 315.196 165.703Z" fill="white"/>
<path d="M36.6775 149.517C36.6775 151.878 34.7633 153.792 32.402 153.792C30.0407 153.792 28.1265 151.878 28.1265 149.517C28.1265 147.156 30.0407 145.241 32.402 145.241C34.7633 145.241 36.6775 147.156 36.6775 149.517Z" fill="#07ECEF"/>
<path d="M437.964 167.23C437.964 168.916 436.597 170.284 434.91 170.284C433.224 170.284 431.856 168.916 431.856 167.23C431.856 165.543 433.224 164.176 434.91 164.176C436.597 164.176 437.964 165.543 437.964 167.23Z" fill="#07ECEF"/>
<path d="M442.85 153.182C442.85 153.856 442.303 154.403 441.628 154.403C440.954 154.403 440.407 153.856 440.407 153.182C440.407 152.507 440.954 151.96 441.628 151.96C442.303 151.96 442.85 152.507 442.85 153.182Z" fill="#07ECEF"/>
<path d="M231.573 193.799C231.573 196.329 229.522 198.38 226.992 198.38C224.462 198.38 222.411 196.329 222.411 193.799C222.411 191.269 224.462 189.218 226.992 189.218C229.522 189.218 231.573 191.269 231.573 193.799Z" fill="#FEFFFF"/>
<rect width="89.3047" height="46.5608" rx="20" transform="matrix(0.866025 0.5 -2.20305e-08 1 57.4517 50.5697)" fill="url(#paint12_linear_712_9777)" fill-opacity="0.63"/>
<rect width="94.5179" height="42.7079" rx="20" transform="matrix(0.866025 0.5 -2.20305e-08 1 49.5503 50.9595)" fill="url(#paint13_linear_712_9777)" fill-opacity="0.63"/>
<rect width="92.2327" height="37.3101" rx="18.655" transform="matrix(0.866025 0.5 -2.20305e-08 1 46.4507 54.3149)" fill="#EEF6FF"/>
<path d="M84.2628 123.643C84.2628 123.643 83.464 118.178 82.3496 114.683C81.2352 111.188 78.5558 105.743 78.5558 105.743L89.9697 112.333C89.9697 112.333 87.2903 114.684 86.176 116.892C85.0616 119.101 84.2628 123.643 84.2628 123.643Z" fill="#EEF6FF"/>
<g clip-path="url(#clip2_712_9777)">
<path d="M58.5161 82.8873C59.5974 86.8765 62.4024 90.894 65.6928 92.7937C68.9832 94.6935 71.7883 93.9149 72.8696 91.1742L65.6928 86.2624L58.5161 82.8873Z" fill="#FFDA44"/>
<path d="M65.6928 75.1206C62.4024 73.2209 59.5974 73.9994 58.5161 76.7401L65.6928 81.652L72.8696 85.0271C71.7883 81.0378 68.9832 77.0203 65.6928 75.1206Z" fill="black"/>
<path d="M58.516 76.7401C58.2084 77.5198 58.04 78.458 58.04 79.5389C58.04 80.6198 58.2084 81.7524 58.516 82.8873L72.8695 91.1743C73.1771 90.3946 73.3455 89.4564 73.3455 88.3755C73.3455 87.2946 73.1771 86.162 72.8695 85.0271L58.516 76.7401Z" fill="#D80027"/>
</g>
<path d="M81.1913 92.9261L83.593 94.3127L83.593 94.7394C83.593 95.5295 83.374 96.043 82.9361 96.2801C82.4982 96.5171 81.9326 96.4354 81.2392 96.0351C80.5002 95.6085 79.8867 94.9777 79.3986 94.1429C78.9151 93.3054 78.6733 92.4863 78.6733 91.6857C78.6733 90.8798 78.9128 90.336 79.3918 90.0542C79.8753 89.775 80.4729 89.8408 81.1845 90.2517C81.627 90.5072 82.0329 90.8574 82.4024 91.3025C82.7719 91.7476 83.0616 92.2282 83.2714 92.7444L82.464 92.8155C82.35 92.5232 82.1766 92.2388 81.944 91.9622C81.7113 91.6857 81.4559 91.4671 81.1776 91.3065C80.7169 91.0405 80.3406 90.997 80.0487 91.1761C79.7567 91.3446 79.6107 91.6949 79.6107 92.2269C79.6107 92.7484 79.759 93.2659 80.0555 93.7794C80.352 94.2877 80.7489 94.6854 81.2461 94.9725C81.6064 95.1805 81.9075 95.2622 82.1493 95.2174C82.391 95.1726 82.5552 95.0093 82.6419 94.7275L81.1913 93.89L81.1913 92.9261Z" fill="#3A98FF"/>
<path d="M87.5489 98.011L84.9694 96.5216C85.0834 97.0826 85.405 97.5158 85.9341 97.8213C86.2717 98.0162 86.5272 98.032 86.7005 97.8687L87.4121 98.7536C87.0745 99.1224 86.5773 99.1171 85.9205 98.7378C85.3548 98.4113 84.901 97.9517 84.5588 97.3591C84.2167 96.7666 84.0457 96.1701 84.0457 95.5696C84.0457 94.9797 84.2144 94.582 84.552 94.3766C84.885 94.1685 85.3183 94.2185 85.852 94.5267C86.3584 94.819 86.7712 95.2575 87.0905 95.8422C87.4189 96.4321 87.5832 97.022 87.5832 97.612C87.5832 97.7226 87.5718 97.8556 87.5489 98.011ZM84.9557 95.7237L86.7005 96.731C86.6503 96.444 86.5477 96.1872 86.3926 95.9607C86.2421 95.7368 86.0619 95.5643 85.852 95.4432C85.6148 95.3062 85.4187 95.2641 85.2636 95.3168C85.1085 95.3642 85.0059 95.4998 84.9557 95.7237Z" fill="#3A98FF"/>
<path d="M89.082 96.5021L89.082 97.1816C89.1596 96.9788 89.2918 96.8682 89.4789 96.8498C89.6659 96.826 89.8803 96.884 90.122 97.0236L90.122 98.1613C89.8529 97.9638 89.6111 97.8874 89.3968 97.9322C89.1869 97.9743 89.082 98.185 89.082 98.5642L89.082 100.453L88.1993 99.9429L88.1993 95.9925L89.082 96.5021Z" fill="#3A98FF"/>
<path d="M94.4221 99.4746C94.8144 99.7011 95.1269 100.029 95.3595 100.458C95.5967 100.89 95.7153 101.354 95.7153 101.849L95.7153 104.282L94.8326 103.773L94.8326 101.41C94.8326 101.173 94.7825 100.96 94.6821 100.77C94.5817 100.581 94.4403 100.433 94.2579 100.328C94.0572 100.212 93.8998 100.198 93.7857 100.284C93.6763 100.374 93.6215 100.564 93.6215 100.853L93.6215 103.073L92.7389 102.564L92.7389 100.201C92.7389 99.9645 92.6887 99.7511 92.5883 99.5615C92.488 99.3719 92.3466 99.2244 92.1641 99.1191C91.968 99.0058 91.8106 98.994 91.692 99.0835C91.5779 99.1704 91.5209 99.3561 91.5209 99.6405L91.5209 101.861L90.6383 101.351L90.6383 97.4006L91.5209 97.9102L91.5209 98.329C91.7262 98.0946 92.0432 98.1012 92.472 98.3487C92.8962 98.5937 93.2064 98.9624 93.4026 99.4548C93.6261 99.2047 93.9659 99.2112 94.4221 99.4746Z" fill="#3A98FF"/>
<path d="M99.0651 102.732L99.0651 102.266L99.9477 102.775L99.9477 106.726L99.0651 106.216L99.0651 105.75C98.8005 105.982 98.4287 105.959 97.9497 105.683C97.4936 105.42 97.1013 104.993 96.7729 104.403C96.449 103.81 96.2871 103.222 96.2871 102.637C96.2871 102.058 96.449 101.659 96.7729 101.44C97.1013 101.224 97.4936 101.248 97.9497 101.511C98.4287 101.788 98.8005 102.195 99.0651 102.732ZM97.4366 104.107C97.6145 104.415 97.8403 104.648 98.114 104.806C98.3877 104.964 98.6135 104.992 98.7914 104.889C98.9738 104.784 99.0651 104.568 99.0651 104.241C99.0651 103.914 98.9738 103.596 98.7914 103.285C98.6135 102.972 98.3877 102.736 98.114 102.578C97.8403 102.42 97.6145 102.395 97.4366 102.503C97.2587 102.606 97.1697 102.82 97.1697 103.147C97.1697 103.473 97.2587 103.793 97.4366 104.107Z" fill="#3A98FF"/>
<path d="M102.65 104.225C103.029 104.444 103.337 104.766 103.574 105.193C103.82 105.63 103.943 106.102 103.943 106.607L103.943 109.033L103.061 108.523L103.061 106.224C103.061 105.966 102.999 105.73 102.876 105.517C102.757 105.306 102.593 105.14 102.383 105.019C102.151 104.885 101.966 104.862 101.829 104.952C101.697 105.039 101.631 105.243 101.631 105.564L101.631 107.698L100.748 107.188L100.748 103.238L101.631 103.747L101.631 104.19C101.841 103.942 102.18 103.954 102.65 104.225Z" fill="#3A98FF"/>
<path d="M106.095 108.979L106.854 106.763L107.799 107.308L106.553 110.54C106.375 111.006 106.138 111.28 105.842 111.361C105.55 111.451 105.185 111.356 104.747 111.077L104.747 110.129C104.979 110.268 105.166 110.318 105.308 110.279C105.449 110.239 105.561 110.109 105.643 109.888L104.24 105.254L105.205 105.811L106.095 108.979Z" fill="#3A98FF"/>
<path d="M85.6967 134.244C85.6967 136.099 84.1926 137.603 82.3373 137.603C80.482 137.603 78.978 136.099 78.978 134.244C78.978 132.389 80.482 130.885 82.3373 130.885C84.1926 130.885 85.6967 132.389 85.6967 134.244Z" fill="white"/>
<path d="M416.586 2.92847L418.071 6.94083L422.083 8.42553L418.071 9.91024L416.586 13.9226L415.102 9.91024L411.089 8.42553L415.102 6.94083L416.586 2.92847Z" fill="#BCDCFF"/>
<path d="M404.981 20.6412L405.971 23.3161L408.646 24.3059L405.971 25.2958L404.981 27.9707L403.991 25.2958L401.316 24.3059L403.991 23.3161L404.981 20.6412Z" fill="#DAEBFF"/>
</g>
<defs>
<filter id="filter0_i_712_9777" x="-39.5298" y="80.4903" width="435.369" height="240.869" filterUnits="userSpaceOnUse" color-interpolation-filters="sRGB">
<feFlood flood-opacity="0" result="BackgroundImageFix"/>
<feBlend mode="normal" in="SourceGraphic" in2="BackgroundImageFix" result="shape"/>
<feColorMatrix in="SourceAlpha" type="matrix" values="0 0 0 0 0 0 0 0 0 0 0 0 0 0 0 0 0 0 127 0" result="hardAlpha"/>
<feOffset dx="-61" dy="14"/>
<feGaussianBlur stdDeviation="23.5"/>
<feComposite in2="hardAlpha" operator="arithmetic" k2="-1" k3="1"/>
<feColorMatrix type="matrix" values="0 0 0 0 0 0 0 0 0 1 0 0 0 0 1 0 0 0 0.73 0"/>
<feBlend mode="normal" in2="shape" result="effect1_innerShadow_712_9777"/>
</filter>
<filter id="filter1_d_712_9777" x="82.8091" y="-45.1255" width="298.49" height="309.33" filterUnits="userSpaceOnUse" color-interpolation-filters="sRGB">
<feFlood flood-opacity="0" result="BackgroundImageFix"/>
<feColorMatrix in="SourceAlpha" type="matrix" values="0 0 0 0 0 0 0 0 0 0 0 0 0 0 0 0 0 0 127 0" result="hardAlpha"/>
<feOffset dy="4"/>
<feGaussianBlur stdDeviation="24.5"/>
<feComposite in2="hardAlpha" operator="out"/>
<feColorMatrix type="matrix" values="0 0 0 0 0.0666667 0 0 0 0 0.101961 0 0 0 0 1 0 0 0 0.19 0"/>
<feBlend mode="normal" in2="BackgroundImageFix" result="effect1_dropShadow_712_9777"/>
<feBlend mode="normal" in="SourceGraphic" in2="effect1_dropShadow_712_9777" result="shape"/>
</filter>
<linearGradient id="paint0_linear_712_9777" x1="160.837" y1="-3.50504" x2="321.921" y2="120.922" gradientUnits="userSpaceOnUse">
<stop offset="0.0187499" stop-color="#02E1FF"/>
<stop offset="1" stop-color="#101AFF"/>
</linearGradient>
<radialGradient id="paint1_radial_712_9777" cx="0" cy="0" r="1" gradientUnits="userSpaceOnUse" gradientTransform="translate(145.636 9.46457) rotate(79.1375) scale(132.444 168.698)">
<stop offset="0.0187499" stop-color="#02FFE1"/>
<stop offset="1" stop-color="#1C47FC" stop-opacity="0"/>
</radialGradient>
<linearGradient id="paint2_linear_712_9777" x1="310.283" y1="127.407" x2="54.5461" y2="-9.18947" gradientUnits="userSpaceOnUse">
<stop offset="0.182972" stop-color="#0057FF"/>
<stop offset="0.945628" stop-color="#1DFFF1"/>
</linearGradient>
<linearGradient id="paint3_linear_712_9777" x1="272.714" y1="158.089" x2="148.894" y2="224.808" gradientUnits="userSpaceOnUse">
<stop stop-color="#23FBB2"/>
<stop offset="1" stop-color="#1383FE"/>
</linearGradient>
<linearGradient id="paint4_linear_712_9777" x1="288.601" y1="200.657" x2="167.318" y2="263.981" gradientUnits="userSpaceOnUse">
<stop stop-color="#00FFE0" stop-opacity="0.73"/>
<stop offset="1" stop-color="#025FFF" stop-opacity="0"/>
</linearGradient>
<linearGradient id="paint5_linear_712_9777" x1="225.106" y1="4.45539" x2="295.748" y2="144.983" gradientUnits="userSpaceOnUse">
<stop offset="0.201042" stop-color="#00CAFF"/>
<stop offset="1" stop-color="#06FCDF"/>
</linearGradient>
<linearGradient id="paint6_linear_712_9777" x1="103.794" y1="85.8613" x2="103.794" y2="231.67" gradientUnits="userSpaceOnUse">
<stop stop-color="#48FAC9"/>
<stop offset="1" stop-color="#3A98FF"/>
</linearGradient>
<linearGradient id="paint7_linear_712_9777" x1="131.138" y1="6.08075" x2="131.138" y2="66.7999" gradientUnits="userSpaceOnUse">
<stop stop-color="#00CAFF"/>
<stop offset="1" stop-color="#06F5E2"/>
</linearGradient>
<linearGradient id="paint8_linear_712_9777" x1="223.616" y1="191.039" x2="182.632" y2="53.007" gradientUnits="userSpaceOnUse">
<stop stop-color="#E1F0FF"/>
<stop offset="1" stop-color="#E4EEFF" stop-opacity="0"/>
</linearGradient>
<linearGradient id="paint9_linear_712_9777" x1="35.5994" y1="0" x2="35.5994" y2="37.5869" gradientUnits="userSpaceOnUse">
<stop stop-color="white"/>
<stop offset="1" stop-color="#3A98FF" stop-opacity="0"/>
</linearGradient>
<linearGradient id="paint10_linear_712_9777" x1="37.6017" y1="0" x2="37.6017" y2="34.4766" gradientUnits="userSpaceOnUse">
<stop stop-color="white"/>
<stop offset="1" stop-color="#3A98FF" stop-opacity="0"/>
</linearGradient>
<linearGradient id="paint11_linear_712_9777" x1="37.2952" y1="0" x2="37.2952" y2="30.1192" gradientUnits="userSpaceOnUse">
<stop stop-color="white"/>
<stop offset="1" stop-color="#EEF6FF"/>
</linearGradient>
<linearGradient id="paint12_linear_712_9777" x1="44.6523" y1="0" x2="44.6523" y2="46.5608" gradientUnits="userSpaceOnUse">
<stop stop-color="white"/>
<stop offset="1" stop-color="#3A98FF" stop-opacity="0"/>
</linearGradient>
<linearGradient id="paint13_linear_712_9777" x1="47.2589" y1="0" x2="47.2589" y2="42.7079" gradientUnits="userSpaceOnUse">
<stop stop-color="white"/>
<stop offset="1" stop-color="#3A98FF" stop-opacity="0"/>
</linearGradient>
<clipPath id="clip0_712_9777">
<rect width="480" height="264" fill="white"/>
</clipPath>
<clipPath id="clip1_712_9777">
<rect width="14.1229" height="14.1229" fill="white" transform="matrix(0.866025 -0.5 2.20305e-08 1 288.693 133.488)"/>
</clipPath>
<clipPath id="clip2_712_9777">
<rect width="17.6732" height="17.6732" fill="white" transform="matrix(0.866025 0.5 -2.20305e-08 1 58.04 70.7023)"/>
</clipPath>
</defs>
</svg>
