<svg viewBox="0 0 358 60" xmlns="http://www.w3.org/2000/svg" xmlns:xlink="http://www.w3.org/1999/xlink" x="0px" y="0px"
	 style="enable-background:new 0 0 358 60;" xml:space="preserve">
<style type="text/css">
	.st0{fill:#283160;}
	.st1{fill-rule:evenodd;clip-rule:evenodd;fill:url(#SVGID_1_);}
	.st2{fill:url(#SVGID_2_);}
</style>
<path class="st0" d="M77.2,59.2c-4.4,0-8-1.5-10.9-4.4C63.4,51.9,62,48.3,62,44c0-4.3,1.4-7.9,4.3-10.9c2.9-2.9,6.5-4.4,10.9-4.4
	c2.7,0,5.2,0.7,7.6,2c2.3,1.3,4.1,3.1,5.4,5.4l-7.5,4.4c-1-2.2-2.9-3.2-5.6-3.2c-1.9,0-3.4,0.6-4.6,1.9c-1.2,1.2-1.8,2.8-1.8,4.8
	c0,2,0.6,3.6,1.8,4.9c1.2,1.2,2.8,1.8,4.6,1.8c2.7,0,4.6-1.1,5.6-3.2l7.5,4.3c-1.3,2.3-3.1,4.1-5.4,5.5
	C82.5,58.6,79.9,59.2,77.2,59.2z"/>
<path class="st0" d="M117.5,54.8c-2.9,2.9-6.5,4.4-10.8,4.4c-4.3,0-7.9-1.5-10.8-4.4c-2.9-3-4.4-6.6-4.4-10.9
	c0-4.2,1.5-7.8,4.4-10.8c2.9-3,6.5-4.4,10.8-4.4c4.2,0,7.8,1.5,10.8,4.4c2.9,3,4.4,6.6,4.4,10.8C122,48.3,120.5,51.9,117.5,54.8z
	 M100.2,44c0,2,0.6,3.6,1.9,4.9c1.3,1.3,2.8,1.9,4.7,1.9c1.9,0,3.4-0.6,4.7-1.9c1.3-1.3,1.9-2.9,1.9-4.9c0-2-0.6-3.6-1.9-4.9
	c-1.3-1.3-2.8-1.9-4.7-1.9c-1.9,0-3.4,0.6-4.7,1.9C100.8,40.4,100.2,42,100.2,44z"/>
<path class="st0" d="M134.4,38c0,0.5,0.4,0.9,1.2,1.3c0.8,0.3,2.1,0.8,3.8,1.2c6.1,1.3,9.1,4.4,9.1,9.2c0,3.1-1.1,5.5-3.4,7.1
	c-2.3,1.6-5.2,2.4-8.5,2.4c-6,0-10.1-2.3-12.3-6.9l7.4-4.3c0.8,2.3,2.4,3.4,4.9,3.4c2.1,0,3.1-0.6,3.1-1.8c0-0.8-1.7-1.7-5-2.5
	c-1.2-0.3-2.3-0.7-3.2-1c-0.9-0.4-1.8-0.9-2.9-1.6c-1-0.7-1.8-1.6-2.3-2.7c-0.5-1.1-0.8-2.3-0.8-3.7c0-3,1.1-5.3,3.2-7
	c2.1-1.7,4.8-2.5,8-2.5c5,0,8.7,2.1,11.2,6.2l-7.3,4c-0.9-1.7-2.2-2.5-3.8-2.5C135.2,36.4,134.4,36.9,134.4,38z"/>
<path class="st0" d="M185.1,28.7c3.2,0,5.9,1.1,7.9,3.3c2,2.1,3,5,3,8.7v17.7h-8.6v-17c0-1.5-0.4-2.7-1.1-3.5
	c-0.7-0.8-1.7-1.3-3-1.3c-1.4,0-2.5,0.5-3.3,1.4c-0.8,1-1.1,2.3-1.1,4v16.3h-8.6v-17c0-1.5-0.4-2.7-1.1-3.5c-0.7-0.8-1.7-1.3-3-1.3
	c-1.4,0-2.5,0.5-3.3,1.4c-0.8,1-1.1,2.3-1.1,4v16.3h-8.6V29.6h8.6v2.7c1.6-2.3,4.1-3.5,7.7-3.5c3.3,0,5.8,1.3,7.5,3.8
	C178.6,30,181.4,28.7,185.1,28.7z"/>
<path class="st0" d="M226.4,54.8c-2.9,2.9-6.5,4.4-10.8,4.4c-4.3,0-7.9-1.5-10.8-4.4c-2.9-3-4.4-6.6-4.4-10.9
	c0-4.2,1.5-7.8,4.4-10.8c2.9-3,6.5-4.4,10.8-4.4c4.2,0,7.8,1.5,10.8,4.4c2.9,3,4.4,6.6,4.4,10.8C230.8,48.3,229.4,51.9,226.4,54.8z
	 M209.1,44c0,2,0.6,3.6,1.9,4.9s2.8,1.9,4.7,1.9c1.9,0,3.4-0.6,4.7-1.9c1.3-1.3,1.9-2.9,1.9-4.9c0-2-0.6-3.6-1.9-4.9
	c-1.3-1.3-2.8-1.9-4.7-1.9c-1.9,0-3.4,0.6-4.7,1.9C209.7,40.4,209.1,42,209.1,44z"/>
<path class="st0" d="M256.5,32.3v-5.7c0-4.7,3.8-8.6,8.6-8.6l0,0v40.4h-8.6v-2.7c-2,2.3-4.8,3.5-8.5,3.5c-3.8,0-7-1.5-9.7-4.4
	c-2.7-2.9-4-6.5-4-10.9c0-4.3,1.3-7.9,4-10.8c2.7-3,5.9-4.4,9.7-4.4C251.6,28.7,254.5,29.9,256.5,32.3z M242.8,44
	c0,2.2,0.6,3.9,1.9,5.1c1.3,1.3,2.9,1.9,4.9,1.9c2,0,3.7-0.6,4.9-1.9c1.3-1.3,1.9-3,1.9-5.1c0-2.2-0.6-3.9-1.9-5.1
	c-1.3-1.3-2.9-1.9-4.9-1.9c-2,0-3.7,0.6-4.9,1.9C243.5,40.1,242.8,41.8,242.8,44z"/>
<path class="st0" d="M292.2,32.3v-2.7h8.6v28.9h-8.6v-2.7c-2,2.3-4.8,3.5-8.5,3.5c-3.8,0-7-1.5-9.7-4.4c-2.7-2.9-4-6.5-4-10.9
	c0-4.3,1.3-7.9,4-10.8c2.7-3,5.9-4.4,9.7-4.4C287.3,28.7,290.2,29.9,292.2,32.3z M278.5,44c0,2.2,0.6,3.9,1.9,5.1
	c1.3,1.3,2.9,1.9,4.9,1.9c2,0,3.7-0.6,4.9-1.9c1.3-1.3,1.9-3,1.9-5.1c0-2.2-0.6-3.9-1.9-5.1c-1.3-1.3-2.9-1.9-4.9-1.9
	c-2,0-3.7,0.6-4.9,1.9C279.2,40.1,278.5,41.8,278.5,44z"/>
<path class="st0" d="M323.9,29.6v8.3H318v10.2c0,1.1,0.4,1.8,1.3,2.2c0.9,0.3,2.4,0.4,4.6,0.3v7.9c-5.4,0.6-9.2,0.1-11.3-1.6
	c-2.1-1.7-3.2-4.6-3.2-8.8V37.9h-4.6v-8.3h4.6l0,0c0-3.3,2.1-6.1,5.3-7.1l3.3-1v8.1H323.9z"/>
<path class="st0" d="M349,32.3v-2.7h8.6v28.9H349v-2.7c-2,2.3-4.8,3.5-8.5,3.5c-3.8,0-7-1.5-9.7-4.4c-2.7-2.9-4-6.5-4-10.9
	c0-4.3,1.3-7.9,4-10.8c2.7-3,5.9-4.4,9.7-4.4C344.1,28.7,347,29.9,349,32.3z M335.3,44c0,2.2,0.6,3.9,1.9,5.1
	c1.3,1.3,2.9,1.9,4.9,1.9c2,0,3.7-0.6,4.9-1.9c1.3-1.3,1.9-3,1.9-5.1c0-2.2-0.6-3.9-1.9-5.1c-1.3-1.3-2.9-1.9-4.9-1.9
	c-2,0-3.7,0.6-4.9,1.9C336,40.1,335.3,41.8,335.3,44z"/>
<radialGradient id="SVGID_1_" cx="-742.7936" cy="547.142" r="1.4372" fx="-743.8293" fy="548.1384" gradientTransform="matrix(20.5477 -1.212 -1.1434 -19.383 15895.5146 9725.6396)" gradientUnits="userSpaceOnUse">
	<stop  offset="0" style="stop-color:#2595FF"/>
	<stop  offset="0.5146" style="stop-color:#40FFC6"/>
	<stop  offset="1" style="stop-color:#2499FF"/>
</radialGradient>
<path class="st1" d="M42,38.6C42,27.2,32.8,18,21.4,18S0.8,27.2,0.8,38.6C0.8,50,10,59.2,21.4,59.2S42,50,42,38.6z M30.9,38.6
	c0-5.2-4.2-9.4-9.4-9.4S12,33.4,12,38.6s4.2,9.4,9.4,9.4S30.9,43.8,30.9,38.6z"/>
<linearGradient id="SVGID_2_" gradientUnits="userSpaceOnUse" x1="36.5834" y1="22.8333" x2="36.5834" y2="57.4167" gradientTransform="matrix(1 0 0 -1 0 62)">
	<stop  offset="0.2862" style="stop-color:#2499FF"/>
	<stop  offset="1" style="stop-color:#05D6FF"/>
</linearGradient>
<path class="st2" d="M31.2,39.2V10.8C31.2,4.9,36,0,42,0l0,0v39.2H31.2z"/>
</svg>
