<svg width="34" height="35" fill="none" xmlns="http://www.w3.org/2000/svg"><path d="M29.512 7.89c-5.243-3.32-9.485-1.795-10.958-1.733-1.472.062-1.988.128-1.988.128S8.104 4.685 4.66 9.618C1.217 14.552-.212 18.208.692 20.836c.904 2.628 8.14 11.857 9.55 12.628 1.412.772 3.912 1.535 5.19 1.217 1.28-.317 2.373-1.472 3.784-1.089 1.41.384 3.65 1.407 4.744.706 1.094-.701 3.907-4.41 4.035-5.772l.026-.309-.026.022-.622.335a6.944 6.944 0 00-.882-.238c-.348.236-.668.51-.957.816l-.485 1.296-1.053.441s-2.117-.242-2.262-.29c-.146-.05-2.205-.442-2.205-.442L15.97 29.1l-.771-2.835-1.2-2.981.53-2.597 2.063-1.764 3.559-1.733.82-.19.383-.771-.242-.675.917-.573 1.102.335c.146.049 2.549.53 2.694.626.188.106.38.202.578.287l.767-.287 1.394-.577 2.79-.48.093-.336h.441s.67.335.72.48a.592.592 0 01-.146.525 4.618 4.618 0 00-.287 1.063l.304.573c.512-.44.64-1.666.64-1.666s3.4-3.215-3.607-7.633z" fill="#D81F26"/><path d="M29.512 7.89c-5.243-3.32-9.485-1.795-10.958-1.733-1.472.062-1.988.128-1.988.128S8.104 4.685 4.66 9.618C1.217 14.552-.212 18.208.692 20.836c.904 2.628 8.14 11.857 9.55 12.628 1.412.772 3.912 1.535 5.19 1.217 1.28-.317 2.373-1.472 3.784-1.089 1.41.384 3.65 1.407 4.744.706 1.094-.701 3.907-4.41 4.035-5.772l.026-.309-.026.022-.622.335a6.944 6.944 0 00-.882-.238c-.348.236-.668.51-.957.816l-.485 1.296-1.053.441s-2.117-.242-2.262-.29c-.146-.05-2.205-.442-2.205-.442L15.97 29.1l-.771-2.835-1.2-2.981.53-2.597 2.063-1.764 3.559-1.733.82-.19.383-.771-.242-.675.917-.573 1.102.335c.146.049 2.549.53 2.694.626.188.106.38.202.578.287l.767-.287 1.394-.577 2.79-.48.093-.336h.441s.67.335.72.48a.592.592 0 01-.146.525 4.618 4.618 0 00-.287 1.063l.304.573c.512-.44.64-1.666.64-1.666s3.4-3.215-3.607-7.633zm-4.679 2.205c-.352.44-.996.586-1.49.78a14.75 14.75 0 01-3.263.93c-.32.025-.641.025-.961 0-.653 0-.93.375-1.085.98-.256 1.031-.683 2.107-.723 3.178-.027.604.212 1.486-.353 1.927-.64.494-1.164-.511-1.764.04-.6.551-.19 1.535-1.825 2.787-.75.573-.238 2.526.075 3.435.313.908.824 1.847 1.107 2.808.22.768.326 2.258 1.045 2.734.488.276.995.52 1.516.728.565.269 1.486 1.027.477 1.495-.728.335-1.574.326-2.227.824-.49.375-1.036.798-1.684.767a8.11 8.11 0 01-4.295-1.662c-1.447-1.133-2.39-2.88-3.369-4.41-.648-1.01-1.288-2.023-1.967-3.015a24.74 24.74 0 01-1.733-2.589c-.802-1.565-1.22-3.24-.815-4.982a17.434 17.434 0 012.099-4.886c.829-1.393 1.763-2.606 3.214-3.373.393-.207.798-.391 1.213-.551a11.53 11.53 0 013.845-1.297c1.292-.158 3.086-.075 4.206.644a.146.146 0 010 .251c-.617.463-2.077 1.716-.957 2.417.646.353 1.373.53 2.108.511 1.997.04 3.501-1.283 5.243-2.068.785-.352 2.24-1.591 2.518 0 .066.472.18 1.2-.155 1.605v-.008z" fill="#C43027"/><path d="M21.111 8.9a6.848 6.848 0 00-3.673-.882 4.41 4.41 0 00-1.944.618c-.745.44-.573 1.093-.102 1.556a4.408 4.408 0 001.835.366 5.375 5.375 0 002.354-.551 5.882 5.882 0 001.53-1.107z" fill="#C43027"/><path d="M32.444 15.544a.591.591 0 00.146-.524c-.049-.146-.72-.48-.72-.48h-.44l-.093.334-2.79.48-1.39.578-.767.287a5.977 5.977 0 01-.578-.287c-.145-.097-2.548-.577-2.694-.626l-1.102-.335-.917.573.242.675-.383.772-.82.19-3.559 1.732-2.064 1.764-.529 2.597 1.2 2.98.771 2.836 3.559 1.058s2.063.384 2.204.441c.142.058 2.262.291 2.262.291l1.054-.44.485-1.297c.288-.306.61-.58.957-.816.299.06.594.14.882.238l.622-.335.026-.022c.075-1.234-.11-2.385-.344-2.447-.233-.062-1.41 0-2.116-.322-.706-.322-.882-1.728-.882-1.728s.26-1.09.578-1.217c.317-.128.577-1.284.643-1.473a3.792 3.792 0 011.729-1.094c.644-.128.882-.19.961-.44.08-.252.066-1.345.772-1.213.705.132.511.062 1.278-.26.768-.322 1.35-.384 1.861-.834l-.304-.573a4.64 4.64 0 01.26-1.063z" fill="#F5D9B3"/><path d="M19.793 9.557a4.267 4.267 0 01-2.914.269c-.94-.225-1.579-.922-.856-1.892 0-.022 0-.035-.03 0-.292.282-.882.644-.949 1.093a.935.935 0 00.481.962c1.213.696 3.14.44 4.3-.318.048-.048.043-.15-.032-.114z" fill="#C43027"/><path d="M20.279 19.866c-.428.188-.81.466-1.12.816-.794.789-1.566-.203-2.271-.49.493.503.846 1.19 1.631 1.173.254-.023.492-.136.67-.317.352-.39.725-.761 1.116-1.112.035-.035.03-.097-.026-.07zm5.586-1.288c-.568.11-.568-.467-.771-.82-.11-.198-.393-.234-.591-.234-.723 0-1.151.68-1.64 1.094-.036.026-.04.097.022.075.608-.23 1.322-.953 1.944-.326.132.136.203.374.441.4.211.04.429 0 .613-.11.013-.013.053-.079-.018-.079zm1.728-.075c-.048 0-.132.066-.083.106.05.043.085.1.101.163.027.075.062.145.141.154a.11.11 0 00.102-.092c.022-.142-.155-.291-.26-.331zm-3.695 2.007c0-.032-.035-.023-.048 0a3.267 3.267 0 00-.516 1.56c.045.857.159 1.71.34 2.549 0 .101.14 0 .14-.062-.008-1.34-.22-2.743.084-4.048zm-2.469.414c0-.031-.04 0-.049 0-.348 1.067-.07 2.38.212 3.43 0 .097.141 0 .137-.061-.035-1.098-.485-2.271-.3-3.37zm-2.549 1.472c0-.026-.04 0-.04 0a5.803 5.803 0 00.442 3.215c.066.123.234-.03.225-.132-.133-1.032-.485-2.05-.626-3.082zm-2.897 1.354c-.132-.665-.07-1.358-.211-2.023.048.608-.075 1.212-.04 1.82.059.811.206 1.613.441 2.39.035.137.216 0 .203-.092-.102-.706-.26-1.393-.393-2.095zm2.973 3.594a4.788 4.788 0 01-1.093.596c-.516.15-1.037-.252-1.354-.604.233.4.6.956 1.124.979a1.765 1.765 0 001.455-.82c.07-.098.005-.234-.132-.15zm3.324-.635c-.216.114-.388.29-.604.406a1.437 1.437 0 01-1.058.04c-.022 0-.053.026-.036.048a1.07 1.07 0 001.874-.331c.031-.115-.048-.23-.176-.163zm2.703-.957c-.203 0-.352.146-.502.256-.227.153-.49.243-.763.26-.04 0-.08.084-.022.092.25.063.513.07.767.023a.838.838 0 00.6-.477c.017-.066-.01-.145-.08-.154zm-.33 3.435c-.22.137-.441.274-.67.388-.137.07-.265.15-.402.212-.136.062-.171.057-.233.141-.062.084 0 .106 0 .115.11 0 .216.066.33.066.173-.005.343-.04.503-.102a1.094 1.094 0 00.635-.7c.062-.146-.062-.181-.163-.12zm-7.827-7.963a.09.09 0 00-.027-.04c0-.057-.097 0-.123.031a.105.105 0 00-.062.062l-.036.031a.178.178 0 00-.044.08c-.04.14.164.105.177 0h.048a.088.088 0 10.067-.164zm-1.472.441a.595.595 0 00-.41.362c-.08.194.04.44.277.4a.44.44 0 00.344-.339v-.026a.485.485 0 00.031-.07.222.222 0 00-.242-.327zm8.169 6.208c-.026 0-.022 0 0 0a.304.304 0 00-.291.256.143.143 0 00.043.13.141.141 0 00.134.033.345.345 0 00.247-.238c.035-.092-.014-.216-.133-.18zm2.854-.864c-.128 0-.247.247-.093.247s.256-.247.093-.247z" fill="#D1A37E"/><path d="M6.172 13.225a.52.52 0 00.093-.507.344.344 0 00-.397-.168.838.838 0 00-.613.83c.01.081.047.157.106.215a.393.393 0 00.44.04.605.605 0 00.358-.397l.013-.013zm.217 2.963c-.067-.03-.155.075-.124.132.031.058.031.089.066.106a.121.121 0 00.088-.026c.115-.075.062-.163-.03-.212zm4.197 4.846c-.11-.167-.304-.083-.44.027-.138.11-.31.498-.107.688a.208.208 0 00.199.044.287.287 0 00.216-.106.63.63 0 00.154-.344.468.468 0 00-.022-.309zm3.564-3.224c-.19 0-.375.375-.137.375s.38-.374.137-.374zm-2.126 3.361c0-.097-.128-.057-.172 0-.044.057-.07.159.027.168h.061a.095.095 0 00.065-.03.093.093 0 00.024-.067s-.005-.049-.005-.07zm.789-.242a.084.084 0 00-.04-.022.171.171 0 00-.088-.027c-.115-.106-.295.062-.318.19a.4.4 0 000 .101.164.164 0 00.045.141.203.203 0 00.202.044.336.336 0 00.239-.216.198.198 0 00-.04-.211zm.635 9.956c-.079-.08-.247.08-.19.167a.175.175 0 01.036.097.079.079 0 00.07.067.159.159 0 00.15-.11.211.211 0 00-.066-.221zm2.284 1.027h-.066c-.154 0-.255.27-.061.256h.066c.123-.018.211-.243.062-.256zm5.693-.572a.15.15 0 00-.128-.089c0-.185-.295-.04-.3.102a.477.477 0 010 .08.278.278 0 00-.048.158.136.136 0 000 .163.15.15 0 00.167.066.311.311 0 00.089-.035.374.374 0 00.233-.282.225.225 0 00-.013-.163zm.983 1.723a.173.173 0 00-.146-.088c-.202-.026-.326.361-.083.33a.304.304 0 00.163-.07c.066-.035.106-.106.066-.172zm.375-.493c-.137 0-.278.277-.097.277.181 0 .274-.278.097-.278zm7.042-20.703a.577.577 0 00-.613-.238c-.441.04-.882.591-.648 1.005a.468.468 0 00.304.234.507.507 0 00.604-.101c.11-.087.206-.191.282-.309a.63.63 0 00.07-.59zm.991-.692c-.286 0-.568.569-.207.569.291 0 .569-.57.207-.57zm.539 1.765c-.16-.089-.353.105-.402.237a.186.186 0 00.044.232.186.186 0 00.076.037h.04a.251.251 0 00.237-.048c.159-.11.212-.349.005-.459z" fill="#C43027"/><path d="M17.152 8.093c0 .494-.185.988-.172 1.481a.705.705 0 00.058.256c.23.06.464.107.7.141a.722.722 0 00.168-.163c.216-.29.203-.802.326-1.129a5.34 5.34 0 00.274-1.662c.04-1.323-.596-2.544-.94-3.775-.11-.405-.334-.881-.057-1.287.101-.132.176-.281.22-.441A1.383 1.383 0 0017.54.416a2.205 2.205 0 00-1.87-.265s0-.03-.03-.022c-.772.322-.499 1.169-.186 1.711.737 1.27 1.425 2.24 1.623 3.744.09.833.115 1.672.075 2.509z" fill="#76533F"/><path d="M15.64.138a.798.798 0 00-.406.344c.027.146.366.207.582.318.512.251.754.608 1.363.247.18-.102.353-.203.534-.3a.648.648 0 00-.172-.322A2.205 2.205 0 0015.67.16s-.009-.03-.031-.022z" fill="#523929"/><path d="M17.337 4.561a13.279 13.279 0 00-.771-1.847c-.309-.604-.78-1.103-1.076-1.72h-.031c.172 1.19.882 2.086 1.323 3.188.586 1.473.44 2.972.608 4.515 0 .049.075 0 .075-.026.115-1.407.331-2.734-.128-4.11zm-.882-3.96c-.066-.03-.132-.053-.194-.088-.154-.075-.343-.084-.493-.172.117.176.287.312.485.388.11.04.22.07.33.106A1.72 1.72 0 0016.455.6z" fill="#76533F"/><path d="M32.444 15.544a.591.591 0 00.146-.524c-.049-.146-.72-.48-.72-.48h-.44l-.093.334-2.79.48-1.39.578-.767.287a5.977 5.977 0 01-.578-.287c-.145-.097-2.548-.577-2.694-.626l-1.102-.335-.917.573.242.675-.383.772-.82.19-3.559 1.732-2.064 1.764-.529 2.597 1.2 2.98.771 2.836 3.559 1.058s2.063.384 2.204.441c.142.058 2.262.291 2.262.291l1.054-.44.485-1.297c.288-.306.61-.58.957-.816.299.06.594.14.882.238l.622-.335.026-.022c.075-1.234-.11-2.385-.344-2.447-.233-.062-1.41 0-2.116-.322-.706-.322-.882-1.728-.882-1.728s.26-1.09.578-1.217c.317-.128.577-1.284.643-1.473a3.792 3.792 0 011.729-1.094c.644-.128.882-.19.961-.44.08-.252.066-1.345.772-1.213.705.132.511.062 1.278-.26.768-.322 1.35-.384 1.861-.834l-.304-.573a4.64 4.64 0 01.26-1.063zm-9.776 1.535a.926.926 0 01.675-.74c.468-.098.944.273 1.274.546a.145.145 0 01.018.184.144.144 0 01-.049.045c-.511.38-1.075.67-1.6 1.027a.159.159 0 01-.084.023.217.217 0 01-.287-.146c-.081-.31-.063-.64.053-.94zm.94 2.645a.145.145 0 01.242.142c0 .07-.03.136-.048.203a.138.138 0 010 .119c-.565 1.922-.12 3.796.136 5.732a.15.15 0 01-.22.123c-1.989-1.354-1.892-4.797-.11-6.305v-.014zm-2.443.715a20.398 20.398 0 00.123 3.197.141.141 0 01-.04.128c.172.876.389 1.742.649 2.597a.145.145 0 01-.141.185c-1.24-.035-1.557-1.482-1.61-2.487-.057-1.155 0-2.734.75-3.695a.145.145 0 01.17-.062.146.146 0 01.099.15v-.013zm-3.047-.723c.604-.468 1.631-1.067 2.425-.86a.14.14 0 01.109.148.14.14 0 01-.02.063c-.34.5-.754.947-1.227 1.323-.321.256-.74.582-1.168.49a.481.481 0 01-.49-.296.825.825 0 01.37-.855v-.013zm-.225 7.853c-.52-.441.097-1.848.194-2.35.225-1.173-.361-2.364.309-3.48a.146.146 0 01.269.076v.18a.16.16 0 01.136.181 3.733 3.733 0 00-.022.913c0 .04 0 .084.022.132a.114.114 0 010 .066c.089.644.287 1.275.41 1.932.128.433.116.896-.035 1.322-.159.446-.666 1.561-1.283 1.041v-.013zm7.602.137c.066-.366-.058-.856.18-1.173.17-.187.391-.32.636-.384.099-.053.204-.095.313-.123h.026a.194.194 0 01.084 0c.127-.02.256-.02.383 0 .12 0 .124.167.062.242-.207.256-.533.37-.74.626-.208.256-.442.63-.68.948a.146.146 0 11-.264-.123v-.014zm-.287-.697a.15.15 0 01.22.128c-.026.44.186.939-.065 1.322a3.224 3.224 0 01-.856.763 1.21 1.21 0 01-.913.349c-.732-.168-1.49.163-2.204.233a.146.146 0 01-.141-.105c-.066-.22-.124-.441-.203-.657a3.677 3.677 0 01-2.355-.172c-.106-.036-.159-.212-.035-.265.423-.26.865-.486 1.323-.679.498-.132.939.309 1.415.247.137 0 .569-.564.785-.48.507.193.64.599 1.27.55.582-.405 1.164-.798 1.76-1.22v-.014zm-.696-3.933a.15.15 0 01-.252 0c-.419-.697-.234-1.588.128-2.337.146-.613.547-1.323 1.217-1.323a.154.154 0 01.146.145c.052 1.34-.516 2.46-1.24 3.528v-.013zm5.683-5.67c-.419.145-.807.493-1.248.56a1.108 1.108 0 01-.529-.045.137.137 0 01-.163 0c-.18-.106-.71-.366-.56-.67.15-.304.569-.282.83-.335.52-.106 1.507-.357 1.763.295a.15.15 0 01-.093.207v-.013z" fill="#F5D9B3"/><path d="M5.3 21.665c-.741.159-1.486.304-2.232.441.701 1.195 1.504 2.35 2.024 3.087.172.242.344.498.512.758.167-.19.344-.38.516-.564a11.465 11.465 0 01-.82-3.722zm.934-7.985a8.299 8.299 0 013.22-4.357 26.363 26.363 0 012.54-1.565l-1.712-.044s-4.228 1.2-5.622 3.408c-1.393 2.21-3.086 5.87-2.98 7.598.034.39.124.773.268 1.137 1.063 0 2.126-.132 3.188-.233a18.475 18.475 0 011.098-5.944z" fill="#E84365" opacity=".7"/></svg>