<svg width="945" height="447" fill="none" xmlns="http://www.w3.org/2000/svg"><path d="M171.598 35.993c-29.998-2.621-67.125-8.316-99.164-13.844-34.057-5.877-51.085-8.815-61.76.175C0 31.314 0 48.292 0 82.247V387c0 28.284 0 42.426 8.787 51.213C17.574 447 31.716 447 60 447h825c28.284 0 42.426 0 51.213-8.787C945 429.426 945 415.284 945 387V73.27c0-24.895 0-37.343-7.547-45.86-7.547-8.517-19.747-9.995-44.149-12.953C848.624 9.042 783.704 2.07 734.731.545 512.22-6.382 393.301 55.363 171.598 35.993z" fill="#E2FCFF"/></svg>