<svg width="290" height="455" fill="none" xmlns="http://www.w3.org/2000/svg"><path d="M225.473.545C157.189-6.382 120.696 55.363 52.66 35.993c-19.321-5.5-28.981-8.251-33.463-7.676-9.127 1.173-13.79 4.693-17.416 13.15C0 45.62 0 53.115 0 68.104V411c0 20.742 0 31.113 6.444 37.556C12.887 455 23.258 455 44 455h202c20.742 0 31.113 0 37.556-6.444C290 442.113 290 431.742 290 411V49.34c0-13.895 0-20.842-3.997-26.533-3.997-5.69-10.042-7.87-22.13-12.23-12.316-4.443-26.813-8.856-38.4-10.032z" fill="#E2FCFF"/></svg>