<svg xmlns="http://www.w3.org/2000/svg" viewBox="0 0 188.24 158.81"><defs><style>.cls-1{fill:#dbb398}.cls-2{fill:#e9c5ad}.cls-3{opacity:.5}.cls-4{fill:#e8dddd}.cls-6{fill:#f6d7c0}</style></defs><g id="Слой_2" data-name="Слой 2"><g id="Слой_1-2" data-name="Слой 1"><path class="cls-1" d="M87.43 152.17l8-2.73 9.24-7.2-.45-9zm25.98-37.82c.14.18 4.46 1.46 4.46 1.46s1.82-3 1.91-3.11l5.79-3.65-.94-.11zm19.05-4.54l.83-.63.5 3.55s-4.85 2.78-4.92 3l-.27 2-2.31-.13 1.54-3.22zm-31.92-2.94L103 105l2.59.85-2.84 2.45s.69.54.52.68l-6.81 5.83-1.24.22-.23.94-2.17-.76s-1.83-8.86-1.81-8.83 6 5.16 6 5.16zm72.58-52.64h6.75l2.67-2.42 2.65-.47 3.05-1.8-1.91-7.82z"/><path class="cls-2" d="M173.12 54.23a40.3 40.3 0 004.29-6l3-5.82 1.23.57 1.2-1.65 3.45.33.48 7.55-3.37.88-3.28 2.8s-7.75 2.69-7 1.34zm-81.87 52.05l6.61.21c.62 0 5.23-1.47 5.23-1.47l-1.85 3.74-6.39 6.24-2.08-.5zM126.5 117a42.41 42.41 0 011-6.24 19.13 19.13 0 002.73 0l3.13-1.76-.4 3-4.11 3.13zm-13.09-2.65c.39.19 4 .8 4 .8l2.24-2.93 4.94-3.28-5.5.4-2.86-1zm-20.26 25.19l8.95-6.35 2.16.05v8.54s-7.62 6.06-8.92 6.82-8 3.5-8 3.5l1.48-2.58 4.91-8.37z"/><path class="cls-2" d="M94.21 121.63s-5.59 2.42-7.68 3.14c-.48-1-1-3.12-1.56-4A139.88 139.88 0 0068.66 119a165.12 165.12 0 004.9-22.15 47 47 0 00-7.25-.93c.2-.6 1.42-4.3 1.08-4.43a98.18 98.18 0 00-18.75-2.3c-.65 0-13.06-14.34-13-14.36S30.15 56 29.84 55c-1.8-4-6.77 4.58-10.33 11.14a103.3 103.3 0 00-10.45 30C7 107.45 5.48 119.18 8.34 130.7a36.85 36.85 0 0012.08 19.58 36 36 0 0021.2 8.48c15.9.79 30.83-8.28 33.64-10 5.46-3.39 28.27-20.76 30.75-25.57 0 0-5 2.37-5 2.28-1.73-.96-6.75-3.84-6.8-3.84z"/><path class="cls-2" d="M94.2 121.63s-5.59 2.42-7.67 3.14c-.48-1-1-3.12-1.56-4A139.9 139.9 0 0068.66 119a163.55 163.55 0 004.89-22.15 49.24 49.24 0 00-7.25-.93c.21-.59 1.43-4.29 1.09-4.43a99.8 99.8 0 00-18.75-2.3c-.65 0-13.06-14.33-13-14.36S30.15 56 29.84 55c-1.8-4-6.77 4.58-10.33 11.14a103.3 103.3 0 00-10.45 30c-2.06 11.31-3.59 23.05-.72 34.57a36.7 36.7 0 0012.08 19.59 35.84 35.84 0 0021.19 8.46c8.7.41 30.84-8.27 33.64-10 5.47-3.39 28.28-20.75 30.76-25.57 0 0-5 2.37-5 2.29-1.73-.97-6.75-3.84-6.81-3.85z"/><g class="cls-3"><path class="cls-2" d="M94.2 121.62s-5.59 2.43-7.68 3.15c-.48-1-1-3.12-1.55-4A140.11 140.11 0 0068.66 119l1.26-4.52A47.81 47.81 0 0141 105.64C25.36 93.93 20.81 73 26.14 55.29a60 60 0 00-6.64 10.55 103.3 103.3 0 00-10.45 30c-2.05 11.36-3.58 23.1-.72 34.62a36.76 36.76 0 0012.08 19.59 35.87 35.87 0 0021.2 8.46c8.7.41 30.83-8.27 33.64-10 5.47-3.39 28.27-20.75 30.76-25.57 0 0-5 2.37-5 2.29-1.74-.72-6.75-3.6-6.81-3.61z"/></g><path class="cls-2" d="M94.05 127.78a122.36 122.36 0 01-13.33 3.57A79.53 79.53 0 0170.33 137s-6.43-3.31-8.7-4.68c-2.43.15-9.68.34-9.7.31s-2.55-5.44-2.58-5.47a111.32 111.32 0 01-12-3.35s3.29-17.1 3.6-20c-3.52-.91-11.45-2.67-11.48-2.7s1.44-19.08 1.83-22.59c-.67-.51-7.69-4.82-7.68-4.88a109.61 109.61 0 013.23-19.08c-11.36 9.79-22.06 29.38-25.7 47.56-7.39 37.19 22.64 57.28 39.27 56.63a79.79 79.79 0 0034.64-10.15c5.45-3.39 28.27-20.76 30.75-25.58 0 0-5 2.38-5 2.29s-4.37 1.69-6.76 2.47z"/><g class="cls-3"><path class="cls-4" d="M94.05 127.77a117.75 117.75 0 01-11.7 3.23c-1.1.21-3.36 3.73-4.27 4.57a58.57 58.57 0 01-5.74 4.82A66.34 66.34 0 0161.52 147c-17.23 8.3-43.36 6.57-55.52-10.45 5.64 12.07 22.19 21.55 35.57 21.93a63.14 63.14 0 0033.64-10c5.46-3.39 28.27-20.76 30.76-25.57 0 0-5 2.37-5 2.28s-4.53 1.81-6.92 2.58z"/></g><path class="cls-2" d="M134.22.48c-2.23 2.2-6.51 15.66-7.1 17-1.32-.12-7.75-3.37-7.86-2.65-.44 2.81.29 12.71.16 14.46-3.86-.31-13.08-1.78-13.22-1.53a207.13 207.13 0 00.74 22.13c-.23.18-12.11 1.71-12.48 2.15s-1.09 13.07-2.56 15.7c0 0-6.27 4.12-6.21 4.21.41.9 1.6 3.64 2.83 5.86a9.84 9.84 0 01-6 6l-.41.31a44.28 44.28 0 0023.22-2.27 50.91 50.91 0 0030-24.17 61.52 61.52 0 006.64-15 47.05 47.05 0 001.7-11.41 62.42 62.42 0 00-3.31-20.55A49.52 49.52 0 00134.84.25a.93.93 0 00-.62.23z"/><path class="cls-2" d="M134.22.48c-2.23 2.2-6.51 15.66-7.1 17-1.32-.12-7.75-3.37-7.86-2.65-.44 2.81.29 12.71.16 14.46-3.86-.31-13.08-1.78-13.22-1.53a207.13 207.13 0 00.74 22.13c-.23.18-12.11 1.71-12.48 2.15s-1.09 13.07-2.56 15.7c0 0-6.27 4.12-6.21 4.21.41.9 1.6 3.64 2.83 5.86a9.84 9.84 0 01-6 6l-.41.31a44.28 44.28 0 0023.22-2.27 50.91 50.91 0 0030-24.17 61.52 61.52 0 006.64-15 47.05 47.05 0 001.7-11.41 62.42 62.42 0 00-3.31-20.55A49.52 49.52 0 00134.84.25a.93.93 0 00-.62.23z"/><path class="cls-2" d="M148.17 13a90 90 0 00-11-11.44 14.91 14.91 0 00-2-1.44.73.73 0 00-.41-.09.64.64 0 00-.38.15.81.81 0 00-.25.33.78.78 0 000 .43 104.92 104.92 0 013.78 13 69 69 0 011.54 8.55 51.73 51.73 0 00-7.87-1.49c2 5.85 4.28 12.58 6.19 18.41-4 1-13 2.12-13 2.53A132.6 132.6 0 00129 56.3c-1.35-.53-11.64-5-12.85-5.3a39.62 39.62 0 00-.62 9.17c-1.23-.18-4.13-1.08-4.33-.78-2.41 3-9.24 12.25-10.62 13.89L90.66 76s.32 8.2.3 8.22a67.39 67.39 0 00-8.64-.16 11.3 11.3 0 003.49 3.66 58.5 58.5 0 0020 10.17 56.39 56.39 0 0022.09 1.75 46.09 46.09 0 0031.38-19.09 43.47 43.47 0 007-18.48 45.5 45.5 0 00-1.74-20A93.28 93.28 0 00148.17 13z"/><path class="cls-4" d="M148.17 13a89.35 89.35 0 00-11-11.43 14.27 14.27 0 00-2-1.45c-.55-.35 11.39 7.89 24.3 32.2a71.11 71.11 0 015.16 17.25 39 39 0 01-4.22 23.58 37.55 37.55 0 01-17.15 16.26c-12.15 6.11-26.88 4.14-39.34-1.37a39.66 39.66 0 01-13.21-9.36c.1 2.41.26 5.64.23 5.66a65.73 65.73 0 00-8.65-.15 11.62 11.62 0 003.5 3.65 58.28 58.28 0 0020 10.17 56.33 56.33 0 0022.08 1.75 46.15 46.15 0 0031.38-19.09 43.6 43.6 0 007-18.48 45.21 45.21 0 00-1.75-20A93.12 93.12 0 00148.17 13z" opacity=".6"/><path class="cls-6" d="M139.32 22.1l-5.16-.91c2.3.48 5.16 1.21 5.19 1.19a.89.89 0 01-.03-.28zm-7.66-1.29h.29zM101 72.78l2.51-3.23zm31-51.92l2.2.36c-.9-.16-1.71-.31-2.2-.36zm-15.58 41.42l-.62-9.88a64.87 64.87 0 00-.29 7.76c-1.22-.18-4.13-1.08-4.32-.78-1.53 1.94-5.1 6.7-7.73 10.17l7.2-9.38zM91.37 87.39c-.21-.28-.65-11.22-.65-11.22L99.25 75l1.7-2.22-.48.36-10 2.74s.33 8.21.3 8.23a67.39 67.39 0 00-8.6-.11 2 2 0 00.3.4c4.33 1.6 8.99 3.11 8.9 2.99z"/><path class="cls-6" d="M136.3 7.6c.59 2.07 1.18 4.2 1.63 6.38a64.59 64.59 0 011.36 8.39l2.79.2zM125 42l16-2.47-9.16-18.61-.15.11c2 5.84 4.28 12.58 6.19 18.41-4 1-13 2.12-13 2.53a132.6 132.6 0 004.28 14.43c-1.34-.53-11.64-5-12.86-5.31a5.47 5.47 0 00-.35 1.39l14.34 6.45z"/><path class="cls-2" d="M119.2 14.92c-.44 2.81.29 12.71.16 14.46-3.86-.31-13.08-1.78-13.22-1.53l13.77 1.64z"/><path class="cls-2" d="M106.22 27.84A204.56 204.56 0 00107 50c-.24.18-12.12 1.71-12.49 2.14l13-2.23zm28-27.36c-2.24 2.19-6.51 15.66-7.11 17-1.31-.12-7.74-3.37-7.85-2.65l8.39 3z"/><path class="cls-2" d="M94.63 52c-.27.2-1.09 13.07-2.56 15.7 0 0-6.28 4.12-6.2 4.21l7.27-4.78zm-5.49 25.8l-3.3-5.88c.4.91 1.59 3.64 2.82 5.87a9.86 9.86 0 01-6 5.94l-.41.32a13.25 13.25 0 006.89-6.25z"/><path d="M48.87 89.94l18.51 1.61-1.24 5 7.41.32-5.47 25 16.74-1.27 2.37 6.26 6.72-4.86 6 2.72c-2.09-1.13-5.64-3.07-5.7-3.08s-5.59 2.42-7.68 3.14c-.48-1-1-3.12-1.55-4A140.13 140.13 0 0068.66 119a165.09 165.09 0 004.89-22.15 49.24 49.24 0 00-7.25-.93c.2-.59 1.42-4.3 1.09-4.43a100 100 0 00-18.75-2.3c-.65 0-13.07-14.33-13-14.36S30.15 56 29.83 55a2 2 0 00-.3-.4l6.75 22.6z" fill="#c49275" opacity=".3"/><path class="cls-1" d="M100.9 125.21l.29-.23-8.06 3 .85-.25c2.46-.73 6.86-2.53 6.92-2.52zM27 54.49a36.46 36.46 0 00-1.1 4.73z"/><path class="cls-6" d="M31.39 78.44l-3.28 22.29L40 105l-2.76 21.06 12 1.13 3.16 6h8.9l12 4.68 7.92-6.58 12-3.41a111.84 111.84 0 01-12.48 3.31 79.06 79.06 0 01-10.39 5.65s-6.43-3.31-8.7-4.68c-2.43.15-9.68.34-9.7.3s-2.55-5.43-2.58-5.46a108.49 108.49 0 01-12-3.36s3.28-17.09 3.6-20c-3.52-.91-11.46-2.67-11.48-2.7S31.06 82 31.44 78.45c-.66-.51-7.68-4.82-7.68-4.88.06-1 .8-8.39 2-14.24l-3.94 15.28z"/><g class="cls-3"><g class="cls-3"><path class="cls-2" d="M122.29 83.41c-.38-.49-1.51-1.18-2.16-.73a.92.92 0 00-.4.38.89.89 0 00-.12.55 2.27 2.27 0 00.42.92 2.29 2.29 0 00.78.64c.53.33 1.34.53 1.78.06a1.42 1.42 0 00-.3-1.82z"/></g><g class="cls-3"><path class="cls-2" d="M134.15 69.59c-1.37 1 1.46 3.46 2.66 2.49a.81.81 0 00.24-1c.11-1.08-1.83-2.5-2.9-1.49z"/></g><g class="cls-3"><path class="cls-2" d="M148.42 74.59a.64.64 0 00-.42.13.61.61 0 00-.23.37.65.65 0 00-.14.37.76.76 0 00.1.39c.47.61 1.73 1.1 2 .1a1.43 1.43 0 00-.09-.5 1.28 1.28 0 00-.69-.75 1.45 1.45 0 00-.53-.11z"/></g><g class="cls-3"><path class="cls-2" d="M152.62 52.53a.48.48 0 00-.12-.17.59.59 0 00-.17-.1.45.45 0 00-.2 0 .44.44 0 00-.19.07.64.64 0 00-.24 0 .65.65 0 00-.22.11.55.55 0 00-.16.18.53.53 0 00-.06.24 1.65 1.65 0 00.47.95 1.58 1.58 0 00.94.46.57.57 0 00.28-.08.55.55 0 00.23-.2.66.66 0 00.12-.27.8.8 0 000-.31c-.06-.41-.47-.6-.68-.88z"/></g><g class="cls-3"><path class="cls-2" d="M29.26 133.44a1.41 1.41 0 00-.68-.28 1.3 1.3 0 00-.7.11 1.23 1.23 0 00-.54.47 1.27 1.27 0 00-.2.69 1.14 1.14 0 00.23.31l-.06.28a1.55 1.55 0 00.26.55 1.41 1.41 0 00.48.37 1.23 1.23 0 00.59.12 1.2 1.2 0 00.56-.15 1 1 0 00.45-.34 1.6 1.6 0 00.21-1.13 1.68 1.68 0 00-.6-1z"/></g><g class="cls-3"><path class="cls-2" d="M17.34 117.21a.54.54 0 00-.28 0 .7.7 0 00-.27.11.72.72 0 00-.17.22.56.56 0 00-.05.28.38.38 0 00.09.25.45.45 0 00.21.15 1.18 1.18 0 00.22.28c.35.46 1.13 0 .83-.64a.5.5 0 000-.24.45.45 0 00-.12-.21.52.52 0 00-.19-.14.64.64 0 00-.27-.06z"/></g><g class="cls-3"><path class="cls-2" d="M42.26 144.85a1 1 0 00-.53-.17.91.91 0 00-.53.15c-.69-.11-.83 1.12-.12 1.26s1.15.14 1.54-.45a.69.69 0 00.05-.24.59.59 0 00-.05-.23.62.62 0 00-.15-.2.63.63 0 00-.21-.12z"/></g><g class="cls-3"><path class="cls-2" d="M43.25 132.09a.5.5 0 10.61.8c.6-.46-.22-1.1-.61-.8z"/></g><g class="cls-3"><path class="cls-2" d="M16.66 128.72a.39.39 0 00-.26 0 .35.35 0 00-.21.15 1.07 1.07 0 00-.08.64c.18.59 1.13.3.93-.27s-.12-.43-.38-.52z"/></g><g class="cls-3"><path class="cls-2" d="M13.47 106.9a1.13 1.13 0 00.35.46c.17.21.76 0 .65-.5a1.13 1.13 0 00-.32-.43c-.15-.65-1.15-.11-.68.47z"/></g><g class="cls-3"><path class="cls-2" d="M59.08 146.92a.29.29 0 10.36.46c.33-.25-.09-.66-.36-.46z"/></g><g class="cls-3"><path class="cls-2" d="M140 48.35a.8.8 0 00-.34 0 .92.92 0 00-.32.1.62.62 0 00-.22.17.55.55 0 00-.14.26.71.71 0 000 .29.66.66 0 00.12.27.71.71 0 00.23.19.68.68 0 00.28.07.55.55 0 00.28-.06.66.66 0 00.23-.17.84.84 0 00.18-.28.78.78 0 00.05-.34.41.41 0 00-.09-.3.44.44 0 00-.26-.2z"/></g><g class="cls-3"><path class="cls-2" d="M144.5 27.09c-.62-.45-1.26.62-.55 1.05a.84.84 0 00.57.15.46.46 0 00.23-.06.36.36 0 00.16-.14.43.43 0 00.09-.21.58.58 0 000-.23.54.54 0 00-.13-.37.53.53 0 00-.37-.19z"/></g><g class="cls-3"><path class="cls-2" d="M151.61 68.85c-.47.36 0 1.2.59.77a.49.49 0 10-.59-.77z"/></g><g class="cls-3"><path class="cls-2" d="M138.65 90.66a.43.43 0 00-.26.13.4.4 0 00-.12.27.43.43 0 00.07.29 3.21 3.21 0 01.45.41.39.39 0 00.3 0l.2-.16a.53.53 0 00.09-.74.8.8 0 00-.33-.22.68.68 0 00-.4.02z"/></g><g class="cls-3"><path class="cls-2" d="M105.78 92.86a.64.64 0 00-.19.27.53.53 0 000 .33s.77.58 1.07.3a.76.76 0 00.21-.27.68.68 0 00.08-.34c.14-.66-.95-1.02-1.17-.29z"/></g><g class="cls-3"><path class="cls-2" d="M135 84.08a.79.79 0 00-.14-.18.29.29 0 00-.16 0 .28.28 0 00-.15 0 .29.29 0 00-.12.1.47.47 0 00-.06.15.29.29 0 000 .16.25.25 0 00.08.14.28.28 0 00.15.08.26.26 0 00.15 0l.18-.14a.28.28 0 00.08-.15.27.27 0 00-.01-.16z"/></g><g class="cls-3"><path class="cls-2" d="M159.76 61.51c-.42.32 0 1.07.52.68s-.1-.99-.52-.68z"/></g></g></g></g></svg>