<svg width="290" height="455" fill="none" xmlns="http://www.w3.org/2000/svg"><mask id="path-1-inside-1_22_5955" fill="#fff"><path d="M225.473.545C157.189-6.382 120.696 55.363 52.66 35.993c-19.321-5.5-28.981-8.251-33.463-7.676-9.127 1.173-13.79 4.693-17.416 13.15C0 45.62 0 53.115 0 68.104V411c0 20.742 0 31.113 6.444 37.556C12.887 455 23.258 455 44 455h202c20.742 0 31.113 0 37.556-6.444C290 442.113 290 431.742 290 411V49.34c0-13.895 0-20.842-3.997-26.533-3.997-5.69-10.042-7.87-22.13-12.23-12.316-4.443-26.813-8.856-38.4-10.032z"/></mask><path d="M52.66 35.993l-2.19 7.694 2.19-7.694zM225.473.545l-.807 7.96.807-7.96zm38.4 10.031l-2.714 7.526 2.714-7.526zM6.443 448.556l5.658-5.657-5.657 5.657zm277.113 0l-5.656-5.657-.001.001 5.657 5.656zM19.197 28.317l1.02 7.935-1.02-7.935zM1.781 41.467l-7.353-3.153 7.353 3.153zm48.688 2.22c37.025 10.541 65.523-1.26 91.874-13.496 26.664-12.382 50.771-24.888 82.323-21.687l1.615-15.918c-36.732-3.726-65.015 11.177-90.677 23.093C109.628 27.741 85.861 37.128 54.85 28.3l-4.38 15.388zM224.666 8.504c10.557 1.071 24.282 5.194 36.493 9.598l5.428-15.051c-12.421-4.48-27.689-9.185-40.306-10.465l-1.615 15.918zM-8 68.104V411H8V68.104H-8zM44 463h202v-16H44v16zm254-52V49.34h-16V411h16zm-306 0c0 10.145-.017 18.558.877 25.206.925 6.878 2.954 13.051 7.91 18.007L12.1 442.899c-1.487-1.487-2.68-3.721-3.366-8.825C8.017 428.74 8 421.597 8 411H-8zm52 36c-10.597 0-17.74-.017-23.074-.734-5.104-.686-7.338-1.879-8.825-3.367L.787 454.213c4.956 4.956 11.129 6.985 18.007 7.91 6.648.894 15.061.877 25.206.877v-16zM261.159 18.102c12.954 4.672 16.067 6.128 18.297 9.303l13.093-9.196c-5.764-8.207-14.739-11.11-25.962-15.158l-5.428 15.05zM298 49.339c0-6.759.013-12.524-.556-17.29-.599-5.02-1.9-9.576-4.895-13.84l-13.093 9.196c1.002 1.427 1.701 3.189 2.101 6.54.43 3.603.443 8.26.443 15.394h16zM246 463c10.145 0 18.558.017 25.206-.877 6.878-.925 13.051-2.954 18.007-7.91L277.899 442.9c-1.487 1.487-3.721 2.68-8.825 3.366-5.334.717-12.477.734-23.074.734v16zm36-52c0 10.597-.017 17.74-.734 23.074-.686 5.104-1.879 7.338-3.366 8.825l11.313 11.314c4.956-4.956 6.985-11.129 7.91-18.007.894-6.648.877-15.061.877-25.206h-16zM54.85 28.299c-9.59-2.73-17.021-4.848-22.606-6.198-5.202-1.258-10.141-2.223-14.066-1.718l2.038 15.87c-.001 0 .17-.021.576-.004.4.017.946.066 1.675.17 1.476.212 3.43.608 6.017 1.233 5.196 1.257 12.254 3.265 21.985 6.035L54.85 28.3zM8 68.104c0-7.585.003-12.957.212-16.965.217-4.162.63-5.841.921-6.519l-14.705-6.306c-1.49 3.475-1.966 7.62-2.195 11.991C-8.003 54.83-8 60.7-8 68.105H8zm10.178-47.721c-5.37.69-10.317 2.18-14.572 5.393-4.255 3.213-7.044 7.562-9.178 12.538L9.133 44.62c1.493-3.48 2.85-5.12 4.114-6.075 1.264-.955 3.213-1.81 6.97-2.293l-2.04-15.87z" fill="#fff" mask="url(#path-1-inside-1_22_5955)"/></svg>