<svg width="945" height="447" preserveAspectRatio="none" fill="none" xmlns="http://www.w3.org/2000/svg"><mask id="path-1-inside-1_12_141155" fill="#fff"><path d="M171.598 35.993c-29.998-2.621-67.125-8.316-99.164-13.844-34.057-5.877-51.085-8.815-61.76.175C0 31.314 0 48.292 0 82.247V387c0 28.284 0 42.426 8.787 51.213C17.574 447 31.716 447 60 447h825c28.284 0 42.426 0 51.213-8.787C945 429.426 945 415.284 945 387V73.27c0-24.895 0-37.343-7.547-45.86-7.547-8.517-19.747-9.995-44.149-12.953C848.624 9.042 783.704 2.07 734.731.545 512.22-6.382 393.301 55.363 171.598 35.993z"/></mask><path d="M72.434 22.149l1.36-7.884-1.36 7.884zm99.164 13.844l-.696 7.97.696-7.97zM734.731.545l.249-7.996-.249 7.996zm158.573 13.912l-.962 7.942.962-7.942zm44.149 12.953l5.988-5.305-5.988 5.305zM10.674 22.324l5.154 6.119-5.154-6.119zm60.4 7.708c32.095 5.538 69.487 11.28 99.828 13.93l1.393-15.939c-29.657-2.59-66.518-8.24-98.5-13.758l-2.72 15.767zm99.828 13.93c111.794 9.768 197.688-.937 283.088-13.107C539.356 18.69 624.032 5.103 734.482 8.541l.498-15.992C622.92-10.94 536.881 2.881 451.733 15.015c-85.112 12.129-169.529 22.61-279.438 13.008l-1.393 15.94zm563.58-35.42c48.585 1.512 113.197 8.444 157.86 13.857l1.925-15.884C849.568 1.098 784.34-5.915 734.98-7.45l-.498 15.992zM-8 82.246V387H8V82.247H-8zM60 455h825v-16H60v16zm893-68V73.27h-16V387h16zm-961 0c0 13.916-.017 25.158 1.17 33.984 1.217 9.057 3.832 16.759 9.96 22.886l11.314-11.314c-2.66-2.659-4.438-6.422-5.417-13.704C8.017 411.34 8 401.368 8 387H-8zm68 52c-14.368 0-24.34-.017-31.852-1.027-7.282-.979-11.045-2.757-13.704-5.417L3.13 443.87c6.127 6.128 13.83 8.743 22.886 9.96C34.842 455.017 46.084 455 60 455v-16zM892.342 22.4c12.414 1.504 20.953 2.555 27.372 4.199 6.173 1.58 9.423 3.488 11.752 6.117l11.975-10.611c-5.218-5.889-11.842-8.979-19.757-11.006-7.668-1.964-17.43-3.13-29.417-4.584L892.342 22.4zM953 73.27c0-12.234.016-22.178-1.01-30.098-1.056-8.162-3.319-15.164-8.549-21.067l-11.975 10.61c2.316 2.615 3.826 6.095 4.657 12.51.861 6.657.877 15.385.877 28.046h16zM885 455c13.916 0 25.158.017 33.984-1.17 9.057-1.217 16.758-3.832 22.886-9.96l-11.314-11.314c-2.659 2.66-6.422 4.438-13.704 5.417C909.34 438.983 899.368 439 885 439v16zm52-68c0 14.368-.017 24.34-1.027 31.852-.979 7.282-2.757 11.045-5.417 13.704l11.314 11.314c6.128-6.127 8.743-13.829 9.96-22.886 1.187-8.826 1.17-20.068 1.17-33.984h-16zM73.795 14.265C57 11.367 43.59 9.035 33.066 8.666c-10.68-.374-19.997 1.181-27.545 7.54l10.307 12.237c3.126-2.633 7.66-4.103 16.677-3.787 9.174.322 21.306 2.398 38.57 5.376l2.72-15.767zM8 82.247c0-17.218.018-29.29 1.258-38.223 1.215-8.752 3.419-12.927 6.57-15.581L5.52 16.205C-2.002 22.541-5.136 31.35-6.59 41.824-8.02 52.116-8 65.51-8 82.247H8z" fill="#fff" mask="url(#path-1-inside-1_12_141155)"/></svg>