<svg width="44" height="56" fill="none" xmlns="http://www.w3.org/2000/svg"><path d="M22.33 33.169c-1.65-3.44-3.423-6.853-4.953-10.354a44.496 44.496 0 01-2.84-8.13 7.968 7.968 0 011.497-.605 15.413 15.413 0 013.754-.396 9.649 9.649 0 011.525-3.225 5.983 5.983 0 012.686-2.263c2.482-1.188 4.997-.732 7.298.606 2.3 1.337 5.405 3.093 6.005 6.021.22 1.063-.374 2.538-.65 3.567-.429 1.607-.467 3.347-.715 4.987a15.415 15.415 0 00-.209 2.251c0 1.1.727 1.651 1.376 2.405.41.419.718.928.897 1.486.127.6-.325 1.465-.407 2.097a2.538 2.538 0 00.523 2.037c.55.82 1.233.88 2.13 1.1a5.912 5.912 0 013 1.724c.677.853.55 2.13.308 3.082-.05.48-.242.933-.55 1.304-.584.666-1.013 1.453-1.652 2.108a5.063 5.063 0 01-2.989 1.432c-.55.044-1.546.066-1.832.633a5.433 5.433 0 01-1.453 1.535 2.311 2.311 0 01-1.745.6c-.11.088-.22.165-.325.242a6.496 6.496 0 01-1.86.914c-3.485-4.684-6.275-9.913-8.818-15.158z" fill="#346531"/><path d="M22.33 33.168c-1.65-3.44-3.423-6.852-4.953-10.353a44.492 44.492 0 01-2.84-8.13 7.962 7.962 0 011.497-.605 15.413 15.413 0 013.754-.396 9.648 9.648 0 011.525-3.226 5.983 5.983 0 012.686-2.262c.268-.128.544-.24.825-.336.33.611 1.101 1.101 1.547 1.53.446.43.826.991.495 1.602a7.154 7.154 0 01-1.183 1.228c-.875.963-.396 2.124.55 2.862.727.583 1.608 1.018 2.202 1.745.483.6.824 1.302.996 2.053.33 1.497.1 3.032.066 4.552.023 1.453.181 2.902.474 4.326a12.92 12.92 0 001.26 4.238c.55.908 1.52 2.025 2.68 1.558 1.162-.468 1.883-1.866 1.9-3.017.032-1.612-.92-2.917-1.266-4.447-.43-1.888.902-3.627 1.695-5.273-.1.859-.17 1.728-.297 2.56a15.414 15.414 0 00-.21 2.25c0 1.102.727 1.652 1.377 2.406.41.418.718.927.897 1.486.126.6-.325 1.464-.408 2.097a2.538 2.538 0 00.523 2.037c.55.82 1.233.88 2.13 1.1a5.911 5.911 0 013 1.723c.677.853.55 2.13.308 3.083-.05.48-.242.933-.55 1.304-.584.666-1.013 1.453-1.651 2.108a5.064 5.064 0 01-2.99 1.431c-.55.044-1.546.066-1.832.633a5.435 5.435 0 01-1.453 1.536 2.312 2.312 0 01-1.745.6c-.11.088-.22.165-.325.242a6.493 6.493 0 01-1.86.914c-3.49-4.684-6.28-9.913-8.823-15.159z" fill="#346531" opacity=".2"/><path d="M22.33 33.168c-1.65-3.44-3.423-6.852-4.953-10.353a44.496 44.496 0 01-2.84-8.13 7.961 7.961 0 011.497-.605 15.413 15.413 0 013.754-.396 9.648 9.648 0 011.525-3.226 5.65 5.65 0 01.809-.996c0 .781-.33 1.547-.358 2.35-.038 1.101.704 1.59 1.404 2.3a8.02 8.02 0 012.086 4.657 10.82 10.82 0 001.271 3.853c.589 1.024.71 2.125 1.1 3.242.326.897.59 2.708.887 3.622.644 1.954 2.12 2.752 2.835 4.7.55 1.492 1.1 3.374 2.422 4.404a4.156 4.156 0 002.041.726c.815.154 1.365.683 2.109.969a3.495 3.495 0 003.6-.859c1.029-1.1.577-2.455-.507-3.335a10.961 10.961 0 01-1.53-1.48c.236.065.49.12.765.192a5.911 5.911 0 013 1.723c.677.853.55 2.13.308 3.082-.05.48-.242.933-.55 1.304-.584.666-1.013 1.453-1.652 2.108a5.064 5.064 0 01-2.989 1.432c-.55.044-1.546.066-1.832.633a5.433 5.433 0 01-1.453 1.535 2.312 2.312 0 01-1.745.6c-.11.088-.22.165-.325.242a6.493 6.493 0 01-1.86.914c-3.485-4.733-6.275-9.962-8.818-15.208z" fill="#346531" opacity=".5"/><path d="M25.87 40.043a15.522 15.522 0 015.235-3.38c.154.275.319.55.495.798.272.521.6 1.01.98 1.459.25.355.557.667.908.924.413.24.807.513 1.178.815.71.666.55 1.41.946 2.202a.859.859 0 001.217.413c.165-.061.303-.21.473-.254.336-.082.611.154.892.281.347.154.72.24 1.1.253a4.354 4.354 0 002.246-.76l-.181.199a5.064 5.064 0 01-2.989 1.43c-.55.045-1.547.067-1.833.634a5.432 5.432 0 01-1.453 1.535 2.312 2.312 0 01-1.745.6c-.11.089-.22.166-.325.243a6.496 6.496 0 01-1.86.913 76.87 76.87 0 01-5.284-8.305z" fill="#346531" opacity=".5"/><path d="M.584 27.796c-.743-1.651-.66-3.027-.39-4.8.192-1.337.588-2.922 1.8-3.731a6.605 6.605 0 014.282-1.167c.787 0 1.568.259 2.35.236a9.97 9.97 0 011.244-.154v.309c.517-1.184 1.937-2.086 2.955-2.786.462-.32.94-.615 1.432-.886a44.874 44.874 0 002.933 8.3c1.602 3.584 3.39 7.09 5.108 10.601 2.482 5.086 5.212 10.14 8.58 14.696-.393.102-.794.17-1.199.204a8.366 8.366 0 01-3.12-.077c.186.275.373.55.55.782.286.38.836.699.902 1.21.198 1.42-1.14 2.753-2.201 3.485-.77.55-2.202 1.222-3.17.968h-.072c-1.338.056-2.202-1.414-2.45-2.493-.418-1.651-1.91-3.104-2.873-4.502l-.55-.837c-.98-1.1-1.938-2.031-2.367-3.545-.237-.814-.325-1.585-.5-2.41-.226-.997-.986-1.652-1.74-2.257l-.413-.341-.787-.55c-.66-.441-1.354-.826-1.998-1.283a16.609 16.609 0 00-2.169-1.486 8.807 8.807 0 01-3.726-3.028 25.808 25.808 0 01-2.41-4.458z" fill="#4F893F"/><path d="M10.392 37.666c.727.5 1.553.847 2.285 1.36.88.605 1.739 1.254 2.598 1.887a7.705 7.705 0 012.636 3.545c0 .055-.094 0-.099 0a12.764 12.764 0 00-3.754-3.996c-.792-.55-1.535-1.189-2.328-1.745a9.488 9.488 0 01-1.393-1.013c-.038-.06.033-.06.055-.038z" fill="#0E7A3D"/><path d="M2.197 31.044c.255.354.542.684.859.985.488.392 1.05.684 1.651.858.87.325 1.497 1.046 2.202 1.602.77.606 1.622 1.097 2.532 1.459a11.047 11.047 0 013.77 2.432c.39.37 1.833 2.202 2.532 1.795.55-.292 0-1.101-.198-1.404-1.448-2.262-2.251-4.854-3.688-7.128-1.018-1.612-2.664-2.608-3.891-4.04a4.513 4.513 0 01-1.184-2.823c0-1.024.341-2.02.193-3.044-.116-.793-.55-1.365-1.437-1.282-1.035.093-1.805-.903-1.453-1.696.055-.132.176-.319.253-.517a9.214 9.214 0 011.927-.143c.787 0 1.568.259 2.35.236a9.564 9.564 0 011.227-.176c.501-1.183 1.976-1.755 2.995-2.455.461-.32.939-.615 1.43-.886a44.872 44.872 0 002.924 8.3c1.601 3.584 3.39 7.09 5.107 10.601 2.483 5.086 5.213 10.14 8.581 14.696-.393.102-.795.17-1.2.204a8.366 8.366 0 01-3.12-.077c.187.275.374.55.55.782.286.38.836.699.903 1.21.198 1.42-1.14 2.753-2.202 3.485-.77.55-2.202 1.222-3.17.968h-.072c-1.338.056-2.202-1.414-2.45-2.493-.418-1.651-1.91-3.104-2.872-4.502l-.55-.837c-.98-1.1-1.938-2.031-2.368-3.545-.236-.814-.324-1.585-.5-2.41-.226-.997-.986-1.652-1.74-2.257l-.413-.341-.787-.55c-.66-.441-1.354-.826-1.998-1.283a16.609 16.609 0 00-2.168-1.486 8.807 8.807 0 01-3.727-3.028c-.313-.401-.534-.809-.798-1.21z" fill="#4F893F" opacity=".4"/><path d="M20.113 52.477c-.385-1.509-1.651-2.846-2.609-4.134.522.345.966.795 1.305 1.32.313.502.55 1.069.87 1.553.17.23.354.451.55.66.077.199.149.391.236.584.611 1.448 1.9.55 2.566-.286 1.777-2.235-.551-5.24-1.652-7.222a27.76 27.76 0 00-2.493-3.544c-2.978-3.793-5.609-9.45-6.313-11.168-1.26-3.066-5.79-5.504-4.404-9.302.16-.435 1.134-2.532 1.778-2.45.518-1.183 1.938-2.085 2.956-2.784.461-.32.939-.616 1.431-.887a44.868 44.868 0 002.857 8.3c1.601 3.584 3.39 7.09 5.107 10.601 2.483 5.086 5.213 10.14 8.581 14.696-.393.102-.795.17-1.2.204a8.366 8.366 0 01-3.12-.077c.187.275.374.55.55.782.286.38.837.699.903 1.21.198 1.42-1.14 2.753-2.202 3.485-.77.55-2.202 1.222-3.17.968h-.072c-1.343.056-2.185-1.43-2.455-2.51z" fill="#4F893F" opacity=".7"/><path d="M21.725 54.492a1.463 1.463 0 001.393-.446 8.529 8.529 0 011.85-.99c.415-.146.773-.42 1.023-.782a1.92 1.92 0 00-.033-1.651c-.297-.743-1.183-1.101-1.651-1.701-1.756-2.13-1.53-3.457-2.973-4.888a25.359 25.359 0 01-2.707-3.76c-.171-.423 1.1 1.02.924.606a14.363 14.363 0 01-1.007-2.119c-.589-1.987 1.035-3.445 1.816-5.102.297-.628.622-1.288.92-1.987.346.699.688 1.403 1.034 2.097 2.483 5.086 5.213 10.139 8.581 14.696-.393.102-.795.17-1.2.204a8.366 8.366 0 01-3.12-.077c.187.275.374.55.55.781.286.38.837.7.903 1.211.198 1.42-1.14 2.752-2.202 3.484-.77.55-2.202 1.222-3.17.969h-.072a2.085 2.085 0 01-1.734-.958c.262.194.56.334.875.413z" fill="#4F893F" opacity=".7"/><path d="M27.175 52.026c0-.87.27-1.558-.5-2.163-.364-.28-1.102-.974-2.4-2.202a7.546 7.546 0 012.119.341c.496.201.973.446 1.425.732a4.98 4.98 0 01-1.26-.181c.187.275.374.55.55.781.286.38.837.7.903 1.211.165 1.173-.721 2.279-1.652 3.044a2.295 2.295 0 00.815-1.563zM15.181 41.667a.804.804 0 00-1.238.303c-.05-.259-.088-.518-.149-.787a3.963 3.963 0 00-1.552-2.103l.666.347a11.178 11.178 0 013.005 2.097 9.792 9.792 0 012.477 4.855 6.508 6.508 0 00-.302-.452 15.234 15.234 0 01-.832-1.8 5.333 5.333 0 00-1.189-1.37c-.335-.336-.522-.776-.886-1.09z" fill="#4F893F" opacity=".7"/><path d="M5.092 18.462c.187-.016.371-.05.55-.105h-.038c-.435-.066-1.167-.088-1.442-.49-.094-.143.132-.176.226-.17a5.108 5.108 0 003.396-.997 2.664 2.664 0 01-1.723-.715c-.044-.039 0-.204.055-.198.55 0 1.1.126 1.69.104a5.939 5.939 0 002.201-.688c.776-.347 1.475-.853 2.24-1.227a18.704 18.704 0 01-1.001-2.61c-.215-.72 0-1.65.088-2.355a15.41 15.41 0 01.484-2.609c.408-1.409 1.932-2.658 2.989-3.583a9.275 9.275 0 013.506-1.651A7.69 7.69 0 0119.64.337c.324-.166.55-.391.913-.325s.677 1.046.82 1.332c.212.51.372 1.038.48 1.58.157.426.275.866.351 1.315a3.247 3.247 0 01-.765 1.723l-.033.044c-.027.027-.044.044-.066.044-1.1.126-2.361-.424-3.423-.743l-.975-.303a.93.93 0 00-.445-.038c-.116.038.352.787.55 1.012.292.347-.033.397-.308.496a4.876 4.876 0 01-1.437.16 2.913 2.913 0 01-.17 1.49c-.193.469-.6.87-.804 1.35-.204.478-.44 1.073-.726 1.585-.485.864-.144 1.133.825 2.036.264.253 1.365-.61 1.651-.798a12.265 12.265 0 002.752-2.493c.177-.243.199-.622.38-.468.416.404.736.897.936 1.442a4.67 4.67 0 001.03-1.97c.032-.094.208-.37.34-.22 1.487 1.739-.319 4.991-2.498 5.002-.22 0-.468.034-.689.039-.678-.1-1.368-.1-2.047 0a10.65 10.65 0 00-3.418 1.354 7.37 7.37 0 00-2.785 2.873 6.511 6.511 0 01-2.675.92c-.66.087-1.9.285-2.466-.177-.105-.066.1-.132.154-.137z" fill="#395628"/><path d="M5.092 18.462a2.57 2.57 0 00.55-.105h-.038c-.435-.066-1.167-.088-1.442-.49-.094-.143.132-.176.226-.17a5.108 5.108 0 003.396-.996 2.691 2.691 0 01-1.701-.694c1.018.61 2.697.473 3.677.137a3.99 3.99 0 002.3-1.766.792.792 0 00.083-.347l.104-.055c-.198-.413-.374-.837-.55-1.26a5.416 5.416 0 01.193-2.664 9.327 9.327 0 00.743-2.285c.088-.847-.1-1.783.369-2.543a6.055 6.055 0 011.75-1.76 17.616 17.616 0 012.003-1.146c.435-.231 1.002-.55 1.498-.303.196.11.402.2.616.27.413.1.715-.396.826-.715.095-.35.222-.691.38-1.019a1.93 1.93 0 01.478-.55c.418.077.677 1.046.82 1.332.212.51.372 1.038.48 1.58.157.426.275.867.351 1.315a3.247 3.247 0 01-.765 1.723l-.033.044c-.027.027-.044.044-.066.044-1.1.127-2.361-.424-3.423-.743l-.975-.303a.93.93 0 00-.445-.038c-.116.038.352.787.55 1.012.292.347-.033.397-.308.496a4.876 4.876 0 01-1.437.16 2.913 2.913 0 01-.17 1.491c-.193.468-.6.87-.804 1.349-.204.478-.44 1.073-.726 1.585-.485.864-.144 1.134.825 2.036.264.254 1.365-.61 1.651-.798a12.264 12.264 0 002.752-2.493c.177-.242.199-.622.38-.468.416.405.736.897.936 1.442a4.646 4.646 0 001.03-1.96c.032-.093.208-.368.34-.22 1.487 1.74-.319 4.993-2.498 5.004-.22 0-.468.033-.689.038a7.091 7.091 0 00-2.047 0 10.65 10.65 0 00-3.418 1.354 7.37 7.37 0 00-2.785 2.873 6.511 6.511 0 01-2.675.92c-.66.088-1.9.286-2.466-.177-.105-.066.1-.132.154-.137z" fill="#395628" opacity=".3"/><path d="M5.092 18.462a2.57 2.57 0 00.55-.105h-.038a4.18 4.18 0 01-1.101-.225h.088c.61-.1 1.183-.259 1.81-.314a3.395 3.395 0 001.652-.49c.198-.137.308-.38.517-.5.234-.11.486-.175.744-.193.272-.048.533-.145.77-.287 1.184-.66 2.78-1.244 3.627-2.36a.55.55 0 00-.05-.7c-.324-.352-1.045-.815-1.1-1.299a1.59 1.59 0 01.479-1.233c.356-.338.643-.742.847-1.189a6.63 6.63 0 00.55-2.84c-.049-1.53 1.575-.137 1.718-1.007a6.464 6.464 0 00-.242-1.838c.066-1.316 1.96.099 2.515.33a1.492 1.492 0 001.327-.143 1.442 1.442 0 00.644-1.492v-.198c.55.182 1.024.413 1.535.65.153.39.262.796.325 1.21a3.247 3.247 0 01-.765 1.723l-.033.044c-.027.028-.044.044-.066.044-1.1.127-2.361-.424-3.424-.743l-.974-.303a.93.93 0 00-.446-.038c-.115.038.353.787.55 1.013.293.346-.032.396-.307.495a4.877 4.877 0 01-1.437.16 2.911 2.911 0 01-.17 1.491c-.193.468-.6.87-.804 1.349-.204.479-.44 1.073-.727 1.585-.484.864-.143 1.134.826 2.036a.204.204 0 00.154.05c.864.512 2.477-.512 3.093-1.046a3.688 3.688 0 001.459-2.796.093.093 0 01.066.033c.416.405.735.898.936 1.442.481-.568.82-1.244.985-1.97.033-.094.209-.37.341-.22 1.486 1.739-.32 4.992-2.499 5.003-.22 0-.468.033-.688.038a7.091 7.091 0 00-2.047 0c-1.21.25-2.366.708-3.418 1.354a7.37 7.37 0 00-2.785 2.873 6.512 6.512 0 01-2.675.92c-.66.088-1.9.286-2.466-.177-.105-.066.099-.132.154-.137z" fill="#395628" opacity=".3"/><path d="M14.345 13.018a2.065 2.065 0 01-1.194-.847c-.55-.82.38-1.585.737-2.279.358-.693.617-1.304.941-1.948.195-.304.295-.658.287-1.019 0-.093-.37-.82.071-.732.182.028.352.083.55.116a.847.847 0 00.75-.083c.4-.319-.199-1.001-.287-1.332-.231-.93 1.459.154 1.651.27.193.116.27.16.407.231l-.28-.088-.975-.303a.93.93 0 00-.445-.038c-.116.038.352.787.55 1.013.292.346-.033.396-.308.495a4.877 4.877 0 01-1.437.16 2.911 2.911 0 01-.17 1.491c-.193.468-.6.87-.804 1.349-.204.479-.44 1.073-.726 1.585-.529.837-.193 1.123.682 1.96z" fill="#395628" opacity=".5"/><path d="M21.225 5.152a3.06 3.06 0 00.831-1.651c.086.228.14.467.16.71a3.248 3.248 0 01-.765 1.723l-.033.044c-.028.027-.044.044-.066.044a5.29 5.29 0 01-2.059-.292 2.201 2.201 0 001.932-.578z" fill="#6D9B40" opacity=".3"/><path d="M4.52 18.13c.268.085.551.11.83.078.755-.06 1.514-.165 2.28-.187a3.556 3.556 0 002.201-.798c.37-.267.768-.49 1.189-.666-.36.398-.665.842-.908 1.32a6.708 6.708 0 01-1.784.755 12.34 12.34 0 01-2.201.27c-.485 0-1.591-.243-1.101-.43h.05c.186-.015.37-.05.55-.105h-.039a4.177 4.177 0 01-1.067-.236zm9.764-3.967a5.642 5.642 0 012.075-1.046c.721-.165 1.46-.198 2.202-.336 1.145-.203 2.251-.66 2.752-1.772a4.41 4.41 0 00.402-2.147c1.1 1.778-.616 4.728-2.692 4.74-.22 0-.467.032-.688.038-.678-.1-1.368-.1-2.047 0a9.048 9.048 0 00-2.317.776c.098-.091.203-.176.313-.253z" fill="#547A38" opacity=".3"/><path d="M19.98 1.025c0-.353.11-.93.468-1.024h.116c.418.072.677 1.046.82 1.332.212.51.372 1.038.479 1.58.158.426.276.867.352 1.315a3.247 3.247 0 01-.765 1.723l-.033.044c-.027.027-.044.044-.066.044h-.204c-.203 0-.66-1.596-.83-2.372a13.845 13.845 0 01-.337-2.642z" fill="#1C2C16"/><path d="M20.378 3.947c.302.309.633-.044.754-.467a4.14 4.14 0 00-.468-2.95.914.914 0 00-.396-.419.473.473 0 01.181-.11h.116c.418.072.677 1.046.82 1.332.212.51.372 1.038.479 1.58.158.426.276.867.352 1.315a3.247 3.247 0 01-.765 1.723l-.033.044c-.028.027-.044.044-.066.044h-.204c-.187.017-.572-1.266-.77-2.092z" fill="#19381B" opacity=".3"/><path d="M21.726 4.24a7.369 7.369 0 00-.408-3.028l.066.138c.212.509.372 1.038.48 1.58.157.426.275.866.351 1.315a3.247 3.247 0 01-.765 1.722l-.033.045c-.027.027-.044.044-.066.044h-.203c-.072 0-.193-.237-.314-.55.55-.05.848-.804.892-1.267z" fill="#19381B" opacity=".3"/><path d="M13.717 6.248c-.088-.957.132-2.3.991-2.884 0 0 .077 0 .055.039-.793.699-.925 1.893-.974 2.873.005.027-.066-.006-.072-.028zm-.367-.793c0-.033.104 0 .098.038-.068.43-.047.868.06 1.288 0 .044-.065 0-.07 0a2.036 2.036 0 01-.089-1.326zM19.69.843s.076 0 .076.033a8.708 8.708 0 00.138 2.922c0 .039-.072 0-.083 0A6.605 6.605 0 0119.69.843z" fill="#142916"/><path d="M16.816 11.752c.727-.644 1.723-1.1 2.125-2.064 0 0 .066-.05.055 0-.259.969-1.365 1.613-2.136 2.125-.044.01-.088-.017-.044-.06zM13.662 3.82a9.236 9.236 0 012.488-1.722 8.41 8.41 0 011.733-.606A4.497 4.497 0 0019.617.436c.033 0 .127-.033.072 0-.238.35-.543.65-.897.88a6.055 6.055 0 01-1.536.501c-.712.19-1.39.492-2.009.892-.553.321-1.078.69-1.569 1.1 0 0-.027.045-.016.012zm-2.472 6.303c.061-.633.177-1.266.276-1.888.123-.645.294-1.28.512-1.899.203-.446.458-.868.76-1.255h.033c-.144.369-.386.688-.551 1.073a16.48 16.48 0 00-.462 1.811 18.02 18.02 0 00-.38 1.954 6.016 6.016 0 00.094 1.96s0 .033-.039 0a6.015 6.015 0 01-.242-1.756zm-4.232 5.9a6.858 6.858 0 004.954-1.8s.033 0 0 0c-.15.243-.358.443-.606.584a7.74 7.74 0 01-1.376.853 5.34 5.34 0 01-3.021.413c-.044-.006.027-.044.05-.05z" fill="#A1C73A" opacity=".2"/><path d="M24.99 48.355c1.354.787 3.264 2.108 4.904 1.75a14.535 14.535 0 001.607-.38 7.565 7.565 0 001.486-1.018c.743-.512 1.926-1.26 2.273-2.147.386-1.013.055-2.482-.242-3.49a7.08 7.08 0 00-1.97-3.395c-1.244-1.206-1.53-2.637-2.12-4.217a22.237 22.237 0 00-1.684-3.852 21.836 21.836 0 01-2.201-4.613c-.474-1.47-.694-3.005-1.101-4.486a24.275 24.275 0 01-.677-2.845 8.684 8.684 0 00-.435-1.949 8.937 8.937 0 00-2.438-3.423 4.706 4.706 0 00-2.631-1.288 2.664 2.664 0 00-1.332 0 5.438 5.438 0 01-.413.077l-.396.027a1.027 1.027 0 00-.188 0 4.892 4.892 0 00-1.513.231c-.93.364-1.965.468-2.835.97-.84.515-1.61 1.138-2.29 1.854a6.27 6.27 0 00-1.766 2.543 11.07 11.07 0 00-.501 3.148c-.132 2.02.83 3.809 2.157 5.306 1.652 1.894 2.565 4.25 3.743 6.451.53.97 1.113 1.911 1.745 2.818.793 1.134 1.475 2.317 2.202 3.473 1.227 1.888 3.07 3.303 4.073 5.367a7.265 7.265 0 002.543 3.087z" fill="#467135"/><path d="M18.423 39.96c-.748-1.155-1.431-2.338-2.202-3.472a30.338 30.338 0 01-1.744-2.818c-1.178-2.202-2.07-4.558-3.743-6.451a8.4 8.4 0 01-2.037-3.715c.215.278.454.536.716.77a11.14 11.14 0 001.91 1.321c.864.501 1.706 1.046 2.57 1.547.864.5 1.778.93 2.642 1.48a5.554 5.554 0 012.08 2.312c.458.87.82 1.8 1.35 2.631a9.593 9.593 0 001.788 1.987 5.554 5.554 0 011.81 2.372c.234.907.418 1.826.551 2.752.292 1.52.694 3.253 2.02 4.217.837.61 1.949.93 2.884.324a3.164 3.164 0 001.371-2.675c0-1.717-.87-3.016-2.152-4.095a2.273 2.273 0 01-1.007-2.119 8.256 8.256 0 000-2.389c-.292-1.403-1.255-2.36-1.949-3.566a3.699 3.699 0 01-.589-2.587 16.2 16.2 0 00.347-1.828 3.126 3.126 0 00-.38-1.832c-.451-.755-1.299-1.332-1.58-2.202-.55-1.651.413-3.198.166-4.822a4.584 4.584 0 00-2.13-3.104 6.864 6.864 0 00-3.006-.903c.105 0 .204-.033.303-.06a2.664 2.664 0 011.332 0c.992.138 1.913.59 2.631 1.288a8.938 8.938 0 012.438 3.423c.22.63.366 1.285.435 1.949.168.961.394 1.911.677 2.845.424 1.481.644 3.017 1.101 4.486a21.837 21.837 0 002.202 4.613 22.237 22.237 0 011.684 3.853c.589 1.58.875 3.01 2.119 4.216a7.078 7.078 0 011.97 3.396c.298 1.007.628 2.477.243 3.49-.347.886-1.53 1.65-2.274 2.146a7.54 7.54 0 01-1.486 1.018c-.528.157-1.064.284-1.607.38-1.651.358-3.55-.963-4.904-1.75a7.265 7.265 0 01-2.52-3.027c-.986-2.081-2.83-3.529-4.03-5.4z" fill="#467135" opacity=".2"/><path d="M18.422 39.96c-.55-.847-1.067-1.722-1.623-2.575.809 1.035 1.558 2.119 2.389 3.137 1.007 1.227 2.14 2.306 3.115 3.572.803 1.057 1.651 2.24 2.83 2.912a4.342 4.342 0 002.751.55 5.185 5.185 0 001.486-.242c2.152-.704 4.343-3.192 3.033-5.537-.49-.87-1.277-1.52-1.761-2.383a4.232 4.232 0 01-.408-2.438 12.175 12.175 0 00-.72-4.475 25.35 25.35 0 00-.43-1.178c.066.104.127.209.193.308a22.236 22.236 0 011.684 3.853c.589 1.58.875 3.01 2.119 4.216a7.079 7.079 0 011.97 3.396c.298 1.007.628 2.477.243 3.49-.347.886-1.53 1.65-2.273 2.146a7.57 7.57 0 01-1.487 1.018c-.528.158-1.064.284-1.607.38-1.651.358-3.55-.963-4.904-1.75a7.266 7.266 0 01-2.52-3.027c-1.036-2.053-2.88-3.5-4.08-5.372z" fill="#467135" opacity=".3"/><path d="M25.38 48.365c.55.127 1.145.15 1.712.281.425.14.862.245 1.304.314.303.002.605-.047.892-.143.611-.17 1.238-.039 1.855-.16a4.14 4.14 0 002.422-1.398c.517-.627 1.1-1.651.968-2.482a13.022 13.022 0 01-.385-1.552 7.91 7.91 0 00-.077-1.492 6.803 6.803 0 00-.842-1.882 7.22 7.22 0 011.789 3.22c.297 1.007.627 2.476.242 3.49-.347.885-1.53 1.65-2.273 2.146a7.57 7.57 0 01-1.486 1.018 14.5 14.5 0 01-1.608.38c-1.65.358-3.55-.963-4.904-1.75a3.481 3.481 0 01-.407-.27c.257.118.524.212.798.28z" fill="#467135" opacity=".3"/><path d="M29.668 15.071a.627.627 0 010-.28c.044-.171.193-.254.287-.386a.94.94 0 01.45-.303c.27-.126.64 0 .65.303.011.303.435.584.397 1.007-.039.424-.501.578-.644.887-.143.308-.59.104-.732-.083a1.822 1.822 0 01-.408-1.145z" fill="#1F3C1B"/><path d="M29.949 15.44a.436.436 0 010-.204c.033-.12.137-.181.203-.275a.75.75 0 01.32-.214c.198-.088.467 0 .462.22-.006.22.325.413.292.72-.034.31-.358.414-.457.634-.1.22-.43.077-.55-.055a1.376 1.376 0 01-.27-.826zm.033 14.773c.847.583 1.706 1.1 2.504 1.761.387.377.878.63 1.41.727 1.397.22 1.304-.996 1.496-1.987.077-.38 0-.776.066-1.145a1.321 1.321 0 000-.908 5.729 5.729 0 01-.5-1.233 3.054 3.054 0 00-.287-1.035c-.402-.55-.225-1.337-.479-1.948a.672.672 0 00-.06-.33c-.347-.551-.963-.656-1.206-1.305-.396-1.024-1.227-.77-2.025-.39-.595.28-.55.968-.958 1.397a2.604 2.604 0 00-.666 1.817c-.077.836-.33 1.783-.11 2.62.16.566.264 1.596.815 1.959z" fill="#142615"/><path d="M29.173 28.253c-.22-.836.033-1.783.11-2.62a2.603 2.603 0 01.666-1.816c.385-.43.363-1.1.958-1.398.798-.38 1.65-.633 2.025.39.242.65.859.777 1.206 1.305a.67.67 0 01.06.33c.253.612.077 1.377.479 1.95.156.324.253.675.286 1.034.119.429.287.843.501 1.233a1.32 1.32 0 010 .908c-.077.369 0 .765-.066 1.145-.132.677-.132 1.453-.55 1.81.222-.447.352-.936.38-1.436.066-.32 0-.655.054-.969.086-.25.086-.52 0-.77a4.952 4.952 0 01-.429-1.052 2.532 2.532 0 00-.248-.88c-.34-.49-.192-1.134-.401-1.651a.512.512 0 00-.055-.276c-.298-.456-.815-.55-1.024-1.1-.336-.876-1.04-.655-1.723-.33-.5.236-.484.82-.809 1.188-.373.423-.57.972-.55 1.536-.066.72-.287 1.519-.094 2.235.072.548.26 1.075.55 1.546l-.495-.335c-.572-.38-.677-1.41-.831-1.977zm6.22 9.021c.243.134.502.24.77.314.374.083.743-.12 1.1-.066.695.094.997-.253.794-.914a4.066 4.066 0 00-.435-1.1c-.138-.215-.121-.55-.341-.694a1.653 1.653 0 00-.413-.248 1.177 1.177 0 00-.611-.181c-.694 0-.77.55-.974 1.14-.204.588-.71 1.353.11 1.75z" fill="#1F3C1B"/><path d="M35.447 36.922c.206.117.426.208.655.27.32.071.628-.105.947-.06.589.082.842-.21.672-.771a3.458 3.458 0 00-.37-.914c-.115-.182-.098-.462-.285-.595a1.434 1.434 0 00-.358-.203.99.99 0 00-.523-.16c-.584 0-.65.48-.82.964-.17.484-.611 1.111.082 1.47z" fill="#142615"/><path d="M23.718 36.455c.54.224 1.123.324 1.706.292.325-.061.958-.419.71-.86a4.318 4.318 0 00-.55-.632 3.101 3.101 0 01-.44-.925c0-.413-.028-.809-.463-.98a1.013 1.013 0 00-1.222.44 2.895 2.895 0 00-.44.81 8.877 8.877 0 01-.116 1.1c-.187.579.413.628.815.755z" fill="#315528"/><path d="M23.861 36.383c.394.14.813.19 1.228.149.231-.055.666-.33.479-.639a3.128 3.128 0 00-.419-.434 2.086 2.086 0 01-.346-.644c0-.292-.044-.55-.364-.677a.721.721 0 00-.853.357 1.992 1.992 0 00-.286.584c.004.263-.009.526-.038.787-.116.424.313.462.6.517z" fill="#183018"/><path d="M18.654 45.333a2.868 2.868 0 01-.302-.853 1.838 1.838 0 01-.116-.782c.055-.192.358-.148.5-.099a.55.55 0 01.314.248c.088.115.188.22.298.314.146.063.27.169.358.302.209.248.467.452.682.694.215.242-.523.638-.71.688-.528.115-.704-.066-1.024-.512z" fill="#1F552A"/><path d="M19.017 45.218a1.93 1.93 0 01-.209-.55 1.38 1.38 0 01-.077-.551c.039-.127.242-.094.341-.066.09.029.164.09.21.17.062.076.13.146.203.21.097.046.18.116.242.203.144.165.32.309.457.468.138.16-.352.44-.479.468-.352.083-.495-.038-.688-.352z" fill="#183018"/><g style="mix-blend-mode:screen" opacity=".5"><path d="M10.228 22.661a2.896 2.896 0 01-.49-1.222 8.597 8.597 0 01.127-1.596 5.44 5.44 0 01.258-1.684c.225-.482.528-.923.898-1.305a8.02 8.02 0 012.658-2.344 7.188 7.188 0 011.651-.55c.463-.089.941 0 1.398-.089.033 0 0 .033 0 .039-1.056.286-2.14.23-3.126.83a10.178 10.178 0 00-2.89 2.89 3.072 3.072 0 00-.457 1.652c-.033.495-.088.985-.137 1.491-.116 1.25.815 2.202 1.695 2.94.364.308.76.55 1.101.897.43.423.705.946 1.172 1.343.804.688 2.059.677 2.807 1.414a8.255 8.255 0 011.894 2.587 13.629 13.629 0 001.712 2.813c0 .027-.055.077-.083.055a7.442 7.442 0 01-1.85-2.725 5.659 5.659 0 00-1.1-1.59 4.64 4.64 0 00-1.42-1.3c-.584-.253-1.189-.445-1.767-.726a3.478 3.478 0 01-1.233-1.1c-.82-1.02-2.097-1.597-2.818-2.72z" fill="#4F893F" opacity=".5"/><path d="M.7 27.075c-.104-.594-.297-1.178-.352-1.778-.055-.6.336-1.15.446-1.75.193-1.062-.418-2.157.253-3.088a4.024 4.024 0 012.664-1.69c.06 0 0 .061-.027.067-1.101.242-2.72 1.266-2.67 2.559 0 .451.138.897.165 1.349.006.481-.094.958-.292 1.398a2.416 2.416 0 00-.16 1.585c.119.457.212.92.282 1.387a7.25 7.25 0 00.583 1.53c.204.55.484 1.013.71 1.53 0 .039-.083.1-.105.066A10.496 10.496 0 01.7 27.075zM27.28 7.976a5.768 5.768 0 012.708.517c1.062.473 1.998 1.211 3.066 1.651 1.068.44 1.734 1.398 2.4 2.202.368.451.776.677 1.001 1.244.233.429.316.922.237 1.403 0 0-.077.061-.072 0a3.192 3.192 0 00-.473-1.447 4.669 4.669 0 00-.985-1.046c-.732-.781-1.376-1.7-2.372-2.163-.997-.462-1.745-1.1-2.653-1.541a4.739 4.739 0 00-1.459-.55c-.479-.056-.958-.144-1.437-.22-.01 0 .023-.056.039-.05zm8.757 9.968a8.04 8.04 0 00.66-2.273s.05-.044.05 0c.042.8-.166 1.592-.595 2.268-.038.016-.165.071-.115.005z" fill="#A1C73A" opacity=".5"/><path d="M25.409 42.8c-.044-.413-.474-.66-.55-1.046-.078-.385-.078-.875-.205-1.304a5.411 5.411 0 01-.214-1.222c0-.457-.176-.875-.237-1.332 0-.033.077-.072.083-.039.122.322.21.656.264.997.032.328.096.653.192.968.103.336.183.678.243 1.024.003.384.097.76.275 1.1.176.227.318.477.424.744.022.215.078.424.165.622.093.163.2.318.32.462.406.59 1.513 1.321 2.25 1.101.039 0 0 .028 0 .033-.583.292-1.1.044-1.651-.253a2.554 2.554 0 01-1.36-1.855z" fill="#4F893F" opacity=".5"/><path d="M14.769 43.251c0-.033.077-.082.088-.038.143.72.275 1.43.88 1.91.467.435.878.927 1.222 1.464.226.291.55.457.765.765.215.308.33.61.55.897.456.587.866 1.207 1.228 1.855 0 0-.033.038-.044.033a16.964 16.964 0 00-1.31-1.806c-.204-.275-.363-.588-.55-.87-.188-.28-.644-.55-.914-.896-.27-.347-.446-.512-.65-.793a6.301 6.301 0 00-.698-.682c-.501-.507-.49-1.211-.567-1.839z" fill="#A1C73A" opacity=".5"/><path d="M17.818 13.606c.136.011.272.011.408 0 .12 0 .247.034.363.044.116.011.231 0 .352 0 .11.024.215.073.303.144.038 0-.044.06-.06.06-.144 0-.27-.071-.413-.077a2.653 2.653 0 01-.364 0c-.115 0-.225-.038-.335-.05a.754.754 0 01-.298-.06s.022-.06.044-.06z" fill="#4F893F" opacity=".5"/></g><path opacity=".5" d="M16.524 40.578c0-.066.033-.204.083-.138l.044.077c0 .039 0 .138-.044.154h-.055c-.055.061-.044-.044-.028-.093zm-.16 4.134c.083-.044.132 0 .165.088s0 .22-.055.165c-.055-.055-.066-.083-.104-.066-.039.016-.06-.16-.006-.187zm3.864 2.195c.071-.055.082.138.027.17-.055.034-.077-.137-.027-.17zm1.15 3.733c-.038-.061 0-.254.083-.177a.325.325 0 01.071.165c0 .033 0 .105-.05.11-.049.006-.07-.044-.104-.099zm.953 2.663c.033.04.06.085.083.133 0 0 0 .137-.055.104a.799.799 0 01-.089-.105c.006-.044.006-.192.061-.132zm3.021-1.156c0-.027 0-.038.039 0a.215.215 0 01.044.055.132.132 0 01-.027.127c0 .027-.067 0-.105 0-.039 0-.011-.193.05-.182zm-4.558-4.167c0-.043 0-.12.061-.087a.148.148 0 010 .248c-.088.055-.11-.11-.06-.16zm-2.184.672a.144.144 0 01.038.06c0 .028 0 .155-.044.105a.188.188 0 00-.05-.044c-.032-.044.028-.17.056-.121zm9.973-.423c0 .038 0 .038.055 0 .055-.039.033.115 0 .143-.033.027-.088.05-.138 0-.05-.05.039-.21.083-.143zm3.968-1.167a.347.347 0 00.193-.05c.06-.033.05.138 0 .17a.31.31 0 01-.225.078c-.055-.006-.033-.21.032-.198zm.133-3.859a.395.395 0 00-.078-.192c0-.039 0-.171.055-.116a.417.417 0 01.116.32c-.005.11-.105.098-.093-.012zm-1.486-4.205c.038-.082 0-.126-.039-.203-.038-.078 0-.138.044-.1a.303.303 0 01.056.402c-.045.105-.094-.016-.061-.099zm-1.035 6.247l-.055-.105s0-.154.044-.115c.076.081.146.167.21.258 0 .033 0 .188-.05.177a.172.172 0 01-.149-.094s-.01-.083 0-.121zm-6.323.05a.158.158 0 01.06 0c.06 0 .038.11 0 .132l-.066.066c-.039.033-.061-.154.005-.198zm-1.784-4.668l.055-.027c.038 0 0 .099 0 .115l-.055.055c-.033.039-.066-.115 0-.143zm-4.04-6.682c.024.024.04.055.044.088 0 0 0 .127-.05.11-.05-.016-.038-.033-.055-.06-.016-.028.022-.21.06-.138zm11.839 1.211a.239.239 0 01.055-.05c.039-.032.055.1 0 .122l-.055.033c-.038.017-.022-.088 0-.105zm-.804 5.168c.06-.038.066.1.028.127-.039.027-.06-.105-.028-.127zm-.137 3.446c.039 0 .05.071 0 .088-.05.016-.033-.066 0-.088zm-.678-20.91c.05-.028.05.088 0 .11-.049.022-.027-.088 0-.11zm.26 4.915c.066-.044.066.126 0 .154-.066.027-.05-.121 0-.154zm.676 2.829c.03.039.057.081.077.127 0 0 0 .12-.038.088a.385.385 0 01-.083-.105c-.033-.033.01-.165.044-.11zm2.218 2.912a.17.17 0 00.144.028c.077 0 .055.149 0 .176a.165.165 0 01-.237 0c-.033-.082.022-.286.093-.204zm3.842-1.652c.083-.055.088.143.028.182-.06.038-.077-.121-.028-.182zm-2.009 5.016c.044.051.08.109.11.17 0 .033 0 .198-.06.138a1.065 1.065 0 01-.116-.16c-.028-.044.016-.215.066-.149zm3.622 3.89c.06-.038.06.105 0 .132-.06.028-.038-.104 0-.132zm4.393-3.65c.082-.054.088.155.033.193-.055.039-.094-.154-.033-.193zm1.282 2.462a.312.312 0 01.093-.231c.061-.055.078.132.034.165a.247.247 0 00-.066.088c-.017.028-.067.028-.061-.022zm-2.482 3.687a.354.354 0 010-.132c0-.127.12-.105.104 0a.215.215 0 00.044.115s0 .215-.05.182l-.07-.028s-.045 0 0 0c.043 0-.067-.104-.028-.137zm-1.316-4.943c.072-.044.072.11.033.138-.038.027-.071-.116-.033-.138zm-1.744 5.07a.21.21 0 01.044-.204h.044c.071.06 0 .26-.077.182l-.011.022zm3.462-3.38a.585.585 0 000-.094c0-.05.055 0 .055 0a.37.37 0 010 .11c-.017.15-.1.083-.055-.016zm-3.677-9.665s0-.127.05-.094l.038.039c.066.05 0 .21-.055.127l-.033-.072zm-1.206-7.167a.027.027 0 01.014-.003c.005 0 .01 0 .013.003.066 0 .121 0 .116.11-.006.11-.077.088-.138.072-.077-.017-.077-.198-.005-.182zm-8.008 1.091a.09.09 0 00.038 0c0-.06 0-.149.06-.1a.165.165 0 01.067.193c0 .083-.088.088-.16.1-.071.01-.066-.182-.005-.193zm-1.647-4.96l.039-.055c.039-.055.082-.066.072 0a.275.275 0 01-.094.242c-.077.072-.088-.137-.017-.187zm-.104-2.395c.033.083.105-.038.083-.12-.022-.083 0-.116 0-.094a.176.176 0 00-.083.215zm-1.828-2.31c.067-.055.144-.055.216-.094.071-.038.066.138 0 .165a.674.674 0 01-.204.028c-.055.01-.028-.088-.011-.1zm-1.315-.898h.06c0-.044 0-.193.061-.132a.215.215 0 01.039.22c-.044.077-.116.088-.204.099-.088.011-.005-.17.044-.187zm.023-2.092c0-.077.071-.137.093-.22.022-.083.055 0 .05 0-.006 0-.06.16-.083.242-.022.083-.077.039-.06-.022zM7.673 21.649a.309.309 0 00-.055-.154c-.027-.033 0-.165.044-.116a.324.324 0 01.061.28c-.005.05-.055.045-.05-.01zm.843 4.221c.06-.044.071.127 0 .155-.072.027-.072-.11 0-.154zm1.364-.308s0-.082.038-.093c.039-.011.055 0 .077.055.023.055-.033.225-.077.16a.314.314 0 01-.038-.122zm.595 3.363a.044.044 0 00.06 0c.06 0 .05.138 0 .16a.083.083 0 01-.126 0c-.044-.06.033-.226.066-.16zm4.001 3.094l.039.066c0 .027 0 .148-.05.099a.143.143 0 01-.038-.055c-.033-.039.016-.16.05-.11zm-.088 3.021a.401.401 0 01.187.066.093.093 0 010 .121.275.275 0 01-.198 0c-.077 0-.055-.192.011-.187zm2.449 1.707c.077-.05.077.137.033.165-.044.027-.099-.132-.033-.165zm1.817 3.275a.633.633 0 00.028.072s0 .132-.044.099a.149.149 0 01-.044-.039c-.072-.05.022-.22.06-.132zm2.586 3.268c.056 0 .094 0 .11.061a.099.099 0 010 .105c-.033.033-.077 0-.115 0-.039 0-.06-.187.005-.165zm-7.22-2.498s0 .044.032.071c.033.028 0 .171-.06.133a.165.165 0 01-.039-.061c-.066-.044 0-.204.066-.143zm.583 1.377a.05.05 0 00.066 0c.044 0 .038.099 0 .12a.088.088 0 01-.121-.027c-.022-.016.022-.137.055-.093zm1.475.412c.055-.038.055.094 0 .127s-.038-.1 0-.127zM7.85 19.376c.043 0 .065.055 0 .082-.067.028-.04-.054 0-.082zm-1.955.099c.078-.06.116.093.05.143-.066.05-.116-.1-.05-.143zm-1.877-.479c.067-.05.1.083.044.127-.055.044-.099-.088-.044-.127zm5.632-.793v-.093c0-.11.154-.066.126.044l-.033.088c.005.077-.094.038-.094-.039zm-.782 1.811c.077-.05.11.094.044.138-.066.044-.104-.094-.044-.138zm19.605 11.064c.044-.027.066.05.033.072-.033.022-.06-.05-.033-.072zm-1.398-3.677c.055-.044.083.077.033.11s-.093-.077-.033-.11zm-.467-2.78c.071-.05.11.088.05.127-.061.038-.11-.088-.05-.127zm-.552-2.213c.067-.044.094.088.039.127-.055.038-.099-.083-.038-.127zM22.447 9.48c.06-.04.082.077.038.104-.044.028-.088-.066-.038-.105zm-.904 3.61c.077-.055.116.099.044.154-.071.055-.115-.105-.044-.154zm2.967-1.448c.044-.027.06.055.027.077-.032.022-.06-.05-.027-.077zm.066-2.064c0-.033.044-.05.066 0 .022.05-.027.204-.115.116-.088-.088.01-.143.05-.116z" fill="#142615"/></svg>