<svg width="63" height="54" viewBox="0 0 63 54" fill="none" xmlns="http://www.w3.org/2000/svg">
<g clip-path="url(#clip0_240_2)">
<path d="M21.38 30.386C21.38 30.386 11.9617 30.1061 11.3552 30.6448C10.7487 31.1835 11.3421 33.1816 11.7945 33.7353C12.2469 34.2891 22.2122 32.5618 22.1781 32.3723C22.2713 32.1921 22.3246 31.9938 22.3342 31.7909C22.3438 31.5881 22.3096 31.3855 22.2338 31.1969C22.158 31.0084 22.0425 30.8383 21.8952 30.6983C21.7478 30.5584 21.5721 30.4519 21.38 30.386Z" fill="#CA2417"/>
<path d="M11.1287 31.1644C11.1287 31.1644 6.96782 33.4151 6.86221 35.3271C6.75659 37.2391 10.4342 35.2112 10.4342 35.2112C10.4496 34.8422 10.5738 34.4863 10.7913 34.1883C11.0087 33.8903 11.3096 33.6636 11.656 33.5368C12.7568 33.2601 11.1287 31.1644 11.1287 31.1644Z" fill="#CA2417"/>
<path d="M9.89197 35.2785C9.85764 36.4324 9.71019 37.5799 9.45175 38.7045C9.38551 38.9247 9.26387 39.1241 9.0985 39.2836C8.93313 39.4431 8.72955 39.5574 8.50723 39.6156C8.2849 39.6738 8.05128 39.6739 7.8287 39.6159C7.60611 39.5579 7.402 39.4438 7.23592 39.2844C6.75408 38.809 6.45381 38.1798 6.38741 37.5065C6.32102 36.8331 6.49271 36.1582 6.87256 35.5992C7.80926 34.1734 9.89197 35.2785 9.89197 35.2785Z" fill="#CA2417"/>
<path d="M8.96501 38.1248C8.96501 38.1248 12.9851 40.8306 15.3011 40.7223C17.6172 40.614 9.63439 41.99 7.81585 39.3873C5.9973 36.7846 8.96501 38.1248 8.96501 38.1248Z" fill="#CA2417"/>
<path d="M11.7949 33.7357C11.3865 33.1512 10.7491 31.1839 11.3556 30.6452C11.5757 30.5343 11.817 30.472 12.0634 30.4626C12.0634 30.4626 10.3023 34.9756 21.4013 31.9639C21.7271 31.8675 22.0309 31.7865 22.3237 31.7132C22.2863 32.0348 22.1729 32.2946 22.1785 32.3728C22.184 32.451 12.2396 34.2784 11.7949 33.7357Z" fill="#B71D0A"/>
<path d="M10.8526 33.9343C11.1964 33.5444 11.6067 33.2188 12.0645 32.9726C12.0761 33.0367 12.0746 33.1025 12.0601 33.1659C12.0457 33.2294 12.0186 33.2893 11.9804 33.3419C11.9423 33.3946 11.894 33.4391 11.8382 33.4726C11.7825 33.5061 11.7206 33.528 11.6561 33.537C11.3097 33.6638 11.0088 33.8904 10.7914 34.1884C10.5739 34.4864 10.4497 34.8424 10.4343 35.2113C10.4343 35.2113 6.74899 37.2283 6.86231 35.3273C6.87041 35.1906 6.89746 35.0557 6.94266 34.9265C7.62543 35.1089 8.34319 35.1135 9.0276 34.9398C9.712 34.7661 10.3403 34.42 10.8526 33.9343Z" fill="#B71D0A"/>
<path d="M9.50826 35.6449L9.5853 35.0987L9.92436 35.2557C9.89003 36.4095 9.74257 37.557 9.48413 38.6816C9.41789 38.9018 9.29626 39.1012 9.13088 39.2607C8.96551 39.4202 8.76194 39.5345 8.53961 39.5927C8.31728 39.6509 8.08367 39.651 7.86108 39.593C7.6385 39.535 7.43439 39.4209 7.26831 39.2615C7.06653 39.0431 6.89543 38.7982 6.75973 38.5336C6.75973 38.5336 8.98773 39.964 9.50826 35.6449Z" fill="#B71D0A"/>
<path d="M13.8171 26.2665C13.8171 26.2665 7.91689 25.4653 7.4898 26.0263C7.06271 26.5873 7.94999 28.7246 7.94999 28.7246L12.6206 28.0709C12.6206 28.0709 14.5777 26.6049 13.8171 26.2665Z" fill="#CA2417"/>
<path d="M7.55904 25.9608C7.55904 25.9608 2.05529 29.8063 2.20062 30.9521C2.28797 31.2847 2.48264 31.5794 2.75437 31.7902C3.0261 32.001 3.35965 32.1163 3.70319 32.1179C3.70319 32.1179 9.14094 28.3186 8.94058 27.7036C8.57556 27.0529 8.10917 26.4646 7.55904 25.9608Z" fill="#CA2417"/>
<path d="M2.36044 31.0871C2.36044 31.0871 0.742442 35.5001 3.33813 38.3476C2.65264 36.0629 2.82484 33.6078 3.82229 31.4443C5.81457 27.7545 2.39896 30.814 2.36044 31.0871Z" fill="#CA2417"/>
<path d="M4.00569 28.7066C2.98201 29.586 2.11574 30.5031 2.20052 30.9527C2.28786 31.2853 2.48253 31.5799 2.75426 31.7908C3.02599 32.0016 3.35953 32.1168 3.70307 32.1185L3.90123 31.98C3.90123 31.98 2.09263 30.7983 4.00569 28.7066Z" fill="#B71D0A"/>
<path d="M21.9404 27.9759C21.9404 27.9759 13.4909 25.3779 13.0935 26.0987C12.7173 26.9466 12.498 27.8561 12.4463 28.783C12.5113 29.0166 21.2426 30.0718 21.2426 30.0718C21.2426 30.0718 22.3984 28.1154 21.9404 27.9759Z" fill="#CA2417"/>
<path d="M13.3853 25.9767C13.3853 25.9767 11.382 29.0177 21.0721 29.6164L21.4937 29.6337C21.3506 29.8978 21.2427 30.0716 21.2427 30.0716C21.2427 30.0716 12.5114 29.0164 12.4464 28.7828C12.4981 27.8559 12.7174 26.9464 13.0936 26.0985C13.1718 26.0223 13.2761 25.9787 13.3853 25.9767Z" fill="#B71D0A"/>
<path d="M11.9045 23.8107C11.9045 23.8107 7.66747 19.5988 7.8832 18.9229C8.09894 18.2469 10.3962 17.643 10.3962 17.643L12.7003 21.7611C12.7003 21.7611 12.6926 24.2119 11.9045 23.8107Z" fill="#CA2417"/>
<path d="M8.11315 18.5489C8.11315 18.5489 5.91695 12.1234 6.73701 11.3042C7.55707 10.485 8.64465 11.2679 8.64465 11.2679C8.64465 11.2679 10.7671 17.5645 10.2277 17.9413C9.55839 18.2514 8.84519 18.4563 8.11315 18.5489Z" fill="#CA2417"/>
<path d="M6.76033 11.3373C6.76033 11.3373 5.64623 6.76522 8.5632 4.23474C7.64015 6.41248 7.54587 8.85435 8.29811 11.0999C9.8448 15.025 6.77024 11.6094 6.76033 11.3373Z" fill="#CA2417"/>
<path d="M7.8837 18.9232C8.11044 18.2395 10.3967 17.6432 10.3967 17.6432L10.4352 17.6984C10.1788 18.0581 8.62342 20.4743 12.3672 23.6521C12.3501 23.6952 12.3239 23.7342 12.2903 23.7662C12.2567 23.7983 12.2166 23.8227 12.1727 23.8378C12.1288 23.8529 12.0822 23.8583 12.036 23.8537C11.9897 23.849 11.9451 23.8345 11.9049 23.811C11.9049 23.811 7.66796 19.5991 7.8837 18.9232Z" fill="#B71D0A"/>
<path d="M6.8781 14.226C6.53683 12.8232 6.42452 11.6543 6.76024 11.3376C7.59571 10.5405 8.66788 11.3014 8.66788 11.3014L8.73615 11.5163C8.73615 11.5163 6.56762 11.3902 6.8781 14.226Z" fill="#B71D0A"/>
<path d="M20.1846 27.6439C20.1846 27.6439 11.7439 24.9413 11.8517 24.111C12.0235 23.196 12.361 22.3204 12.8478 21.5275C13.046 21.3891 20.7999 25.5235 20.7999 25.5235C20.7999 25.5235 20.6316 27.7912 20.1846 27.6439Z" fill="#CA2417"/>
<path d="M11.8518 24.1103C12.0236 23.1953 12.3611 22.3198 12.8479 21.5269C12.8479 21.5269 12.903 21.4884 13.0241 21.5679C13.1451 21.6475 10.8501 23.3331 20.3653 27.5499C20.2882 27.6038 20.2332 27.6422 20.2002 27.6653C20.1672 27.6884 11.766 24.9253 11.8518 24.1103Z" fill="#B71D0A"/>
<path d="M15.0623 6.45607C15.0623 6.45607 17.9528 1.61349 19.4719 1.86511C18.2423 1.77355 17.0215 2.12546 16.0303 2.85715C15.0391 3.58884 14.3431 4.65195 14.0683 5.854C12.3248 11.1425 15.0623 6.45607 15.0623 6.45607Z" fill="#CA2417"/>
<path d="M20.3686 21.1302C20.3686 21.1302 16.6743 16.5227 16.1867 17.044C15.6406 17.5245 15.0425 17.9425 14.4034 18.2899C14.4034 18.2899 18.0472 25.0992 20.5944 25.65C23.1416 26.2008 20.3686 21.1302 20.3686 21.1302Z" fill="#CA2417"/>
<path d="M16.1758 17.0522C16.0137 15.8122 15.6891 14.5988 15.2104 13.4431C14.4787 12.8325 13.7022 12.2778 12.8877 11.7835C12.6751 12.9196 12.727 14.09 13.0394 15.2038C13.3517 16.3176 13.9161 17.345 14.6887 18.2061C17.2789 20.9754 16.1758 17.0522 16.1758 17.0522Z" fill="#CA2417"/>
<path d="M14.4184 18.3122C15.0575 17.9647 15.6556 17.5468 16.2016 17.0662C16.3007 16.997 16.4658 17.0457 16.708 17.2048C16.4449 17.602 15.222 19.8843 20.0986 24.6833C20.4477 25.0192 20.7745 25.3774 21.0772 25.7557C20.9304 25.7633 20.7833 25.75 20.6402 25.7164C18.0621 25.1214 14.4184 18.3122 14.4184 18.3122Z" fill="#B71D0A"/>
<path d="M24.0954 17.8371C24.0954 17.8371 21.8498 14.8107 21.2653 15.3339C20.6808 15.8572 18.148 16.7571 17.9234 15.7323C17.6988 14.7075 18.2009 19.9041 21.1268 21.7003C24.0527 23.4965 24.0954 17.8371 24.0954 17.8371Z" fill="#CA2417"/>
<path d="M21.2443 15.5615C21.5327 14.7203 21.9909 13.9476 22.5904 13.2915C23.3511 12.6452 21.3168 9.73364 20.9612 9.50611C20.6057 9.27857 15.2075 11.3762 17.9002 15.6988C20.5928 20.0214 21.2443 15.5615 21.2443 15.5615Z" fill="#CA2417"/>
<path d="M14.947 13.1838C14.947 13.1838 15.8362 7.21198 15.3904 6.78492C14.9446 6.35786 14.4074 5.51868 13.7987 6.12452C13.19 6.73037 13.0206 12.3961 13.0206 12.3961C13.0206 12.3961 14.75 14.6837 14.947 13.1838Z" fill="#CA2417"/>
<path d="M21.0001 9.88974C21.0001 9.88974 25.097 7.45387 27.434 7.77413C29.7709 8.09439 33.9077 8.88044 34.6442 12.4197C34.9007 13.7012 30.7495 8.67439 29.1193 9.92832C27.4891 11.1822 33.43 12.4639 33.43 12.4639C33.43 12.4639 35.2705 13.0818 34.4153 13.3347C33.56 13.5876 23.937 12.1706 22.5852 13.2136C21.2335 14.2565 21.0001 9.88974 21.0001 9.88974Z" fill="#CA2417"/>
<path d="M17.9234 15.7326C18.1392 16.6979 20.4035 15.9528 21.152 15.4299C20.4855 16.1576 20.0326 17.0554 19.8429 18.0246C19.6532 18.9939 19.7341 19.9972 20.0767 20.9244C18.8479 19.4526 18.0966 17.6412 17.9234 15.7326Z" fill="#B71D0A"/>
<path d="M22.7026 13.1476C22.6842 13.1676 22.6616 13.1834 22.6364 13.1939L22.7026 13.1476Z" fill="#B71D0A"/>
<path d="M18.2666 10.9956C18.9919 10.2301 19.945 9.71959 20.9844 9.53976C21.2904 9.71985 23.0891 12.2708 22.7061 13.1293C22.5828 12.9528 20.1665 9.63527 18.2666 10.9956Z" fill="#B71D0A"/>
<path d="M28.7535 9.26483C30.736 8.25716 34.361 12.6012 34.3764 12.6233C33.4825 12.1646 30.4234 8.93514 29.0827 9.97038C27.4415 11.232 33.3934 12.5059 33.3934 12.5059C33.7677 12.6315 34.1267 12.7991 34.4634 13.0057C25.2928 11.8142 28.7535 9.26483 28.7535 9.26483Z" fill="#B71D0A"/>
<path d="M12.8749 11.7427C13.6895 12.237 14.4659 12.7918 15.1976 13.4024C15.2494 13.453 15.2912 13.5128 15.3209 13.5788C15.3209 13.5788 12.723 11.7832 12.8122 14.232C12.6894 13.4046 12.7106 12.5624 12.8749 11.7427Z" fill="#B71D0A"/>
<path d="M13.7876 6.13196C14.3963 5.52612 14.9225 6.37299 15.3793 6.79237C15.3793 6.79237 13.7501 6.28941 13.3683 8.83757C13.3584 9.05531 13.2912 9.26646 13.1734 9.44965C13.3 7.96617 13.4849 6.42552 13.7876 6.13196Z" fill="#B71D0A"/>
<path d="M7.45826 25.9817C7.6121 25.8671 7.79905 25.8056 7.99103 25.8064C7.99103 25.8064 6.5447 29.0819 12.8202 27.8648L12.9083 27.8033C12.7212 27.934 12.5891 28.0263 12.5891 28.0263L7.94928 28.7242C7.94928 28.7242 7.05429 26.5758 7.45826 25.9817Z" fill="#B71D0A"/>
<path d="M35.9316 35.4337C35.9316 35.4337 44.0191 40.3034 44.2426 41.1156C44.4661 41.9278 42.8821 43.2479 42.2162 43.467C41.5502 43.6861 34.0702 36.8492 34.2045 36.6897C34.2233 36.4883 34.2846 36.2934 34.3846 36.1178C34.4845 35.9421 34.6206 35.7898 34.784 35.671C34.9473 35.5522 35.1342 35.4696 35.332 35.4287C35.5299 35.3878 35.7343 35.3895 35.9316 35.4337Z" fill="#CA2417"/>
<path d="M44.1623 41.6805C44.1623 41.6805 46.4443 45.814 45.5131 47.4823C44.5819 49.1505 42.5597 45.4591 42.5597 45.4591C42.7437 45.1385 42.8299 44.7709 42.8076 44.4015C42.7853 44.0321 42.6555 43.6772 42.4341 43.3804C41.6272 42.4835 44.1623 41.6805 44.1623 41.6805Z" fill="#CA2417"/>
<path d="M42.9921 45.7965C42.3947 46.7886 41.8991 47.8387 41.5128 48.9309C41.4531 49.1508 41.4503 49.3824 41.5047 49.6039C41.559 49.8253 41.6687 50.0295 41.8235 50.1971C41.9782 50.3646 42.173 50.4901 42.3894 50.5618C42.6058 50.6335 42.8367 50.649 43.0606 50.6068C43.7208 50.47 44.3115 50.1051 44.7294 49.5761C45.1474 49.0471 45.3659 48.3875 45.3468 47.7128C45.3302 46.0011 42.9921 45.7965 42.9921 45.7965Z" fill="#CA2417"/>
<path d="M42.2304 48.6923C42.2304 48.6923 37.387 48.7939 35.5079 47.4644C33.6288 46.1348 39.582 51.5603 42.4781 50.4067C45.3742 49.253 42.2304 48.6923 42.2304 48.6923Z" fill="#CA2417"/>
<path d="M42.216 43.4668C42.8819 43.2477 44.4175 41.9286 44.2424 41.1154C44.1201 40.9006 43.9517 40.7155 43.7493 40.5737C43.7493 40.5737 42.806 45.3195 35.086 36.7792L34.4476 36.0764C34.2935 36.3482 34.2626 36.6324 34.2043 36.6895C34.146 36.7467 41.55 43.686 42.216 43.4668Z" fill="#B71D0A"/>
<path d="M42.9064 44.15C42.8193 43.636 42.6494 43.1395 42.4033 42.6797C42.315 42.7768 42.2686 42.9049 42.2744 43.0361C42.2802 43.1674 42.3376 43.2912 42.4341 43.3804C42.6555 43.6772 42.7853 44.0321 42.8076 44.4015C42.8299 44.7709 42.7437 45.1385 42.5597 45.4591C42.5597 45.4591 44.5819 49.1505 45.5131 47.4822C45.5802 47.3637 45.6288 47.2357 45.6573 47.1025C44.9864 46.8842 44.3818 46.4985 43.9005 45.982C43.4192 45.4654 43.0771 44.835 42.9064 44.15Z" fill="#B71D0A"/>
<path d="M43.1241 46.3608L43.3585 45.8523L42.992 45.7966C42.3945 46.7887 41.8989 47.8388 41.5126 48.931C41.4529 49.1509 41.4501 49.3825 41.5045 49.604C41.5588 49.8255 41.6685 50.0296 41.8233 50.1972C41.978 50.3648 42.1728 50.4903 42.3892 50.562C42.6056 50.6336 42.8365 50.6491 43.0604 50.6069C43.3523 50.5367 43.6323 50.424 43.8914 50.2724C43.8914 50.2724 41.2221 50.2501 43.1241 46.3608Z" fill="#B71D0A"/>
<path d="M44.5825 36.0688C44.5825 36.0688 49.9994 38.57 50.027 39.2893C50.0545 40.0086 48.1095 41.3512 48.1095 41.3512L44.5396 38.2816C44.5396 38.2816 43.7041 35.9604 44.5825 36.0688Z" fill="#CA2417"/>
<path d="M49.9622 39.2198C49.9622 39.2198 52.5723 45.4875 51.7863 46.332C51.5316 46.5641 51.2075 46.7058 50.8639 46.7352C50.5204 46.7647 50.1765 46.6803 49.8853 46.495C49.8853 46.495 47.3489 40.3563 47.8652 39.9464C48.5198 39.5917 49.2282 39.3462 49.9622 39.2198Z" fill="#CA2417"/>
<path d="M51.5891 46.3548C51.5891 46.3548 50.5787 50.9341 46.8515 51.9299C48.6313 50.3727 49.7882 48.2238 50.1096 45.8786C50.4728 41.6858 51.6914 46.1028 51.5891 46.3548Z" fill="#CA2417"/>
<path d="M51.4822 43.4589C51.8895 44.8156 52.1064 45.9935 51.8301 46.3014C51.5754 46.5335 51.2513 46.6751 50.9077 46.7046C50.5642 46.734 50.2203 46.6496 49.9291 46.4643L49.7981 46.2769C49.7981 46.2769 51.9633 46.2576 51.4822 43.4589Z" fill="#B71D0A"/>
<path d="M36.812 33.1771C36.812 33.1771 45.309 35.5614 45.2606 36.3831C45.1181 37.3036 44.8112 38.1906 44.3547 39.0019C44.1676 39.1327 36.2606 35.3186 36.2606 35.3186C36.2606 35.3186 36.3123 33.0011 36.812 33.1771Z" fill="#CA2417"/>
<path d="M45.0522 36.0849C45.0522 36.0849 45.0643 39.7364 36.629 34.9785L36.2591 34.7774C36.2408 34.9423 36.2308 35.1081 36.2294 35.2741C36.2294 35.2741 44.1518 39.1102 44.3235 38.9574C44.78 38.1462 45.0869 37.2591 45.2294 36.3386C45.2187 36.2864 45.1974 36.2371 45.1669 36.1934C45.1365 36.1498 45.0974 36.1129 45.0522 36.0849Z" fill="#B71D0A"/>
<path d="M47.4635 35.0569C47.4635 35.0569 53.2986 33.8192 53.4803 33.1179C53.6619 32.4166 52.0569 30.6822 52.0569 30.6822L47.9026 32.8955C47.9026 32.8955 46.5818 34.9673 47.4635 35.0569Z" fill="#CA2417"/>
<path d="M53.4889 32.685C53.4889 32.685 58.7537 28.4977 58.5038 27.3428C58.3945 27.0164 58.1804 26.735 57.8949 26.5427C57.6094 26.3503 57.2685 26.2577 56.9253 26.2793C56.9253 26.2793 51.7529 30.4349 52.038 31.0071C52.4288 31.6404 52.9187 32.207 53.4889 32.685Z" fill="#CA2417"/>
<path d="M58.5031 27.3431C58.5031 27.3431 61.9033 24.0976 60.82 20.3902C60.4138 22.7264 59.1745 24.8344 57.3319 26.3233C53.8965 28.8385 58.3479 27.5665 58.5031 27.3431Z" fill="#CA2417"/>
<path d="M53.4803 33.1181C53.6619 32.4168 52.0569 30.6824 52.0569 30.6824C52.0855 31.122 52.057 33.9648 47.2268 34.6481C47.2279 34.8607 47.2984 35.0084 47.5042 35.0451C47.7101 35.0818 53.2987 33.8194 53.4803 33.1181Z" fill="#B71D0A"/>
<path d="M56.8502 29.7125C57.82 28.7559 58.618 27.788 58.4815 27.3582C58.3722 27.0317 58.1581 26.7503 57.8726 26.558C57.5871 26.3656 57.2462 26.273 56.903 26.2946C56.903 26.2946 56.8369 26.3408 56.7048 26.4331C56.5727 26.5254 58.5927 27.4938 56.782 29.6617L56.8502 29.7125Z" fill="#B71D0A"/>
<path d="M38.4477 33.8064C38.4477 33.8064 46.9677 36.0596 47.3463 35.3355C47.6916 34.4726 47.8766 33.5535 47.8922 32.6235C47.7612 32.4361 39.0442 31.6826 39.0442 31.6826C39.0442 31.6826 37.9754 33.6932 38.4477 33.8064Z" fill="#CA2417"/>
<path d="M47.3463 35.3359C47.6916 34.4729 47.8766 33.5539 47.8922 32.6239C47.8466 32.5921 47.7935 32.5727 47.7381 32.5674C47.7997 32.6557 48.6078 35.2423 38.3244 33.6303C38.3223 33.6692 38.3333 33.7077 38.3557 33.7397C38.378 33.7717 38.4104 33.7952 38.4477 33.8067C38.4477 33.8067 46.9754 36.071 47.3463 35.3359Z" fill="#B71D0A"/>
<path d="M54.1519 18.7472C54.1519 18.7472 54.318 13.1001 52.9101 12.4918C51.5022 11.8835 56.7023 13.3709 55.3155 18.7713C53.9286 24.1717 54.1519 18.7472 54.1519 18.7472Z" fill="#CA2417"/>
<path d="M41.7793 28.2126C41.7793 28.2126 47.3689 26.3422 47.5154 27.0442C47.708 27.7435 47.9771 28.4196 48.3179 29.0602C48.3179 29.0602 41.5857 32.8121 39.1497 31.9046C36.7136 30.997 41.7793 28.2126 41.7793 28.2126Z" fill="#CA2417"/>
<path d="M47.5047 27.0517C48.3058 26.0893 49.2316 25.2383 50.2577 24.5209C51.2171 24.403 52.1838 24.3528 53.1505 24.3707C52.7148 25.4416 52.0393 26.3979 51.1761 27.1661C50.3128 27.9343 49.2847 28.494 48.1707 28.802C44.4567 29.7229 47.5047 27.0517 47.5047 27.0517Z" fill="#CA2417"/>
<path d="M48.3073 29.0675C47.9665 28.427 47.6974 27.7509 47.5048 27.0515C47.4354 26.9522 47.2923 26.8881 47.0017 26.8942C47.016 27.3601 46.7916 29.946 40.1473 31.3387C39.6777 31.4275 39.2147 31.5481 38.7615 31.6997C38.8775 31.791 39.0092 31.8603 39.1501 31.9042C41.5751 32.8194 48.3073 29.0675 48.3073 29.0675Z" fill="#B71D0A"/>
<path d="M40.4143 23.4221C40.4143 23.4221 43.9291 22.0988 44.1437 22.8515C44.3584 23.6042 45.9986 25.7406 46.757 24.9974C47.5155 24.2541 44.2253 28.4075 40.8525 28.2694C37.4797 28.1313 40.4143 23.4221 40.4143 23.4221Z" fill="#CA2417"/>
<path d="M44.0404 23.0548C44.2549 22.1954 44.2879 21.3003 44.1372 20.4268C43.8433 19.4669 47.1225 18.1112 47.4395 18.1195C47.7565 18.1278 51.2736 22.8098 46.6933 24.9761C42.1131 27.1424 44.0404 23.0548 44.0404 23.0548Z" fill="#CA2417"/>
<path d="M50.6255 24.4609C50.6255 24.4609 53.0911 18.9632 53.6998 18.8498C54.3085 18.7363 55.2012 18.3259 55.4027 19.1535C55.6041 19.9811 52.6696 24.8544 52.6696 24.8544C52.6696 24.8544 49.9859 25.8432 50.6255 24.4609Z" fill="#CA2417"/>
<path d="M47.8005 18.7538C47.8005 18.7538 46.6996 14.1069 44.8172 12.632C42.9349 11.1571 39.518 8.75197 36.4755 10.6808C35.3748 11.4499 41.866 10.8699 42.1027 12.9202C42.3395 14.9705 37.2824 11.5778 37.2824 11.5778C37.2824 11.5778 35.5663 10.6924 35.9681 11.4785C36.3699 12.2646 44.1052 18.201 44.2968 19.9053C44.4884 21.6097 47.8005 18.7538 47.8005 18.7538Z" fill="#CA2417"/>
<path d="M46.7573 24.9972C46.0352 25.6987 44.5392 23.839 44.1957 22.9957C44.3503 23.9637 44.2377 24.9551 43.8701 25.8628C43.5025 26.7704 42.8938 27.5599 42.1099 28.1459C43.9352 27.5763 45.5515 26.4812 46.7573 24.9972Z" fill="#B71D0A"/>
<path d="M48.9993 20.8211C48.8106 19.7871 48.2844 18.8444 47.5032 18.1407C47.1488 18.1258 44.2604 19.2905 44.07 20.2606C44.321 20.1509 48.1604 18.6828 48.9993 20.8211Z" fill="#B71D0A"/>
<path d="M42.7876 12.7042C42.1282 10.5881 36.4856 10.9527 36.4746 10.9604C37.4213 11.2837 41.8596 11.2353 42.0545 12.921C42.2912 14.9713 37.2342 11.5785 37.2342 11.5785C36.8837 11.3978 36.5125 11.2603 36.129 11.169C43.4493 17.0507 42.7876 12.7042 42.7876 12.7042Z" fill="#B71D0A"/>
<path d="M53.1505 24.3707C52.1837 24.3529 51.2171 24.4031 50.2576 24.5209C50.2576 24.5209 50.1475 24.5978 50.0705 24.6517C50.0705 24.6517 53.2583 24.5251 51.8472 26.5615C52.3998 25.9086 52.8402 25.1683 53.1505 24.3707Z" fill="#B71D0A"/>
<path d="M55.3476 19.192C55.1461 18.3644 54.2534 18.7748 53.6447 18.8883C53.6447 18.8883 55.2958 19.3759 54.2612 21.7401C54.1538 21.9279 54.0933 22.1391 54.0851 22.3555C54.6999 21.3896 55.1281 20.3166 55.3476 19.192Z" fill="#B71D0A"/>
<path d="M50.0271 39.289C49.978 39.106 49.8662 38.9459 49.7111 38.8369C49.7111 38.8369 49.173 42.3805 44.5397 37.9531L44.4703 37.8539L44.5947 38.2429L48.1646 41.3125C48.1646 41.3125 50.0546 40.0084 50.0271 39.289Z" fill="#B71D0A"/>
<path d="M23.6642 16.2346C23.6642 16.2346 25.6169 14.7389 31.1725 15.7973C31.5421 15.7962 31.9099 15.8488 32.2645 15.9534L33.8716 16.4718L34.8436 16.761C35.1535 16.8526 35.4517 16.9803 35.732 17.1415C41.0884 19.2746 41.936 21.6366 41.936 21.6366C41.936 21.6366 45.2759 26.8856 38.4502 33.575C32.9245 39.0772 28.7592 38.1798 27.4096 37.6784C26.1481 37.4438 21.9982 36.0761 20.1982 28.2248C18.0283 18.8594 23.6642 16.2346 23.6642 16.2346Z" fill="#B71D0A"/>
<path d="M23.9435 15.908C23.9435 15.908 25.8632 14.4354 31.3175 15.4661C31.6763 15.4811 32.0325 15.5349 32.3798 15.6266C32.9313 15.7829 33.4453 15.9325 33.9187 16.0942L34.8907 16.3834C35.1916 16.4702 35.481 16.5932 35.7526 16.7495C41.0077 18.8549 41.8466 21.1574 41.8466 21.1574C41.8466 21.1574 45.1171 26.3072 38.4191 32.8746C32.9682 38.2259 28.9086 37.386 27.5964 36.8913C26.3614 36.671 22.283 35.3354 20.516 27.6251C18.4144 18.4746 23.9435 15.908 23.9435 15.908Z" fill="#CC251A"/>
<path d="M22.3891 20.8349C22.7671 19.585 23.4048 18.4295 24.2605 17.4442C25.1162 16.4588 26.1706 15.6658 27.3546 15.117C28.684 15.0905 30.0126 15.2077 31.3174 15.4666C31.6762 15.4815 32.0323 15.5354 32.3796 15.6271C32.9311 15.7834 33.4452 15.933 33.9185 16.0946L34.8905 16.3838C35.1914 16.4707 35.4808 16.5936 35.7524 16.75C41.0076 18.8554 41.8464 21.1579 41.8464 21.1579C41.8464 21.1579 45.117 26.3076 38.4189 32.875C38.2538 32.9904 38.1383 33.1532 37.9886 33.2906C35.5415 34.1815 32.871 34.2571 30.3745 33.5063C24.4193 31.7587 20.8537 26.093 22.3891 20.8349Z" fill="#DD2C2C"/>
<path d="M35.1099 18.643C35.0979 18.9673 35.2035 19.2851 35.4073 19.5379C35.611 19.7907 35.8991 19.9614 36.2184 20.0185C36.9801 20.2413 37.7275 19.9981 37.8794 19.4652C37.8937 19.1413 37.7905 18.8229 37.5888 18.5687C37.3871 18.3145 37.1006 18.1417 36.7819 18.082C36.0202 17.8593 35.2728 18.1025 35.1099 18.643Z" fill="#B71D0A"/>
<path d="M29.5685 16.9015C29.5543 17.2254 29.6575 17.5438 29.8592 17.798C30.0609 18.0522 30.3474 18.225 30.666 18.2847C31.4278 18.5074 32.1752 18.2643 32.3381 17.7237C32.3523 17.3998 32.2491 17.0814 32.0474 16.8272C31.8458 16.573 31.5592 16.4002 31.2406 16.3405C30.4788 16.1177 29.7204 16.3687 29.5685 16.9015Z" fill="#B71D0A"/>
</g>
<defs>
<clipPath id="clip0_240_2">
<rect width="63" height="54" fill="white"/>
</clipPath>
</defs>
</svg>
