<svg id="e0FaZOzrxSc1" xmlns="http://www.w3.org/2000/svg" xmlns:xlink="http://www.w3.org/1999/xlink" viewBox="0 0 63 54" shape-rendering="geometricPrecision" text-rendering="geometricPrecision"><style><![CDATA[#e0FaZOzrxSc3_tr {animation: e0FaZOzrxSc3_tr__tr 5000ms linear infinite normal forwards}@keyframes e0FaZOzrxSc3_tr__tr { 0% {transform: translate(31.447649px,26.890382px) rotate(0deg)} 16% {transform: translate(31.447649px,26.890382px) rotate(0deg)} 20% {transform: translate(31.447649px,26.890382px) rotate(3deg)} 48% {transform: translate(31.447649px,26.890382px) rotate(3deg)} 52% {transform: translate(31.447649px,26.890382px) rotate(-6deg)} 80% {transform: translate(31.447649px,26.890382px) rotate(-6deg)} 84% {transform: translate(31.447649px,26.890382px) rotate(0deg)} 100% {transform: translate(31.447649px,26.890382px) rotate(0deg)}} #e0FaZOzrxSc7_tr {animation: e0FaZOzrxSc7_tr__tr 5000ms linear infinite normal forwards}@keyframes e0FaZOzrxSc7_tr__tr { 0% {transform: translate(8.73615px,38.9574px) rotate(0deg)} 4% {transform: translate(8.73615px,38.9574px) rotate(-5deg)} 8% {transform: translate(8.73615px,38.9574px) rotate(0deg)} 100% {transform: translate(8.73615px,38.9574px) rotate(0deg)}} #e0FaZOzrxSc18_tr {animation: e0FaZOzrxSc18_tr__tr 5000ms linear infinite normal forwards}@keyframes e0FaZOzrxSc18_tr__tr { 0% {transform: translate(9.466048px,18.001518px) rotate(0deg)} 30% {transform: translate(9.466048px,18.001518px) rotate(0deg)} 34% {transform: translate(9.466048px,18.001518px) rotate(4deg)} 38% {transform: translate(9.466048px,18.001518px) rotate(0deg)} 100% {transform: translate(9.466048px,18.001518px) rotate(0deg)}} #e0FaZOzrxSc30_tr {animation: e0FaZOzrxSc30_tr__tr 5000ms linear infinite normal forwards}@keyframes e0FaZOzrxSc30_tr__tr { 0% {transform: translate(19.4719px,15.102097px) rotate(3deg)} 50% {transform: translate(19.4719px,15.102097px) rotate(-7deg)} 100% {transform: translate(19.4719px,15.102097px) rotate(3deg)}} #e0FaZOzrxSc44_tr {animation: e0FaZOzrxSc44_tr__tr 5000ms linear infinite normal forwards}@keyframes e0FaZOzrxSc44_tr__tr { 0% {transform: translate(42.273926px,49.015937px) rotate(0deg)} 92% {transform: translate(42.273926px,49.015937px) rotate(0deg)} 96% {transform: translate(42.273926px,49.015937px) rotate(5deg)} 100% {transform: translate(42.273926px,49.015937px) rotate(0deg)}} #e0FaZOzrxSc56_tr {animation: e0FaZOzrxSc56_tr__tr 5000ms linear infinite normal forwards}@keyframes e0FaZOzrxSc56_tr__tr { 0% {transform: translate(57.594576px,26.677572px) rotate(0deg)} 62% {transform: translate(57.594576px,26.677572px) rotate(0deg)} 66% {transform: translate(57.594576px,26.677572px) rotate(-5deg)} 70% {transform: translate(57.594576px,26.677572px) rotate(0deg)} 100% {transform: translate(57.594576px,26.677572px) rotate(0deg)}} #e0FaZOzrxSc66_tr {animation: e0FaZOzrxSc66_tr__tr 5000ms linear infinite normal forwards}@keyframes e0FaZOzrxSc66_tr__tr { 0% {transform: translate(45.6573px,23.854675px) rotate(-3deg)} 50% {transform: translate(45.6573px,23.854675px) rotate(7deg)} 100% {transform: translate(45.6573px,23.854675px) rotate(-3deg)}}]]></style><g clip-path="url(#e0FaZOzrxSc81)"><g id="e0FaZOzrxSc3_tr" transform="translate(31.447649,26.890382) rotate(0)"><g transform="translate(-31.447649,-26.890382)"><path d="M21.38,30.386c0,0-9.4183-.2799-10.0248.2588s-.0131,2.5368.4393,3.0905s10.4177-1.1735,10.3836-1.363c.0932-.1802.1465-.3785.1561-.5814s-.0246-.4054-.1004-.594c-.0758-.1885-.1913-.3586-.3386-.4986s-.3231-.2464-.5152-.3123Z" fill="#ca2417"/><path d="M11.1287,31.1644c0,0-4.16088,2.2507-4.26649,4.1627s3.57199-.1159,3.57199-.1159c.0154-.369.1396-.7249.3571-1.0229s.5183-.5247.8647-.6515c1.1008-.2767-.5273-2.3724-.5273-2.3724Z" fill="#ca2417"/><path d="M9.89197,35.2785c-.03433,1.1539-.18178,2.3014-.44022,3.426-.06624.2202-.18788.4196-.35325.5791s-.36895.2738-.59127.332-.45595.0583-.67853.0003-.4267-.1721-.59278-.3315c-.48184-.4754-.78211-1.1046-.84851-1.7779-.06639-.6734.1053-1.3483.48515-1.9073.9367-1.4258,3.01941-.3207,3.01941-.3207Z" fill="#ca2417"/><g id="e0FaZOzrxSc7_tr" transform="translate(8.73615,38.9574) rotate(0)"><path d="M8.96501,38.1248c0,0,4.02009,2.7058,6.33609,2.5975s-5.66671,1.2677-7.48525-1.335s1.14916-1.2625,1.14916-1.2625Z" transform="translate(-8.736147,-38.9574)" fill="#ca2417"/></g><path d="M11.7949,33.7357c-.4084-.5845-1.0458-2.5518-.4393-3.0905.2201-.1109.4614-.1732.7078-.1826c0,0-1.7611,4.513,9.3379,1.5013.3258-.0964.6296-.1774.9224-.2507-.0374.3216-.1508.5814-.1452.6596s-9.9389,1.9056-10.3836,1.3629Z" fill="#b71d0a"/><path d="M10.8526,33.9343c.3438-.3899.7541-.7155,1.2119-.9617.0116.0641.0101.1299-.0044.1933s-.0415.1234-.0797.176-.0864.0972-.1422.1307-.1176.0554-.1821.0644c-.3464.1268-.6473.3534-.8647.6514s-.3417.654-.3571,1.0229c0,0-3.68531,2.017-3.57199.116.0081-.1367.03515-.2716.08035-.4008.68277.1824,1.40053.187,2.08494.0133s1.3127-.5198,1.825-1.0055Z" fill="#b71d0a"/><path d="M9.50826,35.6449l.07704-.5462.33906.157c-.03433,1.1538-.18179,2.3013-.44023,3.4259-.06624.2202-.18787.4196-.35325.5791s-.36894.2738-.59127.332-.45594.0583-.67853.0003-.42669-.1721-.59277-.3315c-.20178-.2184-.37288-.4633-.50858-.7279c0,0,2.228,1.4304,2.74853-2.8887Z" fill="#b71d0a"/><path d="M13.8171,26.2665c0,0-5.90021-.8012-6.3273-.2402s.46019,2.6983.46019,2.6983l4.67061-.6537c0,0,1.9571-1.466,1.1965-1.8044Z" fill="#ca2417"/><path d="M7.55904,25.9608c0,0-5.50375,3.8455-5.35842,4.9913.08735.3326.28202.6273.55375.8381s.60528.3261.94882.3277c0,0,5.43775-3.7993,5.23739-4.4143-.36502-.6507-.83141-1.239-1.38154-1.7428Z" fill="#ca2417"/><path d="M2.36044,31.0871c0,0-1.617998,4.413.97769,7.2605-.68549-2.2847-.51329-4.7398.48416-6.9033c1.99228-3.6898-1.42333-.6303-1.46185-.3572Z" fill="#ca2417"/><path d="M4.00569,28.7066c-1.02368.8794-1.88995,1.7965-1.80517,2.2461.08734.3326.28201.6272.55374.8381s.60527.326.94881.3277l.19816-.1385c0,0-1.8086-1.1817.10446-3.2734Z" fill="#b71d0a"/><path d="M21.9404,27.9759c0,0-8.4495-2.598-8.8469-1.8772-.3762.8479-.5955,1.7574-.6472,2.6843.065.2336,8.7963,1.2888,8.7963,1.2888s1.1558-1.9564.6978-2.0959Z" fill="#ca2417"/><path d="M13.3853,25.9767c0,0-2.0033,3.041,7.6868,3.6397l.4216.0173c-.1431.2641-.251.4379-.251.4379s-8.7313-1.0552-8.7963-1.2888c.0517-.9269.271-1.8364.6472-2.6843.0782-.0762.1825-.1198.2917-.1218Z" fill="#b71d0a"/><path d="M11.9045,23.8107c0,0-4.23703-4.2119-4.0213-4.8878s2.513-1.2799,2.513-1.2799l2.3041,4.1181c0,0-.0077,2.4508-.7958,2.0496Z" fill="#ca2417"/><g id="e0FaZOzrxSc18_tr" transform="translate(9.466048,18.001518) rotate(0)"><g transform="translate(-9.466045,-18.001517)"><path d="M8.11315,18.5489c0,0-2.1962-6.4255-1.37614-7.2447s1.90764-.0363,1.90764-.0363s2.12245,6.2966,1.58305,6.6734c-.66931.3101-1.38251.515-2.11455.6076Z" fill="#ca2417"/><path d="M6.76033,11.3373c0,0-1.1141-4.57208,1.80287-7.10256-.92305,2.17774-1.01733,4.61961-.26509,6.86516c1.54669,3.9251-1.52787.5095-1.53778.2374Z" fill="#ca2417"/><path d="M6.8781,14.226c-.34127-1.4028-.45358-2.5717-.11786-2.8884.83547-.7971,1.90764-.0362,1.90764-.0362l.06827.2149c0,0-2.16853-.1261-1.85805,2.7097Z" fill="#b71d0a"/></g></g><path d="M7.8837,18.9232c.22674-.6837,2.513-1.28,2.513-1.28l.0385.0552c-.2564.3597-1.81178,2.7759,1.932,5.9537-.0171.0431-.0433.0821-.0769.1141s-.0737.0565-.1176.0716-.0905.0205-.1367.0159-.0909-.0192-.1311-.0427c0,0-4.23694-4.2119-4.0212-4.8878Z" fill="#b71d0a"/><path d="M20.1846,27.6439c0,0-8.4407-2.7026-8.3329-3.5329.1718-.915.5093-1.7906.9961-2.5835.1982-.1384,7.9521,3.996,7.9521,3.996s-.1683,2.2677-.6153,2.1204Z" fill="#ca2417"/><path d="M11.8518,24.1103c.1718-.915.5093-1.7905.9961-2.5834c0,0,.0551-.0385.1762.041.121.0796-2.174,1.7652,7.3412,5.982-.0771.0539-.1321.0923-.1651.1154s-8.4342-2.74-8.3484-3.555Z" fill="#b71d0a"/><path d="M15.0623,6.45607c0,0,2.8905-4.84258,4.4096-4.59096-1.2296-.09156-2.4504.26035-3.4416.99204s-1.6872,1.7948-1.962,2.99685c-1.7435,5.2885.994.60207.994.60207Z" fill="#ca2417"/><path d="M20.3686,21.1302c0,0-3.6943-4.6075-4.1819-4.0862-.5461.4805-1.1442.8985-1.7833,1.2459c0,0,3.6438,6.8093,6.191,7.3601s-.2258-4.5198-.2258-4.5198Z" fill="#ca2417"/><path d="M16.1758,17.0522c-.1621-1.24-.4867-2.4534-.9654-3.6091-.7317-.6106-1.5082-1.1653-2.3227-1.6596-.2126,1.1361-.1607,2.3065.1517,3.4203.3123,1.1138.8767,2.1412,1.6493,3.0023c2.5902,2.7693,1.4871-1.1539,1.4871-1.1539Z" fill="#ca2417"/><path d="M14.4184,18.3122c.6391-.3475,1.2372-.7654,1.7832-1.246.0991-.0692.2642-.0205.5064.1386-.2631.3972-1.486,2.6795,3.3906,7.4785.3491.3359.6759.6941.9786,1.0724-.1468.0076-.2939-.0057-.437-.0393-2.5781-.595-6.2218-7.4042-6.2218-7.4042Z" fill="#b71d0a"/><path d="M24.0954,17.8371c0,0-2.2456-3.0264-2.8301-2.5032-.5845.5233-3.1173,1.4232-3.3419.3984s.2775,4.1718,3.2034,5.968s2.9686-3.8632,2.9686-3.8632Z" fill="#ca2417"/><g id="e0FaZOzrxSc30_tr" transform="translate(19.4719,15.102097) rotate(3)"><g transform="translate(-19.471899,-15.102093)"><path d="M21.2443,15.5615c.2884-.8412.7466-1.6139,1.3461-2.27.7607-.6463-1.2736-3.55786-1.6292-3.78539s-5.7537,1.87009-3.061,6.19269c2.6926,4.3226,3.3441-.1373,3.3441-.1373Z" fill="#ca2417"/><path d="M21.0001,9.88974c0,0,4.0969-2.43587,6.4339-2.11561s6.4737,1.10631,7.2102,4.64557c.2565,1.2815-3.8947-3.74531-5.5249-2.49138s4.3107,2.53558,4.3107,2.53558s1.8405.6179.9853.8708c-.8553.2529-10.4783-1.1641-11.8301-.1211s-1.5851-3.32386-1.5851-3.32386Z" fill="#ca2417"/><path d="M18.2666,10.9956c.7253-.7655,1.6784-1.27601,2.7178-1.45584.306.18009,2.1047,2.73104,1.7217,3.58954-.1233-.1765-2.5396-3.49403-4.4395-2.1337Z" fill="#b71d0a"/><path d="M28.7535,9.26483c1.9825-1.00767,5.6075,3.33637,5.6229,3.35847-.8939-.4587-3.953-3.68816-5.2937-2.65292-1.6412,1.26162,4.3107,2.53552,4.3107,2.53552.3743.1256.7333.2932,1.07.4998-9.1706-1.1915-5.7099-3.74087-5.7099-3.74087Z" fill="#b71d0a"/></g></g><path d="M14.947,13.1838c0,0,.8892-5.97182.4434-6.39888s-.983-1.26624-1.5917-.6604-.7781,6.27158-.7781,6.27158s1.7294,2.2876,1.9264.7877Z" fill="#ca2417"/><path d="M17.9234,15.7326c.2158.9653,2.4801.2202,3.2286-.3027-.6665.7277-1.1194,1.6255-1.3091,2.5947s-.1088,1.9726.2338,2.8998c-1.2288-1.4718-1.9801-3.2832-2.1533-5.1918Z" fill="#b71d0a"/><path d="M22.7026,13.1476c-.0184.02-.041.0358-.0662.0463l.0662-.0463Z" fill="#b71d0a"/><path d="M12.8749,11.7427c.8146.4943,1.591,1.0491,2.3227,1.6597.0518.0506.0936.1104.1233.1764c0,0-2.5979-1.7956-2.5087.6532-.1228-.8274-.1016-1.6696.0627-2.4893Z" fill="#b71d0a"/><path d="M13.7876,6.13196c.6087-.60584,1.1349.24103,1.5917.66041c0,0-1.6292-.50296-2.011,2.0452-.0099.21774-.0771.42889-.1949.61208.1266-1.48348.3115-3.02413.6142-3.31769Z" fill="#b71d0a"/><path d="M7.45826,25.9817c.15384-.1146.34079-.1761.53277-.1753c0,0-1.44633,3.2755,4.82917,2.0584l.0881-.0615c-.1871.1307-.3192.223-.3192.223l-4.63982.6979c0,0-.89499-2.1484-.49102-2.7425Z" fill="#b71d0a"/><path d="M35.9316,35.4337c0,0,8.0875,4.8697,8.311,5.6819s-1.3605,2.1323-2.0264,2.3514c-.666.2191-8.146-6.6178-8.0117-6.7773.0188-.2014.0801-.3963.1801-.5719.0999-.1757.236-.328.3994-.4468s.3502-.2014.548-.2423.4023-.0392.5996.005Z" fill="#ca2417"/><path d="M44.1623,41.6805c0,0,2.282,4.1335,1.3508,5.8018-.9312,1.6682-2.9534-2.0232-2.9534-2.0232.184-.3206.2702-.6882.2479-1.0576s-.1521-.7243-.3735-1.0211c-.8069-.8969,1.7282-1.6999,1.7282-1.6999Z" fill="#ca2417"/><path d="M42.9921,45.7965c-.5974.9921-1.093,2.0422-1.4793,3.1344-.0597.2199-.0625.4515-.0081.673.0543.2214.164.4256.3188.5932.1547.1675.3495.293.5659.3647s.4473.0872.6712.045c.6602-.1368,1.2509-.5017,1.6688-1.0307.418-.529.6365-1.1886.6174-1.8633-.0166-1.7117-2.3547-1.9163-2.3547-1.9163Z" fill="#ca2417"/><g id="e0FaZOzrxSc44_tr" transform="translate(42.273926,49.015937) rotate(0)"><path d="M42.2304,48.6923c0,0-4.8434.1016-6.7225-1.2279s4.0741,4.0959,6.9702,2.9423c2.8961-1.1537-.2477-1.7144-.2477-1.7144Z" transform="translate(-42.273926,-49.015937)" fill="#ca2417"/></g><path d="M42.216,43.4668c.6659-.2191,2.2015-1.5382,2.0264-2.3514-.1223-.2148-.2907-.3999-.4931-.5417c0,0-.9433,4.7458-8.6633-3.7945l-.6384-.7028c-.1541.2718-.185.556-.2433.6131s7.3457,6.9965,8.0117,6.7773Z" fill="#b71d0a"/><path d="M42.9064,44.15c-.0871-.514-.257-1.0105-.5031-1.4703-.0883.0971-.1347.2252-.1289.3564.0058.1313.0632.2551.1597.3443.2214.2968.3512.6517.3735,1.0211s-.0639.737-.2479,1.0576c0,0,2.0222,3.6914,2.9534,2.0231.0671-.1185.1157-.2465.1442-.3797-.6709-.2183-1.2755-.604-1.7568-1.1205s-.8234-1.147-.9941-1.832Z" fill="#b71d0a"/><path d="M43.1241,46.3608l.2344-.5085-.3665-.0557c-.5975.9921-1.0931,2.0422-1.4794,3.1344-.0597.2199-.0625.4515-.0081.673.0543.2215.164.4256.3188.5932.1547.1676.3495.2931.5659.3648s.4473.0871.6712.0449c.2919-.0702.5719-.1829.831-.3345c0,0-2.6693-.0223-.7673-3.9116Z" fill="#b71d0a"/><path d="M44.5825,36.0688c0,0,5.4169,2.5012,5.4445,3.2205.0275.7193-1.9175,2.0619-1.9175,2.0619l-3.5699-3.0696c0,0-.8355-2.3212.0429-2.2128Z" fill="#ca2417"/><path d="M49.9622,39.2198c0,0,2.6101,6.2677,1.8241,7.1122-.2547.2321-.5788.3738-.9224.4032-.3435.0295-.6874-.0549-.9786-.2402c0,0-2.5364-6.1387-2.0201-6.5486.6546-.3547,1.363-.6002,2.097-.7266Z" fill="#ca2417"/><path d="M51.5891,46.3548c0,0-1.0104,4.5793-4.7376,5.5751c1.7798-1.5572,2.9367-3.7061,3.2581-6.0513.3632-4.1928,1.5818.2242,1.4795.4762Z" fill="#ca2417"/><path d="M51.4822,43.4589c.4073,1.3567.6242,2.5346.3479,2.8425-.2547.2321-.5788.3737-.9224.4032-.3435.0294-.6874-.055-.9786-.2403l-.131-.1874c0,0,2.1652-.0193,1.6841-2.818Z" fill="#b71d0a"/><path d="M36.812,33.1771c0,0,8.497,2.3843,8.4486,3.206-.1425.9205-.4494,1.8075-.9059,2.6188-.1871.1308-8.0941-3.6833-8.0941-3.6833s.0517-2.3175.5514-2.1415Z" fill="#ca2417"/><path d="M45.0522,36.0849c0,0,.0121,3.6515-8.4232-1.1064l-.3699-.2011c-.0183.1649-.0283.3307-.0297.4967c0,0,7.9224,3.8361,8.0941,3.6833.4565-.8112.7634-1.6983.9059-2.6188-.0107-.0522-.032-.1015-.0625-.1452-.0304-.0436-.0695-.0805-.1147-.1085Z" fill="#b71d0a"/><path d="M47.4635,35.0569c0,0,5.8351-1.2377,6.0168-1.939s-1.4234-2.4357-1.4234-2.4357l-4.1543,2.2133c0,0-1.3208,2.0718-.4391,2.1614Z" fill="#ca2417"/><path d="M53.4889,32.685c0,0,5.2648-4.1873,5.0149-5.3422-.1093-.3264-.3234-.6078-.6089-.8001s-.6264-.285-.9696-.2634c0,0-5.1724,4.1556-4.8873,4.7278.3908.6333.8807,1.1999,1.4509,1.6779Z" fill="#ca2417"/><g id="e0FaZOzrxSc56_tr" transform="translate(57.594576,26.677572) rotate(0)"><path d="M58.5031,27.3431c0,0,3.4002-3.2455,2.3169-6.9529-.4062,2.3362-1.6455,4.4442-3.4881,5.9331-3.4354,2.5152,1.016,1.2432,1.1712,1.0198Z" transform="translate(-57.594576,-26.677572)" fill="#ca2417"/></g><path d="M53.4803,33.1181c.1816-.7013-1.4234-2.4357-1.4234-2.4357.0286.4396.0001,3.2824-4.8301,3.9657.0011.2126.0716.3603.2774.397.2059.0367,5.7945-1.2257,5.9761-1.927Z" fill="#b71d0a"/><path d="M56.8502,29.7125c.9698-.9566,1.7678-1.9245,1.6313-2.3543-.1093-.3265-.3234-.6079-.6089-.8002s-.6264-.285-.9696-.2634c0,0-.0661.0462-.1982.1385s1.8879,1.0607.0772,3.2286l.0682.0508Z" fill="#b71d0a"/><path d="M38.4477,33.8064c0,0,8.52,2.2532,8.8986,1.5291.3453-.8629.5303-1.782.5459-2.712-.131-.1874-8.848-.9409-8.848-.9409s-1.0688,2.0106-.5965,2.1238Z" fill="#ca2417"/><path d="M47.3463,35.3359c.3453-.863.5303-1.782.5459-2.712-.0456-.0318-.0987-.0512-.1541-.0565.0616.0883.8697,2.6749-9.4137,1.0629-.0021.0389.0089.0774.0313.1094s.0547.0555.092.067c0,0,8.5277,2.2643,8.8986,1.5292Z" fill="#b71d0a"/><path d="M54.1519,18.7472c0,0,.1661-5.6471-1.2418-6.2554s3.7922.8791,2.4054,6.2795-1.1636-.0241-1.1636-.0241Z" fill="#ca2417"/><path d="M41.7793,28.2126c0,0,5.5896-1.8704,5.7361-1.1684.1926.6993.4617,1.3754.8025,2.016c0,0-6.7322,3.7519-9.1682,2.8444-2.4361-.9076,2.6296-3.692,2.6296-3.692Z" fill="#ca2417"/><path d="M47.5047,27.0517c.8011-.9624,1.7269-1.8134,2.753-2.5308.9594-.1179,1.9261-.1681,2.8928-.1502-.4357,1.0709-1.1112,2.0272-1.9744,2.7954s-1.8914,1.3279-3.0054,1.6359c-3.714.9209-.666-1.7503-.666-1.7503Z" fill="#ca2417"/><path d="M48.3073,29.0675c-.3408-.6405-.6099-1.3166-.8025-2.016-.0694-.0993-.2125-.1634-.5031-.1573.0143.4659-.2101,3.0518-6.8544,4.4445-.4696.0888-.9326.2094-1.3858.361.116.0913.2477.1606.3886.2045c2.425.9152,9.1572-2.8367,9.1572-2.8367Z" fill="#b71d0a"/><path d="M40.4143,23.4221c0,0,3.5148-1.3233,3.7294-.5706s1.8549,2.8891,2.6133,2.1459c.7585-.7433-2.5317,3.4101-5.9045,3.272s-.4382-4.8473-.4382-4.8473Z" fill="#ca2417"/><g id="e0FaZOzrxSc66_tr" transform="translate(45.6573,23.854675) rotate(-3)"><g transform="translate(-45.657299,-23.854671)"><path d="M44.0404,23.0548c.2145-.8594.2475-1.7545.0968-2.628-.2939-.9599,2.9853-2.3156,3.3023-2.3073s3.8341,4.6903-.7462,6.8566c-4.5802,2.1663-2.6529-1.9213-2.6529-1.9213Z" fill="#ca2417"/><path d="M47.8005,18.7538c0,0-1.1009-4.6469-2.9833-6.1218s-5.2992-3.88003-8.3417-1.9512c-1.1007.7691,5.3905.1891,5.6272,2.2394.2368,2.0503-4.8203-1.3424-4.8203-1.3424s-1.7161-.8854-1.3143-.0993s8.1371,6.7225,8.3287,8.4268s3.5037-1.1515,3.5037-1.1515Z" fill="#ca2417"/><path d="M48.9993,20.8211c-.1887-1.034-.7149-1.9767-1.4961-2.6804-.3544-.0149-3.2428,1.1498-3.4332,2.1199.251-.1097,4.0904-1.5778,4.9293.5605Z" fill="#b71d0a"/><path d="M42.7876,12.7042c-.6594-2.1161-6.302-1.7515-6.313-1.7438.9467.3233,5.385.2749,5.5799,1.9606.2367,2.0503-4.8203-1.3425-4.8203-1.3425-.3505-.1807-.7217-.3182-1.1052-.4095c7.3203,5.8817,6.6586,1.5352,6.6586,1.5352Z" fill="#b71d0a"/></g></g><path d="M50.6255,24.4609c0,0,2.4656-5.4977,3.0743-5.6111s1.5014-.5239,1.7029.3037c.2014.8276-2.7331,5.7009-2.7331,5.7009s-2.6837.9888-2.0441-.3935Z" fill="#ca2417"/><path d="M46.7573,24.9972c-.7221.7015-2.2181-1.1582-2.5616-2.0015.1546.968.042,1.9594-.3256,2.8671s-.9763,1.6971-1.7602,2.2831c1.8253-.5696,3.4416-1.6647,4.6474-3.1487Z" fill="#b71d0a"/><path d="M53.1505,24.3707c-.9668-.0178-1.9334.0324-2.8929.1502c0,0-.1101.0769-.1871.1308c0,0,3.1878-.1266,1.7767,1.9098.5526-.6529.993-1.3932,1.3033-2.1908Z" fill="#b71d0a"/><path d="M55.3476,19.192c-.2015-.8276-1.0942-.4172-1.7029-.3037c0,0,1.6511.4876.6165,2.8518-.1074.1878-.1679.399-.1761.6154.6148-.9659,1.043-2.0389,1.2625-3.1635Z" fill="#b71d0a"/><path d="M50.0271,39.289c-.0491-.183-.1609-.3431-.316-.4521c0,0-.5381,3.5436-5.1714-.8838l-.0694-.0992.1244.389l3.5699,3.0696c0,0,1.89-1.3041,1.8625-2.0235Z" fill="#b71d0a"/><path d="M23.6642,16.2346c0,0,1.9527-1.4957,7.5083-.4373.3696-.0011.7374.0515,1.092.1561l1.6071.5184.972.2892c.3099.0916.6081.2193.8884.3805c5.3564,2.1331,6.204,4.4951,6.204,4.4951s3.3399,5.249-3.4858,11.9384c-5.5257,5.5022-9.691,4.6048-11.0406,4.1034-1.2615-.2346-5.4114-1.6023-7.2114-9.4536-2.1699-9.3654,3.466-11.9902,3.466-11.9902Z" fill="#b71d0a"/><path d="M23.9435,15.908c0,0,1.9197-1.4726,7.374-.4419.3588.015.715.0688,1.0623.1605.5515.1563,1.0655.3059,1.5389.4676l.972.2892c.3009.0868.5903.2098.8619.3661c5.2551,2.1054,6.094,4.4079,6.094,4.4079s3.2705,5.1498-3.4275,11.7172c-5.4509,5.3513-9.5105,4.5114-10.8227,4.0167-1.235-.2203-5.3134-1.5559-7.0804-9.2662-2.1016-9.1505,3.4275-11.7171,3.4275-11.7171Z" fill="#cc251a"/><path d="M22.3891,20.8349c.378-1.2499,1.0157-2.4054,1.8714-3.3907s1.9101-1.7784,3.0941-2.3272c1.3294-.0265,2.658.0907,3.9628.3496.3588.0149.7149.0688,1.0622.1605.5515.1563,1.0656.3059,1.5389.4675l.972.2892c.3009.0869.5903.2098.8619.3662c5.2552,2.1054,6.094,4.4079,6.094,4.4079s3.2706,5.1497-3.4275,11.7171c-.1651.1154-.2806.2782-.4303.4156-2.4471.8909-5.1176.9665-7.6141.2157-5.9552-1.7476-9.5208-7.4133-7.9854-12.6714Z" fill="#dd2c2c"/><path d="M35.1099,18.643c-.012.3243.0936.6421.2974.8949.2037.2528.4918.4235.8111.4806.7617.2228,1.5091-.0204,1.661-.5533.0143-.3239-.0889-.6423-.2906-.8965s-.4882-.427-.8069-.4867c-.7617-.2227-1.5091.0205-1.672.561Z" fill="#b71d0a"/><path d="M29.5685,16.9015c-.0142.3239.089.6423.2907.8965s.4882.427.8068.4867c.7618.2227,1.5092-.0204,1.6721-.561.0142-.3239-.089-.6423-.2907-.8965s-.4882-.427-.8068-.4867c-.7618-.2228-1.5202.0282-1.6721.561Z" fill="#b71d0a"/></g></g><clipPath id="e0FaZOzrxSc81"><rect width="63" height="54" rx="0" ry="0" fill="#fff"/></clipPath></g></svg>