<svg width="856" height="425" viewBox="0 0 856 425" fill="none" xmlns="http://www.w3.org/2000/svg">
<path fill-rule="evenodd" clip-rule="evenodd" d="M796.627 27.0234C796.627 27.0234 801.474 22.6337 801.692 16.8148C801.668 13.0875 800.137 9.43567 797.376 6.51876C797.376 6.51876 808.881 6.44563 811.058 14.2654C821.725 -2.37581 835.192 -1.81637 840.405 2.78144C841.189 3.44724 841.803 4.25273 842.204 5.13982C842.604 6.02691 842.781 6.97352 842.721 7.9114C851.426 11.5183 851.951 19.0489 851.927 22.8698C851.927 22.8698 856.622 22.7484 854.914 24.9772C854.633 25.3411 853.872 25.4414 853.064 25.4265C853.098 25.5589 853.483 27.7586 850.024 26.1596C847.976 28.1341 845.418 29.6435 842.553 30.5697C842.561 30.5834 842.579 30.6083 842.603 30.6428C842.948 31.1328 844.66 33.5676 842.141 33.4298C841.009 33.3619 838.953 31.4652 838.953 31.4652C837.763 31.6654 836.55 31.7646 835.329 31.7614C837.377 33.296 839.187 35.2697 836.966 35.8145C834.329 36.4573 830.207 32.9352 829.101 31.0763C823.591 29.7962 817.399 26.6387 810.921 20.4779C808.442 29.4696 796.627 27.0234 796.627 27.0234ZM797.377 65.4367C797.377 65.4367 799.593 62.8763 796.446 63.2192C796.065 63.2637 795.703 63.3868 795.387 63.5791C795.071 63.7715 794.81 64.0281 794.622 64.3296C789.698 61.5341 784.394 59.3611 778.862 57.8721C735.501 41.7448 678.184 58.1815 678.184 58.1815C678.184 58.1815 723.836 54.3336 708.069 65.2669C693.546 61.3703 676.033 67.0779 676.033 67.0779C676.033 67.0779 688.42 70.4264 691.394 72.414C691.394 72.414 684.14 78.1067 677.84 80.3289C677.84 80.3289 695.79 82.086 709.691 75.9294C727.513 83.8618 682.247 87.7963 682.247 87.7963C682.247 87.7963 733.37 94.805 771.195 78.4484C769.38 80.4798 767.425 82.4024 765.341 84.2052C765.341 84.2052 775.58 81.6991 780.854 73.559L781.586 73.1152C786.23 71.5066 790.677 69.481 794.861 67.0677C795.138 67.3344 795.47 67.5492 795.837 67.6998C796.203 67.8503 796.596 67.9333 796.994 67.9441C800.438 67.6028 797.377 65.4367 797.377 65.4367ZM364.645 198.303C365.922 197.552 367.152 196.735 368.332 195.858L368.575 195.678C368.924 195.41 369.27 195.133 369.606 194.864C369.778 194.727 369.946 194.591 370.112 194.46L370.222 194.378C370.543 194.106 370.861 193.825 371.173 193.549C371.332 193.408 371.49 193.268 371.646 193.132L371.938 192.85C372.313 192.522 372.668 192.18 373.014 191.837C373.051 191.799 373.09 191.762 373.129 191.724L373.155 191.699C373.215 191.641 373.276 191.582 373.333 191.519C373.717 191.133 374.103 190.736 374.479 190.338L374.569 190.243L374.69 190.112L374.691 190.111L374.692 190.11L374.694 190.108L374.695 190.107L374.696 190.105C375.065 189.705 375.416 189.326 375.775 188.891C375.816 188.836 375.86 188.783 375.908 188.733C376.239 188.347 376.547 187.968 376.856 187.579C376.935 187.492 377.003 187.403 377.071 187.314C377.381 186.925 377.68 186.534 377.957 186.15L378.052 186.026C378.22 185.794 378.386 185.557 378.548 185.326C378.692 185.119 378.834 184.917 378.971 184.727L379.04 184.629C379.295 184.251 379.525 183.889 379.756 183.527C379.757 183.518 379.759 183.509 379.762 183.5C379.764 183.493 379.767 183.485 379.77 183.478C379.777 183.462 379.786 183.447 379.795 183.432L379.8 183.424L379.806 183.415C379.811 183.408 379.815 183.402 379.82 183.395C379.827 183.386 379.833 183.377 379.84 183.368L379.848 183.357C379.874 183.323 379.9 183.289 379.918 183.253C380.121 182.927 380.314 182.599 380.493 182.288C380.501 182.24 380.532 182.199 380.563 182.16C380.581 182.136 380.599 182.112 380.612 182.088C380.824 181.703 381.023 181.336 381.209 180.986L381.23 180.86C381.385 180.566 381.529 180.269 381.662 179.981C381.672 179.918 381.705 179.858 381.736 179.801C381.753 179.77 381.769 179.74 381.781 179.711C381.857 179.534 381.925 179.367 381.991 179.206C382.016 179.146 382.04 179.086 382.064 179.028C382.1 178.948 382.131 178.867 382.157 178.783C382.251 178.545 382.327 178.318 382.398 178.105L382.399 178.104L382.437 177.99L382.451 177.902L382.451 177.902L382.451 177.902L382.451 177.901C382.488 177.678 382.521 177.474 382.603 177.298L382.637 177.093L382.702 176.694L382.727 176.539C382.729 176.392 382.713 176.246 382.681 176.102C382.651 175.988 382.608 175.877 382.553 175.771L382.493 175.681L382.418 175.549L382.315 175.392L382.173 175.209L382.12 175.141L382.03 175.036C382.016 175.011 381.998 174.988 381.977 174.968C381.94 174.922 381.901 174.877 381.86 174.833C381.825 174.795 381.788 174.757 381.75 174.721L381.551 174.498L381.477 174.426L381.425 174.418L381.23 174.236L381.026 174.043L380.745 173.797L380.623 173.688L380.435 173.527L379.897 173.089L379.754 172.976L379.086 172.478L378.981 172.4C378.734 172.21 378.464 172.026 378.184 171.841C371.227 167.108 357.375 161.19 343.873 164.021L343.821 164.012L343.737 163.999C343.253 164.101 342.776 164.203 342.306 164.304C341.893 164.393 341.485 164.481 341.086 164.565L340.708 164.653C339.161 165.01 337.7 165.371 336.322 165.745L335.828 165.885C335.448 165.982 335.077 166.092 334.706 166.201L333.965 166.41L333.243 166.632C332.399 166.883 331.586 167.14 330.815 167.404L330.134 167.642L329.441 167.889L328.62 168.195L327.831 168.505L327.212 168.754C326.805 168.918 326.414 169.092 326.032 169.262L326.029 169.264L326.028 169.264L325.887 169.327L325.599 169.45L325.523 169.485C324.718 169.855 323.969 170.2 323.266 170.627L323.185 170.664L322.31 171.17L322.146 171.254L322.147 171.254C322.418 171.298 322.678 171.341 322.929 171.441C323.441 171.525 323.94 171.689 324.439 171.853L324.589 171.902L324.883 172C325.024 172.023 325.154 172.081 325.283 172.138C325.345 172.165 325.406 172.193 325.469 172.216C325.681 172.286 325.889 172.367 326.093 172.458L326.702 172.727L327.301 172.994L327.893 173.301L328.474 173.615L329.051 173.949L329.594 174.298L330.145 174.658L330.671 175.043L331.195 175.438C331.376 175.578 331.545 175.725 331.713 175.873L331.996 176.109L332.519 180.05C331.174 179.822 329.799 179.842 328.473 180.109C326.618 180.468 324.821 181.036 323.122 181.803L323.052 181.842C322.387 182.151 321.756 182.519 321.169 182.943L321.085 182.999L320.666 183.34L320.477 183.509L320.135 183.833L319.939 184.051L319.875 184.127L319.868 184.136C319.76 184.263 319.655 184.387 319.563 184.519C319.525 184.574 319.492 184.619 319.463 184.66C319.405 184.74 319.359 184.803 319.31 184.887C319.236 185.015 319.206 185.07 319.16 185.152C319.114 185.235 319.035 185.392 318.983 185.513C318.938 185.601 318.898 185.691 318.864 185.784C318.808 185.923 318.763 186.066 318.73 186.211L318.694 186.435C318.641 186.656 318.605 186.88 318.584 187.107L318.559 187.262C318.537 187.45 318.531 187.639 318.541 187.829C318.523 187.906 318.511 187.984 318.503 188.062C318.482 188.19 318.505 188.324 318.529 188.459C318.537 188.509 318.546 188.56 318.553 188.61L318.579 188.844C318.622 189.101 318.676 189.36 318.75 189.631C318.854 190.021 318.989 190.403 319.152 190.776C319.143 190.828 319.178 190.883 319.213 190.939L319.213 190.94L319.228 190.962C319.24 190.983 319.252 191.003 319.261 191.024C319.418 191.364 319.604 191.691 319.819 192.004L319.871 192.012C320.076 192.302 320.312 192.571 320.575 192.816L320.703 192.947C320.996 193.21 321.316 193.443 321.66 193.643C322.01 193.859 322.382 194.04 322.771 194.184L322.823 194.193C325.083 195.041 328.194 195.069 332.188 194.213C332.918 194.063 333.628 193.844 334.307 193.56L335.211 200.351C334.123 201.894 332.794 203.273 331.267 204.443C331.872 204.541 332.509 204.586 333.164 204.631C333.265 204.638 333.368 204.645 333.47 204.653C334.232 204.707 335.289 204.73 336.242 204.726L338.078 204.696L338.93 204.655L339.707 204.622L340.628 204.552L341.43 204.494L343.062 204.33L344.044 204.221L344.373 204.175C345.17 204.075 345.98 203.968 346.804 203.842L347.771 203.69L348.222 203.614C346.548 205.279 345.715 206.642 346.217 207.173C348.039 209.129 353.757 206.306 356.698 204.489C361.582 201.46 363.884 199.358 363.814 198.807L364.56 198.369C364.576 198.359 364.591 198.349 364.606 198.337C364.619 198.327 364.633 198.315 364.645 198.303ZM338.669 110.28L339.116 110.353C340.481 110.426 341.9 110.567 343.46 111.048L343.875 111.115L346.014 111.465C355.478 113.308 364.709 116.149 373.524 119.931C373.56 119.901 373.596 119.871 373.631 119.841L373.669 119.809L373.748 119.741C373.896 119.615 374.044 119.489 374.206 119.365C376.725 117.295 379.416 115.409 382.256 113.723L378.653 100.562C378.653 100.562 407.236 102.353 418.41 104.177L420.039 104.233L420.167 104.254C420.387 104.264 420.607 104.273 420.829 104.282C421.905 104.325 423.003 104.37 424.101 104.55C426.317 104.775 428.522 105.105 430.708 105.538L433.163 106.059C438.131 107.215 442.98 108.804 447.646 110.803L447.933 110.85C448.994 111.279 449.988 111.712 450.992 112.192L451.199 112.226C451.423 112.337 451.648 112.448 451.873 112.56L452.448 112.843C454.122 113.667 455.818 114.504 457.538 115.459L458.304 115.885C459.114 116.333 459.936 116.813 460.757 117.293L460.758 117.293L460.758 117.293L460.758 117.294L460.758 117.294L460.759 117.294L460.759 117.294L460.759 117.294L460.759 117.294L460.76 117.294L460.76 117.295L460.76 117.295L460.761 117.295L460.761 117.295L460.761 117.295L460.761 117.295L461.582 117.791L461.614 117.811C462.658 118.473 463.702 119.136 464.774 119.817C456.298 125.532 446.782 129.835 436.64 132.539L436.638 132.54C435.715 132.78 434.791 133.02 433.838 133.241L433.743 133.225L433.489 133.274L431.89 133.631L431.549 133.71L429.754 134.065L429.595 134.039C427.281 134.459 424.881 134.805 422.397 135.062C421.965 135.097 398.587 143.084 398.587 143.084C398.105 140.008 398.013 136.901 398.312 133.825L396.73 133.476L396.539 133.445L396.267 133.401C395.415 133.201 394.549 132.985 393.688 132.739L393.528 132.712C390.066 131.756 386.678 130.569 383.39 129.16L382.931 128.965L382.733 128.879C382.184 128.641 381.625 128.399 381.083 128.136L380.35 127.806L378.758 127.019L377.864 126.572C377.336 126.325 376.833 126.062 376.354 125.783L375.374 125.262L373.876 124.4L373.576 124.23C366.144 128.693 355.567 131.348 348.088 132.792L347.852 132.829L346.467 133.084L345.792 133.2L344.814 133.371L344.004 133.51L343.264 133.63L342.711 133.706L341.787 133.841L341.332 133.917L340.763 133.99L340.295 134.049L339.858 134.113L339.683 134.085L339.28 134.139L339.2 134.126L339.089 134.108L345.649 121.628L336.644 110.236L338.669 110.28ZM289.097 155.313C290.587 150.65 282.886 153.128 282.886 153.128C280.672 146.542 275.358 133.827 258.897 131.815C258.44 130.169 257.588 128.623 256.402 127.288C255.216 125.952 253.727 124.861 252.04 124.091C240.738 118.691 218.238 124.238 210.511 158.033C202.318 145.607 183.415 151.288 183.415 151.288C183.415 151.288 193.537 156.791 196.624 166.885C199.711 176.978 194.318 186.911 194.318 186.911C194.318 186.911 215.229 185.409 213.992 168.739C228.317 176.205 240.37 178.658 250.197 178.195C253.123 180.856 262.019 184.946 265.935 182.547C269.269 180.549 265.135 178.017 260.846 176.367C262.849 175.789 264.783 175.045 266.625 174.146C266.625 174.146 271.141 176.424 273.02 175.992C277.561 174.95 272.353 171.157 272.027 170.924C276.208 167.95 279.527 164.11 281.718 159.71C288.336 160.79 286.444 157.241 286.311 156.992L286.309 156.989C287.651 156.617 288.854 156.085 289.097 155.313ZM109.066 268.431C110.079 270.951 110.468 273.622 110.206 276.252C109.944 278.883 109.038 281.409 107.552 283.649C109.278 283.564 110.965 282.147 112.799 280.067C113.819 278.912 114.877 277.547 116.006 276.09L116.008 276.088C116.891 274.949 117.817 273.754 118.802 272.56L118.889 272.574C126.485 265.167 136.757 263.504 142.604 263.212C160.062 263.774 169.84 271.868 169.84 271.868C170.78 270.73 171.809 269.656 172.92 268.653C176.46 265.494 180.535 262.857 185.002 260.834C200.642 257.669 215.563 250.851 222.761 237.351C223.135 237.629 223.566 237.836 224.028 237.959C224.49 238.081 224.971 238.117 225.442 238.063C225.829 238.03 226.188 237.881 226.463 237.641C226.737 237.4 226.912 237.081 226.96 236.734C227.008 236.387 226.926 236.032 226.727 235.724C226.528 235.416 226.223 235.172 225.86 235.031C225.719 234.968 225.611 234.926 225.532 234.895C225.408 234.847 225.352 234.825 225.344 234.792C225.337 234.765 225.361 234.73 225.404 234.668C225.448 234.602 225.514 234.507 225.587 234.358C225.712 234.166 225.787 233.951 225.809 233.727C225.83 233.503 225.796 233.276 225.709 233.062C225.62 232.835 225.476 232.627 225.288 232.454C225.099 232.281 224.871 232.148 224.62 232.064C224.369 231.98 224.103 231.948 223.84 231.97C223.578 231.992 223.327 232.068 223.105 232.191C222.703 232.388 222.353 232.66 222.08 232.989C221.806 233.319 221.614 233.699 221.516 234.105C216.225 231.068 201.517 224.537 180.327 230.64C180.327 230.64 162.178 234.54 146.483 233.27C144.569 233.106 142.715 232.884 140.864 232.559C140.864 232.559 149.697 248.871 129.752 259.787C124.745 261.325 119.319 261.59 114.056 260.553C112.26 260.035 110.525 259.478 108.887 258.952L108.884 258.951L108.883 258.951C108.018 258.674 107.181 258.405 106.375 258.155C102.165 256.873 98.7929 256.093 96.9624 257.213C99.7297 258.181 102.247 259.679 104.335 261.602C106.424 263.525 108.031 265.824 109.043 268.336L109.066 268.431ZM677.303 118.121C678.826 118.977 680.276 119.935 681.638 120.986C681.685 121.022 681.733 121.057 681.78 121.094C681.834 121.135 681.888 121.176 681.943 121.218L681.949 121.223L681.95 121.224C682.201 121.415 682.454 121.609 682.713 121.78C677.322 125.88 671.457 129.458 665.216 132.453C665.066 139.94 655.574 142.635 655.574 142.635C657.341 140.436 658.55 137.918 659.121 135.256L658.967 135.321L658.703 135.433L658.402 135.561C657.5 135.945 656.592 136.331 655.599 136.701C654.833 139.439 652.88 141.788 650.169 143.232C650.942 141.73 651.263 140.072 651.099 138.422C641.885 141.681 632.194 143.757 622.313 144.588C617.869 149.373 612.316 153.241 606.032 155.925C603.167 157.223 600.178 158.293 597.1 159.124L603.27 149.888L591.123 146.816C593.909 145.456 596.797 144.266 599.765 143.255C605.504 141.276 613.22 139.348 620.123 140.077C620.365 139.809 620.613 139.533 620.868 139.249L620.87 139.246C621.803 138.206 622.829 137.063 623.964 135.861C621.666 135.236 619.317 134.772 616.94 134.474C615.4 134.258 613.83 134.294 612.307 134.579C612.307 134.579 630.214 104.136 661.214 114.383C666.878 114.054 672.52 115.365 677.303 118.121ZM268.994 77.5602L260.623 88.8739C260.623 88.8739 285.793 83.2418 296.958 75.189C309.758 77.5434 322.84 77.8831 335.64 76.1936L338.841 86.0548C343.51 83.6247 353.825 72.0914 353.825 72.0914C367.642 67.5887 380.028 60.1438 389.99 50.3529C374.907 45.4837 358.822 44.2346 343.288 46.7262C343.288 46.7262 337.432 43.3385 320.274 44.5501L325.925 50.9924C314.49 55.0017 303.976 60.8611 294.87 68.2991C294.87 68.2991 280.011 66.813 255.025 70.2225L268.994 77.5602ZM51.7355 349.939C68.5041 340.005 76.394 340.469 76.394 340.469C101.085 322.986 126.076 320.684 126.076 320.684C121.522 335.624 113.16 349.414 101.658 360.951L101.654 360.971C101.446 361.86 97.6851 377.961 94.4126 382.647L85.5372 374.287C73.4754 382.44 59.9794 388.695 45.6241 392.786C42.449 399.133 36.013 406.509 29.9762 412.527L29.7869 412.708C29.6738 412.834 29.5547 412.95 29.4367 413.064C29.3579 413.141 29.2795 413.217 29.2038 413.295L28.5257 413.957L27.8791 414.59L27.2956 415.162C27.1377 415.323 26.9723 415.477 26.8093 415.629L26.6958 415.736C26.6534 415.775 26.6113 415.815 26.5697 415.855L25.6229 416.759L24.9282 417.407L24.4232 417.889L23.7754 418.478L23.3173 418.9L22.6853 419.474L22.2268 419.881L21.6741 420.394L21.1999 420.817L20.7094 421.24L20.283 421.632L19.8241 422.025L19.4445 422.358L19.0176 422.735L18.6854 423.023L18.3216 423.34L18.021 423.597L17.7203 423.854L17.4674 424.08L17.1664 424.323L17.0239 424.444L16.7386 424.671L16.4533 424.899L18.5537 409.226L0 408.787C23.4827 392.712 39.423 386.72 39.423 386.72C44.4649 374.624 51.8285 363.414 61.1748 353.604L51.7355 349.939ZM607.965 179.053L608.125 178.067L608.166 177.821C608.169 177.611 608.159 177.401 608.137 177.191C608.142 177.123 608.153 177.055 608.17 176.988C608.14 176.78 608.079 176.574 607.989 176.379C607.921 176.22 607.829 176.07 607.716 175.932L607.636 175.919L607.483 175.746L607.303 175.538L607.031 175.285L606.873 175.14L606.761 175.122L606.628 175.026L606 174.536L605.919 174.523C605.857 174.469 605.786 174.423 605.711 174.385C605.522 174.235 605.314 174.098 605.106 173.96L605.106 173.959L605.106 173.959L605.105 173.959L604.806 173.776L604.709 173.76L604.426 173.58L604.05 173.355L603.627 173.122L602.904 172.707L602.311 172.402L601.613 172.035L601.185 171.831L601.089 171.815L600.83 171.684L600.219 171.391L599.237 170.948L598.731 170.716L597.529 170.208L597.128 170.038L595.701 169.493L595.412 169.445L593.859 168.865L593.682 168.836C593.108 168.623 592.498 168.419 591.886 168.23L591.806 168.217C579.973 164.396 563.523 162.112 548.698 167.13L548.142 167.307L547.178 167.656L544.686 168.588L543.528 169.023L543.316 169.108L543.036 169.211L541.645 169.757L540.606 170.168L539.812 170.485L538.274 171.126L537.957 171.253L537.584 171.415L536.963 171.686L535.457 172.333L534.266 172.867L533.643 173.152C532.378 173.734 531.147 174.307 530.064 174.889L529.144 175.378L528.191 175.862L527.071 176.468L525.964 177.091L525.166 177.541C524.528 177.913 523.907 178.287 523.324 178.728L523.032 178.903C522.424 179.295 521.851 179.677 521.286 180.106C520.805 180.429 520.322 180.767 519.873 181.095L519.778 181.169C519.308 181.524 518.857 181.866 518.419 182.226C518.756 182.281 519.093 182.337 519.442 182.319C520.524 182.399 521.602 182.54 522.669 182.742L523.23 182.833L524.595 183.056L525.461 183.302L526.485 183.588L527.39 183.899C527.712 183.996 528.03 184.107 528.341 184.233L529.254 184.59L530.163 184.977L531.036 185.387L531.949 185.849L532.768 186.28C533.018 186.414 533.265 186.566 533.505 186.714C533.57 186.755 533.635 186.795 533.699 186.834L534.121 187.081L535.888 192.606C533.864 192.556 531.862 192.861 529.991 193.503C527.772 194.283 525.645 195.251 523.636 196.393C523.328 196.566 523.017 196.754 522.739 196.946L522.481 197.112C521.65 197.66 520.876 198.276 520.17 198.952L519.995 199.117C519.818 199.296 519.656 199.478 519.492 199.674C519.396 199.767 519.308 199.867 519.229 199.973C519.087 200.143 518.96 200.315 518.834 200.487L518.833 200.488L518.833 200.488L518.832 200.489C518.777 200.563 518.741 200.619 518.71 200.666L518.695 200.69L518.67 200.729C518.656 200.751 518.642 200.772 518.626 200.794C518.616 200.808 518.605 200.822 518.594 200.837C518.418 201.104 518.263 201.381 518.129 201.668C518.11 201.783 518.042 201.89 517.977 201.992L517.977 201.993C517.943 202.046 517.91 202.098 517.885 202.149C517.836 202.25 517.829 202.358 517.823 202.466L517.822 202.468L517.82 202.502L517.818 202.533C517.816 202.553 517.815 202.574 517.812 202.594C517.811 202.606 517.809 202.617 517.807 202.628C517.781 202.787 517.753 202.961 517.644 203.122C517.571 203.229 517.574 203.329 517.576 203.427C517.577 203.475 517.579 203.523 517.571 203.571C517.524 203.756 517.493 203.945 517.479 204.136C517.466 204.189 517.456 204.242 517.446 204.296C517.433 204.372 517.422 204.45 517.415 204.527C517.371 204.794 517.385 205.06 517.4 205.325C517.403 205.376 517.405 205.427 517.408 205.478L517.454 205.798C517.427 205.967 517.467 206.147 517.508 206.326C517.523 206.394 517.538 206.461 517.549 206.528L517.635 206.914L517.831 207.63C517.82 207.699 517.859 207.783 517.9 207.87C517.919 207.911 517.938 207.952 517.953 207.992C517.998 208.119 518.216 208.705 518.386 209.075C518.636 209.634 518.927 210.179 519.257 210.705L519.485 211.024C519.801 211.482 520.161 211.914 520.559 212.316C520.944 212.687 521.362 213.029 521.809 213.338L522.031 213.493C522.51 213.801 523.018 214.068 523.548 214.291C524.112 214.516 524.695 214.695 525.29 214.829L525.402 214.847C528.924 215.611 533.481 214.986 539.071 212.973C540.103 212.597 541.086 212.124 542.004 211.562L545.062 221.092C543.864 223.522 542.276 225.769 540.348 227.761C541.954 227.74 543.555 227.639 545.143 227.458L545.367 227.494L547.043 227.322L547.431 227.266C548.375 227.137 549.356 226.985 550.339 226.818L551.579 226.589C551.805 226.543 552.034 226.497 552.265 226.451C552.817 226.34 553.382 226.226 553.949 226.098L555.213 225.829C556.359 225.569 557.51 225.281 558.659 224.904L558.788 224.925L559.357 224.765C559.924 224.62 560.491 224.464 561.063 224.307L561.066 224.306C561.64 224.149 562.219 223.99 562.804 223.84C563.171 223.741 563.542 223.623 563.903 223.508L563.921 223.502L564.05 223.461L564.139 223.433L564.847 223.236C562.769 225.872 561.95 228.059 562.83 228.724C566.026 231.15 573.615 225.947 577.449 222.749C583.822 217.422 586.646 213.956 586.408 213.188L587.466 212.364L587.478 212.291C589.175 210.937 590.785 209.497 592.301 207.976L592.539 207.732C593.229 207.041 593.902 206.348 594.527 205.647L594.647 205.517C595.254 204.828 595.845 204.136 596.422 203.427C596.512 203.33 596.595 203.223 596.674 203.12C596.7 203.086 596.726 203.052 596.752 203.019C597.225 202.442 597.667 201.859 598.108 201.277C598.201 201.167 598.286 201.048 598.369 200.933C598.394 200.897 598.42 200.861 598.445 200.826C598.951 200.15 599.436 199.5 599.896 198.802C600.398 198.05 600.881 197.311 601.348 196.569C601.352 196.515 601.361 196.462 601.374 196.41C601.62 196.007 601.862 195.592 602.095 195.192L602.099 195.186C602.248 194.93 602.394 194.679 602.536 194.442C602.604 194.337 602.666 194.227 602.721 194.115C603.046 193.559 603.351 192.979 603.638 192.436L603.662 192.389L603.804 192.12C604.506 190.747 605.144 189.363 605.697 188.1L605.746 187.795C605.992 187.231 606.215 186.672 606.415 186.119C606.416 186.065 606.425 186.012 606.441 185.96C606.881 184.782 607.228 183.663 607.509 182.653C607.51 182.634 607.512 182.615 607.514 182.596C607.517 182.574 607.519 182.553 607.523 182.531C607.526 182.507 607.53 182.483 607.534 182.46C607.538 182.443 607.541 182.426 607.544 182.409C607.549 182.389 607.553 182.369 607.558 182.349L607.752 181.16C607.765 181.11 607.776 181.059 607.783 181.008C607.788 180.972 607.792 180.936 607.795 180.899C607.84 180.028 607.896 179.592 607.941 179.241L607.95 179.167C607.955 179.128 607.96 179.09 607.965 179.053ZM516.228 149.392L516.227 149.392L516.251 149.249L512.604 148.654L510.63 148.331L509.563 148.157L507.735 147.741L506.573 147.551L504.674 147.065L504.34 147.011C498.097 153.709 487.961 159.42 480.643 162.994L480.094 163.256L479.154 163.705L478.287 164.106L477.774 164.345L476.413 164.974L476.044 165.134L474.635 165.755L474.527 165.81L473.896 166.074L473.597 166.201L472.842 166.518L472.58 166.622L472.284 166.735L471.951 166.872L471.812 166.922L471.733 166.909L474.329 152.206L461.015 142.843C461.715 142.663 462.428 142.501 463.157 142.341L463.633 142.228C465.132 141.959 466.676 141.713 468.245 141.514L468.58 141.466C484.092 139.567 502.665 142.35 502.665 142.35C504.719 139.13 507.081 136.085 509.725 133.247L501.466 120.556C501.466 120.556 531.913 114.391 544.206 113.287C544.785 113.147 545.345 113.018 545.903 112.904L546.174 112.845C547.503 112.519 548.854 112.256 550.245 112.043L550.452 112.077C551.861 111.857 553.314 111.668 554.811 111.512L555.034 111.548C555.767 111.462 556.612 111.395 557.42 111.351L557.85 111.318L560.24 111.195L560.511 111.239C561.399 111.208 562.3 111.194 563.215 111.196C567.835 111.201 572.46 111.525 577.05 112.164L577.496 112.237L580.887 112.79L581.285 112.855C581.856 112.955 582.431 113.07 583.011 113.187C583.722 113.329 584.442 113.473 585.17 113.592L585.297 113.613C586.484 113.851 587.696 114.137 588.908 114.423L589.977 114.685C590.881 114.902 591.794 115.146 592.721 115.394L592.726 115.395L592.73 115.396L592.894 115.44L594.006 115.739L594.267 115.814L594.268 115.814C595.495 116.165 596.735 116.52 597.985 116.902C595.172 120.387 592.027 123.639 588.584 126.622L588.319 126.842L587.043 127.954L586.7 128.251L585.058 129.597L584.702 129.876C584.07 130.345 583.453 130.817 582.834 131.302L582.576 131.48C581.903 132.001 581.197 132.517 580.474 133.045C578.18 134.68 575.69 136.313 572.977 137.91L572.815 138.001C572.192 138.39 571.502 138.768 570.812 139.146L570.676 139.22C570.524 139.303 570.373 139.387 570.222 139.47L570.096 139.538L569.756 139.717L568.36 140.457L567.808 140.837L566.191 141.629L565.922 141.776C563.653 142.858 561.279 143.879 558.79 144.808C558.403 144.98 536.73 159.782 536.73 159.782C535.182 156.719 534.026 153.517 533.285 150.24L531.635 150.337L531.412 150.301L531.094 150.249C530.124 150.281 529.143 150.283 528.146 150.281L528.05 150.266C525.009 150.25 521.965 150.071 518.935 149.731C518.027 149.686 517.135 149.54 516.228 149.392ZM571.649 82.7598L584.596 70.9336C584.596 70.9336 579.254 87.3353 587.425 89.1771C595.207 90.9355 611.6 88.2792 620.569 84.1854C621.687 84.0224 622.775 83.8128 623.829 83.54C623.158 85.7789 621.834 87.7818 619.992 89.344C619.992 89.344 627.165 85.6964 629.648 81.5122C630.122 81.2882 630.581 81.0527 631.017 80.8107C631.017 80.8107 631.075 84.3683 629.169 86.5975C629.169 86.5975 633.815 82.4514 634.331 78.5207C635.142 77.8115 635.864 77.0227 636.486 76.1673C639.379 72.0881 642.175 71.1104 645.235 70.0403C646.182 69.7093 647.154 69.3694 648.162 68.9261C652.428 67.0499 649.226 65.8826 649.226 65.8826L649.176 65.8672C646.386 65.0102 636.376 61.9352 635.318 57.0641C634.772 54.8761 633.738 52.7892 632.281 50.9352C630.825 49.0811 628.977 47.5003 626.856 46.2926C599.552 18.5779 578.595 42.1738 576.613 47.8548C573.329 57.2288 582.438 63.2757 582.494 63.291C582.438 64.0106 582.452 64.7369 582.536 65.4614L570.993 59.018L566.142 56.3092C566.142 56.3092 565.625 74.2908 571.649 82.7598ZM528.549 43.827C528.083 44.5889 526.628 44.3352 526.628 44.3352C526.628 44.3352 527.911 45.0495 527.464 45.6124C524.882 48.4743 521.844 50.9163 518.444 52.8628C517.984 53.259 501.047 67.7542 490.307 68.1908C490.307 68.1908 494.792 63.795 489.972 58.238C486.657 54.4371 483.442 49.0596 481.057 44.6238C479.881 45.3379 478.618 45.9236 477.289 46.3716C469.069 49.2361 458.679 47.7084 454.191 46.8599C456.638 46.0822 458.788 44.7176 460.455 42.8842C462.123 41.0508 463.257 38.8039 463.76 36.3382C464.263 33.8725 464.119 31.2622 463.342 28.7336C462.564 26.2049 461.176 23.8341 459.298 21.8265C464.547 22.7549 472.373 24.765 478.501 29.0743C479.918 30.0685 481.232 31.2002 482.42 32.4488C483.381 31.4023 484.512 30.0442 485.754 28.3713C486.086 27.9234 486.449 27.4987 486.84 27.0997C487.064 26.8974 487.309 26.6546 487.513 26.4304C487.533 26.4132 487.548 26.3919 487.558 26.3679C494.996 18.5127 489.31 6.79262 489.31 6.79262C500.471 9.61666 512.637 26.3908 513.032 26.9344L513.032 26.9353C514.329 28.2271 515.453 29.6665 516.375 31.2134C522.036 40.5734 527.708 41.6475 527.708 41.6475C527.708 41.6475 529.609 42.1261 528.549 43.827ZM290.369 299.322C289.271 300.585 288.275 301.92 287.388 303.317C287.388 303.317 275.338 295.225 255.809 296.772C249.274 297.812 238.032 300.951 230.629 310.32L230.517 310.302C229.573 311.804 228.699 313.298 227.866 314.719L227.866 314.719C226.822 316.502 225.845 318.17 224.881 319.6C223.16 322.203 221.453 324.016 219.532 324.329C221.559 320.178 221.996 315.485 220.775 310.993C219.554 306.5 216.743 302.463 212.788 299.519C210.213 297.618 207.24 296.231 204.068 295.451C205.935 293.963 209.828 294.434 214.692 295.393C215.738 295.592 216.824 295.825 217.947 296.065L217.951 296.066L217.952 296.066L217.953 296.066C219.749 296.451 221.639 296.856 223.604 297.177C229.62 297.728 235.637 296.768 241.005 294.4C261.719 279.466 249.584 261.948 249.584 261.948C251.703 262.1 253.825 262.147 255.943 262.089C273.626 261.6 293.324 255.001 293.324 255.001C316.125 245.472 333.443 251.138 339.771 253.978C339.826 253.504 339.986 253.048 340.242 252.637C340.498 252.227 340.844 251.871 341.26 251.592C341.6 251.343 342.025 251.208 342.466 251.21C342.908 251.211 343.341 251.348 343.695 251.599C344.05 251.85 344.306 252.2 344.421 252.593C344.537 252.986 344.506 253.4 344.333 253.767C344.277 253.92 344.222 254.025 344.182 254.1C344.139 254.182 344.114 254.23 344.125 254.266C344.141 254.315 344.226 254.342 344.428 254.407C344.507 254.432 344.604 254.463 344.722 254.503C345.15 254.616 345.528 254.855 345.798 255.182C346.068 255.51 346.213 255.907 346.211 256.311C346.209 256.716 346.06 257.104 345.787 257.414C345.514 257.725 345.133 257.94 344.705 258.026C344.184 258.142 343.64 258.157 343.106 258.069C342.572 257.982 342.061 257.795 341.604 257.52C335.466 273.818 319.785 283.344 302.765 288.916C298.06 291.772 293.88 295.281 290.369 299.322ZM770.687 110.723C770.543 110.721 770.483 110.721 770.465 110.693C770.451 110.672 770.46 110.638 770.475 110.578C770.488 110.522 770.508 110.443 770.519 110.334C770.545 110.158 770.532 109.982 770.481 109.816C770.43 109.65 770.341 109.496 770.221 109.366C770.09 109.232 769.924 109.129 769.737 109.065C769.55 109 769.347 108.976 769.142 108.994C768.937 109.012 768.737 109.071 768.555 109.168C768.373 109.264 768.215 109.395 768.092 109.551C767.87 109.815 767.707 110.114 767.613 110.429C767.519 110.745 767.496 111.07 767.546 111.384C762.859 110.857 750.421 110.729 737.062 121.545C737.062 121.545 725.232 129.831 713.648 133.756C712.259 134.222 710.849 134.625 709.425 134.964C709.425 134.964 720.523 143.787 709.487 157.659C706.359 160.288 702.552 162.139 698.479 163.012C697.199 163.173 695.932 163.299 694.723 163.419C693.881 163.503 693.067 163.583 692.295 163.672C688.987 164.022 686.261 164.543 685.274 165.83C687.506 165.68 689.714 165.966 691.748 166.671C693.853 167.399 695.716 168.56 697.199 170.068C698.668 171.541 699.739 173.31 700.336 175.252C700.933 177.193 701.041 179.258 700.653 181.302C701.853 180.706 702.646 179.175 703.341 177.159C703.702 176.091 704.037 174.876 704.395 173.581L704.396 173.579C704.711 172.437 705.044 171.231 705.428 170.006C708.179 164.042 713.245 159.083 719.618 156.118C732.266 151.155 741.63 153.893 741.63 153.893C741.972 152.8 742.394 151.724 742.894 150.673C744.495 147.346 746.635 144.227 749.237 141.424C759.463 134.358 768.102 125.024 769.306 113.221C769.657 113.305 770.029 113.321 770.398 113.268C770.767 113.214 771.124 113.093 771.448 112.91C771.629 112.816 771.787 112.687 771.91 112.533C772.032 112.378 772.116 112.203 772.155 112.021C772.195 111.838 772.188 111.652 772.136 111.478C772.084 111.303 771.988 111.145 771.855 111.014C771.732 110.909 771.585 110.83 771.423 110.781C771.261 110.732 771.088 110.714 770.913 110.728C770.821 110.725 770.747 110.724 770.687 110.723ZM350.192 218.446L350.288 218.462C369.58 216.152 380.819 216.907 380.819 216.907C390.729 208.313 402.298 201.427 414.991 196.565L408.304 189.555C427.521 187.603 434.314 191.153 434.314 191.153C464.04 185.68 487.19 193.528 487.19 193.528C476.412 204.805 462.788 213.555 447.405 219.079L447.348 219.147C446.412 220.255 436.109 232.459 431.193 235.207L427.11 224.317C412.758 226.652 397.99 226.742 383.44 224.585C375.781 230.465 361.827 235.481 352.516 238.4L352.065 238.548L351.133 238.825L350.476 239.028L349.853 239.223L349.146 239.433L348.629 239.585L347.955 239.786L347.509 239.905L346.87 240.097L346.552 240.237L345.966 240.408L345.657 240.49L345.142 240.628L344.867 240.702L344.436 240.824L344.265 240.87L343.887 240.971L343.699 241.014L343.493 241.069L343.166 241.164L352.088 228.254L335.867 220.502C337.539 220.212 339.157 219.959 340.74 219.714L341.042 219.675C342.1 219.511 343.14 219.364 344.158 219.221C344.615 219.157 345.067 219.093 345.515 219.029L345.817 218.99C347.311 218.79 348.769 218.613 350.192 218.446Z" fill="#00569A" fill-opacity="0.2"/>
</svg>
