<svg id="e7ejaKdhR0X1" xmlns="http://www.w3.org/2000/svg" xmlns:xlink="http://www.w3.org/1999/xlink" viewBox="0 0 256 528" shape-rendering="geometricPrecision" text-rendering="geometricPrecision"><style><![CDATA[#e7ejaKdhR0X2_tr {animation: e7ejaKdhR0X2_tr__tr 4000ms linear infinite normal forwards}@keyframes e7ejaKdhR0X2_tr__tr { 0% {transform: translate(23.561296px,510.334572px) rotate(0deg)} 22.5% {transform: translate(23.561296px,510.334572px) rotate(2deg)} 62.5% {transform: translate(23.561296px,510.334572px) rotate(-7deg)} 100% {transform: translate(23.561296px,510.334572px) rotate(0deg)}} #e7ejaKdhR0X12_to {animation: e7ejaKdhR0X12_to__to 4000ms linear infinite normal forwards}@keyframes e7ejaKdhR0X12_to__to { 0% {transform: translate(75.2078px,371.354px)} 22.5% {transform: translate(70.57px,371.354px)} 47.5% {transform: translate(73.89932px,371.354px)} 72.5% {transform: translate(70.57px,371.354px)} 100% {transform: translate(75.207801px,371.354001px)}} #e7ejaKdhR0X12_tr {animation: e7ejaKdhR0X12_tr__tr 4000ms linear infinite normal forwards}@keyframes e7ejaKdhR0X12_tr__tr { 0% {transform: rotate(0deg)} 22.5% {transform: rotate(-3deg)} 47.5% {transform: rotate(-1deg)} 72.5% {transform: rotate(-3deg)} 100% {transform: rotate(0deg)}} #e7ejaKdhR0X16_tr {animation: e7ejaKdhR0X16_tr__tr 4000ms linear infinite normal forwards}@keyframes e7ejaKdhR0X16_tr__tr { 0% {transform: translate(128.250972px,284.433849px) rotate(0deg)} 22.5% {transform: translate(128.250972px,284.433849px) rotate(-3deg)} 47.5% {transform: translate(128.250972px,284.433849px) rotate(-1deg)} 72.5% {transform: translate(128.250972px,284.433849px) rotate(-3deg)} 100% {transform: translate(128.250972px,284.433849px) rotate(0deg)}}]]></style><defs><linearGradient id="e7ejaKdhR0X5-fill" x1="224.888" y1="294.059" x2="54.0923" y2="476.272" spreadMethod="pad" gradientUnits="userSpaceOnUse" gradientTransform="translate(0 0)"><stop id="e7ejaKdhR0X5-fill-0" offset="16%" stop-color="#66511d"/><stop id="e7ejaKdhR0X5-fill-1" offset="50%" stop-color="#272920"/><stop id="e7ejaKdhR0X5-fill-2" offset="86%" stop-color="#0c0c0a"/><stop id="e7ejaKdhR0X5-fill-3" offset="100%" stop-color="#000"/></linearGradient><linearGradient id="e7ejaKdhR0X18-fill" x1="2537.2" y1="6685.82" x2="3170.23" y2="10895.4" spreadMethod="pad" gradientUnits="userSpaceOnUse" gradientTransform="translate(0 0)"><stop id="e7ejaKdhR0X18-fill-0" offset="16%" stop-color="#66511d"/><stop id="e7ejaKdhR0X18-fill-1" offset="50%" stop-color="#272920"/><stop id="e7ejaKdhR0X18-fill-2" offset="86%" stop-color="#0c0c0a"/><stop id="e7ejaKdhR0X18-fill-3" offset="100%" stop-color="#000"/></linearGradient><linearGradient id="e7ejaKdhR0X20-fill" x1="3147.86" y1="6313.05" x2="2093.54" y2="10158.5" spreadMethod="pad" gradientUnits="userSpaceOnUse" gradientTransform="translate(0 0)"><stop id="e7ejaKdhR0X20-fill-0" offset="16%" stop-color="#66511d"/><stop id="e7ejaKdhR0X20-fill-1" offset="50%" stop-color="#272920"/><stop id="e7ejaKdhR0X20-fill-2" offset="86%" stop-color="#0c0c0a"/><stop id="e7ejaKdhR0X20-fill-3" offset="100%" stop-color="#000"/></linearGradient></defs><g id="e7ejaKdhR0X2_tr" transform="translate(23.561296,510.334572) rotate(0)"><g transform="translate(-23.561294,-510.334571)"><path d="M246.047,319.409c-15.779,6.292-38.732,6.112-55.946,12.943-6.123,2.741-11.617,6.718-16.138,11.684l-3.228,3.595c-10.52,12.137-18.398,26.341-23.131,41.703-6.456,22.65-12.014,48.894-39.45,64.892-11.2262,6.481-21.2386,14.875-29.5864,24.806-5.7396,6.073-12.4709,11.118-19.9039,14.92-17.9315,9.527-28.1524,11.145-35.8629,21.211c15.0624-19.054,66.8843,16.538,75.312-8.808c3.9452-12.223-17.9314-9.706-12.9106-22.649.3097-.833.732-1.619,1.2552-2.337c7.1726-11.145,30.4836-8.448,40.8836-8.987c10.4-.54,35.863-7.91,34.428-22.65-1.434-14.74-22.235-8.089-17.931-20.492s35.863-3.595,29.408-17.976c-2.152-5.752-12.194-3.415-15.421-8.448-3.228-5.033,2.151-13.302,8.248-15.819c9.504-4.134,40.704,2.157,38.553-15.818-2.152-17.976-29.229-3.236-30.484-17.976-.178-1.546-.03-3.113.433-4.599.463-1.487,1.232-2.859,2.257-4.029c8.428-9.887,33.173-10.785,41.422-11.504c8.248-.719,35.504-5.393,27.793-13.662Z" fill="#89b823"/><path d="M241.026,316.528c-12.731-6.651-31.38,1.798-42.676,7.55-17.932,8.988-17.932-7.19-25.284-4.494s1.255,20.672-3.765,27.143c-.979,1.122-2.305,1.881-3.766,2.157-6.814.899-7.711-10.785-12.552-13.122-3.261-1.108-6.797-1.091-10.047.049s-6.025,3.338-7.884,6.243c-4.592,14.542-7.01,29.686-7.173,44.939-4.842,31.996-13.628-6.831-24.387-1.618-2.987,1.916-5.4211,4.584-7.0573,7.739-1.6363,3.154-2.418,6.684-2.2669,10.236-1.6139,11.505,5.3794,26.424,2.6897,37.03-5.0208,21.211-20.0832-1.977-29.9455,0-13.6279,2.696-9.3243,22.29-10.0416,31.817.1488,5.567-1.4031,11.047-4.4476,15.705-3.0446,4.659-7.4364,8.273-12.5873,10.359-5.4601,1.844-10.3968,4.979-14.392,9.141s-6.4466,7.253-8.0753,12.793c1.1852-2.159,2.0808-2.231,3.6393-4.138c8.0691-10.066,17.9314-11.684,35.8629-21.211c7.433-3.802,14.1643-8.848,19.9039-14.92c8.3478-9.931,18.3602-18.325,29.5867-24.806c27.435-15.998,32.994-42.243,39.449-64.892c4.733-15.363,12.612-29.566,23.132-41.703l3.228-3.595c4.521-4.966,10.014-8.943,16.138-11.684c17.931-6.831,40.166-6.651,55.946-12.943-.91-1.392-1.995-2.66-3.228-3.775Z" fill="#689929"/><path style="mix-blend-mode:color-dodge" d="M241.026,316.528c-12.731-6.651-31.38,1.798-42.676,7.55-17.932,8.988-17.932-7.19-25.284-4.494s1.255,20.672-3.765,27.143c-.979,1.122-2.305,1.881-3.766,2.157-6.814.899-7.711-10.785-12.552-13.122-3.261-1.108-6.797-1.091-10.047.049s-6.025,3.338-7.884,6.243c-4.592,14.542-7.01,29.686-7.173,44.939-4.842,31.996-13.628-6.831-24.387-1.618-2.987,1.916-5.4211,4.584-7.0573,7.739-1.6363,3.154-2.418,6.684-2.2669,10.236-1.6139,11.505,5.3794,26.424,2.6897,37.03-5.0208,21.211-20.0832-1.977-29.9455,0-13.6279,2.696-9.3243,22.29-10.0416,31.817.1488,5.567-1.4031,11.047-4.4476,15.705-3.0446,4.659-7.4364,8.273-12.5873,10.359-5.4601,1.844-10.3968,4.979-14.392,9.141s-6.4466,7.253-8.0753,12.793c1.1852-2.159,2.0808-2.231,3.6393-4.138c8.0691-10.066,17.9314-11.684,35.8629-21.211c7.433-3.802,14.1643-8.848,19.9039-14.92c8.3478-9.931,18.3602-18.325,29.5867-24.806c27.435-15.998,32.994-42.243,39.449-64.892c4.733-15.363,12.612-29.566,23.132-41.703l3.228-3.595c4.521-4.966,10.014-8.943,16.138-11.684c17.931-6.831,40.166-6.651,55.946-12.943-.91-1.392-1.995-2.66-3.228-3.775Z" fill="url(#e7ejaKdhR0X5-fill)"/></g></g><path d="M60.2253,462.127h-5.5588c0,1.798-3.9449,3.775-15.0624,6.112h-12.9107c-6.276,0-11.1175,3.415-10.2209,13.122.222,2.405.9558,4.734,2.1518,6.831c3.0483,5.752,7.8898,10.246,5.9174,16.897-.4792,2.067-1.4653,3.983-2.8691,5.572-2.6897,3.595-6.8139,2.876-8.6071,6.651-.427,1.039-.7281,2.125-.8966,3.236c0,1.977,4.6622,4.314,4.4829,6.471s3.407-2.337,10.0416-21.032c2.1098-6.569,5.4578-12.671,9.8623-17.975c6.0967-6.651,15.2418-10.965,20.8005-17.976c1.8336-2.228,2.8466-5.021,2.8691-7.909Z" fill="#a1c94b"/><path d="M63.1978,403.703c3.4635.46,6.985.168,10.3262-.855c3.3412-1.024,6.424-2.755,9.0398-5.077-10.9618,14.496-18.558,31.261-22.235,49.074-.4564,5.083-.4564,10.196,0,15.279h-5.5588c0-2.157-5.9173-4.314-12.1934-7.01-6.276-2.697-12.9106-6.292-12.9106-11.325c0-15.459,16.6763-4.853,20.9798-14.021c4.3036-9.167-8.6071-12.763-5.738-22.29c2.1517-4.314,10.0416-3.775,18.29-3.775Z" fill="#a1c94b"/><path d="M63.1938,354.64l12.014,16.537c-.7753,11.783-4.9492,23.087-12.014,32.536-8.2484,0-16.1383,0-17.9314,3.955-2.8691,9.527,9.145,14.919,5.738,22.289-3.4069,7.37-20.9798-1.438-20.9798,14.021c0,5.034,6.4554,8.449,12.9107,11.325-2.2752,4.999-5.2322,9.658-8.7864,13.841h-6.9933c-1.4345-3.415-3.7656-6.471-5.3794-9.886-3.7656-8.449,0-12.224,1.9724-20.313c3.945-13.122-15.42101-35.951,1.0759-44.759c7.7105-4.314,15.6004,3.775,21.6971-2.876s-3.0484-23.908,16.6762-36.67Z" fill="#689929"/><path d="M22.6613,512.275c-2.6897,3.595-6.814,2.876-8.6071,6.651-1.7076-2.629-2.8176-5.602-3.2514-8.708s-.1809-6.27.741-9.268c1.763-4.107,4.616-7.651,8.2485-10.246c3.0483,5.752,7.8898,10.246,5.9173,16.897-.6595,1.764-1.7005,3.36-3.0483,4.674Z" fill="#5e8a25"/><path d="M55.6545,462.308c0,1.797-3.9449,3.775-15.0624,6.111h-5.9173c3.5542-4.183,6.5112-8.841,8.7864-13.841c6.276,3.416,12.1933,5.573,12.1933,7.73Z" fill="#5e8a25"/><path d="M79.1452,377.106v1.258c2.6737,3.568,4.3455,7.789,4.8415,12.223.2012,1.371.2012,2.764,0,4.135l-1.6139,3.056c-2.6157,2.321-5.6985,4.053-9.0397,5.076s-6.8628,1.315-10.3263.856c6.9503-9.415,11.0019-20.662,11.6555-32.356l4.4829,5.752Z" fill="#5e8a25"/><g id="e7ejaKdhR0X12_to" transform="translate(75.2078,371.354)"><g id="e7ejaKdhR0X12_tr" transform="rotate(0)"><g transform="translate(-75.207797,-371.353999)"><g transform="translate(0 0.000001)"><path d="M79.1533,377.109c10.5796-14.56,6.0967-44.58,16.4969-57.702c10.3998-13.122,23.8488-15.279,33.3528-35.951c4.513,1.443,9.288,1.873,13.986,1.258h2.152c11.476,5.753,1.614,20.852-9.862,23.728s-29.946,3.955-17.932,19.414c16.856,22.469-20.6209,17.975-22.414,33.794c0,6.291,12.552,14.56,1.9725,19.414-4.3036,2.157-11.4762-2.877-16.497-2.517l-1.2552-1.438Z" fill="#89b823"/><path d="M95.6546,319.399c-10.4002,13.122-5.9173,43.141-16.4969,57.702l-4.4828-5.932c-13.4486-17.976-34.787-43.681-23.4902-56.444c11.2968-12.762,32.9938,22.29,32.4559-9.886c0-11.684-3.0484-31.997,11.4761-32.896c8.1273.125,16.0413,2.624,22.7733,7.191l6.814,3.055l3.765,1.439c-8.966,20.492-22.235,23.368-32.8144,35.771Z" fill="#a1c94b"/></g><g id="e7ejaKdhR0X16_tr" transform="translate(128.250972,284.433849) rotate(0)"><g transform="translate(-128.250971,-284.433848)"><path d="M128.458,283.637l-3.765-1.438c31.917-11.325-21.16-61.656,11.476-110.73c13.627-20.492,5.738-31.457-15.601-74.059-21.3381-42.6022,14.525-68.487,10.221-91.85531c22.056,0,19.904,15.45901,10.938,30.19901-4.482,7.5497-14.524,15.8185-13.09,25.5253c1.973,14.74,16.139,6.651,25.284,10.7854c19.007,8.4485-3.945,23.3683-5.738,35.0526-3.049,19.054,17.931,17.975,26,30.558c17.932,28.582-35.863,45.119-22.055,58.601c8.248,8.089,22.414,3.235,12.014,21.211-8.787,15.279-10.939,16.897-4.842,35.951c2.201,6.152,1.891,12.926-.863,18.85-2.753,5.923-7.727,10.519-13.841,12.787h-2.151c-4.711.557-9.487.066-13.987-1.438Z" fill="#5e8a25"/><path style="mix-blend-mode:color-dodge" d="M128.458,283.637l-3.765-1.438c31.917-11.325-21.16-61.656,11.476-110.73c13.627-20.492,5.738-31.457-15.601-74.059-21.3381-42.6022,14.525-68.487,10.221-91.85531c22.056,0,19.904,15.45901,10.938,30.19901-4.482,7.5497-14.524,15.8185-13.09,25.5253c1.973,14.74,16.139,6.651,25.284,10.7854c19.007,8.4485-3.945,23.3683-5.738,35.0526-3.049,19.054,17.931,17.975,26,30.558c17.932,28.582-35.863,45.119-22.055,58.601c8.248,8.089,22.414,3.235,12.014,21.211-8.787,15.279-10.939,16.897-4.842,35.951c2.201,6.152,1.891,12.926-.863,18.85-2.753,5.923-7.727,10.519-13.841,12.787h-2.151c-4.711.557-9.487.066-13.987-1.438Z" fill="url(#e7ejaKdhR0X18-fill)"/><path d="M131.332,5.55469C135.636,28.923,99.9523,54.6281,121.111,97.41c21.16,42.782,29.229,53.927,15.601,74.059-32.635,49.074,20.442,99.405-11.476,110.73l-6.814-3.056c10.579-15.099-24.3871-14.021-20.4422-28.581c2.1522-7.909,13.8072-10.426,0-17.976-8.9657-4.493-17.9314-3.415-27.6144-10.066-4.226-2.945-7.5534-7.008-9.6113-11.737s-2.7656-9.938-2.0441-15.047c3.2277-13.661,16.8556-12.403,27.6144-15.099c3.5863,0,11.2968-3.775,9.683-9.168-1.6139-5.392-10.5796-5.033-13.09-6.83-8.4278-6.112-12.7313-14.381-2.331-20.313c10.4002-5.932,26.0006-4.673,28.8696-17.975s-16.8556-14.74-25.8213-17.077-26.8972-21.5708-14.3451-30.7384s21.8763,11.3246,28.1523,3.2356C111.428,63.7956,95.4694,7.89152,127.387,5.73445l3.945-.17976Z" fill="#689929"/><path style="mix-blend-mode:color-dodge" d="M131.332,5.55469C135.636,28.923,99.9523,54.6281,121.111,97.41c21.16,42.782,29.229,53.927,15.601,74.059-32.635,49.074,20.442,99.405-11.476,110.73l-6.814-3.056c10.579-15.099-24.3871-14.021-20.4422-28.581c2.1522-7.909,13.8072-10.426,0-17.976-8.9657-4.493-17.9314-3.415-27.6144-10.066-4.226-2.945-7.5534-7.008-9.6113-11.737s-2.7656-9.938-2.0441-15.047c3.2277-13.661,16.8556-12.403,27.6144-15.099c3.5863,0,11.2968-3.775,9.683-9.168-1.6139-5.392-10.5796-5.033-13.09-6.83-8.4278-6.112-12.7313-14.381-2.331-20.313c10.4002-5.932,26.0006-4.673,28.8696-17.975s-16.8556-14.74-25.8213-17.077-26.8972-21.5708-14.3451-30.7384s21.8763,11.3246,28.1523,3.2356C111.428,63.7956,95.4694,7.89152,127.387,5.73445l3.945-.17976Z" fill="url(#e7ejaKdhR0X20-fill)"/></g></g></g></g></g></svg>