<svg width="118" height="229" viewBox="0 0 118 229" fill="none" xmlns="http://www.w3.org/2000/svg">
<path d="M27.6356 191.017C29.2866 191.096 30.9356 190.82 32.471 190.209C34.0063 189.598 35.392 188.666 36.5345 187.476C31.9336 194.695 29.0084 202.843 27.9722 211.327C27.956 213.725 28.1563 216.119 28.5705 218.48L25.9495 218.7C25.8651 217.69 22.9905 216.913 19.9257 215.899C16.861 214.884 13.5919 213.462 13.3948 211.106C12.7895 203.869 21.0677 208.176 22.7379 203.714C24.4081 199.253 18.1798 198.079 19.1595 193.506C20.0051 191.401 23.7464 191.342 27.6356 191.017Z" fill="#A1C94B"/>
<path d="M34.1136 177.935L34.1628 178.524C35.5633 180.089 36.5168 181.999 36.9243 184.056C37.0728 184.69 37.1274 185.342 37.0862 185.992L36.4449 187.486C35.3025 188.676 33.9167 189.608 32.3814 190.219C30.8461 190.83 29.1971 191.105 27.546 191.027C30.4545 186.345 31.9243 180.92 31.7746 175.419L34.1136 177.935Z" fill="#5E8A25"/>
<path d="M34.1176 177.937C38.5358 170.704 35.2465 156.827 39.6364 150.273C44.0264 143.72 50.283 142.179 53.9545 132.127C56.1392 132.624 58.4076 132.637 60.5986 132.164L61.6131 132.079C67.2495 134.32 63.1906 141.778 57.8922 143.577C52.5937 145.376 43.9275 146.609 50.1976 153.373C59.025 163.227 41.1785 162.601 40.9525 170.078C41.1988 173.023 47.441 176.399 42.6427 179.089C40.698 180.268 37.119 178.195 34.7657 178.561L34.1176 177.937Z" fill="#89B823"/>
<path d="M39.6385 150.268C35.2485 156.822 38.5378 170.699 34.1196 177.933L31.7736 175.332C24.7286 167.447 13.6608 156.255 18.4876 149.834C23.3143 143.414 34.9172 158.968 33.4036 143.926C32.9461 138.456 30.7133 129.066 37.5265 128.073C41.3634 127.811 45.1928 128.668 48.5457 130.541L51.8782 131.703L53.71 132.227C50.2851 142.175 44.1411 144.044 39.6385 150.268Z" fill="#A1C94B"/>
<g>
<path d="M53.7047 132.232L51.8729 131.707C66.479 125.147 39.4819 103.677 52.9479 79.4156C58.5711 69.2844 54.4216 64.4622 42.6921 45.3591C30.9627 26.256 46.8586 12.7233 43.9144 1.95289C54.3138 1.08303 53.9046 8.40521 50.2544 15.6595C48.4363 19.3708 44.0254 23.6379 45.0819 28.1257C46.5891 34.9486 52.9516 30.603 57.4255 32.1779C66.7184 35.3835 56.4805 43.2736 56.0926 48.8143C55.4014 57.855 65.2513 56.5226 69.5487 62.0952C79.1227 74.7686 54.4059 84.6324 61.444 90.3995C65.65 93.8612 72.1392 91.0303 67.9394 99.8559C64.3949 107.356 63.4436 108.198 67.0644 116.878C68.3428 119.671 68.4619 122.854 67.3957 125.736C66.3296 128.618 64.1643 130.966 61.3704 132.269L60.3558 132.354C58.1563 132.8 55.8855 132.759 53.7047 132.232Z" fill="#5E8A25"/>
<path style="mix-blend-mode:color-dodge" d="M53.7047 132.232L51.8729 131.707C66.479 125.147 39.4819 103.677 52.9479 79.4156C58.5711 69.2844 54.4216 64.4622 42.6921 45.3591C30.9627 26.256 46.8586 12.7233 43.9144 1.95289C54.3138 1.08303 53.9046 8.40521 50.2544 15.6595C48.4363 19.3708 44.0254 23.6379 45.0819 28.1257C46.5891 34.9486 52.9516 30.603 57.4255 32.1779C66.7184 35.3835 56.4805 43.2736 56.0926 48.8143C55.4014 57.855 65.2513 56.5226 69.5487 62.0952C79.1227 74.7686 54.4059 84.6324 61.444 90.3995C65.65 93.8612 72.1392 91.0303 67.9394 99.8559C64.3949 107.356 63.4436 108.198 67.0644 116.878C68.3428 119.671 68.4619 122.854 67.3957 125.736C66.3296 128.618 64.1643 130.966 61.3704 132.269L60.3558 132.354C58.1563 132.8 55.8855 132.759 53.7047 132.232Z" fill="url(#paint0_linear_123_14)"/>
<path d="M44.1707 1.93176C47.1149 12.7021 31.2965 26.1436 42.9484 45.3379C54.6004 64.5323 58.8415 69.4316 53.2042 79.3944C39.7382 103.656 66.7353 125.126 52.1292 131.686L48.7967 130.524C53.1938 123.038 36.7492 124.922 38.0391 117.95C38.7439 114.162 44.141 112.525 37.3351 109.535C32.9318 107.784 28.7466 108.643 23.9206 105.911C21.8126 104.699 20.0846 102.928 18.9291 100.795C17.7736 98.6624 17.236 96.2517 17.3761 93.8316C18.363 87.3086 24.8379 87.3602 29.8052 85.6736C31.4962 85.5321 34.9839 83.4608 34.0118 80.9998C33.0397 78.5388 28.8264 79.0607 27.5723 78.3182C23.3592 75.7893 21.0063 72.0879 25.6778 68.9006C30.3493 65.7133 37.7542 65.6871 38.5861 59.3465C39.418 53.0059 30.0614 53.1106 25.7425 52.3702C21.4236 51.6298 12.2156 43.3324 17.775 38.5455C23.3343 33.7586 28.5333 42.9845 31.1757 38.95C37.0665 29.9829 27.3526 4.44017 42.3177 2.1715L44.1707 1.93176Z" fill="#689929"/>
<path style="mix-blend-mode:color-dodge" d="M44.1707 1.93176C47.1149 12.7021 31.2965 26.1436 42.9484 45.3379C54.6004 64.5323 58.8415 69.4316 53.2042 79.3944C39.7382 103.656 66.7353 125.126 52.1292 131.686L48.7967 130.524C53.1938 123.038 36.7492 124.922 38.0391 117.95C38.7439 114.162 44.141 112.525 37.3351 109.535C32.9318 107.784 28.7466 108.643 23.9206 105.911C21.8126 104.699 20.0846 102.928 18.9291 100.795C17.7736 98.6624 17.236 96.2517 17.3761 93.8316C18.363 87.3086 24.8379 87.3602 29.8052 85.6736C31.4962 85.5321 34.9839 83.4608 34.0118 80.9998C33.0397 78.5388 28.8264 79.0607 27.5723 78.3182C23.3592 75.7893 21.0063 72.0879 25.6778 68.9006C30.3493 65.7133 37.7542 65.6871 38.5861 59.3465C39.418 53.0059 30.0614 53.1106 25.7425 52.3702C21.4236 51.6298 12.2156 43.3324 17.775 38.5455C23.3343 33.7586 28.5333 42.9845 31.1757 38.95C37.0665 29.9829 27.3526 4.44017 42.3177 2.1715L44.1707 1.93176Z" fill="url(#paint1_linear_123_14)"/>
<path d="M44.1713 1.92632C45.9768 1.63377 47.8259 1.76945 49.5682 2.32234C50.4477 2.64884 51.2269 3.19683 51.8297 3.9128C52.4499 4.6283 52.8487 5.50732 52.978 6.4438C53.2217 8.25865 53.0258 10.1055 52.4068 11.8304C51.8717 13.5692 51.1561 15.2479 50.2716 16.8394L47.4178 21.4C46.4488 22.8436 45.8289 24.4908 45.6067 26.2124C45.5079 27.0597 45.5797 27.918 45.8179 28.737C46.0307 29.5283 46.4429 30.2522 47.0155 30.8402C48.4903 31.7261 50.2546 32.0042 51.9333 31.6153C53.7464 31.3242 55.5979 31.3705 57.3936 31.7517C58.2712 32.0574 59.1068 32.4715 59.8806 32.9844C60.7078 33.4935 61.3191 34.2863 61.5996 35.2134C61.9319 36.1001 62.0123 37.0609 61.8319 37.9905C61.5628 38.8464 61.2037 39.6718 60.7607 40.4529C59.8729 42.0526 58.8934 43.5751 58.0901 45.1677C57.6471 45.9488 57.2881 46.7742 57.019 47.6301C56.9201 48.4774 56.9919 49.3357 57.2301 50.1548C57.2668 51.0344 57.478 51.8981 57.8516 52.6959C58.2252 53.4936 58.7538 54.2098 59.4069 54.8031C62.077 57.2068 65.8745 57.8213 68.3614 60.0709C69.1356 60.5777 69.821 61.2074 70.3904 61.935C70.9014 62.686 71.3649 63.468 71.7782 64.2765C72.4334 66.0228 72.5918 67.9156 72.2358 69.7465C71.3046 73.2961 69.4642 76.5452 66.8945 79.1761C65.7389 80.6287 64.4847 81.92 63.4066 83.2813C62.2141 84.5216 61.3729 86.054 60.9685 87.7224C61.0952 89.2372 62.3844 90.4005 63.8851 91.0377L66.3439 91.9337C67.2857 92.1585 68.1816 92.5421 68.993 93.068C69.224 93.1926 69.4273 93.3624 69.5908 93.5671C69.7542 93.7719 69.8744 94.0074 69.9441 94.2596C70.1138 94.7747 70.1596 95.3224 70.0778 95.8586C69.9711 96.7833 69.7313 97.6881 69.366 98.5452C68.6542 100.215 67.8509 101.807 67.0476 103.4C66.2079 104.935 65.6833 106.621 65.5042 108.359C65.4817 110.101 65.7999 111.83 66.4409 113.45L67.4201 115.996C67.8429 116.798 68.1443 117.658 68.3146 118.548C68.7038 120.333 68.7133 122.18 68.3424 123.969C68.0358 125.776 67.2619 127.473 66.0969 128.893C64.9318 130.313 63.4157 131.407 61.6978 132.067C63.371 131.419 64.8165 130.296 65.8549 128.838C66.8837 127.393 67.5879 125.744 67.9197 124.004C68.1109 122.253 67.9628 120.482 67.4832 118.787C67.2355 117.939 66.9101 117.115 66.5111 116.326L65.532 113.781C64.7801 112.104 64.396 110.288 64.4051 108.451C64.5966 106.612 65.1093 104.82 65.9203 103.155C66.7499 101.579 67.4955 99.9613 68.1542 98.3075C68.5226 97.5465 68.7427 96.7229 68.8026 95.8805C68.902 95.5213 68.8907 95.1406 68.7702 94.788C68.6496 94.4354 68.4253 94.1271 68.1263 93.9032C67.3878 93.4551 66.5848 93.1222 65.745 92.916C64.862 92.7304 64.0071 92.4316 63.2016 92.027C62.3066 91.6856 61.4845 91.1794 60.778 90.5349C60.3886 90.1883 60.0872 89.7547 59.8987 89.2696C59.7101 88.7846 59.6397 88.2619 59.6932 87.7443C59.8071 86.7658 60.1684 85.8317 60.7432 85.0295C61.2067 84.2566 61.7448 83.5304 62.3498 82.8613C63.5054 81.4087 64.7596 80.1174 65.9222 78.749C68.3907 76.2492 70.2096 73.1882 71.2212 69.8314C71.603 68.1445 71.4556 66.3821 70.7988 64.7821C70.1622 63.1523 69.1023 61.7203 67.7273 60.6324C64.8247 58.5023 61.1821 57.7053 58.7657 55.2804C58.09 54.6505 57.5475 53.8926 57.1701 53.051C56.7927 52.2095 56.5879 51.3013 56.5678 50.3796C56.3299 49.503 56.2536 48.5906 56.3426 47.6867C56.6117 46.8308 56.9707 46.0054 57.4137 45.2243C58.217 43.6317 59.1965 42.1091 59.9998 40.5166C60.9778 39.0401 61.3743 37.2568 61.1134 35.5083C60.9797 33.9094 58.8661 33.0692 57.2879 32.5233C55.5408 32.231 53.7562 32.237 52.0107 32.541C51.0893 32.7 50.1557 32.7781 49.2206 32.7743C48.2501 32.7124 47.3248 32.3446 46.5786 31.7242C45.8528 31.0841 45.3374 30.2414 45.0992 29.3056C44.7658 28.3901 44.6832 27.4025 44.8599 26.4444C45.0675 24.6289 45.7104 22.8895 46.7344 21.3724C47.7068 19.7657 48.7779 18.3202 49.6728 16.8047C50.5603 15.2719 51.2808 13.6491 51.822 11.9641C52.4326 10.3223 52.6639 8.56513 52.4988 6.82284C52.4219 5.95245 52.0859 5.12489 51.5338 4.44601C50.9903 3.76006 50.2694 3.23444 49.4484 2.92556C47.7677 2.34124 45.9756 2.14348 44.2065 2.34711L44.1713 1.92632Z" fill="#71A62C"/>
</g>
<g>
<path d="M108.835 125.737C101.641 129.304 90.812 130.125 82.9629 134.002C80.1829 135.527 77.7483 137.606 75.8111 140.109L74.43 141.919C69.9449 148.016 66.7864 154.976 65.1564 162.355C62.9996 173.213 61.4063 185.719 49.0969 194.291C44.0573 197.768 39.665 202.093 36.1179 207.071C33.6494 210.14 30.6732 212.768 27.3173 214.841C19.2356 220.008 14.4797 221.169 11.2383 226.186C17.5942 216.671 43.4223 231.29 46.4036 219.092C47.785 213.214 37.5687 215.255 39.4292 208.998C39.5426 208.595 39.7109 208.211 39.9295 207.854C42.875 202.354 53.9719 202.696 58.8545 202.034C63.7372 201.371 75.4544 196.917 74.2008 190.073C72.9472 183.228 63.4001 187.162 64.9435 181.186C66.487 175.21 81.7123 178.089 78.1055 171.611C76.8657 169.003 72.2225 170.493 70.5036 168.264C68.7846 166.035 70.9972 161.951 73.7733 160.533C78.0925 158.222 93.0501 159.937 91.3317 151.607C89.6132 143.276 77.4237 151.245 76.2546 144.393C76.1102 143.676 76.1184 142.937 76.2787 142.223C76.4389 141.509 76.7476 140.836 77.1849 140.248C80.7716 135.287 92.404 133.89 96.265 133.228C100.126 132.567 112.794 129.304 108.835 125.737Z" fill="#89B823"/>
<path d="M106.354 124.586C100.091 121.974 91.6288 126.665 86.5275 129.803C78.4247 134.718 77.7912 127.144 74.4303 128.697C71.0694 130.249 75.8316 138.325 73.7177 141.552C73.3002 142.116 72.7046 142.524 72.0266 142.711C68.849 143.4 67.9687 137.966 65.5944 137.063C64.0137 136.672 62.3467 136.82 60.8592 137.482C59.3716 138.144 58.149 139.282 57.386 140.715C55.7904 147.704 55.2437 154.89 55.7639 162.037C54.734 177.207 49.0707 159.376 44.202 162.241C42.8683 163.256 41.8254 164.601 41.1774 166.143C40.5294 167.684 40.299 169.367 40.5094 171.024C40.199 176.474 44.0806 183.183 43.2277 188.254C41.6909 198.382 33.6808 188.12 29.1081 189.435C22.7881 191.235 25.5845 200.238 25.6194 204.727C25.9075 207.327 25.3904 209.954 24.1373 212.255C22.8842 214.556 20.955 216.421 18.608 217.601C16.1057 218.679 13.9008 220.342 12.18 222.448C10.4592 224.554 9.4244 226.098 8.87341 228.756C9.3477 227.698 9.76717 227.629 10.4273 226.675C13.8378 221.644 18.4246 220.497 26.5063 215.33C29.8622 213.257 32.8384 210.629 35.3069 207.56C38.854 202.582 43.2462 198.257 48.2859 194.78C60.5953 186.208 62.1886 173.702 64.3454 162.844C65.9754 155.465 69.1339 148.505 73.619 142.408L75.0001 140.598C76.9373 138.095 79.3719 136.016 82.1518 134.491C90.3391 130.586 100.83 129.793 108.024 126.226C107.54 125.61 106.979 125.059 106.354 124.586Z" fill="#689929"/>
<path style="mix-blend-mode:color-dodge" d="M106.354 124.586C100.091 121.974 91.6288 126.665 86.5275 129.803C78.4247 134.718 77.7912 127.144 74.4303 128.697C71.0694 130.249 75.8316 138.325 73.7177 141.552C73.3002 142.116 72.7046 142.524 72.0266 142.711C68.849 143.4 67.9687 137.966 65.5944 137.063C64.0137 136.672 62.3467 136.82 60.8592 137.482C59.3716 138.144 58.149 139.282 57.386 140.715C55.7904 147.704 55.2437 154.89 55.7639 162.037C54.734 177.207 49.0707 159.376 44.202 162.241C42.8683 163.256 41.8254 164.601 41.1774 166.143C40.5294 167.684 40.299 169.367 40.5094 171.024C40.199 176.474 44.0806 183.183 43.2277 188.254C41.6909 198.382 33.6808 188.12 29.1081 189.435C22.7881 191.235 25.5845 200.238 25.6194 204.727C25.9075 207.327 25.3904 209.954 24.1373 212.255C22.8842 214.556 20.955 216.421 18.608 217.601C16.1057 218.679 13.9008 220.342 12.18 222.448C10.4592 224.554 9.4244 226.098 8.87341 228.756C9.3477 227.698 9.76717 227.629 10.4273 226.675C13.8378 221.644 18.4246 220.497 26.5063 215.33C29.8622 213.257 32.8384 210.629 35.3069 207.56C38.854 202.582 43.2462 198.257 48.2859 194.78C60.5953 186.208 62.1886 173.702 64.3454 162.844C65.9754 155.465 69.1339 148.505 73.619 142.408L75.0001 140.598C76.9373 138.095 79.3719 136.016 82.1518 134.491C90.3391 130.586 100.83 129.793 108.024 126.226C107.54 125.61 106.979 125.059 106.354 124.586Z" fill="url(#paint2_linear_123_14)"/>
<path d="M10.8162 226.218C11.4681 225.207 12.3645 224.374 13.4232 223.797C14.538 223.316 15.7139 222.989 16.9179 222.827C19.2923 222.527 21.6949 222.526 24.0692 222.822C28.7843 223.471 33.5345 223.838 38.2943 223.92C39.4426 223.933 40.5817 223.713 41.6427 223.275C42.7036 222.837 43.6642 222.189 44.4664 221.37C45.1661 220.481 45.6073 219.418 45.7419 218.297C45.7649 217.778 45.6459 217.263 45.3978 216.806C45.1497 216.349 44.7817 215.968 44.333 215.703C43.3396 215.024 42.2053 214.695 41.1344 214.106C39.9492 213.547 39.017 212.567 38.5207 211.359C38.2884 210.054 38.5388 208.708 39.2256 207.571C39.8381 206.49 40.7344 205.595 41.8185 204.982C43.9468 203.81 46.286 203.067 48.7023 202.796C51.0857 202.47 53.4845 202.27 55.8889 202.195L59.4399 201.898L62.8571 201.019C65.1156 200.287 67.2634 199.252 69.2406 197.942C71.2881 196.738 72.8241 194.832 73.56 192.581C73.849 191.459 73.7498 190.273 73.2785 189.215C72.9931 188.127 72.3064 187.186 71.3552 186.579C70.278 186.131 69.1658 185.77 68.0298 185.502L66.2754 184.886C65.6968 184.583 65.2158 184.124 64.8876 183.561C64.6621 182.942 64.6063 182.274 64.7257 181.625C64.7814 181.009 65.0303 180.425 65.4374 179.956C66.284 179.063 67.3394 178.392 68.5094 178.004C70.8275 177.217 73.1738 176.766 75.4073 175.986C76.4929 175.677 77.4524 175.033 78.1481 174.147C78.3989 173.685 78.5091 173.16 78.4654 172.637C78.4216 172.114 78.2258 171.615 77.9018 171.202C77.0271 170.509 75.9476 170.123 74.83 170.103C73.5764 170.079 72.3488 169.745 71.2579 169.13C70.9672 168.911 70.7149 168.646 70.5112 168.345C70.426 168.073 70.402 167.786 70.4408 167.504C70.1756 166.894 70.1188 166.214 70.2789 165.568C70.3745 164.27 70.9374 163.049 71.8644 162.131C72.6963 161.209 73.7048 160.462 74.8308 159.933C75.977 159.456 77.1799 159.128 78.41 158.956L85.4698 157.857C86.6018 157.598 87.7115 157.25 88.7884 156.817C89.8434 156.455 90.7659 155.787 91.4377 154.9C91.9991 153.972 92.1808 152.864 91.9452 151.807C91.8891 151.276 91.7185 150.762 91.445 150.303C91.1714 149.843 90.8014 149.447 90.3601 149.143C89.4117 148.55 88.3289 148.204 87.2109 148.135L83.7444 148.425C82.5087 148.497 81.2691 148.401 80.0595 148.14C79.4346 147.967 78.8387 147.702 78.2912 147.356C77.7574 146.895 77.3318 146.323 77.0442 145.681C76.5662 144.507 76.4581 143.215 76.7345 141.978C76.9226 141.368 77.2211 140.797 77.6153 140.294C77.9936 139.775 78.4417 139.31 78.947 138.912C80.4608 137.493 82.2077 136.344 84.1117 135.514C86.4064 134.789 88.749 134.225 91.1223 133.826C93.4896 133.628 95.857 133.429 98.168 132.558C100.485 132.027 102.76 131.327 104.974 130.464C106.049 129.981 107.084 129.412 108.067 128.764C108.067 128.764 108.927 127.845 108.969 127.333C109.062 127.087 109.099 126.823 109.077 126.561C109.055 126.299 108.975 126.045 108.843 125.818C109.106 125.978 109.32 126.205 109.463 126.477C109.606 126.749 109.671 127.054 109.653 127.36C109.616 127.661 109.518 127.95 109.364 128.211C109.21 128.472 109.004 128.698 108.758 128.876C107.837 129.656 106.798 130.287 105.679 130.744C103.488 131.7 101.214 132.458 98.8866 133.007C96.5697 133.608 94.2225 134.087 91.8549 134.442C89.5168 134.874 87.2046 135.435 84.929 136.123C82.6959 136.814 80.5968 137.878 78.7216 139.269L77.5519 140.554C77.2445 140.991 76.998 141.468 76.819 141.971C76.5709 143.067 76.6667 144.213 77.0936 145.253C77.3147 145.723 77.6443 146.135 78.0557 146.454C78.4671 146.773 78.9486 146.99 79.4607 147.089C80.6183 147.292 81.7954 147.364 82.9694 147.304C84.1663 147.261 85.3647 147.302 86.5556 147.427C87.8484 147.452 89.1118 147.814 90.2193 148.477C91.2142 149.336 91.8832 150.509 92.1151 151.8C92.347 153.091 92.1278 154.423 91.494 155.574C90.7038 156.594 89.6524 157.385 88.4501 157.862C87.3009 158.342 86.1033 158.698 84.8779 158.923L77.8181 160.022C76.6772 160.15 75.5558 160.415 74.4784 160.81C73.4629 161.355 72.5441 162.061 71.7586 162.902C70.744 163.496 69.9766 164.432 69.5954 165.541C69.5104 166.077 69.5562 166.625 69.7292 167.14C69.9212 167.646 70.2533 168.089 70.6873 168.415C71.6907 168.932 72.7878 169.243 73.9141 169.332C75.1794 169.354 76.3953 169.823 77.3452 170.655L77.4227 171.581C77.5904 172.247 77.4971 172.951 77.1618 173.552C76.4362 174.606 75.3486 175.36 74.1039 175.672C71.7858 176.459 69.4325 176.825 67.199 177.605C66.0864 177.927 65.0797 178.538 64.282 179.375C63.8842 179.773 63.6548 180.308 63.6407 180.869C63.5161 181.403 63.5628 181.962 63.7745 182.468C63.8589 183.478 65.5076 183.848 66.5644 184.268C67.7429 184.526 68.889 184.913 69.9814 185.423C71.1102 185.93 72.0266 186.812 72.574 187.918C73.0538 189.062 73.1597 190.328 72.8767 191.537C72.1766 193.872 70.606 195.853 68.4868 197.073C66.5195 198.487 64.3416 199.584 62.0328 200.325C60.8915 200.714 59.7204 201.01 58.531 201.211C57.3557 201.392 56.1692 201.492 54.98 201.508C52.6038 201.58 50.2331 201.778 47.878 202.102C45.5451 202.417 43.2956 203.181 41.255 204.351C40.2683 204.926 39.4554 205.755 38.9015 206.751C38.356 207.685 38.1753 208.786 38.394 209.844C38.5932 210.353 38.8937 210.817 39.2775 211.207C39.6613 211.597 40.1204 211.906 40.6273 212.115C41.7339 212.6 42.8051 213.162 43.8329 213.796C44.3872 214.145 44.8392 214.633 45.1433 215.212C45.4084 215.822 45.4653 216.502 45.3052 217.147C45.1963 218.406 44.7019 219.601 43.8887 220.571C43.1016 221.547 42.0313 222.258 40.8238 222.607C39.6382 222.915 38.4084 223.018 37.1882 222.911C32.3917 222.789 27.6078 222.368 22.8645 221.651C20.5177 221.339 18.1434 221.281 15.7837 221.481C14.6056 221.633 13.4565 221.958 12.3735 222.444C11.2927 222.919 10.3568 223.67 9.6608 224.62L10.8162 226.218Z" fill="#5C8724"/>
</g>
<defs>
<linearGradient id="paint0_linear_123_14" x1="1440.15" y1="3034.49" x2="1899.39" y2="4981.24" gradientUnits="userSpaceOnUse">
<stop offset="0.16" stop-color="#66511D"/>
<stop offset="0.5" stop-color="#272920"/>
<stop offset="0.86" stop-color="#0C0C0A"/>
<stop offset="1"/>
</linearGradient>
<linearGradient id="paint1_linear_123_14" x1="1713.48" y1="2835.88" x2="1373.64" y2="4679" gradientUnits="userSpaceOnUse">
<stop offset="0.16" stop-color="#66511D"/>
<stop offset="0.5" stop-color="#272920"/>
<stop offset="0.86" stop-color="#0C0C0A"/>
<stop offset="1"/>
</linearGradient>
<linearGradient id="paint2_linear_123_14" x1="97.8651" y1="114.703" x2="25.1268" y2="207.261" gradientUnits="userSpaceOnUse">
<stop offset="0.16" stop-color="#66511D"/>
<stop offset="0.5" stop-color="#272920"/>
<stop offset="0.86" stop-color="#0C0C0A"/>
<stop offset="1"/>
</linearGradient>
</defs>
</svg>
