<svg id="e5hu3sreD6f1" xmlns="http://www.w3.org/2000/svg" xmlns:xlink="http://www.w3.org/1999/xlink" viewBox="0 0 118 229" shape-rendering="geometricPrecision" text-rendering="geometricPrecision"><style><![CDATA[#e5hu3sreD6f4_to {animation: e5hu3sreD6f4_to__to 4000ms linear infinite normal forwards}@keyframes e5hu3sreD6f4_to__to { 0% {transform: translate(34.1176px,176.657455px)} 50% {transform: translate(33.12px,176.657455px)} 100% {transform: translate(34.1176px,176.657454px)}} #e5hu3sreD6f4_tr {animation: e5hu3sreD6f4_tr__tr 4000ms linear infinite normal forwards}@keyframes e5hu3sreD6f4_tr__tr { 0% {transform: rotate(0deg)} 50% {transform: rotate(-0.5deg)} 100% {transform: rotate(0deg)}} #e5hu3sreD6f7_to {animation: e5hu3sreD6f7_to__to 4000ms linear infinite normal forwards}@keyframes e5hu3sreD6f7_to__to { 0% {transform: translate(53.71px,132.66037px)} 50% {transform: translate(52.71px,132.66037px)} 100% {transform: translate(53.71px,132.66037px)}} #e5hu3sreD6f7_tr {animation: e5hu3sreD6f7_tr__tr 4000ms linear infinite normal forwards}@keyframes e5hu3sreD6f7_tr__tr { 0% {transform: rotate(0deg)} 25% {transform: rotate(-1deg)} 75% {transform: rotate(1deg)} 100% {transform: rotate(0deg)}} #e5hu3sreD6f13_to {animation: e5hu3sreD6f13_to__to 4000ms linear infinite normal forwards}@keyframes e5hu3sreD6f13_to__to { 0% {transform: translate(17.410864px,218.700001px)} 25% {transform: translate(16.41px,218.7px)} 75% {transform: translate(18.41px,218.7px)} 100% {transform: translate(17.410863px,218.7px)}} #e5hu3sreD6f13_tr {animation: e5hu3sreD6f13_tr__tr 4000ms linear infinite normal forwards}@keyframes e5hu3sreD6f13_tr__tr { 0% {transform: rotate(0deg)} 25% {transform: rotate(-0.5deg)} 75% {transform: rotate(0.5deg)} 100% {transform: rotate(0deg)}}]]></style><defs><linearGradient id="e5hu3sreD6f9-fill" x1="1440.15" y1="3034.49" x2="1899.39" y2="4981.24" spreadMethod="pad" gradientUnits="userSpaceOnUse" gradientTransform="translate(0 0)"><stop id="e5hu3sreD6f9-fill-0" offset="16%" stop-color="#66511d"/><stop id="e5hu3sreD6f9-fill-1" offset="50%" stop-color="#272920"/><stop id="e5hu3sreD6f9-fill-2" offset="86%" stop-color="#0c0c0a"/><stop id="e5hu3sreD6f9-fill-3" offset="100%" stop-color="#000"/></linearGradient><linearGradient id="e5hu3sreD6f11-fill" x1="1713.48" y1="2835.88" x2="1373.64" y2="4679" spreadMethod="pad" gradientUnits="userSpaceOnUse" gradientTransform="translate(0 0)"><stop id="e5hu3sreD6f11-fill-0" offset="16%" stop-color="#66511d"/><stop id="e5hu3sreD6f11-fill-1" offset="50%" stop-color="#272920"/><stop id="e5hu3sreD6f11-fill-2" offset="86%" stop-color="#0c0c0a"/><stop id="e5hu3sreD6f11-fill-3" offset="100%" stop-color="#000"/></linearGradient><linearGradient id="e5hu3sreD6f16-fill" x1="97.8651" y1="114.703" x2="25.1268" y2="207.261" spreadMethod="pad" gradientUnits="userSpaceOnUse" gradientTransform="translate(0 0)"><stop id="e5hu3sreD6f16-fill-0" offset="16%" stop-color="#66511d"/><stop id="e5hu3sreD6f16-fill-1" offset="50%" stop-color="#272920"/><stop id="e5hu3sreD6f16-fill-2" offset="86%" stop-color="#0c0c0a"/><stop id="e5hu3sreD6f16-fill-3" offset="100%" stop-color="#000"/></linearGradient></defs><path d="M27.6356,191.017c1.651.079,3.3-.197,4.8354-.808s2.921-1.543,4.0635-2.733c-4.6009,7.219-7.5261,15.367-8.5623,23.851-.0162,2.398.1841,4.792.5983,7.153l-2.621.22c-.0844-1.01-2.959-1.787-6.0238-2.801-3.0647-1.015-6.3338-2.437-6.5309-4.793-.6053-7.237,7.6729-2.93,9.3431-7.392c1.6702-4.461-4.5581-5.635-3.5784-10.208.8456-2.105,4.5869-2.164,8.4761-2.489Z" fill="#a1c94b"/><path d="M34.1136,177.935l.0492.589c1.4005,1.565,2.354,3.475,2.7615,5.532.1485.634.2031,1.286.1619,1.936l-.6413,1.494c-1.1424,1.19-2.5282,2.122-4.0635,2.733s-3.1843.886-4.8354.808c2.9085-4.682,4.3783-10.107,4.2286-15.608l2.339,2.516Z" fill="#5e8a25"/><g id="e5hu3sreD6f4_to" transform="translate(34.1176,176.657455)"><g id="e5hu3sreD6f4_tr" transform="rotate(0)"><g transform="translate(-34.1176,-176.657449)"><path d="M34.1176,177.937c4.4182-7.233,1.1289-21.11,5.5188-27.664c4.39-6.553,10.6466-8.094,14.3181-18.146c2.1847.497,4.4531.51,6.6441.037l1.0145-.085c5.6364,2.241,1.5775,9.699-3.7209,11.498-5.2985,1.799-13.9647,3.032-7.6946,9.796c8.8274,9.854-9.0191,9.228-9.2451,16.705.2463,2.945,6.4885,6.321,1.6902,9.011-1.9447,1.179-5.5237-.894-7.877-.528l-.6481-.624Z" fill="#89b823"/><path d="M39.6385,150.268c-4.39,6.554-1.1007,20.431-5.5189,27.665l-2.346-2.601c-7.045-7.885-18.1128-19.077-13.286-25.498c4.8267-6.42,16.4296,9.134,14.916-5.908-.4575-5.47-2.6903-14.86,4.1229-15.853c3.8369-.262,7.6663.595,11.0192,2.468l3.3325,1.162l1.8318.524c-3.4249,9.948-9.5689,11.817-14.0715,18.041Z" fill="#a1c94b"/></g></g></g><g id="e5hu3sreD6f7_to" transform="translate(53.71,132.66037)"><g id="e5hu3sreD6f7_tr" transform="rotate(0)"><g transform="translate(-53.709998,-132.660369)"><path d="M53.7047,132.232l-1.8318-.525c14.6061-6.56-12.391-28.03,1.075-52.2914c5.6232-10.1312,1.4737-14.9534-10.2558-34.0565s4.1665-32.6358,1.2223-43.40621c10.3994-.86986,9.9902,6.45232,6.34,13.70661-1.8181,3.7113-6.229,7.9784-5.1725,12.4662c1.5072,6.8229,7.8697,2.4773,12.3436,4.0522c9.2929,3.2056-.945,11.0957-1.3329,16.6364-.6912,9.0407,9.1587,7.7083,13.4561,13.2809c9.574,12.6734-15.1428,22.5372-8.1047,28.3043c4.206,3.4617,10.6952.6308,6.4954,9.4564-3.5445,7.5001-4.4958,8.3421-.875,17.0221c1.2784,2.793,1.3975,5.976.3313,8.858s-3.2314,5.23-6.0253,6.533l-1.0146.085c-2.1995.446-4.4703.405-6.6511-.122Z" fill="#5e8a25"/><path style="mix-blend-mode:color-dodge" d="M53.7047,132.232l-1.8318-.525c14.6061-6.56-12.391-28.03,1.075-52.2914c5.6232-10.1312,1.4737-14.9534-10.2558-34.0565s4.1665-32.6358,1.2223-43.40621c10.3994-.86986,9.9902,6.45232,6.34,13.70661-1.8181,3.7113-6.229,7.9784-5.1725,12.4662c1.5072,6.8229,7.8697,2.4773,12.3436,4.0522c9.2929,3.2056-.945,11.0957-1.3329,16.6364-.6912,9.0407,9.1587,7.7083,13.4561,13.2809c9.574,12.6734-15.1428,22.5372-8.1047,28.3043c4.206,3.4617,10.6952.6308,6.4954,9.4564-3.5445,7.5001-4.4958,8.3421-.875,17.0221c1.2784,2.793,1.3975,5.976.3313,8.858s-3.2314,5.23-6.0253,6.533l-1.0146.085c-2.1995.446-4.4703.405-6.6511-.122Z" fill="url(#e5hu3sreD6f9-fill)"/><path d="M44.1707,1.93176C47.1149,12.7021,31.2965,26.1436,42.9484,45.3379c11.652,19.1944,15.8931,24.0937,10.2558,34.0565-13.466,24.2616,13.5311,45.7316-1.075,52.2916l-3.3325-1.162c4.3971-7.486-12.0475-5.602-10.7576-12.574.7048-3.788,6.1019-5.425-.704-8.415-4.4033-1.751-8.5885-.892-13.4145-3.624-2.108-1.212-3.836-2.983-4.9915-5.116-1.1555-2.1326-1.6931-4.5433-1.553-6.9634.9869-6.523,7.4618-6.4714,12.4291-8.158c1.691-.1415,5.1787-2.2128,4.2066-4.6738s-5.1854-1.9391-6.4395-2.6816c-4.2131-2.5289-6.566-6.2303-1.8945-9.4176s12.0764-3.2135,12.9083-9.5541-8.5247-6.2359-12.8436-6.9763-13.5269-9.0378-7.9675-13.8247s10.7583,4.439,13.4007.4045c5.8908-8.9671-3.8231-34.50983,11.142-36.7785l1.853-.23974Z" fill="#689929"/><path style="mix-blend-mode:color-dodge" d="M44.1707,1.93176C47.1149,12.7021,31.2965,26.1436,42.9484,45.3379c11.652,19.1944,15.8931,24.0937,10.2558,34.0565-13.466,24.2616,13.5311,45.7316-1.075,52.2916l-3.3325-1.162c4.3971-7.486-12.0475-5.602-10.7576-12.574.7048-3.788,6.1019-5.425-.704-8.415-4.4033-1.751-8.5885-.892-13.4145-3.624-2.108-1.212-3.836-2.983-4.9915-5.116-1.1555-2.1326-1.6931-4.5433-1.553-6.9634.9869-6.523,7.4618-6.4714,12.4291-8.158c1.691-.1415,5.1787-2.2128,4.2066-4.6738s-5.1854-1.9391-6.4395-2.6816c-4.2131-2.5289-6.566-6.2303-1.8945-9.4176s12.0764-3.2135,12.9083-9.5541-8.5247-6.2359-12.8436-6.9763-13.5269-9.0378-7.9675-13.8247s10.7583,4.439,13.4007.4045c5.8908-8.9671-3.8231-34.50983,11.142-36.7785l1.853-.23974Z" fill="url(#e5hu3sreD6f11-fill)"/><path d="M44.1713,1.92632c1.8055-.29255,3.6546-.15687,5.3969.39602.8795.3265,1.6587.87449,2.2615,1.59046.6202.7155,1.019,1.59452,1.1483,2.531.2437,1.81485.0478,3.6617-.5712,5.3866-.5351,1.7388-1.2507,3.4175-2.1352,5.009L47.4178,21.4c-.969,1.4436-1.5889,3.0908-1.8111,4.8124-.0988.8473-.027,1.7056.2112,2.5246.2128.7913.625,1.5152,1.1976,2.1032c1.4748.8859,3.2391,1.164,4.9178.7751c1.8131-.2911,3.6646-.2448,5.4603.1364.8776.3057,1.7132.7198,2.487,1.2327.8272.5091,1.4385,1.3019,1.719,2.229.3323.8867.4127,1.8475.2323,2.7771-.2691.8559-.6282,1.6813-1.0712,2.4624-.8878,1.5997-1.8673,3.1222-2.6706,4.7148-.443.7811-.802,1.6065-1.0711,2.4624-.0989.8473-.0271,1.7056.2111,2.5247.0367.8796.2479,1.7433.6215,2.5411.3736.7977.9022,1.5139,1.5553,2.1072c2.6701,2.4037,6.4676,3.0182,8.9545,5.2678.7742.5068,1.4596,1.1365,2.029,1.8641.511.751.9745,1.533,1.3878,2.3415.6552,1.7463.8136,3.6391.4576,5.47-.9312,3.5496-2.7716,6.7987-5.3413,9.4296-1.1556,1.4526-2.4098,2.7439-3.4879,4.1052-1.1925,1.2403-2.0337,2.7727-2.4381,4.4411.1267,1.5148,1.4159,2.6781,2.9166,3.3153l2.4588.896c.9418.2248,1.8377.6084,2.6491,1.1343.231.1246.4343.2944.5978.4991.1634.2048.2836.4403.3533.6925.1697.5151.2155,1.0628.1337,1.599-.1067.9247-.3465,1.8295-.7118,2.6866-.7118,1.6698-1.5151,3.2618-2.3184,4.8548-.8397,1.535-1.3643,3.221-1.5434,4.959-.0225,1.742.2957,3.471.9367,5.091l.9792,2.546c.4228.802.7242,1.662.8945,2.552.3892,1.785.3987,3.632.0278,5.421-.3066,1.807-1.0805,3.504-2.2455,4.924-1.1651,1.42-2.6812,2.514-4.3991,3.174c1.6732-.648,3.1187-1.771,4.1571-3.229c1.0288-1.445,1.733-3.094,2.0648-4.834.1912-1.751.0431-3.522-.4365-5.217-.2477-.848-.5731-1.672-.9721-2.461l-.9791-2.545c-.7519-1.677-1.136-3.493-1.1269-5.33.1915-1.839.7042-3.631,1.5152-5.296.8296-1.576,1.5752-3.1937,2.2339-4.8475.3684-.761.5885-1.5846.6484-2.427.0994-.3592.0881-.7399-.0324-1.0925-.1206-.3526-.3449-.6609-.6439-.8848-.7385-.4481-1.5415-.781-2.3813-.9872-.883-.1856-1.7379-.4844-2.5434-.889-.895-.3414-1.7171-.8476-2.4236-1.4921-.3894-.3466-.6908-.7802-.8793-1.2653-.1886-.485-.259-1.0077-.2055-1.5253.1139-.9785.4752-1.9126,1.05-2.7148.4635-.7729,1.0016-1.4991,1.6066-2.1682c1.1556-1.4526,2.4098-2.7439,3.5724-4.1123c2.4685-2.4998,4.2874-5.5608,5.299-8.9176.3818-1.6869.2344-3.4493-.4224-5.0493-.6366-1.6298-1.6965-3.0618-3.0715-4.1497-2.9026-2.1301-6.5452-2.9271-8.9616-5.352-.6757-.6299-1.2182-1.3878-1.5956-2.2294s-.5822-1.7497-.6023-2.6714c-.2379-.8766-.3142-1.789-.2252-2.6929.2691-.8559.6281-1.6813,1.0711-2.4624.8033-1.5926,1.7828-3.1152,2.5861-4.7077.978-1.4765,1.3745-3.2598,1.1136-5.0083-.1337-1.5989-2.2473-2.4391-3.8255-2.985-1.7471-.2923-3.5317-.2863-5.2772.0177-.9214.159-1.855.2371-2.7901.2333-.9705-.0619-1.8958-.4297-2.642-1.0501-.7258-.6401-1.2412-1.4828-1.4794-2.4186-.3334-.9155-.416-1.9031-.2393-2.8612.2076-1.8155.8505-3.5549,1.8745-5.072.9724-1.6067,2.0435-3.0522,2.9384-4.5677.8875-1.5328,1.608-3.1556,2.1492-4.8406.6106-1.6418.8419-3.39897.6768-5.14126-.0769-.87039-.4129-1.69795-.965-2.37683-.5435-.68595-1.2644-1.21157-2.0854-1.52045-1.6807-.58432-3.4728-.78208-5.2419-.57845l-.0352-.42079Z" fill="#71a62c"/></g></g></g><g id="e5hu3sreD6f13_to" transform="translate(17.410864,218.700001)"><g id="e5hu3sreD6f13_tr" transform="rotate(0)"><g transform="translate(-17.042357,-218.333144)"><path d="M108.835,125.737c-7.194,3.567-18.023,4.388-25.8721,8.265-2.78,1.525-5.2146,3.604-7.1518,6.107l-1.3811,1.81c-4.4851,6.097-7.6436,13.057-9.2736,20.436-2.1568,10.858-3.7501,23.364-16.0595,31.936-5.0396,3.477-9.4319,7.802-12.979,12.78-2.4685,3.069-5.4447,5.697-8.8006,7.77-8.0817,5.167-12.8376,6.328-16.079,11.345c6.3559-9.515,32.184,5.104,35.1653-7.094c1.3814-5.878-8.8349-3.837-6.9744-10.094.1134-.403.2817-.787.5003-1.144c2.9455-5.5,14.0424-5.158,18.925-5.82c4.8827-.663,16.5999-5.117,15.3463-11.961-1.2536-6.845-10.8007-2.911-9.2573-8.887c1.5435-5.976,16.7688-3.097,13.162-9.575-1.2398-2.608-5.883-1.118-7.6019-3.347-1.719-2.229.4936-6.313,3.2697-7.731c4.3192-2.311,19.2768-.596,17.5584-8.926-1.7185-8.331-13.908-.362-15.0771-7.214-.1444-.717-.1362-1.456.0241-2.17.1602-.714.4689-1.387.9062-1.975c3.5867-4.961,15.2191-6.358,19.0801-7.02c3.861-.661,16.529-3.924,12.57-7.491Z" fill="#89b823"/><path d="M106.354,124.586c-6.263-2.612-14.7252,2.079-19.8265,5.217-8.1028,4.915-8.7363-2.659-12.0972-1.106-3.3609,1.552,1.4013,9.628-.7126,12.855-.4175.564-1.0131.972-1.6911,1.159-3.1776.689-4.0579-4.745-6.4322-5.648-1.5807-.391-3.2477-.243-4.7352.419-1.4876.662-2.7102,1.8-3.4732,3.233-1.5956,6.989-2.1423,14.175-1.6221,21.322-1.0299,15.17-6.6932-2.661-11.5619.204-1.3337,1.015-2.3766,2.36-3.0246,3.902-.648,1.541-.8784,3.224-.668,4.881-.3104,5.45,3.5712,12.159,2.7183,17.23-1.5368,10.128-9.5469-.134-14.1196,1.181-6.32,1.8-3.5236,10.803-3.4887,15.292.2881,2.6-.229,5.227-1.4821,7.528s-3.1823,4.166-5.5293,5.346c-2.5023,1.078-4.7072,2.741-6.428,4.847s-2.7556,3.65-3.30659,6.308c.47429-1.058.89376-1.127,1.55389-2.081c3.4105-5.031,7.9973-6.178,16.079-11.345c3.3559-2.073,6.3321-4.701,8.8006-7.77c3.5471-4.978,7.9393-9.303,12.979-12.78c12.3094-8.572,13.9027-21.078,16.0595-31.936c1.63-7.379,4.7885-14.339,9.2736-20.436l1.3811-1.81c1.9372-2.503,4.3718-4.582,7.1517-6.107c8.1873-3.905,18.6782-4.698,25.8722-8.265-.484-.616-1.045-1.167-1.67-1.64Z" fill="#689929"/><path style="mix-blend-mode:color-dodge" d="M106.354,124.586c-6.263-2.612-14.7252,2.079-19.8265,5.217-8.1028,4.915-8.7363-2.659-12.0972-1.106-3.3609,1.552,1.4013,9.628-.7126,12.855-.4175.564-1.0131.972-1.6911,1.159-3.1776.689-4.0579-4.745-6.4322-5.648-1.5807-.391-3.2477-.243-4.7352.419-1.4876.662-2.7102,1.8-3.4732,3.233-1.5956,6.989-2.1423,14.175-1.6221,21.322-1.0299,15.17-6.6932-2.661-11.5619.204-1.3337,1.015-2.3766,2.36-3.0246,3.902-.648,1.541-.8784,3.224-.668,4.881-.3104,5.45,3.5712,12.159,2.7183,17.23-1.5368,10.128-9.5469-.134-14.1196,1.181-6.32,1.8-3.5236,10.803-3.4887,15.292.2881,2.6-.229,5.227-1.4821,7.528s-3.1823,4.166-5.5293,5.346c-2.5023,1.078-4.7072,2.741-6.428,4.847s-2.7556,3.65-3.30659,6.308c.47429-1.058.89376-1.127,1.55389-2.081c3.4105-5.031,7.9973-6.178,16.079-11.345c3.3559-2.073,6.3321-4.701,8.8006-7.77c3.5471-4.978,7.9393-9.303,12.979-12.78c12.3094-8.572,13.9027-21.078,16.0595-31.936c1.63-7.379,4.7885-14.339,9.2736-20.436l1.3811-1.81c1.9372-2.503,4.3718-4.582,7.1517-6.107c8.1873-3.905,18.6782-4.698,25.8722-8.265-.484-.616-1.045-1.167-1.67-1.64Z" fill="url(#e5hu3sreD6f16-fill)"/><path d="M10.8162,226.218c.6519-1.011,1.5483-1.844,2.607-2.421c1.1148-.481,2.2907-.808,3.4947-.97c2.3744-.3,4.777-.301,7.1513-.005c4.7151.649,9.4653,1.016,14.2251,1.098c1.1483.013,2.2874-.207,3.3484-.645s2.0215-1.086,2.8237-1.905c.6997-.889,1.1409-1.952,1.2755-3.073.023-.519-.096-1.034-.3441-1.491s-.6161-.838-1.0648-1.103c-.9934-.679-2.1277-1.008-3.1986-1.597-1.1852-.559-2.1174-1.539-2.6137-2.747-.2323-1.305.0181-2.651.7049-3.788.6125-1.081,1.5088-1.976,2.5929-2.589c2.1283-1.172,4.4675-1.915,6.8838-2.186c2.3834-.326,4.7822-.526,7.1866-.601l3.551-.297l3.4172-.879c2.2585-.732,4.4063-1.767,6.3835-3.077c2.0475-1.204,3.5835-3.11,4.3194-5.361.289-1.122.1898-2.308-.2815-3.366-.2854-1.088-.9721-2.029-1.9233-2.636-1.0772-.448-2.1894-.809-3.3254-1.077l-1.7544-.616c-.5786-.303-1.0596-.762-1.3878-1.325-.2255-.619-.2813-1.287-.1619-1.936.0557-.616.3046-1.2.7117-1.669.8466-.893,1.902-1.564,3.072-1.952c2.3181-.787,4.6644-1.238,6.8979-2.018c1.0856-.309,2.0451-.953,2.7408-1.839.2508-.462.361-.987.3173-1.51-.0438-.523-.2396-1.022-.5636-1.435-.8747-.693-1.9542-1.079-3.0718-1.099-1.2536-.024-2.4812-.358-3.5721-.973-.2907-.219-.543-.484-.7467-.785-.0852-.272-.1092-.559-.0704-.841-.2652-.61-.322-1.29-.1619-1.936.0956-1.298.6585-2.519,1.5855-3.437.8319-.922,1.8404-1.669,2.9664-2.198c1.1462-.477,2.3491-.805,3.5792-.977l7.0598-1.099c1.132-.259,2.2417-.607,3.3186-1.04c1.055-.362,1.9775-1.03,2.6493-1.917.5614-.928.7431-2.036.5075-3.093-.0561-.531-.2267-1.045-.5002-1.504-.2736-.46-.6436-.856-1.0849-1.16-.9484-.593-2.0312-.939-3.1492-1.008l-3.4665.29c-1.2357.072-2.4753-.024-3.6849-.285-.6249-.173-1.2208-.438-1.7683-.784-.5338-.461-.9594-1.033-1.247-1.675-.478-1.174-.5861-2.466-.3097-3.703.1881-.61.4866-1.181.8808-1.684.3783-.519.8264-.984,1.3317-1.382c1.5138-1.419,3.2607-2.568,5.1647-3.398c2.2947-.725,4.6373-1.289,7.0106-1.688c2.3673-.198,4.7347-.397,7.0457-1.268c2.317-.531,4.592-1.231,6.806-2.094c1.075-.483,2.11-1.052,3.093-1.7c0,0,.86-.919.902-1.431.093-.246.13-.51.108-.772s-.102-.516-.234-.743c.263.16.477.387.62.659s.208.577.19.883c-.037.301-.135.59-.289.851s-.36.487-.606.665c-.921.78-1.96,1.411-3.079,1.868-2.191.956-4.465,1.714-6.7924,2.263-2.3169.601-4.6641,1.08-7.0317,1.435-2.3381.432-4.6503.993-6.9259,1.681-2.2331.691-4.3322,1.755-6.2074,3.146l-1.1697,1.285c-.3074.437-.5539.914-.7329,1.417-.2481,1.096-.1523,2.242.2746,3.282.2211.47.5507.882.9621,1.201s.8929.536,1.405.635c1.1576.203,2.3347.275,3.5087.215c1.1969-.043,2.3953-.002,3.5862.123c1.2928.025,2.5562.387,3.6637,1.05.9949.859,1.6639,2.032,1.8958,3.323s.0127,2.623-.6211,3.774c-.7902,1.02-1.8416,1.811-3.0439,2.288-1.1492.48-2.3468.836-3.5722,1.061l-7.0598,1.099c-1.1409.128-2.2623.393-3.3397.788-1.0155.545-1.9343,1.251-2.7198,2.092-1.0146.594-1.782,1.53-2.1632,2.639-.085.536-.0392,1.084.1338,1.599.192.506.5241.949.9581,1.275c1.0034.517,2.1005.828,3.2268.917c1.2653.022,2.4812.491,3.4311,1.323l.0775.926c.1677.666.0744,1.37-.2609,1.971-.7256,1.054-1.8132,1.808-3.0579,2.12-2.3181.787-4.6714,1.153-6.9049,1.933-1.1126.322-2.1193.933-2.917,1.77-.3978.398-.6272.933-.6413,1.494-.1246.534-.0779,1.093.1338,1.599.0844,1.01,1.7331,1.38,2.7899,1.8c1.1785.258,2.3246.645,3.417,1.155c1.1288.507,2.0452,1.389,2.5926,2.495.4798,1.144.5857,2.41.3027,3.619-.7001,2.335-2.2707,4.316-4.3899,5.536-1.9673,1.414-4.1452,2.511-6.454,3.252-1.1413.389-2.3124.685-3.5018.886-1.1753.181-2.3618.281-3.551.297-2.3762.072-4.7469.27-7.102.594-2.3329.315-4.5824,1.079-6.623,2.249-.9867.575-1.7996,1.404-2.3535,2.4-.5455.934-.7262,2.035-.5075,3.093.1992.509.4997.973.8835,1.363s.8429.699,1.3498.908c1.1066.485,2.1778,1.047,3.2056,1.681.5543.349,1.0063.837,1.3104,1.416.2651.61.322,1.29.1619,1.935-.1089,1.259-.6033,2.454-1.4165,3.424-.7871.976-1.8574,1.687-3.0649,2.036-1.1856.308-2.4154.411-3.6356.304-4.7965-.122-9.5804-.543-14.3237-1.26-2.3468-.312-4.7211-.37-7.0808-.17-1.1781.152-2.3272.477-3.4102.963-1.0808.475-2.0167,1.226-2.7127,2.176l1.1554,1.598Z" fill="#5c8724"/></g></g></g></svg>