<svg width="26" height="73" viewBox="0 0 26 73" fill="none" xmlns="http://www.w3.org/2000/svg">
<rect x="16" y="0.262695" width="2" height="72" rx="1" fill="#89B823"/>
<path d="M16.2959 53.9422C18.534 59.2826 19.2272 65.1364 18.2969 70.8387C17.9757 67.5201 17.4493 64.2237 16.7207 60.9683C15.4256 58.4325 13.4273 56.3192 10.9642 54.8806C8.52189 53.073 6.66339 51.3288 8.06877 47.9859C9.06816 45.7993 13.0664 44.2922 11.3804 41.3662C9.69435 38.4403 6.08018 40.001 5.54365 36.2585C5.00713 32.5159 8.79289 32.4569 6.98704 29.4356C6.0657 27.8758 2.75672 26.4447 3.27063 24.1583C3.67373 22.4719 5.12711 22.6888 6.49767 22.4613C8.2855 22.3662 10.0003 21.7318 11.4148 20.6421L12.6589 21.9427C13.1782 22.5669 13.5714 23.2852 13.8166 24.0579C13.9899 24.5855 14.0573 25.1416 14.015 25.6944C13.9726 26.2472 13.8213 26.7859 13.5698 27.2797C12.5243 29.5671 11.7864 30.7345 13.3866 33.1332C13.5898 33.414 13.8342 33.6628 14.1115 33.8712C19.3683 45.7899 13.3945 46.4348 16.2959 53.9422Z" fill="#4D7212"/>
<path d="M1.08755 9.35758C1.71443 13.4967 3.75108 17.2898 6.85571 20.1004C10.9623 24.0794 15.9015 27.5558 16.7234 31.8568C17.5452 36.1578 16.489 38.6739 17.3539 43.1586C17.5992 42.3859 17.9924 41.6676 18.5117 41.0434L19.7558 39.7428C21.5418 38.4537 23.0994 36.8758 24.3635 35.0748C25.4261 33.2878 26.8477 29.8727 23.5843 29.6156C21.3288 29.5079 19.719 30.8129 19.7824 27.2867C19.8338 24.5385 20.8006 21.2906 18.188 19.1501C15.5754 17.0096 14.3232 21.6892 12.4633 18.9607C11.4856 17.5369 11.8564 14.2361 9.70851 14.3639C8.35956 14.4518 8.3877 15.9435 7.02918 14.9378C6.25158 14.3986 6.75808 12.8251 5.84529 12.3476C4.04745 11.3494 2.50233 9.95577 1.32688 8.2722L1.08755 9.35758Z" fill="#689929"/>
<path d="M0.889273 15.2646C1.115 16.117 1.48411 16.9246 1.98091 17.653C3.8809 20.6479 6.01935 19.8738 5.98063 23.6328C5.94191 27.3919 7.05718 26.8821 10.1305 28.2427C13.2037 29.6034 11.3976 31.7302 11.9639 34.3994C12.5302 37.0685 14.4815 37.3153 13.567 40.9459C12.6525 44.5766 11.7249 45.8545 13.4282 48.7767C14.7349 51.1887 14.2284 52.7622 10.2067 54.6004C12.1668 53.7045 15.4335 54.3261 17.2306 52.8947C17.5079 52.6862 17.7523 52.4374 17.9556 52.1567C19.5557 49.758 18.8855 48.5596 17.7724 46.3031C17.5208 45.8093 17.3695 45.2706 17.3272 44.7178C17.2848 44.165 17.3522 43.6089 17.5255 43.0813C16.6606 38.5966 17.7168 36.0806 16.8949 31.7796C16.0731 27.4786 11.1339 24.0021 7.02729 20.0231C3.92266 17.2125 1.88601 13.4194 1.25913 9.28029C0.676573 11.1747 0.529137 13.1742 0.827774 15.1301L0.889273 15.2646Z" fill="#5E8A25"/>
</svg>
