<svg width="354" height="454" viewBox="0 0 354 454" fill="none" xmlns="http://www.w3.org/2000/svg">
<path d="M128.794 453.426H218.738L222.471 451.007L253.443 346.199L172.556 392.864L92.2217 346.199L125.13 451.076L128.794 453.426Z" fill="#96AEE5"/>
<path d="M91.5996 343.986L172.556 391.067L254.065 343.986L173.109 296.975L91.5996 343.986Z" fill="#FDFCFF"/>
<path d="M111.856 343.986L172.626 379.314L233.809 343.986L173.04 308.659L111.856 343.986Z" fill="url(#paint0_linear_736_10142)"/>
<path d="M133.495 356.5L172.694 379.314L212.239 356.5L172.971 333.685L133.495 356.5Z" fill="url(#paint1_linear_736_10142)"/>
<path d="M216.94 453.426L222.885 449.693L254.065 343.986L172.556 391.067L173.247 453.426H216.94Z" fill="#E4E7FB"/>
<path d="M130.591 453.426H173.247L172.556 391.067L91.5996 343.986L124.715 449.693L130.591 453.426Z" fill="#EFF1FE"/>
<path d="M169.237 308.866C176.566 316.886 213.552 355.532 266.371 352.905C308.128 350.831 355.485 323.177 353.964 298.081C352.72 277.341 318.291 264.413 314.005 262.823C249.088 239.179 178.363 300.708 169.237 308.866Z" fill="url(#paint2_linear_736_10142)"/>
<path d="M173.662 318.476C185 314.051 196.614 311.147 208.367 308.866C220.12 306.585 231.942 305.202 243.764 304.165C255.586 303.128 267.408 302.575 279.299 302.367C291.121 302.16 302.943 302.367 314.765 302.644C302.943 302.92 291.121 303.197 279.299 304.027C267.477 304.787 255.724 305.893 244.04 307.414C232.357 309.004 220.742 310.871 209.335 313.636C197.928 316.402 186.728 319.789 176.22 324.49H176.15C174.491 325.251 172.555 324.49 171.864 322.831C171.104 321.172 171.864 319.236 173.523 318.545C173.592 318.545 173.662 318.545 173.662 318.476Z" fill="url(#paint3_linear_736_10142)"/>
<path d="M152.852 175.99C142.482 172.533 91.6682 154.42 72.4488 104.643C57.2393 65.3749 63.1848 10.4131 86.8979 1.56387C106.532 -5.76437 132.527 20.5758 135.776 23.8251C184.17 73.8784 156.585 164.306 152.852 175.99Z" fill="url(#paint4_linear_736_10142)"/>
<path d="M171.518 227.702C169.237 214.843 159.143 151.171 200.347 102.431C232.84 63.9921 293.955 38.8272 316.839 58.5996C335.782 74.9845 323.061 117.433 321.402 122.618C296.582 202.123 185.898 224.937 171.518 227.702Z" fill="url(#paint5_linear_736_10142)"/>
<path d="M172.832 336.036C160.526 338.663 99.8263 350.416 51.7779 312.461C13.8923 282.526 -12.3096 224.73 5.94183 202.123C21.0131 183.387 62.1481 194.241 67.1949 195.624C144.211 216.848 169.721 322.278 172.832 336.036Z" fill="url(#paint6_linear_736_10142)"/>
<path d="M170.966 253.282C174.976 247.06 195.163 216.917 230.767 212.493C258.905 209.036 293.748 221.964 295.615 238.902C297.205 252.936 275.704 265.588 273.008 267.109C232.357 290.546 177.948 257.638 170.966 253.282Z" fill="url(#paint7_linear_736_10142)"/>
<path d="M166.471 362.238C166.126 347.512 165.987 332.787 165.503 318.061L164.328 296.007L163.706 284.946C163.429 281.282 163.084 277.617 162.738 273.953L160.802 251.969C160.111 244.64 159.074 237.312 158.175 230.053L156.793 219.061C156.309 215.397 155.686 211.802 155.064 208.137C153.889 200.878 152.783 193.55 151.469 186.291C146.146 157.324 139.094 128.564 129.968 100.564C128.931 97.0385 127.618 93.5818 126.373 90.125L122.64 79.6858C119.875 72.8415 117.317 65.928 114.344 59.1528C111.51 52.3085 108.398 45.6025 105.287 38.8965C102.176 32.1904 98.8579 25.5535 96.0234 18.7092C99.0654 25.4153 102.591 31.983 105.91 38.5508C109.228 45.1877 112.547 51.7554 115.658 58.5306C118.907 65.2366 121.672 72.081 124.645 78.8561L128.724 89.2263C130.038 92.683 131.489 96.1397 132.665 99.5965C142.758 127.458 150.778 156.148 157.069 185.185C158.659 192.444 159.904 199.772 161.355 207.031C162.047 210.695 162.807 214.29 163.429 217.955L165.158 228.947C166.264 236.275 167.578 243.603 168.476 251.001L171.173 273.124C171.587 276.788 172.071 280.521 172.486 284.185L173.454 295.316L175.321 317.508C176.358 332.303 176.911 347.167 177.74 362.031C177.948 365.142 175.528 367.838 172.417 367.976C169.306 368.183 166.61 365.764 166.471 362.653C166.471 362.584 166.471 362.584 166.471 362.515V362.238Z" fill="url(#paint8_linear_736_10142)"/>
<path d="M161.218 240.077C167.647 227.702 175.321 216.157 183.341 205.026C191.429 193.827 200.14 183.249 209.059 172.879C218.046 162.509 227.31 152.415 236.851 142.598C246.391 132.781 256.139 123.171 266.233 113.976C256.554 123.655 247.29 133.68 238.233 143.911C229.177 154.143 220.397 164.583 211.962 175.299C203.597 186.014 195.37 196.938 187.973 208.276C180.506 219.614 173.593 231.297 167.993 243.396V243.465C167.094 245.332 164.882 246.161 162.946 245.332C161.079 244.433 160.25 242.221 161.079 240.285C161.149 240.147 161.149 240.147 161.218 240.077Z" fill="url(#paint9_linear_736_10142)"/>
<path d="M165.297 335.898C146.7 318.545 127.549 301.607 108.192 284.946C98.513 276.65 88.696 268.423 78.8789 260.334C73.9703 256.255 68.9927 252.314 63.9459 248.304C61.3879 246.369 58.8991 244.364 56.3411 242.497C55.0275 241.529 53.7831 240.561 52.4696 239.732L50.4647 238.349L48.3906 237.174L50.5338 238.211L52.6078 239.455C53.9905 240.285 55.3041 241.184 56.6176 242.082C59.3139 243.811 61.8718 245.677 64.4989 247.544C69.684 251.277 74.8691 255.01 80.0542 258.813C90.3552 266.418 100.518 274.161 110.612 281.973C130.799 297.666 150.779 313.636 170.344 330.229C171.934 331.542 172.141 333.962 170.758 335.552C169.445 337.142 167.025 337.35 165.435 335.967C165.435 336.036 165.366 335.967 165.297 335.898Z" fill="url(#paint10_linear_736_10142)"/>
<path d="M166.541 249.618L174.629 245.816C177.395 244.64 180.091 243.396 182.856 242.359C188.387 240.077 193.987 238.211 199.725 236.482C205.463 234.823 211.271 233.51 217.078 232.68C222.954 231.781 228.9 231.643 234.776 231.436C228.9 232.058 223.093 232.611 217.354 233.994C211.616 235.307 206.085 237.036 200.555 239.04C195.093 241.114 189.77 243.465 184.516 246.092C181.888 247.337 179.33 248.788 176.772 250.102L169.168 254.457L169.099 254.527C167.785 255.287 166.126 254.803 165.365 253.49C164.605 252.176 165.089 250.517 166.402 249.756C166.402 249.687 166.471 249.618 166.541 249.618Z" fill="url(#paint11_linear_736_10142)"/>
<path d="M152.715 208.206C150.641 201.155 139.856 166.449 106.948 152.138C80.9531 140.87 43.897 143.358 37.2601 159.052C31.7985 172.049 48.8056 190.301 50.9488 192.513C83.2345 226.527 144.764 210.419 152.715 208.206Z" fill="url(#paint12_linear_736_10142)"/>
<path d="M154.166 209.866L148.082 203.575C146.008 201.57 143.934 199.426 141.791 197.491C137.504 193.481 133.011 189.748 128.448 186.222C123.816 182.696 118.907 179.447 113.791 176.612C108.745 173.708 103.283 171.496 97.8213 169.215C103.421 171.012 109.09 172.81 114.414 175.368C119.806 177.856 124.991 180.76 129.969 183.94C134.946 187.19 139.786 190.646 144.418 194.31C146.768 196.108 148.981 198.113 151.331 199.98L157.968 205.925C159.074 206.962 159.213 208.69 158.176 209.797C157.139 210.903 155.41 211.041 154.304 210.004C154.235 209.935 154.235 209.935 154.166 209.866V209.866Z" fill="url(#paint13_linear_736_10142)"/>
<defs>
<linearGradient id="paint0_linear_736_10142" x1="233.819" y1="343.998" x2="111.87" y2="343.998" gradientUnits="userSpaceOnUse">
<stop stop-color="#B7C0EB"/>
<stop offset="0.2785" stop-color="#E4E7FB"/>
<stop offset="1" stop-color="#E4E7FB"/>
</linearGradient>
<linearGradient id="paint1_linear_736_10142" x1="212.219" y1="356.507" x2="133.466" y2="356.507" gradientUnits="userSpaceOnUse">
<stop stop-color="#4CD9ED"/>
<stop offset="0.0383487" stop-color="#4BD3ED"/>
<stop offset="0.32" stop-color="#48AFED"/>
<stop offset="0.5827" stop-color="#4595EC"/>
<stop offset="0.8173" stop-color="#4485EC"/>
<stop offset="1" stop-color="#437FEC"/>
</linearGradient>
<linearGradient id="paint2_linear_736_10142" x1="225.928" y1="354.969" x2="305.634" y2="250.457" gradientUnits="userSpaceOnUse">
<stop stop-color="#5FEFC0"/>
<stop offset="0.1335" stop-color="#5CECC6"/>
<stop offset="1" stop-color="#4CD9ED"/>
</linearGradient>
<linearGradient id="paint3_linear_736_10142" x1="253.041" y1="334.234" x2="233.61" y2="291.349" gradientUnits="userSpaceOnUse">
<stop stop-color="#5FEFC0"/>
<stop offset="0.1335" stop-color="#5CECC6"/>
<stop offset="1" stop-color="#4CD9ED"/>
</linearGradient>
<linearGradient id="paint4_linear_736_10142" x1="172.893" y1="161.45" x2="66.8712" y2="15.1797" gradientUnits="userSpaceOnUse">
<stop stop-color="#5FEFC0"/>
<stop offset="0.4427" stop-color="#ACF7DE"/>
<stop offset="0.8204" stop-color="#E8FDF6"/>
<stop offset="1" stop-color="#E6EEFF"/>
</linearGradient>
<linearGradient id="paint5_linear_736_10142" x1="168.74" y1="139.696" x2="327.062" y2="139.696" gradientUnits="userSpaceOnUse">
<stop stop-color="#5FEFC0"/>
<stop offset="0.1335" stop-color="#5CECC6"/>
<stop offset="1" stop-color="#4CD9ED"/>
</linearGradient>
<linearGradient id="paint6_linear_736_10142" x1="88.5515" y1="341.531" x2="83.3779" y2="189.647" gradientUnits="userSpaceOnUse">
<stop stop-color="#5FEFC0"/>
<stop offset="0.1335" stop-color="#5CECC6"/>
<stop offset="1" stop-color="#4CD9ED"/>
</linearGradient>
<linearGradient id="paint7_linear_736_10142" x1="211.476" y1="281.135" x2="261.572" y2="208.242" gradientUnits="userSpaceOnUse">
<stop stop-color="#5FEFC0"/>
<stop offset="0.1554" stop-color="#7AF2CA"/>
<stop offset="0.7379" stop-color="#D9FBF0"/>
<stop offset="1" stop-color="white"/>
</linearGradient>
<linearGradient id="paint8_linear_736_10142" x1="136.985" y1="13.0554" x2="136.985" y2="367.825" gradientUnits="userSpaceOnUse">
<stop stop-color="#5FEFC0"/>
<stop offset="0.4396" stop-color="#5FEDC1"/>
<stop offset="0.598" stop-color="#5DE6C3"/>
<stop offset="0.7108" stop-color="#5ADBC8"/>
<stop offset="0.8021" stop-color="#56CACF"/>
<stop offset="0.8803" stop-color="#50B4D7"/>
<stop offset="0.9483" stop-color="#4A99E2"/>
<stop offset="1" stop-color="#437FEC"/>
</linearGradient>
<linearGradient id="paint9_linear_736_10142" x1="235.665" y1="189.276" x2="193.495" y2="169.867" gradientUnits="userSpaceOnUse">
<stop stop-color="#5FEFC0"/>
<stop offset="0.1335" stop-color="#5CECC6"/>
<stop offset="1" stop-color="#4CD9ED"/>
</linearGradient>
<linearGradient id="paint10_linear_736_10142" x1="103.143" y1="293.332" x2="115.911" y2="279.611" gradientUnits="userSpaceOnUse">
<stop stop-color="#5FEFC0"/>
<stop offset="0.1335" stop-color="#5CECC6"/>
<stop offset="1" stop-color="#4CD9ED"/>
</linearGradient>
<linearGradient id="paint11_linear_736_10142" x1="205.104" y1="251.394" x2="194.917" y2="233.47" gradientUnits="userSpaceOnUse">
<stop stop-color="#5FEFC0"/>
<stop offset="0.1335" stop-color="#5CECC6"/>
<stop offset="1" stop-color="#4CD9ED"/>
</linearGradient>
<linearGradient id="paint12_linear_736_10142" x1="105.959" y1="223.434" x2="78.6116" y2="139.317" gradientUnits="userSpaceOnUse">
<stop stop-color="#48FAC9"/>
<stop offset="0.7379" stop-color="#BFFFEA"/>
<stop offset="1" stop-color="white"/>
</linearGradient>
<linearGradient id="paint13_linear_736_10142" x1="120.51" y1="196.723" x2="135.368" y2="182.428" gradientUnits="userSpaceOnUse">
<stop stop-color="#5FEFC0"/>
<stop offset="0.1335" stop-color="#5CECC6"/>
<stop offset="1" stop-color="#4CD9ED"/>
</linearGradient>
</defs>
</svg>
