<svg width="774" height="774" viewBox="0 0 774 774" fill="none" xmlns="http://www.w3.org/2000/svg">
<path d="M252.805 645.331C253.553 644.583 254.088 643.835 254.836 643.087C255.157 642.766 255.371 642.338 255.798 641.911C255.905 641.804 256.119 641.59 256.226 641.483C256.44 641.269 256.76 640.949 256.867 640.628C257.509 639.773 258.257 639.025 258.791 638.276C259.433 637.421 260.074 636.566 260.715 635.711C260.822 635.604 260.822 635.604 260.929 635.497C261.036 635.39 261.036 635.39 261.143 635.283C261.678 634.535 262.212 633.787 262.746 633.038C263.388 632.183 264.029 631.114 264.564 630.152C264.777 629.725 264.991 629.297 265.419 628.87C265.633 628.656 265.633 628.442 265.847 628.228C266.06 627.801 266.274 627.587 266.488 627.159C267.129 626.09 267.664 625.128 268.305 624.059C268.733 623.204 269.267 622.242 269.695 621.387C269.802 621.28 269.802 621.28 269.802 621.066C269.909 620.959 269.909 620.959 270.015 620.852C270.55 619.89 271.084 618.714 271.619 617.752C272.153 616.79 272.688 615.614 273.115 614.545C273.222 614.225 273.436 614.011 273.436 613.797C273.543 613.69 273.65 613.37 273.757 613.263C273.971 612.621 274.291 612.087 274.505 611.445C274.933 610.376 275.36 609.307 275.788 608.239C276.108 607.49 276.429 606.528 276.75 605.78C276.857 605.673 276.857 605.459 276.857 605.459C276.964 605.352 276.964 605.139 276.964 605.139C277.391 604.07 277.819 603.001 278.139 601.825C278.567 600.542 279.102 599.366 279.422 598.19C279.422 597.977 279.529 597.87 279.529 597.656C279.636 597.335 279.636 597.121 279.85 596.908C280.17 595.945 280.598 594.876 280.812 593.808C281.133 592.632 281.453 591.456 281.774 590.494C281.988 589.639 282.202 588.997 282.415 588.142C282.522 587.821 282.629 587.501 282.736 587.18C282.95 586.111 283.271 585.149 283.377 584.187C283.805 582.477 284.233 580.766 284.553 579.163C284.66 578.842 284.767 578.521 284.767 578.094C285.088 576.49 285.302 574.78 285.622 573.177C285.729 572.642 285.836 571.894 285.943 571.359C286.05 571.253 285.943 571.146 286.05 571.039C286.37 569.435 286.477 567.832 286.691 566.335C286.798 565.373 286.905 564.411 287.012 563.449C287.012 563.235 287.012 563.021 287.119 562.701C287.119 562.487 287.119 562.273 287.226 562.166C287.333 560.777 287.439 559.601 287.546 558.211C287.546 556.928 287.76 555.646 287.76 554.363C287.76 553.08 287.867 551.904 287.867 550.622C287.867 549.339 287.867 548.056 287.867 546.773C287.867 546.56 287.867 546.346 287.867 546.132C287.867 545.918 287.867 545.704 287.867 545.491C287.867 544.635 287.867 543.78 287.76 542.818C287.76 541.535 287.546 540.253 287.439 539.077C287.439 538.649 287.333 538.329 287.333 537.901C287.333 537.687 287.226 537.366 287.226 537.153C287.226 536.511 287.119 535.977 287.119 535.336C287.012 534.16 286.798 533.091 286.691 531.915C286.584 531.166 286.477 530.632 286.371 529.884C286.371 529.67 286.37 529.456 286.264 529.349C286.264 529.135 286.157 528.815 286.157 528.601C285.943 527.532 285.729 526.463 285.622 525.501C285.408 524.432 285.088 523.47 284.981 522.508C284.981 522.294 284.874 522.187 284.874 521.973C284.66 521.118 284.446 520.477 284.233 519.622C283.912 518.66 283.698 517.805 283.377 516.842C283.164 516.201 282.95 515.56 282.736 514.918C282.629 514.811 282.629 514.598 282.629 514.598C282.522 514.491 282.522 514.277 282.415 514.17C282.095 513.208 281.774 512.46 281.346 511.605C280.919 510.749 280.598 510.001 280.171 509.146C280.064 509.039 279.957 508.718 279.85 508.611C279.743 508.505 279.743 508.291 279.636 508.184C279.422 507.756 279.208 507.329 278.888 506.794C278.46 505.939 277.926 505.191 277.498 504.336C277.177 503.801 276.964 503.373 276.536 502.946C276.429 502.839 276.322 502.732 276.322 502.518C276.215 502.411 276.108 502.091 276.002 501.984C275.467 501.236 274.826 500.38 274.291 499.632C273.864 498.991 273.436 498.563 272.902 498.029C272.795 497.922 272.688 497.815 272.581 497.708C272.474 497.601 272.474 497.601 272.367 497.494C271.619 496.746 270.977 495.891 270.229 495.143C269.802 494.715 269.481 494.394 269.16 494.074C268.946 493.86 268.733 493.646 268.412 493.325C268.198 493.112 267.984 492.898 267.771 492.684C266.702 491.829 265.74 491.081 264.671 490.439L264.564 490.332C264.136 490.118 263.708 489.905 263.174 489.584C262.212 489.049 261.357 488.408 260.395 488.087C260.288 487.98 260.181 488.087 260.074 487.981C258.364 487.125 256.653 486.484 254.729 486.056L204.702 472.801C206.519 473.336 208.23 473.977 210.047 474.725C211.116 475.153 212.185 475.794 213.147 476.329C213.574 476.543 214.002 476.756 214.536 477.077C215.819 477.932 217.209 478.894 218.385 480.07C218.598 480.284 218.812 480.498 219.133 480.818C220.309 481.994 221.485 483.17 222.66 484.346C222.767 484.453 222.874 484.56 222.981 484.667C224.157 486.056 225.226 487.553 226.402 489.156C226.509 489.263 226.616 489.37 226.616 489.584C227.578 491.187 228.647 492.898 229.609 494.715C229.716 494.822 229.716 495.036 229.822 495.142C230.678 497.067 231.64 499.098 232.495 501.236C232.602 501.343 232.602 501.556 232.602 501.556C233.457 503.694 234.098 506.046 234.847 508.505C235.488 510.856 236.022 513.315 236.45 515.88C236.45 516.094 236.45 516.308 236.557 516.415C236.985 518.767 237.305 521.225 237.519 523.577C237.519 523.791 237.626 524.111 237.626 524.325C237.947 526.784 238.053 529.242 238.053 531.808C238.053 532.022 238.053 532.235 238.053 532.449C238.16 535.122 238.16 537.901 238.054 540.573C237.947 543.246 237.84 546.132 237.412 548.911C237.412 549.125 237.412 549.339 237.305 549.659C236.984 552.332 236.664 555.004 236.236 557.57C236.129 558.104 236.022 558.853 235.916 559.387C235.595 561.418 235.274 563.449 234.847 565.373C234.419 567.084 234.098 568.687 233.671 570.397C233.35 571.787 233.136 573.07 232.709 574.352C232.602 575.101 232.281 575.849 232.067 576.704C231.426 578.842 230.785 580.98 230.143 583.118C230.036 583.439 230.036 583.652 229.822 583.866C228.86 586.539 227.898 589.211 227.043 591.777C226.936 591.883 226.936 592.097 226.936 592.097C225.867 594.663 224.905 597.121 223.729 599.58C223.622 599.687 223.516 600.008 223.409 600.114C222.233 602.573 221.057 605.032 219.667 607.49C219.56 607.597 219.56 607.597 219.56 607.811C218.278 610.163 216.995 612.514 215.712 614.652C215.498 614.866 215.498 615.08 215.285 615.294C213.895 617.538 212.505 619.57 211.009 621.707C210.902 621.814 210.902 621.814 210.795 621.921C209.298 624.059 207.695 626.09 206.092 627.907C205.985 628.014 205.771 628.228 205.664 628.335C203.954 630.259 202.35 632.076 200.64 633.787C198.93 635.497 197.219 636.994 195.509 638.49C195.402 638.597 195.188 638.811 195.081 638.918C193.478 640.307 191.874 641.483 190.271 642.445C190.057 642.659 189.843 642.659 189.63 642.873C188.026 643.835 186.423 644.797 184.926 645.652C184.605 645.759 184.392 645.973 184.071 646.08C182.361 646.935 180.757 647.683 179.154 648.218C178.833 648.325 178.619 648.325 178.512 648.431C177.016 648.859 175.519 649.287 174.023 649.714C173.595 649.714 173.168 649.928 172.74 649.928C171.457 650.142 170.281 650.249 169.106 650.356C168.571 650.463 168.037 650.356 167.502 650.462C166.433 650.462 165.15 650.462 164.188 650.356C163.761 650.356 163.226 650.249 162.799 650.249C161.302 650.035 159.806 649.821 158.202 649.5L207.909 663.076C209.405 663.504 210.902 663.718 212.505 663.824C212.933 663.824 213.467 663.931 213.895 663.931C215.071 664.038 216.14 664.038 217.209 664.038C217.743 663.931 218.278 664.038 218.812 663.931C219.988 663.824 221.164 663.718 222.447 663.504C222.874 663.504 223.195 663.397 223.729 663.29C223.943 663.29 223.943 663.29 224.157 663.29C225.547 662.969 226.829 662.542 228.112 662.114C228.433 662.007 228.647 662.007 228.967 661.9C230.25 661.473 231.426 660.938 232.816 660.404C233.243 660.19 233.564 660.083 233.991 659.869C234.312 659.762 234.526 659.549 234.847 659.442C235.274 659.228 235.595 659.121 236.022 658.907C236.984 658.373 237.947 657.838 239.016 657.197C239.229 656.983 239.55 656.876 239.764 656.662C239.978 656.449 240.191 656.449 240.405 656.235C240.94 655.914 241.26 655.593 241.795 655.273C242.543 654.738 243.398 654.097 244.253 653.456C244.574 653.135 245.002 652.921 245.322 652.6C245.429 652.493 245.643 652.28 245.75 652.173C245.964 651.959 246.391 651.745 246.605 651.531C247.353 650.997 248.102 650.249 248.743 649.607C249.491 648.859 250.133 648.218 250.881 647.469C251.522 646.828 252.271 646.08 252.805 645.331Z" fill="url(#paint0_linear_736_10098)"/>
<path d="M234.633 508.505C245.216 548.163 229.716 605.566 200.747 634.321C171.885 662.97 138.641 653.67 128.165 614.118C117.582 574.46 133.082 517.057 162.051 488.302C190.806 459.546 224.05 468.846 234.633 508.505Z" fill="url(#paint1_linear_736_10098)"/>
<path d="M356.922 515.346C357.456 513.529 358.098 511.605 358.846 509.788L358.953 509.681C359.701 507.864 360.45 505.832 361.412 504.015C361.518 503.908 361.519 503.695 361.625 503.588C362.481 501.664 363.336 499.953 364.298 498.136C364.405 498.029 364.405 498.029 364.405 497.815C365.367 495.998 366.436 494.074 367.505 492.364C367.612 492.257 367.612 492.257 367.718 492.15C368.787 490.439 369.856 488.729 370.925 487.233C371.032 487.126 371.139 487.019 371.139 486.805C372.315 485.202 373.491 483.598 374.667 482.208L374.774 482.102C376.056 480.605 377.232 479.215 378.515 477.933C380.118 476.329 381.722 474.94 383.325 473.55C383.432 473.443 383.539 473.336 383.539 473.336C385.142 472.16 386.639 471.091 388.242 470.129C388.349 470.022 388.456 469.915 388.67 469.915C390.167 469.06 391.556 468.312 393.053 467.671C393.373 467.564 393.48 467.457 393.801 467.35C394.87 466.922 396.046 466.602 397.115 466.174C397.649 466.067 398.077 465.853 398.611 465.746C399.467 465.533 400.429 465.426 401.391 465.319C402.139 465.212 402.673 465.105 403.422 464.998C404.384 464.891 405.239 464.891 406.308 464.891C406.949 464.891 407.484 464.784 408.125 464.784C409.194 464.784 410.263 464.998 411.225 465.105C411.76 465.212 412.187 465.212 412.722 465.319C414.218 465.533 415.822 465.853 417.318 466.281L367.291 453.026C365.794 452.598 364.191 452.278 362.694 452.064C362.16 451.957 361.732 451.957 361.198 451.85C360.236 451.743 359.06 451.636 358.098 451.529C357.456 451.529 356.815 451.529 356.281 451.636C355.425 451.636 354.356 451.636 353.394 451.743C352.753 451.743 352.112 451.957 351.47 451.957C350.722 452.064 350.081 452.064 349.439 452.278C349.225 452.278 348.905 452.385 348.798 452.491C348.263 452.598 347.836 452.812 347.301 452.919C346.767 453.026 346.125 453.24 345.591 453.347C344.95 453.56 344.522 453.774 343.881 453.988C343.56 454.095 343.453 454.202 343.132 454.309C343.025 454.415 342.812 454.415 342.705 454.522C341.956 454.843 341.101 455.271 340.246 455.698C339.819 455.912 339.284 456.233 338.75 456.553C338.643 456.66 338.536 456.767 338.322 456.767C338.215 456.874 338.108 456.981 337.894 456.981C337.253 457.409 336.505 457.943 335.863 458.371C335.222 458.798 334.581 459.226 334.046 459.76C333.939 459.867 333.832 459.974 333.726 460.081C333.619 460.188 333.512 460.295 333.512 460.295C333.191 460.615 332.657 460.936 332.336 461.257C331.801 461.791 331.16 462.219 330.519 462.86C329.984 463.395 329.343 464.036 328.808 464.571C328.381 464.998 327.953 465.426 327.525 465.853C327.098 466.281 326.564 466.815 326.243 467.35C325.815 467.778 325.495 468.312 325.067 468.74L324.96 468.846L324.853 468.953C324.319 469.488 323.891 470.129 323.463 470.771C323.036 471.412 322.501 471.947 321.967 472.695C321.753 472.909 321.646 473.229 321.326 473.55C321.219 473.657 321.112 473.764 321.112 473.977C320.898 474.191 320.791 474.512 320.47 474.833C319.936 475.581 319.401 476.329 319.081 477.077C318.653 477.719 318.226 478.36 317.905 478.895C317.798 479.002 317.798 479.002 317.691 479.109C317.584 479.215 317.584 479.215 317.477 479.322C317.05 480.177 316.515 480.926 316.088 481.781C315.66 482.636 315.233 483.491 314.698 484.24C314.591 484.346 314.591 484.346 314.591 484.346C314.484 484.453 314.484 484.453 314.484 484.667C314.164 485.415 313.736 486.057 313.415 486.805C312.988 487.66 312.56 488.515 312.239 489.264C312.132 489.584 312.026 489.905 311.812 490.119C311.705 490.226 311.705 490.439 311.598 490.546C311.491 490.867 311.277 491.295 311.17 491.615C310.85 492.364 310.529 493.112 310.208 493.86C309.888 494.608 309.567 495.357 309.353 495.998L309.246 496.105L309.139 496.212C308.926 496.853 308.712 497.495 308.498 498.136C308.177 498.884 307.964 499.526 307.75 500.381C307.643 500.915 307.429 501.343 307.322 501.877C307.215 501.984 307.215 502.198 307.108 502.305C307.108 502.519 307.001 502.626 307.001 502.839C306.681 504.015 306.36 504.977 306.146 506.046C305.933 506.688 305.826 507.222 305.719 507.757L355.746 521.012C356.174 519.301 356.708 517.27 357.243 515.453C356.815 515.667 356.815 515.453 356.922 515.346Z" fill="url(#paint2_linear_736_10098)"/>
<path d="M444.898 352.757L494.926 366.012C492.788 365.371 490.543 364.622 488.405 363.767C487.764 363.553 487.122 363.126 486.481 362.912C484.664 362.164 482.846 361.202 481.029 360.24C480.708 360.133 480.495 359.919 480.174 359.812C477.929 358.636 475.791 357.354 473.546 355.964C473.012 355.643 472.371 355.216 471.836 354.895C469.698 353.612 467.56 352.329 465.316 350.94C463.712 349.978 462.216 349.123 460.612 348.16C460.078 347.84 459.543 347.519 459.116 347.305C457.94 346.557 456.657 345.916 455.481 345.167C454.84 344.74 454.198 344.526 453.557 344.098C452.488 343.457 451.312 342.923 450.243 342.281C449.602 341.854 448.854 341.533 448.319 341.212C447.143 340.678 446.074 340.036 444.791 339.395C444.364 339.181 443.829 338.861 443.402 338.647C443.295 338.54 443.081 338.54 443.081 338.54C440.729 337.471 438.485 336.509 436.24 335.547C435.812 335.333 435.278 335.226 434.743 334.905C432.285 333.943 429.826 333.195 427.367 332.447L377.34 319.192C379.906 319.833 382.257 320.688 384.716 321.65C385.143 321.864 385.678 321.971 386.212 322.292C388.564 323.147 390.916 324.216 393.054 325.285C393.588 325.605 394.23 325.819 394.764 326.14C395.94 326.674 397.009 327.316 398.292 327.957C398.933 328.385 399.681 328.705 400.216 329.026C401.285 329.667 402.461 330.202 403.53 330.843C404.171 331.271 404.812 331.485 405.454 331.912C406.63 332.661 407.912 333.302 409.088 334.05C409.623 334.371 410.157 334.692 410.692 335.012C412.295 335.974 413.792 336.83 415.395 337.792C417.64 339.181 419.778 340.464 421.916 341.747C422.45 342.067 423.092 342.495 423.626 342.816C425.871 344.205 428.116 345.381 430.254 346.664C430.574 346.771 430.788 346.985 431.109 347.091C432.285 347.626 433.354 348.267 434.529 348.802C435.278 349.123 435.919 349.336 436.56 349.764C437.202 349.978 437.843 350.405 438.485 350.619C440.516 351.367 442.653 352.222 444.898 352.757Z" fill="url(#paint3_linear_736_10098)"/>
<path d="M581.19 467.029C581.511 466.708 581.725 466.495 582.046 466.174C582.58 465.639 583.115 465.105 583.435 464.571C584.077 463.929 584.718 463.288 585.252 462.539C585.894 461.898 586.535 461.043 587.177 460.401C587.604 459.974 588.032 459.333 588.459 458.905C588.673 458.691 588.994 458.371 589.101 458.05C590.384 456.553 591.559 454.95 592.842 453.453C592.949 453.346 592.949 453.346 593.056 453.239C593.27 453.026 593.377 452.705 593.59 452.491C594.552 451.315 595.408 450.033 596.477 448.75C596.797 448.215 597.225 447.788 597.546 447.253C597.973 446.612 598.294 446.077 598.828 445.543C599.149 445.008 599.683 444.474 600.004 443.94C600.752 442.764 601.608 441.481 602.463 440.198C602.677 439.771 602.89 439.557 603.104 439.129C603.211 439.022 603.318 438.915 603.318 438.702C604.387 436.991 605.456 435.281 606.525 433.571C606.632 433.25 606.952 432.929 607.059 432.609C607.38 432.074 607.701 431.54 608.128 430.898C608.556 430.043 609.197 429.188 609.625 428.333C610.159 427.371 610.587 426.515 611.121 425.553C611.442 425.019 611.763 424.484 611.976 423.843C612.083 423.522 612.297 423.309 612.511 422.881C613.473 421.064 614.328 419.353 615.29 417.536C615.397 417.429 615.397 417.216 615.611 417.002C615.825 416.574 615.932 416.254 616.145 415.826C616.68 414.65 617.214 413.474 617.856 412.191C618.283 411.336 618.711 410.481 619.032 409.519C619.352 408.984 619.459 408.45 619.78 407.916C619.887 407.595 620.101 407.167 620.207 406.847C620.956 405.029 621.811 403.319 622.559 401.502C622.666 401.181 622.773 401.074 622.88 400.754C623.094 400.326 623.201 399.791 623.414 399.364C623.842 398.295 624.27 397.226 624.697 396.157C625.125 395.088 625.445 393.912 625.98 392.736C626.194 392.309 626.301 391.774 626.514 391.347C626.621 391.026 626.728 390.919 626.835 390.598C627.69 388.46 628.438 386.216 629.08 384.078C629.08 383.864 629.187 383.757 629.187 383.543C629.401 382.902 629.614 382.26 629.721 381.726C630.149 380.229 630.683 378.84 631.111 377.343C631.218 377.023 631.325 376.488 631.432 376.167C632.501 372.533 633.569 368.898 634.531 365.157C634.531 365.157 634.638 365.05 634.532 364.943C634.959 363.233 635.387 361.523 635.707 359.919C636.028 358.53 636.349 357.354 636.669 355.964C637.097 354.04 637.418 352.223 637.845 350.299C638.059 349.016 638.38 347.84 638.594 346.557C638.594 346.557 638.594 346.557 638.701 346.45C638.701 346.237 638.807 346.13 638.807 345.916C639.449 342.281 640.09 338.647 640.732 335.012C640.732 334.585 640.945 334.157 640.945 333.73C641.159 332.661 641.266 331.699 641.266 330.63C641.48 328.919 641.694 327.209 641.907 325.499C642.014 324.964 642.014 324.323 642.121 323.788C642.228 322.613 642.335 321.437 642.549 320.368C642.763 318.871 642.869 317.481 643.083 315.985C643.19 315.45 643.19 315.023 643.19 314.382C643.297 312.992 643.297 311.709 643.511 310.426C643.618 309.037 643.725 307.647 643.725 306.364C643.725 305.937 643.832 305.616 643.832 305.188C643.938 303.799 643.938 302.302 644.045 300.699C644.152 299.309 644.152 297.813 644.259 296.423C644.259 296.209 644.259 295.782 644.259 295.568C644.366 294.178 644.259 292.789 644.366 291.399C644.366 289.689 644.473 287.871 644.473 286.161C644.473 285.947 644.473 285.52 644.473 285.306C644.473 284.237 644.473 282.954 644.473 281.885C644.473 279.747 644.473 277.609 644.473 275.471C644.473 275.044 644.473 274.616 644.473 274.189C644.473 273.12 644.366 272.158 644.366 271.089C644.259 268.844 644.259 266.492 644.152 264.247C644.152 263.606 644.045 263.071 644.045 262.43C644.045 261.575 643.938 260.613 643.831 259.651C643.725 257.192 643.511 254.84 643.297 252.275C643.19 251.527 643.19 250.672 643.083 249.923C643.083 249.282 642.976 248.534 642.869 247.785C642.549 245.113 642.335 242.334 642.014 239.661C641.907 238.699 641.8 237.737 641.694 236.775C641.694 236.347 641.587 236.027 641.587 235.599C641.052 231.858 640.625 228.01 640.09 224.268C640.09 224.054 639.983 223.734 639.983 223.52C639.983 223.52 639.983 223.52 639.876 223.413C639.235 219.351 638.487 215.182 637.738 211.013C637.632 210.692 637.632 210.265 637.525 209.944C637.311 209.089 637.097 208.234 636.99 207.272C636.349 204.279 635.814 201.179 635.173 198.186C635.066 197.437 634.852 196.796 634.745 196.048C634.638 195.299 634.425 194.658 634.318 193.91C633.57 190.81 632.821 187.71 631.966 184.503C631.752 183.648 631.538 182.793 631.325 181.937C631.111 181.082 630.897 180.227 630.683 179.586C629.828 176.593 629.08 173.706 628.118 170.82C627.904 169.965 627.583 169.217 627.37 168.362C626.835 166.758 626.408 165.262 625.873 163.658C625.445 162.375 625.125 160.986 624.697 159.703C624.376 158.527 623.949 157.458 623.521 156.389C623.094 154.893 622.452 153.396 621.918 152.006C621.597 151.044 621.276 150.296 620.956 149.334C620.314 147.838 619.673 146.341 619.245 144.844C618.711 143.455 618.283 142.172 617.642 140.889C617.428 140.462 617.214 139.82 617.001 139.393C616.145 137.255 615.183 135.224 614.221 133.193C613.687 132.231 613.366 131.269 612.832 130.307C612.725 130.2 612.618 129.879 612.511 129.772C611.014 126.565 609.411 123.465 607.808 120.579C607.701 120.472 607.701 120.472 607.594 120.365C607.166 119.724 606.952 119.082 606.525 118.441C605.242 116.089 604.066 113.845 602.677 111.6C602.57 111.279 602.356 111.065 602.142 110.851C601.394 109.676 600.646 108.5 600.004 107.431C599.042 106.041 598.187 104.545 597.118 103.048C596.904 102.62 596.583 102.3 596.37 101.872C595.514 100.589 594.552 99.4136 593.59 98.024C592.735 96.955 591.987 95.7792 591.239 94.6033C590.811 94.1758 590.597 93.7482 590.17 93.3206C589.101 92.0379 587.925 90.6482 586.856 89.3654C586.108 88.4034 585.359 87.4413 584.504 86.5861C584.077 86.1585 583.756 85.8379 583.435 85.5172C582.153 84.0206 580.763 82.6309 579.373 81.2413C578.625 80.493 577.877 79.531 577.022 78.6759C576.701 78.3552 576.487 78.1413 576.166 77.8207C574.242 75.8965 572.318 74.1862 570.394 72.4759C569.86 71.9414 569.218 71.2999 568.577 70.8724C568.47 70.7655 568.256 70.5518 568.149 70.4449C567.829 70.1242 567.401 69.9104 567.08 69.5897C565.049 67.9862 563.125 66.4897 561.094 65.1C560.56 64.7793 560.025 64.2448 559.491 63.9241C559.063 63.7103 558.742 63.3897 558.315 63.1759C556.604 62.107 554.894 61.038 553.184 59.969C552.756 59.7552 552.329 59.3277 551.901 59.1139C549.549 57.8311 547.198 56.5484 544.739 55.3725C544.632 55.2656 544.418 55.2656 544.311 55.1587C542.387 54.3035 540.463 53.4483 538.432 52.7001C537.47 52.3794 536.508 51.8449 535.439 51.4173C532.446 50.3483 529.453 49.2794 526.353 48.5311L476.325 35.2761C479.425 36.0243 482.419 37.0933 485.412 38.1622C486.374 38.4829 487.336 39.0174 488.405 39.445C490.329 40.3002 492.36 41.0485 494.284 41.9036C496.85 43.1864 499.415 44.4691 501.874 45.8588C502.301 46.0726 502.836 46.3933 503.156 46.714C505.294 47.9967 507.325 49.1725 509.463 50.669C509.998 50.9897 510.532 51.5243 511.067 51.8449C513.098 53.2346 515.022 54.7312 517.053 56.3346C517.374 56.6553 517.801 56.869 518.122 57.1897C518.977 57.831 519.725 58.5793 520.367 59.2207C522.291 60.931 524.322 62.7483 526.139 64.5656C527.208 65.6345 528.277 66.7035 529.346 67.7725C530.736 69.1621 532.018 70.6587 533.408 72.0483C534.477 73.3311 535.653 74.7207 536.829 76.1104C537.898 77.3931 538.966 78.6758 540.142 80.0654C541.318 81.6689 542.387 83.1655 543.563 84.7689C544.418 86.0516 545.38 87.2275 546.235 88.5103C547.411 90.3275 548.694 92.2517 549.87 94.0689C550.618 95.2448 551.26 96.3137 552.008 97.4895C553.504 99.8413 554.894 102.514 556.391 105.079C556.818 105.721 557.139 106.255 557.46 107.003C559.17 110.21 560.88 113.631 562.484 116.945C563.018 117.907 563.339 118.869 563.873 119.831C565.049 122.289 566.118 124.855 567.294 127.527C567.828 128.917 568.363 130.093 568.897 131.482C569.753 133.834 570.822 136.186 571.677 138.538C572.211 139.927 572.746 141.531 573.28 142.92C574.135 145.272 574.884 147.731 575.739 150.296C576.273 151.9 576.701 153.396 577.235 155C578.304 158.634 579.48 162.375 580.442 166.117C580.87 167.827 581.297 169.537 581.618 171.141C582.366 174.241 583.221 177.448 583.97 180.548C584.29 181.937 584.611 183.327 584.932 184.717C585.573 187.71 586.215 190.703 586.749 193.803C586.963 195.086 587.284 196.261 587.497 197.544C588.246 201.713 588.887 205.775 589.635 209.944C589.742 210.265 589.635 210.585 589.742 210.906C590.277 214.648 590.811 218.389 591.346 222.13C591.452 223.52 591.666 224.803 591.773 226.192C592.094 228.865 592.415 231.537 592.521 234.21C592.735 235.706 592.735 237.203 592.949 238.699C593.056 241.158 593.27 243.509 593.377 245.968C593.377 247.465 593.59 248.961 593.59 250.458C593.697 252.703 593.804 254.947 593.804 257.299C593.804 258.796 593.911 260.185 593.911 261.682C593.911 263.82 593.911 265.958 593.911 268.096C593.911 269.592 593.911 271.089 593.911 272.371C593.911 274.082 593.911 275.792 593.804 277.609C593.804 279.32 593.804 281.03 593.59 282.74C593.483 284.13 593.484 285.627 593.377 287.016C593.27 288.833 593.163 290.864 593.056 292.682C592.949 294.071 592.842 295.461 592.735 296.637C592.628 298.454 592.415 300.378 592.308 302.195C592.201 303.585 591.987 305.082 591.88 306.471C591.666 308.182 591.452 309.892 591.239 311.602C591.025 313.313 590.811 315.023 590.597 316.733C590.384 318.23 590.17 319.726 589.956 321.223C589.315 324.857 588.78 328.599 588.032 332.126C588.032 332.34 588.032 332.554 587.925 332.661C587.711 333.943 587.39 335.119 587.177 336.402C586.749 338.326 586.428 340.143 586.001 342.068C585.68 343.457 585.359 344.633 585.039 346.023C584.611 347.733 584.29 349.55 583.863 351.261C582.901 355.002 581.832 358.636 580.763 362.271C580.228 364.088 579.587 366.012 579.053 367.83C578.839 368.471 578.732 369.005 578.518 369.647C577.663 372.212 576.701 374.885 575.846 377.45C575.632 377.878 575.525 378.412 575.311 378.84C574.563 381.085 573.601 383.33 572.746 385.467C572.532 385.895 572.425 386.429 572.211 386.857C571.249 389.316 570.18 391.667 569.111 394.019C568.79 394.554 568.684 395.088 568.363 395.623C567.401 397.654 566.439 399.685 565.37 401.823C565.156 402.25 565.049 402.571 564.835 402.998C563.66 405.243 562.591 407.595 561.201 409.84C560.88 410.374 560.559 410.909 560.239 411.443C559.277 413.26 558.208 414.971 557.246 416.788C556.925 417.322 556.604 417.857 556.177 418.498C554.894 420.636 553.611 422.774 552.115 424.912C551.901 425.34 551.687 425.553 551.473 425.981C550.298 427.798 549.122 429.615 547.839 431.326C547.411 431.967 547.091 432.502 546.556 433.036C545.273 434.747 544.098 436.564 542.601 438.274C542.387 438.488 542.28 438.809 542.066 439.022C540.57 440.946 539.073 442.871 537.47 444.688C537.042 445.115 536.615 445.757 536.187 446.184C535.011 447.574 533.836 448.964 532.446 450.353C531.911 450.888 531.377 451.422 531.056 451.957C529.453 453.774 527.742 455.484 526.032 457.195C524.108 459.119 522.184 460.829 520.367 462.646C519.832 463.181 519.084 463.715 518.549 464.25C517.267 465.319 515.984 466.601 514.808 467.564C514.06 468.098 513.418 468.739 512.67 469.274C511.494 470.236 510.425 471.091 509.143 471.946C508.394 472.481 507.646 473.015 506.898 473.55C505.829 474.405 504.653 475.153 503.584 475.795C502.836 476.329 502.087 476.864 501.232 477.291C500.163 477.933 499.094 478.574 498.132 479.108C497.277 479.536 496.529 480.07 495.674 480.498C494.818 480.926 493.963 481.353 493.108 481.781C491.932 482.315 490.863 482.957 489.687 483.491C488.939 483.812 488.191 484.132 487.443 484.453C485.946 485.094 484.556 485.629 483.167 486.163C482.525 486.377 481.884 486.591 481.243 486.805C478.677 487.66 476.219 488.408 473.76 488.943C473.439 489.05 473.012 489.05 472.584 489.263C470.125 489.798 467.667 490.119 465.208 490.439C464.994 490.439 464.781 490.439 464.567 490.439C462.001 490.653 459.65 490.653 457.191 490.546C456.763 490.546 456.336 490.546 455.801 490.439C453.557 490.332 451.205 490.119 448.853 489.691C448.426 489.691 448.105 489.584 447.57 489.477C445.219 489.05 442.867 488.622 440.515 487.981L490.543 501.236C492.894 501.877 495.246 502.305 497.598 502.732C498.025 502.732 498.453 502.946 498.88 502.946C501.125 503.267 503.477 503.481 505.829 503.694C506.256 503.694 506.684 503.694 507.218 503.801C509.677 503.908 512.136 503.801 514.594 503.694C514.808 503.694 515.022 503.694 515.129 503.587C517.48 503.374 520.046 502.946 522.505 502.412C522.718 502.412 523.039 502.305 523.253 502.305C523.36 502.198 523.573 502.198 523.573 502.198C526.032 501.663 528.491 500.915 531.056 500.06C531.377 499.953 531.591 499.953 531.698 499.846C532.018 499.739 532.446 499.526 532.873 499.312C534.263 498.777 535.76 498.136 537.149 497.601C537.577 497.388 538.111 497.281 538.539 497.067C538.86 496.96 539.073 496.746 539.394 496.639C540.57 496.105 541.639 495.463 542.815 494.929C543.349 494.608 543.991 494.394 544.632 493.967C544.846 493.753 545.06 493.753 545.273 493.539C546.129 493.112 546.877 492.577 547.839 492.043C548.587 491.508 549.335 491.188 549.977 490.76C550.297 490.653 550.618 490.332 550.832 490.119C551.58 489.584 552.329 489.05 553.184 488.622C553.825 488.195 554.573 487.66 555.215 487.232C555.642 487.019 556.07 486.591 556.391 486.27C557.139 485.736 557.887 485.201 558.635 484.667C559.277 484.239 559.704 483.812 560.346 483.384C560.987 482.957 561.522 482.422 562.163 481.995C562.911 481.46 563.553 480.819 564.301 480.284C564.621 479.963 565.049 479.75 565.477 479.322C566.439 478.574 567.294 477.719 568.149 476.864C568.684 476.329 569.432 475.795 569.966 475.26C570.18 475.046 570.287 474.939 570.501 474.726C572.211 473.229 573.921 471.519 575.632 469.808C578.518 469.915 579.801 468.419 581.19 467.029Z" fill="url(#paint4_linear_736_10098)"/>
<path d="M580.869 166.972C611.976 284.023 588.138 397.44 526.887 458.05C472.37 512.139 433.353 490.439 400.001 468.632C374.56 454.094 352.646 440.305 328.274 464.463C317.798 474.939 308.498 493.218 304.971 508.077L257.723 430.684C267.878 396.798 284.767 366.44 307.75 343.671C353.181 298.668 386.319 320.474 415.074 337.685C436.987 351.26 455.908 363.34 475.577 343.671C495.994 323.467 507.539 285.84 494.497 236.24C482.418 191.023 455.908 169.644 424.267 165.796L464.78 33.5654C518.121 40.9412 560.238 89.8997 580.869 166.972Z" fill="url(#paint5_linear_736_10098)"/>
<defs>
<linearGradient id="paint0_linear_736_10098" x1="207.599" y1="470.131" x2="269.723" y2="628.344" gradientUnits="userSpaceOnUse">
<stop stop-color="#F9FBFF"/>
<stop offset="0.623392" stop-color="#C7D9FF"/>
<stop offset="0.95625" stop-color="#61B2FF"/>
</linearGradient>
<linearGradient id="paint1_linear_736_10098" x1="168.724" y1="478.571" x2="178.982" y2="631.128" gradientUnits="userSpaceOnUse">
<stop stop-color="#04FFCB"/>
<stop offset="0.378125" stop-color="#00E0FF"/>
<stop offset="1" stop-color="#1DA8FF"/>
</linearGradient>
<linearGradient id="paint2_linear_736_10098" x1="394.763" y1="443.726" x2="318.226" y2="520.263" gradientUnits="userSpaceOnUse">
<stop stop-color="#EEF4FF"/>
<stop offset="1" stop-color="#EEF4FF" stop-opacity="0"/>
</linearGradient>
<linearGradient id="paint3_linear_736_10098" x1="453.824" y1="324.911" x2="418.442" y2="360.293" gradientUnits="userSpaceOnUse">
<stop stop-color="#E5EDFF"/>
<stop offset="1" stop-color="#2595FF" stop-opacity="0"/>
</linearGradient>
<linearGradient id="paint4_linear_736_10098" x1="466.709" y1="45.4428" x2="588.08" y2="426.812" gradientUnits="userSpaceOnUse">
<stop stop-color="#F9FBFF"/>
<stop offset="0.623392" stop-color="#C7D9FF"/>
<stop offset="0.95625" stop-color="#61B2FF"/>
</linearGradient>
<linearGradient id="paint5_linear_736_10098" x1="408.036" y1="82.2561" x2="448.6" y2="493.798" gradientUnits="userSpaceOnUse">
<stop stop-color="#04FFCB"/>
<stop offset="0.378125" stop-color="#00E0FF"/>
<stop offset="1" stop-color="#1DA8FF"/>
</linearGradient>
</defs>
</svg>
