<svg width="235" height="235" viewBox="0 0 235 235" fill="none" xmlns="http://www.w3.org/2000/svg">
<path d="M196.024 158.098C195.796 157.871 195.569 157.709 195.342 157.481C195.244 157.384 195.114 157.319 194.984 157.189C194.952 157.157 194.887 157.092 194.855 157.059C194.79 156.994 194.692 156.897 194.595 156.864C194.335 156.669 194.108 156.442 193.88 156.28C193.621 156.085 193.361 155.89 193.101 155.695C193.069 155.663 193.069 155.663 193.036 155.63C193.004 155.598 193.004 155.598 192.971 155.565C192.744 155.403 192.517 155.241 192.289 155.078C192.03 154.884 191.705 154.689 191.413 154.526C191.283 154.461 191.153 154.397 191.023 154.267C190.958 154.202 190.893 154.202 190.828 154.137C190.698 154.072 190.633 154.007 190.504 153.942C190.179 153.747 189.887 153.585 189.562 153.39C189.302 153.26 189.01 153.098 188.75 152.968C188.718 152.935 188.718 152.935 188.653 152.935C188.62 152.903 188.62 152.903 188.588 152.87C188.296 152.708 187.938 152.546 187.646 152.383C187.354 152.221 186.997 152.059 186.672 151.929C186.575 151.896 186.51 151.831 186.445 151.831C186.412 151.799 186.315 151.766 186.282 151.734C186.088 151.669 185.925 151.572 185.73 151.507C185.406 151.377 185.081 151.247 184.756 151.117C184.529 151.02 184.237 150.922 184.01 150.825C183.977 150.792 183.912 150.792 183.912 150.792C183.88 150.76 183.815 150.76 183.815 150.76C183.49 150.63 183.165 150.5 182.808 150.403C182.419 150.273 182.061 150.11 181.704 150.013C181.639 150.013 181.607 149.981 181.542 149.981C181.444 149.948 181.379 149.948 181.315 149.883C181.022 149.786 180.698 149.656 180.373 149.591C180.016 149.494 179.659 149.396 179.366 149.299C179.107 149.234 178.912 149.169 178.652 149.104C178.555 149.071 178.457 149.039 178.36 149.006C178.035 148.942 177.743 148.844 177.451 148.812C176.931 148.682 176.412 148.552 175.924 148.454C175.827 148.422 175.73 148.39 175.6 148.39C175.113 148.292 174.593 148.227 174.106 148.13C173.944 148.097 173.716 148.065 173.554 148.032C173.522 148 173.489 148.032 173.457 148C172.97 147.902 172.483 147.87 172.028 147.805C171.736 147.773 171.444 147.74 171.151 147.708C171.086 147.708 171.021 147.708 170.924 147.675C170.859 147.675 170.794 147.675 170.762 147.643C170.34 147.61 169.982 147.578 169.56 147.545C169.171 147.545 168.781 147.48 168.391 147.48C168.002 147.48 167.645 147.448 167.255 147.448C166.865 147.448 166.476 147.448 166.086 147.448C166.021 147.448 165.956 147.448 165.891 147.448C165.826 147.448 165.761 147.448 165.696 147.448C165.437 147.448 165.177 147.448 164.885 147.48C164.495 147.48 164.105 147.545 163.748 147.578C163.618 147.578 163.521 147.61 163.391 147.61C163.326 147.61 163.229 147.643 163.164 147.643C162.969 147.643 162.807 147.675 162.612 147.675C162.255 147.708 161.93 147.773 161.573 147.805C161.345 147.838 161.183 147.87 160.956 147.902C160.891 147.902 160.826 147.903 160.793 147.935C160.728 147.935 160.631 147.967 160.566 147.967C160.241 148.032 159.917 148.097 159.624 148.13C159.3 148.195 159.008 148.292 158.715 148.325C158.65 148.325 158.618 148.357 158.553 148.357C158.293 148.422 158.098 148.487 157.839 148.552C157.546 148.649 157.287 148.714 156.994 148.812C156.8 148.877 156.605 148.942 156.41 149.007C156.377 149.039 156.312 149.039 156.312 149.039C156.28 149.071 156.215 149.071 156.183 149.104C155.89 149.201 155.663 149.299 155.403 149.429C155.144 149.558 154.916 149.656 154.657 149.786C154.624 149.818 154.527 149.851 154.494 149.883C154.462 149.916 154.397 149.916 154.364 149.948C154.234 150.013 154.104 150.078 153.942 150.175C153.682 150.305 153.455 150.468 153.195 150.598C153.033 150.695 152.903 150.76 152.773 150.89C152.741 150.922 152.708 150.955 152.643 150.955C152.611 150.987 152.513 151.02 152.481 151.052C152.254 151.214 151.994 151.409 151.767 151.572C151.572 151.702 151.442 151.831 151.28 151.994C151.247 152.026 151.215 152.059 151.182 152.091C151.15 152.124 151.15 152.124 151.117 152.156C150.89 152.383 150.63 152.578 150.403 152.806C150.273 152.935 150.176 153.033 150.078 153.13C150.013 153.195 149.948 153.26 149.851 153.357C149.786 153.422 149.721 153.487 149.656 153.552C149.396 153.877 149.169 154.169 148.974 154.494L148.942 154.526C148.877 154.656 148.812 154.786 148.714 154.949C148.552 155.241 148.357 155.501 148.26 155.793C148.227 155.825 148.26 155.858 148.227 155.89C147.968 156.41 147.773 156.929 147.643 157.514L143.617 172.71C143.779 172.158 143.974 171.638 144.201 171.086C144.331 170.762 144.526 170.437 144.688 170.145C144.753 170.015 144.818 169.885 144.915 169.722C145.175 169.333 145.467 168.911 145.825 168.554C145.89 168.489 145.954 168.424 146.052 168.326C146.409 167.969 146.766 167.612 147.123 167.255C147.156 167.222 147.188 167.19 147.221 167.157C147.643 166.8 148.098 166.475 148.585 166.118C148.617 166.086 148.649 166.053 148.714 166.053C149.201 165.761 149.721 165.436 150.273 165.144C150.305 165.112 150.37 165.112 150.403 165.079C150.987 164.82 151.604 164.527 152.254 164.267C152.286 164.235 152.351 164.235 152.351 164.235C153 163.975 153.715 163.78 154.462 163.553C155.176 163.358 155.923 163.196 156.702 163.066C156.767 163.066 156.832 163.066 156.864 163.034C157.579 162.904 158.326 162.806 159.04 162.741C159.105 162.741 159.202 162.709 159.267 162.709C160.014 162.612 160.761 162.579 161.54 162.579C161.605 162.579 161.67 162.579 161.735 162.579C162.547 162.547 163.391 162.547 164.203 162.579C165.014 162.611 165.891 162.644 166.735 162.774C166.8 162.774 166.865 162.774 166.963 162.806C167.774 162.904 168.586 163.001 169.365 163.131C169.528 163.163 169.755 163.196 169.917 163.228C170.534 163.326 171.151 163.423 171.736 163.553C172.255 163.683 172.742 163.78 173.262 163.91C173.684 164.008 174.074 164.073 174.463 164.203C174.691 164.235 174.918 164.332 175.178 164.397C175.827 164.592 176.476 164.787 177.126 164.982C177.223 165.014 177.288 165.014 177.353 165.079C178.165 165.371 178.977 165.664 179.756 165.923C179.788 165.956 179.853 165.956 179.853 165.956C180.633 166.281 181.379 166.573 182.126 166.93C182.159 166.963 182.256 166.995 182.289 167.027C183.035 167.385 183.782 167.742 184.529 168.164C184.562 168.196 184.562 168.196 184.626 168.196C185.341 168.586 186.055 168.976 186.705 169.365C186.77 169.43 186.834 169.43 186.899 169.495C187.581 169.917 188.198 170.339 188.848 170.794C188.88 170.826 188.88 170.826 188.913 170.859C189.562 171.314 190.179 171.801 190.731 172.288C190.763 172.32 190.828 172.385 190.861 172.418C191.445 172.937 191.997 173.424 192.517 173.944C193.036 174.463 193.491 174.983 193.945 175.502C193.978 175.535 194.043 175.6 194.075 175.632C194.497 176.119 194.855 176.606 195.147 177.093C195.212 177.158 195.212 177.223 195.277 177.288C195.569 177.775 195.861 178.262 196.121 178.717C196.153 178.814 196.218 178.879 196.251 178.976C196.511 179.496 196.738 179.983 196.9 180.47C196.933 180.568 196.933 180.632 196.965 180.665C197.095 181.12 197.225 181.574 197.355 182.029C197.355 182.159 197.42 182.288 197.42 182.418C197.485 182.808 197.517 183.165 197.55 183.522C197.582 183.685 197.55 183.847 197.582 184.009C197.582 184.334 197.582 184.724 197.55 185.016C197.55 185.146 197.517 185.308 197.517 185.438C197.452 185.893 197.387 186.347 197.29 186.834L201.414 171.736C201.543 171.281 201.608 170.826 201.641 170.339C201.641 170.21 201.673 170.047 201.673 169.917C201.706 169.56 201.706 169.235 201.706 168.911C201.673 168.748 201.706 168.586 201.673 168.424C201.641 168.066 201.608 167.709 201.543 167.32C201.543 167.19 201.511 167.092 201.479 166.93C201.479 166.865 201.479 166.865 201.479 166.8C201.381 166.378 201.251 165.988 201.121 165.599C201.089 165.501 201.089 165.436 201.056 165.339C200.927 164.949 200.764 164.592 200.602 164.17C200.537 164.04 200.504 163.943 200.439 163.813C200.407 163.716 200.342 163.651 200.31 163.553C200.245 163.423 200.212 163.326 200.147 163.196C199.985 162.904 199.823 162.611 199.628 162.287C199.563 162.222 199.53 162.124 199.465 162.06C199.4 161.995 199.4 161.93 199.335 161.865C199.238 161.702 199.141 161.605 199.043 161.443C198.881 161.215 198.686 160.956 198.491 160.696C198.394 160.598 198.329 160.468 198.232 160.371C198.199 160.339 198.134 160.274 198.102 160.241C198.037 160.176 197.972 160.046 197.907 159.981C197.744 159.754 197.517 159.527 197.322 159.332C197.095 159.105 196.9 158.91 196.673 158.683C196.478 158.488 196.251 158.261 196.024 158.098Z" fill="url(#paint0_linear_736_10087)"/>
<path d="M154.462 163.618C166.508 160.403 183.945 165.112 192.679 173.911C201.381 182.678 198.556 192.776 186.542 195.958C174.496 199.173 157.059 194.465 148.325 185.665C139.59 176.931 142.415 166.833 154.462 163.618Z" fill="url(#paint1_linear_736_10087)"/>
<path d="M156.539 126.472C155.987 126.31 155.402 126.115 154.85 125.888L154.818 125.855C154.266 125.628 153.649 125.401 153.097 125.108C153.065 125.076 153 125.076 152.967 125.043C152.383 124.784 151.863 124.524 151.311 124.232C151.279 124.199 151.279 124.199 151.214 124.199C150.662 123.907 150.077 123.582 149.558 123.258C149.525 123.225 149.525 123.225 149.493 123.193C148.973 122.868 148.454 122.543 147.999 122.219C147.967 122.186 147.934 122.154 147.869 122.154C147.382 121.796 146.895 121.439 146.473 121.082L146.441 121.05C145.986 120.66 145.564 120.303 145.174 119.913C144.687 119.426 144.265 118.939 143.843 118.452C143.811 118.42 143.778 118.387 143.778 118.387C143.421 117.9 143.096 117.445 142.804 116.958C142.772 116.926 142.739 116.894 142.739 116.829C142.479 116.374 142.252 115.952 142.057 115.497C142.025 115.4 141.992 115.367 141.96 115.27C141.83 114.945 141.732 114.588 141.603 114.263C141.57 114.101 141.505 113.971 141.473 113.809C141.408 113.549 141.375 113.257 141.343 112.965C141.31 112.737 141.278 112.575 141.245 112.348C141.213 112.055 141.213 111.796 141.213 111.471C141.213 111.276 141.18 111.114 141.18 110.919C141.18 110.594 141.245 110.27 141.278 109.977C141.31 109.815 141.31 109.685 141.343 109.523C141.408 109.068 141.505 108.581 141.635 108.127L137.609 123.323C137.479 123.777 137.381 124.264 137.317 124.719C137.284 124.881 137.284 125.011 137.252 125.173C137.219 125.466 137.187 125.823 137.154 126.115C137.154 126.31 137.154 126.505 137.187 126.667C137.187 126.927 137.187 127.252 137.219 127.544C137.219 127.739 137.284 127.933 137.284 128.128C137.317 128.355 137.317 128.55 137.381 128.745C137.381 128.81 137.414 128.907 137.446 128.94C137.479 129.102 137.544 129.232 137.576 129.395C137.609 129.557 137.674 129.752 137.706 129.914C137.771 130.109 137.836 130.239 137.901 130.434C137.933 130.531 137.966 130.563 137.998 130.661C138.031 130.693 138.031 130.758 138.063 130.791C138.161 131.018 138.291 131.278 138.421 131.538C138.485 131.667 138.583 131.83 138.68 131.992C138.713 132.025 138.745 132.057 138.745 132.122C138.778 132.154 138.81 132.187 138.81 132.252C138.94 132.447 139.102 132.674 139.232 132.869C139.362 133.064 139.492 133.258 139.654 133.421C139.687 133.453 139.719 133.486 139.752 133.518C139.784 133.551 139.817 133.583 139.817 133.583C139.914 133.681 140.012 133.843 140.109 133.94C140.271 134.103 140.401 134.298 140.596 134.492C140.758 134.655 140.953 134.85 141.116 135.012C141.245 135.142 141.375 135.272 141.505 135.402C141.635 135.531 141.797 135.694 141.96 135.791C142.09 135.921 142.252 136.018 142.382 136.148L142.414 136.181L142.447 136.213C142.609 136.376 142.804 136.506 142.999 136.635C143.194 136.765 143.356 136.928 143.583 137.09C143.648 137.155 143.746 137.187 143.843 137.285C143.876 137.317 143.908 137.35 143.973 137.35C144.038 137.415 144.135 137.447 144.233 137.545C144.46 137.707 144.687 137.869 144.915 137.967C145.109 138.097 145.304 138.226 145.467 138.324C145.499 138.356 145.499 138.356 145.532 138.389C145.564 138.421 145.564 138.421 145.596 138.454C145.856 138.584 146.084 138.746 146.343 138.876C146.603 139.006 146.863 139.136 147.09 139.298C147.123 139.33 147.123 139.33 147.123 139.33C147.155 139.363 147.155 139.363 147.22 139.363C147.447 139.46 147.642 139.59 147.869 139.688C148.129 139.817 148.389 139.947 148.616 140.045C148.714 140.077 148.811 140.11 148.876 140.175C148.908 140.207 148.973 140.207 149.006 140.24C149.103 140.272 149.233 140.337 149.33 140.369C149.558 140.467 149.785 140.564 150.012 140.662C150.24 140.759 150.467 140.856 150.662 140.921L150.694 140.954L150.727 140.986C150.922 141.051 151.116 141.116 151.311 141.181C151.538 141.279 151.733 141.344 151.993 141.409C152.155 141.441 152.285 141.506 152.448 141.538C152.48 141.571 152.545 141.571 152.578 141.603C152.642 141.603 152.675 141.636 152.74 141.636C153.097 141.733 153.389 141.831 153.714 141.896C153.909 141.96 154.071 141.993 154.234 142.025L158.26 126.829C157.74 126.7 157.123 126.537 156.571 126.375C156.636 126.505 156.571 126.505 156.539 126.472Z" fill="url(#paint2_linear_736_10087)"/>
<path d="M107.152 99.7489L111.179 84.5529C110.984 85.2023 110.756 85.8842 110.497 86.5336C110.432 86.7284 110.302 86.9232 110.237 87.118C110.01 87.67 109.717 88.222 109.425 88.774C109.393 88.8714 109.328 88.9364 109.295 89.0338C108.938 89.7156 108.548 90.3651 108.126 91.0469C108.029 91.2093 107.899 91.4041 107.802 91.5664C107.412 92.2158 107.022 92.8652 106.6 93.5471C106.308 94.0342 106.048 94.4888 105.756 94.9758C105.659 95.1382 105.561 95.3005 105.496 95.4304C105.269 95.7876 105.074 96.1772 104.847 96.5344C104.717 96.7292 104.652 96.924 104.522 97.1189C104.327 97.4436 104.165 97.8007 103.97 98.1254C103.84 98.3202 103.743 98.5475 103.645 98.7099C103.483 99.0671 103.288 99.3918 103.093 99.7814C103.029 99.9113 102.931 100.074 102.866 100.204C102.834 100.236 102.834 100.301 102.834 100.301C102.509 101.015 102.217 101.697 101.925 102.379C101.86 102.509 101.827 102.671 101.73 102.834C101.437 103.58 101.21 104.327 100.983 105.074L96.9566 120.27C97.1514 119.491 97.4112 118.776 97.7034 118.03C97.7684 117.9 97.8008 117.737 97.8983 117.575C98.158 116.861 98.4827 116.146 98.8074 115.497C98.9048 115.335 98.9698 115.14 99.0672 114.977C99.2295 114.62 99.4244 114.296 99.6192 113.906C99.7491 113.711 99.8465 113.484 99.9439 113.322C100.139 112.997 100.301 112.64 100.496 112.315C100.626 112.12 100.691 111.925 100.821 111.73C101.048 111.373 101.243 110.984 101.47 110.626C101.567 110.464 101.665 110.302 101.762 110.139C102.054 109.652 102.314 109.198 102.606 108.711C103.029 108.029 103.418 107.379 103.808 106.73C103.905 106.568 104.035 106.373 104.133 106.211C104.555 105.529 104.912 104.847 105.301 104.197C105.334 104.1 105.399 104.035 105.431 103.938C105.594 103.58 105.789 103.256 105.951 102.899C106.048 102.671 106.113 102.476 106.243 102.282C106.308 102.087 106.438 101.892 106.503 101.697C106.73 101.08 106.99 100.431 107.152 99.7489Z" fill="url(#paint3_linear_736_10087)"/>
<path d="M141.863 58.3495C141.765 58.2521 141.701 58.1871 141.603 58.0897C141.441 57.9274 141.278 57.765 141.116 57.6676C140.921 57.4728 140.726 57.278 140.499 57.1156C140.304 56.9208 140.045 56.726 139.85 56.5312C139.72 56.4013 139.525 56.2714 139.395 56.1415C139.33 56.0766 139.233 55.9792 139.135 55.9467C138.681 55.557 138.194 55.1999 137.739 54.8102C137.707 54.7778 137.707 54.7778 137.674 54.7453C137.609 54.6804 137.512 54.6479 137.447 54.5829C137.09 54.2907 136.7 54.0309 136.31 53.7062C136.148 53.6088 136.018 53.4789 135.856 53.3815C135.661 53.2516 135.499 53.1543 135.336 52.9919C135.174 52.8945 135.012 52.7321 134.849 52.6347C134.492 52.4074 134.103 52.1477 133.713 51.8879C133.583 51.823 133.518 51.758 133.388 51.6931C133.356 51.6606 133.323 51.6281 133.258 51.6281C132.739 51.3034 132.219 50.9788 131.7 50.6541C131.602 50.6216 131.505 50.5242 131.407 50.4917C131.245 50.3943 131.083 50.2969 130.888 50.167C130.628 50.0371 130.368 49.8423 130.109 49.7124C129.816 49.5501 129.557 49.4202 129.264 49.2578C129.102 49.1604 128.94 49.063 128.745 48.9981C128.647 48.9656 128.583 48.9006 128.453 48.8357C127.901 48.5435 127.381 48.2837 126.829 47.9915C126.797 47.959 126.732 47.959 126.667 47.8941C126.537 47.8291 126.44 47.7966 126.31 47.7317C125.952 47.5694 125.595 47.407 125.206 47.2122C124.946 47.0823 124.686 46.9525 124.394 46.855C124.232 46.7576 124.069 46.7251 123.907 46.6277C123.809 46.5953 123.68 46.5303 123.582 46.4979C123.03 46.2706 122.511 46.0108 121.959 45.7835C121.861 45.751 121.829 45.7186 121.731 45.6861C121.601 45.6212 121.439 45.5887 121.309 45.5237C120.985 45.3939 120.66 45.264 120.335 45.1341C120.01 45.0042 119.653 44.9068 119.296 44.7445C119.166 44.6795 119.004 44.6471 118.874 44.5821C118.777 44.5497 118.744 44.5172 118.647 44.4847C117.997 44.2249 117.315 43.9976 116.666 43.8028C116.601 43.8028 116.569 43.7703 116.504 43.7703C116.309 43.7054 116.114 43.6405 115.952 43.608C115.497 43.4781 115.075 43.3158 114.62 43.1859C114.523 43.1534 114.361 43.1209 114.263 43.0885C113.159 42.7638 112.055 42.4391 110.919 42.1469C110.919 42.1469 110.886 42.1144 110.854 42.1469C110.334 42.017 109.815 41.8871 109.328 41.7897C108.906 41.6923 108.548 41.5948 108.126 41.4974C107.542 41.3676 106.99 41.2701 106.405 41.1403C106.016 41.0753 105.659 40.9779 105.269 40.913C105.269 40.913 105.269 40.913 105.236 40.8805C105.172 40.8805 105.139 40.8481 105.074 40.8481C103.97 40.6532 102.866 40.4584 101.762 40.2636C101.632 40.2636 101.502 40.1986 101.373 40.1986C101.048 40.1337 100.756 40.1012 100.431 40.1012C99.9113 40.0363 99.3918 39.9714 98.8723 39.9064C98.7099 39.8739 98.5151 39.8739 98.3528 39.8415C97.9956 39.809 97.6384 39.7765 97.3137 39.7116C96.8592 39.6466 96.437 39.6142 95.9824 39.5492C95.8201 39.5168 95.6902 39.5168 95.4954 39.5168C95.0733 39.4843 94.6837 39.4843 94.294 39.4193C93.8719 39.3869 93.4498 39.3544 93.0601 39.3544C92.9303 39.3544 92.8328 39.3219 92.703 39.3219C92.2809 39.2895 91.8263 39.2895 91.3392 39.257C90.9171 39.2245 90.4625 39.2245 90.0404 39.1921C89.9755 39.1921 89.8456 39.1921 89.7806 39.1921C89.3585 39.1596 88.9364 39.192 88.5143 39.1596C87.9948 39.1596 87.4428 39.1271 86.9233 39.1271C86.8583 39.1271 86.7285 39.1271 86.6635 39.1271C86.3388 39.1271 85.9492 39.1271 85.6245 39.1271C84.9751 39.1271 84.3257 39.1271 83.6763 39.1271C83.5464 39.1271 83.4165 39.1271 83.2866 39.1271C82.9619 39.1271 82.6697 39.1596 82.345 39.1596C81.6631 39.192 80.9488 39.1921 80.2669 39.2245C80.0721 39.2245 79.9097 39.257 79.7149 39.257C79.4551 39.257 79.1629 39.2895 78.8706 39.322C78.1238 39.3544 77.4095 39.4193 76.6302 39.4843C76.4029 39.5168 76.1432 39.5167 75.9159 39.5492C75.7211 39.5492 75.4937 39.5817 75.2664 39.6142C74.4547 39.7116 73.6105 39.7765 72.7987 39.8739C72.5065 39.9064 72.2143 39.9389 71.922 39.9713C71.7922 39.9713 71.6948 40.0038 71.5649 40.0038C70.4284 40.1662 69.2595 40.296 68.123 40.4584C68.0581 40.4584 67.9607 40.4909 67.8957 40.4909C67.8957 40.4909 67.8957 40.4909 67.8633 40.5233C66.6294 40.7181 65.363 40.9455 64.0967 41.1727C63.9993 41.2052 63.8694 41.2052 63.772 41.2377C63.5122 41.3026 63.2525 41.3676 62.9603 41.4C62.0511 41.5949 61.1095 41.7572 60.2003 41.952C59.973 41.9845 59.7782 42.0494 59.5509 42.0819C59.3236 42.1144 59.1288 42.1793 58.9015 42.2118C57.9598 42.4391 57.0182 42.6664 56.0441 42.9261C55.7843 42.9911 55.5246 43.056 55.2648 43.1209C55.0051 43.1859 54.7453 43.2508 54.5505 43.3158C53.6413 43.5755 52.7646 43.8028 51.8879 44.095C51.6282 44.16 51.4009 44.2574 51.1411 44.3223C50.6541 44.4847 50.1995 44.6146 49.7124 44.7769C49.3228 44.9068 48.9007 45.0042 48.511 45.1341C48.1538 45.2315 47.8291 45.3614 47.5044 45.4913C47.0499 45.6211 46.5953 45.816 46.1731 45.9783C45.8809 46.0757 45.6536 46.1731 45.3614 46.2706C44.9068 46.4654 44.4522 46.6602 43.9976 46.7901C43.5755 46.9524 43.1859 47.0823 42.7963 47.2771C42.6664 47.3421 42.4716 47.407 42.3417 47.472C41.6923 47.7317 41.0753 48.024 40.4584 48.3162C40.1661 48.4786 39.8739 48.576 39.5817 48.7383C39.5492 48.7708 39.4518 48.8032 39.4194 48.8357C38.4453 49.2903 37.5036 49.7773 36.6269 50.2644C36.5945 50.2969 36.5944 50.2969 36.562 50.3293C36.3671 50.4592 36.1723 50.5242 35.9775 50.6541C35.2631 51.0437 34.5813 51.4009 33.8994 51.823C33.802 51.8555 33.7371 51.9204 33.6721 51.9853C33.3149 52.2126 32.9578 52.4399 32.6331 52.6347C32.211 52.927 31.7564 53.1867 31.3018 53.5114C31.1719 53.5764 31.0745 53.6738 30.9446 53.7387C30.555 53.9985 30.1978 54.2907 29.7757 54.5829C29.451 54.8427 29.0938 55.07 28.7367 55.2973C28.6068 55.4272 28.4769 55.4921 28.347 55.622C27.9574 55.9467 27.5353 56.3038 27.1456 56.6286C26.8534 56.8558 26.5611 57.0831 26.3014 57.3429C26.1715 57.4728 26.0741 57.5702 25.9767 57.6676C25.5221 58.0572 25.1 58.4794 24.6779 58.9015C24.4506 59.1288 24.1584 59.356 23.8986 59.6158C23.8012 59.7132 23.7362 59.7782 23.6388 59.8756C23.0544 60.46 22.5349 61.0445 22.0153 61.629C21.853 61.7913 21.6581 61.9862 21.5282 62.181C21.4958 62.2135 21.4309 62.2784 21.3984 62.3108C21.301 62.4082 21.236 62.5381 21.1386 62.6355C20.6516 63.2525 20.197 63.8369 19.7749 64.4539C19.6775 64.6162 19.5151 64.7786 19.4177 64.9409C19.3527 65.0708 19.2554 65.1682 19.1904 65.2981C18.8657 65.8176 18.541 66.3371 18.2163 66.8567C18.1514 66.9865 18.0215 67.1164 17.9565 67.2463C17.5669 67.9607 17.1773 68.675 16.8201 69.4218C16.7876 69.4543 16.7876 69.5192 16.7551 69.5517C16.4954 70.1362 16.2356 70.7206 16.0083 71.3376C15.9109 71.6298 15.7486 71.922 15.6187 72.2467C15.294 73.1559 14.9693 74.0651 14.742 75.0067L10.7157 90.2028C10.943 89.2611 11.2677 88.352 11.5924 87.4428C11.6898 87.1506 11.8521 86.8583 11.982 86.5336C12.2418 85.9492 12.4691 85.3322 12.7288 84.7478C13.1185 83.9685 13.5081 83.1892 13.9302 82.4424C13.9952 82.3125 14.0926 82.1501 14.19 82.0527C14.5797 81.4033 14.9368 80.7864 15.3914 80.137C15.4888 79.9746 15.6512 79.8123 15.7486 79.6499C16.1707 79.033 16.6253 78.4485 17.1123 77.8316C17.2097 77.7342 17.2746 77.6043 17.3721 77.5069C17.5669 77.2472 17.7942 77.0199 17.989 76.825C18.5085 76.2406 19.0605 75.6236 19.6125 75.0716C19.9372 74.7469 20.2619 74.4222 20.5866 74.0975C21.0087 73.6754 21.4633 73.2858 21.8854 72.8636C22.2751 72.5389 22.6972 72.1818 23.1193 71.8246C23.509 71.4999 23.8986 71.1752 24.3207 70.8181C24.8077 70.4609 25.2623 70.1362 25.7494 69.779C26.139 69.5192 26.4962 69.227 26.8858 68.9672C27.4378 68.6101 28.0223 68.2204 28.5743 67.8632C28.9315 67.6359 29.2562 67.4411 29.6134 67.2138C30.3277 66.7593 31.1394 66.3372 31.9187 65.8826C32.1136 65.7527 32.2759 65.6553 32.5032 65.5579C33.4773 65.0383 34.5164 64.5188 35.5229 64.0318C35.8152 63.8694 36.1074 63.772 36.3996 63.6096C37.1464 63.2525 37.9257 62.9278 38.7375 62.5706C39.1596 62.4083 39.5167 62.2459 39.9389 62.0836C40.6532 61.8238 41.3676 61.4991 42.0819 61.2393C42.504 61.077 42.9911 60.9146 43.4132 60.7523C44.1275 60.4925 44.8743 60.2652 45.6536 60.0055C46.1407 59.8431 46.5953 59.7132 47.0823 59.5509C48.1863 59.2262 49.3228 58.869 50.4592 58.5768C50.9788 58.4469 51.4983 58.317 51.9853 58.2196C52.9269 57.9923 53.9011 57.7326 54.8427 57.5053C55.2648 57.4079 55.6869 57.3104 56.109 57.213C57.0182 57.0182 57.9274 56.8234 58.869 56.661C59.2586 56.5961 59.6158 56.4987 60.0055 56.4337C61.2718 56.2064 62.5057 56.0116 63.772 55.7843C63.8694 55.7519 63.9668 55.7843 64.0642 55.7519C65.2007 55.5895 66.3372 55.4272 67.4736 55.2648C67.8957 55.2323 68.2854 55.1674 68.7075 55.1349C69.5192 55.0375 70.331 54.9401 71.1428 54.9076C71.5973 54.8427 72.0519 54.8427 72.5065 54.7778C73.2533 54.7453 73.9676 54.6804 74.7145 54.6479C75.169 54.6479 75.6236 54.5829 76.0782 54.5829C76.7601 54.5505 77.442 54.518 78.1563 54.518C78.6109 54.518 79.033 54.4855 79.4876 54.4855C80.137 54.4855 80.7864 54.4855 81.4358 54.4855C81.8904 54.4855 82.345 54.4855 82.7346 54.4855C83.2542 54.4855 83.7736 54.4855 84.3256 54.518C84.8452 54.518 85.3647 54.518 85.8842 54.5829C86.3063 54.6154 86.7609 54.6154 87.183 54.6479C87.735 54.6803 88.352 54.7128 88.904 54.7453C89.3261 54.7778 89.7482 54.8102 90.1053 54.8427C90.6573 54.8752 91.2418 54.9401 91.7938 54.9726C92.2159 55.0051 92.6705 55.07 93.0926 55.1024C93.6122 55.1674 94.1317 55.2323 94.6512 55.2973C95.1707 55.3622 95.6902 55.4272 96.2098 55.4921C96.6643 55.557 97.1189 55.622 97.5735 55.6869C98.6775 55.8817 99.8139 56.0441 100.885 56.2714C100.95 56.2714 101.015 56.2714 101.048 56.3039C101.437 56.3688 101.795 56.4662 102.184 56.5312C102.769 56.661 103.321 56.7585 103.905 56.8883C104.327 56.9858 104.684 57.0832 105.107 57.1806C105.626 57.3104 106.178 57.4079 106.698 57.5377C107.834 57.83 108.938 58.1547 110.042 58.4794C110.594 58.6417 111.179 58.8365 111.731 58.9989C111.925 59.0638 112.088 59.0963 112.282 59.1612C113.062 59.421 113.874 59.7132 114.653 59.973C114.783 60.0379 114.945 60.0704 115.075 60.1353C115.757 60.3626 116.439 60.6549 117.088 60.9146C117.218 60.9796 117.38 61.0121 117.51 61.077C118.257 61.3692 118.971 61.6939 119.686 62.0186C119.848 62.116 120.01 62.1485 120.173 62.2459C120.79 62.5381 121.407 62.8304 122.056 63.1551C122.186 63.22 122.283 63.2525 122.413 63.3174C123.095 63.6746 123.809 63.9993 124.491 64.4214C124.654 64.5188 124.816 64.6162 124.978 64.7137C125.53 65.0059 126.05 65.3306 126.602 65.6228C126.764 65.7202 126.927 65.8176 127.121 65.9475C127.771 66.3372 128.42 66.7268 129.07 67.1814C129.199 67.2463 129.264 67.3112 129.394 67.3762C129.946 67.7334 130.498 68.0906 131.018 68.4802C131.213 68.6101 131.375 68.7075 131.537 68.8698C132.057 69.2595 132.609 69.6166 133.128 70.0712C133.193 70.1362 133.291 70.1686 133.356 70.2336C133.94 70.6882 134.525 71.1428 135.077 71.6298C135.206 71.7597 135.401 71.8896 135.531 72.0195C135.953 72.3766 136.375 72.7338 136.798 73.1559C136.96 73.3182 137.122 73.4806 137.285 73.578C137.837 74.0651 138.356 74.5846 138.876 75.1041C139.46 75.6886 139.98 76.273 140.532 76.825C140.694 76.9874 140.856 77.2147 141.019 77.377C141.343 77.7667 141.733 78.1563 142.025 78.5135C142.188 78.7408 142.382 78.9356 142.545 79.1629C142.837 79.5201 143.097 79.8448 143.357 80.2344C143.519 80.4617 143.681 80.689 143.844 80.9163C144.103 81.241 144.331 81.5982 144.525 81.9229C144.688 82.1502 144.85 82.3774 144.98 82.6372C145.175 82.9619 145.37 83.2866 145.532 83.5789C145.662 83.8386 145.824 84.0659 145.954 84.3257C146.084 84.5854 146.214 84.8452 146.344 85.105C146.506 85.4621 146.701 85.7868 146.863 86.144C146.961 86.3713 147.058 86.5986 147.156 86.8259C147.35 87.2805 147.513 87.7026 147.675 88.1247C147.74 88.3195 147.805 88.5143 147.87 88.7091C148.13 89.4884 148.357 90.2352 148.519 90.982C148.552 91.0795 148.552 91.2093 148.617 91.3392C148.779 92.086 148.876 92.8329 148.974 93.5797C148.974 93.6446 148.974 93.7095 148.974 93.7745C149.039 94.5538 149.039 95.2681 149.006 96.0149C149.006 96.1448 149.006 96.2747 148.974 96.4371C148.941 97.1189 148.876 97.8333 148.747 98.5476C148.747 98.6775 148.714 98.7749 148.682 98.9372C148.552 99.6516 148.422 100.366 148.227 101.08L152.253 85.8842C152.448 85.1699 152.578 84.4555 152.708 83.7412C152.708 83.6113 152.773 83.4814 152.773 83.3516C152.87 82.6697 152.935 81.9553 153 81.241C153 81.1111 153 80.9812 153.033 80.8189C153.065 80.0721 153.033 79.3252 153 78.5784C153 78.5135 153 78.4486 152.968 78.4161C152.903 77.7017 152.773 76.9224 152.611 76.1756C152.611 76.1107 152.578 76.0133 152.578 75.9483C152.546 75.9159 152.546 75.8509 152.546 75.8509C152.383 75.1041 152.156 74.3573 151.896 73.578C151.864 73.4806 151.864 73.4157 151.831 73.3832C151.799 73.2858 151.734 73.1559 151.669 73.026C151.507 72.6039 151.312 72.1493 151.149 71.7272C151.084 71.5973 151.052 71.435 150.987 71.3051C150.955 71.2077 150.89 71.1428 150.857 71.0454C150.695 70.6882 150.5 70.3635 150.338 70.0063C150.24 69.8439 150.175 69.6491 150.045 69.4543C149.98 69.3893 149.98 69.3244 149.915 69.2595C149.786 68.9997 149.623 68.7724 149.461 68.4802C149.299 68.2529 149.201 68.0256 149.071 67.8308C149.039 67.7334 148.941 67.636 148.876 67.571C148.714 67.3437 148.552 67.1164 148.422 66.8567C148.292 66.6618 148.13 66.4346 148 66.2398C147.935 66.1099 147.805 65.98 147.708 65.8826C147.545 65.6553 147.383 65.428 147.22 65.2007C147.091 65.0059 146.961 64.876 146.831 64.6812C146.701 64.4863 146.539 64.324 146.409 64.1292C146.246 63.9019 146.052 63.7071 145.889 63.4798C145.792 63.3824 145.727 63.2525 145.597 63.1226C145.37 62.8304 145.11 62.5706 144.85 62.3108C144.688 62.1485 144.525 61.9212 144.363 61.7589C144.298 61.6939 144.266 61.6614 144.201 61.5965C143.746 61.077 143.227 60.5575 142.707 60.0379C142.74 59.1613 142.285 58.7716 141.863 58.3495Z" fill="url(#paint4_linear_736_10087)"/>
<path d="M50.719 58.447C86.2739 48.9982 120.725 56.239 139.135 74.8444C155.565 91.4042 148.974 103.256 142.35 113.387C137.934 121.115 133.745 127.771 141.084 135.174C144.266 138.356 149.818 141.181 154.331 142.253L130.823 156.604C120.53 153.52 111.308 148.389 104.392 141.408C90.7223 127.609 97.3462 117.543 102.574 108.808C106.698 102.152 110.367 96.4047 104.392 90.4301C98.2554 84.2283 86.8259 80.7216 71.7597 84.6829C58.0248 88.3521 51.5307 96.4047 50.3618 106.016L10.1961 93.7097C12.4366 77.507 27.308 64.7137 50.719 58.447Z" fill="url(#paint5_linear_736_10087)"/>
<defs>
<linearGradient id="paint0_linear_736_10087" x1="142.805" y1="171.83" x2="190.863" y2="152.959" gradientUnits="userSpaceOnUse">
<stop stop-color="#F9FBFF"/>
<stop offset="0.623392" stop-color="#C7D9FF"/>
<stop offset="0.95625" stop-color="#61B2FF"/>
</linearGradient>
<linearGradient id="paint1_linear_736_10087" x1="145.369" y1="183.638" x2="191.709" y2="180.522" gradientUnits="userSpaceOnUse">
<stop stop-color="#04FFCB"/>
<stop offset="0.378125" stop-color="#00E0FF"/>
<stop offset="1" stop-color="#1DA8FF"/>
</linearGradient>
<linearGradient id="paint2_linear_736_10087" x1="134.784" y1="114.978" x2="158.033" y2="138.226" gradientUnits="userSpaceOnUse">
<stop stop-color="#EEF4FF"/>
<stop offset="1" stop-color="#EEF4FF" stop-opacity="0"/>
</linearGradient>
<linearGradient id="paint3_linear_736_10087" x1="98.6938" y1="97.0377" x2="109.441" y2="107.785" gradientUnits="userSpaceOnUse">
<stop stop-color="#E5EDFF"/>
<stop offset="1" stop-color="#2595FF" stop-opacity="0"/>
</linearGradient>
<linearGradient id="paint4_linear_736_10087" x1="13.8039" y1="93.1237" x2="129.647" y2="56.2567" gradientUnits="userSpaceOnUse">
<stop stop-color="#F9FBFF"/>
<stop offset="0.623392" stop-color="#C7D9FF"/>
<stop offset="0.95625" stop-color="#61B2FF"/>
</linearGradient>
<linearGradient id="paint5_linear_736_10087" x1="24.9862" y1="110.946" x2="149.994" y2="98.6246" gradientUnits="userSpaceOnUse">
<stop stop-color="#04FFCB"/>
<stop offset="0.378125" stop-color="#00E0FF"/>
<stop offset="1" stop-color="#1DA8FF"/>
</linearGradient>
</defs>
</svg>
