<svg width="662" height="714" viewBox="0 0 662 714" fill="none" xmlns="http://www.w3.org/2000/svg">
<path d="M544.684 506.475C544.107 505.722 543.505 505.158 542.928 504.404C542.681 504.081 542.326 503.841 541.996 503.41C541.914 503.303 541.749 503.087 541.667 502.98C541.502 502.764 541.255 502.441 540.982 502.308C540.298 501.637 539.721 500.884 539.119 500.32C538.435 499.649 537.75 498.977 537.066 498.306C536.983 498.198 536.983 498.198 536.901 498.091C536.819 497.983 536.819 497.983 536.736 497.875C536.134 497.312 535.532 496.748 534.93 496.185C534.246 495.514 533.371 494.817 532.579 494.228C532.224 493.988 531.869 493.747 531.54 493.316C531.375 493.101 531.185 493.076 531.02 492.86C530.665 492.62 530.5 492.405 530.145 492.164C529.271 491.467 528.479 490.879 527.604 490.182C526.895 489.701 526.103 489.112 525.393 488.631C525.31 488.523 525.31 488.523 525.12 488.498C525.038 488.39 525.038 488.39 524.956 488.283C524.163 487.694 523.181 487.08 522.389 486.491C521.597 485.902 520.615 485.288 519.715 484.781C519.443 484.649 519.278 484.433 519.088 484.408C519.005 484.3 518.733 484.167 518.65 484.06C518.106 483.794 517.668 483.446 517.123 483.18C516.224 482.673 515.324 482.167 514.424 481.66C513.797 481.287 512.979 480.888 512.352 480.515C512.27 480.407 512.08 480.382 512.08 480.382C511.997 480.274 511.807 480.249 511.807 480.249C510.907 479.742 510.008 479.236 509 478.812C507.91 478.28 506.928 477.666 505.921 477.242C505.731 477.217 505.648 477.109 505.458 477.084C505.186 476.951 504.996 476.926 504.831 476.71C504.013 476.312 503.114 475.805 502.189 475.489C501.181 475.065 500.174 474.641 499.356 474.242C498.621 473.951 498.077 473.685 497.342 473.394C497.069 473.261 496.797 473.128 496.524 472.995C495.599 472.679 494.782 472.28 493.939 472.071C492.469 471.489 490.999 470.907 489.612 470.432C489.339 470.299 489.067 470.166 488.686 470.116C487.299 469.641 485.804 469.249 484.416 468.774C483.954 468.616 483.301 468.433 482.839 468.275C482.756 468.167 482.648 468.249 482.566 468.142C481.179 467.667 479.766 467.383 478.461 467.016C477.618 466.807 476.775 466.598 475.933 466.389C475.743 466.364 475.552 466.339 475.28 466.206C475.09 466.181 474.9 466.155 474.818 466.048C473.595 465.789 472.562 465.555 471.339 465.295C470.199 465.144 469.084 464.802 467.943 464.65C466.803 464.499 465.77 464.265 464.63 464.113C463.49 463.962 462.349 463.81 461.209 463.659C461.019 463.633 460.829 463.608 460.639 463.583C460.449 463.558 460.259 463.532 460.069 463.507C459.308 463.406 458.548 463.305 457.68 463.286C456.54 463.135 455.374 463.173 454.316 463.129C453.936 463.079 453.638 463.136 453.258 463.085C453.068 463.06 452.77 463.117 452.58 463.092C452.01 463.016 451.522 463.048 450.952 462.972C449.894 462.928 448.919 462.992 447.861 462.948C447.183 462.955 446.695 462.987 446.017 462.993C445.827 462.968 445.637 462.943 445.529 463.025C445.339 463 445.042 463.057 444.852 463.032C443.876 463.095 442.9 463.159 442.033 463.14C441.057 463.204 440.164 463.376 439.296 463.357C439.106 463.332 438.998 463.414 438.808 463.389C438.023 463.478 437.427 463.592 436.642 463.681C435.748 463.853 434.963 463.941 434.07 464.113C433.474 464.227 432.879 464.342 432.283 464.456C432.176 464.538 431.986 464.513 431.986 464.513C431.878 464.595 431.688 464.57 431.58 464.652C430.687 464.824 429.984 465.02 429.173 465.3C428.363 465.579 427.66 465.775 426.849 466.054C426.741 466.137 426.443 466.194 426.336 466.276C426.228 466.359 426.038 466.333 425.93 466.416C425.525 466.555 425.119 466.695 424.606 466.917C423.796 467.196 423.067 467.583 422.257 467.862C421.744 468.084 421.338 468.223 420.907 468.553C420.8 468.635 420.692 468.717 420.502 468.692C420.394 468.775 420.097 468.832 419.989 468.914C419.261 469.301 418.425 469.77 417.696 470.157C417.075 470.461 416.645 470.791 416.106 471.203C415.999 471.285 415.891 471.367 415.784 471.45C415.676 471.532 415.676 471.532 415.568 471.615C414.815 472.192 413.978 472.661 413.225 473.237C412.794 473.567 412.471 473.814 412.148 474.061C411.933 474.226 411.718 474.391 411.395 474.638C411.179 474.803 410.964 474.968 410.749 475.133C409.862 475.982 409.083 476.749 408.387 477.623L408.279 477.706C408.038 478.06 407.798 478.415 407.45 478.853C406.861 479.645 406.189 480.329 405.791 481.147C405.683 481.229 405.765 481.337 405.658 481.419C404.695 482.838 403.923 484.283 403.316 485.943L385.62 528.851C386.31 527.299 387.082 525.854 387.962 524.327C388.469 523.427 389.165 522.553 389.754 521.76C389.995 521.406 390.235 521.051 390.583 520.614C391.495 519.574 392.515 518.452 393.699 517.546C393.914 517.381 394.13 517.216 394.453 516.969C395.637 516.063 396.821 515.156 398.006 514.25C398.113 514.168 398.221 514.085 398.329 514.003C399.703 513.122 401.16 512.348 402.724 511.492C402.832 511.41 402.939 511.328 403.129 511.353C404.669 510.687 406.315 509.939 408.045 509.298C408.152 509.216 408.342 509.241 408.45 509.159C410.262 508.626 412.181 508.011 414.183 507.503C414.29 507.421 414.48 507.446 414.48 507.446C416.482 506.938 418.648 506.646 420.923 506.271C423.089 505.979 425.338 505.795 427.669 505.718C427.859 505.743 428.049 505.768 428.157 505.686C430.298 505.584 432.522 505.589 434.638 505.677C434.828 505.702 435.125 505.645 435.315 505.67C437.539 505.676 439.737 505.871 442.018 506.174C442.208 506.2 442.398 506.225 442.588 506.25C444.977 506.471 447.448 506.799 449.811 507.21C452.174 507.621 454.727 508.057 457.147 508.766C457.337 508.791 457.527 508.816 457.8 508.949C460.138 509.55 462.476 510.151 464.706 510.834C465.168 510.992 465.821 511.176 466.283 511.334C468.051 511.859 469.819 512.384 471.479 512.992C472.949 513.574 474.336 514.049 475.806 514.631C477.004 515.08 478.119 515.422 479.209 515.953C479.861 516.137 480.489 516.51 481.224 516.801C483.048 517.624 484.873 518.447 486.698 519.27C486.97 519.403 487.16 519.428 487.325 519.644C489.587 520.815 491.849 521.986 494.029 523.049C494.112 523.157 494.302 523.182 494.302 523.182C496.456 524.435 498.528 525.581 500.575 526.917C500.657 527.025 500.93 527.158 501.012 527.265C503.059 528.601 505.106 529.937 507.127 531.463C507.209 531.571 507.209 531.571 507.399 531.596C509.339 533.014 511.278 534.433 513.027 535.826C513.191 536.041 513.382 536.066 513.546 536.281C515.378 537.782 517.019 539.258 518.743 540.841C518.825 540.948 518.825 540.948 518.908 541.056C520.631 542.639 522.247 544.304 523.674 545.945C523.756 546.052 523.921 546.268 524.003 546.375C525.512 548.123 526.938 549.763 528.256 551.486C529.574 553.209 530.703 554.906 531.831 556.603C531.913 556.711 532.078 556.926 532.161 557.034C533.206 558.624 534.062 560.188 534.728 561.727C534.893 561.942 534.868 562.132 535.033 562.348C535.698 563.887 536.364 565.426 536.947 566.858C537.005 567.155 537.169 567.371 537.227 567.668C537.785 569.29 538.26 570.804 538.546 572.292C538.603 572.59 538.578 572.78 538.66 572.888C538.864 574.269 539.067 575.65 539.27 577.031C539.22 577.411 539.359 577.816 539.309 578.196C539.347 579.362 539.303 580.42 539.259 581.478C539.291 581.966 539.133 582.428 539.165 582.916C539.038 583.866 538.887 585.007 538.678 585.849C538.628 586.229 538.47 586.692 538.419 587.072C538.052 588.377 537.685 589.682 537.211 591.07L555.153 548.485C555.71 547.205 556.077 545.9 556.362 544.487C556.412 544.107 556.57 543.645 556.621 543.264C556.855 542.232 556.981 541.281 557.108 540.331C557.076 539.843 557.234 539.381 557.202 538.893C557.246 537.835 557.29 536.777 557.251 535.611C557.302 535.231 557.245 534.934 557.213 534.446C557.238 534.256 557.238 534.256 557.263 534.066C557.143 532.792 556.914 531.601 556.686 530.411C556.628 530.113 556.654 529.923 556.597 529.625C556.368 528.434 556.032 527.326 555.721 526.027C555.581 525.622 555.524 525.324 555.385 524.919C555.327 524.621 555.163 524.406 555.106 524.108C554.966 523.702 554.909 523.405 554.769 522.999C554.408 522.081 554.047 521.162 553.603 520.136C553.438 519.921 553.381 519.623 553.216 519.408C553.051 519.193 553.076 519.003 552.912 518.787C552.69 518.274 552.442 517.951 552.22 517.438C551.834 516.71 551.365 515.874 550.896 515.038C550.648 514.715 550.509 514.309 550.262 513.986C550.179 513.879 550.014 513.663 549.932 513.556C549.767 513.34 549.628 512.935 549.463 512.72C549.076 511.991 548.499 511.238 548.005 510.592C547.428 509.838 546.934 509.192 546.357 508.438C545.863 507.792 545.286 507.039 544.684 506.475Z" fill="url(#paint0_linear_736_10167)"/>
<path d="M420.898 506.461C457.405 501.74 506.605 522.302 528.744 551.454C550.802 580.497 538.606 608.953 502.207 613.592C465.7 618.313 416.5 597.751 394.36 568.599C372.195 539.638 384.391 511.183 420.898 506.461Z" fill="url(#paint1_linear_736_10167)"/>
<path d="M441.43 398.555C439.878 397.865 438.243 397.067 436.716 396.188L436.634 396.08C435.107 395.2 433.389 394.295 431.888 393.225C431.805 393.117 431.615 393.092 431.533 392.984C429.923 391.996 428.504 391.034 427.002 389.964C426.92 389.856 426.92 389.856 426.729 389.831C425.228 388.761 423.643 387.583 422.249 386.431C422.167 386.323 422.167 386.323 422.084 386.216C420.69 385.063 419.296 383.911 418.092 382.784C418.01 382.676 417.927 382.568 417.737 382.543C416.451 381.308 415.164 380.074 414.068 378.864L413.985 378.756C412.806 377.439 411.71 376.23 410.721 374.938C409.485 373.323 408.439 371.733 407.393 370.143C407.311 370.036 407.229 369.928 407.229 369.928C406.373 368.364 405.599 366.907 404.933 365.368C404.851 365.26 404.769 365.152 404.794 364.962C404.21 363.531 403.709 362.207 403.316 360.801C403.259 360.503 403.177 360.395 403.12 360.098C402.866 359.097 402.72 358.014 402.466 357.013C402.434 356.525 402.294 356.12 402.263 355.632C402.174 354.846 402.192 353.978 402.211 353.11C402.204 352.433 402.172 351.945 402.166 351.267C402.184 350.399 402.285 349.639 402.412 348.689C402.488 348.118 402.456 347.631 402.532 347.06C402.658 346.11 402.974 345.185 403.183 344.342C403.341 343.88 403.392 343.5 403.55 343.037C403.917 341.732 404.391 340.345 404.948 339.065L387.253 381.973C386.696 383.252 386.221 384.64 385.854 385.945C385.696 386.408 385.646 386.788 385.487 387.25C385.279 388.093 385.045 389.126 384.836 389.968C384.76 390.538 384.684 391.109 384.716 391.596C384.615 392.357 384.489 393.307 384.47 394.175C384.394 394.745 384.509 395.341 384.433 395.911C384.44 396.589 384.364 397.159 384.478 397.754C384.453 397.944 384.51 398.242 384.592 398.35C384.624 398.837 384.764 399.243 384.796 399.731C384.827 400.218 384.942 400.814 384.974 401.302C385.088 401.897 385.227 402.302 385.342 402.898C385.399 403.196 385.481 403.303 385.538 403.601C385.621 403.709 385.595 403.899 385.678 404.006C385.874 404.71 386.154 405.52 386.433 406.331C386.572 406.736 386.794 407.25 387.016 407.763C387.098 407.87 387.181 407.978 387.156 408.168C387.238 408.276 387.32 408.383 387.295 408.573C387.599 409.194 387.986 409.922 388.29 410.543C388.595 411.164 388.899 411.785 389.311 412.323C389.394 412.43 389.476 412.538 389.558 412.646C389.641 412.753 389.723 412.861 389.723 412.861C389.97 413.184 390.192 413.697 390.439 414.02C390.851 414.558 391.156 415.179 391.65 415.825C392.062 416.364 392.556 417.01 392.968 417.548C393.298 417.978 393.628 418.409 393.957 418.84C394.287 419.27 394.699 419.809 395.136 420.157C395.466 420.588 395.903 420.936 396.233 421.366L396.315 421.474L396.397 421.582C396.809 422.12 397.329 422.576 397.849 423.032C398.368 423.488 398.78 424.026 399.382 424.59C399.547 424.805 399.82 424.938 400.067 425.261C400.149 425.369 400.232 425.476 400.422 425.502C400.586 425.717 400.859 425.85 401.106 426.173C401.708 426.736 402.31 427.3 402.938 427.674C403.457 428.129 403.977 428.585 404.414 428.934C404.497 429.041 404.497 429.041 404.579 429.149C404.661 429.257 404.661 429.257 404.744 429.364C405.453 429.845 406.056 430.409 406.765 430.89C407.475 431.371 408.185 431.852 408.787 432.416C408.869 432.524 408.869 432.524 408.869 432.524C408.952 432.631 408.952 432.631 409.142 432.657C409.769 433.03 410.289 433.486 410.916 433.86C411.626 434.341 412.335 434.822 412.963 435.195C413.235 435.328 413.507 435.461 413.672 435.677C413.755 435.784 413.945 435.81 414.027 435.917C414.3 436.05 414.654 436.291 414.927 436.424C415.554 436.797 416.182 437.171 416.809 437.544C417.436 437.918 418.064 438.291 418.608 438.557L418.691 438.665L418.773 438.772C419.318 439.038 419.863 439.304 420.408 439.57C421.035 439.944 421.58 440.209 422.315 440.501C422.778 440.659 423.133 440.899 423.595 441.058C423.677 441.165 423.868 441.19 423.95 441.298C424.14 441.323 424.222 441.431 424.413 441.456C425.42 441.88 426.237 442.279 427.162 442.595C427.707 442.861 428.17 443.02 428.632 443.178L446.328 400.27C444.858 399.688 443.116 398.972 441.563 398.282C441.703 398.688 441.513 398.663 441.43 398.555Z" fill="url(#paint2_linear_736_10167)"/>
<path d="M307.285 301.131L324.981 258.223C324.158 260.048 323.228 261.955 322.215 263.754C321.949 264.299 321.493 264.819 321.227 265.364C320.347 266.891 319.277 268.393 318.207 269.895C318.074 270.167 317.859 270.332 317.726 270.604C316.415 272.461 315.022 274.21 313.522 276.042C313.173 276.479 312.718 276.998 312.369 277.436C310.976 279.185 309.583 280.934 308.083 282.765C307.038 284.077 306.101 285.306 305.056 286.618C304.708 287.055 304.359 287.493 304.119 287.847C303.315 288.804 302.593 289.869 301.789 290.826C301.333 291.346 301.067 291.89 300.611 292.41C299.915 293.285 299.301 294.267 298.604 295.141C298.148 295.661 297.775 296.288 297.426 296.725C296.812 297.708 296.116 298.582 295.394 299.647C295.153 300.002 294.805 300.439 294.565 300.794C294.457 300.876 294.431 301.066 294.431 301.066C293.203 303.031 292.083 304.913 290.962 306.794C290.722 307.149 290.563 307.612 290.215 308.049C289.069 310.121 288.114 312.218 287.158 314.316L269.462 357.224C270.336 355.019 271.374 353.029 272.52 350.957C272.76 350.602 272.918 350.14 273.267 349.702C274.305 347.713 275.533 345.748 276.736 343.974C277.084 343.537 277.35 342.992 277.698 342.555C278.313 341.572 279.009 340.698 279.731 339.633C280.187 339.114 280.56 338.486 280.908 338.049C281.605 337.175 282.219 336.193 282.915 335.318C283.371 334.798 283.637 334.253 284.093 333.734C284.897 332.777 285.619 331.712 286.423 330.755C286.771 330.318 287.12 329.881 287.468 329.444C288.513 328.132 289.45 326.902 290.495 325.591C291.995 323.759 293.388 322.01 294.781 320.261C295.13 319.824 295.585 319.304 295.934 318.867C297.434 317.036 298.745 315.179 300.138 313.43C300.271 313.157 300.486 312.993 300.619 312.72C301.233 311.738 301.93 310.864 302.544 309.881C302.917 309.254 303.183 308.709 303.639 308.189C303.905 307.644 304.361 307.125 304.627 306.58C305.532 304.863 306.545 303.063 307.285 301.131Z" fill="url(#paint3_linear_736_10167)"/>
<path d="M424.979 193.471C424.732 193.148 424.567 192.932 424.32 192.609C423.908 192.071 423.496 191.533 423.058 191.185C422.564 190.539 422.069 189.893 421.467 189.329C420.973 188.683 420.289 188.012 419.794 187.366C419.465 186.935 418.945 186.479 418.615 186.049C418.451 185.833 418.203 185.51 417.931 185.377C416.752 184.06 415.466 182.825 414.287 181.508C414.204 181.401 414.204 181.401 414.122 181.293C413.957 181.078 413.685 180.945 413.52 180.729C412.588 179.735 411.549 178.823 410.535 177.721C410.098 177.373 409.768 176.942 409.331 176.594C408.811 176.138 408.374 175.79 407.962 175.252C407.525 174.904 407.113 174.365 406.675 174.017C405.719 173.213 404.679 172.301 403.64 171.389C403.285 171.148 403.12 170.933 402.765 170.693C402.683 170.585 402.601 170.477 402.41 170.452C401.016 169.3 399.622 168.147 398.228 166.995C397.956 166.862 397.708 166.539 397.436 166.406C396.999 166.058 396.561 165.709 396.042 165.254C395.332 164.772 394.648 164.101 393.938 163.62C393.146 163.031 392.436 162.55 391.644 161.961C391.207 161.613 390.769 161.265 390.224 160.999C389.952 160.866 389.787 160.65 389.432 160.41C387.931 159.34 386.511 158.378 385.009 157.308C384.927 157.2 384.737 157.175 384.572 156.959C384.217 156.719 383.945 156.586 383.59 156.345C382.608 155.731 381.625 155.117 380.561 154.395C379.851 153.914 379.141 153.433 378.324 153.034C377.887 152.686 377.424 152.528 376.987 152.179C376.715 152.046 376.36 151.806 376.087 151.673C374.56 150.793 373.141 149.831 371.614 148.951C371.341 148.818 371.259 148.71 370.986 148.577C370.631 148.336 370.169 148.178 369.814 147.938C368.914 147.431 368.014 146.925 367.115 146.418C366.215 145.912 365.207 145.488 364.225 144.874C363.87 144.633 363.408 144.475 363.053 144.234C362.781 144.102 362.698 143.994 362.426 143.861C360.626 142.848 358.719 141.918 356.894 141.095C356.704 141.069 356.622 140.962 356.432 140.936C355.887 140.671 355.342 140.405 354.879 140.247C353.599 139.69 352.427 139.05 351.147 138.493C350.875 138.36 350.412 138.202 350.14 138.069C347.035 136.689 343.93 135.31 340.718 134.012C340.718 134.012 340.636 133.905 340.528 133.987C339.058 133.405 337.588 132.823 336.201 132.348C335.003 131.899 333.996 131.475 332.798 131.025C331.138 130.418 329.56 129.918 327.9 129.31C326.785 128.969 325.778 128.545 324.663 128.203C324.663 128.203 324.663 128.203 324.58 128.095C324.39 128.07 324.308 127.963 324.118 127.937C320.963 126.938 317.807 125.938 314.652 124.938C314.272 124.888 313.917 124.647 313.537 124.597C312.612 124.28 311.769 124.072 310.819 123.945C309.324 123.553 307.829 123.161 306.333 122.769C305.871 122.611 305.301 122.535 304.838 122.377C303.805 122.143 302.773 121.909 301.848 121.592C300.542 121.225 299.32 120.966 298.015 120.599C297.552 120.441 297.172 120.39 296.602 120.315C295.379 120.055 294.239 119.904 293.124 119.562C291.901 119.303 290.678 119.044 289.538 118.892C289.157 118.842 288.885 118.709 288.505 118.658C287.282 118.399 285.952 118.222 284.539 117.937C283.316 117.678 281.986 117.501 280.763 117.242C280.573 117.217 280.193 117.166 280.003 117.141C278.78 116.882 277.532 116.813 276.309 116.553C274.789 116.351 273.186 116.042 271.665 115.839C271.475 115.814 271.095 115.764 270.905 115.738C269.955 115.612 268.814 115.46 267.864 115.334C265.963 115.081 264.063 114.829 262.162 114.576C261.782 114.526 261.402 114.475 261.022 114.425C260.072 114.298 259.204 114.28 258.253 114.153C256.245 113.983 254.154 113.705 252.146 113.535C251.576 113.459 251.088 113.491 250.518 113.415C249.758 113.314 248.89 113.296 248.022 113.277C245.824 113.081 243.708 112.994 241.402 112.88C240.724 112.887 239.964 112.786 239.286 112.793C238.716 112.717 238.038 112.723 237.36 112.73C234.946 112.699 232.45 112.561 230.036 112.53C229.169 112.512 228.301 112.493 227.433 112.474C227.053 112.424 226.755 112.481 226.375 112.43C222.986 112.463 219.514 112.389 216.125 112.422C215.935 112.396 215.637 112.454 215.447 112.428C215.447 112.428 215.447 112.428 215.339 112.511C211.652 112.601 207.858 112.773 204.063 112.946C203.765 113.003 203.385 112.953 203.087 113.01C202.302 113.099 201.516 113.188 200.649 113.169C197.912 113.386 195.093 113.494 192.356 113.711C191.678 113.718 191.083 113.832 190.405 113.838C189.727 113.845 189.132 113.959 188.454 113.966C185.61 114.265 182.765 114.564 179.813 114.945C179.028 115.034 178.242 115.123 177.457 115.212C176.671 115.301 175.886 115.39 175.29 115.504C172.528 115.911 169.874 116.235 167.195 116.749C166.409 116.838 165.706 117.035 164.921 117.124C163.432 117.409 162.051 117.613 160.562 117.898C159.371 118.127 158.098 118.248 156.907 118.476C155.824 118.623 154.823 118.876 153.822 119.13C152.441 119.333 151.035 119.727 149.737 120.038C148.843 120.209 148.14 120.406 147.247 120.577C145.841 120.97 144.435 121.364 143.054 121.567C141.755 121.878 140.564 122.107 139.348 122.525C138.943 122.665 138.347 122.779 137.942 122.919C135.94 123.426 134.021 124.041 132.102 124.657C131.183 125.018 130.29 125.19 129.372 125.551C129.264 125.633 128.966 125.69 128.859 125.773C125.831 126.724 122.886 127.783 120.13 128.868C120.023 128.95 120.023 128.95 119.915 129.033C119.294 129.337 118.699 129.451 118.078 129.756C115.836 130.618 113.701 131.398 111.541 132.368C111.244 132.425 111.028 132.59 110.813 132.755C109.679 133.281 108.545 133.808 107.519 134.251C106.17 134.942 104.739 135.526 103.282 136.299C102.877 136.439 102.554 136.686 102.148 136.826C100.907 137.434 99.7478 138.151 98.3987 138.842C97.3474 139.476 96.2137 140.002 95.0799 140.528C94.6492 140.858 94.2439 140.997 93.8132 141.327C92.5466 142.125 91.1722 143.007 89.9055 143.805C88.9618 144.357 88.0181 144.908 87.1568 145.568C86.7261 145.897 86.4031 146.144 86.0801 146.392C84.5981 147.355 83.1985 148.426 81.7989 149.497C81.0452 150.074 80.1016 150.626 79.2403 151.285C78.9173 151.532 78.702 151.697 78.379 151.944C76.4411 153.427 74.6932 154.936 72.9454 156.444C72.4071 156.856 71.761 157.351 71.3051 157.87C71.1974 157.953 70.9822 158.117 70.8745 158.2C70.5515 158.447 70.3109 158.802 69.9879 159.049C68.3225 160.665 66.7646 162.199 65.2892 163.84C64.941 164.277 64.4026 164.69 64.0544 165.127C63.8138 165.482 63.4909 165.729 63.2503 166.084C62.0979 167.478 60.9454 168.872 59.793 170.266C59.5524 170.621 59.1218 170.951 58.8812 171.305C57.4629 173.245 56.0447 175.184 54.7088 177.23C54.6012 177.313 54.5758 177.503 54.4682 177.585C53.4806 179.195 52.4929 180.804 51.5877 182.521C51.1889 183.339 50.6001 184.131 50.0936 185.031C48.7896 187.565 47.4857 190.1 46.4541 192.767L28.7586 235.675C29.7901 233.008 31.0941 230.473 32.3981 227.939C32.7969 227.121 33.3857 226.329 33.8922 225.429C34.8798 223.82 35.785 222.103 36.7726 220.493C38.2162 218.364 39.6597 216.235 41.1857 214.213C41.4263 213.858 41.7745 213.421 42.0975 213.174C43.4905 211.425 44.7758 209.758 46.3588 208.035C46.7071 207.597 47.2455 207.185 47.5937 206.748C49.0691 205.107 50.6269 203.573 52.2924 201.957C52.6154 201.71 52.8559 201.355 53.1789 201.108C53.8501 200.423 54.6037 199.847 55.2497 199.352C56.9976 197.844 58.8532 196.253 60.6834 194.852C61.7601 194.028 62.8367 193.204 63.9133 192.38C65.3129 191.309 66.795 190.345 68.1946 189.274C69.4613 188.475 70.8356 187.594 72.21 186.713C73.4767 185.914 74.7432 185.116 76.1176 184.235C77.682 183.379 79.1388 182.605 80.7032 181.75C81.9446 181.141 83.1036 180.425 84.3451 179.816C86.0995 178.985 87.9617 178.072 89.7162 177.242C90.85 176.715 91.876 176.272 93.0098 175.745C95.2773 174.693 97.8173 173.773 100.275 172.746C100.896 172.442 101.409 172.22 102.112 172.023C105.165 170.881 108.408 169.765 111.543 168.731C112.462 168.37 113.355 168.198 114.273 167.837C116.598 167.082 119.005 166.435 121.52 165.706C122.818 165.395 123.927 165.058 125.225 164.748C127.417 164.265 129.634 163.593 131.826 163.11C133.124 162.799 134.613 162.514 135.911 162.203C138.103 161.721 140.377 161.346 142.759 160.889C144.248 160.603 145.629 160.4 147.117 160.114C150.475 159.593 153.94 158.99 157.38 158.577C158.951 158.399 160.521 158.221 161.985 158.125C164.829 157.826 167.781 157.445 170.625 157.146C171.899 157.025 173.172 156.905 174.445 156.784C177.182 156.567 179.919 156.351 182.738 156.242C183.903 156.203 184.987 156.057 186.152 156.019C189.947 155.846 193.634 155.756 197.428 155.583C197.726 155.526 197.998 155.659 198.296 155.602C201.685 155.569 205.075 155.536 208.464 155.503C209.712 155.572 210.878 155.534 212.126 155.603C214.539 155.634 216.953 155.664 219.341 155.885C220.697 155.872 222.027 156.049 223.383 156.036C225.581 156.231 227.697 156.319 229.896 156.514C231.226 156.691 232.582 156.678 233.912 156.855C235.921 157.025 237.929 157.195 240.019 157.473C241.35 157.65 242.598 157.719 243.928 157.896C245.829 158.149 247.73 158.401 249.63 158.654C250.961 158.831 252.291 159.008 253.431 159.159C254.952 159.361 256.472 159.564 258.075 159.873C259.596 160.075 261.116 160.278 262.611 160.67C263.834 160.929 265.165 161.106 266.387 161.365C267.99 161.675 269.783 162.01 271.386 162.32C272.609 162.579 273.832 162.838 274.864 163.072C276.467 163.382 278.153 163.799 279.755 164.109C280.978 164.368 282.283 164.735 283.506 164.994C285.001 165.387 286.497 165.779 287.992 166.171C289.487 166.563 290.982 166.955 292.477 167.348C293.783 167.714 295.088 168.081 296.393 168.448C299.548 169.448 302.811 170.365 305.859 171.447C306.049 171.473 306.239 171.498 306.321 171.605C307.436 171.947 308.444 172.371 309.559 172.713C311.219 173.32 312.796 173.82 314.456 174.428C315.654 174.877 316.661 175.301 317.859 175.75C319.329 176.333 320.907 176.832 322.376 177.415C325.589 178.712 328.694 180.092 331.798 181.472C333.351 182.161 334.985 182.959 336.538 183.649C337.083 183.915 337.545 184.073 338.09 184.339C340.27 185.402 342.532 186.573 344.712 187.637C345.066 187.877 345.529 188.035 345.884 188.276C347.791 189.207 349.673 190.327 351.473 191.34C351.827 191.581 352.29 191.739 352.645 191.979C354.717 193.125 356.681 194.353 358.645 195.582C359.083 195.93 359.545 196.088 359.983 196.436C361.674 197.532 363.366 198.627 365.141 199.83C365.495 200.07 365.768 200.203 366.123 200.444C367.98 201.754 369.944 202.983 371.775 204.483C372.213 204.832 372.65 205.18 373.087 205.528C374.589 206.598 375.983 207.751 377.485 208.821C377.922 209.169 378.359 209.517 378.879 209.973C380.628 211.366 382.377 212.759 384.101 214.342C384.456 214.583 384.621 214.798 384.975 215.039C386.452 216.299 387.928 217.559 389.297 218.901C389.817 219.357 390.254 219.705 390.666 220.244C392.035 221.586 393.512 222.846 394.855 224.379C395.02 224.594 395.293 224.727 395.457 224.942C396.991 226.5 398.525 228.058 399.951 229.698C400.28 230.129 400.8 230.585 401.13 231.015C402.226 232.225 403.323 233.434 404.394 234.834C404.806 235.372 405.218 235.911 405.655 236.259C407.081 237.899 408.399 239.622 409.718 241.344C411.201 243.282 412.494 245.195 413.895 247.025C414.307 247.564 414.694 248.292 415.106 248.83C415.904 250.097 416.893 251.389 417.609 252.548C417.996 253.276 418.491 253.922 418.877 254.651C419.594 255.81 420.228 256.861 420.836 258.102C421.223 258.831 421.61 259.559 421.996 260.288C422.63 261.339 423.157 262.473 423.6 263.499C423.987 264.227 424.374 264.956 424.653 265.766C425.097 266.792 425.541 267.819 425.902 268.737C426.181 269.548 426.568 270.276 426.847 271.087C427.126 271.898 427.405 272.708 427.684 273.519C428.02 274.628 428.464 275.654 428.8 276.762C428.997 277.465 429.194 278.168 429.39 278.872C429.784 280.278 430.095 281.576 430.406 282.875C430.52 283.47 430.634 284.066 430.749 284.661C431.206 287.043 431.58 289.317 431.765 291.566C431.822 291.864 431.771 292.244 431.911 292.649C432.096 294.898 432.09 297.122 432.085 299.345C432.059 299.535 432.034 299.725 432.009 299.915C431.896 302.221 431.618 304.312 431.232 306.485C431.182 306.865 431.131 307.246 430.973 307.708C430.613 309.691 430.145 311.756 429.487 313.797C429.436 314.177 429.303 314.449 429.145 314.912C428.487 316.952 427.829 318.992 426.981 321.007L444.677 278.099C445.525 276.084 446.183 274.044 446.841 272.004C446.891 271.624 447.132 271.269 447.182 270.889C447.733 268.931 448.201 266.865 448.669 264.8C448.719 264.42 448.77 264.04 448.928 263.577C449.313 261.404 449.509 259.206 449.704 257.008C449.73 256.818 449.755 256.628 449.673 256.52C449.76 254.404 449.683 252.073 449.499 249.824C449.524 249.634 449.467 249.336 449.492 249.146C449.41 249.038 449.435 248.848 449.435 248.848C449.251 246.599 448.876 244.325 448.419 241.943C448.362 241.646 448.387 241.456 448.304 241.348C448.247 241.05 448.108 240.645 447.968 240.239C447.657 238.941 447.264 237.535 446.953 236.236C446.814 235.831 446.782 235.343 446.642 234.938C446.585 234.64 446.42 234.425 446.363 234.127C446.027 233.018 445.583 231.992 445.247 230.884C445.025 230.371 444.911 229.775 444.606 229.154C444.442 228.939 444.467 228.749 444.302 228.534C444.023 227.723 443.636 226.995 443.275 226.076C442.888 225.348 442.691 224.645 442.387 224.024C442.33 223.726 442.083 223.403 441.918 223.188C441.531 222.46 441.144 221.731 440.865 220.92C440.561 220.3 440.174 219.571 439.87 218.951C439.73 218.545 439.401 218.115 439.154 217.792C438.767 217.063 438.38 216.335 437.993 215.607C437.689 214.986 437.36 214.555 437.055 213.934C436.751 213.314 436.339 212.775 436.035 212.155C435.648 211.426 435.153 210.78 434.767 210.052C434.519 209.729 434.38 209.324 434.05 208.893C433.499 207.949 432.84 207.088 432.18 206.227C431.768 205.688 431.382 204.96 430.97 204.422C430.805 204.206 430.723 204.099 430.558 203.883C429.429 202.186 428.111 200.463 426.793 198.741C427.229 196.188 426.05 194.87 424.979 193.471Z" fill="url(#paint4_linear_736_10167)"/>
<path d="M158.19 158.298C265.924 144.476 363.935 179.071 410.579 240.685C452.222 295.543 428.32 327.665 404.993 354.737C389.062 375.636 374.214 393.488 392.81 418.01C400.885 428.561 416.037 438.989 428.829 443.88L354.444 476.738C325.519 463.706 300.526 445.104 283.001 421.982C248.361 376.276 271.663 349.393 290.361 325.864C305.02 307.987 317.994 292.594 302.833 272.784C287.285 252.246 255.198 237.536 209.563 243.268C167.938 248.663 145.799 269.705 138.639 297.379L25.8735 245.737C38.7339 199.188 87.235 167.531 158.19 158.298Z" fill="url(#paint5_linear_736_10167)"/>
<defs>
<linearGradient id="paint0_linear_736_10167" x1="383.588" y1="525.96" x2="531.581" y2="489.428" gradientUnits="userSpaceOnUse">
<stop stop-color="#F9FBFF"/>
<stop offset="0.623392" stop-color="#C7D9FF"/>
<stop offset="0.95625" stop-color="#61B2FF"/>
</linearGradient>
<linearGradient id="paint1_linear_736_10167" x1="386.498" y1="561.517" x2="523.334" y2="570.425" gradientUnits="userSpaceOnUse">
<stop stop-color="#04FFCB"/>
<stop offset="0.378125" stop-color="#00E0FF"/>
<stop offset="1" stop-color="#1DA8FF"/>
</linearGradient>
<linearGradient id="paint2_linear_736_10167" x1="382.231" y1="356.451" x2="441.229" y2="433.537" gradientUnits="userSpaceOnUse">
<stop stop-color="#EEF4FF"/>
<stop offset="1" stop-color="#EEF4FF" stop-opacity="0"/>
</linearGradient>
<linearGradient id="paint3_linear_736_10167" x1="283.585" y1="289.905" x2="310.859" y2="325.541" gradientUnits="userSpaceOnUse">
<stop stop-color="#E5EDFF"/>
<stop offset="1" stop-color="#2595FF" stop-opacity="0"/>
</linearGradient>
<linearGradient id="paint4_linear_736_10167" x1="36.6604" y1="245.425" x2="390.04" y2="182.593" gradientUnits="userSpaceOnUse">
<stop stop-color="#F9FBFF"/>
<stop offset="0.623392" stop-color="#C7D9FF"/>
<stop offset="0.95625" stop-color="#61B2FF"/>
</linearGradient>
<linearGradient id="paint5_linear_736_10167" x1="62.4541" y1="301.936" x2="433.108" y2="314.507" gradientUnits="userSpaceOnUse">
<stop stop-color="#04FFCB"/>
<stop offset="0.378125" stop-color="#00E0FF"/>
<stop offset="1" stop-color="#1DA8FF"/>
</linearGradient>
</defs>
</svg>
