<svg width="80" height="80" viewBox="0 0 80 80" fill="none" xmlns="http://www.w3.org/2000/svg">
<path d="M0 30C0 13.4315 13.4315 0 30 0H50C66.5685 0 80 13.4315 80 30V50C80 66.5685 66.5685 80 50 80H30C13.4315 80 0 66.5685 0 50V30Z" fill="url(#paint0_linear_262_2220)"/>
<path fill-rule="evenodd" clip-rule="evenodd" d="M54.9724 37H54.9791C54.9791 27.3562 47.1334 20 37.4895 20C27.8457 20 20 27.8458 20 37.4896C20 47.0381 28.0591 54.81 37.5717 54.9631V52.635H37.3798C34.2322 52.6125 31.3104 51.6241 28.8949 49.9533C30.8366 49.8532 32.3855 48.2421 32.3855 46.276C32.3855 44.2456 30.7336 42.5938 28.7032 42.5938C27.9652 42.5938 27.3646 41.9933 27.3646 41.2552C27.3646 40.5171 27.9652 39.9166 28.7032 39.9166H32.4688C35.1913 39.9166 37.4062 37.7017 37.4062 34.9791C37.4062 32.2566 35.1913 30.0416 32.4688 30.0416H31.8412C31.448 30.0416 31.1302 29.7232 31.1302 29.3307C31.1302 27.6463 29.7599 26.276 28.0755 26.276H27.319C30.0092 23.8338 33.5786 22.3438 37.4895 22.3438C41.4005 22.3438 44.9699 23.8338 47.6601 26.276H47.2243C45.1939 26.276 43.542 27.9279 43.542 29.9583C43.542 31.9887 45.1939 33.6405 47.2243 33.6405C47.9623 33.6405 48.5628 34.241 48.5628 34.9791C48.5628 35.7045 47.9763 36.3176 47.2243 36.3176H46.2759C42.8981 36.3176 40.1432 39.036 40.0842 42.4H42.4286C42.4872 40.3285 44.1906 38.6614 46.276 38.6614H47.2244C49.2615 38.6614 50.9066 37.0118 50.9066 34.9791C50.9066 32.9488 49.2548 31.2969 47.2244 31.2969C46.4863 31.2969 45.8858 30.6964 45.8858 29.9584C45.8858 29.2203 46.4863 28.6198 47.2244 28.6198H49.7587C51.5673 31.1146 52.6355 34.1795 52.6355 37.4896C52.6355 37.6671 52.6323 37.8461 52.626 38.0252V38.0577L54.9724 37ZM22.3438 37.4896C22.3438 41.3787 23.8177 44.9297 26.2356 47.6146H28.7031C29.4412 47.6146 30.0416 47.0141 30.0416 46.2761C30.0416 45.538 29.4412 44.9376 28.7031 44.9376C26.6727 44.9376 25.0208 43.2857 25.0208 41.2553C25.0208 39.2248 26.6727 37.573 28.7031 37.573H32.4688C33.899 37.573 35.0626 36.4094 35.0626 34.9792C35.0626 33.5491 33.8991 32.3855 32.4688 32.3855H31.8412C30.1541 32.3855 28.7866 31.0205 28.7866 29.3308C28.7866 28.9387 28.4677 28.6198 28.0755 28.6198H25.2205C23.4119 31.1146 22.3438 34.1795 22.3438 37.4896Z" fill="#3A98FF"/>
<path fill-rule="evenodd" clip-rule="evenodd" d="M56.3591 43.849H54.9913V37.4896C54.9913 37.3259 54.989 37.1627 54.9846 37L52.6438 38.0577V38.0252L43.5287 42.5937H42.4693V42.5104C42.4693 42.4734 42.4698 42.4367 42.4709 42.4H40.1321C40.1314 42.4367 40.1311 42.4734 40.1311 42.5103V42.5937H40.0467C37.3322 42.5937 35.1223 44.7937 35.1223 47.5311C35.1223 49.4684 36.2084 51.0266 37.6267 51.8317L37.6269 52.6351H37.6257V54.963C36.7359 54.9486 35.8588 54.8673 35 54.7238V54.7938C35.8305 54.9159 36.6799 54.9792 37.5437 54.9792C37.5587 54.9792 37.5737 54.979 37.5887 54.9788L37.6269 54.9784V56.3178C37.6269 58.3749 39.293 60 41.3002 60C43.3487 60 44.9737 58.3336 44.9737 56.3178V53.1931L53.2994 57.3659C53.6614 57.5474 54.0919 57.5284 54.4368 57.3146C54.7816 57.1011 54.9913 56.7239 54.9913 56.3178V51.2135H56.2952C58.3412 51.2135 60 49.5546 60 47.4986C60.0001 45.4804 58.3707 43.849 56.3591 43.849ZM42.6356 56.3177C42.6356 57.0581 42.0374 57.6562 41.3002 57.6562C40.5631 57.6562 39.965 57.0581 39.965 56.3177V52.4687H42.6356V56.3177ZM42.6356 50.125H40.0481C38.6187 50.125 37.4606 48.9665 37.4606 47.53C37.4606 46.0962 38.6186 44.9375 40.0468 44.9375H42.6356V50.125ZM52.6531 54.4215L44.9737 50.5726V44.4899L52.6531 40.6409V54.4215ZM56.2953 48.8697H54.9914V46.1926H56.3593C57.0781 46.1926 57.6621 46.7746 57.6621 47.4998C57.6619 48.2402 57.0655 48.8697 56.2953 48.8697Z" fill="#23FBB2"/>
</svg>
