<svg width="60" height="60" viewBox="0 0 60 60" fill="none" xmlns="http://www.w3.org/2000/svg">
<path d="M22.714 19.7V41.3H36.2854V19.7H22.714ZM21.3568 17H37.6425C38.0025 17 38.3477 17.1422 38.6022 17.3954C38.8567 17.6486 38.9997 17.992 38.9997 18.35V42.65C38.9997 43.008 38.8567 43.3514 38.6022 43.6046C38.3477 43.8578 38.0025 44 37.6425 44H21.3568C20.9969 44 20.6517 43.8578 20.3972 43.6046C20.1427 43.3514 19.9997 43.008 19.9997 42.65V18.35C19.9997 17.992 20.1427 17.6486 20.3972 17.3954C20.6517 17.1422 20.9969 17 21.3568 17ZM29.4997 37.25C29.8596 37.25 30.2048 37.3922 30.4593 37.6454C30.7138 37.8986 30.8568 38.242 30.8568 38.6C30.8568 38.958 30.7138 39.3014 30.4593 39.5546C30.2048 39.8078 29.8596 39.95 29.4997 39.95C29.1397 39.95 28.7945 39.8078 28.54 39.5546C28.2855 39.3014 28.1425 38.958 28.1425 38.6C28.1425 38.242 28.2855 37.8986 28.54 37.6454C28.7945 37.3922 29.1397 37.25 29.4997 37.25Z" fill="#2595FF"/>
<path d="M30.9997 38.5C30.9997 39.3284 30.3281 40 29.4997 40C28.6712 40 27.9997 39.3284 27.9997 38.5C27.9997 37.6716 28.6712 37 29.4997 37C30.3281 37 30.9997 37.6716 30.9997 38.5Z" fill="#40FFC6"/>
</svg>
