<svg width="60" height="60" viewBox="0 0 60 60" fill="none" xmlns="http://www.w3.org/2000/svg">
<path d="M21.2656 28.5312C21.0087 28.5312 20.7623 28.4292 20.5806 28.2475C20.3989 28.0658 20.2969 27.8194 20.2969 27.5625V24.6562C20.2969 24.3993 20.3989 24.1529 20.5806 23.9712C20.7623 23.7896 21.0087 23.6875 21.2656 23.6875C21.5226 23.6875 21.769 23.7896 21.9506 23.9712C22.1323 24.1529 22.2344 24.3993 22.2344 24.6562V27.5625C22.2344 27.8194 22.1323 28.0658 21.9506 28.2475C21.769 28.4292 21.5226 28.5312 21.2656 28.5312Z" fill="#40FFC6"/>
<path d="M24.1719 28.5312C23.9149 28.5312 23.6685 28.4292 23.4869 28.2475C23.3052 28.0658 23.2031 27.8194 23.2031 27.5625V23.6875C23.2031 23.4306 23.3052 23.1842 23.4869 23.0025C23.6685 22.8208 23.9149 22.7188 24.1719 22.7188C24.4288 22.7188 24.6752 22.8208 24.8569 23.0025C25.0386 23.1842 25.1406 23.4306 25.1406 23.6875V27.5625C25.1406 27.8194 25.0386 28.0658 24.8569 28.2475C24.6752 28.4292 24.4288 28.5312 24.1719 28.5312Z" fill="#40FFC6"/>
<path d="M27.0781 28.5312C26.8212 28.5312 26.5748 28.4292 26.3931 28.2475C26.2114 28.0658 26.1094 27.8194 26.1094 27.5625V22.7188C26.1094 22.4618 26.2114 22.2154 26.3931 22.0337C26.5748 21.8521 26.8212 21.75 27.0781 21.75C27.3351 21.75 27.5815 21.8521 27.7631 22.0337C27.9448 22.2154 28.0469 22.4618 28.0469 22.7188V27.5625C28.0469 27.8194 27.9448 28.0658 27.7631 28.2475C27.5815 28.4292 27.3351 28.5312 27.0781 28.5312Z" fill="#40FFC6"/>
<path d="M29.9844 29.5H20.2969C20.0399 29.5 19.7935 29.3979 19.6119 29.2163C19.4302 29.0346 19.3281 28.7882 19.3281 28.5312C19.3281 28.2743 19.4302 28.0279 19.6119 27.8462C19.7935 27.6646 20.0399 27.5625 20.2969 27.5625H29.0156V21.75C29.0156 21.4931 29.1177 21.2467 29.2994 21.065C29.481 20.8833 29.7274 20.7812 29.9844 20.7812C30.2413 20.7812 30.4877 20.8833 30.6694 21.065C30.8511 21.2467 30.9531 21.4931 30.9531 21.75V28.5312C30.9531 28.7882 30.8511 29.0346 30.6694 29.2163C30.4877 29.3979 30.2413 29.5 29.9844 29.5Z" fill="#40FFC6"/>
<path d="M25.625 36.1079C23.2006 36.106 20.852 35.2637 18.979 33.7243C17.1061 32.185 15.8248 30.0439 15.3534 27.6659C14.882 25.2878 15.2497 22.8198 16.3938 20.6825C17.538 18.5451 19.3877 16.8705 21.628 15.944C23.8683 15.0174 26.3606 14.8963 28.6802 15.6012C30.9998 16.3061 33.0033 17.7934 34.3493 19.8097C35.6953 21.8261 36.3006 24.2467 36.062 26.6593C35.8235 29.0719 34.7559 31.3271 33.0411 33.0409C32.0679 34.0154 30.9117 34.788 29.639 35.3143C28.3663 35.8407 27.0022 36.1104 25.625 36.1079ZM25.625 17.0782C23.6486 17.0798 21.7339 17.7666 20.207 19.0215C18.6802 20.2765 17.6356 22.022 17.2514 23.9607C16.8671 25.8993 17.1669 27.9113 18.0997 29.6537C19.0324 31.3962 20.5404 32.7614 22.3668 33.5167C24.1932 34.272 26.225 34.3707 28.116 33.7961C30.007 33.2214 31.6403 32.0089 32.7376 30.3651C33.8349 28.7213 34.3284 26.7479 34.1339 24.7811C33.9395 22.8143 33.0691 20.9757 31.6711 19.5786C30.8777 18.7842 29.9351 18.1543 28.8975 17.7252C27.8599 17.2961 26.7478 17.0762 25.625 17.0782Z" fill="#2595FF"/>
<path d="M35.3478 36.316C35.2206 36.3162 35.0946 36.2912 34.9771 36.2425C34.8595 36.1938 34.7528 36.1223 34.6629 36.0323L31.9232 33.2921C31.831 33.2026 31.7575 33.0957 31.707 32.9776C31.6565 32.8595 31.6299 32.7325 31.629 32.6041C31.628 32.4756 31.6526 32.3483 31.7013 32.2294C31.75 32.1105 31.8218 32.0025 31.9127 31.9117C32.0035 31.8209 32.1115 31.749 32.2303 31.7003C32.3492 31.6516 32.4766 31.627 32.605 31.628C32.7335 31.6289 32.8605 31.6554 32.9786 31.7059C33.0967 31.7565 33.2036 31.8299 33.293 31.9221L36.0328 34.6623C36.1683 34.7978 36.2605 34.9704 36.2979 35.1583C36.3352 35.3462 36.316 35.541 36.2427 35.718C36.1694 35.895 36.0453 36.0463 35.886 36.1527C35.7267 36.2592 35.5394 36.316 35.3478 36.316Z" fill="#2595FF"/>
<path d="M40.8282 43.732C40.4465 43.7327 40.0684 43.6581 39.7156 43.5124C39.3628 43.3667 39.0423 43.1528 38.7724 42.8829L34.115 38.2241C33.9171 38.0262 33.7601 37.7913 33.653 37.5327C33.5459 37.2741 33.4908 36.997 33.4908 36.7171C33.4908 36.4372 33.5459 36.16 33.653 35.9014C33.7601 35.6428 33.9171 35.4079 34.115 35.21L35.2105 34.114C35.6107 33.7153 36.1526 33.4913 36.7175 33.4912C37.2824 33.4911 37.8244 33.7149 38.2247 34.1135L42.883 38.7724C43.4273 39.3178 43.733 40.0569 43.733 40.8274C43.733 41.598 43.4273 42.3371 42.883 42.8825C42.6133 43.1523 42.2929 43.3663 41.9403 43.5121C41.5877 43.6578 41.2097 43.7326 40.8282 43.732ZM36.7174 35.4276C36.666 35.4276 36.6166 35.448 36.5802 35.4843L35.4847 36.5804C35.4534 36.6192 35.4364 36.6675 35.4364 36.7173C35.4364 36.7671 35.4534 36.8154 35.4847 36.8542L40.1423 41.5122C40.324 41.6939 40.5704 41.796 40.8274 41.7961C41.0843 41.7961 41.3308 41.694 41.5125 41.5124C41.6942 41.3307 41.7964 41.0843 41.7964 40.8273C41.7964 40.5703 41.6944 40.3239 41.5127 40.1422L36.8544 35.4838C36.8179 35.4477 36.7687 35.4275 36.7174 35.4276Z" fill="#2595FF"/>
</svg>
