<svg width="80" height="80" viewBox="0 0 80 80" fill="none" xmlns="http://www.w3.org/2000/svg">
<path d="M56.25 50H23.75C22.7558 49.9989 21.8026 49.6035 21.0996 48.9004C20.3965 48.1974 20.0011 47.2442 20 46.25V28.75C20.0011 27.7558 20.3965 26.8026 21.0996 26.0996C21.8026 25.3965 22.7558 25.0011 23.75 25H56.25C57.2442 25.0011 58.1974 25.3965 58.9004 26.0996C59.6035 26.8026 59.9989 27.7558 60 28.75V46.25C59.9989 47.2442 59.6035 48.1974 58.9004 48.9004C58.1974 49.6035 57.2442 49.9989 56.25 50ZM23.75 27.5C23.4186 27.5004 23.1009 27.6323 22.8666 27.8666C22.6323 28.1009 22.5004 28.4186 22.5 28.75V46.25C22.5004 46.5814 22.6323 46.8991 22.8666 47.1334C23.1009 47.3677 23.4186 47.4996 23.75 47.5H56.25C56.5814 47.4996 56.8991 47.3677 57.1334 47.1334C57.3677 46.8991 57.4996 46.5814 57.5 46.25V28.75C57.4996 28.4186 57.3677 28.1009 57.1334 27.8666C56.8991 27.6323 56.5814 27.5004 56.25 27.5H23.75Z" fill="white"/>
<path d="M31.25 22.5H26.25C25.9185 22.5 25.6005 22.3683 25.3661 22.1339C25.1317 21.8995 25 21.5815 25 21.25C25 20.9185 25.1317 20.6005 25.3661 20.3661C25.6005 20.1317 25.9185 20 26.25 20H31.25C31.5815 20 31.8995 20.1317 32.1339 20.3661C32.3683 20.6005 32.5 20.9185 32.5 21.25C32.5 21.5815 32.3683 21.8995 32.1339 22.1339C31.8995 22.3683 31.5815 22.5 31.25 22.5Z" fill="white"/>
<path d="M28.75 27.5C28.4185 27.5 28.1005 27.3683 27.8661 27.1339C27.6317 26.8995 27.5 26.5815 27.5 26.25V21.25C27.5 20.9185 27.6317 20.6005 27.8661 20.3661C28.1005 20.1317 28.4185 20 28.75 20C29.0815 20 29.3995 20.1317 29.6339 20.3661C29.8683 20.6005 30 20.9185 30 21.25V26.25C30 26.5815 29.8683 26.8995 29.6339 27.1339C29.3995 27.3683 29.0815 27.5 28.75 27.5Z" fill="white"/>
<path d="M42.5 22.5H37.5C37.1685 22.5 36.8505 22.3683 36.6161 22.1339C36.3817 21.8995 36.25 21.5815 36.25 21.25C36.25 20.9185 36.3817 20.6005 36.6161 20.3661C36.8505 20.1317 37.1685 20 37.5 20H42.5C42.8315 20 43.1495 20.1317 43.3839 20.3661C43.6183 20.6005 43.75 20.9185 43.75 21.25C43.75 21.5815 43.6183 21.8995 43.3839 22.1339C43.1495 22.3683 42.8315 22.5 42.5 22.5Z" fill="white"/>
<path d="M40 27.5C39.6685 27.5 39.3505 27.3683 39.1161 27.1339C38.8817 26.8995 38.75 26.5815 38.75 26.25V21.25C38.75 20.9185 38.8817 20.6005 39.1161 20.3661C39.3505 20.1317 39.6685 20 40 20C40.3315 20 40.6495 20.1317 40.8839 20.3661C41.1183 20.6005 41.25 20.9185 41.25 21.25V26.25C41.25 26.5815 41.1183 26.8995 40.8839 27.1339C40.6495 27.3683 40.3315 27.5 40 27.5Z" fill="white"/>
<path d="M53.75 22.5H48.75C48.4185 22.5 48.1005 22.3683 47.8661 22.1339C47.6317 21.8995 47.5 21.5815 47.5 21.25C47.5 20.9185 47.6317 20.6005 47.8661 20.3661C48.1005 20.1317 48.4185 20 48.75 20H53.75C54.0815 20 54.3995 20.1317 54.6339 20.3661C54.8683 20.6005 55 20.9185 55 21.25C55 21.5815 54.8683 21.8995 54.6339 22.1339C54.3995 22.3683 54.0815 22.5 53.75 22.5Z" fill="white"/>
<path d="M51.25 27.5C50.9185 27.5 50.6005 27.3683 50.3661 27.1339C50.1317 26.8995 50 26.5815 50 26.25V21.25C50 20.9185 50.1317 20.6005 50.3661 20.3661C50.6005 20.1317 50.9185 20 51.25 20C51.5815 20 51.8995 20.1317 52.1339 20.3661C52.3683 20.6005 52.5 20.9185 52.5 21.25V26.25C52.5 26.5815 52.3683 26.8995 52.1339 27.1339C51.8995 27.3683 51.5815 27.5 51.25 27.5Z" fill="white"/>
<path d="M43.5448 43.7499C43.3485 43.75 43.1549 43.7038 42.9797 43.615L39.9999 42.1038L37.0202 43.615C36.8146 43.7192 36.5843 43.7645 36.3546 43.7459C36.1249 43.7274 35.9048 43.6457 35.7186 43.5098C35.5324 43.374 35.3874 43.1894 35.2996 42.9763C35.2118 42.7633 35.1845 42.5301 35.2209 42.3025L35.7251 39.1549L33.3501 36.611C33.1988 36.4491 33.0933 36.25 33.0443 36.0339C32.9954 35.8178 33.0047 35.5926 33.0714 35.3814C33.1381 35.1701 33.2598 34.9803 33.4239 34.8315C33.588 34.6827 33.7888 34.5802 34.0056 34.5345L37.2056 33.8595L38.9243 30.953C39.0435 30.7773 39.2038 30.6334 39.3914 30.534C39.5789 30.4346 39.788 30.3826 40.0003 30.3826C40.2126 30.3826 40.4217 30.4346 40.6093 30.534C40.7968 30.6334 40.9572 30.7773 41.0763 30.953L42.7951 33.8595L45.9951 34.5345C46.2118 34.5802 46.4126 34.6827 46.5767 34.8315C46.7409 34.9803 46.8625 35.1701 46.9292 35.3814C46.9959 35.5926 47.0053 35.8178 46.9563 36.0339C46.9073 36.25 46.8018 36.4491 46.6506 36.611L44.2756 39.1549L44.7797 42.3025C44.8084 42.4812 44.7979 42.6639 44.749 42.8381C44.7001 43.0123 44.614 43.1738 44.4966 43.3114C44.3791 43.4491 44.2332 43.5596 44.0689 43.6353C43.9046 43.711 43.7257 43.7501 43.5448 43.7499ZM39.9999 39.4524C40.1963 39.4524 40.3899 39.4986 40.5651 39.5873L41.9226 40.2758L41.7101 38.9464C41.68 38.7584 41.6932 38.566 41.7488 38.3839C41.8043 38.2017 41.9006 38.0347 42.0304 37.8954L43.3116 36.5234L41.7412 36.1925C41.5717 36.1567 41.4114 36.0861 41.2707 35.9852C41.1299 35.8842 41.0116 35.7551 40.9233 35.606L39.9999 34.0453L39.0771 35.606C38.9888 35.7551 38.8705 35.8842 38.7297 35.9852C38.5889 36.0861 38.4287 36.1567 38.2592 36.1925L36.6888 36.5234L37.9699 37.8954C38.0998 38.0347 38.1961 38.2017 38.2516 38.3839C38.3071 38.566 38.3204 38.7584 38.2903 38.9464L38.0778 40.2758L39.4353 39.5873C39.6103 39.4987 39.8038 39.4525 39.9999 39.4524Z" fill="white"/>
<path d="M45.3289 55H34.6709C34.0535 55.0007 33.4454 54.8485 32.901 54.5572C32.3566 54.2658 31.8928 53.8443 31.5508 53.3301L28.9599 49.4434C28.8344 49.2551 28.7624 49.0364 28.7515 48.8104C28.7405 48.5844 28.7911 48.3597 28.8979 48.1602C29.0046 47.9607 29.1635 47.794 29.3576 47.6777C29.5517 47.5614 29.7737 47.5 29.9999 47.5H49.9999C50.2262 47.5 50.4482 47.5614 50.6423 47.6777C50.8363 47.794 50.9952 47.9607 51.102 48.1602C51.2087 48.3597 51.2593 48.5844 51.2484 48.8104C51.2375 49.0364 51.1654 49.2551 51.0399 49.4434L48.4491 53.3301C48.1071 53.8443 47.6432 54.2658 47.0988 54.5572C46.5544 54.8485 45.9464 55.0007 45.3289 55ZM32.3358 50L33.6309 51.9434C33.745 52.1147 33.8996 52.2552 34.081 52.3523C34.2625 52.4494 34.4651 52.5002 34.6709 52.5H45.3289C45.5347 52.5002 45.7374 52.4494 45.9189 52.3523C46.1003 52.2552 46.2549 52.1147 46.3689 51.9434L47.6641 50H32.3358Z" fill="white"/>
<path d="M42.5 60H37.5C37.1685 60 36.8505 59.8683 36.6161 59.6339C36.3817 59.3995 36.25 59.0815 36.25 58.75V53.75C36.25 53.4185 36.3817 53.1005 36.6161 52.8661C36.8505 52.6317 37.1685 52.5 37.5 52.5H42.5C42.8315 52.5 43.1495 52.6317 43.3839 52.8661C43.6183 53.1005 43.75 53.4185 43.75 53.75V58.75C43.75 59.0815 43.6183 59.3995 43.3839 59.6339C43.1495 59.8683 42.8315 60 42.5 60ZM38.75 57.5H41.25V55H38.75V57.5Z" fill="white"/>
</svg>
