<svg width="80" height="80" viewBox="0 0 80 80" fill="none" xmlns="http://www.w3.org/2000/svg">
<path d="M29.375 38.75C29.0435 38.75 28.7255 38.6183 28.4911 38.3839C28.2567 38.1495 28.125 37.8315 28.125 37.5V33.75C28.125 33.4185 28.2567 33.1005 28.4911 32.8661C28.7255 32.6317 29.0435 32.5 29.375 32.5C29.7065 32.5 30.0245 32.6317 30.2589 32.8661C30.4933 33.1005 30.625 33.4185 30.625 33.75V37.5C30.625 37.8315 30.4933 38.1495 30.2589 38.3839C30.0245 38.6183 29.7065 38.75 29.375 38.75Z" fill="white"/>
<path d="M33.125 38.75C32.7935 38.75 32.4755 38.6183 32.2411 38.3839C32.0067 38.1495 31.875 37.8315 31.875 37.5V32.5C31.875 32.1685 32.0067 31.8505 32.2411 31.6161C32.4755 31.3817 32.7935 31.25 33.125 31.25C33.4565 31.25 33.7745 31.3817 34.0089 31.6161C34.2433 31.8505 34.375 32.1685 34.375 32.5V37.5C34.375 37.8315 34.2433 38.1495 34.0089 38.3839C33.7745 38.6183 33.4565 38.75 33.125 38.75Z" fill="white"/>
<path d="M36.875 38.75C36.5435 38.75 36.2255 38.6183 35.9911 38.3839C35.7567 38.1495 35.625 37.8315 35.625 37.5V31.25C35.625 30.9185 35.7567 30.6005 35.9911 30.3661C36.2255 30.1317 36.5435 30 36.875 30C37.2065 30 37.5245 30.1317 37.7589 30.3661C37.9933 30.6005 38.125 30.9185 38.125 31.25V37.5C38.125 37.8315 37.9933 38.1495 37.7589 38.3839C37.5245 38.6183 37.2065 38.75 36.875 38.75Z" fill="white"/>
<path d="M40.625 40H28.125C27.7935 40 27.4755 39.8683 27.2411 39.6339C27.0067 39.3995 26.875 39.0815 26.875 38.75C26.875 38.4185 27.0067 38.1005 27.2411 37.8661C27.4755 37.6317 27.7935 37.5 28.125 37.5H39.375V30C39.375 29.6685 39.5067 29.3505 39.7411 29.1161C39.9755 28.8817 40.2935 28.75 40.625 28.75C40.9565 28.75 41.2745 28.8817 41.5089 29.1161C41.7433 29.3505 41.875 29.6685 41.875 30V38.75C41.875 39.0815 41.7433 39.3995 41.5089 39.6339C41.2745 39.8683 40.9565 40 40.625 40Z" fill="white"/>
<path d="M35 48.5267C31.8719 48.5242 28.8413 47.4373 26.4246 45.4511C24.0079 43.4648 22.3546 40.7022 21.7464 37.6337C21.1381 34.5652 21.6126 31.3808 23.0889 28.6229C24.5652 25.8649 26.952 23.7042 29.8427 22.5087C32.7334 21.3131 35.9492 21.1568 38.9422 22.0664C41.9353 22.9759 44.5204 24.895 46.2572 27.4968C47.994 30.0985 48.775 33.2219 48.4672 36.3349C48.1594 39.4479 46.7818 42.3579 44.5692 44.5692C43.3134 45.8266 41.8216 46.8235 40.1794 47.5027C38.5373 48.1818 36.7771 48.5298 35 48.5267ZM35 23.9722C32.4498 23.9742 29.9792 24.8604 28.0091 26.4797C26.039 28.099 24.6912 30.3512 24.1954 32.8528C23.6996 35.3543 24.0864 37.9504 25.29 40.1987C26.4935 42.447 28.4393 44.2085 30.796 45.1831C33.1526 46.1577 35.7742 46.2851 38.2142 45.5436C40.6542 44.8021 42.7617 43.2376 44.1776 41.1166C45.5935 38.9956 46.2302 36.4492 45.9793 33.9114C45.7284 31.3736 44.6054 29.0013 42.8015 27.1986C41.7777 26.1734 40.5615 25.3607 39.2227 24.807C37.8838 24.2533 36.4488 23.9696 35 23.9722Z" fill="white"/>
<path d="M47.5456 48.7952C47.3815 48.7954 47.2189 48.7632 47.0672 48.7004C46.9156 48.6375 46.7778 48.5453 46.6619 48.4291L43.1268 44.8933C43.0078 44.7779 42.9129 44.64 42.8478 44.4876C42.7826 44.3352 42.7484 44.1714 42.7471 44.0056C42.7458 43.8399 42.7776 43.6756 42.8404 43.5222C42.9032 43.3688 42.996 43.2294 43.1132 43.1122C43.2304 42.995 43.3697 42.9023 43.5231 42.8395C43.6764 42.7766 43.8408 42.7449 44.0065 42.7461C44.1723 42.7474 44.3361 42.7816 44.4885 42.8468C44.6409 42.9119 44.7789 43.0068 44.8943 43.1257L48.4295 46.6615C48.6043 46.8363 48.7233 47.059 48.7715 47.3015C48.8197 47.5439 48.7949 47.7952 48.7003 48.0236C48.6057 48.252 48.4455 48.4472 48.24 48.5845C48.0345 48.7219 47.7928 48.7952 47.5456 48.7952Z" fill="white"/>
<path d="M54.6171 58.3643C54.1246 58.3653 53.6367 58.269 53.1815 58.081C52.7263 57.8929 52.3127 57.6169 51.9645 57.2686L45.955 51.2574C45.6996 51.002 45.497 50.6989 45.3588 50.3652C45.2206 50.0315 45.1494 49.6739 45.1494 49.3128C45.1494 48.9516 45.2206 48.594 45.3588 48.2603C45.497 47.9267 45.6996 47.6235 45.955 47.3681L47.3685 45.954C47.8848 45.4395 48.584 45.1505 49.3129 45.1504C50.0419 45.1503 50.7412 45.439 51.2577 45.9534L57.2685 51.9648C57.9708 52.6685 58.3652 53.6222 58.3652 54.6165C58.3652 55.6107 57.9708 56.5644 57.2685 57.2681C56.9204 57.6164 56.507 57.8924 56.052 58.0805C55.5971 58.2686 55.1094 58.3651 54.6171 58.3643ZM49.3128 47.6489C49.2465 47.649 49.1828 47.6753 49.1358 47.7221L47.7222 49.1364C47.6819 49.1865 47.6599 49.2488 47.6599 49.3131C47.6599 49.3774 47.6819 49.4397 47.7222 49.4898L53.7321 55.5C53.9665 55.7345 54.2845 55.8663 54.616 55.8663C54.9476 55.8664 55.2656 55.7347 55.5001 55.5003C55.7346 55.2659 55.8663 54.9479 55.8664 54.6163C55.8664 54.2848 55.7347 53.9668 55.5003 53.7323L49.4896 47.7215C49.4426 47.6749 49.379 47.6488 49.3128 47.6489Z" fill="white"/>
</svg>
