<svg width="16" height="13" viewBox="0 0 16 13" fill="none" xmlns="http://www.w3.org/2000/svg">
<path fill-rule="evenodd" clip-rule="evenodd" d="M12.8901 0.603155C13.5422 -0.137905 14.6713 -0.206236 15.4071 0.454446C16.1369 1.10984 16.2012 2.23316 15.5543 2.96833L7.25799 12.3969C6.92179 12.779 6.43737 13 5.92593 13C5.41449 13 4.93006 12.779 4.59386 12.3969L0.445721 7.68262C-0.201165 6.94744 -0.136942 5.82413 0.592933 5.16873C1.32869 4.50804 2.45779 4.57638 3.10985 5.31744L5.92593 8.51785L12.8901 0.603155ZM14.0528 1.64715L14.0525 1.64745ZM6.09536 11.0757L6.0951 11.0754ZM14.3914 1.92466L14.3916 1.92433L14.2216 1.77467L14.3916 1.92433C14.3915 1.92444 14.3914 1.92455 14.3914 1.92466Z" fill="#D1B280"/>
</svg>
