<svg width="24" height="24" viewBox="0 0 24 24" fill="none" xmlns="http://www.w3.org/2000/svg">
<path d="M20.9743 5H3.02566C2.46152 5 2 5.4846 2 6.0769V17.9231C2 18.5153 2.46152 19 3.02566 19H20.9743C21.5384 19 22 18.5154 22 17.9231V6.0769C22 5.4846 21.5384 5 20.9743 5ZM20.5894 5.80764L12.59 12.1077C12.4462 12.2226 12.2254 12.2945 11.9999 12.2935C11.7746 12.2945 11.5538 12.2226 11.4099 12.1077L3.41051 5.80764H20.5894ZM16.3164 12.5234L20.6754 18.1773C20.6797 18.1829 20.6851 18.1872 20.6897 18.1924H3.31023C3.31484 18.187 3.32023 18.1829 3.32461 18.1773L7.68358 12.5234C7.81714 12.35 7.79182 12.0959 7.6264 11.9553C7.46128 11.8151 7.21921 11.8416 7.08562 12.0151L2.76922 17.6137V6.31246L10.9487 12.7538C11.2561 12.9942 11.6302 13.1 11.9999 13.1011C12.3691 13.1003 12.7435 12.9945 13.0512 12.7538L21.2306 6.31246V17.6136L16.9143 12.0151C16.7807 11.8417 16.5384 11.815 16.3735 11.9553C16.2081 12.0955 16.1827 12.35 16.3164 12.5234Z" fill="#D1B280"/>
</svg>
