<svg width="24" height="24" viewBox="0 0 24 24" fill="none" xmlns="http://www.w3.org/2000/svg">
<path d="M19.6603 2H4.33967C3.04959 2 2 3.09827 2 4.44832V14.5295C2 15.8795 3.04953 16.9778 4.33967 16.9778H15.078C15.1928 16.9778 15.2995 17.0319 15.3708 17.1262L18.8385 21.7203C18.9752 21.9013 19.1746 22 19.3834 22C19.461 22 19.54 21.9864 19.6174 21.9582C19.9031 21.8544 20.0877 21.5828 20.0877 21.2663V16.936C21.1725 16.7239 22 15.7204 22 14.5295V4.44827C22 3.09827 20.9505 2 19.6603 2ZM21.1955 14.5295C21.1955 15.4038 20.5158 16.1241 19.6803 16.1352C19.4602 16.1382 19.2832 16.3258 19.2832 16.5562V20.9511L16.0021 16.6043C15.7774 16.3066 15.4406 16.1359 15.078 16.1359H4.33967C3.4932 16.1359 2.80453 15.4152 2.80453 14.5294V4.44827C2.80453 3.56249 3.49315 2.84183 4.33967 2.84183H19.6603C20.5068 2.84183 21.1955 3.56249 21.1955 4.44827V14.5295Z" fill="#D1B280"/>
<path d="M18.585 5.15796H5.41502C5.18582 5.15796 5 5.39361 5 5.68427C5 5.97494 5.18582 6.21059 5.41502 6.21059H18.585C18.8142 6.21059 19 5.97494 19 5.68427C19 5.39361 18.8142 5.15796 18.585 5.15796Z" fill="#D1B280"/>
<path d="M18.585 8.31567H5.41502C5.18582 8.31567 5 8.55132 5 8.84199C5 9.13266 5.18582 9.36831 5.41502 9.36831H18.585C18.8142 9.36831 19 9.13266 19 8.84199C19 8.55132 18.8142 8.31567 18.585 8.31567Z" fill="#D1B280"/>
<path d="M18.585 11.4736H5.41502C5.18582 11.4736 5 11.7093 5 11.9999C5 12.2906 5.18582 12.5263 5.41502 12.5263H18.585C18.8142 12.5263 19 12.2906 19 11.9999C19 11.7093 18.8142 11.4736 18.585 11.4736Z" fill="#D1B280"/>
</svg>
