<svg width="24" height="24" viewBox="0 0 24 24" fill="none" xmlns="http://www.w3.org/2000/svg">
<path d="M16.6667 0H7.33333C6.04722 0 5 1.04722 5 2.33333V21C5 22.2871 6.04722 23.3333 7.33333 23.3333H16.6667C17.9537 23.3333 19 22.2871 19 21V2.33333C19 1.04722 17.9537 0 16.6667 0ZM18.0667 21C18.0667 21.7719 17.4385 22.4 16.6667 22.4H7.33333C6.56146 22.4 5.93333 21.7719 5.93333 21V2.33333C5.93333 1.56146 6.56146 0.933333 7.33333 0.933333H16.6667C17.4385 0.933333 18.0667 1.56146 18.0667 2.33333V21Z" fill="#D1B280"/>
<path d="M12.9333 1.86642H11.0667C10.8091 1.86642 10.6 2.07551 10.6 2.33309C10.6 2.59067 10.8091 2.79976 11.0667 2.79976H12.9333C13.1909 2.79976 13.4 2.59067 13.4 2.33309C13.4 2.07551 13.1909 1.86642 12.9333 1.86642Z" fill="#D1B280"/>
<path d="M12 20.533C11.7424 20.533 11.5333 20.7421 11.5333 20.9997C11.5333 21.2573 11.7424 21.4664 12 21.4664C12.2576 21.4664 12.4666 21.2573 12.4666 20.9997C12.4666 20.7421 12.2576 20.533 12 20.533Z" fill="#D1B280"/>
<path d="M18.5333 3.7337H5.46667C5.20904 3.7337 5 3.94279 5 4.20037C5 4.45799 5.20904 4.66704 5.46667 4.66704H18.5333C18.7909 4.66704 19 4.45795 19 4.20037C19 3.94279 18.7909 3.7337 18.5333 3.7337Z" fill="#D1B280"/>
<path d="M18.5333 18.6666H5.46667C5.20904 18.6666 5 18.8757 5 19.1333C5 19.3908 5.20904 19.5999 5.46667 19.5999H18.5333C18.7909 19.5999 19 19.3908 19 19.1333C19 18.8757 18.7909 18.6666 18.5333 18.6666Z" fill="#D1B280"/>
</svg>
