<svg width="24" height="24" viewBox="0 0 24 24" fill="none" xmlns="http://www.w3.org/2000/svg">
<path d="M1.38859 11.1104L6.45783 12.9872L8.41994 19.2463C8.54549 19.6472 9.03968 19.7954 9.3677 19.5293L12.1934 17.2444C12.4896 17.005 12.9115 16.9931 13.221 17.216L18.3175 20.8863C18.6684 21.1393 19.1656 20.9485 19.2536 20.5279L22.987 2.71428C23.0831 2.25485 22.628 1.87157 22.187 2.04077L1.38265 10.0016C0.869238 10.198 0.873711 10.919 1.38859 11.1104ZM8.10373 11.9881L18.0109 5.93555C18.189 5.82709 18.3722 6.0659 18.2193 6.20658L10.043 13.7455C9.75556 14.0108 9.57018 14.366 9.51767 14.7514L9.23915 16.7988C9.20226 17.0722 8.81513 17.0993 8.73909 16.8347L7.66791 13.1013C7.54522 12.6755 7.72401 12.2206 8.10373 11.9881Z" fill="black"/>
</svg>
