<svg version="1.1" id="Layer_1" xmlns="http://www.w3.org/2000/svg" x="0" y="0" viewBox="0 0 186.7 343.3" xml:space="preserve"><style>.st1{fill-rule:evenodd;clip-rule:evenodd;fill:#fff}</style><path d="M113.8 220.3c.6 6.9 1.4 13.9 1.9 20.7.4 3.6.4 7.2 0 10.8-.6 4-.9 8.3-2.7 11.9-.9 1.8-2.5 3-3.9 4.4s-1.9 3.1-3 4.5-2.1 2.8-3.1 4.3c-2.7 5.1-4.9 12.6-4.7 17.8 0 3.3.9 6.6 2.6 9.4 2.3 4.5 5.9 8.2 10.3 10.7.9.5 1.7.8 2.6 1.3s1.4 1.1 2.1 1.6c3.4 2.2 7.4 2.4 11.5 3.1 4.1.8 7.9.4 11.6 1.3 1.6.4 2.6 1.6 3.6 2.8 3 3.2 4.9 7.1 8 10.1 1 1 2.4 1.8 3.8 2.8 1.1 1 2.3 2 3.5 2.9 2.7 1.6 7.3 3.1 10 2.2 1.3-.5 3.8-2.1 4.2-4 .7-3.3-3.3-4.8-5.6-6.6-1.7-1.4-3.2-3-4.5-4.7-2-2.5-3.8-5.1-5.4-7.8-.6-.9-1.1-1.8-1.4-2.8-.2-1.8-.3-3.6-.3-5.5-.2-1.8-.1-3.7.2-5.5.4-1.4 1-2.6 1.3-4 1.7-6 1.8-12.4.4-18.5-.5-2.1-1.2-4.2-2.2-6.1-.7-1-1.5-2-2.3-2.9-2.4-3.1-5.4-5.8-8.8-7.8-1.6-.9-3.2-1.2-4.4-1.8-1.2-.7-2.2-1.5-3.2-2.5-2-1.5-3.5-3.7-4.1-6.2-.5-2.6-.9-5.1-1-7.8-.7-7.9-.9-16.6-1.1-24.4-.1-2.6-.5-5.3-.5-8-.5-19.8-1.2-37.3-2.9-56.8 3.2-4.8 5.5-10.3 8.1-15.7s5.7-10.5 8.1-15.9c2.4-5.4 5.1-10.9 7.7-16.5S155 100 157.5 94c2.4-5.6 4.6-11.8 7.2-17.5s5.2-11.4 7.6-16.8 5.1-10.8 7.4-17c1.9-4.9 3.6-8.9 5.3-13.3.6-1.6 1.6-3.5 1.6-4.8-.2-1.2-.9-2.3-2-3-2.6-.9-4.5 1-6.1 2.8-1.5 1.6-2.8 3.4-3.9 5.3-2.3 4.2-5 7.9-7.2 11.3-5.1 7.7-10.4 14.4-15 22.4-2.3 4.1-4.6 7.9-7.2 11.7-2.5 3.8-5 7.6-7.3 11.6-1.2 2-2.2 4.1-3.5 6.1-3.9 5.8-7.4 11.9-10.5 18.1 0-5.8-.3-12.1-.5-17.8-.1-1.5-.1-3 0-4.5.1-.5.5-1 .6-1.5s-.4-.6-.6-1c-.3-1.2 0-2.9-.1-4.1-.5-12.5-1.1-25.3-1.5-37.7-.2-7-.1-14.3-.7-21.6-.6-6.7-.8-14.9-1.9-21.4-1.3-.1-1.4-.9-2.9-1.2-1.3-.2-2.6-.2-3.9 0-.5.1-1 .3-1.6.4-.7.1-.9-.1-1.3.4-.8.9-1.1 3.3-1.4 4.9-1.7 11.4-1.9 22.8-3 33.6-.6 6.2-1.1 12.7-1.5 19.1s-.9 12.8-1 18.8c-.3 12.4-1.1 24.9-1.9 37.6-.7 11-.7 21.9-1 32.6.1 1.6 0 3.2-.2 4.7-.5 1.7-2 3.7-3.2 5.6-3.6 5.6-7.3 10.5-10.5 15.6-4.3 7-8.9 14.4-13.4 21.6-2.2 3.6-4.4 7.2-6.8 10.7-5.9 8.8-10.9 18-17.5 25.6-1.5 1.7-3.1 4.1-5.2 3.8-1-.2-1.9-.5-2.9-.5-3.1-.3-6.2-1-9.1-1-7.7-.1-13.8 2.5-19.4 6.3-2.9 2-5.4 4.5-7.6 7.2-2.4 3-3.5 8.4-3.9 12.1-.4 4.3-.3 7.9 1 10.9l1.2 2.1c.4.7.6 1.6.9 2.4.4.7 1 1.4 1.6 2 .5.7.9 1.4 1.3 2.1 1 1.4 2.1 2.7 3.3 3.9 1.2 1.3 2.4 2.8 3.6 3.8 1.6 1.1 3.3 2 5.1 2.6 3.6 1.7 7.6 2.7 11.6 2.9 1.8.1 3.5.1 5.3-.1 3.1-.5 6-2.2 8.9-3.4 1.5-.5 3-1.2 4.3-2 1.3-1 2.5-2.2 3.6-3.5 2.4-2.8 4.6-5 5.8-9.2 2.6-8.7 1.4-15.1.9-22-.3-3.4-1-6.9.6-11.2 0-.1 0-.1.1-.2 3.3-6.2 8-11.1 11.7-16.3 7.7-10.6 14.9-23.1 23.3-32.8 2.9-3.4 6.4-7.3 10.1-9.6.6-.4 3.5-2.2 3.9-2 .4.7.7 1.5.9 2.2 1.2 5.8 2 11.7 2.4 17.7.7 7.1 1.9 14.1 2.4 20.8zm5.9 56.5c2.9-1.9 6.2-3.1 9.6-3.3 1.1-.1 2.2 0 3.2.2 4.2.9 6.5 3.3 8.7 5.9 2.5 3 3.8 5.4 4.1 9.5 0 1.9-.1 3.7-.4 5.6 0 1.4-.1 2.7-.4 4.1-.6 1.1-1.2 2.2-2.1 3.2-.6 1-1.4 2-2.2 2.8-1.1.8-2.4 1.5-3.8 1.9-1.3.6-2.7 1-4.1 1.2-.9.1-1.7-.1-2.7-.1-3.6 0-6.4.6-10-1.5-1.2-.9-2.4-1.8-3.5-2.8-2.2-1.6-3.8-3.9-4.5-6.5-.5-1.2-.8-2.4-.9-3.6.1-.7.2-1.5.3-2.2.4-3.1.2-5.8 2.1-8.9 1.7-2.2 4.5-4.2 6.6-5.5zm-101.6-2.4c-2.4-2.7-3-6.7-3.5-10.7-.3-1.3-.4-2.6-.3-3.9.7-4 3.3-6.6 5.1-8.5 3-3 5.7-4.9 10.2-5.2 2.2-.3 4.5-.2 6.7.3 1.8.6 3.4 1.5 4.8 2.8 2 1.6 3.7 2.9 4.5 5 .9 2.3 1 7.4-.3 11-.9 2.3-2.1 4.4-3.6 6.4-.8 1-2.1 2.1-3 3-.9 1.1-1.9 2-3 2.9-1.5.8-3.2 1.4-4.9 1.8-4.8.5-9.6-1.3-12.7-4.9z" fill-rule="evenodd" clip-rule="evenodd" fill="#958961"/><path class="st1" d="M115.5 1.8c-.1.6-.4 1.2-.8 1.6-1 1.5-2.2 3.3-3.1 5-.4-2.4 1.2-6.9 3.9-6.6zm1.6 1.1c-1.8 2.8-3.7 5.4-5.6 8 1.2-3 3.3-5.7 5-8.4.3.1.2.3.6.4zm.5.6c.3.4.5 1 .6 1.5-1.1 1.6-2.3 3-3.4 4.4-.4.1-.8.1-1.2.1 1.4-2 2.6-4.1 4-6zm.7 1.9c.1 1.2.2 2.4.1 3.5-1 .1-1.9.2-2.9.4.7-1.2 2-2.4 2.8-3.9zm65.7 20c-.3 1.3-.7 3.6-2 3.6.1.4.7-.2.7.1-.1.7-.5 1-.6 1.7-.7 0-1.5.2-2.2.4 1-2.2 2.4-4.1 4.1-5.8zm-34.3 48.3c3.8-6.3 7.3-12.9 11.6-18.8 1.4-2 2.5-4.1 3.8-6.2 5.3-8.1 10.1-16.7 16.4-23.2-2.4 4-5.6 8.3-8.2 12.6-.3.6-.5 1.4-1.2 1.6.2 1.4-1.2 2.2-2.1 2.5-.1.6.6.3.7.4-.9 1.4-1.5 2.3-2.3 3.8-.2.2-.5 0-.7.2s.2.3.2.5c-3.1 4.8-6.6 9.8-9.9 14.9-1.1 1.7-1.9 3.8-3.2 5-.1.1-.5.3-.6.4-.4.7.3-.2.4-.1.2.2-.8 1.6-1 1.8-.5.7-.9 1.3-1.2 1.7-1 1.6-1.4 3.1-2.7 2.9zm-31.2-63.2c.3.5 0 1.4.2 1.9-1.4.3-2.9.4-4.3.5-.1-.7-.1-1.3-.1-2 1.4-.1 2.8-.2 4.2-.4zm63.3 21.1c-.1.5-.4.7-.5 1.2-.9.2-1.8.3-2.7.5-.1-.5.6-1 .8-1.5 1 .1 1.5-.4 2.4-.2zm-63.3-16c-1.3 0-2.6.2-3.9.3-.2-.5-.2-1.1 0-1.7 1.3.1 2.5 0 3.8-.3.4.4.2 1.1.1 1.7zm62.4 17.7c.2.4-.4.8-.4 1.4-1.1.1-2.1.2-3.2.3.6-1.7 2.3-1.3 3.6-1.7zm-71.1-19.4c.2 10.2-.9 21.2-1.7 32.1-.6 10.7-.9 21.2-1.5 31.9-.3.9-.9 1.4-1.2 2.3.1-11 .7-22 1.9-33 .3-2.7.5-5.5.5-8.3s.4-5.5.7-8.3c.4-5.6.4-11.2 1.3-16.7zM180 35.5c.3.4-.5 1.5-.7 2.1-1.2-.2-2.2 0-3.3-.1.3-.5.6-.9.9-1.5.9-.2 2-.4 3.1-.5zm-61.5-18.4c.3.5.1 1.3.2 1.9-1.3.3-2.6.4-3.9.3 0-.7-.1-1.4-.1-2.1 1.2.1 2.5.1 3.8-.1zm60 22.2c-1.2.1-2.5.1-3.8.2-.1-.3.5-.7.6-1.1 1.2 0 2.4 0 3.6.1-.1.3-.4.4-.4.8zm-59.7-17c-1.3.1-2.6.2-3.9.2 0-.5-.1-1-.1-1.6 1.3 0 2.5-.2 3.7-.4.5.4.2 1.2.3 1.8zm58.7 19.3c-1.4 0-2.8.1-4.2 0l.9-1.5c1.2-.2 2.6.1 3.8-.2.3.4-.4 1.2-.5 1.7zm-58.8-15.4c-1.2.1-2.5.2-3.7.3-.1-.7-.1-1.3-.1-2 1.2.1 2.5 0 3.7-.3.3.6.3 1.4.1 2zm58.4 16.3c-.2.5-.4 1.1-.7 1.5-1.6-.1-3.1-.1-4.6-.1.3-.5.6-.9.9-1.4 1.5.1 2.9-.1 4.4 0zm-1.1 2.3c-.2.8-.5 1.2-.7 2-1.7 0-3.5-.2-5.1-.1.1-.6.8-1.3 1.1-2 1.6 0 3.2 0 4.7.1zm-57.4-17c.1.7.2 1.4.1 2.1-1.2.2-2.5.4-3.7.4 0-.7-.1-1.4 0-2.1 1.2-.1 2.4-.3 3.6-.4zm55.8 21.3c-1.9-.2-3.8-.2-5.7-.3.3-.5.6-1.1 1-1.6 1.7 0 3.5.2 5.1.1.5.5-.4 1.1-.4 1.8zm-55.7-17.5c.1.7.1 1.4 0 2.1-1.2.2-2.4.3-3.7.2.1-.6 0-1.1.1-1.7 1.2-.3 2.8.2 3.6-.6zm54.8 20c-2.1 0-4.3-.2-6.4-.2.4-.7.8-1.3 1.2-1.9 1.8.2 3.7.4 5.6.4.4.3-.4 1-.4 1.7zm-54.7-14.8c-1.3 0-2.4.2-3.7.2.1-.5-.1-.8.1-1.4 1.2-.1 2.4-.2 3.7-.2-.2.6.1.9-.1 1.4zm54.3 15.6c-.2.4-.4.9-.6 1.3-2.2-.2-4.5-.2-6.7-.2 0-.5.7-1.2 1-1.7 2.1.4 4.1.3 6.3.6zm-1.9 4.2c-2.4-.4-4.8-.5-7.2-.3.4-.8.8-1.5 1.3-2.2 2.2.2 4.4.4 6.7.4.2.4-.7 1.3-.8 2.1zm-52.5-18.2c.2.6.2 1.3.1 1.9-1.2 0-2.4 0-3.6.2-.3-.4 0-1.2-.1-1.7 1.1-.2 2.5 0 3.6-.4zm37.7 33.1c-.8 0-1.5 0-2.3.1 3.1-5 6.4-9.7 9.5-14.7 2.5.2 5 .2 7.4.3-3.4 7-6.7 14.1-9.8 21.5-.3-.1-.7-.2-1-.2 1.8-4.8 3.8-9.3 5.7-14-2.8 3.7-4.7 9.3-6.7 13.9-3-.3-6.1-.8-8.6-.1 1.3.4 2.7.5 4 .4 1.4.1 2.9.2 4.3.3-.2.6-.5 1.2-.8 1.7-3.1-.1-6.3-.5-8.8.5.5.4 1.3.2 1.9.1 2-.1 4.4 0 6.5.1-.2.8-.6 1.3-.9 2.1-1.4 0-2.8 0-4.2-.2-1.3-.2-2.7-.1-4 .2 1.2.3 2.5.5 3.8.5 1.3.1 2.7.1 3.9.1.2.4-.6 1.4-.7 2.1-3.3-.5-6.5-.9-9.8-1.1 1.8-2.8 3.4-5.9 5.1-8.8 2.7-.2 5.9.4 8.6.4-2.8-1.1-5.5-.8-8.1-1 .3-.5.6-1 1-1.4 2.5-.3 5.5.5 7.8 0-2.5-.9-5-.5-7.3-.7.3-.5.7-1 1-1.6.7.1 1.7-.1 2.5-.5zm-37.5-29.7c.1.7.1 1.4 0 2.1-1.3.2-2.6.2-3.9.3.1-.7 0-1.4.1-2.1 1.3-.1 2.5-.3 3.8-.3zm.1 4c.1.5.2 1 .1 1.5-1.4 0-2.7.3-4.2.1.1-.4 0-.7.1-1.2 1.4 0 2.7-.1 4-.4zm.5 4.9c-1.4.5-3.1.3-4.6.6-.1-.6-.1-1.2 0-1.8 1.5-.1 2.8-.3 4.4-.3 0 .5 0 1 .2 1.5zm-.1 2.1c.4.3.2 1 .2 1.5-1.6.3-3.2.4-4.9.5v-1.4c1.5-.5 3.2-.4 4.7-.6zm.3 3.4c.3.8 0 1.8.2 2.6-1.7.3-3.4.4-5.1.4 0-.8 0-1.6.1-2.4 1.5 0 3.2-.2 4.8-.6zm.2 4.8c.1.7.1 1.3.1 2-1.7 0-3.3.2-5.1.2-.1-.6-.1-1.2 0-1.8 1.6.1 3.3-.1 5-.4zm.2 6.2c-1.9-.3-3.4.3-5.2.2.1-.7.1-1.3 0-2 1.5-.5 3.4-.3 5-.7.4.6.1 1.7.2 2.5zm29.5 6.9c.1.1.2.2.4.1-.3 1-.7 1.9-1.4 2.7-3.8 6.2-7.6 12.6-11.3 18.6-4.3 7-9 13.9-13 21.1-.8-1.8.6-2.5 1.6-4 1.6-2.3 3.3-5.1 4.8-7.5 2.1-3.4 4.4-7.2 6.1-10.6 2.6-5.4 6.4-10.2 9.5-15.2 1-1.8 2.1-3.5 3.3-5.2z"/><path class="st1" d="M160.8 78.9c.1.6-.6 1.3-.7 2.1-.4-.2-.6 0-1-.2.2-.6.5-1.2.7-1.8.4 0 .8.1 1-.1zm-40.6-8.2c-1.7.2-3.4.4-5.2.5-.1-.6-.1-1.2 0-1.8 1.7-.2 3.4-.3 5-.7.4.6.1 1.4.2 2zM158.7 84c-.3-.1-.7-.2-1-.2.4-.8.7-1.6 1.1-2.4.4.2.9-.2 1.1.1-.5.8-.8 1.7-1.2 2.5zm-38.5-11.4c.1.8.2 1.6.2 2.3-1.9-.1-3.4.4-5.3.4.1-.8-.1-1.5 0-2.3 1.8-.1 3.4-.2 5.1-.4zm35 14.2c-.1.4-.3.9-.6 1.2-3.3-.6-6.6-.9-9.9-1-.1-.4.4-.8.6-1.1 3.4.3 6.7.7 9.9.9zm-34.6-8.2c-1.6.6-3.6.3-5.3.7-.3-.5-.1-1.4-.1-2 1.8-.2 3.5-.3 5.2-.6.3.5 0 1.3.2 1.9zm33.7 10c.3.3-.5 1.2-.5 1.8-3.5-.5-7.1-.8-10.6-.9.4-.7.8-1.3 1.2-1.9 3.2.2 6.6.8 9.9 1zm-33.8-7.9c.2.6.3 1.3.2 1.9-1.8.2-3.7.1-5.4.4-.1-.7-.1-1.3 0-2 1.7.1 3.4-.1 5.2-.3zm-14.2-1c.1 0 .2.1.2.2-.5 5.7-.7 13.3-1 19.7-.1 1-.2 2.2-.2 3.3.1 1 .1 2.1-.1 3.1-.3 1.2-1.5 2.1-1.6 3.4.8 0 .9-1.2 1.4-1.8.6 1.6-1.1 3.1-1.7 4.5.1-8.2.9-17.7 1.6-26.4.1-2.2 0-4.1 1.4-6zm14.6 6.7c-1.9.2-3.9.3-5.8.4.1-.6 0-1.1.1-1.7 1.9-.1 3.8-.4 5.7-.4v1.7zm.1 4.1c-.8-.1-1.3.1-2.1 0 .6-.8 1.1-1.7 1.9-1.9.4.4.2 1.2.2 1.9zm-1.7-1.8c-.1.7-1 1.4-1.5 2-.9 0-1.8.1-2.7.2-.2-.6-.2-1.3-.1-1.9 1.5-.1 3-.1 4.3-.3zm1.9 3.7c0 .6 0 1.3.1 1.9-1.9.3-3.9.4-5.8.4.5-.7 1-1.4 1.6-2 1.3-.1 2.7-.3 4.1-.3zm-5.1.2c.2.3-.6 1.3-1.1 1.4.1-.4.1-.8 0-1.2.2-.2.8 0 1.1-.2zm5 3.6c.2.6.3 1.2.1 1.8-2.1.1-4.1.5-6.3.4 0-.6.1-1.3 0-1.9 2.2 0 4.2-.2 6.2-.3zm.2 6.1c-.6-.2-1.4.1-1.7-.4-1.2.9-3.1.3-4.6.7-.3-.5.1-1.4-.1-2 1.9-.5 4.4 0 6.3-.6.2.8.2 1.5.1 2.3zm-1.3 1.8c0 .6-1.2 1.5-1.7 2.2-.6-.1-1 .1-1.6.1 1-1.1 1.8-2.4 3.3-2.3zm-7.4-1.8c.1.9.1 1.9 0 2.8-.2.6-1 1.3-1.6 1.9-1.5 1.9-3 4.4-4.5 5.9 0-2.1 1.9-4 3.1-5.7 1.2-1.4 2.2-3.1 3-4.9zm4.4 2.1c-.1.6-.9 1-1.2 1.6-.2-.4.4-1.1-.2-1.3-.2.5-.5 1-.9 1.4-.1-.5-.1-1.1.1-1.6.8 0 1.5 0 2.2-.1zm2.1 3.9c-.1.7-1 1.4-1.4 2.2-.3 0-.6-.1-.8.1.3-.8.8-1.6 1.4-2.2.2-.1.6.1.8-.1zm-6.7-1.4c.8 2.5-1.6 4.4-3 6.3-1.1 1.5-2.2 2.9-3 4.2-.4-2.3 1.4-4.1 3-6.2 1.1-1.5 2.1-2.9 3-4.3zm2.3 3.8c-.4-.8 0-1.7.8-2.1.3-.2.7-.2 1.1-.1.2.7-.9 1.4-1.2 2.1-.3 0-.5 0-.7.1zm6.6 1.7c.1.6.1 1.2 0 1.9-.6-.1-1.1 0-1.7.1.1-.8 1.2-1.3 1.7-2zm-.9 0c-1 1.2-2.1 2.4-3.9 2.1.6-1.5 2.2-2.4 3.9-2.1zm-8.1-1.5c.7 2.6-1.8 4.4-3.2 6.3-1.1 1.5-2.1 2.9-3 4.2-.4-2.4 1.6-4.3 3.1-6.3 1.1-1.5 2.1-2.9 3.1-4.2zm3.7 1.7c-.2.7-.7 2.2-1.6 2-.1-.7.1-1.5.7-2 .3.1.6.1.9 0zm-11-2c.4 1.9-1 3.6-1.9 5.1-.1-1 .1-2.2.1-3.2.3.1.3.3.5.1.4-.7.9-1.3 1.3-2zm36.6 11.4c-.2.9-.6 1.7-1.1 2.4-.5-.4-1.2-.3-1.8-.6.3-.6.6-1.2.9-1.9.6-.1 1.5.3 2 .1zm-20.2-5.7c-1.1.9-1.8 2.7-3.6 2.4 1.1-1 1.7-2.8 3.6-2.4zm16.1 5.4l.2.1-.9 1.8c-4.2-.7-8.4-1-12.6-1-.2-.6-.2-1.2 0-1.8 4.4.3 8.8.6 13.3.9zm-22.9-2.7c0-.6 0-1.3-.1-1.9.6-.3 1.3-.5 2-.4-.2.2-.3.4-.3.6.6-.2 1.6-1 2.6-.9 0 .8-1.4 1.6-2 2.5-.8.1-1.5.1-2.2.1zm6.6-1.4c.2.2.1.6.1.9-.2.1-.5-.1-.7.1-.1-.4.5-.6.6-1zm19.3 7l-.9 1.8c-.6-.1-1.2-.2-1.9-.4.2-.6.5-1 .7-1.6.8.2 1.4.2 2.1.2zm-35.8-10.2c.6 1.7-1.1 3-1.7 4.5-.2-.7.1-1.7 0-2.4.8-.2 1.1-1.3 1.7-2.1zm31.7 9.7c-.2.6-.5 1.2-.8 1.7-3.9-.4-7.7-.7-11.5-1 .2-.7-.1-1.5.2-2 3.9.4 7.9.8 12.1 1.3zm-15-3.6c.4.6.1 1.5.1 2.2-2.2.1-4.4.4-6.7.4 0-.6-.1-1.2-.2-1.8 2.2-.5 4.9.1 6.8-.8zm17.7 6.4c.2.3-.5 1.4-.8 1.8-.7-.2-1.2-.2-1.9-.4.2-.6.6-1 .8-1.6.7.3 1.3.3 1.9.2zm-4.2-.3c.3.3-.5 1.2-.7 1.6-3.4-.3-6.7-.4-10-.5-.1-.7-.1-1.4 0-2.1 3.5.4 7 .6 10.7 1zm-30.4-8.5c.5 2-1.3 3.7-1.8 5.5.8.1 1-1 1.4-1.5.6 1.5-.8 3.1-1.7 4 .2-1.9.2-3.8.3-5.7.7-.7 1.3-1.5 1.8-2.3zm33.7 11.3c-.4.4-.5 1.3-.9 1.6-.7-.2-1.3-.3-2-.3.3-.5.5-1 .8-1.5.7.2 1.4.1 2.1.2zm-16.5-2.6c-2.1.2-4.3.4-6.4.6-.2-.6-.2-1.2-.1-1.8 2-.3 4.3-.2 6.3-.5.4.4.3 1 .2 1.7zm12.1 2.3c-.3.5-.5 1-.8 1.5-2.6-.4-5.3-.4-7.9-.2 2.4.5 5.1.4 7.6.8-.2.5-.5.9-.6 1.4-2.4 0-5.2-.5-7.4.1 2.2.7 4.6.5 6.8.6-.2.6-.4 1.2-.8 1.7-2-.2-3.9-.1-5.9.3 1.7.4 3.8.1 5.6.3-.2.8-.6 1.1-.8 1.9-1.6 0-3.1.2-4.7.6 1 .5 2.9.1 4.1 0 .1.6-.6 1.3-.8 1.8-1.2.2-2.3.4-3.5.7 0-4.2-.7-8-.7-12.2 3.4.3 6.5.4 9.8.7zm3.3 2.5c-.2.5-.5 1-.8 1.5-.6-.2-1.3-.3-2-.4.2-.6.5-.9.6-1.4.8 0 1.5.1 2.2.3zm-15.2 1.2c-1.8 1.3-3.2 3.2-4.8 4.7-2 .2-3.9.4-5.9.6 3.1-2.8 6-5.8 8.9-8.9.6-.1 1.1-.2 1.7-.1.1 1.1-.1 2.5.1 3.7zm-1-3c-1.2 1.1-2.4 2.3-3.6 3.5-1.2 1.1-2.2 2.3-3 3.7.8 0 1.3-.9 1.8-1.4 1.8-1.8 3.5-3.7 5-5.7-.1 0-.1 0-.2-.1zm15.2 3.8c-.3.7-.6 1.3-.9 2-.7-.2-1.4-.4-2.1-.5.3-.6.6-1.1.8-1.6.8.1 1.4-.1 2.2.1zm-17.6-4.4l.2.1c-2.8 2.9-5.6 5.7-8.3 8.9-1.4 0-2.4.6-4.2-.2 2.4-3.4 5.3-5.6 7.9-8.5.5 0 1-.1 1.6-.1-1.4 1.3-2.8 2.7-4.2 4.1-1.5 1.3-2.8 2.8-3.8 4.4 1-.4 1.8-1.1 2.5-1.9 2.3-2.1 4.7-4.4 7-6.7.4-.1.9 0 1.3-.1zm16.6 6.6c-.4.7-.7 1.4-1 2.1-.8-.3-1.5-.2-2.3-.4.3-.7.6-1.3.9-1.9.9.2 1.6 0 2.4.2zm-13.3-2.7c.1 1.2.2 2.5.1 3.7-1.3-.3-2.2.2-3.3.2.9-1.4 2.4-2.1 3.2-3.9zm12.1 5c-2.1 6-5.5 11-8 16.8.1-1.1-.9-3.1-.5-4.4.2-.8 1.2-1.8 1.7-2.8 1.5-3.1 3-6.6 4.4-9.5.8 0 1.6 0 2.4-.1zm-5.9 2.5c-.8 2-1.8 3.6-2.6 5.7-.3-1.7-.5-3.4-.5-5.2 1.2-.1 2-.6 3.1-.5zm-5.8-.5c-.1.3.1.5 0 .8-.9-.3-1.4-.1-2.3-.4.3-.1.2-.6.2-.8.7-.1 1.4.1 2.1.4zm-.1 20.9c-.5-4-.8-8-1.3-12 .6-.6 1.1-1.3 1.4-2.1-.5-.2-1.1.7-1.5 1.3-.4-.1-.2-.4-.5-.6-.1 1.4-1.1 2.4-1.9 3.5-.4-.4-.9-.6-1.4-.8 1.7-2 4-3.4 5-6.1-1.4.4-2.1 1.8-3 2.8s-2.1 2-2.9 3.1c-.7.1-1.3-.6-1.8-.6 1.9-2.3 4.7-4.3 6.6-7.1.4.2.9.2 1.3.1.4 3.1.6 8.5.8 12.5.2 2.4.6 4.1-.8 6z"/><path class="st1" d="M120 142.2c-1.9 2.6-4.8 4.7-6.9 7.3-1.7.7-4.2 1.2-5.2 3.4-1.1 2.6-.7 5.3-.2 7.5-.6.7-1.3 1.4-1.9 2-.3-.5-.5-1-.6-1.6.5-.8 1.3-1.2 1.7-2.1-.6-.3-1.4.6-1.9 1.1-.6-2.2-.9-4.5-.9-6.8-.1-.8-.1-1.6 0-2.4.2-.7 1.4-1.5 2-2.1 1.9-2.1 4-4.3 5.8-6.4.8.1 1.7.1 2.5 0-3.2 2.9-6.6 5.7-9.1 9.9 1.6-1.3 3.1-2.8 4.5-4.4 1.8-1.9 3.5-3.5 5.2-5.5.7 0 1.4.1 2 .3-2.6 2.6-5.5 4.7-7.8 7.9.8.1 1.7-.9 2.4-1.6 2.2-1.9 4.6-4.3 6.7-6.4.6 0 1.1-.1 1.7-.1zm-9-.3c-2.1 2.2-4.8 4.6-6.8 7.3-.9-2.9 2.4-4.1 3.3-6.5-1.1.4-2.3 2.1-3.3 3.3-.1-1.3 0-2.8 0-4.2 2.2.6 4.6.2 6.8.1zm9 8.2c.2 1.1.2 2.2.2 3.3-.4-.7-.8-1.4-1.4-1.9.4-.4.8-.9 1.2-1.4zm-17-1.5c.1.9.3 2.1-.5 2.8-.4-1-.2-2 .5-2.8z"/><path class="st1" d="M117.1 153.6c-.7-.2-.8-.2-1-.6-.5-.1-.6.4-.9.6-.3 0-.4 0-.7-.1-1.7.8-3.4 1.4-4.5 3.3 0-1.3-.1-2.8.9-3.6 1.2-1 4.9-1.1 5.9-.5.1.2.2.5.3.9zm-1.1.9l.3.1c-1 2.1-1.6 5-2.8 6.8 1.1-1.9 1.5-5.1 2.5-6.9zm1.3.5c.4.3.8.7.9 1.1-.6 1.6-1.2 3.3-1.9 4.9-.4 0-.8.3-1.3.3 1-2 1.8-4.1 2.3-6.3z"/><path class="st1" d="M114.6 154.7c.2.5-.6 1.7-.7 2.6-.1-.9.2-1.8.7-2.6zm-11.7-3.1c.2 1.7.1 5.2.4 7.4.2 1.5.8 2.3-.3 3.6-.6-2-.5-5.1-.6-7.7-.1-1.3-.3-2.5.5-3.3zm8.9 4.5c.3.5-.5.4-.5.7-.2-.3.4-.5.5-.7zm8.5 3.5c.3 2.5.3 5.1.4 7.7-2.4 2-4.8 4.1-7 6.3-.8.7-1.8 1.3-2 2.3 1.8-.9 3.3-2.1 4.7-3.6 1.5-1.4 3-2.7 4.3-4.1 1 1.7-.7 2.6-1.9 3.7-2.1 1.9-4.7 4-6.3 6.2 1 .1 1.6-.9 2.3-1.4 2-1.7 4.1-3.6 6.1-5.5.8 1.5-1 2.4-2 3.3-2.2 1.9-4.2 3.9-6 6.2 1 .4 1.7-.8 2.3-1.3 1.9-1.8 4.1-3.8 6-5.7.8 1.7-.6 2.5-1.8 3.5-2.1 1.6-3.9 3.5-5.6 5.5-.9-1.1-1.2-2.9-1.7-4.4s-1.2-3-1.7-4.4c2.2-3 5.2-4.6 7.4-7.7-1.5.3-2.8 1.7-4 2.8-1.3 1.1-2.6 2.3-3.6 3.7-1.5-1.5-.3-2.5 1.1-4.3 1-1.2 1.9-2.6 2.5-4 2.9 0 5.5-.9 6.5-4.8zm2.9 1.5c.4.6-.2 1.1-.5 1.7-.3-.5.3-1.3.5-1.7zm.2 2.3c.6 1 .1 2.2-.7 3.1-.4-1.1-.1-2.3.7-3.1zm-23.8-5.6c.2.4.3.8.2 1.2-.2-.1-.3-.3-.7-.3.2-.4.4-.6.5-.9zm8.6 3.4c.4.4.7.8 1.1 1.2-.9.8-1.7 1.7-2.5 2.6-1.4-1.4.4-2.8 1.4-3.8zm15.7 5.4c.1.6.2 1.2.1 1.8-.4-.6-.8.2-1 .6-.6-.8.5-1.8.9-2.4zm-13.1-3.1c-1 1.3-2.1 2.6-3.1 4-.3-.5-.5-1-.6-1.5.8-1.1 1.7-2.1 2.8-3 .3.2.6.4.9.5zm2.5.8c-1.7 1.8-3.2 3.6-4.5 5.6-.3-.4-.6-1-.6-1.5 1.3-1.4 2.4-3.1 3.8-4.4.3.1.8.2 1.3.3zM98.2 160c.2.3.5.5.5.8-.1.4-.4.4-.5.8-.3-.2-.4-.5-.8-.7.3-.2.6-.5.8-.9zm5.7 2.3c.2.5.5 1 .6 1.5-.2.4-.5.7-.8 1.1-.7-.6-.8-1.6-.2-2.3.2-.1.3-.2.4-.3zm20.1 6.4c.3 1.3.5 2.7-.8 3.6-.6-1.1.6-2.4.8-3.6zm-26.7-7.4c.1.4.3.7.6 1.1-.1.2-.3.2-.3.6-.3-.6-.8-1.2-.3-1.7zm7.5 3.6c.5.6 1 1.6.3 2.4-.5-.5-.8-1.1-.9-1.7.2-.2.5-.4.6-.7zm-8.6-2.1c.6.5.6 1.4.2 2-.5-.5-.6-1.4-.2-2zm9.5 4.4c.3.8.9 1.3.7 2.3-.7-.4-.7-1.3-1.2-1.8.1-.3.5-.1.5-.5zm18.6 5.6c.6 1-.3 1.7-.8 2.6-.6-.8.4-1.8.8-2.6zm-26.5-7.5c.1 0 .2.1.2.2 1.8 2.3 3.3 5.1 5 7.6.5.8 1.4 1.5 1.6 2.4-2.5-3-4.6-6.2-7.1-9.3 0-.4.2-.5.3-.9zm-2.7-.6c0 .8.4 1.4 0 2.5-.8-.5-.6-1.7 0-2.5zm11.8 5.2c.3.6.5 1.1.7 1.7-.2.1-1.2-1.2-.7-1.7zm-10-2.8c2.3 2.8 4.2 5.8 6.4 8.6-.2.4-.6.4-.9.6-2-2.4-3.7-5-5.9-7.4.4-.3.4-1 .4-1.8zm27.6 8.5c.4.6.1 1.5.4 2.1-.6.5-1.1 1.2-1.4 1.9-.5-1.3.3-2.8 1-4zm-30.9-8.4c.6.9.5 2.1-.1 2.9-.6-.9-.5-2.1.1-2.9zm27.8 9.4c0 .6.4 1.5.1 2.1s-1.3 1.1-1.8 1.5c-1.7 1.6-3.7 3.4-5.1 5-.5-.4-.4-1.3-.8-1.8 2.6-2.1 5.1-4.5 7.6-6.8zm3.4 2.7c.5 1.4-.6 2.4-1.2 3.6-.6-1.2.7-2.3 1.2-3.6zm-32.7-9.6c.5 1 .4 2.3-.3 3.2-.5-1.1-.4-2.3.3-3.2zm29.3 9.7c.3 1.2.4 2.5.2 3.8 1.6 12.5 1.1 26.2 2.1 39-1.4.8-2.6 2.1-4 3-.7-2.3 1.3-3.5 2.1-5.6-.8 0-1.6 1.4-2.3 2.1-1.2-10.9-1.7-22.3-3.9-32.7 1.8-2.1 4.5-3.2 5.8-5.6-2.1.8-4 3.2-6 4.7-.3-.7-.4-1.5-.8-2.2 2.3-2.1 4.9-3.7 6.8-6.5zm3.5 3.2c.5 1.3-.5 2.1-1.1 3.3-.7-1.1.6-2.4 1.1-3.3zm-34.3-10.2c.1.8.6 1.9-.1 2.7-.3-.5.1-1.3-.5-1.7.2-.3.4-.8.6-1zm14.7 6c-.5.2-1.1.7-1.4 0 .4-.3 1.1-.5 1.4 0zm-15.8-4.2c.8 1.6-.2 2.8-1.4 4.6-6.5 9.8-13.1 19.9-19.5 29.7-1.8 2.8-3.6 5.2-5.3 8.1-.5.8-.8 2.1-2 2.3 4.7-7.5 8.9-15.2 13.8-22.5s10-14.4 14.4-22.2zm35.5 11.4c-.1 1.9 1.1 5.2-1 6.1-.4-1.1 1.4-2.4.6-3.3-.5 0-.3.5-.6.8-.7-1.3.5-2.4 1-3.6zm-22.6-6.6c.2 0 .2.1.4.2 0 .2-.2.2-.2.4-.3 0-.3-.3-.2-.6zm-1.3.6c.3.1.2.4.3.5-.1.4-.5.3-.6.6-.1-.1-.3-.3-.3-.5.1-.4.5-.3.6-.6zm-1.8 1.2c.4.1.2.4.4.6-.2.4-.5.5-.8.8-.1-.2-.4-.4-.3-.8.3-.2.5-.4.7-.6zm-1.7 1.4c.3.2.4.5.4.9-.3.1-.5.3-.6.6-.3-.1-.3-.4-.4-.7.1-.5.5-.4.6-.8zm27.6 9.6c.2.6 0 1.6.2 2.2-.2.4-.8.2-1 .7-.4-1 .1-2 .8-2.9zm-29-8.2c.2.2.3.5.4.8l-.8.9c-.4-.1-.2-.4-.5-.6.3-.4.6-.8.9-1.1zm29.1 11.1c.3 2 .1 4.1.3 6.1-.2.4-.6.3-.7.6 0-2.1-1.2-4.8.4-6.7zm-30.8-9.2c.3.1.5.5.4.8-.9 1-1.7 2-2.4 3-.8-.5.1-1.2.6-1.8.5-.8 1-1.3 1.4-2zm-3.4 4.5c.1.1.2.3.3.5-.1.4-.4.7-.6 1-.8-.3 0-1.2.3-1.5zm34.4 12c.4.7.1 1.7-.5 2.1-.5-.6.1-1.5.5-2.1zm-36-9.8c.7.7-.4 1.4-.7 2.1-.2-.1-.1-.4-.4-.4.4-.7.7-1.2 1.1-1.7zm36.1 12.3c.5.8.2 1.8-.6 2.3-.3-.8-.1-1.7.6-2.3zm-38.1-9.7c.1.1.1.2.1.3.4.5-.4 1.4-.8 2-6.3 9.7-14.1 18.1-20.6 27.8-.3-1.4 1.1-2.8 1.9-4.1 2.4-3.9 5.1-7.7 8.1-11.2 4.2-4.7 7.5-9.9 11.3-14.8zm38.3 12.5c.4 1 0 2.1-.8 2.7-.3-1 0-2 .8-2.7zm.3 2.9c.5 1-.4 1.8-.9 2.6-.7-.9.3-2 .9-2.6zm.1 2.7c.5 1.1-.5 2-1.1 2.8-.3-.4 0-1.1-.2-1.5.5-.3 1-.8 1.3-1.3zm.2 2.8c.5.9-.4 1.8-1 2.5-.1.3.2.4.3.5.3.1.7 0 .9-.3.4.9-.9 1.2-1.1 2.2-.3-1.4-.4-2.9-.3-4.4.3.4.9-.1 1.2-.5zm.3 4.8c.2.2 0 .7.2.9-.6.4-1 1-1.4 1.6-.5-1 .7-1.8 1.2-2.5zm-3.1 2.8c.8 5.3.9 11 1.4 16.5-1.4 1-2.7 2.2-4.1 3.1.3-2 2.6-2.7 3.5-4.6-1.1.4-2.5 1.8-3.6 2.7-.3-3.7-.5-7.5-.8-11.3.9-1.4 3.1-2 3.2-3.7-1.4.1-2.2 1.6-3.4 2.1-.3-2.6 2.7-3 3.8-4.8zM61.9 219c-.1.7-.7 1.3-1.4 1.4-.1-.8 1-.9 1.4-1.4zm-1.4 2.2c-.2.8-.9 1.5-1.8 1.5.1-.8 1.2-1.1 1.8-1.5zm64.5 19.7c.6 2.5-2.5 3.3-3.8 4.6-.4-2.5 2.7-2.8 3.8-4.6zm-59.5-16c.1.4.1.8 0 1.2-.1-.4-.5-.9 0-1.2zm-6.6-1.3c0 .8-1.1 2.2-2.2 2 .4-1.1 1.2-1.8 2.2-2zm66.1 20.3c.5 1-.9 1.6-1.8 2.3-.6.6-1.3 1-2 1.4v-.7c1.3-1 2.6-1.9 3.8-3zm-60.7-17.6c.3.9 0 1.9-.6 2.7-.2-.2-.3-.6 0-.8 0-.2-.4-.2-.4-.5.3-.7.7-.9 1-1.4zm60.7 19.8c.2.4 0 .9.1 1.4-1.2 1-2.5 1.7-3.7 2.7-.6-1.7 2.6-2.8 3.6-4.1zm-67.7-19.9c.1.7-1.1 1.6-1.4 2.6-.5-.2-1.1-.2-1.6-.1.9-1.1 1.6-2.4 3-2.5zm5.3 2.4c.3.3-.3.4-.4.6-.3-.2.3-.4.4-.6zm-.1.8c.4.5 0 1.4-.4 2-.5-.6 0-1.4.4-2zm62.6 19.4c.7 1.7-2.7 2.9-3.6 3.9-.5-2.1 2.6-2.4 3.6-3.9zm-64.2-17.2c.3.6.2 1.4-.2 1.9-.2-.4-.2-.8-.3-1.3.2-.1.3-.4.5-.6zm64.2 19.7c.4.3.2 1 .2 1.5-1.3 1-2.8 1.8-4 2.8-.5-1.4.6-1.8 1.8-2.6.8-.5 1.4-1.1 2-1.7zm-65.7-17.5c.1.4.3 1 0 1.3 0-.5-.4-1 0-1.3zm-1.3 1.6c.1.2.1.7-.3.7 0-.3.2-.4.3-.7zm-6.3-1.7c-.3.4-.6.8-1 1.2-.5-.2-.8 0-1.3-.2.2-.5.6-.7.9-1.1.6.1.9 0 1.4.1zm76.1 23.2c.5.3.6.9.8 1.3-.1.3-.6 0-.7.2-.2-.4-.2-1-.1-1.5zm-71.3-19.6c.4.1-.1.6-.2.7-.2-.2.2-.5.2-.7zm-6.6-1.7c-.4.7-1.3.5-2.1.7.5-.7 1.4-1 2.1-.7zm4.3 5.3c.1.1.1.4 0 .7-.3-.3-.2-.4 0-.7zm-1.5 4.4c.5.6.3 1.5 1 2.1-.2.2-.6 0-.8.2-.2-.8-.3-1.5-.2-2.3zm75.7 23.5c-.2.6-.4 1.3-.7 1.9-.4 0-.7.3-1.1.2.4-.7.7-1.4 1-2.1.3.1.4-.2.8 0zm-3.8 2.6c.3-.7.6-1.5.8-2.3.3-.1.6 0 .8-.2.1.7-.7 2.6-1.6 2.5zm-69.4-20.8c-.4.3-1.1.1-1.5.3-.5-.7-.7-1.5-.6-2.3.6 0 1.1 0 1.7-.1.4.5.1 1.4.4 2.1zm67.3 21.5c.2-.9.6-1.4.8-2.3.2-.1.5 0 .6-.3.2.7-.6 2.4-1.4 2.6zm29 6.9c1 .7.8 1.9 0 3.2-.3-.4-.6-.9-.8-1.4.3-.8.6-1.2.8-1.8zm-96.1-25.8c-.4-.1-.8 0-1.1.1-.3-.3-.2-.9-.4-1.2.8-.5 1.8 0 1.5 1.1zm97.4 28.4c1 1 .5 2.4-.2 4-.7-1.3-.6-2.8.2-4zM115 271c-1.2 2.8-1.3 7.3-3.3 9.1.1-1.6 1-3.5.7-4.9 1-1.3 1.8-2.7 2.6-4.2zm-59.3-16.5c0 .4-.3 1 .3 1.1-.3.4-.8.3-1.3.3.1-.5-.2-.8-.1-1.3.4 0 .7-.2 1.1-.1zm98.3 29.8c1.4 1.2.1 3-.7 4.6-.9-1.3.1-2.8.7-4.6zm-97.6-26.5c-.4.1-.8.2-1.3.2-.1-.2 0-.4-.1-.6.5-.4 1.3-.4 1.4.4zm98.5 30.1c.8 1.5-.5 3.1-1.3 4.6-.8-1.7.5-2.8 1.3-4.6zm-98.3-28.6c-.1.4.2.6 0 1-.4-.1-.9-.1-1.3.2-.1-.4-.2-.8-.1-1.2.5 0 .8-.2 1.4 0zm-1.2 2.1c.4.2.9.4 1.4.5v1c-.6-.3-.9-.1-1.3-.1 0-.5-.2-.9-.1-1.4zm99.8 30.3c.3 2-.9 3.6-1.6 5.7.3.8-.2 2-.5 3.1 0-2.4.6-5 .5-7.3.2-.3.3.2.6.2.4-.2.6-1.1 1-1.7zM55.6 264c.3.3.7.5 1.1.7 0 .3 0 .6-.1.8-.4-.1-.7-.2-1.1-.2 0-.5.1-.9.1-1.3zm0 2.8c.3.1.2.3.5.4-.2.3.1.3 0 .5-.4 0-.3-.3-.7-.3l.2-.6zm-.9 2.4c.1-.1.9.2.6.6-.4 0-.3-.4-.6-.6zM5.9 255.1c-.2 2.7-1.7 4.4-2.6 6.8-.6-2.5 1.7-4.7 2.6-6.8zM53.8 271c.1.3.1.5.1.8-.2 0-.2-.2-.4-.2 0-.4.2-.4.3-.6zm-1 1.7c.4.3.6.7 1 1-.3.9-.8 1.3-1.1 2.1-.4-.1-.8-.3-1.1-.6.3-1 .9-1.6 1.2-2.5zM5.1 260c.3 2.2-.3 4.3-1.6 6.1-.8-1.9.6-4.3 1.6-6.1zM52 277c-4.5 7.1-10.6 11.1-18.4 12.1 3.3-1.2 6.4-1.6 9.1-3.5 1.6-1.2 3-2.6 4.2-4.2 1.5-1.6 2.8-3.3 4-5.1.3.3.7.5 1.1.7zM5.2 264.4c.7 1.5-.7 3.3-1.3 5-.8-1.6.5-3.4 1.3-5zm.3 3.7c.4.8-.7 1.9-.9 3-.6-.8.7-2 .9-3zm146.4 44.6c1.1 6.7 4.3 12.8 9.3 17.5-6.6-3.6-9.3-10.1-9.3-17.5zm-146-43c.2.3.3.7.3 1.1-.4-.2-.7.1-.8.5-.1-.4.4-1.1.5-1.6zm.6 1.6c.4.5.4 1.2.8 1.7-.4 0-.8.2-1 .5-.5-.5 0-1.4.2-2.2zm.8 1.9c.4.6.6 1.3 1.1 1.9-.3.1-.8 0-.9.4-.3-.2-.5-.6-.6-.9.2-.5.3-.9.4-1.4zm100 31.1c.2.2.3.4.6.6-.3.9-.2 1.5-.5 2.4-.3 0-.2-.3-.5-.3.1-.8.3-1.8.4-2.7zm-98.8-29c.4.4.6 1 1 1.4-.3.1-.7.1-.9.5-.8-.3-.2-1.3-.1-1.9zm100.1 30.5c.9.5.2 1.9.1 2.9-.8-.5-.4-1.7-.1-2.9zm34.6 10.9c1.2.7.2 2.7.2 4.1-.8-1 0-2.8-.2-4.1zm-33.3-9.3c.5-.1.8.6 1.1.9-.2.7-.3 1.4-.4 2.2-.4-.2-.8-.5-1.1-.9.2-.7.3-1.4.4-2.2zm34.7 10.8c.7.4.8 1.4 1 1.6-.3 1-.4 2-.5 3-1.4-.8-.3-3-.5-4.6zm-6-1.3c-.1.5-.1 1-.2 1.5-.5-.2-.8 0-1.2-.3 0-.5 0-1-.1-1.5.5.3.9 0 1.5.3zm-129.1-39l.9.3c-.2.1-.3.5-.6.5-.3-.2-.5-.4-.3-.8zm102.3 31c.1 0 .2.1.2.1.4.6 0 1.6 0 2.4-.2-.1-.3-.3-.6-.3.1-.7.2-1.5.4-2.2zm23.5 7.3l1 .3c-.2.5-.3 1-.3 1.6-.4-.2-.6 0-1-.1l.3-1.8zM11.2 278.9c.3.4.7.7 1.1 1-.2.2-.4.3-.5.6-.4-.2-.6-.5-1-.7 0-.5.3-.6.4-.9zm102 30.8c1.4.9 3.2 1.6 4.6 2.5-.1.7-.1 1.5-.1 2.3-1.6-.8-3.1-1.7-4.7-2.5.1-.8.1-1.5.2-2.3zm20.9 6.5c.2.4 0 1.1-.1 1.7-.2 0-.5-.3-.5 0-.4-.4-.1-1.1-.1-1.7.2.1.5.1.7 0zm-2-.1c-.1.6.1.9-.1 1.5-.3-.1-.4.1-.7-.1 0-.5 0-1-.1-1.5.3 0 .6 0 .9.1zm14.2 4.5c1.3 1.1 1.1 2.9.7 4.9-1.3-1.1-.7-3.2-.7-4.9zm-16.1-3.1c-.5-.1-1-.2-1.5-.1-.3-.6-.3-1.2-.2-1.8.5.1.9.2 1.4.1.4.4.2 1.2.3 1.8zm-117.1-37c.4.3.9.6 1.4.9-.2.4-.6.4-.8.8-.4-.2-.6-.6-1.1-.9.2-.2.3-.6.5-.8zm15.5 5c-.5.4-.8 1.1-1.3 1.6l-.8-.3c.2-.6.6-.9.8-1.6.6.2.8 0 1.3.3zm89.7 27.1c.7.4 1.4.8 2 1.2-.3.6-.1 1-.3 1.6l-1.3-.4c0-.9-.2-1.7-.4-2.4zM26.6 285c-.5.5-.9 1.1-1.3 1.6-.3 0-.7-.1-1-.1.3-.6.7-1.2 1.1-1.8.4.3.7.2 1.2.3zm100.8 30.6c-.2.6.1 1 0 1.5-.3-.1-.6-.2-.9-.2.1-.6-.1-1 0-1.5.3.1.5 0 .9.2zM15.2 281.8c.4.1.6.4 1.1.4-.2.6-.7.7-.9 1.3-.3-.1-.5-.3-.7-.5.1-.4.3-.8.5-1.2zm110.1 33.4c0 .5 0 1 .1 1.6-.6-.3-.9-.1-1.4-.3-.1-.4 0-1-.2-1.4.5-.1 1-.1 1.5.1zm-101-30.5c-.6.6-.9 1.8-1.8 1.7.3-.7.7-1 .9-1.8.2-.1.6 0 .9.1zm97 29.5c.3.4 1.3.4 1.6.6v1.3l-1.4-.4c-.2-.5-.2-1-.2-1.5zM16.9 282.7c.5.1 1 .3 1.5.6l-1.2 1.5c-.3-.1-.7-.3-1-.5.2-.6.5-1.1.7-1.6zm2.2.7l1.4.4c-.4.7-1 1.1-1.4 1.8-.4 0-.5-.3-.9-.4.3-.5.6-1.1.9-1.8zm2.3.7c.3.1.7.2 1 .3-.5.6-.9 1.3-1.3 1.9-.4-.2-.7 0-.8-.3.3-.5.7-1.2 1.1-1.9zm126.8 39.7c.9 1.1 1.1 2.7.8 4.4-1.2-.9-1.3-2.5-.8-4.4zm1.7 3.5c.6.5.4 1.5.4 2.4-.8-.4-.3-1.6-.4-2.4zM139.5 95.2c4.3.4 9.2 1.8 12.9 1.2-4.3-.9-8.3-1.1-12.5-1.8.4-.5.7-1.2 1-1.6 3.9 1.1 8 1.6 12.1 1.7-3.9-1-7.9-1.6-12-1.8.6-1 1.2-1.8 1.8-2.9 3.5.2 7.3.8 10.7 1-.1.5-.3 1-.5 1.5-3.6-.5-7.4-1.3-10.6-1.1 1.7.5 3.4.8 5.2.9 1.8.3 3.5.5 5.3.5-.1.4-.3.8-.4 1.2 1-.5 1-2.2 1.9-3 .3-.3.2-.2.5-.8.7-1.8 1.8-3.6 2.6-5.7.4-.1.8-.1 1.3-.2-5.2 13-10.6 25.6-16.5 37.2-.6 0-1.4-.2-2-.2 2.7-5.4 5.4-11 8-17 .8-1.9 1.9-3.8 2.3-5.8-2.6 3.2-4.1 7.5-6.2 11.4s-4.3 7.6-6.3 11.2c-4.6-.3-9.3-.7-13.9-.9.6-2.4 2.2-4.5 3.5-6.5 3.7-6.1 8-11.9 11.8-18.5zm-.8 1.5c3.9.9 8.4 1.7 11.7 1.1-3.9-.5-7.8-.9-11.7-1.1zm-17.3 7.5c.1 1.2-.3 2.3-1.5 2.1.3-.5.9-1.7 1.5-2.1zm0 4c0 .7-.1 1.3-.2 2h-1.3c.2-.1.2-.4.3-.7-.2-.1-.4 0-.5.2v.1c.2-.4.8-1.8 1.7-1.6zM99.5 162c1.6 2.4 3 4.8 4.2 7.4-1.2-1.4-2.3-3.6-3.6-5.5-.4-.4-1.4-1.1-.6-1.9zm-.9 1.9c1 1 1.8 2.2 2.4 3.4.8 1.2 1.6 2.4 2.3 3.6-1.3-1.4-2.4-3.4-3.7-5.2-.5-.5-1.3-1-1-1.8zm9.4 8.6c.8 1.1.9 2.5 1.5 3.6-.9-1-1.4-2.3-1.5-3.6zm5 14.5c.9 2.8 1.7 5.7 2.2 8.6.1.3.1-.2.1-.3 2.2 14.5 2.5 30.1 3.6 45.2-1.6-8.7-1.7-17.8-2.8-26.9s-1.3-18-3.1-26.6zm12.6 38.4c.1-.3.6.1.8-.2l.4-1.2c.4 5.1.1 10.6.2 15.9-.6-4.7-.8-9.7-1.4-14.5zm2.9 31c0 .3-.4-.2-.5.1-.2-1.3-.3-2.6-.2-3.9 0-.6.1.7.2 1.5.1.7.3 1.5.5 2.3z"/><path class="st1" d="M104.7 303.1c-1.1-2.5-1.8-5.1-1.9-7.8-.4-4.3-1.1-8.5 1.7-13.6 3-5.5 6.6-10.6 10.8-15.3 1-.2 1.6-1.1 2.2-2 .2.3 0 .7-.1 1.2.4.1.3.9.3 1.5 2.2-.9 2.4-4.4 2.9-7.1.1-1.2.2-2.3.5-3.5.3-.6 1.6-1.1 2.1-1.5.7-.4 1.4-.9 2.1-1.5.3 1.6-.1 3.5.1 5.2-.6.5-1.3.7-1.7 1.6 1.9 1.1 4.2-.4 6.2.6.8.4 1.7 2 2.4 2.9 1.3 1.8 2.8 3.4 5.8 3.5.1-.3-.1-.3-.3-.4 4.8 2.2 9.5 5.1 11.7 9-.3.9-.6 1.8-.3 2.3.5-.1.5-1 .8-1.3s.7.8 1 1.1c-.5.6-.6 2.2-1.5 2.1 0 1.5 1.8 2.1 1.3 3.9-.1.3.4.4.5.6.9 5.1.8 10.4-.4 15.4-3.3 13.6-1.3 24.7 7.6 31.7 3 2.4 7.3 3.3 10.8 6.1.7 1.5-1.5 1.6-2.7 1.7-2.1.1-5.8-.7-7.6-2.1-3.3-2.6-5.3-6.9-7.4-10.8s-3.9-8.3-7.4-10.8c-.6-.4-1.4-.6-2.2-.4.6.9-.1 2.3-.1 3.7-1.8-.5.5-3.3-.8-4.1-.9.7-.7 2.4-1 3.5-.2 0-.6-.3-.7-.1-.2-.7.1-1.5.8-1.9-.8-1.2-2.8-2.2-4.6-2.5-1.1-.2-2.3.1-3.6-.1-1.8-.3-3.4-.4-5-.7-1.6-.2-3.2-.5-4.7-1-3.3-1.3-5.7-3.6-9-4.9-.3-.2-.1-.6-.3-.8-.4-.2-.3.3-.7 0-5.4-4.1-7.5-11.8-5.6-20.1.8-3.6 2.7-5.9 4.2-8.7-.3 1.6 0 3.3-.5 4.8-.2.6-.6 1.1-.8 1.6-.7 1.8-1.2 3.6-1.3 5.5-.3 6.3.6 11.6 4.8 15.3 1.1 1 1.9 2.3 3.3 3 1.5.7 2.2.5 3.4.8 2 .5 3.6 1.7 5.3 2 1.8.3 3.5.5 5.3.5.6 0 1.2-.5 1.8-.6.4-.1.8 0 1.1 0 .7-.1 1.4-.4 2.1-.5.7 0 1.4-.1 2.1-.2 3.2-1 7.5-4.7 9.3-8.2.9-1.9 1.5-3.9 1.9-5.9.7-2.9.1-5.9-.5-8.8-1.1-5.3-3.2-10.4-8.4-13.6-2.8-1.7-7.2-3.8-10.6-3.3-.1-.5.3-1.2.4-1.8 1-.1 2 .5 3 .6.7 0 1.3-.5 1.9-.2-1.8-2.7-6.5-2.8-9.3-1.8-1.4.4-2.7 1.2-3.7 2.4.1.3.6-.1.9.3-.6 1.4-1 3-2.4 2.9.6-1.3 1.2-2.7 1.7-4.1-1.7.1-2.3 3.9-3.4 5.1-.3.3-.7.5-1.1.5.4-1.6 1.4-3.6 1.6-4.6-1-.3-1.5.9-1.8 1.7-.6 1.6-1.2 3.7-2 4.9.2-1.8.6-3.7 1.2-5.4.1-.5-.7-.2-.6-.6.3-.5 1-1.5.7-2.1-1.3.9-2 2.5-2.9 3.9-1 1.3-1.9 2.7-2.8 4.2-1.8 3.3-4.3 5.9-5.4 9.9-1.7 5.7-1.1 11.9 1.6 17.2-.1.4-.2.8-.4 1.2s-.2-.3-.4-.4c-.1.7.7.8.1 1.7-1-.8-.2-2.6-.1-4l-.2-.1c-.6.4-.9.9-1.1 1.6zm40.4-30c-1.4-1.4-3.4-3.7-4.7-2.3 2.8 1.7 3.9 4.3 6.6 5.9.6-1.2-.9-2.4-1.9-3.6zm2.5 30.4c-.3.7-.2 1.3.4 1.5.1-.1.2-.1.2 0 .3-.4.4-.9.3-1.4-.3-.2-.7-.2-.9-.1zm-1.7 6.3c2.1 1.4 2.3-2.3 1.5-3.1-2-.8-1.7 2.2-1.5 3.1zm-2.5 1.4c-.8.8-.2 2.8 1 2.3 1.3-1.2-.1-3.2-1-2.3zm6.1 3.3c0-.5-.1-1.1-.3-1.6-.1.5 0 1.1.3 1.6zm12.7 23.3c1.4.4 3.2-2.2.8-2.6-.7-.2-1.5.2-1.7.9-.2.7.2 1.5.9 1.7zm-2-1.9c.2-.6-.2-1.2-.8-1.4-.4-.1-.8 0-1.1.2-.4 1.2 1.4 2.3 1.9 1.2zm5.8 3.2c1.9.6 1.6-2.6 0-2.4-1.4.1-1.1 2 0 2.4zM48.4 237.2c-.1.3-1.8 1.4-1.8.3.6.1 1.2 0 1.8-.3z"/><path class="st1" d="M95.8 169.3c2 2.4 3.9 4.8 5.7 7.3-7 3.3-12.1 12.5-17.4 19.5-3.4 4.5-6.3 9-9.7 13.4-1.8 2.3-3 4.8-4.6 7.1s-3.3 4.5-4.9 6.7c-2.7 3.7-5.3 6.6-7.9 10.3-.3 1.3-.9 2.6-1.8 3.6-.1.5-.2-.4-.5 0-1.3 2.2-3.2 4.7-3.8 7.6-.9 4.1 1.1 7.6 1.7 11.5s1.3 7.9 0 12.4c-.9 2.5-2.1 4.8-3.5 7-1.4 1.9-2.8 3.7-4.4 5.5-3.1 3.6-7.1 4.8-11.4 5.8-.1-.5 1.8-1.7.4-2.2 2.6-.5 5.3-.6 6.9-2.9-1.3-.2-2.6.8-3.9 1.2s-2.8.5-3.9 1.3c-.2.3.4.3.5.4-.7.7-1.2 1.5-1.5 2.4-.5.1-1.1.1-1.6 0 .2-.5.5-.7.6-1.3-1-.1-1 1.5-2.1 1.2.4-.7.8-1.4 1.1-2.2-.4-.5-.5 0-1.2-.1-1-.2-1.9-.9-2.8-1.2-1.9-.6-4.3-1-6.4-1.7-5.4-1.7-9.6-5.8-11.5-11.1-.8-2.6-1.3-5.2-1.3-7.9-.2-3.1.2-6.1 1-9.1 1.3-4.7 4-6.8 6.8-9.4-.8-.1-1.5.2-2.1.7-.9.6-1.7 1.3-2.4 2.1-2.3 2.5-4 6.3-5.9 9.4.7-4.4 4.6-7 5.7-10.6 1.6-1.5 3.4-2.9 5.3-4.1.2-.1.5 0 .7.1 1.7-2.3 4.2-2.8 6.9-3.8 3.8-1.4 7.9-1.8 11.9-1.2 1.1.1 2.3.2 3.4.4 2.2.3 4.3.1 6.6 1.6-.3 1.8 1.7 1.9 3 1.6 1.7-1.2 3.2-2.7 4.3-4.5.8-1.1 1.8-2.3 1.6-3.5-.8 0-1.3.4-2.1.2.3-1.6 3-.2 3.9-1.2-.2-1-1.7-.5-2.5-.8.6-1.1 2.2-.4 3.1-.9.4-.2-.1-.7.2-.8 4.4-3.6 7.1-9.1 10.3-14.1 9.7-15 19.9-29.6 29.2-45.2l.3-.5zm-63.3 70.8l1.2.3c1.9.1 5.1-.1 4.1-1.6-2.5-.4-5-.7-6.9 0 .8.1 1.2 1 1.6 1.3zm12.7 6.8c1.4 1.4 1.7 3.4 2.3 5.2-1.2-1.6-2.7-3-4.3-4.3-2.2-1.8-4.1-3.9-7.2-4.7-.8-.2-1.7-.1-2.5-.2-1.3-.3-2.3-.7-3.4-.8-7.2-.9-14 3.8-17.9 9-1.9 2.9-2.9 6.4-2.8 9.9 0 1.9.3 3.8.7 5.7.8 3 3.2 5.7 5.1 8.1 1.3 1.7 2.3 3.7 4.2 4.9 3 1.8 5.9 1.5 8.8 2 .6.1 1.1.4 1.7.5 2.5.4 4.7-.8 6.4-1.8.7-.4 1.4-.4 2-.8 1.1-.9 2-1.9 2.9-3.1.9-1 2-2.1 2.9-3.3 1.9-2.7 3.4-5.8 4.4-9 .3-1.2.4-2.5.6-3.8.3-1.3.6-2.6.8-3.9 0-1.8-.2-3.6-.8-5.4-.5-1.6-1.2-3.1-2.3-4.4-1.2-1.3-2.8-2.1-4.6-2.2.9 1.2 2.2 1.5 3 2.4zM51 262c.3-.1.5-.7.4-1.1-1.1-1.4-1.9 1.2-.4 1.1zm-2.2 5.8c.2.7.8 1.2 1.6 1.2 2.3-1.4-1-4.8-1.6-1.2zm-1 5.9c1.8.5 2.3-3-.2-2.5-.6.5-.7 1.5-.2 2.1.1.1.2.3.4.4zm-1.5 2.7c.2-.6.1-1.2-.1-1.8-2.2-1-1.3 3 .1 1.8z"/><path class="st1" d="M20.3 247.5c-2.8 2.6-6.3 5.5-7.8 11.1.5-5.7 4.7-8.7 7.8-11.1zm-11.5-.6c0 .6-.8 1-1.1 1.5 0-.5.8-1 1.1-1.5zM6 250.7c0-.8.8-1.5 1.3-2 0 .3-1 1.3-1.3 2zm6 12.7c.2 1.3.4 2.6.8 4-.7-1.3-1-2.7-.8-4zm139.3 66.7c.5.7.8 1.5 1.3 2.3-.9-.4-1.4-1.3-1.3-2.3zM113.4 9.8c-.2 19.7-2.1 40.3-1.3 59.5.2.1.1-.3.3-.5.3 9.2-.5 19.6.2 29 .1 1.1.5 3.2.2 4-.2.6-1.1 1.3-1.6 1.9-1.5 1.9-3 4-4.4 6.1-.6-2.4 1.4-4.3 2.9-6.4 1-1.5 1.9-3 2.7-4.6-2.1 2.3-3.9 4.8-5.5 7.4-.4-3.1 3.2-6.1 4.3-9.4-1.6 1.9-2.9 4-4.2 6.2 0-7.2.8-15.3 1.1-22.9-.1-1.1 0-2.2.1-3.3.5-1.7 1.9-2.9 2.6-4.5-.9.6-1.5 1.9-2.3 2.8 0-7.5.4-15.5.8-23.4s.7-15.5 1.5-23.7c.4-3.7.6-7.8.6-11.7-.1-1.2-.1-2.5-.1-3.7.5-1 1.6-1.7 2.1-2.8zm-4.9 75c0-.3.1-.6-.1-.8-.2.2-.2.5.1.8 0-.1 0 0 0 0zm-4 48.8c.5-1.7.9-3.5 1-5.3.2-1.8 0-3.9.5-5.3s2.2-2.9 3.2-4.3c1.1-1.5 2.1-2.9 3.1-4.4 0 4.6-.7 9.7.4 13.7v1.3c0 .4.6 0 .9.3-2.3 1.8-4.4 3.8-6.3 6-.5.6-1.7 1.9-1.8 2.5 0 .8 1.7 1.5 2.8 1.7 1.8.3 3.8 0 5.9.1 1.9.1 3.8.1 5.7-.3 0 .4-1.1 1.1-1.8 1.1-1.2.1-2.3-.3-3.7-.1-3.4.3-7.3.1-10.1 1-.2-2.4.1-5-.1-7.4-.9 3.1-.8 6.5-.9 9.7 0 1.7.3 3.2-.9 4.4-.4-6.1-.4-12.3 0-18.4-.1-.9 0-1.8.1-2.7.3-.8 1.4-1.3 1.6-2.1.1 2.9 0 5.8.4 8.5z"/></svg>