<svg version="1.1" id="Layer_1" xmlns="http://www.w3.org/2000/svg" x="0" y="0" viewBox="0 0 74.8 218.1" xml:space="preserve"><style>.st1{fill-rule:evenodd;clip-rule:evenodd;fill:#12131b}</style><path d="M74.7 188.2c-.2-1-1.4-1.4-1.8-2-.3-.3.4-.1.4-.4-2.3-.2-4.6-.3-6.9-.3.1-1.9.2-3.8-.5-5.1-.9-1.5-2.9-1.4-4.4-2.3.8-10 .8-20.1.9-30.3 0-5.1 0-10.2-.1-15.4-.1-2.5-.2-5.1-.2-7.6s0-5.2-.1-7.8c-.2-5-.1-10-.1-15s-.1-10.2-.1-15.3c0-9 .4-17.9.8-26.7 0-1.2.2-2.4.3-3.7.2-3.7-.3-7.3-.2-10.8 1.5-.6 2.6-2 2.9-3.7.1-.8-.2-1.7.2-2.5 3 .2 5.3-.3 6.9-1.6.6-.6 1.1-1.4 1.3-2.3.1-.4.1-.9.1-1.4.2-.5.3-1 .3-1.5-.2-.9-.5-1.7-1-2.5-.3-.8-.8-1.5-1.3-2.2-.9-.9-2.4-1-3-2 .8-10.7-4.5-16.3-11.2-20.3-1.6-1.1-3.4-2-5.1-2.7-2.1-.7-4.2-1.2-6.4-1.6C44.2.6 41.9.3 39.6.1c-2.7-.2-5.3-.2-8 0-2.7.3-5.4 1-8 2-2.3.9-4.6 2-6.8 3.2-2.1 1.1-4.1 2.5-5.8 4.2-1.8 1.6-3.3 3.6-4.2 5.8-.3.8-.3 1.6-.6 2.5-.9 2.8-1.2 5.7-1 8.7-.5.1-1.2-.1-1.7.1-.2.1-.5.6-.7.8-.9.7-1.6 1.7-2 2.7-.8 1.1-1 2.5-.7 3.7.1.5.1 1.1.2 1.5.5 1.7 1.8 2.9 3.4 3.4H5c1 .1 2.1.7 3.3.5.3 2.7.9 5.9 4.1 6-.1 11.2.4 22.3.1 33.4-.2 5.5-.2 11-.2 16.5 0 11.2-.3 22.3-.3 33.4 0 2.7.3 5.4.2 8.1s-.2 5.5-.2 8.3c0 11.1-.3 22.2-.4 33.5-.6.2-1.2.5-1.7.9-1.1 1.2-.9 3.1-1.3 4.9-1.3-.2-2.5.3-3.6.5-.4 0-.9 0-1.3.1-1.6.4-2.8 1.6-3.2 3.2-.1.4-.1 1-.2 1.5-.2.5-.3.9-.3 1.4.1.5.2.9.3 1.3.3 1.9 1.6 3.5 3.4 4.2.8 0 1.5.2 2.3.4 1.2 4 3.3 7.6 6.2 10.7 1.3 1.6 2.8 2.9 4.5 4 1.8 1.1 3.7 2.1 5.6 3 4.4 1.7 9.1 2.7 13.8 3.2 2.7.4 5.5.5 8.2.3 2.3-.2 4.9-1.2 7.3-1.5.9-.5 1.8-.9 2.8-1.2 1-.4 1.9-1 2.8-1.6.3.1.7 0 .9-.2 1.3-.6 2.6-2.1 3.6-3.3s2.1-2.7 3.1-3.8c2.3-2.7 3.5-6 4.7-9.2 1.6-.4 3.5-.1 3.4-2.3.5 0 .3-.4.4-.6.6-1.2 1.7-2.5 1.4-4.3 0-.5.1-1.2 0-1.8z" fill-rule="evenodd" clip-rule="evenodd" fill="#958961"/><path class="st1" d="M32 2.8c-1.2.6-2.5 1-3.6 1.6-4.9 1.2-8.7 3.3-13 5.1 1.7-1.8 4.6-2.9 7.4-3.9s6-2.4 9.2-2.8zm25.7 5c.1-.2.5.1.5.2-.2.3-.4 0-.5-.2zm1.3.5c-.1.3-.3.5-.6.6.2-.3.3-.6.6-.6zm2.1 1.7c-.4.4-1 .6-1.4 1-.2-.4.9-1.5 1.4-1zm1.1 1.2c-.7.4-1.3.9-2 1.3 0-.3-.2-.3-.1-.6.8-.2 1.5-1.7 2.1-.7zm.5.7c.2.2.5.3.6.6-.9.3-1.6 1.3-2.3 1.5.1-.3-.1-.4-.1-.6l1.8-1.5zm.9 1.1c.8.6-.4 1.2-1.1 1.7s-1.1.9-1.5 1.2c-.3-.8.6-1.1 1.2-1.6s1.1-1 1.4-1.3zm-46.5.6c-.2.6-.8 1.4-1 2.2-1.9.9-3.7 2-5.5 3 .1-.7.2-1.4.4-2.1 1.9-1.2 4-2.2 6.1-3.1zm47.3 1c-1 1-2.1 1.9-3.2 2.7-.1-.8.7-1.2 1.3-1.7.5-.4 1.1-.9 1.6-1.4.2 0 .3.3.3.4zm-55.1.3c.1.4-.5 1.4-.6 2-.2.3-.6.3-.9.6.2-.8.5-2.3 1.5-2.6zm55.5.8c0 .3.1.6.2.9-1.1 1.2-2.5 2.2-3.7 3.3-.2-.1 0-.5-.1-.7.3-.4 1.1-.2 1.3-.7-.1-.5-.6-.2-.9-.2 1-1 2.1-1.9 3.2-2.6zm-49.2.9c.1 0 .2.1 0 0 0 .7-.7.9-1.2 1.2-1.4.9-2.8 1.9-4.1 2.9-.2-.3.1-.7 0-1.1 1.7-1.1 3.6-2 5.3-3zm10.5.9c-3.6 1.9-7.1 4.2-10.3 6.7-.3-.3-.5-.7-.5-1.2 3.1-2.1 6.1-4.3 9.4-6.3.4.2.9.5 1.4.8zm34-.7c.3.3.1 1.1.2 1.6-.4.1-.8.1-1.2.1.5-.5.8-1.1 1-1.7zm5.1.7c.7.8-.3 1.3-.9 1.8-1.1.9-2.5 2-3.4 2.9-.1-.3.3-.8.2-1.3 1.5-1.1 2.8-2.3 4.1-3.4zm-37 1c-3.9 2.4-7.7 5-11.2 7.9h-2.8c.4-.4.9-.7 1.4-1 .2.2.4.4.6.7.6-.1.1-.8.1-1.3 3.4-2.4 6.9-4.7 10.3-7.1.5.2.9.6 1.6.8zm-19.8-.7c-.1 1-.2 2.8-1.2 3.1 0-.9.2-1.8.4-2.7.3 0 .5-.2.8-.4zm21.5 1.4c-3.5 2-6.8 4.4-9.9 7.1h-2.2c3.7-2.5 7.3-5.1 11.2-7.5.3.2.5.3.9.4zm35.7 0c.3 1.3.5 2.7.7 4-1.9.7-2.6 2.6-5.1 2.6 1.4-1.5 3.5-2.4 4.8-4-2.2 1-3.8 2.6-5.7 4-1 .1-2.1.1-3 .2 2.7-2.4 5.8-4.3 8.3-6.8zm-.6 1.4c-1.6 1.1-3.4 2.4-4.8 3.5-.5.4-1.2.8-1.3 1.5.7.2 1.2-.6 1.7-1 1.1-.9 2.1-1.7 3.2-2.6.5-.4 1.2-.8 1.2-1.4zm-33.2-.7c-2.5 1.7-5.2 3.5-7.6 5.4-.3.2-.8.4-.8.9.9-.2 1.7-.6 2.4-1.2 1.5-1 2.9-2 4.5-3.1 1-.7 2.1-1.9 3.5-1.2-2.6 1.7-5.2 3.4-7.5 5.3-.1.1-.2.3-.2.6-1.9 0-3.8 0-5.5-.2 3.3-2.3 6.5-4.6 10-6.8.5 0 .8.3 1.2.3zm28.6.6c-2.2 1.7-4.3 3.5-6.1 5.6H53c-.1-.2.3-.6.6-.9 2-1.9 4.5-3.9 6.6-5.7.3.1.1.7.2 1zm-24.6.6c-1.7 1.2-3.7 2.4-5.4 3.8-.5.4-1.2.8-1.3 1.5.8-.2 1.5-.5 2.1-1.1 1.9-1.3 3.8-2.7 5.9-4 .4-.1.6.1 1.1.1-2.4 1.6-4.8 3.3-7 5.2-1.5.1-3 0-4.4-.1 2.4-1.7 5.6-3.7 8.1-5.4.2-.2.6-.2.9 0zm-28-.1c.2.4.1 1.9-.4 2.1.1.2.2-.1.3 0 0 1.1 0 2.2.1 3.3-.2.1-.7 0-1 .1-.1-1.6 0-3.3.2-4.9.3-.2.5-.4.8-.6zm47 .3c.1.3-.3.4-.5.5-1.6 1.3-3.4 2.9-4.9 4.4-1.2 0-2.3 0-3.5.1 1.4-1.3 2.9-2.4 4.4-3.5.7-.7 1.6-1.2 2.6-1.2-1.8 1.4-3.4 2.9-5 4.5.7.1 1.2-.6 1.6-1 1-.8 1.9-1.7 3-2.6.7-.6 1.4-1.3 2.3-1.2zm5.4.1c.5 1.7-1.1 2.2-2 3-.7.5-1.3 1.1-1.9 1.7h-1c1.5-1.6 3.2-3.2 4.9-4.7zm-19.3.2c-2.4 1.6-5 3-6.9 5h-1.8c2.4-1.5 4.8-3.6 7.3-5.1.3-.2 1 .2 1.4.1zm1.9.1c-2.4 1.3-4.7 2.9-6.7 4.8h-1.4c2.2-1.6 5-3.2 7.3-4.8.1-.1.6.1.8 0zm3.9 0c-2.2 1.3-4.3 2.8-6.2 4.6-1.3-.1-2.3.1-3.6.1 2.1-1.7 4.6-3.1 6.9-4.7h2.9zm-3 .7c-1.3.8-2.4 1.7-3.5 2.7-.3.3-1 .5-.8 1 1.1-.9 2.4-2 3.6-2.8.4-.3 1-.5.9-.9h-.2zm5-.7c-2.2 1.3-4.2 2.8-6.1 4.5-.4 0-.8 0-1.2.1 0-.4.6-.7 1.1-1.1 1.4-1.1 3.1-2.3 4.4-3.5h1.8zm2 0c-2 1.4-3.9 2.9-5.7 4.5h-1.5c1.9-1.7 4.2-3 6.2-4.5h1zm-36.1 1.8c.3.3.3.9.5 1.3-.8.5-1.3 1.1-2 1.6h-2.2c1.2-1.1 2.5-2 3.7-2.9zm51.7 0c.1.4.2.8.2 1.2-.7.9-2 1.4-3.1 1.1 1-.7 2-1.5 2.9-2.3zm-5.8 4.7c-4.6.5-9.9.4-14.4 1.3 6.3.3 13.6-.3 20.4 0 1 0 2 .1 3 .4.8.3 1.9.6 1.6 1.8-11 .5-23.2 0-35.3 0-11.3 0-22.7.2-33.7.6-.3-.2.5-.7.5-1.2 3.3-1 7.8-.8 12.3-.8 7.9 0 16.2-.4 23.7-.9-1.7-.5-3.7-.2-5.7-.2-4.6-.1-9.5 0-14.4.2-1.2.1-1.6 0-2-.9 14.9.1 29.6-.9 44-.3z"/><path class="st1" d="M10.1 28.5c.9-.4 1.2.5 1.6.9-.8.3-1.1-.7-1.6-.9zm1.5 0c.2-.2.6 0 .9-.1.2.4.5.7.9.9-1 .4-1.3-.5-1.8-.8zm1.8-.1c.9-.1 1 .6 1.5.9-.8.3-1.2-.5-1.5-.9zm-4.7.1c.1-.2.5 0 .7-.1.3.3.4.7.9.9-.9.4-1.2-.5-1.6-.8zm6.2 0c.1-.2.6 0 .9-.1.2.3.4.6.7.9-.9.4-1.1-.5-1.6-.8zm-8.8.1c.5-.3.6.6 1 .7-.5.2-.6-.5-1-.7zm1.1 0c.6-.3 1.1.5 1.2.8-.7 0-.7-.6-1.2-.8zm-2 0c.2.1.2.4.4.4-.2.2-.6 0-.7-.1s.3-.1.3-.3zm66.1 4.3c-.8 1.4-3 1.5-5.4 1.8-1.3.2-2.5.3-3.8.3-1.2-.2-1.6-1.5-2.6-1.6 3.8-.3 7.7-.5 11.8-.5zm-38 2.6c-.2.1-.4.1-.5.1-.7-.1-3.2-2.4-3.4-2.6.5-.3.9.3 1.3.6.8.7 1.6 1.4 2.6 1.9zm-2-2.4c0-.1.1-.1.1-.1 1.3.8 2.3 1.8 3.6 2.5-.8.1-1.4-.6-1.9-1.1-.6-.5-1.2-1-1.8-1.3zm1.5 0c.7-.2 1.4.8 2.1 1.3.6.3 1.2.8 1.7 1.2-1.6-.5-2.4-1.8-3.8-2.5zm1.7 0c.9-.1 1.7.6 2.5 1.2.5.4 1.1.8 1.7 1.2-.2.2-.7 0-1 .1-1.1-.9-2.1-1.8-3.2-2.5zm1.9 0c1.6.1 2.4 2 3.9 2.1-.5-.9-1.6-1.3-2.4-2 .1-.2.5 0 .7-.1 1 .8 2 1.6 3.1 2.2-2.6.9-3.6-1.4-5.3-2.2zm-9.5 1.1c-7.6-.5-16.1 0-23.6-.3-.5 0-1-.2-1.5.1-.2.9.9 1.2 1.2 1.8 1.5.7 3.1 1.2 4.7 1.4-.8.2-1.6.2-2.3.2-1.1-.1-1.9-.8-2.8-.9-.7-1-1-2.2-.9-3.4 3 .4 7.1.2 11.2.2s7.9.1 11.3 0c1.2 0 2.6-.2 2.7.9zm-.4-.9c.2-.2.6 0 .9-.1 0 .5.4.6.5 1-.4-.4-.9-.7-1.4-.9zm13.4 0c1.5 0 2.1 1.5 3.4 1.9-1 .6-2.4-1.6-3.4-1.9zm1.5 0c1.3-.1 2.2 1.6 3.5 1.9-1.7.5-2.3-1.5-3.5-1.9zm1.6.1c1.1-.3 2 1.4 2.9 1.8-.1.2-.5 0-.8.1-.4-1-1.4-1.3-2.1-1.9zm1.5 0c0-.2.3 0 .4-.1.1.3.4.4.6.8-.4-.3-.7-.5-1-.7zm1.5 0c1.9-.4 2.1 1.4 3.5 1.8-1.7.2-2.3-1.3-3.5-1.8zm2.3 0c.3-.2.9 0 1.3-.1.6.8 1.4 1.5 2.3 2-1.7.1-2.4-1.4-3.6-1.9zm2.1 0c1-.1 2-.1 3-.1 1 .2 2 1.6 3 1.9-2.6.6-2.9-1.6-5-1.8.4.9 1.3 1.3 2.1 1.9-1.3-.1-1.9-1.5-3.1-1.9zm4.2 0c2.1-.6 2.7 1.2 4.1 1.7-1.9.3-2.7-1.2-4.1-1.7zm2.3 0c.5-.1 1-.1 1.6-.1.7.7 1.4 1.2 2.2 1.7-1.8.3-2.4-1.2-3.8-1.6zm-28.7 2.3c-1.4.5-1.8-.5-2.7-.9 1.3-.4 1.8.5 2.7.9zm-1.1-.9c.9-.2 1.4.6 1.9 1-.8-.1-1.1-.8-1.9-1z"/><path class="st1" d="M6.1 34.8c1.3-.2 1.5 1.2 2.5 1.6-1.1 0-1.7-1.1-2.5-1.6zm20.3 1c-1 .4-1.7-.6-1.9-.9 1-.4 1.3.6 1.9.9zm-16-.9c.9 0 1.4 1.2 2.3 1.5-1 .1-1.4-1.1-2.3-1.5zm3.1-.1c.9.4 1.4 1.1 2.2 1.6-1 0-1.6-1-2.2-1.6zm9 .1c1.1-.4 1.5.6 2.1.9-1.1.6-1.4-.6-2.1-.9zM15 35c.9 0 1.5 1 2.3 1.4-1.1.2-1.5-1.1-2.3-1.4zm1.4 0c.8.1 1.5 1 2.3 1.4-1.1.1-1.4-1.1-2.3-1.4zm1.3 0c.9-.1 1.4.9 2.2 1.3-.9 0-1.4-1-2.2-1.3zm1.3 0c1.1-.4 1.5.7 2.3 1-1 .5-1.5-.8-2.3-1zm2 0c.8-.1 1.4.6 1.8 1.1-.9-.1-1.2-.8-1.8-1.1zm51.1.1c.1 0 .1.2 0 .2-1 1.2-2.4 2-4 2.1-1 .1-2.3-.2-3.6-.2-1.1 0-2.1-.1-3.1-.1s-2 .3-2.8.2c-.3 0-.6-.2-.7-.2-.4 0-.8.5-1.2-.1-2.1.7-5.3.1-7.9.3H47c-.8-.1.7-.1 1-.1 2.2.2 4.4-.3 6.1-.1.3.1 0-.4.3-.3 5.8-.4 13.5.8 17.7-1.7zm-56.5 2.2c6.5-.2 12.7.2 19.3.1.1 0 .2.1.1.1-6.2.2-13.1.1-19.4-.2zM13.1 39h1.3c.1 1 .4 1.8.5 2.8h-.7c-.4-1-.8-1.9-1.1-2.8zm1.9 0h.8c.1 1 .3 1.8.4 2.7-.2-.1-.4.2-.5 0-.3-.9-.5-1.8-.7-2.7zm1.4 0c.3 0 .6-.1.8.1 0 1 .2 1.7.2 2.6h-.3c-.3-.9-.6-1.8-.7-2.7zm1.1.1c.5-.3 1.1.1 1.7 0 0 .9.1 1.8.3 2.6-1.2-.1-.4-2.1-1.3-2.5-.3.8.2 1.9.1 2.5-.5 0-.5-.7-.6-1.1s-.1-1-.2-1.4c.1-.1.1-.1 0-.1zm37-.1c.2.9-1.2 1.5-1.1 2.9.7-.2 1-.9 1.3-1.4s.6-1.2 1.2-1.5c-.3 1-1.4 1.8-1.1 2.8 1-.7 1-2.5 2.4-2.8-.5 1-1.4 1.8-1.6 3.1.7-.1.9-1 1.3-1.6.4-.6.9-1.1 1.5-1.6-.6 1.1-1.6 1.9-1.9 3.4-2.1-.2-4.3-.4-6.6-.4.7-1.1 1.1-2.5 2.5-2.9.1.2-.4.8-.6 1.2s-.7.9-.6 1.5c1-.6 1.2-2.2 2.3-2.7-.4.8-1.4 1.7-1 2.8.9-.8 1.3-2 2-2.8zm6.3 0c.2 0 .1.1.1.1-.7.8-1.3 1.7-1.8 2.6-.2.3-.3.8-.8.6.7-1.2 1.5-2.3 2.5-3.3zm-41.1.1c.3.1.7.1 1 .1 0 .8.1 1.7.2 2.5-.1.1-.5.1-.8.1-.1-1-.3-1.8-.4-2.7zm-6.6 2.7c-.7-.5-.8-1.7-1.2-2.6.3.1.5-.2.6 0 .1.9.6 1.9.6 2.6zm8.1-2.7c.4-.1.6.1 1 .1 0 .8.1 1.6.2 2.4-.1.1-.5.1-.8.1-.2-.8-.3-1.7-.4-2.6zm1.6.1c.4 0 .8 0 1.2.1.1.8.2 1.6.4 2.4h-1.3c-.1-.9-.3-1.6-.3-2.5zm28.3 0c-.7.8-1.2 1.7-1.5 2.7-.9-.1-1.9-.1-2.8-.1.6-.9 1.2-1.7 1.8-2.5h.9c-.4.8-1.2 1.2-1.3 2.4.6-.2.8-.8 1.1-1.2s.7-.8 1-1.3h.8zm-41.6.1h.4c.2.7.5 1.3.7 2-.7-.4-1.1-1.2-1.1-2zm1.3 0h.6c.2.8.4 1.6.8 2.4-.9 0-.8-1.6-1.3-2.2-.1 0-.2-.1-.1-.2zm13.7 0c1.9.1 4 .1 5.9.2 0 .8 0 1.6-.1 2.4-1.8-.1-3.7-.1-5.5-.1-.1-.9-.2-1.7-.3-2.5zm23.2.1c.2.3-.4.8-.6 1.2s-.5 1-.7 1.3c-4.1-.2-8.7-.2-12.7-.1 0-.8 0-1.5.1-2.3 4.5.1 9.5.1 13.9-.1zm-16.6.1h.6c-.1.7 0 1.7-.2 2.4h-.2c-.4-.5-.1-1.7-.2-2.4zm1 0c.3 0 .8-.1 1 .1-.1.8-.1 1.5.1 2.3-.3 0-.8.1-1-.1 0-.9-.1-1.5-.1-2.3z"/><path class="st1" d="M62.8 41.9c.1.6 0 1.2-.2 1.8-2 .5-4.2.2-6.5.2-6.5 0-13.6-.1-20-.3.1-.8 1-.7 1.6-.8 3.7-.2 7.6 0 11.6.1 1.6.1 3.2-.3 4.6-.1.4 0 .8.3 1.3.4 2.3.3 4.6.1 6.8-.6.1-.2.6-.4.8-.7zm-52.1.5c.2.1.6.1.6.5-.3 0-.6-.2-.6-.5zm1.5.4c.1.1.2.1.3.1 0 .1 0 .3.1.4-.2.2-.5-.2-.4-.5zm18.1.1v.6c-2.7-.1-5.8.3-8.3-.1.1-.5 1-.3 1.1 0 .3 0 .1-.6.5-.6 2.1-.1 4.5.2 6.7.1zm5.8 0c-.1.3-.3.5-.5.7-1.1 0-2.2 0-3.3-.1v-.6c1.3.1 2.6 0 3.8 0zm-22.8 0c.4 0 .2.6.5.8-.3.2-.4-.4-.5-.8zm17.8 0h.6v.6h-.5c-.1 0-.1-.3-.1-.6zm-16.6.1h.6c.1.2.1.4.2.6h-.6c-.1-.2-.2-.3-.2-.6zm1.5 0h.5c0 .3-.3.2-.5.3V43zm5.4.6c-.1.2-.6 0-.9.1.2-.2.8-.4.9-.1zm-7.7 13.6c.2-3-.1-7.8.1-11.1 0-.5-.1-.6.3-.9s.5.6.9.5-.1-.9.4-.8c-.1 2.6-.3 6.4-.4 9.3.1.7.1 1.3 0 2 0 .6-.8.9-1.3 1zm5.2-12c0 3.1.1 6 .2 9-.8.6-1.7 1.2-2.6 1.6.1-3.6.1-7.3 0-10.6.8-.1 1.5 0 2.4 0zm1.8 0c0 2.6-.1 5.4.1 7.9-.3.4-.8.7-1.3.9 0-2.9-.3-5.9-.2-8.7l1.4-.1zm.5 0c3.6.2 7.4 0 11.1.1-.8.8-1.7 1.5-2.7 2-2.8 1.8-5.6 3.9-8.4 5.5.2-2.4-.1-5 0-7.6zm14.8 0c-.4.4-.9.6-1.2 1 0-.4.2-1.2 1.2-1zm.9.1c0 .5-.5.6-1 .6.3-.2.3-.7 1-.6zm1.4.2c-.4.1-.8.2-1.2.2.1-.5.8-.3 1.2-.2zm22.3.1c.3 3 .2 7 .1 10.4.1 1.2.1 2.3 0 3.5-.2.8-1.1 1.4-1.5 1.8 0-5.1.3-10.8-.2-15.6.5-.1 1.2.1 1.6-.1zm-5.2.1c-.3.4-.6.7-1.1.9-.3.4-.4.9-1.1.8.2-.6.5-1.1.8-1.6l1.4-.1zm2 0h1c-.4 4.3-.2 9-.4 13.7.1 1.1 0 2.2-.1 3.4-.2.7-1.1 1.2-1.5 1.6.1-4.1.5-9.2.2-13.8-.2-1.3-.2-2.7 0-4 .2-.5.5-.6.8-.9zm-5.4.1c-.1.3-.2.7-.6.8.1-.4.1-.9.6-.8zm.8 0c-.1.3-.3.6-.5.9-.2 0-.2-.1-.5-.1.3-.4.3-1 1-.8zm-8.6 0c-.1.4-.4.6-.5.9h-.8c.1-.3.3-.6.5-.9.4.1.5 0 .8 0zm1.4 0c-.1.2-.2.4-.4.2-.3.1-.4.4-.5.7h-.5c.2-.6.5-1 1.4-.9zm1.4 0c-.3.6-.6.7-1.3.8.1-.6.5-.9 1.3-.8zm1.3 0c-.1.2-.2.5-.3.7h-1c.2-.5.7-.8 1.3-.7zm1.4 0c-.2.3-.3.7-.7.7 0-.4.1-.8.7-.7zm1 0c-.1.4-.3.7-.9.6.2-.2.2-.7.9-.6zm-7.7.1c-.1.3-.3.6-.6.9-.5-.1-.7.1-1.2.1.1-.7.8-1.2 1.5-1.1.1.1.2.1.3.1zm-1.5.1c-.2.4-.4.7-.7 1H40c.1-.7.5-1.2 1.5-1zm-1.6.1c-.1.4-.4.6-.5.9h-1.2v-.3c-.3.5-1.1.3-1.7.5-.2-.3.2-.6.3-.9 1-.1 2.1-.2 3.1-.2z"/><path class="st1" d="M46.9 47.4c.3 0 .4-.1.7-.1-.1.3-.4.3-.7.1.1 1.3.1 2.5 0 3.7.9-.6 1.1-2.5 2.3-3-1.2 2.3-2.6 4.5-4.2 6.6 0-.9 1.3-1.4 1-2.6-1.1 1.3-1.6 3.2-3.1 4.1.3-1.1 1.4-2.2 1.9-3.4-.5-.3-.4.5-.9.5-1.1 1.6-1.7 3.7-3.5 4.5.9-1.6 1.9-3.2 2.9-4.8-.1-.2-.1-.5-.1-.7-1.6 2.1-2.6 4.7-4.4 6.6 1-2 2.1-3.9 3.3-5.8.7-.9 1.1-2 1.2-3.1-2.1 3.2-3.8 6.9-6.1 9.9 1.4-2.6 3-5.3 4.4-8.1.8-1.2 1.4-2.6 1.6-4-.1-.1-.6 0-.9 0 0-.4.7-.1.9-.3.1-.9 1.5-.7 1.5.2.4-1.2 1.4-.6 1.1.9.3-.4.5-2.7 1.1-1.2zm-1.2 3.9c.1-.4.5-.8.2-1.3-.2.4-.3.8-.2 1.3zm6.2-4.1c.1.3-.4.1-.6.1.1-.2.4-.1.6-.1zM54.4 66c.2-3.8.1-8.9.1-13.2-.1-1.3-.1-2.7 0-4 .2-.8 1.1-1.1 1.6-1.7.1 4.7-.1 10.7-.3 15.6 0 .7 0 1.5-.1 2.2-.2.6-1 .9-1.3 1.1zm-4.7-18.7c.1.3-.3.1-.5.1 0-.2.3-.1.5-.1zm-12.3.3c-.1.6-.7 1-1.3.9-.1.3.4.2.6.2-1.8 3.2-3.7 6.4-5.5 9.7-.1-1.6.6-2.6 1.3-3.9 1.1-2.2 2.6-4.9 3.7-7 .4.1.8.2 1.2.1zm1.7.1c-.1.7-.9.6-1.5.7-.3-.6.6-.9 1.5-.7zm2.9-.1c-.1.4-.7.4-1.3.4.1-.4.7-.4 1.3-.4zm-1.6.1c0 .5-.6.4-1 .5 0-.5.5-.5 1-.5zm11 .3c-.6 1-1.2 2-1.9 2.9.3-1 .8-2 1.5-2.9h.4zm-1.7.1c.1 0 .1.1 0 0-.9 2-1.3 4.5-3.4 5.4 1.1-1.8 2.2-3.6 3.4-5.4zm-8.4.5c-2.5 4.7-5.3 9.1-8 13.6-.3.2-.6.3-.9.5 2.7-4.6 5.4-9.3 7.9-14 .4-.1.7-.1 1-.1zm-1.6.1c.1.6-.5 1.2-.9 1.9-1.8 3.2-3.7 6.5-5.5 9.7-.7 1.3-1.3 2.7-2.6 3.5.3-1.9 1.4-3.1 2.3-4.7 2-3.4 4.1-6.9 6.1-10.3.3.1.3-.1.6-.1zm-1.3.1c-2.3 4.2-5 8.1-7.3 12.4-.2-.4.1-.9 0-1.5 2.1-3.5 4-7.3 6.1-10.9h1.2zm15.7.3c0 4.1-.2 11.4-.4 15.9v1.6c-.1.5-.8.7-1.1.9.1-3.9-.1-8.5-.1-12.6-.1-1.4-.1-2.8 0-4.1.2-.8 1.2-1 1.6-1.7zm-23.1.3c-.1 1.3-.1 3.4-.7 4.4-.2-1.8-.2-3.5.7-4.4zm-2.8.7c.1 1.1-.8 1.9-1.1 2.9-.3-1.2.1-2.3 1.1-2.9zm23.7 1c-.1 3.5-.1 8.6-.1 12.7.1 1.4.1 2.8 0 4.2-.2.9-2.5 2.3-3.2 2.8-1.3.9-2.5 1.7-3.5 2.4-2.4 1.7-4.7 3.4-6.9 4.9-2.4 1.7-4.9 3.2-7.2 4.8s-4.6 3.5-7.2 4.5c.1-4.9.2-9.9.2-15.1-.1-.7-.1-1.4-.1-2.1.1-.3 1.1-.9 1.7-1.3 1.8-1.1 3.8-2.4 5.5-3.3 2.6-1.4 5.5-2.5 7.5-4.2 1.1-.9 2.1-1.9 3.1-2.7s2.3-1.6 3.4-2.4c2.5-1.6 4.7-3.3 6.8-5.2zm-25.6.4c-.1.9-.5 1.7-1 2.3-.6-.1-.2-1.3-.2-1.7.3-.2.7-.4 1-.7.2 0 .2 0 .2.1zm1.6.4c.1 1.6-.1 3.2-.9 4.6-.2-1.6.1-3.3.9-4.6zm-3.5.7c0 .5-.3 1-.8 1.3-.1-.1-.1-.4-.1-.7.3-.3.6-.4.9-.6zm4.8.4c.2 1.2 0 2.4-.4 3.6-.2-1.2-.1-2.5.4-3.6zm-3 .3c.1.9-.1 1.8-.6 2.6-.4-1.1.4-1.8.6-2.6zm-1.7.3c.3.9.2 2-.3 2.9-.3-1-.2-2 .3-2.9zm-1.7.7c.2.9 0 1.8-.5 2.6-.1-.9 0-1.8.5-2.6zm7.7.3c0 1.1-.1 2.1-.2 3.2-.2-1-.1-2.1.2-3.2zM26 56c.1 1.1 0 2.3-.4 3.4-.1-1.2-.1-2.8.4-3.4zm-7.7.4c.3.2-.4.8-.5 1.1-.2-.1 0-.6-.1-.8.2-.1.5-.2.6-.3zm6.3.4c.2.7 0 1.5-.4 2.2-.2-.8-.1-1.6.4-2.2zm2.9 0c.1.7.1 2.7-.5 3.1-.2-1.1 0-2.2.5-3.1zm-10.7.4c.2.3-.2.7-.2 1.1.2 0 .4-.6.6-.9.4 1.3-.5 1.9-.8 2.8-.1-.9-.1-1.8-.1-2.7.2 0 .4-.1.5-.3zm1.9 0c.2 1-.1 2-.7 2.8-.2-1 .1-2 .7-2.8zm4.1 0c.2 1 .1 2-.5 2.8-.1-.9 0-1.9.5-2.8zm-1.6.5c.1.8 0 1.6-.4 2.3-.2-.8-.1-1.6.4-2.3zm7.7 0c.1 1 0 2-.2 3 .1-.7-.2-2.4.2-3zm-13.9.5c.2 1.9 0 5.6-.1 8.1-.1 1.4.2 2.6-.6 3.2 0 .4.3.5.5.7.1.4-.1.9-.5 1.2.4.4.5 1 .4 1.6-.1.3-.6.4-.8.6-.3-4.7-.1-9.9-.2-14.7.4-.3.9-.4 1.3-.7zm9.5 1.1c.1 1 0 2.1-.3 3.1-.3-1.1-.2-2.2.3-3.1zm5.6 0c.2.4 0 1.1-.1 1.5 0-.6 0-1.1.1-1.5zm-12.9.8c.4 1.5-.5 2.2-.9 3.2-.3-1.4.4-2.3.9-3.2zm2.8.1c.2.6.1 1.2-.2 1.7-.2-.6-.2-1.2.2-1.7zm2.8.2c.1.8 0 1.6-.5 2.3-.3-1 .3-1.7.5-2.3zm2.9.3c.1.7 0 1.5-.2 2.2 0-.8 0-1.5.2-2.2zm-4.6 0c.2.7.1 1.4-.2 2.1-.2-.6-.1-1.4.2-2.1zm6.1.3c.1 1 0 1.9-.1 2.9-.2-1-.2-2 .1-2.9zm2.7.8c.1.5.1 1.1-.1 1.6 0-.5 0-1 .1-1.6zM59 79.7c.1-1.3-.2-2.4.1-3.4.2-.6.9-1 .9-1.6-.4-.3-.6.7-.9.6.1-2.5-.3-4.6.5-6.4-.1-.3-.3.5-.4.2.4-1.6-.3-3.5.1-5.1.2-.9 1.3-1.1 1.5-1.9-.4 5.4-.5 12.6-.9 18.3-.1 1-.2 1.5-.9 1.8-.1-1.1.1-2.2.7-3.2-.4.1-.5.8-.7.7zm-40.3-17c.3.9-.3 1.6-.6 2.2-.3-.9.3-1.6.6-2.2zm1.3.2c.2.7.1 1.5-.2 2.2-.2-.7-.1-1.5.2-2.2zm2.7.2c.1 1 0 2-.3 2.9-.3-1-.1-2 .3-2.9zm1.6.7c.1.7 0 1.3-.2 1.9-.2-.6-.1-1.3.2-1.9zm-3.2.1c.2.5.1 1.1-.2 1.6-.1-.5 0-1.1.2-1.6zm4.4.4c.1.8-.1 2.1-.1 2.9-.1-1-.1-2 .1-2.9zm-6.8 1c.2 1.2 0 2.4-.7 3.4-.2-1.2 0-2.4.7-3.4zm8.4 0c.1 0 0 .3.2.2-.1.2-.3.3-.3.6-.2-.2 0-.6.1-.8zm30.4.1c.2 1 .2 3.3-.5 4-.1-.9-.2-1.8-.2-2.7 0-.2-.2-.2-.4-.2.2-.5.8-.6 1.1-1.1zm-36.1.4c.3.8-.4 1.3.1 1.9-.1.5-.4.7-.5 1.2-.3-1.1-.1-2.2.4-3.1zm-4.3.1c.3 1.1-.7 1.6-.9 2.5-.2-1 .6-1.7.9-2.5zm2.9.3c.2.5.1 1.1-.2 1.6-.2-.6-.1-1.1.2-1.6zm3.9 1.2c.2.1.3.3.4.5-.2.1-.4.1-.6.3-.2-.3.1-.6.2-.8zm31.6 0c.2 1.1 0 2.2-.6 3.1-.1-1-.7-2.9.6-3.1zm-33.2.9c.2.1.1.4.1.6-.2 0-.1-.4-.1-.6zm-5.4.1c.2 1.6-.1 3.3-.9 4-.2-1.4.1-2.8.9-4zm3.1.1c.1.4.2 1.6-.1 1.9-.3-.6-.3-1.3.1-1.9zm-1.3.2c.4 1.2-.5 1.9-.8 2.7-.3-1.2.5-1.9.8-2.7zm34.9.1c.1.5-.3.6-.3 1-.2 0 0-.4-.2-.4-.5.3-.1 1.5-.5 1.9-.1-.6-.1-1.1-.1-1.7.4-.2.8-.9 1.1-.8zm2.6 0c.2.6.2 1.3 0 1.9.1-.7-.1-1.4 0-1.9zm1.4.4c.1 1.3.3 3.2-.4 4-.2-1.4-.4-3.1.4-4zm-34.1 1.3c0 4.4-.4 9.4-.4 14.1 0 1.4.2 3.3-.9 3.9-.1-4.5.1-10 .1-15-.1-.7-.1-1.4 0-2.1.1-.5.8-.5 1.2-.9zm32 0c.2.9.2 2.3-.3 2.8-.3-.9-.2-1.9.3-2.8zm-2.1.2c.1 1 .1 2 0 3-.1-1-.1-2 0-3zM20.6 89.3c-.1-4.1.2-8.9 0-13.3-.4 3.8-.4 8.3-.6 12.3 0 .5.1 1.1-.4 1.4-.4-5.4-.1-11.5 0-16.9.7-.4 1.3-.8 2-1.2.1 0 .1 0 .1.1-.4 4.9-.2 10.7-.5 15.9 0 .7.2 1.5-.6 1.7zm32.1-16.9c.1 1.1.1 2.3-.2 3.4-.1-1.2 0-2.3.2-3.4zm-1.5 0c.3 2-.7 3.3-1.3 4.7-.3-2 .8-3.2 1.3-4.7zm6.4.7c.1 1.7.2 4.1-.3 5.4 0-1.7-.5-4.2.3-5.4zM18.9 90c-.9.6-1.9.9-2.8 1.5-.2.2-.2-.3-.4-.3-.3.8-1.1 1.1-1.9 1.5V75.5c.3.2.4.1.9.1-.1 3.2.1 6.3.5 9.4.7-2.9.5-6.6.7-10.1 1.1-.5 2-1.1 3-1.7.1 5.3 0 11.2 0 16.8zm36.6-16.2c.1.9.3 2.6-.2 3.3 0-1-.3-2.6.2-3.3zm-3.6.5c.1 1 .4 2.3-.1 3.1-.2-1.1-.2-2.1.1-3.1zm1.5 1c.2 0 0 1.1.1 1.5-.2-.1 0-1.1-.1-1.5zm-2.5 1c.5 2.4-.5 3.9-1.2 5.4-.4-2.3.6-3.8 1.2-5.4zm3.5 3c-.1-.5-.1-.9-.1-1.4 0-.4-.1-1.2.1-1v2.4zm-1.8-2.2c.2.9 0 1.9-.5 2.6-.4-1.1.1-1.7.5-2.6zm-11 .5c-3.5 8.7-8.1 16.9-11.9 25.6 2.3-6.1 5-12.1 8-17.9 1.1-1.9 2-3.9 2.6-5.9-.6.8-1.1 1.6-1.5 2.5-3.1 6.2-6.5 12.5-9.1 19.3-.1-1-.1-1.9 0-2.9.3-.8.6-1.6 1.1-2.3 2.6-5.2 4.9-10.5 7.5-15.6 1.2-.8 2.3-1.7 3.3-2.8zm14 0c.2.6.1 1.2-.1 1.8-.2-.6-.2-1.2.1-1.8zm-2.2.7c.1 1 .1 2 0 3-.1-1-.1-2 0-3zm-1.7.7c.1.5.1 1 0 1.6-.1-.6-.1-1.1 0-1.6zm5.9.1c.2 1.1.1 2.3-.2 3.4 0-.9-.3-2.7.2-3.4zm-1.9.8c.1.6.1 1.3 0 1.9-.2-.7-.2-1.3 0-1.9zm-1.3.3c.2.5.2 1.1-.1 1.6-.1-.5-.1-1.1.1-1.6zm-2 .3c.1 1.2.1 3.1-.5 3.9 0-1.2-.1-3.1.5-3.9zm-1.6.5c.5 1.5-.8 2.6-1.2 3.8-.3-1.6.9-2.4 1.2-3.8zm3.7 1.4c.3.7.2 1.5-.1 2.2-.2-.8-.2-1.6.1-2.2zm-1.1 0c.2.6.1 1.2-.2 1.7 0-.5 0-1.1.2-1.7zm2.4.4c.2.7.2 1.5.1 2.3-.2-.8-.3-1.5-.1-2.3zm1.7.5c.3.2-.1.4-.2.6-.2-.2.2-.4.2-.6zm-24 .1c-1.1 2.6-2.6 5.6-3.8 8.4-.4-3.4 1.6-5 2.3-7.5.5-.3.9-.7 1.5-.9zm17.3.5c.5 2.6-.6 4.1-1.4 5.6-.2-2 .3-3.9 1.4-5.6zm7.5 22.2c0-.4 0-.9-.2-1.2.1 1.1-.5 2.1-1.6 2.5.2-5.4.1-12.1.1-17.9 0-1.6-.3-3.2.9-3.4.1 6.2.1 13 .5 18.7.4-.5.3-1.3.3-1.9.3-4.6.3-10.5.5-15.4.1-1.4-.3-2.9.8-3.4.1 0 .1 0 .1.1-.2 4.5-.2 10.2-.2 15.4 0 1.7.4 3.6.1 5.1-.2.7-.8 1-1.3 1.4zm-4.9-21.3c.2.8.1 1.6-.2 2.3-.1-.8-.1-1.6.2-2.3zm-22.6.1c-.3.9-.7 1.7-1.1 2.6-.2-.6 0-1.4.6-1.7 0-.2-.4 0-.2-.2s.5-.4.7-.7zm21.5 0c.1.7 0 1.4-.3 2-.2-.7-.1-1.4.3-2zm2.4.2c.4.4-.1.8-.3 1-.2-.2.2-.6.3-1zm-25.9 1.8c-.2.8-.5 1.6-1.1 2.3-.1-.5.1-1.3-.2-1.6.5-.3.9-.5 1.3-.7zm27.3.3c.1 0 .2 0 .2.1-.1 4.9-.1 13.7-.4 19.1-.1 1.4.1 2-1.1 2.3 0-6.9.2-13.5.4-20.1.1-.4.1.3.4.1.4-.2 0-1.2.5-1.5zm-3.9.1c.2.2.1.7-.2.6 0-.2.2-.3.2-.6zm-25.1.4c.3 1.7 0 3.4-.9 4.8 0-1.5-.6-4.3.9-4.8zm21.7.1c.1.9.1 1.8 0 2.7-.7.7-1.6 1.3-2.4 1.9.8-1.5 1.6-3 2.4-4.6zm5.8.6c-.1 4.3-.5 11.2-.5 16.5.1 1.4.1 2.8 0 4.1-.1.5-.8.7-1.1.9.3-5.9.1-12.5.3-18.4 0-.7-.2-1.8.2-2.3.4-.2.1.8.3 1 .2-.7.2-1.6.8-1.8zm-29.1.1c.1.6-.6 1.1-.7 1.8-.2-.3 0-.9-.1-1.2.3-.2.6-.4.8-.6zm3.3.2c.2 1.1-.6 1.7-.9 2.6-.1-1 .7-1.7.9-2.6zm-4.7 1.4c.2.8.1 1.7-.3 2.5-.2-.9-.1-1.7.3-2.5zm1.3.3c.1 0 .1 0 .1.1-.2 1.7.2 3.9-.6 5-.3-1.7-.2-4 .5-5.1zm3.4.8c.3 1.4 0 2.8-.8 4.1-.3-1.4 0-2.8.8-4.1zm-8.1.4c.1 0 .1 0 .1.1-.2 1.8.1 4.2-.5 5.6-.1-1.8-.1-3.7.1-5.5.2-.2.3-.1.3-.2zm-1.2.7c.1 0 .1 0 .1.1-.2 2.3.1 5-.1 7.3-.1-2.6-.1-5 0-7.4zm-.7.3c.2 3 .1 6-.1 9-.1-2.9-.2-5.8-.2-8.8.1-.1.3 0 .3-.2zm-1 .6h.2c-.1 2.6 0 5.6-.2 8.4-.1 1.6 0 2.9-.6 4-.1-3.9-.1-7.9-.2-11.9.3-.2.6-.4.8-.5zm6.2.5c.1 1.3.3 3.5-.3 4.4-.1-1.4-.2-3.4.3-4.4zm-7.9.2h.2c0 2.5-.2 5.2-.2 7.8.1 2.6.1 5.1-.2 7.6.1-4.9.1-10.5.2-15.4zm-.7.5c0 4.5-.4 11-.6 15.4v1.2c-.2.5-.9.6-1.3.8 0-6 .2-11.7.3-17.6 0-.1 0-.1.1-.1.4.1 1.1.5 1.5.3zm11.7.4c.3 1.4 0 2.9-.8 4.1-.2-1.5.1-2.9.8-4.1zm1.7.4c.3 1.6.1 3.3-.8 4.7-.3-1.6 0-3.3.8-4.7zM20.7 98c.1.7.1 1.5-.2 2.2-.2-.7-.1-1.5.2-2.2zm4.6.5c.3 1.1.2 2.3-.4 3.4-.2-1.2-.1-2.4.4-3.4zm1.8.3c.3 1.5.1 3-.7 4.3-.3-1.5-.1-3 .7-4.3zm1.7 1.1c0 1.2 0 2.5-.1 3.7-.2.1-.5.2-.7.3-.3-1.4 0-2.8.8-4zm-9.3 1.1c.1.6.1 1.2 0 1.7-.1-.6-.1-1.1 0-1.7zm4.5.2c.2 1 .1 2.1-.2 3.1-.1-.9-.3-2.5.2-3.1zm-3.4.8c.1 1 .1 2 0 3-.3-1-.3-2 0-3zm4.8.6c.1 1 .4 2.8-.6 3-.1-1.1.1-2.1.6-3zm-6.6.2c.1.6.1 1.2-.1 1.8-.1-.6-.1-1.2.1-1.8zm8.3.4c.2.2 0 .8.1 1.2-.3.2-.6.3-.9.4.3-.6.5-1.1.8-1.6zm-7.7 4.2c-.1-.5-.1-1-.1-1.6 0-.3.1-1.1.2-.9 0 .9 0 1.7-.1 2.5zm-1.6-2.1c0 1.4.1 2.9.2 4.3-.3.2-.6.3-.9.4 0-1.9 0-3.7.7-4.7zm6.3 0c.1.1.1.4.2.6-.2.1-.3.2-.6.2l.4-.8zm-2.3.4c.1.5.1 1 0 1.5-.2-.5-.2-1.1 0-1.5zm-3.1.8c.2.9.1 1.8-.2 2.7.2-.8 0-2 .2-2.7zm40.8.3c.2 1.5.1 2.9-.1 4.4 0-1.3-.3-3.4.1-4.4zm-39 .3c.3 0 .1.7.1.8-.2-.1 0-.6-.1-.8zm38.1.5c.2 1.8.1 3.6-.2 5.4-.2-1.6 0-3.5-.2-5.1.3 0 .4-.1.4-.3zm-.9.9c.4 1.5-.5 2.5-1 3.4-.2-1.8-.3-2.9 1-3.4zm-41.6.6c.1.4.2 1.4-.2 1.5-.2-.5.1-1.1.2-1.5zm6.3.4c.2 6.1-.3 12.2-.4 18.3-.4.3-.8.5-1.2.6 0-2.6.2-5 0-7.5-.4 1-.3 3.1-.5 4.7-.1 1.4.4 3.6-.9 3.4-.1-.6-.2-1.1-.2-1.7-.5.3-.1 1.4-.2 2-.3.2-.8.2-1.1.4-.4-.1.4-.6 0-.9-1.4 0-1.3 1.4-2.3 1.8-.2-5.8 0-11.9.1-17.6.9-.6 1.9-1.1 2.9-1.6-.2 3.9-.2 7.9-.2 11.9.5-3.9.5-8.4.9-12.4.1 4.7-.4 9.8 0 14.6.6-3.9.6-9.1.8-13.3 0-.6-.3-1.6.4-1.8.4 3.1-.1 7.1.3 10.2.6-3.2.5-7.1.7-10.7.4-.2.6-.3.9-.4zm33.3.5c.3.7-.4 1.1-.5 1.7-.1-.4-.2-.8-.1-1.3.2 0 .4-.2.6-.4zm2 .5c.3 2.2.1 4.7-.9 5.9-.3-2 0-4.1.9-5.9zm-3.6.7c.4 1.5.2 3.1-.6 4.4-.2-1 0-2.3-.2-3.2-.2 0-.3.1-.2.3-.2-.1 0-.5-.1-.8.3-.2.7-.4 1.1-.7zm1.6.4c.1 1.3 0 2.5-.5 3.7-.2-1.2-.1-2.5.5-3.7zm3.8.1c.1 2.1.1 4.6.2 6.7 0 .8.4 1.7-.1 2.4-.2-3.1-.2-6.1-.1-9.1zm-7.2.5c.3.7.2 1.4-.1 2.1-.1-.7-.2-1.3-.1-2 .1 0 .2 0 .2-.1zm-38.1.4c.1 0 .1 0 0 0-.2.5.3.7.5.9-.1 5.2-.3 10.7-.3 16.2 0 .5.2 1.3-.5 1.6-.1-6.1-.5-12.3-.3-18.5.2.1.4 0 .6-.2zm44.4 1c.1 1.3.1 2.6 0 3.9-.3-1.3-.3-2.6 0-3.9zm-5.9.7c.3 1.3.1 2.7-.4 3.9-.2-1.1-.4-3.2.4-3.9zm1.7.5c.3 1.5 0 3-.9 4.3-.4-1.8.5-3 .9-4.3zm3.2.8c.1 0 .2 0 .2.1-.1 1.4-.1 3.9-.9 4.5-.3-1.5 0-3.1.7-4.6zm-2.2.4c.1 1.3 0 2.7-.2 4-.2-1.4-.1-2.7.2-4zm-1.1 2.5c.3 1.8 0 3.6-.9 5.1-.2-1.7.1-3.5.9-5.1zm4.2 0c.1 1.3.1 2.5.1 3.8-.1-1.3-.2-2.5-.1-3.8zm-15.1.1c-3 6.7-6.1 14-9.3 20.8-.4.2-.9.4-1.3.7 2.6-6.5 5.6-13.2 8.1-20 .8-.5 1.6-1 2.5-1.5zm9.2.4c.1.7.1 2.1-.4 2.4-.1-.8.1-1.6.4-2.4zm3.3.9c.4 1.6-.4 2.7-.9 3.6-.2-.9-.1-1.8.3-2.6.1.2.2.5.2.8.2-.6.4-1.2.4-1.8zm1.7.3c.1 1.2.2 2.4.1 3.7-.1.8-.9 1.3-1 2-.1-2-.1-4.6.9-5.7zm-17.3.4c-2.6 6.6-5.6 13.4-8.4 20-.4.1-.6.4-1.1.6 2.2-5.4 4.7-11.7 7.1-17.2.3-.8.6-1.6 1.1-2.3.3-.5.9-.7 1.3-1.1zm19.5.4c0 1.1 1.3 4.8-.3 4.8.1-1.6-.3-3.7.3-4.8zm-21.7 1.1c-2.8 6.3-5.6 13.2-8.3 19.9-.4.3-.8.5-1.2.6.3-1.7.9-3.4 1.6-5 1.9-4.6 3.8-9.4 5.7-14.2.7-.5 1.5-.8 2.2-1.3zm14.4.4c.1.9 0 1.8-.1 2.6-.2-.8-.1-1.7.1-2.6zm3.3.9c.1 1.9.5 4.3-1.2 4.7 0-1.7.4-3.3 1.2-4.7zm-1.7.1c.1 1.2-.2 2.3-.9 3.3-.3-1.4.5-2.3.9-3.3zm4.4 0c.1.9.1 2.1.2 3.1-.4-.7-.1-2.1-.2-3.1zm-23.4.3c-2 5.1-4.3 10.5-6.4 15.8-.4-2.1.6-3.5 1.3-5.1 1.3-3.3 2.4-6.8 3.9-9.9.4-.3.8-.5 1.2-.8zm-1.9 1.1c-1.5 3.4-3 7.6-4.7 11.1 0-1.3.3-2.5.9-3.6 1-2.4 1.9-4.8 2.9-7.1.3-.2.6-.3.9-.4zm24.4.3c.5 1.5-.4 3.1-1.9 3.6h-.1c.4-1.2 1.4-2.4 2-3.6zm-26.3.6c.1 0 .1.1.1.1-1.1 2.1-1.9 4.7-3 6.9.4-2.7 1.9-4.4 2.6-6.9.2 0 .3 0 .3-.1zm-1.1.6c.1 0 .1.1.1.1-.7 1.2-1.3 2.4-1.8 3.7-.5-1.5.2-3.2 1.7-3.8zm30.1.5c.2 4-.1 10.3-.1 15.1.1 1.1.1 2.3 0 3.4-.2.6-1.2 1.1-1.6 1.4.3-5.2.1-10.9.1-16.2-.1-.8-.1-1.7.2-2.5.2.2.2.6.2 1 0-.9.5-1.7 1.2-2.2zm-6.4.1c.1.3-.1.9-.1 1.4-.3.1-.4.3-.8.4l.9-1.8zm-26.1.8c.3.4-.3.7-.2 1.1-.2-.2 0-.6-.1-.9.1-.1.3-.1.3-.2zm-1.1.7c.1.8.1 1.6 0 2.4-.2-.8-.2-1.6 0-2.4zm-.9.4c.4.1-.2.3-.1.6-.2 0-.4 0-.6.1 0 .8-.1 1.6-.5 2.4-.2-.8-.2-1.6-.2-2.4.6-.2 1-.4 1.4-.7zm31.8.1c.2 6.4 0 12.8-.5 19.2 0-6.3.2-12.9.5-19.2zm-29.7.8c.2.8.1 1.5-.1 2.3-.3-.8-.2-1.6.1-2.3zm-4.1.3c-.3 1-.7 1.9-1.1 2.9-.1-1.1.7-2 1.1-2.9zm2.1.6c.1.5.1 1 0 1.5 0-.4 0-.7-.1-1.1 0-.2.2-.2.1-.4zm25.4.4c-.5.7-1.2 1.1-2 1.4.4-.7 1.2-1.3 2-1.4zm-29.5 0c.4 1.8-.7 2.7-1.1 4-.2-1.6.8-2.7 1.1-4zm-4.3.3c-.1.2-.5.3-.6.5-.2-.3.4-.4.6-.5zm2.5.4c.1 0 .1 0 .1.1l-.6 1.5c-.1-.5.3-1.1.5-1.6zm28.2 0c.2.1-.1.5-.1.6-.2 0 .1-.4-.2-.4 0-.1.3-.1.3-.2zm-24.5.1c.5 2.4-.6 3.9-1.2 5.5-.4-2.3.7-3.9 1.2-5.5zm-10 18.4c.2-5.7-.1-11.9.2-17.6.2 0 .2 0 .3-.1 0 3.6.1 7.6.1 11.8 0 2.5.3 4.4-.6 5.9zm34.8-17.7c.1 0 .2.1 0 0-.8 1.2-2.4 1.7-3.7 2.5.2-.6 1-.9 1.6-1.3.8-.4 1.5-.8 2.1-1.2zm-21.8.1c.2 0 0 1 .1 1.4-.2 0 0-1-.1-1.4zm-1.7.4c.2.9.1 1.7-.2 2.6-.3-.8-.2-1.8.2-2.6zm-9.2.1c.2.3-.1.6-.1.9-.1-.3-.1-.6.1-.9zm12.2.1c.3.5-.1 1.1-.1 1.5-.2-.5-.1-1.1.1-1.5zm-6.3 1.3c.1 1.4-.9 2.4-1.2 3.7-.2-1.5.8-2.5 1.2-3.7zm6.3 1.5c.4.5 0 1.6-.1 2-.2-.7-.2-1.4.1-2zm-1.3.4c.1-.2.1.5.1.6-.1.2 0-.5-.1-.6zm-3.1 0c.5 2.3-.9 3.5-1.3 5.2-.3-2.2.8-3.6 1.3-5.2zm1.3.8c.1.7.1 1.4-.1 2-.2-.6-.1-1.3.1-2zm-3.4.1c.4 2.2-.6 3.6-1.2 5.1-.3-2.1.8-3.5 1.2-5.1zm-1.8 1.5c.3 1-.3 1.8-.5 2.6-.4-1.1.3-1.8.5-2.6zm8.4.1c.3.9.2 1.9-.2 2.7-.3-.9-.2-1.9.2-2.7zm-4.4 1.1c.4 2.4-1 3.7-1.6 5.5-.3-2.4 1.1-3.7 1.6-5.5zm1.2 1c.1.4.1.8-.1 1.2-.1-.4-.1-.9.1-1.2zm-6.5.8c.2 1.7-.7 3.1-1.3 4.4-.2.5-.5 1.1-.7 1.6s-.3 1.2-.9 1.4c0-1.7.8-2.9 1.4-4.2.6-1.1 1-2.1 1.5-3.2zm2.9.1c.5 2-.7 3-1.1 4.4-.5-2 .7-3 1.1-4.4zm6.9.3c.2 0 0 .3.1.5-.1 0-.2.1-.2.1-.2-.1.2-.3.1-.6zm-8.6.1c.2 1 0 2.1-.6 3-.3-1.2.3-2.1.6-3zm4.2 1.3c.3.9-.1 1.9-1 2.3.4-.8.7-1.6 1-2.3zm1.1.2c.1.2.2 1-.2.9 0-.3.1-.6.2-.9zm-6.7 1.7c.2 1.2-.3 2.4-1.3 3.2.4-1.1 1-2 1.3-3.2zm2.9.4c.2.3.1 1-.4.9.2-.3.3-.6.4-.9zm-1.7.1c.1.6.1 1.8-.6 1.9 0-.9.4-1.2.6-1.9zm40.7 1.1c.1 1.1.1 2.2.1 3.4-.2.1 0-.7-.3-.7-.4.6-1 .8-1.4 1.6-.1-.6-.1-1.1-.1-1.7.6-.5 1.1-1.1 1.6-1.8-.1-.6-.2-.6.1-.8zm-39.6 19.6c-.4 0-.5.3-.9.3.1-5.8.2-11.5.4-17.2.3-.3.6-.6 1-.8-.1 5.7-.3 11.9-.5 17.7zm-2.2.8c-.2-3.8.1-8.8.2-13.3 0-.9-.1-3.9.4-4.2.1-.1.2-.1.3-.1s.1 0 .1.1c-.3 5-.1 10.5-.3 16 0 .5.1 1.4-.7 1.5zm-.3-17.1h.2c-.4 5.6-.5 11.5-.6 17.3-.8.2-1.6.5-2.3.9 0-1.4 0-2.7-.2-3.9-.9.8-.7 2.8-.9 4.4-.3.1-.6.2-.9.2.3-5.7.1-11.4.3-17.2.3-.1.5-.2.8-.4.3 3.1.4 6.3.2 9.4.5-.2.4-.9.5-1.3.2-2.4.3-5 .4-7.6.1-.2.3 0 .5-.1.5-.2.8-1 1.1-1.4l.9-.3z"/><path class="st1" d="M59.4 150.6c.1.9.1 1.7 0 2.6-.2.8-1 1.3-1.2 1.9-.1-.9-.1-1.8 0-2.6.2-.9 1.1-1.3 1.2-1.9zm-5.1 3c-.1-.3.2-.9.1-1.5.1-.2.4-.2.5-.4.5.8-.5 1.4-.6 1.9zm1.7-1.8c.3 0 0 .4.1.7s.1-.1.4-.1c0 1.1-.1 2.2-.7 2.6-.3-.8-.3-2.6.2-3.2zm-2.7 1.5c.5 1.9-.6 2.9-1.2 4-.6-2 .5-2.9 1.2-4zm1.6.3c.4 1.4.1 2.9-.8 4.1-.4-1.5-.1-3 .8-4.1zm4.4.4c.1 1 .2 2 .1 3-.2.8-1.1 1.3-1.2 2-.4-1.8 0-3.6 1.1-5zm-3 1.2c.1 1.3.2 3.1-.5 3.8-.2-1.3-.3-3.2.5-3.8zm-3.1 1.3c.4 1.5 0 3-1 4.1-.3-1.4.1-2.9 1-4.1zm1.7.9c.4 1.5.1 3.2-.8 4.5-.2-1.7-.2-3.8.8-4.5zm4.4.5c.2.9.2 1.8.1 2.7-.2.7-1.1 1.2-1.2 1.8-.4-1.6 0-3.3 1.1-4.5zm-15.1.7c.1 0 .1 0 0 0-3.8 5.5-7 11.5-10.8 17.1-.5.8-.8 1.8-1.7 2.2 3.6-6 7.1-12.1 10.7-18.1.6-.3 1.2-.7 1.8-1.2zm-1.8.2c.2 0 .2.1 0 0-.4.9-2.3 1.6-3.3 2-1.2.5-2.2 1.2-3.2 1.6.9-.8 2-1.4 3.1-1.9 1.1-.6 2.3-1.1 3.4-1.7zm13.9.5c.1 1 .1 2.6-.5 3.2-.2-1.1-.1-2.7.5-3.2zm-3.1.7c.4 1.8.1 3.7-1 5.1-.1-1.1-.1-2.3-.1-3.4.4-.5.8-1.1 1.1-1.7zm6.1 1.5c.1.8.1 1.6.1 2.3-.4.5-.8 1.1-1.2 1.7-.4-1.4 0-2.9 1.1-4zm-4.5.3c.3 1.2 0 2.5-.7 3.4-.2-1.2 0-2.5.7-3.4zm-16.4.2c-3.3 5.1-6.7 10.7-10 16.1-.2-.4.2-.8.1-1.3 2.4-3.7 4.9-8.5 7.5-12.5.7-1.2 1.1-1.8 2.4-2.3zm-3.4.5c.2.5-1.1.8-1.6 1.1.1-.8 1.2-.7 1.6-1.1zm21.2.1c.2 1 .2 2.7-.4 3.2-.1-1-.1-2.6.4-3.2zm-20.1.5c-2.5 3.8-5.1 8.1-7.5 12.3-.2-.3.1-.7 0-1.1 2.2-3.6 4.2-7.4 6.6-10.8.3-.1.6-.2.9-.4zm17 1.6c.3 1.3-.1 2.6-.9 3.5-.5-1.6.5-2.5.9-3.5zm6.1.1c.3 1 0 1.6.2 2.6-.4.3-.8.5-1.2.8-.5-1.6.4-2.5 1-3.4zm-4.4.1c.3 1.3 0 2.6-.8 3.6-.2-1.3.1-2.6.8-3.6zm-24.2.4c-.3 1-1.1 2-1.6 3.1-.4-1.6.3-2.9 1.6-3.1zm25.6.8c.3.9.2 1.9-.3 2.6-.2-.8-.2-2.1.3-2.6zm-28.1.2c.2 1.3-.8 2-1 3-.2-.9-.1-1.7.1-2.6.1-.2.6-.2.9-.4zm-1.8.7c0 .9-.7 1.7-.9 2.7-.1-.7-.1-1.5-.1-2.3.3-.1.8-.2 1-.4zm25.2.5c.4 1.6-.4 2.4-1.1 3.5-.6 1-1.1 1.9-2.3 2.2.9-1.8 2.4-3.7 3.4-5.7zm-27.6 10.6c-.4-.2-.2-.8-.2-1.1.2-2.5.4-6.3.4-9 .2-.1.4-.1.6-.2.1 0 .1 0 .1.1-.4 2.9-.1 6.3-.5 9.4-.1.2.1.8-.4.8zM53 167.8c.3 1.2 0 2.4-.9 3.3-.2-1.2.1-2.4.9-3.3zm1.8.3c.3 1.2.2 2.3-.9 2.5-.3-1.1.5-1.8.9-2.5zm-31.5.3c0 1.8-.2 3.8-.3 5.7 0 1.3-.1 2.7-.5 4-.4-.2-.2-.7-.2-1 .2-2.5.3-5.9.5-8.5.2-.1.3-.2.5-.2zm4.7.4c.4 1.7-.7 2.6-1.1 3.8-.3-1.7.7-2.6 1.1-3.8zm-6.1.1h.1c-.1 3.1-.3 6.1-.7 9.1-.3-2.4.1-5.9 0-8.9.3 0 .4-.1.6-.2zm4.3 0c.1 1.5-.2 3.1-.9 4.5-.3-1.6.1-3.1.9-4.5zm34 9.6h-2.1c.1-1.8.1-3.9.1-5.8-.1-.6-.1-1.3-.1-2 .3-.8 1.4-.8 1.8-1.6.6 2.8-.2 6.6.3 9.4zm-39.8-8.9c.1 0 .1 0 0 0 .1 2.4 0 4.8-.3 7.2 0 .4.1 1.1-.3 1.3.2-2.8.3-5.5.2-8.3.1 0 .3-.1.4-.2zm-1.5.7c.2 2.6.1 5.2-.2 7.7-.3-2 0-5.1-.1-7.6.1.1.2 0 .3-.1zm-4.9.1c.2.5.1 1.1-.2 1.6 0 .3.3.1.2.4-.1 1.8-.2 3.8-.2 5.8-.3 0-.7 0-1 .1 0-2.5.1-5 .3-7.5.2-.3.8 0 .9-.4zm39.4.6c-.5.1-1 .6-1.3.5.1-.3.8-.4 1-.9.2 0 .3.1.3.4 0-.1 0-.1 0 0zm-36.9.3h.2c0 2.3-.3 4.5-.6 6.8 0-1 .2-2.5.2-4v-2.6c0-.2.1-.1.2-.2zm-1.3.4h.2c.1 1.1.1 2.2-.1 3.4v1.1c-.2-1.2 0-2.8-.1-4.2v-.3zm41 6.8H55c.1-2.2.4-4.2.5-6.4.1-.1.4-.2.5-.3s.2 0 .2.1c0 1.7-.2 4.3 0 6.6zm-1.8-.1h-.9c0-1.8 0-3.6.1-5.4.4-.3.9-.3 1.3-.6.1 0 .1 0 .1.1 0 1.6-.5 4-.6 5.9zm-1.5 0c-.4-.1-.9-.1-1.3-.1.1-1.5.1-3.1.3-4.5.3-.2.7-.3 1-.5.3 1.4-.1 3.4 0 5.1zm-27.1-4.6c.3 0 0 .6 0 .9-.5-.2 0-.6 0-.9zm25.1 4.4c-4 0-7.8-.2-11.8-.1 4.1-1 8.1-2.3 12-3.9.1 1.1-.3 2.6-.2 4zM25.1 176c.1.2.4.4.6.4v1.6c-.1.1-.5.1-.8.1.2-.7.1-1.5.2-2.1zm2.5 0c.4 1-.5 1.4-.7 2.1h-.4c0-.4 0-.8.1-1.2.6-.1.7-.5 1-.9zm-7.3 3.8c.4.1 0 .9.5.8.5.1.3-.5.5-.8 5 .1 10.3.1 15.4.1 4.4 0 8.8-.1 13 .2.5 0 1.2-.2 1.5.4-.3.7-1.3.4-1.8.4-11 0-23.2-.5-34.2 0-1.3 0-2.6.3-3.6-.2.7-.2 1.3-.7 2.1-.5.4.1.4.5.8.5.5 0 .4-.4.9-.6 1.9-.2 2.8-.6 4.9-.3zm43.5 1.3c-3.7-.2-8.1-.4-12.4-.3.1-.2 0-.7.2-.7.5 0 1 0 1.3.2 1.7-.4 4.9.1 7.3.1.6 0 1.1-.2 1.6-.2.6.3 1.3.5 2 .9zm-24.6 3.4c-1.9.3-2.4-1.4-3.7-2 1.8-.4 2.5 1.5 3.7 2zm-1.5-2c1.8-.2 2.4 1.5 3.8 2.1-2 .3-2.5-1.5-3.8-2.1zm2.2-.1c1.8.1 2.2 1.6 3.5 2.2-.1.2-.6 0-.8.1-.8-.8-1.9-1.4-2.7-2.3zm2 .1c1.9-.2 2.6 1.6 3.9 2.2-2 .2-2.6-1.6-3.9-2.2zm2.1 0c1.9-.2 2.5 1.6 3.9 2.2-2 .2-2.6-1.6-3.9-2.2zm3.1 0c.3-.2 1 0 1.4-.1.8.8 1.8 1.7 2.3 2.4-.7-.2-1.4-.6-2-1.1-.5-.4-1.1-.8-1.7-1.2zm2.7 0c0-.2.4 0 .6-.1l2 2c.1.2.6.3.4.5-1.4-.4-2.1-1.6-3-2.4zm1.9-.1h.2c.9.8 1.8 1.7 2.6 2.6-1.1-.7-2-1.6-2.8-2.6zm1.6 0c.3 0 .4.1.7.1.7 1 1.7 1.7 2.5 2.7-1.6-.5-2.2-1.8-3.2-2.8zm-21.6.2c1.8-.2 2.4 1.4 3.7 2-1.9.3-2.4-1.4-3.7-2zm2.5 0c1 .3 1.9 1.4 2.9 2-.6 0-1-.5-1.5-.9-.4-.4-.9-.8-1.4-1.1zm-4.4 1.9c-2 .6-2.4-1-3.3-1.8 1.6-.4 2.1 1.4 3.3 1.8zm-1.1-1.8c0-.1.1-.1.2-.1.6.8 1.8 1.3 2.3 2-1-.5-1.8-1.1-2.5-1.9zm1.5 0c1 .2 1.8 1.4 2.9 1.9-1.3-.1-1.9-1.5-2.9-1.9zm25.2 0c.2-.2.6 0 .9-.1.9.9 1.8 1.7 2.6 2.6-1.9 0-2.3-1.8-3.5-2.5zm-43.2 0c.7 0 1.4 1.1 1.8 1.5-.8-.2-1.1-1.1-1.8-1.5zm1.5 0c0-.1.1-.1.1-.1.9.2 1.4 1.1 1.8 1.6-1-.1-1.2-1-1.9-1.5zm12.1 1.9c-1.3-.1-1.4-1.3-2.3-1.8 1.1-.3 1.8 1.4 2.3 1.8zm-.7-1.9c1.2-.4 2 1.5 2.5 1.9-1.4 0-1.6-1.3-2.5-1.9zm32.5 0c2.2-.3 2.6 1.9 4.1 2.5-2.3.4-2.7-1.7-4.1-2.5zm-42.2.1c1-.1 1.4 1 2.1 1.5-1.2 0-1.4-1-2.1-1.5zm1.6 0c0-.1.1-.1.2-.1.8.4 1.4.9 1.9 1.6-1-.2-1.4-1-2.1-1.5zm1.6 0c1-.1 1.6 1.2 2.1 1.6-1.1-.1-1.3-1.1-2.1-1.6zm1.7-.1c1.1.2 1.3 1.3 2.2 1.7-1 .1-1.6-1.1-2.2-1.7zm1.5 0c1.5 0 1.7 1.2 2.4 1.9-1.2-.2-1.7-1.1-2.4-1.9zm38.4 0c1.4.5 2.4 1.9 3.2 2.6-.9 0-1.3-.7-1.8-1.2-.5-.3-1-.8-1.4-1.4zm1.7.3c.3-.2.7.1 1.1 0 .6.9 1.9 1.1 2 2.5-1.4-.5-1.9-1.8-3.1-2.5zm10.2 5.1c.2.5.6 1.3.2 1.9-1.7.2-3.4-.2-5.1-.2-6.7 0-13.7-.2-20.5.1-6.2.3-12.8-.5-18.7.1.1.4.6.3.9.3.1.8.8 1.3.9 1.9-1.4.4-1.4-1-2-1.1-.4.4.3.9.2 1.2-1.2 0-1.2-1.4-2.2-1.6 0 .8.9 1.2.9 1.6-1.2.3-1.5-.6-2-1.2-.4-.5-.9-.7-1-1.1.3.1.5-.1.8-.1-6.1-1.6-15.2-.8-22.3-.7.2-.3.4-.7.6-1 13.7-.5 28.2.3 41.6-.2-6.1-.7-12.5-.8-19-1-6.2-.3-12.5 0-19.1 0 .4-.6 1.6-.2 1.7-.8 10.6.4 21.9 0 32.7.3 10.6.3 21.9-.3 31.4 1.6z"/><path class="st1" d="M23.3 190.1c-.4 1 .9 1.5 1.2 2.3-1.2-.2-2.1.3-2.9.1s-1-1.4-1.9-1.6c.1.5.9 1 1.2 1.6-1.1-.2-1.7-1.5-2.2-2 1.6-.1 3.1-.3 4.6-.4zm-20.7.2c.8-.1 1.6-.1 2.4-.1.7.9 1.9 1.7 2.4 2.5-2 .1-2-2.1-3.7-2.1.2 1.1 1.6 1.4 1.8 2.2-1.2-.5-1.8-1.8-2.9-2.5zm3.5-.1c.3 0 .5.1.9.1.6.9 1.8 1.6 2.2 2.4-.7.1-1.4-.7-1.9-1.2-.5-.3-.9-.8-1.2-1.3zm1.7.2c.2-.2.8 0 1.2-.1.8.7 1.6 1.5 2.3 2.4-2.1.2-2.3-1.6-3.5-2.3zm1.9 0c.9-.1 1.7-.1 2.6-.1.8.2 1.7 1.9 2.3 2.4-1.7-.2-1.8-2-3.4-2.3.1 1 1.3 1.5 1.8 2.3-1.5.2-2.1-1.8-3.3-2.3zm3.8-.1h.9c.7.8 1.5 1.5 2.2 2.3-1.5.3-2.3-1.6-3.1-2.3zm1.7.1c1.4-.4 2.3 1.7 2.9 2.2-1.5 0-1.8-1.7-2.9-2.2zm14-.1c.3.1.6.1.9.1.4.7.9 1.1 1.3 1.8-.6.2-.8-.4-1.1-.7s-.9-.7-1.1-1.2zm-12.1.2c.7-.4 1 .5 1.4 1s.9.7.9 1c-1.1-.4-1.4-1.5-2.3-2zm13.9.1c.7.1 2.3.2 3.8.2 1.4 0 2.8 0 4.2.2.5.2.9.5 1.2 1-2.7 0-5.3 0-7.9.2-.5-.5-.9-1.1-1.3-1.6zm9.2.5c.5-.1 1.1-.1 1.6-.1.2.5.9.7.9 1.1-1 .1-1.9-.3-2.5-1zm2.2.1c.9-.1 1.7-.1 2.6-.1-.3.5.2.7.3 1-1.5.3-2-.5-2.9-.9zm2.8-.1c.8.1 1.7.1 2.5.1.3.3.5.6.7.9-1.2.2-2.4-.1-3.2-1zm6.1 1c-.9.2-1.9-.1-2.5-.8.9-.4 2.5.1 2.5.8zm.3-.8c.5-.1.9-.1 1.4 0 .4.2.5.7.9.8-.8.2-1.7-.1-2.3-.8zm2.7.1c1-.4 1.6.4 2.2.8-1.1.4-1.7-.4-2.2-.8zm2.5.1c.9-.4 1.9 0 2.3.9-.9.1-1.8-.2-2.3-.9zm2.3 0c.4-.2 1.1 0 1.6 0-.2.4.6.7.5.9-1.2.2-1.5-.5-2.1-.9zm2 0c1.2-.1 2.4 0 3.5.1.1.3.5.6.7 1-.8 0-1.5-.2-2.3-.5-.3-.1 0 .3-.2.3-1 .2-1-.7-1.7-.9zm4 .2c1.3-.1 2.7 0 4 .1.6.6 1.3 1.2 2 1.9-.1.3-.3.6-.5.9-1.2-.7-1.8-2-3.2-2.5-.1 0-.1.1-.2.2.6 1.4 2 1.9 2.9 3-1.5-.3-2.3-1.4-3.2-2.3h.2c-.9-.3-1.2-1-2-1.3zm5.2.3c.6-.3 1 .3 1.3.5 0 .2-.2.4-.2.5-.4-.3-.7-.7-1.1-1zm-2.3 2.9c-1.8.5-2.2-1.1-3.3-1.6 1.7-.7 2.2 1.1 3.3 1.6zm-2.3.2c-1.4 0-1.7-1.2-2.6-1.7 1.1-.3 1.9 1.1 2.6 1.7zm-1.5 0c-1.8.3-2-1.1-3.1-1.7 1.6-.5 2.2 1 3.1 1.7zm-20.4 0c-1.5 0-3.1-.1-4.9-.2-1.4-.1-2.9.3-3.8 0-.7-.2-1.1-1.1-1.5-1.5h2.6c1.8-.1 4.2-.4 5.6-.1.8.3 1.4 1.5 2 1.8zm-1-1.6c2-.5 2.6 1.1 3.8 1.6-2.1.6-2.7-1-3.8-1.6zm2.5 0c1.9-.5 2.8 1 3.5 1.7-2 .3-2.4-1.1-3.5-1.7zm2.8 0c2.2-.6 2.8 1 4 1.6-2.2.7-2.9-.8-4-1.6zm3.3-.1c2-.2 2.5 1 3.6 1.7-2 .5-2.7-.9-3.6-1.7zm7.7.1c1.8-.4 2.2 1.1 3.3 1.6-1.8.5-2.2-1.1-3.3-1.6zm-5 .1c1.7-.4 2.3 1 3.1 1.7-1.6.1-2-1.2-3.1-1.7zm2.5 0c2-.5 2.5 1.2 3.7 1.6-2 .6-2.7-.8-3.7-1.6zm-28 0c.8.1 1.3 1 1.6 1.4-.6-.3-1.2-.8-1.6-1.4zm1.3.1c1.5-.5 1.7.9 2.6 1.3-.3.2-.9 0-1.3.1-.4-.6-.9-1-1.3-1.4zm2.2 0c.9-.2 1.5 1 1.9 1.3-1.1 0-1.2-1-1.9-1.3zm-5 1.2c-1.3-.1-4.1.6-4.4-.6-.2 0-.5-.2-.7-.4.5-.3.9.2 1.2.3.1-.3-.2-.2-.2-.5 1.1.2 2-.3 2.7-.1s.8 1.1 1.4 1.3zm-.4-1.2c1.5-.5 1.8.8 2.7 1.2-.4.2-1.1 0-1.6.1-.3-.5-.7-.9-1.1-1.3zm-24.1 0c.7.3 1 .9 1.6 1.2-.8.4-1.3-.5-1.6-1.2zm17.8.1c.9 0 1 .8 1.6 1-.7.5-1.2-.5-1.6-1zm.2 1c-.9.4-1.2-.5-1.7-.8.7-.5 1.1.6 1.7.8zM5 194c.9-.3 1.1.7 1.7.9-.9.4-1.1-.6-1.7-.9zm13.9.8c-.2.2-.8 0-1.1.1-.2-.3-.6-.5-.7-.9 1.1-.2 1.2.5 1.8.8zm-12.2-.7c.8-.3 1.1.6 1.7.9-.8.3-1.2-.6-1.7-.9zm1.5 0c1.2-.4 1.6.6 2.3.9-1.2.4-1.8-.4-2.3-.9zm1.9 0c1-.4 1.3.6 1.9.9-1 .5-1.3-.6-1.9-.9zm1.6 0c1-.4 1.5.4 2 .8-1 .5-1.5-.3-2-.8zm1.9-.1c1-.2 1.2.5 1.7.8-.6.3-1.4 0-1.7-.8.1.1 0 .1 0 0zm1.8 0c1-.2 1.1.5 1.7.8-.7.3-1.5 0-1.7-.8 0 .1 0 .1 0 0zm-10.7.7c.2 0 .3.2.4.2s-.3 0-.4.1v-.3zm10.7 3.3c2.1 3.2 4.9 6.5 7.3 9.6-1.6-.9-3.2-2-4.6-3.2-1.1-1.1-2-2.5-3-3.7-1.1-1.2-2-2.6-2.7-4 1 .2 3-.3 4.2.1.7.2 2.2 2.7 2.7 3.4 2.6 3.3 5.5 6.8 8.1 9.8-.8 0-1.6-.7-2.4-.9-3.2-3.8-6.3-7.6-9.6-11.1zm14.9 12.7c-1.6.2-2.1-.9-3-2-3.4-3.9-6.8-8.3-10.2-11.9.5 0 1 .1 1.5.1.1.2 0 .4.1.8 1.1.8 2.1 1.7 3.3 2.5 2.5 3.7 5.3 7.2 8.3 10.5zm-19.9-13.4c.1-.1.7-.2.6.1-.3 0-.4-.2-.6-.1zm41.2.3c.2-.2.6.1.9 0 1.3 1.8 3 3.7 4.6 5.5.4.5 1.5 1.2.9 1.9-.5 0-.6-.5-.9-.8-1.8-2-3.7-4.5-5.5-6.6zm1.8.2c.3-.2.9 0 1.3-.1 1.5 1.8 3.1 3.5 4.5 5.3-.2.2-.4.5-.5.8-1.8-1.9-3.4-4.1-5.3-6zm2.2.1c1.8-.6 2.2.8 3 1.7.6.7 1.2 1.2 1.6 1.7 0 .5-.4.7-.6 1-1.4-1.4-2.6-3-4-4.4zm3.6 0c.6.8 1.3 1.4 1.9 2.2 0 .3-.3.4-.4.7-.9-.9-1.8-1.9-2.6-2.9.2-.1.7 0 1.1 0zm.9 0c1.1-.2 1.2.6 1.6 1 0 .2-.2.3-.2.5-.6-.4-1-1-1.4-1.5zm1.4.1c.1-.2.4 0 .6-.1 0 .2-.2.2-.2.5-.1-.1-.2-.4-.4-.4zm-10.5.1c2.1 2.6 4.2 5.2 6.3 7.7l-.5.5c-2.2-2.3-4.1-5-6.2-7.4.1-.3.4-.4.4-.8zm-3.4.2c.6.4 1.2.9 1.6 1.4-.7-.2-1.3-.7-1.6-1.4zm-1.4.2c0-.1.1-.1.2-.1.6.8 1.9 1.3 2.1 2.2-.7-.5-1.5-1.5-2.3-2.1zm-17.4.1c0-.1.1-.1.2-.1.9.6 1.8 1.3 2.5 2.1.8.7 1.6 1.5 2.3 2.3-.9-.6-1.8-1.3-2.5-2.2-.9-.7-1.7-1.4-2.5-2.1zm1.6 0c.7-.3 1.3.5 1.8.9 1.2 1.1 2.5 2.4 3.5 3.5-1.2-.2-1.9-1.3-2.6-2s-1.8-1.6-2.7-2.4zm3.7 0c0-.1.1-.1.1-.1.7 0 1 .7 1.5 1.1 1.4 1.1 2.6 2.3 3.8 3.6-.7 0-1.1-.6-1.6-1-1.2-1.2-2.5-2.4-3.8-3.6zm1.9-.1h.1c1.1.6 2.1 1.4 3 2.3.9.8 1.7 1.6 2.5 2.6-.7 0-1.1-.6-1.6-1l-3.9-3.6c-.1-.1-.2-.2-.1-.3zm1.7.1c0-.1.1-.1.2-.1 1 .6 1.9 1.3 2.7 2.2.8.8 1.5 1.9 2.6 2.1.4-.5-.3-1-.5-1.2-1.1-1-2.2-2-3.2-3 1.2.3 1.9 1.4 2.6 2.1.8.7 1.7 1.5 2.4 2.3.1.1.4 0 .5.2 2.2 3.2 4.9 5.8 7.3 8.9-.4.1-.7.3-1.1.5-.5-.5-1.2-1-1.2-1.7-.2 0-.4-.1-.6-.1-3.4-4.7-7.4-8.7-11.7-12.2zm3.5 0c0-.1.1-.1.2-.1.8.5 1.5 1.2 2.2 1.9.7.6 1.9 2.3 2.6 1.6-.7-1.5-2.4-2.3-3.1-3.4 1 .2 1.5 1 2.1 1.6.7.6 1.3 1.2 1.8 2-.2.2-.5.2-.7 0 2.2 3.4 5.1 6 7.5 9.1-.1-.1-.4.2-.5.2-.5 0-1.7-1.7-2-2.1-1.8-2.3-3.7-4.5-5.9-6.5-1-1.9-2.8-2.9-4.2-4.3zm3.3 0c0-.1.1-.1.2-.1.7.2 1.2.9 1.7 1.3s1.2.9 1.3 1.6c-.3.3-.7-.3-.9-.5-.6-.7-1.5-1.7-2.3-2.3zm19.6.1c.1-.1.9 0 .8.1-.3-.1-.7.3-.8-.1zm-8 8.7c-.6-.5-1.2-1-1.6-1.6-1.2-1.5-2.4-3.1-3.9-4.7-.6-.6-1.2-.8-.3-1.4.1 0 .1 0 .1.1 1.7 2.3 3.5 4.6 5.5 6.7.1.2.6.5.2.9zm8.1-7.6c-.1.2-.6.3-.7.2.1-.4.3-.1.7-.2z"/><path class="st1" d="M22 200.5c1.1.5 2.4 1.5 3.7 2 2.2 2.8 5.1 6 7.4 8.7-.6 0-1.1-.2-1.7-.2-3.1-3.5-6-7.2-9.4-10.5zm34.4 8.7c-.2.2-.3.4-.6.5-1.9-1.9-4.2-5.1-6.1-7.1-.2-.2-.9-.6-1-.9.1-.5.3-.9.6-1.2 2.3 3.1 4.6 5.9 7.1 8.7zm7.6-7.9c-.3 0-.5.2-.9.2 0-.3-.4-.3-.2-.5.5-.2.9-.2 1.1.3zm-52.9.4c.1-.2.3.1.5.2-.2.2-.4-.2-.5-.2zm37.1 0c2.1 2.9 4.5 5.8 6.9 8.4-.2.3-.5.5-.9.6-2.4-2.8-4.8-5.6-7.3-8.3.5-.1.9-.4 1.3-.7zm15.1.7c-.3.3-1 .5-1.3.1.3-.2 1.1-.3 1.3-.1zm-52.8.1c.4 0 .7.7.9 1.1-.4-.3-.6-.8-.9-1.1zm1.3.2c.8-.1 2-.1 2.3.5-.7.1-2.1.2-2.3-.5zm14.5.2c1 .1 2.1.8 3.4.9 2.2 2.7 4.8 5.4 6.9 8-2.3.4-3-1.2-4.1-2.3-2-2.4-4.2-4.7-6.2-6.6zm16 .2c2 2.7 4.3 5 6.3 7.6-1.4.4-1.9-.8-2.7-1.6-1.1-1.3-2-2.1-3.3-3.4-.6-.6-1.7-1.4-1.5-2.2.3-.1.7 0 .9.1 0-.1.2-.2.3-.5zm19.9.5c-.1.5-.6.6-1.1.7-.1-.3-.3-.3-.4-.6.6 0 1.1-.3 1.5-.1zM46.6 211c-.4 0-.8.1-1.3.2-2.3-2.4-4.4-4.9-6.9-7.2.1-.3.2.2.5.1.4-.2.8-.3 1.2-.4 2.1 2.5 4.3 4.8 6.5 7.3zm-16.2-7c.7 0 1.5.1 2.2.4 2.1 2.6 4.4 5 6.6 7.4h-1.3c-2.6-2.6-4.7-5.5-7.5-7.8zm13.9 7.3c-.5 0-.9.1-1.4.2-2.4-2.4-4.7-5.2-6.9-7.5.5-.1 1.2 0 1.6-.1 2.2 2.5 4.6 5.1 6.7 7.4zM12.9 204c.6.3 2.1-.2 2.2.6-.9 0-2.1.2-2.2-.6zm29 7.6c-1.8.7-2.5-.8-3.4-1.7-1.8-1.9-3.6-4-5.3-5.7.5-.1 1.1-.1 1.6-.2.8.1 1.4 1.2 2 1.8 1.7 2 3.7 4.1 5.1 5.8zm18.6-7.2c-.1 0-.5-.1-.5.1-.2-.2.6-.6.5-.1zm-46.5.9c.7 0 2-.1 2.3.5-.9.2-2.2.2-2.3-.5zm45.7.6c0 .3-.4.4-.5.7-1.1-.3 0-1.6.5-.7zm-1 1.1c-.1.3-.4.5-.6.7-.4-.1-.5-.5-.8-.6.4-.6 1-.7 1.4-.1zm-43.6-.3c.6-.1 1.9-.1 2.1.4-.6.1-1.9.2-2.1-.4zm2.7.2c.4-.3.7.1 1 .2-.2.3-.9.1-1-.2zm38.9.5c.3.2.5.5.9.7-.4 1-1 .3-1.4-.3 0-.3.5-.1.5-.4zm-40.5.6c.8-.1 2.4.1 2.3.8-.8.3-1.8 0-2.3-.8zm4.6.7c-.3.2-1 0-1.5.1 0-.3-.4-.3-.4-.6 1.1 0 1.4-.2 1.9.5zm-3 .9c.6.1 1.2.1 1.8.1.1.1.1.3.2.3-.3.2-.6-.2-.9-.2s0 .3.1.2c-.2.2-.7 0-1 .1 0-.2-.2-.2-.2-.5zm2.4.2c.6-.2 1.2-.1 1.8.1-.5.2-1.6.3-1.8-.1zm37.1.6c.1 0 .1.1.2.2-.1.3-.4.5-.7.6 0-.1-.2-.1-.1-.3.3-.2.5-.3.6-.5zm-38 .6c.7-.3 1.3.3 1.7.5-.6.2-1.1-.4-1.7-.5zm1.8 0c.7-.2 1.9-.1 2.2.4-.7.2-1.5 0-2.2-.4zm4.8.4c-.6.1-1.9.2-2.1-.2.8 0 1.4-.3 2.1.2zm24.5 1.2c-1.2.6-1.7-.5-2.3-1.3 1.1-.8 1.6.6 2.3 1.3zm6-1.2c-.2.4-.5.6-.9.8-.1-.1-.1-.3-.2-.3.3-.1.7-.8 1.1-.5zm-7.7 1.6c-1.2.8-1.9-.2-2.5-.9.2-.3.8-.2 1-.5.7.4 1 1 1.5 1.4zm-21.3-1c.7.1 1.5.3 2.2.5-.5.1-1.1.1-1.6.1-.3-.2-.5-.4-.6-.6zm-5.4.3c.4-.2.9.2 1.3.2-.5.3-1-.1-1.3-.2zm2.9 0c.5 0 2-.3 2.1.2-.8 0-1.7.2-2.1-.2zm30.1.2c-.2.2-.4.4-.7.5-.1-.2-.3-.2-.3-.5.4-.1.8-.5 1 0zm-8.3 1c-.6 0-1.1.4-1.6.3s-.7-.8-1.2-1.1c.4-.2 1-.2 1.4-.5.6.4 1 .8 1.4 1.3zm-15.9-.7c.9-.2 1.9.3 2.3 1.1-1.3.2-2-.3-2.3-1.1zm13.5 1.2c-.5 0-1.1.1-1.6.2-.3-.4-.6-.7-1-1 .8-.5 2-.3 2.5.6 0 .1.1.1.1.2zm9.4-.6c-.5.1-.9.4-1.5.5 0-.2-.1-.2-.2-.3.5-.2 1.5-1.1 1.7-.2zm-20.5-.3c.9-.1 2.5.2 2.6.9-1 .3-2-.1-2.6-.9zm8.5 1.2c-1.1 0-2.2-.1-2.5-.9 1-.4 2.1 0 2.5.9zm-17-.9c1-.1 2 .2 2.8.7-.9-.2-1.9-.5-2.8-.7zm11.6 0c1-.3 2.6 0 2.6.7-1.1 0-2.3 0-2.6-.7zm-7.5.1c.6-.2 2.2-.2 2.1.4-.7-.1-1.4-.2-2.1-.4zm23 .4c-2.6.9-5.3 1.4-8 1.5 2-.5 4.2-.7 6.1-1.3.1.1.3.1.4.1.2-.4 1.2-.7 1.5-.3zm-16.9 1.5c-.2.2-1.7-.2-.6-.1.2 0 .4 0 .6.1zm.7.1c.6-.1 2-.3 2.3.2-.8.1-1.6 0-2.3-.2zm2.8-.1c.9.2 2.2-.1 2.6.5-.8.1-2.3.3-2.6-.5zm5 .3c-.6.1-1.8.5-2.2-.1.7-.1 1.9-.4 2.2.1zM15 19.7c.7-.7.7-1.7 1.4-2.3 1-.8 2.1-1.4 3.3-1.9 1.1-.6 2.1-1.3 3-2.1-1.9.7-3.7 1.6-5.4 2.7 2.1-3.5 5-6.5 8.5-8.7 2.7-1.6 6-2.4 9.3-3.7 1.4-.7 3-1 4.6-1 2.3 0 4.6.1 6.9.4 1.1.2 2.2.2 3.2.4 3.1.5 5 2.6 6.9 4.1.1.1.2.2.2.5 1.2 1 2 2.3 2.3 3.8.2.3.4.7.5 1.1-.5.5-.7 1.4.3 1.3.2 1.7-1.3 3.2-2.1 4.4-6.6 1.9-15.7 1.5-23.2.6-.4 0 0-.3-.3-.4-1.7-.1-3.4-.5-5-1.2-1.4-.5-2.6-1-3.9-1.5-.3-.2.6-.4.6-.8-.7 0-1.1.6-1.6.5-3.1 2-6.2 4-9.1 6.2 0-.2 0-.4-.2-.4-.2.2-.3.5-.2.8-.9.6-1.6 1.4-2.4 2-.7.8-1.6 1.4-2.6 1.8.2-.7.3-1.4.2-2.1 2.3-1.4 4.4-3.2 6.7-4.7s4.8-2.7 6.6-4.7c-4.9 2.3-9.2 5.6-13.3 8.5 0-.7.1-1.3.2-2 1.7-1.2 3.3-2.4 5.1-3.4-.2.7-.3 1.3-.5 1.8zM46 4.9c0 .4-.3.5-.4.8.2.3.6.4 1.1.4.6-.6.1-1.8-.7-1.2zm-6.4.5c-.9.1-1.8.4-2.4.4-.3 0-.6-.2-.9-.2-.8.5-1.5 1.2-2 2 0 .4.3.5.3.9.1.5-.1 1-.1 1.4.4 3 5 3.7 8.3 3.9 1.3.1 2.7 0 4-.4.6-.2 1.4-.3 1.6-.9-.2-.2-.6.1-.9.1-1.9 0-3.9-.2-5.8-.5-3-.4-6.1-.5-5.7-3.9C37.1 6 41.4 7.1 43.3 6c-1-.9-2.3-.8-3.7-.6zm9.5.8c-.2-.9-1.5 0-.8.8.4-.1.8-.4.8-.8zm1.3 4c2.1.2 1.4-4 0-4.3.6 1.4.6 3 0 4.3zm-37.3 2.2c1-2 3.9-2.7 6.2-3.7 1.7-.7 3.3-1.5 4.8-2.2.1.3-.3.3-.5.5-.7.6-1.4 1.2-2.2 1.8-1.2.7-2.8 1.2-4.1 1.8s-2.9 1.2-4.2 1.8zM59.9 9c-.1.3-.5.4-.7.6-.1.1.4-.5.7-.6zm-46.6.6c-.6 1-1.4 1.8-2.4 2.3.4-1.1 1.5-1.6 2.4-2.3zm6.3.7c-.5.8-1.1 1.5-1.7 2.1-.6.3-1.1.5-1.7.7-1.6.7-3.3 1.7-4.8 2.4 0-.6.6-1.3.9-2 2.5-1 4.9-2.1 7.3-3.2zm-8.4 1.9c-.4 1-1.2 1.8-2.1 2.3.4-.7.9-2.1 2.1-2.3zM58 20.3c-1.9 1.8-4.4 3.8-6.3 5.9h-1.2c-.2-.1.2-.4.5-.6.7-.6 1.4-1.2 2.2-1.9 1.4-1.4 3-2.5 4.8-3.4zM28 33.2c0-.2.4 0 .6-.1.3.9-.1.3-.6.1zM7.9 34.9c.8.1 1.4 1.1 2.1 1.6-.7-.2-1.4-1.1-2.1-1.6zm4 0c.9 0 1.4 1.2 2.3 1.5-.8-.1-1.5-1.1-2.3-1.5zm-2.6.1c.6.2 1.3 1.1 2 1.4-.8 0-1.3-1-2-1.4zM58 41c.1.3-.4.8-.4 1.3h-.5c.3-.4.7-.8.9-1.3zm-23.8 4.8c-.2 1.3-1.5 2.1-2.3 3.1 0-1.5 1.7-2 2.3-3.1zM52 48c0 .5-.3 1-.7 1.3 0-.4.5-.8.7-1.3zm-21.1.1c-.3.7-.8 1.2-1.3 1.7 0 1-.3 1.9-.7 2.7 0-.9-.1-1.8-.3-2.7.7-.5 1.5-1.1 2.3-1.7zm11.7.5c.1.4-.3 1-.6 1.5-1.9 3.5-4 7.3-6.2 10.7-.5.2-1 .5-1.4.9C36.6 58 39.1 54 41.3 50c.2-.6.4-1.6 1.3-1.4zm-10.1.6l-.6 1.5c-.4-.8.3-1.1.6-1.5zm-11.8 6c-.4.6-.7 1.3-1 2-.2-.3-.1-.9-.1-1.3.3-.2.7-.4 1.1-.7zm28.1 17.3c-.3 1.1-1.5 2.1-1.6 3.7.7-1.2 1.3-2.5 1.7-3.8 1-.7 1.8-1.6 2.9-2.2-.5 1.2-1.2 2.3-1.8 3.4.1.2-.2.1-.3.2-.5 2.6-2.5 3.7-2.4 6.9l2.1-4.5c.4 3.7-2.5 4.8-2.3 8.6.7-1.4 1.4-3 2.1-4.4.5 3.9-2.5 5-2.3 8.7.8-1.3 1.4-2.8 2.1-4.1 0 2.2-1.4 3.6-2.2 5.2 0 .6-.1 1.2-.4 1.7-.2.2-.3-.1-.4-.1-.4.8-.7 1.7-1.5 2.1.2-.7.8-1.6 1.2-2.4-.2 0-.5-.1-.5-.4v-.2c-.1 1.3-1.4 1.6-1.4 3 0 .3-.1 0-.2 0-.2.4-.3.9-.8 1 0-.2.1-.2.1-.4-.2.3-.3.7-.7.9.2-1.4 1.7-2.5 1.2-4.4-1.1 1.8-1.7 4-2.9 5.6.6-1.8 1.3-3.6 2.1-5.3.6-.9.9-2.1.8-3.2-1.5 2.9-2.8 6-4 9.1-.8.7-1.8 1.1-2.5 1.8 1.7-3.8 3.8-7.9 5.7-12.1.6-.9.8-1.9.8-2.9-2 4-3.9 8.3-5.9 12.3-.7 1.3-1.1 2.8-2.3 3.8 0-.3.2-.5.2-.8-.3.7-.7 1.3-1.4 1.7 2.1-4.8 4.8-9.6 7.2-14.7.4-.8.7-1.7 1.1-2.6.6-1.3 1.3-2.1 1.2-4-3.3 7.1-6.8 14.1-10.3 21 0 .1-.2.5 0 .6-.2.2-.5.4-.9.5 3.6-7.1 7.1-15 10.4-22.8.9-2 1.4-3.5 3.1-4.4.1.3-.4.7-.5 1 .1.2.2-.2.5-.1.7-1.4 2-2.1 3-3zm-5.4 3.8c.1 0 0 .1 0 0-3.4 7.9-7.1 15.9-10.8 23.6-.5 1-.8 2.3-1.9 2.7 3.8-8.5 8.2-16.3 11.5-25.4.3-.2.7-.5 1.2-.9zM37.3 81c-2.4 4.9-5.2 10.2-7.6 15.4-.1-1-.2-2-.1-3 .3-1 .7-1.9 1.2-2.7 1.2-2.6 2.4-5.4 3.5-8 1-.5 2-1 3-1.7zm13.5 7c.2.2 0 .7.1 1-.3.2-.7.5-.9.8 0-.6.5-1.2.8-1.8zm-23.7 4.4c0 .8-.6 1.4-.9 2.2.3-.8.6-1.5.9-2.2zm21.5 37.5c1-1.5 1.8-3.1 2.6-4.8.3 1.6 0 3.3-1 4.7-1.2.5-2.4 1.1-3.5 1.8.1-.6.1-1.1.1-1.7-.1.6-.2 1.2-.4 1.8-.3.2-.4 0-.6-.1-.3 1.1-1.6 1.2-2.3 1.9.3-1.6 1.9-2.6 1.8-4.8-1.1 1.8-2 3.6-2.9 5.5-.6.3-1.2.7-1.8 1.1.9-2.6 2.2-5.2 3.4-7.9.6-1.2 1.4-2 1.3-3.8-1.7 3.3-3.5 7.1-5.1 10.7-.2.5-.4 1.1-.6 1.6-.5.6-1.5.8-1.9 1.5 2.1-4.7 4.4-9.9 6.7-15 .6-1 .9-2.2 1-3.4.3-.1.4.1.5.2.2-.6.3-1.2.3-1.9-3.6 6.7-6.4 14.2-9.8 21-.5.2-.8.5-1.3.7 3.1-6.7 6.1-13.8 8.8-20.6.9-.6 1.7-1.2 2.6-1.8 0 .2.3.2.3.4.2-.3.4-.7.6-1.1 1.5-1 2.3-2.7 4.4-3.1-.2 1.3-.1 2.2-.3 3.2-.3.9-.7 1.8-1.2 2.6-.6 1.2-1.3 2-1.2 3.8.8-1.6 1.6-3.3 2.3-5 .5 2.7-.3 3.9-1.1 5.5-.6 1.3-1.4 2.1-1.2 4.1.9-1.5 1.4-3.3 2.4-4.8-.2 3.5-2.7 4.5-2.9 7.7zm-.2-12.8c.2 0 .2.2.4.2.6-1.1 1.1-2.2 1.6-3.4 0-.1-.1-.1-.2-.1-.5 1.2-1.3 2.1-1.8 3.3zm-1.4 4c.1-.4.1-.9 0-1.3-.2.4-.1.9 0 1.3zm-1.1 2.3c.1-.5.1-.9 0-1.4-.2.4-.1.9 0 1.4zm1.1 3c0-.3.1-1.2-.1-1.1 0 .3-.1 1.2.1 1.1zm8 1.9c-.2.9-1.2 1.6-2.2 2 .3-1 1.5-1.2 2.2-2zm-3.8.9c.2.1 0 .5.1.8-.2 0-.4.1-.6.3-.1-.3.4-.7.5-1.1zm-19.5 14.7c.2.2-.5.5-.2.9.8-.1.8-.8 1.2-1.3 1.3-.7 2.8-1.3 4.1-2 .2-.1.3-.1.1.2 4-2.7 8.5-4.8 12.6-7.6.5-.4 1.1-.8 1.6-1.2h.6c.1-.1.2-.5.3-.6.9-.5 1.7-.9 2.6-1.3.9-.5 1.6-1 2.4-1.5-.5 5.3-.5 12.4-.8 17.9v1.3c-.2.6-1.3 1-1.7 1.3.1-6.1.5-12.8.2-18.8-.4.5-.2 1.5-.2 2.1-.2 5.5-.4 11.6-.6 17.2-3.8 2.8-7.8 5.2-12 7.2-1.4.7-2.8 1.6-4.2 2.2-.7.3-1.5.5-2.2.7-4.7 1.7-9.4 3.8-14 5.8.1-6 .2-11.8.5-17.5 1.9-.9 3.9-1.9 5.8-2.9.3 0 .1.6.4.6.9-.2.8-1.3 1.6-1.6.4.1-.2.7.3.7.7-.4.7-1.6 1.6-1.8zm21 6.7c.1-4.9.1-9.8.2-14.7h-.2c-.3 4.9-.3 9.8 0 14.7zm-33.8-18.8c.2.9-.5 1.5-.6 2.3.2-.8.4-1.6.6-2.3zm-2.4 4.5c.6-1.3.4-2.2 1.3-3.4-.1.4-.2.8-.4 1.2-.4 1-.6 2-1.1 2.9 0 0-.3.7-.1 0 .1-.4.2-.6.3-.7zm27.2-.8c-.4.6-1.3.8-2 1.2.6-.5 1.3-.8 2-1.2zm-23.8.6c.2.7-.4 1.3-.6 1.9-.1-.6.4-1.3.6-1.9zm-1.3 3.2c.2 0-.3.8-.4 1-.2 0 .2-.7.4-1zM16 145c.1 0-.2.5-.2.6s0-.4.2-.6zm-1.7 5.7c-.2.2-.4.3-.6.3v-.6c.1.1.1.4.6.3zm38 2.7c.1.2-.3.5-.4.8-.3-.4.2-.6.4-.8zm-11 7c.1 0 0 .1 0 0-3 5.3-6.3 10.5-9.4 15.8-.4.7-.7 1.8-1.6 1.9 3-5.5 6.6-11 9.8-16.5-.5-.2-.7.5-.9.8-3 4.3-5.8 9.1-8.6 13.8-.4.7-.7 1.6-1.6 1.9 2.7-4.7 5.8-9.7 8.8-14.4.4-.7.8-1.4 1.2-2 .7-.7 1.8-.7 2.3-1.3zM34 164c-1.6 2.8-3.6 5.8-5.2 8.8-.2-.9.4-1.5.8-2.2 1-2 2.1-4.1 3.2-6.1.4-.1.8-.3 1.2-.5zm-2.2 1c-.8 1.8-2.1 3.7-3 5.6.7-1.9 1.6-3.8 2.7-5.5.2-.1.3-.1.3-.1zm12.6 4.2c-1.3 1.7-2.5 3.5-3.7 5.4-.4.6-.5 1.6-1.4 1.6 1.5-2.6 2.9-5.4 4.5-8.2.5-.7.8-1.5.8-2.4-2.3 3.4-4.3 7.1-6 10.8-1.8.6-3.8.9-5.8 1.3 3.7-5.2 6.9-11.3 10.5-16.8.7-.9 1.3-2 1.8-3-.5.3-1.6 1.3-2.4.9 1.4-.9 2.8-1.6 4.3-2.3-.2.2-.3.3-.1.5.7-.9 1.7-1.6 2.8-2-.3.6-.9 1-.5 2 .9-.9 1.1-2.4 2.3-3 0 2.4-2.3 2.7-2.2 5.3.8-1 1.4-2.1 2.1-3.2.7 3.3-2.1 3.6-2 6.5.7-1 1.4-2.1 2-3.2.8 3.4-2.1 3.8-2.2 6.6.8-1 1.5-2.1 2.2-3.3.1 1.2.1 2.3.1 3.5-1 1.8-2.4 3.3-3 5.5-.8.4-1.1 1.3-1.6 2-1.1.4-2.1.9-3.3 1.2l1.8-2.7c-.6-.8-1.2.8-1.6 1.3-.4.5-.7 1.1-1 1.7-.6.2-1.3.4-2 .6 1-1.8 2.3-3.8 3.5-5.5l.1-1.1zm1.3-10.1c.2-.4.8-.9.6-1.6-.3.5-.9.9-.6 1.6zm1.6 1.2c0-.5.3-1.3.1-1.7-.3.5-.3 1.1-.1 1.7zm-12.4 16.2c.9.2 1.2-.9 1.6-1.4 2.6-4.2 4.6-8.4 7.1-12.7.6-1 1.5-1.7 1.2-2.7-3.6 5.3-6.4 11.3-9.9 16.8zm10.9-13.9c.1-.6.2-1.1.2-1.7-.3.5-.3 1.1-.2 1.7zm-5 6.6c-1.2 2-2.6 3.9-3.7 5.9 1.1-.1 1.7-1.3 2.3-2.2 1.3-2 2.3-3.6 3.6-5.6.8-1.3 1.9-2.5 1.6-4.2-1.3 2.1-2.5 4.1-3.8 6.1zm7.2-1c.1-.3.5-.7.2-1.1-.1.4-.4.8-.2 1.1zm3.5 2.1c.1.5.1 1.1.1 1.6-.4.2-1 .3-1.4.5.2-.6.9-1.4 1.3-2.1zm-23.7 2.2c.2-.2-.4.8-.5 1.1-.3.1.3-.8.5-1.1zm-.1 1.6c.1.9-.7 1.4-1 2.1.3-.7.6-1.4 1-2.1zm19.3 9.3c.6.2 1.4 1 2.1 1.3-.9.1-1.4-.9-2.1-1.3zm-45.4 6.8c.7.8 1.6 1.5 2.3 2.3-1-.1-1.6-1.5-2.3-2.3zm47.1 8.2c.5-.3.6.4 1 .5 0 .3-.2.3-.2.5 0-.3-.4-.8-.8-1zm-21.6 0c.5.2 1 .5 1.3.9 1.1 1 2.3 2.2 3.4 3.4.2 0 .2.2 0 .1-1.5-1.5-3.4-3-4.7-4.4zm5.4.1c1.7 1.2 3.1 2.6 4.4 4.2-1.5-1.3-3-2.7-4.4-4.2zm-22.9 2.4c.3 0 .6.7.8 1.1-.4-.3-.5-.8-.8-1.1zm27.4 1.6c.2-.1.4.4.6.5-.3.2-.4-.4-.6-.5zm-25.6 1.2c.7.4 1.2 1.6 1.9 2.3-.8-.4-1.3-1.6-1.9-2.3zm48.5 4.4c-.2.5-.5.9-.9 1.3-.3.4-.8.9-1.2.7.6-.8 1.5-1.3 2.1-2zm-37.4 1.6c.1-.1.4.2.6.3-.2.3-.3-.2-.6-.3zM36.3 46.4c-.1.8-.9.8-1.7.9.2.3.8.1 1.1.2-1.4 2.6-2.8 5.2-4.1 7.9 0-1 .1-2 .2-3 .3-.8.6-1.5 1-2.2.4-.8.7-1.7 1-2.2.4-.9 1.4-1.5 2.5-1.6zm1 54.9c-.2.5-.3 1-.3 1.6 1.3-.4 1.3-2.2 2-3.3.3-.2.6-.2.9-.2.5-.7 1.3-1.2 2.2-1.3 1.4-1.2 3.4-2.4 5.1-3.6 1.5-.9 2.9-2 4.1-3.2.5-.5.8-1.1 1.5-1.4-.1 6.8-.2 13.7-.3 20.4-4 2.4-7.5 5.4-11.5 7.9-2.1 1.3-4.4 1.9-6.6 3s-4.2 2.4-6.4 3.4c-1.7 1.1-3.5 2.1-5.3 2.9 0-6.3.4-12.1.6-18.3.7-.3 1.3-.7 1.9-1.1-.1-.2-.5 0-.8-.1l3-1.5c-.1.6-.6 1.1-.4 1.7 1-.2.8-1.7 1.5-2.3.2 0 0 .4.1.6.4-.2 1-.2.8-.9 2.9-1.5 5.8-3.2 8.5-5-.2.4-.4 1.3-.6 1.4-.1-.4.1-.4 0-.7z"/></svg>