<svg width="1924" height="1731" viewBox="0 0 1924 1731" fill="none" xmlns="http://www.w3.org/2000/svg">
<g opacity="0.3">
<path opacity="0.5" d="M1686.38 310.109C1622.22 310.549 1557.92 310.109 1494 304.383C1462.14 302.094 1430.49 297.481 1399.31 290.582C1344.3 277.271 1289.98 260.534 1236.44 242.182C1174.58 220.894 1110.96 197.843 1054.14 164.614C1030.9 151.156 974.273 119.443 990.521 84.0118C1000.31 62.7235 1026.93 52.9846 1048.17 49.7547C1091.78 43.6863 1137.63 52.8868 1180.31 60.3744C1231.5 69.3302 1283.08 76.671 1334.32 84.8438C1369.6 90.3249 1404.93 95.5614 1440.42 99.5254C1474.67 103.098 1508.93 104.762 1543.43 108.383C1669.4 121.597 1796.2 144.109 1923 135.251V83.4246C1828.76 89.6394 1734.25 90.7177 1639.89 86.6545C1491.46 79.1669 1347.58 40.1627 1201.35 17.1125C1126.52 5.26936 1050.76 -2.46298 974.958 0.71804C899.993 4.67692 825.483 14.8255 752.189 31.0601C608.456 61.2553 466.191 104.468 318.934 114.256C212.345 121.352 106.05 113.571 0 103V149.932C46.2961 169.508 98.6116 172.053 148.236 169.948C205.837 167.55 262.85 158.79 319.913 151.058C379.569 143.032 439.323 136.866 498.882 128.008C565.145 118.22 632.142 108.432 699.531 109.949C830.785 112.935 952.398 171.319 1068.87 226.815C1186.32 282.752 1305.78 340.989 1436.35 357.335C1584.39 375.883 1733.61 366.291 1882.28 365.018C1895.99 365.018 1909.59 365.018 1923.2 365.312V311.43C1844.31 307.417 1765.07 309.571 1686.38 310.109Z" fill="#ACEBFF"/>
<path opacity="0.5" d="M1350.27 577.02C1375.33 558.619 1409.68 554.606 1439.73 551.915C1480.01 548.342 1520.53 548.783 1560.9 546.434C1683.25 539.435 1802.27 509.779 1923.05 491.965V453.939C1858.74 459.127 1794.63 466.957 1730.87 476.941C1668.96 486.728 1607.54 500.138 1545.24 506.744C1385.31 523.775 1225.33 505.521 1065.64 497.201C986.41 493.09 905.759 489.812 826.723 498.425C753.705 507.058 681.796 523.33 612.175 546.972C544.737 569.141 478.817 595.519 412.407 620.38C347.025 644.85 281.153 669.319 212.345 682.435C142.326 695.355 71.2493 701.68 0.0488281 701.325L0.0488281 766.56L7.14495 767.001C44.5342 769.301 81.8745 772.873 119.313 774.635C144.516 775.81 169.034 776.201 193.602 770.084C225.02 762.303 255.95 752.564 287.222 744.146C322.8 734.359 359.308 724.571 396.208 721.586C414.756 720.117 438.638 718.747 447.202 738.714C461.101 771.161 428.997 804.977 407.366 824.846C363.321 865.319 310.614 896.346 258.494 924.877C194.287 960.064 127.975 991.336 60.8308 1020.36C40.668 1028.87 20.3584 1037.34 0.0488281 1045.51V1129.64C98.6604 1119.36 189.148 1068.86 267.597 1010.52C356.323 944.6 434.772 866.053 511.557 786.821C544.933 752.564 578.016 717.426 612.322 683.756C652.925 642.801 700.892 609.876 753.706 586.71C807.076 564.285 863.605 550.285 921.272 545.21C978.139 539.827 1039.85 537.429 1095.59 552.16C1197.87 579.125 1271.77 657.916 1343.27 730.982C1379.44 767.931 1415.85 805.222 1458.52 834.732C1499.45 862.652 1543.14 886.3 1588.89 905.302C1691.17 947.992 1799.27 975.08 1909.59 985.659L1922.85 986.883V913.866C1909.05 912.838 1895.2 911.908 1881.3 911.272C1832.85 909.07 1784.21 907.455 1736.15 900.408C1622.47 883.566 1515.56 835.904 1427.05 762.596C1390.4 731.765 1353.01 693.641 1335.83 647.933C1326.29 622.485 1326.58 594.394 1350.27 577.02Z" fill="#ACEBFF"/>
<path opacity="0.5" d="M1475.31 1108.74C1419.52 1089.95 1369.31 1063.32 1318.7 1033.47C1266.35 1001.78 1211.73 973.969 1155.3 950.275C1044.65 905.153 924.404 882.446 804.798 891.548C613.447 905.887 455.767 1024.61 301.903 1127.73C226.146 1178.48 148.382 1228.2 63.2288 1261.87C42.5585 1270.04 21.4688 1277.12 0.0488281 1283.06L0.0488281 1365.42C28.1397 1354.36 55.888 1342.37 83.8809 1331.8C145.622 1309.1 204.699 1279.73 260.06 1244.2C364.104 1176.03 448.915 1070.81 571.654 1034.06C634.002 1015.36 699.188 1019.38 762.221 1032.98C830.099 1047.66 895.677 1072.13 959.249 1099.49C1022.82 1126.85 1077.83 1166.63 1135.82 1202.65C1196.36 1240.29 1259.63 1271.75 1329.96 1286.09C1477.71 1316.19 1631.13 1295.24 1778.09 1270.92C1826.44 1262.9 1874.7 1254.14 1923 1246.06V1122.93C1776.82 1160.91 1617.87 1156.75 1475.31 1108.74ZM1462.58 1221.05C1456.42 1228.81 1447.53 1233.92 1437.72 1235.34C1418.27 1238.98 1398.39 1239.79 1378.7 1237.74C1323.79 1233.58 1271.04 1214.54 1221.76 1190.91C1167.92 1165.07 1116.88 1133.75 1066.23 1102.08C1044.45 1088.48 1022.92 1073.01 999.868 1061.66C981.907 1052.85 963.8 1044.09 946.622 1033.81C923.328 1019.91 879.723 993.537 892.349 960.112C905.905 924.24 957.095 927.714 987.095 932.951C994.387 934.223 1001.78 935.789 1008.87 937.502C1021.87 938.21 1034.77 940.177 1047.39 943.375C1094.91 955.022 1139.88 976.31 1183.24 998.48C1221.27 1018.06 1259.05 1037.63 1296.78 1057.6C1322.49 1071.45 1347.15 1087.15 1370.58 1104.58C1396.96 1123.76 1423.63 1144.32 1444.82 1169.28C1455.1 1181.31 1473.79 1204.22 1462.58 1221.05V1221.05Z" fill="#ACEBFF"/>
<path opacity="0.5" d="M1652.86 1430.12C1693.77 1426.45 1733.95 1440.64 1773.93 1446.57C1807.65 1451.46 1840.73 1456.99 1874.8 1459.78C1890.5 1461.05 1907.24 1458.85 1923.05 1460.76V1440.35C1866.38 1435.85 1809.76 1430.56 1753.13 1425.91C1623.74 1415.29 1491.65 1405.95 1362.21 1420.68C1224.3 1436.34 1086.2 1457.92 947.063 1456.3C877.82 1455.82 808.769 1448.96 740.786 1435.8C679.808 1423.66 620.103 1407.56 560.006 1391.75C497.854 1375.6 434.429 1360.34 370.026 1357.5C338.785 1355.7 307.443 1357.87 276.749 1363.96C247.485 1370.87 218.99 1380.71 191.693 1393.32C128.317 1421.71 65.9204 1455.77 0.0488281 1474.51V1507.69L19.9669 1502.21C145.348 1467.95 281.251 1436.63 407.073 1485.91C517.283 1529.03 625.388 1585.94 743.967 1602.19C879.381 1620.79 1013.47 1579.04 1144.29 1549.19C1210.35 1534.12 1276.91 1520.17 1344.35 1512.98C1415.68 1505.86 1487.57 1506.39 1558.8 1514.54C1680.36 1527.41 1800.7 1551.93 1923.05 1556.43V1536.86C1888.25 1534.07 1853.51 1528.78 1819.25 1524.43C1778.53 1519.24 1739.48 1516.01 1699.79 1504.85C1674.73 1497.85 1639.89 1489.73 1622.42 1468.69C1605.73 1448.57 1635.73 1431.69 1652.86 1430.12ZM963.751 1551.64C927.634 1564.17 888.777 1569.26 850.849 1572.49C808.297 1576.42 765.418 1575.01 723.217 1568.28C673.006 1559.86 618.194 1546.21 577.869 1513.47C565.047 1503.09 548.897 1488.56 547.135 1470.99C546.292 1463.67 548.228 1456.3 552.561 1450.35C556.894 1444.39 563.307 1440.28 570.528 1438.83C590.104 1435.31 610.854 1439.96 629.94 1444.31C657.688 1450.68 685.926 1454.1 714.017 1458.41C747.246 1463.55 780.378 1468.88 813.607 1474.02C820.361 1473.63 827.114 1473.29 833.868 1473.09C874.242 1471.87 915.791 1471.18 955.725 1478.42C972.217 1481.41 1002.95 1486.84 1007.8 1506.86C1013.77 1531.52 981.858 1545.32 963.751 1551.64Z" fill="#ACEBFF"/>
</g>
</svg>
