<svg width="211" height="73" viewBox="0 0 211 73" fill="none" xmlns="http://www.w3.org/2000/svg">
<path d="M72.8204 36.5002C72.8136 44.8897 69.918 53.0191 64.6238 59.5128C59.3295 66.0065 51.9618 70.4656 43.7673 72.1355C41.3974 72.61 38.9865 72.8489 36.5698 72.8486C34.0383 72.8509 31.5134 72.5875 29.0365 72.0625L28.4768 71.9389C21.8222 70.4124 15.7321 67.0323 10.9071 62.1873C6.0821 57.3423 2.71819 51.2292 1.20228 44.5512C-0.31363 37.8732 0.0800273 30.9014 2.33798 24.4379C4.59593 17.9744 8.62646 12.2816 13.966 8.01437C19.3055 3.74712 25.7371 1.07872 32.521 0.316102C39.305 -0.446516 46.1657 0.72762 52.3141 3.70346C58.4624 6.6793 63.6487 11.336 67.2764 17.1379C70.904 22.9397 72.8257 29.6512 72.8204 36.5002Z" fill="#5D98C9"/>
<path d="M65.5158 34.591C65.5011 33.6685 65.265 32.7632 64.8274 31.9518C64.3255 31.1301 63.6584 30.4224 62.8685 29.8741C61.8093 29.1397 60.5516 28.7478 59.2642 28.751C58.1448 28.751 55.7606 28.9082 54.949 28.9138C51.6627 28.9793 48.4059 28.2797 45.4344 26.8698C45.2745 24.7595 44.7361 22.6955 43.8449 20.7771C43.3022 19.7301 42.4949 18.8445 41.5038 18.2089C40.5128 17.5733 39.3727 17.2099 38.1977 17.1552C37.6813 16.3926 36.9768 15.7772 36.153 15.3688C35.3291 14.9605 34.4139 14.7731 33.4964 14.8248C31.5327 14.9432 29.6098 15.4388 27.8324 16.2848C29.2082 15.7379 30.6734 15.4523 32.1532 15.4425C29.9733 16.0363 27.971 17.1556 26.3206 18.7028C24.6701 20.2501 23.4215 22.1786 22.6834 24.3205C24.1564 21.9557 26.1639 19.9724 28.5432 18.531C26.6475 20.0582 25.1728 22.0468 24.2598 24.3076C23.3467 26.5683 23.0256 29.0259 23.327 31.4464C23.327 29.8011 23.702 27.7795 24.6758 26.4599C23.7554 30.252 24.2636 34.2516 26.103 37.6907C25.9407 36.5676 25.2579 35.0121 25.3698 33.7599C25.4818 35.7478 27.4463 37.5784 28.6496 38.2971L27.1832 36.051C26.5938 35.6969 26.1674 35.1238 25.9967 34.4562C25.8264 33.72 25.7923 32.9587 25.8959 32.2101C25.9799 30.0425 25.8959 28.313 26.0135 26.1455C26.0467 25.0742 26.2684 24.0172 26.6683 23.0233C27.3455 21.3387 28.7055 20.2661 30.4238 19.2666C29.6271 19.8368 28.8783 20.4716 28.185 21.1646C27.4606 21.882 26.9159 22.7614 26.5955 23.7308C26.075 25.4155 26.3213 27.0158 26.2373 28.7847C26.1814 30.0201 26.0638 31.4801 26.0359 32.7155C26.0079 33.9508 26.2038 35.2424 27.1552 36.0229C32.1756 40.6051 36.3284 43.8283 38.0578 49.3707C38.4664 50.6566 37.8004 51.7516 37.3638 51.7797C36.577 50.6595 35.3868 49.8903 34.0449 49.6346C32.6083 49.547 31.1663 49.6223 29.7465 49.8592C26.8082 50.286 24.312 50.7071 21.6032 51.9538C19.2624 53.006 17.1657 54.536 15.4467 56.4461C14.5792 57.4288 13.3031 57.9005 12.1725 58.4957C11.1337 59.129 9.99977 59.5898 8.81445 59.8602C13.8858 65.9337 20.7957 70.179 28.4929 71.9501C29.0525 71.7817 29.6122 71.6076 30.2335 71.3886C31.4159 70.9337 32.5321 70.3218 33.5524 69.5692C35.4252 68.1939 36.9416 66.3876 37.9739 64.302C38.52 63.1504 38.8682 61.9144 39.0037 60.6464C39.0988 60.0287 39.166 59.4054 39.2108 58.7821C39.2108 58.4845 39.166 57.3221 39.4458 57.3221C39.7257 57.3221 39.6025 58.6529 39.5913 59.192C39.5135 61.2999 38.9381 63.3592 37.9123 65.2005C36.52 67.7948 34.3318 69.8701 31.6719 71.1191C30.815 71.5098 29.9254 71.8236 29.0134 72.0568C31.4903 72.5818 34.0151 72.8453 36.5467 72.843C38.9634 72.8433 41.3742 72.6044 43.7442 72.1298C46.7217 69.0133 49.9007 63.28 50.2869 62.0221C51.3111 58.3609 51.1656 55.7498 49.8671 52.1784C49.0276 49.8648 47.4381 46.2822 46.6321 44.1765C47.8526 44.9787 49.2586 45.4518 50.7144 45.5502C52.1702 45.6485 53.6267 45.3688 54.9434 44.738C56.5495 43.9647 57.9069 42.7545 58.8612 41.2452C59.9407 39.6905 60.7664 37.9732 61.307 36.1577C57.8034 34.9448 53.6673 34.6078 49.8111 34.153C48.0146 33.9396 46.162 33.9733 44.3542 33.8834C41.3823 33.7431 38.1418 34.445 36.5747 33.642C36.3687 33.4938 36.1953 33.3047 36.0653 33.0863C35.9353 32.868 35.8515 32.6251 35.8191 32.3729C36.0262 32.5133 36.1661 32.8446 36.3788 33.0131C36.6272 33.1962 36.9084 33.3297 37.2071 33.4061C37.8124 33.5316 38.4328 33.5675 39.0485 33.5128C45.8255 33.2774 52.6077 33.7991 59.2698 35.0683C60.0085 35.2143 61.1895 35.4838 61.8107 36.0398C62.7006 36.2082 63.792 36.5115 64.0998 37.1291C64.6091 38.1511 65.1016 38.0781 65.2584 37.3931C65.4404 36.4705 65.5267 35.5314 65.5158 34.591ZM41.7014 26.0275C39.4346 26.5048 38.3097 28.6668 36.0765 29.2788C34.567 29.605 33.0376 29.8301 31.4984 29.9527C30.6756 30.0594 32.6177 29.6888 33.1046 29.6045C35.3434 29.2283 36.8545 28.8745 38.6231 27.4595C39.409 26.7809 40.3093 26.2485 41.2816 25.8871C41.9929 25.7096 42.7415 25.7566 43.4252 26.0219C43.9213 26.1461 44.3827 26.3823 44.774 26.7126C43.6546 26.4431 42.8431 25.7917 41.7014 26.0275Z" fill="black"/>
<path d="M101.896 25.2358C101.316 25.6806 100.657 26.0103 99.9538 26.2073C99.3633 26.377 98.7543 26.4732 98.1404 26.4937C97.6792 26.5119 97.2173 26.478 96.7636 26.3926C96.5387 26.3578 96.3188 26.2956 96.1088 26.2073H96.0808L96.0137 26.241V26.2747V26.8699C96.0137 27.2012 96.0137 27.5943 96.0137 28.0548C96.0137 28.5152 95.9857 29.0038 95.9633 29.5204C95.9409 30.037 95.9073 30.5255 95.8625 30.9692C95.6194 31.2332 95.3213 31.4402 94.9894 31.5756C94.6345 31.7243 94.2547 31.8044 93.8701 31.8115C93.4571 31.8202 93.0453 31.7633 92.65 31.643C92.2301 31.5136 91.8374 31.308 91.4914 31.0365C91.1094 30.7372 90.7835 30.3721 90.5288 29.9584C90.233 29.4602 90.0301 28.9122 89.9299 28.3412C89.8666 27.8981 89.8274 27.452 89.8124 27.0047C89.7788 26.3645 89.7508 25.6177 89.734 24.7585C89.7172 23.8994 89.734 23.0178 89.734 22.0688C89.734 21.1198 89.734 20.2045 89.7844 19.3285C89.8348 18.4525 89.8572 17.6438 89.9131 16.9644C89.9424 16.4425 90.0154 15.9241 90.1314 15.4145C90.4549 15.1341 90.8266 14.9153 91.2284 14.7688C91.8182 14.5414 92.4269 14.3667 93.0473 14.2465C93.7865 14.1007 94.5343 14.0031 95.2861 13.9545C96.0852 13.8928 96.8879 13.8928 97.6871 13.9545C98.4627 14.0184 99.2309 14.1537 99.9818 14.3588C100.672 14.535 101.328 14.8294 101.918 15.2292C102.38 15.5446 102.774 15.9493 103.077 16.4197C103.406 16.9248 103.661 17.4752 103.832 18.0538C104.02 18.668 104.127 19.3042 104.151 19.9462C104.18 20.6067 104.118 21.268 103.967 21.9115C103.817 22.5541 103.57 23.1696 103.234 23.7365C102.894 24.3223 102.439 24.8325 101.896 25.2358ZM98.5658 20.474C98.5598 20.2927 98.4972 20.1179 98.3867 19.9742C98.2562 19.8005 98.0852 19.6616 97.8886 19.5699C97.6703 19.4665 97.4301 19.4183 97.189 19.4295C96.9005 19.4425 96.6206 19.5316 96.3774 19.6879V20.62C96.3774 20.8821 96.3774 21.1572 96.3774 21.4455C96.3845 21.4949 96.4082 21.5405 96.4446 21.5746C96.4582 21.5942 96.4756 21.6108 96.4958 21.6234C96.516 21.6359 96.5386 21.6442 96.5621 21.6476H97.189C97.3997 21.6471 97.6098 21.6246 97.8158 21.5802C98.3251 21.5016 98.5658 21.1366 98.5658 20.474Z" fill="black"/>
<path d="M105.053 27.2971C105.053 26.9209 105.014 26.4042 105.003 25.7585C104.992 25.1127 105.003 24.3883 105.003 23.6022C105.003 22.816 105.003 21.9905 105.003 21.1202C105.003 20.2498 105.042 19.4355 105.07 18.5989C105.098 17.7622 105.132 17.0209 105.171 16.3078C105.21 15.5946 105.26 15.0106 105.316 14.5389C105.781 14.494 106.335 14.4603 106.968 14.4322C107.6 14.4042 108.288 14.3873 109.016 14.3761C109.744 14.3649 110.499 14.3761 111.255 14.3761C112.01 14.3761 112.794 14.3761 113.533 14.3761C114.271 14.3761 114.96 14.421 115.62 14.4491L117.355 14.5502C117.484 14.7598 117.576 14.9894 117.629 15.2296C117.717 15.563 117.761 15.9067 117.758 16.2516C117.756 16.6421 117.706 17.0307 117.607 17.4084C117.509 17.8025 117.33 18.1717 117.081 18.4922C116.803 18.8361 116.449 19.1094 116.046 19.2895C115.515 19.5151 114.942 19.6205 114.366 19.5984H110.924V20.4688C111.165 20.4688 111.484 20.4688 111.943 20.4688C112.402 20.4688 112.839 20.4688 113.331 20.4688C113.824 20.4688 114.311 20.4688 114.797 20.5418C115.228 20.5748 115.654 20.6539 116.068 20.7776C116.299 21.2806 116.442 21.8203 116.488 22.3724C116.529 22.8327 116.447 23.2957 116.253 23.7145C116.057 24.1092 115.749 24.4373 115.368 24.6579C114.902 24.9166 114.379 25.0573 113.846 25.0678H113.253H111.932H110.941V26.0954H116.689C116.999 26.5406 117.207 27.0486 117.299 27.5835C117.396 28.1108 117.356 28.6543 117.182 29.1614C116.994 29.6835 116.664 30.1425 116.23 30.4866C115.682 30.897 115.031 31.1459 114.35 31.2054C114.115 31.2391 113.79 31.2672 113.432 31.2896C113.074 31.3121 112.637 31.3289 112.195 31.3402C111.753 31.3514 111.283 31.3402 110.807 31.3402H109.425C108.988 31.3402 108.591 31.3177 108.232 31.2728C107.952 31.2502 107.674 31.2108 107.398 31.1549C107.044 31.0812 106.707 30.9376 106.408 30.7322C106.11 30.5269 105.854 30.264 105.658 29.9588C105.246 29.1331 105.039 28.2201 105.053 27.2971Z" fill="black"/>
<path d="M118.451 26.111C118.563 25.5495 118.709 24.9262 118.876 24.2467C119.044 23.5673 119.246 22.8654 119.436 22.1522C119.626 21.439 119.873 20.7203 120.108 19.9959C120.343 19.2715 120.578 18.592 120.819 17.9407C121.059 17.2893 121.283 16.7053 121.501 16.1662C121.72 15.6271 121.916 15.1891 122.095 14.841C122.475 14.7174 122.917 14.5939 123.432 14.4704C123.969 14.3471 124.513 14.2608 125.061 14.212C125.647 14.1533 126.238 14.1533 126.824 14.212C127.422 14.2768 128.006 14.438 128.553 14.6894C129.127 14.955 129.645 15.3265 130.081 15.7844C130.593 16.3294 130.996 16.968 131.268 17.6655C131.413 18.0305 131.581 18.491 131.777 19.0469C131.973 19.6028 132.174 20.2149 132.382 20.8831C132.589 21.5514 132.796 22.2589 133.008 22.9945C133.221 23.7301 133.423 24.4714 133.618 25.207C133.814 25.9426 133.988 26.667 134.178 27.3633C134.368 28.0596 134.475 28.7054 134.57 29.3006C134.507 29.6417 134.339 29.9541 134.089 30.1934C133.788 30.507 133.433 30.7637 133.042 30.9515C132.605 31.1648 132.136 31.3033 131.654 31.3614C131.158 31.4275 130.654 31.3854 130.176 31.2379C129.671 31.0678 129.217 30.7723 128.856 30.3787C128.408 29.8815 128.084 29.285 127.91 28.638C127.378 28.638 126.83 28.638 126.264 28.638C125.699 28.638 125.145 28.638 124.619 28.638C124.473 28.9974 124.339 29.3792 124.21 29.761C124.081 30.1429 123.958 30.5921 123.835 31.0245C122.991 31.3808 122.071 31.5198 121.16 31.4288C120.471 31.3478 119.828 31.042 119.33 30.5584C118.844 30.0414 118.524 29.3899 118.412 28.6885C118.262 27.8346 118.275 26.9599 118.451 26.111ZM125.268 23.8256H127.328C127.171 23.1461 127.009 22.4723 126.841 21.8097C126.673 21.147 126.511 20.4732 126.354 19.805C126.306 19.813 126.256 19.813 126.208 19.805C126.052 20.4751 125.895 21.1377 125.738 21.7928C125.581 22.461 125.425 23.1349 125.268 23.8256Z" fill="black"/>
<path d="M144.706 19.7046C144.469 19.6411 144.228 19.596 143.984 19.5699C143.77 19.5474 143.555 19.5474 143.341 19.5699C143.126 19.595 142.916 19.6459 142.714 19.7215C142.486 19.8103 142.268 19.9232 142.065 20.0584C141.784 20.2287 141.537 20.4495 141.337 20.7098C141.155 20.9512 141.013 21.2204 140.917 21.5072C140.824 21.8 140.771 22.1041 140.76 22.4113C140.75 22.7341 140.766 23.0572 140.811 23.3771C140.861 23.8186 141.01 24.2429 141.247 24.6181C141.455 24.9411 141.737 25.2089 142.07 25.3986C142.418 25.5862 142.798 25.7081 143.189 25.758C143.601 25.8196 144.02 25.8196 144.432 25.758C144.736 25.7176 145.033 25.6383 145.316 25.5222C145.617 25.4043 145.91 25.2693 146.195 25.1179C146.469 24.9775 146.71 24.8371 146.928 24.7023C147.146 24.5676 147.309 24.4665 147.404 24.3991C147.8 24.4794 148.172 24.6526 148.49 24.9045C148.818 25.1543 149.09 25.4698 149.29 25.831C149.501 26.2114 149.638 26.6288 149.693 27.0608C149.754 27.5231 149.702 27.9932 149.542 28.431C149.354 28.928 149.066 29.3809 148.697 29.7618C148.215 30.2415 147.644 30.6229 147.018 30.8849C146.535 31.1114 146.022 31.2665 145.495 31.3453C144.918 31.4418 144.334 31.4925 143.749 31.497C143.155 31.5034 142.56 31.4734 141.969 31.4071C141.428 31.3482 140.891 31.2526 140.363 31.1207C139.029 30.8148 137.802 30.1511 136.815 29.2003C135.865 28.213 135.181 26.9994 134.828 25.6738C134.554 24.7052 134.409 23.7044 134.397 22.6976C134.387 21.6853 134.55 20.6789 134.878 19.7215C135.215 18.6683 135.789 17.7074 136.557 16.9138C137.343 16.1316 138.25 15.483 139.244 14.9933C139.948 14.6569 140.691 14.4062 141.454 14.2465C142.237 14.072 143.038 14.0022 143.839 14.0387C144.701 14.091 145.554 14.2475 146.38 14.5048C147.311 14.8123 148.206 15.2209 149.049 15.7233C149.27 16.4078 149.27 17.1446 149.049 17.8291C148.851 18.3931 148.498 18.8894 148.031 19.261C147.569 19.6223 147.021 19.8548 146.441 19.9349C145.853 20.0216 145.252 19.9419 144.706 19.7046Z" fill="black"/>
<path d="M150.555 27.2971C150.555 26.9209 150.516 26.4042 150.505 25.7585C150.494 25.1127 150.505 24.3883 150.505 23.6022C150.505 22.816 150.505 21.9905 150.505 21.1202C150.505 20.2498 150.544 19.4355 150.572 18.5989C150.6 17.7622 150.634 17.0209 150.673 16.3078C150.712 15.5946 150.757 15.0106 150.813 14.5389C151.283 14.494 151.837 14.4603 152.492 14.4322C153.147 14.4042 153.807 14.3873 154.54 14.3761C155.273 14.3649 156.023 14.3761 156.779 14.3761C157.535 14.3761 158.318 14.3761 159.051 14.3761C159.784 14.3761 160.484 14.421 161.145 14.4491L162.88 14.5502C163.006 14.761 163.098 14.9902 163.154 15.2296C163.242 15.563 163.285 15.9067 163.282 16.2516C163.281 16.6421 163.23 17.0307 163.131 17.4084C163.033 17.8025 162.854 18.1717 162.605 18.4922C162.328 18.8361 161.973 19.1094 161.57 19.2895C161.04 19.5151 160.466 19.6205 159.891 19.5984H156.449V20.4688C156.689 20.4688 157.008 20.4688 157.467 20.4688C157.926 20.4688 158.363 20.4688 158.85 20.4688C159.337 20.4688 159.835 20.4688 160.322 20.5418C160.752 20.5755 161.178 20.6545 161.592 20.7776C161.824 21.2806 161.966 21.8203 162.012 22.3724C162.053 22.8327 161.972 23.2957 161.777 23.7145C161.581 24.1092 161.273 24.4373 160.893 24.6579C160.426 24.916 159.903 25.0567 159.37 25.0678H158.777H157.456H156.466V26.0954H162.213C162.534 26.5267 162.758 27.023 162.868 27.5498C162.962 28.0773 162.922 28.6201 162.751 29.1277C162.563 29.6498 162.233 30.1089 161.799 30.4529C161.251 30.8633 160.6 31.1122 159.919 31.1717C159.684 31.2054 159.376 31.2335 158.995 31.2559C158.62 31.2559 158.206 31.2952 157.758 31.3065C157.311 31.3177 156.852 31.3065 156.376 31.3065H154.994C154.557 31.3065 154.16 31.284 153.801 31.2391C153.521 31.2169 153.243 31.1775 152.968 31.1212C152.613 31.0475 152.276 30.9039 151.978 30.6986C151.679 30.4932 151.424 30.2303 151.227 29.9251C150.795 29.1164 150.564 28.2147 150.555 27.2971Z" fill="black"/>
<path d="M164.49 28.0769C164.445 27.6838 164.411 27.1447 164.389 26.4597C164.389 25.769 164.35 25.0053 164.344 24.1686C164.339 23.3319 164.344 22.4503 164.344 21.5294C164.344 20.6084 164.389 19.71 164.423 18.8452C164.456 17.9804 164.495 17.1606 164.54 16.4306C164.585 15.7006 164.635 15.0829 164.686 14.6112C165.145 14.5663 165.693 14.5326 166.365 14.5045C167.036 14.4764 167.686 14.4596 168.419 14.4484C169.152 14.4371 169.902 14.4484 170.658 14.4484C171.413 14.4484 172.191 14.4484 172.93 14.482C173.669 14.5157 174.374 14.5214 175.034 14.555L176.764 14.6561C176.89 14.8669 176.982 15.0962 177.038 15.3356C177.126 15.669 177.169 16.0127 177.167 16.3576C177.163 16.7368 177.112 17.114 177.015 17.4807C176.916 17.8709 176.737 18.2362 176.489 18.5532C176.212 18.8972 175.857 19.1704 175.454 19.3506C174.924 19.5761 174.35 19.6816 173.775 19.6594H170.333V21.6529C170.574 21.6529 170.893 21.6529 171.352 21.6529C171.81 21.6529 172.247 21.6529 172.74 21.6529C173.232 21.6529 173.719 21.681 174.206 21.7259C174.636 21.7596 175.062 21.8386 175.476 21.9617C175.715 22.4937 175.857 23.0642 175.896 23.6464C175.936 24.1723 175.855 24.7005 175.661 25.1906C175.472 25.6753 175.141 26.0911 174.711 26.3828C174.281 26.6746 173.773 26.8287 173.254 26.8247H172.661H172.068H171.34H170.35V27.8747C170.35 28.133 170.35 28.4363 170.35 28.7114C170.35 28.9866 170.35 29.273 170.35 29.565C170.35 29.857 170.35 30.0928 170.35 30.3174C170.35 30.542 170.35 30.7217 170.35 30.834C170.075 31.0225 169.771 31.1612 169.449 31.244C169.074 31.3415 168.688 31.3869 168.301 31.3787C167.882 31.3702 167.466 31.304 167.064 31.1822C166.651 31.0617 166.261 30.8718 165.911 30.6207C165.548 30.3479 165.242 30.0064 165.01 29.6155C164.725 29.1479 164.547 28.6222 164.49 28.0769Z" fill="black"/>
<path d="M194.82 25.4719C194.728 26.4568 194.403 27.4056 193.874 28.2402C193.384 28.9897 192.755 29.6379 192.021 30.1495C191.284 30.6579 190.467 31.0376 189.604 31.2725C188.748 31.5072 187.866 31.6281 186.979 31.6319C186.419 31.6319 185.815 31.6319 185.216 31.5533C184.63 31.5035 184.05 31.4039 183.481 31.2557C182.93 31.1022 182.398 30.8856 181.897 30.6099C181.377 30.3325 180.91 29.9635 180.52 29.5205C180.088 29.0278 179.735 28.4709 179.473 27.8696C179.156 27.1266 178.947 26.3418 178.852 25.5392C178.741 24.7275 178.675 23.9101 178.656 23.0909C178.656 22.2205 178.656 21.3277 178.656 20.4068C178.656 19.4859 178.757 18.5705 178.847 17.6496C178.936 16.7287 179.042 15.8302 179.166 14.9599C179.36 14.7842 179.591 14.6555 179.843 14.5836C180.214 14.4576 180.599 14.3765 180.99 14.3422C181.443 14.3026 181.898 14.3026 182.35 14.3422C182.805 14.37 183.253 14.4704 183.677 14.6398C184.081 14.801 184.444 15.0504 184.74 15.3698C185.053 15.7113 185.249 16.1441 185.3 16.6052C185.321 16.8723 185.324 17.1405 185.311 17.4082C185.311 17.8012 185.311 18.2617 185.311 18.7895C185.311 19.3174 185.311 19.9126 185.311 20.5191C185.311 21.1255 185.311 21.7601 185.344 22.3778C185.378 22.9955 185.389 23.5907 185.428 24.1466C185.468 24.7025 185.524 25.1855 185.591 25.5898C185.638 25.9258 185.803 26.2342 186.055 26.4602C186.278 26.6625 186.562 26.7833 186.861 26.8027C187.161 26.8147 187.454 26.7146 187.684 26.5219C187.974 26.2637 188.161 25.9085 188.21 25.5224C188.277 25.1855 188.339 24.7643 188.395 24.2477C188.451 23.7311 188.495 23.1752 188.529 22.5631C188.563 21.951 188.585 21.3165 188.596 20.6539C188.607 19.9912 188.596 19.3342 188.596 18.6997C188.596 18.0652 188.546 17.4587 188.501 16.8859C188.465 16.387 188.403 15.8903 188.316 15.3979C188.578 15.1489 188.889 14.9576 189.229 14.8363C190.098 14.4863 191.045 14.3758 191.971 14.5162C192.453 14.5839 192.917 14.7461 193.337 14.9935C193.766 15.2489 194.129 15.603 194.395 16.0268C194.7 16.5387 194.88 17.116 194.921 17.7114C194.954 18.0876 194.988 18.4414 195.021 18.7559C195.055 19.0703 195.077 19.396 195.105 19.7105C195.133 20.0249 195.139 20.3675 195.144 20.7212C195.15 21.075 195.144 21.4737 195.116 21.9173C195.089 22.3609 195.061 22.8775 195.01 23.4615C194.96 24.0455 194.909 24.7082 194.82 25.4719Z" fill="black"/>
<path d="M207.166 31.1212C206.565 31.1661 205.961 31.1886 205.353 31.1886C204.745 31.1886 204.185 31.1886 203.674 31.1886C203.086 31.1886 202.515 31.1605 201.995 31.138C201.513 31.1358 201.033 31.1001 200.556 31.0313C200.031 30.9589 199.522 30.7975 199.051 30.554C198.552 30.2897 198.118 29.9176 197.78 29.4646C197.376 28.8813 197.124 28.2056 197.047 27.4992C196.991 27.1118 196.935 26.6289 196.885 26.0617C196.834 25.4946 196.795 24.8656 196.762 24.1806C196.728 23.4955 196.711 22.7767 196.706 22.0186C196.7 21.2606 196.706 20.4912 196.706 19.7107C196.706 18.9302 196.767 18.1665 196.829 17.3972C196.89 16.6279 196.98 15.9035 197.092 15.2128C197.368 14.9685 197.687 14.7781 198.032 14.6512C198.41 14.5052 198.809 14.4181 199.213 14.3929C199.63 14.367 200.049 14.4029 200.455 14.4996C200.877 14.5982 201.271 14.79 201.608 15.0612C201.983 15.3704 202.291 15.7524 202.515 16.1842C202.785 16.7231 202.952 17.3078 203.008 17.9082C203.052 18.3967 203.086 18.9695 203.114 19.5928C203.142 20.2161 203.159 20.9068 203.176 21.5862C203.192 22.2657 203.176 22.9396 203.176 23.6022C203.176 24.2648 203.176 24.8544 203.142 25.3766C203.517 25.3429 203.981 25.3261 204.524 25.3205C205.067 25.3149 205.644 25.3205 206.282 25.3205C206.92 25.3205 207.541 25.3598 208.196 25.4047C208.851 25.4496 209.466 25.5058 210.06 25.5732C210.27 25.9729 210.41 26.406 210.474 26.8535C210.53 27.2706 210.513 27.6945 210.423 28.1057C210.333 28.5002 210.184 28.8787 209.981 29.2288C209.782 29.5777 209.531 29.894 209.237 30.1666C208.952 30.4358 208.625 30.6559 208.269 30.8179C207.924 30.9889 207.55 31.0918 207.166 31.1212Z" fill="black"/>
<path d="M101.896 51.6284C101.316 52.0732 100.657 52.4029 99.9538 52.5999C99.3633 52.7696 98.7543 52.8658 98.1404 52.8863C97.6792 52.9045 97.2173 52.8706 96.7636 52.7852C96.5387 52.7504 96.3188 52.6881 96.1088 52.5999H96.0808L96.0137 52.6336V52.6673V53.2625C96.0137 53.5938 96.0137 53.9869 96.0137 54.4474C96.0137 54.9078 95.9857 55.3964 95.9633 55.913C95.9409 56.4296 95.9073 56.9181 95.8625 57.3617C95.6194 57.6257 95.3213 57.8328 94.9894 57.9682C94.6345 58.1169 94.2547 58.1969 93.8701 58.204C93.4571 58.2128 93.0453 58.1559 92.65 58.0356C92.2301 57.9062 91.8374 57.7006 91.4914 57.4291C91.1094 57.1298 90.7835 56.7647 90.5288 56.351C90.233 55.8528 90.0301 55.3048 89.9299 54.7337C89.8666 54.2907 89.8274 53.8446 89.8124 53.3973C89.7788 52.7571 89.7508 52.0103 89.734 51.1511C89.7172 50.292 89.734 49.4104 89.734 48.4614C89.734 47.5124 89.734 46.597 89.7844 45.721C89.8348 44.845 89.8572 44.0364 89.9131 43.357C89.9424 42.8351 90.0154 42.3167 90.1314 41.8071C90.4549 41.5267 90.8266 41.3079 91.2284 41.1614C91.8182 40.934 92.4269 40.7593 93.0473 40.6391C93.7865 40.4932 94.5343 40.3957 95.2861 40.3471C96.0852 40.2853 96.8879 40.2853 97.6871 40.3471C98.4627 40.411 99.2309 40.5463 99.9818 40.7514C100.672 40.9276 101.328 41.222 101.918 41.6218C102.38 41.9372 102.774 42.3419 103.077 42.8123C103.406 43.3173 103.661 43.8678 103.832 44.4464C104.02 45.0606 104.127 45.6967 104.151 46.3387C104.18 46.9993 104.118 47.6606 103.967 48.3041C103.817 48.9466 103.57 49.5622 103.234 50.1291C102.894 50.7149 102.439 51.2251 101.896 51.6284ZM98.5658 46.8666C98.5598 46.6853 98.4972 46.5104 98.3867 46.3668C98.2562 46.1931 98.0852 46.0542 97.8886 45.9625C97.6703 45.8591 97.4301 45.8109 97.189 45.8221C96.9005 45.835 96.6206 45.9241 96.3774 46.0804V47.0126C96.3774 47.2746 96.3774 47.5498 96.3774 47.838C96.3845 47.8875 96.4082 47.9331 96.4446 47.9672C96.4582 47.9868 96.4756 48.0034 96.4958 48.0159C96.516 48.0285 96.5386 48.0368 96.5621 48.0402H97.189C97.3997 48.0397 97.6098 48.0171 97.8158 47.9728C98.3251 47.8942 98.5658 47.5292 98.5658 46.8666Z" fill="black"/>
<path d="M105.053 53.6897C105.053 53.3134 105.014 52.7968 105.003 52.151C104.992 51.5053 105.003 50.7809 105.003 49.9947C105.003 49.2086 105.003 48.3831 105.003 47.5127C105.003 46.6424 105.042 45.8281 105.07 44.9914C105.098 44.1547 105.132 43.4135 105.171 42.7004C105.21 41.9872 105.26 41.4032 105.316 40.9315C105.781 40.8866 106.335 40.8529 106.968 40.8248C107.6 40.7967 108.288 40.7799 109.016 40.7687C109.744 40.7574 110.499 40.7687 111.255 40.7687C112.01 40.7687 112.794 40.7687 113.533 40.7687C114.271 40.7687 114.96 40.8136 115.62 40.8417L117.355 40.9427C117.484 41.1524 117.576 41.382 117.629 41.6222C117.717 41.9556 117.761 42.2993 117.758 42.6442C117.756 43.0346 117.706 43.4233 117.607 43.801C117.509 44.1951 117.33 44.5643 117.081 44.8847C116.803 45.2287 116.449 45.5019 116.046 45.6821C115.515 45.9076 114.942 46.0131 114.366 45.991H110.924V46.8614C111.165 46.8614 111.484 46.8614 111.943 46.8614C112.402 46.8614 112.839 46.8614 113.331 46.8614C113.824 46.8614 114.311 46.8614 114.797 46.9344C115.228 46.9674 115.654 47.0464 116.068 47.1702C116.299 47.6732 116.442 48.2129 116.488 48.765C116.529 49.2253 116.447 49.6883 116.253 50.107C116.057 50.5018 115.749 50.8299 115.368 51.0504C114.902 51.3092 114.379 51.4499 113.846 51.4604H113.253H111.932H110.941V52.488H116.689C116.999 52.9332 117.207 53.4412 117.299 53.976C117.396 54.5034 117.356 55.0469 117.182 55.554C116.994 56.0761 116.664 56.5351 116.23 56.8792C115.682 57.2896 115.031 57.5385 114.35 57.598C114.115 57.6317 113.79 57.6597 113.432 57.6822C113.074 57.7047 112.637 57.7215 112.195 57.7327C111.753 57.744 111.283 57.7327 110.807 57.7327H109.425C108.988 57.7327 108.591 57.7103 108.232 57.6653C107.952 57.6428 107.674 57.6034 107.398 57.5474C107.044 57.4738 106.707 57.3302 106.408 57.1248C106.11 56.9195 105.854 56.6566 105.658 56.3513C105.246 55.5257 105.039 54.6127 105.053 53.6897Z" fill="black"/>
<path d="M129.348 57.5136C128.744 57.5586 128.139 57.581 127.535 57.581C126.925 57.581 126.376 57.581 125.856 57.581C125.263 57.581 124.697 57.5529 124.149 57.5305C123.669 57.528 123.191 57.4924 122.716 57.4238C122.191 57.3523 121.682 57.1908 121.211 56.9465C120.712 56.6821 120.278 56.3101 119.94 55.8571C119.533 55.275 119.281 54.5986 119.207 53.8917C119.151 53.5042 119.095 53.0213 119.045 52.4542C118.994 51.887 118.955 51.2581 118.921 50.573C118.888 49.8879 118.866 49.1692 118.86 48.4111C118.854 47.653 118.86 46.8837 118.86 46.1032C118.86 45.3226 118.921 44.5589 118.983 43.7896C119.045 43.0203 119.134 42.2959 119.246 41.6052C119.522 41.361 119.841 41.1705 120.186 41.0437C120.565 40.8977 120.963 40.8106 121.367 40.7854C121.784 40.7597 122.203 40.7956 122.61 40.8921C123.031 40.9906 123.425 41.1825 123.763 41.4536C124.137 41.7616 124.444 42.144 124.664 42.5767C124.939 43.1136 125.106 43.6992 125.156 44.3006C125.201 44.7892 125.24 45.3619 125.268 45.9852C125.296 46.6086 125.313 47.2992 125.324 47.9787C125.335 48.6582 125.324 49.332 125.324 49.9946C125.324 50.6572 125.324 51.2469 125.291 51.7691C125.671 51.7354 126.136 51.7186 126.679 51.7129C127.222 51.7073 127.798 51.7129 128.436 51.7129C129.074 51.7129 129.695 51.7522 130.35 51.7972C131.005 51.8421 131.621 51.8982 132.208 51.9656C132.423 52.364 132.565 52.7975 132.628 53.2459C132.685 53.6631 132.668 54.087 132.578 54.4982C132.487 54.8926 132.338 55.2712 132.136 55.6212C131.937 55.9702 131.686 56.2865 131.391 56.559C131.106 56.8271 130.779 57.0471 130.423 57.2104C130.087 57.3779 129.722 57.4808 129.348 57.5136Z" fill="black"/>
<path d="M139.405 44.0869C139.45 44.4182 139.489 44.9067 139.523 45.5412C139.556 46.1758 139.579 46.9002 139.584 47.7088C139.59 48.5174 139.584 49.3597 139.584 50.2525C139.584 51.1454 139.551 52.0214 139.517 52.8693C139.483 53.7172 139.444 54.509 139.399 55.2334C139.355 55.9578 139.299 56.5586 139.237 57.0303C138.992 57.2811 138.694 57.4731 138.364 57.5918C138.016 57.7273 137.646 57.7958 137.273 57.794C136.869 57.7912 136.468 57.723 136.086 57.5918C135.675 57.4513 135.295 57.232 134.967 56.9461C134.596 56.6272 134.282 56.2475 134.038 55.823C133.75 55.3221 133.551 54.7749 133.45 54.2058C133.405 53.9587 133.366 53.5207 133.327 52.8805C133.288 52.2404 133.254 51.5104 133.226 50.6793C133.198 49.8482 133.181 48.961 133.176 48.0176C133.17 47.0742 133.176 46.1758 133.204 45.311C133.232 44.4462 133.26 43.6657 133.31 42.975C133.336 42.4498 133.405 41.9276 133.517 41.4139C133.796 41.1742 134.114 40.9842 134.457 40.8524C134.827 40.7091 135.215 40.6221 135.61 40.5941C136.021 40.5672 136.433 40.607 136.83 40.712C137.237 40.8218 137.618 41.0128 137.95 41.2735C138.326 41.5707 138.638 41.9413 138.868 42.3629C139.157 42.8971 139.339 43.4827 139.405 44.0869Z" fill="black"/>
<path d="M150.621 46.0975C150.385 46.0339 150.143 45.9889 149.899 45.9627C149.685 45.9402 149.47 45.9402 149.256 45.9627C149.042 45.9878 148.831 46.0387 148.629 46.1143C148.401 46.2031 148.184 46.3161 147.98 46.4513C147.699 46.6215 147.453 46.8424 147.252 47.1026C147.07 47.344 146.929 47.6133 146.832 47.9C146.739 48.1928 146.687 48.497 146.676 48.8041C146.665 49.1269 146.682 49.45 146.726 49.7699C146.776 50.2114 146.925 50.6357 147.163 51.0109C147.372 51.3343 147.656 51.6021 147.991 51.7915C148.338 51.9805 148.718 52.1024 149.11 52.1509C149.522 52.2125 149.941 52.2125 150.353 52.1509C150.656 52.1104 150.954 52.0312 151.237 51.915C151.537 51.7971 151.831 51.6621 152.116 51.5107C152.39 51.3703 152.636 51.2299 152.849 51.0952C153.062 50.9604 153.23 50.8593 153.325 50.7919C153.721 50.8723 154.093 51.0454 154.41 51.2973C154.744 51.5492 155.02 51.8687 155.222 52.2351C155.433 52.6155 155.57 53.0329 155.625 53.4649C155.686 53.9271 155.634 54.3973 155.474 54.835C155.286 55.332 154.998 55.785 154.629 56.1659C154.147 56.6455 153.576 57.0269 152.95 57.2889C152.467 57.5154 151.954 57.6705 151.427 57.7494C150.85 57.8459 150.266 57.8966 149.681 57.901C149.087 57.9075 148.492 57.8775 147.901 57.8112C147.36 57.7523 146.823 57.6566 146.295 57.5248C144.949 57.2229 143.711 56.5546 142.719 55.5931C141.765 54.6076 141.079 53.3936 140.726 52.0666C140.452 51.0981 140.307 50.0973 140.295 49.0905C140.286 48.0782 140.449 47.0717 140.777 46.1143C141.113 45.0611 141.688 44.1002 142.456 43.3066C143.241 42.5244 144.149 41.8758 145.142 41.3862C145.847 41.0498 146.589 40.799 147.353 40.6393C148.137 40.4762 148.938 40.4176 149.737 40.4653C150.6 40.5175 151.453 40.674 152.278 40.9313C153.214 41.227 154.115 41.6243 154.965 42.1162C155.185 42.8007 155.185 43.5374 154.965 44.2219C154.752 44.7798 154.388 45.2663 153.912 45.6258C153.451 45.9871 152.903 46.2196 152.323 46.2996C151.748 46.3889 151.16 46.319 150.621 46.0975Z" fill="black"/>
<path d="M156.386 52.5036C156.498 51.942 156.638 51.3187 156.812 50.6393C156.985 49.9598 157.176 49.2579 157.371 48.5447C157.567 47.8316 157.808 47.1128 158.037 46.3884C158.267 45.664 158.508 44.9846 158.748 44.3332C158.989 43.6818 159.218 43.0978 159.437 42.5587C159.655 42.0196 159.851 41.5816 160.03 41.2335C160.405 41.11 160.853 40.9864 161.362 40.8629C161.9 40.7392 162.446 40.6529 162.996 40.6046C163.582 40.5459 164.173 40.5459 164.759 40.6046C165.357 40.6708 165.941 40.8319 166.489 41.0819C167.062 41.3592 167.58 41.7399 168.017 42.205C168.525 42.7529 168.927 43.3907 169.203 44.0861C169.343 44.4511 169.517 44.9116 169.712 45.4675C169.908 46.0234 170.104 46.6355 170.311 47.3037C170.518 47.972 170.725 48.6795 170.938 49.4151C171.151 50.1507 171.352 50.892 171.548 51.6276C171.744 52.3632 171.923 53.0876 172.108 53.7839C172.293 54.4802 172.399 55.126 172.5 55.7212C172.433 56.0621 172.263 56.3739 172.013 56.614C171.714 56.9275 171.361 57.1843 170.972 57.3721C170.535 57.5839 170.066 57.7224 169.584 57.782C169.088 57.8487 168.584 57.8065 168.106 57.6585C167.599 57.4911 167.144 57.1952 166.785 56.7993C166.334 56.2958 166.013 55.6882 165.851 55.0305C165.291 55.0305 164.765 55.0305 164.205 55.0305C163.646 55.0305 163.086 55.0305 162.554 55.0305C162.414 55.3899 162.274 55.7717 162.146 56.1536C162.017 56.5354 161.894 56.9846 161.771 57.417C160.926 57.7738 160.007 57.9128 159.095 57.8213C158.407 57.7404 157.764 57.4345 157.265 56.951C156.782 56.4323 156.462 55.7816 156.347 55.081C156.198 54.2271 156.211 53.3525 156.386 52.5036ZM163.203 50.2181H165.257C165.101 49.5386 164.938 48.8648 164.776 48.2022C164.614 47.5396 164.446 46.8657 164.289 46.1975C164.239 46.205 164.188 46.205 164.138 46.1975C163.981 46.8639 163.825 47.5265 163.668 48.1853C163.517 48.8536 163.36 49.5274 163.203 50.2181Z" fill="black"/>
<path d="M183.621 48.1404V41.8736C183.932 41.4807 184.326 41.1623 184.774 40.9415C185.595 40.5379 186.54 40.4695 187.41 40.7506C187.817 40.8784 188.196 41.0801 188.53 41.3458C188.867 41.6074 189.143 41.9387 189.341 42.3173C189.55 42.7112 189.656 43.1516 189.649 43.5976C189.649 43.9457 189.649 44.4286 189.649 45.0463C189.649 45.664 189.649 46.3716 189.649 47.1633C189.649 47.9551 189.649 48.7862 189.649 49.6678C189.649 50.5494 189.649 51.4198 189.649 52.2846C189.649 53.1493 189.649 53.9692 189.604 54.7385C189.56 55.5078 189.548 56.1816 189.504 56.7432C189.099 57.1287 188.61 57.4151 188.076 57.5799C187.466 57.7838 186.821 57.864 186.179 57.8157C185.481 57.7633 184.8 57.5725 184.175 57.2542C183.488 56.8825 182.899 56.351 182.457 55.7043C182.222 55.3786 181.981 55.008 181.73 54.5813C181.478 54.1545 181.243 53.7558 181.013 53.3571L180.403 52.2677C180.224 51.942 180.084 51.7006 179.983 51.5433C179.964 51.4908 179.933 51.443 179.894 51.4029C179.853 51.3608 179.817 51.3136 179.788 51.2626H179.726H179.67C179.67 51.7623 179.67 52.2228 179.72 52.6327C179.771 53.0426 179.76 53.4638 179.776 53.8849C179.793 54.3061 179.81 54.7441 179.821 55.1989C179.832 55.6538 179.821 56.1873 179.821 56.7937C179.408 57.1455 178.934 57.4177 178.422 57.5967C177.979 57.7482 177.513 57.8241 177.045 57.8213C176.207 57.8191 175.394 57.5276 174.745 56.9959C174.461 56.759 174.22 56.4739 174.034 56.1536C173.863 55.8574 173.767 55.5239 173.754 55.1821C173.754 54.4914 173.709 53.7221 173.693 52.8854C173.676 52.0487 173.665 51.2008 173.653 50.2967C173.642 49.3926 173.653 48.5222 173.653 47.6406C173.653 46.759 173.653 45.956 173.653 45.1643C173.653 44.3725 173.653 43.7155 173.698 43.1203C173.743 42.525 173.749 42.0533 173.782 41.722C174.223 41.3627 174.726 41.0868 175.265 40.9078C175.852 40.7009 176.474 40.6094 177.095 40.6383C177.735 40.6683 178.361 40.841 178.926 41.1436C179.55 41.4813 180.066 41.9895 180.414 42.6092L181.192 43.9401C181.422 44.3388 181.646 44.7319 181.858 45.1249L182.536 46.3379L183.341 47.7754C183.373 47.8414 183.408 47.9051 183.448 47.9663L183.554 48.1404H183.588C183.599 48.1443 183.61 48.1443 183.621 48.1404Z" fill="black"/>
<path d="M202.169 48.1235C202.814 48.5073 203.375 49.0171 203.82 49.6228C204.196 50.1528 204.464 50.752 204.609 51.386C204.743 51.9854 204.76 52.6052 204.659 53.211C204.567 53.8104 204.378 54.3907 204.1 54.9294C203.827 55.461 203.468 55.9431 203.036 56.3557C202.627 56.7597 202.142 57.0784 201.609 57.2934C201.177 57.4593 200.734 57.5925 200.283 57.6921C199.729 57.8103 199.168 57.8928 198.604 57.9392C197.974 57.9902 197.343 58.0014 196.712 57.9729C196.055 57.9458 195.402 57.865 194.759 57.7314C194.113 57.5989 193.483 57.3994 192.878 57.1362C192.272 56.8809 191.707 56.5385 191.199 56.1198C190.934 55.7945 190.754 55.4088 190.673 54.9967C190.588 54.611 190.579 54.2125 190.645 53.8231C190.713 53.4484 190.852 53.0901 191.054 52.7674C191.254 52.4542 191.519 52.1879 191.831 51.9869C192.153 51.7922 192.519 51.6839 192.895 51.6724C193.339 51.6655 193.778 51.7718 194.171 51.9813C194.72 52.2553 195.293 52.4771 195.884 52.6439C196.369 52.7844 196.868 52.8691 197.372 52.8966C197.753 52.9266 198.135 52.871 198.492 52.7337C198.618 52.6892 198.733 52.6151 198.825 52.5174C198.918 52.4198 198.986 52.3014 199.023 52.1722C199.073 52.0276 199.08 51.8716 199.043 51.7231C199.007 51.5746 198.928 51.44 198.816 51.3355C198.44 51.0595 197.983 50.9173 197.518 50.9312C196.828 50.8843 196.144 50.7715 195.475 50.5943C194.807 50.424 194.167 50.1553 193.578 49.7969C193 49.4499 192.494 48.9942 192.089 48.4548C191.476 47.6382 191.176 46.6278 191.244 45.6078C191.266 45.2524 191.326 44.9003 191.423 44.5577C191.531 44.1682 191.681 43.7916 191.871 43.4347C192.086 43.0243 192.357 42.6463 192.677 42.3116C193.038 41.9339 193.451 41.6088 193.902 41.3457C194.443 41.0308 195.025 40.7945 195.632 40.6438C196.213 40.4922 196.807 40.3963 197.406 40.3574C198.021 40.3319 198.636 40.3563 199.247 40.4304C199.831 40.482 200.408 40.5891 200.971 40.7505C201.445 40.8674 201.898 41.0568 202.314 41.312C202.75 41.5816 203.13 41.9323 203.434 42.3453C203.669 42.6695 203.831 43.0412 203.909 43.4347C203.975 43.787 203.962 44.1495 203.87 44.496C203.779 44.8348 203.627 45.1544 203.422 45.4394C203.225 45.716 202.981 45.9555 202.701 46.1469C202.424 46.3393 202.115 46.4801 201.788 46.5624C201.558 46.2912 201.279 46.0664 200.965 45.8998C200.61 45.6988 200.235 45.5351 199.846 45.4113C199.469 45.286 199.081 45.1977 198.688 45.1474C198.316 45.0982 197.94 45.0982 197.568 45.1474C197.282 45.1778 197.005 45.2697 196.757 45.4169C196.657 45.4723 196.575 45.5539 196.519 45.6529C196.463 45.7519 196.435 45.8645 196.438 45.9784C196.438 46.0675 196.46 46.1552 196.5 46.2343C196.541 46.3134 196.6 46.3816 196.673 46.4333C196.94 46.5803 197.236 46.6648 197.54 46.6804C198.106 46.7502 198.667 46.8552 199.219 46.9948C199.723 47.124 200.165 47.2531 200.557 47.3879C200.893 47.5017 201.222 47.6368 201.542 47.7922C201.805 47.9214 202.046 48.0337 202.169 48.1235Z" fill="black"/>
</svg>
