<svg width="19" height="16" viewBox="0 0 19 16" fill="none" xmlns="http://www.w3.org/2000/svg">
  <path
    d="M6.57705 6.09049L4.52924 5.22517C4.49268 5.19189 4.41954 5.22517 4.38297 5.29174L2.26203 10.2506C2.22546 10.3172 2.2986 10.3838 2.37173 10.3838H6.54048C6.61362 10.3838 6.65019 10.3505 6.65019 10.284V6.15705C6.65019 6.12377 6.61362 6.09049 6.57705 6.09049ZM18.6811 11.116C18.6079 11.0494 18.4982 11.0494 18.3885 11.0827L18.1326 11.1825C16.8892 11.7483 15.4997 12.0146 14.1101 12.0146C14.0369 12.0146 14.0003 12.0478 14.0003 12.0811C13.8541 12.6802 13.3055 13.1128 12.6107 13.1128H9.75847V10.9496H9.79503C9.97788 10.9829 10.1242 10.9829 10.307 11.0161C11.5137 11.1825 12.0988 11.6818 12.3548 11.9147L12.3914 11.948C12.4279 11.9813 12.501 11.9813 12.5377 11.948C12.5742 11.9147 12.6107 11.8814 12.6839 11.8482C13.1228 11.5819 14.1466 11.0161 14.1466 8.0208C14.1466 4.95892 11.5869 2.89547 11.2943 2.76235L9.79503 2.6625H9.75847V1.7972C10.051 1.63079 10.2704 1.33126 10.2704 0.965158C10.2704 0.432658 9.8316 0 9.24651 0C8.66143 0 8.22261 0.432658 8.22261 0.965158C8.22261 1.29798 8.40545 1.59751 8.73456 1.76392V2.4961L6.57705 2.29641C6.46735 2.29641 6.39421 2.39625 6.46735 2.46281C6.83303 2.99532 7.82036 4.65939 7.8935 7.15548C7.96663 9.48518 7.56439 10.5834 7.38155 10.9829C7.34498 11.0161 7.34498 11.0494 7.38155 11.0827C7.41811 11.116 7.45468 11.116 7.49125 11.116C7.74723 11.0827 8.18604 11.0161 8.73456 10.9829V13.1462H6.35764C5.58971 13.1462 4.93149 12.5471 4.93149 11.8482V11.3157C4.93149 11.2491 4.89493 11.2158 4.82178 11.2158H0.397057C0.360489 11.2158 0.287354 11.2491 0.287354 11.3157C0.287354 11.4155 0.287354 11.5153 0.287354 11.6152C0.287354 13.1128 0.762738 14.4774 1.56723 15.6755C1.71351 15.8752 1.96948 15.9751 2.18889 15.8752L2.66428 15.6755C3.02995 15.5091 3.46877 15.5091 3.87102 15.6755L4.38297 15.8752C4.74865 16.0416 5.18746 16.0416 5.58971 15.8752L6.10167 15.6755C6.50391 15.5091 6.90616 15.5091 7.30841 15.6755L7.82036 15.8752C8.22261 16.0416 8.62486 16.0416 9.02711 15.8752L9.53906 15.6755C9.94131 15.5091 10.3436 15.5091 10.7458 15.6755L11.2578 15.8752C11.66 16.0416 12.0623 16.0416 12.4645 15.8752L12.9764 15.6755C13.3787 15.5091 13.7809 15.5091 14.1832 15.6755L14.6952 15.8752C15.0243 16.0083 15.39 15.8419 15.5728 15.5424C15.8653 15.1097 16.1213 14.6105 16.3041 14.1446C16.7064 13.0463 17.4377 12.0146 18.5714 11.5153C18.6811 11.4821 18.7177 11.3822 18.7177 11.2824C18.7907 11.2491 18.7542 11.1493 18.6811 11.116Z"
    fill="#18063C" />
</svg>