<svg width="30" height="30" fill="none" xmlns="http://www.w3.org/2000/svg"><g clip-path="url(#clip0)" fill="#fff"><path d="M29.363 11.243H1.853a.626.626 0 00-.626.625v15.006A3.13 3.13 0 004.354 30h22.508a3.13 3.13 0 003.126-3.126V11.868a.625.625 0 00-.625-.625zm-.625 15.63a1.878 1.878 0 01-1.876 1.877H4.354a1.878 1.878 0 01-1.876-1.876v-14.38h26.26v14.38z"/><path d="M29.968 5.457L28.904 1.42A1.888 1.888 0 0026.662.046L1.47 6.024a1.861 1.861 0 00-1.18.846 1.854 1.854 0 00-.22 1.438l1.177 4.657a.623.623 0 00.76.453.624.624 0 00.452-.76l-.069-.27 27.111-6.16a.63.63 0 00.467-.77zM2.084 11.174l-.803-3.17a.628.628 0 01.473-.764l25.192-5.976a.632.632 0 01.747.465l.9 3.42-26.509 6.025z"/><path d="M7.135 11.308a.63.63 0 00-.84.28L3.792 16.59a.626.626 0 001.12.559l2.502-5.002a.626.626 0 00-.28-.839zm6.251 0a.629.629 0 00-.84.28l-2.5 5.002a.626.626 0 001.119.559l2.5-5.002a.627.627 0 00-.28-.839zm6.252 0a.63.63 0 00-.84.28l-2.5 5.002a.626.626 0 001.12.559l2.5-5.002a.626.626 0 00-.28-.839zm6.252 0a.629.629 0 00-.839.28l-2.5 5.002a.626.626 0 001.119.559l2.5-5.002a.626.626 0 00-.28-.839z"/><path d="M29.363 16.245H1.853a.625.625 0 000 1.25h27.51a.625.625 0 100-1.25zM7.899 10.151L3.592 5.845a.626.626 0 00-.884.884l4.306 4.308a.628.628 0 00.885-.002.626.626 0 000-.884zm6.117-1.389l-4.31-4.307a.626.626 0 00-.885.885l4.31 4.306a.628.628 0 00.885 0 .626.626 0 000-.884zm6.112-1.389l-4.303-4.308a.626.626 0 00-.884.884l4.303 4.308a.628.628 0 00.884 0 .626.626 0 000-.884zm6.11-1.388l-4.304-4.308a.626.626 0 00-.884.884l4.304 4.308a.628.628 0 00.884 0 .626.626 0 000-.884z"/></g><defs><clipPath id="clip0"><path fill="#fff" d="M0 0h30v30H0z"/></clipPath></defs></svg>