<svg width="525" height="372" viewBox="0 0 525 372" fill="none" xmlns="http://www.w3.org/2000/svg">
<mask id="path-1-outside-1_75_1742" maskUnits="userSpaceOnUse" x="0" y="0" width="525" height="372" fill="black">
<rect fill="white" width="525" height="372"/>
<path fill-rule="evenodd" clip-rule="evenodd" d="M61.5344 8.45065C59.3052 10.6792 54.6341 19.6149 51.9297 26.8244C50.5355 30.5411 49.3409 31.8843 45.9556 33.5355C39.033 36.9129 29.6482 44.5357 24.0875 51.2984C18.2693 58.3722 9.78027 74.7534 7.20761 83.8663C5.25203 90.7993 5.72724 98.4353 8.22999 100.264C11.7855 102.863 13.8191 100.754 19.921 88.1422C27.8558 71.7397 32.2067 64.7531 38.4301 58.4188C41.2905 55.5075 43.769 53.2637 43.9372 53.4318C44.1064 53.6 41.7627 64.1878 38.73 76.9587C35.6974 89.7306 30.6645 113.399 27.5457 129.557C24.4279 145.714 20.0719 168.076 17.8671 179.25C13.0257 203.788 12.8241 208.705 16.482 213.051C18.7294 215.721 19.7902 216.168 23.8919 216.168C27.797 216.168 29.173 215.652 31.3616 213.368C35.3387 209.218 36.7116 204.3 42.3008 174.18C45.0974 159.109 47.6021 145.752 47.8666 144.498C48.2932 142.477 48.965 142.219 53.7881 142.219C60.1158 142.219 74.4859 138.29 82.0579 134.488C96.5921 127.192 107.94 116.144 114.176 103.219C119.085 93.0441 121.15 85.3372 121.938 74.255C124.097 43.864 102.139 21.3866 73.2396 24.4064L67.2573 25.0314L67.9271 19.9877C69.2412 10.0836 65.9117 4.0745 61.5344 8.45065ZM90.3596 41.8016C95.7693 44.2713 100.476 49.2785 103.791 56.0879C106.171 60.9756 106.504 62.8416 106.411 70.8027C106.236 85.7799 100.699 99.9051 91.3343 109.267C86.3197 114.281 76.8062 120.375 70.0468 122.903C64.258 125.068 51.6744 127.687 50.879 126.892C50.3693 126.382 56.1895 91.0748 61.7948 60.6727C64.868 44.0008 65.3676 42.3314 67.6251 41.1877C71.4927 39.2276 85.5547 39.6074 90.3596 41.8016ZM464.533 67.2167C461.957 69.2417 459.482 76.3641 458.182 85.4912C457.825 87.9983 455.957 97.7454 454.03 107.151C447.481 139.119 440.44 179.866 440.44 185.793C440.44 190.671 440.897 192.244 443.063 194.817C447.328 199.885 453.578 198.663 456.263 192.237C458.003 188.074 461.266 172.56 462.204 163.999C462.569 160.656 464.881 147.436 467.34 134.622C473.007 105.092 475.175 88.3681 474.733 77.604C474.426 70.1199 474.098 68.8729 471.992 67.1681C468.978 64.7288 467.686 64.7369 464.533 67.2167ZM365.603 77.5483C357.393 81.6104 353.232 89.8602 348.054 112.336C346.385 119.579 344.829 125.697 344.595 125.932C344.361 126.167 340.522 125.801 336.064 125.12C326.705 123.687 323.325 124.636 321.075 129.329C318.151 135.429 321.895 138.666 333.897 140.415C340.564 141.387 342.065 141.921 341.671 143.185C341.402 144.047 340.286 149.082 339.189 154.375C338.093 159.668 335.804 170.088 334.102 177.529C330.332 194.015 330.27 196.276 333.496 199.499C336.732 202.736 339.631 202.644 343.043 199.2C345.444 196.775 346.419 193.591 350.565 174.635C353.185 162.656 355.805 150.545 356.385 147.722L357.442 142.587L365.843 143.027C374.034 143.458 374.3 143.399 376.439 140.681C381.545 134.19 377.619 128.633 367.131 127.509C360.951 126.848 360.452 126.617 360.902 124.628C361.172 123.439 362.285 118.363 363.376 113.349C367.431 94.7084 370.834 86.5042 374.511 86.5042C377.808 86.5042 378.846 88.9901 378.086 95.0691C377.263 101.657 378.403 103.725 382.857 103.725C386.568 103.725 390.341 99.8524 391.226 95.1349C392.503 88.3336 385.83 78.3566 378.676 76.3701C373.308 74.879 370.482 75.1333 365.603 77.5483ZM396.107 103.978C391.83 109.338 388.778 121.202 384.172 150.384C380.482 173.757 379.906 182.427 381.798 186.098C387.224 196.63 397.211 195.886 408.729 184.091L414.396 178.288L413.679 185.564C413 192.454 413.098 192.976 415.509 195.387C418.75 198.628 423.135 198.722 426.055 195.613C427.979 193.566 428.613 190.019 431.445 165.476C435.357 131.572 435.869 112.141 432.937 108.899C430.407 106.101 428.868 106.206 426.398 109.343C423.907 112.511 421.955 120.885 419.093 140.7C416.709 157.202 414.23 163.83 407.258 172.342C403.598 176.808 397.215 181.396 396.146 180.327C395.807 179.988 396.038 175.719 396.661 170.841C404.709 107.773 404.428 110.816 402.621 106.511C400.972 102.58 398.111 101.468 396.107 103.978ZM126.229 118.47C123.665 119.259 119.334 121.136 116.603 122.639C109.809 126.378 96.2395 140.3 91.5967 148.297C84.5506 160.431 81.1399 176.142 83.7663 184.365C85.193 188.829 89.8965 194.277 94.4126 196.696C98.4636 198.866 109.729 198.769 118.224 196.49C127.315 194.053 141.027 187.187 145.724 182.72C149.007 179.599 149.635 178.342 149.635 174.9C149.635 172.095 149.128 170.605 148.032 170.185C144.175 168.705 139.958 169.74 133.669 173.711C121.981 181.091 106.161 185.89 100.817 183.677C97.6226 182.354 95.744 177.855 96.6002 173.577C97.0957 171.099 97.9043 170.415 101.378 169.54C112.244 166.8 122.287 161.436 132.84 152.734C147.778 140.415 151.587 125.892 141.632 119.207C137.687 116.557 133.148 116.34 126.229 118.47ZM180.927 122.345C171.197 125.821 165.397 131.633 159.638 143.68C151.992 159.671 149.527 177.431 153.68 186.581C156.242 192.224 162.755 195.455 169.657 194.509C175.284 193.738 183.427 189.385 186.851 185.318L189.448 182.232L188.721 188.061C188.025 193.624 188.131 194.03 191.028 196.925C194.594 200.492 197.016 200.732 200.643 197.879C203.791 195.404 204.904 191.656 206.842 177.018C207.641 170.971 209.284 161.922 210.491 156.908C211.699 151.893 212.922 143.155 213.208 137.49C213.718 127.411 213.672 127.133 211.073 124.535C208.821 122.284 208.09 122.056 206.263 123.033C205.079 123.667 203.882 125.053 203.605 126.111C203.016 128.366 201.754 128.625 200.995 126.647C200.18 124.527 191.987 120.941 188.072 120.991C186.158 121.015 182.943 121.625 180.927 122.345ZM249.238 123.941C244.557 125.068 236.28 130.659 232.117 135.503C227.15 141.285 219.741 156.688 218.431 163.956C216.238 176.124 219.583 186.881 227.966 194.605C235.298 201.363 242.354 202.538 250.679 198.391C257.016 195.234 261.353 189.876 261.496 185.026C261.659 179.514 259.161 178.566 253.234 181.891C246.041 185.925 241.911 186.415 238.398 183.653C234.505 180.59 232.722 175.893 232.722 168.696C232.722 157.679 239.444 140.472 244.837 137.684C250.82 134.59 254.001 136.234 254.001 142.422C254.001 146.187 256.679 150.323 259.118 150.323C261.51 150.323 265.843 147.267 266.975 144.78C272.173 133.375 261.608 120.961 249.238 123.941ZM286.762 127.514C274.122 133.903 265.052 150.739 264.96 167.987C264.914 176.431 266.517 181.608 270.682 186.472C281.328 198.907 303.659 196.797 319.095 181.896C330.04 171.332 323.85 161.92 312.257 171.499C301.399 180.468 291.243 183.579 284.459 180.013C282.541 179.005 280.834 177.725 280.663 177.167C280.493 176.61 282.401 175.313 284.904 174.283C300.036 168.062 315.144 152.902 315.849 143.232C316.374 136.03 315.767 133.99 311.839 129.781C307.909 125.568 307.792 125.524 299.934 125.198C293.005 124.91 291.333 125.204 286.762 127.514ZM194.018 131.479C195.525 132.257 197.532 133.751 198.48 134.799C200.115 136.605 200.006 137.151 196.379 145.336C188.979 162.034 177.661 176.651 170.735 178.454L167.367 179.331L167.052 173.691C166.359 161.301 173.626 139.824 180.211 134.803C186.374 130.105 189.774 129.285 194.018 131.479ZM131.396 132.138C131.396 135.22 103.82 158.515 102.135 156.856C101.924 156.648 103.222 154.187 105.019 151.387C109.3 144.716 118.463 136.416 124.81 133.458C130.511 130.801 131.396 130.623 131.396 132.138ZM303.448 136.344C307.669 140.564 300.549 150.681 283.751 164.327C280.887 166.654 278.233 168.557 277.852 168.557C276.729 168.557 278.454 157.36 280.49 151.432C282.72 144.94 286.47 139.74 290.849 137.072C294.407 134.902 301.59 134.487 303.448 136.344ZM146.718 215.324C127.564 218.364 107.904 230.841 97.4179 246.61C86.4261 263.14 82.9 282.868 89.5976 290.37C92.7924 293.948 94.594 292.623 95.1705 286.271C96.2324 274.565 104.68 257.932 114.607 248.002C122.065 240.542 139.136 230.658 141.126 232.648C141.404 232.927 140.473 237.196 139.058 242.135C135.728 253.747 130.042 279.222 126.198 299.74C124.53 308.655 121.596 324.201 119.68 334.288C115.375 356.958 115.35 358.309 119.159 362.118C124.136 367.092 131.112 365.438 133.928 358.615C134.645 356.877 137.417 343.375 140.087 328.611C142.757 313.846 144.983 301.679 145.033 301.573C145.084 301.466 148.381 301.884 152.361 302.5C174.758 305.965 193.901 289.558 197.674 263.663C199.159 253.469 194.416 237.873 187.189 229.193C178.46 218.705 161.666 212.951 146.718 215.324ZM168.967 233.829C173.932 237.113 178.674 243.544 180.148 248.993C181.902 255.478 180.785 266.469 177.768 272.391C174.623 278.567 165.364 287.536 159.515 290.072C155.054 292.008 146.595 293.768 146.595 292.76C146.595 292.444 148.4 281.577 150.606 268.612C152.812 255.646 154.924 242.075 155.299 238.454C155.674 234.832 156.208 231.475 156.486 230.994C157.391 229.425 164.884 231.126 168.967 233.829ZM252.805 232.123C249.732 235.73 249.237 237.712 241.375 277.961C235.829 306.351 227.653 351.804 227.655 354.234C227.657 356.888 232.226 361.027 235.153 361.027C236.54 361.027 238.823 360.001 240.225 358.747C242.539 356.679 243.199 354.03 247.36 330.13C254.441 289.446 262.107 241.819 262.107 238.501C262.107 233.542 260.121 230.35 257.034 230.35C255.539 230.35 253.635 231.147 252.805 232.123ZM282.386 252.735C275.512 254.206 271.247 262.192 274.296 267.887C275.974 271.022 281.181 273.187 285.615 272.592C290.881 271.886 294.394 269.418 296.165 265.182C297.463 262.075 297.445 261.288 296.002 258.248C295.106 256.362 293.612 254.508 292.68 254.128C288.47 252.413 285.664 252.034 282.386 252.735ZM492.452 264.641C485.643 266.994 480.46 271.021 476.785 276.812C472.838 283.035 471.525 288.35 472.111 295.734C472.953 306.337 477.602 312.309 490.75 319.676C499.652 324.663 502.837 328.69 501.76 333.592C500.912 337.454 494.09 345.188 490.06 346.857C487.25 348.02 486.634 347.928 484.198 345.975C477.504 340.611 477.099 340.446 473.905 341.769C465.763 345.14 471.155 357.098 482.152 360.059C500.317 364.949 521.399 344.004 516.524 325.908C514.386 317.967 509.633 312.523 500.233 307.248C489.352 301.141 487.05 298.562 487.05 292.477C487.05 283.82 494.24 275.935 502.133 275.935C505.249 275.935 505.884 276.913 505.336 280.868C505.231 281.632 505.688 283.57 506.352 285.173C507.378 287.649 508.132 288.091 511.333 288.091C522.951 288.091 520.822 269.354 508.614 264.155C504.238 262.291 498.781 262.455 492.452 264.641ZM419.683 276.276C418.72 277.747 417.168 286.282 415.587 298.815C414.186 309.91 411.911 325.954 410.529 334.469C409.147 342.983 408.016 351.469 408.016 353.326C408.016 358.146 411.375 362.04 415.532 362.04C421.831 362.04 422.741 359.307 426.822 328.119C428.54 314.98 429.921 311.692 435.938 306.41C440.934 302.024 444.341 301.357 446.724 304.3C448.459 306.441 448.598 308.551 448.428 330.169C448.248 353.122 448.3 353.784 450.531 356.916C453.755 361.443 457.386 360.903 460.351 355.455C464.342 348.124 466.338 305.932 463.195 295.351C460.321 285.679 453.45 280.6 445.767 282.47C444.229 282.843 440.145 286.085 436.69 289.673L430.406 296.198L431.011 287.633C431.505 280.624 431.307 278.599 429.924 276.488C427.623 272.977 421.924 272.858 419.683 276.276ZM319.177 279.367C307.3 283.227 299.02 292.397 293.921 307.338C292.51 311.471 292.022 315.786 292.03 324.052C292.039 333.575 292.39 335.974 294.441 340.552C301.067 355.345 318.65 360.949 332.903 352.81C340.534 348.453 343.735 340.247 339.59 335.668C337.015 332.823 333.652 333.205 330.334 336.719C323.086 344.398 313.152 342.406 307.084 332.056C304.897 328.323 304.426 326.247 304.404 320.219C304.375 312.184 305.729 308.039 310.788 300.688C314.267 295.633 319.081 292.153 322.604 292.147C323.833 292.145 326.569 293.317 328.684 294.751C333.142 297.776 337.505 297.517 340.381 294.053C347.475 285.512 332.399 275.07 319.177 279.367ZM276.577 282.534C275.085 283.58 274.175 285.602 273.726 288.866C273.363 291.504 271.286 301.577 269.11 311.251C264.009 333.94 260.902 352.224 261.747 354.595C263.549 359.652 269.311 361.652 274.334 358.964C280.851 355.477 286.22 331.99 287.989 299.234C288.639 287.206 288.563 286.431 286.462 283.786C283.946 280.616 280.026 280.12 276.577 282.534ZM373.006 282.854C364.97 286.611 354.977 300.804 351.811 312.952C349.715 321.001 349.746 339.681 351.869 346.827C356.081 361.009 367.377 362.73 378.719 350.918L384.38 345.023L385.65 349.976C387.292 356.379 391.542 361.027 395.756 361.027C399.329 361.027 402.584 358.277 403.545 354.448C404.291 351.477 402.418 346.233 400.323 345.43C398.403 344.693 398.437 331.323 400.406 313.922C401.226 306.679 401.906 297.001 401.916 292.415C401.936 284.204 401.895 284.067 399.212 283.393C397.15 282.877 396.105 283.205 394.913 284.746C393.343 286.775 393.327 286.774 389.751 284.408C384.685 281.057 378.146 280.45 373.006 282.854ZM198.639 291.051C176.663 301.028 166.124 337.252 180.222 354.352C186.404 361.85 198.063 364.282 207.025 359.946C211.936 357.568 222.59 346.621 222.59 343.951C222.59 339.901 220.499 339.761 213.399 343.335C204.684 347.722 199.846 348.542 194.889 346.472C190.8 344.764 188.892 341.448 187.785 334.125C187.178 330.109 187.249 329.986 190.945 328.66C205.154 323.564 217.475 312.243 219.93 302.028C220.77 298.534 218.516 292.953 215.378 290.756C212.19 288.522 203.886 288.669 198.639 291.051ZM388.321 294.241C390.995 297.036 391.285 297.987 391.179 303.611C390.958 315.399 384.727 331.465 377.421 339.087C372.6 344.118 370.281 344.816 367.312 342.129C364.737 339.799 364.791 325.879 367.419 314.935C372.397 294.193 380.551 286.12 388.321 294.241ZM209.417 300.58C209.417 301.32 207.996 304.071 206.259 306.692C202.855 311.829 188.943 323.425 188.343 321.625C187.766 319.895 193.045 309.15 196.049 305.943C201.354 300.279 209.417 297.044 209.417 300.58Z"/>
</mask>
<path fill-rule="evenodd" clip-rule="evenodd" d="M61.5344 8.45065C59.3052 10.6792 54.6341 19.6149 51.9297 26.8244C50.5355 30.5411 49.3409 31.8843 45.9556 33.5355C39.033 36.9129 29.6482 44.5357 24.0875 51.2984C18.2693 58.3722 9.78027 74.7534 7.20761 83.8663C5.25203 90.7993 5.72724 98.4353 8.22999 100.264C11.7855 102.863 13.8191 100.754 19.921 88.1422C27.8558 71.7397 32.2067 64.7531 38.4301 58.4188C41.2905 55.5075 43.769 53.2637 43.9372 53.4318C44.1064 53.6 41.7627 64.1878 38.73 76.9587C35.6974 89.7306 30.6645 113.399 27.5457 129.557C24.4279 145.714 20.0719 168.076 17.8671 179.25C13.0257 203.788 12.8241 208.705 16.482 213.051C18.7294 215.721 19.7902 216.168 23.8919 216.168C27.797 216.168 29.173 215.652 31.3616 213.368C35.3387 209.218 36.7116 204.3 42.3008 174.18C45.0974 159.109 47.6021 145.752 47.8666 144.498C48.2932 142.477 48.965 142.219 53.7881 142.219C60.1158 142.219 74.4859 138.29 82.0579 134.488C96.5921 127.192 107.94 116.144 114.176 103.219C119.085 93.0441 121.15 85.3372 121.938 74.255C124.097 43.864 102.139 21.3866 73.2396 24.4064L67.2573 25.0314L67.9271 19.9877C69.2412 10.0836 65.9117 4.0745 61.5344 8.45065ZM90.3596 41.8016C95.7693 44.2713 100.476 49.2785 103.791 56.0879C106.171 60.9756 106.504 62.8416 106.411 70.8027C106.236 85.7799 100.699 99.9051 91.3343 109.267C86.3197 114.281 76.8062 120.375 70.0468 122.903C64.258 125.068 51.6744 127.687 50.879 126.892C50.3693 126.382 56.1895 91.0748 61.7948 60.6727C64.868 44.0008 65.3676 42.3314 67.6251 41.1877C71.4927 39.2276 85.5547 39.6074 90.3596 41.8016ZM464.533 67.2167C461.957 69.2417 459.482 76.3641 458.182 85.4912C457.825 87.9983 455.957 97.7454 454.03 107.151C447.481 139.119 440.44 179.866 440.44 185.793C440.44 190.671 440.897 192.244 443.063 194.817C447.328 199.885 453.578 198.663 456.263 192.237C458.003 188.074 461.266 172.56 462.204 163.999C462.569 160.656 464.881 147.436 467.34 134.622C473.007 105.092 475.175 88.3681 474.733 77.604C474.426 70.1199 474.098 68.8729 471.992 67.1681C468.978 64.7288 467.686 64.7369 464.533 67.2167ZM365.603 77.5483C357.393 81.6104 353.232 89.8602 348.054 112.336C346.385 119.579 344.829 125.697 344.595 125.932C344.361 126.167 340.522 125.801 336.064 125.12C326.705 123.687 323.325 124.636 321.075 129.329C318.151 135.429 321.895 138.666 333.897 140.415C340.564 141.387 342.065 141.921 341.671 143.185C341.402 144.047 340.286 149.082 339.189 154.375C338.093 159.668 335.804 170.088 334.102 177.529C330.332 194.015 330.27 196.276 333.496 199.499C336.732 202.736 339.631 202.644 343.043 199.2C345.444 196.775 346.419 193.591 350.565 174.635C353.185 162.656 355.805 150.545 356.385 147.722L357.442 142.587L365.843 143.027C374.034 143.458 374.3 143.399 376.439 140.681C381.545 134.19 377.619 128.633 367.131 127.509C360.951 126.848 360.452 126.617 360.902 124.628C361.172 123.439 362.285 118.363 363.376 113.349C367.431 94.7084 370.834 86.5042 374.511 86.5042C377.808 86.5042 378.846 88.9901 378.086 95.0691C377.263 101.657 378.403 103.725 382.857 103.725C386.568 103.725 390.341 99.8524 391.226 95.1349C392.503 88.3336 385.83 78.3566 378.676 76.3701C373.308 74.879 370.482 75.1333 365.603 77.5483ZM396.107 103.978C391.83 109.338 388.778 121.202 384.172 150.384C380.482 173.757 379.906 182.427 381.798 186.098C387.224 196.63 397.211 195.886 408.729 184.091L414.396 178.288L413.679 185.564C413 192.454 413.098 192.976 415.509 195.387C418.75 198.628 423.135 198.722 426.055 195.613C427.979 193.566 428.613 190.019 431.445 165.476C435.357 131.572 435.869 112.141 432.937 108.899C430.407 106.101 428.868 106.206 426.398 109.343C423.907 112.511 421.955 120.885 419.093 140.7C416.709 157.202 414.23 163.83 407.258 172.342C403.598 176.808 397.215 181.396 396.146 180.327C395.807 179.988 396.038 175.719 396.661 170.841C404.709 107.773 404.428 110.816 402.621 106.511C400.972 102.58 398.111 101.468 396.107 103.978ZM126.229 118.47C123.665 119.259 119.334 121.136 116.603 122.639C109.809 126.378 96.2395 140.3 91.5967 148.297C84.5506 160.431 81.1399 176.142 83.7663 184.365C85.193 188.829 89.8965 194.277 94.4126 196.696C98.4636 198.866 109.729 198.769 118.224 196.49C127.315 194.053 141.027 187.187 145.724 182.72C149.007 179.599 149.635 178.342 149.635 174.9C149.635 172.095 149.128 170.605 148.032 170.185C144.175 168.705 139.958 169.74 133.669 173.711C121.981 181.091 106.161 185.89 100.817 183.677C97.6226 182.354 95.744 177.855 96.6002 173.577C97.0957 171.099 97.9043 170.415 101.378 169.54C112.244 166.8 122.287 161.436 132.84 152.734C147.778 140.415 151.587 125.892 141.632 119.207C137.687 116.557 133.148 116.34 126.229 118.47ZM180.927 122.345C171.197 125.821 165.397 131.633 159.638 143.68C151.992 159.671 149.527 177.431 153.68 186.581C156.242 192.224 162.755 195.455 169.657 194.509C175.284 193.738 183.427 189.385 186.851 185.318L189.448 182.232L188.721 188.061C188.025 193.624 188.131 194.03 191.028 196.925C194.594 200.492 197.016 200.732 200.643 197.879C203.791 195.404 204.904 191.656 206.842 177.018C207.641 170.971 209.284 161.922 210.491 156.908C211.699 151.893 212.922 143.155 213.208 137.49C213.718 127.411 213.672 127.133 211.073 124.535C208.821 122.284 208.09 122.056 206.263 123.033C205.079 123.667 203.882 125.053 203.605 126.111C203.016 128.366 201.754 128.625 200.995 126.647C200.18 124.527 191.987 120.941 188.072 120.991C186.158 121.015 182.943 121.625 180.927 122.345ZM249.238 123.941C244.557 125.068 236.28 130.659 232.117 135.503C227.15 141.285 219.741 156.688 218.431 163.956C216.238 176.124 219.583 186.881 227.966 194.605C235.298 201.363 242.354 202.538 250.679 198.391C257.016 195.234 261.353 189.876 261.496 185.026C261.659 179.514 259.161 178.566 253.234 181.891C246.041 185.925 241.911 186.415 238.398 183.653C234.505 180.59 232.722 175.893 232.722 168.696C232.722 157.679 239.444 140.472 244.837 137.684C250.82 134.59 254.001 136.234 254.001 142.422C254.001 146.187 256.679 150.323 259.118 150.323C261.51 150.323 265.843 147.267 266.975 144.78C272.173 133.375 261.608 120.961 249.238 123.941ZM286.762 127.514C274.122 133.903 265.052 150.739 264.96 167.987C264.914 176.431 266.517 181.608 270.682 186.472C281.328 198.907 303.659 196.797 319.095 181.896C330.04 171.332 323.85 161.92 312.257 171.499C301.399 180.468 291.243 183.579 284.459 180.013C282.541 179.005 280.834 177.725 280.663 177.167C280.493 176.61 282.401 175.313 284.904 174.283C300.036 168.062 315.144 152.902 315.849 143.232C316.374 136.03 315.767 133.99 311.839 129.781C307.909 125.568 307.792 125.524 299.934 125.198C293.005 124.91 291.333 125.204 286.762 127.514ZM194.018 131.479C195.525 132.257 197.532 133.751 198.48 134.799C200.115 136.605 200.006 137.151 196.379 145.336C188.979 162.034 177.661 176.651 170.735 178.454L167.367 179.331L167.052 173.691C166.359 161.301 173.626 139.824 180.211 134.803C186.374 130.105 189.774 129.285 194.018 131.479ZM131.396 132.138C131.396 135.22 103.82 158.515 102.135 156.856C101.924 156.648 103.222 154.187 105.019 151.387C109.3 144.716 118.463 136.416 124.81 133.458C130.511 130.801 131.396 130.623 131.396 132.138ZM303.448 136.344C307.669 140.564 300.549 150.681 283.751 164.327C280.887 166.654 278.233 168.557 277.852 168.557C276.729 168.557 278.454 157.36 280.49 151.432C282.72 144.94 286.47 139.74 290.849 137.072C294.407 134.902 301.59 134.487 303.448 136.344ZM146.718 215.324C127.564 218.364 107.904 230.841 97.4179 246.61C86.4261 263.14 82.9 282.868 89.5976 290.37C92.7924 293.948 94.594 292.623 95.1705 286.271C96.2324 274.565 104.68 257.932 114.607 248.002C122.065 240.542 139.136 230.658 141.126 232.648C141.404 232.927 140.473 237.196 139.058 242.135C135.728 253.747 130.042 279.222 126.198 299.74C124.53 308.655 121.596 324.201 119.68 334.288C115.375 356.958 115.35 358.309 119.159 362.118C124.136 367.092 131.112 365.438 133.928 358.615C134.645 356.877 137.417 343.375 140.087 328.611C142.757 313.846 144.983 301.679 145.033 301.573C145.084 301.466 148.381 301.884 152.361 302.5C174.758 305.965 193.901 289.558 197.674 263.663C199.159 253.469 194.416 237.873 187.189 229.193C178.46 218.705 161.666 212.951 146.718 215.324ZM168.967 233.829C173.932 237.113 178.674 243.544 180.148 248.993C181.902 255.478 180.785 266.469 177.768 272.391C174.623 278.567 165.364 287.536 159.515 290.072C155.054 292.008 146.595 293.768 146.595 292.76C146.595 292.444 148.4 281.577 150.606 268.612C152.812 255.646 154.924 242.075 155.299 238.454C155.674 234.832 156.208 231.475 156.486 230.994C157.391 229.425 164.884 231.126 168.967 233.829ZM252.805 232.123C249.732 235.73 249.237 237.712 241.375 277.961C235.829 306.351 227.653 351.804 227.655 354.234C227.657 356.888 232.226 361.027 235.153 361.027C236.54 361.027 238.823 360.001 240.225 358.747C242.539 356.679 243.199 354.03 247.36 330.13C254.441 289.446 262.107 241.819 262.107 238.501C262.107 233.542 260.121 230.35 257.034 230.35C255.539 230.35 253.635 231.147 252.805 232.123ZM282.386 252.735C275.512 254.206 271.247 262.192 274.296 267.887C275.974 271.022 281.181 273.187 285.615 272.592C290.881 271.886 294.394 269.418 296.165 265.182C297.463 262.075 297.445 261.288 296.002 258.248C295.106 256.362 293.612 254.508 292.68 254.128C288.47 252.413 285.664 252.034 282.386 252.735ZM492.452 264.641C485.643 266.994 480.46 271.021 476.785 276.812C472.838 283.035 471.525 288.35 472.111 295.734C472.953 306.337 477.602 312.309 490.75 319.676C499.652 324.663 502.837 328.69 501.76 333.592C500.912 337.454 494.09 345.188 490.06 346.857C487.25 348.02 486.634 347.928 484.198 345.975C477.504 340.611 477.099 340.446 473.905 341.769C465.763 345.14 471.155 357.098 482.152 360.059C500.317 364.949 521.399 344.004 516.524 325.908C514.386 317.967 509.633 312.523 500.233 307.248C489.352 301.141 487.05 298.562 487.05 292.477C487.05 283.82 494.24 275.935 502.133 275.935C505.249 275.935 505.884 276.913 505.336 280.868C505.231 281.632 505.688 283.57 506.352 285.173C507.378 287.649 508.132 288.091 511.333 288.091C522.951 288.091 520.822 269.354 508.614 264.155C504.238 262.291 498.781 262.455 492.452 264.641ZM419.683 276.276C418.72 277.747 417.168 286.282 415.587 298.815C414.186 309.91 411.911 325.954 410.529 334.469C409.147 342.983 408.016 351.469 408.016 353.326C408.016 358.146 411.375 362.04 415.532 362.04C421.831 362.04 422.741 359.307 426.822 328.119C428.54 314.98 429.921 311.692 435.938 306.41C440.934 302.024 444.341 301.357 446.724 304.3C448.459 306.441 448.598 308.551 448.428 330.169C448.248 353.122 448.3 353.784 450.531 356.916C453.755 361.443 457.386 360.903 460.351 355.455C464.342 348.124 466.338 305.932 463.195 295.351C460.321 285.679 453.45 280.6 445.767 282.47C444.229 282.843 440.145 286.085 436.69 289.673L430.406 296.198L431.011 287.633C431.505 280.624 431.307 278.599 429.924 276.488C427.623 272.977 421.924 272.858 419.683 276.276ZM319.177 279.367C307.3 283.227 299.02 292.397 293.921 307.338C292.51 311.471 292.022 315.786 292.03 324.052C292.039 333.575 292.39 335.974 294.441 340.552C301.067 355.345 318.65 360.949 332.903 352.81C340.534 348.453 343.735 340.247 339.59 335.668C337.015 332.823 333.652 333.205 330.334 336.719C323.086 344.398 313.152 342.406 307.084 332.056C304.897 328.323 304.426 326.247 304.404 320.219C304.375 312.184 305.729 308.039 310.788 300.688C314.267 295.633 319.081 292.153 322.604 292.147C323.833 292.145 326.569 293.317 328.684 294.751C333.142 297.776 337.505 297.517 340.381 294.053C347.475 285.512 332.399 275.07 319.177 279.367ZM276.577 282.534C275.085 283.58 274.175 285.602 273.726 288.866C273.363 291.504 271.286 301.577 269.11 311.251C264.009 333.94 260.902 352.224 261.747 354.595C263.549 359.652 269.311 361.652 274.334 358.964C280.851 355.477 286.22 331.99 287.989 299.234C288.639 287.206 288.563 286.431 286.462 283.786C283.946 280.616 280.026 280.12 276.577 282.534ZM373.006 282.854C364.97 286.611 354.977 300.804 351.811 312.952C349.715 321.001 349.746 339.681 351.869 346.827C356.081 361.009 367.377 362.73 378.719 350.918L384.38 345.023L385.65 349.976C387.292 356.379 391.542 361.027 395.756 361.027C399.329 361.027 402.584 358.277 403.545 354.448C404.291 351.477 402.418 346.233 400.323 345.43C398.403 344.693 398.437 331.323 400.406 313.922C401.226 306.679 401.906 297.001 401.916 292.415C401.936 284.204 401.895 284.067 399.212 283.393C397.15 282.877 396.105 283.205 394.913 284.746C393.343 286.775 393.327 286.774 389.751 284.408C384.685 281.057 378.146 280.45 373.006 282.854ZM198.639 291.051C176.663 301.028 166.124 337.252 180.222 354.352C186.404 361.85 198.063 364.282 207.025 359.946C211.936 357.568 222.59 346.621 222.59 343.951C222.59 339.901 220.499 339.761 213.399 343.335C204.684 347.722 199.846 348.542 194.889 346.472C190.8 344.764 188.892 341.448 187.785 334.125C187.178 330.109 187.249 329.986 190.945 328.66C205.154 323.564 217.475 312.243 219.93 302.028C220.77 298.534 218.516 292.953 215.378 290.756C212.19 288.522 203.886 288.669 198.639 291.051ZM388.321 294.241C390.995 297.036 391.285 297.987 391.179 303.611C390.958 315.399 384.727 331.465 377.421 339.087C372.6 344.118 370.281 344.816 367.312 342.129C364.737 339.799 364.791 325.879 367.419 314.935C372.397 294.193 380.551 286.12 388.321 294.241ZM209.417 300.58C209.417 301.32 207.996 304.071 206.259 306.692C202.855 311.829 188.943 323.425 188.343 321.625C187.766 319.895 193.045 309.15 196.049 305.943C201.354 300.279 209.417 297.044 209.417 300.58Z" fill="#DE320E"/>
<path fill-rule="evenodd" clip-rule="evenodd" d="M61.5344 8.45065C59.3052 10.6792 54.6341 19.6149 51.9297 26.8244C50.5355 30.5411 49.3409 31.8843 45.9556 33.5355C39.033 36.9129 29.6482 44.5357 24.0875 51.2984C18.2693 58.3722 9.78027 74.7534 7.20761 83.8663C5.25203 90.7993 5.72724 98.4353 8.22999 100.264C11.7855 102.863 13.8191 100.754 19.921 88.1422C27.8558 71.7397 32.2067 64.7531 38.4301 58.4188C41.2905 55.5075 43.769 53.2637 43.9372 53.4318C44.1064 53.6 41.7627 64.1878 38.73 76.9587C35.6974 89.7306 30.6645 113.399 27.5457 129.557C24.4279 145.714 20.0719 168.076 17.8671 179.25C13.0257 203.788 12.8241 208.705 16.482 213.051C18.7294 215.721 19.7902 216.168 23.8919 216.168C27.797 216.168 29.173 215.652 31.3616 213.368C35.3387 209.218 36.7116 204.3 42.3008 174.18C45.0974 159.109 47.6021 145.752 47.8666 144.498C48.2932 142.477 48.965 142.219 53.7881 142.219C60.1158 142.219 74.4859 138.29 82.0579 134.488C96.5921 127.192 107.94 116.144 114.176 103.219C119.085 93.0441 121.15 85.3372 121.938 74.255C124.097 43.864 102.139 21.3866 73.2396 24.4064L67.2573 25.0314L67.9271 19.9877C69.2412 10.0836 65.9117 4.0745 61.5344 8.45065ZM90.3596 41.8016C95.7693 44.2713 100.476 49.2785 103.791 56.0879C106.171 60.9756 106.504 62.8416 106.411 70.8027C106.236 85.7799 100.699 99.9051 91.3343 109.267C86.3197 114.281 76.8062 120.375 70.0468 122.903C64.258 125.068 51.6744 127.687 50.879 126.892C50.3693 126.382 56.1895 91.0748 61.7948 60.6727C64.868 44.0008 65.3676 42.3314 67.6251 41.1877C71.4927 39.2276 85.5547 39.6074 90.3596 41.8016ZM464.533 67.2167C461.957 69.2417 459.482 76.3641 458.182 85.4912C457.825 87.9983 455.957 97.7454 454.03 107.151C447.481 139.119 440.44 179.866 440.44 185.793C440.44 190.671 440.897 192.244 443.063 194.817C447.328 199.885 453.578 198.663 456.263 192.237C458.003 188.074 461.266 172.56 462.204 163.999C462.569 160.656 464.881 147.436 467.34 134.622C473.007 105.092 475.175 88.3681 474.733 77.604C474.426 70.1199 474.098 68.8729 471.992 67.1681C468.978 64.7288 467.686 64.7369 464.533 67.2167ZM365.603 77.5483C357.393 81.6104 353.232 89.8602 348.054 112.336C346.385 119.579 344.829 125.697 344.595 125.932C344.361 126.167 340.522 125.801 336.064 125.12C326.705 123.687 323.325 124.636 321.075 129.329C318.151 135.429 321.895 138.666 333.897 140.415C340.564 141.387 342.065 141.921 341.671 143.185C341.402 144.047 340.286 149.082 339.189 154.375C338.093 159.668 335.804 170.088 334.102 177.529C330.332 194.015 330.27 196.276 333.496 199.499C336.732 202.736 339.631 202.644 343.043 199.2C345.444 196.775 346.419 193.591 350.565 174.635C353.185 162.656 355.805 150.545 356.385 147.722L357.442 142.587L365.843 143.027C374.034 143.458 374.3 143.399 376.439 140.681C381.545 134.19 377.619 128.633 367.131 127.509C360.951 126.848 360.452 126.617 360.902 124.628C361.172 123.439 362.285 118.363 363.376 113.349C367.431 94.7084 370.834 86.5042 374.511 86.5042C377.808 86.5042 378.846 88.9901 378.086 95.0691C377.263 101.657 378.403 103.725 382.857 103.725C386.568 103.725 390.341 99.8524 391.226 95.1349C392.503 88.3336 385.83 78.3566 378.676 76.3701C373.308 74.879 370.482 75.1333 365.603 77.5483ZM396.107 103.978C391.83 109.338 388.778 121.202 384.172 150.384C380.482 173.757 379.906 182.427 381.798 186.098C387.224 196.63 397.211 195.886 408.729 184.091L414.396 178.288L413.679 185.564C413 192.454 413.098 192.976 415.509 195.387C418.75 198.628 423.135 198.722 426.055 195.613C427.979 193.566 428.613 190.019 431.445 165.476C435.357 131.572 435.869 112.141 432.937 108.899C430.407 106.101 428.868 106.206 426.398 109.343C423.907 112.511 421.955 120.885 419.093 140.7C416.709 157.202 414.23 163.83 407.258 172.342C403.598 176.808 397.215 181.396 396.146 180.327C395.807 179.988 396.038 175.719 396.661 170.841C404.709 107.773 404.428 110.816 402.621 106.511C400.972 102.58 398.111 101.468 396.107 103.978ZM126.229 118.47C123.665 119.259 119.334 121.136 116.603 122.639C109.809 126.378 96.2395 140.3 91.5967 148.297C84.5506 160.431 81.1399 176.142 83.7663 184.365C85.193 188.829 89.8965 194.277 94.4126 196.696C98.4636 198.866 109.729 198.769 118.224 196.49C127.315 194.053 141.027 187.187 145.724 182.72C149.007 179.599 149.635 178.342 149.635 174.9C149.635 172.095 149.128 170.605 148.032 170.185C144.175 168.705 139.958 169.74 133.669 173.711C121.981 181.091 106.161 185.89 100.817 183.677C97.6226 182.354 95.744 177.855 96.6002 173.577C97.0957 171.099 97.9043 170.415 101.378 169.54C112.244 166.8 122.287 161.436 132.84 152.734C147.778 140.415 151.587 125.892 141.632 119.207C137.687 116.557 133.148 116.34 126.229 118.47ZM180.927 122.345C171.197 125.821 165.397 131.633 159.638 143.68C151.992 159.671 149.527 177.431 153.68 186.581C156.242 192.224 162.755 195.455 169.657 194.509C175.284 193.738 183.427 189.385 186.851 185.318L189.448 182.232L188.721 188.061C188.025 193.624 188.131 194.03 191.028 196.925C194.594 200.492 197.016 200.732 200.643 197.879C203.791 195.404 204.904 191.656 206.842 177.018C207.641 170.971 209.284 161.922 210.491 156.908C211.699 151.893 212.922 143.155 213.208 137.49C213.718 127.411 213.672 127.133 211.073 124.535C208.821 122.284 208.09 122.056 206.263 123.033C205.079 123.667 203.882 125.053 203.605 126.111C203.016 128.366 201.754 128.625 200.995 126.647C200.18 124.527 191.987 120.941 188.072 120.991C186.158 121.015 182.943 121.625 180.927 122.345ZM249.238 123.941C244.557 125.068 236.28 130.659 232.117 135.503C227.15 141.285 219.741 156.688 218.431 163.956C216.238 176.124 219.583 186.881 227.966 194.605C235.298 201.363 242.354 202.538 250.679 198.391C257.016 195.234 261.353 189.876 261.496 185.026C261.659 179.514 259.161 178.566 253.234 181.891C246.041 185.925 241.911 186.415 238.398 183.653C234.505 180.59 232.722 175.893 232.722 168.696C232.722 157.679 239.444 140.472 244.837 137.684C250.82 134.59 254.001 136.234 254.001 142.422C254.001 146.187 256.679 150.323 259.118 150.323C261.51 150.323 265.843 147.267 266.975 144.78C272.173 133.375 261.608 120.961 249.238 123.941ZM286.762 127.514C274.122 133.903 265.052 150.739 264.96 167.987C264.914 176.431 266.517 181.608 270.682 186.472C281.328 198.907 303.659 196.797 319.095 181.896C330.04 171.332 323.85 161.92 312.257 171.499C301.399 180.468 291.243 183.579 284.459 180.013C282.541 179.005 280.834 177.725 280.663 177.167C280.493 176.61 282.401 175.313 284.904 174.283C300.036 168.062 315.144 152.902 315.849 143.232C316.374 136.03 315.767 133.99 311.839 129.781C307.909 125.568 307.792 125.524 299.934 125.198C293.005 124.91 291.333 125.204 286.762 127.514ZM194.018 131.479C195.525 132.257 197.532 133.751 198.48 134.799C200.115 136.605 200.006 137.151 196.379 145.336C188.979 162.034 177.661 176.651 170.735 178.454L167.367 179.331L167.052 173.691C166.359 161.301 173.626 139.824 180.211 134.803C186.374 130.105 189.774 129.285 194.018 131.479ZM131.396 132.138C131.396 135.22 103.82 158.515 102.135 156.856C101.924 156.648 103.222 154.187 105.019 151.387C109.3 144.716 118.463 136.416 124.81 133.458C130.511 130.801 131.396 130.623 131.396 132.138ZM303.448 136.344C307.669 140.564 300.549 150.681 283.751 164.327C280.887 166.654 278.233 168.557 277.852 168.557C276.729 168.557 278.454 157.36 280.49 151.432C282.72 144.94 286.47 139.74 290.849 137.072C294.407 134.902 301.59 134.487 303.448 136.344ZM146.718 215.324C127.564 218.364 107.904 230.841 97.4179 246.61C86.4261 263.14 82.9 282.868 89.5976 290.37C92.7924 293.948 94.594 292.623 95.1705 286.271C96.2324 274.565 104.68 257.932 114.607 248.002C122.065 240.542 139.136 230.658 141.126 232.648C141.404 232.927 140.473 237.196 139.058 242.135C135.728 253.747 130.042 279.222 126.198 299.74C124.53 308.655 121.596 324.201 119.68 334.288C115.375 356.958 115.35 358.309 119.159 362.118C124.136 367.092 131.112 365.438 133.928 358.615C134.645 356.877 137.417 343.375 140.087 328.611C142.757 313.846 144.983 301.679 145.033 301.573C145.084 301.466 148.381 301.884 152.361 302.5C174.758 305.965 193.901 289.558 197.674 263.663C199.159 253.469 194.416 237.873 187.189 229.193C178.46 218.705 161.666 212.951 146.718 215.324ZM168.967 233.829C173.932 237.113 178.674 243.544 180.148 248.993C181.902 255.478 180.785 266.469 177.768 272.391C174.623 278.567 165.364 287.536 159.515 290.072C155.054 292.008 146.595 293.768 146.595 292.76C146.595 292.444 148.4 281.577 150.606 268.612C152.812 255.646 154.924 242.075 155.299 238.454C155.674 234.832 156.208 231.475 156.486 230.994C157.391 229.425 164.884 231.126 168.967 233.829ZM252.805 232.123C249.732 235.73 249.237 237.712 241.375 277.961C235.829 306.351 227.653 351.804 227.655 354.234C227.657 356.888 232.226 361.027 235.153 361.027C236.54 361.027 238.823 360.001 240.225 358.747C242.539 356.679 243.199 354.03 247.36 330.13C254.441 289.446 262.107 241.819 262.107 238.501C262.107 233.542 260.121 230.35 257.034 230.35C255.539 230.35 253.635 231.147 252.805 232.123ZM282.386 252.735C275.512 254.206 271.247 262.192 274.296 267.887C275.974 271.022 281.181 273.187 285.615 272.592C290.881 271.886 294.394 269.418 296.165 265.182C297.463 262.075 297.445 261.288 296.002 258.248C295.106 256.362 293.612 254.508 292.68 254.128C288.47 252.413 285.664 252.034 282.386 252.735ZM492.452 264.641C485.643 266.994 480.46 271.021 476.785 276.812C472.838 283.035 471.525 288.35 472.111 295.734C472.953 306.337 477.602 312.309 490.75 319.676C499.652 324.663 502.837 328.69 501.76 333.592C500.912 337.454 494.09 345.188 490.06 346.857C487.25 348.02 486.634 347.928 484.198 345.975C477.504 340.611 477.099 340.446 473.905 341.769C465.763 345.14 471.155 357.098 482.152 360.059C500.317 364.949 521.399 344.004 516.524 325.908C514.386 317.967 509.633 312.523 500.233 307.248C489.352 301.141 487.05 298.562 487.05 292.477C487.05 283.82 494.24 275.935 502.133 275.935C505.249 275.935 505.884 276.913 505.336 280.868C505.231 281.632 505.688 283.57 506.352 285.173C507.378 287.649 508.132 288.091 511.333 288.091C522.951 288.091 520.822 269.354 508.614 264.155C504.238 262.291 498.781 262.455 492.452 264.641ZM419.683 276.276C418.72 277.747 417.168 286.282 415.587 298.815C414.186 309.91 411.911 325.954 410.529 334.469C409.147 342.983 408.016 351.469 408.016 353.326C408.016 358.146 411.375 362.04 415.532 362.04C421.831 362.04 422.741 359.307 426.822 328.119C428.54 314.98 429.921 311.692 435.938 306.41C440.934 302.024 444.341 301.357 446.724 304.3C448.459 306.441 448.598 308.551 448.428 330.169C448.248 353.122 448.3 353.784 450.531 356.916C453.755 361.443 457.386 360.903 460.351 355.455C464.342 348.124 466.338 305.932 463.195 295.351C460.321 285.679 453.45 280.6 445.767 282.47C444.229 282.843 440.145 286.085 436.69 289.673L430.406 296.198L431.011 287.633C431.505 280.624 431.307 278.599 429.924 276.488C427.623 272.977 421.924 272.858 419.683 276.276ZM319.177 279.367C307.3 283.227 299.02 292.397 293.921 307.338C292.51 311.471 292.022 315.786 292.03 324.052C292.039 333.575 292.39 335.974 294.441 340.552C301.067 355.345 318.65 360.949 332.903 352.81C340.534 348.453 343.735 340.247 339.59 335.668C337.015 332.823 333.652 333.205 330.334 336.719C323.086 344.398 313.152 342.406 307.084 332.056C304.897 328.323 304.426 326.247 304.404 320.219C304.375 312.184 305.729 308.039 310.788 300.688C314.267 295.633 319.081 292.153 322.604 292.147C323.833 292.145 326.569 293.317 328.684 294.751C333.142 297.776 337.505 297.517 340.381 294.053C347.475 285.512 332.399 275.07 319.177 279.367ZM276.577 282.534C275.085 283.58 274.175 285.602 273.726 288.866C273.363 291.504 271.286 301.577 269.11 311.251C264.009 333.94 260.902 352.224 261.747 354.595C263.549 359.652 269.311 361.652 274.334 358.964C280.851 355.477 286.22 331.99 287.989 299.234C288.639 287.206 288.563 286.431 286.462 283.786C283.946 280.616 280.026 280.12 276.577 282.534ZM373.006 282.854C364.97 286.611 354.977 300.804 351.811 312.952C349.715 321.001 349.746 339.681 351.869 346.827C356.081 361.009 367.377 362.73 378.719 350.918L384.38 345.023L385.65 349.976C387.292 356.379 391.542 361.027 395.756 361.027C399.329 361.027 402.584 358.277 403.545 354.448C404.291 351.477 402.418 346.233 400.323 345.43C398.403 344.693 398.437 331.323 400.406 313.922C401.226 306.679 401.906 297.001 401.916 292.415C401.936 284.204 401.895 284.067 399.212 283.393C397.15 282.877 396.105 283.205 394.913 284.746C393.343 286.775 393.327 286.774 389.751 284.408C384.685 281.057 378.146 280.45 373.006 282.854ZM198.639 291.051C176.663 301.028 166.124 337.252 180.222 354.352C186.404 361.85 198.063 364.282 207.025 359.946C211.936 357.568 222.59 346.621 222.59 343.951C222.59 339.901 220.499 339.761 213.399 343.335C204.684 347.722 199.846 348.542 194.889 346.472C190.8 344.764 188.892 341.448 187.785 334.125C187.178 330.109 187.249 329.986 190.945 328.66C205.154 323.564 217.475 312.243 219.93 302.028C220.77 298.534 218.516 292.953 215.378 290.756C212.19 288.522 203.886 288.669 198.639 291.051ZM388.321 294.241C390.995 297.036 391.285 297.987 391.179 303.611C390.958 315.399 384.727 331.465 377.421 339.087C372.6 344.118 370.281 344.816 367.312 342.129C364.737 339.799 364.791 325.879 367.419 314.935C372.397 294.193 380.551 286.12 388.321 294.241ZM209.417 300.58C209.417 301.32 207.996 304.071 206.259 306.692C202.855 311.829 188.943 323.425 188.343 321.625C187.766 319.895 193.045 309.15 196.049 305.943C201.354 300.279 209.417 297.044 209.417 300.58Z" stroke="white" stroke-width="12" mask="url(#path-1-outside-1_75_1742)"/>
</svg>
