<svg version="1.1" id="Слой_1" xmlns="http://www.w3.org/2000/svg" xmlns:xlink="http://www.w3.org/1999/xlink" x="0" y="0" viewBox="0 0 3073.4 1342.1" xml:space="preserve"><defs><path id="SVGID_1_" d="M-464.5-1169.3h4000v4000h-4000z"/></defs><clipPath id="SVGID_2_"><use xlink:href="#SVGID_1_" overflow="visible"/></clipPath><path d="M975.6 527.1c.1 84-2.2 167.9-15.8 251.1-22.7 138-80.9 257.7-180.7 356.6-83.3 82.6-181.5 143.1-286.4 193.7-4 1.9-11 1-15.1-1.3-53.2-29.9-107.7-58-158.8-91.2-89.1-57.9-164.5-130.4-220.5-221.8-66-107.5-92-226.6-97.4-350.6-3.6-84.7-2.4-169.7-3.3-254.5 0-3.2.4-6.3.7-10.5 49.7 20.1 99.5 29.8 154.1 19.7-5.1-4-8.4-6.6-11.7-9.1-50.2-37.5-77-87.7-78.4-150.1-1.9-91.7 35-167.1 100.4-229.5 9.3-8.9 20.3-16.2 30.5-24.3.9 5.1-.2 8.2-1.4 11.3-17.4 46.3-25 93.7-18.5 143.2 8.4 63.8 46 106.5 105.2 118.7 7.8 1.6 14.4 1.7 19.1-5.8 4.9-7.9 12.4-8.6 21-9.3 7.9-.6 16.2-4 23-8.2 19-11.8 36.8-25.5 56-36.8 9.4-5.5 16.1-10.1 14.1-22.3-.4-2.7 3-8.2 5.8-9.1 39.7-13.2 79.7-22.4 120.7-5 3.9 1.7 8.2 3.1 12.4 3.5 8.8.8 12.1 5.3 10.6 13.7-1.7 9.3 3.4 13.1 10.8 17.5 20.2 12.2 39.3 26.2 59.4 38.7 6.5 4 14.4 7.6 21.8 7.9 9.8.3 16.8 3.1 23.5 10.3 3.2 3.5 10.6 5.8 15.4 4.9 49.8-8.8 82.9-37.7 99.2-85.4 12.7-37.2 13.7-75.4 6.5-113.5-4.7-24.7-12.3-48.8-18.8-74.1 4.3 3 8.6 5.6 12.5 8.7 68.4 53.8 108.6 124.3 118 210.4 8.5 77.7-17.6 142.3-83 188.6-1.6 1.1-2.9 2.6-5.7 5.1 54.3 10 104.2.2 154.8-20.2 0 44.6-.1 86.8 0 129M557.9 907.4c5.3 53.4-38 84.9-53.8 129.2-25.1-32.5-6.5-74-25.6-109.3-11.2 24.4-16.9 48.2-20.7 72.6-6.6 43.3 1.8 84.8 14.1 125.9 8.3 28 18.7 56.2 11.6 85.9-4.1 17.1-12.1 33.3-18 49.1 52.8-11.2 109.7-65.8 114.7-115.9 2.3-22.5-3.6-45.9-7-68.8-2.4-15.7-7.5-30.9-10.3-46.6-1.4-7.7-.2-15.9-.2-27.9 17.9 33.8 35.4 63.5 49.6 94.7 11.1 24.5 8.2 40.7-5.7 83.8 3.8-1.8 6.8-2.9 9.5-4.6 51.9-31.9 80.2-79.3 84.4-139 6.4-90.8-23.9-169.4-87.3-234.5-29.8-30.6-65.7-43.5-108.2-28.7-4.4 1.5-8.5 3.9-13 6 4.4 17.8 17.6 26.7 31 35.4 21.7 14 44.2 26.8 64.9 42.1 25.8 19 47 42.5 51.8 75.8 2.6 18 2.5 36.4 3.6 54.6-30.6-41.8-50.7-61.4-85.4-79.8M838 954.8c1.5-.9 2.7-1.2 3-1.9 20.6-47.8 36.5-96.6 33.5-149.7-2.2-38-16.4-70.1-46.7-94.1-8.4-6.7-17.1-13.1-26-19.2-28.2-19.5-58.5-36.4-78.3-66l-3.8 1.9c2.9 9.4 4.6 19.4 9 27.9 6.6 12.5 16.2 23.4 22.6 36.1 7.6 15 13 31.1 19.9 48-32.3-29-62.5-56-93.5-83.8-8.6 34.5-13.8 69.4-11.8 105.2 1.6 29.2 8.8 57.1 21.7 83.2 31.3 63.2 49.5 129.3 46.8 200.3 0 1.1.7 2.2 1.1 3.5 56.2-40.1 87.6-146.2-6-256C793.9 826 834.8 877.6 838 954.8M447.4 654.5c-.1 10.5 3.5 15.1 12.6 20.2 21.6 12.1 40.8 4.7 59.9-4.7 2.7-1.3 4.6-6.8 4.7-10.4.4-19.8.2-39.6.2-59.4 0-121.9-.2-243.7.3-365.6 0-11.6-3.7-17.1-14.6-17.4-16.6-.6-33.3-.7-49.9-.7-10.3 0-13.3 5.2-13.2 15.5.5 70.6.2 141.2.2 211.9 0 70.3.2 140.5-.2 210.6m427.7-185.9c-32.1 1.8-63.9-1.6-94.1-12.5-14-5.1-24.4-2.3-35.7 5 4.5 15.1 9.8 30 13.3 45.4 1.8 7.7 2.5 16.8.1 24.1-3.3 10-1.8 18 4.6 24.9 12.5 13.5 24.8 27.4 38.9 38.9 19.3 15.8 41.1 28.4 60.3 44.3 38.3 31.7 51.7 72.1 40.2 121.2-2.2 9.4 2.6 20.5 5.7 30.6 23.1-108.2 21.1-217.6 20.4-327.2-18.8 2-36.2 4.3-53.7 5.3m-807 282.2c-9-44.2 5.5-81.9 39.9-110.6 20.1-16.8 43.2-30 63.3-46.8 14.9-12.5 27.4-28 40.5-42.7 2.5-2.8 4.4-8.5 3.3-11.7-7.3-21.3-.6-40.7 6.4-60.3 2-5.6 4.1-11.3 6.4-17.6-11.2-5.9-20.8-10.3-34.7-5.5-45.3 15.6-91.9 17.1-138.9 8.3-2.9-.5-5.9-.6-10.2-1-.7 109.4-2.6 218.2 19.5 326 4.8-12.3 7.4-23.9 4.5-38.1m480.1-205.9c15.1-2.7 29.4-4.6 43.2-8.5 3.1-.9 6.1-9.1 5.9-13.8-1.6-36.1-3.2-72.2-6.3-108.2-2.3-26.9-6.9-53.7-10.9-84.2 33.3 62 43.9 127.2 57.6 192.8 31.3-11.7 58.4-26.7 80.3-49.9 2.3-2.5 3.7-8.1 2.6-11.2-29.3-81.9-70.3-155.3-148.1-201.6-7.3-4.3-14.7-8.3-24.3-13.7v298.3zm174.4-215.7c43.2-14.4 80.2-37.3 105.7-76.2.6-.9 1.8-1.4 4.1-2.9-13.1 62.7-58.7 88.8-113.3 106.1 9.5 19.9 18.8 39.1 28.6 59.7 4.2-1.5 8.6-2.8 12.7-4.5 72.4-29.8 113.3-92.5 112.3-172.2-.6-45.7-13.6-88.1-34.6-128.3-.9-1.7-2.2-3.3-5.4-7.7 4.4 51.1 1.8 97.8-23 140.5-25.6 44-66.7 64.1-115.9 72.4 10.6 19.2 10.6 19.2 28.8 13.1m-266 846.3c-4.2-16-11-31.7-18.8-46.3-9.7-18.2-21.4-35.3-32.6-52.6-25.4-39.6-50-79.5-54.2-128.4-16.1 34.9-25.2 70.9-21.4 109.4 3.1 31.5 14.3 60.2 32.2 86 22.7 32.8 46.3 64.9 69.6 97.3 20.8-14.2 32-39.8 25.2-65.4M92.5 777.6c-2.8 17.8-2.6 37.5 1.9 54.9 10.7 41.4 24.8 81.9 37.5 122.8 1.4-.1 2.9-.2 4.3-.4 1.1-12.6 3-25.2 3.2-37.8.2-20.6.6-41.4-1.3-61.9-5.5-59.2 6.9-112.1 50.9-154.7 10.1-9.8 20.4-19.4 31.3-29.7-57.5 4.7-119.7 55.8-127.8 106.8m606.7-206.2c21-15.6 37.8-34.4 35.6-63.3-.3-4.5-1.7-9-2.8-15-8.6 6.9-15.7 13-23.3 18.4-45 31.9-96.2 47.1-150 54.5-9 1.2-11.5 4.3-11.2 12.8.5 15.3.2 30.7.2 47.1 55.8-7.3 107.1-21.6 151.5-54.5M382 530c-33.8-11.2-65.2-26.7-91.1-51.9-5-4.9-7.5-9.1-4.7-16.8 27.7-75.6 66-143.6 132.7-192.5 5-3.6 5.2-13.7 7.6-20.8-1.2-.9-2.4-1.8-3.5-2.7-4.3 2.2-8.8 4.1-13 6.5-53.5 30.5-93.4 74.3-122 128.2-13.3 24.9-23.2 51.7-35.1 77.4-3.7 7.9-2.1 13.1 4.1 19.1 33.1 31.7 73.9 48 117.3 59 15.6 4 31.6 6.2 47.4 9.3.2-1 .4-2 .6-2.9-13.4-4-27-7.5-40.3-11.9M238.3 386.1c-3.1-1.7-5.9-3.5-8.8-4.9-77.2-36.7-116.9-111.3-103.6-196.3 4.1-26.2 9.9-52.1 15.3-80.5-3.6 2.4-5.1 2.8-5.6 3.7-30.4 58.1-46.4 118.8-29.8 184.2 16 62.9 58 101.7 118.8 124 4.9-10.6 9.1-20 13.7-30.2m312.6 297.2c-4.9-.3-10.6 2.6-14.9 5.5-15.6 10.3-31.3 19.6-51.3 17.7-2.5-.2-7.3 3.2-7.9 5.7-1.7 7.4-3.2 15.3-2.4 22.8 2.1 19.2 8.3 22.3 25.6 15 9.1-3.8 18.4-7.2 27.8-10.1 16-5 19-11.6 11-26.5 13.6-.3 18.3 7.3 18 19 15.5 4 30.6 7.9 46.1 11.8 42-56.1 48.6-70.4 44.7-100.4-26 32.4-58.9 42-96.7 39.5M426.4 832.4c15.2-8.3 28.9-19.8 42-31.2 5.7-4.9 8.3-13.4 12.4-20.4-63.5-28.7-105.8-10.5-128.8 35.9-10.6 21.3-18.5 43.9-28.3 67.5 36.2-18.1 70-34 102.7-51.8M257 809.1c-40.4 33.5-65.9 75.4-72.1 128.2-5.7 48.1 21.4 100.8 63.7 120.3-48.4-93.8-29.9-179 29.1-259.5-.8-.7-1.6-1.5-2.4-2.2-6.1 4.4-12.5 8.4-18.3 13.2m548.4-146.6c22.2 8.7 44.9 16 69.6 22.5-9.5-10.4-18.1-21.9-28.8-31-13.3-11.4-28.1-21.1-42.7-30.9-22.5-15.1-44.2-31.1-59.6-54.2-.9 44.7 21 77.7 61.5 93.6M245.7 543.7c7.7 11.1 17.1 22 28 29.8 44.5 31.8 96 44.1 149.6 49.7-5.2-1.6-10.5-2.8-15.4-4.8-30.9-12.8-62.6-24-92.2-39.3-23.9-12.4-42.3-30.8-47.6-60.6-1.7-9.5-16.9-16.7-27.3-26.2-5.7 19.6-5.4 36.6 4.9 51.4m158 190.1c-17.4-15.3-31.7-31.6-36.9-54-.5-2.1-2.9-4-4.9-5.5-12.4-9-24.9-17.8-36.9-26.4-5.7 20.5 1.4 38.9 38.6 96.9 13.6-3.7 26.3-7.2 40.1-11m-227.1-86.9c30.2-16.8 49.2-42.1 52.1-78.2-26.5 36.9-67.9 55.4-101.1 83.8-11.1 9.5-20.3 21.2-30.4 31.9.9.7 1.9 1.4 2.8 2 25.6-13.1 51.6-25.6 76.6-39.5m119 295.4c-36.9 56.3-35.2 145.7 8.6 194.3-17.7-65.1-19-128.6-8.6-194.3m154.2-91c28.5 11.3 67.3 9.6 84.8-3.8-46.9-26.1-56-25.8-84.8 3.8M257.5 711.7c15.7-14.3 22.6-32.7 26.3-50.3-14.1 12.6-29.2 26.5-44.7 39.9-15.9 13.7-24.2 30.7-24.3 50.5 14.2-13.4 28.2-27 42.7-40.1m160.2-63.2c-22.9-4.9-46-9-68.7-13.4 6.2 17 48.7 31.1 78.1 22.6-3.9-3.9-6.2-8.5-9.4-9.2m137 0c-3.1.7-5.4 5.3-9.5 9.5 32.8 7.1 65.1-3.3 78.4-23-22.8 4.4-45.9 8.5-68.9 13.5m-117.2 78.9c-.4 4.2 3.4 8.7 5.4 13.1 1.2-.4 2.4-.9 3.6-1.3-.3-4.1-.9-8.2-.7-12.2.2-4.1 1.2-8.2 1.8-12.3-1.1-.5-2.1-1-3.2-1.5-2.4 4.8-6.5 9.4-6.9 14.2m926-316.4l57 259.5c5.3 25.5 26.2 25.5 31.5 0l57-259.5c1.5-6.8 6.8-11.3 13.5-11.3h49.5c11.3 0 18 9 15.7 20.2L1479 913.4c-1.5 6.7-6.8 11.2-13.5 11.2H1407c-6.7 0-12-4.5-13.5-11.2L1284 420c-2.3-11.3 4.5-20.2 15.7-20.2h50.2c6.9-.1 12.1 4.4 13.6 11.2m26.3 22.5L1440 663c-.8 1.5-.8 3-.8 4.5-.8 5.3-2.3 9.8-3 9.8s-2.3-3-3-9l-54-245.2c5.3.6 9.1 5.1 10.6 10.4m30 503.9h45.7c12.7 0 23.2-8.3 26.2-21L1600.5 423v-.8c9.7 1.5 15.7 9.7 13.5 20.2l-108.7 493.5c-1.5 6.8-6.7 11.2-13.5 11.2h-58.5c-6.8.1-11.3-3.7-13.5-9.7m333.7-522.7v495c0 8.2-6.7 15-15 15H1686c-8.3 0-15-6.8-15-15v-495c0-8.2 6.7-15 15-15h52.5c8.2 0 15 6.8 15 15M1698 937.4h40.5c15 0 27.7-12.7 27.7-27.7V422.2c7.5.8 13.5 7.5 13.5 15v495c0 8.3-6.7 15-15 15h-52.5c-6.7 0-12-4.5-14.2-9.8m250.5-522.7v133.5c0 22.5 16.5 26.2 27 6.8l75.7-147.7c2.2-4.5 6.7-7.5 12-7.5h44.2c15 0 23.2 13.5 16.5 27l-83.2 162c-5.3 9.8-6 18.7-2.3 30l91.5 283.5c3.8 12-3.8 22.5-15.7 22.5h-48.7c-6.8 0-12-3.8-13.5-9.8l-57.7-176.2c-6-19.5-20.2-21.7-28.5-4.5l-10.5 20.2c-5.3 9-6.8 16.5-6.8 27.7v127.5c0 8.2-6.8 15-15 15H1881c-8.2 0-15-6.8-15-15v-495c0-8.2 6.7-15 15-15h52.5c8.2 0 15 6.8 15 15M1893 937.4h40.5c15 0 27.7-12.7 27.7-27.7V782.2c0-9 .8-14.2 5.3-21.7 3-6.8 8.2-14.2 11.2-21h-.8c1.5-2.3 3.8-.8 5.2 3l6 20.2-6.7 14.2c-5.3 9-6.8 16.5-6.8 27.7v127.5c0 8.3-6.8 15-15 15h-52.5c-6.6.1-11.9-4.4-14.1-9.7m81.7-408.7l-10.5 20.2c-1.5 1.5-3 1.5-3-.8v-126c7.5.8 13.5 7.5 13.5 15v91.6zm103.5 408.7h36c21 0 34.5-18 27.7-39L2050.5 615c-3-7.5-2.3-13.5 1.5-20.2l83.2-162c1.5-3 2.3-6.7 3-9.7 12 2.2 18 14.2 12 26.2l-83.2 162c-5.2 9.7-6 18.7-2.3 30l91.5 283.5c3.7 12-3.8 22.5-15.8 22.5h-48.7c-6.7-.1-12-3.9-13.5-9.9m228-522.7v495c0 8.2-6.7 15-15 15h-52.5c-8.3 0-15-6.8-15-15v-495c0-8.2 6.7-15 15-15h52.5c8.2 0 15 6.8 15 15m-55.5 522.7h40.5c15 0 27.7-12.7 27.7-27.7V422.2c7.5.8 13.5 7.5 13.5 15v495c0 8.3-6.7 15-15 15h-52.5c-6.7 0-12-4.5-14.2-9.8m250.5-527.9l71.2 224.2c5.3 15.7 20.2 13.5 20.2-3v-216c0-8.2 6.8-15 15-15h52.5c8.3 0 15 6.8 15 15v495c0 8.2-6.8 15-15 15h-54.7c-6.7 0-12-3.8-13.5-9.8l-70.5-224.2c-5.3-15.7-20.2-13.5-20.2 3v216c0 8.2-6.7 15-15 15h-52.5c-8.3 0-15-6.8-15-15v-495c0-8.2 6.7-15 15-15h54c6.7 0 12 3.8 13.5 9.8m-55.5 527.9h40.5c15 0 27.7-12.7 27.7-27.7v-201l13.5 43.5v180c0 8.3-6.7 15-15 15h-52.5c-6.7 0-12-4.5-14.2-9.8m81.7-505.4l52.5 165.7v18L2518.4 423c4.5 1.5 7.5 4.5 9 9m90.8 505.4h42c15 0 27.7-12.7 27.7-27.7V422.2c7.5.8 13.5 7.5 13.5 15v495c0 8.3-6.8 15-15 15h-54.7c-6.8 0-12-3.8-13.5-9.8m288.7-546.7c85.5 0 140.2 52.5 140.2 134.2v33c0 8.3-6.8 15-15 15h-52.5c-8.3 0-15-6.7-15-15v-33c0-25.5-6.8-51.7-57.7-51.7-51.7 0-59.2 26.2-59.2 51.7v274.5c0 25.5 7.5 51.7 59.2 51.7 51 0 57.7-26.2 57.7-51.7v-30.7c0-21.7-7.5-33.7-21.7-33.7h-21.7c-8.2 0-15-6.8-15-15v-52.5c0-8.2 6.7-15 15-15h111c8.3 0 15 6.8 15 15v132c0 81.7-54.7 134.2-140.2 134.2-87 0-140.2-52.5-141.7-133.5v-276c1.3-81 54.6-133.5 141.6-133.5m-46.5 408.7V525c0-19.5 6-39 46.5-39 18 0 28.5 4.5 35.2 10.5-3-.8-6-.8-9-.8-51.7 0-59.2 26.2-59.2 51.7v284.2c-11.3-7.4-13.5-19.4-13.5-32.2m1.5 141.8c13.5 3.7 28.5 5.2 45 5.2 93 0 153-57.7 153-147V675c7.5.8 13.5 7.5 13.5 15v132c0 81.7-54.7 134.2-140.2 134.2-27.8 0-51.1-5.3-71.3-15m71.2-193.5h9.8c3.8 0 6 3.7 7.5 9.7h-3c-6.8 0-12-3.7-14.3-9.7m58.5-162h40.5c15 0 27.7-12.8 27.7-27.7v-33c0-21-3.8-40.5-9.7-57.7 15 21 23.2 48.7 23.2 80.2v33c0 8.3-6.7 15-15 15h-52.5c-6.7 0-11.9-3.8-14.2-9.8m-1652.6 529h-19.4v58.5h-14.2v-58.5H1286v-13.6h53zm81.6 37.6c0 12.4-10 20.9-22.5 20.9h-30.6v-72.1h28.4c12.2 0 21.9 8.2 21.9 20.3 0 6.2-2.6 11-6.8 14.4 5.9 3.4 9.6 9 9.6 16.5m-38.8-37.9v15.9h14.2c4.4 0 7.7-3.4 7.7-7.9s-3.2-7.9-7.7-7.9h-14.2zm24.7 37c0-4.8-3.5-8.4-8.3-8.4h-16.4v17h16.4c4.8 0 8.3-3.6 8.3-8.6m40.7-14.2c0-21.1 16.6-37.5 37.4-37.5 20.8 0 37.5 16.4 37.5 37.5 0 21-16.7 37.5-37.5 37.5s-37.4-16.5-37.4-37.5m60.7 0c0-13.9-10.2-23.7-23.3-23.7-13.1 0-23.3 9.8-23.3 23.7 0 13.8 10.2 23.6 23.3 23.6 13.1 0 23.3-9.8 23.3-23.6m86.5-7.9l-30.9 44h-10.8v-72.1h14.2v44.1l30.9-44.1h10.8v72.1h-14.2v-44zm-28.8-46.3h29.9v11.5h-29.9V1083zm174.8 67.8c0 13.3-9.9 22.5-23.9 22.5h-27.6v-72.1h45.3v13.6h-31.1v13.7h13.4c14-.1 23.9 9.1 23.9 22.3m-14.1 0c0-6-4.4-9.1-9.8-9.1h-13.4v18.2h13.4c5.4.1 9.8-3 9.8-9.1m95-25.4c0 13.5-10.7 24.2-24.6 24.2H1784v23.7h-14.2v-72.1h26.9c13.9-.1 24.6 10.7 24.6 24.2m-14.1 0c0-6.3-4.4-10.9-10.5-10.9H1784v21.8h12.7c6 0 10.5-4.8 10.5-10.9m94.8-24.3l-21.6 52.2c-6 14.5-15.6 20.6-28.4 19.9V1160c7.9.7 12.3-2.4 15.2-8.4l-23.6-50.4h14.2l15.8 34.8 14.2-34.8h14.2zm76 13.6h-19.4v58.5h-14.2v-58.5H1925v-13.6h53zm65.3 45.6h-28.7l-4.3 13H1995l25.2-72.1h17.6l25.3 72.1h-15.4l-4.4-13zm-4.4-13.3l-9.9-29.5-9.9 29.5h19.8zm47.1 13.1c7.9 1.1 12.8-2 12.8-16.3v-42.6h49v72.1h-14.1v-58.5h-20.8v28.6c0 26-13.5 31.2-26.9 29.9v-13.2zm147.3-11.1c0 13.5-10.7 24.2-24.6 24.2h-26.9v-72.1h14.2v23.7h12.7c13.9 0 24.6 10.7 24.6 24.2m-14.1 0c0-6.2-4.4-10.9-10.5-10.9H2196v21.8h12.7c6 .1 10.5-4.6 10.5-10.9m99.1-47.9v72.1h-14.2v-29.8h-26.7v29.8h-14.3v-72.1h14.3v28.7h26.7v-28.7zm33.9 0h14.2v23.7h12.7c13.9 0 24.6 10.7 24.6 24.2s-10.7 24.2-24.6 24.2h-26.9v-72.1zm26.9 58.9c6.1 0 10.5-4.6 10.5-10.9 0-6.3-4.4-10.9-10.5-10.9h-12.7v21.8h12.7zm31.2-58.9h14.1v72.1h-14.1v-72.1zm89.8 28.2l-30.9 44h-10.8v-72.1h14.2v44.1l30.9-44.1h10.8v72.1h-14.2v-44zm-28.7-46.3h29.9v11.5h-29.9V1083zm165 46.3l-30.9 43.9h-10.8v-72.1h14.2v44.1l30.9-44.1h10.8v72.1h-14.2zm118.8 43.9h-14.1v-46.7l-20.3 33.5h-1.7l-20.3-33.4v46.6h-14.2v-72.1h14.6l20.7 34.1 20.6-34.1h14.7zm75.7-43.9l-30.9 43.9h-10.8v-72.1h14.2v44.1l30.9-44.1h10.8v72.1h-14.2zm111.3 30.4v27.4H2928v-13.8h-39.9v13.8h-14.2v-27.4h7c3.4-4.7 6-11.7 6-24.4v-34.1h47.6v58.5h7.7zm-21.9 0v-45.2h-19.2v21c0 12.4-2.3 19.6-4.9 24.2h24.1zm121.3 13.5l-22.3-32.8v32.8H3005v-32.8l-22.3 32.8h-15.8l25.1-36.7-24-35.4h15.7l21.3 32.2v-32.2h14.3v32.2l21.3-32.2h15.8l-24.1 35.4 25.2 36.7z" fill="#958961" clip-path="url(#SVGID_2_)"/></svg>