<svg width="271" height="63" fill="none" xmlns="http://www.w3.org/2000/svg"><path fill-rule="evenodd" clip-rule="evenodd" d="M43.716 30.291L34.616 0h-4.594l9.087 30.291h4.607zM62.534 4.157L60.477.273 39.799 11.08l1.278 4.285L62.534 4.157zM32.63 14.837L3.113 30.278h9.483l21.324-11.15-1.291-4.29zM19.293 55.522l-1.77 5.848 25.126-13.184-1.278-4.278-22.078 11.614zm29.228-15.32l1.278 4.271 12.365-6.496h-9.438l-4.205 2.225zm-7.1-2.206l7.362 24.563 4.23-1.271-6.99-23.311-4.601.019z" fill="#2062AF"/><path fill-rule="evenodd" clip-rule="evenodd" d="M261.183 19.808h-4.473l-6.262 20.934-.32 2.244-.332-2.333-6.243-20.845h-4.473l-8.78 29.389h4.473l6.23-20.851.332-2.327.333 2.327 6.243 20.85h4.473l6.23-20.85.339-2.327.332 2.327 6.243 20.85h4.473l-8.818-29.387zM217.258 44.76h-.039l-.249 1.665-.256-1.665-7.489-25.066h-4.473l8.818 29.503h2.365l-3.15 10.533h4.473l11.93-39.922h-4.473l-7.457 24.952zm-23.644-9.765l-14.62 7.629-.914.693.818-1.24v-22.25h-4.473v29.974l18.819-9.822 1.022-.763-.639.992v8.989h4.473V19.808h-4.473l-.013 15.187zM147.35 19.81h-4.236v39.92h4.473V49.718l18.058-9.421V19.809h-18.301.006zm13.816 18.04l-13.151 6.86-1.278.96.818-1.234V24.24h13.598l.013 13.61zm-45.37-13.584h7.802v24.957h4.474V24.24h7.802v-4.45h-20.065l-.013 4.476zM100.505 9.243H96.07L83.89 49.801l20.8-10.852 1.278-.953-.926 1.38 2.933 9.82h4.473L100.505 9.244zM91.412 41.06l-1.182.902.952-1.436 6.767-22.714.338-2.333.333 2.333 5.035 16.86-12.243 6.388z" fill="#231F20"/><path fill-rule="evenodd" clip-rule="evenodd" d="M29.835 14.081l-5.45 2.848 4.428-14.8 2.3 7.674-1.278 4.278zM18.071 31.938l-1.316 4.392H2.095L0 31.944h18.071v-.006zm2.984-3.814l5.445-2.848L15.33 62.59l-4.186-1.271 9.911-33.196zm3.975 8.264l1.316-4.393h36.852l2.096 4.393H25.03z" fill="#A7A9AB"/></svg>