<svg width="188" height="67" viewBox="0 0 188 67" fill="none" xmlns="http://www.w3.org/2000/svg">
<path d="M74.7765 9.91016H80.7958C82.6685 9.91016 84.3071 10.2472 85.7116 10.9551C87.1161 11.663 88.1862 12.6405 88.9553 13.9551C89.7244 15.2697 90.0923 16.7866 90.0923 18.5394C90.0923 21.4382 89.2563 23.6293 87.5842 25.1124C85.9122 26.5955 83.5714 27.3371 80.5952 27.3371H74.7765V9.91016ZM80.7958 24.2023C82.5682 24.2023 83.9058 23.6967 84.8756 22.7191C85.8119 21.7079 86.2801 20.3259 86.2801 18.5731C86.2801 17.5281 86.0794 16.5843 85.6447 15.7416C85.2434 14.8989 84.6415 14.2585 83.8389 13.7866C83.0363 13.3146 82.1 13.0787 81.0299 13.0787H78.5219V24.2023H80.7958Z" fill="#031625"/>
<path d="M93.0362 26.6624C92.1333 25.9208 91.6651 24.9096 91.6651 23.6287C91.6651 22.2804 92.0999 21.2692 92.9693 20.5276C93.8388 19.786 95.0761 19.4152 96.6812 19.4152C97.3835 19.4152 98.0857 19.4826 98.7211 19.6512C99.3565 19.786 99.925 20.022 100.427 20.2916V19.9883C100.427 19.2467 100.159 18.6737 99.624 18.3366C99.0889 17.9995 98.2864 17.7972 97.1828 17.7972C95.7449 17.7972 94.4073 18.0669 93.17 18.6062V15.8422C93.705 15.6062 94.3738 15.404 95.2433 15.2692C96.0793 15.1006 96.9153 15.0332 97.7847 15.0332C99.9249 15.0332 101.53 15.4714 102.6 16.3815C103.67 17.2579 104.172 18.5051 104.172 20.1231V27.404H100.661V26.2916C99.6574 27.2692 98.2864 27.7748 96.5809 27.7748C95.143 27.7748 93.9725 27.404 93.0362 26.6624ZM99.2896 24.9096C99.7912 24.6737 100.159 24.3366 100.46 23.9321V22.7186C99.624 22.1456 98.6876 21.8759 97.6844 21.8759C96.9822 21.8759 96.4471 22.0107 96.0793 22.3141C95.7114 22.6175 95.5108 23.022 95.5108 23.595C95.5108 24.1343 95.678 24.5388 96.0458 24.8085C96.4137 25.0781 96.9153 25.2467 97.6175 25.2467C98.2195 25.2467 98.788 25.1456 99.2896 24.9096Z" fill="#031625"/>
<path d="M105.575 15.4043H109.321L111.494 22.8874L113.634 15.4043H116.744L118.885 22.8874L121.025 15.4043H124.77L120.824 27.4043H117.413L115.139 19.9549L112.865 27.4043H109.454L105.575 15.4043Z" fill="#031625"/>
<path d="M126.677 15.404H130.288V16.8871C130.823 16.2804 131.492 15.8085 132.228 15.5051C132.964 15.2017 133.766 15.0332 134.602 15.0332C136.207 15.0332 137.445 15.4714 138.247 16.3478C139.05 17.2242 139.451 18.404 139.451 19.8871V27.404H135.706V20.3253C135.706 18.7748 135.004 17.9995 133.566 17.9995C132.93 17.9995 132.362 18.168 131.793 18.4714C131.258 18.7748 130.79 19.2467 130.422 19.8197V27.404H126.677V15.404Z" fill="#031625"/>
<path d="M144.199 27.4709C143.196 27.2687 142.393 26.999 141.791 26.6619V23.7293C142.46 24.1338 143.229 24.4372 144.166 24.7069C145.102 24.9428 145.938 25.0776 146.741 25.0776C147.409 25.0776 147.911 25.0102 148.212 24.9091C148.513 24.808 148.68 24.572 148.68 24.2687C148.68 24.0327 148.58 23.8305 148.413 23.6619C148.245 23.4934 147.944 23.3585 147.577 23.2237C147.209 23.0889 146.573 22.9203 145.737 22.6507C144.734 22.3473 143.932 22.0439 143.363 21.7406C142.795 21.4372 142.36 21.0327 142.059 20.5945C141.758 20.1226 141.624 19.5158 141.624 18.808C141.624 17.5608 142.126 16.617 143.095 16.0102C144.065 15.3698 145.403 15.0664 147.108 15.0664C147.944 15.0664 148.78 15.1675 149.683 15.3361C150.553 15.5046 151.255 15.7406 151.723 16.0102V18.8754C151.255 18.572 150.62 18.3024 149.85 18.1001C149.081 17.8979 148.346 17.7967 147.61 17.7967C146.941 17.7967 146.406 17.8642 146.038 17.999C145.67 18.1338 145.47 18.3698 145.47 18.7406C145.47 19.0439 145.637 19.3136 146.005 19.4484C146.373 19.617 147.041 19.8192 148.011 20.0889L148.513 20.2237C149.55 20.4934 150.352 20.8305 150.954 21.1675C151.522 21.5046 151.957 21.9091 152.191 22.381C152.425 22.8529 152.559 23.4597 152.559 24.1675C152.559 25.2799 152.091 26.1563 151.155 26.7967C150.218 27.4709 148.847 27.7743 147.075 27.7743C146.172 27.7743 145.236 27.6731 144.199 27.4709Z" fill="#031625"/>
<path d="M156.406 26.5966C155.704 25.8213 155.336 24.7427 155.336 23.3606V18.1359H153.597V15.4056H155.336V11.7988H159.081V15.4056H161.89V18.1359H159.081V22.8887C159.081 23.5966 159.215 24.1022 159.482 24.4056C159.75 24.7089 160.218 24.8775 160.887 24.8775C161.422 24.8775 161.957 24.7426 162.459 24.473V27.3044C161.689 27.6415 160.753 27.8101 159.583 27.8101C158.178 27.7764 157.108 27.3719 156.406 26.5966Z" fill="#031625"/>
<path d="M165.268 26.6624C164.365 25.9208 163.897 24.9096 163.897 23.6287C163.897 22.2804 164.331 21.2692 165.201 20.5276C166.07 19.786 167.308 19.4152 168.913 19.4152C169.615 19.4152 170.317 19.4826 170.953 19.6512C171.588 19.786 172.156 20.022 172.658 20.2916V19.9883C172.658 19.2467 172.39 18.6737 171.855 18.3366C171.32 17.9995 170.518 17.7972 169.414 17.7972C167.976 17.7972 166.639 18.0669 165.401 18.6062V15.8422C165.936 15.6062 166.605 15.404 167.475 15.2692C168.311 15.1006 169.147 15.0332 170.016 15.0332C172.156 15.0332 173.762 15.4714 174.832 16.3815C175.902 17.2579 176.403 18.5051 176.403 20.1231V27.404H172.892V26.2916C171.889 27.2692 170.518 27.7748 168.812 27.7748C167.374 27.7748 166.171 27.404 165.268 26.6624ZM171.488 24.9096C171.989 24.6737 172.357 24.3366 172.658 23.9321V22.7186C171.822 22.1456 170.886 21.8759 169.882 21.8759C169.18 21.8759 168.645 22.0107 168.277 22.3141C167.909 22.6175 167.709 23.022 167.709 23.595C167.709 24.1343 167.876 24.5388 168.244 24.8085C168.612 25.0781 169.113 25.2467 169.816 25.2467C170.451 25.2467 170.986 25.1456 171.488 24.9096Z" fill="#031625"/>
<path d="M179.078 15.4039H182.69V17.123C183.158 16.5499 183.827 16.1117 184.696 15.7746C185.566 15.4713 186.536 15.3027 187.606 15.3027V18.1679C186.469 18.1679 185.466 18.3364 184.596 18.7072C183.727 19.0443 183.125 19.5836 182.79 20.2915V27.3702H179.045V15.4039H179.078Z" fill="#031625"/>
<path d="M78.7565 50.7657C77.352 50.0241 76.2485 48.9792 75.4459 47.5971C74.6768 46.2488 74.2755 44.6308 74.2755 42.7769C74.2755 40.923 74.6768 39.305 75.4459 37.9567C76.215 36.5747 77.3186 35.5297 78.7565 34.7881C80.161 34.0466 81.7996 33.6758 83.6723 33.6758C86.08 33.6758 88.053 34.2151 89.6581 35.3275V38.9342C88.9224 38.3275 88.0864 37.8893 87.1835 37.5859C86.2472 37.3162 85.1771 37.1814 84.0067 37.1814C82.2009 37.1814 80.7964 37.687 79.7263 38.6983C78.6896 39.7095 78.1546 41.0915 78.1546 42.8106C78.1546 44.5634 78.6896 45.9454 79.7263 46.9567C80.7964 47.9679 82.2009 48.4735 83.9732 48.4735C85.2105 48.4735 86.2806 48.3387 87.217 48.0353C88.1533 47.732 89.0228 47.2601 89.8588 46.6196V50.2264C88.3539 51.3724 86.2806 51.9117 83.6723 51.9117C81.7996 51.878 80.161 51.5072 78.7565 50.7657Z" fill="#031625"/>
<path d="M92.9356 50.764C92.0327 50.0224 91.5645 49.0112 91.5645 47.7303C91.5645 46.382 91.9993 45.3707 92.8687 44.6291C93.7382 43.8876 94.9755 43.5168 96.5806 43.5168C97.2829 43.5168 97.9851 43.5842 98.6205 43.7527C99.2559 43.8876 99.8243 44.1235 100.326 44.3932V44.0898C100.326 43.3482 100.058 42.7752 99.5234 42.4381C98.9883 42.1011 98.1858 41.8988 97.0822 41.8988C95.6443 41.8988 94.3067 42.1685 93.0694 42.7078V39.9438C93.6044 39.7078 94.2732 39.5056 95.1427 39.3707C95.9787 39.2022 96.8147 39.1348 97.6842 39.1348C99.8243 39.1348 101.429 39.573 102.5 40.4831C103.57 41.3595 104.071 42.6067 104.071 44.2247V51.5056H100.56V50.3932C99.5568 51.3707 98.1858 51.8763 96.4803 51.8763C95.0089 51.8763 93.8385 51.5056 92.9356 50.764ZM99.1555 49.0449C99.6571 48.8089 100.025 48.4718 100.326 48.0674V46.8539C99.4899 46.2808 98.5536 46.0112 97.5504 46.0112C96.8481 46.0112 96.3131 46.146 95.9452 46.4494C95.5774 46.7527 95.3768 47.1572 95.3768 47.7303C95.3768 48.2696 95.544 48.6741 95.9118 48.9438C96.2797 49.2134 96.7813 49.382 97.4835 49.382C98.1189 49.382 98.6539 49.2808 99.1555 49.0449Z" fill="#031625"/>
<path d="M106.746 39.5388H110.391V40.8534C111.595 39.7073 113.1 39.168 114.839 39.168C116.076 39.168 117.18 39.4376 118.116 39.9433C119.052 40.4826 119.821 41.2241 120.323 42.168C120.858 43.1118 121.126 44.2241 121.126 45.505C121.126 46.7522 120.858 47.8646 120.323 48.8421C119.788 49.8197 119.052 50.5612 118.116 51.1006C117.18 51.6399 116.076 51.9095 114.839 51.9095C114.003 51.9095 113.2 51.7747 112.431 51.5388C111.662 51.3028 111.027 50.932 110.492 50.4601V56.9994H106.746V39.5388ZM116.377 47.9994C117.012 47.359 117.347 46.55 117.347 45.505C117.347 44.4601 117.012 43.6511 116.377 43.0444C115.742 42.4376 114.906 42.1343 113.902 42.1343C113.133 42.1343 112.431 42.3365 111.829 42.7747C111.227 43.1792 110.792 43.7522 110.525 44.4264V46.6848C110.759 47.3927 111.194 47.932 111.829 48.3702C112.465 48.7747 113.133 49.0107 113.936 49.0107C114.906 48.9432 115.742 48.6399 116.377 47.9994Z" fill="#031625"/>
<path d="M123.633 37.1125C123.232 36.7417 123.031 36.2361 123.031 35.6631C123.031 35.0901 123.232 34.6182 123.633 34.2137C124.035 33.8092 124.503 33.6406 125.105 33.6406C125.673 33.6406 126.175 33.8429 126.576 34.2137C126.977 34.5844 127.178 35.0901 127.178 35.6631C127.178 36.2361 126.977 36.7417 126.576 37.1125C126.175 37.4833 125.707 37.6856 125.105 37.6856C124.536 37.6856 124.035 37.4833 123.633 37.1125ZM123.232 39.5395H127.011V51.5395H123.232V39.5395Z" fill="#031625"/>
<path d="M132.595 50.7299C131.893 49.9546 131.525 48.876 131.525 47.4939V42.2355H129.786V39.5052H131.525V35.8984H135.27V39.5052H138.079V42.2355H135.27V46.9883C135.27 47.6962 135.404 48.2018 135.672 48.5052C135.939 48.8086 136.407 48.9771 137.076 48.9771C137.611 48.9771 138.146 48.8423 138.648 48.5726V51.4041C137.879 51.7411 136.942 51.9097 135.772 51.9097C134.368 51.876 133.297 51.5052 132.595 50.7299Z" fill="#031625"/>
<path d="M141.456 50.764C140.553 50.0224 140.085 49.0112 140.085 47.7303C140.085 46.382 140.52 45.3707 141.389 44.6291C142.259 43.8876 143.496 43.5168 145.101 43.5168C145.803 43.5168 146.506 43.5842 147.141 43.7527C147.776 43.8876 148.345 44.1235 148.846 44.3932V44.0898C148.846 43.3482 148.579 42.7752 148.044 42.4381C147.509 42.1011 146.706 41.8988 145.603 41.8988C144.165 41.8988 142.827 42.1685 141.59 42.7078V39.9438C142.125 39.7078 142.794 39.5056 143.663 39.3707C144.499 39.2022 145.335 39.1348 146.205 39.1348C148.345 39.1348 149.95 39.573 151.02 40.4831C152.09 41.3595 152.592 42.6067 152.592 44.2247V51.5056H149.081V50.3932C148.077 51.3707 146.706 51.8763 145.001 51.8763C143.563 51.8763 142.392 51.5056 141.456 50.764ZM147.676 49.0449C148.178 48.8089 148.546 48.4718 148.846 48.0674V46.8539C148.01 46.2808 147.074 46.0112 146.071 46.0112C145.369 46.0112 144.834 46.146 144.466 46.4494C144.098 46.7527 143.897 47.1572 143.897 47.7303C143.897 48.2696 144.064 48.6741 144.432 48.9438C144.8 49.2134 145.302 49.382 146.004 49.382C146.639 49.382 147.208 49.2808 147.676 49.0449Z" fill="#031625"/>
<path d="M155.302 33.0684H159.047V51.5403H155.302V33.0684Z" fill="#031625"/>
<path d="M31.3381 0.236328H11.14C5.1876 0.236328 0.372162 5.35992 0.372162 11.6633V29.0903C0.372162 40.1127 13.1464 45.3037 20.1021 37.1127C21.3059 35.6296 21.1722 33.3712 19.8011 32.0566L15.7882 28.2139C14.9188 27.3712 15.387 25.8543 16.5574 25.7195L23.2789 24.9779C24.4828 24.8431 25.5529 24.0341 26.0545 22.8543L28.7966 16.2813C29.2648 15.1352 30.803 15.1352 31.2712 16.2813L34.0133 22.8543C34.5149 24.0341 35.5516 24.8768 36.7889 24.9779L43.5104 25.7195C44.6808 25.8543 45.149 27.4049 44.2796 28.2139L39.23 33.0341C38.3271 33.9105 37.9259 35.2251 38.1599 36.506L39.5644 43.5509C39.7985 44.7644 38.5612 45.7082 37.558 45.1015L32.1741 41.7981C30.8699 40.9891 29.2313 41.1914 28.1278 42.27L24.048 46.2476C16.8249 53.3262 21.54 66.1015 31.3381 66.1015H32.0738C48.794 66.1015 62.2706 51.8094 62.2706 34.1464V33.1689C62.3374 15.0004 48.4596 0.236328 31.3381 0.236328Z" fill="url(#paint0_linear_0_19)"/>
<defs>
<linearGradient id="paint0_linear_0_19" x1="9.97043" y1="48.8628" x2="51.2785" y2="7.88238" gradientUnits="userSpaceOnUse">
<stop stop-color="#034AFE"/>
<stop offset="0.9" stop-color="#38E0F4"/>
</linearGradient>
</defs>
</svg>
