<svg width="150" height="54" viewBox="0 0 150 54" fill="none" xmlns="http://www.w3.org/2000/svg">
<path d="M59.8369 8.52783H64.6118C66.0974 8.52783 67.3972 8.79749 68.5114 9.36379C69.6255 9.93008 70.4744 10.7121 71.0845 11.7638C71.6946 12.8155 71.9864 14.029 71.9864 15.4312C71.9864 17.7503 71.3233 19.5031 69.9969 20.6896C68.6705 21.8761 66.8136 22.4694 64.4527 22.4694H59.8369V8.52783ZM64.6118 19.9615C66.0178 19.9615 67.0789 19.557 67.8482 18.775C68.5909 17.966 68.9623 16.8604 68.9623 15.4582C68.9623 14.6222 68.8032 13.8672 68.4583 13.193C68.14 12.5188 67.6625 12.0065 67.0258 11.629C66.3892 11.2514 65.6464 11.0627 64.7975 11.0627H62.808V19.9615H64.6118Z" fill="white"/>
<path d="M74.322 21.9303C73.6058 21.3371 73.2344 20.5281 73.2344 19.5034C73.2344 18.4247 73.5792 17.6157 74.2689 17.0225C74.9587 16.4292 75.9402 16.1326 77.2135 16.1326C77.7706 16.1326 78.3276 16.1865 78.8316 16.3213C79.3357 16.4292 79.7866 16.618 80.1845 16.8337V16.591C80.1845 15.9977 79.9723 15.5393 79.5479 15.2697C79.1234 15 78.4868 14.8382 77.6114 14.8382C76.4707 14.8382 75.4096 15.0539 74.4281 15.4854V13.2741C74.8525 13.0854 75.3831 12.9236 76.0728 12.8157C76.736 12.6809 77.3992 12.627 78.0889 12.627C79.7866 12.627 81.0599 12.9775 81.9088 13.7056C82.7577 14.4067 83.1556 15.4045 83.1556 16.6989V22.5236H80.3702V21.6337C79.5744 22.4157 78.4868 22.8202 77.1339 22.8202C75.9932 22.8202 75.0648 22.5236 74.322 21.9303ZM79.2826 20.5281C79.6805 20.3393 79.9723 20.0697 80.2111 19.7461V18.7753C79.5479 18.3168 78.8051 18.1011 78.0093 18.1011C77.4522 18.1011 77.0278 18.209 76.736 18.4517C76.4442 18.6944 76.285 19.018 76.285 19.4764C76.285 19.9079 76.4177 20.2314 76.7095 20.4472C77.0013 20.6629 77.3992 20.7977 77.9562 20.7977C78.4337 20.7977 78.8847 20.7168 79.2826 20.5281Z" fill="white"/>
<path d="M84.2686 12.9233H87.2396L88.9639 18.9099L90.6616 12.9233H93.1287L94.8264 18.9099L96.5242 12.9233H99.4952L96.365 22.5233H93.6592L91.8554 16.5638L90.0515 22.5233H87.3457L84.2686 12.9233Z" fill="white"/>
<path d="M101.008 12.9236H103.873V14.1101C104.297 13.6247 104.828 13.2472 105.411 13.0045C105.995 12.7618 106.632 12.627 107.295 12.627C108.568 12.627 109.55 12.9775 110.186 13.6786C110.823 14.3798 111.141 15.3236 111.141 16.5101V22.5236H108.17V16.8607C108.17 15.6202 107.613 15 106.472 15C105.968 15 105.517 15.1348 105.066 15.3775C104.642 15.6202 104.271 15.9977 103.979 16.4562V22.5236H101.008V12.9236Z" fill="white"/>
<path d="M114.908 22.5774C114.112 22.4156 113.475 22.1999 112.998 21.9302V19.5841C113.528 19.9077 114.139 20.1504 114.881 20.3662C115.624 20.5549 116.287 20.6628 116.924 20.6628C117.454 20.6628 117.852 20.6089 118.091 20.528C118.33 20.4471 118.462 20.2583 118.462 20.0156C118.462 19.8268 118.383 19.665 118.25 19.5302C118.118 19.3954 117.879 19.2875 117.587 19.1797C117.295 19.0718 116.791 18.937 116.128 18.7212C115.332 18.4785 114.696 18.2358 114.245 17.9931C113.794 17.7504 113.449 17.4268 113.21 17.0763C112.971 16.6988 112.865 16.2134 112.865 15.6471C112.865 14.6493 113.263 13.8943 114.032 13.4089C114.802 12.8965 115.863 12.6538 117.216 12.6538C117.879 12.6538 118.542 12.7347 119.258 12.8695C119.948 13.0044 120.505 13.1931 120.876 13.4089V15.701C120.505 15.4583 120.001 15.2426 119.391 15.0808C118.781 14.919 118.197 14.8381 117.614 14.8381C117.083 14.8381 116.659 14.892 116.367 14.9999C116.075 15.1077 115.916 15.2965 115.916 15.5931C115.916 15.8358 116.049 16.0516 116.34 16.1594C116.632 16.2943 117.163 16.4561 117.932 16.6718L118.33 16.7797C119.152 16.9954 119.789 17.265 120.266 17.5347C120.717 17.8044 121.062 18.128 121.248 18.5055C121.434 18.883 121.54 19.3684 121.54 19.9347C121.54 20.8246 121.168 21.5257 120.426 22.0381C119.683 22.5774 118.595 22.8201 117.189 22.8201C116.473 22.8201 115.73 22.7392 114.908 22.5774Z" fill="white"/>
<path d="M124.591 21.8763C124.034 21.2561 123.742 20.3931 123.742 19.2875V15.1077H122.362V12.9235H123.742V10.0381H126.713V12.9235H128.941V15.1077H126.713V18.91C126.713 19.4763 126.819 19.8808 127.031 20.1235C127.243 20.3662 127.615 20.501 128.145 20.501C128.57 20.501 128.994 20.3931 129.392 20.1774V22.4426C128.782 22.7122 128.039 22.8471 127.111 22.8471C125.997 22.8201 125.148 22.4965 124.591 21.8763Z" fill="white"/>
<path d="M131.621 21.9303C130.905 21.3371 130.533 20.5281 130.533 19.5034C130.533 18.4247 130.878 17.6157 131.568 17.0225C132.257 16.4292 133.239 16.1326 134.512 16.1326C135.069 16.1326 135.626 16.1865 136.13 16.3213C136.634 16.4292 137.085 16.618 137.483 16.8337V16.591C137.483 15.9977 137.271 15.5393 136.847 15.2697C136.422 15 135.786 14.8382 134.91 14.8382C133.77 14.8382 132.708 15.0539 131.727 15.4854V13.2741C132.151 13.0854 132.682 12.9236 133.372 12.8157C134.035 12.6809 134.698 12.627 135.388 12.627C137.085 12.627 138.359 12.9775 139.208 13.7056C140.057 14.4067 140.454 15.4045 140.454 16.6989V22.5236H137.669V21.6337C136.873 22.4157 135.786 22.8202 134.433 22.8202C133.292 22.8202 132.337 22.5236 131.621 21.9303ZM136.555 20.5281C136.953 20.3393 137.245 20.0697 137.483 19.7461V18.7753C136.82 18.3168 136.077 18.1011 135.282 18.1011C134.725 18.1011 134.3 18.209 134.008 18.4517C133.716 18.6944 133.557 19.018 133.557 19.4764C133.557 19.9079 133.69 20.2314 133.982 20.4472C134.274 20.6629 134.671 20.7977 135.229 20.7977C135.733 20.7977 136.157 20.7168 136.555 20.5281Z" fill="white"/>
<path d="M142.576 12.9232H145.441V14.2985C145.813 13.84 146.343 13.4895 147.033 13.2198C147.723 12.9771 148.492 12.8423 149.341 12.8423V15.1344C148.439 15.1344 147.643 15.2693 146.953 15.5659C146.264 15.8355 145.786 16.267 145.521 16.8333V22.4962H142.55V12.9232H142.576Z" fill="white"/>
<path d="M62.9941 41.211C61.88 40.6177 61.0046 39.7818 60.3679 38.6761C59.7578 37.5975 59.4395 36.3031 59.4395 34.82C59.4395 33.3368 59.7578 32.0424 60.3679 30.9638C60.978 29.8582 61.8534 29.0222 62.9941 28.429C64.1083 27.8357 65.4081 27.5391 66.8936 27.5391C68.8036 27.5391 70.3687 27.9705 71.642 28.8604V31.7458C71.0584 31.2604 70.3952 30.9099 69.679 30.6672C68.9362 30.4514 68.0874 30.3436 67.1589 30.3436C65.7264 30.3436 64.6123 30.7481 63.7634 31.557C62.9411 32.366 62.5166 33.4716 62.5166 34.8469C62.5166 36.2492 62.9411 37.3548 63.7634 38.1638C64.6123 38.9728 65.7264 39.3773 67.1324 39.3773C68.1139 39.3773 68.9628 39.2694 69.7055 39.0267C70.4483 38.784 71.138 38.4065 71.8012 37.8941V40.7795C70.6075 41.6964 68.9628 42.1278 66.8936 42.1278C65.4081 42.1009 64.1083 41.8042 62.9941 41.211Z" fill="white"/>
<path d="M74.2419 41.2111C73.5257 40.6178 73.1543 39.8088 73.1543 38.7841C73.1543 37.7055 73.4992 36.8965 74.1889 36.3032C74.8786 35.71 75.8601 35.4133 77.1334 35.4133C77.6905 35.4133 78.2475 35.4673 78.7516 35.6021C79.2556 35.71 79.7065 35.8987 80.1045 36.1145V35.8718C80.1045 35.2785 79.8922 34.8201 79.4678 34.5504C79.0434 34.2807 78.4067 34.119 77.5313 34.119C76.3906 34.119 75.3295 34.3347 74.348 34.7661V32.5549C74.7725 32.3661 75.303 32.2043 75.9927 32.0965C76.6559 31.9616 77.3191 31.9077 78.0088 31.9077C79.7065 31.9077 80.9799 32.2583 81.8287 32.9864C82.6776 33.6875 83.0755 34.6852 83.0755 35.9796V41.8043H80.2902V40.9145C79.4943 41.6965 78.4067 42.101 77.0538 42.101C75.8866 42.101 74.9582 41.8043 74.2419 41.2111ZM79.176 39.8358C79.5739 39.647 79.8657 39.3774 80.1045 39.0538V38.083C79.4413 37.6246 78.6985 37.4088 77.9027 37.4088C77.3456 37.4088 76.9212 37.5167 76.6294 37.7594C76.3376 38.0021 76.1784 38.3257 76.1784 38.7841C76.1784 39.2156 76.3111 39.5392 76.6029 39.7549C76.8947 39.9706 77.2926 40.1055 77.8496 40.1055C78.3537 40.1055 78.7781 40.0246 79.176 39.8358Z" fill="white"/>
<path d="M85.1973 32.2312H88.0887V33.2829C89.0437 32.366 90.2375 31.9346 91.6169 31.9346C92.5984 31.9346 93.4738 32.1503 94.2166 32.5548C94.9593 32.9863 95.5695 33.5795 95.9674 34.3346C96.3918 35.0896 96.604 35.9795 96.604 37.0042C96.604 38.002 96.3918 38.8919 95.9674 39.6739C95.5429 40.4559 94.9593 41.0492 94.2166 41.4806C93.4738 41.9121 92.5984 42.1278 91.6169 42.1278C90.9537 42.1278 90.317 42.02 89.7069 41.8312C89.0968 41.6424 88.5928 41.3458 88.1683 40.9683V46.1997H85.1973V32.2312ZM92.8371 38.9997C93.3412 38.4874 93.6064 37.8402 93.6064 37.0042C93.6064 36.1683 93.3412 35.5211 92.8371 35.0357C92.3331 34.5503 91.6699 34.3076 90.8741 34.3076C90.264 34.3076 89.7069 34.4694 89.2294 34.82C88.7519 35.1436 88.4071 35.602 88.1949 36.1413V37.9481C88.3805 38.5143 88.7254 38.9458 89.2294 39.2964C89.7334 39.62 90.264 39.8087 90.9006 39.8087C91.6699 39.7548 92.3331 39.5121 92.8371 38.9997Z" fill="white"/>
<path d="M98.5937 30.2897C98.2754 29.9931 98.1162 29.5886 98.1162 29.1302C98.1162 28.6718 98.2754 28.2942 98.5937 27.9706C98.912 27.647 99.2834 27.5122 99.7609 27.5122C100.212 27.5122 100.61 27.674 100.928 27.9706C101.246 28.2673 101.406 28.6718 101.406 29.1302C101.406 29.5886 101.246 29.9931 100.928 30.2897C100.61 30.5864 100.238 30.7482 99.7609 30.7482C99.31 30.7482 98.912 30.5864 98.5937 30.2897ZM98.2754 32.2313H101.273V41.8313H98.2754V32.2313Z" fill="white"/>
<path d="M105.703 41.184C105.146 40.5638 104.854 39.7009 104.854 38.5953V34.3885H103.475V32.2042H104.854V29.3188H107.825V32.2042H110.053V34.3885H107.825V38.1908C107.825 38.757 107.931 39.1615 108.143 39.4042C108.356 39.6469 108.727 39.7818 109.258 39.7818C109.682 39.7818 110.106 39.6739 110.504 39.4582V41.7233C109.894 41.993 109.151 42.1278 108.223 42.1278C107.109 42.1009 106.26 41.8042 105.703 41.184Z" fill="white"/>
<path d="M112.732 41.2111C112.016 40.6178 111.645 39.8088 111.645 38.7841C111.645 37.7055 111.989 36.8965 112.679 36.3032C113.369 35.71 114.35 35.4133 115.624 35.4133C116.181 35.4133 116.738 35.4673 117.242 35.6021C117.746 35.71 118.197 35.8987 118.595 36.1145V35.8718C118.595 35.2785 118.382 34.8201 117.958 34.5504C117.534 34.2807 116.897 34.119 116.022 34.119C114.881 34.119 113.82 34.3347 112.838 34.7661V32.5549C113.263 32.3661 113.793 32.2043 114.483 32.0965C115.146 31.9616 115.809 31.9077 116.499 31.9077C118.197 31.9077 119.47 32.2583 120.319 32.9864C121.168 33.6875 121.566 34.6852 121.566 35.9796V41.8043H118.78V40.9145C117.985 41.6965 116.897 42.101 115.544 42.101C114.403 42.101 113.475 41.8043 112.732 41.2111ZM117.666 39.8358C118.064 39.647 118.356 39.3774 118.595 39.0538V38.083C117.932 37.6246 117.189 37.4088 116.393 37.4088C115.836 37.4088 115.411 37.5167 115.12 37.7594C114.828 38.0021 114.669 38.3257 114.669 38.7841C114.669 39.2156 114.801 39.5392 115.093 39.7549C115.385 39.9706 115.783 40.1055 116.34 40.1055C116.844 40.1055 117.295 40.0246 117.666 39.8358Z" fill="white"/>
<path d="M123.715 27.0537H126.686V41.8312H123.715V27.0537Z" fill="white"/>
<path d="M25.3788 0.788574H9.35625C4.63439 0.788574 0.814453 4.88745 0.814453 9.93015V23.8717C0.814453 32.6897 10.9479 36.8425 16.4656 30.2897C17.4206 29.1032 17.3145 27.2964 16.2268 26.2448L13.0436 23.1706C12.3538 22.4964 12.7252 21.283 13.6537 21.1751L18.9857 20.5818C19.9407 20.474 20.7895 19.8268 21.1874 18.883L23.3627 13.6245C23.7341 12.7077 24.9543 12.7077 25.3257 13.6245L27.501 18.883C27.8989 19.8268 28.7212 20.5009 29.7027 20.5818L35.0347 21.1751C35.9632 21.283 36.3346 22.5234 35.6448 23.1706L31.6392 27.0268C30.923 27.7279 30.6046 28.7796 30.7903 29.8043L31.9045 35.4403C32.0902 36.4111 31.1087 37.1661 30.3128 36.6807L26.0419 34.038C25.0074 33.3908 23.7075 33.5526 22.8321 34.4155L19.5958 37.5976C13.8659 43.2605 17.6063 53.4807 25.3788 53.4807H25.9624C39.226 53.4807 49.9165 42.047 49.9165 27.9167V27.1346C49.9696 12.5998 38.9608 0.788574 25.3788 0.788574Z" fill="url(#paint0_linear_61_1222)"/>
<defs>
<linearGradient id="paint0_linear_61_1222" x1="8.42846" y1="39.6897" x2="41.4715" y2="7.18459" gradientUnits="userSpaceOnUse">
<stop stop-color="#034AFE"/>
<stop offset="0.9" stop-color="#38E0F4"/>
</linearGradient>
</defs>
</svg>
