<svg width="30" height="250" fill="none" xmlns="http://www.w3.org/2000/svg"><path fill="#563275" d="M30 23H4V0h26z"/><path fill="#A05ADD" d="M25 23H0V0h25z"/><path fill="#563275" d="M30 70H4V47h26z"/><path fill="#A05ADD" d="M25 70H0V47h25z"/><path fill="#563275" d="M30 117H4V94h26z"/><path fill="#A05ADD" d="M25 117H0V94h25z"/><path fill="#563275" d="M30 164H4v-23h26z"/><path fill="#A05ADD" d="M25 164H0v-23h25z"/><path fill="#563275" d="M30 207H4v-23h26z"/><path fill="#A05ADD" d="M25 207H0v-23h25z"/><path fill="#563275" d="M30 250H4v-23h26z"/><path fill="#A05ADD" d="M25 250H0v-23h25z"/></svg>