<svg width="340" height="262" viewBox="0 0 340 262" fill="none" xmlns="http://www.w3.org/2000/svg">
<g clip-path="url(#clip0_562_9752)">
<circle cx="163" cy="141" r="101" fill="url(#paint0_linear_562_9752)" stroke="#CFE8FF" stroke-width="2" stroke-linecap="round" stroke-dasharray="7 0"/>
<circle cx="163" cy="141" r="56" fill="url(#paint1_linear_562_9752)" stroke="#CFE8FF" stroke-width="2" stroke-linecap="square" stroke-dasharray="1 10"/>
<path d="M105.5 181.02L143.564 160.343C145.079 159.52 146.912 159.535 148.413 160.385L215.928 198.584C217.497 199.471 218.466 201.134 218.466 202.935V230.72C218.466 232.459 217.562 234.074 216.079 234.983L180.002 257.099C179.34 257.505 178.488 257.034 178.479 256.258L178.163 229.52L175.5 222.52L105.5 181.02Z" fill="url(#paint2_linear_562_9752)"/>
<path d="M104 183.795C104 181.034 105.939 179.914 108.33 181.295L176.649 220.739C179.041 222.12 180.98 225.478 180.98 228.239L180.98 254.529C180.98 257.291 179.041 258.41 176.649 257.029L108.33 217.585C105.939 216.204 104 212.847 104 210.085L104 183.795Z" fill="url(#paint3_linear_562_9752)"/>
<rect width="52.7417" height="5.86019" rx="2.9301" transform="matrix(-0.866025 -0.5 2.20305e-08 -1 160.609 232.228)" fill="white"/>
<circle r="2.9301" transform="matrix(-0.866025 -0.5 2.20305e-08 -1 168.222 233.693)" fill="white"/>
<path d="M105.5 140.51L143.564 119.833C145.079 119.01 146.912 119.026 148.413 119.875L215.928 158.074C217.497 158.961 218.466 160.624 218.466 162.426V190.21C218.466 191.95 217.562 193.564 216.079 194.473L180.002 216.589C179.34 216.995 178.488 216.525 178.479 215.748L178.163 189.01L175.5 182.01L105.5 140.51Z" fill="url(#paint4_linear_562_9752)"/>
<path d="M104 143.285C104 140.524 105.939 139.405 108.33 140.785L176.649 180.229C179.041 181.61 180.98 184.968 180.98 187.729L180.98 214.02C180.98 216.781 179.041 217.9 176.649 216.52L108.33 177.075C105.939 175.695 104 172.337 104 169.575L104 143.285Z" fill="url(#paint5_linear_562_9752)"/>
<rect width="52.7417" height="5.86019" rx="2.9301" transform="matrix(-0.866025 -0.5 2.20305e-08 -1 160.609 191.718)" fill="white"/>
<circle r="2.9301" transform="matrix(-0.866025 -0.5 2.20305e-08 -1 168.222 193.183)" fill="white"/>
<path d="M105.5 100L143.564 79.3233C145.079 78.5001 146.912 78.5159 148.413 79.3651L215.928 117.564C217.497 118.451 218.466 120.114 218.466 121.916V149.7C218.466 151.44 217.562 153.054 216.079 153.963L180.002 176.079C179.34 176.485 178.488 176.015 178.479 175.239L178.163 148.5L175.5 141.5L105.5 100Z" fill="url(#paint6_linear_562_9752)"/>
<path d="M104 102.776C104 100.014 105.939 98.8948 108.33 100.276L176.649 139.72C179.041 141.1 180.98 144.458 180.98 147.22L180.98 173.51C180.98 176.271 179.041 177.391 176.649 176.01L108.33 136.566C105.939 135.185 104 131.827 104 129.066L104 102.776Z" fill="url(#paint7_linear_562_9752)"/>
<rect width="52.7417" height="5.86019" rx="2.9301" transform="matrix(-0.866025 -0.5 2.20305e-08 -1 160.609 151.208)" fill="white"/>
<circle r="2.9301" transform="matrix(-0.866025 -0.5 2.20305e-08 -1 168.222 152.673)" fill="white"/>
<path d="M296.044 133.219C298.144 135.108 299.701 137.209 300.665 139.521L299.742 139.906C299.978 140.472 300.176 141.051 300.335 141.644C300.494 142.236 300.612 142.837 300.691 143.445L301.682 143.317C302.004 145.801 301.706 148.4 300.831 151.085L299.88 150.775C299.509 151.914 299.028 153.076 298.437 154.259L299.331 154.706C298.25 156.87 296.825 159.081 295.077 161.325L294.288 160.71C293.522 161.693 292.692 162.684 291.799 163.682L292.544 164.349C290.894 166.192 289.038 168.053 286.986 169.926L286.312 169.187C285.378 170.04 284.401 170.896 283.384 171.754L284.029 172.518C282.109 174.138 280.048 175.764 277.853 177.392L277.257 176.589C276.228 177.352 275.168 178.116 274.079 178.879L274.653 179.698C272.571 181.159 270.384 182.619 268.096 184.076L267.559 183.232C266.476 183.922 265.37 184.611 264.241 185.299L264.762 186.152C262.571 187.488 260.298 188.819 257.945 190.144L257.455 189.273C256.334 189.904 255.195 190.533 254.039 191.161L254.516 192.04C252.251 193.27 249.919 194.492 247.523 195.706L247.071 194.814C245.92 195.397 244.754 195.978 243.574 196.557L244.014 197.455C241.694 198.592 239.319 199.721 236.89 200.839L236.472 199.931C235.295 200.473 234.106 201.012 232.904 201.549L233.312 202.462C230.949 203.518 228.539 204.564 226.084 205.598L225.696 204.676C224.495 205.181 223.284 205.684 222.063 206.184L222.441 207.109C220.042 208.091 217.603 209.061 215.125 210.018L214.765 209.086C213.547 209.556 212.319 210.024 211.083 210.488L211.434 211.424C209.001 212.338 206.533 213.24 204.032 214.127L203.697 213.185C202.473 213.619 201.241 214.05 200.002 214.478L200.328 215.423C197.867 216.272 195.377 217.108 192.858 217.928L192.548 216.978C191.306 217.382 190.057 217.784 188.801 218.181L189.102 219.135C186.619 219.921 184.109 220.693 181.574 221.449L181.288 220.491C180.038 220.864 178.782 221.233 177.519 221.599L177.797 222.559C175.292 223.285 172.763 223.995 170.213 224.69L169.95 223.725C169.316 223.897 168.681 224.069 168.044 224.239C167.408 224.41 166.772 224.579 166.136 224.747L166.391 225.714C163.836 226.387 161.291 227.036 158.758 227.661L158.518 226.69C157.242 227.005 155.97 227.313 154.7 227.615L154.932 228.588C152.359 229.2 149.799 229.787 147.255 230.348L147.04 229.371C145.753 229.655 144.471 229.932 143.192 230.202L143.399 231.181C140.808 231.729 138.233 232.251 135.678 232.746L135.488 231.765C134.2 232.014 132.918 232.257 131.641 232.492L131.822 233.476C129.212 233.958 126.624 234.411 124.06 234.836L123.896 233.85C122.593 234.066 121.297 234.275 120.006 234.476L120.16 235.464C117.536 235.874 114.939 236.253 112.37 236.603L112.235 235.612C110.927 235.79 109.627 235.96 108.335 236.123L108.46 237.115C105.817 237.447 103.207 237.747 100.632 238.014L100.529 237.019C99.2198 237.155 97.92 237.283 96.6298 237.402L96.7217 238.397C94.0594 238.643 91.4378 238.853 88.86 239.028L88.7923 238.031C87.4808 238.119 86.1808 238.199 84.8927 238.27L84.9474 239.268C82.2655 239.415 79.6345 239.522 77.0582 239.59L77.032 238.59C75.7164 238.625 74.4153 238.649 73.1292 238.663L73.1399 239.663C70.4402 239.692 67.8056 239.675 65.2406 239.614L65.2646 238.614C63.9434 238.583 62.6411 238.539 61.3582 238.483L61.3149 239.482C58.6052 239.365 55.9806 239.194 53.4473 238.97L53.5354 237.974C52.2103 237.857 50.9109 237.725 49.6379 237.579L49.5239 238.573C46.8085 238.261 44.2103 237.883 41.7377 237.44L41.914 236.456C40.6042 236.221 39.3308 235.968 38.0952 235.697L37.8808 236.674C35.1674 236.078 32.6293 235.394 30.2794 234.623L30.5913 233.672C29.3183 233.255 28.1039 232.811 26.9497 232.343L26.5738 233.27C23.9377 232.201 21.5983 230.999 19.5797 229.665L20.1309 228.831C19.0277 228.102 18.0297 227.337 17.139 226.536L16.4704 227.279C14.3701 225.391 12.8129 223.29 11.8489 220.978L12.7719 220.593C12.5359 220.027 12.3381 219.447 12.1794 218.855C12.0206 218.262 11.9022 217.662 11.8236 217.053L10.8318 217.182C10.5105 214.697 10.8085 212.099 11.6832 209.413L12.6341 209.723C13.005 208.584 13.4866 207.422 14.0776 206.24L13.183 205.793C14.2644 203.628 15.6895 201.418 17.4378 199.174L18.2266 199.788C18.9921 198.806 19.8222 197.815 20.7157 196.816L19.9705 196.149C21.6199 194.306 23.4761 192.445 25.528 190.573L26.2021 191.311C27.1365 190.458 28.1127 189.603 29.1298 188.744L28.4849 187.98C30.4048 186.36 32.466 184.734 34.6618 183.106L35.2573 183.91C36.2866 183.147 37.3461 182.383 38.4351 181.619L37.8608 180.8C39.9428 179.34 42.1303 177.88 44.4182 176.423L44.9553 177.267C46.0384 176.577 47.1444 175.888 48.2727 175.2L47.7522 174.346C49.9428 173.011 52.2163 171.679 54.5689 170.354L55.0595 171.226C56.1802 170.595 57.3191 169.965 58.4757 169.337L57.9986 168.458C60.2635 167.229 62.5956 166.006 64.9916 164.792L65.4435 165.684C66.5943 165.101 67.76 164.52 68.9402 163.942L68.5 163.044C70.8198 161.906 73.1954 160.777 75.6239 159.659L76.0421 160.567C77.219 160.026 78.4084 159.486 79.6101 158.949L79.2022 158.036C81.5655 156.98 83.9757 155.935 86.4306 154.901L86.8187 155.823C88.019 155.317 89.2301 154.814 90.4516 154.315L90.073 153.389C92.4723 152.408 94.9117 151.437 97.3891 150.48L97.7496 151.413C98.9677 150.942 100.195 150.475 101.431 150.01L101.08 149.074C103.513 148.16 105.982 147.259 108.483 146.371L108.817 147.314C110.041 146.879 111.273 146.448 112.513 146.02L112.187 145.075C114.647 144.226 117.137 143.391 119.656 142.57L119.966 143.521C121.208 143.116 122.458 142.715 123.714 142.317L123.412 141.364C125.896 140.578 128.405 139.806 130.94 139.05L131.226 140.008C132.476 139.635 133.733 139.265 134.995 138.9L134.717 137.939C137.223 137.214 139.751 136.503 142.301 135.809L142.564 136.774C143.198 136.601 143.833 136.43 144.47 136.259C145.107 136.088 145.743 135.919 146.378 135.752L146.123 134.785C148.679 134.111 151.224 133.462 153.757 132.838L153.996 133.809C155.272 133.494 156.545 133.186 157.814 132.884L157.583 131.911C160.156 131.299 162.715 130.712 165.259 130.151L165.475 131.128C166.761 130.844 168.044 130.567 169.322 130.296L169.115 129.318C171.707 128.769 174.281 128.247 176.836 127.752L177.027 128.734C178.314 128.485 179.596 128.242 180.874 128.006L180.692 127.023C183.302 126.541 185.89 126.087 188.454 125.662L188.618 126.649C189.921 126.433 191.218 126.224 192.508 126.023L192.354 125.035C194.978 124.625 197.576 124.245 200.144 123.896L200.279 124.886C201.587 124.708 202.887 124.538 204.179 124.376L204.055 123.384C206.697 123.052 209.308 122.752 211.882 122.485L211.985 123.479C213.294 123.343 214.594 123.216 215.884 123.097L215.793 122.101C218.455 121.855 221.076 121.645 223.654 121.47L223.722 122.468C225.033 122.379 226.333 122.299 227.622 122.229L227.567 121.23C230.249 121.083 232.88 120.976 235.456 120.909L235.482 121.908C236.798 121.874 238.099 121.85 239.385 121.836L239.374 120.836C242.074 120.807 244.709 120.823 247.274 120.885L247.25 121.884C248.571 121.916 249.873 121.96 251.156 122.015L251.199 121.016C253.909 121.134 256.534 121.305 259.067 121.528L258.979 122.525C260.304 122.642 261.603 122.773 262.876 122.919L262.99 121.926C265.706 122.238 268.304 122.615 270.777 123.058L270.6 124.043C271.91 124.277 273.183 124.53 274.419 124.802L274.634 123.825C277.347 124.421 279.885 125.105 282.235 125.876L281.923 126.826C283.196 127.244 284.41 127.687 285.565 128.155L285.94 127.229C288.577 128.298 290.916 129.5 292.935 130.833L292.383 131.668C293.487 132.397 294.485 133.162 295.375 133.963L296.044 133.219Z" stroke="url(#paint8_linear_562_9752)" stroke-opacity="0.72" stroke-width="2" stroke-dasharray="4 8"/>
<path d="M305.324 211.209C303.786 216.947 298.382 221.567 289.459 224.868C280.565 228.159 268.398 230.05 253.781 230.478C224.561 231.332 185.789 226.328 144.409 215.241C103.028 204.153 66.9493 189.1 42.0712 173.75C29.6264 166.072 20.0349 158.35 13.9782 151.054C7.90088 143.732 5.53087 137.03 7.0684 131.292C8.60593 125.554 14.0097 120.934 22.9334 117.632C31.8269 114.342 43.9943 112.45 58.6108 112.023C87.8307 111.169 126.603 116.172 167.983 127.26C209.364 138.348 245.443 153.401 270.321 168.751C282.766 176.429 292.357 184.151 298.414 191.447C304.491 198.768 306.861 205.471 305.324 211.209Z" stroke="url(#paint9_linear_562_9752)" stroke-width="2"/>
<path d="M296 69L298.431 75.5692L305 78L298.431 80.4308L296 87L293.569 80.4308L287 78L293.569 75.5692L296 69Z" fill="#2595FF"/>
<path d="M277 189L278.621 193.379L283 195L278.621 196.62L277 201L275.379 196.62L271 195L275.379 193.379L277 189Z" fill="#CFE8FF"/>
<path d="M50 34L51.6205 38.3795L56 40L51.6205 41.6205L50 46L48.3795 41.6205L44 40L48.3795 38.3795L50 34Z" fill="#CFE8FF"/>
<circle cx="196.5" cy="45.5" r="5.5" fill="#2595FF"/>
<circle cx="22.5" cy="158.5" r="5.5" fill="#40FFC6"/>
<circle cx="278.333" cy="232.333" r="26.3333" fill="url(#paint10_linear_562_9752)"/>
<circle cx="278.333" cy="232.333" r="26.3333" fill="url(#paint11_radial_562_9752)"/>
<circle cx="278.333" cy="232.333" r="26.3333" fill="url(#paint12_radial_562_9752)"/>
<circle cx="278.333" cy="232.333" r="26.3333" fill="url(#paint13_radial_562_9752)"/>
<circle cx="278.333" cy="232.333" r="26.3333" fill="url(#paint14_radial_562_9752)"/>
<g style="mix-blend-mode:lighten">
<ellipse cx="276.906" cy="225.671" rx="16.3394" ry="14.5944" fill="url(#paint15_linear_562_9752)"/>
</g>
<g style="mix-blend-mode:lighten">
<path d="M267.353 224.237C266.296 223.909 265.691 222.775 266.189 221.786C267.056 220.066 268.326 218.568 269.903 217.428C271.479 216.288 273.299 215.55 275.204 215.265C276.299 215.101 277.187 216.031 277.168 217.138V217.138C277.149 218.245 276.223 219.102 275.145 219.355C274.109 219.598 273.125 220.045 272.252 220.676C271.38 221.308 270.647 222.103 270.092 223.011C269.514 223.955 268.41 224.566 267.353 224.237V224.237Z" fill="url(#paint16_linear_562_9752)"/>
</g>
<path fill-rule="evenodd" clip-rule="evenodd" d="M25.6685 128.573C27.3023 132.503 30.9861 134.629 32.6198 132.586C37.7723 126.141 46.8357 113.658 46.8357 105.582C46.8357 94.3 38.9149 80.5808 29.1442 74.9397C19.3734 69.2985 11.4526 73.8716 11.4526 85.1539C11.4526 93.2292 20.516 116.178 25.6685 128.573ZM29.03 104.396C34.073 107.308 38.1611 104.948 38.1611 99.1244C38.1611 93.3013 34.073 86.2204 29.03 83.3088C23.9871 80.3973 19.8989 82.7576 19.8989 88.5807C19.8989 94.4038 23.9871 101.485 29.03 104.396Z" fill="url(#paint17_linear_562_9752)" fill-opacity="0.2"/>
<path fill-rule="evenodd" clip-rule="evenodd" d="M22.2754 130.609C23.9092 134.539 27.593 136.666 29.2268 134.622C34.3793 128.178 43.4426 115.694 43.4426 107.619C43.4426 96.3362 35.5219 82.6171 25.7511 76.9759C15.9803 71.3348 8.05957 75.9078 8.05957 87.1901C8.05957 95.2655 17.1229 118.215 22.2754 130.609ZM25.6371 106.432C30.6801 109.344 34.7682 106.984 34.7682 101.16C34.7682 95.3374 30.6801 88.2565 25.6371 85.3449C20.5941 82.4334 16.506 84.7937 16.506 90.6168C16.506 96.4399 20.5941 103.521 25.6371 106.432Z" fill="url(#paint18_linear_562_9752)" fill-opacity="0.5"/>
<path fill-rule="evenodd" clip-rule="evenodd" d="M19.2159 133.923C20.8496 137.853 24.5334 139.98 26.1672 137.936C31.3197 131.492 40.3831 119.008 40.3831 110.933C40.3831 99.6505 32.4623 85.9313 22.6915 80.2901C12.9208 74.649 5 79.222 5 90.5043C5 98.5797 14.0634 121.529 19.2159 133.923ZM22.5776 109.747C27.6206 112.658 31.7087 110.298 31.7087 104.475C31.7087 98.6517 27.6206 91.5708 22.5776 88.6592C17.5346 85.7477 13.4465 88.108 13.4465 93.9311C13.4465 99.7542 17.5346 106.835 22.5776 109.747Z" fill="#3A98FF"/>
<rect width="57.3613" height="42.193" rx="5" transform="matrix(0.866025 0.5 -2.20305e-08 1 274.36 98.5405)" fill="url(#paint19_linear_562_9752)" fill-opacity="0.29"/>
<rect width="57.3613" height="42.193" rx="5" transform="matrix(0.866025 0.5 -2.20305e-08 1 271 100.201)" fill="#3A98FF"/>
<ellipse rx="1.10843" ry="1.10791" transform="matrix(0.866025 0.5 -2.20305e-08 1 295.878 160.266)" fill="#3A98FF"/>
<ellipse rx="1.10843" ry="1.10791" transform="matrix(0.866025 0.5 -2.20305e-08 1 295.878 165.806)" fill="#3A98FF"/>
<ellipse rx="1.10843" ry="1.10791" transform="matrix(0.866025 0.5 -2.20305e-08 1 295.878 171.345)" fill="#3A98FF"/>
<ellipse rx="1.10843" ry="1.10791" transform="matrix(0.866025 0.5 -2.20305e-08 1 295.878 176.885)" fill="#3A98FF"/>
<ellipse rx="1.10843" ry="1.10791" transform="matrix(0.866025 0.5 -2.20305e-08 1 295.878 182.425)" fill="#3A98FF"/>
<ellipse rx="2.12449" ry="2.1235" transform="matrix(0.866025 0.5 -2.20305e-08 1 295.878 188.98)" fill="#3A98FF"/>
<path d="M303.61 139.197C303.61 145.263 299.351 147.722 294.097 144.689C288.844 141.656 284.584 134.279 284.584 128.212C284.584 122.145 288.844 119.687 294.097 122.72C299.351 125.753 303.61 133.13 303.61 139.197Z" fill="white"/>
<path d="M288.72 132.776C288.72 133.556 288.859 134.409 289.13 135.286C289.4 136.164 289.796 137.047 290.295 137.888C290.795 138.728 291.387 139.508 292.04 140.183C292.692 140.858 293.391 141.416 294.097 141.823C294.803 142.231 295.503 142.481 296.155 142.559C296.807 142.637 297.4 142.541 297.899 142.278C298.399 142.014 298.795 141.588 299.065 141.023C299.335 140.457 299.474 139.765 299.474 138.984C299.474 138.984 296.213 136.359 294.097 135.137C291.981 133.915 288.72 132.776 288.72 132.776Z" fill="#2595FF"/>
<path d="M291.642 129.421C291.856 129.545 292.033 129.445 292 129.182C291.979 129.01 291.947 128.835 291.904 128.658C291.82 128.321 291.699 127.987 291.545 127.677C291.391 127.366 291.209 127.085 291.008 126.849C290.808 126.613 290.592 126.427 290.375 126.302C290.158 126.176 289.943 126.114 289.742 126.118C289.541 126.122 289.359 126.193 289.205 126.326C289.052 126.459 288.93 126.652 288.847 126.893C288.803 127.02 288.771 127.158 288.75 127.306C288.718 127.531 288.894 127.835 289.108 127.958V127.958C289.322 128.082 289.49 127.974 289.551 127.772C289.554 127.76 289.558 127.747 289.563 127.735C289.607 127.606 289.672 127.504 289.753 127.433C289.835 127.362 289.932 127.325 290.039 127.323C290.145 127.321 290.26 127.354 290.375 127.42C290.491 127.487 290.605 127.586 290.712 127.711C290.818 127.837 290.915 127.986 290.997 128.151C291.079 128.316 291.143 128.494 291.188 128.673C291.192 128.69 291.196 128.707 291.2 128.724C291.26 128.996 291.428 129.298 291.642 129.421V129.421Z" fill="#3A98FF"/>
<path d="M299.087 133.719C299.301 133.843 299.477 133.744 299.445 133.481C299.424 133.308 299.392 133.133 299.348 132.957C299.265 132.619 299.143 132.285 298.99 131.975C298.836 131.664 298.654 131.383 298.453 131.147C298.252 130.911 298.037 130.726 297.82 130.6C297.603 130.475 297.388 130.412 297.187 130.416C296.986 130.42 296.804 130.491 296.65 130.624C296.496 130.757 296.375 130.95 296.291 131.192C296.248 131.318 296.216 131.456 296.195 131.604C296.162 131.83 296.339 132.133 296.553 132.257V132.257C296.767 132.38 296.935 132.272 296.995 132.071C296.999 132.058 297.003 132.045 297.008 132.033C297.052 131.905 297.116 131.802 297.198 131.732C297.28 131.661 297.377 131.623 297.483 131.621C297.59 131.619 297.704 131.652 297.82 131.719C297.935 131.785 298.05 131.884 298.156 132.01C298.263 132.135 298.36 132.285 298.442 132.45C298.523 132.615 298.588 132.792 298.632 132.971C298.637 132.988 298.641 133.006 298.644 133.023C298.705 133.295 298.873 133.596 299.087 133.719V133.719Z" fill="#3A98FF"/>
</g>
<defs>
<linearGradient id="paint0_linear_562_9752" x1="163" y1="40" x2="163" y2="242" gradientUnits="userSpaceOnUse">
<stop stop-color="#FEFDFF"/>
<stop offset="1" stop-color="#F2F8FF"/>
</linearGradient>
<linearGradient id="paint1_linear_562_9752" x1="163" y1="84" x2="163" y2="198" gradientUnits="userSpaceOnUse">
<stop stop-color="#FEFDFF"/>
<stop offset="1" stop-color="#F2F8FF"/>
</linearGradient>
<linearGradient id="paint2_linear_562_9752" x1="164.082" y1="183.489" x2="201.633" y2="243.571" gradientUnits="userSpaceOnUse">
<stop offset="0.524251" stop-color="#1681E5"/>
<stop offset="0.63761" stop-color="#479FFF"/>
<stop offset="0.73254" stop-color="#2595FF"/>
</linearGradient>
<linearGradient id="paint3_linear_562_9752" x1="142.49" y1="201.017" x2="126.776" y2="228.235" gradientUnits="userSpaceOnUse">
<stop stop-color="#3AE6D5"/>
<stop offset="1" stop-color="#279BFC"/>
</linearGradient>
<linearGradient id="paint4_linear_562_9752" x1="164.082" y1="142.979" x2="201.633" y2="203.061" gradientUnits="userSpaceOnUse">
<stop offset="0.524251" stop-color="#1681E5"/>
<stop offset="0.63761" stop-color="#479FFF"/>
<stop offset="0.73254" stop-color="#2595FF"/>
</linearGradient>
<linearGradient id="paint5_linear_562_9752" x1="142.49" y1="160.507" x2="126.776" y2="187.725" gradientUnits="userSpaceOnUse">
<stop stop-color="#3AE6D5"/>
<stop offset="1" stop-color="#279BFC"/>
</linearGradient>
<linearGradient id="paint6_linear_562_9752" x1="164.082" y1="102.469" x2="201.633" y2="162.551" gradientUnits="userSpaceOnUse">
<stop offset="0.524251" stop-color="#1681E5"/>
<stop offset="0.63761" stop-color="#479FFF"/>
<stop offset="0.73254" stop-color="#2595FF"/>
</linearGradient>
<linearGradient id="paint7_linear_562_9752" x1="142.49" y1="119.998" x2="126.776" y2="147.215" gradientUnits="userSpaceOnUse">
<stop stop-color="#3AE6D5"/>
<stop offset="1" stop-color="#279BFC"/>
</linearGradient>
<linearGradient id="paint8_linear_562_9752" x1="112.615" y1="235.824" x2="112.354" y2="164.841" gradientUnits="userSpaceOnUse">
<stop stop-color="#CDE7FF"/>
<stop offset="1" stop-color="#E3EDFF" stop-opacity="0"/>
</linearGradient>
<linearGradient id="paint9_linear_562_9752" x1="88.7125" y1="197.049" x2="101.038" y2="120.703" gradientUnits="userSpaceOnUse">
<stop stop-color="#CDE7FF"/>
<stop offset="1" stop-color="#E3EDFF" stop-opacity="0"/>
</linearGradient>
<linearGradient id="paint10_linear_562_9752" x1="278.333" y1="206" x2="278.333" y2="258.667" gradientUnits="userSpaceOnUse">
<stop stop-color="#40FFC6"/>
<stop offset="0.492708" stop-color="#4AE6FF"/>
<stop offset="1" stop-color="#2595FF"/>
</linearGradient>
<radialGradient id="paint11_radial_562_9752" cx="0" cy="0" r="1" gradientUnits="userSpaceOnUse" gradientTransform="translate(267.518 216.345) rotate(62.6223) scale(59.3097)">
<stop offset="0.462106" stop-color="#2AA8FF" stop-opacity="0"/>
<stop offset="0.894737" stop-color="#2595FF"/>
</radialGradient>
<radialGradient id="paint12_radial_562_9752" cx="0" cy="0" r="1" gradientUnits="userSpaceOnUse" gradientTransform="translate(265.637 217.286) rotate(56.6259) scale(70.9499)">
<stop stop-color="#6EFFCE"/>
<stop offset="0.570035" stop-color="#A5FFFD" stop-opacity="0"/>
</radialGradient>
<radialGradient id="paint13_radial_562_9752" cx="0" cy="0" r="1" gradientUnits="userSpaceOnUse" gradientTransform="translate(273.161 221.988) rotate(63.4349) scale(37.825)">
<stop offset="0.672439" stop-color="#9EC6FD" stop-opacity="0"/>
<stop offset="1" stop-color="white"/>
</radialGradient>
<radialGradient id="paint14_radial_562_9752" cx="0" cy="0" r="1" gradientUnits="userSpaceOnUse" gradientTransform="translate(275.487 226.64) rotate(62.0378) scale(32.6341)">
<stop offset="0.961458" stop-color="#2AA8FF" stop-opacity="0"/>
<stop offset="1" stop-color="#058AFF" stop-opacity="0.26"/>
</radialGradient>
<linearGradient id="paint15_linear_562_9752" x1="267.569" y1="214.843" x2="279.349" y2="227.926" gradientUnits="userSpaceOnUse">
<stop stop-color="white" stop-opacity="0.86"/>
<stop offset="1" stop-color="#D9D9D9" stop-opacity="0"/>
</linearGradient>
<linearGradient id="paint16_linear_562_9752" x1="276.91" y1="216.32" x2="269.793" y2="224.504" gradientUnits="userSpaceOnUse">
<stop stop-color="white"/>
<stop offset="1" stop-color="#FFFFE9" stop-opacity="0.38"/>
</linearGradient>
<linearGradient id="paint17_linear_562_9752" x1="29.1442" y1="74.9397" x2="4.08156" y2="118.349" gradientUnits="userSpaceOnUse">
<stop stop-color="#2595FF"/>
<stop offset="1" stop-color="#3A98FF" stop-opacity="0"/>
</linearGradient>
<linearGradient id="paint18_linear_562_9752" x1="25.7511" y1="76.9759" x2="6.06963" y2="111.065" gradientUnits="userSpaceOnUse">
<stop stop-color="#2595FF"/>
<stop offset="1" stop-color="#3A98FF" stop-opacity="0"/>
</linearGradient>
<linearGradient id="paint19_linear_562_9752" x1="28.6807" y1="0" x2="28.6807" y2="42.193" gradientUnits="userSpaceOnUse">
<stop offset="0.51875" stop-color="#1383FE"/>
<stop offset="1" stop-color="#3A98FF" stop-opacity="0"/>
</linearGradient>
<clipPath id="clip0_562_9752">
<rect width="340" height="262" fill="white"/>
</clipPath>
</defs>
</svg>
