<svg width="218" height="170" viewBox="0 0 218 170" fill="none" xmlns="http://www.w3.org/2000/svg">
<g clip-path="url(#clip0_575_14130)">
<circle cx="109.007" cy="87.6742" r="66.7282" fill="url(#paint0_linear_575_14130)" stroke="#CFE8FF" stroke-width="2" stroke-linecap="round" stroke-dasharray="7 0"/>
<circle cx="109.007" cy="87.6741" r="36.6585" fill="url(#paint1_linear_575_14130)" stroke="#CFE8FF" stroke-width="2" stroke-linecap="square" stroke-dasharray="1 10"/>
<path d="M198.055 132.519C199.476 135.252 200.123 137.861 199.909 140.287L198.913 140.199C198.859 140.808 198.745 141.402 198.571 141.981C198.396 142.56 198.162 143.117 197.87 143.654L198.749 144.132C197.585 146.272 195.603 148.087 192.906 149.577L192.423 148.702C191.364 149.287 190.181 149.825 188.879 150.312L189.23 151.249C186.941 152.106 184.323 152.803 181.41 153.341L181.228 152.357C179.974 152.589 178.662 152.791 177.295 152.962L177.419 153.954C174.899 154.271 172.201 154.486 169.344 154.599L169.305 153.6C167.999 153.652 166.659 153.682 165.286 153.691L165.292 154.691C162.706 154.707 160.007 154.648 157.209 154.513L157.257 153.514C155.94 153.451 154.601 153.37 153.241 153.273L153.169 154.271C150.557 154.084 147.867 153.835 145.108 153.524L145.22 152.531C143.902 152.382 142.567 152.219 141.218 152.043L141.088 153.034C138.471 152.691 135.797 152.294 133.075 151.844L133.238 150.858C131.925 150.641 130.6 150.411 129.264 150.169L129.086 151.153C126.479 150.681 123.832 150.161 121.15 149.594L121.357 148.616C120.052 148.34 118.738 148.052 117.417 147.754L117.197 148.729C114.599 148.143 111.972 147.512 109.321 146.839L109.567 145.869C108.27 145.54 106.967 145.2 105.658 144.849L105.399 145.815C102.823 145.125 100.227 144.395 97.6142 143.624L97.8972 142.665C97.2513 142.474 96.6044 142.281 95.9566 142.086C95.3089 141.89 94.6632 141.693 94.0197 141.494L93.7248 142.45C91.1222 141.647 88.5551 140.819 86.0273 139.968L86.3462 139.021C85.0622 138.589 83.7883 138.151 82.5252 137.708L82.1942 138.651C79.6128 137.746 77.0758 136.818 74.5873 135.869L74.9434 134.935C73.6777 134.453 72.4246 133.965 71.1848 133.473L70.8158 134.403C68.2678 133.391 65.7751 132.36 63.3424 131.311L63.7382 130.393C62.4918 129.856 61.2613 129.314 60.0474 128.768L59.6374 129.68C57.1206 128.549 54.6741 127.4 52.3036 126.238L52.7439 125.34C51.522 124.741 50.3207 124.139 49.1405 123.533L48.684 124.423C46.2137 123.155 43.8353 121.874 41.5556 120.585L42.048 119.714C40.8607 119.043 39.7007 118.369 38.5689 117.693L38.0564 118.552C35.6504 117.116 33.3699 115.673 31.2246 114.228L31.7831 113.399C30.6443 112.632 29.5445 111.865 28.4852 111.099L27.8994 111.91C25.5824 110.235 23.454 108.564 21.5293 106.906L22.1821 106.148C21.1383 105.249 20.1568 104.355 19.2399 103.468L18.5447 104.187C16.4155 102.128 14.6201 100.098 13.1878 98.1181L13.9981 97.532C13.1832 96.4054 12.4953 95.3034 11.937 94.23L11.0498 94.6915C9.62803 91.9582 8.9813 89.3496 9.1955 86.9234L10.1916 87.0114C10.2454 86.4027 10.359 85.8088 10.5338 85.2298C10.7085 84.6507 10.9424 84.0931 11.2344 83.5563L10.3559 83.0785C11.5197 80.939 13.5016 79.1236 16.1981 77.6333L16.6819 78.5085C17.7408 77.9233 18.9234 77.3858 20.2256 76.8981L19.8748 75.9617C22.1634 75.1045 24.7819 74.4071 27.6947 73.8697L27.8761 74.8531C29.1305 74.6217 30.4426 74.42 31.8096 74.2483L31.685 73.2561C34.2057 72.9396 36.9034 72.7247 39.76 72.6115L39.7995 73.6107C41.1055 73.559 42.4459 73.5287 43.8188 73.5199L43.8124 72.5199C46.3987 72.5034 49.097 72.5625 51.8957 72.6975L51.8475 73.6963C53.164 73.7598 54.5032 73.8402 55.8639 73.9375L55.9352 72.94C58.5476 73.1268 61.2377 73.3755 63.9967 73.6863L63.8848 74.68C65.2029 74.8284 66.537 74.9911 67.8862 75.168L68.0163 74.1765C70.6339 74.5198 73.3073 74.9164 76.0298 75.3663L75.8667 76.353C77.1798 76.57 78.5045 76.7995 79.84 77.0415L80.0183 76.0575C82.625 76.5299 85.2722 77.0495 87.9543 77.6166L87.7475 78.595C89.0526 78.8709 90.366 79.1581 91.6872 79.4566L91.9076 78.4812C94.5051 79.0681 97.1321 79.6983 99.7834 80.372L99.5372 81.3412C100.835 81.6708 102.138 82.0109 103.446 82.3615L103.705 81.3955C106.281 82.0856 108.878 82.816 111.49 83.5868L111.207 84.5459C111.853 84.7364 112.5 84.9295 113.148 85.125C113.796 85.3205 114.441 85.5176 115.085 85.7161L115.38 84.7606C117.982 85.5638 120.549 86.3918 123.077 87.2421L122.758 88.19C124.042 88.6219 125.316 89.0596 126.579 89.5027L126.91 88.5591C129.492 89.4647 132.029 90.393 134.517 91.3411L134.161 92.2756C135.427 92.7578 136.68 93.2452 137.92 93.7374L138.289 92.8079C140.837 93.8193 143.329 94.8509 145.762 95.8995L145.366 96.8178C146.613 97.3551 147.843 97.8967 149.057 98.4424L149.467 97.5303C151.984 98.6616 154.43 99.8102 156.801 100.972L156.361 101.87C157.582 102.469 158.784 103.072 159.964 103.677L160.42 102.788C162.891 104.055 165.269 105.336 167.549 106.626L167.056 107.496C168.244 108.168 169.404 108.842 170.536 109.517L171.048 108.659C173.454 110.095 175.735 111.538 177.88 112.983L177.321 113.812C178.46 114.579 179.56 115.346 180.619 116.111L181.205 115.301C183.522 116.975 185.65 118.647 187.575 120.305L186.922 121.063C187.966 121.962 188.948 122.856 189.865 123.743L190.56 123.024C192.689 125.083 194.484 127.112 195.917 129.092L195.106 129.679C195.921 130.805 196.609 131.907 197.167 132.981L198.055 132.519Z" stroke="url(#paint2_linear_575_14130)" stroke-opacity="0.72" stroke-width="2" stroke-dasharray="4 8"/>
<path d="M210.751 37.4629L212.357 41.803L216.697 43.409L212.357 45.0149L210.751 49.355L209.145 45.0149L204.805 43.409L209.145 41.803L210.751 37.4629Z" fill="#2595FF"/>
<path d="M198.198 56.6226L199.269 59.516L202.162 60.5866L199.269 61.6573L198.198 64.5507L197.127 61.6573L194.234 60.5866L197.127 59.516L198.198 56.6226Z" fill="#CFE8FF"/>
<path d="M9.90594 53.9797L10.9766 56.8731L13.87 57.9438L10.9766 59.0144L9.90594 61.9078L8.83529 59.0144L5.94189 57.9438L8.83529 56.8731L9.90594 53.9797Z" fill="#CFE8FF"/>
<circle cx="47.8945" cy="63.5595" r="3.63371" fill="#2595FF"/>
<circle cx="181.351" cy="152.751" r="3.63371" fill="#40FFC6"/>
<path d="M82.3228 40.1535C82.3228 37.423 84.2397 36.3162 86.6044 37.6815L155.479 77.4464C157.844 78.8116 159.761 82.1319 159.761 84.8624L159.761 140.778C159.761 143.508 157.844 144.615 155.479 143.25L86.6044 103.485C84.2397 102.12 82.3228 98.7994 82.3228 96.0689L82.3228 40.1535Z" fill="url(#paint3_linear_575_14130)" fill-opacity="0.29"/>
<path d="M77.0854 42.7455C77.0854 40.015 79.0024 38.9083 81.3671 40.2735L150.242 80.0384C152.607 81.4037 154.524 84.7239 154.524 87.4544L154.524 143.37C154.524 146.1 152.607 147.207 150.242 145.842L81.3671 106.077C79.0024 104.712 77.0854 101.391 77.0854 98.6609L77.0854 42.7455Z" fill="url(#paint4_linear_575_14130)" fill-opacity="0.72"/>
<path d="M72.2151 45.5492C72.2151 43.371 73.7444 42.4881 75.6307 43.5772L144.506 83.3421C146.392 84.4312 147.921 87.0799 147.921 89.2581L147.921 145.174C147.921 147.352 146.392 148.235 144.506 147.146L75.6307 107.381C73.7444 106.292 72.2151 103.643 72.2151 101.465L72.2151 45.5492Z" fill="url(#paint5_linear_575_14130)" stroke="#F6FAFF" stroke-width="2"/>
<path d="M71.3491 49.6086C71.3491 44.36 75.0339 42.2326 79.5793 44.8569L140.557 80.0625C145.102 82.6867 148.787 89.0689 148.787 94.3175L71.3491 49.6086Z" fill="#F6FAFF"/>
<path d="M168.468 96.1728C168.468 92.9213 170.751 88.9675 173.567 87.3417L202.504 70.6347C205.32 69.009 207.603 70.3269 207.603 73.5784L207.603 92.3366C207.603 95.5881 205.32 99.5419 202.504 101.168L173.567 117.875C170.751 119.5 168.468 118.182 168.468 114.931L168.468 96.1728Z" fill="#1681E6"/>
<path d="M194.382 73.6878C194.382 72.0621 195.523 70.0852 196.931 69.2723L205.054 64.5828C206.462 63.7699 207.603 64.4288 207.603 66.0546L207.603 85.3569C207.603 86.9827 206.462 88.9596 205.054 89.7724L196.931 94.462C195.523 95.2749 194.382 94.6159 194.382 92.9901L194.382 73.6878Z" fill="#1681E6"/>
<path d="M171.899 98.4145C172.364 95.3784 174.463 92.1678 176.904 90.7582L205.652 74.1609C208.857 72.3103 211.267 74.2935 210.657 78.2794L208.404 92.9951C207.939 96.0312 205.84 99.2417 203.398 100.651L174.651 117.249C171.446 119.099 169.035 117.116 169.646 113.13L171.899 98.4145Z" fill="#2595FF"/>
<ellipse rx="1.29591" ry="1.29591" transform="matrix(0.866025 0.5 -2.20305e-08 1 76.0876 47.5928)" fill="#23FBB2"/>
<ellipse rx="1.29591" ry="1.29591" transform="matrix(0.866025 0.5 -2.20305e-08 1 79.9533 49.8245)" fill="#8BFF6A"/>
<ellipse rx="1.29591" ry="1.29591" transform="matrix(0.866025 0.5 -2.20305e-08 1 83.8191 52.0564)" fill="#4BC1EA"/>
<rect width="26.3743" height="3.5641" rx="1.78205" transform="matrix(0.866025 0.5 -2.20305e-08 1 78.7666 62.8101)" fill="white"/>
<rect width="17.1077" height="3.5641" rx="1.78205" transform="matrix(0.866025 0.5 -2.20305e-08 1 104.694 77.7793)" fill="white"/>
<rect width="17.1077" height="3.5641" rx="1.78205" transform="matrix(0.866025 0.5 -2.20305e-08 1 78.7666 77.0664)" fill="white"/>
<rect width="17.1077" height="3.5641" rx="1.78205" transform="matrix(0.866025 0.5 -2.20305e-08 1 97.2861 87.7588)" fill="white"/>
<rect width="12.1179" height="3.5641" rx="1.78205" transform="matrix(0.866025 0.5 -2.20305e-08 1 123.213 88.4714)" fill="white"/>
<rect width="12.1179" height="3.5641" rx="1.78205" transform="matrix(0.866025 0.5 -2.20305e-08 1 78.7666 89.1843)" fill="white"/>
<rect width="12.1179" height="3.5641" rx="1.78205" transform="matrix(0.866025 0.5 -2.20305e-08 1 92.3477 97.0254)" fill="white"/>
<rect width="12.1179" height="3.5641" rx="1.78205" transform="matrix(0.866025 0.5 -2.20305e-08 1 78.7666 69.9382)" fill="white"/>
<rect width="12.1179" height="3.5641" rx="1.78205" transform="matrix(0.866025 0.5 -2.20305e-08 1 92.3477 77.7793)" fill="white"/>
<rect width="31.364" height="3.5641" rx="1.78205" transform="matrix(0.866025 0.5 -2.20305e-08 1 105.312 85.2639)" fill="white"/>
<path d="M205.939 114.565C205.683 118.316 202.884 121.918 197.553 125.172C192.25 128.411 184.643 131.175 175.239 133.308C156.445 137.571 130.706 139.261 102.492 137.34C74.2771 135.419 49.0053 130.256 30.9621 123.486C21.9342 120.098 14.7714 116.328 9.95631 112.401C5.11628 108.454 2.83056 104.506 3.08594 100.755C3.34133 97.0035 6.14099 93.4019 11.4713 90.147C16.7742 86.9089 24.3819 84.1446 33.7856 82.0117C52.5799 77.7488 78.3183 76.0585 106.533 77.9793C134.748 79.9001 160.019 85.0631 178.063 91.8338C187.09 95.2215 194.253 98.9913 199.068 102.918C203.908 106.865 206.194 110.813 205.939 114.565Z" stroke="url(#paint6_linear_575_14130)" stroke-width="2"/>
<path d="M27.688 71.9972L27.688 123.331C27.688 123.331 19.7733 113.425 16.4735 105.884C13.517 99.1268 12.5548 94.9156 11.6086 88.1917C10.9134 83.2515 11.2881 76.8032 11.4978 74.0927C11.5605 73.2813 11.9707 72.7859 12.5715 72.7557L27.688 71.9972Z" fill="url(#paint7_linear_575_14130)" fill-opacity="0.29"/>
<path d="M42.8088 90.2133L27.688 71.9972L27.688 123.331C27.688 123.331 35.6071 122.567 38.907 118.836C41.8635 115.493 42.8256 112.392 43.7719 106.761C44.4671 102.624 44.0924 95.7431 43.8827 92.7903C43.8199 91.9064 43.4097 90.9372 42.8088 90.2133Z" fill="url(#paint8_linear_575_14130)" fill-opacity="0.29"/>
<path d="M24.4053 74.6823L24.4053 121.436C24.4053 121.436 16.4906 112.006 13.1907 104.967C10.2343 98.661 9.27211 94.776 8.32588 88.6033C7.63065 84.0681 8.00534 78.2145 8.21504 75.7567C8.2778 75.021 8.68797 74.5908 9.28879 74.5943L24.4053 74.6823Z" fill="#2595FF"/>
<path d="M39.5261 92.0519L24.4053 74.6823L24.4053 121.436C24.4053 121.436 32.3244 121.147 35.6243 117.919C38.5807 115.027 39.5429 112.253 40.4891 107.173C41.1844 103.44 40.8097 97.1544 40.6 94.4543C40.5372 93.646 40.127 92.7422 39.5261 92.0519Z" fill="#2595FF"/>
<path fill-rule="evenodd" clip-rule="evenodd" d="M27.0993 100.433C28.5647 99.587 28.5647 96.8436 27.0993 94.3055C25.6339 91.7674 23.258 90.3956 21.7926 91.2417C20.3272 92.0877 20.3272 94.8311 21.7926 97.3693C23.258 99.9074 25.6339 101.279 27.0993 100.433ZM28.6716 103.156C31.0054 101.809 31.0054 97.4399 28.6716 93.3977C26.3378 89.3555 22.5541 87.1709 20.2203 88.5183C17.8865 89.8657 17.8865 94.2349 20.2203 98.2771C22.5541 102.319 26.3378 104.504 28.6716 103.156Z" fill="white"/>
<path fill-rule="evenodd" clip-rule="evenodd" d="M27.3945 100.934C27.8287 100.683 28.5326 101.09 28.9668 101.842L31.1005 105.538C31.5347 106.29 31.5347 107.102 31.1005 107.353C30.6663 107.604 29.9624 107.197 29.5282 106.445L27.3945 102.75C26.9603 101.998 26.9603 101.185 27.3945 100.934Z" fill="white"/>
<circle cx="150.19" cy="32.3978" r="17.3978" fill="url(#paint9_linear_575_14130)"/>
<circle cx="150.19" cy="32.3978" r="17.3978" fill="url(#paint10_radial_575_14130)"/>
<circle cx="150.19" cy="32.3978" r="17.3978" fill="url(#paint11_radial_575_14130)"/>
<circle cx="150.19" cy="32.3978" r="17.3978" fill="url(#paint12_radial_575_14130)"/>
<circle cx="150.19" cy="32.3978" r="17.3978" fill="url(#paint13_radial_575_14130)"/>
<g style="mix-blend-mode:lighten">
<ellipse cx="149.247" cy="27.9959" rx="10.795" ry="9.64214" fill="url(#paint14_linear_575_14130)"/>
</g>
<g style="mix-blend-mode:lighten">
<path d="M142.935 27.0489C142.237 26.8319 141.837 26.0826 142.166 25.4294C142.739 24.2929 143.578 23.3036 144.62 22.5502C145.661 21.7968 146.864 21.3095 148.122 21.1212C148.846 21.0129 149.432 21.6272 149.42 22.3585C149.407 23.0898 148.796 23.6563 148.084 23.8235C147.399 23.9842 146.749 24.2793 146.172 24.6964C145.596 25.1135 145.112 25.6387 144.745 26.2384C144.363 26.8624 143.634 27.266 142.935 27.0489Z" fill="url(#paint15_linear_575_14130)"/>
</g>
</g>
<defs>
<linearGradient id="paint0_linear_575_14130" x1="109.007" y1="20.946" x2="109.007" y2="154.402" gradientUnits="userSpaceOnUse">
<stop stop-color="#FEFDFF"/>
<stop offset="1" stop-color="#F2F8FF"/>
</linearGradient>
<linearGradient id="paint1_linear_575_14130" x1="109.007" y1="50.0156" x2="109.007" y2="125.333" gradientUnits="userSpaceOnUse">
<stop stop-color="#FEFDFF"/>
<stop offset="1" stop-color="#F2F8FF"/>
</linearGradient>
<linearGradient id="paint2_linear_575_14130" x1="60.7008" y1="129.621" x2="55.5363" y2="98.0318" gradientUnits="userSpaceOnUse">
<stop stop-color="#CDE7FF"/>
<stop offset="1" stop-color="#E3EDFF" stop-opacity="0"/>
</linearGradient>
<linearGradient id="paint3_linear_575_14130" x1="121.042" y1="57.5639" x2="92.5481" y2="106.916" gradientUnits="userSpaceOnUse">
<stop offset="0.773958" stop-color="#2087F8" stop-opacity="0.43"/>
<stop offset="1" stop-color="#3A98FF" stop-opacity="0"/>
</linearGradient>
<linearGradient id="paint4_linear_575_14130" x1="115.804" y1="60.156" x2="87.3108" y2="109.509" gradientUnits="userSpaceOnUse">
<stop offset="0.51875" stop-color="#1383FE"/>
<stop offset="1" stop-color="#3A98FF" stop-opacity="0"/>
</linearGradient>
<linearGradient id="paint5_linear_575_14130" x1="110.068" y1="62.4597" x2="81.5744" y2="111.812" gradientUnits="userSpaceOnUse">
<stop stop-color="#3EF7CB"/>
<stop offset="1" stop-color="#2595FF"/>
</linearGradient>
<linearGradient id="paint6_linear_575_14130" x1="81.9196" y1="139.207" x2="96.3056" y2="63.5861" gradientUnits="userSpaceOnUse">
<stop stop-color="#CDE7FF"/>
<stop offset="0.578693" stop-color="#E3EDFF" stop-opacity="0"/>
</linearGradient>
<linearGradient id="paint7_linear_575_14130" x1="27.6902" y1="71.9985" x2="5.46185" y2="110.499" gradientUnits="userSpaceOnUse">
<stop offset="0.51875" stop-color="#1383FE"/>
<stop offset="1" stop-color="#3A98FF" stop-opacity="0"/>
</linearGradient>
<linearGradient id="paint8_linear_575_14130" x1="27.6902" y1="71.9985" x2="5.46185" y2="110.499" gradientUnits="userSpaceOnUse">
<stop offset="0.51875" stop-color="#1383FE"/>
<stop offset="1" stop-color="#3A98FF" stop-opacity="0"/>
</linearGradient>
<linearGradient id="paint9_linear_575_14130" x1="150.19" y1="15" x2="150.19" y2="49.7955" gradientUnits="userSpaceOnUse">
<stop stop-color="#40FFC6"/>
<stop offset="0.492708" stop-color="#4AE6FF"/>
<stop offset="1" stop-color="#2595FF"/>
</linearGradient>
<radialGradient id="paint10_radial_575_14130" cx="0" cy="0" r="1" gradientUnits="userSpaceOnUse" gradientTransform="translate(143.044 21.8348) rotate(62.6223) scale(39.1844)">
<stop offset="0.462106" stop-color="#2AA8FF" stop-opacity="0"/>
<stop offset="0.894737" stop-color="#2595FF"/>
</radialGradient>
<radialGradient id="paint11_radial_575_14130" cx="0" cy="0" r="1" gradientUnits="userSpaceOnUse" gradientTransform="translate(141.802 22.4562) rotate(56.6259) scale(46.8748)">
<stop stop-color="#6EFFCE"/>
<stop offset="0.570035" stop-color="#A5FFFD" stop-opacity="0"/>
</radialGradient>
<radialGradient id="paint12_radial_575_14130" cx="0" cy="0" r="1" gradientUnits="userSpaceOnUse" gradientTransform="translate(146.772 25.5629) rotate(63.4349) scale(24.99)">
<stop offset="0.672439" stop-color="#9EC6FD" stop-opacity="0"/>
<stop offset="1" stop-color="white"/>
</radialGradient>
<radialGradient id="paint13_radial_575_14130" cx="0" cy="0" r="1" gradientUnits="userSpaceOnUse" gradientTransform="translate(148.309 28.6361) rotate(62.0378) scale(21.5606)">
<stop offset="0.961458" stop-color="#2AA8FF" stop-opacity="0"/>
<stop offset="1" stop-color="#058AFF" stop-opacity="0.26"/>
</radialGradient>
<linearGradient id="paint14_linear_575_14130" x1="143.078" y1="20.8421" x2="150.861" y2="29.486" gradientUnits="userSpaceOnUse">
<stop stop-color="white" stop-opacity="0.86"/>
<stop offset="1" stop-color="#D9D9D9" stop-opacity="0"/>
</linearGradient>
<linearGradient id="paint15_linear_575_14130" x1="149.249" y1="21.818" x2="144.547" y2="27.2254" gradientUnits="userSpaceOnUse">
<stop stop-color="white"/>
<stop offset="1" stop-color="#FFFFE9" stop-opacity="0.38"/>
</linearGradient>
<clipPath id="clip0_575_14130">
<rect width="218" height="170" fill="white"/>
</clipPath>
</defs>
</svg>
