<svg width="90" height="60" fill="none" xmlns="http://www.w3.org/2000/svg"><path fill="#F1361D" d="M0 0h90v60H0z"/><path fill-rule="evenodd" clip-rule="evenodd" d="M32.375 9.302l3.113.495 2.334 1.985.531-2.905 2.126-2.18-3.112-.495-2.335-1.984-.53 2.905-2.127 2.18zm8.337 10.162l2.697-1.532 3.157.068-1.641-2.518.073-2.946-2.698 1.532L39.143 14l1.642 2.518-.073 2.946zm-3.658 16.449l-2.638 1.619-.037-2.947-1.735-2.463 3.157-.035 2.639-1.619.037 2.947 1.735 2.463-3.158.035zm2.293-7.619l3.139-.325 2.83 1.307-.348-2.929 1.4-2.642-3.138.325-2.83-1.307.347 2.93-1.4 2.641zm-17.92-3.613l-7.557 5.028 2.789-8.262-7.46-5.154 9.281-.078L21.427 8l2.948 8.214 9.28.078-7.459 5.154 2.789 8.262-7.558-5.028z" fill="#FFDC42"/></svg>