<svg width="90" height="60" fill="none" xmlns="http://www.w3.org/2000/svg"><mask id="mask0" maskUnits="userSpaceOnUse" x="0" y="0" width="90" height="60"><path fill="#fff" d="M0 0h90v60H0z"/></mask><g mask="url(#mask0)"><path fill-rule="evenodd" clip-rule="evenodd" d="M0 16h90V0H0v16zm0 44h90V44H0v16z" fill="#DD172C"/><path fill-rule="evenodd" clip-rule="evenodd" d="M0 44h90V16H0v28z" fill="#FFD133"/><path fill-rule="evenodd" clip-rule="evenodd" d="M23.572 28h4.285v2h-4.285v-2z" fill="#FFEDB1"/><path d="M18.943 26.333H28.2c.195 0 .349.168.332.363l-.898 10.06a1 1 0 01-.997.91h-6.132a1 1 0 01-.996-.91l-.898-10.06a.333.333 0 01.332-.363z" stroke="#A41517" stroke-width=".667"/><path fill-rule="evenodd" clip-rule="evenodd" d="M19.286 30h8.571v2h-2.143l-2.143 4-2.142-4h-2.143v-2z" fill="#A41517"/><rect x="12.857" y="24" width="4.286" height="14" rx=".667" fill="#A41517"/><rect x="30" y="24" width="4.286" height="14" rx=".667" fill="#A41517"/><path d="M19.286 21.333c0-.736.597-1.333 1.333-1.333h5.905c.736 0 1.333.596 1.333 1.333v2.333c0 .184-.15.334-.333.334h-7.905a.333.333 0 01-.333-.334v-2.333z" fill="#A41517"/></g></svg>