<svg width="90" height="60" fill="none" xmlns="http://www.w3.org/2000/svg"><mask id="mask0" maskUnits="userSpaceOnUse" x="0" y="0" width="90" height="60"><path fill="#fff" d="M0 0h90v60H0z"/></mask><g mask="url(#mask0)"><path fill="#FF2936" d="M0 0h90v60H0z"/><path fill-rule="evenodd" clip-rule="evenodd" d="M0 60h34.286V0H0v60z" fill="#128415"/><path d="M34.286 38.666c5.058 0 9.238-3.838 9.238-8.667s-4.18-8.667-9.238-8.667S25.048 25.17 25.048 30c0 4.83 4.18 8.667 9.238 8.667z" stroke="#FAF94F" stroke-width="1.333"/><path fill-rule="evenodd" clip-rule="evenodd" d="M30.002 24.333c0-.184.15-.333.333-.333h7.905c.184 0 .333.15.333.333v10.334c0 .736-.597 1.333-1.333 1.333h-5.905a1.333 1.333 0 01-1.333-1.333V24.333z" fill="#fff"/><path fill-rule="evenodd" clip-rule="evenodd" d="M34.285 32.001c1.184 0 2.143-2.895 2.143-4s-.96-2-2.143-2c-1.183 0-2.142.895-2.142 2 0 1.104.959 4 2.142 4z" fill="#1D50B5"/></g></svg>