<svg width="90" height="60" fill="none" xmlns="http://www.w3.org/2000/svg"><path fill="#fff" d="M0 0h90v60H0z"/><mask id="mask0" maskUnits="userSpaceOnUse" x="0" y="0" width="90" height="60"><path fill="#fff" d="M0 0h90v60H0z"/></mask><g mask="url(#mask0)"><path fill-rule="evenodd" clip-rule="evenodd" d="M90 0H0v4h90V0zm0 8H0v4h90V8zM0 16h90v4H0v-4zm90 8H0v4h90v-4zM0 32h90v4H0v-4zm90 8H0v4h90v-4zM0 48h90v4H0v-4zm90 8H0v4h90v-4z" fill="#D02F44"/><path fill="#46467F" d="M0 0h38.571v28H0z"/><g filter="url(#filter0_d)"><path fill-rule="evenodd" clip-rule="evenodd" d="M8.573 5.999c0 1.105-.96 2-2.143 2-1.183 0-2.143-.895-2.143-2s.96-2 2.143-2c1.183 0 2.143.895 2.143 2zm8.57 0c0 1.105-.96 2-2.143 2-1.184 0-2.143-.895-2.143-2s.96-2 2.143-2c1.183 0 2.143.895 2.143 2zm6.431 2c1.184 0 2.143-.895 2.143-2s-.96-2-2.143-2c-1.183 0-2.143.895-2.143 2s.96 2 2.143 2zm10.713-2c0 1.105-.96 2-2.143 2-1.183 0-2.143-.895-2.143-2s.96-2 2.143-2c1.184 0 2.143.895 2.143 2zm-23.57 6c1.184 0 2.143-.896 2.143-2 0-1.105-.96-2-2.143-2-1.183 0-2.143.895-2.143 2 0 1.104.96 2 2.143 2zm10.713-2c0 1.104-.96 2-2.143 2-1.183 0-2.143-.896-2.143-2 0-1.105.96-2 2.143-2 1.184 0 2.143.895 2.143 2zm6.427 2c1.184 0 2.143-.896 2.143-2 0-1.105-.96-2-2.143-2-1.183 0-2.143.895-2.143 2 0 1.104.96 2 2.143 2zm6.43 2c0 1.105-.96 2-2.143 2-1.183 0-2.143-.895-2.143-2 0-1.104.96-2 2.143-2 1.184 0 2.143.896 2.143 2zm-10.713 2c1.184 0 2.143-.895 2.143-2 0-1.104-.96-2-2.143-2-1.183 0-2.143.896-2.143 2 0 1.105.96 2 2.143 2zm-6.431-2c0 1.105-.96 2-2.143 2-1.184 0-2.143-.895-2.143-2 0-1.104.96-2 2.143-2 1.183 0 2.143.896 2.143 2zM6.43 16c1.183 0 2.143-.895 2.143-2 0-1.104-.96-2-2.143-2-1.183 0-2.143.896-2.143 2 0 1.105.96 2 2.143 2zm6.43 2c0 1.105-.96 2-2.143 2-1.183 0-2.143-.895-2.143-2 0-1.104.96-2 2.143-2 1.184 0 2.143.896 2.143 2zm6.427 2c1.184 0 2.143-.895 2.143-2 0-1.104-.96-2-2.143-2-1.183 0-2.143.896-2.143 2 0 1.105.96 2 2.143 2zM30 18c0 1.105-.96 2-2.143 2-1.183 0-2.143-.895-2.143-2 0-1.104.96-2 2.143-2 1.184 0 2.143.896 2.143 2zm2.144 6c1.184 0 2.143-.896 2.143-2 0-1.105-.96-2-2.143-2-1.183 0-2.143.895-2.143 2 0 1.104.96 2 2.143 2zm-6.427-2c0 1.104-.96 2-2.143 2-1.183 0-2.143-.896-2.143-2 0-1.105.96-2 2.143-2 1.184 0 2.143.895 2.143 2zM15 24c1.183 0 2.143-.896 2.143-2 0-1.105-.96-2-2.143-2-1.184 0-2.143.895-2.143 2 0 1.104.96 2 2.143 2zm-6.427-2c0 1.104-.96 2-2.143 2-1.183 0-2.143-.896-2.143-2 0-1.105.96-2 2.143-2 1.183 0 2.143.895 2.143 2z" fill="url(#paint0_linear)"/></g></g><defs><linearGradient id="paint0_linear" x1="4.287" y1="3.999" x2="4.287" y2="23.998" gradientUnits="userSpaceOnUse"><stop stop-color="#fff"/><stop offset="1" stop-color="#F0F0F0"/></linearGradient><filter id="filter0_d" x="4.287" y="3.999" width="30" height="20.999" filterUnits="userSpaceOnUse" color-interpolation-filters="sRGB"><feFlood flood-opacity="0" result="BackgroundImageFix"/><feColorMatrix in="SourceAlpha" values="0 0 0 0 0 0 0 0 0 0 0 0 0 0 0 0 0 0 127 0" result="hardAlpha"/><feOffset dy="1"/><feColorMatrix values="0 0 0 0 0 0 0 0 0 0 0 0 0 0 0 0 0 0 0.06 0"/><feBlend in2="BackgroundImageFix" result="effect1_dropShadow"/><feBlend in="SourceGraphic" in2="effect1_dropShadow" result="shape"/></filter></defs></svg>