<svg width="862" height="82" viewBox="0 0 862 82" fill="none" xmlns="http://www.w3.org/2000/svg">
<path d="M2.29752 17.0541C44.6477 -6.99755 54.7558 27.9163 47.43 37.7497C40.1041 47.5832 24.2838 47.719 16.3566 36.2207C10.742 28.1489 8.94934 20.9074 2.29752 17.0541Z" fill="#BBD645"/>
<path d="M859.95 58.3801C839.555 67.7337 836.305 51.3068 840.059 47.085C843.812 42.8633 851.079 43.4306 854.26 49.0235C856.516 52.9518 857.05 56.3468 859.95 58.3801Z" fill="#BBD645"/>
<path d="M696.193 6.23963C667.726 5.51255 672.138 26.3017 678.626 29.3526C685.115 32.4034 693.31 28.1123 694.227 19.9981C694.897 14.2883 693.825 10.0602 696.193 6.23963Z" fill="#BBD645"/>
<path d="M211.307 76.8345C183.195 72.2936 191.37 52.6764 198.31 50.8758C205.25 49.0752 212.511 54.8054 211.915 62.9496C211.52 68.6849 209.686 72.6425 211.307 76.8345Z" fill="#BBD645"/>
<path d="M52.2469 4.74425C29.9425 14.1353 40.6298 28.6951 46.7223 28.7895C52.8147 28.8838 57.6617 22.6945 55.5353 16.0886C54.0577 11.4316 51.7489 8.53146 52.2469 4.74425Z" fill="#DCF375"/>
<path d="M663.723 11.2833C684.603 9.34731 682.385 24.8392 677.768 27.4003C673.151 29.9614 666.919 27.2121 665.845 21.2954C665.071 17.1332 665.651 13.9738 663.723 11.2833Z" fill="#DCF375"/>
<path d="M172.575 69.8126C192.739 75.57 193.419 59.9348 189.354 56.5654C185.289 53.196 178.656 54.7475 176.509 60.3642C174.98 64.3122 174.966 67.5242 172.575 69.8126Z" fill="#DCF375"/>
<path d="M334.113 18.9558C313.547 6.20027 307.858 23.342 311.306 28.3652C314.755 33.3884 322.608 33.7596 326.765 28.2026C329.707 24.3025 330.737 20.7413 334.113 18.9558Z" fill="#DCF375"/>
<path d="M466.562 63.2682C488.177 74.1508 492.325 56.5724 488.445 51.8745C484.565 47.1767 476.71 47.5029 473.062 53.4065C470.476 57.552 469.767 61.1904 466.562 63.2682Z" fill="#DCF375"/>
<path d="M409.147 8.14303C432.709 13.6682 424.609 29.8115 418.618 30.9243C412.628 32.0371 406.813 26.7464 407.804 19.8778C408.481 15.0391 410.272 11.7935 409.147 8.14303Z" fill="#DCF375"/>
<path d="M632.787 70.8198C637.708 47.1247 619.655 47.665 616.121 52.6284C612.587 57.5918 614.934 65.0947 621.58 67.0915C626.253 68.5168 629.951 68.2611 632.787 70.8198Z" fill="#DCF375"/>
</svg>
