<svg width="287" height="79" viewBox="0 0 287 79" fill="none" xmlns="http://www.w3.org/2000/svg">
<path d="M264.557 68.1188C252.434 73.6787 250.502 63.9143 252.733 61.4049C254.964 58.8954 259.284 59.2326 261.174 62.5571C262.515 64.8921 262.833 66.9102 264.557 68.1188Z" fill="#BBD645"/>
<path d="M170.56 37.6226C153.639 37.1904 156.262 49.5477 160.118 51.3612C163.975 53.1747 168.846 50.624 169.392 45.8008C169.79 42.4068 169.153 39.8936 170.56 37.6226Z" fill="#BBD645"/>
<path d="M151.259 40.617C163.671 39.4663 162.352 48.6749 159.608 50.1972C156.863 51.7196 153.159 50.0853 152.52 46.5684C152.061 44.0943 152.405 42.2163 151.259 40.617Z" fill="#DCF375"/>
<path d="M132.123 75.3533C135.048 61.2686 124.317 61.5898 122.216 64.5401C120.116 67.4904 121.511 71.9503 125.461 73.1372C128.239 73.9844 130.437 73.8324 132.123 75.3533Z" fill="#DCF375"/>
<path d="M272.409 36.6665C285.258 43.1353 287.724 32.6865 285.417 29.894C283.111 27.1015 278.442 27.2954 276.273 30.8046C274.736 33.2688 274.315 35.4315 272.409 36.6665Z" fill="#DCF375"/>
<path d="M242.027 3.90159C256.033 7.18584 251.218 16.7816 247.657 17.4431C244.096 18.1046 240.64 14.9597 241.229 10.8769C241.632 8.00073 242.696 6.07146 242.027 3.90159Z" fill="#DCF375"/>
<path d="M195.438 9.73437C183.214 2.15233 179.832 12.3416 181.882 15.3275C183.932 18.3133 188.599 18.534 191.07 15.2308C192.82 12.9125 193.431 10.7957 195.438 9.73437Z" fill="#DCF375"/>
<path d="M125.435 44.7364C108.725 42.0373 113.584 30.3765 117.709 29.3062C121.834 28.2359 126.151 31.642 125.797 36.483C125.561 39.8922 124.471 42.2446 125.435 44.7364Z" fill="#BBD645"/>
<path d="M102.412 40.5557C114.398 43.978 114.802 34.6843 112.386 32.6814C109.97 30.6786 106.027 31.6009 104.75 34.9395C103.842 37.2862 103.834 39.1955 102.412 40.5557Z" fill="#DCF375"/>
<path d="M30.0562 1.88345C16.7982 7.4656 23.1509 16.1201 26.7723 16.1762C30.3937 16.2324 33.2749 12.5533 32.0109 8.62668C31.1325 5.85851 29.7602 4.13462 30.0562 1.88345Z" fill="#DCF375"/>
<path d="M2.08543 11.3499C23.9158 -1.04804 29.1262 16.9491 25.3499 22.018C21.5737 27.0868 13.4187 27.1568 9.33252 21.2298C6.4383 17.069 5.51426 13.3362 2.08543 11.3499Z" fill="#BBD645"/>
</svg>
