<svg width="275" height="374" viewBox="0 0 275 374" fill="none" xmlns="http://www.w3.org/2000/svg">
<path d="M262.848 47.3967C245.321 17.9259 269.134 10.4508 276.073 15.4873C283.011 20.5237 283.465 31.6287 275.727 37.3187C270.296 41.348 265.35 42.685 262.848 47.3967Z" fill="#BBD645"/>
<path d="M251.465 365.239C267.834 359.67 268.737 372.4 265.486 375.326C262.236 378.251 256.775 377.271 254.893 372.78C253.555 369.624 253.472 367.004 251.465 365.239Z" fill="#BBD645"/>
<path d="M13.7955 343.537C-18.4733 365.09 2.84622 384.056 12.4778 382.257C22.1093 380.457 27.8468 369.397 22.465 359.923C18.7047 353.237 14.1745 349.516 13.7955 343.537Z" fill="#BBD645"/>
<path d="M219.163 13.739C253.3 45.1093 269.288 14.8126 264.477 4.11365C259.666 -6.58525 245.207 -10.0798 235.731 -1.08101C229.034 5.22548 225.996 11.574 219.163 13.739Z" fill="#BBD645"/>
<path d="M250.646 33.3903C284.152 24.9145 271.871 1.49051 263.245 -0.029558C254.619 -1.54963 246.517 6.27472 248.226 16.284C249.401 23.3353 252.102 28.042 250.646 33.3903Z" fill="#DCF375"/>
<path d="M262.966 345.038C252.254 371.528 273.175 374.203 278.304 369.111C283.433 364.02 282.325 354.918 275.09 351.395C270.007 348.894 265.69 348.514 262.966 345.038Z" fill="#DCF375"/>
<path d="M34.9836 361.034C44.7727 385.947 24.4874 388.791 19.6375 384.048C14.7875 379.306 16.0546 370.675 23.1255 367.233C28.0934 364.789 32.275 364.365 34.9836 361.034Z" fill="#DCF375"/>
</svg>
