<svg width="565" height="148" viewBox="0 0 565 148" fill="none" xmlns="http://www.w3.org/2000/svg">
<path d="M524.278 70.5166C546.444 98.2588 522.46 109.533 514.541 105.384C506.622 101.234 504.713 89.8578 512.086 82.8338C517.255 77.867 522.264 75.7473 524.278 70.5166Z" fill="#DCF375"/>
<path d="M2.56835 24.2505C49.9107 -2.63639 61.2104 36.3931 53.021 47.3857C44.8315 58.3783 27.1464 58.5301 18.2848 45.6764C12.0082 36.6531 10.0043 28.558 2.56835 24.2505Z" fill="#BBD645"/>
<path d="M371.425 27.4164C339.479 9.27365 331.855 35.61 337.381 43.0275C342.907 50.4451 354.84 50.5475 360.82 41.8741C365.055 35.7854 366.408 30.323 371.425 27.4164Z" fill="#BBD645"/>
<path d="M560.548 116.765C535.091 75.8105 509.782 101.396 511.502 113.414C513.222 125.433 526.918 133.036 539.253 126.785C547.955 122.42 552.94 116.97 560.548 116.765Z" fill="#BBD645"/>
<path d="M26.4729 98.2635C18.6606 134.134 46.0532 133.58 51.4871 126.102C56.921 118.625 53.4712 107.21 43.4188 104.083C36.3509 101.853 30.7375 102.186 26.4729 98.2635Z" fill="#BBD645"/>
<path d="M59.187 18.7161C34.2534 29.2142 46.2005 45.4903 53.0111 45.5958C59.8217 45.7013 65.2401 38.7824 62.863 31.3977C61.2112 26.1918 58.6303 22.9498 59.187 18.7161Z" fill="#DCF375"/>
<path d="M326.793 3.18877C351.726 13.6868 339.779 29.9629 332.968 30.0684C326.158 30.1739 320.739 23.255 323.116 15.8704C324.768 10.6644 327.349 7.42242 326.793 3.18877Z" fill="#DCF375"/>
<path d="M28.8586 138.708C31.4639 111.78 50.5572 118.344 52.684 124.815C54.8108 131.286 49.8171 138.517 42.0596 138.444C36.598 138.416 32.7349 136.917 28.8586 138.708Z" fill="#DCF375"/>
<path d="M212.416 92.4959C238.878 86.8695 238.37 107.053 232.84 111.03C227.31 115.007 218.91 112.424 216.643 105.005C215.025 99.7881 215.292 95.6528 212.416 92.4959Z" fill="#DCF375"/>
<path d="M383.971 114.707C383.35 141.754 403.089 137.511 405.972 131.34C408.854 125.168 404.758 117.393 397.047 116.541C391.621 115.919 387.606 116.947 383.971 114.707Z" fill="#DCF375"/>
<path d="M188.971 44.7074C188.35 71.7538 208.089 67.511 210.972 61.3396C213.854 55.1682 209.758 47.3934 202.047 46.5413C196.621 45.9188 192.606 46.9474 188.971 44.7074Z" fill="#DCF375"/>
<path d="M268.486 15.7489C242.974 6.74558 240.867 26.8255 245.835 31.4847C250.804 36.1439 259.468 34.6688 262.676 27.6055C264.955 22.6422 265.226 18.5072 268.486 15.7489Z" fill="#DCF375"/>
</svg>
