<svg width="101" height="38" viewBox="0 0 101 38" fill="none" xmlns="http://www.w3.org/2000/svg">
<path d="M99.3477 26.2322C87.2896 32.469 84.8553 22.6342 87.003 19.9754C89.1508 17.3165 93.5586 17.4513 95.641 20.7404C97.1168 23.0498 97.537 25.0863 99.3477 26.2322Z" fill="#BBD645"/>
<path d="M82.5172 34.5355C91.8755 31.0199 87.6996 24.8373 85.1864 24.6998C82.6732 24.5623 80.5724 27.0387 81.3433 29.7997C81.8779 31.7459 82.784 32.9803 82.5172 34.5355Z" fill="#DCF375"/>
<path d="M65.349 3.23321C52.3154 -0.884475 51.5885 9.29059 54.1758 11.5598C56.763 13.8291 61.113 12.9386 62.6143 9.318C63.682 6.77341 63.7493 4.68082 65.349 3.23321Z" fill="#DCF375"/>
<path d="M22.8776 35.4041C36.4354 33.6674 32.8219 24.1279 29.5209 23.155C26.2198 22.1821 22.6461 24.817 22.804 28.7334C22.9037 31.4911 23.7214 33.4185 22.8776 35.4041Z" fill="#DCF375"/>
<path d="M2.85902 2.76249C11.1765 3.7259 9.03371 9.59591 7.01892 10.2163C5.00413 10.8366 2.79557 9.2491 2.86334 6.84902C2.904 5.1591 3.39059 3.97246 2.85902 2.76249Z" fill="#BBD645"/>
</svg>
