<svg width="168" height="66" viewBox="0 0 168 66" fill="none" xmlns="http://www.w3.org/2000/svg">
<path d="M166.407 45.5316C145.362 56.4164 141.114 39.2523 144.862 34.6118C148.61 29.9713 156.303 30.2066 159.938 35.947C162.513 39.9776 163.247 43.5318 166.407 45.5316Z" fill="#BBD645"/>
<path d="M137.033 60.0131C153.366 53.8775 146.078 43.0872 141.692 42.8473C137.305 42.6073 133.639 46.9291 134.984 51.748C135.917 55.1445 137.499 57.2989 137.033 60.0131Z" fill="#DCF375"/>
<path d="M107.07 5.38434C84.3231 -1.8021 83.0545 15.9561 87.57 19.9165C92.0855 23.8769 99.6772 22.3229 102.298 16.0039C104.161 11.5629 104.278 7.9108 107.07 5.38434Z" fill="#DCF375"/>
<path d="M32.9463 61.5388C56.6083 58.5079 50.3018 41.8588 44.5406 40.1609C38.7794 38.463 32.5422 43.0616 32.8179 49.8968C32.9919 54.7097 34.419 58.0735 32.9463 61.5388Z" fill="#DCF375"/>
<path d="M4.98974 6.30672C19.5059 7.98813 15.7662 18.2328 12.2499 19.3155C8.73352 20.3982 4.879 17.6276 4.99728 13.4388C5.06823 10.4894 5.91746 8.41845 4.98974 6.30672Z" fill="#BBD645"/>
</svg>
