<svg width="153" height="60" viewBox="0 0 153 60" fill="none" xmlns="http://www.w3.org/2000/svg">
<path d="M4.52408 5.3892C17.6855 6.9137 14.2948 16.2023 11.1067 17.184C7.91848 18.1656 4.42367 15.6535 4.53091 11.8557C4.59525 9.18158 5.36522 7.30386 4.52408 5.3892Z" fill="#BBD645"/>
<path d="M150.877 40.952C131.797 50.821 127.944 35.2587 131.343 31.0513C134.742 26.8439 141.717 27.0572 145.012 32.2619C147.347 35.9163 148.012 39.1389 150.877 40.952Z" fill="#BBD645"/>
<path d="M29.8717 55.469C51.3255 52.7209 45.6076 37.6256 40.384 36.0862C35.1605 34.5467 29.5054 38.7162 29.7553 44.9134C29.9131 49.2772 31.207 52.3271 29.8717 55.469Z" fill="#DCF375"/>
<path d="M124.245 54.0877C139.053 48.5248 132.445 38.7415 128.468 38.5239C124.492 38.3063 121.167 42.2249 122.387 46.594C123.233 49.6735 124.667 51.6269 124.245 54.0877Z" fill="#DCF375"/>
<path d="M97.0779 4.55155C76.4536 -1.96423 75.3034 14.1367 79.3975 17.7275C83.4916 21.3183 90.3749 19.9093 92.7506 14.1801C94.44 10.1535 94.5466 6.84223 97.0779 4.55155Z" fill="#DCF375"/>
</svg>
