<svg width="846" height="378" fill="none" xmlns="http://www.w3.org/2000/svg"><g filter="url(#filter0_d)"><path d="M219.91 227.211h40.283v56.885H219.91V361h-70.556v-76.904H3.602L.428 239.662 148.62 5.532h71.289V227.21zm-149.17 0h78.614V101.723l-4.639 8.056L70.74 227.211zm466.797-13.184c0 49.154-10.172 86.752-30.517 112.793-20.346 26.042-50.131 39.063-89.356 39.063-38.737 0-68.359-12.777-88.867-38.33-20.508-25.554-31.006-62.175-31.494-109.864V152.26c0-49.642 10.254-87.321 30.761-113.037C348.735 13.507 378.439.648 417.176.648c38.737 0 68.359 12.777 88.867 38.33 20.508 25.391 31.006 61.931 31.494 109.62v65.429zM466.98 142.25c0-29.46-4.069-50.863-12.207-64.209-7.975-13.51-20.507-20.264-37.597-20.264-16.602 0-28.89 6.43-36.865 19.287-7.813 12.696-11.963 32.634-12.452 59.815v86.426c0 28.971 3.907 50.537 11.719 64.697 7.975 13.997 20.671 20.996 38.086 20.996 17.253 0 29.704-6.755 37.354-20.264 7.649-13.509 11.637-34.179 11.962-62.011V142.25zm327.149 84.961h40.283v56.885h-40.283V361h-70.557v-76.904H577.82l-3.174-44.434L722.84 5.532h71.289V227.21zm-149.17 0h78.613V101.723l-4.638 8.056-73.975 117.432z" fill="#1D2E3E"/></g><defs><filter id="filter0_d" x=".43" y=".648" width="845.164" height="376.414" filterUnits="userSpaceOnUse" color-interpolation-filters="sRGB"><feFlood flood-opacity="0" result="BackgroundImageFix"/><feColorMatrix in="SourceAlpha" values="0 0 0 0 0 0 0 0 0 0 0 0 0 0 0 0 0 0 127 0" result="hardAlpha"/><feOffset dx="11.18" dy="11.18"/><feColorMatrix values="0 0 0 0 0.12549 0 0 0 0 0.384314 0 0 0 0 0.686275 0 0 0 1 0"/><feBlend in2="BackgroundImageFix" result="effect1_dropShadow"/><feBlend in="SourceGraphic" in2="effect1_dropShadow" result="shape"/></filter></defs></svg>