<svg width="180" height="39" viewBox="0 0 180 39" fill="none" xmlns="http://www.w3.org/2000/svg">
<path d="M179.028 31.9447C161.98 41.516 157.991 27.4805 160.952 23.5475C163.912 19.6146 170.263 19.5914 173.422 24.2229C175.66 27.4743 176.366 30.3848 179.028 31.9447Z" fill="#DCF375"/>
<path d="M138.649 4.37481C124.793 -0.00271691 124.021 10.8144 126.771 13.2269C129.522 15.6393 134.146 14.6927 135.742 10.8436C136.877 8.13842 136.949 5.91378 138.649 4.37481Z" fill="#DCF375"/>
<path d="M109.528 36.3244C95.1166 35.5558 98.1756 25.2285 101.575 23.946C104.975 22.6634 108.944 25.1584 109.084 29.2946C109.195 32.2062 108.485 34.2996 109.528 36.3244Z" fill="#BBD645"/>
<path d="M89.6309 34.8816C100.103 36.6928 99.6005 28.7772 97.37 27.2991C95.1396 25.8209 91.881 26.9613 91.1024 29.9077C90.5456 31.9798 90.7123 33.5991 89.6309 34.8816Z" fill="#DCF375"/>
<path d="M68.3289 4.32381C77.1712 5.34802 74.8932 11.5885 72.7513 12.248C70.6093 12.9074 68.2614 11.2198 68.3335 8.66822C68.3767 6.87166 68.894 5.61014 68.3289 4.32381Z" fill="#BBD645"/>
<path d="M27.2113 1.48411C15.5947 6.37515 21.1609 13.9582 24.334 14.0074C27.507 14.0565 30.0315 10.833 28.924 7.39248C28.1544 4.96703 26.9519 3.45657 27.2113 1.48411Z" fill="#DCF375"/>
<path d="M1.1966 7.89973C23.2534 -4.6269 28.518 13.557 24.7025 18.6784C20.887 23.7999 12.6475 23.8706 8.51888 17.8821C5.59464 13.6781 4.661 9.90658 1.1966 7.89973Z" fill="#BBD645"/>
</svg>
